  0
SECTION
  2
ENTITIES
  0
POLYLINE
  8
0
 10
0
 20
0
 39
0
 70
1
 66
1
  0
VERTEX
  8
0
 10
0
 20
0
 42
0
  0
VERTEX
  8
0
 10
1800
 20
0
 42
0
  0
VERTEX
  8
0
 10
1800
 20
900
 42
0
  0
VERTEX
  8
0
 10
0
 20
900
 42
0
  0
SEQEND
  0
POLYLINE
  8
0
 10
0
 20
0
 39
0
 70
1
 66
1
  0
VERTEX
  8
0
 10
110
 20
515
 42
0
  0
VERTEX
  8
0
 10
110
 20
857.5
 42
1
  0
VERTEX
  8
0
 10
65
 20
857.5
 42
0
  0
VERTEX
  8
0
 10
65
 20
500
 42
0
  0
VERTEX
  8
0
 10
85
 20
450
 42
0
  0
VERTEX
  8
0
 10
100
 20
450
 42
-0
  0
VERTEX
  8
0
 10
100
 20
500
 42
-0
  0
SEQEND
  0
POLYLINE
  8
0
 10
0
 20
0
 39
0
 70
1
 66
1
  0
VERTEX
  8
0
 10
220
 20
515
 42
0
  0
VERTEX
  8
0
 10
220
 20
857.5
 42
1
  0
VERTEX
  8
0
 10
175
 20
857.5
 42
0
  0
VERTEX
  8
0
 10
175
 20
500
 42
0
  0
VERTEX
  8
0
 10
195
 20
450
 42
0
  0
VERTEX
  8
0
 10
210
 20
450
 42
-0
  0
VERTEX
  8
0
 10
210
 20
500
 42
-0
  0
SEQEND
  0
POLYLINE
  8
0
 10
0
 20
0
 39
0
 70
1
 66
1
  0
VERTEX
  8
0
 10
746.18402099609375
 20
620
 42
-0
  0
VERTEX
  8
0
 10
746.18402099609375
 20
320
 42
-0
  0
VERTEX
  8
0
 10
796.18402099609375
 20
320
 42
-0
  0
VERTEX
  8
0
 10
796.18402099609375
 20
620
 42
-0
  0
SEQEND
  0
POLYLINE
  8
0
 10
0
 20
0
 39
0
 70
1
 66
1
  0
VERTEX
  8
0
 10
275
 20
515
 42
0
  0
VERTEX
  8
0
 10
275
 20
857.5
 42
1
  0
VERTEX
  8
0
 10
230
 20
857.5
 42
0
  0
VERTEX
  8
0
 10
230
 20
500
 42
0
  0
VERTEX
  8
0
 10
250
 20
450
 42
0
  0
VERTEX
  8
0
 10
265
 20
450
 42
-0
  0
VERTEX
  8
0
 10
265
 20
500
 42
-0
  0
SEQEND
  0
POLYLINE
  8
0
 10
0
 20
0
 39
0
 70
1
 66
1
  0
VERTEX
  8
0
 10
626.18402099609375
 20
310
 42
-0
  0
VERTEX
  8
0
 10
626.18402099609375
 20
10
 42
-0
  0
VERTEX
  8
0
 10
676.18402099609375
 20
10
 42
-0
  0
VERTEX
  8
0
 10
676.18402099609375
 20
310
 42
-0
  0
SEQEND
  0
POLYLINE
  8
0
 10
0
 20
0
 39
0
 70
1
 66
1
  0
VERTEX
  8
0
 10
1379.116943359375
 20
305
 42
0
  0
VERTEX
  8
0
 10
1379.116943359375
 20
430
 42
0
  0
VERTEX
  8
0
 10
1309.116943359375
 20
225
 42
0
  0
VERTEX
  8
0
 10
1359.116943359375
 20
225
 42
0
  0
VERTEX
  8
0
 10
1359.116943359375
 20
275
 42
0
  0
SEQEND
  0
POLYLINE
  8
0
 10
0
 20
0
 39
0
 70
1
 66
1
  0
VERTEX
  8
0
 10
1298.345458984375
 20
350
 42
0
  0
VERTEX
  8
0
 10
1298.345458984375
 20
225
 42
0
  0
VERTEX
  8
0
 10
1368.345458984375
 20
430
 42
0
  0
VERTEX
  8
0
 10
1318.345458984375
 20
430
 42
0
  0
VERTEX
  8
0
 10
1318.345458984375
 20
380
 42
0
  0
SEQEND
  0
POLYLINE
  8
0
 10
0
 20
0
 39
0
 70
1
 66
1
  0
VERTEX
  8
0
 10
1386.54296875
 20
735
 42
0
  0
VERTEX
  8
0
 10
1386.54296875
 20
860
 42
0
  0
VERTEX
  8
0
 10
1316.54296875
 20
655
 42
0
  0
VERTEX
  8
0
 10
1366.54296875
 20
655
 42
0
  0
VERTEX
  8
0
 10
1366.54296875
 20
705
 42
0
  0
SEQEND
  0
POLYLINE
  8
0
 10
0
 20
0
 39
0
 70
1
 66
1
  0
VERTEX
  8
0
 10
1305.771484375
 20
780
 42
0
  0
VERTEX
  8
0
 10
1305.771484375
 20
655
 42
0
  0
VERTEX
  8
0
 10
1375.771484375
 20
860
 42
0
  0
VERTEX
  8
0
 10
1325.771484375
 20
860
 42
0
  0
VERTEX
  8
0
 10
1325.771484375
 20
810
 42
0
  0
SEQEND
  0
POLYLINE
  8
0
 10
0
 20
0
 39
0
 70
1
 66
1
  0
VERTEX
  8
0
 10
1288.345458984375
 20
305
 42
0
  0
VERTEX
  8
0
 10
1288.345458984375
 20
430
 42
0
  0
VERTEX
  8
0
 10
1218.345458984375
 20
225
 42
0
  0
VERTEX
  8
0
 10
1268.345458984375
 20
225
 42
0
  0
VERTEX
  8
0
 10
1268.345458984375
 20
275
 42
0
  0
SEQEND
  0
POLYLINE
  8
0
 10
0
 20
0
 39
0
 70
1
 66
1
  0
VERTEX
  8
0
 10
1207.573974609375
 20
350
 42
0
  0
VERTEX
  8
0
 10
1207.573974609375
 20
225
 42
0
  0
VERTEX
  8
0
 10
1277.573974609375
 20
430
 42
0
  0
VERTEX
  8
0
 10
1227.573974609375
 20
430
 42
0
  0
VERTEX
  8
0
 10
1227.573974609375
 20
380
 42
0
  0
SEQEND
  0
POLYLINE
  8
0
 10
0
 20
0
 39
0
 70
1
 66
1
  0
VERTEX
  8
0
 10
1379.116943359375
 20
90
 42
0
  0
VERTEX
  8
0
 10
1379.116943359375
 20
215
 42
0
  0
VERTEX
  8
0
 10
1309.116943359375
 20
10
 42
0
  0
VERTEX
  8
0
 10
1359.116943359375
 20
10
 42
0
  0
VERTEX
  8
0
 10
1359.116943359375
 20
60
 42
0
  0
SEQEND
  0
POLYLINE
  8
0
 10
0
 20
0
 39
0
 70
1
 66
1
  0
VERTEX
  8
0
 10
1298.345458984375
 20
135
 42
0
  0
VERTEX
  8
0
 10
1298.345458984375
 20
10
 42
0
  0
VERTEX
  8
0
 10
1368.345458984375
 20
215
 42
0
  0
VERTEX
  8
0
 10
1318.345458984375
 20
215
 42
0
  0
VERTEX
  8
0
 10
1318.345458984375
 20
165
 42
0
  0
SEQEND
  0
POLYLINE
  8
0
 10
0
 20
0
 39
0
 70
1
 66
1
  0
VERTEX
  8
0
 10
220
 20
75
 42
0
  0
VERTEX
  8
0
 10
220
 20
417.5
 42
1
  0
VERTEX
  8
0
 10
175
 20
417.5
 42
0
  0
VERTEX
  8
0
 10
175
 20
60
 42
0
  0
VERTEX
  8
0
 10
195
 20
10
 42
0
  0
VERTEX
  8
0
 10
210
 20
10
 42
-0
  0
VERTEX
  8
0
 10
210
 20
60
 42
-0
  0
SEQEND
  0
POLYLINE
  8
0
 10
0
 20
0
 39
0
 70
1
 66
1
  0
VERTEX
  8
0
 10
275
 20
75
 42
0
  0
VERTEX
  8
0
 10
275
 20
417.5
 42
1
  0
VERTEX
  8
0
 10
230
 20
417.5
 42
0
  0
VERTEX
  8
0
 10
230
 20
60
 42
0
  0
VERTEX
  8
0
 10
250
 20
10
 42
0
  0
VERTEX
  8
0
 10
265
 20
10
 42
-0
  0
VERTEX
  8
0
 10
265
 20
60
 42
-0
  0
SEQEND
  0
POLYLINE
  8
0
 10
0
 20
0
 39
0
 70
1
 66
1
  0
VERTEX
  8
0
 10
1288.345458984375
 20
90
 42
0
  0
VERTEX
  8
0
 10
1288.345458984375
 20
215
 42
0
  0
VERTEX
  8
0
 10
1218.345458984375
 20
10
 42
0
  0
VERTEX
  8
0
 10
1268.345458984375
 20
10
 42
0
  0
VERTEX
  8
0
 10
1268.345458984375
 20
60
 42
0
  0
SEQEND
  0
POLYLINE
  8
0
 10
0
 20
0
 39
0
 70
1
 66
1
  0
VERTEX
  8
0
 10
1207.573974609375
 20
135
 42
0
  0
VERTEX
  8
0
 10
1207.573974609375
 20
10
 42
0
  0
VERTEX
  8
0
 10
1277.573974609375
 20
215
 42
0
  0
VERTEX
  8
0
 10
1227.573974609375
 20
215
 42
0
  0
VERTEX
  8
0
 10
1227.573974609375
 20
165
 42
0
  0
SEQEND
  0
POLYLINE
  8
0
 10
0
 20
0
 39
0
 70
1
 66
1
  0
VERTEX
  8
0
 10
165
 20
515
 42
0
  0
VERTEX
  8
0
 10
165
 20
857.5
 42
1
  0
VERTEX
  8
0
 10
120
 20
857.5
 42
0
  0
VERTEX
  8
0
 10
120
 20
500
 42
0
  0
VERTEX
  8
0
 10
140
 20
450
 42
0
  0
VERTEX
  8
0
 10
155
 20
450
 42
-0
  0
VERTEX
  8
0
 10
155
 20
500
 42
-0
  0
SEQEND
  0
POLYLINE
  8
0
 10
0
 20
0
 39
0
 70
1
 66
1
  0
VERTEX
  8
0
 10
165
 20
75
 42
0
  0
VERTEX
  8
0
 10
165
 20
417.5
 42
1
  0
VERTEX
  8
0
 10
120
 20
417.5
 42
0
  0
VERTEX
  8
0
 10
120
 20
60
 42
0
  0
VERTEX
  8
0
 10
140
 20
10
 42
0
  0
VERTEX
  8
0
 10
155
 20
10
 42
-0
  0
VERTEX
  8
0
 10
155
 20
60
 42
-0
  0
SEQEND
  0
POLYLINE
  8
0
 10
0
 20
0
 39
0
 70
1
 66
1
  0
VERTEX
  8
0
 10
1386.54296875
 20
520
 42
0
  0
VERTEX
  8
0
 10
1386.54296875
 20
645
 42
0
  0
VERTEX
  8
0
 10
1316.54296875
 20
440
 42
0
  0
VERTEX
  8
0
 10
1366.54296875
 20
440
 42
0
  0
VERTEX
  8
0
 10
1366.54296875
 20
490
 42
0
  0
SEQEND
  0
POLYLINE
  8
0
 10
0
 20
0
 39
0
 70
1
 66
1
  0
VERTEX
  8
0
 10
1305.771484375
 20
565
 42
0
  0
VERTEX
  8
0
 10
1305.771484375
 20
440
 42
0
  0
VERTEX
  8
0
 10
1375.771484375
 20
645
 42
0
  0
VERTEX
  8
0
 10
1325.771484375
 20
645
 42
0
  0
VERTEX
  8
0
 10
1325.771484375
 20
595
 42
0
  0
SEQEND
  0
POLYLINE
  8
0
 10
0
 20
0
 39
0
 70
1
 66
1
  0
VERTEX
  8
0
 10
1295.771484375
 20
735
 42
0
  0
VERTEX
  8
0
 10
1295.771484375
 20
860
 42
0
  0
VERTEX
  8
0
 10
1225.771484375
 20
655
 42
0
  0
VERTEX
  8
0
 10
1275.771484375
 20
655
 42
0
  0
VERTEX
  8
0
 10
1275.771484375
 20
705
 42
0
  0
SEQEND
  0
POLYLINE
  8
0
 10
0
 20
0
 39
0
 70
1
 66
1
  0
VERTEX
  8
0
 10
1215
 20
780
 42
0
  0
VERTEX
  8
0
 10
1215
 20
655
 42
0
  0
VERTEX
  8
0
 10
1285
 20
860
 42
0
  0
VERTEX
  8
0
 10
1235
 20
860
 42
0
  0
VERTEX
  8
0
 10
1235
 20
810
 42
0
  0
SEQEND
  0
POLYLINE
  8
0
 10
0
 20
0
 39
0
 70
1
 66
1
  0
VERTEX
  8
0
 10
1295.771484375
 20
520
 42
0
  0
VERTEX
  8
0
 10
1295.771484375
 20
645
 42
0
  0
VERTEX
  8
0
 10
1225.771484375
 20
440
 42
0
  0
VERTEX
  8
0
 10
1275.771484375
 20
440
 42
0
  0
VERTEX
  8
0
 10
1275.771484375
 20
490
 42
0
  0
SEQEND
  0
POLYLINE
  8
0
 10
0
 20
0
 39
0
 70
1
 66
1
  0
VERTEX
  8
0
 10
1215
 20
565
 42
0
  0
VERTEX
  8
0
 10
1215
 20
440
 42
0
  0
VERTEX
  8
0
 10
1285
 20
645
 42
0
  0
VERTEX
  8
0
 10
1235
 20
645
 42
0
  0
VERTEX
  8
0
 10
1235
 20
595
 42
0
  0
SEQEND
  0
POLYLINE
  8
0
 10
0
 20
0
 39
0
 70
1
 66
1
  0
VERTEX
  8
0
 10
746.18402099609375
 20
310
 42
-0
  0
VERTEX
  8
0
 10
746.18402099609375
 20
10
 42
-0
  0
VERTEX
  8
0
 10
796.18402099609375
 20
10
 42
-0
  0
VERTEX
  8
0
 10
796.18402099609375
 20
310
 42
-0
  0
SEQEND
  0
POLYLINE
  8
0
 10
0
 20
0
 39
0
 70
1
 66
1
  0
VERTEX
  8
0
 10
566.18402099609375
 20
310
 42
-0
  0
VERTEX
  8
0
 10
566.18402099609375
 20
10
 42
-0
  0
VERTEX
  8
0
 10
616.18402099609375
 20
10
 42
-0
  0
VERTEX
  8
0
 10
616.18402099609375
 20
310
 42
-0
  0
SEQEND
  0
POLYLINE
  8
0
 10
0
 20
0
 39
0
 70
1
 66
1
  0
VERTEX
  8
0
 10
566.18402099609375
 20
620
 42
-0
  0
VERTEX
  8
0
 10
566.18402099609375
 20
320
 42
-0
  0
VERTEX
  8
0
 10
616.18402099609375
 20
320
 42
-0
  0
VERTEX
  8
0
 10
616.18402099609375
 20
620
 42
-0
  0
SEQEND
  0
POLYLINE
  8
0
 10
0
 20
0
 39
0
 70
1
 66
1
  0
VERTEX
  8
0
 10
626.18402099609375
 20
620
 42
-0
  0
VERTEX
  8
0
 10
626.18402099609375
 20
320
 42
-0
  0
VERTEX
  8
0
 10
676.18402099609375
 20
320
 42
-0
  0
VERTEX
  8
0
 10
676.18402099609375
 20
620
 42
-0
  0
SEQEND
  0
POLYLINE
  8
0
 10
0
 20
0
 39
0
 70
1
 66
1
  0
VERTEX
  8
0
 10
686.18402099609375
 20
310
 42
-0
  0
VERTEX
  8
0
 10
686.18402099609375
 20
10
 42
-0
  0
VERTEX
  8
0
 10
736.18402099609375
 20
10
 42
-0
  0
VERTEX
  8
0
 10
736.18402099609375
 20
310
 42
-0
  0
SEQEND
  0
POLYLINE
  8
0
 10
0
 20
0
 39
0
 70
1
 66
1
  0
VERTEX
  8
0
 10
686.18402099609375
 20
620
 42
-0
  0
VERTEX
  8
0
 10
686.18402099609375
 20
320
 42
-0
  0
VERTEX
  8
0
 10
736.18402099609375
 20
320
 42
-0
  0
VERTEX
  8
0
 10
736.18402099609375
 20
620
 42
-0
  0
SEQEND
  0
POLYLINE
  8
0
 10
0
 20
0
 39
0
 70
1
 66
1
  0
VERTEX
  8
0
 10
506.18399047851562
 20
310
 42
-0
  0
VERTEX
  8
0
 10
506.18399047851562
 20
10
 42
-0
  0
VERTEX
  8
0
 10
556.18402099609375
 20
10
 42
-0
  0
VERTEX
  8
0
 10
556.18402099609375
 20
310
 42
-0
  0
SEQEND
  0
POLYLINE
  8
0
 10
0
 20
0
 39
0
 70
1
 66
1
  0
VERTEX
  8
0
 10
506.18399047851562
 20
620
 42
-0
  0
VERTEX
  8
0
 10
506.18399047851562
 20
320
 42
-0
  0
VERTEX
  8
0
 10
556.18402099609375
 20
320
 42
-0
  0
VERTEX
  8
0
 10
556.18402099609375
 20
620
 42
-0
  0
SEQEND
  0
POLYLINE
  8
0
 10
0
 20
0
 39
0
 70
1
 66
1
  0
VERTEX
  8
0
 10
886.18402099609375
 20
310
 42
0
  0
VERTEX
  8
0
 10
806.18402099609375
 20
310
 42
0
  0
VERTEX
  8
0
 10
806.18402099609375
 20
10
 42
-0
  0
SEQEND
  0
POLYLINE
  8
0
 10
0
 20
0
 39
0
 70
1
 66
1
  0
VERTEX
  8
0
 10
816.8790283203125
 20
10
 42
0
  0
VERTEX
  8
0
 10
896.8790283203125
 20
10
 42
0
  0
VERTEX
  8
0
 10
896.8790283203125
 20
310
 42
-0
  0
SEQEND
  0
POLYLINE
  8
0
 10
0
 20
0
 39
0
 70
1
 66
1
  0
VERTEX
  8
0
 10
886.18402099609375
 20
620
 42
0
  0
VERTEX
  8
0
 10
806.18402099609375
 20
620
 42
0
  0
VERTEX
  8
0
 10
806.18402099609375
 20
320
 42
-0
  0
SEQEND
  0
POLYLINE
  8
0
 10
0
 20
0
 39
0
 70
1
 66
1
  0
VERTEX
  8
0
 10
816.8790283203125
 20
320
 42
0
  0
VERTEX
  8
0
 10
896.8790283203125
 20
320
 42
0
  0
VERTEX
  8
0
 10
896.8790283203125
 20
620
 42
-0
  0
SEQEND
  0
POLYLINE
  8
0
 10
0
 20
0
 39
0
 70
1
 66
1
  0
VERTEX
  8
0
 10
285
 20
760.59197998046875
 42
0
  0
VERTEX
  8
0
 10
605
 20
690.59197998046875
 42
0
  0
VERTEX
  8
0
 10
605
 20
760.59197998046875
 42
0
  0
VERTEX
  8
0
 10
595
 20
770.59197998046875
 42
0
  0
VERTEX
  8
0
 10
285
 20
770.59197998046875
 42
0
  0
SEQEND
  0
POLYLINE
  8
0
 10
0
 20
0
 39
0
 70
1
 66
1
  0
VERTEX
  8
0
 10
605
 20
680
 42
0
  0
VERTEX
  8
0
 10
285
 20
750
 42
0
  0
VERTEX
  8
0
 10
285
 20
680
 42
0
  0
VERTEX
  8
0
 10
295
 20
670
 42
0
  0
VERTEX
  8
0
 10
605
 20
670
 42
0
  0
SEQEND
  0
POLYLINE
  8
0
 10
0
 20
0
 39
0
 70
1
 66
1
  0
VERTEX
  8
0
 10
486.18399047851562
 20
660
 42
0
  0
VERTEX
  8
0
 10
416.18399047851562
 20
340
 42
0
  0
VERTEX
  8
0
 10
486.18399047851562
 20
340
 42
0
  0
VERTEX
  8
0
 10
496.18399047851562
 20
350
 42
0
  0
VERTEX
  8
0
 10
496.18399047851562
 20
660
 42
0
  0
SEQEND
  0
POLYLINE
  8
0
 10
0
 20
0
 39
0
 70
1
 66
1
  0
VERTEX
  8
0
 10
405.59201049804687
 20
340
 42
0
  0
VERTEX
  8
0
 10
475.59201049804687
 20
660
 42
0
  0
VERTEX
  8
0
 10
405.59201049804687
 20
660
 42
0
  0
VERTEX
  8
0
 10
395.59201049804687
 20
650
 42
0
  0
VERTEX
  8
0
 10
395.59201049804687
 20
340
 42
0
  0
SEQEND
  0
POLYLINE
  8
0
 10
0
 20
0
 39
0
 70
1
 66
1
  0
VERTEX
  8
0
 10
615
 20
710
 42
0
  0
VERTEX
  8
0
 10
615
 20
630
 42
0
  0
VERTEX
  8
0
 10
915
 20
630
 42
-0
  0
SEQEND
  0
POLYLINE
  8
0
 10
0
 20
0
 39
0
 70
1
 66
1
  0
VERTEX
  8
0
 10
915
 20
640.69500732421875
 42
0
  0
VERTEX
  8
0
 10
915
 20
720.69500732421875
 42
0
  0
VERTEX
  8
0
 10
615
 20
720.69500732421875
 42
-0
  0
SEQEND
  0
POLYLINE
  8
0
 10
0
 20
0
 39
0
 70
1
 66
1
  0
VERTEX
  8
0
 10
986.8790283203125
 20
620
 42
0
  0
VERTEX
  8
0
 10
906.8790283203125
 20
620
 42
0
  0
VERTEX
  8
0
 10
906.8790283203125
 20
320
 42
-0
  0
SEQEND
  0
POLYLINE
  8
0
 10
0
 20
0
 39
0
 70
1
 66
1
  0
VERTEX
  8
0
 10
917.573974609375
 20
320
 42
0
  0
VERTEX
  8
0
 10
997.573974609375
 20
320
 42
0
  0
VERTEX
  8
0
 10
997.573974609375
 20
620
 42
-0
  0
SEQEND
  0
POLYLINE
  8
0
 10
0
 20
0
 39
0
 70
1
 66
1
  0
VERTEX
  8
0
 10
615
 20
810.69500732421875
 42
0
  0
VERTEX
  8
0
 10
615
 20
730.69500732421875
 42
0
  0
VERTEX
  8
0
 10
915
 20
730.69500732421875
 42
-0
  0
SEQEND
  0
POLYLINE
  8
0
 10
0
 20
0
 39
0
 70
1
 66
1
  0
VERTEX
  8
0
 10
915
 20
741.3900146484375
 42
0
  0
VERTEX
  8
0
 10
915
 20
821.3900146484375
 42
0
  0
VERTEX
  8
0
 10
615
 20
821.3900146484375
 42
-0
  0
SEQEND
  0
POLYLINE
  8
0
 10
0
 20
0
 39
0
 70
1
 66
1
  0
VERTEX
  8
0
 10
375.59201049804687
 20
330
 42
0
  0
VERTEX
  8
0
 10
305.59201049804687
 20
10
 42
0
  0
VERTEX
  8
0
 10
375.59201049804687
 20
10
 42
0
  0
VERTEX
  8
0
 10
385.59201049804687
 20
20
 42
0
  0
VERTEX
  8
0
 10
385.59201049804687
 20
330
 42
0
  0
SEQEND
  0
POLYLINE
  8
0
 10
0
 20
0
 39
0
 70
1
 66
1
  0
VERTEX
  8
0
 10
295
 20
10
 42
0
  0
VERTEX
  8
0
 10
365
 20
330
 42
0
  0
VERTEX
  8
0
 10
295
 20
330
 42
0
  0
VERTEX
  8
0
 10
285
 20
320
 42
0
  0
VERTEX
  8
0
 10
285
 20
10
 42
0
  0
SEQEND
  0
POLYLINE
  8
0
 10
0
 20
0
 39
0
 70
1
 66
1
  0
VERTEX
  8
0
 10
375.59201049804687
 20
660
 42
0
  0
VERTEX
  8
0
 10
305.59201049804687
 20
340
 42
0
  0
VERTEX
  8
0
 10
375.59201049804687
 20
340
 42
0
  0
VERTEX
  8
0
 10
385.59201049804687
 20
350
 42
0
  0
VERTEX
  8
0
 10
385.59201049804687
 20
660
 42
0
  0
SEQEND
  0
POLYLINE
  8
0
 10
0
 20
0
 39
0
 70
1
 66
1
  0
VERTEX
  8
0
 10
295
 20
340
 42
0
  0
VERTEX
  8
0
 10
365
 20
660
 42
0
  0
VERTEX
  8
0
 10
295
 20
660
 42
0
  0
VERTEX
  8
0
 10
285
 20
650
 42
0
  0
VERTEX
  8
0
 10
285
 20
340
 42
0
  0
SEQEND
  0
POLYLINE
  8
0
 10
0
 20
0
 39
0
 70
1
 66
1
  0
VERTEX
  8
0
 10
986.8790283203125
 20
310
 42
0
  0
VERTEX
  8
0
 10
906.8790283203125
 20
310
 42
0
  0
VERTEX
  8
0
 10
906.8790283203125
 20
10
 42
-0
  0
SEQEND
  0
POLYLINE
  8
0
 10
0
 20
0
 39
0
 70
1
 66
1
  0
VERTEX
  8
0
 10
917.573974609375
 20
10
 42
0
  0
VERTEX
  8
0
 10
997.573974609375
 20
10
 42
0
  0
VERTEX
  8
0
 10
997.573974609375
 20
310
 42
-0
  0
SEQEND
  0
POLYLINE
  8
0
 10
0
 20
0
 39
0
 70
1
 66
1
  0
VERTEX
  8
0
 10
285
 20
871.18402099609375
 42
0
  0
VERTEX
  8
0
 10
605
 20
801.18402099609375
 42
0
  0
VERTEX
  8
0
 10
605
 20
871.18402099609375
 42
0
  0
VERTEX
  8
0
 10
595
 20
881.18402099609375
 42
0
  0
VERTEX
  8
0
 10
285
 20
881.18402099609375
 42
0
  0
SEQEND
  0
POLYLINE
  8
0
 10
0
 20
0
 39
0
 70
1
 66
1
  0
VERTEX
  8
0
 10
605
 20
790.59197998046875
 42
0
  0
VERTEX
  8
0
 10
285
 20
860.59197998046875
 42
0
  0
VERTEX
  8
0
 10
285
 20
790.59197998046875
 42
0
  0
VERTEX
  8
0
 10
295
 20
780.59197998046875
 42
0
  0
VERTEX
  8
0
 10
605
 20
780.59197998046875
 42
0
  0
SEQEND
  0
POLYLINE
  8
0
 10
0
 20
0
 39
0
 70
1
 66
1
  0
VERTEX
  8
0
 10
486.18399047851562
 20
330
 42
0
  0
VERTEX
  8
0
 10
416.18399047851562
 20
10
 42
0
  0
VERTEX
  8
0
 10
486.18399047851562
 20
10
 42
0
  0
VERTEX
  8
0
 10
496.18399047851562
 20
20
 42
0
  0
VERTEX
  8
0
 10
496.18399047851562
 20
330
 42
0
  0
SEQEND
  0
POLYLINE
  8
0
 10
0
 20
0
 39
0
 70
1
 66
1
  0
VERTEX
  8
0
 10
405.59201049804687
 20
10
 42
0
  0
VERTEX
  8
0
 10
475.59201049804687
 20
330
 42
0
  0
VERTEX
  8
0
 10
405.59201049804687
 20
330
 42
0
  0
VERTEX
  8
0
 10
395.59201049804687
 20
320
 42
0
  0
VERTEX
  8
0
 10
395.59201049804687
 20
10
 42
0
  0
SEQEND
  0
POLYLINE
  8
0
 10
0
 20
0
 39
0
 70
1
 66
1
  0
VERTEX
  8
0
 10
1075
 20
660
 42
-0
  0
VERTEX
  8
0
 10
1075
 20
450
 42
-0
  0
VERTEX
  8
0
 10
1135
 20
450
 42
-0
  0
VERTEX
  8
0
 10
1135
 20
660
 42
-0
  0
SEQEND
  0
POLYLINE
  8
0
 10
0
 20
0
 39
0
 70
1
 66
1
  0
VERTEX
  8
0
 10
1137.573974609375
 20
440
 42
-0
  0
VERTEX
  8
0
 10
1137.573974609375
 20
230
 42
-0
  0
VERTEX
  8
0
 10
1197.573974609375
 20
230
 42
-0
  0
VERTEX
  8
0
 10
1197.573974609375
 20
440
 42
-0
  0
SEQEND
  0
POLYLINE
  8
0
 10
0
 20
0
 39
0
 70
1
 66
1
  0
VERTEX
  8
0
 10
1067.573974609375
 20
440
 42
-0
  0
VERTEX
  8
0
 10
1067.573974609375
 20
230
 42
-0
  0
VERTEX
  8
0
 10
1127.573974609375
 20
230
 42
-0
  0
VERTEX
  8
0
 10
1127.573974609375
 20
440
 42
-0
  0
SEQEND
  0
POLYLINE
  8
0
 10
0
 20
0
 39
0
 70
1
 66
1
  0
VERTEX
  8
0
 10
1721.54296875
 20
600
 42
0
  0
VERTEX
  8
0
 10
1721.54296875
 20
630
 42
0
  0
VERTEX
  8
0
 10
1646.54296875
 20
630
 42
-0
  0
VERTEX
  8
0
 10
1636.54296875
 20
620
 42
0
  0
VERTEX
  8
0
 10
1636.54296875
 20
440
 42
0
  0
VERTEX
  8
0
 10
1646.54296875
 20
430
 42
0
  0
VERTEX
  8
0
 10
1666.54296875
 20
430
 42
-0
  0
SEQEND
  0
POLYLINE
  8
0
 10
0
 20
0
 39
0
 70
1
 66
1
  0
VERTEX
  8
0
 10
1687.0059814453125
 20
460
 42
0
  0
VERTEX
  8
0
 10
1687.0059814453125
 20
430
 42
0
  0
VERTEX
  8
0
 10
1762.0059814453125
 20
430
 42
-0
  0
VERTEX
  8
0
 10
1772.0059814453125
 20
440
 42
0
  0
VERTEX
  8
0
 10
1772.0059814453125
 20
620
 42
0
  0
VERTEX
  8
0
 10
1762.0059814453125
 20
630
 42
0
  0
VERTEX
  8
0
 10
1742.0059814453125
 20
630
 42
-0
  0
SEQEND
  0
POLYLINE
  8
0
 10
0
 20
0
 39
0
 70
1
 66
1
  0
VERTEX
  8
0
 10
1145
 20
660
 42
-0
  0
VERTEX
  8
0
 10
1145
 20
450
 42
-0
  0
VERTEX
  8
0
 10
1205
 20
450
 42
-0
  0
VERTEX
  8
0
 10
1205
 20
660
 42
-0
  0
SEQEND
  0
POLYLINE
  8
0
 10
0
 20
0
 39
0
 70
1
 66
1
  0
VERTEX
  8
0
 10
1067.573974609375
 20
220
 42
-0
  0
VERTEX
  8
0
 10
1067.573974609375
 20
10
 42
-0
  0
VERTEX
  8
0
 10
1127.573974609375
 20
10
 42
-0
  0
VERTEX
  8
0
 10
1127.573974609375
 20
220
 42
-0
  0
SEQEND
  0
POLYLINE
  8
0
 10
0
 20
0
 39
0
 70
1
 66
1
  0
VERTEX
  8
0
 10
1714.116943359375
 20
390
 42
0
  0
VERTEX
  8
0
 10
1714.116943359375
 20
420
 42
0
  0
VERTEX
  8
0
 10
1639.116943359375
 20
420
 42
-0
  0
VERTEX
  8
0
 10
1629.116943359375
 20
410
 42
0
  0
VERTEX
  8
0
 10
1629.116943359375
 20
230
 42
0
  0
VERTEX
  8
0
 10
1639.116943359375
 20
220
 42
0
  0
VERTEX
  8
0
 10
1659.116943359375
 20
220
 42
-0
  0
SEQEND
  0
POLYLINE
  8
0
 10
0
 20
0
 39
0
 70
1
 66
1
  0
VERTEX
  8
0
 10
1679.5799560546875
 20
250
 42
0
  0
VERTEX
  8
0
 10
1679.5799560546875
 20
220
 42
0
  0
VERTEX
  8
0
 10
1754.5799560546875
 20
220
 42
-0
  0
VERTEX
  8
0
 10
1764.5799560546875
 20
230
 42
0
  0
VERTEX
  8
0
 10
1764.5799560546875
 20
410
 42
0
  0
VERTEX
  8
0
 10
1754.5799560546875
 20
420
 42
0
  0
VERTEX
  8
0
 10
1734.5799560546875
 20
420
 42
-0
  0
SEQEND
  0
POLYLINE
  8
0
 10
0
 20
0
 39
0
 70
1
 66
1
  0
VERTEX
  8
0
 10
1145
 20
880
 42
-0
  0
VERTEX
  8
0
 10
1145
 20
670
 42
-0
  0
VERTEX
  8
0
 10
1205
 20
670
 42
-0
  0
VERTEX
  8
0
 10
1205
 20
880
 42
-0
  0
SEQEND
  0
POLYLINE
  8
0
 10
0
 20
0
 39
0
 70
1
 66
1
  0
VERTEX
  8
0
 10
1075
 20
880
 42
-0
  0
VERTEX
  8
0
 10
1075
 20
670
 42
-0
  0
VERTEX
  8
0
 10
1135
 20
670
 42
-0
  0
VERTEX
  8
0
 10
1135
 20
880
 42
-0
  0
SEQEND
  0
POLYLINE
  8
0
 10
0
 20
0
 39
0
 70
1
 66
1
  0
VERTEX
  8
0
 10
1714.116943359375
 20
180
 42
0
  0
VERTEX
  8
0
 10
1714.116943359375
 20
210
 42
0
  0
VERTEX
  8
0
 10
1639.116943359375
 20
210
 42
-0
  0
VERTEX
  8
0
 10
1629.116943359375
 20
200
 42
0
  0
VERTEX
  8
0
 10
1629.116943359375
 20
20
 42
0
  0
VERTEX
  8
0
 10
1639.116943359375
 20
10
 42
0
  0
VERTEX
  8
0
 10
1659.116943359375
 20
10
 42
-0
  0
SEQEND
  0
POLYLINE
  8
0
 10
0
 20
0
 39
0
 70
1
 66
1
  0
VERTEX
  8
0
 10
1679.5799560546875
 20
40
 42
0
  0
VERTEX
  8
0
 10
1679.5799560546875
 20
10
 42
0
  0
VERTEX
  8
0
 10
1754.5799560546875
 20
10
 42
-0
  0
VERTEX
  8
0
 10
1764.5799560546875
 20
20
 42
0
  0
VERTEX
  8
0
 10
1764.5799560546875
 20
200
 42
0
  0
VERTEX
  8
0
 10
1754.5799560546875
 20
210
 42
0
  0
VERTEX
  8
0
 10
1734.5799560546875
 20
210
 42
-0
  0
SEQEND
  0
POLYLINE
  8
0
 10
0
 20
0
 39
0
 70
1
 66
1
  0
VERTEX
  8
0
 10
1721.54296875
 20
810
 42
0
  0
VERTEX
  8
0
 10
1721.54296875
 20
840
 42
0
  0
VERTEX
  8
0
 10
1646.54296875
 20
840
 42
-0
  0
VERTEX
  8
0
 10
1636.54296875
 20
830
 42
0
  0
VERTEX
  8
0
 10
1636.54296875
 20
650
 42
0
  0
VERTEX
  8
0
 10
1646.54296875
 20
640
 42
0
  0
VERTEX
  8
0
 10
1666.54296875
 20
640
 42
-0
  0
SEQEND
  0
POLYLINE
  8
0
 10
0
 20
0
 39
0
 70
1
 66
1
  0
VERTEX
  8
0
 10
1687.0059814453125
 20
670
 42
0
  0
VERTEX
  8
0
 10
1687.0059814453125
 20
640
 42
0
  0
VERTEX
  8
0
 10
1762.0059814453125
 20
640
 42
-0
  0
VERTEX
  8
0
 10
1772.0059814453125
 20
650
 42
0
  0
VERTEX
  8
0
 10
1772.0059814453125
 20
830
 42
0
  0
VERTEX
  8
0
 10
1762.0059814453125
 20
840
 42
0
  0
VERTEX
  8
0
 10
1742.0059814453125
 20
840
 42
-0
  0
SEQEND
  0
POLYLINE
  8
0
 10
0
 20
0
 39
0
 70
1
 66
1
  0
VERTEX
  8
0
 10
1137.573974609375
 20
220
 42
-0
  0
VERTEX
  8
0
 10
1137.573974609375
 20
10
 42
-0
  0
VERTEX
  8
0
 10
1197.573974609375
 20
10
 42
-0
  0
VERTEX
  8
0
 10
1197.573974609375
 20
220
 42
-0
  0
SEQEND
  0
POLYLINE
  8
0
 10
0
 20
0
 39
0
 70
1
 66
1
  0
VERTEX
  8
0
 10
1389.116943359375
 20
403
 42
0
  0
VERTEX
  8
0
 10
1389.116943359375
 20
249
 42
1
  0
VERTEX
  8
0
 10
1439.116943359375
 20
249
 42
0
  0
VERTEX
  8
0
 10
1439.116943359375
 20
403
 42
1
  0
SEQEND
  0
POLYLINE
  8
0
 10
0
 20
0
 39
0
 70
1
 66
1
  0
VERTEX
  8
0
 10
1449.116943359375
 20
189
 42
0
  0
VERTEX
  8
0
 10
1449.116943359375
 20
35
 42
1
  0
VERTEX
  8
0
 10
1499.116943359375
 20
35
 42
0
  0
VERTEX
  8
0
 10
1499.116943359375
 20
189
 42
1
  0
SEQEND
  0
POLYLINE
  8
0
 10
0
 20
0
 39
0
 70
1
 66
1
  0
VERTEX
  8
0
 10
1396.54296875
 20
831
 42
0
  0
VERTEX
  8
0
 10
1396.54296875
 20
677
 42
1
  0
VERTEX
  8
0
 10
1446.54296875
 20
677
 42
0
  0
VERTEX
  8
0
 10
1446.54296875
 20
831
 42
1
  0
SEQEND
  0
POLYLINE
  8
0
 10
0
 20
0
 39
0
 70
1
 66
1
  0
VERTEX
  8
0
 10
851
 20
856
 42
0
  0
VERTEX
  8
0
 10
1047
 20
856
 42
0
  0
VERTEX
  8
0
 10
1057
 20
866
 42
0
  0
VERTEX
  8
0
 10
1047
 20
876
 42
0
  0
VERTEX
  8
0
 10
851
 20
876
 42
0
  0
VERTEX
  8
0
 10
841
 20
866
 42
0
  0
SEQEND
  0
POLYLINE
  8
0
 10
0
 20
0
 39
0
 70
1
 66
1
  0
VERTEX
  8
0
 10
985
 20
836
 42
0
  0
VERTEX
  8
0
 10
985
 20
640
 42
0
  0
VERTEX
  8
0
 10
995
 20
630
 42
0
  0
VERTEX
  8
0
 10
1005
 20
640
 42
0
  0
VERTEX
  8
0
 10
1005
 20
836
 42
0
  0
VERTEX
  8
0
 10
995
 20
846
 42
0
  0
SEQEND
  0
POLYLINE
  8
0
 10
0
 20
0
 39
0
 70
1
 66
1
  0
VERTEX
  8
0
 10
55
 20
75
 42
0
  0
VERTEX
  8
0
 10
55
 20
417.5
 42
1
  0
VERTEX
  8
0
 10
10
 20
417.5
 42
0
  0
VERTEX
  8
0
 10
10
 20
60
 42
0
  0
VERTEX
  8
0
 10
30
 20
10
 42
0
  0
VERTEX
  8
0
 10
45
 20
10
 42
-0
  0
VERTEX
  8
0
 10
45
 20
60
 42
-0
  0
SEQEND
  0
POLYLINE
  8
0
 10
0
 20
0
 39
0
 70
1
 66
1
  0
VERTEX
  8
0
 10
110
 20
75
 42
0
  0
VERTEX
  8
0
 10
110
 20
417.5
 42
1
  0
VERTEX
  8
0
 10
65
 20
417.5
 42
0
  0
VERTEX
  8
0
 10
65
 20
60
 42
0
  0
VERTEX
  8
0
 10
85
 20
10
 42
0
  0
VERTEX
  8
0
 10
100
 20
10
 42
-0
  0
VERTEX
  8
0
 10
100
 20
60
 42
-0
  0
SEQEND
  0
POLYLINE
  8
0
 10
0
 20
0
 39
0
 70
1
 66
1
  0
VERTEX
  8
0
 10
1516.54296875
 20
617
 42
0
  0
VERTEX
  8
0
 10
1516.54296875
 20
463
 42
1
  0
VERTEX
  8
0
 10
1566.54296875
 20
463
 42
0
  0
VERTEX
  8
0
 10
1566.54296875
 20
617
 42
1
  0
SEQEND
  0
POLYLINE
  8
0
 10
0
 20
0
 39
0
 70
1
 66
1
  0
VERTEX
  8
0
 10
1576.54296875
 20
831
 42
0
  0
VERTEX
  8
0
 10
1576.54296875
 20
677
 42
1
  0
VERTEX
  8
0
 10
1626.54296875
 20
677
 42
0
  0
VERTEX
  8
0
 10
1626.54296875
 20
831
 42
1
  0
SEQEND
  0
POLYLINE
  8
0
 10
0
 20
0
 39
0
 70
1
 66
1
  0
VERTEX
  8
0
 10
1037.573974609375
 20
216
 42
0
  0
VERTEX
  8
0
 10
1037.573974609375
 20
20
 42
0
  0
VERTEX
  8
0
 10
1047.573974609375
 20
10
 42
0
  0
VERTEX
  8
0
 10
1057.573974609375
 20
20
 42
0
  0
VERTEX
  8
0
 10
1057.573974609375
 20
216
 42
0
  0
VERTEX
  8
0
 10
1047.573974609375
 20
226
 42
0
  0
SEQEND
  0
POLYLINE
  8
0
 10
0
 20
0
 39
0
 70
1
 66
1
  0
VERTEX
  8
0
 10
1456.54296875
 20
617
 42
0
  0
VERTEX
  8
0
 10
1456.54296875
 20
463
 42
1
  0
VERTEX
  8
0
 10
1506.54296875
 20
463
 42
0
  0
VERTEX
  8
0
 10
1506.54296875
 20
617
 42
1
  0
SEQEND
  0
POLYLINE
  8
0
 10
0
 20
0
 39
0
 70
1
 66
1
  0
VERTEX
  8
0
 10
55
 20
515
 42
0
  0
VERTEX
  8
0
 10
55
 20
857.5
 42
1
  0
VERTEX
  8
0
 10
10
 20
857.5
 42
0
  0
VERTEX
  8
0
 10
10
 20
500
 42
0
  0
VERTEX
  8
0
 10
30
 20
450
 42
0
  0
VERTEX
  8
0
 10
45
 20
450
 42
-0
  0
VERTEX
  8
0
 10
45
 20
500
 42
-0
  0
SEQEND
  0
POLYLINE
  8
0
 10
0
 20
0
 39
0
 70
1
 66
1
  0
VERTEX
  8
0
 10
1509.116943359375
 20
403
 42
0
  0
VERTEX
  8
0
 10
1509.116943359375
 20
249
 42
1
  0
VERTEX
  8
0
 10
1559.116943359375
 20
249
 42
0
  0
VERTEX
  8
0
 10
1559.116943359375
 20
403
 42
1
  0
SEQEND
  0
POLYLINE
  8
0
 10
0
 20
0
 39
0
 70
1
 66
1
  0
VERTEX
  8
0
 10
1516.54296875
 20
831
 42
0
  0
VERTEX
  8
0
 10
1516.54296875
 20
677
 42
1
  0
VERTEX
  8
0
 10
1566.54296875
 20
677
 42
0
  0
VERTEX
  8
0
 10
1566.54296875
 20
831
 42
1
  0
SEQEND
  0
POLYLINE
  8
0
 10
0
 20
0
 39
0
 70
1
 66
1
  0
VERTEX
  8
0
 10
1389.116943359375
 20
189
 42
0
  0
VERTEX
  8
0
 10
1389.116943359375
 20
35
 42
1
  0
VERTEX
  8
0
 10
1439.116943359375
 20
35
 42
0
  0
VERTEX
  8
0
 10
1439.116943359375
 20
189
 42
1
  0
SEQEND
  0
POLYLINE
  8
0
 10
0
 20
0
 39
0
 70
1
 66
1
  0
VERTEX
  8
0
 10
1396.54296875
 20
617
 42
0
  0
VERTEX
  8
0
 10
1396.54296875
 20
463
 42
1
  0
VERTEX
  8
0
 10
1446.54296875
 20
463
 42
0
  0
VERTEX
  8
0
 10
1446.54296875
 20
617
 42
1
  0
SEQEND
  0
POLYLINE
  8
0
 10
0
 20
0
 39
0
 70
1
 66
1
  0
VERTEX
  8
0
 10
1449.116943359375
 20
403
 42
0
  0
VERTEX
  8
0
 10
1449.116943359375
 20
249
 42
1
  0
VERTEX
  8
0
 10
1499.116943359375
 20
249
 42
0
  0
VERTEX
  8
0
 10
1499.116943359375
 20
403
 42
1
  0
SEQEND
  0
POLYLINE
  8
0
 10
0
 20
0
 39
0
 70
1
 66
1
  0
VERTEX
  8
0
 10
1456.54296875
 20
831
 42
0
  0
VERTEX
  8
0
 10
1456.54296875
 20
677
 42
1
  0
VERTEX
  8
0
 10
1506.54296875
 20
677
 42
0
  0
VERTEX
  8
0
 10
1506.54296875
 20
831
 42
1
  0
SEQEND
  0
POLYLINE
  8
0
 10
0
 20
0
 39
0
 70
1
 66
1
  0
VERTEX
  8
0
 10
1576.54296875
 20
617
 42
0
  0
VERTEX
  8
0
 10
1576.54296875
 20
463
 42
1
  0
VERTEX
  8
0
 10
1626.54296875
 20
463
 42
0
  0
VERTEX
  8
0
 10
1626.54296875
 20
617
 42
1
  0
SEQEND
  0
POLYLINE
  8
0
 10
0
 20
0
 39
0
 70
1
 66
1
  0
VERTEX
  8
0
 10
1045
 20
668
 42
0
  0
VERTEX
  8
0
 10
1045
 20
472
 42
0
  0
VERTEX
  8
0
 10
1055
 20
462
 42
0
  0
VERTEX
  8
0
 10
1065
 20
472
 42
0
  0
VERTEX
  8
0
 10
1065
 20
668
 42
0
  0
VERTEX
  8
0
 10
1055
 20
678
 42
0
  0
SEQEND
  0
POLYLINE
  8
0
 10
0
 20
0
 39
0
 70
1
 66
1
  0
VERTEX
  8
0
 10
625
 20
831.3900146484375
 42
0
  0
VERTEX
  8
0
 10
821
 20
831.3900146484375
 42
0
  0
VERTEX
  8
0
 10
831
 20
841.3900146484375
 42
0
  0
VERTEX
  8
0
 10
821
 20
851.3900146484375
 42
0
  0
VERTEX
  8
0
 10
625
 20
851.3900146484375
 42
0
  0
VERTEX
  8
0
 10
615
 20
841.3900146484375
 42
0
  0
SEQEND
  0
POLYLINE
  8
0
 10
0
 20
0
 39
0
 70
1
 66
1
  0
VERTEX
  8
0
 10
625
 20
861.3900146484375
 42
0
  0
VERTEX
  8
0
 10
821
 20
861.3900146484375
 42
0
  0
VERTEX
  8
0
 10
831
 20
871.3900146484375
 42
0
  0
VERTEX
  8
0
 10
821
 20
881.3900146484375
 42
0
  0
VERTEX
  8
0
 10
625
 20
881.3900146484375
 42
0
  0
VERTEX
  8
0
 10
615
 20
871.3900146484375
 42
0
  0
SEQEND
  0
POLYLINE
  8
0
 10
0
 20
0
 39
0
 70
1
 66
1
  0
VERTEX
  8
0
 10
1509.116943359375
 20
189
 42
0
  0
VERTEX
  8
0
 10
1509.116943359375
 20
35
 42
1
  0
VERTEX
  8
0
 10
1559.116943359375
 20
35
 42
0
  0
VERTEX
  8
0
 10
1559.116943359375
 20
189
 42
1
  0
SEQEND
  0
POLYLINE
  8
0
 10
0
 20
0
 39
0
 70
1
 66
1
  0
VERTEX
  8
0
 10
1007.573974609375
 20
442
 42
0
  0
VERTEX
  8
0
 10
1007.573974609375
 20
246
 42
0
  0
VERTEX
  8
0
 10
1017.573974609375
 20
236
 42
0
  0
VERTEX
  8
0
 10
1027.573974609375
 20
246
 42
0
  0
VERTEX
  8
0
 10
1027.573974609375
 20
442
 42
0
  0
VERTEX
  8
0
 10
1017.573974609375
 20
452
 42
0
  0
SEQEND
  0
POLYLINE
  8
0
 10
0
 20
0
 39
0
 70
1
 66
1
  0
VERTEX
  8
0
 10
1569.116943359375
 20
403
 42
0
  0
VERTEX
  8
0
 10
1569.116943359375
 20
249
 42
1
  0
VERTEX
  8
0
 10
1619.116943359375
 20
249
 42
0
  0
VERTEX
  8
0
 10
1619.116943359375
 20
403
 42
1
  0
SEQEND
  0
POLYLINE
  8
0
 10
0
 20
0
 39
0
 70
1
 66
1
  0
VERTEX
  8
0
 10
955
 20
836
 42
0
  0
VERTEX
  8
0
 10
955
 20
640
 42
0
  0
VERTEX
  8
0
 10
965
 20
630
 42
0
  0
VERTEX
  8
0
 10
975
 20
640
 42
0
  0
VERTEX
  8
0
 10
975
 20
836
 42
0
  0
VERTEX
  8
0
 10
965
 20
846
 42
0
  0
SEQEND
  0
POLYLINE
  8
0
 10
0
 20
0
 39
0
 70
1
 66
1
  0
VERTEX
  8
0
 10
1037.573974609375
 20
442
 42
0
  0
VERTEX
  8
0
 10
1037.573974609375
 20
246
 42
0
  0
VERTEX
  8
0
 10
1047.573974609375
 20
236
 42
0
  0
VERTEX
  8
0
 10
1057.573974609375
 20
246
 42
0
  0
VERTEX
  8
0
 10
1057.573974609375
 20
442
 42
0
  0
VERTEX
  8
0
 10
1047.573974609375
 20
452
 42
0
  0
SEQEND
  0
POLYLINE
  8
0
 10
0
 20
0
 39
0
 70
1
 66
1
  0
VERTEX
  8
0
 10
1007.573974609375
 20
216
 42
0
  0
VERTEX
  8
0
 10
1007.573974609375
 20
20
 42
0
  0
VERTEX
  8
0
 10
1017.573974609375
 20
10
 42
0
  0
VERTEX
  8
0
 10
1027.573974609375
 20
20
 42
0
  0
VERTEX
  8
0
 10
1027.573974609375
 20
216
 42
0
  0
VERTEX
  8
0
 10
1017.573974609375
 20
226
 42
0
  0
SEQEND
  0
POLYLINE
  8
0
 10
0
 20
0
 39
0
 70
1
 66
1
  0
VERTEX
  8
0
 10
925
 20
836
 42
0
  0
VERTEX
  8
0
 10
925
 20
640
 42
0
  0
VERTEX
  8
0
 10
935
 20
630
 42
0
  0
VERTEX
  8
0
 10
945
 20
640
 42
0
  0
VERTEX
  8
0
 10
945
 20
836
 42
0
  0
VERTEX
  8
0
 10
935
 20
846
 42
0
  0
SEQEND
  0
POLYLINE
  8
0
 10
0
 20
0
 39
0
 70
1
 66
1
  0
VERTEX
  8
0
 10
1015
 20
668
 42
0
  0
VERTEX
  8
0
 10
1015
 20
472
 42
0
  0
VERTEX
  8
0
 10
1025
 20
462
 42
0
  0
VERTEX
  8
0
 10
1035
 20
472
 42
0
  0
VERTEX
  8
0
 10
1035
 20
668
 42
0
  0
VERTEX
  8
0
 10
1025
 20
678
 42
0
  0
SEQEND
  0
POLYLINE
  8
0
 10
0
 20
0
 39
0
 70
1
 66
1
  0
VERTEX
  8
0
 10
1569.116943359375
 20
189
 42
0
  0
VERTEX
  8
0
 10
1569.116943359375
 20
35
 42
1
  0
VERTEX
  8
0
 10
1619.116943359375
 20
35
 42
0
  0
VERTEX
  8
0
 10
1619.116943359375
 20
189
 42
1
  0
SEQEND
  0
ENDSEC
  0
EOF
