  0
SECTION
  2
ENTITIES
  0
POLYLINE
  8
0
 10
0
 20
0
 39
0
 70
1
 66
1
  0
VERTEX
  8
0
 10
0
 20
0
 42
-0
  0
VERTEX
  8
0
 10
6000
 20
0
 42
-0
  0
VERTEX
  8
0
 10
6000
 20
1500
 42
-0
  0
VERTEX
  8
0
 10
0
 20
1500
 42
-0
  0
SEQEND
  0
POLYLINE
  8
0
 10
0
 20
0
 39
0
 70
1
 66
1
  0
VERTEX
  8
0
 10
5850.30029296875
 20
1058.1103515625
 42
-0
  0
VERTEX
  8
0
 10
5690.30029296875
 20
1058.1103515625
 42
1
  0
VERTEX
  8
0
 10
5690.30029296875
 20
1018.1103515625
 42
-0
  0
VERTEX
  8
0
 10
5870.30029296875
 20
1018.1104125976562
 42
0.41421398520469666
  0
VERTEX
  8
0
 10
5910.30029296875
 20
1058.1103515625
 42
-0
  0
VERTEX
  8
0
 10
5910.30029296875
 20
1095.1103515625
 42
-0
  0
VERTEX
  8
0
 10
5870.30029296875
 20
1095.1103515625
 42
-0
  0
VERTEX
  8
0
 10
5870.30029296875
 20
1078.1103515625
 42
-0.41421398520469666
  0
SEQEND
  0
POLYLINE
  8
0
 10
0
 20
0
 39
0
 70
1
 66
1
  0
VERTEX
  8
0
 10
16.049999237060547
 20
1420.513427734375
 42
-0
  0
VERTEX
  8
0
 10
916.04998779296875
 20
1420.513427734375
 42
-0
  0
VERTEX
  8
0
 10
916.04998779296875
 20
1466.513427734375
 42
-0
  0
VERTEX
  8
0
 10
16.049999237060547
 20
1466.513427734375
 42
-0
  0
SEQEND
  0
POLYLINE
  8
0
 10
0
 20
0
 39
0
 70
1
 66
1
  0
VERTEX
  8
0
 10
4840.40771484375
 20
1282.1175537109375
 42
-0
  0
VERTEX
  8
0
 10
5740.40771484375
 20
1282.1175537109375
 42
-0
  0
VERTEX
  8
0
 10
5740.40771484375
 20
1328.1175537109375
 42
-0
  0
VERTEX
  8
0
 10
4840.40771484375
 20
1328.1175537109375
 42
-0
  0
SEQEND
  0
POLYLINE
  8
0
 10
0
 20
0
 39
0
 70
1
 66
1
  0
VERTEX
  8
0
 10
2239.110595703125
 20
40.050003051757813
 42
-0
  0
VERTEX
  8
0
 10
2309.110595703125
 20
40.050003051757813
 42
-0
  0
VERTEX
  8
0
 10
2309.110595703125
 20
16.050003051757813
 42
-0
  0
VERTEX
  8
0
 10
2567.110595703125
 20
16.050003051757813
 42
-0
  0
VERTEX
  8
0
 10
2567.110595703125
 20
40.050003051757813
 42
-0
  0
VERTEX
  8
0
 10
2637.110595703125
 20
40.050003051757813
 42
-0
  0
VERTEX
  8
0
 10
2666.4091796875
 20
56.965522766113281
 42
-0.46952301263809204
  0
VERTEX
  8
0
 10
3019.25537109375
 20
166.05000305175781
 42
-0
  0
VERTEX
  8
0
 10
3028.110595703125
 20
166.05000305175781
 42
-0
  0
VERTEX
  8
0
 10
3028.110595703125
 20
297.5513916015625
 42
0.33945399522781372
  0
VERTEX
  8
0
 10
2991.051513671875
 20
345.84765625
 42
-0
  0
VERTEX
  8
0
 10
2561.110595703125
 20
461.04998779296875
 42
-0
  0
VERTEX
  8
0
 10
2561.110595703125
 20
365.04998779296875
 42
-1
  0
VERTEX
  8
0
 10
2315.110595703125
 20
365.04998779296875
 42
-0
  0
VERTEX
  8
0
 10
2315.110595703125
 20
461.04998779296875
 42
-0
  0
VERTEX
  8
0
 10
1885.169677734375
 20
345.84765625
 42
0.33945399522781372
  0
VERTEX
  8
0
 10
1848.110595703125
 20
297.5513916015625
 42
-0
  0
VERTEX
  8
0
 10
1848.110595703125
 20
166.05000305175781
 42
-0
  0
VERTEX
  8
0
 10
1856.9656982421875
 20
166.05000305175781
 42
-0.46952301263809204
  0
VERTEX
  8
0
 10
2209.81201171875
 20
56.965522766113281
 42
-0
  0
SEQEND
  0
POLYLINE
  8
0
 10
0
 20
0
 39
0
 70
1
 66
1
  0
VERTEX
  8
0
 10
3044.040771484375
 20
1223.5489501953125
 42
-0
  0
VERTEX
  8
0
 10
3382.040771484375
 20
1223.5489501953125
 42
-0
  0
VERTEX
  8
0
 10
3382.040771484375
 20
1447.5489501953125
 42
-0
  0
VERTEX
  8
0
 10
3044.040771484375
 20
1447.5489501953125
 42
-0
  0
SEQEND
  0
POLYLINE
  8
0
 10
0
 20
0
 39
0
 70
1
 66
1
  0
VERTEX
  8
0
 10
2304.733154296875
 20
1416.04443359375
 42
-0
  0
VERTEX
  8
0
 10
2514.733154296875
 20
1416.04443359375
 42
-0
  0
VERTEX
  8
0
 10
2521.733154296875
 20
1423.04443359375
 42
-0
  0
VERTEX
  8
0
 10
2521.733154296875
 20
1446.04443359375
 42
-0
  0
VERTEX
  8
0
 10
2297.733154296875
 20
1466.04443359375
 42
-0
  0
VERTEX
  8
0
 10
2297.733154296875
 20
1423.04443359375
 42
-0
  0
SEQEND
  0
POLYLINE
  8
0
 10
0
 20
0
 39
0
 70
1
 66
1
  0
VERTEX
  8
0
 10
16.050014495849609
 20
1371.050048828125
 42
-0
  0
VERTEX
  8
0
 10
16.050277709960937
 20
16.050048828125
 42
-0
  0
VERTEX
  8
0
 10
916.05029296875
 20
16.0501708984375
 42
-0
  0
VERTEX
  8
0
 10
916.04998779296875
 20
1371.0501708984375
 42
-0
  0
SEQEND
  0
POLYLINE
  8
0
 10
0
 20
0
 39
0
 70
1
 66
1
  0
VERTEX
  8
0
 10
466.050048828125
 20
1203.5501708984375
 42
-1
  0
VERTEX
  8
0
 10
466.05007934570312
 20
1103.5501708984375
 42
-1
  0
SEQEND
  0
POLYLINE
  8
0
 10
0
 20
0
 39
0
 70
1
 66
1
  0
VERTEX
  8
0
 10
466.05023193359375
 20
283.5501708984375
 42
-1
  0
VERTEX
  8
0
 10
466.05023193359375
 20
183.5501708984375
 42
-1
  0
SEQEND
  0
POLYLINE
  8
0
 10
0
 20
0
 39
0
 70
1
 66
1
  0
VERTEX
  8
0
 10
4904.150390625
 20
16.050003051757813
 42
-0
  0
VERTEX
  8
0
 10
5284.150390625
 20
16.050003051757813
 42
-0
  0
VERTEX
  8
0
 10
5369.150390625
 20
476.04998779296875
 42
-0
  0
VERTEX
  8
0
 10
5369.150390625
 20
501.04998779296875
 42
-0
  0
VERTEX
  8
0
 10
4819.150390625
 20
501.04998779296875
 42
-0
  0
VERTEX
  8
0
 10
4819.150390625
 20
476.04998779296875
 42
-0
  0
SEQEND
  0
POLYLINE
  8
0
 10
0
 20
0
 39
0
 70
1
 66
1
  0
VERTEX
  8
0
 10
5006.650390625
 20
196.05000305175781
 42
-1
  0
VERTEX
  8
0
 10
5181.650390625
 20
196.05000305175781
 42
-1
  0
SEQEND
  0
POLYLINE
  8
0
 10
0
 20
0
 39
0
 70
1
 66
1
  0
VERTEX
  8
0
 10
2160.391845703125
 20
21.049999237060547
 42
0.70025700330734253
  0
VERTEX
  8
0
 10
2160.391845703125
 20
21.060876846313477
 42
-0.1503479927778244
  0
VERTEX
  8
0
 10
1992.4620361328125
 20
148.05000305175781
 42
-0
  0
VERTEX
  8
0
 10
1992.391845703125
 20
148.05000305175781
 42
-0
  0
VERTEX
  8
0
 10
1968.175537109375
 20
148.05000305175781
 42
0.33140701055526733
  0
VERTEX
  8
0
 10
1929.8541259765625
 20
119.5162353515625
 42
-0
  0
VERTEX
  8
0
 10
1900.391845703125
 20
21.049999237060547
 42
-0
  0
VERTEX
  8
0
 10
1900.391845703125
 20
16.049999237060547
 42
-0
  0
VERTEX
  8
0
 10
2160.391845703125
 20
16.049999237060547
 42
-0
  0
SEQEND
  0
POLYLINE
  8
0
 10
0
 20
0
 39
0
 70
1
 66
1
  0
VERTEX
  8
0
 10
1970.33837890625
 20
42.237655639648438
 42
-1.0020691156387329
  0
VERTEX
  8
0
 10
1930.482666015625
 20
54.157096862792969
 42
0
  0
VERTEX
  8
0
 10
1948.2353515625
 20
113.96847534179687
 42
-1.000001072883606
  0
VERTEX
  8
0
 10
1988.11572265625
 20
102.1314697265625
 42
-0
  0
SEQEND
  0
POLYLINE
  8
0
 10
0
 20
0
 39
0
 70
1
 66
1
  0
VERTEX
  8
0
 10
932.06024169921875
 20
1371.050048828125
 42
-0
  0
VERTEX
  8
0
 10
932.060546875
 20
16.050048828125
 42
-0
  0
VERTEX
  8
0
 10
1832.060546875
 20
16.0501708984375
 42
-0
  0
VERTEX
  8
0
 10
1832.060302734375
 20
1371.0501708984375
 42
-0
  0
SEQEND
  0
POLYLINE
  8
0
 10
0
 20
0
 39
0
 70
1
 66
1
  0
VERTEX
  8
0
 10
1382.060302734375
 20
1203.5501708984375
 42
-1
  0
VERTEX
  8
0
 10
1382.060302734375
 20
1103.5501708984375
 42
-1
  0
SEQEND
  0
POLYLINE
  8
0
 10
0
 20
0
 39
0
 70
1
 66
1
  0
VERTEX
  8
0
 10
1382.060546875
 20
283.5501708984375
 42
-1
  0
VERTEX
  8
0
 10
1382.060546875
 20
183.5501708984375
 42
-1
  0
SEQEND
  0
POLYLINE
  8
0
 10
0
 20
0
 39
0
 70
1
 66
1
  0
VERTEX
  8
0
 10
956.60333251953125
 20
1415.6971435546875
 42
-0
  0
VERTEX
  8
0
 10
1856.603271484375
 20
1415.6971435546875
 42
-0
  0
VERTEX
  8
0
 10
1856.603271484375
 20
1461.6971435546875
 42
-0
  0
VERTEX
  8
0
 10
956.60333251953125
 20
1461.6971435546875
 42
-0
  0
SEQEND
  0
POLYLINE
  8
0
 10
0
 20
0
 39
0
 70
1
 66
1
  0
VERTEX
  8
0
 10
2239.110595703125
 20
501.05999755859375
 42
-0
  0
VERTEX
  8
0
 10
2309.110595703125
 20
501.05999755859375
 42
-0
  0
VERTEX
  8
0
 10
2309.110595703125
 20
477.05999755859375
 42
-0
  0
VERTEX
  8
0
 10
2567.110595703125
 20
477.05999755859375
 42
-0
  0
VERTEX
  8
0
 10
2567.110595703125
 20
501.05999755859375
 42
-0
  0
VERTEX
  8
0
 10
2637.110595703125
 20
501.05999755859375
 42
-0
  0
VERTEX
  8
0
 10
2666.4091796875
 20
517.97552490234375
 42
-0.46952301263809204
  0
VERTEX
  8
0
 10
3019.25537109375
 20
627.05999755859375
 42
-0
  0
VERTEX
  8
0
 10
3028.110595703125
 20
627.05999755859375
 42
-0
  0
VERTEX
  8
0
 10
3028.110595703125
 20
758.5614013671875
 42
0.33945399522781372
  0
VERTEX
  8
0
 10
2991.051513671875
 20
806.857666015625
 42
-0
  0
VERTEX
  8
0
 10
2561.110595703125
 20
922.05999755859375
 42
-0
  0
VERTEX
  8
0
 10
2561.110595703125
 20
826.05999755859375
 42
-1
  0
VERTEX
  8
0
 10
2315.110595703125
 20
826.05999755859375
 42
-0
  0
VERTEX
  8
0
 10
2315.110595703125
 20
922.05999755859375
 42
-0
  0
VERTEX
  8
0
 10
1885.169677734375
 20
806.857666015625
 42
0.33945399522781372
  0
VERTEX
  8
0
 10
1848.110595703125
 20
758.5614013671875
 42
-0
  0
VERTEX
  8
0
 10
1848.110595703125
 20
627.05999755859375
 42
-0
  0
VERTEX
  8
0
 10
1856.9656982421875
 20
627.05999755859375
 42
-0.46952301263809204
  0
VERTEX
  8
0
 10
2209.81201171875
 20
517.97552490234375
 42
-0
  0
SEQEND
  0
POLYLINE
  8
0
 10
0
 20
0
 39
0
 70
1
 66
1
  0
VERTEX
  8
0
 10
2239.110595703125
 20
962.0699462890625
 42
-0
  0
VERTEX
  8
0
 10
2309.110595703125
 20
962.0699462890625
 42
-0
  0
VERTEX
  8
0
 10
2309.110595703125
 20
938.0699462890625
 42
-0
  0
VERTEX
  8
0
 10
2567.110595703125
 20
938.0699462890625
 42
-0
  0
VERTEX
  8
0
 10
2567.110595703125
 20
962.0699462890625
 42
-0
  0
VERTEX
  8
0
 10
2637.110595703125
 20
962.0699462890625
 42
-0
  0
VERTEX
  8
0
 10
2666.4091796875
 20
978.9854736328125
 42
-0.46952301263809204
  0
VERTEX
  8
0
 10
3019.25537109375
 20
1088.0699462890625
 42
-0
  0
VERTEX
  8
0
 10
3028.110595703125
 20
1088.0699462890625
 42
-0
  0
VERTEX
  8
0
 10
3028.110595703125
 20
1219.5712890625
 42
0.33945399522781372
  0
VERTEX
  8
0
 10
2991.051513671875
 20
1267.86767578125
 42
-0
  0
VERTEX
  8
0
 10
2561.110595703125
 20
1383.0699462890625
 42
-0
  0
VERTEX
  8
0
 10
2561.110595703125
 20
1287.0699462890625
 42
-1
  0
VERTEX
  8
0
 10
2315.110595703125
 20
1287.0699462890625
 42
-0
  0
VERTEX
  8
0
 10
2315.110595703125
 20
1383.0699462890625
 42
-0
  0
VERTEX
  8
0
 10
1885.169677734375
 20
1267.86767578125
 42
0.33945399522781372
  0
VERTEX
  8
0
 10
1848.110595703125
 20
1219.5712890625
 42
-0
  0
VERTEX
  8
0
 10
1848.110595703125
 20
1088.0699462890625
 42
-0
  0
VERTEX
  8
0
 10
1856.9656982421875
 20
1088.0699462890625
 42
-0.46952301263809204
  0
VERTEX
  8
0
 10
2209.81201171875
 20
978.9854736328125
 42
-0
  0
SEQEND
  0
POLYLINE
  8
0
 10
0
 20
0
 39
0
 70
1
 66
1
  0
VERTEX
  8
0
 10
3540.607421875
 20
722.4888916015625
 42
-0
  0
VERTEX
  8
0
 10
3470.607421875
 20
722.48883056640625
 42
-0
  0
VERTEX
  8
0
 10
3470.607421875
 20
746.48883056640625
 42
-0
  0
VERTEX
  8
0
 10
3212.607421875
 20
746.48870849609375
 42
-0
  0
VERTEX
  8
0
 10
3212.607421875
 20
722.48870849609375
 42
-0
  0
VERTEX
  8
0
 10
3142.607421875
 20
722.48870849609375
 42
-0
  0
VERTEX
  8
0
 10
3113.308837890625
 20
705.57318115234375
 42
-0.46952301263809204
  0
VERTEX
  8
0
 10
2760.46240234375
 20
596.488525390625
 42
-0
  0
VERTEX
  8
0
 10
2751.607421875
 20
596.488525390625
 42
-0
  0
VERTEX
  8
0
 10
2751.607421875
 20
464.9871826171875
 42
0.33945399522781372
  0
VERTEX
  8
0
 10
2788.66650390625
 20
416.69088745117187
 42
-0
  0
VERTEX
  8
0
 10
3218.607666015625
 20
301.48873901367187
 42
-0
  0
VERTEX
  8
0
 10
3218.607421875
 20
397.48873901367187
 42
-1
  0
VERTEX
  8
0
 10
3464.607421875
 20
397.48883056640625
 42
-0
  0
VERTEX
  8
0
 10
3464.607666015625
 20
301.48883056640625
 42
-0
  0
VERTEX
  8
0
 10
3894.548583984375
 20
416.69134521484375
 42
0.33945399522781372
  0
VERTEX
  8
0
 10
3931.607421875
 20
464.98764038085937
 42
-0
  0
VERTEX
  8
0
 10
3931.607421875
 20
596.489013671875
 42
-0
  0
VERTEX
  8
0
 10
3922.75244140625
 20
596.489013671875
 42
-0.46952301263809204
  0
VERTEX
  8
0
 10
3569.906005859375
 20
705.5733642578125
 42
-0
  0
SEQEND
  0
POLYLINE
  8
0
 10
0
 20
0
 39
0
 70
1
 66
1
  0
VERTEX
  8
0
 10
3540.47119140625
 20
1183.4989013671875
 42
-0
  0
VERTEX
  8
0
 10
3470.47119140625
 20
1183.4989013671875
 42
-0
  0
VERTEX
  8
0
 10
3470.47119140625
 20
1207.4989013671875
 42
-0
  0
VERTEX
  8
0
 10
3212.47119140625
 20
1207.498779296875
 42
-0
  0
VERTEX
  8
0
 10
3212.47119140625
 20
1183.498779296875
 42
-0
  0
VERTEX
  8
0
 10
3142.47119140625
 20
1183.4986572265625
 42
-0
  0
VERTEX
  8
0
 10
3113.172607421875
 20
1166.5831298828125
 42
-0.46952301263809204
  0
VERTEX
  8
0
 10
2760.326171875
 20
1057.49853515625
 42
-0
  0
VERTEX
  8
0
 10
2751.47119140625
 20
1057.49853515625
 42
-0
  0
VERTEX
  8
0
 10
2751.47119140625
 20
925.9971923828125
 42
0.33945399522781372
  0
VERTEX
  8
0
 10
2788.5302734375
 20
877.700927734375
 42
-0
  0
VERTEX
  8
0
 10
3218.471435546875
 20
762.498779296875
 42
-0
  0
VERTEX
  8
0
 10
3218.47119140625
 20
858.498779296875
 42
-1
  0
VERTEX
  8
0
 10
3464.47119140625
 20
858.49884033203125
 42
-0
  0
VERTEX
  8
0
 10
3464.471435546875
 20
762.49884033203125
 42
-0
  0
VERTEX
  8
0
 10
3894.412353515625
 20
877.70135498046875
 42
0.33945399522781372
  0
VERTEX
  8
0
 10
3931.47119140625
 20
925.9976806640625
 42
-0
  0
VERTEX
  8
0
 10
3931.47119140625
 20
1057.4990234375
 42
-0
  0
VERTEX
  8
0
 10
3922.6162109375
 20
1057.4990234375
 42
-0.46952301263809204
  0
VERTEX
  8
0
 10
3569.769775390625
 20
1166.5833740234375
 42
-0
  0
SEQEND
  0
POLYLINE
  8
0
 10
0
 20
0
 39
0
 70
1
 66
1
  0
VERTEX
  8
0
 10
4045.966796875
 20
40.049999237060547
 42
-0
  0
VERTEX
  8
0
 10
4115.966796875
 20
40.049999237060547
 42
-0
  0
VERTEX
  8
0
 10
4115.966796875
 20
16.049999237060547
 42
-0
  0
VERTEX
  8
0
 10
4373.966796875
 20
16.049999237060547
 42
-0
  0
VERTEX
  8
0
 10
4373.966796875
 20
40.049999237060547
 42
-0
  0
VERTEX
  8
0
 10
4443.966796875
 20
40.049999237060547
 42
-0
  0
VERTEX
  8
0
 10
4473.26513671875
 20
56.965518951416016
 42
-0.46952301263809204
  0
VERTEX
  8
0
 10
4826.11181640625
 20
166.05000305175781
 42
-0
  0
VERTEX
  8
0
 10
4834.966796875
 20
166.05000305175781
 42
-0
  0
VERTEX
  8
0
 10
4834.966796875
 20
297.55136108398437
 42
0.33945399522781372
  0
VERTEX
  8
0
 10
4797.90771484375
 20
345.84765625
 42
-0
  0
VERTEX
  8
0
 10
4367.966796875
 20
461.04998779296875
 42
-0
  0
VERTEX
  8
0
 10
4367.966796875
 20
365.04998779296875
 42
-1
  0
VERTEX
  8
0
 10
4121.966796875
 20
365.04998779296875
 42
-0
  0
VERTEX
  8
0
 10
4121.966796875
 20
461.04998779296875
 42
-0
  0
VERTEX
  8
0
 10
3692.02587890625
 20
345.84765625
 42
0.33945399522781372
  0
VERTEX
  8
0
 10
3654.966796875
 20
297.55136108398437
 42
-0
  0
VERTEX
  8
0
 10
3654.966796875
 20
166.05000305175781
 42
-0
  0
VERTEX
  8
0
 10
3663.82177734375
 20
166.05000305175781
 42
-0.46952301263809204
  0
VERTEX
  8
0
 10
4016.668212890625
 20
56.965518951416016
 42
-0
  0
SEQEND
  0
POLYLINE
  8
0
 10
0
 20
0
 39
0
 70
1
 66
1
  0
VERTEX
  8
0
 10
4045.830810546875
 20
501.05999755859375
 42
-0
  0
VERTEX
  8
0
 10
4115.8310546875
 20
501.05999755859375
 42
-0
  0
VERTEX
  8
0
 10
4115.8310546875
 20
477.05999755859375
 42
-0
  0
VERTEX
  8
0
 10
4373.8310546875
 20
477.05999755859375
 42
-0
  0
VERTEX
  8
0
 10
4373.8310546875
 20
501.05999755859375
 42
-0
  0
VERTEX
  8
0
 10
4443.8310546875
 20
501.05999755859375
 42
-0
  0
VERTEX
  8
0
 10
4473.12939453125
 20
517.97552490234375
 42
-0.46952301263809204
  0
VERTEX
  8
0
 10
4825.9755859375
 20
627.05999755859375
 42
-0
  0
VERTEX
  8
0
 10
4834.8310546875
 20
627.05999755859375
 42
-0
  0
VERTEX
  8
0
 10
4834.8310546875
 20
758.5614013671875
 42
0.33945399522781372
  0
VERTEX
  8
0
 10
4797.771484375
 20
806.857666015625
 42
-0
  0
VERTEX
  8
0
 10
4367.8310546875
 20
922.05999755859375
 42
-0
  0
VERTEX
  8
0
 10
4367.8310546875
 20
826.05999755859375
 42
-1
  0
VERTEX
  8
0
 10
4121.8310546875
 20
826.05999755859375
 42
-0
  0
VERTEX
  8
0
 10
4121.8310546875
 20
922.05999755859375
 42
-0
  0
VERTEX
  8
0
 10
3691.889892578125
 20
806.857666015625
 42
0.33945399522781372
  0
VERTEX
  8
0
 10
3654.830810546875
 20
758.5614013671875
 42
-0
  0
VERTEX
  8
0
 10
3654.830810546875
 20
627.05999755859375
 42
-0
  0
VERTEX
  8
0
 10
3663.685791015625
 20
627.05999755859375
 42
-0.46952301263809204
  0
VERTEX
  8
0
 10
4016.5322265625
 20
517.97552490234375
 42
-0
  0
SEQEND
  0
POLYLINE
  8
0
 10
0
 20
0
 39
0
 70
1
 66
1
  0
VERTEX
  8
0
 10
4037.159912109375
 20
962.0699462890625
 42
-0
  0
VERTEX
  8
0
 10
4107.16015625
 20
962.0699462890625
 42
-0
  0
VERTEX
  8
0
 10
4107.16015625
 20
938.0699462890625
 42
-0
  0
VERTEX
  8
0
 10
4365.16015625
 20
938.0699462890625
 42
-0
  0
VERTEX
  8
0
 10
4365.16015625
 20
962.0699462890625
 42
-0
  0
VERTEX
  8
0
 10
4435.16015625
 20
962.0699462890625
 42
-0
  0
VERTEX
  8
0
 10
4464.45849609375
 20
978.9854736328125
 42
-0.46952301263809204
  0
VERTEX
  8
0
 10
4817.3046875
 20
1088.0699462890625
 42
-0
  0
VERTEX
  8
0
 10
4826.16015625
 20
1088.0699462890625
 42
-0
  0
VERTEX
  8
0
 10
4826.16015625
 20
1219.5712890625
 42
0.33945399522781372
  0
VERTEX
  8
0
 10
4789.1005859375
 20
1267.86767578125
 42
-0
  0
VERTEX
  8
0
 10
4359.16015625
 20
1383.0699462890625
 42
-0
  0
VERTEX
  8
0
 10
4359.16015625
 20
1287.0699462890625
 42
-1
  0
VERTEX
  8
0
 10
4113.16015625
 20
1287.0699462890625
 42
-0
  0
VERTEX
  8
0
 10
4113.16015625
 20
1383.0699462890625
 42
-0
  0
VERTEX
  8
0
 10
3683.218994140625
 20
1267.86767578125
 42
0.33945399522781372
  0
VERTEX
  8
0
 10
3646.159912109375
 20
1219.5712890625
 42
-0
  0
VERTEX
  8
0
 10
3646.159912109375
 20
1088.0699462890625
 42
-0
  0
VERTEX
  8
0
 10
3655.014892578125
 20
1088.0699462890625
 42
-0.46952301263809204
  0
VERTEX
  8
0
 10
4007.861328125
 20
978.9854736328125
 42
-0
  0
SEQEND
  0
POLYLINE
  8
0
 10
0
 20
0
 39
0
 70
1
 66
1
  0
VERTEX
  8
0
 10
4896.62353515625
 20
517.05999755859375
 42
-0
  0
VERTEX
  8
0
 10
5276.62353515625
 20
517.05999755859375
 42
-0
  0
VERTEX
  8
0
 10
5361.62353515625
 20
977.05999755859375
 42
-0
  0
VERTEX
  8
0
 10
5361.62353515625
 20
1002.0599975585937
 42
-0
  0
VERTEX
  8
0
 10
4811.62353515625
 20
1002.0599975585937
 42
-0
  0
VERTEX
  8
0
 10
4811.62353515625
 20
977.05999755859375
 42
-0
  0
SEQEND
  0
POLYLINE
  8
0
 10
0
 20
0
 39
0
 70
1
 66
1
  0
VERTEX
  8
0
 10
4999.12353515625
 20
697.05999755859375
 42
-1
  0
VERTEX
  8
0
 10
5174.12353515625
 20
697.05999755859375
 42
-1
  0
SEQEND
  0
POLYLINE
  8
0
 10
0
 20
0
 39
0
 70
1
 66
1
  0
VERTEX
  8
0
 10
5770.0908203125
 20
501.0501708984375
 42
-0
  0
VERTEX
  8
0
 10
5390.0908203125
 20
501.05001831054687
 42
-0
  0
VERTEX
  8
0
 10
5305.0908203125
 20
41.04998779296875
 42
-0
  0
VERTEX
  8
0
 10
5305.0908203125
 20
16.04998779296875
 42
-0
  0
VERTEX
  8
0
 10
5855.0908203125
 20
16.050201416015625
 42
-0
  0
VERTEX
  8
0
 10
5855.0908203125
 20
41.050201416015625
 42
-0
  0
SEQEND
  0
POLYLINE
  8
0
 10
0
 20
0
 39
0
 70
1
 66
1
  0
VERTEX
  8
0
 10
5667.5908203125
 20
321.05010986328125
 42
-1
  0
VERTEX
  8
0
 10
5492.5908203125
 20
321.050048828125
 42
-1
  0
SEQEND
  0
POLYLINE
  8
0
 10
0
 20
0
 39
0
 70
1
 66
1
  0
VERTEX
  8
0
 10
5770.0908203125
 20
1002.0603637695312
 42
-0
  0
VERTEX
  8
0
 10
5390.0908203125
 20
1002.0602416992187
 42
-0
  0
VERTEX
  8
0
 10
5305.0908203125
 20
542.0601806640625
 42
-0
  0
VERTEX
  8
0
 10
5305.0908203125
 20
517.0601806640625
 42
-0
  0
VERTEX
  8
0
 10
5855.0908203125
 20
517.0604248046875
 42
-0
  0
VERTEX
  8
0
 10
5855.0908203125
 20
542.0604248046875
 42
-0
  0
SEQEND
  0
POLYLINE
  8
0
 10
0
 20
0
 39
0
 70
1
 66
1
  0
VERTEX
  8
0
 10
5667.5908203125
 20
822.06036376953125
 42
-1
  0
VERTEX
  8
0
 10
5492.5908203125
 20
822.060302734375
 42
-1
  0
SEQEND
  0
POLYLINE
  8
0
 10
0
 20
0
 39
0
 70
1
 66
1
  0
VERTEX
  8
0
 10
3044.16064453125
 20
16.049999237060547
 42
-0
  0
VERTEX
  8
0
 10
3382.16064453125
 20
16.049999237060547
 42
-0
  0
VERTEX
  8
0
 10
3382.16064453125
 20
240.05000305175781
 42
-0
  0
VERTEX
  8
0
 10
3044.16064453125
 20
240.05000305175781
 42
-0
  0
SEQEND
  0
POLYLINE
  8
0
 10
0
 20
0
 39
0
 70
1
 66
1
  0
VERTEX
  8
0
 10
5196.259765625
 20
1018.1102905273437
 42
-0
  0
VERTEX
  8
0
 10
5534.259765625
 20
1018.1102905273437
 42
-0
  0
VERTEX
  8
0
 10
5534.259765625
 20
1242.1103515625
 42
-0
  0
VERTEX
  8
0
 10
5196.259765625
 20
1242.1103515625
 42
-0
  0
SEQEND
  0
POLYLINE
  8
0
 10
0
 20
0
 39
0
 70
1
 66
1
  0
VERTEX
  8
0
 10
4842.2099609375
 20
1018.1099853515625
 42
-0
  0
VERTEX
  8
0
 10
5180.2099609375
 20
1018.1099853515625
 42
-0
  0
VERTEX
  8
0
 10
5180.2099609375
 20
1242.1099853515625
 42
-0
  0
VERTEX
  8
0
 10
4842.2099609375
 20
1242.1099853515625
 42
-0
  0
SEQEND
  0
POLYLINE
  8
0
 10
0
 20
0
 39
0
 70
1
 66
1
  0
VERTEX
  8
0
 10
4840.40771484375
 20
1344.1275634765625
 42
-0
  0
VERTEX
  8
0
 10
5740.40771484375
 20
1344.1275634765625
 42
-0
  0
VERTEX
  8
0
 10
5740.40771484375
 20
1390.1275634765625
 42
-0
  0
VERTEX
  8
0
 10
4840.40771484375
 20
1390.1275634765625
 42
-0
  0
SEQEND
  0
POLYLINE
  8
0
 10
0
 20
0
 39
0
 70
1
 66
1
  0
VERTEX
  8
0
 10
2138.11669921875
 20
459.36666870117187
 42
0.70025700330734253
  0
VERTEX
  8
0
 10
2138.11669921875
 20
459.37753295898437
 42
-0.1503479927778244
  0
VERTEX
  8
0
 10
1970.186767578125
 20
586.36669921875
 42
-0
  0
VERTEX
  8
0
 10
1970.1165771484375
 20
586.36669921875
 42
-0
  0
VERTEX
  8
0
 10
1945.9002685546875
 20
586.36669921875
 42
0.33140701055526733
  0
VERTEX
  8
0
 10
1907.578857421875
 20
557.8328857421875
 42
-0
  0
VERTEX
  8
0
 10
1878.1165771484375
 20
459.36666870117187
 42
-0
  0
VERTEX
  8
0
 10
1878.1165771484375
 20
454.36666870117187
 42
-0
  0
VERTEX
  8
0
 10
2138.11669921875
 20
454.36666870117187
 42
-0
  0
SEQEND
  0
POLYLINE
  8
0
 10
0
 20
0
 39
0
 70
1
 66
1
  0
VERTEX
  8
0
 10
1948.0631103515625
 20
480.5543212890625
 42
-1.0020691156387329
  0
VERTEX
  8
0
 10
1908.2073974609375
 20
492.4737548828125
 42
0
  0
VERTEX
  8
0
 10
1925.9600830078125
 20
552.28515625
 42
-1.000001072883606
  0
VERTEX
  8
0
 10
1965.8404541015625
 20
540.4481201171875
 42
-0
  0
SEQEND
  0
POLYLINE
  8
0
 10
0
 20
0
 39
0
 70
1
 66
1
  0
VERTEX
  8
0
 10
2138.116455078125
 20
924.8028564453125
 42
0.70025700330734253
  0
VERTEX
  8
0
 10
2138.116455078125
 20
924.813720703125
 42
-0.1503479927778244
  0
VERTEX
  8
0
 10
1970.1866455078125
 20
1051.8028564453125
 42
-0
  0
VERTEX
  8
0
 10
1970.116455078125
 20
1051.8028564453125
 42
-0
  0
VERTEX
  8
0
 10
1945.900146484375
 20
1051.8028564453125
 42
0.33140701055526733
  0
VERTEX
  8
0
 10
1907.5787353515625
 20
1023.2691040039062
 42
-0
  0
VERTEX
  8
0
 10
1878.116455078125
 20
924.8028564453125
 42
-0
  0
VERTEX
  8
0
 10
1878.116455078125
 20
919.8028564453125
 42
-0
  0
VERTEX
  8
0
 10
2138.116455078125
 20
919.8028564453125
 42
-0
  0
SEQEND
  0
POLYLINE
  8
0
 10
0
 20
0
 39
0
 70
1
 66
1
  0
VERTEX
  8
0
 10
1948.06298828125
 20
945.99053955078125
 42
-1.0020691156387329
  0
VERTEX
  8
0
 10
1908.207275390625
 20
957.90997314453125
 42
0
  0
VERTEX
  8
0
 10
1925.9599609375
 20
1017.7213134765625
 42
-1.000001072883606
  0
VERTEX
  8
0
 10
1965.84033203125
 20
1005.8843383789062
 42
-0
  0
SEQEND
  0
POLYLINE
  8
0
 10
0
 20
0
 39
0
 70
0
 66
1
  0
VERTEX
  8
0
 10
2247.4833984375
 20
1463.5196533203125
 42
0.70025700330734253
  0
VERTEX
  8
0
 10
2079.5537109375
 20
1336.530517578125
 42
-0.1503479927778244
  0
VERTEX
  8
0
 10
2079.4833984375
 20
1336.530517578125
 42
-0
  0
VERTEX
  8
0
 10
2055.26708984375
 20
1336.530517578125
 42
-0
  0
VERTEX
  8
0
 10
2016.94580078125
 20
1365.0643310546875
 42
0.33140701055526733
  0
VERTEX
  8
0
 10
1987.4835205078125
 20
1463.530517578125
 42
-0
  0
VERTEX
  8
0
 10
1987.4835205078125
 20
1468.530517578125
 42
-0
  0
VERTEX
  8
0
 10
2247.4833984375
 20
1468.530517578125
 42
-0
  0
VERTEX
  8
0
 10
2247.4833984375
 20
1463.530517578125
 42
-0
  0
VERTEX
  8
0
 10
2247.4833984375
 20
1468.530517578125
 42
0
  0
SEQEND
  0
POLYLINE
  8
0
 10
0
 20
0
 39
0
 70
0
 66
1
  0
VERTEX
  8
0
 10
2017.5743408203125
 20
1430.4234619140625
 42
-1.0020691156387329
  0
VERTEX
  8
0
 10
2035.3270263671875
 20
1370.612060546875
 42
0
  0
VERTEX
  8
0
 10
2075.207275390625
 20
1382.4490966796875
 42
-1.000001072883606
  0
VERTEX
  8
0
 10
2057.43017578125
 20
1442.3428955078125
 42
-0
  0
VERTEX
  8
0
 10
2075.207275390625
 20
1382.4490966796875
 42
0
  0
SEQEND
  0
POLYLINE
  8
0
 10
0
 20
0
 39
0
 70
1
 66
1
  0
VERTEX
  8
0
 10
5662.8876953125
 20
1074.160400390625
 42
-0
  0
VERTEX
  8
0
 10
5822.8876953125
 20
1074.1605224609375
 42
1
  0
VERTEX
  8
0
 10
5822.8876953125
 20
1114.1605224609375
 42
-0
  0
VERTEX
  8
0
 10
5642.8876953125
 20
1114.160400390625
 42
0.41421398520469666
  0
VERTEX
  8
0
 10
5602.8876953125
 20
1074.160400390625
 42
-0
  0
VERTEX
  8
0
 10
5602.8876953125
 20
1037.160400390625
 42
-0
  0
VERTEX
  8
0
 10
5642.8876953125
 20
1037.160400390625
 42
-0
  0
VERTEX
  8
0
 10
5642.8876953125
 20
1054.160400390625
 42
-0.41421398520469666
  0
SEQEND
  0
POLYLINE
  8
0
 10
0
 20
0
 39
0
 70
1
 66
1
  0
VERTEX
  8
0
 10
5850.30029296875
 20
1170.1705322265625
 42
-0
  0
VERTEX
  8
0
 10
5690.30029296875
 20
1170.1705322265625
 42
1
  0
VERTEX
  8
0
 10
5690.30029296875
 20
1130.1705322265625
 42
-0
  0
VERTEX
  8
0
 10
5870.30029296875
 20
1130.1705322265625
 42
0.41421398520469666
  0
VERTEX
  8
0
 10
5910.30029296875
 20
1170.1705322265625
 42
-0
  0
VERTEX
  8
0
 10
5910.30029296875
 20
1207.1705322265625
 42
-0
  0
VERTEX
  8
0
 10
5870.30029296875
 20
1207.1705322265625
 42
-0
  0
VERTEX
  8
0
 10
5870.30029296875
 20
1190.1705322265625
 42
-0.41421398520469666
  0
SEQEND
  0
POLYLINE
  8
0
 10
0
 20
0
 39
0
 70
1
 66
1
  0
VERTEX
  8
0
 10
5662.8876953125
 20
1186.2205810546875
 42
-0
  0
VERTEX
  8
0
 10
5822.8876953125
 20
1186.220703125
 42
1
  0
VERTEX
  8
0
 10
5822.8876953125
 20
1226.220703125
 42
-0
  0
VERTEX
  8
0
 10
5642.8876953125
 20
1226.2205810546875
 42
0.41421398520469666
  0
VERTEX
  8
0
 10
5602.8876953125
 20
1186.2205810546875
 42
-0
  0
VERTEX
  8
0
 10
5602.8876953125
 20
1149.2205810546875
 42
-0
  0
VERTEX
  8
0
 10
5642.8876953125
 20
1149.2205810546875
 42
-0
  0
VERTEX
  8
0
 10
5642.8876953125
 20
1166.2205810546875
 42
-0.41421398520469666
  0
SEQEND
  0
POLYLINE
  8
0
 10
0
 20
0
 39
0
 70
1
 66
1
  0
VERTEX
  8
0
 10
2544.7431640625
 20
1416.04443359375
 42
-0
  0
VERTEX
  8
0
 10
2754.7431640625
 20
1416.04443359375
 42
-0
  0
VERTEX
  8
0
 10
2761.7431640625
 20
1423.04443359375
 42
-0
  0
VERTEX
  8
0
 10
2761.7431640625
 20
1446.04443359375
 42
-0
  0
VERTEX
  8
0
 10
2537.7431640625
 20
1466.04443359375
 42
-0
  0
VERTEX
  8
0
 10
2537.7431640625
 20
1423.04443359375
 42
-0
  0
SEQEND
  0
POLYLINE
  8
0
 10
0
 20
0
 39
0
 70
1
 66
1
  0
VERTEX
  8
0
 10
2784.753173828125
 20
1416.04443359375
 42
-0
  0
VERTEX
  8
0
 10
2994.753173828125
 20
1416.04443359375
 42
-0
  0
VERTEX
  8
0
 10
3001.753173828125
 20
1423.04443359375
 42
-0
  0
VERTEX
  8
0
 10
3001.753173828125
 20
1446.04443359375
 42
-0
  0
VERTEX
  8
0
 10
2777.753173828125
 20
1466.04443359375
 42
-0
  0
VERTEX
  8
0
 10
2777.753173828125
 20
1423.04443359375
 42
-0
  0
SEQEND
  0
POLYLINE
  8
0
 10
0
 20
0
 39
0
 70
1
 66
1
  0
VERTEX
  8
0
 10
4427.572265625
 20
1407.3218994140625
 42
-0
  0
VERTEX
  8
0
 10
4637.572265625
 20
1407.3218994140625
 42
-0
  0
VERTEX
  8
0
 10
4644.572265625
 20
1414.3218994140625
 42
-0
  0
VERTEX
  8
0
 10
4644.572265625
 20
1437.3218994140625
 42
-0
  0
VERTEX
  8
0
 10
4420.572265625
 20
1457.3218994140625
 42
-0
  0
VERTEX
  8
0
 10
4420.572265625
 20
1414.3218994140625
 42
-0
  0
SEQEND
  0
POLYLINE
  8
0
 10
0
 20
0
 39
0
 70
1
 66
1
  0
VERTEX
  8
0
 10
3421.79736328125
 20
1301.5133056640625
 42
-0
  0
VERTEX
  8
0
 10
3631.79736328125
 20
1301.5133056640625
 42
-0
  0
VERTEX
  8
0
 10
3638.79736328125
 20
1308.5133056640625
 42
-0
  0
VERTEX
  8
0
 10
3638.79736328125
 20
1331.5133056640625
 42
-0
  0
VERTEX
  8
0
 10
3414.79736328125
 20
1351.5133056640625
 42
-0
  0
VERTEX
  8
0
 10
3414.79736328125
 20
1308.5133056640625
 42
-0
  0
SEQEND
  0
POLYLINE
  8
0
 10
0
 20
0
 39
0
 70
1
 66
1
  0
VERTEX
  8
0
 10
3421.79736328125
 20
1396.18408203125
 42
-0
  0
VERTEX
  8
0
 10
3631.79736328125
 20
1396.18408203125
 42
-0
  0
VERTEX
  8
0
 10
3638.79736328125
 20
1403.18408203125
 42
-0
  0
VERTEX
  8
0
 10
3638.79736328125
 20
1426.18408203125
 42
-0
  0
VERTEX
  8
0
 10
3414.79736328125
 20
1446.18408203125
 42
-0
  0
VERTEX
  8
0
 10
3414.79736328125
 20
1403.18408203125
 42
-0
  0
SEQEND
  0
POLYLINE
  8
0
 10
0
 20
0
 39
0
 70
1
 66
1
  0
VERTEX
  8
0
 10
3661.807373046875
 20
1396.18408203125
 42
-0
  0
VERTEX
  8
0
 10
3871.807373046875
 20
1396.18408203125
 42
-0
  0
VERTEX
  8
0
 10
3878.807373046875
 20
1403.18408203125
 42
-0
  0
VERTEX
  8
0
 10
3878.807373046875
 20
1426.18408203125
 42
-0
  0
VERTEX
  8
0
 10
3654.807373046875
 20
1446.18408203125
 42
-0
  0
VERTEX
  8
0
 10
3654.807373046875
 20
1403.18408203125
 42
-0
  0
SEQEND
  0
POLYLINE
  8
0
 10
0
 20
0
 39
0
 70
1
 66
1
  0
VERTEX
  8
0
 10
3935.23046875
 20
1404.6888427734375
 42
-0
  0
VERTEX
  8
0
 10
4145.23046875
 20
1404.6888427734375
 42
-0
  0
VERTEX
  8
0
 10
4152.23046875
 20
1411.6888427734375
 42
-0
  0
VERTEX
  8
0
 10
4152.23046875
 20
1434.6888427734375
 42
-0
  0
VERTEX
  8
0
 10
3928.23046875
 20
1454.6888427734375
 42
-0
  0
VERTEX
  8
0
 10
3928.23046875
 20
1411.6888427734375
 42
-0
  0
SEQEND
  0
ENDSEC
  0
EOF
