  0
SECTION
  2
ENTITIES
  0
POLYLINE
  8
0
 10
0
 20
0
 39
0
 70
1
 66
1
  0
VERTEX
  8
0
 10
0
 20
0
 42
0
  0
VERTEX
  8
0
 10
1500
 20
0
 42
-0
  0
VERTEX
  8
0
 10
1500
 20
800
 42
-0
  0
VERTEX
  8
0
 10
4.8999998801318653e-014
 20
800
 42
-0
  0
SEQEND
  0
POLYLINE
  8
0
 10
0
 20
0
 39
0
 70
1
 66
1
  0
VERTEX
  8
0
 10
10.250000000000014
 20
75.25
 42
-0
  0
VERTEX
  8
0
 10
10.25
 20
305.25
 42
-1
  0
VERTEX
  8
0
 10
140.25
 20
305.25
 42
-0
  0
VERTEX
  8
0
 10
140.25000000000003
 20
75.250000000000014
 42
-1
  0
SEQEND
  0
POLYLINE
  8
0
 10
0
 20
0
 39
0
 70
1
 66
1
  0
VERTEX
  8
0
 10
75.250000000000014
 20
47.750000000000007
 42
1
  0
VERTEX
  8
0
 10
75.250000000000014
 20
102.75
 42
1
  0
SEQEND
  0
POLYLINE
  8
0
 10
0
 20
0
 39
0
 70
1
 66
1
  0
VERTEX
  8
0
 10
75.25
 20
277.75
 42
1
  0
VERTEX
  8
0
 10
75.25
 20
332.75
 42
1
  0
SEQEND
  0
POLYLINE
  8
0
 10
0
 20
0
 39
0
 70
1
 66
1
  0
VERTEX
  8
0
 10
10.250000000000014
 20
445.30000000000001
 42
-0
  0
VERTEX
  8
0
 10
10.25
 20
675.29999999999995
 42
-1
  0
VERTEX
  8
0
 10
140.25
 20
675.29999999999995
 42
-0
  0
VERTEX
  8
0
 10
140.25000000000003
 20
445.30000000000001
 42
-1
  0
SEQEND
  0
POLYLINE
  8
0
 10
0
 20
0
 39
0
 70
1
 66
1
  0
VERTEX
  8
0
 10
75.250000000000014
 20
417.80000000000001
 42
1
  0
VERTEX
  8
0
 10
75.250000000000014
 20
472.80000000000001
 42
1
  0
SEQEND
  0
POLYLINE
  8
0
 10
0
 20
0
 39
0
 70
1
 66
1
  0
VERTEX
  8
0
 10
75.25
 20
647.79999999999995
 42
1
  0
VERTEX
  8
0
 10
75.25
 20
702.79999999999995
 42
1
  0
SEQEND
  0
POLYLINE
  8
0
 10
0
 20
0
 39
0
 70
1
 66
1
  0
VERTEX
  8
0
 10
150.50000000000003
 20
75.25
 42
-0
  0
VERTEX
  8
0
 10
150.5
 20
305.25
 42
-1
  0
VERTEX
  8
0
 10
280.5
 20
305.25
 42
-0
  0
VERTEX
  8
0
 10
280.5
 20
75.250000000000014
 42
-1
  0
SEQEND
  0
POLYLINE
  8
0
 10
0
 20
0
 39
0
 70
1
 66
1
  0
VERTEX
  8
0
 10
215.50000000000003
 20
47.750000000000007
 42
1
  0
VERTEX
  8
0
 10
215.50000000000003
 20
102.75
 42
1
  0
SEQEND
  0
POLYLINE
  8
0
 10
0
 20
0
 39
0
 70
1
 66
1
  0
VERTEX
  8
0
 10
215.5
 20
277.75
 42
1
  0
VERTEX
  8
0
 10
215.5
 20
332.75
 42
1
  0
SEQEND
  0
POLYLINE
  8
0
 10
0
 20
0
 39
0
 70
1
 66
1
  0
VERTEX
  8
0
 10
150.50000000000003
 20
445.30000000000001
 42
-0
  0
VERTEX
  8
0
 10
150.5
 20
675.29999999999995
 42
-1
  0
VERTEX
  8
0
 10
280.5
 20
675.29999999999995
 42
-0
  0
VERTEX
  8
0
 10
280.5
 20
445.30000000000001
 42
-1
  0
SEQEND
  0
POLYLINE
  8
0
 10
0
 20
0
 39
0
 70
1
 66
1
  0
VERTEX
  8
0
 10
215.50000000000003
 20
417.80000000000001
 42
1
  0
VERTEX
  8
0
 10
215.50000000000003
 20
472.80000000000001
 42
1
  0
SEQEND
  0
POLYLINE
  8
0
 10
0
 20
0
 39
0
 70
1
 66
1
  0
VERTEX
  8
0
 10
215.5
 20
647.79999999999995
 42
1
  0
VERTEX
  8
0
 10
215.5
 20
702.79999999999995
 42
1
  0
SEQEND
  0
POLYLINE
  8
0
 10
0
 20
0
 39
0
 70
1
 66
1
  0
VERTEX
  8
0
 10
290.75
 20
75.25
 42
-0
  0
VERTEX
  8
0
 10
290.75
 20
305.25
 42
-1
  0
VERTEX
  8
0
 10
420.75
 20
305.25
 42
-0
  0
VERTEX
  8
0
 10
420.75
 20
75.250000000000014
 42
-1
  0
SEQEND
  0
POLYLINE
  8
0
 10
0
 20
0
 39
0
 70
1
 66
1
  0
VERTEX
  8
0
 10
355.75
 20
47.750000000000007
 42
1
  0
VERTEX
  8
0
 10
355.75
 20
102.75
 42
1
  0
SEQEND
  0
POLYLINE
  8
0
 10
0
 20
0
 39
0
 70
1
 66
1
  0
VERTEX
  8
0
 10
355.75
 20
277.75
 42
1
  0
VERTEX
  8
0
 10
355.75
 20
332.75
 42
1
  0
SEQEND
  0
POLYLINE
  8
0
 10
0
 20
0
 39
0
 70
1
 66
1
  0
VERTEX
  8
0
 10
290.75
 20
445.30000000000001
 42
-0
  0
VERTEX
  8
0
 10
290.75
 20
675.29999999999995
 42
-1
  0
VERTEX
  8
0
 10
420.75
 20
675.29999999999995
 42
-0
  0
VERTEX
  8
0
 10
420.75
 20
445.30000000000001
 42
-1
  0
SEQEND
  0
POLYLINE
  8
0
 10
0
 20
0
 39
0
 70
1
 66
1
  0
VERTEX
  8
0
 10
355.75
 20
417.80000000000001
 42
1
  0
VERTEX
  8
0
 10
355.75
 20
472.80000000000001
 42
1
  0
SEQEND
  0
POLYLINE
  8
0
 10
0
 20
0
 39
0
 70
1
 66
1
  0
VERTEX
  8
0
 10
355.75
 20
647.79999999999995
 42
1
  0
VERTEX
  8
0
 10
355.75
 20
702.79999999999995
 42
1
  0
SEQEND
  0
POLYLINE
  8
0
 10
0
 20
0
 39
0
 70
1
 66
1
  0
VERTEX
  8
0
 10
431
 20
10.25
 42
-0
  0
VERTEX
  8
0
 10
431
 20
350.25
 42
-0
  0
VERTEX
  8
0
 10
463.28299713134766
 20
440.25
 42
-0
  0
VERTEX
  8
0
 10
487.71700286865234
 20
440.25
 42
0
  0
VERTEX
  8
0
 10
520
 20
350.25
 42
0
  0
VERTEX
  8
0
 10
520
 20
10.250000000000011
 42
0
  0
SEQEND
  0
POLYLINE
  8
0
 10
0
 20
0
 39
0
 70
1
 66
1
  0
VERTEX
  8
0
 10
447.14149856567383
 20
262.87776184082031
 42
-0
  0
VERTEX
  8
0
 10
503.85850524902344
 20
262.87776184082031
 42
-0
  0
VERTEX
  8
0
 10
503.85850524902344
 20
296.87774658203125
 42
-0
  0
VERTEX
  8
0
 10
447.14149856567383
 20
296.87774658203125
 42
-0
  0
SEQEND
  0
POLYLINE
  8
0
 10
0
 20
0
 39
0
 70
1
 66
1
  0
VERTEX
  8
0
 10
475.5
 20
334.25
 42
1
  0
VERTEX
  8
0
 10
475.5
 20
366.25
 42
1
  0
SEQEND
  0
POLYLINE
  8
0
 10
0
 20
0
 39
0
 70
1
 66
1
  0
VERTEX
  8
0
 10
475.5
 20
144.56375122070312
 42
1
  0
VERTEX
  8
0
 10
475.5
 20
166.56375122070312
 42
1
  0
SEQEND
  0
POLYLINE
  8
0
 10
0
 20
0
 39
0
 70
1
 66
1
  0
VERTEX
  8
0
 10
475.5
 20
84.652252197265625
 42
1
  0
VERTEX
  8
0
 10
475.5
 20
106.65225219726562
 42
1
  0
SEQEND
  0
POLYLINE
  8
0
 10
0
 20
0
 39
0
 70
1
 66
1
  0
VERTEX
  8
0
 10
584.5
 20
789.45000000000005
 42
-0
  0
VERTEX
  8
0
 10
584.50000000000011
 20
449.45000000000005
 42
-0
  0
VERTEX
  8
0
 10
552.21700286865246
 20
359.45000000000005
 42
-0
  0
VERTEX
  8
0
 10
527.78299713134777
 20
359.45000000000005
 42
0
  0
VERTEX
  8
0
 10
495.50000000000006
 20
449.45000000000005
 42
0
  0
VERTEX
  8
0
 10
495.5
 20
789.45000000000005
 42
0
  0
SEQEND
  0
POLYLINE
  8
0
 10
0
 20
0
 39
0
 70
1
 66
1
  0
VERTEX
  8
0
 10
568.35850143432617
 20
536.82223815917973
 42
-0
  0
VERTEX
  8
0
 10
511.64149475097662
 20
536.82223815917973
 42
-0
  0
VERTEX
  8
0
 10
511.64149475097662
 20
502.8222534179688
 42
-0
  0
VERTEX
  8
0
 10
568.35850143432617
 20
502.8222534179688
 42
-0
  0
SEQEND
  0
POLYLINE
  8
0
 10
0
 20
0
 39
0
 70
1
 66
1
  0
VERTEX
  8
0
 10
540
 20
465.45000000000005
 42
1
  0
VERTEX
  8
0
 10
540.00000000000011
 20
433.45000000000005
 42
1
  0
SEQEND
  0
POLYLINE
  8
0
 10
0
 20
0
 39
0
 70
1
 66
1
  0
VERTEX
  8
0
 10
540
 20
655.13624877929692
 42
1
  0
VERTEX
  8
0
 10
540
 20
633.13624877929692
 42
1
  0
SEQEND
  0
POLYLINE
  8
0
 10
0
 20
0
 39
0
 70
1
 66
1
  0
VERTEX
  8
0
 10
540
 20
715.04774780273442
 42
1
  0
VERTEX
  8
0
 10
540
 20
693.04774780273442
 42
1
  0
SEQEND
  0
POLYLINE
  8
0
 10
0
 20
0
 39
0
 70
1
 66
1
  0
VERTEX
  8
0
 10
560
 20
10.25
 42
-0
  0
VERTEX
  8
0
 10
560
 20
350.25
 42
-0
  0
VERTEX
  8
0
 10
592.28299713134766
 20
440.25
 42
-0
  0
VERTEX
  8
0
 10
616.71700286865234
 20
440.25
 42
0
  0
VERTEX
  8
0
 10
649
 20
350.25
 42
0
  0
VERTEX
  8
0
 10
649
 20
10.250000000000011
 42
0
  0
SEQEND
  0
POLYLINE
  8
0
 10
0
 20
0
 39
0
 70
1
 66
1
  0
VERTEX
  8
0
 10
576.14149856567383
 20
262.87776184082031
 42
-0
  0
VERTEX
  8
0
 10
632.85850524902344
 20
262.87776184082031
 42
-0
  0
VERTEX
  8
0
 10
632.85850524902344
 20
296.87774658203125
 42
-0
  0
VERTEX
  8
0
 10
576.14149856567383
 20
296.87774658203125
 42
-0
  0
SEQEND
  0
POLYLINE
  8
0
 10
0
 20
0
 39
0
 70
1
 66
1
  0
VERTEX
  8
0
 10
604.5
 20
334.25
 42
1
  0
VERTEX
  8
0
 10
604.5
 20
366.25
 42
1
  0
SEQEND
  0
POLYLINE
  8
0
 10
0
 20
0
 39
0
 70
1
 66
1
  0
VERTEX
  8
0
 10
604.5
 20
144.56375122070312
 42
1
  0
VERTEX
  8
0
 10
604.5
 20
166.56375122070312
 42
1
  0
SEQEND
  0
POLYLINE
  8
0
 10
0
 20
0
 39
0
 70
1
 66
1
  0
VERTEX
  8
0
 10
604.5
 20
84.652252197265625
 42
1
  0
VERTEX
  8
0
 10
604.5
 20
106.65225219726562
 42
1
  0
SEQEND
  0
POLYLINE
  8
0
 10
0
 20
0
 39
0
 70
1
 66
1
  0
VERTEX
  8
0
 10
713.5
 20
789.45000000000005
 42
-0
  0
VERTEX
  8
0
 10
713.50000000000011
 20
449.45000000000005
 42
-0
  0
VERTEX
  8
0
 10
681.21700286865246
 20
359.45000000000005
 42
-0
  0
VERTEX
  8
0
 10
656.78299713134777
 20
359.45000000000005
 42
0
  0
VERTEX
  8
0
 10
624.5
 20
449.45000000000005
 42
0
  0
VERTEX
  8
0
 10
624.5
 20
789.45000000000005
 42
0
  0
SEQEND
  0
POLYLINE
  8
0
 10
0
 20
0
 39
0
 70
1
 66
1
  0
VERTEX
  8
0
 10
697.35850143432617
 20
536.82223815917973
 42
-0
  0
VERTEX
  8
0
 10
640.64149475097656
 20
536.82223815917973
 42
-0
  0
VERTEX
  8
0
 10
640.64149475097656
 20
502.8222534179688
 42
-0
  0
VERTEX
  8
0
 10
697.35850143432617
 20
502.8222534179688
 42
-0
  0
SEQEND
  0
POLYLINE
  8
0
 10
0
 20
0
 39
0
 70
1
 66
1
  0
VERTEX
  8
0
 10
669
 20
465.45000000000005
 42
1
  0
VERTEX
  8
0
 10
669.00000000000011
 20
433.45000000000005
 42
1
  0
SEQEND
  0
POLYLINE
  8
0
 10
0
 20
0
 39
0
 70
1
 66
1
  0
VERTEX
  8
0
 10
669
 20
655.13624877929692
 42
1
  0
VERTEX
  8
0
 10
669
 20
633.13624877929692
 42
1
  0
SEQEND
  0
POLYLINE
  8
0
 10
0
 20
0
 39
0
 70
1
 66
1
  0
VERTEX
  8
0
 10
669
 20
715.04774780273442
 42
1
  0
VERTEX
  8
0
 10
669
 20
693.04774780273442
 42
1
  0
SEQEND
  0
POLYLINE
  8
0
 10
0
 20
0
 39
0
 70
1
 66
1
  0
VERTEX
  8
0
 10
689
 20
10.25
 42
-0
  0
VERTEX
  8
0
 10
689
 20
350.25
 42
-0
  0
VERTEX
  8
0
 10
721.28299713134766
 20
440.25
 42
-0
  0
VERTEX
  8
0
 10
745.71700286865234
 20
440.25
 42
0
  0
VERTEX
  8
0
 10
778
 20
350.25
 42
0
  0
VERTEX
  8
0
 10
778
 20
10.250000000000011
 42
0
  0
SEQEND
  0
POLYLINE
  8
0
 10
0
 20
0
 39
0
 70
1
 66
1
  0
VERTEX
  8
0
 10
705.14149856567383
 20
262.87776184082031
 42
-0
  0
VERTEX
  8
0
 10
761.85850524902344
 20
262.87776184082031
 42
-0
  0
VERTEX
  8
0
 10
761.85850524902344
 20
296.87774658203125
 42
-0
  0
VERTEX
  8
0
 10
705.14149856567383
 20
296.87774658203125
 42
-0
  0
SEQEND
  0
POLYLINE
  8
0
 10
0
 20
0
 39
0
 70
1
 66
1
  0
VERTEX
  8
0
 10
733.5
 20
334.25
 42
1
  0
VERTEX
  8
0
 10
733.5
 20
366.25
 42
1
  0
SEQEND
  0
POLYLINE
  8
0
 10
0
 20
0
 39
0
 70
1
 66
1
  0
VERTEX
  8
0
 10
733.5
 20
144.56375122070312
 42
1
  0
VERTEX
  8
0
 10
733.5
 20
166.56375122070312
 42
1
  0
SEQEND
  0
POLYLINE
  8
0
 10
0
 20
0
 39
0
 70
1
 66
1
  0
VERTEX
  8
0
 10
733.5
 20
84.652252197265625
 42
1
  0
VERTEX
  8
0
 10
733.5
 20
106.65225219726562
 42
1
  0
SEQEND
  0
POLYLINE
  8
0
 10
0
 20
0
 39
0
 70
1
 66
1
  0
VERTEX
  8
0
 10
842.5
 20
789.45000000000005
 42
-0
  0
VERTEX
  8
0
 10
842.50000000000011
 20
449.45000000000005
 42
-0
  0
VERTEX
  8
0
 10
810.21700286865246
 20
359.45000000000005
 42
-0
  0
VERTEX
  8
0
 10
785.78299713134777
 20
359.45000000000005
 42
0
  0
VERTEX
  8
0
 10
753.5
 20
449.45000000000005
 42
0
  0
VERTEX
  8
0
 10
753.5
 20
789.45000000000005
 42
0
  0
SEQEND
  0
POLYLINE
  8
0
 10
0
 20
0
 39
0
 70
1
 66
1
  0
VERTEX
  8
0
 10
826.35850143432617
 20
536.82223815917973
 42
-0
  0
VERTEX
  8
0
 10
769.64149475097656
 20
536.82223815917973
 42
-0
  0
VERTEX
  8
0
 10
769.64149475097656
 20
502.8222534179688
 42
-0
  0
VERTEX
  8
0
 10
826.35850143432617
 20
502.8222534179688
 42
-0
  0
SEQEND
  0
POLYLINE
  8
0
 10
0
 20
0
 39
0
 70
1
 66
1
  0
VERTEX
  8
0
 10
798
 20
465.45000000000005
 42
1
  0
VERTEX
  8
0
 10
798.00000000000011
 20
433.45000000000005
 42
1
  0
SEQEND
  0
POLYLINE
  8
0
 10
0
 20
0
 39
0
 70
1
 66
1
  0
VERTEX
  8
0
 10
798
 20
655.13624877929692
 42
1
  0
VERTEX
  8
0
 10
798
 20
633.13624877929692
 42
1
  0
SEQEND
  0
POLYLINE
  8
0
 10
0
 20
0
 39
0
 70
1
 66
1
  0
VERTEX
  8
0
 10
798
 20
715.04774780273442
 42
1
  0
VERTEX
  8
0
 10
798
 20
693.04774780273442
 42
1
  0
SEQEND
  0
POLYLINE
  8
0
 10
0
 20
0
 39
0
 70
1
 66
1
  0
VERTEX
  8
0
 10
911.29999999999995
 20
260.25
 42
-0
  0
VERTEX
  8
0
 10
911.29999999999995
 20
10.25
 42
-0
  0
VERTEX
  8
0
 10
788.29999999999995
 20
10.25
 42
-0
  0
VERTEX
  8
0
 10
788.29999999999995
 20
260.25
 42
-0
  0
SEQEND
  0
POLYLINE
  8
0
 10
0
 20
0
 39
0
 70
1
 66
1
  0
VERTEX
  8
0
 10
889.79999999999995
 20
220.25
 42
0.41421356797218323
  0
VERTEX
  8
0
 10
869.79999999999995
 20
240.25
 42
-0
  0
VERTEX
  8
0
 10
829.79999999999995
 20
240.25
 42
0.41421356797218323
  0
VERTEX
  8
0
 10
809.79999999999995
 20
220.25
 42
-0
  0
VERTEX
  8
0
 10
809.79999999999995
 20
60.25
 42
0.41421356797218323
  0
VERTEX
  8
0
 10
829.79999999999995
 20
40.25
 42
0
  0
VERTEX
  8
0
 10
869.79999999999995
 20
40.25
 42
0.41421356797218323
  0
VERTEX
  8
0
 10
889.79999999999995
 20
60.25
 42
0
  0
SEQEND
  0
POLYLINE
  8
0
 10
0
 20
0
 39
0
 70
1
 66
1
  0
VERTEX
  8
0
 10
975.79999999999995
 20
520.34999999999991
 42
-0
  0
VERTEX
  8
0
 10
975.79999999999995
 20
270.34999999999997
 42
-0
  0
VERTEX
  8
0
 10
852.79999999999995
 20
270.34999999999997
 42
-0
  0
VERTEX
  8
0
 10
852.79999999999995
 20
520.34999999999991
 42
-0
  0
SEQEND
  0
POLYLINE
  8
0
 10
0
 20
0
 39
0
 70
1
 66
1
  0
VERTEX
  8
0
 10
954.29999999999995
 20
480.34999999999997
 42
0.41421356797218323
  0
VERTEX
  8
0
 10
934.29999999999995
 20
500.34999999999997
 42
-0
  0
VERTEX
  8
0
 10
894.29999999999995
 20
500.34999999999997
 42
0.41421356797218323
  0
VERTEX
  8
0
 10
874.29999999999995
 20
480.34999999999997
 42
-0
  0
VERTEX
  8
0
 10
874.29999999999995
 20
320.34999999999997
 42
0.41421356797218323
  0
VERTEX
  8
0
 10
894.29999999999995
 20
300.34999999999997
 42
0
  0
VERTEX
  8
0
 10
934.29999999999995
 20
300.34999999999997
 42
0.41421356797218323
  0
VERTEX
  8
0
 10
954.29999999999995
 20
320.34999999999997
 42
0
  0
SEQEND
  0
POLYLINE
  8
0
 10
0
 20
0
 39
0
 70
1
 66
1
  0
VERTEX
  8
0
 10
975.79999999999995
 20
780.44999999999993
 42
-0
  0
VERTEX
  8
0
 10
975.79999999999995
 20
530.44999999999993
 42
-0
  0
VERTEX
  8
0
 10
852.79999999999995
 20
530.44999999999993
 42
-0
  0
VERTEX
  8
0
 10
852.79999999999995
 20
780.44999999999993
 42
-0
  0
SEQEND
  0
POLYLINE
  8
0
 10
0
 20
0
 39
0
 70
1
 66
1
  0
VERTEX
  8
0
 10
954.29999999999995
 20
740.44999999999993
 42
0.41421356797218323
  0
VERTEX
  8
0
 10
934.29999999999995
 20
760.44999999999993
 42
-0
  0
VERTEX
  8
0
 10
894.29999999999995
 20
760.44999999999993
 42
0.41421356797218323
  0
VERTEX
  8
0
 10
874.29999999999995
 20
740.44999999999993
 42
-0
  0
VERTEX
  8
0
 10
874.29999999999995
 20
580.44999999999993
 42
0.41421356797218323
  0
VERTEX
  8
0
 10
894.29999999999995
 20
560.44999999999993
 42
0
  0
VERTEX
  8
0
 10
934.29999999999995
 20
560.44999999999993
 42
0.41421356797218323
  0
VERTEX
  8
0
 10
954.29999999999995
 20
580.44999999999993
 42
0
  0
SEQEND
  0
POLYLINE
  8
0
 10
0
 20
0
 39
0
 70
1
 66
1
  0
VERTEX
  8
0
 10
1044.5
 20
260.25
 42
-0
  0
VERTEX
  8
0
 10
1044.5
 20
10.25
 42
-0
  0
VERTEX
  8
0
 10
921.5
 20
10.25
 42
-0
  0
VERTEX
  8
0
 10
921.5
 20
260.25
 42
-0
  0
SEQEND
  0
POLYLINE
  8
0
 10
0
 20
0
 39
0
 70
1
 66
1
  0
VERTEX
  8
0
 10
1023
 20
220.25
 42
0.41421356797218323
  0
VERTEX
  8
0
 10
1003
 20
240.25
 42
-0
  0
VERTEX
  8
0
 10
963
 20
240.25
 42
0.41421356797218323
  0
VERTEX
  8
0
 10
943
 20
220.25
 42
-0
  0
VERTEX
  8
0
 10
943
 20
60.25
 42
0.41421356797218323
  0
VERTEX
  8
0
 10
963
 20
40.25
 42
0
  0
VERTEX
  8
0
 10
1003
 20
40.25
 42
0.41421356797218323
  0
VERTEX
  8
0
 10
1023
 20
60.25
 42
0
  0
SEQEND
  0
POLYLINE
  8
0
 10
0
 20
0
 39
0
 70
1
 66
1
  0
VERTEX
  8
0
 10
1086
 20
270.34999999999997
 42
-0
  0
VERTEX
  8
0
 10
986
 20
270.34999999999997
 42
-0
  0
VERTEX
  8
0
 10
986
 20
523.34999999999991
 42
0
  0
VERTEX
  8
0
 10
1086
 20
523.34999999999991
 42
0
  0
SEQEND
  0
POLYLINE
  8
0
 10
0
 20
0
 39
0
 70
1
 66
1
  0
VERTEX
  8
0
 10
1013
 20
396.84999999999997
 42
-0
  0
VERTEX
  8
0
 10
1059
 20
396.84999999999997
 42
-0
  0
VERTEX
  8
0
 10
1068.8575572967529
 20
496.36295471191403
 42
-0
  0
VERTEX
  8
0
 10
1003.1424407958984
 20
496.36295471191403
 42
0
  0
SEQEND
  0
POLYLINE
  8
0
 10
0
 20
0
 39
0
 70
1
 66
1
  0
VERTEX
  8
0
 10
1086
 20
533.44999999999993
 42
-0
  0
VERTEX
  8
0
 10
986
 20
533.44999999999993
 42
-0
  0
VERTEX
  8
0
 10
986
 20
786.44999999999993
 42
0
  0
VERTEX
  8
0
 10
1086
 20
786.44999999999993
 42
0
  0
SEQEND
  0
POLYLINE
  8
0
 10
0
 20
0
 39
0
 70
1
 66
1
  0
VERTEX
  8
0
 10
1013
 20
659.94999999999993
 42
-0
  0
VERTEX
  8
0
 10
1059
 20
659.94999999999993
 42
-0
  0
VERTEX
  8
0
 10
1068.8575572967529
 20
759.46295471191399
 42
-0
  0
VERTEX
  8
0
 10
1003.1424407958984
 20
759.46295471191399
 42
0
  0
SEQEND
  0
POLYLINE
  8
0
 10
0
 20
0
 39
0
 70
1
 66
1
  0
VERTEX
  8
0
 10
1193.55
 20
10.25
 42
-0
  0
VERTEX
  8
0
 10
1093.55
 20
10.25
 42
-0
  0
VERTEX
  8
0
 10
1093.55
 20
263.25
 42
0
  0
VERTEX
  8
0
 10
1193.55
 20
263.25
 42
0
  0
SEQEND
  0
POLYLINE
  8
0
 10
0
 20
0
 39
0
 70
1
 66
1
  0
VERTEX
  8
0
 10
1120.55
 20
136.75
 42
-0
  0
VERTEX
  8
0
 10
1166.55
 20
136.75
 42
-0
  0
VERTEX
  8
0
 10
1176.4075572967529
 20
236.26295471191406
 42
-0
  0
VERTEX
  8
0
 10
1110.6924407958984
 20
236.26295471191406
 42
0
  0
SEQEND
  0
POLYLINE
  8
0
 10
0
 20
0
 39
0
 70
1
 66
1
  0
VERTEX
  8
0
 10
1196.25
 20
273.34999999999997
 42
-0
  0
VERTEX
  8
0
 10
1096.25
 20
273.34999999999997
 42
-0
  0
VERTEX
  8
0
 10
1096.25
 20
526.34999999999991
 42
0
  0
VERTEX
  8
0
 10
1196.25
 20
526.34999999999991
 42
0
  0
SEQEND
  0
POLYLINE
  8
0
 10
0
 20
0
 39
0
 70
1
 66
1
  0
VERTEX
  8
0
 10
1123.25
 20
399.84999999999997
 42
-0
  0
VERTEX
  8
0
 10
1169.25
 20
399.84999999999997
 42
-0
  0
VERTEX
  8
0
 10
1179.1075572967529
 20
499.36295471191403
 42
-0
  0
VERTEX
  8
0
 10
1113.3924407958984
 20
499.36295471191403
 42
0
  0
SEQEND
  0
POLYLINE
  8
0
 10
0
 20
0
 39
0
 70
1
 66
1
  0
VERTEX
  8
0
 10
1196.25
 20
536.44999999999993
 42
-0
  0
VERTEX
  8
0
 10
1096.25
 20
536.44999999999993
 42
-0
  0
VERTEX
  8
0
 10
1096.25
 20
789.44999999999993
 42
0
  0
VERTEX
  8
0
 10
1196.25
 20
789.44999999999993
 42
0
  0
SEQEND
  0
POLYLINE
  8
0
 10
0
 20
0
 39
0
 70
1
 66
1
  0
VERTEX
  8
0
 10
1123.25
 20
662.94999999999993
 42
-0
  0
VERTEX
  8
0
 10
1169.25
 20
662.94999999999993
 42
-0
  0
VERTEX
  8
0
 10
1179.1075572967529
 20
762.46295471191399
 42
-0
  0
VERTEX
  8
0
 10
1113.3924407958984
 20
762.46295471191399
 42
0
  0
SEQEND
  0
POLYLINE
  8
0
 10
0
 20
0
 39
0
 70
1
 66
1
  0
VERTEX
  8
0
 10
1303.8
 20
10.25
 42
-0
  0
VERTEX
  8
0
 10
1203.8
 20
10.25
 42
-0
  0
VERTEX
  8
0
 10
1203.8
 20
263.25
 42
0
  0
VERTEX
  8
0
 10
1303.8
 20
263.25
 42
0
  0
SEQEND
  0
POLYLINE
  8
0
 10
0
 20
0
 39
0
 70
1
 66
1
  0
VERTEX
  8
0
 10
1230.8
 20
136.75
 42
-0
  0
VERTEX
  8
0
 10
1276.8
 20
136.75
 42
-0
  0
VERTEX
  8
0
 10
1286.6575572967529
 20
236.26295471191406
 42
-0
  0
VERTEX
  8
0
 10
1220.9424407958984
 20
236.26295471191406
 42
0
  0
SEQEND
  0
POLYLINE
  8
0
 10
0
 20
0
 39
0
 70
1
 66
1
  0
VERTEX
  8
0
 10
1306.5
 20
273.34999999999997
 42
-0
  0
VERTEX
  8
0
 10
1206.5
 20
273.34999999999997
 42
-0
  0
VERTEX
  8
0
 10
1206.5
 20
526.34999999999991
 42
0
  0
VERTEX
  8
0
 10
1306.5
 20
526.34999999999991
 42
0
  0
SEQEND
  0
POLYLINE
  8
0
 10
0
 20
0
 39
0
 70
1
 66
1
  0
VERTEX
  8
0
 10
1233.5
 20
399.84999999999997
 42
-0
  0
VERTEX
  8
0
 10
1279.5
 20
399.84999999999997
 42
-0
  0
VERTEX
  8
0
 10
1289.3575572967529
 20
499.36295471191403
 42
-0
  0
VERTEX
  8
0
 10
1223.6424407958984
 20
499.36295471191403
 42
0
  0
SEQEND
  0
POLYLINE
  8
0
 10
0
 20
0
 39
0
 70
1
 66
1
  0
VERTEX
  8
0
 10
1306.5
 20
536.44999999999993
 42
-0
  0
VERTEX
  8
0
 10
1206.5
 20
536.44999999999993
 42
-0
  0
VERTEX
  8
0
 10
1206.5
 20
789.44999999999993
 42
0
  0
VERTEX
  8
0
 10
1306.5
 20
789.44999999999993
 42
0
  0
SEQEND
  0
POLYLINE
  8
0
 10
0
 20
0
 39
0
 70
1
 66
1
  0
VERTEX
  8
0
 10
1233.5
 20
662.94999999999993
 42
-0
  0
VERTEX
  8
0
 10
1279.5
 20
662.94999999999993
 42
-0
  0
VERTEX
  8
0
 10
1289.3575572967529
 20
762.46295471191399
 42
-0
  0
VERTEX
  8
0
 10
1223.6424407958984
 20
762.46295471191399
 42
0
  0
SEQEND
  0
POLYLINE
  8
0
 10
0
 20
0
 39
0
 70
1
 66
1
  0
VERTEX
  8
0
 10
1314.05
 20
164.51499999999993
 42
-0
  0
VERTEX
  8
0
 10
1454.05
 20
164.51499999999993
 42
-0
  0
VERTEX
  8
0
 10
1454.05
 20
24.514999999999944
 42
-0
  0
SEQEND
  0
POLYLINE
  8
0
 10
0
 20
0
 39
0
 70
1
 66
1
  0
VERTEX
  8
0
 10
1454.05
 20
10.25
 42
-0
  0
VERTEX
  8
0
 10
1314.05
 20
10.250000000000028
 42
-0
  0
VERTEX
  8
0
 10
1314.05
 20
150.25000000000003
 42
-0
  0
SEQEND
  0
POLYLINE
  8
0
 10
0
 20
0
 39
0
 70
1
 66
1
  0
VERTEX
  8
0
 10
1316.75
 20
328.91499999999996
 42
-0
  0
VERTEX
  8
0
 10
1456.75
 20
328.91499999999996
 42
-0
  0
VERTEX
  8
0
 10
1456.75
 20
188.91499999999996
 42
-0
  0
SEQEND
  0
POLYLINE
  8
0
 10
0
 20
0
 39
0
 70
1
 66
1
  0
VERTEX
  8
0
 10
1456.75
 20
174.65000000000001
 42
-0
  0
VERTEX
  8
0
 10
1316.75
 20
174.65000000000003
 42
-0
  0
VERTEX
  8
0
 10
1316.75
 20
314.65000000000003
 42
-0
  0
SEQEND
  0
POLYLINE
  8
0
 10
0
 20
0
 39
0
 70
1
 66
1
  0
VERTEX
  8
0
 10
1316.75
 20
493.31499999999994
 42
-0
  0
VERTEX
  8
0
 10
1456.75
 20
493.31499999999994
 42
-0
  0
VERTEX
  8
0
 10
1456.75
 20
353.31499999999994
 42
-0
  0
SEQEND
  0
POLYLINE
  8
0
 10
0
 20
0
 39
0
 70
1
 66
1
  0
VERTEX
  8
0
 10
1456.75
 20
339.04999999999995
 42
-0
  0
VERTEX
  8
0
 10
1316.75
 20
339.05000000000001
 42
-0
  0
VERTEX
  8
0
 10
1316.75
 20
479.05000000000001
 42
-0
  0
SEQEND
  0
POLYLINE
  8
0
 10
0
 20
0
 39
0
 70
1
 66
1
  0
VERTEX
  8
0
 10
1316.75
 20
657.71499999999992
 42
-0
  0
VERTEX
  8
0
 10
1456.75
 20
657.71499999999992
 42
-0
  0
VERTEX
  8
0
 10
1456.75
 20
517.71499999999992
 42
-0
  0
SEQEND
  0
POLYLINE
  8
0
 10
0
 20
0
 39
0
 70
1
 66
1
  0
VERTEX
  8
0
 10
1456.75
 20
503.45000000000005
 42
-0
  0
VERTEX
  8
0
 10
1316.75
 20
503.45000000000005
 42
-0
  0
VERTEX
  8
0
 10
1316.75
 20
643.45000000000005
 42
-0
  0
SEQEND
  0
POLYLINE
  8
0
 10
0
 20
0
 39
0
 70
1
 66
1
  0
VERTEX
  8
0
 10
1339.3999999999999
 20
789.69999999999993
 42
-0
  0
VERTEX
  8
0
 10
1479.3999999999999
 20
789.69999999999993
 42
-0
  0
VERTEX
  8
0
 10
1479.3999999999999
 20
649.69999999999993
 42
-0
  0
SEQEND
  0
POLYLINE
  8
0
 10
0
 20
0
 39
0
 70
1
 66
1
  0
VERTEX
  8
0
 10
431
 20
605.34999999999991
 42
0
  0
VERTEX
  8
0
 10
481
 20
605.34999999999991
 42
0
  0
VERTEX
  8
0
 10
481
 20
450.34999999999997
 42
0
  0
VERTEX
  8
0
 10
431
 20
450.34999999999997
 42
0
  0
SEQEND
  0
POLYLINE
  8
0
 10
0
 20
0
 39
0
 70
1
 66
1
  0
VERTEX
  8
0
 10
456
 20
470.34999999999997
 42
1
  0
VERTEX
  8
0
 10
456
 20
490.34999999999997
 42
1
  0
SEQEND
  0
POLYLINE
  8
0
 10
0
 20
0
 39
0
 70
1
 66
1
  0
VERTEX
  8
0
 10
456
 20
585.34999999999991
 42
1
  0
VERTEX
  8
0
 10
456
 20
565.34999999999991
 42
1
  0
SEQEND
  0
POLYLINE
  8
0
 10
0
 20
0
 39
0
 70
1
 66
1
  0
VERTEX
  8
0
 10
431
 20
770.5
 42
0
  0
VERTEX
  8
0
 10
481
 20
770.5
 42
0
  0
VERTEX
  8
0
 10
481
 20
615.5
 42
0
  0
VERTEX
  8
0
 10
431
 20
615.5
 42
0
  0
SEQEND
  0
POLYLINE
  8
0
 10
0
 20
0
 39
0
 70
1
 66
1
  0
VERTEX
  8
0
 10
456
 20
635.5
 42
1
  0
VERTEX
  8
0
 10
456
 20
655.5
 42
1
  0
SEQEND
  0
POLYLINE
  8
0
 10
0
 20
0
 39
0
 70
1
 66
1
  0
VERTEX
  8
0
 10
456
 20
750.5
 42
1
  0
VERTEX
  8
0
 10
456
 20
730.5
 42
1
  0
SEQEND
  0
POLYLINE
  8
0
 10
0
 20
0
 39
0
 70
1
 66
1
  0
VERTEX
  8
0
 10
820.09999999999991
 20
214.75
 42
0
  0
VERTEX
  8
0
 10
870.09999999999991
 20
214.75
 42
0
  0
VERTEX
  8
0
 10
870.09999999999991
 20
59.75
 42
0
  0
VERTEX
  8
0
 10
820.09999999999991
 20
59.75
 42
0
  0
SEQEND
  0
POLYLINE
  8
0
 10
0
 20
0
 39
0
 70
1
 66
1
  0
VERTEX
  8
0
 10
845.09999999999991
 20
79.75
 42
1
  0
VERTEX
  8
0
 10
845.09999999999991
 20
99.75
 42
1
  0
SEQEND
  0
POLYLINE
  8
0
 10
0
 20
0
 39
0
 70
1
 66
1
  0
VERTEX
  8
0
 10
845.09999999999991
 20
194.75
 42
1
  0
VERTEX
  8
0
 10
845.09999999999991
 20
174.75
 42
1
  0
SEQEND
  0
POLYLINE
  8
0
 10
0
 20
0
 39
0
 70
1
 66
1
  0
VERTEX
  8
0
 10
884.59999999999991
 20
474.84999999999997
 42
0
  0
VERTEX
  8
0
 10
934.59999999999991
 20
474.84999999999997
 42
0
  0
VERTEX
  8
0
 10
934.59999999999991
 20
319.84999999999997
 42
0
  0
VERTEX
  8
0
 10
884.59999999999991
 20
319.84999999999997
 42
0
  0
SEQEND
  0
POLYLINE
  8
0
 10
0
 20
0
 39
0
 70
1
 66
1
  0
VERTEX
  8
0
 10
909.59999999999991
 20
339.84999999999997
 42
1
  0
VERTEX
  8
0
 10
909.59999999999991
 20
359.84999999999997
 42
1
  0
SEQEND
  0
POLYLINE
  8
0
 10
0
 20
0
 39
0
 70
1
 66
1
  0
VERTEX
  8
0
 10
909.59999999999991
 20
454.84999999999997
 42
1
  0
VERTEX
  8
0
 10
909.59999999999991
 20
434.84999999999997
 42
1
  0
SEQEND
  0
POLYLINE
  8
0
 10
0
 20
0
 39
0
 70
1
 66
1
  0
VERTEX
  8
0
 10
191.75
 20
749.75
 42
-0
  0
VERTEX
  8
0
 10
86.75
 20
749.75
 42
-0
  0
VERTEX
  8
0
 10
86.75
 20
789.75
 42
0
  0
VERTEX
  8
0
 10
191.75
 20
789.75
 42
0
  0
SEQEND
  0
POLYLINE
  8
0
 10
0
 20
0
 39
0
 70
1
 66
1
  0
VERTEX
  8
0
 10
175.15363121032715
 20
779.75
 42
0
  0
VERTEX
  8
0
 10
139.25
 20
779.75
 42
1
  0
VERTEX
  8
0
 10
139.25
 20
759.75
 42
0
  0
VERTEX
  8
0
 10
175.15363121032715
 20
759.75
 42
0
  0
SEQEND
  0
POLYLINE
  8
0
 10
0
 20
0
 39
0
 70
1
 66
1
  0
VERTEX
  8
0
 10
332
 20
749.75
 42
-0
  0
VERTEX
  8
0
 10
227
 20
749.75
 42
-0
  0
VERTEX
  8
0
 10
227
 20
789.75
 42
0
  0
VERTEX
  8
0
 10
332
 20
789.75
 42
0
  0
SEQEND
  0
POLYLINE
  8
0
 10
0
 20
0
 39
0
 70
1
 66
1
  0
VERTEX
  8
0
 10
315.40363121032715
 20
779.75
 42
0
  0
VERTEX
  8
0
 10
279.5
 20
779.75
 42
1
  0
VERTEX
  8
0
 10
279.5
 20
759.75
 42
0
  0
VERTEX
  8
0
 10
315.40363121032715
 20
759.75
 42
0
  0
SEQEND
  0
POLYLINE
  8
0
 10
0
 20
0
 39
0
 70
1
 66
1
  0
VERTEX
  8
0
 10
884.59999999999991
 20
579.94999999999993
 42
-0
  0
VERTEX
  8
0
 10
884.59999999999991
 20
684.94999999999993
 42
-0
  0
VERTEX
  8
0
 10
924.59999999999991
 20
684.94999999999993
 42
0
  0
VERTEX
  8
0
 10
924.59999999999991
 20
579.94999999999993
 42
0
  0
SEQEND
  0
POLYLINE
  8
0
 10
0
 20
0
 39
0
 70
1
 66
1
  0
VERTEX
  8
0
 10
914.59999999999991
 20
596.54636878967278
 42
0
  0
VERTEX
  8
0
 10
914.59999999999991
 20
632.44999999999993
 42
1
  0
VERTEX
  8
0
 10
894.59999999999991
 20
632.44999999999993
 42
0
  0
VERTEX
  8
0
 10
894.59999999999991
 20
596.54636878967278
 42
0
  0
SEQEND
  0
POLYLINE
  8
0
 10
0
 20
0
 39
0
 70
1
 66
1
  0
VERTEX
  8
0
 10
953.29999999999995
 20
59.75
 42
-0
  0
VERTEX
  8
0
 10
953.29999999999995
 20
164.75
 42
-0
  0
VERTEX
  8
0
 10
993.29999999999995
 20
164.75
 42
0
  0
VERTEX
  8
0
 10
993.29999999999995
 20
59.750000000000007
 42
0
  0
SEQEND
  0
POLYLINE
  8
0
 10
0
 20
0
 39
0
 70
1
 66
1
  0
VERTEX
  8
0
 10
983.29999999999995
 20
76.346368789672852
 42
0
  0
VERTEX
  8
0
 10
983.29999999999995
 20
112.25
 42
1
  0
VERTEX
  8
0
 10
963.29999999999995
 20
112.25
 42
0
  0
VERTEX
  8
0
 10
963.29999999999995
 20
76.346368789672852
 42
0
  0
SEQEND
  0
ENDSEC
  0
EOF
