  0
SECTION
  2
ENTITIES
  0
POLYLINE
  8
0
 10
0
 20
0
 39
0
 70
1
 66
1
  0
VERTEX
  8
0
 10
0
 20
0
 42
-0
  0
VERTEX
  8
0
 10
3300
 20
0
 42
-0
  0
VERTEX
  8
0
 10
3300
 20
1800
 42
-0
  0
VERTEX
  8
0
 10
0
 20
1800
 42
-0
  0
SEQEND
  0
POLYLINE
  8
0
 10
0
 20
0
 39
0
 70
1
 66
1
  0
VERTEX
  8
0
 10
10.609999656677246
 20
385.99441528320313
 42
-0
  0
VERTEX
  8
0
 10
10.609999656677246
 20
212.99441528320312
 42
-0
  0
VERTEX
  8
0
 10
132.00418090820312
 20
10.609999656677246
 42
-0
  0
VERTEX
  8
0
 10
347.2926025390625
 20
137.6961669921875
 42
-0.041362147778272629
  0
VERTEX
  8
0
 10
305.60174560546875
 20
215.19380187988281
 42
-0.11110779643058777
  0
VERTEX
  8
0
 10
267.84725952148437
 20
385.99444580078125
 42
-0.11110779643058777
  0
VERTEX
  8
0
 10
305.60183715820313
 20
556.7950439453125
 42
-0.041362080723047256
  0
VERTEX
  8
0
 10
347.29254150390625
 20
634.2926025390625
 42
0
  0
VERTEX
  8
0
 10
132.00418090820312
 20
761.3787841796875
 42
0
  0
VERTEX
  8
0
 10
10.609999656677246
 20
558.994384765625
 42
0
  0
SEQEND
  0
POLYLINE
  8
0
 10
0
 20
0
 39
0
 70
1
 66
1
  0
VERTEX
  8
0
 10
347.2926025390625
 20
1094.1744384765625
 42
-0
  0
VERTEX
  8
0
 10
347.2926025390625
 20
1267.1744384765625
 42
-0
  0
VERTEX
  8
0
 10
225.89842224121094
 20
1469.558837890625
 42
-0
  0
VERTEX
  8
0
 10
10.609999656677246
 20
1342.47265625
 42
-0.041362147778272629
  0
VERTEX
  8
0
 10
52.300857543945313
 20
1264.9749755859375
 42
-0.11110779643058777
  0
VERTEX
  8
0
 10
90.055343627929688
 20
1094.17431640625
 42
-0.11110779643058777
  0
VERTEX
  8
0
 10
52.300765991210937
 20
923.37371826171875
 42
-0.041362080723047256
  0
VERTEX
  8
0
 10
10.610060691833496
 20
845.876220703125
 42
0
  0
VERTEX
  8
0
 10
225.89842224121094
 20
718.78997802734375
 42
0
  0
VERTEX
  8
0
 10
347.2926025390625
 20
921.17437744140625
 42
0
  0
SEQEND
  0
POLYLINE
  8
0
 10
0
 20
0
 39
0
 70
1
 66
1
  0
VERTEX
  8
0
 10
624.16259765625
 20
551.32440185546875
 42
-0
  0
VERTEX
  8
0
 10
624.16259765625
 20
724.32440185546875
 42
-0
  0
VERTEX
  8
0
 10
502.7684326171875
 20
926.70880126953125
 42
-0
  0
VERTEX
  8
0
 10
287.48001098632812
 20
799.62261962890625
 42
-0.041362147778272629
  0
VERTEX
  8
0
 10
329.17086791992187
 20
722.125
 42
-0.11110779643058777
  0
VERTEX
  8
0
 10
366.92535400390625
 20
551.3243408203125
 42
-0.11110779643058777
  0
VERTEX
  8
0
 10
329.1707763671875
 20
380.52374267578125
 42
-0.041362080723047256
  0
VERTEX
  8
0
 10
287.48007202148437
 20
303.02621459960937
 42
0
  0
VERTEX
  8
0
 10
502.7684326171875
 20
175.94000244140625
 42
0
  0
VERTEX
  8
0
 10
624.16259765625
 20
378.32440185546875
 42
0
  0
SEQEND
  0
POLYLINE
  8
0
 10
0
 20
0
 39
0
 70
1
 66
1
  0
VERTEX
  8
0
 10
694.45263671875
 20
1273.3643798828125
 42
-0
  0
VERTEX
  8
0
 10
694.45263671875
 20
1446.3643798828125
 42
-0
  0
VERTEX
  8
0
 10
573.05841064453125
 20
1648.748779296875
 42
-0
  0
VERTEX
  8
0
 10
357.76998901367187
 20
1521.66259765625
 42
-0.041362147778272629
  0
VERTEX
  8
0
 10
399.46084594726562
 20
1444.1650390625
 42
-0.11110779643058777
  0
VERTEX
  8
0
 10
437.21533203125
 20
1273.3643798828125
 42
-0.11110779643058777
  0
VERTEX
  8
0
 10
399.46075439453125
 20
1102.563720703125
 42
-0.041362080723047256
  0
VERTEX
  8
0
 10
357.77005004882812
 20
1025.066162109375
 42
0
  0
VERTEX
  8
0
 10
573.05841064453125
 20
897.97998046875
 42
0
  0
VERTEX
  8
0
 10
694.45263671875
 20
1100.3643798828125
 42
0
  0
SEQEND
  0
POLYLINE
  8
0
 10
0
 20
0
 39
0
 70
1
 66
1
  0
VERTEX
  8
0
 10
680.87603759765625
 20
444.3236083984375
 42
0.18655149638652802
  0
VERTEX
  8
0
 10
699.11285400390625
 20
413.22021484375
 42
-0.15342570841312408
  0
VERTEX
  8
0
 10
715.908935546875
 20
388.38763427734375
 42
-0.13932250440120697
  0
VERTEX
  8
0
 10
709.30035400390625
 20
361.8646240234375
 42
1.1490122079849243
  0
VERTEX
  8
0
 10
847.1234130859375
 20
306.4010009765625
 42
-0
  0
VERTEX
  8
0
 10
930.80096435546875
 20
642.31103515625
 42
-0
  0
VERTEX
  8
0
 10
886.27972412109375
 20
850.3599853515625
 42
-0
  0
VERTEX
  8
0
 10
931.1453857421875
 20
979.247802734375
 42
0
  0
VERTEX
  8
0
 10
670.987060546875
 20
1002.7346801757812
 42
-0
  0
VERTEX
  8
0
 10
647.57550048828125
 20
984.7374267578125
 42
0.28020656108856201
  0
VERTEX
  8
0
 10
608.55035400390625
 20
888.42010498046875
 42
0
  0
SEQEND
  0
POLYLINE
  8
0
 10
0
 20
0
 39
0
 70
1
 66
1
  0
VERTEX
  8
0
 10
779.97344970703125
 20
289.98513793945312
 42
-1
  0
VERTEX
  8
0
 10
768.72149658203125
 20
359.07485961914062
 42
-1
  0
SEQEND
  0
POLYLINE
  8
0
 10
0
 20
0
 39
0
 70
1
 66
1
  0
VERTEX
  8
0
 10
824.70037841796875
 20
603.2481689453125
 42
-1
  0
VERTEX
  8
0
 10
802.1964111328125
 20
741.42767333984375
 42
-1
  0
SEQEND
  0
POLYLINE
  8
0
 10
0
 20
0
 39
0
 70
1
 66
1
  0
VERTEX
  8
0
 10
739.22015380859375
 20
884.8699951171875
 42
-1
  0
VERTEX
  8
0
 10
731.18304443359375
 20
934.2198486328125
 42
-1
  0
SEQEND
  0
POLYLINE
  8
0
 10
0
 20
0
 39
0
 70
1
 66
1
  0
VERTEX
  8
0
 10
740.93609619140625
 20
1229.0635986328125
 42
0.18655149638652802
  0
VERTEX
  8
0
 10
759.1728515625
 20
1197.960205078125
 42
-0.15342570841312408
  0
VERTEX
  8
0
 10
775.96893310546875
 20
1173.127685546875
 42
-0.13932250440120697
  0
VERTEX
  8
0
 10
769.3603515625
 20
1146.6046142578125
 42
1.1490122079849243
  0
VERTEX
  8
0
 10
907.18341064453125
 20
1091.1409912109375
 42
-0
  0
VERTEX
  8
0
 10
990.8609619140625
 20
1427.051025390625
 42
-0
  0
VERTEX
  8
0
 10
946.3397216796875
 20
1635.0999755859375
 42
-0
  0
VERTEX
  8
0
 10
991.20538330078125
 20
1763.98779296875
 42
0
  0
VERTEX
  8
0
 10
731.04705810546875
 20
1787.4747314453125
 42
-0
  0
VERTEX
  8
0
 10
707.63555908203125
 20
1769.4774169921875
 42
0.28020656108856201
  0
VERTEX
  8
0
 10
668.6103515625
 20
1673.1600341796875
 42
0
  0
SEQEND
  0
POLYLINE
  8
0
 10
0
 20
0
 39
0
 70
1
 66
1
  0
VERTEX
  8
0
 10
840.033447265625
 20
1074.72509765625
 42
-1
  0
VERTEX
  8
0
 10
828.781494140625
 20
1143.8148193359375
 42
-1
  0
SEQEND
  0
POLYLINE
  8
0
 10
0
 20
0
 39
0
 70
1
 66
1
  0
VERTEX
  8
0
 10
884.7603759765625
 20
1387.9881591796875
 42
-1
  0
VERTEX
  8
0
 10
862.25640869140625
 20
1526.167724609375
 42
-1
  0
SEQEND
  0
POLYLINE
  8
0
 10
0
 20
0
 39
0
 70
1
 66
1
  0
VERTEX
  8
0
 10
799.28021240234375
 20
1669.6099853515625
 42
-1
  0
VERTEX
  8
0
 10
791.2430419921875
 20
1718.9598388671875
 42
-1
  0
SEQEND
  0
POLYLINE
  8
0
 10
0
 20
0
 39
0
 70
1
 66
1
  0
VERTEX
  8
0
 10
1124.8193359375
 20
569.0211181640625
 42
0.18655149638652802
  0
VERTEX
  8
0
 10
1106.58251953125
 20
600.12445068359375
 42
-0.15342570841312408
  0
VERTEX
  8
0
 10
1089.7864990234375
 20
624.95709228515625
 42
-0.13932250440120697
  0
VERTEX
  8
0
 10
1096.39501953125
 20
651.4801025390625
 42
1.1490122079849243
  0
VERTEX
  8
0
 10
958.57196044921875
 20
706.9437255859375
 42
-0
  0
VERTEX
  8
0
 10
874.8944091796875
 20
371.03366088867187
 42
-0
  0
VERTEX
  8
0
 10
919.4156494140625
 20
162.98472595214844
 42
-0
  0
VERTEX
  8
0
 10
874.54998779296875
 20
34.096893310546875
 42
0
  0
VERTEX
  8
0
 10
1134.7083740234375
 20
10.609999656677246
 42
-0
  0
VERTEX
  8
0
 10
1158.119873046875
 20
28.607255935668945
 42
0.28020656108856201
  0
VERTEX
  8
0
 10
1197.14501953125
 20
124.92460632324219
 42
0
  0
SEQEND
  0
POLYLINE
  8
0
 10
0
 20
0
 39
0
 70
1
 66
1
  0
VERTEX
  8
0
 10
1025.721923828125
 20
723.35955810546875
 42
-1
  0
VERTEX
  8
0
 10
1036.973876953125
 20
654.26983642578125
 42
-1
  0
SEQEND
  0
POLYLINE
  8
0
 10
0
 20
0
 39
0
 70
1
 66
1
  0
VERTEX
  8
0
 10
980.99505615234375
 20
410.09649658203125
 42
-1
  0
VERTEX
  8
0
 10
1003.4989624023437
 20
271.91702270507812
 42
-1
  0
SEQEND
  0
POLYLINE
  8
0
 10
0
 20
0
 39
0
 70
1
 66
1
  0
VERTEX
  8
0
 10
1066.4752197265625
 20
128.47468566894531
 42
-1
  0
VERTEX
  8
0
 10
1074.5123291015625
 20
79.124870300292969
 42
-1
  0
SEQEND
  0
POLYLINE
  8
0
 10
0
 20
0
 39
0
 70
1
 66
1
  0
VERTEX
  8
0
 10
1176.29931640625
 20
1319.7711181640625
 42
0.18655149638652802
  0
VERTEX
  8
0
 10
1158.0625
 20
1350.87451171875
 42
-0.15342570841312408
  0
VERTEX
  8
0
 10
1141.2664794921875
 20
1375.70703125
 42
-0.13932250440120697
  0
VERTEX
  8
0
 10
1147.875
 20
1402.2301025390625
 42
1.1490122079849243
  0
VERTEX
  8
0
 10
1010.0519409179687
 20
1457.6937255859375
 42
-0
  0
VERTEX
  8
0
 10
926.3743896484375
 20
1121.78369140625
 42
-0
  0
VERTEX
  8
0
 10
970.8956298828125
 20
913.7347412109375
 42
-0
  0
VERTEX
  8
0
 10
926.030029296875
 20
784.846923828125
 42
0
  0
VERTEX
  8
0
 10
1186.1883544921875
 20
761.3599853515625
 42
-0
  0
VERTEX
  8
0
 10
1209.599853515625
 20
779.35723876953125
 42
0.28020656108856201
  0
VERTEX
  8
0
 10
1248.625
 20
875.67462158203125
 42
0
  0
SEQEND
  0
POLYLINE
  8
0
 10
0
 20
0
 39
0
 70
1
 66
1
  0
VERTEX
  8
0
 10
1077.201904296875
 20
1474.109619140625
 42
-1
  0
VERTEX
  8
0
 10
1088.453857421875
 20
1405.019775390625
 42
-1
  0
SEQEND
  0
POLYLINE
  8
0
 10
0
 20
0
 39
0
 70
1
 66
1
  0
VERTEX
  8
0
 10
1032.4749755859375
 20
1160.8465576171875
 42
-1
  0
VERTEX
  8
0
 10
1054.97900390625
 20
1022.6669921875
 42
-1
  0
SEQEND
  0
POLYLINE
  8
0
 10
0
 20
0
 39
0
 70
1
 66
1
  0
VERTEX
  8
0
 10
1117.9552001953125
 20
879.22467041015625
 42
-1
  0
VERTEX
  8
0
 10
1125.9923095703125
 20
829.8748779296875
 42
-1
  0
SEQEND
  0
POLYLINE
  8
0
 10
0
 20
0
 39
0
 70
1
 66
1
  0
VERTEX
  8
0
 10
1182.77001953125
 20
480.6099853515625
 42
-0
  0
VERTEX
  8
0
 10
1282.8868408203125
 20
10.609999656677246
 42
0
  0
VERTEX
  8
0
 10
1402.77001953125
 20
10.609999656677246
 42
0
  0
VERTEX
  8
0
 10
1402.77001953125
 20
950.6099853515625
 42
0
  0
VERTEX
  8
0
 10
1282.8868408203125
 20
950.6099853515625
 42
0
  0
SEQEND
  0
POLYLINE
  8
0
 10
0
 20
0
 39
0
 70
1
 66
1
  0
VERTEX
  8
0
 10
1335.56005859375
 20
1318.81005859375
 42
-0
  0
VERTEX
  8
0
 10
1435.6767578125
 20
848.80999755859375
 42
0
  0
VERTEX
  8
0
 10
1555.56005859375
 20
848.80999755859375
 42
0
  0
VERTEX
  8
0
 10
1555.56005859375
 20
1788.81005859375
 42
0
  0
VERTEX
  8
0
 10
1435.6767578125
 20
1788.81005859375
 42
0
  0
SEQEND
  0
POLYLINE
  8
0
 10
0
 20
0
 39
0
 70
1
 66
1
  0
VERTEX
  8
0
 10
1488.3499755859375
 20
480.6099853515625
 42
-0
  0
VERTEX
  8
0
 10
1588.466796875
 20
10.609999656677246
 42
0
  0
VERTEX
  8
0
 10
1708.3499755859375
 20
10.609999656677246
 42
0
  0
VERTEX
  8
0
 10
1708.3499755859375
 20
950.6099853515625
 42
0
  0
VERTEX
  8
0
 10
1588.466796875
 20
950.6099853515625
 42
0
  0
SEQEND
  0
POLYLINE
  8
0
 10
0
 20
0
 39
0
 70
1
 66
1
  0
VERTEX
  8
0
 10
1641.1400146484375
 20
1318.81005859375
 42
-0
  0
VERTEX
  8
0
 10
1741.2568359375
 20
848.80999755859375
 42
0
  0
VERTEX
  8
0
 10
1861.1400146484375
 20
848.80999755859375
 42
0
  0
VERTEX
  8
0
 10
1861.1400146484375
 20
1788.81005859375
 42
0
  0
VERTEX
  8
0
 10
1741.2568359375
 20
1788.81005859375
 42
0
  0
SEQEND
  0
POLYLINE
  8
0
 10
0
 20
0
 39
0
 70
1
 66
1
  0
VERTEX
  8
0
 10
1793.9300537109375
 20
480.6099853515625
 42
-0
  0
VERTEX
  8
0
 10
1894.0467529296875
 20
10.609999656677246
 42
0
  0
VERTEX
  8
0
 10
2013.9300537109375
 20
10.609999656677246
 42
0
  0
VERTEX
  8
0
 10
2013.9300537109375
 20
950.6099853515625
 42
0
  0
VERTEX
  8
0
 10
1894.0467529296875
 20
950.6099853515625
 42
0
  0
SEQEND
  0
POLYLINE
  8
0
 10
0
 20
0
 39
0
 70
1
 66
1
  0
VERTEX
  8
0
 10
1946.719970703125
 20
1318.81005859375
 42
-0
  0
VERTEX
  8
0
 10
2046.8367919921875
 20
848.80999755859375
 42
0
  0
VERTEX
  8
0
 10
2166.719970703125
 20
848.80999755859375
 42
0
  0
VERTEX
  8
0
 10
2166.719970703125
 20
1788.81005859375
 42
0
  0
VERTEX
  8
0
 10
2046.8367919921875
 20
1788.81005859375
 42
0
  0
SEQEND
  0
POLYLINE
  8
0
 10
0
 20
0
 39
0
 70
1
 66
1
  0
VERTEX
  8
0
 10
2246.234375
 20
452.60787963867187
 42
1
  0
VERTEX
  8
0
 10
2244.3056640625
 20
10.612103462219238
 42
1
  0
SEQEND
  0
POLYLINE
  8
0
 10
0
 20
0
 39
0
 70
1
 66
1
  0
VERTEX
  8
0
 10
2245.928955078125
 20
382.60855102539062
 42
-1
  0
VERTEX
  8
0
 10
2244.611083984375
 20
80.611434936523438
 42
-1
  0
SEQEND
  0
POLYLINE
  8
0
 10
0
 20
0
 39
0
 70
1
 66
1
  0
VERTEX
  8
0
 10
2324.774169921875
 20
898.76788330078125
 42
1
  0
VERTEX
  8
0
 10
2322.845703125
 20
456.7720947265625
 42
1
  0
SEQEND
  0
POLYLINE
  8
0
 10
0
 20
0
 39
0
 70
1
 66
1
  0
VERTEX
  8
0
 10
2324.46875
 20
828.7685546875
 42
-1
  0
VERTEX
  8
0
 10
2323.151123046875
 20
526.77142333984375
 42
-1
  0
SEQEND
  0
POLYLINE
  8
0
 10
0
 20
0
 39
0
 70
1
 66
1
  0
VERTEX
  8
0
 10
2399.024169921875
 20
1345.9178466796875
 42
1
  0
VERTEX
  8
0
 10
2397.095703125
 20
903.922119140625
 42
1
  0
SEQEND
  0
POLYLINE
  8
0
 10
0
 20
0
 39
0
 70
1
 66
1
  0
VERTEX
  8
0
 10
2398.71875
 20
1275.9185791015625
 42
-1
  0
VERTEX
  8
0
 10
2397.401123046875
 20
973.92144775390625
 42
-1
  0
SEQEND
  0
POLYLINE
  8
0
 10
0
 20
0
 39
0
 70
1
 66
1
  0
VERTEX
  8
0
 10
2491.09423828125
 20
1789.4378662109375
 42
1
  0
VERTEX
  8
0
 10
2489.165771484375
 20
1347.442138671875
 42
1
  0
SEQEND
  0
POLYLINE
  8
0
 10
0
 20
0
 39
0
 70
1
 66
1
  0
VERTEX
  8
0
 10
2490.788818359375
 20
1719.4385986328125
 42
-1
  0
VERTEX
  8
0
 10
2489.47119140625
 20
1417.44140625
 42
-1
  0
SEQEND
  0
POLYLINE
  8
0
 10
0
 20
0
 39
0
 70
1
 66
1
  0
VERTEX
  8
0
 10
2671.934326171875
 20
607.37786865234375
 42
1
  0
VERTEX
  8
0
 10
2670.005615234375
 20
165.38211059570312
 42
1
  0
SEQEND
  0
POLYLINE
  8
0
 10
0
 20
0
 39
0
 70
1
 66
1
  0
VERTEX
  8
0
 10
2671.62890625
 20
537.3785400390625
 42
-1
  0
VERTEX
  8
0
 10
2670.31103515625
 20
235.38143920898437
 42
-1
  0
SEQEND
  0
POLYLINE
  8
0
 10
0
 20
0
 39
0
 70
1
 66
1
  0
VERTEX
  8
0
 10
2748.82421875
 20
1058.1578369140625
 42
1
  0
VERTEX
  8
0
 10
2746.895751953125
 20
616.162109375
 42
1
  0
SEQEND
  0
POLYLINE
  8
0
 10
0
 20
0
 39
0
 70
1
 66
1
  0
VERTEX
  8
0
 10
2748.518798828125
 20
988.1585693359375
 42
-1
  0
VERTEX
  8
0
 10
2747.201171875
 20
686.16143798828125
 42
-1
  0
SEQEND
  0
POLYLINE
  8
0
 10
0
 20
0
 39
0
 70
1
 66
1
  0
VERTEX
  8
0
 10
2906.536376953125
 20
1305.199951171875
 42
-0
  0
VERTEX
  8
0
 10
2906.536376953125
 20
1789.199951171875
 42
-0
  0
VERTEX
  8
0
 10
2639.389892578125
 20
1789.199951171875
 42
-0
  0
VERTEX
  8
0
 10
2754.10107421875
 20
1558.2591552734375
 42
-0
  0
VERTEX
  8
0
 10
2685.536376953125
 20
1305.199951171875
 42
-0
  0
SEQEND
  0
POLYLINE
  8
0
 10
0
 20
0
 39
0
 70
1
 66
1
  0
VERTEX
  8
0
 10
2891.682861328125
 20
1329.9674072265625
 42
0
  0
VERTEX
  8
0
 10
2731.682861328125
 20
1329.9674072265625
 42
0
  0
VERTEX
  8
0
 10
2731.682861328125
 20
1423.199951171875
 42
0
  0
VERTEX
  8
0
 10
2772.963134765625
 20
1423.199951171875
 42
0
  0
VERTEX
  8
0
 10
2772.963134765625
 20
1773.9674072265625
 42
0
  0
VERTEX
  8
0
 10
2891.682861328125
 20
1773.9674072265625
 42
0
  0
SEQEND
  0
POLYLINE
  8
0
 10
0
 20
0
 39
0
 70
1
 66
1
  0
VERTEX
  8
0
 10
3083.41650390625
 20
131.05999755859375
 42
-0
  0
VERTEX
  8
0
 10
3083.41650390625
 20
615.05999755859375
 42
-0
  0
VERTEX
  8
0
 10
2816.27001953125
 20
615.05999755859375
 42
-0
  0
VERTEX
  8
0
 10
2930.981201171875
 20
384.119140625
 42
-0
  0
VERTEX
  8
0
 10
2862.41650390625
 20
131.05999755859375
 42
-0
  0
SEQEND
  0
POLYLINE
  8
0
 10
0
 20
0
 39
0
 70
1
 66
1
  0
VERTEX
  8
0
 10
3068.56298828125
 20
155.827392578125
 42
0
  0
VERTEX
  8
0
 10
2908.56298828125
 20
155.827392578125
 42
0
  0
VERTEX
  8
0
 10
2908.56298828125
 20
249.05996704101562
 42
0
  0
VERTEX
  8
0
 10
2949.84326171875
 20
249.05996704101562
 42
0
  0
VERTEX
  8
0
 10
2949.84326171875
 20
599.827392578125
 42
0
  0
VERTEX
  8
0
 10
3068.56298828125
 20
599.827392578125
 42
0
  0
SEQEND
  0
POLYLINE
  8
0
 10
0
 20
0
 39
0
 70
1
 66
1
  0
VERTEX
  8
0
 10
2629.489990234375
 20
1068.260009765625
 42
-0
  0
VERTEX
  8
0
 10
3113.489990234375
 20
1068.260009765625
 42
-0
  0
VERTEX
  8
0
 10
3113.489990234375
 20
1335.406494140625
 42
-0
  0
VERTEX
  8
0
 10
2882.549072265625
 20
1220.6953125
 42
-0
  0
VERTEX
  8
0
 10
2629.489990234375
 20
1289.260009765625
 42
-0
  0
SEQEND
  0
POLYLINE
  8
0
 10
0
 20
0
 39
0
 70
1
 66
1
  0
VERTEX
  8
0
 10
2654.25732421875
 20
1083.113525390625
 42
0
  0
VERTEX
  8
0
 10
2654.25732421875
 20
1243.113525390625
 42
0
  0
VERTEX
  8
0
 10
2747.489990234375
 20
1243.113525390625
 42
0
  0
VERTEX
  8
0
 10
2747.489990234375
 20
1201.833251953125
 42
0
  0
VERTEX
  8
0
 10
3098.25732421875
 20
1201.833251953125
 42
0
  0
VERTEX
  8
0
 10
3098.25732421875
 20
1083.113525390625
 42
0
  0
SEQEND
  0
POLYLINE
  8
0
 10
0
 20
0
 39
0
 70
1
 66
1
  0
VERTEX
  8
0
 10
311.63967895507812
 20
1650.2010498046875
 42
-0
  0
VERTEX
  8
0
 10
446.3856201171875
 20
1611.12158203125
 42
1.2610832452774048
  0
VERTEX
  8
0
 10
453.214111328125
 20
1741.4166259765625
 42
0
  0
VERTEX
  8
0
 10
315.12139892578125
 20
1716.6361083984375
 42
-0.057542923837900162
  0
VERTEX
  8
0
 10
312.831787109375
 20
1716.4925537109375
 42
-0
  0
VERTEX
  8
0
 10
128.14244079589844
 20
1726.1717529296875
 42
-0.045034769922494888
  0
VERTEX
  8
0
 10
126.36288452148437
 20
1726.4268798828125
 42
-0
  0
VERTEX
  8
0
 10
65.973121643066406
 20
1740.71826171875
 42
1.198412299156189
  0
VERTEX
  8
0
 10
61.338996887207031
 20
1652.2939453125
 42
0
  0
VERTEX
  8
0
 10
122.89179992675781
 20
1660.194580078125
 42
-0.045034736394882202
  0
VERTEX
  8
0
 10
124.68827056884766
 20
1660.26220703125
 42
0
  0
VERTEX
  8
0
 10
309.37759399414062
 20
1650.5830078125
 42
-0.057542957365512848
  0
SEQEND
  0
POLYLINE
  8
0
 10
0
 20
0
 39
0
 70
1
 66
1
  0
VERTEX
  8
0
 10
490.01382446289062
 20
1674.16162109375
 42
-1
  0
VERTEX
  8
0
 10
440.08236694335937
 20
1676.7784423828125
 42
-1
  0
SEQEND
  0
POLYLINE
  8
0
 10
0
 20
0
 39
0
 70
1
 66
1
  0
VERTEX
  8
0
 10
550.12841796875
 20
102.87899780273437
 42
-0
  0
VERTEX
  8
0
 10
415.3824462890625
 20
141.95835876464844
 42
1.2610832452774048
  0
VERTEX
  8
0
 10
408.55398559570312
 20
11.663381576538086
 42
0
  0
VERTEX
  8
0
 10
546.64666748046875
 20
36.443866729736328
 42
-0.057542923837900162
  0
VERTEX
  8
0
 10
548.93634033203125
 20
36.587387084960937
 42
-0
  0
VERTEX
  8
0
 10
733.62567138671875
 20
26.908229827880859
 42
-0.045034769922494888
  0
VERTEX
  8
0
 10
735.40521240234375
 20
26.653156280517578
 42
-0
  0
VERTEX
  8
0
 10
795.79498291015625
 20
12.361777305603027
 42
1.198412299156189
  0
VERTEX
  8
0
 10
800.4290771484375
 20
100.78607940673828
 42
0
  0
VERTEX
  8
0
 10
738.87628173828125
 20
92.885444641113281
 42
-0.045034736394882202
  0
VERTEX
  8
0
 10
737.079833984375
 20
92.817779541015625
 42
0
  0
VERTEX
  8
0
 10
552.3905029296875
 20
102.49693298339844
 42
-0.057542957365512848
  0
SEQEND
  0
POLYLINE
  8
0
 10
0
 20
0
 39
0
 70
1
 66
1
  0
VERTEX
  8
0
 10
371.75424194335937
 20
78.91839599609375
 42
-1
  0
VERTEX
  8
0
 10
421.68572998046875
 20
76.301597595214844
 42
-1
  0
SEQEND
  0
POLYLINE
  8
0
 10
0
 20
0
 39
0
 70
1
 66
1
  0
VERTEX
  8
0
 10
1227.801025390625
 20
1486.9984130859375
 42
-0
  0
VERTEX
  8
0
 10
1188.7216796875
 20
1352.25244140625
 42
1.2610832452774048
  0
VERTEX
  8
0
 10
1319.0166015625
 20
1345.4239501953125
 42
0
  0
VERTEX
  8
0
 10
1294.236083984375
 20
1483.5167236328125
 42
-0.057542923837900162
  0
VERTEX
  8
0
 10
1294.0926513671875
 20
1485.8062744140625
 42
-0
  0
VERTEX
  8
0
 10
1303.771728515625
 20
1670.49560546875
 42
-0.045034769922494888
  0
VERTEX
  8
0
 10
1304.02685546875
 20
1672.275146484375
 42
-0
  0
VERTEX
  8
0
 10
1318.3182373046875
 20
1732.6649169921875
 42
1.198412299156189
  0
VERTEX
  8
0
 10
1229.8939208984375
 20
1737.299072265625
 42
0
  0
VERTEX
  8
0
 10
1237.7945556640625
 20
1675.746337890625
 42
-0.045034736394882202
  0
VERTEX
  8
0
 10
1237.8621826171875
 20
1673.9498291015625
 42
0
  0
VERTEX
  8
0
 10
1228.18310546875
 20
1489.260498046875
 42
-0.057542957365512848
  0
SEQEND
  0
POLYLINE
  8
0
 10
0
 20
0
 39
0
 70
1
 66
1
  0
VERTEX
  8
0
 10
1251.7615966796875
 20
1308.624267578125
 42
-1
  0
VERTEX
  8
0
 10
1254.37841796875
 20
1358.5557861328125
 42
-1
  0
SEQEND
  0
POLYLINE
  8
0
 10
0
 20
0
 39
0
 70
1
 66
1
  0
VERTEX
  8
0
 10
2655.198486328125
 20
102.87899780273437
 42
-0
  0
VERTEX
  8
0
 10
2520.452392578125
 20
141.95835876464844
 42
1.2610832452774048
  0
VERTEX
  8
0
 10
2513.6240234375
 20
11.663381576538086
 42
0
  0
VERTEX
  8
0
 10
2651.716796875
 20
36.443866729736328
 42
-0.057542923837900162
  0
VERTEX
  8
0
 10
2654.00634765625
 20
36.587387084960937
 42
-0
  0
VERTEX
  8
0
 10
2838.695556640625
 20
26.908229827880859
 42
-0.045034769922494888
  0
VERTEX
  8
0
 10
2840.47509765625
 20
26.653156280517578
 42
-0
  0
VERTEX
  8
0
 10
2900.864990234375
 20
12.361777305603027
 42
1.198412299156189
  0
VERTEX
  8
0
 10
2905.4990234375
 20
100.78607940673828
 42
0
  0
VERTEX
  8
0
 10
2843.9462890625
 20
92.885444641113281
 42
-0.045034736394882202
  0
VERTEX
  8
0
 10
2842.14990234375
 20
92.817779541015625
 42
0
  0
VERTEX
  8
0
 10
2657.46044921875
 20
102.49693298339844
 42
-0.057542957365512848
  0
SEQEND
  0
POLYLINE
  8
0
 10
0
 20
0
 39
0
 70
1
 66
1
  0
VERTEX
  8
0
 10
2476.82421875
 20
78.91839599609375
 42
-1
  0
VERTEX
  8
0
 10
2526.755615234375
 20
76.301597595214844
 42
-1
  0
SEQEND
  0
POLYLINE
  8
0
 10
0
 20
0
 39
0
 70
1
 66
1
  0
VERTEX
  8
0
 10
3122.660888671875
 20
812.1484375
 42
-0
  0
VERTEX
  8
0
 10
3083.58154296875
 20
677.4024658203125
 42
1.2610832452774048
  0
VERTEX
  8
0
 10
3213.876708984375
 20
670.573974609375
 42
0
  0
VERTEX
  8
0
 10
3189.09619140625
 20
808.66668701171875
 42
-0.057542923837900162
  0
VERTEX
  8
0
 10
3188.95263671875
 20
810.956298828125
 42
-0
  0
VERTEX
  8
0
 10
3198.6318359375
 20
995.6456298828125
 42
-0.045034769922494888
  0
VERTEX
  8
0
 10
3198.88671875
 20
997.42523193359375
 42
-0
  0
VERTEX
  8
0
 10
3213.17822265625
 20
1057.81494140625
 42
1.198412299156189
  0
VERTEX
  8
0
 10
3124.75390625
 20
1062.4490966796875
 42
0
  0
VERTEX
  8
0
 10
3132.654541015625
 20
1000.8963012695312
 42
-0.045034736394882202
  0
VERTEX
  8
0
 10
3132.72216796875
 20
999.09979248046875
 42
0
  0
VERTEX
  8
0
 10
3123.04296875
 20
814.41046142578125
 42
-0.057542957365512848
  0
SEQEND
  0
POLYLINE
  8
0
 10
0
 20
0
 39
0
 70
1
 66
1
  0
VERTEX
  8
0
 10
3146.62158203125
 20
633.77423095703125
 42
-1
  0
VERTEX
  8
0
 10
3149.23828125
 20
683.70574951171875
 42
-1
  0
SEQEND
  0
POLYLINE
  8
0
 10
0
 20
0
 39
0
 70
1
 66
1
  0
VERTEX
  8
0
 10
3076.919921875
 20
1624.68994140625
 42
-0
  0
VERTEX
  8
0
 10
2996.919921875
 20
1719.68994140625
 42
0
  0
VERTEX
  8
0
 10
2916.919921875
 20
1719.68994140625
 42
0
  0
VERTEX
  8
0
 10
2916.919921875
 20
1289.68994140625
 42
0
  0
VERTEX
  8
0
 10
2996.919921875
 20
1289.68994140625
 42
-0
  0
VERTEX
  8
0
 10
3076.919921875
 20
1384.68994140625
 42
0
  0
SEQEND
  0
POLYLINE
  8
0
 10
0
 20
0
 39
0
 70
1
 66
1
  0
VERTEX
  8
0
 10
2956.919921875
 20
1544.68994140625
 42
-1
  0
VERTEX
  8
0
 10
3036.919921875
 20
1544.68994140625
 42
-0
  0
VERTEX
  8
0
 10
3036.919921875
 20
1464.68994140625
 42
-1
  0
VERTEX
  8
0
 10
2956.919921875
 20
1464.68994140625
 42
0
  0
SEQEND
  0
POLYLINE
  8
0
 10
0
 20
0
 39
0
 70
1
 66
1
  0
VERTEX
  8
0
 10
3087.530029296875
 20
1383.0400390625
 42
-0
  0
VERTEX
  8
0
 10
3167.530029296875
 20
1288.0400390625
 42
0
  0
VERTEX
  8
0
 10
3247.530029296875
 20
1288.0400390625
 42
0
  0
VERTEX
  8
0
 10
3247.530029296875
 20
1718.0400390625
 42
0
  0
VERTEX
  8
0
 10
3167.530029296875
 20
1718.0400390625
 42
-0
  0
VERTEX
  8
0
 10
3087.530029296875
 20
1623.0400390625
 42
0
  0
SEQEND
  0
POLYLINE
  8
0
 10
0
 20
0
 39
0
 70
1
 66
1
  0
VERTEX
  8
0
 10
3207.530029296875
 20
1463.0400390625
 42
-1
  0
VERTEX
  8
0
 10
3127.530029296875
 20
1463.0400390625
 42
-0
  0
VERTEX
  8
0
 10
3127.530029296875
 20
1543.0400390625
 42
-1
  0
VERTEX
  8
0
 10
3207.530029296875
 20
1543.0400390625
 42
0
  0
SEQEND
  0
POLYLINE
  8
0
 10
0
 20
0
 39
0
 70
1
 66
1
  0
VERTEX
  8
0
 10
3253.800048828125
 20
345.6099853515625
 42
-0
  0
VERTEX
  8
0
 10
3173.800048828125
 20
440.6099853515625
 42
0
  0
VERTEX
  8
0
 10
3093.800048828125
 20
440.6099853515625
 42
0
  0
VERTEX
  8
0
 10
3093.800048828125
 20
10.609999656677246
 42
0
  0
VERTEX
  8
0
 10
3173.800048828125
 20
10.609999656677246
 42
-0
  0
VERTEX
  8
0
 10
3253.800048828125
 20
105.61000061035156
 42
0
  0
SEQEND
  0
POLYLINE
  8
0
 10
0
 20
0
 39
0
 70
1
 66
1
  0
VERTEX
  8
0
 10
3133.800048828125
 20
265.6099853515625
 42
-1
  0
VERTEX
  8
0
 10
3213.800048828125
 20
265.6099853515625
 42
-0
  0
VERTEX
  8
0
 10
3213.800048828125
 20
185.61000061035156
 42
-1
  0
VERTEX
  8
0
 10
3133.800048828125
 20
185.61000061035156
 42
0
  0
SEQEND
  0
POLYLINE
  8
0
 10
0
 20
0
 39
0
 70
1
 66
1
  0
VERTEX
  8
0
 10
25.437183380126953
 20
1529.0567626953125
 42
-0
  0
VERTEX
  8
0
 10
97.711761474609375
 20
1470.530029296875
 42
-0
  0
VERTEX
  8
0
 10
143.0228271484375
 20
1526.4844970703125
 42
-0
  0
VERTEX
  8
0
 10
202.86306762695312
 20
1478.02685546875
 42
-0
  0
VERTEX
  8
0
 10
223.96006774902344
 20
1480.2442626953125
 42
-0
  0
VERTEX
  8
0
 10
269.90045166015625
 20
1536.975830078125
 42
-0
  0
VERTEX
  8
0
 10
192.18585205078125
 20
1599.907958984375
 42
-0
  0
VERTEX
  8
0
 10
50.67633056640625
 20
1600.142578125
 42
0.7073519229888916
  0
SEQEND
  0
POLYLINE
  8
0
 10
0
 20
0
 39
0
 70
1
 66
1
  0
VERTEX
  8
0
 10
37.009944915771484
 20
1571.15576171875
 42
-1
  0
VERTEX
  8
0
 10
64.210052490234375
 20
1549.1295166015625
 42
-1
  0
SEQEND
  0
POLYLINE
  8
0
 10
0
 20
0
 39
0
 70
1
 66
1
  0
VERTEX
  8
0
 10
758.9832763671875
 20
182.01583862304688
 42
-0
  0
VERTEX
  8
0
 10
686.70867919921875
 20
240.54263305664062
 42
-0
  0
VERTEX
  8
0
 10
641.39764404296875
 20
184.58811950683594
 42
-0
  0
VERTEX
  8
0
 10
581.557373046875
 20
233.04579162597656
 42
-0
  0
VERTEX
  8
0
 10
560.46038818359375
 20
230.82841491699219
 42
-0
  0
VERTEX
  8
0
 10
514.52001953125
 20
174.09675598144531
 42
-0
  0
VERTEX
  8
0
 10
592.234619140625
 20
111.16471862792969
 42
-0
  0
VERTEX
  8
0
 10
733.744140625
 20
110.9300537109375
 42
0.7073519229888916
  0
SEQEND
  0
POLYLINE
  8
0
 10
0
 20
0
 39
0
 70
1
 66
1
  0
VERTEX
  8
0
 10
747.4105224609375
 20
139.91690063476562
 42
-1
  0
VERTEX
  8
0
 10
720.21038818359375
 20
161.943115234375
 42
-1
  0
SEQEND
  0
POLYLINE
  8
0
 10
0
 20
0
 39
0
 70
1
 66
1
  0
VERTEX
  8
0
 10
1034.716796875
 20
1759.873291015625
 42
-0
  0
VERTEX
  8
0
 10
976.19000244140625
 20
1687.5986328125
 42
-0
  0
VERTEX
  8
0
 10
1032.14453125
 20
1642.28759765625
 42
-0
  0
VERTEX
  8
0
 10
983.68682861328125
 20
1582.4473876953125
 42
-0
  0
VERTEX
  8
0
 10
985.90423583984375
 20
1561.350341796875
 42
-0
  0
VERTEX
  8
0
 10
1042.6358642578125
 20
1515.4100341796875
 42
-0
  0
VERTEX
  8
0
 10
1105.56787109375
 20
1593.1246337890625
 42
-0
  0
VERTEX
  8
0
 10
1105.8026123046875
 20
1734.6341552734375
 42
0.7073519229888916
  0
SEQEND
  0
POLYLINE
  8
0
 10
0
 20
0
 39
0
 70
1
 66
1
  0
VERTEX
  8
0
 10
1076.8157958984375
 20
1748.300537109375
 42
-1
  0
VERTEX
  8
0
 10
1054.78955078125
 20
1721.100341796875
 42
-1
  0
SEQEND
  0
POLYLINE
  8
0
 10
0
 20
0
 39
0
 70
1
 66
1
  0
VERTEX
  8
0
 10
2179.15673828125
 20
350.11328125
 42
-0
  0
VERTEX
  8
0
 10
2120.6298828125
 20
277.83868408203125
 42
-0
  0
VERTEX
  8
0
 10
2176.58447265625
 20
232.52761840820312
 42
-0
  0
VERTEX
  8
0
 10
2128.126953125
 20
172.6873779296875
 42
-0
  0
VERTEX
  8
0
 10
2130.34423828125
 20
151.59039306640625
 42
-0
  0
VERTEX
  8
0
 10
2187.075927734375
 20
105.65000152587891
 42
-0
  0
VERTEX
  8
0
 10
2250.0078125
 20
183.36459350585937
 42
-0
  0
VERTEX
  8
0
 10
2250.24267578125
 20
324.87411499023437
 42
0.7073519229888916
  0
SEQEND
  0
POLYLINE
  8
0
 10
0
 20
0
 39
0
 70
1
 66
1
  0
VERTEX
  8
0
 10
2221.255859375
 20
338.54049682617188
 42
-1
  0
VERTEX
  8
0
 10
2199.2294921875
 20
311.34039306640625
 42
-1
  0
SEQEND
  0
POLYLINE
  8
0
 10
0
 20
0
 39
0
 70
1
 66
1
  0
VERTEX
  8
0
 10
2257.69677734375
 20
796.27325439453125
 42
-0
  0
VERTEX
  8
0
 10
2199.169921875
 20
723.99871826171875
 42
-0
  0
VERTEX
  8
0
 10
2255.12451171875
 20
678.6876220703125
 42
-0
  0
VERTEX
  8
0
 10
2206.666748046875
 20
618.847412109375
 42
-0
  0
VERTEX
  8
0
 10
2208.88427734375
 20
597.7503662109375
 42
-0
  0
VERTEX
  8
0
 10
2265.615966796875
 20
551.80999755859375
 42
-0
  0
VERTEX
  8
0
 10
2328.5478515625
 20
629.52459716796875
 42
-0
  0
VERTEX
  8
0
 10
2328.782470703125
 20
771.03411865234375
 42
0.7073519229888916
  0
SEQEND
  0
POLYLINE
  8
0
 10
0
 20
0
 39
0
 70
1
 66
1
  0
VERTEX
  8
0
 10
2299.795654296875
 20
784.70050048828125
 42
-1
  0
VERTEX
  8
0
 10
2277.76953125
 20
757.50042724609375
 42
-1
  0
SEQEND
  0
POLYLINE
  8
0
 10
0
 20
0
 39
0
 70
1
 66
1
  0
VERTEX
  8
0
 10
2331.94677734375
 20
1243.4232177734375
 42
-0
  0
VERTEX
  8
0
 10
2273.419921875
 20
1171.148681640625
 42
-0
  0
VERTEX
  8
0
 10
2329.37451171875
 20
1125.837646484375
 42
-0
  0
VERTEX
  8
0
 10
2280.916748046875
 20
1065.9974365234375
 42
-0
  0
VERTEX
  8
0
 10
2283.13427734375
 20
1044.900390625
 42
-0
  0
VERTEX
  8
0
 10
2339.865966796875
 20
998.96002197265625
 42
-0
  0
VERTEX
  8
0
 10
2402.7978515625
 20
1076.674560546875
 42
-0
  0
VERTEX
  8
0
 10
2403.032470703125
 20
1218.18408203125
 42
0.7073519229888916
  0
SEQEND
  0
POLYLINE
  8
0
 10
0
 20
0
 39
0
 70
1
 66
1
  0
VERTEX
  8
0
 10
2374.045654296875
 20
1231.8504638671875
 42
-1
  0
VERTEX
  8
0
 10
2352.01953125
 20
1204.650390625
 42
-1
  0
SEQEND
  0
POLYLINE
  8
0
 10
0
 20
0
 39
0
 70
1
 66
1
  0
VERTEX
  8
0
 10
2424.016845703125
 20
1686.9432373046875
 42
-0
  0
VERTEX
  8
0
 10
2365.489990234375
 20
1614.668701171875
 42
-0
  0
VERTEX
  8
0
 10
2421.444580078125
 20
1569.357666015625
 42
-0
  0
VERTEX
  8
0
 10
2372.98681640625
 20
1509.517333984375
 42
-0
  0
VERTEX
  8
0
 10
2375.204345703125
 20
1488.42041015625
 42
-0
  0
VERTEX
  8
0
 10
2431.935791015625
 20
1442.47998046875
 42
-0
  0
VERTEX
  8
0
 10
2494.867919921875
 20
1520.194580078125
 42
-0
  0
VERTEX
  8
0
 10
2495.1025390625
 20
1661.7041015625
 42
0.7073519229888916
  0
SEQEND
  0
POLYLINE
  8
0
 10
0
 20
0
 39
0
 70
1
 66
1
  0
VERTEX
  8
0
 10
2466.11572265625
 20
1675.3704833984375
 42
-1
  0
VERTEX
  8
0
 10
2444.089599609375
 20
1648.17041015625
 42
-1
  0
SEQEND
  0
POLYLINE
  8
0
 10
0
 20
0
 39
0
 70
1
 66
1
  0
VERTEX
  8
0
 10
2604.856689453125
 20
504.88327026367187
 42
-0
  0
VERTEX
  8
0
 10
2546.330078125
 20
432.60870361328125
 42
-0
  0
VERTEX
  8
0
 10
2602.284423828125
 20
387.29763793945312
 42
-0
  0
VERTEX
  8
0
 10
2553.826904296875
 20
327.4573974609375
 42
-0
  0
VERTEX
  8
0
 10
2556.044189453125
 20
306.36038208007812
 42
-0
  0
VERTEX
  8
0
 10
2612.77587890625
 20
260.42001342773437
 42
-0
  0
VERTEX
  8
0
 10
2675.7080078125
 20
338.13461303710937
 42
-0
  0
VERTEX
  8
0
 10
2675.942626953125
 20
479.64413452148437
 42
0.7073519229888916
  0
SEQEND
  0
POLYLINE
  8
0
 10
0
 20
0
 39
0
 70
1
 66
1
  0
VERTEX
  8
0
 10
2646.955810546875
 20
493.31051635742187
 42
-1
  0
VERTEX
  8
0
 10
2624.929443359375
 20
466.11041259765625
 42
-1
  0
SEQEND
  0
POLYLINE
  8
0
 10
0
 20
0
 39
0
 70
1
 66
1
  0
VERTEX
  8
0
 10
2681.746826171875
 20
955.66326904296875
 42
-0
  0
VERTEX
  8
0
 10
2623.219970703125
 20
883.388671875
 42
-0
  0
VERTEX
  8
0
 10
2679.174560546875
 20
838.07763671875
 42
-0
  0
VERTEX
  8
0
 10
2630.716796875
 20
778.23736572265625
 42
-0
  0
VERTEX
  8
0
 10
2632.934326171875
 20
757.140380859375
 42
-0
  0
VERTEX
  8
0
 10
2689.665771484375
 20
711.20001220703125
 42
-0
  0
VERTEX
  8
0
 10
2752.597900390625
 20
788.91461181640625
 42
-0
  0
VERTEX
  8
0
 10
2752.83251953125
 20
930.42413330078125
 42
0.7073519229888916
  0
SEQEND
  0
POLYLINE
  8
0
 10
0
 20
0
 39
0
 70
1
 66
1
  0
VERTEX
  8
0
 10
2723.845703125
 20
944.09051513671875
 42
-1
  0
VERTEX
  8
0
 10
2701.819580078125
 20
916.890380859375
 42
-1
  0
SEQEND
  0
POLYLINE
  8
0
 10
0
 20
0
 39
0
 70
1
 66
1
  0
VERTEX
  8
0
 10
3028.246826171875
 20
976.78326416015625
 42
-0
  0
VERTEX
  8
0
 10
2969.719970703125
 20
904.5086669921875
 42
-0
  0
VERTEX
  8
0
 10
3025.674560546875
 20
859.1976318359375
 42
-0
  0
VERTEX
  8
0
 10
2977.216796875
 20
799.35736083984375
 42
-0
  0
VERTEX
  8
0
 10
2979.434326171875
 20
778.2603759765625
 42
-0
  0
VERTEX
  8
0
 10
3036.165771484375
 20
732.32000732421875
 42
-0
  0
VERTEX
  8
0
 10
3099.097900390625
 20
810.03460693359375
 42
-0
  0
VERTEX
  8
0
 10
3099.33251953125
 20
951.54412841796875
 42
0.7073519229888916
  0
SEQEND
  0
POLYLINE
  8
0
 10
0
 20
0
 39
0
 70
1
 66
1
  0
VERTEX
  8
0
 10
3070.345703125
 20
965.21051025390625
 42
-1
  0
VERTEX
  8
0
 10
3048.319580078125
 20
938.0103759765625
 42
-1
  0
SEQEND
  0
POLYLINE
  8
0
 10
0
 20
0
 39
0
 70
1
 66
1
  0
VERTEX
  8
0
 10
1286.5068359375
 20
996.627197265625
 42
0.7073519229888916
  0
VERTEX
  8
0
 10
1357.592529296875
 20
1021.8663330078125
 42
-0
  0
VERTEX
  8
0
 10
1357.35791015625
 20
1163.3758544921875
 42
-0
  0
VERTEX
  8
0
 10
1294.4259033203125
 20
1241.0904541015625
 42
-0
  0
VERTEX
  8
0
 10
1237.6942138671875
 20
1195.1500244140625
 42
-0
  0
VERTEX
  8
0
 10
1235.476806640625
 20
1174.0531005859375
 42
-0
  0
VERTEX
  8
0
 10
1283.9345703125
 20
1114.2127685546875
 42
-0
  0
VERTEX
  8
0
 10
1227.97998046875
 20
1068.9017333984375
 42
-0
  0
SEQEND
  0
POLYLINE
  8
0
 10
0
 20
0
 39
0
 70
1
 66
1
  0
VERTEX
  8
0
 10
1328.605712890625
 20
1008.199951171875
 42
-1
  0
VERTEX
  8
0
 10
1306.5794677734375
 20
1035.4000244140625
 42
-1
  0
SEQEND
  0
POLYLINE
  8
0
 10
0
 20
0
 39
0
 70
1
 66
1
  0
VERTEX
  8
0
 10
336.1300048828125
 20
1452.050048828125
 42
0
  0
VERTEX
  8
0
 10
336.1300048828125
 20
1612.050048828125
 42
-0
  0
VERTEX
  8
0
 10
256.1300048828125
 20
1612.050048828125
 42
-0
  0
VERTEX
  8
0
 10
256.1300048828125
 20
1562.050048828125
 42
-1
  0
VERTEX
  8
0
 10
256.1300048828125
 20
1502.050048828125
 42
0
  0
VERTEX
  8
0
 10
256.1300048828125
 20
1452.050048828125
 42
0
  0
SEQEND
  0
POLYLINE
  8
0
 10
0
 20
0
 39
0
 70
1
 66
1
  0
VERTEX
  8
0
 10
1196.1099853515625
 20
1518.7099609375
 42
0
  0
VERTEX
  8
0
 10
1196.1099853515625
 20
1678.7099609375
 42
-0
  0
VERTEX
  8
0
 10
1116.1099853515625
 20
1678.7099609375
 42
-0
  0
VERTEX
  8
0
 10
1116.1099853515625
 20
1628.7099609375
 42
-1
  0
VERTEX
  8
0
 10
1116.1099853515625
 20
1568.7099609375
 42
0
  0
VERTEX
  8
0
 10
1116.1099853515625
 20
1518.7099609375
 42
0
  0
SEQEND
  0
POLYLINE
  8
0
 10
0
 20
0
 39
0
 70
1
 66
1
  0
VERTEX
  8
0
 10
1493.1099853515625
 20
10.609999656677246
 42
0
  0
VERTEX
  8
0
 10
1493.1099853515625
 20
170.61000061035156
 42
-0
  0
VERTEX
  8
0
 10
1413.1099853515625
 20
170.61000061035156
 42
-0
  0
VERTEX
  8
0
 10
1413.1099853515625
 20
120.61000061035156
 42
-1
  0
VERTEX
  8
0
 10
1413.1099853515625
 20
60.610000610351563
 42
0
  0
VERTEX
  8
0
 10
1413.1099853515625
 20
10.609999656677246
 42
0
  0
SEQEND
  0
POLYLINE
  8
0
 10
0
 20
0
 39
0
 70
1
 66
1
  0
VERTEX
  8
0
 10
1493.1099853515625
 20
180.88999938964844
 42
0
  0
VERTEX
  8
0
 10
1493.1099853515625
 20
340.8900146484375
 42
-0
  0
VERTEX
  8
0
 10
1413.1099853515625
 20
340.8900146484375
 42
-0
  0
VERTEX
  8
0
 10
1413.1099853515625
 20
290.8900146484375
 42
-1
  0
VERTEX
  8
0
 10
1413.1099853515625
 20
230.88999938964844
 42
0
  0
VERTEX
  8
0
 10
1413.1099853515625
 20
180.88999938964844
 42
0
  0
SEQEND
  0
POLYLINE
  8
0
 10
0
 20
0
 39
0
 70
1
 66
1
  0
VERTEX
  8
0
 10
1493.1099853515625
 20
555.77001953125
 42
0
  0
VERTEX
  8
0
 10
1493.1099853515625
 20
715.77001953125
 42
-0
  0
VERTEX
  8
0
 10
1413.1099853515625
 20
715.77001953125
 42
-0
  0
VERTEX
  8
0
 10
1413.1099853515625
 20
665.77001953125
 42
-1
  0
VERTEX
  8
0
 10
1413.1099853515625
 20
605.77001953125
 42
0
  0
VERTEX
  8
0
 10
1413.1099853515625
 20
555.77001953125
 42
0
  0
SEQEND
  0
POLYLINE
  8
0
 10
0
 20
0
 39
0
 70
1
 66
1
  0
VERTEX
  8
0
 10
1645.9000244140625
 20
960.67999267578125
 42
0
  0
VERTEX
  8
0
 10
1645.9000244140625
 20
1120.6800537109375
 42
-0
  0
VERTEX
  8
0
 10
1565.9000244140625
 20
1120.6800537109375
 42
-0
  0
VERTEX
  8
0
 10
1565.9000244140625
 20
1070.6800537109375
 42
-1
  0
VERTEX
  8
0
 10
1565.9000244140625
 20
1010.6799926757812
 42
0
  0
VERTEX
  8
0
 10
1565.9000244140625
 20
960.67999267578125
 42
0
  0
SEQEND
  0
POLYLINE
  8
0
 10
0
 20
0
 39
0
 70
1
 66
1
  0
VERTEX
  8
0
 10
1645.9000244140625
 20
1393.969970703125
 42
0
  0
VERTEX
  8
0
 10
1645.9000244140625
 20
1553.969970703125
 42
-0
  0
VERTEX
  8
0
 10
1565.9000244140625
 20
1553.969970703125
 42
-0
  0
VERTEX
  8
0
 10
1565.9000244140625
 20
1503.969970703125
 42
-1
  0
VERTEX
  8
0
 10
1565.9000244140625
 20
1443.969970703125
 42
0
  0
VERTEX
  8
0
 10
1565.9000244140625
 20
1393.969970703125
 42
0
  0
SEQEND
  0
POLYLINE
  8
0
 10
0
 20
0
 39
0
 70
1
 66
1
  0
VERTEX
  8
0
 10
1645.9000244140625
 20
1564.25
 42
0
  0
VERTEX
  8
0
 10
1645.9000244140625
 20
1724.25
 42
-0
  0
VERTEX
  8
0
 10
1565.9000244140625
 20
1724.25
 42
-0
  0
VERTEX
  8
0
 10
1565.9000244140625
 20
1674.25
 42
-1
  0
VERTEX
  8
0
 10
1565.9000244140625
 20
1614.25
 42
0
  0
VERTEX
  8
0
 10
1565.9000244140625
 20
1564.25
 42
0
  0
SEQEND
  0
POLYLINE
  8
0
 10
0
 20
0
 39
0
 70
1
 66
1
  0
VERTEX
  8
0
 10
1798.68994140625
 20
10.609999656677246
 42
0
  0
VERTEX
  8
0
 10
1798.68994140625
 20
170.61000061035156
 42
-0
  0
VERTEX
  8
0
 10
1718.68994140625
 20
170.61000061035156
 42
-0
  0
VERTEX
  8
0
 10
1718.68994140625
 20
120.61000061035156
 42
-1
  0
VERTEX
  8
0
 10
1718.68994140625
 20
60.610000610351563
 42
0
  0
VERTEX
  8
0
 10
1718.68994140625
 20
10.609999656677246
 42
0
  0
SEQEND
  0
POLYLINE
  8
0
 10
0
 20
0
 39
0
 70
1
 66
1
  0
VERTEX
  8
0
 10
1798.68994140625
 20
180.88999938964844
 42
0
  0
VERTEX
  8
0
 10
1798.68994140625
 20
340.8900146484375
 42
-0
  0
VERTEX
  8
0
 10
1718.68994140625
 20
340.8900146484375
 42
-0
  0
VERTEX
  8
0
 10
1718.68994140625
 20
290.8900146484375
 42
-1
  0
VERTEX
  8
0
 10
1718.68994140625
 20
230.88999938964844
 42
0
  0
VERTEX
  8
0
 10
1718.68994140625
 20
180.88999938964844
 42
0
  0
SEQEND
  0
POLYLINE
  8
0
 10
0
 20
0
 39
0
 70
1
 66
1
  0
VERTEX
  8
0
 10
1798.68994140625
 20
555.77001953125
 42
0
  0
VERTEX
  8
0
 10
1798.68994140625
 20
715.77001953125
 42
-0
  0
VERTEX
  8
0
 10
1718.68994140625
 20
715.77001953125
 42
-0
  0
VERTEX
  8
0
 10
1718.68994140625
 20
665.77001953125
 42
-1
  0
VERTEX
  8
0
 10
1718.68994140625
 20
605.77001953125
 42
0
  0
VERTEX
  8
0
 10
1718.68994140625
 20
555.77001953125
 42
0
  0
SEQEND
  0
POLYLINE
  8
0
 10
0
 20
0
 39
0
 70
1
 66
1
  0
VERTEX
  8
0
 10
1951.47998046875
 20
960.67999267578125
 42
0
  0
VERTEX
  8
0
 10
1951.47998046875
 20
1120.6800537109375
 42
-0
  0
VERTEX
  8
0
 10
1871.47998046875
 20
1120.6800537109375
 42
-0
  0
VERTEX
  8
0
 10
1871.47998046875
 20
1070.6800537109375
 42
-1
  0
VERTEX
  8
0
 10
1871.47998046875
 20
1010.6799926757812
 42
0
  0
VERTEX
  8
0
 10
1871.47998046875
 20
960.67999267578125
 42
0
  0
SEQEND
  0
POLYLINE
  8
0
 10
0
 20
0
 39
0
 70
1
 66
1
  0
VERTEX
  8
0
 10
1951.47998046875
 20
1393.969970703125
 42
0
  0
VERTEX
  8
0
 10
1951.47998046875
 20
1553.969970703125
 42
-0
  0
VERTEX
  8
0
 10
1871.47998046875
 20
1553.969970703125
 42
-0
  0
VERTEX
  8
0
 10
1871.47998046875
 20
1503.969970703125
 42
-1
  0
VERTEX
  8
0
 10
1871.47998046875
 20
1443.969970703125
 42
0
  0
VERTEX
  8
0
 10
1871.47998046875
 20
1393.969970703125
 42
0
  0
SEQEND
  0
POLYLINE
  8
0
 10
0
 20
0
 39
0
 70
1
 66
1
  0
VERTEX
  8
0
 10
1951.47998046875
 20
1564.25
 42
0
  0
VERTEX
  8
0
 10
1951.47998046875
 20
1724.25
 42
-0
  0
VERTEX
  8
0
 10
1871.47998046875
 20
1724.25
 42
-0
  0
VERTEX
  8
0
 10
1871.47998046875
 20
1674.25
 42
-1
  0
VERTEX
  8
0
 10
1871.47998046875
 20
1614.25
 42
0
  0
VERTEX
  8
0
 10
1871.47998046875
 20
1564.25
 42
0
  0
SEQEND
  0
POLYLINE
  8
0
 10
0
 20
0
 39
0
 70
1
 66
1
  0
VERTEX
  8
0
 10
2104.27001953125
 20
415.85000610351562
 42
0
  0
VERTEX
  8
0
 10
2104.27001953125
 20
575.8499755859375
 42
-0
  0
VERTEX
  8
0
 10
2024.27001953125
 20
575.8499755859375
 42
-0
  0
VERTEX
  8
0
 10
2024.27001953125
 20
525.8499755859375
 42
-1
  0
VERTEX
  8
0
 10
2024.27001953125
 20
465.85000610351562
 42
0
  0
VERTEX
  8
0
 10
2024.27001953125
 20
415.85000610351562
 42
0
  0
SEQEND
  0
POLYLINE
  8
0
 10
0
 20
0
 39
0
 70
1
 66
1
  0
VERTEX
  8
0
 10
2257.06005859375
 20
1309.1600341796875
 42
0
  0
VERTEX
  8
0
 10
2257.06005859375
 20
1469.1600341796875
 42
-0
  0
VERTEX
  8
0
 10
2177.06005859375
 20
1469.1600341796875
 42
-0
  0
VERTEX
  8
0
 10
2177.06005859375
 20
1419.1600341796875
 42
-1
  0
VERTEX
  8
0
 10
2177.06005859375
 20
1359.1600341796875
 42
0
  0
VERTEX
  8
0
 10
2177.06005859375
 20
1309.1600341796875
 42
0
  0
SEQEND
  0
POLYLINE
  8
0
 10
0
 20
0
 39
0
 70
1
 66
1
  0
VERTEX
  8
0
 10
2257.06005859375
 20
1479.43994140625
 42
0
  0
VERTEX
  8
0
 10
2257.06005859375
 20
1639.43994140625
 42
-0
  0
VERTEX
  8
0
 10
2177.06005859375
 20
1639.43994140625
 42
-0
  0
VERTEX
  8
0
 10
2177.06005859375
 20
1589.43994140625
 42
-1
  0
VERTEX
  8
0
 10
2177.06005859375
 20
1529.43994140625
 42
0
  0
VERTEX
  8
0
 10
2177.06005859375
 20
1479.43994140625
 42
0
  0
SEQEND
  0
POLYLINE
  8
0
 10
0
 20
0
 39
0
 70
1
 66
1
  0
VERTEX
  8
0
 10
2340.550048828125
 20
128.75
 42
0
  0
VERTEX
  8
0
 10
2340.550048828125
 20
288.75
 42
-0
  0
VERTEX
  8
0
 10
2260.550048828125
 20
288.75
 42
-0
  0
VERTEX
  8
0
 10
2260.550048828125
 20
238.75
 42
-1
  0
VERTEX
  8
0
 10
2260.550048828125
 20
178.75
 42
0
  0
VERTEX
  8
0
 10
2260.550048828125
 20
128.75
 42
0
  0
SEQEND
  0
POLYLINE
  8
0
 10
0
 20
0
 39
0
 70
1
 66
1
  0
VERTEX
  8
0
 10
2419.090087890625
 20
574.90997314453125
 42
0
  0
VERTEX
  8
0
 10
2419.090087890625
 20
734.90997314453125
 42
-0
  0
VERTEX
  8
0
 10
2339.090087890625
 20
734.90997314453125
 42
-0
  0
VERTEX
  8
0
 10
2339.090087890625
 20
684.90997314453125
 42
-1
  0
VERTEX
  8
0
 10
2339.090087890625
 20
624.90997314453125
 42
0
  0
VERTEX
  8
0
 10
2339.090087890625
 20
574.90997314453125
 42
0
  0
SEQEND
  0
POLYLINE
  8
0
 10
0
 20
0
 39
0
 70
1
 66
1
  0
VERTEX
  8
0
 10
2493.340087890625
 20
1022.0599975585937
 42
0
  0
VERTEX
  8
0
 10
2493.340087890625
 20
1182.06005859375
 42
-0
  0
VERTEX
  8
0
 10
2413.340087890625
 20
1182.06005859375
 42
-0
  0
VERTEX
  8
0
 10
2413.340087890625
 20
1132.06005859375
 42
-1
  0
VERTEX
  8
0
 10
2413.340087890625
 20
1072.06005859375
 42
0
  0
VERTEX
  8
0
 10
2413.340087890625
 20
1022.0599975585937
 42
0
  0
SEQEND
  0
POLYLINE
  8
0
 10
0
 20
0
 39
0
 70
1
 66
1
  0
VERTEX
  8
0
 10
2585.409912109375
 20
1465.5799560546875
 42
0
  0
VERTEX
  8
0
 10
2585.409912109375
 20
1625.5799560546875
 42
-0
  0
VERTEX
  8
0
 10
2505.409912109375
 20
1625.5799560546875
 42
-0
  0
VERTEX
  8
0
 10
2505.409912109375
 20
1575.5799560546875
 42
-1
  0
VERTEX
  8
0
 10
2505.409912109375
 20
1515.5799560546875
 42
0
  0
VERTEX
  8
0
 10
2505.409912109375
 20
1465.5799560546875
 42
0
  0
SEQEND
  0
POLYLINE
  8
0
 10
0
 20
0
 39
0
 70
1
 66
1
  0
VERTEX
  8
0
 10
2766.25
 20
283.51998901367187
 42
0
  0
VERTEX
  8
0
 10
2766.25
 20
443.51998901367187
 42
-0
  0
VERTEX
  8
0
 10
2686.25
 20
443.51998901367187
 42
-0
  0
VERTEX
  8
0
 10
2686.25
 20
393.51998901367187
 42
-1
  0
VERTEX
  8
0
 10
2686.25
 20
333.51998901367187
 42
0
  0
VERTEX
  8
0
 10
2686.25
 20
283.51998901367187
 42
0
  0
SEQEND
  0
POLYLINE
  8
0
 10
0
 20
0
 39
0
 70
1
 66
1
  0
VERTEX
  8
0
 10
2664.800048828125
 20
1093.6700439453125
 42
0
  0
VERTEX
  8
0
 10
2824.800048828125
 20
1093.6700439453125
 42
-0
  0
VERTEX
  8
0
 10
2824.800048828125
 20
1173.6700439453125
 42
-0
  0
VERTEX
  8
0
 10
2774.800048828125
 20
1173.6700439453125
 42
-1
  0
VERTEX
  8
0
 10
2714.800048828125
 20
1173.6700439453125
 42
0
  0
VERTEX
  8
0
 10
2664.800048828125
 20
1173.6700439453125
 42
0
  0
SEQEND
  0
POLYLINE
  8
0
 10
0
 20
0
 39
0
 70
1
 66
1
  0
VERTEX
  8
0
 10
2843.139892578125
 20
734.29998779296875
 42
0
  0
VERTEX
  8
0
 10
2843.139892578125
 20
894.29998779296875
 42
-0
  0
VERTEX
  8
0
 10
2763.139892578125
 20
894.29998779296875
 42
-0
  0
VERTEX
  8
0
 10
2763.139892578125
 20
844.29998779296875
 42
-1
  0
VERTEX
  8
0
 10
2763.139892578125
 20
784.29998779296875
 42
0
  0
VERTEX
  8
0
 10
2763.139892578125
 20
734.29998779296875
 42
0
  0
SEQEND
  0
POLYLINE
  8
0
 10
0
 20
0
 39
0
 70
1
 66
1
  0
VERTEX
  8
0
 10
2863.60009765625
 20
1340.510009765625
 42
0
  0
VERTEX
  8
0
 10
2863.60009765625
 20
1500.510009765625
 42
-0
  0
VERTEX
  8
0
 10
2783.60009765625
 20
1500.510009765625
 42
-0
  0
VERTEX
  8
0
 10
2783.60009765625
 20
1450.510009765625
 42
-1
  0
VERTEX
  8
0
 10
2783.60009765625
 20
1390.510009765625
 42
0
  0
VERTEX
  8
0
 10
2783.60009765625
 20
1340.510009765625
 42
0
  0
SEQEND
  0
POLYLINE
  8
0
 10
0
 20
0
 39
0
 70
1
 66
1
  0
VERTEX
  8
0
 10
2863.60009765625
 20
1510.7900390625
 42
0
  0
VERTEX
  8
0
 10
2863.60009765625
 20
1670.7900390625
 42
-0
  0
VERTEX
  8
0
 10
2783.60009765625
 20
1670.7900390625
 42
-0
  0
VERTEX
  8
0
 10
2783.60009765625
 20
1620.7900390625
 42
-1
  0
VERTEX
  8
0
 10
2783.60009765625
 20
1560.7900390625
 42
0
  0
VERTEX
  8
0
 10
2783.60009765625
 20
1510.7900390625
 42
0
  0
SEQEND
  0
POLYLINE
  8
0
 10
0
 20
0
 39
0
 70
1
 66
1
  0
VERTEX
  8
0
 10
2835.409912109375
 20
1093.6700439453125
 42
0
  0
VERTEX
  8
0
 10
2995.409912109375
 20
1093.6700439453125
 42
-0
  0
VERTEX
  8
0
 10
2995.409912109375
 20
1173.6700439453125
 42
-0
  0
VERTEX
  8
0
 10
2945.409912109375
 20
1173.6700439453125
 42
-1
  0
VERTEX
  8
0
 10
2885.409912109375
 20
1173.6700439453125
 42
0
  0
VERTEX
  8
0
 10
2835.409912109375
 20
1173.6700439453125
 42
0
  0
SEQEND
  0
POLYLINE
  8
0
 10
0
 20
0
 39
0
 70
1
 66
1
  0
VERTEX
  8
0
 10
3040.47998046875
 20
166.3699951171875
 42
0
  0
VERTEX
  8
0
 10
3040.47998046875
 20
326.3699951171875
 42
-0
  0
VERTEX
  8
0
 10
2960.47998046875
 20
326.3699951171875
 42
-0
  0
VERTEX
  8
0
 10
2960.47998046875
 20
276.3699951171875
 42
-1
  0
VERTEX
  8
0
 10
2960.47998046875
 20
216.3699951171875
 42
0
  0
VERTEX
  8
0
 10
2960.47998046875
 20
166.3699951171875
 42
0
  0
SEQEND
  0
POLYLINE
  8
0
 10
0
 20
0
 39
0
 70
1
 66
1
  0
VERTEX
  8
0
 10
3040.47998046875
 20
336.64999389648437
 42
0
  0
VERTEX
  8
0
 10
3040.47998046875
 20
496.64999389648437
 42
-0
  0
VERTEX
  8
0
 10
2960.47998046875
 20
496.64999389648437
 42
-0
  0
VERTEX
  8
0
 10
2960.47998046875
 20
446.64999389648437
 42
-1
  0
VERTEX
  8
0
 10
2960.47998046875
 20
386.64999389648437
 42
0
  0
VERTEX
  8
0
 10
2960.47998046875
 20
336.64999389648437
 42
0
  0
SEQEND
  0
POLYLINE
  8
0
 10
0
 20
0
 39
0
 70
1
 66
1
  0
VERTEX
  8
0
 10
3093.800048828125
 20
450.82998657226562
 42
0
  0
VERTEX
  8
0
 10
3253.800048828125
 20
450.82998657226562
 42
-0
  0
VERTEX
  8
0
 10
3253.800048828125
 20
530.83001708984375
 42
-0
  0
VERTEX
  8
0
 10
3203.800048828125
 20
530.83001708984375
 42
-1
  0
VERTEX
  8
0
 10
3143.800048828125
 20
530.83001708984375
 42
0
  0
VERTEX
  8
0
 10
3093.800048828125
 20
530.83001708984375
 42
0
  0
SEQEND
  0
POLYLINE
  8
0
 10
0
 20
0
 39
0
 70
1
 66
1
  0
VERTEX
  8
0
 10
3275.43994140625
 20
1117.760009765625
 42
0
  0
VERTEX
  8
0
 10
3275.43994140625
 20
1277.760009765625
 42
-0
  0
VERTEX
  8
0
 10
3195.43994140625
 20
1277.760009765625
 42
-0
  0
VERTEX
  8
0
 10
3195.43994140625
 20
1227.760009765625
 42
-1
  0
VERTEX
  8
0
 10
3195.43994140625
 20
1167.760009765625
 42
0
  0
VERTEX
  8
0
 10
3195.43994140625
 20
1117.760009765625
 42
0
  0
SEQEND
  0
POLYLINE
  8
0
 10
0
 20
0
 39
0
 70
1
 66
1
  0
VERTEX
  8
0
 10
3286
 20
775.219970703125
 42
0
  0
VERTEX
  8
0
 10
3286
 20
935.219970703125
 42
-0
  0
VERTEX
  8
0
 10
3206
 20
935.219970703125
 42
-0
  0
VERTEX
  8
0
 10
3206
 20
885.219970703125
 42
-1
  0
VERTEX
  8
0
 10
3206
 20
825.219970703125
 42
0
  0
VERTEX
  8
0
 10
3206
 20
775.219970703125
 42
0
  0
SEQEND
  0
ENDSEC
  0
EOF
