  0
SECTION
  2
ENTITIES
  0
POLYLINE
  8
0
 10
0
 20
0
 39
0
 70
1
 66
1
  0
VERTEX
  8
0
 10
0
 20
0
 42
-0
  0
VERTEX
  8
0
 10
6000
 20
0
 42
-0
  0
VERTEX
  8
0
 10
6000
 20
1500
 42
-0
  0
VERTEX
  8
0
 10
0
 20
1500
 42
-0
  0
SEQEND
  0
POLYLINE
  8
0
 10
0
 20
0
 39
0
 70
1
 66
1
  0
VERTEX
  8
0
 10
586.808837890625
 20
26.12042236328125
 42
-0
  0
VERTEX
  8
0
 10
956.050048828125
 20
126.05020141601562
 42
-0
  0
VERTEX
  8
0
 10
1006.0499877929687
 20
226.05023193359375
 42
-0
  0
VERTEX
  8
0
 10
1006.0499877929687
 20
241.05023193359375
 42
-0
  0
VERTEX
  8
0
 10
871.04998779296875
 20
241.05018615722656
 42
-0
  0
VERTEX
  8
0
 10
649.00390625
 20
361.13577270507812
 42
0.25308701395988464
  0
VERTEX
  8
0
 10
373.095947265625
 20
361.13565063476562
 42
-0
  0
VERTEX
  8
0
 10
151.04998779296875
 20
241.04989624023437
 42
-0
  0
VERTEX
  8
0
 10
16.04998779296875
 20
241.04985046386719
 42
-0
  0
VERTEX
  8
0
 10
16.04998779296875
 20
226.04985046386719
 42
-0
  0
VERTEX
  8
0
 10
66.050048828125
 20
126.04986572265625
 42
-0
  0
VERTEX
  8
0
 10
435.291259765625
 20
26.120361328125
 42
0.13292700052261353
  0
SEQEND
  0
POLYLINE
  8
0
 10
0
 20
0
 39
0
 70
1
 66
1
  0
VERTEX
  8
0
 10
566.04998779296875
 20
266.050048828125
 42
-1
  0
VERTEX
  8
0
 10
456.04998779296875
 20
266.05001831054687
 42
-1
  0
SEQEND
  0
POLYLINE
  8
0
 10
0
 20
0
 39
0
 70
1
 66
1
  0
VERTEX
  8
0
 10
444.36013793945313
 20
1457.732177734375
 42
-0
  0
VERTEX
  8
0
 10
66.050003051757813
 20
1357.699951171875
 42
-0
  0
VERTEX
  8
0
 10
16.049999237060547
 20
1247.699951171875
 42
-0
  0
VERTEX
  8
0
 10
16.049999237060547
 20
1232.699951171875
 42
-0
  0
VERTEX
  8
0
 10
141.05000305175781
 20
1232.699951171875
 42
-0
  0
VERTEX
  8
0
 10
377.86386108398437
 20
1104.07568359375
 42
0.25404500961303711
  0
VERTEX
  8
0
 10
664.23614501953125
 20
1104.07568359375
 42
-0
  0
VERTEX
  8
0
 10
901.04998779296875
 20
1232.699951171875
 42
-0
  0
VERTEX
  8
0
 10
1026.050048828125
 20
1232.699951171875
 42
-0
  0
VERTEX
  8
0
 10
1026.050048828125
 20
1247.699951171875
 42
-0
  0
VERTEX
  8
0
 10
976.04998779296875
 20
1357.699951171875
 42
-0
  0
VERTEX
  8
0
 10
597.7398681640625
 20
1457.732177734375
 42
0.12997600436210632
  0
SEQEND
  0
POLYLINE
  8
0
 10
0
 20
0
 39
0
 70
1
 66
1
  0
VERTEX
  8
0
 10
466.04998779296875
 20
1207.699951171875
 42
-1
  0
VERTEX
  8
0
 10
576.04998779296875
 20
1207.699951171875
 42
-1
  0
SEQEND
  0
POLYLINE
  8
0
 10
0
 20
0
 39
0
 70
1
 66
1
  0
VERTEX
  8
0
 10
4769.32666015625
 20
1064.411376953125
 42
-0
  0
VERTEX
  8
0
 10
5147.63671875
 20
1164.4437255859375
 42
-0
  0
VERTEX
  8
0
 10
5197.63671875
 20
1274.4437255859375
 42
-0
  0
VERTEX
  8
0
 10
5197.63671875
 20
1289.4437255859375
 42
-0
  0
VERTEX
  8
0
 10
5072.63671875
 20
1289.4437255859375
 42
-0
  0
VERTEX
  8
0
 10
4835.82275390625
 20
1418.06787109375
 42
0.25404500961303711
  0
VERTEX
  8
0
 10
4549.45068359375
 20
1418.0677490234375
 42
-0
  0
VERTEX
  8
0
 10
4312.63671875
 20
1289.443359375
 42
-0
  0
VERTEX
  8
0
 10
4187.63671875
 20
1289.443359375
 42
-0
  0
VERTEX
  8
0
 10
4187.63671875
 20
1274.443359375
 42
-0
  0
VERTEX
  8
0
 10
4237.63671875
 20
1164.443359375
 42
-0
  0
VERTEX
  8
0
 10
4615.94677734375
 20
1064.411376953125
 42
0.12997600436210632
  0
SEQEND
  0
POLYLINE
  8
0
 10
0
 20
0
 39
0
 70
1
 66
1
  0
VERTEX
  8
0
 10
4747.63671875
 20
1314.443603515625
 42
-1
  0
VERTEX
  8
0
 10
4637.63671875
 20
1314.4434814453125
 42
-1
  0
SEQEND
  0
POLYLINE
  8
0
 10
0
 20
0
 39
0
 70
1
 66
1
  0
VERTEX
  8
0
 10
1940.71484375
 20
1171.8974609375
 42
-0
  0
VERTEX
  8
0
 10
1562.4046630859375
 20
1071.8653564453125
 42
-0
  0
VERTEX
  8
0
 10
1512.4046630859375
 20
961.8653564453125
 42
-0
  0
VERTEX
  8
0
 10
1512.4046630859375
 20
946.8653564453125
 42
-0
  0
VERTEX
  8
0
 10
1637.4046630859375
 20
946.8653564453125
 42
-0
  0
VERTEX
  8
0
 10
1874.218505859375
 20
818.24114990234375
 42
0.25404500961303711
  0
VERTEX
  8
0
 10
2160.5908203125
 20
818.24114990234375
 42
-0
  0
VERTEX
  8
0
 10
2397.40478515625
 20
946.8653564453125
 42
-0
  0
VERTEX
  8
0
 10
2522.40478515625
 20
946.8653564453125
 42
-0
  0
VERTEX
  8
0
 10
2522.40478515625
 20
961.8653564453125
 42
-0
  0
VERTEX
  8
0
 10
2472.40478515625
 20
1071.8653564453125
 42
-0
  0
VERTEX
  8
0
 10
2094.094482421875
 20
1171.8974609375
 42
0.12997600436210632
  0
SEQEND
  0
POLYLINE
  8
0
 10
0
 20
0
 39
0
 70
1
 66
1
  0
VERTEX
  8
0
 10
1962.4046630859375
 20
921.8653564453125
 42
-1
  0
VERTEX
  8
0
 10
2072.40478515625
 20
921.8653564453125
 42
-1
  0
SEQEND
  0
POLYLINE
  8
0
 10
0
 20
0
 39
0
 70
1
 66
1
  0
VERTEX
  8
0
 10
4108.07373046875
 20
1425.5953369140625
 42
-0
  0
VERTEX
  8
0
 10
4108.07373046875
 20
1445.5953369140625
 42
-0
  0
VERTEX
  8
0
 10
4058.07373046875
 20
1445.5953369140625
 42
-0
  0
VERTEX
  8
0
 10
4038.07373046875
 20
1425.5953369140625
 42
-0
  0
VERTEX
  8
0
 10
4038.07373046875
 20
1335.5953369140625
 42
-0
  0
VERTEX
  8
0
 10
4058.07373046875
 20
1335.5953369140625
 42
-0
  0
SEQEND
  0
POLYLINE
  8
0
 10
0
 20
0
 39
0
 70
1
 66
1
  0
VERTEX
  8
0
 10
4235.8603515625
 20
1361.08203125
 42
-0
  0
VERTEX
  8
0
 10
4235.8603515625
 20
1341.08203125
 42
-0
  0
VERTEX
  8
0
 10
4285.8603515625
 20
1341.08203125
 42
-0
  0
VERTEX
  8
0
 10
4305.8603515625
 20
1361.08203125
 42
-0
  0
VERTEX
  8
0
 10
4305.8603515625
 20
1451.08203125
 42
-0
  0
VERTEX
  8
0
 10
4285.8603515625
 20
1451.08203125
 42
-0
  0
SEQEND
  0
POLYLINE
  8
0
 10
0
 20
0
 39
0
 70
1
 66
1
  0
VERTEX
  8
0
 10
3103.530029296875
 20
1378.8101806640625
 42
-0
  0
VERTEX
  8
0
 10
3103.530029296875
 20
1358.8101806640625
 42
-0
  0
VERTEX
  8
0
 10
3153.530029296875
 20
1358.8101806640625
 42
-0
  0
VERTEX
  8
0
 10
3173.530029296875
 20
1378.8101806640625
 42
-0
  0
VERTEX
  8
0
 10
3173.530029296875
 20
1468.8101806640625
 42
-0
  0
VERTEX
  8
0
 10
3153.530029296875
 20
1468.8101806640625
 42
-0
  0
SEQEND
  0
POLYLINE
  8
0
 10
0
 20
0
 39
0
 70
1
 66
1
  0
VERTEX
  8
0
 10
3081.82373046875
 20
1449.232666015625
 42
-0
  0
VERTEX
  8
0
 10
3081.82373046875
 20
1469.232666015625
 42
-0
  0
VERTEX
  8
0
 10
3031.82373046875
 20
1469.232666015625
 42
-0
  0
VERTEX
  8
0
 10
3011.82373046875
 20
1449.232666015625
 42
-0
  0
VERTEX
  8
0
 10
3011.82373046875
 20
1359.232666015625
 42
-0
  0
VERTEX
  8
0
 10
3031.82373046875
 20
1359.232666015625
 42
-0
  0
SEQEND
  0
POLYLINE
  8
0
 10
0
 20
0
 39
0
 70
1
 66
1
  0
VERTEX
  8
0
 10
1060.5400390625
 20
1390.62890625
 42
-0
  0
VERTEX
  8
0
 10
1060.5400390625
 20
1370.62890625
 42
-0
  0
VERTEX
  8
0
 10
1110.5400390625
 20
1370.62890625
 42
-0
  0
VERTEX
  8
0
 10
1130.5400390625
 20
1390.62890625
 42
-0
  0
VERTEX
  8
0
 10
1130.5400390625
 20
1480.62890625
 42
-0
  0
VERTEX
  8
0
 10
1110.5400390625
 20
1480.62890625
 42
-0
  0
SEQEND
  0
POLYLINE
  8
0
 10
0
 20
0
 39
0
 70
1
 66
1
  0
VERTEX
  8
0
 10
1920.6788330078125
 20
1378.810302734375
 42
-0
  0
VERTEX
  8
0
 10
1920.6788330078125
 20
1358.810302734375
 42
-0
  0
VERTEX
  8
0
 10
1970.6788330078125
 20
1358.810302734375
 42
-0
  0
VERTEX
  8
0
 10
1990.6788330078125
 20
1378.810302734375
 42
-0
  0
VERTEX
  8
0
 10
1990.6788330078125
 20
1468.810302734375
 42
-0
  0
VERTEX
  8
0
 10
1970.6788330078125
 20
1468.810302734375
 42
-0
  0
SEQEND
  0
POLYLINE
  8
0
 10
0
 20
0
 39
0
 70
1
 66
1
  0
VERTEX
  8
0
 10
5103.20458984375
 20
1361.0821533203125
 42
-0
  0
VERTEX
  8
0
 10
5103.20458984375
 20
1341.0821533203125
 42
-0
  0
VERTEX
  8
0
 10
5153.20458984375
 20
1341.0821533203125
 42
-0
  0
VERTEX
  8
0
 10
5173.20458984375
 20
1361.0821533203125
 42
-0
  0
VERTEX
  8
0
 10
5173.20458984375
 20
1451.0821533203125
 42
-0
  0
VERTEX
  8
0
 10
5153.20458984375
 20
1451.0821533203125
 42
-0
  0
SEQEND
  0
POLYLINE
  8
0
 10
0
 20
0
 39
0
 70
1
 66
1
  0
VERTEX
  8
0
 10
4131.43505859375
 20
1366.991455078125
 42
-0
  0
VERTEX
  8
0
 10
4131.43505859375
 20
1346.991455078125
 42
-0
  0
VERTEX
  8
0
 10
4181.43505859375
 20
1346.991455078125
 42
-0
  0
VERTEX
  8
0
 10
4201.43505859375
 20
1366.991455078125
 42
-0
  0
VERTEX
  8
0
 10
4201.43505859375
 20
1456.991455078125
 42
-0
  0
VERTEX
  8
0
 10
4181.43505859375
 20
1456.991455078125
 42
-0
  0
SEQEND
  0
POLYLINE
  8
0
 10
0
 20
0
 39
0
 70
1
 66
1
  0
VERTEX
  8
0
 10
5432.23486328125
 20
236.05000305175781
 42
-0
  0
VERTEX
  8
0
 10
5387.23486328125
 20
156.05000305175781
 42
-0
  0
VERTEX
  8
0
 10
5387.23486328125
 20
96.050003051757813
 42
-0
  0
VERTEX
  8
0
 10
5432.23486328125
 20
16.049999237060547
 42
-0
  0
VERTEX
  8
0
 10
5552.23486328125
 20
16.049999237060547
 42
-0
  0
VERTEX
  8
0
 10
5552.23486328125
 20
236.05000305175781
 42
-0
  0
SEQEND
  0
POLYLINE
  8
0
 10
0
 20
0
 39
0
 70
1
 66
1
  0
VERTEX
  8
0
 10
5682.900390625
 20
236.05000305175781
 42
-0
  0
VERTEX
  8
0
 10
5637.900390625
 20
156.05000305175781
 42
-0
  0
VERTEX
  8
0
 10
5637.900390625
 20
96.050003051757813
 42
-0
  0
VERTEX
  8
0
 10
5682.900390625
 20
16.049999237060547
 42
-0
  0
VERTEX
  8
0
 10
5802.900390625
 20
16.049999237060547
 42
-0
  0
VERTEX
  8
0
 10
5802.900390625
 20
236.05000305175781
 42
-0
  0
SEQEND
  0
POLYLINE
  8
0
 10
0
 20
0
 39
0
 70
1
 66
1
  0
VERTEX
  8
0
 10
61.049999237060547
 20
1020.6441040039062
 42
-0
  0
VERTEX
  8
0
 10
16.049999237060547
 20
940.64410400390625
 42
-0
  0
VERTEX
  8
0
 10
16.049999237060547
 20
880.64410400390625
 42
-0
  0
VERTEX
  8
0
 10
61.049999237060547
 20
800.64410400390625
 42
-0
  0
VERTEX
  8
0
 10
181.05000305175781
 20
800.64410400390625
 42
-0
  0
VERTEX
  8
0
 10
181.05000305175781
 20
1020.6441040039062
 42
-0
  0
SEQEND
  0
POLYLINE
  8
0
 10
0
 20
0
 39
0
 70
1
 66
1
  0
VERTEX
  8
0
 10
61.049999237060547
 20
552.9310302734375
 42
-0
  0
VERTEX
  8
0
 10
16.049999237060547
 20
472.9310302734375
 42
-0
  0
VERTEX
  8
0
 10
16.049999237060547
 20
412.9310302734375
 42
-0
  0
VERTEX
  8
0
 10
61.049999237060547
 20
332.9310302734375
 42
-0
  0
VERTEX
  8
0
 10
181.05000305175781
 20
332.9310302734375
 42
-0
  0
VERTEX
  8
0
 10
181.05000305175781
 20
552.9310302734375
 42
-0
  0
SEQEND
  0
POLYLINE
  8
0
 10
0
 20
0
 39
0
 70
1
 66
1
  0
VERTEX
  8
0
 10
5258.6865234375
 20
1409.79150390625
 42
-0
  0
VERTEX
  8
0
 10
5213.6865234375
 20
1329.79150390625
 42
-0
  0
VERTEX
  8
0
 10
5213.6865234375
 20
1269.79150390625
 42
-0
  0
VERTEX
  8
0
 10
5258.6865234375
 20
1189.79150390625
 42
-0
  0
VERTEX
  8
0
 10
5378.6865234375
 20
1189.79150390625
 42
-0
  0
VERTEX
  8
0
 10
5378.6865234375
 20
1409.79150390625
 42
-0
  0
SEQEND
  0
POLYLINE
  8
0
 10
0
 20
0
 39
0
 70
1
 66
1
  0
VERTEX
  8
0
 10
5439.736328125
 20
1361.7845458984375
 42
-0
  0
VERTEX
  8
0
 10
5394.736328125
 20
1281.7845458984375
 42
-0
  0
VERTEX
  8
0
 10
5394.736328125
 20
1221.7845458984375
 42
-0
  0
VERTEX
  8
0
 10
5439.736328125
 20
1141.7845458984375
 42
-0
  0
VERTEX
  8
0
 10
5559.736328125
 20
1141.7845458984375
 42
-0
  0
VERTEX
  8
0
 10
5559.736328125
 20
1361.7845458984375
 42
-0
  0
SEQEND
  0
POLYLINE
  8
0
 10
0
 20
0
 39
0
 70
1
 66
1
  0
VERTEX
  8
0
 10
5336.494140625
 20
136.05021667480469
 42
-0
  0
VERTEX
  8
0
 10
5256.494140625
 20
181.05014038085937
 42
-0
  0
VERTEX
  8
0
 10
5196.494140625
 20
181.05007934570312
 42
-0
  0
VERTEX
  8
0
 10
5116.494140625
 20
136.05000305175781
 42
-0
  0
VERTEX
  8
0
 10
5116.494140625
 20
16.050003051757813
 42
-0
  0
VERTEX
  8
0
 10
5336.494140625
 20
16.050216674804688
 42
-0
  0
SEQEND
  0
POLYLINE
  8
0
 10
0
 20
0
 39
0
 70
1
 66
1
  0
VERTEX
  8
0
 10
317.10003662109375
 20
892.316162109375
 42
-0
  0
VERTEX
  8
0
 10
362.10000610351562
 20
972.316162109375
 42
-0
  0
VERTEX
  8
0
 10
362.0999755859375
 20
1032.316162109375
 42
-0
  0
VERTEX
  8
0
 10
317.09994506835937
 20
1112.316162109375
 42
-0
  0
VERTEX
  8
0
 10
197.09994506835937
 20
1112.3160400390625
 42
-0
  0
VERTEX
  8
0
 10
197.10003662109375
 20
892.31610107421875
 42
-0
  0
SEQEND
  0
POLYLINE
  8
0
 10
0
 20
0
 39
0
 70
1
 66
1
  0
VERTEX
  8
0
 10
5863.9501953125
 20
236.05000305175781
 42
-0
  0
VERTEX
  8
0
 10
5818.9501953125
 20
156.05000305175781
 42
-0
  0
VERTEX
  8
0
 10
5818.9501953125
 20
96.050003051757813
 42
-0
  0
VERTEX
  8
0
 10
5863.9501953125
 20
16.049999237060547
 42
-0
  0
VERTEX
  8
0
 10
5983.9501953125
 20
16.049999237060547
 42
-0
  0
VERTEX
  8
0
 10
5983.9501953125
 20
236.05000305175781
 42
-0
  0
SEQEND
  0
POLYLINE
  8
0
 10
0
 20
0
 39
0
 70
1
 66
1
  0
VERTEX
  8
0
 10
5620.7861328125
 20
1415.7008056640625
 42
-0
  0
VERTEX
  8
0
 10
5575.7861328125
 20
1335.7008056640625
 42
-0
  0
VERTEX
  8
0
 10
5575.7861328125
 20
1275.7008056640625
 42
-0
  0
VERTEX
  8
0
 10
5620.7861328125
 20
1195.7008056640625
 42
-0
  0
VERTEX
  8
0
 10
5740.7861328125
 20
1195.7008056640625
 42
-0
  0
VERTEX
  8
0
 10
5740.7861328125
 20
1415.7008056640625
 42
-0
  0
SEQEND
  0
POLYLINE
  8
0
 10
0
 20
0
 39
0
 70
1
 66
1
  0
VERTEX
  8
0
 10
5542.484375
 20
836.5814208984375
 42
-0
  0
VERTEX
  8
0
 10
5497.484375
 20
756.5814208984375
 42
-0
  0
VERTEX
  8
0
 10
5497.484375
 20
696.5814208984375
 42
-0
  0
VERTEX
  8
0
 10
5542.484375
 20
616.5814208984375
 42
-0
  0
VERTEX
  8
0
 10
5662.484375
 20
616.5814208984375
 42
-0
  0
VERTEX
  8
0
 10
5662.484375
 20
836.5814208984375
 42
-0
  0
SEQEND
  0
POLYLINE
  8
0
 10
0
 20
0
 39
0
 70
1
 66
1
  0
VERTEX
  8
0
 10
586.808837890625
 20
548.0543212890625
 42
-0
  0
VERTEX
  8
0
 10
956.050048828125
 20
647.984130859375
 42
-0
  0
VERTEX
  8
0
 10
1006.0499877929687
 20
747.984130859375
 42
-0
  0
VERTEX
  8
0
 10
1006.0499877929687
 20
762.984130859375
 42
-0
  0
VERTEX
  8
0
 10
871.04998779296875
 20
762.98406982421875
 42
-0
  0
VERTEX
  8
0
 10
649.00390625
 20
883.06964111328125
 42
0.25308701395988464
  0
VERTEX
  8
0
 10
373.095947265625
 20
883.069580078125
 42
-0
  0
VERTEX
  8
0
 10
151.04998779296875
 20
762.9837646484375
 42
-0
  0
VERTEX
  8
0
 10
16.04998779296875
 20
762.9837646484375
 42
-0
  0
VERTEX
  8
0
 10
16.04998779296875
 20
747.9837646484375
 42
-0
  0
VERTEX
  8
0
 10
66.050048828125
 20
647.9837646484375
 42
-0
  0
VERTEX
  8
0
 10
435.291259765625
 20
548.05426025390625
 42
0.13292700052261353
  0
SEQEND
  0
POLYLINE
  8
0
 10
0
 20
0
 39
0
 70
1
 66
1
  0
VERTEX
  8
0
 10
566.04998779296875
 20
787.98394775390625
 42
-1
  0
VERTEX
  8
0
 10
456.04998779296875
 20
787.98388671875
 42
-1
  0
SEQEND
  0
POLYLINE
  8
0
 10
0
 20
0
 39
0
 70
1
 66
1
  0
VERTEX
  8
0
 10
939.80010986328125
 20
626.960693359375
 42
-0
  0
VERTEX
  8
0
 10
570.55889892578125
 20
527.031005859375
 42
-0
  0
VERTEX
  8
0
 10
520.55889892578125
 20
427.031005859375
 42
-0
  0
VERTEX
  8
0
 10
520.55889892578125
 20
412.031005859375
 42
-0
  0
VERTEX
  8
0
 10
655.55889892578125
 20
412.031005859375
 42
-0
  0
VERTEX
  8
0
 10
877.60491943359375
 20
291.94534301757813
 42
0.25308701395988464
  0
VERTEX
  8
0
 10
1153.512939453125
 20
291.94534301757813
 42
-0
  0
VERTEX
  8
0
 10
1375.558837890625
 20
412.031005859375
 42
-0
  0
VERTEX
  8
0
 10
1510.558837890625
 20
412.031005859375
 42
-0
  0
VERTEX
  8
0
 10
1510.558837890625
 20
427.031005859375
 42
-0
  0
VERTEX
  8
0
 10
1460.558837890625
 20
527.031005859375
 42
-0
  0
VERTEX
  8
0
 10
1091.317626953125
 20
626.960693359375
 42
0.13292700052261353
  0
SEQEND
  0
POLYLINE
  8
0
 10
0
 20
0
 39
0
 70
1
 66
1
  0
VERTEX
  8
0
 10
960.55889892578125
 20
387.031005859375
 42
-1
  0
VERTEX
  8
0
 10
1070.558837890625
 20
387.031005859375
 42
-1
  0
SEQEND
  0
POLYLINE
  8
0
 10
0
 20
0
 39
0
 70
1
 66
1
  0
VERTEX
  8
0
 10
1592.8187255859375
 20
26.12042236328125
 42
-0
  0
VERTEX
  8
0
 10
1962.0599365234375
 20
126.05020141601562
 42
-0
  0
VERTEX
  8
0
 10
2012.0599365234375
 20
226.05023193359375
 42
-0
  0
VERTEX
  8
0
 10
2012.059814453125
 20
241.05023193359375
 42
-0
  0
VERTEX
  8
0
 10
1877.059814453125
 20
241.05018615722656
 42
-0
  0
VERTEX
  8
0
 10
1655.0137939453125
 20
361.13577270507812
 42
0.25308701395988464
  0
VERTEX
  8
0
 10
1379.1058349609375
 20
361.13565063476562
 42
-0
  0
VERTEX
  8
0
 10
1157.059814453125
 20
241.04989624023437
 42
-0
  0
VERTEX
  8
0
 10
1022.0598754882812
 20
241.04985046386719
 42
-0
  0
VERTEX
  8
0
 10
1022.0598754882812
 20
226.04985046386719
 42
-0
  0
VERTEX
  8
0
 10
1072.0599365234375
 20
126.04986572265625
 42
-0
  0
VERTEX
  8
0
 10
1441.3011474609375
 20
26.120361328125
 42
0.13292700052261353
  0
SEQEND
  0
POLYLINE
  8
0
 10
0
 20
0
 39
0
 70
1
 66
1
  0
VERTEX
  8
0
 10
1572.059814453125
 20
266.050048828125
 42
-1
  0
VERTEX
  8
0
 10
1462.059814453125
 20
266.05001831054687
 42
-1
  0
SEQEND
  0
POLYLINE
  8
0
 10
0
 20
0
 39
0
 70
1
 66
1
  0
VERTEX
  8
0
 10
2598.828857421875
 20
26.12042236328125
 42
-0
  0
VERTEX
  8
0
 10
2968.06982421875
 20
126.05020141601562
 42
-0
  0
VERTEX
  8
0
 10
3018.06982421875
 20
226.05023193359375
 42
-0
  0
VERTEX
  8
0
 10
3018.06982421875
 20
241.05023193359375
 42
-0
  0
VERTEX
  8
0
 10
2883.06982421875
 20
241.05018615722656
 42
-0
  0
VERTEX
  8
0
 10
2661.02392578125
 20
361.13577270507812
 42
0.25308701395988464
  0
VERTEX
  8
0
 10
2385.11572265625
 20
361.13565063476562
 42
-0
  0
VERTEX
  8
0
 10
2163.06982421875
 20
241.04989624023437
 42
-0
  0
VERTEX
  8
0
 10
2028.06982421875
 20
241.04985046386719
 42
-0
  0
VERTEX
  8
0
 10
2028.06982421875
 20
226.04985046386719
 42
-0
  0
VERTEX
  8
0
 10
2078.06982421875
 20
126.04986572265625
 42
-0
  0
VERTEX
  8
0
 10
2447.31103515625
 20
26.120361328125
 42
0.13292700052261353
  0
SEQEND
  0
POLYLINE
  8
0
 10
0
 20
0
 39
0
 70
1
 66
1
  0
VERTEX
  8
0
 10
2578.06982421875
 20
266.050048828125
 42
-1
  0
VERTEX
  8
0
 10
2468.06982421875
 20
266.05001831054687
 42
-1
  0
SEQEND
  0
POLYLINE
  8
0
 10
0
 20
0
 39
0
 70
1
 66
1
  0
VERTEX
  8
0
 10
3604.839111328125
 20
26.12042236328125
 42
-0
  0
VERTEX
  8
0
 10
3974.080078125
 20
126.05020141601562
 42
-0
  0
VERTEX
  8
0
 10
4024.080078125
 20
226.05023193359375
 42
-0
  0
VERTEX
  8
0
 10
4024.080078125
 20
241.05023193359375
 42
-0
  0
VERTEX
  8
0
 10
3889.080078125
 20
241.05018615722656
 42
-0
  0
VERTEX
  8
0
 10
3667.0341796875
 20
361.13577270507812
 42
0.25308701395988464
  0
VERTEX
  8
0
 10
3391.1259765625
 20
361.13565063476562
 42
-0
  0
VERTEX
  8
0
 10
3169.080078125
 20
241.04989624023437
 42
-0
  0
VERTEX
  8
0
 10
3034.080078125
 20
241.04985046386719
 42
-0
  0
VERTEX
  8
0
 10
3034.080078125
 20
226.04985046386719
 42
-0
  0
VERTEX
  8
0
 10
3084.080078125
 20
126.04986572265625
 42
-0
  0
VERTEX
  8
0
 10
3453.3212890625
 20
26.120361328125
 42
0.13292700052261353
  0
SEQEND
  0
POLYLINE
  8
0
 10
0
 20
0
 39
0
 70
1
 66
1
  0
VERTEX
  8
0
 10
3584.080078125
 20
266.050048828125
 42
-1
  0
VERTEX
  8
0
 10
3474.080078125
 20
266.05001831054687
 42
-1
  0
SEQEND
  0
POLYLINE
  8
0
 10
0
 20
0
 39
0
 70
1
 66
1
  0
VERTEX
  8
0
 10
3578.375
 20
1107.5372314453125
 42
-0
  0
VERTEX
  8
0
 10
3947.615966796875
 20
1207.467041015625
 42
-0
  0
VERTEX
  8
0
 10
3997.615966796875
 20
1307.467041015625
 42
-0
  0
VERTEX
  8
0
 10
3997.615966796875
 20
1322.467041015625
 42
-0
  0
VERTEX
  8
0
 10
3862.615966796875
 20
1322.467041015625
 42
-0
  0
VERTEX
  8
0
 10
3640.56982421875
 20
1442.5526123046875
 42
0.25308701395988464
  0
VERTEX
  8
0
 10
3364.662109375
 20
1442.552490234375
 42
-0
  0
VERTEX
  8
0
 10
3142.615966796875
 20
1322.4666748046875
 42
-0
  0
VERTEX
  8
0
 10
3007.615966796875
 20
1322.4666748046875
 42
-0
  0
VERTEX
  8
0
 10
3007.615966796875
 20
1307.4666748046875
 42
-0
  0
VERTEX
  8
0
 10
3057.6162109375
 20
1207.4666748046875
 42
-0
  0
VERTEX
  8
0
 10
3426.857421875
 20
1107.537109375
 42
0.13292700052261353
  0
SEQEND
  0
POLYLINE
  8
0
 10
0
 20
0
 39
0
 70
1
 66
1
  0
VERTEX
  8
0
 10
3557.615966796875
 20
1347.4669189453125
 42
-1
  0
VERTEX
  8
0
 10
3447.615966796875
 20
1347.466796875
 42
-1
  0
SEQEND
  0
POLYLINE
  8
0
 10
0
 20
0
 39
0
 70
1
 66
1
  0
VERTEX
  8
0
 10
1945.81005859375
 20
626.960693359375
 42
-0
  0
VERTEX
  8
0
 10
1576.56884765625
 20
527.031005859375
 42
-0
  0
VERTEX
  8
0
 10
1526.56884765625
 20
427.031005859375
 42
-0
  0
VERTEX
  8
0
 10
1526.56884765625
 20
412.031005859375
 42
-0
  0
VERTEX
  8
0
 10
1661.56884765625
 20
412.031005859375
 42
-0
  0
VERTEX
  8
0
 10
1883.6148681640625
 20
291.94534301757813
 42
0.25308701395988464
  0
VERTEX
  8
0
 10
2159.52294921875
 20
291.94534301757813
 42
-0
  0
VERTEX
  8
0
 10
2381.56884765625
 20
412.031005859375
 42
-0
  0
VERTEX
  8
0
 10
2516.56884765625
 20
412.031005859375
 42
-0
  0
VERTEX
  8
0
 10
2516.56884765625
 20
427.031005859375
 42
-0
  0
VERTEX
  8
0
 10
2466.56884765625
 20
527.031005859375
 42
-0
  0
VERTEX
  8
0
 10
2097.32763671875
 20
626.960693359375
 42
0.13292700052261353
  0
SEQEND
  0
POLYLINE
  8
0
 10
0
 20
0
 39
0
 70
1
 66
1
  0
VERTEX
  8
0
 10
1966.56884765625
 20
387.031005859375
 42
-1
  0
VERTEX
  8
0
 10
2076.56884765625
 20
387.031005859375
 42
-1
  0
SEQEND
  0
POLYLINE
  8
0
 10
0
 20
0
 39
0
 70
1
 66
1
  0
VERTEX
  8
0
 10
2951.81982421875
 20
626.960693359375
 42
-0
  0
VERTEX
  8
0
 10
2582.57861328125
 20
527.031005859375
 42
-0
  0
VERTEX
  8
0
 10
2532.57861328125
 20
427.031005859375
 42
-0
  0
VERTEX
  8
0
 10
2532.57861328125
 20
412.031005859375
 42
-0
  0
VERTEX
  8
0
 10
2667.57861328125
 20
412.031005859375
 42
-0
  0
VERTEX
  8
0
 10
2889.62451171875
 20
291.94534301757813
 42
0.25308701395988464
  0
VERTEX
  8
0
 10
3165.53271484375
 20
291.94534301757813
 42
-0
  0
VERTEX
  8
0
 10
3387.57861328125
 20
412.031005859375
 42
-0
  0
VERTEX
  8
0
 10
3522.57861328125
 20
412.031005859375
 42
-0
  0
VERTEX
  8
0
 10
3522.57861328125
 20
427.031005859375
 42
-0
  0
VERTEX
  8
0
 10
3472.57861328125
 20
527.031005859375
 42
-0
  0
VERTEX
  8
0
 10
3103.33740234375
 20
626.960693359375
 42
0.13292700052261353
  0
SEQEND
  0
POLYLINE
  8
0
 10
0
 20
0
 39
0
 70
1
 66
1
  0
VERTEX
  8
0
 10
2972.57861328125
 20
387.031005859375
 42
-1
  0
VERTEX
  8
0
 10
3082.57861328125
 20
387.031005859375
 42
-1
  0
SEQEND
  0
POLYLINE
  8
0
 10
0
 20
0
 39
0
 70
1
 66
1
  0
VERTEX
  8
0
 10
3957.830078125
 20
626.960693359375
 42
-0
  0
VERTEX
  8
0
 10
3588.5888671875
 20
527.031005859375
 42
-0
  0
VERTEX
  8
0
 10
3538.5888671875
 20
427.031005859375
 42
-0
  0
VERTEX
  8
0
 10
3538.5888671875
 20
412.031005859375
 42
-0
  0
VERTEX
  8
0
 10
3673.5888671875
 20
412.031005859375
 42
-0
  0
VERTEX
  8
0
 10
3895.634765625
 20
291.94534301757813
 42
0.25308701395988464
  0
VERTEX
  8
0
 10
4171.54296875
 20
291.94534301757813
 42
-0
  0
VERTEX
  8
0
 10
4393.5888671875
 20
412.031005859375
 42
-0
  0
VERTEX
  8
0
 10
4528.5888671875
 20
412.031005859375
 42
-0
  0
VERTEX
  8
0
 10
4528.5888671875
 20
427.031005859375
 42
-0
  0
VERTEX
  8
0
 10
4478.5888671875
 20
527.031005859375
 42
-0
  0
VERTEX
  8
0
 10
4109.34765625
 20
626.960693359375
 42
0.13292700052261353
  0
SEQEND
  0
POLYLINE
  8
0
 10
0
 20
0
 39
0
 70
1
 66
1
  0
VERTEX
  8
0
 10
3978.5888671875
 20
387.031005859375
 42
-1
  0
VERTEX
  8
0
 10
4088.5888671875
 20
387.031005859375
 42
-1
  0
SEQEND
  0
POLYLINE
  8
0
 10
0
 20
0
 39
0
 70
1
 66
1
  0
VERTEX
  8
0
 10
2428.7158203125
 20
1460.1834716796875
 42
-0
  0
VERTEX
  8
0
 10
2059.474609375
 20
1360.2537841796875
 42
-0
  0
VERTEX
  8
0
 10
2009.474609375
 20
1260.2537841796875
 42
-0
  0
VERTEX
  8
0
 10
2009.474609375
 20
1245.2537841796875
 42
-0
  0
VERTEX
  8
0
 10
2144.474609375
 20
1245.2537841796875
 42
-0
  0
VERTEX
  8
0
 10
2366.5205078125
 20
1125.1680908203125
 42
0.25308701395988464
  0
VERTEX
  8
0
 10
2642.4287109375
 20
1125.1680908203125
 42
-0
  0
VERTEX
  8
0
 10
2864.474609375
 20
1245.2537841796875
 42
-0
  0
VERTEX
  8
0
 10
2999.474609375
 20
1245.2537841796875
 42
-0
  0
VERTEX
  8
0
 10
2999.474609375
 20
1260.2537841796875
 42
-0
  0
VERTEX
  8
0
 10
2949.474609375
 20
1360.2537841796875
 42
-0
  0
VERTEX
  8
0
 10
2580.2333984375
 20
1460.1834716796875
 42
0.13292700052261353
  0
SEQEND
  0
POLYLINE
  8
0
 10
0
 20
0
 39
0
 70
1
 66
1
  0
VERTEX
  8
0
 10
2449.474609375
 20
1220.2537841796875
 42
-1
  0
VERTEX
  8
0
 10
2559.474609375
 20
1220.2537841796875
 42
-1
  0
SEQEND
  0
POLYLINE
  8
0
 10
0
 20
0
 39
0
 70
1
 66
1
  0
VERTEX
  8
0
 10
925.595703125
 20
1149.7666015625
 42
-0
  0
VERTEX
  8
0
 10
556.3546142578125
 20
1049.8365478515625
 42
-0
  0
VERTEX
  8
0
 10
506.35467529296875
 20
949.8365478515625
 42
-0
  0
VERTEX
  8
0
 10
506.35467529296875
 20
934.8365478515625
 42
-0
  0
VERTEX
  8
0
 10
641.35467529296875
 20
934.836669921875
 42
-0
  0
VERTEX
  8
0
 10
863.4007568359375
 20
814.75115966796875
 42
0.25308701395988464
  0
VERTEX
  8
0
 10
1139.308837890625
 20
814.7513427734375
 42
-0
  0
VERTEX
  8
0
 10
1361.354736328125
 20
934.83721923828125
 42
-0
  0
VERTEX
  8
0
 10
1496.354736328125
 20
934.83734130859375
 42
-0
  0
VERTEX
  8
0
 10
1496.354736328125
 20
949.83734130859375
 42
-0
  0
VERTEX
  8
0
 10
1446.3546142578125
 20
1049.8372802734375
 42
-0
  0
VERTEX
  8
0
 10
1077.11328125
 20
1149.7666015625
 42
0.13292700052261353
  0
SEQEND
  0
POLYLINE
  8
0
 10
0
 20
0
 39
0
 70
1
 66
1
  0
VERTEX
  8
0
 10
946.354736328125
 20
909.8369140625
 42
-1
  0
VERTEX
  8
0
 10
1056.354736328125
 20
909.83697509765625
 42
-1
  0
SEQEND
  0
POLYLINE
  8
0
 10
0
 20
0
 39
0
 70
1
 66
1
  0
VERTEX
  8
0
 10
1592.85888671875
 20
549.5615234375
 42
-0
  0
VERTEX
  8
0
 10
1962.10009765625
 20
649.4913330078125
 42
-0
  0
VERTEX
  8
0
 10
2012.10009765625
 20
749.4913330078125
 42
-0
  0
VERTEX
  8
0
 10
2012.0999755859375
 20
764.4913330078125
 42
-0
  0
VERTEX
  8
0
 10
1877.10009765625
 20
764.49127197265625
 42
-0
  0
VERTEX
  8
0
 10
1655.053955078125
 20
884.57684326171875
 42
0.25308701395988464
  0
VERTEX
  8
0
 10
1379.14599609375
 20
884.5767822265625
 42
-0
  0
VERTEX
  8
0
 10
1157.10009765625
 20
764.490966796875
 42
-0
  0
VERTEX
  8
0
 10
1022.1000366210937
 20
764.490966796875
 42
-0
  0
VERTEX
  8
0
 10
1022.1000366210937
 20
749.490966796875
 42
-0
  0
VERTEX
  8
0
 10
1072.10009765625
 20
649.490966796875
 42
-0
  0
VERTEX
  8
0
 10
1441.34130859375
 20
549.56146240234375
 42
0.13292700052261353
  0
SEQEND
  0
POLYLINE
  8
0
 10
0
 20
0
 39
0
 70
1
 66
1
  0
VERTEX
  8
0
 10
1572.10009765625
 20
789.49114990234375
 42
-1
  0
VERTEX
  8
0
 10
1462.10009765625
 20
789.4910888671875
 42
-1
  0
SEQEND
  0
POLYLINE
  8
0
 10
0
 20
0
 39
0
 70
1
 66
1
  0
VERTEX
  8
0
 10
2598.908935546875
 20
551.0687255859375
 42
-0
  0
VERTEX
  8
0
 10
2968.14990234375
 20
650.99853515625
 42
-0
  0
VERTEX
  8
0
 10
3018.14990234375
 20
750.99853515625
 42
-0
  0
VERTEX
  8
0
 10
3018.14990234375
 20
765.99853515625
 42
-0
  0
VERTEX
  8
0
 10
2883.14990234375
 20
765.99847412109375
 42
-0
  0
VERTEX
  8
0
 10
2661.10400390625
 20
886.08404541015625
 42
0.25308701395988464
  0
VERTEX
  8
0
 10
2385.19580078125
 20
886.083984375
 42
-0
  0
VERTEX
  8
0
 10
2163.14990234375
 20
765.9981689453125
 42
-0
  0
VERTEX
  8
0
 10
2028.14990234375
 20
765.9981689453125
 42
-0
  0
VERTEX
  8
0
 10
2028.14990234375
 20
750.9981689453125
 42
-0
  0
VERTEX
  8
0
 10
2078.14990234375
 20
650.9981689453125
 42
-0
  0
VERTEX
  8
0
 10
2447.39111328125
 20
551.06866455078125
 42
0.13292700052261353
  0
SEQEND
  0
POLYLINE
  8
0
 10
0
 20
0
 39
0
 70
1
 66
1
  0
VERTEX
  8
0
 10
2578.14990234375
 20
790.99835205078125
 42
-1
  0
VERTEX
  8
0
 10
2468.14990234375
 20
790.998291015625
 42
-1
  0
SEQEND
  0
POLYLINE
  8
0
 10
0
 20
0
 39
0
 70
1
 66
1
  0
VERTEX
  8
0
 10
3604.958984375
 20
551.0687255859375
 42
-0
  0
VERTEX
  8
0
 10
3974.199951171875
 20
650.99853515625
 42
-0
  0
VERTEX
  8
0
 10
4024.199951171875
 20
750.99853515625
 42
-0
  0
VERTEX
  8
0
 10
4024.199951171875
 20
765.99853515625
 42
-0
  0
VERTEX
  8
0
 10
3889.199951171875
 20
765.99847412109375
 42
-0
  0
VERTEX
  8
0
 10
3667.15380859375
 20
886.08404541015625
 42
0.25308701395988464
  0
VERTEX
  8
0
 10
3391.24609375
 20
886.083984375
 42
-0
  0
VERTEX
  8
0
 10
3169.199951171875
 20
765.9981689453125
 42
-0
  0
VERTEX
  8
0
 10
3034.199951171875
 20
765.9981689453125
 42
-0
  0
VERTEX
  8
0
 10
3034.199951171875
 20
750.9981689453125
 42
-0
  0
VERTEX
  8
0
 10
3084.2001953125
 20
650.9981689453125
 42
-0
  0
VERTEX
  8
0
 10
3453.44140625
 20
551.06866455078125
 42
0.13292700052261353
  0
SEQEND
  0
POLYLINE
  8
0
 10
0
 20
0
 39
0
 70
1
 66
1
  0
VERTEX
  8
0
 10
3584.199951171875
 20
790.99835205078125
 42
-1
  0
VERTEX
  8
0
 10
3474.199951171875
 20
790.998291015625
 42
-1
  0
SEQEND
  0
POLYLINE
  8
0
 10
0
 20
0
 39
0
 70
1
 66
1
  0
VERTEX
  8
0
 10
1597.224853515625
 20
1110.1339111328125
 42
-0
  0
VERTEX
  8
0
 10
1966.466064453125
 20
1210.063720703125
 42
-0
  0
VERTEX
  8
0
 10
2016.466064453125
 20
1310.063720703125
 42
-0
  0
VERTEX
  8
0
 10
2016.4659423828125
 20
1325.063720703125
 42
-0
  0
VERTEX
  8
0
 10
1881.466064453125
 20
1325.063720703125
 42
-0
  0
VERTEX
  8
0
 10
1659.419921875
 20
1445.1492919921875
 42
0.25308701395988464
  0
VERTEX
  8
0
 10
1383.511962890625
 20
1445.149169921875
 42
-0
  0
VERTEX
  8
0
 10
1161.466064453125
 20
1325.0633544921875
 42
-0
  0
VERTEX
  8
0
 10
1026.466064453125
 20
1325.0633544921875
 42
-0
  0
VERTEX
  8
0
 10
1026.466064453125
 20
1310.0633544921875
 42
-0
  0
VERTEX
  8
0
 10
1076.466064453125
 20
1210.0633544921875
 42
-0
  0
VERTEX
  8
0
 10
1445.707275390625
 20
1110.1337890625
 42
0.13292700052261353
  0
SEQEND
  0
POLYLINE
  8
0
 10
0
 20
0
 39
0
 70
1
 66
1
  0
VERTEX
  8
0
 10
1576.466064453125
 20
1350.0635986328125
 42
-1
  0
VERTEX
  8
0
 10
1466.466064453125
 20
1350.0634765625
 42
-1
  0
SEQEND
  0
POLYLINE
  8
0
 10
0
 20
0
 39
0
 70
1
 66
1
  0
VERTEX
  8
0
 10
2966.724609375
 20
1172.0802001953125
 42
-0
  0
VERTEX
  8
0
 10
2588.41455078125
 20
1072.048095703125
 42
-0
  0
VERTEX
  8
0
 10
2538.41455078125
 20
962.04803466796875
 42
-0
  0
VERTEX
  8
0
 10
2538.41455078125
 20
947.04803466796875
 42
-0
  0
VERTEX
  8
0
 10
2663.41455078125
 20
947.04803466796875
 42
-0
  0
VERTEX
  8
0
 10
2900.228515625
 20
818.423828125
 42
0.25404500961303711
  0
VERTEX
  8
0
 10
3186.6005859375
 20
818.423828125
 42
-0
  0
VERTEX
  8
0
 10
3423.41455078125
 20
947.04803466796875
 42
-0
  0
VERTEX
  8
0
 10
3548.41455078125
 20
947.04803466796875
 42
-0
  0
VERTEX
  8
0
 10
3548.41455078125
 20
962.04803466796875
 42
-0
  0
VERTEX
  8
0
 10
3498.41455078125
 20
1072.048095703125
 42
-0
  0
VERTEX
  8
0
 10
3120.1044921875
 20
1172.0802001953125
 42
0.12997600436210632
  0
SEQEND
  0
POLYLINE
  8
0
 10
0
 20
0
 39
0
 70
1
 66
1
  0
VERTEX
  8
0
 10
2988.41455078125
 20
922.04803466796875
 42
-1
  0
VERTEX
  8
0
 10
3098.41455078125
 20
922.04803466796875
 42
-1
  0
SEQEND
  0
POLYLINE
  8
0
 10
0
 20
0
 39
0
 70
1
 66
1
  0
VERTEX
  8
0
 10
3992.73486328125
 20
1172.080322265625
 42
-0
  0
VERTEX
  8
0
 10
3614.4248046875
 20
1072.048095703125
 42
-0
  0
VERTEX
  8
0
 10
3564.4248046875
 20
962.04815673828125
 42
-0
  0
VERTEX
  8
0
 10
3564.4248046875
 20
947.04815673828125
 42
-0
  0
VERTEX
  8
0
 10
3689.4248046875
 20
947.04815673828125
 42
-0
  0
VERTEX
  8
0
 10
3926.23876953125
 20
818.4239501953125
 42
0.25404500961303711
  0
VERTEX
  8
0
 10
4212.61083984375
 20
818.4239501953125
 42
-0
  0
VERTEX
  8
0
 10
4449.4248046875
 20
947.04815673828125
 42
-0
  0
VERTEX
  8
0
 10
4574.4248046875
 20
947.04815673828125
 42
-0
  0
VERTEX
  8
0
 10
4574.4248046875
 20
962.04815673828125
 42
-0
  0
VERTEX
  8
0
 10
4524.4248046875
 20
1072.048095703125
 42
-0
  0
VERTEX
  8
0
 10
4146.11474609375
 20
1172.080322265625
 42
0.12997600436210632
  0
SEQEND
  0
POLYLINE
  8
0
 10
0
 20
0
 39
0
 70
1
 66
1
  0
VERTEX
  8
0
 10
4014.4248046875
 20
922.04815673828125
 42
-1
  0
VERTEX
  8
0
 10
4124.4248046875
 20
922.04815673828125
 42
-1
  0
SEQEND
  0
POLYLINE
  8
0
 10
0
 20
0
 39
0
 70
1
 66
1
  0
VERTEX
  8
0
 10
5207.603515625
 20
1146.00830078125
 42
-0
  0
VERTEX
  8
0
 10
4829.29345703125
 20
1045.9761962890625
 42
-0
  0
VERTEX
  8
0
 10
4779.29345703125
 20
935.9761962890625
 42
-0
  0
VERTEX
  8
0
 10
4779.29345703125
 20
920.9761962890625
 42
-0
  0
VERTEX
  8
0
 10
4904.29345703125
 20
920.9761962890625
 42
-0
  0
VERTEX
  8
0
 10
5141.107421875
 20
792.35198974609375
 42
0.25404500961303711
  0
VERTEX
  8
0
 10
5427.4794921875
 20
792.35198974609375
 42
-0
  0
VERTEX
  8
0
 10
5664.29345703125
 20
920.9761962890625
 42
-0
  0
VERTEX
  8
0
 10
5789.29345703125
 20
920.9761962890625
 42
-0
  0
VERTEX
  8
0
 10
5789.29345703125
 20
935.9761962890625
 42
-0
  0
VERTEX
  8
0
 10
5739.29345703125
 20
1045.9761962890625
 42
-0
  0
VERTEX
  8
0
 10
5360.9833984375
 20
1146.00830078125
 42
0.12997600436210632
  0
SEQEND
  0
POLYLINE
  8
0
 10
0
 20
0
 39
0
 70
1
 66
1
  0
VERTEX
  8
0
 10
5229.29345703125
 20
895.9761962890625
 42
-1
  0
VERTEX
  8
0
 10
5339.29345703125
 20
895.9761962890625
 42
-1
  0
SEQEND
  0
POLYLINE
  8
0
 10
0
 20
0
 39
0
 70
1
 66
1
  0
VERTEX
  8
0
 10
4716.013671875
 20
26.01788330078125
 42
-0
  0
VERTEX
  8
0
 10
5094.32373046875
 20
126.0501708984375
 42
-0
  0
VERTEX
  8
0
 10
5144.32373046875
 20
236.05020141601562
 42
-0
  0
VERTEX
  8
0
 10
5144.32373046875
 20
251.05020141601562
 42
-0
  0
VERTEX
  8
0
 10
5019.32373046875
 20
251.05015563964844
 42
-0
  0
VERTEX
  8
0
 10
4782.509765625
 20
379.67428588867187
 42
0.25404500961303711
  0
VERTEX
  8
0
 10
4496.1376953125
 20
379.67416381835937
 42
-0
  0
VERTEX
  8
0
 10
4259.32373046875
 20
251.04985046386719
 42
-0
  0
VERTEX
  8
0
 10
4134.32373046875
 20
251.0498046875
 42
-0
  0
VERTEX
  8
0
 10
4134.32373046875
 20
236.0498046875
 42
-0
  0
VERTEX
  8
0
 10
4184.32373046875
 20
126.04983520507812
 42
-0
  0
VERTEX
  8
0
 10
4562.6337890625
 20
26.017822265625
 42
0.12997600436210632
  0
SEQEND
  0
POLYLINE
  8
0
 10
0
 20
0
 39
0
 70
1
 66
1
  0
VERTEX
  8
0
 10
4694.32373046875
 20
276.050048828125
 42
-1
  0
VERTEX
  8
0
 10
4584.32373046875
 20
276.04998779296875
 42
-1
  0
SEQEND
  0
POLYLINE
  8
0
 10
0
 20
0
 39
0
 70
1
 66
1
  0
VERTEX
  8
0
 10
4585.65625
 20
887.05517578125
 42
-0
  0
VERTEX
  8
0
 10
4207.34619140625
 20
787.02301025390625
 42
-0
  0
VERTEX
  8
0
 10
4157.34619140625
 20
677.02301025390625
 42
-0
  0
VERTEX
  8
0
 10
4157.34619140625
 20
662.02301025390625
 42
-0
  0
VERTEX
  8
0
 10
4282.34619140625
 20
662.02301025390625
 42
-0
  0
VERTEX
  8
0
 10
4519.16015625
 20
533.3988037109375
 42
0.25404500961303711
  0
VERTEX
  8
0
 10
4805.5322265625
 20
533.3988037109375
 42
-0
  0
VERTEX
  8
0
 10
5042.34619140625
 20
662.02301025390625
 42
-0
  0
VERTEX
  8
0
 10
5167.34619140625
 20
662.02301025390625
 42
-0
  0
VERTEX
  8
0
 10
5167.34619140625
 20
677.02301025390625
 42
-0
  0
VERTEX
  8
0
 10
5117.34619140625
 20
787.02301025390625
 42
-0
  0
VERTEX
  8
0
 10
4739.0361328125
 20
887.05517578125
 42
0.12997600436210632
  0
SEQEND
  0
POLYLINE
  8
0
 10
0
 20
0
 39
0
 70
1
 66
1
  0
VERTEX
  8
0
 10
4607.34619140625
 20
637.02301025390625
 42
-1
  0
VERTEX
  8
0
 10
4717.34619140625
 20
637.02301025390625
 42
-1
  0
SEQEND
  0
POLYLINE
  8
0
 10
0
 20
0
 39
0
 70
1
 66
1
  0
VERTEX
  8
0
 10
5208.9228515625
 20
623.7613525390625
 42
-0
  0
VERTEX
  8
0
 10
4830.61279296875
 20
523.729248046875
 42
-0
  0
VERTEX
  8
0
 10
4780.61279296875
 20
413.72921752929687
 42
-0
  0
VERTEX
  8
0
 10
4780.61279296875
 20
398.72921752929687
 42
-0
  0
VERTEX
  8
0
 10
4905.61279296875
 20
398.72921752929687
 42
-0
  0
VERTEX
  8
0
 10
5142.4267578125
 20
270.10498046875
 42
0.25404500961303711
  0
VERTEX
  8
0
 10
5428.798828125
 20
270.10498046875
 42
-0
  0
VERTEX
  8
0
 10
5665.61279296875
 20
398.72921752929687
 42
-0
  0
VERTEX
  8
0
 10
5790.61279296875
 20
398.72921752929687
 42
-0
  0
VERTEX
  8
0
 10
5790.61279296875
 20
413.72921752929687
 42
-0
  0
VERTEX
  8
0
 10
5740.61279296875
 20
523.729248046875
 42
-0
  0
VERTEX
  8
0
 10
5362.302734375
 20
623.7613525390625
 42
0.12997600436210632
  0
SEQEND
  0
POLYLINE
  8
0
 10
0
 20
0
 39
0
 70
1
 66
1
  0
VERTEX
  8
0
 10
5230.61279296875
 20
373.72921752929687
 42
-1
  0
VERTEX
  8
0
 10
5340.61279296875
 20
373.72921752929687
 42
-1
  0
SEQEND
  0
POLYLINE
  8
0
 10
0
 20
0
 39
0
 70
1
 66
1
  0
VERTEX
  8
0
 10
5863.9501953125
 20
472.05999755859375
 42
-0
  0
VERTEX
  8
0
 10
5818.9501953125
 20
392.05999755859375
 42
-0
  0
VERTEX
  8
0
 10
5818.9501953125
 20
332.05999755859375
 42
-0
  0
VERTEX
  8
0
 10
5863.9501953125
 20
252.05999755859375
 42
-0
  0
VERTEX
  8
0
 10
5983.9501953125
 20
252.05999755859375
 42
-0
  0
VERTEX
  8
0
 10
5983.9501953125
 20
472.05999755859375
 42
-0
  0
SEQEND
  0
POLYLINE
  8
0
 10
0
 20
0
 39
0
 70
1
 66
1
  0
VERTEX
  8
0
 10
5779.07861328125
 20
708.07000732421875
 42
-0
  0
VERTEX
  8
0
 10
5734.07861328125
 20
628.07000732421875
 42
-0
  0
VERTEX
  8
0
 10
5734.07861328125
 20
568.07000732421875
 42
-0
  0
VERTEX
  8
0
 10
5779.07861328125
 20
488.07000732421875
 42
-0
  0
VERTEX
  8
0
 10
5899.07861328125
 20
488.07000732421875
 42
-0
  0
VERTEX
  8
0
 10
5899.07861328125
 20
708.07000732421875
 42
-0
  0
SEQEND
  0
POLYLINE
  8
0
 10
0
 20
0
 39
0
 70
1
 66
1
  0
VERTEX
  8
0
 10
5820.69677734375
 20
944.08001708984375
 42
-0
  0
VERTEX
  8
0
 10
5775.69677734375
 20
864.08001708984375
 42
-0
  0
VERTEX
  8
0
 10
5775.69677734375
 20
804.08001708984375
 42
-0
  0
VERTEX
  8
0
 10
5820.69677734375
 20
724.08001708984375
 42
-0
  0
VERTEX
  8
0
 10
5940.69677734375
 20
724.08001708984375
 42
-0
  0
VERTEX
  8
0
 10
5940.69677734375
 20
944.08001708984375
 42
-0
  0
SEQEND
  0
POLYLINE
  8
0
 10
0
 20
0
 39
0
 70
1
 66
1
  0
VERTEX
  8
0
 10
5804.59423828125
 20
1180.0899658203125
 42
-0
  0
VERTEX
  8
0
 10
5759.59423828125
 20
1100.0899658203125
 42
-0
  0
VERTEX
  8
0
 10
5759.59423828125
 20
1040.0899658203125
 42
-0
  0
VERTEX
  8
0
 10
5804.59423828125
 20
960.0899658203125
 42
-0
  0
VERTEX
  8
0
 10
5924.59423828125
 20
960.0899658203125
 42
-0
  0
VERTEX
  8
0
 10
5924.59423828125
 20
1180.0899658203125
 42
-0
  0
SEQEND
  0
POLYLINE
  8
0
 10
0
 20
0
 39
0
 70
1
 66
1
  0
VERTEX
  8
0
 10
5863.9501953125
 20
1416.0999755859375
 42
-0
  0
VERTEX
  8
0
 10
5818.9501953125
 20
1336.0999755859375
 42
-0
  0
VERTEX
  8
0
 10
5818.9501953125
 20
1276.0999755859375
 42
-0
  0
VERTEX
  8
0
 10
5863.9501953125
 20
1196.0999755859375
 42
-0
  0
VERTEX
  8
0
 10
5983.9501953125
 20
1196.0999755859375
 42
-0
  0
VERTEX
  8
0
 10
5983.9501953125
 20
1416.0999755859375
 42
-0
  0
SEQEND
  0
ENDSEC
  0
EOF
