  0
SECTION
  2
ENTITIES
  0
POLYLINE
  8
0
 10
0
 20
0
 39
0
 70
1
 66
1
  0
VERTEX
  8
0
 10
0
 20
0
 42
0
  0
VERTEX
  8
0
 10
2900
 20
0
 42
0
  0
VERTEX
  8
0
 10
2900
 20
1100
 42
0
  0
VERTEX
  8
0
 10
0
 20
1100
 42
0
  0
SEQEND
  0
POLYLINE
  8
0
 10
0
 20
0
 39
0
 70
1
 66
1
  0
VERTEX
  8
0
 10
349.17959594726562
 20
185.22000122070312
 42
-0
  0
VERTEX
  8
0
 10
260.67959594726562
 20
283.08621215820312
 42
-0
  0
VERTEX
  8
0
 10
150.67959594726562
 20
202.52572631835937
 42
-0
  0
VERTEX
  8
0
 10
10.220000267028809
 20
342.85693359375
 42
-0
  0
VERTEX
  8
0
 10
10.220000267028809
 20
10.220000267028809
 42
-0
  0
VERTEX
  8
0
 10
349.17959594726562
 20
10.220000267028809
 42
-0
  0
SEQEND
  0
POLYLINE
  8
0
 10
0
 20
0
 39
0
 70
1
 66
1
  0
VERTEX
  8
0
 10
10.220000267028809
 20
366.9134521484375
 42
-0
  0
VERTEX
  8
0
 10
98.720001220703125
 20
269.0472412109375
 42
-0
  0
VERTEX
  8
0
 10
208.72000122070312
 20
349.60772705078125
 42
-0
  0
VERTEX
  8
0
 10
349.17959594726562
 20
209.27651977539062
 42
-0
  0
VERTEX
  8
0
 10
349.17959594726562
 20
541.9134521484375
 42
-0
  0
VERTEX
  8
0
 10
10.220000267028809
 20
541.9134521484375
 42
-0
  0
SEQEND
  0
POLYLINE
  8
0
 10
0
 20
0
 39
0
 70
1
 66
1
  0
VERTEX
  8
0
 10
349.17959594726562
 20
726.94000244140625
 42
-0
  0
VERTEX
  8
0
 10
260.67959594726562
 20
824.80621337890625
 42
-0
  0
VERTEX
  8
0
 10
150.67959594726562
 20
744.2457275390625
 42
-0
  0
VERTEX
  8
0
 10
10.220000267028809
 20
884.576904296875
 42
-0
  0
VERTEX
  8
0
 10
10.220000267028809
 20
551.94000244140625
 42
-0
  0
VERTEX
  8
0
 10
349.17959594726562
 20
551.94000244140625
 42
-0
  0
SEQEND
  0
POLYLINE
  8
0
 10
0
 20
0
 39
0
 70
1
 66
1
  0
VERTEX
  8
0
 10
10.220000267028809
 20
908.63348388671875
 42
-0
  0
VERTEX
  8
0
 10
98.720001220703125
 20
810.76727294921875
 42
-0
  0
VERTEX
  8
0
 10
208.72000122070312
 20
891.3277587890625
 42
-0
  0
VERTEX
  8
0
 10
349.17959594726562
 20
750.99652099609375
 42
-0
  0
VERTEX
  8
0
 10
349.17959594726562
 20
1083.6334228515625
 42
-0
  0
VERTEX
  8
0
 10
10.220000267028809
 20
1083.6334228515625
 42
-0
  0
SEQEND
  0
POLYLINE
  8
0
 10
0
 20
0
 39
0
 70
1
 66
1
  0
VERTEX
  8
0
 10
698.339599609375
 20
185.22000122070312
 42
-0
  0
VERTEX
  8
0
 10
609.839599609375
 20
283.08621215820312
 42
-0
  0
VERTEX
  8
0
 10
499.839599609375
 20
202.52572631835937
 42
-0
  0
VERTEX
  8
0
 10
359.3800048828125
 20
342.85693359375
 42
-0
  0
VERTEX
  8
0
 10
359.3800048828125
 20
10.220000267028809
 42
-0
  0
VERTEX
  8
0
 10
698.339599609375
 20
10.220000267028809
 42
-0
  0
SEQEND
  0
POLYLINE
  8
0
 10
0
 20
0
 39
0
 70
1
 66
1
  0
VERTEX
  8
0
 10
359.3800048828125
 20
366.9134521484375
 42
-0
  0
VERTEX
  8
0
 10
447.8800048828125
 20
269.0472412109375
 42
-0
  0
VERTEX
  8
0
 10
557.8800048828125
 20
349.60772705078125
 42
-0
  0
VERTEX
  8
0
 10
698.339599609375
 20
209.27651977539062
 42
-0
  0
VERTEX
  8
0
 10
698.339599609375
 20
541.9134521484375
 42
-0
  0
VERTEX
  8
0
 10
359.3800048828125
 20
541.9134521484375
 42
-0
  0
SEQEND
  0
POLYLINE
  8
0
 10
0
 20
0
 39
0
 70
1
 66
1
  0
VERTEX
  8
0
 10
698.339599609375
 20
726.94000244140625
 42
-0
  0
VERTEX
  8
0
 10
609.839599609375
 20
824.80621337890625
 42
-0
  0
VERTEX
  8
0
 10
499.839599609375
 20
744.2457275390625
 42
-0
  0
VERTEX
  8
0
 10
359.3800048828125
 20
884.576904296875
 42
-0
  0
VERTEX
  8
0
 10
359.3800048828125
 20
551.94000244140625
 42
-0
  0
VERTEX
  8
0
 10
698.339599609375
 20
551.94000244140625
 42
-0
  0
SEQEND
  0
POLYLINE
  8
0
 10
0
 20
0
 39
0
 70
1
 66
1
  0
VERTEX
  8
0
 10
359.3800048828125
 20
908.63348388671875
 42
-0
  0
VERTEX
  8
0
 10
447.8800048828125
 20
810.76727294921875
 42
-0
  0
VERTEX
  8
0
 10
557.8800048828125
 20
891.3277587890625
 42
-0
  0
VERTEX
  8
0
 10
698.339599609375
 20
750.99652099609375
 42
-0
  0
VERTEX
  8
0
 10
698.339599609375
 20
1083.6334228515625
 42
-0
  0
VERTEX
  8
0
 10
359.3800048828125
 20
1083.6334228515625
 42
-0
  0
SEQEND
  0
POLYLINE
  8
0
 10
0
 20
0
 39
0
 70
1
 66
1
  0
VERTEX
  8
0
 10
878.53997802734375
 20
1033.5928955078125
 42
-0
  0
VERTEX
  8
0
 10
708.53997802734375
 20
1033.5928955078125
 42
-0
  0
VERTEX
  8
0
 10
708.53997802734375
 20
417.84805297851562
 42
-0
  0
VERTEX
  8
0
 10
793.53997802734375
 20
509.23269653320312
 42
-0
  0
VERTEX
  8
0
 10
751.03997802734375
 20
540.697021484375
 42
-0
  0
VERTEX
  8
0
 10
797.17071533203125
 20
602.8760986328125
 42
-0
  0
VERTEX
  8
0
 10
751.03997802734375
 20
636.59283447265625
 42
-0
  0
VERTEX
  8
0
 10
813.3004150390625
 20
746.59283447265625
 42
-0
  0
VERTEX
  8
0
 10
878.53997802734375
 20
636.59283447265625
 42
0
  0
SEQEND
  0
POLYLINE
  8
0
 10
0
 20
0
 39
0
 70
1
 66
1
  0
VERTEX
  8
0
 10
708.53997802734375
 20
10.220000267028809
 42
-0
  0
VERTEX
  8
0
 10
878.53997802734375
 20
10.220000267028809
 42
-0
  0
VERTEX
  8
0
 10
878.53997802734375
 20
625.96478271484375
 42
-0
  0
VERTEX
  8
0
 10
793.53997802734375
 20
534.58013916015625
 42
-0
  0
VERTEX
  8
0
 10
836.03997802734375
 20
503.11581420898438
 42
-0
  0
VERTEX
  8
0
 10
789.9093017578125
 20
440.93673706054687
 42
-0
  0
VERTEX
  8
0
 10
836.03997802734375
 20
407.22000122070312
 42
-0
  0
VERTEX
  8
0
 10
773.77960205078125
 20
297.22000122070312
 42
-0
  0
VERTEX
  8
0
 10
708.53997802734375
 20
407.22000122070312
 42
0
  0
SEQEND
  0
POLYLINE
  8
0
 10
0
 20
0
 39
0
 70
1
 66
1
  0
VERTEX
  8
0
 10
1058.9200439453125
 20
1033.5928955078125
 42
-0
  0
VERTEX
  8
0
 10
888.91998291015625
 20
1033.5928955078125
 42
-0
  0
VERTEX
  8
0
 10
888.91998291015625
 20
417.84805297851562
 42
-0
  0
VERTEX
  8
0
 10
973.91998291015625
 20
509.23269653320312
 42
-0
  0
VERTEX
  8
0
 10
931.41998291015625
 20
540.697021484375
 42
-0
  0
VERTEX
  8
0
 10
977.55072021484375
 20
602.8760986328125
 42
-0
  0
VERTEX
  8
0
 10
931.41998291015625
 20
636.59283447265625
 42
-0
  0
VERTEX
  8
0
 10
993.680419921875
 20
746.59283447265625
 42
-0
  0
VERTEX
  8
0
 10
1058.9200439453125
 20
636.59283447265625
 42
0
  0
SEQEND
  0
POLYLINE
  8
0
 10
0
 20
0
 39
0
 70
1
 66
1
  0
VERTEX
  8
0
 10
888.91998291015625
 20
10.220000267028809
 42
-0
  0
VERTEX
  8
0
 10
1058.9200439453125
 20
10.220000267028809
 42
-0
  0
VERTEX
  8
0
 10
1058.9200439453125
 20
625.96478271484375
 42
-0
  0
VERTEX
  8
0
 10
973.91998291015625
 20
534.58013916015625
 42
-0
  0
VERTEX
  8
0
 10
1016.4199829101562
 20
503.11581420898438
 42
-0
  0
VERTEX
  8
0
 10
970.289306640625
 20
440.93673706054687
 42
-0
  0
VERTEX
  8
0
 10
1016.4199829101562
 20
407.22000122070312
 42
-0
  0
VERTEX
  8
0
 10
954.15960693359375
 20
297.22000122070312
 42
-0
  0
VERTEX
  8
0
 10
888.91998291015625
 20
407.22000122070312
 42
0
  0
SEQEND
  0
POLYLINE
  8
0
 10
0
 20
0
 39
0
 70
1
 66
1
  0
VERTEX
  8
0
 10
1239.300048828125
 20
1033.5928955078125
 42
-0
  0
VERTEX
  8
0
 10
1069.300048828125
 20
1033.5928955078125
 42
-0
  0
VERTEX
  8
0
 10
1069.300048828125
 20
417.84805297851562
 42
-0
  0
VERTEX
  8
0
 10
1154.300048828125
 20
509.23269653320312
 42
-0
  0
VERTEX
  8
0
 10
1111.800048828125
 20
540.697021484375
 42
-0
  0
VERTEX
  8
0
 10
1157.9306640625
 20
602.8760986328125
 42
-0
  0
VERTEX
  8
0
 10
1111.800048828125
 20
636.59283447265625
 42
-0
  0
VERTEX
  8
0
 10
1174.0604248046875
 20
746.59283447265625
 42
-0
  0
VERTEX
  8
0
 10
1239.300048828125
 20
636.59283447265625
 42
0
  0
SEQEND
  0
POLYLINE
  8
0
 10
0
 20
0
 39
0
 70
1
 66
1
  0
VERTEX
  8
0
 10
1069.300048828125
 20
10.220000267028809
 42
-0
  0
VERTEX
  8
0
 10
1239.300048828125
 20
10.220000267028809
 42
-0
  0
VERTEX
  8
0
 10
1239.300048828125
 20
625.96478271484375
 42
-0
  0
VERTEX
  8
0
 10
1154.300048828125
 20
534.58013916015625
 42
-0
  0
VERTEX
  8
0
 10
1196.800048828125
 20
503.11581420898438
 42
-0
  0
VERTEX
  8
0
 10
1150.6693115234375
 20
440.93673706054687
 42
-0
  0
VERTEX
  8
0
 10
1196.800048828125
 20
407.22000122070312
 42
-0
  0
VERTEX
  8
0
 10
1134.53955078125
 20
297.22000122070312
 42
-0
  0
VERTEX
  8
0
 10
1069.300048828125
 20
407.22000122070312
 42
0
  0
SEQEND
  0
POLYLINE
  8
0
 10
0
 20
0
 39
0
 70
1
 66
1
  0
VERTEX
  8
0
 10
1419.6800537109375
 20
1033.5928955078125
 42
-0
  0
VERTEX
  8
0
 10
1249.6800537109375
 20
1033.5928955078125
 42
-0
  0
VERTEX
  8
0
 10
1249.6800537109375
 20
417.84805297851562
 42
-0
  0
VERTEX
  8
0
 10
1334.6800537109375
 20
509.23269653320312
 42
-0
  0
VERTEX
  8
0
 10
1292.1800537109375
 20
540.697021484375
 42
-0
  0
VERTEX
  8
0
 10
1338.3106689453125
 20
602.8760986328125
 42
-0
  0
VERTEX
  8
0
 10
1292.1800537109375
 20
636.59283447265625
 42
-0
  0
VERTEX
  8
0
 10
1354.4404296875
 20
746.59283447265625
 42
-0
  0
VERTEX
  8
0
 10
1419.6800537109375
 20
636.59283447265625
 42
0
  0
SEQEND
  0
POLYLINE
  8
0
 10
0
 20
0
 39
0
 70
1
 66
1
  0
VERTEX
  8
0
 10
1249.6800537109375
 20
10.220000267028809
 42
-0
  0
VERTEX
  8
0
 10
1419.6800537109375
 20
10.220000267028809
 42
-0
  0
VERTEX
  8
0
 10
1419.6800537109375
 20
625.96478271484375
 42
-0
  0
VERTEX
  8
0
 10
1334.6800537109375
 20
534.58013916015625
 42
-0
  0
VERTEX
  8
0
 10
1377.1800537109375
 20
503.11581420898438
 42
-0
  0
VERTEX
  8
0
 10
1331.04931640625
 20
440.93673706054687
 42
-0
  0
VERTEX
  8
0
 10
1377.1800537109375
 20
407.22000122070312
 42
-0
  0
VERTEX
  8
0
 10
1314.9195556640625
 20
297.22000122070312
 42
-0
  0
VERTEX
  8
0
 10
1249.6800537109375
 20
407.22000122070312
 42
0
  0
SEQEND
  0
POLYLINE
  8
0
 10
0
 20
0
 39
0
 70
1
 66
1
  0
VERTEX
  8
0
 10
1600.06005859375
 20
1033.5928955078125
 42
-0
  0
VERTEX
  8
0
 10
1430.06005859375
 20
1033.5928955078125
 42
-0
  0
VERTEX
  8
0
 10
1430.06005859375
 20
417.84805297851562
 42
-0
  0
VERTEX
  8
0
 10
1515.06005859375
 20
509.23269653320312
 42
-0
  0
VERTEX
  8
0
 10
1472.56005859375
 20
540.697021484375
 42
-0
  0
VERTEX
  8
0
 10
1518.690673828125
 20
602.8760986328125
 42
-0
  0
VERTEX
  8
0
 10
1472.56005859375
 20
636.59283447265625
 42
-0
  0
VERTEX
  8
0
 10
1534.8204345703125
 20
746.59283447265625
 42
-0
  0
VERTEX
  8
0
 10
1600.06005859375
 20
636.59283447265625
 42
0
  0
SEQEND
  0
POLYLINE
  8
0
 10
0
 20
0
 39
0
 70
1
 66
1
  0
VERTEX
  8
0
 10
1430.06005859375
 20
10.220000267028809
 42
-0
  0
VERTEX
  8
0
 10
1600.06005859375
 20
10.220000267028809
 42
-0
  0
VERTEX
  8
0
 10
1600.06005859375
 20
625.96478271484375
 42
-0
  0
VERTEX
  8
0
 10
1515.06005859375
 20
534.58013916015625
 42
-0
  0
VERTEX
  8
0
 10
1557.56005859375
 20
503.11581420898438
 42
-0
  0
VERTEX
  8
0
 10
1511.4293212890625
 20
440.93673706054687
 42
-0
  0
VERTEX
  8
0
 10
1557.56005859375
 20
407.22000122070312
 42
-0
  0
VERTEX
  8
0
 10
1495.299560546875
 20
297.22000122070312
 42
-0
  0
VERTEX
  8
0
 10
1430.06005859375
 20
407.22000122070312
 42
0
  0
SEQEND
  0
POLYLINE
  8
0
 10
0
 20
0
 39
0
 70
1
 66
1
  0
VERTEX
  8
0
 10
1870.1759033203125
 20
335.22000122070313
 42
-0
  0
VERTEX
  8
0
 10
1757.4241943359375
 20
335.22000122070313
 42
0
  0
VERTEX
  8
0
 10
1610.43994140625
 20
232.84100341796875
 42
0
  0
VERTEX
  8
0
 10
1610.43994140625
 20
83.841011047363281
 42
0
  0
VERTEX
  8
0
 10
1671.6759033203125
 20
18.872859954833984
 42
0
  0
VERTEX
  8
0
 10
1781.6759033203125
 20
104.33547973632812
 42
0
  0
VERTEX
  8
0
 10
1870.1759033203125
 20
10.220000267028809
 42
-0
  0
SEQEND
  0
POLYLINE
  8
0
 10
0
 20
0
 39
0
 70
1
 66
1
  0
VERTEX
  8
0
 10
1610.43994140625
 20
324.38665771484375
 42
-0
  0
VERTEX
  8
0
 10
1723.1917724609375
 20
324.38665771484375
 42
0
  0
VERTEX
  8
0
 10
1870.1759033203125
 20
426.76565551757812
 42
0
  0
VERTEX
  8
0
 10
1870.1759033203125
 20
575.76568603515625
 42
0
  0
VERTEX
  8
0
 10
1808.93994140625
 20
640.73382568359375
 42
0
  0
VERTEX
  8
0
 10
1698.93994140625
 20
555.27117919921875
 42
0
  0
VERTEX
  8
0
 10
1610.43994140625
 20
649.38665771484375
 42
-0
  0
SEQEND
  0
POLYLINE
  8
0
 10
0
 20
0
 39
0
 70
1
 66
1
  0
VERTEX
  8
0
 10
1870.1759033203125
 20
916.1866455078125
 42
-0
  0
VERTEX
  8
0
 10
1757.4241943359375
 20
916.1866455078125
 42
0
  0
VERTEX
  8
0
 10
1610.43994140625
 20
813.80767822265625
 42
0
  0
VERTEX
  8
0
 10
1610.43994140625
 20
664.80767822265625
 42
0
  0
VERTEX
  8
0
 10
1671.6759033203125
 20
599.83953857421875
 42
0
  0
VERTEX
  8
0
 10
1781.6759033203125
 20
685.3021240234375
 42
0
  0
VERTEX
  8
0
 10
1870.1759033203125
 20
591.1866455078125
 42
-0
  0
SEQEND
  0
POLYLINE
  8
0
 10
0
 20
0
 39
0
 70
1
 66
1
  0
VERTEX
  8
0
 10
2140.2626953125
 20
335.22000122070313
 42
-0
  0
VERTEX
  8
0
 10
2027.5108642578125
 20
335.22000122070313
 42
0
  0
VERTEX
  8
0
 10
1880.526611328125
 20
232.84100341796875
 42
0
  0
VERTEX
  8
0
 10
1880.526611328125
 20
83.841011047363281
 42
0
  0
VERTEX
  8
0
 10
1941.7625732421875
 20
18.872859954833984
 42
0
  0
VERTEX
  8
0
 10
2051.7626953125
 20
104.33547973632812
 42
0
  0
VERTEX
  8
0
 10
2140.2626953125
 20
10.220000267028809
 42
-0
  0
SEQEND
  0
POLYLINE
  8
0
 10
0
 20
0
 39
0
 70
1
 66
1
  0
VERTEX
  8
0
 10
1880.526611328125
 20
324.38665771484375
 42
-0
  0
VERTEX
  8
0
 10
1993.2784423828125
 20
324.38665771484375
 42
0
  0
VERTEX
  8
0
 10
2140.2626953125
 20
426.76565551757812
 42
0
  0
VERTEX
  8
0
 10
2140.2626953125
 20
575.76568603515625
 42
0
  0
VERTEX
  8
0
 10
2079.026611328125
 20
640.73382568359375
 42
0
  0
VERTEX
  8
0
 10
1969.026611328125
 20
555.27117919921875
 42
0
  0
VERTEX
  8
0
 10
1880.526611328125
 20
649.38665771484375
 42
-0
  0
SEQEND
  0
POLYLINE
  8
0
 10
0
 20
0
 39
0
 70
1
 66
1
  0
VERTEX
  8
0
 10
2140.2626953125
 20
916.1866455078125
 42
-0
  0
VERTEX
  8
0
 10
2027.5108642578125
 20
916.1866455078125
 42
0
  0
VERTEX
  8
0
 10
1880.526611328125
 20
813.80767822265625
 42
0
  0
VERTEX
  8
0
 10
1880.526611328125
 20
664.80767822265625
 42
0
  0
VERTEX
  8
0
 10
1941.7625732421875
 20
599.83953857421875
 42
0
  0
VERTEX
  8
0
 10
2051.7626953125
 20
685.3021240234375
 42
0
  0
VERTEX
  8
0
 10
2140.2626953125
 20
591.1866455078125
 42
-0
  0
SEQEND
  0
POLYLINE
  8
0
 10
0
 20
0
 39
0
 70
1
 66
1
  0
VERTEX
  8
0
 10
1679.93994140625
 20
1088.2332763671875
 42
-0
  0
VERTEX
  8
0
 10
1610.43994140625
 20
926.23333740234375
 42
0
  0
VERTEX
  8
0
 10
1774.43994140625
 20
926.23333740234375
 42
-0
  0
VERTEX
  8
0
 10
1704.93994140625
 20
1088.2332763671875
 42
0
  0
SEQEND
  0
POLYLINE
  8
0
 10
0
 20
0
 39
0
 70
1
 66
1
  0
VERTEX
  8
0
 10
1810.607666015625
 20
926.23333740234375
 42
-0
  0
VERTEX
  8
0
 10
1880.107666015625
 20
1088.2332763671875
 42
0
  0
VERTEX
  8
0
 10
1716.107666015625
 20
1088.2332763671875
 42
-0
  0
VERTEX
  8
0
 10
1785.607666015625
 20
926.23333740234375
 42
0
  0
SEQEND
  0
POLYLINE
  8
0
 10
0
 20
0
 39
0
 70
1
 66
1
  0
VERTEX
  8
0
 10
1891.6400146484375
 20
1088.2332763671875
 42
-0
  0
VERTEX
  8
0
 10
1822.1400146484375
 20
926.23333740234375
 42
0
  0
VERTEX
  8
0
 10
1986.1400146484375
 20
926.23333740234375
 42
-0
  0
VERTEX
  8
0
 10
1916.6400146484375
 20
1088.2332763671875
 42
0
  0
SEQEND
  0
POLYLINE
  8
0
 10
0
 20
0
 39
0
 70
1
 66
1
  0
VERTEX
  8
0
 10
2022.3077392578125
 20
926.23333740234375
 42
-0
  0
VERTEX
  8
0
 10
2091.8076171875
 20
1088.2332763671875
 42
0
  0
VERTEX
  8
0
 10
1927.8077392578125
 20
1088.2332763671875
 42
-0
  0
VERTEX
  8
0
 10
1997.3077392578125
 20
926.23333740234375
 42
0
  0
SEQEND
  0
POLYLINE
  8
0
 10
0
 20
0
 39
0
 70
1
 66
1
  0
VERTEX
  8
0
 10
2103.340087890625
 20
1088.2332763671875
 42
-0
  0
VERTEX
  8
0
 10
2033.8399658203125
 20
926.23333740234375
 42
0
  0
VERTEX
  8
0
 10
2197.840087890625
 20
926.23333740234375
 42
-0
  0
VERTEX
  8
0
 10
2128.340087890625
 20
1088.2332763671875
 42
0
  0
SEQEND
  0
POLYLINE
  8
0
 10
0
 20
0
 39
0
 70
1
 66
1
  0
VERTEX
  8
0
 10
2234.0078125
 20
926.23333740234375
 42
-0
  0
VERTEX
  8
0
 10
2303.5078125
 20
1088.2332763671875
 42
0
  0
VERTEX
  8
0
 10
2139.5078125
 20
1088.2332763671875
 42
-0
  0
VERTEX
  8
0
 10
2209.0078125
 20
926.23333740234375
 42
0
  0
SEQEND
  0
POLYLINE
  8
0
 10
0
 20
0
 39
0
 70
1
 66
1
  0
VERTEX
  8
0
 10
2312.61328125
 20
210.38771057128906
 42
-0
  0
VERTEX
  8
0
 10
2150.61328125
 20
279.88772583007812
 42
0
  0
VERTEX
  8
0
 10
2150.61328125
 20
115.88771057128906
 42
-0
  0
VERTEX
  8
0
 10
2312.61328125
 20
185.38771057128906
 42
0
  0
SEQEND
  0
POLYLINE
  8
0
 10
0
 20
0
 39
0
 70
1
 66
1
  0
VERTEX
  8
0
 10
2150.61328125
 20
79.720001220703125
 42
-0
  0
VERTEX
  8
0
 10
2312.61328125
 20
10.220000267028809
 42
0
  0
VERTEX
  8
0
 10
2312.61328125
 20
174.22000122070312
 42
-0
  0
VERTEX
  8
0
 10
2150.61328125
 20
104.72000122070312
 42
0
  0
SEQEND
  0
POLYLINE
  8
0
 10
0
 20
0
 39
0
 70
1
 66
1
  0
VERTEX
  8
0
 10
2312.61328125
 20
422.08770751953125
 42
-0
  0
VERTEX
  8
0
 10
2150.61328125
 20
491.58770751953125
 42
0
  0
VERTEX
  8
0
 10
2150.61328125
 20
327.58770751953125
 42
-0
  0
VERTEX
  8
0
 10
2312.61328125
 20
397.08770751953125
 42
0
  0
SEQEND
  0
POLYLINE
  8
0
 10
0
 20
0
 39
0
 70
1
 66
1
  0
VERTEX
  8
0
 10
2150.61328125
 20
291.42001342773437
 42
-0
  0
VERTEX
  8
0
 10
2312.61328125
 20
221.91999816894531
 42
0
  0
VERTEX
  8
0
 10
2312.61328125
 20
385.92001342773437
 42
-0
  0
VERTEX
  8
0
 10
2150.61328125
 20
316.42001342773437
 42
0
  0
SEQEND
  0
POLYLINE
  8
0
 10
0
 20
0
 39
0
 70
1
 66
1
  0
VERTEX
  8
0
 10
2312.61328125
 20
633.7877197265625
 42
-0
  0
VERTEX
  8
0
 10
2150.61328125
 20
703.2877197265625
 42
0
  0
VERTEX
  8
0
 10
2150.61328125
 20
539.2877197265625
 42
-0
  0
VERTEX
  8
0
 10
2312.61328125
 20
608.7877197265625
 42
0
  0
SEQEND
  0
POLYLINE
  8
0
 10
0
 20
0
 39
0
 70
1
 66
1
  0
VERTEX
  8
0
 10
2150.61328125
 20
503.1199951171875
 42
-0
  0
VERTEX
  8
0
 10
2312.61328125
 20
433.6199951171875
 42
0
  0
VERTEX
  8
0
 10
2312.61328125
 20
597.6199951171875
 42
-0
  0
VERTEX
  8
0
 10
2150.61328125
 20
528.1199951171875
 42
0
  0
SEQEND
  0
POLYLINE
  8
0
 10
0
 20
0
 39
0
 70
1
 66
1
  0
VERTEX
  8
0
 10
2312.61328125
 20
845.48773193359375
 42
-0
  0
VERTEX
  8
0
 10
2150.61328125
 20
914.98773193359375
 42
0
  0
VERTEX
  8
0
 10
2150.61328125
 20
750.98773193359375
 42
-0
  0
VERTEX
  8
0
 10
2312.61328125
 20
820.48773193359375
 42
0
  0
SEQEND
  0
POLYLINE
  8
0
 10
0
 20
0
 39
0
 70
1
 66
1
  0
VERTEX
  8
0
 10
2150.61328125
 20
714.82000732421875
 42
-0
  0
VERTEX
  8
0
 10
2312.61328125
 20
645.32000732421875
 42
0
  0
VERTEX
  8
0
 10
2312.61328125
 20
809.32000732421875
 42
-0
  0
VERTEX
  8
0
 10
2150.61328125
 20
739.82000732421875
 42
0
  0
SEQEND
  0
POLYLINE
  8
0
 10
0
 20
0
 39
0
 70
1
 66
1
  0
VERTEX
  8
0
 10
2465.3466796875
 20
991.647705078125
 42
-0
  0
VERTEX
  8
0
 10
2303.3466796875
 20
1061.147705078125
 42
0
  0
VERTEX
  8
0
 10
2303.3466796875
 20
897.147705078125
 42
-0
  0
VERTEX
  8
0
 10
2465.3466796875
 20
966.647705078125
 42
0
  0
SEQEND
  0
POLYLINE
  8
0
 10
0
 20
0
 39
0
 70
1
 66
1
  0
VERTEX
  8
0
 10
2303.3466796875
 20
860.97998046875
 42
-0
  0
VERTEX
  8
0
 10
2465.3466796875
 20
791.47998046875
 42
0
  0
VERTEX
  8
0
 10
2465.3466796875
 20
955.47998046875
 42
-0
  0
VERTEX
  8
0
 10
2303.3466796875
 20
885.97998046875
 42
0
  0
SEQEND
  0
POLYLINE
  8
0
 10
0
 20
0
 39
0
 70
1
 66
1
  0
VERTEX
  8
0
 10
2484.873291015625
 20
210.38771057128906
 42
-0
  0
VERTEX
  8
0
 10
2322.873291015625
 20
279.88772583007812
 42
0
  0
VERTEX
  8
0
 10
2322.873291015625
 20
115.88771057128906
 42
-0
  0
VERTEX
  8
0
 10
2484.873291015625
 20
185.38771057128906
 42
0
  0
SEQEND
  0
POLYLINE
  8
0
 10
0
 20
0
 39
0
 70
1
 66
1
  0
VERTEX
  8
0
 10
2322.873291015625
 20
79.720001220703125
 42
-0
  0
VERTEX
  8
0
 10
2484.873291015625
 20
10.220000267028809
 42
0
  0
VERTEX
  8
0
 10
2484.873291015625
 20
174.22000122070312
 42
-0
  0
VERTEX
  8
0
 10
2322.873291015625
 20
104.72000122070312
 42
0
  0
SEQEND
  0
POLYLINE
  8
0
 10
0
 20
0
 39
0
 70
1
 66
1
  0
VERTEX
  8
0
 10
2484.873291015625
 20
422.08770751953125
 42
-0
  0
VERTEX
  8
0
 10
2322.873291015625
 20
491.58770751953125
 42
0
  0
VERTEX
  8
0
 10
2322.873291015625
 20
327.58770751953125
 42
-0
  0
VERTEX
  8
0
 10
2484.873291015625
 20
397.08770751953125
 42
0
  0
SEQEND
  0
POLYLINE
  8
0
 10
0
 20
0
 39
0
 70
1
 66
1
  0
VERTEX
  8
0
 10
2322.873291015625
 20
291.42001342773437
 42
-0
  0
VERTEX
  8
0
 10
2484.873291015625
 20
221.91999816894531
 42
0
  0
VERTEX
  8
0
 10
2484.873291015625
 20
385.92001342773437
 42
-0
  0
VERTEX
  8
0
 10
2322.873291015625
 20
316.42001342773437
 42
0
  0
SEQEND
  0
POLYLINE
  8
0
 10
0
 20
0
 39
0
 70
1
 66
1
  0
VERTEX
  8
0
 10
2484.873291015625
 20
633.7877197265625
 42
-0
  0
VERTEX
  8
0
 10
2322.873291015625
 20
703.2877197265625
 42
0
  0
VERTEX
  8
0
 10
2322.873291015625
 20
539.2877197265625
 42
-0
  0
VERTEX
  8
0
 10
2484.873291015625
 20
608.7877197265625
 42
0
  0
SEQEND
  0
POLYLINE
  8
0
 10
0
 20
0
 39
0
 70
1
 66
1
  0
VERTEX
  8
0
 10
2322.873291015625
 20
503.1199951171875
 42
-0
  0
VERTEX
  8
0
 10
2484.873291015625
 20
433.6199951171875
 42
0
  0
VERTEX
  8
0
 10
2484.873291015625
 20
597.6199951171875
 42
-0
  0
VERTEX
  8
0
 10
2322.873291015625
 20
528.1199951171875
 42
0
  0
SEQEND
  0
POLYLINE
  8
0
 10
0
 20
0
 39
0
 70
1
 66
1
  0
VERTEX
  8
0
 10
2489.051025390625
 20
838.6866455078125
 42
0
  0
VERTEX
  8
0
 10
2442.159912109375
 20
663.6866455078125
 42
0
  0
VERTEX
  8
0
 10
2617.159912109375
 20
663.6866455078125
 42
0
  0
VERTEX
  8
0
 10
2617.159912109375
 20
903.6866455078125
 42
0
  0
SEQEND
  0
POLYLINE
  8
0
 10
0
 20
0
 39
0
 70
1
 66
1
  0
VERTEX
  8
0
 10
2603.715576171875
 20
908.87335205078125
 42
0
  0
VERTEX
  8
0
 10
2650.606689453125
 20
1083.873291015625
 42
0
  0
VERTEX
  8
0
 10
2475.606689453125
 20
1083.873291015625
 42
0
  0
VERTEX
  8
0
 10
2475.606689453125
 20
843.87335205078125
 42
0
  0
SEQEND
  0
POLYLINE
  8
0
 10
0
 20
0
 39
0
 70
1
 66
1
  0
VERTEX
  8
0
 10
2541.057861328125
 20
390.54000854492187
 42
0
  0
VERTEX
  8
0
 10
2494.166748046875
 20
215.53999328613281
 42
0
  0
VERTEX
  8
0
 10
2669.166748046875
 20
215.53999328613281
 42
0
  0
VERTEX
  8
0
 10
2669.166748046875
 20
455.54000854492187
 42
0
  0
SEQEND
  0
POLYLINE
  8
0
 10
0
 20
0
 39
0
 70
1
 66
1
  0
VERTEX
  8
0
 10
2623.2421875
 20
444.10000610351562
 42
0
  0
VERTEX
  8
0
 10
2670.13330078125
 20
619.0999755859375
 42
0
  0
VERTEX
  8
0
 10
2495.13330078125
 20
619.0999755859375
 42
0
  0
VERTEX
  8
0
 10
2495.13330078125
 20
379.10000610351562
 42
0
  0
SEQEND
  0
POLYLINE
  8
0
 10
0
 20
0
 39
0
 70
1
 66
1
  0
VERTEX
  8
0
 10
2560.13330078125
 20
57.111110687255859
 42
0
  0
VERTEX
  8
0
 10
2735.13330078125
 20
10.220000267028809
 42
0
  0
VERTEX
  8
0
 10
2735.13330078125
 20
185.22000122070312
 42
0
  0
VERTEX
  8
0
 10
2495.13330078125
 20
185.22000122070312
 42
0
  0
SEQEND
  0
POLYLINE
  8
0
 10
0
 20
0
 39
0
 70
1
 66
1
  0
VERTEX
  8
0
 10
2665.7578125
 20
804.2733154296875
 42
0
  0
VERTEX
  8
0
 10
2618.86669921875
 20
629.2733154296875
 42
0
  0
VERTEX
  8
0
 10
2793.86669921875
 20
629.2733154296875
 42
0
  0
VERTEX
  8
0
 10
2793.86669921875
 20
869.2733154296875
 42
0
  0
SEQEND
  0
POLYLINE
  8
0
 10
0
 20
0
 39
0
 70
1
 66
1
  0
VERTEX
  8
0
 10
2780.422119140625
 20
874.46002197265625
 42
0
  0
VERTEX
  8
0
 10
2827.313232421875
 20
1049.4599609375
 42
0
  0
VERTEX
  8
0
 10
2652.313232421875
 20
1049.4599609375
 42
0
  0
VERTEX
  8
0
 10
2652.313232421875
 20
809.46002197265625
 42
0
  0
SEQEND
  0
POLYLINE
  8
0
 10
0
 20
0
 39
0
 70
1
 66
1
  0
VERTEX
  8
0
 10
2721.631103515625
 20
370.239990234375
 42
0
  0
VERTEX
  8
0
 10
2674.739990234375
 20
195.24000549316406
 42
0
  0
VERTEX
  8
0
 10
2849.739990234375
 20
195.24000549316406
 42
0
  0
VERTEX
  8
0
 10
2849.739990234375
 20
435.239990234375
 42
0
  0
SEQEND
  0
POLYLINE
  8
0
 10
0
 20
0
 39
0
 70
1
 66
1
  0
VERTEX
  8
0
 10
2807.48876953125
 20
425.73333740234375
 42
0
  0
VERTEX
  8
0
 10
2854.3798828125
 20
600.73333740234375
 42
0
  0
VERTEX
  8
0
 10
2679.3798828125
 20
600.73333740234375
 42
0
  0
VERTEX
  8
0
 10
2679.3798828125
 20
360.73333740234375
 42
0
  0
SEQEND
  0
POLYLINE
  8
0
 10
0
 20
0
 39
0
 70
1
 66
1
  0
VERTEX
  8
0
 10
2397.873291015625
 20
742.19903564453125
 42
0
  0
VERTEX
  8
0
 10
2407.873291015625
 20
742.19903564453125
 42
0
  0
VERTEX
  8
0
 10
2407.873291015625
 20
802.19903564453125
 42
0
  0
VERTEX
  8
0
 10
2322.873291015625
 20
802.19903564453125
 42
0
  0
VERTEX
  8
0
 10
2322.873291015625
 20
792.19903564453125
 42
0
  0
SEQEND
  0
POLYLINE
  8
0
 10
0
 20
0
 39
0
 70
1
 66
1
  0
VERTEX
  8
0
 10
2332.873291015625
 20
773.37335205078125
 42
0
  0
VERTEX
  8
0
 10
2322.873291015625
 20
773.37335205078125
 42
0
  0
VERTEX
  8
0
 10
2322.873291015625
 20
713.37335205078125
 42
0
  0
VERTEX
  8
0
 10
2407.873291015625
 20
713.37335205078125
 42
0
  0
VERTEX
  8
0
 10
2407.873291015625
 20
723.37335205078125
 42
0
  0
SEQEND
  0
POLYLINE
  8
0
 10
0
 20
0
 39
0
 70
1
 66
1
  0
VERTEX
  8
0
 10
2820.5
 20
39.04571533203125
 42
0
  0
VERTEX
  8
0
 10
2830.5
 20
39.04571533203125
 42
0
  0
VERTEX
  8
0
 10
2830.5
 20
99.04571533203125
 42
0
  0
VERTEX
  8
0
 10
2745.5
 20
99.04571533203125
 42
0
  0
VERTEX
  8
0
 10
2745.5
 20
89.04571533203125
 42
0
  0
SEQEND
  0
POLYLINE
  8
0
 10
0
 20
0
 39
0
 70
1
 66
1
  0
VERTEX
  8
0
 10
2755.5
 20
70.220001220703125
 42
0
  0
VERTEX
  8
0
 10
2745.5
 20
70.220001220703125
 42
0
  0
VERTEX
  8
0
 10
2745.5
 20
10.220000267028809
 42
0
  0
VERTEX
  8
0
 10
2830.5
 20
10.220000267028809
 42
0
  0
VERTEX
  8
0
 10
2830.5
 20
20.219999313354492
 42
0
  0
SEQEND
  0
POLYLINE
  8
0
 10
0
 20
0
 39
0
 70
1
 66
1
  0
VERTEX
  8
0
 10
2879.080078125
 20
639.73236083984375
 42
0
  0
VERTEX
  8
0
 10
2889.080078125
 20
639.73236083984375
 42
0
  0
VERTEX
  8
0
 10
2889.080078125
 20
699.73236083984375
 42
0
  0
VERTEX
  8
0
 10
2804.080078125
 20
699.73236083984375
 42
0
  0
VERTEX
  8
0
 10
2804.080078125
 20
689.73236083984375
 42
0
  0
SEQEND
  0
POLYLINE
  8
0
 10
0
 20
0
 39
0
 70
1
 66
1
  0
VERTEX
  8
0
 10
2814.080078125
 20
670.90667724609375
 42
0
  0
VERTEX
  8
0
 10
2804.080078125
 20
670.90667724609375
 42
0
  0
VERTEX
  8
0
 10
2804.080078125
 20
610.90667724609375
 42
0
  0
VERTEX
  8
0
 10
2889.080078125
 20
610.90667724609375
 42
0
  0
VERTEX
  8
0
 10
2889.080078125
 20
620.90667724609375
 42
0
  0
SEQEND
  0
POLYLINE
  8
0
 10
0
 20
0
 39
0
 70
1
 66
1
  0
VERTEX
  8
0
 10
2879.080078125
 20
738.71905517578125
 42
0
  0
VERTEX
  8
0
 10
2889.080078125
 20
738.71905517578125
 42
0
  0
VERTEX
  8
0
 10
2889.080078125
 20
798.71905517578125
 42
0
  0
VERTEX
  8
0
 10
2804.080078125
 20
798.71905517578125
 42
0
  0
VERTEX
  8
0
 10
2804.080078125
 20
788.71905517578125
 42
0
  0
SEQEND
  0
POLYLINE
  8
0
 10
0
 20
0
 39
0
 70
1
 66
1
  0
VERTEX
  8
0
 10
2814.080078125
 20
769.893310546875
 42
0
  0
VERTEX
  8
0
 10
2804.080078125
 20
769.893310546875
 42
0
  0
VERTEX
  8
0
 10
2804.080078125
 20
709.893310546875
 42
0
  0
VERTEX
  8
0
 10
2889.080078125
 20
709.893310546875
 42
0
  0
VERTEX
  8
0
 10
2889.080078125
 20
719.893310546875
 42
0
  0
SEQEND
  0
POLYLINE
  8
0
 10
0
 20
0
 39
0
 70
1
 66
1
  0
VERTEX
  8
0
 10
2879.080078125
 20
837.7056884765625
 42
0
  0
VERTEX
  8
0
 10
2889.080078125
 20
837.7056884765625
 42
0
  0
VERTEX
  8
0
 10
2889.080078125
 20
897.7056884765625
 42
0
  0
VERTEX
  8
0
 10
2804.080078125
 20
897.7056884765625
 42
0
  0
VERTEX
  8
0
 10
2804.080078125
 20
887.7056884765625
 42
0
  0
SEQEND
  0
POLYLINE
  8
0
 10
0
 20
0
 39
0
 70
1
 66
1
  0
VERTEX
  8
0
 10
2814.080078125
 20
868.8800048828125
 42
0
  0
VERTEX
  8
0
 10
2804.080078125
 20
868.8800048828125
 42
0
  0
VERTEX
  8
0
 10
2804.080078125
 20
808.8800048828125
 42
0
  0
VERTEX
  8
0
 10
2889.080078125
 20
808.8800048828125
 42
0
  0
VERTEX
  8
0
 10
2889.080078125
 20
818.8800048828125
 42
0
  0
SEQEND
  0
POLYLINE
  8
0
 10
0
 20
0
 39
0
 70
1
 66
1
  0
VERTEX
  8
0
 10
1625.1199951171875
 20
1029.473388671875
 42
0
  0
VERTEX
  8
0
 10
1635.1199951171875
 20
1029.473388671875
 42
0
  0
VERTEX
  8
0
 10
1635.1199951171875
 20
1089.473388671875
 42
0
  0
VERTEX
  8
0
 10
1550.1199951171875
 20
1089.473388671875
 42
0
  0
VERTEX
  8
0
 10
1550.1199951171875
 20
1079.473388671875
 42
0
  0
SEQEND
  0
POLYLINE
  8
0
 10
0
 20
0
 39
0
 70
1
 66
1
  0
VERTEX
  8
0
 10
1764.8599853515625
 20
70.220001220703125
 42
0
  0
VERTEX
  8
0
 10
1754.8599853515625
 20
70.220001220703125
 42
0
  0
VERTEX
  8
0
 10
1754.8599853515625
 20
10.220000267028809
 42
0
  0
VERTEX
  8
0
 10
1839.8599853515625
 20
10.220000267028809
 42
0
  0
VERTEX
  8
0
 10
1839.8599853515625
 20
20.219999313354492
 42
0
  0
SEQEND
  0
POLYLINE
  8
0
 10
0
 20
0
 39
0
 70
1
 66
1
  0
VERTEX
  8
0
 10
2034.9466552734375
 20
70.220001220703125
 42
0
  0
VERTEX
  8
0
 10
2024.9466552734375
 20
70.220001220703125
 42
0
  0
VERTEX
  8
0
 10
2024.9466552734375
 20
10.220000267028809
 42
0
  0
VERTEX
  8
0
 10
2109.94677734375
 20
10.220000267028809
 42
0
  0
VERTEX
  8
0
 10
2109.94677734375
 20
20.219999313354492
 42
0
  0
SEQEND
  0
POLYLINE
  8
0
 10
0
 20
0
 39
0
 70
1
 66
1
  0
VERTEX
  8
0
 10
2230.6533203125
 20
902.2066650390625
 42
0
  0
VERTEX
  8
0
 10
2230.6533203125
 20
892.2066650390625
 42
0
  0
VERTEX
  8
0
 10
2290.6533203125
 20
892.2066650390625
 42
0
  0
VERTEX
  8
0
 10
2290.6533203125
 20
977.2066650390625
 42
0
  0
VERTEX
  8
0
 10
2280.6533203125
 20
977.2066650390625
 42
0
  0
SEQEND
  0
POLYLINE
  8
0
 10
0
 20
0
 39
0
 70
1
 66
1
  0
VERTEX
  8
0
 10
2404.06005859375
 20
1029.473388671875
 42
0
  0
VERTEX
  8
0
 10
2414.06005859375
 20
1029.473388671875
 42
0
  0
VERTEX
  8
0
 10
2414.06005859375
 20
1089.473388671875
 42
0
  0
VERTEX
  8
0
 10
2329.06005859375
 20
1089.473388671875
 42
0
  0
VERTEX
  8
0
 10
2329.06005859375
 20
1079.473388671875
 42
0
  0
SEQEND
  0
POLYLINE
  8
0
 10
0
 20
0
 39
0
 70
1
 66
1
  0
VERTEX
  8
0
 10
2505.13330078125
 20
70.220001220703125
 42
0
  0
VERTEX
  8
0
 10
2495.13330078125
 20
70.220001220703125
 42
0
  0
VERTEX
  8
0
 10
2495.13330078125
 20
10.220000267028809
 42
0
  0
VERTEX
  8
0
 10
2580.13330078125
 20
10.220000267028809
 42
0
  0
VERTEX
  8
0
 10
2580.13330078125
 20
20.219999313354492
 42
0
  0
SEQEND
  0
POLYLINE
  8
0
 10
0
 20
0
 39
0
 70
1
 66
1
  0
VERTEX
  8
0
 10
2820.5
 20
109.2066650390625
 42
0
  0
VERTEX
  8
0
 10
2830.5
 20
109.2066650390625
 42
0
  0
VERTEX
  8
0
 10
2830.5
 20
169.2066650390625
 42
0
  0
VERTEX
  8
0
 10
2745.5
 20
169.2066650390625
 42
0
  0
VERTEX
  8
0
 10
2745.5
 20
159.2066650390625
 42
0
  0
SEQEND
  0
POLYLINE
  8
0
 10
0
 20
0
 39
0
 70
1
 66
1
  0
VERTEX
  8
0
 10
2803.11328125
 20
917.86663818359375
 42
0
  0
VERTEX
  8
0
 10
2803.11328125
 20
907.86663818359375
 42
0
  0
VERTEX
  8
0
 10
2863.11328125
 20
907.86663818359375
 42
0
  0
VERTEX
  8
0
 10
2863.11328125
 20
992.86663818359375
 42
0
  0
VERTEX
  8
0
 10
2853.11328125
 20
992.86663818359375
 42
0
  0
SEQEND
  0
POLYLINE
  8
0
 10
0
 20
0
 39
0
 70
1
 66
1
  0
VERTEX
  8
0
 10
2876.179931640625
 20
1029.473388671875
 42
0
  0
VERTEX
  8
0
 10
2886.179931640625
 20
1029.473388671875
 42
0
  0
VERTEX
  8
0
 10
2886.179931640625
 20
1089.473388671875
 42
0
  0
VERTEX
  8
0
 10
2801.179931640625
 20
1089.473388671875
 42
0
  0
VERTEX
  8
0
 10
2801.179931640625
 20
1079.473388671875
 42
0
  0
SEQEND
  0
POLYLINE
  8
0
 10
0
 20
0
 39
0
 70
1
 66
1
  0
VERTEX
  8
0
 10
2826.506591796875
 20
455.413330078125
 42
0
  0
VERTEX
  8
0
 10
2826.506591796875
 20
445.413330078125
 42
0
  0
VERTEX
  8
0
 10
2886.506591796875
 20
445.413330078125
 42
0
  0
VERTEX
  8
0
 10
2886.506591796875
 20
530.413330078125
 42
0
  0
VERTEX
  8
0
 10
2876.506591796875
 20
530.413330078125
 42
0
  0
SEQEND
  0
POLYLINE
  8
0
 10
0
 20
0
 39
0
 70
1
 66
1
  0
VERTEX
  8
0
 10
187.30000305175781
 20
315.75332641601562
 42
0
  0
VERTEX
  8
0
 10
112.30000305175781
 20
265.75332641601562
 42
0
  0
VERTEX
  8
0
 10
112.30000305175781
 20
255.75332641601562
 42
0
  0
VERTEX
  8
0
 10
197.30000305175781
 20
255.75332641601562
 42
0
  0
VERTEX
  8
0
 10
197.30000305175781
 20
315.75332641601562
 42
0
  0
SEQEND
  0
POLYLINE
  8
0
 10
0
 20
0
 39
0
 70
1
 66
1
  0
VERTEX
  8
0
 10
187.30000305175781
 20
857.47332763671875
 42
0
  0
VERTEX
  8
0
 10
112.30000305175781
 20
807.47332763671875
 42
0
  0
VERTEX
  8
0
 10
112.30000305175781
 20
797.47332763671875
 42
0
  0
VERTEX
  8
0
 10
197.30000305175781
 20
797.47332763671875
 42
0
  0
VERTEX
  8
0
 10
197.30000305175781
 20
857.47332763671875
 42
0
  0
SEQEND
  0
POLYLINE
  8
0
 10
0
 20
0
 39
0
 70
1
 66
1
  0
VERTEX
  8
0
 10
2843.813232421875
 20
30.471284866333008
 42
-0
  0
VERTEX
  8
0
 10
2887.813232421875
 20
74.471282958984375
 42
0
  0
VERTEX
  8
0
 10
2887.813232421875
 20
77.471282958984375
 42
0
  0
VERTEX
  8
0
 10
2845.813232421875
 20
77.471282958984375
 42
0
  0
VERTEX
  8
0
 10
2840.813232421875
 20
72.471282958984375
 42
0
  0
VERTEX
  8
0
 10
2840.813232421875
 20
30.471284866333008
 42
0
  0
SEQEND
  0
POLYLINE
  8
0
 10
0
 20
0
 39
0
 70
1
 66
1
  0
VERTEX
  8
0
 10
2884.813232421875
 20
57.220001220703125
 42
-0
  0
VERTEX
  8
0
 10
2840.813232421875
 20
13.220000267028809
 42
0
  0
VERTEX
  8
0
 10
2840.813232421875
 20
10.220000267028809
 42
0
  0
VERTEX
  8
0
 10
2882.813232421875
 20
10.220000267028809
 42
0
  0
VERTEX
  8
0
 10
2887.813232421875
 20
15.220000267028809
 42
0
  0
VERTEX
  8
0
 10
2887.813232421875
 20
57.220001220703125
 42
0
  0
SEQEND
  0
POLYLINE
  8
0
 10
0
 20
0
 39
0
 70
1
 66
1
  0
VERTEX
  8
0
 10
2843.813232421875
 20
107.80461883544922
 42
-0
  0
VERTEX
  8
0
 10
2887.813232421875
 20
151.80462646484375
 42
0
  0
VERTEX
  8
0
 10
2887.813232421875
 20
154.80462646484375
 42
0
  0
VERTEX
  8
0
 10
2845.813232421875
 20
154.80462646484375
 42
0
  0
VERTEX
  8
0
 10
2840.813232421875
 20
149.80462646484375
 42
0
  0
VERTEX
  8
0
 10
2840.813232421875
 20
107.80461883544922
 42
0
  0
SEQEND
  0
POLYLINE
  8
0
 10
0
 20
0
 39
0
 70
1
 66
1
  0
VERTEX
  8
0
 10
2884.813232421875
 20
134.55332946777344
 42
-0
  0
VERTEX
  8
0
 10
2840.813232421875
 20
90.553337097167969
 42
0
  0
VERTEX
  8
0
 10
2840.813232421875
 20
87.553337097167969
 42
0
  0
VERTEX
  8
0
 10
2882.813232421875
 20
87.553337097167969
 42
0
  0
VERTEX
  8
0
 10
2887.813232421875
 20
92.553337097167969
 42
0
  0
VERTEX
  8
0
 10
2887.813232421875
 20
134.55332946777344
 42
0
  0
SEQEND
  0
POLYLINE
  8
0
 10
0
 20
0
 39
0
 70
1
 66
1
  0
VERTEX
  8
0
 10
746.5333251953125
 20
410.82666015625
 42
0
  0
VERTEX
  8
0
 10
743.5333251953125
 20
410.82666015625
 42
0
  0
VERTEX
  8
0
 10
743.5333251953125
 20
368.82666015625
 42
0
  0
VERTEX
  8
0
 10
748.5333251953125
 20
363.82666015625
 42
0
  0
VERTEX
  8
0
 10
790.5333251953125
 20
363.82666015625
 42
0
  0
VERTEX
  8
0
 10
790.5333251953125
 20
366.82666015625
 42
-0
  0
SEQEND
  0
POLYLINE
  8
0
 10
0
 20
0
 39
0
 70
1
 66
1
  0
VERTEX
  8
0
 10
787.5333251953125
 20
384.07794189453125
 42
0
  0
VERTEX
  8
0
 10
790.5333251953125
 20
384.07794189453125
 42
0
  0
VERTEX
  8
0
 10
790.5333251953125
 20
426.07794189453125
 42
0
  0
VERTEX
  8
0
 10
785.5333251953125
 20
431.07794189453125
 42
0
  0
VERTEX
  8
0
 10
743.5333251953125
 20
431.07794189453125
 42
0
  0
VERTEX
  8
0
 10
743.5333251953125
 20
428.07794189453125
 42
-0
  0
SEQEND
  0
POLYLINE
  8
0
 10
0
 20
0
 39
0
 70
1
 66
1
  0
VERTEX
  8
0
 10
793.32000732421875
 20
664.28668212890625
 42
0
  0
VERTEX
  8
0
 10
790.32000732421875
 20
664.28668212890625
 42
0
  0
VERTEX
  8
0
 10
790.32000732421875
 20
622.28668212890625
 42
0
  0
VERTEX
  8
0
 10
795.32000732421875
 20
617.28668212890625
 42
0
  0
VERTEX
  8
0
 10
837.32000732421875
 20
617.28668212890625
 42
0
  0
VERTEX
  8
0
 10
837.32000732421875
 20
620.28668212890625
 42
-0
  0
SEQEND
  0
POLYLINE
  8
0
 10
0
 20
0
 39
0
 70
1
 66
1
  0
VERTEX
  8
0
 10
834.32000732421875
 20
637.5379638671875
 42
0
  0
VERTEX
  8
0
 10
837.32000732421875
 20
637.5379638671875
 42
0
  0
VERTEX
  8
0
 10
837.32000732421875
 20
679.5379638671875
 42
0
  0
VERTEX
  8
0
 10
832.32000732421875
 20
684.5379638671875
 42
0
  0
VERTEX
  8
0
 10
790.32000732421875
 20
684.5379638671875
 42
0
  0
VERTEX
  8
0
 10
790.32000732421875
 20
681.5379638671875
 42
-0
  0
SEQEND
  0
POLYLINE
  8
0
 10
0
 20
0
 39
0
 70
1
 66
1
  0
VERTEX
  8
0
 10
926.913330078125
 20
410.82666015625
 42
0
  0
VERTEX
  8
0
 10
923.913330078125
 20
410.82666015625
 42
0
  0
VERTEX
  8
0
 10
923.913330078125
 20
368.82666015625
 42
0
  0
VERTEX
  8
0
 10
928.913330078125
 20
363.82666015625
 42
0
  0
VERTEX
  8
0
 10
970.913330078125
 20
363.82666015625
 42
0
  0
VERTEX
  8
0
 10
970.913330078125
 20
366.82666015625
 42
-0
  0
SEQEND
  0
POLYLINE
  8
0
 10
0
 20
0
 39
0
 70
1
 66
1
  0
VERTEX
  8
0
 10
967.913330078125
 20
384.07794189453125
 42
0
  0
VERTEX
  8
0
 10
970.913330078125
 20
384.07794189453125
 42
0
  0
VERTEX
  8
0
 10
970.913330078125
 20
426.07794189453125
 42
0
  0
VERTEX
  8
0
 10
965.913330078125
 20
431.07794189453125
 42
0
  0
VERTEX
  8
0
 10
923.913330078125
 20
431.07794189453125
 42
0
  0
VERTEX
  8
0
 10
923.913330078125
 20
428.07794189453125
 42
-0
  0
SEQEND
  0
POLYLINE
  8
0
 10
0
 20
0
 39
0
 70
1
 66
1
  0
VERTEX
  8
0
 10
973.70001220703125
 20
664.28668212890625
 42
0
  0
VERTEX
  8
0
 10
970.70001220703125
 20
664.28668212890625
 42
0
  0
VERTEX
  8
0
 10
970.70001220703125
 20
622.28668212890625
 42
0
  0
VERTEX
  8
0
 10
975.70001220703125
 20
617.28668212890625
 42
0
  0
VERTEX
  8
0
 10
1017.7000122070312
 20
617.28668212890625
 42
0
  0
VERTEX
  8
0
 10
1017.7000122070312
 20
620.28668212890625
 42
-0
  0
SEQEND
  0
POLYLINE
  8
0
 10
0
 20
0
 39
0
 70
1
 66
1
  0
VERTEX
  8
0
 10
1014.7000122070312
 20
637.5379638671875
 42
0
  0
VERTEX
  8
0
 10
1017.7000122070312
 20
637.5379638671875
 42
0
  0
VERTEX
  8
0
 10
1017.7000122070312
 20
679.5379638671875
 42
0
  0
VERTEX
  8
0
 10
1012.7000122070312
 20
684.5379638671875
 42
0
  0
VERTEX
  8
0
 10
970.70001220703125
 20
684.5379638671875
 42
0
  0
VERTEX
  8
0
 10
970.70001220703125
 20
681.5379638671875
 42
-0
  0
SEQEND
  0
POLYLINE
  8
0
 10
0
 20
0
 39
0
 70
1
 66
1
  0
VERTEX
  8
0
 10
1107.2933349609375
 20
410.82666015625
 42
0
  0
VERTEX
  8
0
 10
1104.2933349609375
 20
410.82666015625
 42
0
  0
VERTEX
  8
0
 10
1104.2933349609375
 20
368.82666015625
 42
0
  0
VERTEX
  8
0
 10
1109.2933349609375
 20
363.82666015625
 42
0
  0
VERTEX
  8
0
 10
1151.2933349609375
 20
363.82666015625
 42
0
  0
VERTEX
  8
0
 10
1151.2933349609375
 20
366.82666015625
 42
-0
  0
SEQEND
  0
POLYLINE
  8
0
 10
0
 20
0
 39
0
 70
1
 66
1
  0
VERTEX
  8
0
 10
1148.2933349609375
 20
384.07794189453125
 42
0
  0
VERTEX
  8
0
 10
1151.2933349609375
 20
384.07794189453125
 42
0
  0
VERTEX
  8
0
 10
1151.2933349609375
 20
426.07794189453125
 42
0
  0
VERTEX
  8
0
 10
1146.2933349609375
 20
431.07794189453125
 42
0
  0
VERTEX
  8
0
 10
1104.2933349609375
 20
431.07794189453125
 42
0
  0
VERTEX
  8
0
 10
1104.2933349609375
 20
428.07794189453125
 42
-0
  0
SEQEND
  0
POLYLINE
  8
0
 10
0
 20
0
 39
0
 70
1
 66
1
  0
VERTEX
  8
0
 10
1154.0799560546875
 20
664.28668212890625
 42
0
  0
VERTEX
  8
0
 10
1151.0799560546875
 20
664.28668212890625
 42
0
  0
VERTEX
  8
0
 10
1151.0799560546875
 20
622.28668212890625
 42
0
  0
VERTEX
  8
0
 10
1156.0799560546875
 20
617.28668212890625
 42
0
  0
VERTEX
  8
0
 10
1198.0799560546875
 20
617.28668212890625
 42
0
  0
VERTEX
  8
0
 10
1198.0799560546875
 20
620.28668212890625
 42
-0
  0
SEQEND
  0
POLYLINE
  8
0
 10
0
 20
0
 39
0
 70
1
 66
1
  0
VERTEX
  8
0
 10
1195.0799560546875
 20
637.5379638671875
 42
0
  0
VERTEX
  8
0
 10
1198.0799560546875
 20
637.5379638671875
 42
0
  0
VERTEX
  8
0
 10
1198.0799560546875
 20
679.5379638671875
 42
0
  0
VERTEX
  8
0
 10
1193.0799560546875
 20
684.5379638671875
 42
0
  0
VERTEX
  8
0
 10
1151.0799560546875
 20
684.5379638671875
 42
0
  0
VERTEX
  8
0
 10
1151.0799560546875
 20
681.5379638671875
 42
-0
  0
SEQEND
  0
POLYLINE
  8
0
 10
0
 20
0
 39
0
 70
1
 66
1
  0
VERTEX
  8
0
 10
1287.67333984375
 20
410.82666015625
 42
0
  0
VERTEX
  8
0
 10
1284.67333984375
 20
410.82666015625
 42
0
  0
VERTEX
  8
0
 10
1284.67333984375
 20
368.82666015625
 42
0
  0
VERTEX
  8
0
 10
1289.67333984375
 20
363.82666015625
 42
0
  0
VERTEX
  8
0
 10
1331.67333984375
 20
363.82666015625
 42
0
  0
VERTEX
  8
0
 10
1331.67333984375
 20
366.82666015625
 42
-0
  0
SEQEND
  0
POLYLINE
  8
0
 10
0
 20
0
 39
0
 70
1
 66
1
  0
VERTEX
  8
0
 10
1328.67333984375
 20
384.07794189453125
 42
0
  0
VERTEX
  8
0
 10
1331.67333984375
 20
384.07794189453125
 42
0
  0
VERTEX
  8
0
 10
1331.67333984375
 20
426.07794189453125
 42
0
  0
VERTEX
  8
0
 10
1326.67333984375
 20
431.07794189453125
 42
0
  0
VERTEX
  8
0
 10
1284.67333984375
 20
431.07794189453125
 42
0
  0
VERTEX
  8
0
 10
1284.67333984375
 20
428.07794189453125
 42
-0
  0
SEQEND
  0
POLYLINE
  8
0
 10
0
 20
0
 39
0
 70
1
 66
1
  0
VERTEX
  8
0
 10
1334.4599609375
 20
664.28668212890625
 42
0
  0
VERTEX
  8
0
 10
1331.4599609375
 20
664.28668212890625
 42
0
  0
VERTEX
  8
0
 10
1331.4599609375
 20
622.28668212890625
 42
0
  0
VERTEX
  8
0
 10
1336.4599609375
 20
617.28668212890625
 42
0
  0
VERTEX
  8
0
 10
1378.4599609375
 20
617.28668212890625
 42
0
  0
VERTEX
  8
0
 10
1378.4599609375
 20
620.28668212890625
 42
-0
  0
SEQEND
  0
POLYLINE
  8
0
 10
0
 20
0
 39
0
 70
1
 66
1
  0
VERTEX
  8
0
 10
1375.4599609375
 20
637.5379638671875
 42
0
  0
VERTEX
  8
0
 10
1378.4599609375
 20
637.5379638671875
 42
0
  0
VERTEX
  8
0
 10
1378.4599609375
 20
679.5379638671875
 42
0
  0
VERTEX
  8
0
 10
1373.4599609375
 20
684.5379638671875
 42
0
  0
VERTEX
  8
0
 10
1331.4599609375
 20
684.5379638671875
 42
0
  0
VERTEX
  8
0
 10
1331.4599609375
 20
681.5379638671875
 42
-0
  0
SEQEND
  0
POLYLINE
  8
0
 10
0
 20
0
 39
0
 70
1
 66
1
  0
VERTEX
  8
0
 10
1468.0533447265625
 20
410.82666015625
 42
0
  0
VERTEX
  8
0
 10
1465.0533447265625
 20
410.82666015625
 42
0
  0
VERTEX
  8
0
 10
1465.0533447265625
 20
368.82666015625
 42
0
  0
VERTEX
  8
0
 10
1470.0533447265625
 20
363.82666015625
 42
0
  0
VERTEX
  8
0
 10
1512.0533447265625
 20
363.82666015625
 42
0
  0
VERTEX
  8
0
 10
1512.0533447265625
 20
366.82666015625
 42
-0
  0
SEQEND
  0
POLYLINE
  8
0
 10
0
 20
0
 39
0
 70
1
 66
1
  0
VERTEX
  8
0
 10
1509.0533447265625
 20
384.07794189453125
 42
0
  0
VERTEX
  8
0
 10
1512.0533447265625
 20
384.07794189453125
 42
0
  0
VERTEX
  8
0
 10
1512.0533447265625
 20
426.07794189453125
 42
0
  0
VERTEX
  8
0
 10
1507.0533447265625
 20
431.07794189453125
 42
0
  0
VERTEX
  8
0
 10
1465.0533447265625
 20
431.07794189453125
 42
0
  0
VERTEX
  8
0
 10
1465.0533447265625
 20
428.07794189453125
 42
-0
  0
SEQEND
  0
POLYLINE
  8
0
 10
0
 20
0
 39
0
 70
1
 66
1
  0
VERTEX
  8
0
 10
1514.8399658203125
 20
664.28668212890625
 42
0
  0
VERTEX
  8
0
 10
1511.8399658203125
 20
664.28668212890625
 42
0
  0
VERTEX
  8
0
 10
1511.8399658203125
 20
622.28668212890625
 42
0
  0
VERTEX
  8
0
 10
1516.8399658203125
 20
617.28668212890625
 42
0
  0
VERTEX
  8
0
 10
1558.8399658203125
 20
617.28668212890625
 42
0
  0
VERTEX
  8
0
 10
1558.8399658203125
 20
620.28668212890625
 42
-0
  0
SEQEND
  0
POLYLINE
  8
0
 10
0
 20
0
 39
0
 70
1
 66
1
  0
VERTEX
  8
0
 10
1555.8399658203125
 20
637.5379638671875
 42
0
  0
VERTEX
  8
0
 10
1558.8399658203125
 20
637.5379638671875
 42
0
  0
VERTEX
  8
0
 10
1558.8399658203125
 20
679.5379638671875
 42
0
  0
VERTEX
  8
0
 10
1553.8399658203125
 20
684.5379638671875
 42
0
  0
VERTEX
  8
0
 10
1511.8399658203125
 20
684.5379638671875
 42
0
  0
VERTEX
  8
0
 10
1511.8399658203125
 20
681.5379638671875
 42
-0
  0
SEQEND
  0
ENDSEC
  0
EOF
