  0
SECTION
  2
ENTITIES
  0
POLYLINE
  8
0
 10
0
 20
0
 39
0
 70
1
 66
1
  0
VERTEX
  8
0
 10
0
 20
0
 42
-0
  0
VERTEX
  8
0
 10
1700
 20
0
 42
-0
  0
VERTEX
  8
0
 10
1700
 20
900
 42
-0
  0
VERTEX
  8
0
 10
0
 20
900
 42
-0
  0
SEQEND
  0
POLYLINE
  8
0
 10
0
 20
0
 39
0
 70
1
 66
1
  0
VERTEX
  8
0
 10
233.70159912109375
 20
455.2286376953125
 42
1
  0
VERTEX
  8
0
 10
231.75993347167969
 20
10.232887268066406
 42
1
  0
SEQEND
  0
POLYLINE
  8
0
 10
0
 20
0
 39
0
 70
1
 66
1
  0
VERTEX
  8
0
 10
233.41798400878906
 20
390.229248046875
 42
-1
  0
VERTEX
  8
0
 10
232.04354858398437
 20
75.232269287109375
 42
-1
  0
SEQEND
  0
POLYLINE
  8
0
 10
0
 20
0
 39
0
 70
1
 66
1
  0
VERTEX
  8
0
 10
369.963134765625
 20
889.7747802734375
 42
1
  0
VERTEX
  8
0
 10
368.02145385742187
 20
444.779052734375
 42
1
  0
SEQEND
  0
POLYLINE
  8
0
 10
0
 20
0
 39
0
 70
1
 66
1
  0
VERTEX
  8
0
 10
369.67953491210937
 20
824.775390625
 42
-1
  0
VERTEX
  8
0
 10
368.30508422851562
 20
509.77841186523437
 42
-1
  0
SEQEND
  0
POLYLINE
  8
0
 10
0
 20
0
 39
0
 70
1
 66
1
  0
VERTEX
  8
0
 10
678.18621826171875
 20
554.35174560546875
 42
1
  0
VERTEX
  8
0
 10
676.24456787109375
 20
109.35596466064453
 42
1
  0
SEQEND
  0
POLYLINE
  8
0
 10
0
 20
0
 39
0
 70
1
 66
1
  0
VERTEX
  8
0
 10
677.902587890625
 20
489.35232543945312
 42
-1
  0
VERTEX
  8
0
 10
676.52813720703125
 20
174.3553466796875
 42
-1
  0
SEQEND
  0
POLYLINE
  8
0
 10
0
 20
0
 39
0
 70
1
 66
1
  0
VERTEX
  8
0
 10
986.14776611328125
 20
889.7747802734375
 42
1
  0
VERTEX
  8
0
 10
984.2060546875
 20
444.779052734375
 42
1
  0
SEQEND
  0
POLYLINE
  8
0
 10
0
 20
0
 39
0
 70
1
 66
1
  0
VERTEX
  8
0
 10
985.8641357421875
 20
824.775390625
 42
-1
  0
VERTEX
  8
0
 10
984.48968505859375
 20
509.77841186523437
 42
-1
  0
SEQEND
  0
POLYLINE
  8
0
 10
0
 20
0
 39
0
 70
1
 66
1
  0
VERTEX
  8
0
 10
1122.6707763671875
 20
455.2286376953125
 42
1
  0
VERTEX
  8
0
 10
1120.7291259765625
 20
10.232887268066406
 42
1
  0
SEQEND
  0
POLYLINE
  8
0
 10
0
 20
0
 39
0
 70
1
 66
1
  0
VERTEX
  8
0
 10
1122.38720703125
 20
390.229248046875
 42
-1
  0
VERTEX
  8
0
 10
1121.0128173828125
 20
75.232269287109375
 42
-1
  0
SEQEND
  0
POLYLINE
  8
0
 10
0
 20
0
 39
0
 70
1
 66
1
  0
VERTEX
  8
0
 10
1430.63232421875
 20
790.6517333984375
 42
1
  0
VERTEX
  8
0
 10
1428.690673828125
 20
345.65597534179687
 42
1
  0
SEQEND
  0
POLYLINE
  8
0
 10
0
 20
0
 39
0
 70
1
 66
1
  0
VERTEX
  8
0
 10
1430.3487548828125
 20
725.65234375
 42
-1
  0
VERTEX
  8
0
 10
1428.974365234375
 20
410.65533447265625
 42
-1
  0
SEQEND
  0
POLYLINE
  8
0
 10
0
 20
0
 39
0
 70
1
 66
1
  0
VERTEX
  8
0
 10
228.80638122558594
 20
374.47555541992187
 42
1
  0
VERTEX
  8
0
 10
227.56283569335938
 20
89.478279113769531
 42
1
  0
SEQEND
  0
POLYLINE
  8
0
 10
0
 20
0
 39
0
 70
1
 66
1
  0
VERTEX
  8
0
 10
228.57731628417969
 20
321.97607421875
 42
-1
  0
VERTEX
  8
0
 10
227.79191589355469
 20
141.977783203125
 42
-1
  0
SEQEND
  0
POLYLINE
  8
0
 10
0
 20
0
 39
0
 70
1
 66
1
  0
VERTEX
  8
0
 10
365.06793212890625
 20
809.021728515625
 42
1
  0
VERTEX
  8
0
 10
363.82437133789062
 20
524.0244140625
 42
1
  0
SEQEND
  0
POLYLINE
  8
0
 10
0
 20
0
 39
0
 70
1
 66
1
  0
VERTEX
  8
0
 10
364.83883666992187
 20
756.522216796875
 42
-1
  0
VERTEX
  8
0
 10
364.053466796875
 20
576.52392578125
 42
-1
  0
SEQEND
  0
POLYLINE
  8
0
 10
0
 20
0
 39
0
 70
1
 66
1
  0
VERTEX
  8
0
 10
673.291015625
 20
473.5986328125
 42
1
  0
VERTEX
  8
0
 10
672.0474853515625
 20
188.60134887695312
 42
1
  0
SEQEND
  0
POLYLINE
  8
0
 10
0
 20
0
 39
0
 70
1
 66
1
  0
VERTEX
  8
0
 10
673.06195068359375
 20
421.09915161132812
 42
-1
  0
VERTEX
  8
0
 10
672.27655029296875
 20
241.10086059570312
 42
-1
  0
SEQEND
  0
POLYLINE
  8
0
 10
0
 20
0
 39
0
 70
1
 66
1
  0
VERTEX
  8
0
 10
981.2525634765625
 20
809.021728515625
 42
1
  0
VERTEX
  8
0
 10
980.00897216796875
 20
524.0244140625
 42
1
  0
SEQEND
  0
POLYLINE
  8
0
 10
0
 20
0
 39
0
 70
1
 66
1
  0
VERTEX
  8
0
 10
981.0234375
 20
756.522216796875
 42
-1
  0
VERTEX
  8
0
 10
980.23809814453125
 20
576.52392578125
 42
-1
  0
SEQEND
  0
POLYLINE
  8
0
 10
0
 20
0
 39
0
 70
1
 66
1
  0
VERTEX
  8
0
 10
1117.775634765625
 20
374.47555541992187
 42
1
  0
VERTEX
  8
0
 10
1116.5321044921875
 20
89.478279113769531
 42
1
  0
SEQEND
  0
POLYLINE
  8
0
 10
0
 20
0
 39
0
 70
1
 66
1
  0
VERTEX
  8
0
 10
1117.5465087890625
 20
321.97607421875
 42
-1
  0
VERTEX
  8
0
 10
1116.7611083984375
 20
141.977783203125
 42
-1
  0
SEQEND
  0
POLYLINE
  8
0
 10
0
 20
0
 39
0
 70
1
 66
1
  0
VERTEX
  8
0
 10
1425.7371826171875
 20
709.89862060546875
 42
1
  0
VERTEX
  8
0
 10
1424.49365234375
 20
424.9013671875
 42
1
  0
SEQEND
  0
POLYLINE
  8
0
 10
0
 20
0
 39
0
 70
1
 66
1
  0
VERTEX
  8
0
 10
1425.508056640625
 20
657.39910888671875
 42
-1
  0
VERTEX
  8
0
 10
1424.72265625
 20
477.40084838867187
 42
-1
  0
SEQEND
  0
POLYLINE
  8
0
 10
0
 20
0
 39
0
 70
1
 66
1
  0
VERTEX
  8
0
 10
730
 20
889.03076171875
 42
-0
  0
VERTEX
  8
0
 10
600
 20
889.03076171875
 42
-0
  0
VERTEX
  8
0
 10
600
 20
696.03076171875
 42
-0.41421356797218323
  0
VERTEX
  8
0
 10
667
 20
629.03076171875
 42
0
  0
VERTEX
  8
0
 10
730
 20
629.03076171875
 42
0
  0
SEQEND
  0
POLYLINE
  8
0
 10
0
 20
0
 39
0
 70
1
 66
1
  0
VERTEX
  8
0
 10
702.73419189453125
 20
869.3519287109375
 42
-1
  0
VERTEX
  8
0
 10
702.73419189453125
 20
845.3519287109375
 42
-1
  0
SEQEND
  0
POLYLINE
  8
0
 10
0
 20
0
 39
0
 70
1
 66
1
  0
VERTEX
  8
0
 10
1354.40771484375
 20
10.230769157409668
 42
-0
  0
VERTEX
  8
0
 10
1484.40771484375
 20
10.230769157409668
 42
-0
  0
VERTEX
  8
0
 10
1484.40771484375
 20
203.23077392578125
 42
-0.41421356797218323
  0
VERTEX
  8
0
 10
1417.40771484375
 20
270.23077392578125
 42
0
  0
VERTEX
  8
0
 10
1354.40771484375
 20
270.23077392578125
 42
0
  0
SEQEND
  0
POLYLINE
  8
0
 10
0
 20
0
 39
0
 70
1
 66
1
  0
VERTEX
  8
0
 10
1381.673583984375
 20
29.909601211547852
 42
-1
  0
VERTEX
  8
0
 10
1381.673583984375
 20
53.909603118896484
 42
-1
  0
SEQEND
  0
POLYLINE
  8
0
 10
0
 20
0
 39
0
 70
1
 66
1
  0
VERTEX
  8
0
 10
1494.59228515625
 20
10.230769157409668
 42
-0
  0
VERTEX
  8
0
 10
1624.59228515625
 20
10.230769157409668
 42
-0
  0
VERTEX
  8
0
 10
1624.59228515625
 20
203.23077392578125
 42
-0.41421356797218323
  0
VERTEX
  8
0
 10
1557.59228515625
 20
270.23077392578125
 42
0
  0
VERTEX
  8
0
 10
1494.59228515625
 20
270.23077392578125
 42
0
  0
SEQEND
  0
POLYLINE
  8
0
 10
0
 20
0
 39
0
 70
1
 66
1
  0
VERTEX
  8
0
 10
1521.858154296875
 20
29.909601211547852
 42
-1
  0
VERTEX
  8
0
 10
1521.858154296875
 20
53.909603118896484
 42
-1
  0
SEQEND
  0
POLYLINE
  8
0
 10
0
 20
0
 39
0
 70
1
 66
1
  0
VERTEX
  8
0
 10
10.230769157409668
 20
424.24615478515625
 42
-0
  0
VERTEX
  8
0
 10
100.23076629638672
 20
424.24615478515625
 42
0
  0
VERTEX
  8
0
 10
100.23076629638672
 20
461.24615478515625
 42
-1
  0
VERTEX
  8
0
 10
100.23076629638672
 20
497.24615478515625
 42
0
  0
VERTEX
  8
0
 10
100.23076629638672
 20
534.24615478515625
 42
0
  0
VERTEX
  8
0
 10
78.230766296386719
 20
534.24615478515625
 42
-1
  0
VERTEX
  8
0
 10
32.230770111083984
 20
534.24615478515625
 42
0
  0
VERTEX
  8
0
 10
10.230769157409668
 20
534.24615478515625
 42
0
  0
SEQEND
  0
POLYLINE
  8
0
 10
0
 20
0
 39
0
 70
1
 66
1
  0
VERTEX
  8
0
 10
32.230770111083984
 20
435.56430053710938
 42
-1
  0
VERTEX
  8
0
 10
32.230770111083984
 20
461.56430053710937
 42
-1
  0
SEQEND
  0
POLYLINE
  8
0
 10
0
 20
0
 39
0
 70
1
 66
1
  0
VERTEX
  8
0
 10
10.230769157409668
 20
544.29229736328125
 42
-0
  0
VERTEX
  8
0
 10
100.23076629638672
 20
544.29229736328125
 42
0
  0
VERTEX
  8
0
 10
100.23076629638672
 20
581.29229736328125
 42
-1
  0
VERTEX
  8
0
 10
100.23076629638672
 20
617.29229736328125
 42
0
  0
VERTEX
  8
0
 10
100.23076629638672
 20
654.29229736328125
 42
0
  0
VERTEX
  8
0
 10
78.230766296386719
 20
654.29229736328125
 42
-1
  0
VERTEX
  8
0
 10
32.230770111083984
 20
654.29229736328125
 42
0
  0
VERTEX
  8
0
 10
10.230769157409668
 20
654.29229736328125
 42
0
  0
SEQEND
  0
POLYLINE
  8
0
 10
0
 20
0
 39
0
 70
1
 66
1
  0
VERTEX
  8
0
 10
32.230770111083984
 20
555.6104736328125
 42
-1
  0
VERTEX
  8
0
 10
32.230770111083984
 20
581.6104736328125
 42
-1
  0
SEQEND
  0
POLYLINE
  8
0
 10
0
 20
0
 39
0
 70
1
 66
1
  0
VERTEX
  8
0
 10
10.230769157409668
 20
664.33843994140625
 42
-0
  0
VERTEX
  8
0
 10
100.23076629638672
 20
664.33843994140625
 42
0
  0
VERTEX
  8
0
 10
100.23076629638672
 20
701.33843994140625
 42
-1
  0
VERTEX
  8
0
 10
100.23076629638672
 20
737.33843994140625
 42
0
  0
VERTEX
  8
0
 10
100.23076629638672
 20
774.33843994140625
 42
0
  0
VERTEX
  8
0
 10
78.230766296386719
 20
774.33843994140625
 42
-1
  0
VERTEX
  8
0
 10
32.230770111083984
 20
774.33843994140625
 42
0
  0
VERTEX
  8
0
 10
10.230769157409668
 20
774.33843994140625
 42
0
  0
SEQEND
  0
POLYLINE
  8
0
 10
0
 20
0
 39
0
 70
1
 66
1
  0
VERTEX
  8
0
 10
32.230770111083984
 20
675.6566162109375
 42
-1
  0
VERTEX
  8
0
 10
32.230770111083984
 20
701.6566162109375
 42
-1
  0
SEQEND
  0
POLYLINE
  8
0
 10
0
 20
0
 39
0
 70
1
 66
1
  0
VERTEX
  8
0
 10
120.23076629638672
 20
784.3846435546875
 42
-0
  0
VERTEX
  8
0
 10
120.23076629638672
 20
874.3846435546875
 42
0
  0
VERTEX
  8
0
 10
83.230766296386719
 20
874.3846435546875
 42
-1
  0
VERTEX
  8
0
 10
47.230770111083984
 20
874.3846435546875
 42
0
  0
VERTEX
  8
0
 10
10.230769157409668
 20
874.3846435546875
 42
0
  0
VERTEX
  8
0
 10
10.230769157409668
 20
852.3846435546875
 42
-1
  0
VERTEX
  8
0
 10
10.230769157409668
 20
806.3846435546875
 42
0
  0
VERTEX
  8
0
 10
10.230769157409668
 20
784.3846435546875
 42
0
  0
SEQEND
  0
POLYLINE
  8
0
 10
0
 20
0
 39
0
 70
1
 66
1
  0
VERTEX
  8
0
 10
108.91262817382812
 20
806.3846435546875
 42
-1
  0
VERTEX
  8
0
 10
82.912628173828125
 20
806.3846435546875
 42
-1
  0
SEQEND
  0
POLYLINE
  8
0
 10
0
 20
0
 39
0
 70
1
 66
1
  0
VERTEX
  8
0
 10
170.55384826660156
 20
176.96153259277344
 42
-0
  0
VERTEX
  8
0
 10
260.5538330078125
 20
176.96153259277344
 42
0
  0
VERTEX
  8
0
 10
260.5538330078125
 20
213.96153259277344
 42
-1
  0
VERTEX
  8
0
 10
260.5538330078125
 20
249.96153259277344
 42
0
  0
VERTEX
  8
0
 10
260.5538330078125
 20
286.9615478515625
 42
0
  0
VERTEX
  8
0
 10
238.55384826660156
 20
286.9615478515625
 42
-1
  0
VERTEX
  8
0
 10
192.55384826660156
 20
286.9615478515625
 42
0
  0
VERTEX
  8
0
 10
170.55384826660156
 20
286.9615478515625
 42
0
  0
SEQEND
  0
POLYLINE
  8
0
 10
0
 20
0
 39
0
 70
1
 66
1
  0
VERTEX
  8
0
 10
192.55384826660156
 20
188.27967834472656
 42
-1
  0
VERTEX
  8
0
 10
192.55384826660156
 20
214.27967834472656
 42
-1
  0
SEQEND
  0
POLYLINE
  8
0
 10
0
 20
0
 39
0
 70
1
 66
1
  0
VERTEX
  8
0
 10
306.81539916992187
 20
611.5076904296875
 42
-0
  0
VERTEX
  8
0
 10
396.81539916992187
 20
611.5076904296875
 42
0
  0
VERTEX
  8
0
 10
396.81539916992187
 20
648.5076904296875
 42
-1
  0
VERTEX
  8
0
 10
396.81539916992187
 20
684.5076904296875
 42
0
  0
VERTEX
  8
0
 10
396.81539916992187
 20
721.5076904296875
 42
0
  0
VERTEX
  8
0
 10
374.81539916992187
 20
721.5076904296875
 42
-1
  0
VERTEX
  8
0
 10
328.81539916992187
 20
721.5076904296875
 42
0
  0
VERTEX
  8
0
 10
306.81539916992187
 20
721.5076904296875
 42
0
  0
SEQEND
  0
POLYLINE
  8
0
 10
0
 20
0
 39
0
 70
1
 66
1
  0
VERTEX
  8
0
 10
328.81539916992187
 20
622.8258056640625
 42
-1
  0
VERTEX
  8
0
 10
328.81539916992187
 20
648.8258056640625
 42
-1
  0
SEQEND
  0
POLYLINE
  8
0
 10
0
 20
0
 39
0
 70
1
 66
1
  0
VERTEX
  8
0
 10
436.66921997070312
 20
10.230769157409668
 42
-0
  0
VERTEX
  8
0
 10
526.66925048828125
 20
10.230769157409668
 42
0
  0
VERTEX
  8
0
 10
526.66925048828125
 20
47.230770111083984
 42
-1
  0
VERTEX
  8
0
 10
526.66925048828125
 20
83.230766296386719
 42
0
  0
VERTEX
  8
0
 10
526.66925048828125
 20
120.23076629638672
 42
0
  0
VERTEX
  8
0
 10
504.66921997070312
 20
120.23076629638672
 42
-1
  0
VERTEX
  8
0
 10
458.66921997070312
 20
120.23076629638672
 42
0
  0
VERTEX
  8
0
 10
436.66921997070312
 20
120.23076629638672
 42
0
  0
SEQEND
  0
POLYLINE
  8
0
 10
0
 20
0
 39
0
 70
1
 66
1
  0
VERTEX
  8
0
 10
458.66921997070312
 20
21.548908233642578
 42
-1
  0
VERTEX
  8
0
 10
458.66921997070312
 20
47.548908233642578
 42
-1
  0
SEQEND
  0
POLYLINE
  8
0
 10
0
 20
0
 39
0
 70
1
 66
1
  0
VERTEX
  8
0
 10
646.83843994140625
 20
10.230769157409668
 42
-0
  0
VERTEX
  8
0
 10
646.83843994140625
 20
100.23076629638672
 42
0
  0
VERTEX
  8
0
 10
609.83843994140625
 20
100.23076629638672
 42
-1
  0
VERTEX
  8
0
 10
573.83843994140625
 20
100.23076629638672
 42
0
  0
VERTEX
  8
0
 10
536.83843994140625
 20
100.23076629638672
 42
0
  0
VERTEX
  8
0
 10
536.83843994140625
 20
78.230766296386719
 42
-1
  0
VERTEX
  8
0
 10
536.83843994140625
 20
32.230770111083984
 42
0
  0
VERTEX
  8
0
 10
536.83843994140625
 20
10.230769157409668
 42
0
  0
SEQEND
  0
POLYLINE
  8
0
 10
0
 20
0
 39
0
 70
1
 66
1
  0
VERTEX
  8
0
 10
635.52032470703125
 20
32.230770111083984
 42
-1
  0
VERTEX
  8
0
 10
609.52032470703125
 20
32.230770111083984
 42
-1
  0
SEQEND
  0
POLYLINE
  8
0
 10
0
 20
0
 39
0
 70
1
 66
1
  0
VERTEX
  8
0
 10
615.0384521484375
 20
276.08462524414062
 42
-0
  0
VERTEX
  8
0
 10
705.0384521484375
 20
276.08462524414062
 42
0
  0
VERTEX
  8
0
 10
705.0384521484375
 20
313.08462524414062
 42
-1
  0
VERTEX
  8
0
 10
705.0384521484375
 20
349.08462524414062
 42
0
  0
VERTEX
  8
0
 10
705.0384521484375
 20
386.08462524414062
 42
0
  0
VERTEX
  8
0
 10
683.0384521484375
 20
386.08462524414062
 42
-1
  0
VERTEX
  8
0
 10
637.0384521484375
 20
386.08462524414062
 42
0
  0
VERTEX
  8
0
 10
615.0384521484375
 20
386.08462524414062
 42
0
  0
SEQEND
  0
POLYLINE
  8
0
 10
0
 20
0
 39
0
 70
1
 66
1
  0
VERTEX
  8
0
 10
637.0384521484375
 20
287.40274047851562
 42
-1
  0
VERTEX
  8
0
 10
637.0384521484375
 20
313.40274047851562
 42
-1
  0
SEQEND
  0
POLYLINE
  8
0
 10
0
 20
0
 39
0
 70
1
 66
1
  0
VERTEX
  8
0
 10
810.4307861328125
 20
10.230769157409668
 42
-0
  0
VERTEX
  8
0
 10
810.4307861328125
 20
100.23076629638672
 42
0
  0
VERTEX
  8
0
 10
773.4307861328125
 20
100.23076629638672
 42
-1
  0
VERTEX
  8
0
 10
737.4307861328125
 20
100.23076629638672
 42
0
  0
VERTEX
  8
0
 10
700.4307861328125
 20
100.23076629638672
 42
0
  0
VERTEX
  8
0
 10
700.4307861328125
 20
78.230766296386719
 42
-1
  0
VERTEX
  8
0
 10
700.4307861328125
 20
32.230770111083984
 42
0
  0
VERTEX
  8
0
 10
700.4307861328125
 20
10.230769157409668
 42
0
  0
SEQEND
  0
POLYLINE
  8
0
 10
0
 20
0
 39
0
 70
1
 66
1
  0
VERTEX
  8
0
 10
799.11260986328125
 20
32.230770111083984
 42
-1
  0
VERTEX
  8
0
 10
773.11260986328125
 20
32.230770111083984
 42
-1
  0
SEQEND
  0
POLYLINE
  8
0
 10
0
 20
0
 39
0
 70
1
 66
1
  0
VERTEX
  8
0
 10
820.607666015625
 20
10.230769157409668
 42
-0
  0
VERTEX
  8
0
 10
910.607666015625
 20
10.230769157409668
 42
0
  0
VERTEX
  8
0
 10
910.607666015625
 20
47.230770111083984
 42
-1
  0
VERTEX
  8
0
 10
910.607666015625
 20
83.230766296386719
 42
0
  0
VERTEX
  8
0
 10
910.607666015625
 20
120.23076629638672
 42
0
  0
VERTEX
  8
0
 10
888.607666015625
 20
120.23076629638672
 42
-1
  0
VERTEX
  8
0
 10
842.607666015625
 20
120.23076629638672
 42
0
  0
VERTEX
  8
0
 10
820.607666015625
 20
120.23076629638672
 42
0
  0
SEQEND
  0
POLYLINE
  8
0
 10
0
 20
0
 39
0
 70
1
 66
1
  0
VERTEX
  8
0
 10
842.607666015625
 20
21.548908233642578
 42
-1
  0
VERTEX
  8
0
 10
842.607666015625
 20
47.548908233642578
 42
-1
  0
SEQEND
  0
POLYLINE
  8
0
 10
0
 20
0
 39
0
 70
1
 66
1
  0
VERTEX
  8
0
 10
923
 20
611.5076904296875
 42
-0
  0
VERTEX
  8
0
 10
1013
 20
611.5076904296875
 42
0
  0
VERTEX
  8
0
 10
1013
 20
648.5076904296875
 42
-1
  0
VERTEX
  8
0
 10
1013
 20
684.5076904296875
 42
0
  0
VERTEX
  8
0
 10
1013
 20
721.5076904296875
 42
0
  0
VERTEX
  8
0
 10
991
 20
721.5076904296875
 42
-1
  0
VERTEX
  8
0
 10
945
 20
721.5076904296875
 42
0
  0
VERTEX
  8
0
 10
923
 20
721.5076904296875
 42
0
  0
SEQEND
  0
POLYLINE
  8
0
 10
0
 20
0
 39
0
 70
1
 66
1
  0
VERTEX
  8
0
 10
945
 20
622.8258056640625
 42
-1
  0
VERTEX
  8
0
 10
945
 20
648.8258056640625
 42
-1
  0
SEQEND
  0
POLYLINE
  8
0
 10
0
 20
0
 39
0
 70
1
 66
1
  0
VERTEX
  8
0
 10
1059.5230712890625
 20
176.96153259277344
 42
-0
  0
VERTEX
  8
0
 10
1149.5230712890625
 20
176.96153259277344
 42
0
  0
VERTEX
  8
0
 10
1149.5230712890625
 20
213.96153259277344
 42
-1
  0
VERTEX
  8
0
 10
1149.5230712890625
 20
249.96153259277344
 42
0
  0
VERTEX
  8
0
 10
1149.5230712890625
 20
286.9615478515625
 42
0
  0
VERTEX
  8
0
 10
1127.5230712890625
 20
286.9615478515625
 42
-1
  0
VERTEX
  8
0
 10
1081.5230712890625
 20
286.9615478515625
 42
0
  0
VERTEX
  8
0
 10
1059.5230712890625
 20
286.9615478515625
 42
0
  0
SEQEND
  0
POLYLINE
  8
0
 10
0
 20
0
 39
0
 70
1
 66
1
  0
VERTEX
  8
0
 10
1081.5230712890625
 20
188.27967834472656
 42
-1
  0
VERTEX
  8
0
 10
1081.5230712890625
 20
214.27967834472656
 42
-1
  0
SEQEND
  0
POLYLINE
  8
0
 10
0
 20
0
 39
0
 70
1
 66
1
  0
VERTEX
  8
0
 10
1189.1153564453125
 20
779.67694091796875
 42
-0
  0
VERTEX
  8
0
 10
1279.1153564453125
 20
779.67694091796875
 42
0
  0
VERTEX
  8
0
 10
1279.1153564453125
 20
816.67694091796875
 42
-1
  0
VERTEX
  8
0
 10
1279.1153564453125
 20
852.67694091796875
 42
0
  0
VERTEX
  8
0
 10
1279.1153564453125
 20
889.67694091796875
 42
0
  0
VERTEX
  8
0
 10
1257.1153564453125
 20
889.67694091796875
 42
-1
  0
VERTEX
  8
0
 10
1211.1153564453125
 20
889.67694091796875
 42
0
  0
VERTEX
  8
0
 10
1189.1153564453125
 20
889.67694091796875
 42
0
  0
SEQEND
  0
POLYLINE
  8
0
 10
0
 20
0
 39
0
 70
1
 66
1
  0
VERTEX
  8
0
 10
1211.1153564453125
 20
790.99505615234375
 42
-1
  0
VERTEX
  8
0
 10
1211.1153564453125
 20
816.99505615234375
 42
-1
  0
SEQEND
  0
POLYLINE
  8
0
 10
0
 20
0
 39
0
 70
1
 66
1
  0
VERTEX
  8
0
 10
1399.28466796875
 20
799.03076171875
 42
-0
  0
VERTEX
  8
0
 10
1399.28466796875
 20
889.03076171875
 42
0
  0
VERTEX
  8
0
 10
1362.28466796875
 20
889.03076171875
 42
-1
  0
VERTEX
  8
0
 10
1326.28466796875
 20
889.03076171875
 42
0
  0
VERTEX
  8
0
 10
1289.28466796875
 20
889.03076171875
 42
0
  0
VERTEX
  8
0
 10
1289.28466796875
 20
867.03076171875
 42
-1
  0
VERTEX
  8
0
 10
1289.28466796875
 20
821.03076171875
 42
0
  0
VERTEX
  8
0
 10
1289.28466796875
 20
799.03076171875
 42
0
  0
SEQEND
  0
POLYLINE
  8
0
 10
0
 20
0
 39
0
 70
1
 66
1
  0
VERTEX
  8
0
 10
1387.9664306640625
 20
821.03076171875
 42
-1
  0
VERTEX
  8
0
 10
1361.9664306640625
 20
821.03076171875
 42
-1
  0
SEQEND
  0
POLYLINE
  8
0
 10
0
 20
0
 39
0
 70
1
 66
1
  0
VERTEX
  8
0
 10
110.40000152587891
 20
454.19232177734375
 42
-0
  0
VERTEX
  8
0
 10
160.39999389648437
 20
454.19232177734375
 42
-0
  0
VERTEX
  8
0
 10
160.39999389648437
 20
554.19232177734375
 42
-0
  0
VERTEX
  8
0
 10
110.40000152587891
 20
554.19232177734375
 42
-0
  0
SEQEND
  0
POLYLINE
  8
0
 10
0
 20
0
 39
0
 70
1
 66
1
  0
VERTEX
  8
0
 10
135.39999389648437
 20
473.94232177734375
 42
-1
  0
VERTEX
  8
0
 10
135.39999389648437
 20
494.44232177734375
 42
-1
  0
SEQEND
  0
POLYLINE
  8
0
 10
0
 20
0
 39
0
 70
1
 66
1
  0
VERTEX
  8
0
 10
695.81536865234375
 20
564.4307861328125
 42
-0
  0
VERTEX
  8
0
 10
695.81536865234375
 20
614.4307861328125
 42
-0
  0
VERTEX
  8
0
 10
595.81536865234375
 20
614.4307861328125
 42
-0
  0
VERTEX
  8
0
 10
595.81536865234375
 20
564.4307861328125
 42
-0
  0
SEQEND
  0
POLYLINE
  8
0
 10
0
 20
0
 39
0
 70
1
 66
1
  0
VERTEX
  8
0
 10
676.06536865234375
 20
589.4307861328125
 42
-1
  0
VERTEX
  8
0
 10
655.56536865234375
 20
589.4307861328125
 42
-1
  0
SEQEND
  0
POLYLINE
  8
0
 10
0
 20
0
 39
0
 70
1
 66
1
  0
VERTEX
  8
0
 10
1363.169189453125
 20
517.35382080078125
 42
-0
  0
VERTEX
  8
0
 10
1413.169189453125
 20
517.35382080078125
 42
-0
  0
VERTEX
  8
0
 10
1413.169189453125
 20
617.35382080078125
 42
-0
  0
VERTEX
  8
0
 10
1363.169189453125
 20
617.35382080078125
 42
-0
  0
SEQEND
  0
POLYLINE
  8
0
 10
0
 20
0
 39
0
 70
1
 66
1
  0
VERTEX
  8
0
 10
1388.169189453125
 20
537.10382080078125
 42
-1
  0
VERTEX
  8
0
 10
1388.169189453125
 20
557.60382080078125
 42
-1
  0
SEQEND
  0
POLYLINE
  8
0
 10
0
 20
0
 39
0
 70
1
 66
1
  0
VERTEX
  8
0
 10
1448.5230712890625
 20
285.5
 42
-0
  0
VERTEX
  8
0
 10
1448.5230712890625
 20
335.5
 42
-0
  0
VERTEX
  8
0
 10
1348.5230712890625
 20
335.5
 42
-0
  0
VERTEX
  8
0
 10
1348.5230712890625
 20
285.5
 42
-0
  0
SEQEND
  0
POLYLINE
  8
0
 10
0
 20
0
 39
0
 70
1
 66
1
  0
VERTEX
  8
0
 10
1428.7730712890625
 20
310.5
 42
-1
  0
VERTEX
  8
0
 10
1408.2730712890625
 20
310.5
 42
-1
  0
SEQEND
  0
POLYLINE
  8
0
 10
0
 20
0
 39
0
 70
1
 66
1
  0
VERTEX
  8
0
 10
1423.3231201171875
 20
504.015380859375
 42
-0
  0
VERTEX
  8
0
 10
1473.3231201171875
 20
504.015380859375
 42
-0
  0
VERTEX
  8
0
 10
1473.3231201171875
 20
604.015380859375
 42
-0
  0
VERTEX
  8
0
 10
1423.3231201171875
 20
604.015380859375
 42
-0
  0
SEQEND
  0
POLYLINE
  8
0
 10
0
 20
0
 39
0
 70
1
 66
1
  0
VERTEX
  8
0
 10
1448.3231201171875
 20
523.765380859375
 42
-1
  0
VERTEX
  8
0
 10
1448.3231201171875
 20
544.265380859375
 42
-1
  0
SEQEND
  0
POLYLINE
  8
0
 10
0
 20
0
 39
0
 70
1
 66
1
  0
VERTEX
  8
0
 10
1509.4615478515625
 20
800.73077392578125
 42
-0
  0
VERTEX
  8
0
 10
1509.4615478515625
 20
850.73077392578125
 42
-0
  0
VERTEX
  8
0
 10
1409.4615478515625
 20
850.73077392578125
 42
-0
  0
VERTEX
  8
0
 10
1409.4615478515625
 20
800.73077392578125
 42
-0
  0
SEQEND
  0
POLYLINE
  8
0
 10
0
 20
0
 39
0
 70
1
 66
1
  0
VERTEX
  8
0
 10
1489.7115478515625
 20
825.73077392578125
 42
-1
  0
VERTEX
  8
0
 10
1469.2115478515625
 20
825.73077392578125
 42
-1
  0
SEQEND
  0
POLYLINE
  8
0
 10
0
 20
0
 39
0
 70
1
 66
1
  0
VERTEX
  8
0
 10
1558.7615966796875
 20
280.26922607421875
 42
-0
  0
VERTEX
  8
0
 10
1558.7615966796875
 20
330.26922607421875
 42
-0
  0
VERTEX
  8
0
 10
1458.7615966796875
 20
330.26922607421875
 42
-0
  0
VERTEX
  8
0
 10
1458.7615966796875
 20
280.26922607421875
 42
-0
  0
SEQEND
  0
POLYLINE
  8
0
 10
0
 20
0
 39
0
 70
1
 66
1
  0
VERTEX
  8
0
 10
1539.0115966796875
 20
305.26922607421875
 42
-1
  0
VERTEX
  8
0
 10
1518.5115966796875
 20
305.26922607421875
 42
-1
  0
SEQEND
  0
POLYLINE
  8
0
 10
0
 20
0
 39
0
 70
1
 66
1
  0
VERTEX
  8
0
 10
1519.699951171875
 20
782.9461669921875
 42
-0
  0
VERTEX
  8
0
 10
1569.699951171875
 20
782.9461669921875
 42
-0
  0
VERTEX
  8
0
 10
1569.699951171875
 20
882.9461669921875
 42
-0
  0
VERTEX
  8
0
 10
1519.699951171875
 20
882.9461669921875
 42
-0
  0
SEQEND
  0
POLYLINE
  8
0
 10
0
 20
0
 39
0
 70
1
 66
1
  0
VERTEX
  8
0
 10
1544.699951171875
 20
802.6961669921875
 42
-1
  0
VERTEX
  8
0
 10
1544.699951171875
 20
823.1961669921875
 42
-1
  0
SEQEND
  0
POLYLINE
  8
0
 10
0
 20
0
 39
0
 70
1
 66
1
  0
VERTEX
  8
0
 10
1569
 20
259.21539306640625
 42
-0
  0
VERTEX
  8
0
 10
1619
 20
259.21539306640625
 42
-0
  0
VERTEX
  8
0
 10
1619
 20
359.21539306640625
 42
-0
  0
VERTEX
  8
0
 10
1569
 20
359.21539306640625
 42
-0
  0
SEQEND
  0
POLYLINE
  8
0
 10
0
 20
0
 39
0
 70
1
 66
1
  0
VERTEX
  8
0
 10
1594
 20
278.96539306640625
 42
-1
  0
VERTEX
  8
0
 10
1594
 20
299.46539306640625
 42
-1
  0
SEQEND
  0
POLYLINE
  8
0
 10
0
 20
0
 39
0
 70
1
 66
1
  0
VERTEX
  8
0
 10
1579.8538818359375
 20
746.0692138671875
 42
-0
  0
VERTEX
  8
0
 10
1629.8538818359375
 20
746.0692138671875
 42
-0
  0
VERTEX
  8
0
 10
1629.8538818359375
 20
846.0692138671875
 42
-0
  0
VERTEX
  8
0
 10
1579.8538818359375
 20
846.0692138671875
 42
-0
  0
SEQEND
  0
POLYLINE
  8
0
 10
0
 20
0
 39
0
 70
1
 66
1
  0
VERTEX
  8
0
 10
1604.8538818359375
 20
765.8192138671875
 42
-1
  0
VERTEX
  8
0
 10
1604.8538818359375
 20
786.3192138671875
 42
-1
  0
SEQEND
  0
POLYLINE
  8
0
 10
0
 20
0
 39
0
 70
1
 66
1
  0
VERTEX
  8
0
 10
1629.15380859375
 20
212.66154479980469
 42
-0
  0
VERTEX
  8
0
 10
1679.15380859375
 20
212.66154479980469
 42
-0
  0
VERTEX
  8
0
 10
1679.15380859375
 20
312.66152954101562
 42
-0
  0
VERTEX
  8
0
 10
1629.15380859375
 20
312.66152954101562
 42
-0
  0
SEQEND
  0
POLYLINE
  8
0
 10
0
 20
0
 39
0
 70
1
 66
1
  0
VERTEX
  8
0
 10
1654.15380859375
 20
232.41154479980469
 42
-1
  0
VERTEX
  8
0
 10
1654.15380859375
 20
252.91154479980469
 42
-1
  0
SEQEND
  0
POLYLINE
  8
0
 10
0
 20
0
 39
0
 70
1
 66
1
  0
VERTEX
  8
0
 10
1629.15380859375
 20
322.76922607421875
 42
-0
  0
VERTEX
  8
0
 10
1679.15380859375
 20
322.76922607421875
 42
-0
  0
VERTEX
  8
0
 10
1679.15380859375
 20
422.76922607421875
 42
-0
  0
VERTEX
  8
0
 10
1629.15380859375
 20
422.76922607421875
 42
-0
  0
SEQEND
  0
POLYLINE
  8
0
 10
0
 20
0
 39
0
 70
1
 66
1
  0
VERTEX
  8
0
 10
1654.15380859375
 20
342.51922607421875
 42
-1
  0
VERTEX
  8
0
 10
1654.15380859375
 20
363.01922607421875
 42
-1
  0
SEQEND
  0
POLYLINE
  8
0
 10
0
 20
0
 39
0
 70
1
 66
1
  0
VERTEX
  8
0
 10
1634.7769775390625
 20
10.230769157409668
 42
-0
  0
VERTEX
  8
0
 10
1684.7769775390625
 20
10.230769157409668
 42
-0
  0
VERTEX
  8
0
 10
1684.7769775390625
 20
110.23076629638672
 42
-0
  0
VERTEX
  8
0
 10
1634.7769775390625
 20
110.23076629638672
 42
-0
  0
SEQEND
  0
POLYLINE
  8
0
 10
0
 20
0
 39
0
 70
1
 66
1
  0
VERTEX
  8
0
 10
1659.7769775390625
 20
29.980770111083984
 42
-1
  0
VERTEX
  8
0
 10
1659.7769775390625
 20
50.480770111083984
 42
-1
  0
SEQEND
  0
POLYLINE
  8
0
 10
0
 20
0
 39
0
 70
1
 66
1
  0
VERTEX
  8
0
 10
10.230769157409668
 20
10.230769157409668
 42
0
  0
VERTEX
  8
0
 10
50.230770111083984
 20
10.230769157409668
 42
0
  0
VERTEX
  8
0
 10
50.230770111083984
 20
70.230766296386719
 42
1
  0
VERTEX
  8
0
 10
10.230769157409668
 20
70.230766296386719
 42
0
  0
SEQEND
  0
POLYLINE
  8
0
 10
0
 20
0
 39
0
 70
1
 66
1
  0
VERTEX
  8
0
 10
30.230770111083984
 20
77.230766296386719
 42
-1
  0
VERTEX
  8
0
 10
30.230770111083984
 20
63.230770111083984
 42
-1
  0
SEQEND
  0
POLYLINE
  8
0
 10
0
 20
0
 39
0
 70
1
 66
1
  0
VERTEX
  8
0
 10
170.40769958496094
 20
854.4461669921875
 42
0
  0
VERTEX
  8
0
 10
130.40769958496094
 20
854.4461669921875
 42
0
  0
VERTEX
  8
0
 10
130.40769958496094
 20
794.4461669921875
 42
1
  0
VERTEX
  8
0
 10
170.40769958496094
 20
794.4461669921875
 42
0
  0
SEQEND
  0
POLYLINE
  8
0
 10
0
 20
0
 39
0
 70
1
 66
1
  0
VERTEX
  8
0
 10
150.40769958496094
 20
787.4461669921875
 42
-1
  0
VERTEX
  8
0
 10
150.40769958496094
 20
801.4461669921875
 42
-1
  0
SEQEND
  0
POLYLINE
  8
0
 10
0
 20
0
 39
0
 70
1
 66
1
  0
VERTEX
  8
0
 10
580.484619140625
 20
849.76922607421875
 42
0
  0
VERTEX
  8
0
 10
580.484619140625
 20
889.76922607421875
 42
0
  0
VERTEX
  8
0
 10
520.484619140625
 20
889.76922607421875
 42
1
  0
VERTEX
  8
0
 10
520.484619140625
 20
849.76922607421875
 42
0
  0
SEQEND
  0
POLYLINE
  8
0
 10
0
 20
0
 39
0
 70
1
 66
1
  0
VERTEX
  8
0
 10
513.484619140625
 20
869.76922607421875
 42
-1
  0
VERTEX
  8
0
 10
527.484619140625
 20
869.76922607421875
 42
-1
  0
SEQEND
  0
POLYLINE
  8
0
 10
0
 20
0
 39
0
 70
1
 66
1
  0
VERTEX
  8
0
 10
780.18463134765625
 20
842.67694091796875
 42
0
  0
VERTEX
  8
0
 10
740.18463134765625
 20
842.67694091796875
 42
0
  0
VERTEX
  8
0
 10
740.18463134765625
 20
782.67694091796875
 42
1
  0
VERTEX
  8
0
 10
780.18463134765625
 20
782.67694091796875
 42
0
  0
SEQEND
  0
POLYLINE
  8
0
 10
0
 20
0
 39
0
 70
1
 66
1
  0
VERTEX
  8
0
 10
760.18463134765625
 20
775.67694091796875
 42
-1
  0
VERTEX
  8
0
 10
760.18463134765625
 20
789.67694091796875
 42
-1
  0
SEQEND
  0
POLYLINE
  8
0
 10
0
 20
0
 39
0
 70
1
 66
1
  0
VERTEX
  8
0
 10
1333.0615234375
 20
10.230769157409668
 42
0
  0
VERTEX
  8
0
 10
1333.0615234375
 20
50.230770111083984
 42
0
  0
VERTEX
  8
0
 10
1273.0615234375
 20
50.230770111083984
 42
1
  0
VERTEX
  8
0
 10
1273.0615234375
 20
10.230769157409668
 42
0
  0
SEQEND
  0
POLYLINE
  8
0
 10
0
 20
0
 39
0
 70
1
 66
1
  0
VERTEX
  8
0
 10
1266.0615234375
 20
30.230770111083984
 42
-1
  0
VERTEX
  8
0
 10
1280.0615234375
 20
30.230770111083984
 42
-1
  0
SEQEND
  0
POLYLINE
  8
0
 10
0
 20
0
 39
0
 70
1
 66
1
  0
VERTEX
  8
0
 10
1674.7769775390625
 20
200.33845520019531
 42
0
  0
VERTEX
  8
0
 10
1634.7769775390625
 20
200.33845520019531
 42
0
  0
VERTEX
  8
0
 10
1634.7769775390625
 20
140.33845520019531
 42
1
  0
VERTEX
  8
0
 10
1674.7769775390625
 20
140.33845520019531
 42
0
  0
SEQEND
  0
POLYLINE
  8
0
 10
0
 20
0
 39
0
 70
1
 66
1
  0
VERTEX
  8
0
 10
1654.7769775390625
 20
133.33845520019531
 42
-1
  0
VERTEX
  8
0
 10
1654.7769775390625
 20
147.33845520019531
 42
-1
  0
SEQEND
  0
POLYLINE
  8
0
 10
0
 20
0
 39
0
 70
1
 66
1
  0
VERTEX
  8
0
 10
1677.1307373046875
 20
738.5845947265625
 42
0
  0
VERTEX
  8
0
 10
1637.1307373046875
 20
738.5845947265625
 42
0
  0
VERTEX
  8
0
 10
1637.1307373046875
 20
678.5845947265625
 42
1
  0
VERTEX
  8
0
 10
1677.1307373046875
 20
678.5845947265625
 42
0
  0
SEQEND
  0
POLYLINE
  8
0
 10
0
 20
0
 39
0
 70
1
 66
1
  0
VERTEX
  8
0
 10
1657.1307373046875
 20
671.5845947265625
 42
-1
  0
VERTEX
  8
0
 10
1657.1307373046875
 20
685.5845947265625
 42
-1
  0
SEQEND
  0
POLYLINE
  8
0
 10
0
 20
0
 39
0
 70
1
 66
1
  0
VERTEX
  8
0
 10
1680.0076904296875
 20
828.68463134765625
 42
0
  0
VERTEX
  8
0
 10
1640.0076904296875
 20
828.68463134765625
 42
0
  0
VERTEX
  8
0
 10
1640.0076904296875
 20
768.68463134765625
 42
1
  0
VERTEX
  8
0
 10
1680.0076904296875
 20
768.68463134765625
 42
0
  0
SEQEND
  0
POLYLINE
  8
0
 10
0
 20
0
 39
0
 70
1
 66
1
  0
VERTEX
  8
0
 10
1660.0076904296875
 20
761.68463134765625
 42
-1
  0
VERTEX
  8
0
 10
1660.0076904296875
 20
775.68463134765625
 42
-1
  0
SEQEND
  0
ENDSEC
  0
EOF
