  0
SECTION
  2
ENTITIES
  0
POLYLINE
  8
0
 10
0
 20
0
 39
0
 70
1
 66
1
  0
VERTEX
  8
0
 10
0
 20
0
 42
-0
  0
VERTEX
  8
0
 10
2500
 20
0
 42
-0
  0
VERTEX
  8
0
 10
2500
 20
1000
 42
-0
  0
VERTEX
  8
0
 10
0
 20
1000
 42
-0
  0
SEQEND
  0
POLYLINE
  8
0
 10
0
 20
0
 39
0
 70
1
 66
1
  0
VERTEX
  8
0
 10
198.61567687988281
 20
152.19618225097656
 42
-0.18034951388835907
  0
VERTEX
  8
0
 10
125.68100738525391
 20
254.64813232421875
 42
0
  0
VERTEX
  8
0
 10
110.00409698486328
 20
313.1551513671875
 42
-0
  0
VERTEX
  8
0
 10
102.23952484130859
 20
342.1329345703125
 42
0
  0
VERTEX
  8
0
 10
24.965459823608398
 20
321.42742919921875
 42
0
  0
VERTEX
  8
0
 10
32.730033874511719
 20
292.44964599609375
 42
0
  0
VERTEX
  8
0
 10
51.255352020263672
 20
223.31221008300781
 42
-0.26879748702049255
  0
VERTEX
  8
0
 10
27.759876251220703
 20
136.17776489257812
 42
0.17557798326015472
  0
VERTEX
  8
0
 10
10.416669845581055
 20
89.597457885742188
 42
0
  0
VERTEX
  8
0
 10
10.416666984558105
 20
80.572486877441406
 42
0.18922078609466553
  0
VERTEX
  8
0
 10
56.673259735107422
 20
10.416669845581055
 42
-0
  0
VERTEX
  8
0
 10
70.916671752929687
 20
10.416670799255371
 42
-0
  0
VERTEX
  8
0
 10
70.916664123535156
 20
78.952362060546875
 42
-0.18776322901248932
  0
VERTEX
  8
0
 10
73.548248291015625
 20
85.7130126953125
 42
-0.43962624669075012
  0
VERTEX
  8
0
 10
172.28507995605469
 20
85.713020324707031
 42
-0.18776324391365051
  0
VERTEX
  8
0
 10
174.91665649414062
 20
78.952369689941406
 42
0
  0
VERTEX
  8
0
 10
174.91667175292969
 20
10.416669845581055
 42
-0
  0
VERTEX
  8
0
 10
189.16006469726562
 20
10.416666984558105
 42
0.16100949048995972
  0
VERTEX
  8
0
 10
232.13735961914062
 20
68.423210144042969
 42
0.29989528656005859
  0
VERTEX
  8
0
 10
211.18589782714844
 20
142.56138610839844
 42
0.029354797676205635
  0
SEQEND
  0
POLYLINE
  8
0
 10
0
 20
0
 39
0
 70
1
 66
1
  0
VERTEX
  8
0
 10
47.217662811279297
 20
424.93673706054687
 42
-0.18034951388835907
  0
VERTEX
  8
0
 10
120.15232086181641
 20
322.48480224609375
 42
0
  0
VERTEX
  8
0
 10
135.82923889160156
 20
263.977783203125
 42
-0
  0
VERTEX
  8
0
 10
143.59381103515625
 20
235
 42
0
  0
VERTEX
  8
0
 10
220.86787414550781
 20
255.70552062988281
 42
0
  0
VERTEX
  8
0
 10
213.10330200195312
 20
284.68328857421875
 42
0
  0
VERTEX
  8
0
 10
194.57798767089844
 20
353.82073974609375
 42
-0.26879748702049255
  0
VERTEX
  8
0
 10
218.07345581054687
 20
440.95516967773437
 42
0.17557798326015472
  0
VERTEX
  8
0
 10
235.41665649414062
 20
487.53549194335937
 42
0
  0
VERTEX
  8
0
 10
235.41667175292969
 20
496.56045532226562
 42
0.18922078609466553
  0
VERTEX
  8
0
 10
189.16007995605469
 20
566.71624755859375
 42
-0
  0
VERTEX
  8
0
 10
174.91667175292969
 20
566.71624755859375
 42
-0
  0
VERTEX
  8
0
 10
174.91667175292969
 20
498.18057250976562
 42
-0.18776322901248932
  0
VERTEX
  8
0
 10
172.28509521484375
 20
491.419921875
 42
-0.43962624669075012
  0
VERTEX
  8
0
 10
73.548248291015625
 20
491.419921875
 42
-0.18776324391365051
  0
VERTEX
  8
0
 10
70.916671752929687
 20
498.18057250976562
 42
0
  0
VERTEX
  8
0
 10
70.916671752929687
 20
566.71624755859375
 42
-0
  0
VERTEX
  8
0
 10
56.673263549804687
 20
566.71624755859375
 42
0.16100949048995972
  0
VERTEX
  8
0
 10
13.695969581604004
 20
508.709716796875
 42
0.29989528656005859
  0
VERTEX
  8
0
 10
34.647438049316406
 20
434.57156372070312
 42
0.029354797676205635
  0
SEQEND
  0
POLYLINE
  8
0
 10
0
 20
0
 39
0
 70
1
 66
1
  0
VERTEX
  8
0
 10
47.217662811279297
 20
759.311767578125
 42
-0.18034951388835907
  0
VERTEX
  8
0
 10
120.15232086181641
 20
656.85980224609375
 42
0
  0
VERTEX
  8
0
 10
135.82923889160156
 20
598.352783203125
 42
-0
  0
VERTEX
  8
0
 10
143.59381103515625
 20
569.375
 42
0
  0
VERTEX
  8
0
 10
220.86787414550781
 20
590.08050537109375
 42
0
  0
VERTEX
  8
0
 10
213.10330200195312
 20
619.05828857421875
 42
0
  0
VERTEX
  8
0
 10
194.57798767089844
 20
688.19573974609375
 42
-0.26879748702049255
  0
VERTEX
  8
0
 10
218.07345581054687
 20
775.3302001953125
 42
0.17557798326015472
  0
VERTEX
  8
0
 10
235.41665649414062
 20
821.91046142578125
 42
0
  0
VERTEX
  8
0
 10
235.41667175292969
 20
830.9354248046875
 42
0.18922078609466553
  0
VERTEX
  8
0
 10
189.16007995605469
 20
901.09124755859375
 42
-0
  0
VERTEX
  8
0
 10
174.91667175292969
 20
901.09124755859375
 42
-0
  0
VERTEX
  8
0
 10
174.91667175292969
 20
832.55560302734375
 42
-0.18776322901248932
  0
VERTEX
  8
0
 10
172.28509521484375
 20
825.794921875
 42
-0.43962624669075012
  0
VERTEX
  8
0
 10
73.548248291015625
 20
825.794921875
 42
-0.18776324391365051
  0
VERTEX
  8
0
 10
70.916671752929687
 20
832.5555419921875
 42
0
  0
VERTEX
  8
0
 10
70.916671752929687
 20
901.09124755859375
 42
-0
  0
VERTEX
  8
0
 10
56.673263549804687
 20
901.09124755859375
 42
0.16100949048995972
  0
VERTEX
  8
0
 10
13.695969581604004
 20
843.084716796875
 42
0.29989528656005859
  0
VERTEX
  8
0
 10
34.647438049316406
 20
768.946533203125
 42
0.029354797676205635
  0
SEQEND
  0
POLYLINE
  8
0
 10
0
 20
0
 39
0
 70
1
 66
1
  0
VERTEX
  8
0
 10
239.09266662597656
 20
312.85342407226562
 42
-0.18034951388835907
  0
VERTEX
  8
0
 10
312.02731323242187
 20
210.40147399902344
 42
0
  0
VERTEX
  8
0
 10
327.7042236328125
 20
151.89443969726562
 42
-0
  0
VERTEX
  8
0
 10
335.46881103515625
 20
122.91666412353516
 42
0
  0
VERTEX
  8
0
 10
412.74285888671875
 20
143.6221923828125
 42
0
  0
VERTEX
  8
0
 10
404.97830200195312
 20
172.59996032714844
 42
0
  0
VERTEX
  8
0
 10
386.45297241210937
 20
241.73739624023437
 42
-0.26879748702049255
  0
VERTEX
  8
0
 10
409.94845581054687
 20
328.87185668945312
 42
0.17557798326015472
  0
VERTEX
  8
0
 10
427.29165649414062
 20
375.4521484375
 42
0
  0
VERTEX
  8
0
 10
427.29165649414062
 20
384.47711181640625
 42
0.18922078609466553
  0
VERTEX
  8
0
 10
381.03506469726562
 20
454.6329345703125
 42
-0
  0
VERTEX
  8
0
 10
366.79165649414062
 20
454.6329345703125
 42
-0
  0
VERTEX
  8
0
 10
366.79165649414062
 20
386.09722900390625
 42
-0.18776322901248932
  0
VERTEX
  8
0
 10
364.16009521484375
 20
379.33657836914063
 42
-0.43962624669075012
  0
VERTEX
  8
0
 10
265.42324829101562
 20
379.33657836914063
 42
-0.18776324391365051
  0
VERTEX
  8
0
 10
262.79165649414062
 20
386.09722900390625
 42
0
  0
VERTEX
  8
0
 10
262.79165649414062
 20
454.6329345703125
 42
-0
  0
VERTEX
  8
0
 10
248.54826354980469
 20
454.6329345703125
 42
0.16100949048995972
  0
VERTEX
  8
0
 10
205.57096862792969
 20
396.62640380859375
 42
0.29989528656005859
  0
VERTEX
  8
0
 10
226.52244567871094
 20
322.48822021484375
 42
0.029354797676205635
  0
SEQEND
  0
POLYLINE
  8
0
 10
0
 20
0
 39
0
 70
1
 66
1
  0
VERTEX
  8
0
 10
239.09266662597656
 20
647.2283935546875
 42
-0.18034951388835907
  0
VERTEX
  8
0
 10
312.02731323242187
 20
544.7764892578125
 42
0
  0
VERTEX
  8
0
 10
327.7042236328125
 20
486.26943969726562
 42
-0
  0
VERTEX
  8
0
 10
335.46881103515625
 20
457.29165649414062
 42
0
  0
VERTEX
  8
0
 10
412.74285888671875
 20
477.9971923828125
 42
0
  0
VERTEX
  8
0
 10
404.97830200195312
 20
506.9749755859375
 42
0
  0
VERTEX
  8
0
 10
386.45297241210937
 20
576.1124267578125
 42
-0.26879748702049255
  0
VERTEX
  8
0
 10
409.94845581054687
 20
663.246826171875
 42
0.17557798326015472
  0
VERTEX
  8
0
 10
427.29165649414062
 20
709.8271484375
 42
0
  0
VERTEX
  8
0
 10
427.29165649414062
 20
718.85211181640625
 42
0.18922078609466553
  0
VERTEX
  8
0
 10
381.03506469726562
 20
789.0079345703125
 42
-0
  0
VERTEX
  8
0
 10
366.79165649414062
 20
789.0079345703125
 42
-0
  0
VERTEX
  8
0
 10
366.79165649414062
 20
720.47222900390625
 42
-0.18776322901248932
  0
VERTEX
  8
0
 10
364.16009521484375
 20
713.71160888671875
 42
-0.43962624669075012
  0
VERTEX
  8
0
 10
265.42324829101562
 20
713.71160888671875
 42
-0.18776324391365051
  0
VERTEX
  8
0
 10
262.79165649414062
 20
720.47222900390625
 42
0
  0
VERTEX
  8
0
 10
262.79165649414062
 20
789.0079345703125
 42
-0
  0
VERTEX
  8
0
 10
248.54826354980469
 20
789.0079345703125
 42
0.16100949048995972
  0
VERTEX
  8
0
 10
205.57096862792969
 20
731.00140380859375
 42
0.29989528656005859
  0
VERTEX
  8
0
 10
226.52244567871094
 20
656.86322021484375
 42
0.029354797676205635
  0
SEQEND
  0
POLYLINE
  8
0
 10
0
 20
0
 39
0
 70
1
 66
1
  0
VERTEX
  8
0
 10
358.4676513671875
 20
847.8533935546875
 42
-0.18034951388835907
  0
VERTEX
  8
0
 10
431.40231323242187
 20
745.4014892578125
 42
0
  0
VERTEX
  8
0
 10
447.0792236328125
 20
686.89447021484375
 42
-0
  0
VERTEX
  8
0
 10
454.84381103515625
 20
657.91668701171875
 42
0
  0
VERTEX
  8
0
 10
532.11785888671875
 20
678.6221923828125
 42
0
  0
VERTEX
  8
0
 10
524.353271484375
 20
707.5999755859375
 42
0
  0
VERTEX
  8
0
 10
505.82797241210937
 20
776.7374267578125
 42
-0.26879748702049255
  0
VERTEX
  8
0
 10
529.323486328125
 20
863.871826171875
 42
0.17557798326015472
  0
VERTEX
  8
0
 10
546.66668701171875
 20
910.4521484375
 42
0
  0
VERTEX
  8
0
 10
546.66668701171875
 20
919.47711181640625
 42
0.18922078609466553
  0
VERTEX
  8
0
 10
500.41006469726562
 20
989.6329345703125
 42
-0
  0
VERTEX
  8
0
 10
486.16665649414063
 20
989.6329345703125
 42
-0
  0
VERTEX
  8
0
 10
486.16665649414063
 20
921.09722900390625
 42
-0.18776322901248932
  0
VERTEX
  8
0
 10
483.53509521484375
 20
914.33660888671875
 42
-0.43962624669075012
  0
VERTEX
  8
0
 10
384.79824829101562
 20
914.33660888671875
 42
-0.18776324391365051
  0
VERTEX
  8
0
 10
382.16665649414062
 20
921.09722900390625
 42
0
  0
VERTEX
  8
0
 10
382.16665649414062
 20
989.6329345703125
 42
-0
  0
VERTEX
  8
0
 10
367.92327880859375
 20
989.6329345703125
 42
0.16100949048995972
  0
VERTEX
  8
0
 10
324.94598388671875
 20
931.62640380859375
 42
0.29989528656005859
  0
VERTEX
  8
0
 10
345.89743041992187
 20
857.48822021484375
 42
0.029354797676205635
  0
SEQEND
  0
POLYLINE
  8
0
 10
0
 20
0
 39
0
 70
1
 66
1
  0
VERTEX
  8
0
 10
430.9676513671875
 20
200.77008056640625
 42
-0.18034951388835907
  0
VERTEX
  8
0
 10
503.90231323242187
 20
98.318138122558594
 42
0
  0
VERTEX
  8
0
 10
519.5792236328125
 20
39.811107635498047
 42
-0
  0
VERTEX
  8
0
 10
527.34381103515625
 20
10.833333015441895
 42
0
  0
VERTEX
  8
0
 10
604.61785888671875
 20
31.538856506347656
 42
0
  0
VERTEX
  8
0
 10
596.853271484375
 20
60.516632080078125
 42
0
  0
VERTEX
  8
0
 10
578.3280029296875
 20
129.65406799316406
 42
-0.26879748702049255
  0
VERTEX
  8
0
 10
601.823486328125
 20
216.78851318359375
 42
0.17557798326015472
  0
VERTEX
  8
0
 10
619.16668701171875
 20
263.36880493164062
 42
0
  0
VERTEX
  8
0
 10
619.16668701171875
 20
272.39376831054687
 42
0.18922078609466553
  0
VERTEX
  8
0
 10
572.91009521484375
 20
342.54959106445312
 42
-0
  0
VERTEX
  8
0
 10
558.66668701171875
 20
342.54959106445312
 42
-0
  0
VERTEX
  8
0
 10
558.66668701171875
 20
274.013916015625
 42
-0.18776322901248932
  0
VERTEX
  8
0
 10
556.03509521484375
 20
267.25326538085937
 42
-0.43962624669075012
  0
VERTEX
  8
0
 10
457.29824829101562
 20
267.25326538085937
 42
-0.18776324391365051
  0
VERTEX
  8
0
 10
454.66665649414062
 20
274.013916015625
 42
0
  0
VERTEX
  8
0
 10
454.66665649414062
 20
342.54959106445312
 42
-0
  0
VERTEX
  8
0
 10
440.42327880859375
 20
342.54959106445312
 42
0.16100949048995972
  0
VERTEX
  8
0
 10
397.44598388671875
 20
284.54306030273437
 42
0.29989528656005859
  0
VERTEX
  8
0
 10
418.39743041992187
 20
210.40489196777344
 42
0.029354797676205635
  0
SEQEND
  0
POLYLINE
  8
0
 10
0
 20
0
 39
0
 70
1
 66
1
  0
VERTEX
  8
0
 10
622.1573486328125
 20
475.94619750976562
 42
-0.18034951388835907
  0
VERTEX
  8
0
 10
549.22265625
 20
578.39813232421875
 42
0
  0
VERTEX
  8
0
 10
533.5457763671875
 20
636.9051513671875
 42
-0
  0
VERTEX
  8
0
 10
525.78118896484375
 20
665.8829345703125
 42
0
  0
VERTEX
  8
0
 10
448.50714111328125
 20
645.17742919921875
 42
0
  0
VERTEX
  8
0
 10
456.27169799804687
 20
616.19964599609375
 42
0
  0
VERTEX
  8
0
 10
474.79702758789062
 20
547.06219482421875
 42
-0.26879748702049255
  0
VERTEX
  8
0
 10
451.30154418945312
 20
459.92776489257812
 42
0.17557798326015472
  0
VERTEX
  8
0
 10
433.95834350585937
 20
413.34747314453125
 42
0
  0
VERTEX
  8
0
 10
433.95834350585937
 20
404.32247924804687
 42
0.18922078609466553
  0
VERTEX
  8
0
 10
480.21493530273437
 20
334.16665649414062
 42
-0
  0
VERTEX
  8
0
 10
494.45834350585937
 20
334.16665649414062
 42
-0
  0
VERTEX
  8
0
 10
494.45834350585937
 20
402.70236206054687
 42
-0.18776322901248932
  0
VERTEX
  8
0
 10
497.08990478515625
 20
409.4630126953125
 42
-0.43962624669075012
  0
VERTEX
  8
0
 10
595.8267822265625
 20
409.4630126953125
 42
-0.18776324391365051
  0
VERTEX
  8
0
 10
598.45831298828125
 20
402.70236206054687
 42
0
  0
VERTEX
  8
0
 10
598.45831298828125
 20
334.16665649414062
 42
-0
  0
VERTEX
  8
0
 10
612.70172119140625
 20
334.16665649414062
 42
0.16100949048995972
  0
VERTEX
  8
0
 10
655.67901611328125
 20
392.1732177734375
 42
0.29989528656005859
  0
VERTEX
  8
0
 10
634.7275390625
 20
466.31137084960937
 42
0.029354797676205635
  0
SEQEND
  0
POLYLINE
  8
0
 10
0
 20
0
 39
0
 70
1
 66
1
  0
VERTEX
  8
0
 10
550.3426513671875
 20
735.77008056640625
 42
-0.18034951388835907
  0
VERTEX
  8
0
 10
623.27734375
 20
633.318115234375
 42
0
  0
VERTEX
  8
0
 10
638.9542236328125
 20
574.81109619140625
 42
-0
  0
VERTEX
  8
0
 10
646.71881103515625
 20
545.83331298828125
 42
0
  0
VERTEX
  8
0
 10
723.99285888671875
 20
566.53887939453125
 42
0
  0
VERTEX
  8
0
 10
716.228271484375
 20
595.5166015625
 42
0
  0
VERTEX
  8
0
 10
697.7030029296875
 20
664.654052734375
 42
-0.26879748702049255
  0
VERTEX
  8
0
 10
721.198486328125
 20
751.78851318359375
 42
0.17557798326015472
  0
VERTEX
  8
0
 10
738.54168701171875
 20
798.36883544921875
 42
0
  0
VERTEX
  8
0
 10
738.54168701171875
 20
807.393798828125
 42
0.18922078609466553
  0
VERTEX
  8
0
 10
692.28509521484375
 20
877.54962158203125
 42
-0
  0
VERTEX
  8
0
 10
678.04168701171875
 20
877.54962158203125
 42
-0
  0
VERTEX
  8
0
 10
678.04168701171875
 20
809.013916015625
 42
-0.18776322901248932
  0
VERTEX
  8
0
 10
675.41009521484375
 20
802.25323486328125
 42
-0.43962624669075012
  0
VERTEX
  8
0
 10
576.6732177734375
 20
802.25323486328125
 42
-0.18776324391365051
  0
VERTEX
  8
0
 10
574.04168701171875
 20
809.013916015625
 42
0
  0
VERTEX
  8
0
 10
574.04168701171875
 20
877.54962158203125
 42
-0
  0
VERTEX
  8
0
 10
559.79827880859375
 20
877.54962158203125
 42
0.16100949048995972
  0
VERTEX
  8
0
 10
516.82098388671875
 20
819.5430908203125
 42
0.29989528656005859
  0
VERTEX
  8
0
 10
537.7724609375
 20
745.4049072265625
 42
0.029354797676205635
  0
SEQEND
  0
POLYLINE
  8
0
 10
0
 20
0
 39
0
 70
1
 66
1
  0
VERTEX
  8
0
 10
790.2823486328125
 20
154.48785400390625
 42
-0.18034951388835907
  0
VERTEX
  8
0
 10
717.34765625
 20
256.93978881835938
 42
0
  0
VERTEX
  8
0
 10
701.6707763671875
 20
315.44683837890625
 42
-0
  0
VERTEX
  8
0
 10
693.90618896484375
 20
344.42459106445312
 42
0
  0
VERTEX
  8
0
 10
616.63214111328125
 20
323.71908569335938
 42
0
  0
VERTEX
  8
0
 10
624.396728515625
 20
294.74130249023437
 42
0
  0
VERTEX
  8
0
 10
642.9219970703125
 20
225.60386657714844
 42
-0.26879748702049255
  0
VERTEX
  8
0
 10
619.426513671875
 20
138.46942138671875
 42
0.17557798326015472
  0
VERTEX
  8
0
 10
602.08331298828125
 20
91.889129638671875
 42
0
  0
VERTEX
  8
0
 10
602.08331298828125
 20
82.864158630371094
 42
0.18922078609466553
  0
VERTEX
  8
0
 10
648.33990478515625
 20
12.70833683013916
 42
-0
  0
VERTEX
  8
0
 10
662.58331298828125
 20
12.708337783813477
 42
-0
  0
VERTEX
  8
0
 10
662.58331298828125
 20
81.244033813476562
 42
-0.18776322901248932
  0
VERTEX
  8
0
 10
665.21490478515625
 20
88.004676818847656
 42
-0.43962624669075012
  0
VERTEX
  8
0
 10
763.9517822265625
 20
88.004684448242188
 42
-0.18776324391365051
  0
VERTEX
  8
0
 10
766.58331298828125
 20
81.244033813476562
 42
0
  0
VERTEX
  8
0
 10
766.58331298828125
 20
12.70833683013916
 42
-0
  0
VERTEX
  8
0
 10
780.82672119140625
 20
12.708333015441895
 42
0.16100949048995972
  0
VERTEX
  8
0
 10
823.80401611328125
 20
70.714874267578125
 42
0.29989528656005859
  0
VERTEX
  8
0
 10
802.8525390625
 20
144.85304260253906
 42
0.029354797676205635
  0
SEQEND
  0
POLYLINE
  8
0
 10
0
 20
0
 39
0
 70
1
 66
1
  0
VERTEX
  8
0
 10
897.5
 20
338.95834350585937
 42
0
  0
VERTEX
  8
0
 10
897.5
 20
488.95834350585937
 42
0.41421356797218323
  0
VERTEX
  8
0
 10
837.5
 20
548.95831298828125
 42
0
  0
VERTEX
  8
0
 10
707.5
 20
548.95831298828125
 42
0.65786010026931763
  0
VERTEX
  8
0
 10
663.87481689453125
 20
447.76559448242187
 42
0
  0
VERTEX
  8
0
 10
785.5
 20
318.95834350585937
 42
0
  0
VERTEX
  8
0
 10
877.5
 20
318.95834350585937
 42
0.41421356797218323
  0
SEQEND
  0
POLYLINE
  8
0
 10
0
 20
0
 39
0
 70
1
 66
1
  0
VERTEX
  8
0
 10
933.33331298828125
 20
779.58331298828125
 42
0
  0
VERTEX
  8
0
 10
933.33331298828125
 20
929.58331298828125
 42
0.41421356797218323
  0
VERTEX
  8
0
 10
873.33331298828125
 20
989.58331298828125
 42
0
  0
VERTEX
  8
0
 10
743.33331298828125
 20
989.58331298828125
 42
0.65786010026931763
  0
VERTEX
  8
0
 10
699.7081298828125
 20
888.39056396484375
 42
0
  0
VERTEX
  8
0
 10
821.33331298828125
 20
759.58331298828125
 42
0
  0
VERTEX
  8
0
 10
913.33331298828125
 20
759.58331298828125
 42
0.41421356797218323
  0
SEQEND
  0
POLYLINE
  8
0
 10
0
 20
0
 39
0
 70
1
 66
1
  0
VERTEX
  8
0
 10
992.29168701171875
 20
98.75
 42
0
  0
VERTEX
  8
0
 10
992.29168701171875
 20
248.75
 42
0.41421356797218323
  0
VERTEX
  8
0
 10
932.29168701171875
 20
308.75
 42
0
  0
VERTEX
  8
0
 10
802.29168701171875
 20
308.75
 42
0.65786010026931763
  0
VERTEX
  8
0
 10
758.66644287109375
 20
207.5572509765625
 42
0
  0
VERTEX
  8
0
 10
880.29168701171875
 20
78.75
 42
0
  0
VERTEX
  8
0
 10
972.29168701171875
 20
78.75
 42
0.41421356797218323
  0
SEQEND
  0
POLYLINE
  8
0
 10
0
 20
0
 39
0
 70
1
 66
1
  0
VERTEX
  8
0
 10
1017.9166870117187
 20
539.375
 42
0
  0
VERTEX
  8
0
 10
1017.9166870117187
 20
689.375
 42
0.41421356797218323
  0
VERTEX
  8
0
 10
957.91668701171875
 20
749.375
 42
0
  0
VERTEX
  8
0
 10
827.91668701171875
 20
749.375
 42
0.65786010026931763
  0
VERTEX
  8
0
 10
784.29144287109375
 20
648.1822509765625
 42
0
  0
VERTEX
  8
0
 10
905.91668701171875
 20
519.375
 42
0
  0
VERTEX
  8
0
 10
997.91668701171875
 20
519.375
 42
0.41421356797218323
  0
SEQEND
  0
POLYLINE
  8
0
 10
0
 20
0
 39
0
 70
1
 66
1
  0
VERTEX
  8
0
 10
946.875
 20
318.33334350585937
 42
0
  0
VERTEX
  8
0
 10
1096.875
 20
318.33334350585937
 42
0.41421356797218323
  0
VERTEX
  8
0
 10
1156.875
 20
378.33334350585937
 42
0
  0
VERTEX
  8
0
 10
1156.875
 20
508.33334350585937
 42
0.65786010026931763
  0
VERTEX
  8
0
 10
1055.6822509765625
 20
551.95855712890625
 42
0
  0
VERTEX
  8
0
 10
926.875
 20
430.33334350585937
 42
0
  0
VERTEX
  8
0
 10
926.875
 20
338.33334350585937
 42
0.41421356797218323
  0
SEQEND
  0
POLYLINE
  8
0
 10
0
 20
0
 39
0
 70
1
 66
1
  0
VERTEX
  8
0
 10
1193.3333740234375
 20
681.45831298828125
 42
0
  0
VERTEX
  8
0
 10
1193.3333740234375
 20
831.45831298828125
 42
0.41421356797218323
  0
VERTEX
  8
0
 10
1133.3333740234375
 20
891.45831298828125
 42
0
  0
VERTEX
  8
0
 10
1003.3333129882812
 20
891.45831298828125
 42
0.65786010026931763
  0
VERTEX
  8
0
 10
959.7081298828125
 20
790.26556396484375
 42
0
  0
VERTEX
  8
0
 10
1081.3333740234375
 20
661.45831298828125
 42
0
  0
VERTEX
  8
0
 10
1173.3333740234375
 20
661.45831298828125
 42
0.41421356797218323
  0
SEQEND
  0
POLYLINE
  8
0
 10
0
 20
0
 39
0
 70
1
 66
1
  0
VERTEX
  8
0
 10
1184.7919921875
 20
99.771934509277344
 42
-0.41421356797218323
  0
VERTEX
  8
0
 10
1195.7174072265625
 20
133.39686584472656
 42
0
  0
VERTEX
  8
0
 10
1217.9925537109375
 20
144.74662780761719
 42
0.41421356797218323
  0
VERTEX
  8
0
 10
1222.3626708984375
 20
158.19659423828125
 42
0
  0
VERTEX
  8
0
 10
1172.4237060546875
 20
256.20730590820312
 42
-0
  0
VERTEX
  8
0
 10
1181.1640625
 20
283.10723876953125
 42
0
  0
VERTEX
  8
0
 10
1153.9246826171875
 20
336.56765747070312
 42
0.32444480061531067
  0
VERTEX
  8
0
 10
1129.401123046875
 20
32.267467498779297
 42
0
  0
VERTEX
  8
0
 10
1196.6510009765625
 20
10.416666984558105
 42
0
  0
VERTEX
  8
0
 10
1223.381103515625
 20
24.036380767822266
 42
0
  0
SEQEND
  0
POLYLINE
  8
0
 10
0
 20
0
 39
0
 70
1
 66
1
  0
VERTEX
  8
0
 10
1259.5836181640625
 20
469.35525512695312
 42
-0.41421356797218323
  0
VERTEX
  8
0
 10
1270.509033203125
 20
502.98019409179688
 42
0
  0
VERTEX
  8
0
 10
1292.7841796875
 20
514.3299560546875
 42
0.41421356797218323
  0
VERTEX
  8
0
 10
1297.154296875
 20
527.7799072265625
 42
0
  0
VERTEX
  8
0
 10
1247.21533203125
 20
625.7906494140625
 42
-0
  0
VERTEX
  8
0
 10
1255.9556884765625
 20
652.69061279296875
 42
0
  0
VERTEX
  8
0
 10
1228.71630859375
 20
706.1510009765625
 42
0.32444480061531067
  0
VERTEX
  8
0
 10
1204.1927490234375
 20
401.85079956054687
 42
0
  0
VERTEX
  8
0
 10
1271.442626953125
 20
380
 42
0
  0
VERTEX
  8
0
 10
1298.1728515625
 20
393.61972045898437
 42
0
  0
SEQEND
  0
POLYLINE
  8
0
 10
0
 20
0
 39
0
 70
1
 66
1
  0
VERTEX
  8
0
 10
1231.16064453125
 20
296.3790283203125
 42
-0.41421356797218323
  0
VERTEX
  8
0
 10
1220.2352294921875
 20
262.75411987304687
 42
0
  0
VERTEX
  8
0
 10
1197.9600830078125
 20
251.40435791015625
 42
0.41421356797218323
  0
VERTEX
  8
0
 10
1193.5899658203125
 20
237.95437622070312
 42
0
  0
VERTEX
  8
0
 10
1243.5289306640625
 20
139.94366455078125
 42
-0
  0
VERTEX
  8
0
 10
1234.78857421875
 20
113.04372406005859
 42
0
  0
VERTEX
  8
0
 10
1262.0279541015625
 20
59.583332061767578
 42
0.32444480061531067
  0
VERTEX
  8
0
 10
1286.551513671875
 20
363.88351440429687
 42
0
  0
VERTEX
  8
0
 10
1219.3016357421875
 20
385.73431396484375
 42
0
  0
VERTEX
  8
0
 10
1192.5714111328125
 20
372.11459350585937
 42
0
  0
SEQEND
  0
POLYLINE
  8
0
 10
0
 20
0
 39
0
 70
1
 66
1
  0
VERTEX
  8
0
 10
1241.3690185546875
 20
899.29571533203125
 42
-0.41421356797218323
  0
VERTEX
  8
0
 10
1230.443603515625
 20
865.6707763671875
 42
0
  0
VERTEX
  8
0
 10
1208.16845703125
 20
854.321044921875
 42
0.41421356797218323
  0
VERTEX
  8
0
 10
1203.7982177734375
 20
840.87103271484375
 42
0
  0
VERTEX
  8
0
 10
1253.7371826171875
 20
742.8603515625
 42
-0
  0
VERTEX
  8
0
 10
1244.9969482421875
 20
715.96038818359375
 42
0
  0
VERTEX
  8
0
 10
1272.236328125
 20
662.5
 42
0.32444480061531067
  0
VERTEX
  8
0
 10
1296.7598876953125
 20
966.8001708984375
 42
0
  0
VERTEX
  8
0
 10
1229.510009765625
 20
988.6510009765625
 42
0
  0
VERTEX
  8
0
 10
1202.77978515625
 20
975.03125
 42
0
  0
SEQEND
  0
POLYLINE
  8
0
 10
0
 20
0
 39
0
 70
1
 66
1
  0
VERTEX
  8
0
 10
1306.16064453125
 20
534.29571533203125
 42
-0.41421356797218323
  0
VERTEX
  8
0
 10
1295.2352294921875
 20
500.6707763671875
 42
0
  0
VERTEX
  8
0
 10
1272.9600830078125
 20
489.32101440429688
 42
0.41421356797218323
  0
VERTEX
  8
0
 10
1268.5899658203125
 20
475.87106323242187
 42
0
  0
VERTEX
  8
0
 10
1318.5289306640625
 20
377.86032104492187
 42
-0
  0
VERTEX
  8
0
 10
1309.78857421875
 20
350.96038818359375
 42
0
  0
VERTEX
  8
0
 10
1337.0279541015625
 20
297.5
 42
0.32444480061531067
  0
VERTEX
  8
0
 10
1361.551513671875
 20
601.8001708984375
 42
0
  0
VERTEX
  8
0
 10
1294.3016357421875
 20
623.6510009765625
 42
0
  0
VERTEX
  8
0
 10
1267.5714111328125
 20
610.03125
 42
0
  0
SEQEND
  0
POLYLINE
  8
0
 10
0
 20
0
 39
0
 70
1
 66
1
  0
VERTEX
  8
0
 10
1425.000244140625
 20
99.771934509277344
 42
-0.41421356797218323
  0
VERTEX
  8
0
 10
1435.9256591796875
 20
133.39686584472656
 42
0
  0
VERTEX
  8
0
 10
1458.2008056640625
 20
144.74662780761719
 42
0.41421356797218323
  0
VERTEX
  8
0
 10
1462.571044921875
 20
158.19659423828125
 42
0
  0
VERTEX
  8
0
 10
1412.632080078125
 20
256.20730590820312
 42
-0
  0
VERTEX
  8
0
 10
1421.3724365234375
 20
283.10723876953125
 42
0
  0
VERTEX
  8
0
 10
1394.1329345703125
 20
336.56765747070312
 42
0.32444480061531067
  0
VERTEX
  8
0
 10
1369.609375
 20
32.267467498779297
 42
0
  0
VERTEX
  8
0
 10
1436.8592529296875
 20
10.416666984558105
 42
0
  0
VERTEX
  8
0
 10
1463.5894775390625
 20
24.036380767822266
 42
0
  0
SEQEND
  0
POLYLINE
  8
0
 10
0
 20
0
 39
0
 70
1
 66
1
  0
VERTEX
  8
0
 10
1430.000244140625
 20
668.10528564453125
 42
-0.41421356797218323
  0
VERTEX
  8
0
 10
1440.9256591796875
 20
701.730224609375
 42
0
  0
VERTEX
  8
0
 10
1463.2008056640625
 20
713.0799560546875
 42
0.41421356797218323
  0
VERTEX
  8
0
 10
1467.571044921875
 20
726.5299072265625
 42
0
  0
VERTEX
  8
0
 10
1417.632080078125
 20
824.5406494140625
 42
-0
  0
VERTEX
  8
0
 10
1426.3724365234375
 20
851.44061279296875
 42
0
  0
VERTEX
  8
0
 10
1399.1329345703125
 20
904.9010009765625
 42
0.32444480061531067
  0
VERTEX
  8
0
 10
1374.609375
 20
600.600830078125
 42
0
  0
VERTEX
  8
0
 10
1441.8592529296875
 20
578.75
 42
0
  0
VERTEX
  8
0
 10
1468.5894775390625
 20
592.36968994140625
 42
0
  0
SEQEND
  0
POLYLINE
  8
0
 10
0
 20
0
 39
0
 70
1
 66
1
  0
VERTEX
  8
0
 10
1441.16064453125
 20
454.08737182617187
 42
-0.41421356797218323
  0
VERTEX
  8
0
 10
1430.2352294921875
 20
420.46246337890625
 42
0
  0
VERTEX
  8
0
 10
1407.9600830078125
 20
409.11270141601562
 42
0.41421356797218323
  0
VERTEX
  8
0
 10
1403.5899658203125
 20
395.6627197265625
 42
0
  0
VERTEX
  8
0
 10
1453.5289306640625
 20
297.65200805664062
 42
-0
  0
VERTEX
  8
0
 10
1444.78857421875
 20
270.75204467773437
 42
0
  0
VERTEX
  8
0
 10
1472.0279541015625
 20
217.29167175292969
 42
0.32444480061531067
  0
VERTEX
  8
0
 10
1496.551513671875
 20
521.59185791015625
 42
0
  0
VERTEX
  8
0
 10
1429.3016357421875
 20
543.442626953125
 42
0
  0
VERTEX
  8
0
 10
1402.5714111328125
 20
529.82293701171875
 42
0
  0
SEQEND
  0
POLYLINE
  8
0
 10
0
 20
0
 39
0
 70
1
 66
1
  0
VERTEX
  8
0
 10
1468.66064453125
 20
879.92071533203125
 42
-0.41421356797218323
  0
VERTEX
  8
0
 10
1457.7352294921875
 20
846.2957763671875
 42
0
  0
VERTEX
  8
0
 10
1435.4600830078125
 20
834.946044921875
 42
0.41421356797218323
  0
VERTEX
  8
0
 10
1431.0899658203125
 20
821.49603271484375
 42
0
  0
VERTEX
  8
0
 10
1481.0289306640625
 20
723.4853515625
 42
-0
  0
VERTEX
  8
0
 10
1472.28857421875
 20
696.58538818359375
 42
0
  0
VERTEX
  8
0
 10
1499.5279541015625
 20
643.125
 42
0.32444480061531067
  0
VERTEX
  8
0
 10
1524.051513671875
 20
947.4251708984375
 42
0
  0
VERTEX
  8
0
 10
1456.8016357421875
 20
969.2760009765625
 42
0
  0
VERTEX
  8
0
 10
1430.0714111328125
 20
955.65625
 42
0
  0
SEQEND
  0
POLYLINE
  8
0
 10
0
 20
0
 39
0
 70
1
 66
1
  0
VERTEX
  8
0
 10
1591.250244140625
 20
99.771934509277344
 42
-0.41421356797218323
  0
VERTEX
  8
0
 10
1602.1756591796875
 20
133.39686584472656
 42
0
  0
VERTEX
  8
0
 10
1624.4508056640625
 20
144.74662780761719
 42
0.41421356797218323
  0
VERTEX
  8
0
 10
1628.821044921875
 20
158.19659423828125
 42
0
  0
VERTEX
  8
0
 10
1578.882080078125
 20
256.20730590820312
 42
-0
  0
VERTEX
  8
0
 10
1587.6224365234375
 20
283.10723876953125
 42
0
  0
VERTEX
  8
0
 10
1560.3829345703125
 20
336.56765747070312
 42
0.32444480061531067
  0
VERTEX
  8
0
 10
1535.859375
 20
32.267467498779297
 42
0
  0
VERTEX
  8
0
 10
1603.1092529296875
 20
10.416666984558105
 42
0
  0
VERTEX
  8
0
 10
1629.8394775390625
 20
24.036380767822266
 42
0
  0
SEQEND
  0
POLYLINE
  8
0
 10
0
 20
0
 39
0
 70
1
 66
1
  0
VERTEX
  8
0
 10
1606.4586181640625
 20
500.1885986328125
 42
-0.41421356797218323
  0
VERTEX
  8
0
 10
1617.384033203125
 20
533.81353759765625
 42
0
  0
VERTEX
  8
0
 10
1639.6591796875
 20
545.16326904296875
 42
0.41421356797218323
  0
VERTEX
  8
0
 10
1644.029296875
 20
558.61328125
 42
0
  0
VERTEX
  8
0
 10
1594.09033203125
 20
656.62396240234375
 42
-0
  0
VERTEX
  8
0
 10
1602.8306884765625
 20
683.52392578125
 42
0
  0
VERTEX
  8
0
 10
1575.59130859375
 20
736.98431396484375
 42
0.32444480061531067
  0
VERTEX
  8
0
 10
1551.0677490234375
 20
432.68414306640625
 42
0
  0
VERTEX
  8
0
 10
1618.317626953125
 20
410.83334350585937
 42
0
  0
VERTEX
  8
0
 10
1645.0478515625
 20
424.45303344726562
 42
0
  0
SEQEND
  0
POLYLINE
  8
0
 10
0
 20
0
 39
0
 70
1
 66
1
  0
VERTEX
  8
0
 10
1608.66064453125
 20
827.6290283203125
 42
-0.41421356797218323
  0
VERTEX
  8
0
 10
1597.7352294921875
 20
794.00408935546875
 42
0
  0
VERTEX
  8
0
 10
1575.4600830078125
 20
782.65435791015625
 42
0.41421356797218323
  0
VERTEX
  8
0
 10
1571.0899658203125
 20
769.20440673828125
 42
0
  0
VERTEX
  8
0
 10
1621.0289306640625
 20
671.19366455078125
 42
-0
  0
VERTEX
  8
0
 10
1612.28857421875
 20
644.293701171875
 42
0
  0
VERTEX
  8
0
 10
1639.5279541015625
 20
590.83331298828125
 42
0.32444480061531067
  0
VERTEX
  8
0
 10
1664.051513671875
 20
895.13348388671875
 42
0
  0
VERTEX
  8
0
 10
1596.8016357421875
 20
916.98431396484375
 42
0
  0
VERTEX
  8
0
 10
1570.0714111328125
 20
903.3646240234375
 42
0
  0
SEQEND
  0
POLYLINE
  8
0
 10
0
 20
0
 39
0
 70
1
 66
1
  0
VERTEX
  8
0
 10
1630.1190185546875
 20
311.17071533203125
 42
-0.41421356797218323
  0
VERTEX
  8
0
 10
1619.193603515625
 20
277.5457763671875
 42
0
  0
VERTEX
  8
0
 10
1596.91845703125
 20
266.19601440429688
 42
0.41421356797218323
  0
VERTEX
  8
0
 10
1592.5482177734375
 20
252.74604797363281
 42
0
  0
VERTEX
  8
0
 10
1642.4871826171875
 20
154.73533630371094
 42
-0
  0
VERTEX
  8
0
 10
1633.7469482421875
 20
127.83538818359375
 42
0
  0
VERTEX
  8
0
 10
1660.986328125
 20
74.375
 42
0.32444480061531067
  0
VERTEX
  8
0
 10
1685.5098876953125
 20
378.6751708984375
 42
0
  0
VERTEX
  8
0
 10
1618.260009765625
 20
400.52597045898437
 42
0
  0
VERTEX
  8
0
 10
1591.52978515625
 20
386.90625
 42
0
  0
SEQEND
  0
POLYLINE
  8
0
 10
0
 20
0
 39
0
 70
1
 66
1
  0
VERTEX
  8
0
 10
1748.9586181640625
 20
452.89694213867187
 42
-0.41421356797218323
  0
VERTEX
  8
0
 10
1759.884033203125
 20
486.5218505859375
 42
0
  0
VERTEX
  8
0
 10
1782.1591796875
 20
497.87161254882812
 42
0.41421356797218323
  0
VERTEX
  8
0
 10
1786.529296875
 20
511.32159423828125
 42
0
  0
VERTEX
  8
0
 10
1736.59033203125
 20
609.33233642578125
 42
-0
  0
VERTEX
  8
0
 10
1745.3306884765625
 20
636.23223876953125
 42
0
  0
VERTEX
  8
0
 10
1718.09130859375
 20
689.692626953125
 42
0.32444480061531067
  0
VERTEX
  8
0
 10
1693.5677490234375
 20
385.3924560546875
 42
0
  0
VERTEX
  8
0
 10
1760.817626953125
 20
363.54165649414062
 42
0
  0
VERTEX
  8
0
 10
1787.5478515625
 20
377.161376953125
 42
0
  0
SEQEND
  0
POLYLINE
  8
0
 10
0
 20
0
 39
0
 70
1
 66
1
  0
VERTEX
  8
0
 10
1737.6190185546875
 20
900.33740234375
 42
-0.41421356797218323
  0
VERTEX
  8
0
 10
1726.693603515625
 20
866.71246337890625
 42
0
  0
VERTEX
  8
0
 10
1704.41845703125
 20
855.3626708984375
 42
0.41421356797218323
  0
VERTEX
  8
0
 10
1700.0482177734375
 20
841.9127197265625
 42
0
  0
VERTEX
  8
0
 10
1749.9871826171875
 20
743.9019775390625
 42
-0
  0
VERTEX
  8
0
 10
1741.2469482421875
 20
717.0020751953125
 42
0
  0
VERTEX
  8
0
 10
1768.486328125
 20
663.54168701171875
 42
0.32444480061531067
  0
VERTEX
  8
0
 10
1793.0098876953125
 20
967.84185791015625
 42
0
  0
VERTEX
  8
0
 10
1725.760009765625
 20
989.692626953125
 42
0
  0
VERTEX
  8
0
 10
1699.02978515625
 20
976.07293701171875
 42
0
  0
SEQEND
  0
POLYLINE
  8
0
 10
0
 20
0
 39
0
 70
1
 66
1
  0
VERTEX
  8
0
 10
1883.68798828125
 20
65.048576354980469
 42
0
  0
VERTEX
  8
0
 10
1873.74462890625
 20
171.92292785644531
 42
-0.16522890329360962
  0
VERTEX
  8
0
 10
1881.9742431640625
 20
206.33694458007812
 42
0.45685026049613953
  0
VERTEX
  8
0
 10
1875.38427734375
 20
228.03619384765625
 42
0
  0
VERTEX
  8
0
 10
1785.259765625
 20
268.1622314453125
 42
0.47681730985641479
  0
VERTEX
  8
0
 10
1764.488037109375
 20
257.58529663085937
 42
-0.13908877968788147
  0
VERTEX
  8
0
 10
1733.874755859375
 20
199.6845703125
 42
0.39091739058494568
  0
VERTEX
  8
0
 10
1733.401123046875
 20
172.56088256835937
 42
-0.089740872383117676
  0
VERTEX
  8
0
 10
1742.68994140625
 20
157.37109375
 42
0
  0
VERTEX
  8
0
 10
1787.2838134765625
 20
42.343341827392578
 42
0.87024569511413574
  0
SEQEND
  0
POLYLINE
  8
0
 10
0
 20
0
 39
0
 70
1
 66
1
  0
VERTEX
  8
0
 10
1913.479736328125
 20
484.84024047851562
 42
0
  0
VERTEX
  8
0
 10
1903.5362548828125
 20
591.714599609375
 42
-0.16522890329360962
  0
VERTEX
  8
0
 10
1911.765869140625
 20
626.12860107421875
 42
0.45685026049613953
  0
VERTEX
  8
0
 10
1905.1759033203125
 20
647.827880859375
 42
0
  0
VERTEX
  8
0
 10
1815.0513916015625
 20
687.95391845703125
 42
0.47681730985641479
  0
VERTEX
  8
0
 10
1794.27978515625
 20
677.376953125
 42
-0.13908877968788147
  0
VERTEX
  8
0
 10
1763.6663818359375
 20
619.47625732421875
 42
0.39091739058494568
  0
VERTEX
  8
0
 10
1763.1927490234375
 20
592.3525390625
 42
-0.089740872383117676
  0
VERTEX
  8
0
 10
1772.4815673828125
 20
577.16278076171875
 42
0
  0
VERTEX
  8
0
 10
1817.075439453125
 20
462.135009765625
 42
0.87024569511413574
  0
SEQEND
  0
POLYLINE
  8
0
 10
0
 20
0
 39
0
 70
1
 66
1
  0
VERTEX
  8
0
 10
1987.6463623046875
 20
784.63189697265625
 42
0
  0
VERTEX
  8
0
 10
1977.7030029296875
 20
891.50628662109375
 42
-0.16522890329360962
  0
VERTEX
  8
0
 10
1985.9326171875
 20
925.9202880859375
 42
0.45685026049613953
  0
VERTEX
  8
0
 10
1979.342529296875
 20
947.6195068359375
 42
0
  0
VERTEX
  8
0
 10
1889.218017578125
 20
987.74554443359375
 42
0.47681730985641479
  0
VERTEX
  8
0
 10
1868.4464111328125
 20
977.16864013671875
 42
-0.13908877968788147
  0
VERTEX
  8
0
 10
1837.8331298828125
 20
919.26788330078125
 42
0.39091739058494568
  0
VERTEX
  8
0
 10
1837.3594970703125
 20
892.14422607421875
 42
-0.089740872383117676
  0
VERTEX
  8
0
 10
1846.648193359375
 20
876.95440673828125
 42
0
  0
VERTEX
  8
0
 10
1891.2420654296875
 20
761.92669677734375
 42
0.87024569511413574
  0
SEQEND
  0
POLYLINE
  8
0
 10
0
 20
0
 39
0
 70
1
 66
1
  0
VERTEX
  8
0
 10
1999.104736328125
 20
221.71524047851562
 42
0
  0
VERTEX
  8
0
 10
1989.1612548828125
 20
328.589599609375
 42
-0.16522890329360962
  0
VERTEX
  8
0
 10
1997.390869140625
 20
363.00363159179687
 42
0.45685026049613953
  0
VERTEX
  8
0
 10
1990.8009033203125
 20
384.702880859375
 42
0
  0
VERTEX
  8
0
 10
1900.6763916015625
 20
424.82888793945313
 42
0.47681730985641479
  0
VERTEX
  8
0
 10
1879.90478515625
 20
414.251953125
 42
-0.13908877968788147
  0
VERTEX
  8
0
 10
1849.2913818359375
 20
356.35122680664062
 42
0.39091739058494568
  0
VERTEX
  8
0
 10
1848.8177490234375
 20
329.2275390625
 42
-0.089740872383117676
  0
VERTEX
  8
0
 10
1858.1065673828125
 20
314.03778076171875
 42
0
  0
VERTEX
  8
0
 10
1902.700439453125
 20
199.010009765625
 42
0.87024569511413574
  0
SEQEND
  0
POLYLINE
  8
0
 10
0
 20
0
 39
0
 70
1
 66
1
  0
VERTEX
  8
0
 10
1914.34521484375
 20
590.4521484375
 42
0
  0
VERTEX
  8
0
 10
1924.28857421875
 20
483.57778930664062
 42
-0.16522890329360962
  0
VERTEX
  8
0
 10
1916.0589599609375
 20
449.16375732421875
 42
0.45685026049613953
  0
VERTEX
  8
0
 10
1922.64892578125
 20
427.46450805664062
 42
0
  0
VERTEX
  8
0
 10
2012.7734375
 20
387.33847045898437
 42
0.47681730985641479
  0
VERTEX
  8
0
 10
2033.545166015625
 20
397.91543579101562
 42
-0.13908877968788147
  0
VERTEX
  8
0
 10
2064.158447265625
 20
455.816162109375
 42
0.39091739058494568
  0
VERTEX
  8
0
 10
2064.632080078125
 20
482.9398193359375
 42
-0.089740872383117676
  0
VERTEX
  8
0
 10
2055.34326171875
 20
498.12960815429687
 42
0
  0
VERTEX
  8
0
 10
2010.7493896484375
 20
613.1573486328125
 42
0.87024569511413574
  0
SEQEND
  0
POLYLINE
  8
0
 10
0
 20
0
 39
0
 70
1
 66
1
  0
VERTEX
  8
0
 10
2131.18798828125
 20
603.173583984375
 42
0
  0
VERTEX
  8
0
 10
2121.24462890625
 20
710.04791259765625
 42
-0.16522890329360962
  0
VERTEX
  8
0
 10
2129.474365234375
 20
744.46197509765625
 42
0.45685026049613953
  0
VERTEX
  8
0
 10
2122.88427734375
 20
766.16119384765625
 42
0
  0
VERTEX
  8
0
 10
2032.759765625
 20
806.2872314453125
 42
0.47681730985641479
  0
VERTEX
  8
0
 10
2011.988037109375
 20
795.71026611328125
 42
-0.13908877968788147
  0
VERTEX
  8
0
 10
1981.374755859375
 20
737.8095703125
 42
0.39091739058494568
  0
VERTEX
  8
0
 10
1980.901123046875
 20
710.6859130859375
 42
-0.089740872383117676
  0
VERTEX
  8
0
 10
1990.18994140625
 20
695.49609375
 42
0
  0
VERTEX
  8
0
 10
2034.7838134765625
 20
580.46832275390625
 42
0.87024569511413574
  0
SEQEND
  0
POLYLINE
  8
0
 10
0
 20
0
 39
0
 70
1
 66
1
  0
VERTEX
  8
0
 10
1946.5069580078125
 20
44.136852264404297
 42
0
  0
VERTEX
  8
0
 10
2053.38134765625
 20
54.080238342285156
 42
-0.16522890329360962
  0
VERTEX
  8
0
 10
2087.795166015625
 20
45.850612640380859
 42
0.45685026049613953
  0
VERTEX
  8
0
 10
2109.49462890625
 20
52.44061279296875
 42
0
  0
VERTEX
  8
0
 10
2149.62060546875
 20
142.56515502929687
 42
0.47681730985641479
  0
VERTEX
  8
0
 10
2139.043701171875
 20
163.33680725097656
 42
-0.13908877968788147
  0
VERTEX
  8
0
 10
2081.142822265625
 20
193.95011901855469
 42
0.39091739058494568
  0
VERTEX
  8
0
 10
2054.019287109375
 20
194.42373657226562
 42
-0.089740872383117676
  0
VERTEX
  8
0
 10
2038.8294677734375
 20
185.13496398925781
 42
0
  0
VERTEX
  8
0
 10
1923.8016357421875
 20
140.54109191894531
 42
0.87024569511413574
  0
SEQEND
  0
POLYLINE
  8
0
 10
0
 20
0
 39
0
 70
1
 66
1
  0
VERTEX
  8
0
 10
2178.271240234375
 20
237.75691223144531
 42
0
  0
VERTEX
  8
0
 10
2168.327880859375
 20
344.63125610351562
 42
-0.16522890329360962
  0
VERTEX
  8
0
 10
2176.5576171875
 20
379.0452880859375
 42
0.45685026049613953
  0
VERTEX
  8
0
 10
2169.967529296875
 20
400.74453735351562
 42
0
  0
VERTEX
  8
0
 10
2079.843017578125
 20
440.87057495117187
 42
0.47681730985641479
  0
VERTEX
  8
0
 10
2059.0712890625
 20
430.29360961914062
 42
-0.13908877968788147
  0
VERTEX
  8
0
 10
2028.4581298828125
 20
372.39291381835938
 42
0.39091739058494568
  0
VERTEX
  8
0
 10
2027.9844970703125
 20
345.26922607421875
 42
-0.089740872383117676
  0
VERTEX
  8
0
 10
2037.273193359375
 20
330.07943725585938
 42
0
  0
VERTEX
  8
0
 10
2081.8671875
 20
215.05168151855469
 42
0.87024569511413574
  0
SEQEND
  0
POLYLINE
  8
0
 10
0
 20
0
 39
0
 70
1
 66
1
  0
VERTEX
  8
0
 10
2236.81298828125
 20
785.048583984375
 42
0
  0
VERTEX
  8
0
 10
2226.86962890625
 20
891.92291259765625
 42
-0.16522890329360962
  0
VERTEX
  8
0
 10
2235.099365234375
 20
926.33697509765625
 42
0.45685026049613953
  0
VERTEX
  8
0
 10
2228.50927734375
 20
948.03619384765625
 42
0
  0
VERTEX
  8
0
 10
2138.384765625
 20
988.1622314453125
 42
0.47681730985641479
  0
VERTEX
  8
0
 10
2117.613037109375
 20
977.58526611328125
 42
-0.13908877968788147
  0
VERTEX
  8
0
 10
2086.999755859375
 20
919.6845703125
 42
0.39091739058494568
  0
VERTEX
  8
0
 10
2086.526123046875
 20
892.5609130859375
 42
-0.089740872383117676
  0
VERTEX
  8
0
 10
2095.81494140625
 20
877.37109375
 42
0
  0
VERTEX
  8
0
 10
2140.40869140625
 20
762.34332275390625
 42
0.87024569511413574
  0
SEQEND
  0
POLYLINE
  8
0
 10
0
 20
0
 39
0
 70
1
 66
1
  0
VERTEX
  8
0
 10
2280.146240234375
 20
427.75689697265625
 42
0
  0
VERTEX
  8
0
 10
2270.202880859375
 20
534.63128662109375
 42
-0.16522890329360962
  0
VERTEX
  8
0
 10
2278.4326171875
 20
569.0452880859375
 42
0.45685026049613953
  0
VERTEX
  8
0
 10
2271.842529296875
 20
590.7445068359375
 42
0
  0
VERTEX
  8
0
 10
2181.718017578125
 20
630.87054443359375
 42
0.47681730985641479
  0
VERTEX
  8
0
 10
2160.9462890625
 20
620.29364013671875
 42
-0.13908877968788147
  0
VERTEX
  8
0
 10
2130.3330078125
 20
562.39288330078125
 42
0.39091739058494568
  0
VERTEX
  8
0
 10
2129.859375
 20
535.26922607421875
 42
-0.089740872383117676
  0
VERTEX
  8
0
 10
2139.148193359375
 20
520.07940673828125
 42
0
  0
VERTEX
  8
0
 10
2183.7421875
 20
405.05166625976562
 42
0.87024569511413574
  0
SEQEND
  0
POLYLINE
  8
0
 10
0
 20
0
 39
0
 70
1
 66
1
  0
VERTEX
  8
0
 10
2288.541748046875
 20
588.75
 42
-0
  0
VERTEX
  8
0
 10
2293.541748046875
 20
588.75
 42
-0.57735002040863037
  0
VERTEX
  8
0
 10
2297.871826171875
 20
581.25
 42
0
  0
VERTEX
  8
0
 10
2288.541748046875
 20
565.0897216796875
 42
0
  0
VERTEX
  8
0
 10
2288.541748046875
 20
498.75
 42
-0
  0
VERTEX
  8
0
 10
2308.541748046875
 20
498.75
 42
-0
  0
VERTEX
  8
0
 10
2318.541748046875
 20
508.75
 42
-0
  0
VERTEX
  8
0
 10
2318.541748046875
 20
958.75
 42
1
  0
VERTEX
  8
0
 10
2288.541748046875
 20
958.75
 42
0
  0
SEQEND
  0
POLYLINE
  8
0
 10
0
 20
0
 39
0
 70
1
 66
1
  0
VERTEX
  8
0
 10
2290.625
 20
100.41667175292969
 42
-0
  0
VERTEX
  8
0
 10
2295.625
 20
100.41667175292969
 42
-0.57735002040863037
  0
VERTEX
  8
0
 10
2299.955078125
 20
92.916664123535156
 42
0
  0
VERTEX
  8
0
 10
2290.625
 20
76.756416320800781
 42
0
  0
VERTEX
  8
0
 10
2290.625
 20
10.416666984558105
 42
-0
  0
VERTEX
  8
0
 10
2310.625
 20
10.416666984558105
 42
-0
  0
VERTEX
  8
0
 10
2320.625
 20
20.416666030883789
 42
-0
  0
VERTEX
  8
0
 10
2320.625
 20
470.41665649414062
 42
1
  0
VERTEX
  8
0
 10
2290.625
 20
470.41665649414062
 42
0
  0
SEQEND
  0
POLYLINE
  8
0
 10
0
 20
0
 39
0
 70
1
 66
1
  0
VERTEX
  8
0
 10
2358.958251953125
 20
853.75
 42
-0
  0
VERTEX
  8
0
 10
2353.958251953125
 20
853.75
 42
-0.57735002040863037
  0
VERTEX
  8
0
 10
2349.628173828125
 20
861.25
 42
0
  0
VERTEX
  8
0
 10
2358.958251953125
 20
877.41021728515625
 42
0
  0
VERTEX
  8
0
 10
2358.958251953125
 20
943.75
 42
-0
  0
VERTEX
  8
0
 10
2338.958251953125
 20
943.75
 42
-0
  0
VERTEX
  8
0
 10
2328.958251953125
 20
933.75
 42
-0
  0
VERTEX
  8
0
 10
2328.958251953125
 20
483.75
 42
1
  0
VERTEX
  8
0
 10
2358.958251953125
 20
483.75
 42
0
  0
SEQEND
  0
POLYLINE
  8
0
 10
0
 20
0
 39
0
 70
1
 66
1
  0
VERTEX
  8
0
 10
2367.291748046875
 20
100.41667175292969
 42
-0
  0
VERTEX
  8
0
 10
2372.291748046875
 20
100.41667175292969
 42
-0.57735002040863037
  0
VERTEX
  8
0
 10
2376.621826171875
 20
92.916664123535156
 42
0
  0
VERTEX
  8
0
 10
2367.291748046875
 20
76.756416320800781
 42
0
  0
VERTEX
  8
0
 10
2367.291748046875
 20
10.416666984558105
 42
-0
  0
VERTEX
  8
0
 10
2387.291748046875
 20
10.416666984558105
 42
-0
  0
VERTEX
  8
0
 10
2397.291748046875
 20
20.416666030883789
 42
-0
  0
VERTEX
  8
0
 10
2397.291748046875
 20
470.41665649414062
 42
1
  0
VERTEX
  8
0
 10
2367.291748046875
 20
470.41665649414062
 42
0
  0
SEQEND
  0
POLYLINE
  8
0
 10
0
 20
0
 39
0
 70
1
 66
1
  0
VERTEX
  8
0
 10
2369.166748046875
 20
585.41668701171875
 42
-0
  0
VERTEX
  8
0
 10
2374.166748046875
 20
585.41668701171875
 42
-0.57735002040863037
  0
VERTEX
  8
0
 10
2378.496826171875
 20
577.91668701171875
 42
0
  0
VERTEX
  8
0
 10
2369.166748046875
 20
561.75640869140625
 42
0
  0
VERTEX
  8
0
 10
2369.166748046875
 20
495.41665649414062
 42
-0
  0
VERTEX
  8
0
 10
2389.166748046875
 20
495.41665649414062
 42
-0
  0
VERTEX
  8
0
 10
2399.166748046875
 20
505.41665649414062
 42
-0
  0
VERTEX
  8
0
 10
2399.166748046875
 20
955.4166259765625
 42
1
  0
VERTEX
  8
0
 10
2369.166748046875
 20
955.4166259765625
 42
0
  0
SEQEND
  0
POLYLINE
  8
0
 10
0
 20
0
 39
0
 70
1
 66
1
  0
VERTEX
  8
0
 10
2407.708251953125
 20
100.41667175292969
 42
-0
  0
VERTEX
  8
0
 10
2412.708251953125
 20
100.41667175292969
 42
-0.57735002040863037
  0
VERTEX
  8
0
 10
2417.03857421875
 20
92.916664123535156
 42
0
  0
VERTEX
  8
0
 10
2407.708251953125
 20
76.756416320800781
 42
0
  0
VERTEX
  8
0
 10
2407.708251953125
 20
10.416666984558105
 42
-0
  0
VERTEX
  8
0
 10
2427.708251953125
 20
10.416666984558105
 42
-0
  0
VERTEX
  8
0
 10
2437.708251953125
 20
20.416666030883789
 42
-0
  0
VERTEX
  8
0
 10
2437.708251953125
 20
470.41665649414062
 42
1
  0
VERTEX
  8
0
 10
2407.708251953125
 20
470.41665649414062
 42
0
  0
SEQEND
  0
POLYLINE
  8
0
 10
0
 20
0
 39
0
 70
1
 66
1
  0
VERTEX
  8
0
 10
2409.583251953125
 20
585.41668701171875
 42
-0
  0
VERTEX
  8
0
 10
2414.583251953125
 20
585.41668701171875
 42
-0.57735002040863037
  0
VERTEX
  8
0
 10
2418.91357421875
 20
577.91668701171875
 42
0
  0
VERTEX
  8
0
 10
2409.583251953125
 20
561.75640869140625
 42
0
  0
VERTEX
  8
0
 10
2409.583251953125
 20
495.41665649414062
 42
-0
  0
VERTEX
  8
0
 10
2429.583251953125
 20
495.41665649414062
 42
-0
  0
VERTEX
  8
0
 10
2439.583251953125
 20
505.41665649414062
 42
-0
  0
VERTEX
  8
0
 10
2439.583251953125
 20
955.4166259765625
 42
1
  0
VERTEX
  8
0
 10
2409.583251953125
 20
955.4166259765625
 42
0
  0
SEQEND
  0
POLYLINE
  8
0
 10
0
 20
0
 39
0
 70
1
 66
1
  0
VERTEX
  8
0
 10
2448.125
 20
100.41667175292969
 42
-0
  0
VERTEX
  8
0
 10
2453.125
 20
100.41667175292969
 42
-0.57735002040863037
  0
VERTEX
  8
0
 10
2457.455078125
 20
92.916664123535156
 42
0
  0
VERTEX
  8
0
 10
2448.125
 20
76.756416320800781
 42
0
  0
VERTEX
  8
0
 10
2448.125
 20
10.416666984558105
 42
-0
  0
VERTEX
  8
0
 10
2468.125
 20
10.416666984558105
 42
-0
  0
VERTEX
  8
0
 10
2478.125
 20
20.416666030883789
 42
-0
  0
VERTEX
  8
0
 10
2478.125
 20
470.41665649414062
 42
1
  0
VERTEX
  8
0
 10
2448.125
 20
470.41665649414062
 42
0
  0
SEQEND
  0
POLYLINE
  8
0
 10
0
 20
0
 39
0
 70
1
 66
1
  0
VERTEX
  8
0
 10
2450
 20
585.41668701171875
 42
-0
  0
VERTEX
  8
0
 10
2455
 20
585.41668701171875
 42
-0.57735002040863037
  0
VERTEX
  8
0
 10
2459.330078125
 20
577.91668701171875
 42
0
  0
VERTEX
  8
0
 10
2450
 20
561.75640869140625
 42
0
  0
VERTEX
  8
0
 10
2450
 20
495.41665649414062
 42
-0
  0
VERTEX
  8
0
 10
2470
 20
495.41665649414062
 42
-0
  0
VERTEX
  8
0
 10
2480
 20
505.41665649414062
 42
-0
  0
VERTEX
  8
0
 10
2480
 20
955.4166259765625
 42
1
  0
VERTEX
  8
0
 10
2450
 20
955.4166259765625
 42
0
  0
SEQEND
  0
POLYLINE
  8
0
 10
0
 20
0
 39
0
 70
1
 66
1
  0
VERTEX
  8
0
 10
25.416666030883789
 20
905.625
 42
-0.26794919371604919
  0
VERTEX
  8
0
 10
202.91667175292969
 20
905.625
 42
-0
  0
VERTEX
  8
0
 10
217.91667175292969
 20
931.60577392578125
 42
0.26794919371604919
  0
VERTEX
  8
0
 10
10.416666984558105
 20
931.60577392578125
 42
0
  0
SEQEND
  0
POLYLINE
  8
0
 10
0
 20
0
 39
0
 70
1
 66
1
  0
VERTEX
  8
0
 10
225.625
 20
202.91667175292969
 42
-0.26794919371604919
  0
VERTEX
  8
0
 10
225.625
 20
25.416666030883789
 42
-0
  0
VERTEX
  8
0
 10
251.60575866699219
 20
10.416666984558105
 42
0.26794919371604919
  0
VERTEX
  8
0
 10
251.60575866699219
 20
217.91667175292969
 42
0
  0
SEQEND
  0
POLYLINE
  8
0
 10
0
 20
0
 39
0
 70
1
 66
1
  0
VERTEX
  8
0
 10
304.61383056640625
 20
796.875
 42
-0.26794919371604919
  0
VERTEX
  8
0
 10
304.61383056640625
 20
974.375
 42
-0
  0
VERTEX
  8
0
 10
278.633056640625
 20
989.375
 42
0.26794919371604919
  0
VERTEX
  8
0
 10
278.633056640625
 20
781.875
 42
0
  0
SEQEND
  0
POLYLINE
  8
0
 10
0
 20
0
 39
0
 70
1
 66
1
  0
VERTEX
  8
0
 10
290.83334350585937
 20
10.416666984558105
 42
-0.26794919371604919
  0
VERTEX
  8
0
 10
468.33334350585937
 20
10.416666984558105
 42
-0
  0
VERTEX
  8
0
 10
483.33334350585937
 20
36.397426605224609
 42
0.26794919371604919
  0
VERTEX
  8
0
 10
275.83334350585937
 20
36.397426605224609
 42
0
  0
SEQEND
  0
POLYLINE
  8
0
 10
0
 20
0
 39
0
 70
1
 66
1
  0
VERTEX
  8
0
 10
303.33334350585937
 20
61.041667938232422
 42
-0.26794919371604919
  0
VERTEX
  8
0
 10
480.83334350585937
 20
61.041667938232422
 42
-0
  0
VERTEX
  8
0
 10
495.83334350585937
 20
87.022422790527344
 42
0.26794919371604919
  0
VERTEX
  8
0
 10
288.33334350585937
 20
87.022422790527344
 42
0
  0
SEQEND
  0
POLYLINE
  8
0
 10
0
 20
0
 39
0
 70
1
 66
1
  0
VERTEX
  8
0
 10
770.030517578125
 20
575
 42
-0.26794919371604919
  0
VERTEX
  8
0
 10
770.030517578125
 20
752.5
 42
-0
  0
VERTEX
  8
0
 10
744.04974365234375
 20
767.5
 42
0.26794919371604919
  0
VERTEX
  8
0
 10
744.04974365234375
 20
560
 42
0
  0
SEQEND
  0
POLYLINE
  8
0
 10
0
 20
0
 39
0
 70
1
 66
1
  0
VERTEX
  8
0
 10
833.75
 20
10.416666984558105
 42
-0.26794919371604919
  0
VERTEX
  8
0
 10
1011.25
 20
10.416666984558105
 42
-0
  0
VERTEX
  8
0
 10
1026.25
 20
36.397426605224609
 42
0.26794919371604919
  0
VERTEX
  8
0
 10
818.75
 20
36.397426605224609
 42
0
  0
SEQEND
  0
POLYLINE
  8
0
 10
0
 20
0
 39
0
 70
1
 66
1
  0
VERTEX
  8
0
 10
1001.0416870117187
 20
264.58334350585937
 42
-0.26794919371604919
  0
VERTEX
  8
0
 10
1001.0416870117187
 20
87.083335876464844
 42
-0
  0
VERTEX
  8
0
 10
1027.0224609375
 20
72.083335876464844
 42
0.26794919371604919
  0
VERTEX
  8
0
 10
1027.0224609375
 20
279.58334350585937
 42
0
  0
SEQEND
  0
POLYLINE
  8
0
 10
0
 20
0
 39
0
 70
1
 66
1
  0
VERTEX
  8
0
 10
1127.7083740234375
 20
989.61383056640625
 42
-0.26794919371604919
  0
VERTEX
  8
0
 10
950.20831298828125
 20
989.61383056640625
 42
-0
  0
VERTEX
  8
0
 10
935.20831298828125
 20
963.633056640625
 42
0.26794919371604919
  0
VERTEX
  8
0
 10
1142.7083740234375
 20
963.633056640625
 42
0
  0
SEQEND
  0
POLYLINE
  8
0
 10
0
 20
0
 39
0
 70
1
 66
1
  0
VERTEX
  8
0
 10
2215.030517578125
 20
25.416666030883789
 42
-0.26794919371604919
  0
VERTEX
  8
0
 10
2215.030517578125
 20
202.91667175292969
 42
-0
  0
VERTEX
  8
0
 10
2189.0498046875
 20
217.91667175292969
 42
0.26794919371604919
  0
VERTEX
  8
0
 10
2189.0498046875
 20
10.416666984558105
 42
0
  0
SEQEND
  0
POLYLINE
  8
0
 10
0
 20
0
 39
0
 70
1
 66
1
  0
VERTEX
  8
0
 10
85.416664123535156
 20
593.54168701171875
 42
-0
  0
VERTEX
  8
0
 10
30.416666030883789
 20
659.11944580078125
 42
0
  0
VERTEX
  8
0
 10
10.416666984558105
 20
659.11944580078125
 42
0
  0
VERTEX
  8
0
 10
10.416666984558105
 20
594.11944580078125
 42
0
  0
VERTEX
  8
0
 10
20.416666030883789
 20
584.11944580078125
 42
-0.080835841596126556
  0
VERTEX
  8
0
 10
85.416664123535156
 20
573.54168701171875
 42
0
  0
SEQEND
  0
POLYLINE
  8
0
 10
0
 20
0
 39
0
 70
1
 66
1
  0
VERTEX
  8
0
 10
10.416666984558105
 20
699.3277587890625
 42
-0
  0
VERTEX
  8
0
 10
65.416664123535156
 20
633.75
 42
0
  0
VERTEX
  8
0
 10
85.416664123535156
 20
633.75
 42
0
  0
VERTEX
  8
0
 10
85.416664123535156
 20
698.75
 42
0
  0
VERTEX
  8
0
 10
75.416664123535156
 20
708.75
 42
-0.080835841596126556
  0
VERTEX
  8
0
 10
10.416666984558105
 20
719.3277587890625
 42
0
  0
SEQEND
  0
POLYLINE
  8
0
 10
0
 20
0
 39
0
 70
1
 66
1
  0
VERTEX
  8
0
 10
156.25
 20
845.625
 42
-0
  0
VERTEX
  8
0
 10
101.25
 20
911.2027587890625
 42
0
  0
VERTEX
  8
0
 10
81.25
 20
911.2027587890625
 42
0
  0
VERTEX
  8
0
 10
81.25
 20
846.2027587890625
 42
0
  0
VERTEX
  8
0
 10
91.25
 20
836.2027587890625
 42
-0.080835841596126556
  0
VERTEX
  8
0
 10
156.25
 20
825.625
 42
0
  0
SEQEND
  0
POLYLINE
  8
0
 10
0
 20
0
 39
0
 70
1
 66
1
  0
VERTEX
  8
0
 10
215.625
 20
557.6611328125
 42
-0
  0
VERTEX
  8
0
 10
270.625
 20
492.08334350585937
 42
0
  0
VERTEX
  8
0
 10
290.625
 20
492.08334350585937
 42
0
  0
VERTEX
  8
0
 10
290.625
 20
557.08331298828125
 42
0
  0
VERTEX
  8
0
 10
280.625
 20
567.08331298828125
 42
-0.080835841596126556
  0
VERTEX
  8
0
 10
215.625
 20
577.6611328125
 42
0
  0
SEQEND
  0
POLYLINE
  8
0
 10
0
 20
0
 39
0
 70
1
 66
1
  0
VERTEX
  8
0
 10
348.125
 20
399.16665649414062
 42
-0
  0
VERTEX
  8
0
 10
293.125
 20
464.74444580078125
 42
0
  0
VERTEX
  8
0
 10
273.125
 20
464.74444580078125
 42
0
  0
VERTEX
  8
0
 10
273.125
 20
399.74444580078125
 42
0
  0
VERTEX
  8
0
 10
283.125
 20
389.74444580078125
 42
-0.080835841596126556
  0
VERTEX
  8
0
 10
348.125
 20
379.16665649414062
 42
0
  0
SEQEND
  0
POLYLINE
  8
0
 10
0
 20
0
 39
0
 70
1
 66
1
  0
VERTEX
  8
0
 10
338.70278930664062
 20
798.54168701171875
 42
-0
  0
VERTEX
  8
0
 10
273.125
 20
743.54168701171875
 42
0
  0
VERTEX
  8
0
 10
273.125
 20
723.54168701171875
 42
0
  0
VERTEX
  8
0
 10
338.125
 20
723.54168701171875
 42
0
  0
VERTEX
  8
0
 10
348.125
 20
733.54168701171875
 42
-0.080835841596126556
  0
VERTEX
  8
0
 10
358.70278930664062
 20
798.54168701171875
 42
0
  0
SEQEND
  0
POLYLINE
  8
0
 10
0
 20
0
 39
0
 70
1
 66
1
  0
VERTEX
  8
0
 10
535.625
 20
969.74444580078125
 42
-0
  0
VERTEX
  8
0
 10
590.625
 20
904.16668701171875
 42
0
  0
VERTEX
  8
0
 10
610.625
 20
904.16668701171875
 42
0
  0
VERTEX
  8
0
 10
610.625
 20
969.16668701171875
 42
0
  0
VERTEX
  8
0
 10
600.625
 20
979.16668701171875
 42
-0.080835841596126556
  0
VERTEX
  8
0
 10
535.625
 20
989.74444580078125
 42
0
  0
SEQEND
  0
POLYLINE
  8
0
 10
0
 20
0
 39
0
 70
1
 66
1
  0
VERTEX
  8
0
 10
659.375
 20
822.08331298828125
 42
-0
  0
VERTEX
  8
0
 10
604.375
 20
887.6611328125
 42
0
  0
VERTEX
  8
0
 10
584.375
 20
887.6611328125
 42
0
  0
VERTEX
  8
0
 10
584.375
 20
822.6611328125
 42
0
  0
VERTEX
  8
0
 10
594.375
 20
812.6611328125
 42
-0.080835841596126556
  0
VERTEX
  8
0
 10
659.375
 20
802.08331298828125
 42
0
  0
SEQEND
  0
POLYLINE
  8
0
 10
0
 20
0
 39
0
 70
1
 66
1
  0
VERTEX
  8
0
 10
1102.9166259765625
 20
598.33331298828125
 42
-0
  0
VERTEX
  8
0
 10
1047.9166259765625
 20
663.9111328125
 42
0
  0
VERTEX
  8
0
 10
1027.9166259765625
 20
663.9111328125
 42
0
  0
VERTEX
  8
0
 10
1027.9166259765625
 20
598.9111328125
 42
0
  0
VERTEX
  8
0
 10
1037.9166259765625
 20
588.9111328125
 42
-0.080835841596126556
  0
VERTEX
  8
0
 10
1102.9166259765625
 20
578.33331298828125
 42
0
  0
SEQEND
  0
POLYLINE
  8
0
 10
0
 20
0
 39
0
 70
1
 66
1
  0
VERTEX
  8
0
 10
1309.119384765625
 20
85.416664123535156
 42
-0
  0
VERTEX
  8
0
 10
1243.5416259765625
 20
30.416666030883789
 42
0
  0
VERTEX
  8
0
 10
1243.5416259765625
 20
10.416666984558105
 42
0
  0
VERTEX
  8
0
 10
1308.5416259765625
 20
10.416666984558105
 42
0
  0
VERTEX
  8
0
 10
1318.5416259765625
 20
20.416666030883789
 42
-0.080835841596126556
  0
VERTEX
  8
0
 10
1329.119384765625
 20
85.416664123535156
 42
0
  0
SEQEND
  0
POLYLINE
  8
0
 10
0
 20
0
 39
0
 70
1
 66
1
  0
VERTEX
  8
0
 10
1307.2916259765625
 20
969.74444580078125
 42
-0
  0
VERTEX
  8
0
 10
1362.2916259765625
 20
904.16668701171875
 42
0
  0
VERTEX
  8
0
 10
1382.2916259765625
 20
904.16668701171875
 42
0
  0
VERTEX
  8
0
 10
1382.2916259765625
 20
969.16668701171875
 42
0
  0
VERTEX
  8
0
 10
1372.2916259765625
 20
979.16668701171875
 42
-0.080835841596126556
  0
VERTEX
  8
0
 10
1307.2916259765625
 20
989.74444580078125
 42
0
  0
SEQEND
  0
POLYLINE
  8
0
 10
0
 20
0
 39
0
 70
1
 66
1
  0
VERTEX
  8
0
 10
1614.7916259765625
 20
969.74444580078125
 42
-0
  0
VERTEX
  8
0
 10
1669.7916259765625
 20
904.16668701171875
 42
0
  0
VERTEX
  8
0
 10
1689.7916259765625
 20
904.16668701171875
 42
0
  0
VERTEX
  8
0
 10
1689.7916259765625
 20
969.16668701171875
 42
0
  0
VERTEX
  8
0
 10
1679.7916259765625
 20
979.16668701171875
 42
-0.080835841596126556
  0
VERTEX
  8
0
 10
1614.7916259765625
 20
989.74444580078125
 42
0
  0
SEQEND
  0
POLYLINE
  8
0
 10
0
 20
0
 39
0
 70
1
 66
1
  0
VERTEX
  8
0
 10
1705.7861328125
 20
85.416664123535156
 42
-0
  0
VERTEX
  8
0
 10
1640.2083740234375
 20
30.416666030883789
 42
0
  0
VERTEX
  8
0
 10
1640.2083740234375
 20
10.416666984558105
 42
0
  0
VERTEX
  8
0
 10
1705.2083740234375
 20
10.416666984558105
 42
0
  0
VERTEX
  8
0
 10
1715.2083740234375
 20
20.416666030883789
 42
-0.080835841596126556
  0
VERTEX
  8
0
 10
1725.7861328125
 20
85.416664123535156
 42
0
  0
SEQEND
  0
POLYLINE
  8
0
 10
0
 20
0
 39
0
 70
1
 66
1
  0
VERTEX
  8
0
 10
1794.744384765625
 20
368.95834350585937
 42
-0
  0
VERTEX
  8
0
 10
1729.1666259765625
 20
313.95834350585937
 42
0
  0
VERTEX
  8
0
 10
1729.1666259765625
 20
293.95834350585937
 42
0
  0
VERTEX
  8
0
 10
1794.1666259765625
 20
293.95834350585937
 42
0
  0
VERTEX
  8
0
 10
1804.1666259765625
 20
303.95834350585937
 42
-0.080835841596126556
  0
VERTEX
  8
0
 10
1814.744384765625
 20
368.95834350585937
 42
0
  0
SEQEND
  0
POLYLINE
  8
0
 10
0
 20
0
 39
0
 70
1
 66
1
  0
VERTEX
  8
0
 10
1907.2916259765625
 20
696.875
 42
-0
  0
VERTEX
  8
0
 10
1852.2916259765625
 20
762.4527587890625
 42
0
  0
VERTEX
  8
0
 10
1832.2916259765625
 20
762.4527587890625
 42
0
  0
VERTEX
  8
0
 10
1832.2916259765625
 20
697.4527587890625
 42
0
  0
VERTEX
  8
0
 10
1842.2916259765625
 20
687.4527587890625
 42
-0.080835841596126556
  0
VERTEX
  8
0
 10
1907.2916259765625
 20
676.875
 42
0
  0
SEQEND
  0
POLYLINE
  8
0
 10
0
 20
0
 39
0
 70
1
 66
1
  0
VERTEX
  8
0
 10
1976.6666259765625
 20
969.5361328125
 42
-0
  0
VERTEX
  8
0
 10
2031.6666259765625
 20
903.95831298828125
 42
0
  0
VERTEX
  8
0
 10
2051.666748046875
 20
903.95831298828125
 42
0
  0
VERTEX
  8
0
 10
2051.666748046875
 20
968.95831298828125
 42
0
  0
VERTEX
  8
0
 10
2041.6666259765625
 20
978.95831298828125
 42
-0.080835841596126556
  0
VERTEX
  8
0
 10
1976.6666259765625
 20
989.5361328125
 42
0
  0
SEQEND
  0
POLYLINE
  8
0
 10
0
 20
0
 39
0
 70
1
 66
1
  0
VERTEX
  8
0
 10
1988.9583740234375
 20
882.4527587890625
 42
-0
  0
VERTEX
  8
0
 10
2043.9583740234375
 20
816.875
 42
0
  0
VERTEX
  8
0
 10
2063.958251953125
 20
816.875
 42
0
  0
VERTEX
  8
0
 10
2063.958251953125
 20
881.875
 42
0
  0
VERTEX
  8
0
 10
2053.958251953125
 20
891.875
 42
-0.080835841596126556
  0
VERTEX
  8
0
 10
1988.9583740234375
 20
902.4527587890625
 42
0
  0
SEQEND
  0
POLYLINE
  8
0
 10
0
 20
0
 39
0
 70
1
 66
1
  0
VERTEX
  8
0
 10
2132.708251953125
 20
705.36944580078125
 42
-0
  0
VERTEX
  8
0
 10
2187.708251953125
 20
639.79168701171875
 42
0
  0
VERTEX
  8
0
 10
2207.708251953125
 20
639.79168701171875
 42
0
  0
VERTEX
  8
0
 10
2207.708251953125
 20
704.79168701171875
 42
0
  0
VERTEX
  8
0
 10
2197.708251953125
 20
714.79168701171875
 42
-0.080835841596126556
  0
VERTEX
  8
0
 10
2132.708251953125
 20
725.36944580078125
 42
0
  0
SEQEND
  0
POLYLINE
  8
0
 10
0
 20
0
 39
0
 70
1
 66
1
  0
VERTEX
  8
0
 10
2179.375
 20
337.86944580078125
 42
-0
  0
VERTEX
  8
0
 10
2234.375
 20
272.29165649414062
 42
0
  0
VERTEX
  8
0
 10
2254.375
 20
272.29165649414062
 42
0
  0
VERTEX
  8
0
 10
2254.375
 20
337.29165649414062
 42
0
  0
VERTEX
  8
0
 10
2244.375
 20
347.29165649414062
 42
-0.080835841596126556
  0
VERTEX
  8
0
 10
2179.375
 20
357.86944580078125
 42
0
  0
SEQEND
  0
POLYLINE
  8
0
 10
0
 20
0
 39
0
 70
1
 66
1
  0
VERTEX
  8
0
 10
2188.125
 20
251.41111755371094
 42
-0
  0
VERTEX
  8
0
 10
2243.125
 20
185.83332824707031
 42
0
  0
VERTEX
  8
0
 10
2263.125
 20
185.83332824707031
 42
0
  0
VERTEX
  8
0
 10
2263.125
 20
250.83332824707031
 42
0
  0
VERTEX
  8
0
 10
2253.125
 20
260.83334350585937
 42
-0.080835841596126556
  0
VERTEX
  8
0
 10
2188.125
 20
271.41110229492187
 42
0
  0
SEQEND
  0
POLYLINE
  8
0
 10
0
 20
0
 39
0
 70
1
 66
1
  0
VERTEX
  8
0
 10
120.83333587646484
 20
589.29168701171875
 42
0
  0
VERTEX
  8
0
 10
120.33333587646484
 20
589.29168701171875
 42
-0.66666668653488159
  0
VERTEX
  8
0
 10
96.333335876464844
 20
589.29168701171875
 42
0
  0
VERTEX
  8
0
 10
95.833335876464844
 20
589.29168701171875
 42
0
  0
VERTEX
  8
0
 10
95.833335876464844
 20
487.29165649414062
 42
0
  0
VERTEX
  8
0
 10
96.333335876464844
 20
487.29165649414062
 42
-0.66666662693023682
  0
VERTEX
  8
0
 10
120.33333587646484
 20
487.29165649414062
 42
0
  0
VERTEX
  8
0
 10
120.83333587646484
 20
487.29165649414062
 42
0
  0
SEQEND
  0
POLYLINE
  8
0
 10
0
 20
0
 39
0
 70
1
 66
1
  0
VERTEX
  8
0
 10
431.875
 20
642.625
 42
0
  0
VERTEX
  8
0
 10
431.375
 20
642.625
 42
-0.66666668653488159
  0
VERTEX
  8
0
 10
407.375
 20
642.625
 42
0
  0
VERTEX
  8
0
 10
406.875
 20
642.625
 42
0
  0
VERTEX
  8
0
 10
406.875
 20
540.625
 42
0
  0
VERTEX
  8
0
 10
407.375
 20
540.625
 42
-0.66666662693023682
  0
VERTEX
  8
0
 10
431.375
 20
540.625
 42
0
  0
VERTEX
  8
0
 10
431.875
 20
540.625
 42
0
  0
SEQEND
  0
POLYLINE
  8
0
 10
0
 20
0
 39
0
 70
1
 66
1
  0
VERTEX
  8
0
 10
529.79168701171875
 20
363.25
 42
0
  0
VERTEX
  8
0
 10
529.29168701171875
 20
363.25
 42
-0.66666668653488159
  0
VERTEX
  8
0
 10
505.29165649414062
 20
363.25
 42
0
  0
VERTEX
  8
0
 10
504.79165649414062
 20
363.25
 42
0
  0
VERTEX
  8
0
 10
504.79165649414062
 20
261.25
 42
0
  0
VERTEX
  8
0
 10
505.29165649414062
 20
261.25
 42
-0.66666662693023682
  0
VERTEX
  8
0
 10
529.29168701171875
 20
261.25
 42
0
  0
VERTEX
  8
0
 10
529.79168701171875
 20
261.25
 42
0
  0
SEQEND
  0
POLYLINE
  8
0
 10
0
 20
0
 39
0
 70
1
 66
1
  0
VERTEX
  8
0
 10
582.08331298828125
 20
692
 42
0
  0
VERTEX
  8
0
 10
581.58331298828125
 20
692
 42
-0.66666668653488159
  0
VERTEX
  8
0
 10
557.58331298828125
 20
692
 42
0
  0
VERTEX
  8
0
 10
557.08331298828125
 20
692
 42
0
  0
VERTEX
  8
0
 10
557.08331298828125
 20
590
 42
0
  0
VERTEX
  8
0
 10
557.58331298828125
 20
590
 42
-0.66666662693023682
  0
VERTEX
  8
0
 10
581.58331298828125
 20
590
 42
0
  0
VERTEX
  8
0
 10
582.08331298828125
 20
590
 42
0
  0
SEQEND
  0
POLYLINE
  8
0
 10
0
 20
0
 39
0
 70
1
 66
1
  0
VERTEX
  8
0
 10
646.04168701171875
 20
986.16668701171875
 42
0
  0
VERTEX
  8
0
 10
645.54168701171875
 20
986.16668701171875
 42
-0.66666668653488159
  0
VERTEX
  8
0
 10
621.54168701171875
 20
986.16668701171875
 42
0
  0
VERTEX
  8
0
 10
621.04168701171875
 20
986.16668701171875
 42
0
  0
VERTEX
  8
0
 10
621.04168701171875
 20
884.16668701171875
 42
0
  0
VERTEX
  8
0
 10
621.54168701171875
 20
884.16668701171875
 42
-0.66666662693023682
  0
VERTEX
  8
0
 10
645.54168701171875
 20
884.16668701171875
 42
0
  0
VERTEX
  8
0
 10
646.04168701171875
 20
884.16668701171875
 42
0
  0
SEQEND
  0
POLYLINE
  8
0
 10
0
 20
0
 39
0
 70
1
 66
1
  0
VERTEX
  8
0
 10
1081.0416259765625
 20
112.41666412353516
 42
0
  0
VERTEX
  8
0
 10
1080.5416259765625
 20
112.41666412353516
 42
-0.66666668653488159
  0
VERTEX
  8
0
 10
1056.5416259765625
 20
112.41666412353516
 42
0
  0
VERTEX
  8
0
 10
1056.0416259765625
 20
112.41666412353516
 42
0
  0
VERTEX
  8
0
 10
1056.0416259765625
 20
10.416666984558105
 42
0
  0
VERTEX
  8
0
 10
1056.5416259765625
 20
10.416666984558105
 42
-0.66666662693023682
  0
VERTEX
  8
0
 10
1080.5416259765625
 20
10.416666984558105
 42
0
  0
VERTEX
  8
0
 10
1081.0416259765625
 20
10.416666984558105
 42
0
  0
SEQEND
  0
POLYLINE
  8
0
 10
0
 20
0
 39
0
 70
1
 66
1
  0
VERTEX
  8
0
 10
1063.5416259765625
 20
926.66668701171875
 42
0
  0
VERTEX
  8
0
 10
1063.5416259765625
 20
926.16668701171875
 42
-0.66666668653488159
  0
VERTEX
  8
0
 10
1063.5416259765625
 20
902.16668701171875
 42
0
  0
VERTEX
  8
0
 10
1063.5416259765625
 20
901.66668701171875
 42
0
  0
VERTEX
  8
0
 10
1165.5416259765625
 20
901.66668701171875
 42
0
  0
VERTEX
  8
0
 10
1165.5416259765625
 20
902.16668701171875
 42
-0.66666662693023682
  0
VERTEX
  8
0
 10
1165.5416259765625
 20
926.16668701171875
 42
0
  0
VERTEX
  8
0
 10
1165.5416259765625
 20
926.66668701171875
 42
0
  0
SEQEND
  0
POLYLINE
  8
0
 10
0
 20
0
 39
0
 70
1
 66
1
  0
VERTEX
  8
0
 10
2034.5833740234375
 20
297
 42
0
  0
VERTEX
  8
0
 10
2034.0833740234375
 20
297
 42
-0.66666668653488159
  0
VERTEX
  8
0
 10
2010.0833740234375
 20
297
 42
0
  0
VERTEX
  8
0
 10
2009.5833740234375
 20
297
 42
0
  0
VERTEX
  8
0
 10
2009.5833740234375
 20
195
 42
0
  0
VERTEX
  8
0
 10
2010.0833740234375
 20
195
 42
-0.66666662693023682
  0
VERTEX
  8
0
 10
2034.0833740234375
 20
195
 42
0
  0
VERTEX
  8
0
 10
2034.5833740234375
 20
195
 42
0
  0
SEQEND
  0
POLYLINE
  8
0
 10
0
 20
0
 39
0
 70
1
 66
1
  0
VERTEX
  8
0
 10
1966.4583740234375
 20
35.416667938232422
 42
0
  0
VERTEX
  8
0
 10
1966.4583740234375
 20
34.916667938232422
 42
-0.66666668653488159
  0
VERTEX
  8
0
 10
1966.4583740234375
 20
10.916666030883789
 42
0
  0
VERTEX
  8
0
 10
1966.4583740234375
 20
10.416666984558105
 42
0
  0
VERTEX
  8
0
 10
2068.458251953125
 20
10.416666984558105
 42
0
  0
VERTEX
  8
0
 10
2068.458251953125
 20
10.916666984558105
 42
-0.66666662693023682
  0
VERTEX
  8
0
 10
2068.458251953125
 20
34.916667938232422
 42
0
  0
VERTEX
  8
0
 10
2068.458251953125
 20
35.416667938232422
 42
0
  0
SEQEND
  0
POLYLINE
  8
0
 10
0
 20
0
 39
0
 70
1
 66
1
  0
VERTEX
  8
0
 10
2234.791748046875
 20
165.33332824707031
 42
0
  0
VERTEX
  8
0
 10
2234.291748046875
 20
165.33332824707031
 42
-0.66666668653488159
  0
VERTEX
  8
0
 10
2210.291748046875
 20
165.33332824707031
 42
0
  0
VERTEX
  8
0
 10
2209.791748046875
 20
165.33332824707031
 42
0
  0
VERTEX
  8
0
 10
2209.791748046875
 20
63.333332061767578
 42
0
  0
VERTEX
  8
0
 10
2210.291748046875
 20
63.333332061767578
 42
-0.66666662693023682
  0
VERTEX
  8
0
 10
2234.291748046875
 20
63.333332061767578
 42
0
  0
VERTEX
  8
0
 10
2234.791748046875
 20
63.333332061767578
 42
0
  0
SEQEND
  0
POLYLINE
  8
0
 10
0
 20
0
 39
0
 70
1
 66
1
  0
VERTEX
  8
0
 10
2243.125
 20
728.25
 42
0
  0
VERTEX
  8
0
 10
2242.625
 20
728.25
 42
-0.66666668653488159
  0
VERTEX
  8
0
 10
2218.625
 20
728.25
 42
0
  0
VERTEX
  8
0
 10
2218.125
 20
728.25
 42
0
  0
VERTEX
  8
0
 10
2218.125
 20
626.25
 42
0
  0
VERTEX
  8
0
 10
2218.625
 20
626.25
 42
-0.66666662693023682
  0
VERTEX
  8
0
 10
2242.625
 20
626.25
 42
0
  0
VERTEX
  8
0
 10
2243.125
 20
626.25
 42
0
  0
SEQEND
  0
POLYLINE
  8
0
 10
0
 20
0
 39
0
 70
1
 66
1
  0
VERTEX
  8
0
 10
2269.166748046875
 20
920.125
 42
0
  0
VERTEX
  8
0
 10
2268.666748046875
 20
920.125
 42
-0.66666668653488159
  0
VERTEX
  8
0
 10
2244.666748046875
 20
920.125
 42
0
  0
VERTEX
  8
0
 10
2244.166748046875
 20
920.125
 42
0
  0
VERTEX
  8
0
 10
2244.166748046875
 20
818.125
 42
0
  0
VERTEX
  8
0
 10
2244.666748046875
 20
818.125
 42
-0.66666662693023682
  0
VERTEX
  8
0
 10
2268.666748046875
 20
818.125
 42
0
  0
VERTEX
  8
0
 10
2269.166748046875
 20
818.125
 42
0
  0
SEQEND
  0
POLYLINE
  8
0
 10
0
 20
0
 39
0
 70
1
 66
1
  0
VERTEX
  8
0
 10
2270.208251953125
 20
112.41666412353516
 42
0
  0
VERTEX
  8
0
 10
2269.708251953125
 20
112.41666412353516
 42
-0.66666668653488159
  0
VERTEX
  8
0
 10
2245.708251953125
 20
112.41666412353516
 42
0
  0
VERTEX
  8
0
 10
2245.208251953125
 20
112.41666412353516
 42
0
  0
VERTEX
  8
0
 10
2245.208251953125
 20
10.416666984558105
 42
0
  0
VERTEX
  8
0
 10
2245.708251953125
 20
10.416666984558105
 42
-0.66666662693023682
  0
VERTEX
  8
0
 10
2269.708251953125
 20
10.416666984558105
 42
0
  0
VERTEX
  8
0
 10
2270.208251953125
 20
10.416666984558105
 42
0
  0
SEQEND
  0
POLYLINE
  8
0
 10
0
 20
0
 39
0
 70
1
 66
1
  0
VERTEX
  8
0
 10
2356.041748046875
 20
112.41666412353516
 42
0
  0
VERTEX
  8
0
 10
2355.541748046875
 20
112.41666412353516
 42
-0.66666668653488159
  0
VERTEX
  8
0
 10
2331.541748046875
 20
112.41666412353516
 42
0
  0
VERTEX
  8
0
 10
2331.041748046875
 20
112.41666412353516
 42
0
  0
VERTEX
  8
0
 10
2331.041748046875
 20
10.416666984558105
 42
0
  0
VERTEX
  8
0
 10
2331.541748046875
 20
10.416666984558105
 42
-0.66666662693023682
  0
VERTEX
  8
0
 10
2355.541748046875
 20
10.416666984558105
 42
0
  0
VERTEX
  8
0
 10
2356.041748046875
 20
10.416666984558105
 42
0
  0
SEQEND
  0
POLYLINE
  8
0
 10
0
 20
0
 39
0
 70
1
 66
1
  0
VERTEX
  8
0
 10
2356.041748046875
 20
224.5
 42
0
  0
VERTEX
  8
0
 10
2355.541748046875
 20
224.5
 42
-0.66666668653488159
  0
VERTEX
  8
0
 10
2331.541748046875
 20
224.5
 42
0
  0
VERTEX
  8
0
 10
2331.041748046875
 20
224.5
 42
0
  0
VERTEX
  8
0
 10
2331.041748046875
 20
122.5
 42
0
  0
VERTEX
  8
0
 10
2331.541748046875
 20
122.5
 42
-0.66666662693023682
  0
VERTEX
  8
0
 10
2355.541748046875
 20
122.5
 42
0
  0
VERTEX
  8
0
 10
2356.041748046875
 20
122.5
 42
0
  0
SEQEND
  0
POLYLINE
  8
0
 10
0
 20
0
 39
0
 70
1
 66
1
  0
VERTEX
  8
0
 10
2356.041748046875
 20
336.58334350585937
 42
0
  0
VERTEX
  8
0
 10
2355.541748046875
 20
336.58334350585937
 42
-0.66666668653488159
  0
VERTEX
  8
0
 10
2331.541748046875
 20
336.58334350585937
 42
0
  0
VERTEX
  8
0
 10
2331.041748046875
 20
336.58334350585937
 42
0
  0
VERTEX
  8
0
 10
2331.041748046875
 20
234.58332824707031
 42
0
  0
VERTEX
  8
0
 10
2331.541748046875
 20
234.58332824707031
 42
-0.66666662693023682
  0
VERTEX
  8
0
 10
2355.541748046875
 20
234.58332824707031
 42
0
  0
VERTEX
  8
0
 10
2356.041748046875
 20
234.58332824707031
 42
0
  0
SEQEND
  0
POLYLINE
  8
0
 10
0
 20
0
 39
0
 70
1
 66
1
  0
VERTEX
  8
0
 10
2356.041748046875
 20
448.66665649414062
 42
0
  0
VERTEX
  8
0
 10
2355.541748046875
 20
448.66665649414062
 42
-0.66666668653488159
  0
VERTEX
  8
0
 10
2331.541748046875
 20
448.66665649414062
 42
0
  0
VERTEX
  8
0
 10
2331.041748046875
 20
448.66665649414062
 42
0
  0
VERTEX
  8
0
 10
2331.041748046875
 20
346.66665649414062
 42
0
  0
VERTEX
  8
0
 10
2331.541748046875
 20
346.66665649414062
 42
-0.66666662693023682
  0
VERTEX
  8
0
 10
2355.541748046875
 20
346.66665649414062
 42
0
  0
VERTEX
  8
0
 10
2356.041748046875
 20
346.66665649414062
 42
0
  0
SEQEND
  0
ENDSEC
  0
EOF
