  0
SECTION
  2
ENTITIES
  0
POLYLINE
  8
0
 10
0
 20
0
 39
0
 70
1
 66
1
  0
VERTEX
  8
0
 10
0
 20
0
 42
-0
  0
VERTEX
  8
0
 10
6000
 20
0
 42
-0
  0
VERTEX
  8
0
 10
6000
 20
1500
 42
-0
  0
VERTEX
  8
0
 10
0
 20
1500
 42
-0
  0
SEQEND
  0
POLYLINE
  8
0
 10
0
 20
0
 39
0
 70
1
 66
1
  0
VERTEX
  8
0
 10
404.04998779296875
 20
37.04998779296875
 42
-0
  0
VERTEX
  8
0
 10
474.04998779296875
 20
37.04998779296875
 42
-0
  0
VERTEX
  8
0
 10
474.04998779296875
 20
13.04998779296875
 42
-0
  0
VERTEX
  8
0
 10
732.04998779296875
 20
13.04998779296875
 42
-0
  0
VERTEX
  8
0
 10
732.04998779296875
 20
37.04998779296875
 42
-0
  0
VERTEX
  8
0
 10
802.04998779296875
 20
37.04998779296875
 42
-0
  0
VERTEX
  8
0
 10
831.3485107421875
 20
53.965507507324219
 42
-0.46952301263809204
  0
VERTEX
  8
0
 10
1184.1949462890625
 20
163.04998779296875
 42
-0
  0
VERTEX
  8
0
 10
1193.050048828125
 20
163.04998779296875
 42
-0
  0
VERTEX
  8
0
 10
1193.050048828125
 20
294.55136108398437
 42
0.33945399522781372
  0
VERTEX
  8
0
 10
1155.990966796875
 20
342.84765625
 42
-0
  0
VERTEX
  8
0
 10
726.04998779296875
 20
458.04998779296875
 42
-0
  0
VERTEX
  8
0
 10
726.04998779296875
 20
362.04998779296875
 42
-1
  0
VERTEX
  8
0
 10
480.04998779296875
 20
362.04998779296875
 42
-0
  0
VERTEX
  8
0
 10
480.04998779296875
 20
458.04998779296875
 42
-0
  0
VERTEX
  8
0
 10
50.109050750732422
 20
342.84765625
 42
0.33945399522781372
  0
VERTEX
  8
0
 10
13.050003051757813
 20
294.55136108398437
 42
-0
  0
VERTEX
  8
0
 10
13.050003051757813
 20
163.04998779296875
 42
-0
  0
VERTEX
  8
0
 10
21.905044555664062
 20
163.04998779296875
 42
-0.46952301263809204
  0
VERTEX
  8
0
 10
374.75146484375
 20
53.965507507324219
 42
-0
  0
SEQEND
  0
POLYLINE
  8
0
 10
0
 20
0
 39
0
 70
1
 66
1
  0
VERTEX
  8
0
 10
1206.063720703125
 20
1212.7091064453125
 42
-0
  0
VERTEX
  8
0
 10
1544.063720703125
 20
1212.7091064453125
 42
-0
  0
VERTEX
  8
0
 10
1544.063720703125
 20
1436.7091064453125
 42
-0
  0
VERTEX
  8
0
 10
1206.063720703125
 20
1436.7091064453125
 42
-0
  0
SEQEND
  0
POLYLINE
  8
0
 10
0
 20
0
 39
0
 70
1
 66
1
  0
VERTEX
  8
0
 10
42.858009338378906
 20
1372.0396728515625
 42
-0
  0
VERTEX
  8
0
 10
252.85801696777344
 20
1372.0396728515625
 42
-0
  0
VERTEX
  8
0
 10
259.85800170898437
 20
1379.0396728515625
 42
-0
  0
VERTEX
  8
0
 10
259.85800170898437
 20
1402.0396728515625
 42
-0
  0
VERTEX
  8
0
 10
35.857997894287109
 20
1422.0396728515625
 42
-0
  0
VERTEX
  8
0
 10
35.858005523681641
 20
1379.0396728515625
 42
-0
  0
SEQEND
  0
POLYLINE
  8
0
 10
0
 20
0
 39
0
 70
1
 66
1
  0
VERTEX
  8
0
 10
404.04998779296875
 20
495.05999755859375
 42
-0
  0
VERTEX
  8
0
 10
474.04998779296875
 20
495.05999755859375
 42
-0
  0
VERTEX
  8
0
 10
474.04998779296875
 20
471.05999755859375
 42
-0
  0
VERTEX
  8
0
 10
732.04998779296875
 20
471.05999755859375
 42
-0
  0
VERTEX
  8
0
 10
732.04998779296875
 20
495.05999755859375
 42
-0
  0
VERTEX
  8
0
 10
802.04998779296875
 20
495.05999755859375
 42
-0
  0
VERTEX
  8
0
 10
831.3485107421875
 20
511.97552490234375
 42
-0.46952301263809204
  0
VERTEX
  8
0
 10
1184.1949462890625
 20
621.05999755859375
 42
-0
  0
VERTEX
  8
0
 10
1193.050048828125
 20
621.05999755859375
 42
-0
  0
VERTEX
  8
0
 10
1193.050048828125
 20
752.5614013671875
 42
0.33945399522781372
  0
VERTEX
  8
0
 10
1155.990966796875
 20
800.857666015625
 42
-0
  0
VERTEX
  8
0
 10
726.04998779296875
 20
916.05999755859375
 42
-0
  0
VERTEX
  8
0
 10
726.04998779296875
 20
820.05999755859375
 42
-1
  0
VERTEX
  8
0
 10
480.04998779296875
 20
820.05999755859375
 42
-0
  0
VERTEX
  8
0
 10
480.04998779296875
 20
916.05999755859375
 42
-0
  0
VERTEX
  8
0
 10
50.109050750732422
 20
800.857666015625
 42
0.33945399522781372
  0
VERTEX
  8
0
 10
13.050003051757813
 20
752.5614013671875
 42
-0
  0
VERTEX
  8
0
 10
13.050003051757813
 20
621.05999755859375
 42
-0
  0
VERTEX
  8
0
 10
21.905044555664062
 20
621.05999755859375
 42
-0.46952301263809204
  0
VERTEX
  8
0
 10
374.75146484375
 20
511.97552490234375
 42
-0
  0
SEQEND
  0
POLYLINE
  8
0
 10
0
 20
0
 39
0
 70
1
 66
1
  0
VERTEX
  8
0
 10
404.04998779296875
 20
953.0699462890625
 42
-0
  0
VERTEX
  8
0
 10
474.04998779296875
 20
953.0699462890625
 42
-0
  0
VERTEX
  8
0
 10
474.04998779296875
 20
929.0699462890625
 42
-0
  0
VERTEX
  8
0
 10
732.04998779296875
 20
929.0699462890625
 42
-0
  0
VERTEX
  8
0
 10
732.04998779296875
 20
953.0699462890625
 42
-0
  0
VERTEX
  8
0
 10
802.04998779296875
 20
953.0699462890625
 42
-0
  0
VERTEX
  8
0
 10
831.3485107421875
 20
969.9854736328125
 42
-0.46952301263809204
  0
VERTEX
  8
0
 10
1184.1949462890625
 20
1079.0699462890625
 42
-0
  0
VERTEX
  8
0
 10
1193.050048828125
 20
1079.0699462890625
 42
-0
  0
VERTEX
  8
0
 10
1193.050048828125
 20
1210.5712890625
 42
0.33945399522781372
  0
VERTEX
  8
0
 10
1155.990966796875
 20
1258.86767578125
 42
-0
  0
VERTEX
  8
0
 10
726.04998779296875
 20
1374.0699462890625
 42
-0
  0
VERTEX
  8
0
 10
726.04998779296875
 20
1278.0699462890625
 42
-1
  0
VERTEX
  8
0
 10
480.04998779296875
 20
1278.0699462890625
 42
-0
  0
VERTEX
  8
0
 10
480.04998779296875
 20
1374.0699462890625
 42
-0
  0
VERTEX
  8
0
 10
50.109050750732422
 20
1258.86767578125
 42
0.33945399522781372
  0
VERTEX
  8
0
 10
13.050003051757813
 20
1210.5712890625
 42
-0
  0
VERTEX
  8
0
 10
13.050003051757813
 20
1079.0699462890625
 42
-0
  0
VERTEX
  8
0
 10
21.905044555664062
 20
1079.0699462890625
 42
-0.46952301263809204
  0
VERTEX
  8
0
 10
374.75146484375
 20
969.9854736328125
 42
-0
  0
SEQEND
  0
POLYLINE
  8
0
 10
0
 20
0
 39
0
 70
1
 66
1
  0
VERTEX
  8
0
 10
1700.82275390625
 20
717.64892578125
 42
-0
  0
VERTEX
  8
0
 10
1630.82275390625
 20
717.64886474609375
 42
-0
  0
VERTEX
  8
0
 10
1630.82275390625
 20
741.64886474609375
 42
-0
  0
VERTEX
  8
0
 10
1372.82275390625
 20
741.64874267578125
 42
-0
  0
VERTEX
  8
0
 10
1372.82275390625
 20
717.64874267578125
 42
-0
  0
VERTEX
  8
0
 10
1302.82275390625
 20
717.64874267578125
 42
-0
  0
VERTEX
  8
0
 10
1273.524169921875
 20
700.73321533203125
 42
-0.46952301263809204
  0
VERTEX
  8
0
 10
920.6778564453125
 20
591.6485595703125
 42
-0
  0
VERTEX
  8
0
 10
911.82275390625
 20
591.6485595703125
 42
-0
  0
VERTEX
  8
0
 10
911.8228759765625
 20
460.147216796875
 42
0.33945399522781372
  0
VERTEX
  8
0
 10
948.8819580078125
 20
411.85092163085937
 42
-0
  0
VERTEX
  8
0
 10
1378.822998046875
 20
296.64877319335937
 42
-0
  0
VERTEX
  8
0
 10
1378.8228759765625
 20
392.64877319335937
 42
-1
  0
VERTEX
  8
0
 10
1624.8228759765625
 20
392.64886474609375
 42
-0
  0
VERTEX
  8
0
 10
1624.822998046875
 20
296.64886474609375
 42
-0
  0
VERTEX
  8
0
 10
2054.763916015625
 20
411.85137939453125
 42
0.33945399522781372
  0
VERTEX
  8
0
 10
2091.82275390625
 20
460.14767456054687
 42
-0
  0
VERTEX
  8
0
 10
2091.82275390625
 20
591.6490478515625
 42
-0
  0
VERTEX
  8
0
 10
2082.9677734375
 20
591.6490478515625
 42
-0.46952301263809204
  0
VERTEX
  8
0
 10
1730.121337890625
 20
700.7333984375
 42
-0
  0
SEQEND
  0
POLYLINE
  8
0
 10
0
 20
0
 39
0
 70
1
 66
1
  0
VERTEX
  8
0
 10
1700.685546875
 20
1175.6590576171875
 42
-0
  0
VERTEX
  8
0
 10
1630.685546875
 20
1175.6590576171875
 42
-0
  0
VERTEX
  8
0
 10
1630.685546875
 20
1199.6590576171875
 42
-0
  0
VERTEX
  8
0
 10
1372.685546875
 20
1199.658935546875
 42
-0
  0
VERTEX
  8
0
 10
1372.685546875
 20
1175.658935546875
 42
-0
  0
VERTEX
  8
0
 10
1302.685546875
 20
1175.6588134765625
 42
-0
  0
VERTEX
  8
0
 10
1273.386962890625
 20
1158.7432861328125
 42
-0.46952301263809204
  0
VERTEX
  8
0
 10
920.5406494140625
 20
1049.65869140625
 42
-0
  0
VERTEX
  8
0
 10
911.685546875
 20
1049.65869140625
 42
-0
  0
VERTEX
  8
0
 10
911.6856689453125
 20
918.1573486328125
 42
0.33945399522781372
  0
VERTEX
  8
0
 10
948.7447509765625
 20
869.861083984375
 42
-0
  0
VERTEX
  8
0
 10
1378.685791015625
 20
754.658935546875
 42
-0
  0
VERTEX
  8
0
 10
1378.6856689453125
 20
850.658935546875
 42
-1
  0
VERTEX
  8
0
 10
1624.6856689453125
 20
850.65899658203125
 42
-0
  0
VERTEX
  8
0
 10
1624.685791015625
 20
754.65899658203125
 42
-0
  0
VERTEX
  8
0
 10
2054.626708984375
 20
869.86151123046875
 42
0.33945399522781372
  0
VERTEX
  8
0
 10
2091.685546875
 20
918.1578369140625
 42
-0
  0
VERTEX
  8
0
 10
2091.685546875
 20
1049.6591796875
 42
-0
  0
VERTEX
  8
0
 10
2082.83056640625
 20
1049.6591796875
 42
-0.46952301263809204
  0
VERTEX
  8
0
 10
1729.984130859375
 20
1158.7435302734375
 42
-0
  0
SEQEND
  0
POLYLINE
  8
0
 10
0
 20
0
 39
0
 70
1
 66
1
  0
VERTEX
  8
0
 10
2201.4580078125
 20
37.04998779296875
 42
-0
  0
VERTEX
  8
0
 10
2271.4580078125
 20
37.04998779296875
 42
-0
  0
VERTEX
  8
0
 10
2271.4580078125
 20
13.04998779296875
 42
-0
  0
VERTEX
  8
0
 10
2529.4580078125
 20
13.04998779296875
 42
-0
  0
VERTEX
  8
0
 10
2529.4580078125
 20
37.04998779296875
 42
-0
  0
VERTEX
  8
0
 10
2599.4580078125
 20
37.04998779296875
 42
-0
  0
VERTEX
  8
0
 10
2628.756591796875
 20
53.965507507324219
 42
-0.46952301263809204
  0
VERTEX
  8
0
 10
2981.60302734375
 20
163.04998779296875
 42
-0
  0
VERTEX
  8
0
 10
2990.4580078125
 20
163.04998779296875
 42
-0
  0
VERTEX
  8
0
 10
2990.4580078125
 20
294.55136108398437
 42
0.33945399522781372
  0
VERTEX
  8
0
 10
2953.39892578125
 20
342.84765625
 42
-0
  0
VERTEX
  8
0
 10
2523.4580078125
 20
458.04998779296875
 42
-0
  0
VERTEX
  8
0
 10
2523.4580078125
 20
362.04998779296875
 42
-1
  0
VERTEX
  8
0
 10
2277.4580078125
 20
362.04998779296875
 42
-0
  0
VERTEX
  8
0
 10
2277.4580078125
 20
458.04998779296875
 42
-0
  0
VERTEX
  8
0
 10
1847.51708984375
 20
342.84765625
 42
0.33945399522781372
  0
VERTEX
  8
0
 10
1810.4580078125
 20
294.55136108398437
 42
-0
  0
VERTEX
  8
0
 10
1810.4580078125
 20
163.04998779296875
 42
-0
  0
VERTEX
  8
0
 10
1819.3131103515625
 20
163.04998779296875
 42
-0.46952301263809204
  0
VERTEX
  8
0
 10
2172.159423828125
 20
53.965507507324219
 42
-0
  0
SEQEND
  0
POLYLINE
  8
0
 10
0
 20
0
 39
0
 70
1
 66
1
  0
VERTEX
  8
0
 10
2201.4580078125
 20
495.05999755859375
 42
-0
  0
VERTEX
  8
0
 10
2271.4580078125
 20
495.05999755859375
 42
-0
  0
VERTEX
  8
0
 10
2271.4580078125
 20
471.05999755859375
 42
-0
  0
VERTEX
  8
0
 10
2529.4580078125
 20
471.05999755859375
 42
-0
  0
VERTEX
  8
0
 10
2529.4580078125
 20
495.05999755859375
 42
-0
  0
VERTEX
  8
0
 10
2599.4580078125
 20
495.05999755859375
 42
-0
  0
VERTEX
  8
0
 10
2628.756591796875
 20
511.97552490234375
 42
-0.46952301263809204
  0
VERTEX
  8
0
 10
2981.60302734375
 20
621.05999755859375
 42
-0
  0
VERTEX
  8
0
 10
2990.4580078125
 20
621.05999755859375
 42
-0
  0
VERTEX
  8
0
 10
2990.4580078125
 20
752.5614013671875
 42
0.33945399522781372
  0
VERTEX
  8
0
 10
2953.39892578125
 20
800.857666015625
 42
-0
  0
VERTEX
  8
0
 10
2523.4580078125
 20
916.05999755859375
 42
-0
  0
VERTEX
  8
0
 10
2523.4580078125
 20
820.05999755859375
 42
-1
  0
VERTEX
  8
0
 10
2277.4580078125
 20
820.05999755859375
 42
-0
  0
VERTEX
  8
0
 10
2277.4580078125
 20
916.05999755859375
 42
-0
  0
VERTEX
  8
0
 10
1847.51708984375
 20
800.857666015625
 42
0.33945399522781372
  0
VERTEX
  8
0
 10
1810.4580078125
 20
752.5614013671875
 42
-0
  0
VERTEX
  8
0
 10
1810.4580078125
 20
621.05999755859375
 42
-0
  0
VERTEX
  8
0
 10
1819.3131103515625
 20
621.05999755859375
 42
-0.46952301263809204
  0
VERTEX
  8
0
 10
2172.159423828125
 20
511.97552490234375
 42
-0
  0
SEQEND
  0
POLYLINE
  8
0
 10
0
 20
0
 39
0
 70
1
 66
1
  0
VERTEX
  8
0
 10
2034.735595703125
 20
1065.949951171875
 42
-0
  0
VERTEX
  8
0
 10
2104.735595703125
 20
1065.949951171875
 42
-0
  0
VERTEX
  8
0
 10
2104.735595703125
 20
1041.949951171875
 42
-0
  0
VERTEX
  8
0
 10
2362.735595703125
 20
1041.949951171875
 42
-0
  0
VERTEX
  8
0
 10
2362.735595703125
 20
1065.949951171875
 42
-0
  0
VERTEX
  8
0
 10
2432.735595703125
 20
1065.949951171875
 42
-0
  0
VERTEX
  8
0
 10
2462.0341796875
 20
1082.865478515625
 42
-0.46952301263809204
  0
VERTEX
  8
0
 10
2814.88037109375
 20
1191.949951171875
 42
-0
  0
VERTEX
  8
0
 10
2823.735595703125
 20
1191.949951171875
 42
-0
  0
VERTEX
  8
0
 10
2823.735595703125
 20
1323.4512939453125
 42
0.33945399522781372
  0
VERTEX
  8
0
 10
2786.676513671875
 20
1371.74755859375
 42
-0
  0
VERTEX
  8
0
 10
2356.735595703125
 20
1486.949951171875
 42
-0
  0
VERTEX
  8
0
 10
2356.735595703125
 20
1390.949951171875
 42
-1
  0
VERTEX
  8
0
 10
2110.735595703125
 20
1390.949951171875
 42
-0
  0
VERTEX
  8
0
 10
2110.735595703125
 20
1486.949951171875
 42
-0
  0
VERTEX
  8
0
 10
1680.794677734375
 20
1371.74755859375
 42
0.33945399522781372
  0
VERTEX
  8
0
 10
1643.735595703125
 20
1323.4512939453125
 42
-0
  0
VERTEX
  8
0
 10
1643.735595703125
 20
1191.949951171875
 42
-0
  0
VERTEX
  8
0
 10
1652.5906982421875
 20
1191.949951171875
 42
-0.46952301263809204
  0
VERTEX
  8
0
 10
2005.43701171875
 20
1082.865478515625
 42
-0
  0
SEQEND
  0
POLYLINE
  8
0
 10
0
 20
0
 39
0
 70
1
 66
1
  0
VERTEX
  8
0
 10
3498.230712890625
 20
717.64892578125
 42
-0
  0
VERTEX
  8
0
 10
3428.230712890625
 20
717.64886474609375
 42
-0
  0
VERTEX
  8
0
 10
3428.230712890625
 20
741.64886474609375
 42
-0
  0
VERTEX
  8
0
 10
3170.230712890625
 20
741.64874267578125
 42
-0
  0
VERTEX
  8
0
 10
3170.230712890625
 20
717.64874267578125
 42
-0
  0
VERTEX
  8
0
 10
3100.230712890625
 20
717.64874267578125
 42
-0
  0
VERTEX
  8
0
 10
3070.93212890625
 20
700.73321533203125
 42
-0.46952301263809204
  0
VERTEX
  8
0
 10
2718.0859375
 20
591.6485595703125
 42
-0
  0
VERTEX
  8
0
 10
2709.230712890625
 20
591.6485595703125
 42
-0
  0
VERTEX
  8
0
 10
2709.23095703125
 20
460.147216796875
 42
0.33945399522781372
  0
VERTEX
  8
0
 10
2746.2900390625
 20
411.85092163085937
 42
-0
  0
VERTEX
  8
0
 10
3176.23095703125
 20
296.64877319335937
 42
-0
  0
VERTEX
  8
0
 10
3176.23095703125
 20
392.64877319335937
 42
-1
  0
VERTEX
  8
0
 10
3422.23095703125
 20
392.64886474609375
 42
-0
  0
VERTEX
  8
0
 10
3422.23095703125
 20
296.64886474609375
 42
-0
  0
VERTEX
  8
0
 10
3852.171875
 20
411.85137939453125
 42
0.33945399522781372
  0
VERTEX
  8
0
 10
3889.230712890625
 20
460.14767456054687
 42
-0
  0
VERTEX
  8
0
 10
3889.230712890625
 20
591.6490478515625
 42
-0
  0
VERTEX
  8
0
 10
3880.375732421875
 20
591.6490478515625
 42
-0.46952301263809204
  0
VERTEX
  8
0
 10
3527.529296875
 20
700.7333984375
 42
-0
  0
SEQEND
  0
POLYLINE
  8
0
 10
0
 20
0
 39
0
 70
1
 66
1
  0
VERTEX
  8
0
 10
3498.093505859375
 20
1175.6590576171875
 42
-0
  0
VERTEX
  8
0
 10
3428.093505859375
 20
1175.6590576171875
 42
-0
  0
VERTEX
  8
0
 10
3428.093505859375
 20
1199.6590576171875
 42
-0
  0
VERTEX
  8
0
 10
3170.093505859375
 20
1199.658935546875
 42
-0
  0
VERTEX
  8
0
 10
3170.093505859375
 20
1175.658935546875
 42
-0
  0
VERTEX
  8
0
 10
3100.093505859375
 20
1175.6588134765625
 42
-0
  0
VERTEX
  8
0
 10
3070.794921875
 20
1158.7432861328125
 42
-0.46952301263809204
  0
VERTEX
  8
0
 10
2717.94873046875
 20
1049.65869140625
 42
-0
  0
VERTEX
  8
0
 10
2709.093505859375
 20
1049.65869140625
 42
-0
  0
VERTEX
  8
0
 10
2709.09375
 20
918.1573486328125
 42
0.33945399522781372
  0
VERTEX
  8
0
 10
2746.15283203125
 20
869.861083984375
 42
-0
  0
VERTEX
  8
0
 10
3176.09375
 20
754.658935546875
 42
-0
  0
VERTEX
  8
0
 10
3176.09375
 20
850.658935546875
 42
-1
  0
VERTEX
  8
0
 10
3422.09375
 20
850.65899658203125
 42
-0
  0
VERTEX
  8
0
 10
3422.09375
 20
754.65899658203125
 42
-0
  0
VERTEX
  8
0
 10
3852.03466796875
 20
869.86151123046875
 42
0.33945399522781372
  0
VERTEX
  8
0
 10
3889.093505859375
 20
918.1578369140625
 42
-0
  0
VERTEX
  8
0
 10
3889.093505859375
 20
1049.6591796875
 42
-0
  0
VERTEX
  8
0
 10
3880.238525390625
 20
1049.6591796875
 42
-0.46952301263809204
  0
VERTEX
  8
0
 10
3527.39208984375
 20
1158.7435302734375
 42
-0
  0
SEQEND
  0
POLYLINE
  8
0
 10
0
 20
0
 39
0
 70
1
 66
1
  0
VERTEX
  8
0
 10
3998.8662109375
 20
37.049999237060547
 42
-0
  0
VERTEX
  8
0
 10
4068.8662109375
 20
37.049999237060547
 42
-0
  0
VERTEX
  8
0
 10
4068.8662109375
 20
13.049999237060547
 42
-0
  0
VERTEX
  8
0
 10
4326.8662109375
 20
13.049999237060547
 42
-0
  0
VERTEX
  8
0
 10
4326.8662109375
 20
37.049999237060547
 42
-0
  0
VERTEX
  8
0
 10
4396.8662109375
 20
37.049999237060547
 42
-0
  0
VERTEX
  8
0
 10
4426.16455078125
 20
53.965518951416016
 42
-0.46952301263809204
  0
VERTEX
  8
0
 10
4779.01123046875
 20
163.05000305175781
 42
-0
  0
VERTEX
  8
0
 10
4787.8662109375
 20
163.05000305175781
 42
-0
  0
VERTEX
  8
0
 10
4787.8662109375
 20
294.55136108398437
 42
0.33945399522781372
  0
VERTEX
  8
0
 10
4750.80712890625
 20
342.84765625
 42
-0
  0
VERTEX
  8
0
 10
4320.8662109375
 20
458.04998779296875
 42
-0
  0
VERTEX
  8
0
 10
4320.8662109375
 20
362.04998779296875
 42
-1
  0
VERTEX
  8
0
 10
4074.8662109375
 20
362.04998779296875
 42
-0
  0
VERTEX
  8
0
 10
4074.8662109375
 20
458.04998779296875
 42
-0
  0
VERTEX
  8
0
 10
3644.92529296875
 20
342.84765625
 42
0.33945399522781372
  0
VERTEX
  8
0
 10
3607.8662109375
 20
294.55136108398437
 42
-0
  0
VERTEX
  8
0
 10
3607.8662109375
 20
163.05000305175781
 42
-0
  0
VERTEX
  8
0
 10
3616.72119140625
 20
163.05000305175781
 42
-0.46952301263809204
  0
VERTEX
  8
0
 10
3969.567626953125
 20
53.965518951416016
 42
-0
  0
SEQEND
  0
POLYLINE
  8
0
 10
0
 20
0
 39
0
 70
1
 66
1
  0
VERTEX
  8
0
 10
3998.8662109375
 20
495.06002807617187
 42
-0
  0
VERTEX
  8
0
 10
4068.8662109375
 20
495.06002807617187
 42
-0
  0
VERTEX
  8
0
 10
4068.8662109375
 20
471.06002807617187
 42
-0
  0
VERTEX
  8
0
 10
4326.8662109375
 20
471.06002807617187
 42
-0
  0
VERTEX
  8
0
 10
4326.8662109375
 20
495.06002807617187
 42
-0
  0
VERTEX
  8
0
 10
4396.8662109375
 20
495.06002807617187
 42
-0
  0
VERTEX
  8
0
 10
4426.16455078125
 20
511.97555541992187
 42
-0.46952301263809204
  0
VERTEX
  8
0
 10
4779.01123046875
 20
621.06005859375
 42
-0
  0
VERTEX
  8
0
 10
4787.8662109375
 20
621.06005859375
 42
-0
  0
VERTEX
  8
0
 10
4787.8662109375
 20
752.5614013671875
 42
0.33945399522781372
  0
VERTEX
  8
0
 10
4750.80712890625
 20
800.857666015625
 42
-0
  0
VERTEX
  8
0
 10
4320.8662109375
 20
916.06005859375
 42
-0
  0
VERTEX
  8
0
 10
4320.8662109375
 20
820.06005859375
 42
-1
  0
VERTEX
  8
0
 10
4074.8662109375
 20
820.06005859375
 42
-0
  0
VERTEX
  8
0
 10
4074.8662109375
 20
916.06005859375
 42
-0
  0
VERTEX
  8
0
 10
3644.92529296875
 20
800.857666015625
 42
0.33945399522781372
  0
VERTEX
  8
0
 10
3607.8662109375
 20
752.5614013671875
 42
-0
  0
VERTEX
  8
0
 10
3607.8662109375
 20
621.06005859375
 42
-0
  0
VERTEX
  8
0
 10
3616.72119140625
 20
621.06005859375
 42
-0.46952301263809204
  0
VERTEX
  8
0
 10
3969.567626953125
 20
511.97555541992187
 42
-0
  0
SEQEND
  0
POLYLINE
  8
0
 10
0
 20
0
 39
0
 70
1
 66
1
  0
VERTEX
  8
0
 10
3998.8662109375
 20
953.06988525390625
 42
-0
  0
VERTEX
  8
0
 10
4068.8662109375
 20
953.06988525390625
 42
-0
  0
VERTEX
  8
0
 10
4068.8662109375
 20
929.06988525390625
 42
-0
  0
VERTEX
  8
0
 10
4326.8662109375
 20
929.06988525390625
 42
-0
  0
VERTEX
  8
0
 10
4326.8662109375
 20
953.06988525390625
 42
-0
  0
VERTEX
  8
0
 10
4396.8662109375
 20
953.06988525390625
 42
-0
  0
VERTEX
  8
0
 10
4426.16455078125
 20
969.98541259765625
 42
-0.46952301263809204
  0
VERTEX
  8
0
 10
4779.01123046875
 20
1079.06982421875
 42
-0
  0
VERTEX
  8
0
 10
4787.8662109375
 20
1079.06982421875
 42
-0
  0
VERTEX
  8
0
 10
4787.8662109375
 20
1210.5712890625
 42
0.33945399522781372
  0
VERTEX
  8
0
 10
4750.80712890625
 20
1258.8675537109375
 42
-0
  0
VERTEX
  8
0
 10
4320.8662109375
 20
1374.06982421875
 42
-0
  0
VERTEX
  8
0
 10
4320.8662109375
 20
1278.06982421875
 42
-1
  0
VERTEX
  8
0
 10
4074.8662109375
 20
1278.06982421875
 42
-0
  0
VERTEX
  8
0
 10
4074.8662109375
 20
1374.06982421875
 42
-0
  0
VERTEX
  8
0
 10
3644.92529296875
 20
1258.8675537109375
 42
0.33945399522781372
  0
VERTEX
  8
0
 10
3607.8662109375
 20
1210.5712890625
 42
-0
  0
VERTEX
  8
0
 10
3607.8662109375
 20
1079.06982421875
 42
-0
  0
VERTEX
  8
0
 10
3616.72119140625
 20
1079.06982421875
 42
-0.46952301263809204
  0
VERTEX
  8
0
 10
3969.567626953125
 20
969.98541259765625
 42
-0
  0
SEQEND
  0
POLYLINE
  8
0
 10
0
 20
0
 39
0
 70
1
 66
1
  0
VERTEX
  8
0
 10
5197.9501953125
 20
37.0499267578125
 42
-0
  0
VERTEX
  8
0
 10
5267.9501953125
 20
37.049980163574219
 42
-0
  0
VERTEX
  8
0
 10
5267.9501953125
 20
13.049980163574219
 42
-0
  0
VERTEX
  8
0
 10
5525.9501953125
 20
13.05018138885498
 42
-0
  0
VERTEX
  8
0
 10
5525.9501953125
 20
37.050182342529297
 42
-0
  0
VERTEX
  8
0
 10
5595.9501953125
 20
37.050235748291016
 42
-0
  0
VERTEX
  8
0
 10
5625.24853515625
 20
53.965778350830078
 42
-0.46952301263809204
  0
VERTEX
  8
0
 10
5978.0947265625
 20
163.050537109375
 42
-0
  0
VERTEX
  8
0
 10
5986.9501953125
 20
163.050537109375
 42
-0
  0
VERTEX
  8
0
 10
5986.9501953125
 20
294.55191040039062
 42
0.33945399522781372
  0
VERTEX
  8
0
 10
5949.890625
 20
342.84817504882812
 42
-0
  0
VERTEX
  8
0
 10
5519.94970703125
 20
458.0501708984375
 42
-0
  0
VERTEX
  8
0
 10
5519.9501953125
 20
362.0501708984375
 42
-1
  0
VERTEX
  8
0
 10
5273.94970703125
 20
362.04998779296875
 42
-0
  0
VERTEX
  8
0
 10
5273.94970703125
 20
458.04998779296875
 42
-0
  0
VERTEX
  8
0
 10
4844.0087890625
 20
342.84732055664062
 42
0.33945399522781372
  0
VERTEX
  8
0
 10
4806.9501953125
 20
294.55099487304687
 42
-0
  0
VERTEX
  8
0
 10
4806.9501953125
 20
163.04962158203125
 42
-0
  0
VERTEX
  8
0
 10
4815.80517578125
 20
163.04962158203125
 42
-0.46952301263809204
  0
VERTEX
  8
0
 10
5168.6513671875
 20
53.965423583984375
 42
-0
  0
SEQEND
  0
POLYLINE
  8
0
 10
0
 20
0
 39
0
 70
1
 66
1
  0
VERTEX
  8
0
 10
5197.9501953125
 20
953.0703125
 42
-0
  0
VERTEX
  8
0
 10
5267.9501953125
 20
953.07037353515625
 42
-0
  0
VERTEX
  8
0
 10
5267.9501953125
 20
929.07037353515625
 42
-0
  0
VERTEX
  8
0
 10
5525.9501953125
 20
929.070556640625
 42
-0
  0
VERTEX
  8
0
 10
5525.9501953125
 20
953.070556640625
 42
-0
  0
VERTEX
  8
0
 10
5595.9501953125
 20
953.07061767578125
 42
-0
  0
VERTEX
  8
0
 10
5625.24853515625
 20
969.98614501953125
 42
-0.46952301263809204
  0
VERTEX
  8
0
 10
5978.0947265625
 20
1079.0709228515625
 42
-0
  0
VERTEX
  8
0
 10
5986.9501953125
 20
1079.0709228515625
 42
-0
  0
VERTEX
  8
0
 10
5986.9501953125
 20
1210.572265625
 42
0.33945399522781372
  0
VERTEX
  8
0
 10
5949.890625
 20
1258.8685302734375
 42
-0
  0
VERTEX
  8
0
 10
5519.94970703125
 20
1374.070556640625
 42
-0
  0
VERTEX
  8
0
 10
5519.9501953125
 20
1278.070556640625
 42
-1
  0
VERTEX
  8
0
 10
5273.94970703125
 20
1278.0703125
 42
-0
  0
VERTEX
  8
0
 10
5273.94970703125
 20
1374.0703125
 42
-0
  0
VERTEX
  8
0
 10
4844.0087890625
 20
1258.86767578125
 42
0.33945399522781372
  0
VERTEX
  8
0
 10
4806.9501953125
 20
1210.5714111328125
 42
-0
  0
VERTEX
  8
0
 10
4806.9501953125
 20
1079.070068359375
 42
-0
  0
VERTEX
  8
0
 10
4815.80517578125
 20
1079.070068359375
 42
-0.46952301263809204
  0
VERTEX
  8
0
 10
5168.6513671875
 20
969.98583984375
 42
-0
  0
SEQEND
  0
POLYLINE
  8
0
 10
0
 20
0
 39
0
 70
1
 66
1
  0
VERTEX
  8
0
 10
1206.10009765625
 20
13.049999237060547
 42
-0
  0
VERTEX
  8
0
 10
1544.10009765625
 20
13.049999237060547
 42
-0
  0
VERTEX
  8
0
 10
1544.10009765625
 20
237.05000305175781
 42
-0
  0
VERTEX
  8
0
 10
1206.10009765625
 20
237.05000305175781
 42
-0
  0
SEQEND
  0
POLYLINE
  8
0
 10
0
 20
0
 39
0
 70
1
 66
1
  0
VERTEX
  8
0
 10
2836.78564453125
 20
1221.3951416015625
 42
-0
  0
VERTEX
  8
0
 10
3174.78564453125
 20
1221.3951416015625
 42
-0
  0
VERTEX
  8
0
 10
3174.78564453125
 20
1445.3951416015625
 42
-0
  0
VERTEX
  8
0
 10
2836.78564453125
 20
1445.3951416015625
 42
-0
  0
SEQEND
  0
POLYLINE
  8
0
 10
0
 20
0
 39
0
 70
1
 66
1
  0
VERTEX
  8
0
 10
3187.795654296875
 20
1221.3951416015625
 42
-0
  0
VERTEX
  8
0
 10
3525.795654296875
 20
1221.3951416015625
 42
-0
  0
VERTEX
  8
0
 10
3525.795654296875
 20
1445.3951416015625
 42
-0
  0
VERTEX
  8
0
 10
3187.795654296875
 20
1445.3951416015625
 42
-0
  0
SEQEND
  0
POLYLINE
  8
0
 10
0
 20
0
 39
0
 70
1
 66
1
  0
VERTEX
  8
0
 10
3020.214599609375
 20
13.049999237060547
 42
-0
  0
VERTEX
  8
0
 10
3358.214599609375
 20
13.049999237060547
 42
-0
  0
VERTEX
  8
0
 10
3358.214599609375
 20
237.05000305175781
 42
-0
  0
VERTEX
  8
0
 10
3020.214599609375
 20
237.05000305175781
 42
-0
  0
SEQEND
  0
POLYLINE
  8
0
 10
0
 20
0
 39
0
 70
1
 66
1
  0
VERTEX
  8
0
 10
230.04998779296875
 20
1467.177978515625
 42
-0
  0
VERTEX
  8
0
 10
20.04998779296875
 20
1467.1778564453125
 42
-0
  0
VERTEX
  8
0
 10
13.04998779296875
 20
1460.1778564453125
 42
-0
  0
VERTEX
  8
0
 10
13.050003051757813
 20
1437.1778564453125
 42
-0
  0
VERTEX
  8
0
 10
237.05001831054687
 20
1417.177978515625
 42
-0
  0
VERTEX
  8
0
 10
237.04998779296875
 20
1460.177978515625
 42
-0
  0
SEQEND
  0
POLYLINE
  8
0
 10
0
 20
0
 39
0
 70
1
 66
1
  0
VERTEX
  8
0
 10
59.564628601074219
 20
896.53692626953125
 42
-0
  0
VERTEX
  8
0
 10
269.56463623046875
 20
896.5369873046875
 42
-0
  0
VERTEX
  8
0
 10
276.56463623046875
 20
903.5369873046875
 42
-0
  0
VERTEX
  8
0
 10
276.56463623046875
 20
926.5369873046875
 42
-0
  0
VERTEX
  8
0
 10
52.564620971679688
 20
946.53692626953125
 42
-0
  0
VERTEX
  8
0
 10
52.564628601074219
 20
903.53692626953125
 42
-0
  0
SEQEND
  0
POLYLINE
  8
0
 10
0
 20
0
 39
0
 70
1
 66
1
  0
VERTEX
  8
0
 10
246.75662231445312
 20
991.67523193359375
 42
-0
  0
VERTEX
  8
0
 10
36.756622314453125
 20
991.67510986328125
 42
-0
  0
VERTEX
  8
0
 10
29.756622314453125
 20
984.67510986328125
 42
-0
  0
VERTEX
  8
0
 10
29.756637573242188
 20
961.67510986328125
 42
-0
  0
VERTEX
  8
0
 10
253.75665283203125
 20
941.67523193359375
 42
-0
  0
VERTEX
  8
0
 10
253.75662231445312
 20
984.67523193359375
 42
-0
  0
SEQEND
  0
POLYLINE
  8
0
 10
0
 20
0
 39
0
 70
1
 66
1
  0
VERTEX
  8
0
 10
55.726043701171875
 20
469.8814697265625
 42
-0
  0
VERTEX
  8
0
 10
265.72604370117187
 20
469.88150024414062
 42
-0
  0
VERTEX
  8
0
 10
272.72604370117187
 20
476.88150024414062
 42
-0
  0
VERTEX
  8
0
 10
272.72604370117187
 20
499.88150024414062
 42
-0
  0
VERTEX
  8
0
 10
48.726036071777344
 20
519.8814697265625
 42
-0
  0
VERTEX
  8
0
 10
48.726043701171875
 20
476.8814697265625
 42
-0
  0
SEQEND
  0
POLYLINE
  8
0
 10
0
 20
0
 39
0
 70
1
 66
1
  0
VERTEX
  8
0
 10
242.9180908203125
 20
565.019775390625
 42
-0
  0
VERTEX
  8
0
 10
32.9180908203125
 20
565.0196533203125
 42
-0
  0
VERTEX
  8
0
 10
25.9180908203125
 20
558.0196533203125
 42
-0
  0
VERTEX
  8
0
 10
25.918106079101562
 20
535.0196533203125
 42
-0
  0
VERTEX
  8
0
 10
249.91812133789062
 20
515.019775390625
 42
-0
  0
VERTEX
  8
0
 10
249.9180908203125
 20
558.019775390625
 42
-0
  0
SEQEND
  0
POLYLINE
  8
0
 10
0
 20
0
 39
0
 70
1
 66
1
  0
VERTEX
  8
0
 10
59.375785827636719
 20
29.940170288085938
 42
-0
  0
VERTEX
  8
0
 10
269.37579345703125
 20
29.940212249755859
 42
-0
  0
VERTEX
  8
0
 10
276.37579345703125
 20
36.940212249755859
 42
-0
  0
VERTEX
  8
0
 10
276.37579345703125
 20
59.940216064453125
 42
-0
  0
VERTEX
  8
0
 10
52.375778198242188
 20
79.940170288085938
 42
-0
  0
VERTEX
  8
0
 10
52.375785827636719
 20
36.940170288085938
 42
-0
  0
SEQEND
  0
POLYLINE
  8
0
 10
0
 20
0
 39
0
 70
1
 66
1
  0
VERTEX
  8
0
 10
246.56784057617187
 20
125.07847595214844
 42
-0
  0
VERTEX
  8
0
 10
36.567840576171875
 20
125.07835388183594
 42
-0
  0
VERTEX
  8
0
 10
29.567840576171875
 20
118.07834625244141
 42
-0
  0
VERTEX
  8
0
 10
29.567855834960938
 20
95.078346252441406
 42
-0
  0
VERTEX
  8
0
 10
253.56787109375
 20
75.078475952148438
 42
-0
  0
VERTEX
  8
0
 10
253.56784057617187
 20
118.07847595214844
 42
-0
  0
SEQEND
  0
POLYLINE
  8
0
 10
0
 20
0
 39
0
 70
1
 66
1
  0
VERTEX
  8
0
 10
948.47698974609375
 20
1372.0396728515625
 42
-0
  0
VERTEX
  8
0
 10
1158.47705078125
 20
1372.0396728515625
 42
-0
  0
VERTEX
  8
0
 10
1165.47705078125
 20
1379.0396728515625
 42
-0
  0
VERTEX
  8
0
 10
1165.47705078125
 20
1402.0396728515625
 42
-0
  0
VERTEX
  8
0
 10
941.47698974609375
 20
1422.0396728515625
 42
-0
  0
VERTEX
  8
0
 10
941.47698974609375
 20
1379.0396728515625
 42
-0
  0
SEQEND
  0
POLYLINE
  8
0
 10
0
 20
0
 39
0
 70
1
 66
1
  0
VERTEX
  8
0
 10
1135.6689453125
 20
1467.177978515625
 42
-0
  0
VERTEX
  8
0
 10
925.6689453125
 20
1467.1778564453125
 42
-0
  0
VERTEX
  8
0
 10
918.6689453125
 20
1460.1778564453125
 42
-0
  0
VERTEX
  8
0
 10
918.6689453125
 20
1437.1778564453125
 42
-0
  0
VERTEX
  8
0
 10
1142.6689453125
 20
1417.177978515625
 42
-0
  0
VERTEX
  8
0
 10
1142.6689453125
 20
1460.177978515625
 42
-0
  0
SEQEND
  0
POLYLINE
  8
0
 10
0
 20
0
 39
0
 70
1
 66
1
  0
VERTEX
  8
0
 10
1586.9580078125
 20
13.049999237060547
 42
-0
  0
VERTEX
  8
0
 10
1796.9580078125
 20
13.050041198730469
 42
-0
  0
VERTEX
  8
0
 10
1803.9580078125
 20
20.050041198730469
 42
-0
  0
VERTEX
  8
0
 10
1803.9580078125
 20
43.050041198730469
 42
-0
  0
VERTEX
  8
0
 10
1579.9580078125
 20
63.049999237060547
 42
-0
  0
VERTEX
  8
0
 10
1579.9580078125
 20
20.049999237060547
 42
-0
  0
SEQEND
  0
POLYLINE
  8
0
 10
0
 20
0
 39
0
 70
1
 66
1
  0
VERTEX
  8
0
 10
1774.150146484375
 20
108.18830108642578
 42
-0
  0
VERTEX
  8
0
 10
1564.150146484375
 20
108.18817901611328
 42
-0
  0
VERTEX
  8
0
 10
1557.150146484375
 20
101.18817138671875
 42
-0
  0
VERTEX
  8
0
 10
1557.150146484375
 20
78.18817138671875
 42
-0
  0
VERTEX
  8
0
 10
1781.150146484375
 20
58.188304901123047
 42
-0
  0
VERTEX
  8
0
 10
1781.150146484375
 20
101.18830871582031
 42
-0
  0
SEQEND
  0
POLYLINE
  8
0
 10
0
 20
0
 39
0
 70
1
 66
1
  0
VERTEX
  8
0
 10
1862.990234375
 20
13.049999237060547
 42
-0
  0
VERTEX
  8
0
 10
2072.990234375
 20
13.050041198730469
 42
-0
  0
VERTEX
  8
0
 10
2079.990234375
 20
20.050041198730469
 42
-0
  0
VERTEX
  8
0
 10
2079.990234375
 20
43.050041198730469
 42
-0
  0
VERTEX
  8
0
 10
1855.990234375
 20
63.049999237060547
 42
-0
  0
VERTEX
  8
0
 10
1855.990234375
 20
20.049999237060547
 42
-0
  0
SEQEND
  0
POLYLINE
  8
0
 10
0
 20
0
 39
0
 70
1
 66
1
  0
VERTEX
  8
0
 10
2050.1826171875
 20
108.18830108642578
 42
-0
  0
VERTEX
  8
0
 10
1840.1826171875
 20
108.18817901611328
 42
-0
  0
VERTEX
  8
0
 10
1833.1826171875
 20
101.18817138671875
 42
-0
  0
VERTEX
  8
0
 10
1833.1826171875
 20
78.18817138671875
 42
-0
  0
VERTEX
  8
0
 10
2057.1826171875
 20
58.188304901123047
 42
-0
  0
VERTEX
  8
0
 10
2057.1826171875
 20
101.18830871582031
 42
-0
  0
SEQEND
  0
POLYLINE
  8
0
 10
0
 20
0
 39
0
 70
1
 66
1
  0
VERTEX
  8
0
 10
929.8304443359375
 20
13.049999237060547
 42
-0
  0
VERTEX
  8
0
 10
1139.8304443359375
 20
13.050041198730469
 42
-0
  0
VERTEX
  8
0
 10
1146.8304443359375
 20
20.050041198730469
 42
-0
  0
VERTEX
  8
0
 10
1146.8304443359375
 20
43.050041198730469
 42
-0
  0
VERTEX
  8
0
 10
922.8304443359375
 20
63.049999237060547
 42
-0
  0
VERTEX
  8
0
 10
922.8304443359375
 20
20.049999237060547
 42
-0
  0
SEQEND
  0
POLYLINE
  8
0
 10
0
 20
0
 39
0
 70
1
 66
1
  0
VERTEX
  8
0
 10
1117.0225830078125
 20
108.18830108642578
 42
-0
  0
VERTEX
  8
0
 10
907.0225830078125
 20
108.18817901611328
 42
-0
  0
VERTEX
  8
0
 10
900.0225830078125
 20
101.18817138671875
 42
-0
  0
VERTEX
  8
0
 10
900.0225830078125
 20
78.18817138671875
 42
-0
  0
VERTEX
  8
0
 10
1124.0225830078125
 20
58.188304901123047
 42
-0
  0
VERTEX
  8
0
 10
1124.0225830078125
 20
101.18830871582031
 42
-0
  0
SEQEND
  0
POLYLINE
  8
0
 10
0
 20
0
 39
0
 70
1
 66
1
  0
VERTEX
  8
0
 10
3432.1962890625
 20
26.710952758789063
 42
-0
  0
VERTEX
  8
0
 10
3642.1962890625
 20
26.710994720458984
 42
-0
  0
VERTEX
  8
0
 10
3649.1962890625
 20
33.710994720458984
 42
-0
  0
VERTEX
  8
0
 10
3649.1962890625
 20
56.71099853515625
 42
-0
  0
VERTEX
  8
0
 10
3425.1962890625
 20
76.710952758789063
 42
-0
  0
VERTEX
  8
0
 10
3425.1962890625
 20
33.710952758789063
 42
-0
  0
SEQEND
  0
POLYLINE
  8
0
 10
0
 20
0
 39
0
 70
1
 66
1
  0
VERTEX
  8
0
 10
3619.38818359375
 20
121.84925842285156
 42
-0
  0
VERTEX
  8
0
 10
3409.38818359375
 20
121.84913635253906
 42
-0
  0
VERTEX
  8
0
 10
3402.38818359375
 20
114.84912872314453
 42
-0
  0
VERTEX
  8
0
 10
3402.38818359375
 20
91.849128723144531
 42
-0
  0
VERTEX
  8
0
 10
3626.38818359375
 20
71.849258422851562
 42
-0
  0
VERTEX
  8
0
 10
3626.38818359375
 20
114.84925842285156
 42
-0
  0
SEQEND
  0
POLYLINE
  8
0
 10
0
 20
0
 39
0
 70
1
 66
1
  0
VERTEX
  8
0
 10
2747.224609375
 20
29.050613403320313
 42
-0
  0
VERTEX
  8
0
 10
2957.224609375
 20
29.050655364990234
 42
-0
  0
VERTEX
  8
0
 10
2964.224609375
 20
36.050655364990234
 42
-0
  0
VERTEX
  8
0
 10
2964.224609375
 20
59.0506591796875
 42
-0
  0
VERTEX
  8
0
 10
2740.224609375
 20
79.050613403320313
 42
-0
  0
VERTEX
  8
0
 10
2740.224609375
 20
36.050613403320312
 42
-0
  0
SEQEND
  0
POLYLINE
  8
0
 10
0
 20
0
 39
0
 70
1
 66
1
  0
VERTEX
  8
0
 10
2934.41650390625
 20
124.18891906738281
 42
-0
  0
VERTEX
  8
0
 10
2724.41650390625
 20
124.18879699707031
 42
-0
  0
VERTEX
  8
0
 10
2717.41650390625
 20
117.18878936767578
 42
-0
  0
VERTEX
  8
0
 10
2717.41650390625
 20
94.188789367675781
 42
-0
  0
VERTEX
  8
0
 10
2941.41650390625
 20
74.188919067382812
 42
-0
  0
VERTEX
  8
0
 10
2941.41650390625
 20
117.18891906738281
 42
-0
  0
SEQEND
  0
POLYLINE
  8
0
 10
0
 20
0
 39
0
 70
1
 66
1
  0
VERTEX
  8
0
 10
4434.05908203125
 20
1374.8116455078125
 42
-0
  0
VERTEX
  8
0
 10
4644.05908203125
 20
1374.8116455078125
 42
-0
  0
VERTEX
  8
0
 10
4651.05908203125
 20
1381.8116455078125
 42
-0
  0
VERTEX
  8
0
 10
4651.05908203125
 20
1404.8116455078125
 42
-0
  0
VERTEX
  8
0
 10
4427.05908203125
 20
1424.8116455078125
 42
-0
  0
VERTEX
  8
0
 10
4427.05908203125
 20
1381.8116455078125
 42
-0
  0
SEQEND
  0
POLYLINE
  8
0
 10
0
 20
0
 39
0
 70
1
 66
1
  0
VERTEX
  8
0
 10
4621.25146484375
 20
1469.949951171875
 42
-0
  0
VERTEX
  8
0
 10
4411.25146484375
 20
1469.9498291015625
 42
-0
  0
VERTEX
  8
0
 10
4404.25146484375
 20
1462.9498291015625
 42
-0
  0
VERTEX
  8
0
 10
4404.25146484375
 20
1439.9498291015625
 42
-0
  0
VERTEX
  8
0
 10
4628.25146484375
 20
1419.949951171875
 42
-0
  0
VERTEX
  8
0
 10
4628.25146484375
 20
1462.949951171875
 42
-0
  0
SEQEND
  0
POLYLINE
  8
0
 10
0
 20
0
 39
0
 70
1
 66
1
  0
VERTEX
  8
0
 10
4534.833984375
 20
22.592178344726563
 42
-0
  0
VERTEX
  8
0
 10
4744.833984375
 20
22.592220306396484
 42
-0
  0
VERTEX
  8
0
 10
4751.833984375
 20
29.592220306396484
 42
-0
  0
VERTEX
  8
0
 10
4751.833984375
 20
52.59222412109375
 42
-0
  0
VERTEX
  8
0
 10
4527.833984375
 20
72.592178344726562
 42
-0
  0
VERTEX
  8
0
 10
4527.833984375
 20
29.592178344726563
 42
-0
  0
SEQEND
  0
POLYLINE
  8
0
 10
0
 20
0
 39
0
 70
1
 66
1
  0
VERTEX
  8
0
 10
4722.02587890625
 20
117.73048400878906
 42
-0
  0
VERTEX
  8
0
 10
4512.02587890625
 20
117.73036193847656
 42
-0
  0
VERTEX
  8
0
 10
4505.02587890625
 20
110.73035430908203
 42
-0
  0
VERTEX
  8
0
 10
4505.02587890625
 20
87.730354309082031
 42
-0
  0
VERTEX
  8
0
 10
4729.02587890625
 20
67.730484008789063
 42
-0
  0
VERTEX
  8
0
 10
4729.02587890625
 20
110.73048400878906
 42
-0
  0
SEQEND
  0
POLYLINE
  8
0
 10
0
 20
0
 39
0
 70
1
 66
1
  0
VERTEX
  8
0
 10
4710.87646484375
 20
1374.8116455078125
 42
-0
  0
VERTEX
  8
0
 10
4920.87646484375
 20
1374.8116455078125
 42
-0
  0
VERTEX
  8
0
 10
4927.87646484375
 20
1381.8116455078125
 42
-0
  0
VERTEX
  8
0
 10
4927.87646484375
 20
1404.8116455078125
 42
-0
  0
VERTEX
  8
0
 10
4703.87646484375
 20
1424.8116455078125
 42
-0
  0
VERTEX
  8
0
 10
4703.87646484375
 20
1381.8116455078125
 42
-0
  0
SEQEND
  0
POLYLINE
  8
0
 10
0
 20
0
 39
0
 70
1
 66
1
  0
VERTEX
  8
0
 10
4898.06884765625
 20
1469.949951171875
 42
-0
  0
VERTEX
  8
0
 10
4688.06884765625
 20
1469.9498291015625
 42
-0
  0
VERTEX
  8
0
 10
4681.06884765625
 20
1462.9498291015625
 42
-0
  0
VERTEX
  8
0
 10
4681.06884765625
 20
1439.9498291015625
 42
-0
  0
VERTEX
  8
0
 10
4905.06884765625
 20
1419.949951171875
 42
-0
  0
VERTEX
  8
0
 10
4905.06884765625
 20
1462.949951171875
 42
-0
  0
SEQEND
  0
POLYLINE
  8
0
 10
0
 20
0
 39
0
 70
1
 66
1
  0
VERTEX
  8
0
 10
4987.6943359375
 20
1374.8116455078125
 42
-0
  0
VERTEX
  8
0
 10
5197.6943359375
 20
1374.8116455078125
 42
-0
  0
VERTEX
  8
0
 10
5204.6943359375
 20
1381.8116455078125
 42
-0
  0
VERTEX
  8
0
 10
5204.6943359375
 20
1404.8116455078125
 42
-0
  0
VERTEX
  8
0
 10
4980.6943359375
 20
1424.8116455078125
 42
-0
  0
VERTEX
  8
0
 10
4980.6943359375
 20
1381.8116455078125
 42
-0
  0
SEQEND
  0
POLYLINE
  8
0
 10
0
 20
0
 39
0
 70
1
 66
1
  0
VERTEX
  8
0
 10
5174.88671875
 20
1469.949951171875
 42
-0
  0
VERTEX
  8
0
 10
4964.88671875
 20
1469.9498291015625
 42
-0
  0
VERTEX
  8
0
 10
4957.88671875
 20
1462.9498291015625
 42
-0
  0
VERTEX
  8
0
 10
4957.88671875
 20
1439.9498291015625
 42
-0
  0
VERTEX
  8
0
 10
5181.88671875
 20
1419.949951171875
 42
-0
  0
VERTEX
  8
0
 10
5181.88671875
 20
1462.949951171875
 42
-0
  0
SEQEND
  0
POLYLINE
  8
0
 10
0
 20
0
 39
0
 70
1
 66
1
  0
VERTEX
  8
0
 10
3697.87646484375
 20
32.279830932617187
 42
-0
  0
VERTEX
  8
0
 10
3907.87646484375
 20
32.279872894287109
 42
-0
  0
VERTEX
  8
0
 10
3914.87646484375
 20
39.279872894287109
 42
-0
  0
VERTEX
  8
0
 10
3914.87646484375
 20
62.279876708984375
 42
-0
  0
VERTEX
  8
0
 10
3690.87646484375
 20
82.279830932617188
 42
-0
  0
VERTEX
  8
0
 10
3690.87646484375
 20
39.279830932617188
 42
-0
  0
SEQEND
  0
POLYLINE
  8
0
 10
0
 20
0
 39
0
 70
1
 66
1
  0
VERTEX
  8
0
 10
3885.068359375
 20
127.41813659667969
 42
-0
  0
VERTEX
  8
0
 10
3675.068359375
 20
127.41801452636719
 42
-0
  0
VERTEX
  8
0
 10
3668.068359375
 20
120.41800689697266
 42
-0
  0
VERTEX
  8
0
 10
3668.068359375
 20
97.418006896972656
 42
-0
  0
VERTEX
  8
0
 10
3892.068359375
 20
77.418136596679688
 42
-0
  0
VERTEX
  8
0
 10
3892.068359375
 20
120.41813659667969
 42
-0
  0
SEQEND
  0
POLYLINE
  8
0
 10
0
 20
0
 39
0
 70
1
 66
1
  0
VERTEX
  8
0
 10
3603.984619140625
 20
1345.30322265625
 42
-0
  0
VERTEX
  8
0
 10
3813.984619140625
 20
1345.30322265625
 42
-0
  0
VERTEX
  8
0
 10
3820.984619140625
 20
1352.30322265625
 42
-0
  0
VERTEX
  8
0
 10
3820.984619140625
 20
1375.30322265625
 42
-0
  0
VERTEX
  8
0
 10
3596.984619140625
 20
1395.30322265625
 42
-0
  0
VERTEX
  8
0
 10
3596.984619140625
 20
1352.30322265625
 42
-0
  0
SEQEND
  0
POLYLINE
  8
0
 10
0
 20
0
 39
0
 70
1
 66
1
  0
VERTEX
  8
0
 10
3791.176513671875
 20
1440.4415283203125
 42
-0
  0
VERTEX
  8
0
 10
3581.176513671875
 20
1440.44140625
 42
-0
  0
VERTEX
  8
0
 10
3574.176513671875
 20
1433.44140625
 42
-0
  0
VERTEX
  8
0
 10
3574.176513671875
 20
1410.44140625
 42
-0
  0
VERTEX
  8
0
 10
3798.176513671875
 20
1390.4415283203125
 42
-0
  0
VERTEX
  8
0
 10
3798.176513671875
 20
1433.4415283203125
 42
-0
  0
SEQEND
  0
POLYLINE
  8
0
 10
0
 20
0
 39
0
 70
1
 66
1
  0
VERTEX
  8
0
 10
4529.26513671875
 20
912.0804443359375
 42
-0
  0
VERTEX
  8
0
 10
4739.26513671875
 20
912.08050537109375
 42
-0
  0
VERTEX
  8
0
 10
4746.26513671875
 20
919.08050537109375
 42
-0
  0
VERTEX
  8
0
 10
4746.26513671875
 20
942.08050537109375
 42
-0
  0
VERTEX
  8
0
 10
4522.26513671875
 20
962.0804443359375
 42
-0
  0
VERTEX
  8
0
 10
4522.26513671875
 20
919.0804443359375
 42
-0
  0
SEQEND
  0
POLYLINE
  8
0
 10
0
 20
0
 39
0
 70
1
 66
1
  0
VERTEX
  8
0
 10
4716.45751953125
 20
1007.21875
 42
-0
  0
VERTEX
  8
0
 10
4506.45751953125
 20
1007.2186279296875
 42
-0
  0
VERTEX
  8
0
 10
4499.45751953125
 20
1000.2186279296875
 42
-0
  0
VERTEX
  8
0
 10
4499.45751953125
 20
977.2186279296875
 42
-0
  0
VERTEX
  8
0
 10
4723.45751953125
 20
957.21875
 42
-0
  0
VERTEX
  8
0
 10
4723.45751953125
 20
1000.21875
 42
-0
  0
SEQEND
  0
POLYLINE
  8
0
 10
0
 20
0
 39
0
 70
1
 66
1
  0
VERTEX
  8
0
 10
5757.04443359375
 20
1356.1201171875
 42
-0
  0
VERTEX
  8
0
 10
5967.04443359375
 20
1356.1201171875
 42
-0
  0
VERTEX
  8
0
 10
5974.04443359375
 20
1363.1201171875
 42
-0
  0
VERTEX
  8
0
 10
5974.04443359375
 20
1386.1201171875
 42
-0
  0
VERTEX
  8
0
 10
5750.04443359375
 20
1406.1201171875
 42
-0
  0
VERTEX
  8
0
 10
5750.04443359375
 20
1363.1201171875
 42
-0
  0
SEQEND
  0
POLYLINE
  8
0
 10
0
 20
0
 39
0
 70
1
 66
1
  0
VERTEX
  8
0
 10
5944.236328125
 20
1451.2584228515625
 42
-0
  0
VERTEX
  8
0
 10
5734.236328125
 20
1451.25830078125
 42
-0
  0
VERTEX
  8
0
 10
5727.236328125
 20
1444.25830078125
 42
-0
  0
VERTEX
  8
0
 10
5727.236328125
 20
1421.25830078125
 42
-0
  0
VERTEX
  8
0
 10
5951.236328125
 20
1401.2584228515625
 42
-0
  0
VERTEX
  8
0
 10
5951.236328125
 20
1444.2584228515625
 42
-0
  0
SEQEND
  0
POLYLINE
  8
0
 10
0
 20
0
 39
0
 70
1
 66
1
  0
VERTEX
  8
0
 10
4529.26513671875
 20
428.1416015625
 42
-0
  0
VERTEX
  8
0
 10
4739.26513671875
 20
428.14163208007812
 42
-0
  0
VERTEX
  8
0
 10
4746.26513671875
 20
435.14163208007812
 42
-0
  0
VERTEX
  8
0
 10
4746.26513671875
 20
458.14163208007812
 42
-0
  0
VERTEX
  8
0
 10
4522.26513671875
 20
478.1416015625
 42
-0
  0
VERTEX
  8
0
 10
4522.26513671875
 20
435.1416015625
 42
-0
  0
SEQEND
  0
POLYLINE
  8
0
 10
0
 20
0
 39
0
 70
1
 66
1
  0
VERTEX
  8
0
 10
4716.45703125
 20
523.2799072265625
 42
-0
  0
VERTEX
  8
0
 10
4506.45703125
 20
523.27978515625
 42
-0
  0
VERTEX
  8
0
 10
4499.45703125
 20
516.27978515625
 42
-0
  0
VERTEX
  8
0
 10
4499.45703125
 20
493.27978515625
 42
-0
  0
VERTEX
  8
0
 10
4723.45703125
 20
473.2799072265625
 42
-0
  0
VERTEX
  8
0
 10
4723.45703125
 20
516.2799072265625
 42
-0
  0
SEQEND
  0
POLYLINE
  8
0
 10
0
 20
0
 39
0
 70
1
 66
1
  0
VERTEX
  8
0
 10
4806.65185546875
 20
22.592178344726563
 42
-0
  0
VERTEX
  8
0
 10
5016.65185546875
 20
22.592220306396484
 42
-0
  0
VERTEX
  8
0
 10
5023.65185546875
 20
29.592220306396484
 42
-0
  0
VERTEX
  8
0
 10
5023.65185546875
 20
52.59222412109375
 42
-0
  0
VERTEX
  8
0
 10
4799.65185546875
 20
72.592178344726562
 42
-0
  0
VERTEX
  8
0
 10
4799.65185546875
 20
29.592178344726563
 42
-0
  0
SEQEND
  0
POLYLINE
  8
0
 10
0
 20
0
 39
0
 70
1
 66
1
  0
VERTEX
  8
0
 10
4993.84375
 20
117.73048400878906
 42
-0
  0
VERTEX
  8
0
 10
4783.84375
 20
117.73036193847656
 42
-0
  0
VERTEX
  8
0
 10
4776.84375
 20
110.73035430908203
 42
-0
  0
VERTEX
  8
0
 10
4776.84375
 20
87.730354309082031
 42
-0
  0
VERTEX
  8
0
 10
5000.84375
 20
67.730484008789063
 42
-0
  0
VERTEX
  8
0
 10
5000.84375
 20
110.73048400878906
 42
-0
  0
SEQEND
  0
POLYLINE
  8
0
 10
0
 20
0
 39
0
 70
1
 66
1
  0
VERTEX
  8
0
 10
4801.0830078125
 20
428.1416015625
 42
-0
  0
VERTEX
  8
0
 10
5011.0830078125
 20
428.14163208007812
 42
-0
  0
VERTEX
  8
0
 10
5018.0830078125
 20
435.14163208007812
 42
-0
  0
VERTEX
  8
0
 10
5018.0830078125
 20
458.14163208007812
 42
-0
  0
VERTEX
  8
0
 10
4794.0830078125
 20
478.1416015625
 42
-0
  0
VERTEX
  8
0
 10
4794.0830078125
 20
435.1416015625
 42
-0
  0
SEQEND
  0
POLYLINE
  8
0
 10
0
 20
0
 39
0
 70
1
 66
1
  0
VERTEX
  8
0
 10
4988.27490234375
 20
523.2799072265625
 42
-0
  0
VERTEX
  8
0
 10
4778.27490234375
 20
523.27978515625
 42
-0
  0
VERTEX
  8
0
 10
4771.27490234375
 20
516.27978515625
 42
-0
  0
VERTEX
  8
0
 10
4771.27490234375
 20
493.27978515625
 42
-0
  0
VERTEX
  8
0
 10
4995.27490234375
 20
473.2799072265625
 42
-0
  0
VERTEX
  8
0
 10
4995.27490234375
 20
516.2799072265625
 42
-0
  0
SEQEND
  0
POLYLINE
  8
0
 10
0
 20
0
 39
0
 70
1
 66
1
  0
VERTEX
  8
0
 10
4801.08251953125
 20
912.0804443359375
 42
-0
  0
VERTEX
  8
0
 10
5011.08251953125
 20
912.08050537109375
 42
-0
  0
VERTEX
  8
0
 10
5018.08251953125
 20
919.08050537109375
 42
-0
  0
VERTEX
  8
0
 10
5018.08251953125
 20
942.08050537109375
 42
-0
  0
VERTEX
  8
0
 10
4794.08251953125
 20
962.0804443359375
 42
-0
  0
VERTEX
  8
0
 10
4794.08251953125
 20
919.0804443359375
 42
-0
  0
SEQEND
  0
POLYLINE
  8
0
 10
0
 20
0
 39
0
 70
1
 66
1
  0
VERTEX
  8
0
 10
4988.27490234375
 20
1007.21875
 42
-0
  0
VERTEX
  8
0
 10
4778.27490234375
 20
1007.2186279296875
 42
-0
  0
VERTEX
  8
0
 10
4771.27490234375
 20
1000.2186279296875
 42
-0
  0
VERTEX
  8
0
 10
4771.27490234375
 20
977.2186279296875
 42
-0
  0
VERTEX
  8
0
 10
4995.27490234375
 20
957.21875
 42
-0
  0
VERTEX
  8
0
 10
4995.27490234375
 20
1000.21875
 42
-0
  0
SEQEND
  0
POLYLINE
  8
0
 10
0
 20
0
 39
0
 70
1
 66
1
  0
VERTEX
  8
0
 10
5197.9501953125
 20
496.06011962890625
 42
-0
  0
VERTEX
  8
0
 10
5267.9501953125
 20
496.0601806640625
 42
-0
  0
VERTEX
  8
0
 10
5267.9501953125
 20
472.0601806640625
 42
-0
  0
VERTEX
  8
0
 10
5525.9501953125
 20
472.06036376953125
 42
-0
  0
VERTEX
  8
0
 10
5525.9501953125
 20
496.06036376953125
 42
-0
  0
VERTEX
  8
0
 10
5595.9501953125
 20
496.0604248046875
 42
-0
  0
VERTEX
  8
0
 10
5625.24853515625
 20
512.9759521484375
 42
-0.46952301263809204
  0
VERTEX
  8
0
 10
5978.0947265625
 20
622.06072998046875
 42
-0
  0
VERTEX
  8
0
 10
5986.9501953125
 20
622.06072998046875
 42
-0
  0
VERTEX
  8
0
 10
5986.9501953125
 20
753.5621337890625
 42
0.33945399522781372
  0
VERTEX
  8
0
 10
5949.890625
 20
801.8583984375
 42
-0
  0
VERTEX
  8
0
 10
5519.94970703125
 20
917.06036376953125
 42
-0
  0
VERTEX
  8
0
 10
5519.9501953125
 20
821.06036376953125
 42
-1
  0
VERTEX
  8
0
 10
5273.94970703125
 20
821.0601806640625
 42
-0
  0
VERTEX
  8
0
 10
5273.94970703125
 20
917.0601806640625
 42
-0
  0
VERTEX
  8
0
 10
4844.0087890625
 20
801.8575439453125
 42
0.33945399522781372
  0
VERTEX
  8
0
 10
4806.9501953125
 20
753.5611572265625
 42
-0
  0
VERTEX
  8
0
 10
4806.9501953125
 20
622.059814453125
 42
-0
  0
VERTEX
  8
0
 10
4815.80517578125
 20
622.059814453125
 42
-0.46952301263809204
  0
VERTEX
  8
0
 10
5168.6513671875
 20
512.9755859375
 42
-0
  0
SEQEND
  0
ENDSEC
  0
EOF
