  0
SECTION
  2
ENTITIES
  0
POLYLINE
  8
0
 10
0
 20
0
 39
0
 70
1
 66
1
  0
VERTEX
  8
0
 10
0
 20
0
 42
0
  0
VERTEX
  8
0
 10
2000
 20
0
 42
0
  0
VERTEX
  8
0
 10
2000
 20
900
 42
0
  0
VERTEX
  8
0
 10
0
 20
900
 42
0
  0
SEQEND
  0
POLYLINE
  8
0
 10
0
 20
0
 39
0
 70
1
 66
1
  0
VERTEX
  8
0
 10
10.399999618530273
 20
10.399999618530273
 42
0
  0
VERTEX
  8
0
 10
250.39999389648437
 20
10.399999618530273
 42
0
  0
VERTEX
  8
0
 10
250.39999389648437
 20
310.39999389648437
 42
0
  0
VERTEX
  8
0
 10
10.399999618530273
 20
310.39999389648437
 42
0
  0
SEQEND
  0
POLYLINE
  8
0
 10
0
 20
0
 39
0
 70
1
 66
1
  0
VERTEX
  8
0
 10
10.399999618530273
 20
320.60000610351562
 42
0
  0
VERTEX
  8
0
 10
250.39999389648437
 20
320.60000610351562
 42
0
  0
VERTEX
  8
0
 10
250.39999389648437
 20
620.5999755859375
 42
0
  0
VERTEX
  8
0
 10
10.399999618530273
 20
620.5999755859375
 42
0
  0
SEQEND
  0
POLYLINE
  8
0
 10
0
 20
0
 39
0
 70
1
 66
1
  0
VERTEX
  8
0
 10
310.39999389648437
 20
630.79998779296875
 42
0
  0
VERTEX
  8
0
 10
310.39999389648437
 20
870.79998779296875
 42
0
  0
VERTEX
  8
0
 10
10.399999618530273
 20
870.79998779296875
 42
0
  0
VERTEX
  8
0
 10
10.399999618530273
 20
630.79998779296875
 42
0
  0
SEQEND
  0
POLYLINE
  8
0
 10
0
 20
0
 39
0
 70
1
 66
1
  0
VERTEX
  8
0
 10
260.79998779296875
 20
10.399999618530273
 42
0
  0
VERTEX
  8
0
 10
500.79998779296875
 20
10.399999618530273
 42
0
  0
VERTEX
  8
0
 10
500.79998779296875
 20
310.39999389648437
 42
0
  0
VERTEX
  8
0
 10
260.79998779296875
 20
310.39999389648437
 42
0
  0
SEQEND
  0
POLYLINE
  8
0
 10
0
 20
0
 39
0
 70
1
 66
1
  0
VERTEX
  8
0
 10
260.79998779296875
 20
320.60000610351562
 42
0
  0
VERTEX
  8
0
 10
500.79998779296875
 20
320.60000610351562
 42
0
  0
VERTEX
  8
0
 10
500.79998779296875
 20
620.5999755859375
 42
0
  0
VERTEX
  8
0
 10
260.79998779296875
 20
620.5999755859375
 42
0
  0
SEQEND
  0
POLYLINE
  8
0
 10
0
 20
0
 39
0
 70
1
 66
1
  0
VERTEX
  8
0
 10
620.79998779296875
 20
748.79998779296875
 42
-0
  0
VERTEX
  8
0
 10
320.79998779296875
 20
670.79998779296875
 42
0
  0
VERTEX
  8
0
 10
320.79998779296875
 20
630.79998779296875
 42
0
  0
VERTEX
  8
0
 10
620.79998779296875
 20
630.79998779296875
 42
0
  0
SEQEND
  0
POLYLINE
  8
0
 10
0
 20
0
 39
0
 70
1
 66
1
  0
VERTEX
  8
0
 10
320.79998779296875
 20
681.5780029296875
 42
-0
  0
VERTEX
  8
0
 10
620.79998779296875
 20
759.5780029296875
 42
0
  0
VERTEX
  8
0
 10
620.79998779296875
 20
799.5780029296875
 42
0
  0
VERTEX
  8
0
 10
320.79998779296875
 20
799.5780029296875
 42
0
  0
SEQEND
  0
POLYLINE
  8
0
 10
0
 20
0
 39
0
 70
1
 66
1
  0
VERTEX
  8
0
 10
629.20001220703125
 20
10.399999618530273
 42
-0
  0
VERTEX
  8
0
 10
551.20001220703125
 20
310.39999389648437
 42
0
  0
VERTEX
  8
0
 10
511.20001220703125
 20
310.39999389648437
 42
0
  0
VERTEX
  8
0
 10
511.20001220703125
 20
10.399999618530273
 42
0
  0
SEQEND
  0
POLYLINE
  8
0
 10
0
 20
0
 39
0
 70
1
 66
1
  0
VERTEX
  8
0
 10
561.97802734375
 20
310.39999389648437
 42
-0
  0
VERTEX
  8
0
 10
639.97802734375
 20
10.399999618530273
 42
0
  0
VERTEX
  8
0
 10
679.97802734375
 20
10.399999618530273
 42
0
  0
VERTEX
  8
0
 10
679.97802734375
 20
310.39999389648437
 42
0
  0
SEQEND
  0
POLYLINE
  8
0
 10
0
 20
0
 39
0
 70
1
 66
1
  0
VERTEX
  8
0
 10
629.20001220703125
 20
320.60000610351562
 42
-0
  0
VERTEX
  8
0
 10
551.20001220703125
 20
620.5999755859375
 42
0
  0
VERTEX
  8
0
 10
511.20001220703125
 20
620.5999755859375
 42
0
  0
VERTEX
  8
0
 10
511.20001220703125
 20
320.60000610351562
 42
0
  0
SEQEND
  0
POLYLINE
  8
0
 10
0
 20
0
 39
0
 70
1
 66
1
  0
VERTEX
  8
0
 10
561.97802734375
 20
620.5999755859375
 42
-0
  0
VERTEX
  8
0
 10
639.97802734375
 20
320.60000610351562
 42
0
  0
VERTEX
  8
0
 10
679.97802734375
 20
320.60000610351562
 42
0
  0
VERTEX
  8
0
 10
679.97802734375
 20
620.5999755859375
 42
0
  0
SEQEND
  0
POLYLINE
  8
0
 10
0
 20
0
 39
0
 70
1
 66
1
  0
VERTEX
  8
0
 10
808.4000244140625
 20
10.399999618530273
 42
-0
  0
VERTEX
  8
0
 10
730.4000244140625
 20
310.39999389648437
 42
0
  0
VERTEX
  8
0
 10
690.4000244140625
 20
310.39999389648437
 42
0
  0
VERTEX
  8
0
 10
690.4000244140625
 20
10.399999618530273
 42
0
  0
SEQEND
  0
POLYLINE
  8
0
 10
0
 20
0
 39
0
 70
1
 66
1
  0
VERTEX
  8
0
 10
741.177978515625
 20
310.39999389648437
 42
-0
  0
VERTEX
  8
0
 10
819.177978515625
 20
10.399999618530273
 42
0
  0
VERTEX
  8
0
 10
859.177978515625
 20
10.399999618530273
 42
0
  0
VERTEX
  8
0
 10
859.177978515625
 20
310.39999389648437
 42
0
  0
SEQEND
  0
POLYLINE
  8
0
 10
0
 20
0
 39
0
 70
1
 66
1
  0
VERTEX
  8
0
 10
808.4000244140625
 20
320.60000610351562
 42
-0
  0
VERTEX
  8
0
 10
730.4000244140625
 20
620.5999755859375
 42
0
  0
VERTEX
  8
0
 10
690.4000244140625
 20
620.5999755859375
 42
0
  0
VERTEX
  8
0
 10
690.4000244140625
 20
320.60000610351562
 42
0
  0
SEQEND
  0
POLYLINE
  8
0
 10
0
 20
0
 39
0
 70
1
 66
1
  0
VERTEX
  8
0
 10
741.177978515625
 20
620.5999755859375
 42
-0
  0
VERTEX
  8
0
 10
819.177978515625
 20
320.60000610351562
 42
0
  0
VERTEX
  8
0
 10
859.177978515625
 20
320.60000610351562
 42
0
  0
VERTEX
  8
0
 10
859.177978515625
 20
620.5999755859375
 42
0
  0
SEQEND
  0
POLYLINE
  8
0
 10
0
 20
0
 39
0
 70
1
 66
1
  0
VERTEX
  8
0
 10
931.20001220703125
 20
748.79998779296875
 42
-0
  0
VERTEX
  8
0
 10
631.20001220703125
 20
670.79998779296875
 42
0
  0
VERTEX
  8
0
 10
631.20001220703125
 20
630.79998779296875
 42
0
  0
VERTEX
  8
0
 10
931.20001220703125
 20
630.79998779296875
 42
0
  0
SEQEND
  0
POLYLINE
  8
0
 10
0
 20
0
 39
0
 70
1
 66
1
  0
VERTEX
  8
0
 10
631.20001220703125
 20
681.5780029296875
 42
-0
  0
VERTEX
  8
0
 10
931.20001220703125
 20
759.5780029296875
 42
0
  0
VERTEX
  8
0
 10
931.20001220703125
 20
799.5780029296875
 42
0
  0
VERTEX
  8
0
 10
631.20001220703125
 20
799.5780029296875
 42
0
  0
SEQEND
  0
POLYLINE
  8
0
 10
0
 20
0
 39
0
 70
1
 66
1
  0
VERTEX
  8
0
 10
987.5999755859375
 20
10.399999618530273
 42
-0
  0
VERTEX
  8
0
 10
909.5999755859375
 20
310.39999389648437
 42
0
  0
VERTEX
  8
0
 10
869.5999755859375
 20
310.39999389648437
 42
0
  0
VERTEX
  8
0
 10
869.5999755859375
 20
10.399999618530273
 42
0
  0
SEQEND
  0
POLYLINE
  8
0
 10
0
 20
0
 39
0
 70
1
 66
1
  0
VERTEX
  8
0
 10
920.37799072265625
 20
310.39999389648437
 42
-0
  0
VERTEX
  8
0
 10
998.37799072265625
 20
10.399999618530273
 42
0
  0
VERTEX
  8
0
 10
1038.3780517578125
 20
10.399999618530273
 42
0
  0
VERTEX
  8
0
 10
1038.3780517578125
 20
310.39999389648437
 42
0
  0
SEQEND
  0
POLYLINE
  8
0
 10
0
 20
0
 39
0
 70
1
 66
1
  0
VERTEX
  8
0
 10
987.5999755859375
 20
320.60000610351562
 42
-0
  0
VERTEX
  8
0
 10
909.5999755859375
 20
620.5999755859375
 42
0
  0
VERTEX
  8
0
 10
869.5999755859375
 20
620.5999755859375
 42
0
  0
VERTEX
  8
0
 10
869.5999755859375
 20
320.60000610351562
 42
0
  0
SEQEND
  0
POLYLINE
  8
0
 10
0
 20
0
 39
0
 70
1
 66
1
  0
VERTEX
  8
0
 10
920.37799072265625
 20
620.5999755859375
 42
-0
  0
VERTEX
  8
0
 10
998.37799072265625
 20
320.60000610351562
 42
0
  0
VERTEX
  8
0
 10
1038.3780517578125
 20
320.60000610351562
 42
0
  0
VERTEX
  8
0
 10
1038.3780517578125
 20
620.5999755859375
 42
0
  0
SEQEND
  0
POLYLINE
  8
0
 10
0
 20
0
 39
0
 70
1
 66
1
  0
VERTEX
  8
0
 10
1166.800048828125
 20
10.399999618530273
 42
-0
  0
VERTEX
  8
0
 10
1088.800048828125
 20
310.39999389648437
 42
0
  0
VERTEX
  8
0
 10
1048.800048828125
 20
310.39999389648437
 42
0
  0
VERTEX
  8
0
 10
1048.800048828125
 20
10.399999618530273
 42
0
  0
SEQEND
  0
POLYLINE
  8
0
 10
0
 20
0
 39
0
 70
1
 66
1
  0
VERTEX
  8
0
 10
1099.5780029296875
 20
310.39999389648437
 42
-0
  0
VERTEX
  8
0
 10
1177.5780029296875
 20
10.399999618530273
 42
0
  0
VERTEX
  8
0
 10
1217.5780029296875
 20
10.399999618530273
 42
0
  0
VERTEX
  8
0
 10
1217.5780029296875
 20
310.39999389648437
 42
0
  0
SEQEND
  0
POLYLINE
  8
0
 10
0
 20
0
 39
0
 70
1
 66
1
  0
VERTEX
  8
0
 10
1128.800048828125
 20
320.60000610351562
 42
-0
  0
VERTEX
  8
0
 10
1048.800048828125
 20
620.5999755859375
 42
0
  0
VERTEX
  8
0
 10
1048.800048828125
 20
320.60000610351562
 42
0
  0
SEQEND
  0
POLYLINE
  8
0
 10
0
 20
0
 39
0
 70
1
 66
1
  0
VERTEX
  8
0
 10
1059.4949951171875
 20
620.5999755859375
 42
-0
  0
VERTEX
  8
0
 10
1139.4949951171875
 20
320.60000610351562
 42
0
  0
VERTEX
  8
0
 10
1139.4949951171875
 20
620.5999755859375
 42
0
  0
SEQEND
  0
POLYLINE
  8
0
 10
0
 20
0
 39
0
 70
1
 66
1
  0
VERTEX
  8
0
 10
1229.800048828125
 20
320.60000610351562
 42
-0
  0
VERTEX
  8
0
 10
1149.800048828125
 20
620.5999755859375
 42
0
  0
VERTEX
  8
0
 10
1149.800048828125
 20
320.60000610351562
 42
0
  0
SEQEND
  0
POLYLINE
  8
0
 10
0
 20
0
 39
0
 70
1
 66
1
  0
VERTEX
  8
0
 10
1160.4949951171875
 20
620.5999755859375
 42
-0
  0
VERTEX
  8
0
 10
1240.4949951171875
 20
320.60000610351562
 42
0
  0
VERTEX
  8
0
 10
1240.4949951171875
 20
620.5999755859375
 42
0
  0
SEQEND
  0
POLYLINE
  8
0
 10
0
 20
0
 39
0
 70
1
 66
1
  0
VERTEX
  8
0
 10
1241.5999755859375
 20
710.79998779296875
 42
-0
  0
VERTEX
  8
0
 10
941.5999755859375
 20
630.79998779296875
 42
0
  0
VERTEX
  8
0
 10
1241.5999755859375
 20
630.79998779296875
 42
0
  0
SEQEND
  0
POLYLINE
  8
0
 10
0
 20
0
 39
0
 70
1
 66
1
  0
VERTEX
  8
0
 10
941.5999755859375
 20
641.4949951171875
 42
-0
  0
VERTEX
  8
0
 10
1241.5999755859375
 20
721.4949951171875
 42
0
  0
VERTEX
  8
0
 10
941.5999755859375
 20
721.4949951171875
 42
0
  0
SEQEND
  0
POLYLINE
  8
0
 10
0
 20
0
 39
0
 70
1
 66
1
  0
VERTEX
  8
0
 10
1241.5999755859375
 20
811.5999755859375
 42
-0
  0
VERTEX
  8
0
 10
941.5999755859375
 20
731.5999755859375
 42
0
  0
VERTEX
  8
0
 10
1241.5999755859375
 20
731.5999755859375
 42
0
  0
SEQEND
  0
POLYLINE
  8
0
 10
0
 20
0
 39
0
 70
1
 66
1
  0
VERTEX
  8
0
 10
941.5999755859375
 20
742.29498291015625
 42
-0
  0
VERTEX
  8
0
 10
1241.5999755859375
 20
822.29498291015625
 42
0
  0
VERTEX
  8
0
 10
941.5999755859375
 20
822.29498291015625
 42
0
  0
SEQEND
  0
POLYLINE
  8
0
 10
0
 20
0
 39
0
 70
1
 66
1
  0
VERTEX
  8
0
 10
1308
 20
10.399999618530273
 42
-0
  0
VERTEX
  8
0
 10
1228
 20
310.39999389648437
 42
0
  0
VERTEX
  8
0
 10
1228
 20
10.399999618530273
 42
0
  0
SEQEND
  0
POLYLINE
  8
0
 10
0
 20
0
 39
0
 70
1
 66
1
  0
VERTEX
  8
0
 10
1238.6949462890625
 20
310.39999389648437
 42
-0
  0
VERTEX
  8
0
 10
1318.6949462890625
 20
10.399999618530273
 42
0
  0
VERTEX
  8
0
 10
1318.6949462890625
 20
310.39999389648437
 42
0
  0
SEQEND
  0
POLYLINE
  8
0
 10
0
 20
0
 39
0
 70
1
 66
1
  0
VERTEX
  8
0
 10
1330.800048828125
 20
320.60000610351562
 42
-0
  0
VERTEX
  8
0
 10
1250.800048828125
 20
620.5999755859375
 42
0
  0
VERTEX
  8
0
 10
1250.800048828125
 20
320.60000610351562
 42
0
  0
SEQEND
  0
POLYLINE
  8
0
 10
0
 20
0
 39
0
 70
1
 66
1
  0
VERTEX
  8
0
 10
1261.4949951171875
 20
620.5999755859375
 42
-0
  0
VERTEX
  8
0
 10
1341.4949951171875
 20
320.60000610351562
 42
0
  0
VERTEX
  8
0
 10
1341.4949951171875
 20
620.5999755859375
 42
0
  0
SEQEND
  0
POLYLINE
  8
0
 10
0
 20
0
 39
0
 70
1
 66
1
  0
VERTEX
  8
0
 10
1352
 20
780.79998779296875
 42
0
  0
VERTEX
  8
0
 10
1252
 20
780.79998779296875
 42
0
  0
VERTEX
  8
0
 10
1252
 20
630.79998779296875
 42
0
  0
VERTEX
  8
0
 10
1267
 20
630.79998779296875
 42
0
  0
VERTEX
  8
0
 10
1352
 20
765.79998779296875
 42
0
  0
SEQEND
  0
POLYLINE
  8
0
 10
0
 20
0
 39
0
 70
1
 66
1
  0
VERTEX
  8
0
 10
1288.4320068359375
 20
630.79998779296875
 42
0
  0
VERTEX
  8
0
 10
1388.4320068359375
 20
630.79998779296875
 42
0
  0
VERTEX
  8
0
 10
1388.4320068359375
 20
780.79998779296875
 42
0
  0
VERTEX
  8
0
 10
1373.4320068359375
 20
780.79998779296875
 42
0
  0
VERTEX
  8
0
 10
1288.4320068359375
 20
645.79998779296875
 42
0
  0
SEQEND
  0
POLYLINE
  8
0
 10
0
 20
0
 39
0
 70
1
 66
1
  0
VERTEX
  8
0
 10
1429
 20
160.39999389648437
 42
0
  0
VERTEX
  8
0
 10
1329
 20
160.39999389648437
 42
0
  0
VERTEX
  8
0
 10
1329
 20
10.399999618530273
 42
0
  0
VERTEX
  8
0
 10
1344
 20
10.399999618530273
 42
0
  0
VERTEX
  8
0
 10
1429
 20
145.39999389648437
 42
0
  0
SEQEND
  0
POLYLINE
  8
0
 10
0
 20
0
 39
0
 70
1
 66
1
  0
VERTEX
  8
0
 10
1365.4320068359375
 20
10.399999618530273
 42
0
  0
VERTEX
  8
0
 10
1465.4320068359375
 20
10.399999618530273
 42
0
  0
VERTEX
  8
0
 10
1465.4320068359375
 20
160.39999389648437
 42
0
  0
VERTEX
  8
0
 10
1450.4320068359375
 20
160.39999389648437
 42
0
  0
VERTEX
  8
0
 10
1365.4320068359375
 20
25.399999618530273
 42
0
  0
SEQEND
  0
POLYLINE
  8
0
 10
0
 20
0
 39
0
 70
1
 66
1
  0
VERTEX
  8
0
 10
1479
 20
207.03199768066406
 42
0
  0
VERTEX
  8
0
 10
1479
 20
307.03201293945313
 42
0
  0
VERTEX
  8
0
 10
1329
 20
307.03201293945313
 42
0
  0
VERTEX
  8
0
 10
1329
 20
292.03201293945312
 42
0
  0
VERTEX
  8
0
 10
1464
 20
207.03199768066406
 42
0
  0
SEQEND
  0
POLYLINE
  8
0
 10
0
 20
0
 39
0
 70
1
 66
1
  0
VERTEX
  8
0
 10
1329
 20
270.60000610351562
 42
0
  0
VERTEX
  8
0
 10
1329
 20
170.60000610351562
 42
0
  0
VERTEX
  8
0
 10
1479
 20
170.60000610351562
 42
0
  0
VERTEX
  8
0
 10
1479
 20
185.60000610351562
 42
0
  0
VERTEX
  8
0
 10
1344
 20
270.60000610351562
 42
0
  0
SEQEND
  0
POLYLINE
  8
0
 10
0
 20
0
 39
0
 70
1
 66
1
  0
VERTEX
  8
0
 10
1451.800048828125
 20
467.20001220703125
 42
0
  0
VERTEX
  8
0
 10
1351.800048828125
 20
467.20001220703125
 42
0
  0
VERTEX
  8
0
 10
1351.800048828125
 20
317.20001220703125
 42
0
  0
VERTEX
  8
0
 10
1366.800048828125
 20
317.20001220703125
 42
0
  0
VERTEX
  8
0
 10
1451.800048828125
 20
452.20001220703125
 42
0
  0
SEQEND
  0
POLYLINE
  8
0
 10
0
 20
0
 39
0
 70
1
 66
1
  0
VERTEX
  8
0
 10
1388.2320556640625
 20
317.20001220703125
 42
0
  0
VERTEX
  8
0
 10
1488.2320556640625
 20
317.20001220703125
 42
0
  0
VERTEX
  8
0
 10
1488.2320556640625
 20
467.20001220703125
 42
0
  0
VERTEX
  8
0
 10
1473.2320556640625
 20
467.20001220703125
 42
0
  0
VERTEX
  8
0
 10
1388.2320556640625
 20
332.20001220703125
 42
0
  0
SEQEND
  0
POLYLINE
  8
0
 10
0
 20
0
 39
0
 70
1
 66
1
  0
VERTEX
  8
0
 10
1501.800048828125
 20
513.83197021484375
 42
0
  0
VERTEX
  8
0
 10
1501.800048828125
 20
613.83197021484375
 42
0
  0
VERTEX
  8
0
 10
1351.800048828125
 20
613.83197021484375
 42
0
  0
VERTEX
  8
0
 10
1351.800048828125
 20
598.83197021484375
 42
0
  0
VERTEX
  8
0
 10
1486.800048828125
 20
513.83197021484375
 42
0
  0
SEQEND
  0
POLYLINE
  8
0
 10
0
 20
0
 39
0
 70
1
 66
1
  0
VERTEX
  8
0
 10
1351.800048828125
 20
577.4000244140625
 42
0
  0
VERTEX
  8
0
 10
1351.800048828125
 20
477.39999389648437
 42
0
  0
VERTEX
  8
0
 10
1501.800048828125
 20
477.39999389648437
 42
0
  0
VERTEX
  8
0
 10
1501.800048828125
 20
492.39999389648437
 42
0
  0
VERTEX
  8
0
 10
1366.800048828125
 20
577.4000244140625
 42
0
  0
SEQEND
  0
POLYLINE
  8
0
 10
0
 20
0
 39
0
 70
1
 66
1
  0
VERTEX
  8
0
 10
1498.800048828125
 20
774
 42
0
  0
VERTEX
  8
0
 10
1398.800048828125
 20
774
 42
0
  0
VERTEX
  8
0
 10
1398.800048828125
 20
624
 42
0
  0
VERTEX
  8
0
 10
1413.800048828125
 20
624
 42
0
  0
VERTEX
  8
0
 10
1498.800048828125
 20
759
 42
0
  0
SEQEND
  0
POLYLINE
  8
0
 10
0
 20
0
 39
0
 70
1
 66
1
  0
VERTEX
  8
0
 10
1435.2320556640625
 20
624
 42
0
  0
VERTEX
  8
0
 10
1535.2320556640625
 20
624
 42
0
  0
VERTEX
  8
0
 10
1535.2320556640625
 20
774
 42
0
  0
VERTEX
  8
0
 10
1520.2320556640625
 20
774
 42
0
  0
VERTEX
  8
0
 10
1435.2320556640625
 20
639
 42
0
  0
SEQEND
  0
POLYLINE
  8
0
 10
0
 20
0
 39
0
 70
1
 66
1
  0
VERTEX
  8
0
 10
1575.800048828125
 20
160.39999389648437
 42
0
  0
VERTEX
  8
0
 10
1475.800048828125
 20
160.39999389648437
 42
0
  0
VERTEX
  8
0
 10
1475.800048828125
 20
10.399999618530273
 42
0
  0
VERTEX
  8
0
 10
1490.800048828125
 20
10.399999618530273
 42
0
  0
VERTEX
  8
0
 10
1575.800048828125
 20
145.39999389648437
 42
0
  0
SEQEND
  0
POLYLINE
  8
0
 10
0
 20
0
 39
0
 70
1
 66
1
  0
VERTEX
  8
0
 10
1512.2320556640625
 20
10.399999618530273
 42
0
  0
VERTEX
  8
0
 10
1612.2320556640625
 20
10.399999618530273
 42
0
  0
VERTEX
  8
0
 10
1612.2320556640625
 20
160.39999389648437
 42
0
  0
VERTEX
  8
0
 10
1597.2320556640625
 20
160.39999389648437
 42
0
  0
VERTEX
  8
0
 10
1512.2320556640625
 20
25.399999618530273
 42
0
  0
SEQEND
  0
POLYLINE
  8
0
 10
0
 20
0
 39
0
 70
1
 66
1
  0
VERTEX
  8
0
 10
1598.5999755859375
 20
320.60000610351562
 42
0
  0
VERTEX
  8
0
 10
1498.5999755859375
 20
320.60000610351562
 42
0
  0
VERTEX
  8
0
 10
1498.5999755859375
 20
170.60000610351562
 42
0
  0
VERTEX
  8
0
 10
1513.5999755859375
 20
170.60000610351562
 42
0
  0
VERTEX
  8
0
 10
1598.5999755859375
 20
305.60000610351562
 42
0
  0
SEQEND
  0
POLYLINE
  8
0
 10
0
 20
0
 39
0
 70
1
 66
1
  0
VERTEX
  8
0
 10
1535.031982421875
 20
170.60000610351562
 42
0
  0
VERTEX
  8
0
 10
1635.031982421875
 20
170.60000610351562
 42
0
  0
VERTEX
  8
0
 10
1635.031982421875
 20
320.60000610351562
 42
0
  0
VERTEX
  8
0
 10
1620.031982421875
 20
320.60000610351562
 42
0
  0
VERTEX
  8
0
 10
1535.031982421875
 20
185.60000610351562
 42
0
  0
SEQEND
  0
POLYLINE
  8
0
 10
0
 20
0
 39
0
 70
1
 66
1
  0
VERTEX
  8
0
 10
1612.199951171875
 20
480.79998779296875
 42
0
  0
VERTEX
  8
0
 10
1512.199951171875
 20
480.79998779296875
 42
0
  0
VERTEX
  8
0
 10
1512.199951171875
 20
330.79998779296875
 42
0
  0
VERTEX
  8
0
 10
1527.199951171875
 20
330.79998779296875
 42
0
  0
VERTEX
  8
0
 10
1612.199951171875
 20
465.79998779296875
 42
0
  0
SEQEND
  0
POLYLINE
  8
0
 10
0
 20
0
 39
0
 70
1
 66
1
  0
VERTEX
  8
0
 10
1548.6319580078125
 20
330.79998779296875
 42
0
  0
VERTEX
  8
0
 10
1648.6319580078125
 20
330.79998779296875
 42
0
  0
VERTEX
  8
0
 10
1648.6319580078125
 20
480.79998779296875
 42
0
  0
VERTEX
  8
0
 10
1633.6319580078125
 20
480.79998779296875
 42
0
  0
VERTEX
  8
0
 10
1548.6319580078125
 20
345.79998779296875
 42
0
  0
SEQEND
  0
POLYLINE
  8
0
 10
0
 20
0
 39
0
 70
1
 66
1
  0
VERTEX
  8
0
 10
1645.5999755859375
 20
641
 42
0
  0
VERTEX
  8
0
 10
1545.5999755859375
 20
641
 42
0
  0
VERTEX
  8
0
 10
1545.5999755859375
 20
491
 42
0
  0
VERTEX
  8
0
 10
1560.5999755859375
 20
491
 42
0
  0
VERTEX
  8
0
 10
1645.5999755859375
 20
626
 42
0
  0
SEQEND
  0
POLYLINE
  8
0
 10
0
 20
0
 39
0
 70
1
 66
1
  0
VERTEX
  8
0
 10
1582.031982421875
 20
491
 42
0
  0
VERTEX
  8
0
 10
1682.031982421875
 20
491
 42
0
  0
VERTEX
  8
0
 10
1682.031982421875
 20
641
 42
0
  0
VERTEX
  8
0
 10
1667.031982421875
 20
641
 42
0
  0
VERTEX
  8
0
 10
1582.031982421875
 20
506
 42
0
  0
SEQEND
  0
POLYLINE
  8
0
 10
0
 20
0
 39
0
 70
1
 66
1
  0
VERTEX
  8
0
 10
1645.5999755859375
 20
801.20001220703125
 42
0
  0
VERTEX
  8
0
 10
1545.5999755859375
 20
801.20001220703125
 42
0
  0
VERTEX
  8
0
 10
1545.5999755859375
 20
651.20001220703125
 42
0
  0
VERTEX
  8
0
 10
1560.5999755859375
 20
651.20001220703125
 42
0
  0
VERTEX
  8
0
 10
1645.5999755859375
 20
786.20001220703125
 42
0
  0
SEQEND
  0
POLYLINE
  8
0
 10
0
 20
0
 39
0
 70
1
 66
1
  0
VERTEX
  8
0
 10
1582.031982421875
 20
651.20001220703125
 42
0
  0
VERTEX
  8
0
 10
1682.031982421875
 20
651.20001220703125
 42
0
  0
VERTEX
  8
0
 10
1682.031982421875
 20
801.20001220703125
 42
0
  0
VERTEX
  8
0
 10
1667.031982421875
 20
801.20001220703125
 42
0
  0
VERTEX
  8
0
 10
1582.031982421875
 20
666.20001220703125
 42
0
  0
SEQEND
  0
POLYLINE
  8
0
 10
0
 20
0
 39
0
 70
1
 66
1
  0
VERTEX
  8
0
 10
1722.5999755859375
 20
160.39999389648437
 42
0
  0
VERTEX
  8
0
 10
1622.5999755859375
 20
160.39999389648437
 42
0
  0
VERTEX
  8
0
 10
1622.5999755859375
 20
10.399999618530273
 42
0
  0
VERTEX
  8
0
 10
1637.5999755859375
 20
10.399999618530273
 42
0
  0
VERTEX
  8
0
 10
1722.5999755859375
 20
145.39999389648437
 42
0
  0
SEQEND
  0
POLYLINE
  8
0
 10
0
 20
0
 39
0
 70
1
 66
1
  0
VERTEX
  8
0
 10
1659.031982421875
 20
10.399999618530273
 42
0
  0
VERTEX
  8
0
 10
1759.031982421875
 20
10.399999618530273
 42
0
  0
VERTEX
  8
0
 10
1759.031982421875
 20
160.39999389648437
 42
0
  0
VERTEX
  8
0
 10
1744.031982421875
 20
160.39999389648437
 42
0
  0
VERTEX
  8
0
 10
1659.031982421875
 20
25.399999618530273
 42
0
  0
SEQEND
  0
POLYLINE
  8
0
 10
0
 20
0
 39
0
 70
1
 66
1
  0
VERTEX
  8
0
 10
1745.4000244140625
 20
320.60000610351562
 42
0
  0
VERTEX
  8
0
 10
1645.4000244140625
 20
320.60000610351562
 42
0
  0
VERTEX
  8
0
 10
1645.4000244140625
 20
170.60000610351562
 42
0
  0
VERTEX
  8
0
 10
1660.4000244140625
 20
170.60000610351562
 42
0
  0
VERTEX
  8
0
 10
1745.4000244140625
 20
305.60000610351562
 42
0
  0
SEQEND
  0
POLYLINE
  8
0
 10
0
 20
0
 39
0
 70
1
 66
1
  0
VERTEX
  8
0
 10
1681.83203125
 20
170.60000610351562
 42
0
  0
VERTEX
  8
0
 10
1781.83203125
 20
170.60000610351562
 42
0
  0
VERTEX
  8
0
 10
1781.83203125
 20
320.60000610351562
 42
0
  0
VERTEX
  8
0
 10
1766.83203125
 20
320.60000610351562
 42
0
  0
VERTEX
  8
0
 10
1681.83203125
 20
185.60000610351562
 42
0
  0
SEQEND
  0
POLYLINE
  8
0
 10
0
 20
0
 39
0
 70
1
 66
1
  0
VERTEX
  8
0
 10
1306.1986083984375
 20
864
 42
-0
  0
VERTEX
  8
0
 10
1379.1986083984375
 20
791
 42
0
  0
VERTEX
  8
0
 10
1399.1986083984375
 20
791
 42
0
  0
VERTEX
  8
0
 10
1399.1986083984375
 20
878
 42
-0
  0
VERTEX
  8
0
 10
1393.1986083984375
 20
884
 42
0
  0
VERTEX
  8
0
 10
1306.1986083984375
 20
884
 42
0
  0
SEQEND
  0
POLYLINE
  8
0
 10
0
 20
0
 39
0
 70
1
 66
1
  0
VERTEX
  8
0
 10
1345
 20
811
 42
-0
  0
VERTEX
  8
0
 10
1272
 20
884
 42
0
  0
VERTEX
  8
0
 10
1252
 20
884
 42
0
  0
VERTEX
  8
0
 10
1252
 20
797
 42
-0
  0
VERTEX
  8
0
 10
1258
 20
791
 42
0
  0
VERTEX
  8
0
 10
1345
 20
791
 42
0
  0
SEQEND
  0
POLYLINE
  8
0
 10
0
 20
0
 39
0
 70
1
 66
1
  0
VERTEX
  8
0
 10
1679
 20
384.99859619140625
 42
-0
  0
VERTEX
  8
0
 10
1752
 20
457.99859619140625
 42
0
  0
VERTEX
  8
0
 10
1752
 20
477.99859619140625
 42
0
  0
VERTEX
  8
0
 10
1665
 20
477.99859619140625
 42
-0
  0
VERTEX
  8
0
 10
1659
 20
471.99859619140625
 42
0
  0
VERTEX
  8
0
 10
1659
 20
384.99859619140625
 42
0
  0
SEQEND
  0
POLYLINE
  8
0
 10
0
 20
0
 39
0
 70
1
 66
1
  0
VERTEX
  8
0
 10
1732
 20
423.79998779296875
 42
-0
  0
VERTEX
  8
0
 10
1659
 20
350.79998779296875
 42
0
  0
VERTEX
  8
0
 10
1659
 20
330.79998779296875
 42
0
  0
VERTEX
  8
0
 10
1746
 20
330.79998779296875
 42
-0
  0
VERTEX
  8
0
 10
1752
 20
336.79998779296875
 42
0
  0
VERTEX
  8
0
 10
1752
 20
423.79998779296875
 42
0
  0
SEQEND
  0
POLYLINE
  8
0
 10
0
 20
0
 39
0
 70
1
 66
1
  0
VERTEX
  8
0
 10
1712.4000244140625
 20
542.1986083984375
 42
-0
  0
VERTEX
  8
0
 10
1785.4000244140625
 20
615.1986083984375
 42
0
  0
VERTEX
  8
0
 10
1785.4000244140625
 20
635.1986083984375
 42
0
  0
VERTEX
  8
0
 10
1698.4000244140625
 20
635.1986083984375
 42
-0
  0
VERTEX
  8
0
 10
1692.4000244140625
 20
629.1986083984375
 42
0
  0
VERTEX
  8
0
 10
1692.4000244140625
 20
542.1986083984375
 42
0
  0
SEQEND
  0
POLYLINE
  8
0
 10
0
 20
0
 39
0
 70
1
 66
1
  0
VERTEX
  8
0
 10
1765.4000244140625
 20
581
 42
-0
  0
VERTEX
  8
0
 10
1692.4000244140625
 20
508
 42
0
  0
VERTEX
  8
0
 10
1692.4000244140625
 20
488
 42
0
  0
VERTEX
  8
0
 10
1779.4000244140625
 20
488
 42
-0
  0
VERTEX
  8
0
 10
1785.4000244140625
 20
494
 42
0
  0
VERTEX
  8
0
 10
1785.4000244140625
 20
581
 42
0
  0
SEQEND
  0
POLYLINE
  8
0
 10
0
 20
0
 39
0
 70
1
 66
1
  0
VERTEX
  8
0
 10
1712.4000244140625
 20
699.39862060546875
 42
-0
  0
VERTEX
  8
0
 10
1785.4000244140625
 20
772.39862060546875
 42
0
  0
VERTEX
  8
0
 10
1785.4000244140625
 20
792.39862060546875
 42
0
  0
VERTEX
  8
0
 10
1698.4000244140625
 20
792.39862060546875
 42
-0
  0
VERTEX
  8
0
 10
1692.4000244140625
 20
786.39862060546875
 42
0
  0
VERTEX
  8
0
 10
1692.4000244140625
 20
699.39862060546875
 42
0
  0
SEQEND
  0
POLYLINE
  8
0
 10
0
 20
0
 39
0
 70
1
 66
1
  0
VERTEX
  8
0
 10
1765.4000244140625
 20
738.20001220703125
 42
-0
  0
VERTEX
  8
0
 10
1692.4000244140625
 20
665.20001220703125
 42
0
  0
VERTEX
  8
0
 10
1692.4000244140625
 20
645.20001220703125
 42
0
  0
VERTEX
  8
0
 10
1779.4000244140625
 20
645.20001220703125
 42
-0
  0
VERTEX
  8
0
 10
1785.4000244140625
 20
651.20001220703125
 42
0
  0
VERTEX
  8
0
 10
1785.4000244140625
 20
738.20001220703125
 42
0
  0
SEQEND
  0
POLYLINE
  8
0
 10
0
 20
0
 39
0
 70
1
 66
1
  0
VERTEX
  8
0
 10
1782.4000244140625
 20
384.99859619140625
 42
-0
  0
VERTEX
  8
0
 10
1855.4000244140625
 20
457.99859619140625
 42
0
  0
VERTEX
  8
0
 10
1855.4000244140625
 20
477.99859619140625
 42
0
  0
VERTEX
  8
0
 10
1768.4000244140625
 20
477.99859619140625
 42
-0
  0
VERTEX
  8
0
 10
1762.4000244140625
 20
471.99859619140625
 42
0
  0
VERTEX
  8
0
 10
1762.4000244140625
 20
384.99859619140625
 42
0
  0
SEQEND
  0
POLYLINE
  8
0
 10
0
 20
0
 39
0
 70
1
 66
1
  0
VERTEX
  8
0
 10
1835.4000244140625
 20
423.79998779296875
 42
-0
  0
VERTEX
  8
0
 10
1762.4000244140625
 20
350.79998779296875
 42
0
  0
VERTEX
  8
0
 10
1762.4000244140625
 20
330.79998779296875
 42
0
  0
VERTEX
  8
0
 10
1849.4000244140625
 20
330.79998779296875
 42
-0
  0
VERTEX
  8
0
 10
1855.4000244140625
 20
336.79998779296875
 42
0
  0
VERTEX
  8
0
 10
1855.4000244140625
 20
423.79998779296875
 42
0
  0
SEQEND
  0
POLYLINE
  8
0
 10
0
 20
0
 39
0
 70
1
 66
1
  0
VERTEX
  8
0
 10
1789.4000244140625
 20
64.598602294921875
 42
-0
  0
VERTEX
  8
0
 10
1862.4000244140625
 20
137.59860229492187
 42
0
  0
VERTEX
  8
0
 10
1862.4000244140625
 20
157.59860229492187
 42
0
  0
VERTEX
  8
0
 10
1775.4000244140625
 20
157.59860229492187
 42
-0
  0
VERTEX
  8
0
 10
1769.4000244140625
 20
151.59860229492187
 42
0
  0
VERTEX
  8
0
 10
1769.4000244140625
 20
64.598602294921875
 42
0
  0
SEQEND
  0
POLYLINE
  8
0
 10
0
 20
0
 39
0
 70
1
 66
1
  0
VERTEX
  8
0
 10
1842.4000244140625
 20
103.40000152587891
 42
-0
  0
VERTEX
  8
0
 10
1769.4000244140625
 20
30.399999618530273
 42
0
  0
VERTEX
  8
0
 10
1769.4000244140625
 20
10.399999618530273
 42
0
  0
VERTEX
  8
0
 10
1856.4000244140625
 20
10.399999618530273
 42
-0
  0
VERTEX
  8
0
 10
1862.4000244140625
 20
16.399999618530273
 42
0
  0
VERTEX
  8
0
 10
1862.4000244140625
 20
103.40000152587891
 42
0
  0
SEQEND
  0
POLYLINE
  8
0
 10
0
 20
0
 39
0
 70
1
 66
1
  0
VERTEX
  8
0
 10
1812.199951171875
 20
221.79859924316406
 42
-0
  0
VERTEX
  8
0
 10
1885.199951171875
 20
294.79861450195313
 42
0
  0
VERTEX
  8
0
 10
1885.199951171875
 20
314.79861450195313
 42
0
  0
VERTEX
  8
0
 10
1798.199951171875
 20
314.79861450195313
 42
-0
  0
VERTEX
  8
0
 10
1792.199951171875
 20
308.79861450195313
 42
0
  0
VERTEX
  8
0
 10
1792.199951171875
 20
221.79859924316406
 42
0
  0
SEQEND
  0
POLYLINE
  8
0
 10
0
 20
0
 39
0
 70
1
 66
1
  0
VERTEX
  8
0
 10
1865.199951171875
 20
260.60000610351562
 42
-0
  0
VERTEX
  8
0
 10
1792.199951171875
 20
187.60000610351562
 42
0
  0
VERTEX
  8
0
 10
1792.199951171875
 20
167.60000610351562
 42
0
  0
VERTEX
  8
0
 10
1879.199951171875
 20
167.60000610351562
 42
-0
  0
VERTEX
  8
0
 10
1885.199951171875
 20
173.60000610351562
 42
0
  0
VERTEX
  8
0
 10
1885.199951171875
 20
260.60000610351562
 42
0
  0
SEQEND
  0
POLYLINE
  8
0
 10
0
 20
0
 39
0
 70
1
 66
1
  0
VERTEX
  8
0
 10
1815
 20
796.798583984375
 42
-0
  0
VERTEX
  8
0
 10
1888
 20
869.798583984375
 42
0
  0
VERTEX
  8
0
 10
1888
 20
889.798583984375
 42
0
  0
VERTEX
  8
0
 10
1801
 20
889.798583984375
 42
-0
  0
VERTEX
  8
0
 10
1795
 20
883.798583984375
 42
0
  0
VERTEX
  8
0
 10
1795
 20
796.798583984375
 42
0
  0
SEQEND
  0
POLYLINE
  8
0
 10
0
 20
0
 39
0
 70
1
 66
1
  0
VERTEX
  8
0
 10
1868
 20
835.5999755859375
 42
-0
  0
VERTEX
  8
0
 10
1795
 20
762.5999755859375
 42
0
  0
VERTEX
  8
0
 10
1795
 20
742.5999755859375
 42
0
  0
VERTEX
  8
0
 10
1882
 20
742.5999755859375
 42
-0
  0
VERTEX
  8
0
 10
1888
 20
748.5999755859375
 42
0
  0
VERTEX
  8
0
 10
1888
 20
835.5999755859375
 42
0
  0
SEQEND
  0
POLYLINE
  8
0
 10
0
 20
0
 39
0
 70
1
 66
1
  0
VERTEX
  8
0
 10
1815.800048828125
 20
542.1986083984375
 42
-0
  0
VERTEX
  8
0
 10
1888.800048828125
 20
615.1986083984375
 42
0
  0
VERTEX
  8
0
 10
1888.800048828125
 20
635.1986083984375
 42
0
  0
VERTEX
  8
0
 10
1801.800048828125
 20
635.1986083984375
 42
-0
  0
VERTEX
  8
0
 10
1795.800048828125
 20
629.1986083984375
 42
0
  0
VERTEX
  8
0
 10
1795.800048828125
 20
542.1986083984375
 42
0
  0
SEQEND
  0
POLYLINE
  8
0
 10
0
 20
0
 39
0
 70
1
 66
1
  0
VERTEX
  8
0
 10
1868.800048828125
 20
581
 42
-0
  0
VERTEX
  8
0
 10
1795.800048828125
 20
508
 42
0
  0
VERTEX
  8
0
 10
1795.800048828125
 20
488
 42
0
  0
VERTEX
  8
0
 10
1882.800048828125
 20
488
 42
-0
  0
VERTEX
  8
0
 10
1888.800048828125
 20
494
 42
0
  0
VERTEX
  8
0
 10
1888.800048828125
 20
581
 42
0
  0
SEQEND
  0
POLYLINE
  8
0
 10
0
 20
0
 39
0
 70
1
 66
1
  0
VERTEX
  8
0
 10
1885.800048828125
 20
378.99859619140625
 42
-0
  0
VERTEX
  8
0
 10
1958.800048828125
 20
451.99859619140625
 42
0
  0
VERTEX
  8
0
 10
1958.800048828125
 20
471.99859619140625
 42
0
  0
VERTEX
  8
0
 10
1871.800048828125
 20
471.99859619140625
 42
-0
  0
VERTEX
  8
0
 10
1865.800048828125
 20
465.99859619140625
 42
0
  0
VERTEX
  8
0
 10
1865.800048828125
 20
378.99859619140625
 42
0
  0
SEQEND
  0
POLYLINE
  8
0
 10
0
 20
0
 39
0
 70
1
 66
1
  0
VERTEX
  8
0
 10
1938.800048828125
 20
417.79998779296875
 42
-0
  0
VERTEX
  8
0
 10
1865.800048828125
 20
344.79998779296875
 42
0
  0
VERTEX
  8
0
 10
1865.800048828125
 20
324.79998779296875
 42
0
  0
VERTEX
  8
0
 10
1952.800048828125
 20
324.79998779296875
 42
-0
  0
VERTEX
  8
0
 10
1958.800048828125
 20
330.79998779296875
 42
0
  0
VERTEX
  8
0
 10
1958.800048828125
 20
417.79998779296875
 42
0
  0
SEQEND
  0
POLYLINE
  8
0
 10
0
 20
0
 39
0
 70
1
 66
1
  0
VERTEX
  8
0
 10
1892.800048828125
 20
64.598602294921875
 42
-0
  0
VERTEX
  8
0
 10
1965.800048828125
 20
137.59860229492187
 42
0
  0
VERTEX
  8
0
 10
1965.800048828125
 20
157.59860229492187
 42
0
  0
VERTEX
  8
0
 10
1878.800048828125
 20
157.59860229492187
 42
-0
  0
VERTEX
  8
0
 10
1872.800048828125
 20
151.59860229492187
 42
0
  0
VERTEX
  8
0
 10
1872.800048828125
 20
64.598602294921875
 42
0
  0
SEQEND
  0
POLYLINE
  8
0
 10
0
 20
0
 39
0
 70
1
 66
1
  0
VERTEX
  8
0
 10
1945.800048828125
 20
103.40000152587891
 42
-0
  0
VERTEX
  8
0
 10
1872.800048828125
 20
30.399999618530273
 42
0
  0
VERTEX
  8
0
 10
1872.800048828125
 20
10.399999618530273
 42
0
  0
VERTEX
  8
0
 10
1959.800048828125
 20
10.399999618530273
 42
-0
  0
VERTEX
  8
0
 10
1965.800048828125
 20
16.399999618530273
 42
0
  0
VERTEX
  8
0
 10
1965.800048828125
 20
103.40000152587891
 42
0
  0
SEQEND
  0
POLYLINE
  8
0
 10
0
 20
0
 39
0
 70
1
 66
1
  0
VERTEX
  8
0
 10
1915.5999755859375
 20
221.79859924316406
 42
-0
  0
VERTEX
  8
0
 10
1988.5999755859375
 20
294.79861450195313
 42
0
  0
VERTEX
  8
0
 10
1988.5999755859375
 20
314.79861450195313
 42
0
  0
VERTEX
  8
0
 10
1901.5999755859375
 20
314.79861450195313
 42
-0
  0
VERTEX
  8
0
 10
1895.5999755859375
 20
308.79861450195313
 42
0
  0
VERTEX
  8
0
 10
1895.5999755859375
 20
221.79859924316406
 42
0
  0
SEQEND
  0
POLYLINE
  8
0
 10
0
 20
0
 39
0
 70
1
 66
1
  0
VERTEX
  8
0
 10
1968.5999755859375
 20
260.60000610351562
 42
-0
  0
VERTEX
  8
0
 10
1895.5999755859375
 20
187.60000610351562
 42
0
  0
VERTEX
  8
0
 10
1895.5999755859375
 20
167.60000610351562
 42
0
  0
VERTEX
  8
0
 10
1982.5999755859375
 20
167.60000610351562
 42
-0
  0
VERTEX
  8
0
 10
1988.5999755859375
 20
173.60000610351562
 42
0
  0
VERTEX
  8
0
 10
1988.5999755859375
 20
260.60000610351562
 42
0
  0
SEQEND
  0
POLYLINE
  8
0
 10
0
 20
0
 39
0
 70
1
 66
1
  0
VERTEX
  8
0
 10
320.79998779296875
 20
809.5999755859375
 42
0
  0
VERTEX
  8
0
 10
492.79998779296875
 20
809.5999755859375
 42
0
  0
VERTEX
  8
0
 10
492.79998779296875
 20
865.5999755859375
 42
0
  0
VERTEX
  8
0
 10
478.79998779296875
 20
879.5999755859375
 42
0
  0
VERTEX
  8
0
 10
334.79998779296875
 20
879.5999755859375
 42
0
  0
VERTEX
  8
0
 10
320.79998779296875
 20
865.5999755859375
 42
0
  0
SEQEND
  0
POLYLINE
  8
0
 10
0
 20
0
 39
0
 70
1
 66
1
  0
VERTEX
  8
0
 10
503.20001220703125
 20
809.5999755859375
 42
0
  0
VERTEX
  8
0
 10
675.20001220703125
 20
809.5999755859375
 42
0
  0
VERTEX
  8
0
 10
675.20001220703125
 20
865.5999755859375
 42
0
  0
VERTEX
  8
0
 10
661.20001220703125
 20
879.5999755859375
 42
0
  0
VERTEX
  8
0
 10
517.20001220703125
 20
879.5999755859375
 42
0
  0
VERTEX
  8
0
 10
503.20001220703125
 20
865.5999755859375
 42
0
  0
SEQEND
  0
POLYLINE
  8
0
 10
0
 20
0
 39
0
 70
1
 66
1
  0
VERTEX
  8
0
 10
685.5999755859375
 20
809.5999755859375
 42
0
  0
VERTEX
  8
0
 10
857.5999755859375
 20
809.5999755859375
 42
0
  0
VERTEX
  8
0
 10
857.5999755859375
 20
865.5999755859375
 42
0
  0
VERTEX
  8
0
 10
843.5999755859375
 20
879.5999755859375
 42
0
  0
VERTEX
  8
0
 10
699.5999755859375
 20
879.5999755859375
 42
0
  0
VERTEX
  8
0
 10
685.5999755859375
 20
865.5999755859375
 42
0
  0
SEQEND
  0
POLYLINE
  8
0
 10
0
 20
0
 39
0
 70
1
 66
1
  0
VERTEX
  8
0
 10
1409.4000244140625
 20
811.4000244140625
 42
0
  0
VERTEX
  8
0
 10
1581.4000244140625
 20
811.4000244140625
 42
0
  0
VERTEX
  8
0
 10
1581.4000244140625
 20
867.4000244140625
 42
0
  0
VERTEX
  8
0
 10
1567.4000244140625
 20
881.4000244140625
 42
0
  0
VERTEX
  8
0
 10
1423.4000244140625
 20
881.4000244140625
 42
0
  0
VERTEX
  8
0
 10
1409.4000244140625
 20
867.4000244140625
 42
0
  0
SEQEND
  0
POLYLINE
  8
0
 10
0
 20
0
 39
0
 70
1
 66
1
  0
VERTEX
  8
0
 10
1591.800048828125
 20
811.4000244140625
 42
0
  0
VERTEX
  8
0
 10
1763.800048828125
 20
811.4000244140625
 42
0
  0
VERTEX
  8
0
 10
1763.800048828125
 20
867.4000244140625
 42
0
  0
VERTEX
  8
0
 10
1749.800048828125
 20
881.4000244140625
 42
0
  0
VERTEX
  8
0
 10
1605.800048828125
 20
881.4000244140625
 42
0
  0
VERTEX
  8
0
 10
1591.800048828125
 20
867.4000244140625
 42
0
  0
SEQEND
  0
POLYLINE
  8
0
 10
0
 20
0
 39
0
 70
1
 66
1
  0
VERTEX
  8
0
 10
1795.800048828125
 20
645.20001220703125
 42
0
  0
VERTEX
  8
0
 10
1967.800048828125
 20
645.20001220703125
 42
0
  0
VERTEX
  8
0
 10
1967.800048828125
 20
701.20001220703125
 42
0
  0
VERTEX
  8
0
 10
1953.800048828125
 20
715.20001220703125
 42
0
  0
VERTEX
  8
0
 10
1809.800048828125
 20
715.20001220703125
 42
0
  0
VERTEX
  8
0
 10
1795.800048828125
 20
701.20001220703125
 42
0
  0
SEQEND
  0
POLYLINE
  8
0
 10
0
 20
0
 39
0
 70
1
 66
1
  0
VERTEX
  8
0
 10
1898.4000244140625
 20
725.4000244140625
 42
-0
  0
VERTEX
  8
0
 10
1978.4000244140625
 20
725.4000244140625
 42
-0
  0
VERTEX
  8
0
 10
1978.4000244140625
 20
870.4000244140625
 42
-0
  0
VERTEX
  8
0
 10
1898.4000244140625
 20
870.4000244140625
 42
0
  0
SEQEND
  0
POLYLINE
  8
0
 10
0
 20
0
 39
0
 70
1
 66
1
  0
VERTEX
  8
0
 10
1899.199951171875
 20
482
 42
-0
  0
VERTEX
  8
0
 10
1979.199951171875
 20
482
 42
-0
  0
VERTEX
  8
0
 10
1979.199951171875
 20
627
 42
-0
  0
VERTEX
  8
0
 10
1899.199951171875
 20
627
 42
0
  0
SEQEND
  0
POLYLINE
  8
0
 10
0
 20
0
 39
0
 70
1
 66
1
  0
VERTEX
  8
0
 10
1043
 20
832.4000244140625
 42
-0
  0
VERTEX
  8
0
 10
1043
 20
882.4000244140625
 42
-0
  0
VERTEX
  8
0
 10
868
 20
882.4000244140625
 42
-0
  0
VERTEX
  8
0
 10
868
 20
832.4000244140625
 42
0
  0
SEQEND
  0
POLYLINE
  8
0
 10
0
 20
0
 39
0
 70
1
 66
1
  0
VERTEX
  8
0
 10
1228.4000244140625
 20
832.4000244140625
 42
-0
  0
VERTEX
  8
0
 10
1228.4000244140625
 20
882.4000244140625
 42
-0
  0
VERTEX
  8
0
 10
1053.4000244140625
 20
882.4000244140625
 42
-0
  0
VERTEX
  8
0
 10
1053.4000244140625
 20
832.4000244140625
 42
0
  0
SEQEND
  0
ENDSEC
  0
EOF
