  0
SECTION
  2
ENTITIES
  0
POLYLINE
  8
0
 10
0
 20
0
 39
0
 70
1
 66
1
  0
VERTEX
  8
0
 10
0
 20
0
 42
0
  0
VERTEX
  8
0
 10
2900
 20
0
 42
0
  0
VERTEX
  8
0
 10
2900
 20
1100
 42
0
  0
VERTEX
  8
0
 10
0
 20
1100
 42
0
  0
SEQEND
  0
POLYLINE
  8
0
 10
0
 20
0
 39
0
 70
1
 66
1
  0
VERTEX
  8
0
 10
227.19850158691406
 20
10.220000267028809
 42
-0.54098159074783325
  0
VERTEX
  8
0
 10
227.19850158691406
 20
290.33261108398437
 42
0
  0
VERTEX
  8
0
 10
75.663291931152344
 20
290.33258056640625
 42
0.46726423501968384
  0
VERTEX
  8
0
 10
75.663307189941406
 20
10.220000267028809
 42
0
  0
SEQEND
  0
POLYLINE
  8
0
 10
0
 20
0
 39
0
 70
1
 66
1
  0
VERTEX
  8
0
 10
227.19850158691406
 20
300.413330078125
 42
-0.54098159074783325
  0
VERTEX
  8
0
 10
227.19850158691406
 20
580.52593994140625
 42
0
  0
VERTEX
  8
0
 10
75.663291931152344
 20
580.52593994140625
 42
0.46726423501968384
  0
VERTEX
  8
0
 10
75.663307189941406
 20
300.413330078125
 42
0
  0
SEQEND
  0
POLYLINE
  8
0
 10
0
 20
0
 39
0
 70
1
 66
1
  0
VERTEX
  8
0
 10
227.19850158691406
 20
590.606689453125
 42
-0.54098159074783325
  0
VERTEX
  8
0
 10
227.19850158691406
 20
870.71929931640625
 42
0
  0
VERTEX
  8
0
 10
75.663291931152344
 20
870.71923828125
 42
0.46726423501968384
  0
VERTEX
  8
0
 10
75.663307189941406
 20
590.606689453125
 42
0
  0
SEQEND
  0
POLYLINE
  8
0
 10
0
 20
0
 39
0
 70
1
 66
1
  0
VERTEX
  8
0
 10
10.220000267028809
 20
825.70001220703125
 42
-0.54098159074783325
  0
VERTEX
  8
0
 10
290.33261108398437
 20
825.70001220703125
 42
0
  0
VERTEX
  8
0
 10
290.33258056640625
 20
977.2352294921875
 42
0.46726423501968384
  0
VERTEX
  8
0
 10
10.220000267028809
 20
977.2352294921875
 42
0
  0
SEQEND
  0
POLYLINE
  8
0
 10
0
 20
0
 39
0
 70
1
 66
1
  0
VERTEX
  8
0
 10
162.17999267578125
 20
433.2059326171875
 42
-0.54098159074783325
  0
VERTEX
  8
0
 10
162.17999267578125
 20
153.09333801269531
 42
0
  0
VERTEX
  8
0
 10
313.7152099609375
 20
153.09335327148437
 42
0.46726423501968384
  0
VERTEX
  8
0
 10
313.7152099609375
 20
433.2059326171875
 42
0
  0
SEQEND
  0
POLYLINE
  8
0
 10
0
 20
0
 39
0
 70
1
 66
1
  0
VERTEX
  8
0
 10
162.17999267578125
 20
723.3992919921875
 42
-0.54098159074783325
  0
VERTEX
  8
0
 10
162.17999267578125
 20
443.28665161132812
 42
0
  0
VERTEX
  8
0
 10
313.7152099609375
 20
443.28668212890625
 42
0.46726423501968384
  0
VERTEX
  8
0
 10
313.7152099609375
 20
723.3992919921875
 42
0
  0
SEQEND
  0
POLYLINE
  8
0
 10
0
 20
0
 39
0
 70
1
 66
1
  0
VERTEX
  8
0
 10
244.73333740234375
 20
1041.4326171875
 42
-0.54098159074783325
  0
VERTEX
  8
0
 10
244.73333740234375
 20
761.32000732421875
 42
0
  0
VERTEX
  8
0
 10
396.2685546875
 20
761.32000732421875
 42
0.46726423501968384
  0
VERTEX
  8
0
 10
396.26852416992187
 20
1041.4326171875
 42
0
  0
SEQEND
  0
POLYLINE
  8
0
 10
0
 20
0
 39
0
 70
1
 66
1
  0
VERTEX
  8
0
 10
329.60665893554687
 20
433.01260375976562
 42
-0.54098159074783325
  0
VERTEX
  8
0
 10
329.60665893554687
 20
152.89999389648437
 42
0
  0
VERTEX
  8
0
 10
481.14187622070312
 20
152.90000915527344
 42
0.46726423501968384
  0
VERTEX
  8
0
 10
481.14187622070312
 20
433.01260375976562
 42
0
  0
SEQEND
  0
POLYLINE
  8
0
 10
0
 20
0
 39
0
 70
1
 66
1
  0
VERTEX
  8
0
 10
329.60665893554687
 20
723.2059326171875
 42
-0.54098159074783325
  0
VERTEX
  8
0
 10
329.60665893554687
 20
443.09332275390625
 42
0
  0
VERTEX
  8
0
 10
481.14187622070312
 20
443.09335327148437
 42
0.46726423501968384
  0
VERTEX
  8
0
 10
481.14187622070312
 20
723.2059326171875
 42
0
  0
SEQEND
  0
POLYLINE
  8
0
 10
0
 20
0
 39
0
 70
1
 66
1
  0
VERTEX
  8
0
 10
412.16000366210937
 20
1041.2392578125
 42
-0.54098159074783325
  0
VERTEX
  8
0
 10
412.16000366210937
 20
761.12664794921875
 42
0
  0
VERTEX
  8
0
 10
563.6951904296875
 20
761.126708984375
 42
0.46726423501968384
  0
VERTEX
  8
0
 10
563.6951904296875
 20
1041.2392578125
 42
0
  0
SEQEND
  0
POLYLINE
  8
0
 10
0
 20
0
 39
0
 70
1
 66
1
  0
VERTEX
  8
0
 10
497.0333251953125
 20
432.81927490234375
 42
-0.54098159074783325
  0
VERTEX
  8
0
 10
497.0333251953125
 20
152.7066650390625
 42
0
  0
VERTEX
  8
0
 10
648.56854248046875
 20
152.70668029785156
 42
0.46726423501968384
  0
VERTEX
  8
0
 10
648.56854248046875
 20
432.81927490234375
 42
0
  0
SEQEND
  0
POLYLINE
  8
0
 10
0
 20
0
 39
0
 70
1
 66
1
  0
VERTEX
  8
0
 10
497.0333251953125
 20
723.01263427734375
 42
-0.54098159074783325
  0
VERTEX
  8
0
 10
497.0333251953125
 20
442.89999389648437
 42
0
  0
VERTEX
  8
0
 10
648.56854248046875
 20
442.9000244140625
 42
0.46726423501968384
  0
VERTEX
  8
0
 10
648.56854248046875
 20
723.01263427734375
 42
0
  0
SEQEND
  0
POLYLINE
  8
0
 10
0
 20
0
 39
0
 70
1
 66
1
  0
VERTEX
  8
0
 10
639.52001953125
 20
733.09332275390625
 42
0
  0
VERTEX
  8
0
 10
793.09722900390625
 20
733.09332275390625
 42
-0
  0
VERTEX
  8
0
 10
747.34228515625
 20
856.54974365234375
 42
-0.18685302138328552
  0
VERTEX
  8
0
 10
639.52001953125
 20
965.0018310546875
 42
0
  0
SEQEND
  0
POLYLINE
  8
0
 10
0
 20
0
 39
0
 70
1
 66
1
  0
VERTEX
  8
0
 10
793.09722900390625
 20
1037.15966796875
 42
0
  0
VERTEX
  8
0
 10
639.52001953125
 20
1037.15966796875
 42
-0
  0
VERTEX
  8
0
 10
685.27496337890625
 20
913.7032470703125
 42
-0.18685302138328552
  0
VERTEX
  8
0
 10
793.09722900390625
 20
805.25115966796875
 42
0
  0
SEQEND
  0
POLYLINE
  8
0
 10
0
 20
0
 39
0
 70
1
 66
1
  0
VERTEX
  8
0
 10
721.106689453125
 20
24.526666641235352
 42
0
  0
VERTEX
  8
0
 10
874.68389892578125
 20
24.526666641235352
 42
-0
  0
VERTEX
  8
0
 10
828.928955078125
 20
147.98309326171875
 42
-0.18685302138328552
  0
VERTEX
  8
0
 10
721.106689453125
 20
256.4351806640625
 42
0
  0
SEQEND
  0
POLYLINE
  8
0
 10
0
 20
0
 39
0
 70
1
 66
1
  0
VERTEX
  8
0
 10
874.68389892578125
 20
328.593017578125
 42
0
  0
VERTEX
  8
0
 10
721.106689453125
 20
328.593017578125
 42
-0
  0
VERTEX
  8
0
 10
766.86163330078125
 20
205.13661193847656
 42
-0.18685302138328552
  0
VERTEX
  8
0
 10
874.68389892578125
 20
96.684516906738281
 42
0
  0
SEQEND
  0
POLYLINE
  8
0
 10
0
 20
0
 39
0
 70
1
 66
1
  0
VERTEX
  8
0
 10
724.00665283203125
 20
338.69332885742187
 42
0
  0
VERTEX
  8
0
 10
877.58392333984375
 20
338.69332885742187
 42
-0
  0
VERTEX
  8
0
 10
831.8289794921875
 20
462.14974975585937
 42
-0.18685302138328552
  0
VERTEX
  8
0
 10
724.00665283203125
 20
570.60186767578125
 42
0
  0
SEQEND
  0
POLYLINE
  8
0
 10
0
 20
0
 39
0
 70
1
 66
1
  0
VERTEX
  8
0
 10
877.58392333984375
 20
642.75970458984375
 42
0
  0
VERTEX
  8
0
 10
724.00665283203125
 20
642.75970458984375
 42
-0
  0
VERTEX
  8
0
 10
769.7615966796875
 20
519.30328369140625
 42
-0.18685302138328552
  0
VERTEX
  8
0
 10
877.58392333984375
 20
410.8511962890625
 42
0
  0
SEQEND
  0
POLYLINE
  8
0
 10
0
 20
0
 39
0
 70
1
 66
1
  0
VERTEX
  8
0
 10
803.4666748046875
 20
652.8599853515625
 42
0
  0
VERTEX
  8
0
 10
957.0439453125
 20
652.8599853515625
 42
-0
  0
VERTEX
  8
0
 10
911.28900146484375
 20
776.31640625
 42
-0.18685302138328552
  0
VERTEX
  8
0
 10
803.4666748046875
 20
884.76849365234375
 42
0
  0
SEQEND
  0
POLYLINE
  8
0
 10
0
 20
0
 39
0
 70
1
 66
1
  0
VERTEX
  8
0
 10
957.0439453125
 20
956.92633056640625
 42
0
  0
VERTEX
  8
0
 10
803.4666748046875
 20
956.92633056640625
 42
-0
  0
VERTEX
  8
0
 10
849.22161865234375
 20
833.46990966796875
 42
-0.18685302138328552
  0
VERTEX
  8
0
 10
957.0439453125
 20
725.017822265625
 42
0
  0
SEQEND
  0
POLYLINE
  8
0
 10
0
 20
0
 39
0
 70
1
 66
1
  0
VERTEX
  8
0
 10
885.0533447265625
 20
10.220000267028809
 42
0
  0
VERTEX
  8
0
 10
1038.630615234375
 20
10.220000267028809
 42
-0
  0
VERTEX
  8
0
 10
992.87567138671875
 20
133.67642211914063
 42
-0.18685302138328552
  0
VERTEX
  8
0
 10
885.0533447265625
 20
242.12850952148437
 42
0
  0
SEQEND
  0
POLYLINE
  8
0
 10
0
 20
0
 39
0
 70
1
 66
1
  0
VERTEX
  8
0
 10
1038.630615234375
 20
314.28634643554687
 42
0
  0
VERTEX
  8
0
 10
885.0533447265625
 20
314.28634643554687
 42
-0
  0
VERTEX
  8
0
 10
930.80828857421875
 20
190.82994079589844
 42
-0.18685302138328552
  0
VERTEX
  8
0
 10
1038.630615234375
 20
82.377853393554688
 42
0
  0
SEQEND
  0
POLYLINE
  8
0
 10
0
 20
0
 39
0
 70
1
 66
1
  0
VERTEX
  8
0
 10
887.95330810546875
 20
324.38665771484375
 42
0
  0
VERTEX
  8
0
 10
1041.5306396484375
 20
324.38665771484375
 42
-0
  0
VERTEX
  8
0
 10
995.775634765625
 20
447.84307861328125
 42
-0.18685302138328552
  0
VERTEX
  8
0
 10
887.953369140625
 20
556.295166015625
 42
0
  0
SEQEND
  0
POLYLINE
  8
0
 10
0
 20
0
 39
0
 70
1
 66
1
  0
VERTEX
  8
0
 10
1041.5306396484375
 20
628.4530029296875
 42
0
  0
VERTEX
  8
0
 10
887.95330810546875
 20
628.4530029296875
 42
-0
  0
VERTEX
  8
0
 10
933.708251953125
 20
504.99661254882812
 42
-0.18685302138328552
  0
VERTEX
  8
0
 10
1041.5306396484375
 20
396.54452514648437
 42
0
  0
SEQEND
  0
POLYLINE
  8
0
 10
0
 20
0
 39
0
 70
1
 66
1
  0
VERTEX
  8
0
 10
967.413330078125
 20
638.5533447265625
 42
0
  0
VERTEX
  8
0
 10
1120.9906005859375
 20
638.5533447265625
 42
-0
  0
VERTEX
  8
0
 10
1075.235595703125
 20
762.009765625
 42
-0.18685302138328552
  0
VERTEX
  8
0
 10
967.413330078125
 20
870.46185302734375
 42
0
  0
SEQEND
  0
POLYLINE
  8
0
 10
0
 20
0
 39
0
 70
1
 66
1
  0
VERTEX
  8
0
 10
1120.9906005859375
 20
942.61968994140625
 42
0
  0
VERTEX
  8
0
 10
967.413330078125
 20
942.61968994140625
 42
-0
  0
VERTEX
  8
0
 10
1013.1682739257812
 20
819.16326904296875
 42
-0.18685302138328552
  0
VERTEX
  8
0
 10
1120.9906005859375
 20
710.711181640625
 42
0
  0
SEQEND
  0
POLYLINE
  8
0
 10
0
 20
0
 39
0
 70
1
 66
1
  0
VERTEX
  8
0
 10
709.02850341796875
 20
10.220000267028809
 42
0
  0
VERTEX
  8
0
 10
709.02850341796875
 20
163.79725646972656
 42
-0
  0
VERTEX
  8
0
 10
585.57208251953125
 20
118.04231262207031
 42
-0.18685302138328552
  0
VERTEX
  8
0
 10
477.1199951171875
 20
10.220005989074707
 42
0
  0
SEQEND
  0
POLYLINE
  8
0
 10
0
 20
0
 39
0
 70
1
 66
1
  0
VERTEX
  8
0
 10
1052.2315673828125
 20
346.46331787109375
 42
0
  0
VERTEX
  8
0
 10
1052.2315673828125
 20
269.46331787109375
 42
-0
  0
VERTEX
  8
0
 10
1073.5843505859375
 20
269.46331787109375
 42
-0
  0
VERTEX
  8
0
 10
1131.46484375
 20
202.97332763671875
 42
0.18499353528022766
  0
VERTEX
  8
0
 10
1171.8043212890625
 20
321.97720336914063
 42
0
  0
VERTEX
  8
0
 10
1171.8043212890625
 20
442.97720336914062
 42
-0.33678543567657471
  0
VERTEX
  8
0
 10
1052.2315673828125
 20
442.97720336914062
 42
0
  0
VERTEX
  8
0
 10
1052.2315673828125
 20
385.97720336914062
 42
0
  0
VERTEX
  8
0
 10
1033.9200439453125
 20
375.32504272460937
 42
0
  0
SEQEND
  0
POLYLINE
  8
0
 10
0
 20
0
 39
0
 70
1
 66
1
  0
VERTEX
  8
0
 10
1131.6915283203125
 20
557.58331298828125
 42
0
  0
VERTEX
  8
0
 10
1131.6915283203125
 20
480.58331298828125
 42
-0
  0
VERTEX
  8
0
 10
1153.0443115234375
 20
480.58331298828125
 42
-0
  0
VERTEX
  8
0
 10
1210.9248046875
 20
414.09332275390625
 42
0.18499353528022766
  0
VERTEX
  8
0
 10
1251.2642822265625
 20
533.09722900390625
 42
0
  0
VERTEX
  8
0
 10
1251.2642822265625
 20
654.09722900390625
 42
-0.33678543567657471
  0
VERTEX
  8
0
 10
1131.6915283203125
 20
654.09722900390625
 42
0
  0
VERTEX
  8
0
 10
1131.6915283203125
 20
597.09722900390625
 42
0
  0
VERTEX
  8
0
 10
1113.3800048828125
 20
586.44500732421875
 42
0
  0
SEQEND
  0
POLYLINE
  8
0
 10
0
 20
0
 39
0
 70
1
 66
1
  0
VERTEX
  8
0
 10
1131.6915283203125
 20
945.40997314453125
 42
0
  0
VERTEX
  8
0
 10
1131.6915283203125
 20
868.40997314453125
 42
-0
  0
VERTEX
  8
0
 10
1153.0443115234375
 20
868.40997314453125
 42
-0
  0
VERTEX
  8
0
 10
1210.9248046875
 20
801.91998291015625
 42
0.18499353528022766
  0
VERTEX
  8
0
 10
1251.2642822265625
 20
920.92388916015625
 42
0
  0
VERTEX
  8
0
 10
1251.2642822265625
 20
1041.923828125
 42
-0.33678543567657471
  0
VERTEX
  8
0
 10
1131.6915283203125
 20
1041.923828125
 42
0
  0
VERTEX
  8
0
 10
1131.6915283203125
 20
984.92388916015625
 42
0
  0
VERTEX
  8
0
 10
1113.3800048828125
 20
974.271728515625
 42
0
  0
SEQEND
  0
POLYLINE
  8
0
 10
0
 20
0
 39
0
 70
1
 66
1
  0
VERTEX
  8
0
 10
1174.510009765625
 20
140.36647033691406
 42
0
  0
VERTEX
  8
0
 10
1097.510009765625
 20
140.36647033691406
 42
-0
  0
VERTEX
  8
0
 10
1097.510009765625
 20
119.01371765136719
 42
-0
  0
VERTEX
  8
0
 10
1031.02001953125
 20
61.133235931396484
 42
0.18499353528022766
  0
VERTEX
  8
0
 10
1150.02392578125
 20
20.793752670288086
 42
0
  0
VERTEX
  8
0
 10
1271.02392578125
 20
20.793752670288086
 42
-0.33678543567657471
  0
VERTEX
  8
0
 10
1271.02392578125
 20
140.36647033691406
 42
0
  0
VERTEX
  8
0
 10
1214.02392578125
 20
140.36647033691406
 42
0
  0
VERTEX
  8
0
 10
1203.3717041015625
 20
158.67803955078125
 42
0
  0
SEQEND
  0
POLYLINE
  8
0
 10
0
 20
0
 39
0
 70
1
 66
1
  0
VERTEX
  8
0
 10
1301.1397705078125
 20
254.24722290039062
 42
0
  0
VERTEX
  8
0
 10
1301.1397705078125
 20
331.24722290039062
 42
-0
  0
VERTEX
  8
0
 10
1279.787109375
 20
331.24722290039062
 42
-0
  0
VERTEX
  8
0
 10
1221.9066162109375
 20
397.73721313476562
 42
0.18499353528022766
  0
VERTEX
  8
0
 10
1181.567138671875
 20
278.73333740234375
 42
0
  0
VERTEX
  8
0
 10
1181.567138671875
 20
157.73333740234375
 42
-0.33678543567657471
  0
VERTEX
  8
0
 10
1301.1397705078125
 20
157.73333740234375
 42
0
  0
VERTEX
  8
0
 10
1301.1397705078125
 20
214.73333740234375
 42
0
  0
VERTEX
  8
0
 10
1319.451416015625
 20
225.38551330566406
 42
0
  0
SEQEND
  0
POLYLINE
  8
0
 10
0
 20
0
 39
0
 70
1
 66
1
  0
VERTEX
  8
0
 10
1245.7581787109375
 20
741.63665771484375
 42
0
  0
VERTEX
  8
0
 10
1245.7581787109375
 20
664.63665771484375
 42
-0
  0
VERTEX
  8
0
 10
1267.1109619140625
 20
664.63665771484375
 42
-0
  0
VERTEX
  8
0
 10
1324.991455078125
 20
598.14666748046875
 42
0.18499353528022766
  0
VERTEX
  8
0
 10
1365.3309326171875
 20
717.1505126953125
 42
0
  0
VERTEX
  8
0
 10
1365.3309326171875
 20
838.15057373046875
 42
-0.33678543567657471
  0
VERTEX
  8
0
 10
1245.7581787109375
 20
838.1505126953125
 42
0
  0
VERTEX
  8
0
 10
1245.7581787109375
 20
781.1505126953125
 42
0
  0
VERTEX
  8
0
 10
1227.4466552734375
 20
770.49835205078125
 42
0
  0
SEQEND
  0
POLYLINE
  8
0
 10
0
 20
0
 39
0
 70
1
 66
1
  0
VERTEX
  8
0
 10
1269.9249267578125
 20
435.58999633789062
 42
0
  0
VERTEX
  8
0
 10
1269.9249267578125
 20
358.5899658203125
 42
-0
  0
VERTEX
  8
0
 10
1291.2777099609375
 20
358.5899658203125
 42
-0
  0
VERTEX
  8
0
 10
1349.1580810546875
 20
292.10000610351562
 42
0.18499353528022766
  0
VERTEX
  8
0
 10
1389.4976806640625
 20
411.1038818359375
 42
0
  0
VERTEX
  8
0
 10
1389.4976806640625
 20
532.1038818359375
 42
-0.33678543567657471
  0
VERTEX
  8
0
 10
1269.9249267578125
 20
532.1038818359375
 42
0
  0
VERTEX
  8
0
 10
1269.9249267578125
 20
475.1038818359375
 42
0
  0
VERTEX
  8
0
 10
1251.61328125
 20
464.45169067382812
 42
0
  0
SEQEND
  0
POLYLINE
  8
0
 10
0
 20
0
 39
0
 70
1
 66
1
  0
VERTEX
  8
0
 10
1279.784912109375
 20
990.2633056640625
 42
0
  0
VERTEX
  8
0
 10
1279.784912109375
 20
913.2633056640625
 42
-0
  0
VERTEX
  8
0
 10
1301.1376953125
 20
913.2633056640625
 42
-0
  0
VERTEX
  8
0
 10
1359.0181884765625
 20
846.7733154296875
 42
0.18499353528022766
  0
VERTEX
  8
0
 10
1399.357666015625
 20
965.7772216796875
 42
0
  0
VERTEX
  8
0
 10
1399.357666015625
 20
1086.7772216796875
 42
-0.33678543567657471
  0
VERTEX
  8
0
 10
1279.784912109375
 20
1086.7772216796875
 42
0
  0
VERTEX
  8
0
 10
1279.784912109375
 20
1029.7772216796875
 42
0
  0
VERTEX
  8
0
 10
1261.473388671875
 20
1019.1250610351562
 42
0
  0
SEQEND
  0
POLYLINE
  8
0
 10
0
 20
0
 39
0
 70
1
 66
1
  0
VERTEX
  8
0
 10
1430.4798583984375
 20
106.73389434814453
 42
0
  0
VERTEX
  8
0
 10
1430.4798583984375
 20
183.73390197753906
 42
-0
  0
VERTEX
  8
0
 10
1409.1270751953125
 20
183.73390197753906
 42
-0
  0
VERTEX
  8
0
 10
1351.24658203125
 20
250.223876953125
 42
0.18499353528022766
  0
VERTEX
  8
0
 10
1310.9071044921875
 20
131.22000122070312
 42
0
  0
VERTEX
  8
0
 10
1310.9071044921875
 20
10.220000267028809
 42
-0.33678543567657471
  0
VERTEX
  8
0
 10
1430.4798583984375
 20
10.220001220703125
 42
0
  0
VERTEX
  8
0
 10
1430.4798583984375
 20
67.220001220703125
 42
0
  0
VERTEX
  8
0
 10
1448.7913818359375
 20
77.872177124023438
 42
0
  0
SEQEND
  0
POLYLINE
  8
0
 10
0
 20
0
 39
0
 70
1
 66
1
  0
VERTEX
  8
0
 10
1383.7982177734375
 20
619.643310546875
 42
0
  0
VERTEX
  8
0
 10
1383.7982177734375
 20
542.643310546875
 42
-0
  0
VERTEX
  8
0
 10
1405.1510009765625
 20
542.643310546875
 42
-0
  0
VERTEX
  8
0
 10
1463.031494140625
 20
476.1533203125
 42
0.18499353528022766
  0
VERTEX
  8
0
 10
1503.3709716796875
 20
595.1572265625
 42
0
  0
VERTEX
  8
0
 10
1503.3709716796875
 20
716.1572265625
 42
-0.33678543567657471
  0
VERTEX
  8
0
 10
1383.7982177734375
 20
716.1572265625
 42
0
  0
VERTEX
  8
0
 10
1383.7982177734375
 20
659.1572265625
 42
0
  0
VERTEX
  8
0
 10
1365.4866943359375
 20
648.5050048828125
 42
0
  0
SEQEND
  0
POLYLINE
  8
0
 10
0
 20
0
 39
0
 70
1
 66
1
  0
VERTEX
  8
0
 10
1399.264892578125
 20
288.07666015625
 42
0
  0
VERTEX
  8
0
 10
1399.264892578125
 20
211.07664489746094
 42
-0
  0
VERTEX
  8
0
 10
1420.61767578125
 20
211.07664489746094
 42
-0
  0
VERTEX
  8
0
 10
1478.4981689453125
 20
144.586669921875
 42
0.18499353528022766
  0
VERTEX
  8
0
 10
1518.837646484375
 20
263.59054565429687
 42
0
  0
VERTEX
  8
0
 10
1518.837646484375
 20
384.59054565429687
 42
-0.33678543567657471
  0
VERTEX
  8
0
 10
1399.264892578125
 20
384.59054565429687
 42
0
  0
VERTEX
  8
0
 10
1399.264892578125
 20
327.59054565429687
 42
0
  0
VERTEX
  8
0
 10
1380.953369140625
 20
316.9383544921875
 42
0
  0
SEQEND
  0
POLYLINE
  8
0
 10
0
 20
0
 39
0
 70
1
 66
1
  0
VERTEX
  8
0
 10
1513.0330810546875
 20
818.78057861328125
 42
0
  0
VERTEX
  8
0
 10
1513.0330810546875
 20
895.78057861328125
 42
-0
  0
VERTEX
  8
0
 10
1491.680419921875
 20
895.78057861328125
 42
-0
  0
VERTEX
  8
0
 10
1433.7999267578125
 20
962.27056884765625
 42
0.18499353528022766
  0
VERTEX
  8
0
 10
1393.46044921875
 20
843.26666259765625
 42
0
  0
VERTEX
  8
0
 10
1393.46044921875
 20
722.26666259765625
 42
-0.33678543567657471
  0
VERTEX
  8
0
 10
1513.0330810546875
 20
722.26666259765625
 42
0
  0
VERTEX
  8
0
 10
1513.0330810546875
 20
779.26666259765625
 42
0
  0
VERTEX
  8
0
 10
1531.3447265625
 20
789.9188232421875
 42
0
  0
SEQEND
  0
POLYLINE
  8
0
 10
0
 20
0
 39
0
 70
1
 66
1
  0
VERTEX
  8
0
 10
1488.0048828125
 20
992.969970703125
 42
0
  0
VERTEX
  8
0
 10
1488.0048828125
 20
915.969970703125
 42
-0
  0
VERTEX
  8
0
 10
1509.357666015625
 20
915.969970703125
 42
-0
  0
VERTEX
  8
0
 10
1567.2381591796875
 20
849.47998046875
 42
0.18499353528022766
  0
VERTEX
  8
0
 10
1607.57763671875
 20
968.48388671875
 42
0
  0
VERTEX
  8
0
 10
1607.57763671875
 20
1089.48388671875
 42
-0.33678543567657471
  0
VERTEX
  8
0
 10
1488.0048828125
 20
1089.48388671875
 42
0
  0
VERTEX
  8
0
 10
1488.0048828125
 20
1032.48388671875
 42
0
  0
VERTEX
  8
0
 10
1469.693359375
 20
1021.8317260742187
 42
0
  0
SEQEND
  0
POLYLINE
  8
0
 10
0
 20
0
 39
0
 70
1
 66
1
  0
VERTEX
  8
0
 10
1513.13818359375
 20
472.12997436523437
 42
0
  0
VERTEX
  8
0
 10
1513.13818359375
 20
395.12997436523437
 42
-0
  0
VERTEX
  8
0
 10
1534.490966796875
 20
395.12997436523437
 42
-0
  0
VERTEX
  8
0
 10
1592.3714599609375
 20
328.6400146484375
 42
0.18499353528022766
  0
VERTEX
  8
0
 10
1632.7109375
 20
447.64389038085937
 42
0
  0
VERTEX
  8
0
 10
1632.7109375
 20
568.64385986328125
 42
-0.33678543567657471
  0
VERTEX
  8
0
 10
1513.13818359375
 20
568.64385986328125
 42
0
  0
VERTEX
  8
0
 10
1513.13818359375
 20
511.64389038085938
 42
0
  0
VERTEX
  8
0
 10
1494.82666015625
 20
500.99169921875
 42
0
  0
SEQEND
  0
POLYLINE
  8
0
 10
0
 20
0
 39
0
 70
1
 66
1
  0
VERTEX
  8
0
 10
1629.2264404296875
 20
106.73389434814453
 42
0
  0
VERTEX
  8
0
 10
1629.2264404296875
 20
183.73390197753906
 42
-0
  0
VERTEX
  8
0
 10
1607.873779296875
 20
183.73390197753906
 42
-0
  0
VERTEX
  8
0
 10
1549.9932861328125
 20
250.223876953125
 42
0.18499353528022766
  0
VERTEX
  8
0
 10
1509.65380859375
 20
131.22000122070312
 42
0
  0
VERTEX
  8
0
 10
1509.65380859375
 20
10.220000267028809
 42
-0.33678543567657471
  0
VERTEX
  8
0
 10
1629.2264404296875
 20
10.220001220703125
 42
0
  0
VERTEX
  8
0
 10
1629.2264404296875
 20
67.220001220703125
 42
0
  0
VERTEX
  8
0
 10
1647.5380859375
 20
77.872177124023438
 42
0
  0
SEQEND
  0
POLYLINE
  8
0
 10
0
 20
0
 39
0
 70
1
 66
1
  0
VERTEX
  8
0
 10
1642.3731689453125
 20
671.2672119140625
 42
0
  0
VERTEX
  8
0
 10
1642.3731689453125
 20
748.2672119140625
 42
-0
  0
VERTEX
  8
0
 10
1621.0203857421875
 20
748.2672119140625
 42
-0
  0
VERTEX
  8
0
 10
1563.139892578125
 20
814.7572021484375
 42
0.18499353528022766
  0
VERTEX
  8
0
 10
1522.8004150390625
 20
695.75335693359375
 42
0
  0
VERTEX
  8
0
 10
1522.8004150390625
 20
574.75335693359375
 42
-0.33678543567657471
  0
VERTEX
  8
0
 10
1642.3731689453125
 20
574.75335693359375
 42
0
  0
VERTEX
  8
0
 10
1642.3731689453125
 20
631.75335693359375
 42
0
  0
VERTEX
  8
0
 10
1660.6846923828125
 20
642.405517578125
 42
0
  0
SEQEND
  0
POLYLINE
  8
0
 10
0
 20
0
 39
0
 70
1
 66
1
  0
VERTEX
  8
0
 10
1617.3448486328125
 20
845.4566650390625
 42
0
  0
VERTEX
  8
0
 10
1617.3448486328125
 20
768.4566650390625
 42
-0
  0
VERTEX
  8
0
 10
1638.6976318359375
 20
768.4566650390625
 42
-0
  0
VERTEX
  8
0
 10
1696.578125
 20
701.9666748046875
 42
0.18499353528022766
  0
VERTEX
  8
0
 10
1736.9176025390625
 20
820.97052001953125
 42
0
  0
VERTEX
  8
0
 10
1736.9176025390625
 20
941.97052001953125
 42
-0.33678543567657471
  0
VERTEX
  8
0
 10
1617.3448486328125
 20
941.97052001953125
 42
0
  0
VERTEX
  8
0
 10
1617.3448486328125
 20
884.97052001953125
 42
0
  0
VERTEX
  8
0
 10
1599.0333251953125
 20
874.318359375
 42
0
  0
SEQEND
  0
POLYLINE
  8
0
 10
0
 20
0
 39
0
 70
1
 66
1
  0
VERTEX
  8
0
 10
1628.5582275390625
 20
271.44998168945312
 42
0
  0
VERTEX
  8
0
 10
1628.5582275390625
 20
194.44998168945313
 42
-0
  0
VERTEX
  8
0
 10
1649.9110107421875
 20
194.44998168945313
 42
-0
  0
VERTEX
  8
0
 10
1707.79150390625
 20
127.95999908447266
 42
0.18499353528022766
  0
VERTEX
  8
0
 10
1748.1309814453125
 20
246.96388244628906
 42
0
  0
VERTEX
  8
0
 10
1748.1309814453125
 20
367.9638671875
 42
-0.33678543567657471
  0
VERTEX
  8
0
 10
1628.5582275390625
 20
367.9638671875
 42
0
  0
VERTEX
  8
0
 10
1628.5582275390625
 20
310.9638671875
 42
0
  0
VERTEX
  8
0
 10
1610.2467041015625
 20
300.31170654296875
 42
0
  0
SEQEND
  0
POLYLINE
  8
0
 10
0
 20
0
 39
0
 70
1
 66
1
  0
VERTEX
  8
0
 10
1661.2315673828125
 20
518.9166259765625
 42
0
  0
VERTEX
  8
0
 10
1661.2315673828125
 20
441.91665649414062
 42
-0
  0
VERTEX
  8
0
 10
1682.5843505859375
 20
441.91665649414062
 42
-0
  0
VERTEX
  8
0
 10
1740.46484375
 20
375.42666625976562
 42
0.18499353528022766
  0
VERTEX
  8
0
 10
1780.8043212890625
 20
494.4305419921875
 42
0
  0
VERTEX
  8
0
 10
1780.8043212890625
 20
615.4305419921875
 42
-0.33678543567657471
  0
VERTEX
  8
0
 10
1661.2315673828125
 20
615.4305419921875
 42
0
  0
VERTEX
  8
0
 10
1661.2315673828125
 20
558.4305419921875
 42
0
  0
VERTEX
  8
0
 10
1642.9200439453125
 20
547.77838134765625
 42
0
  0
SEQEND
  0
POLYLINE
  8
0
 10
0
 20
0
 39
0
 70
1
 66
1
  0
VERTEX
  8
0
 10
1714.300537109375
 20
952.4715576171875
 42
0
  0
VERTEX
  8
0
 10
1791.300537109375
 20
952.4715576171875
 42
-0
  0
VERTEX
  8
0
 10
1791.300537109375
 20
973.8243408203125
 42
-0
  0
VERTEX
  8
0
 10
1857.79052734375
 20
1031.704833984375
 42
0.18499353528022766
  0
VERTEX
  8
0
 10
1738.78662109375
 20
1072.0443115234375
 42
0
  0
VERTEX
  8
0
 10
1617.78662109375
 20
1072.0443115234375
 42
-0.33678543567657471
  0
VERTEX
  8
0
 10
1617.78662109375
 20
952.4715576171875
 42
0
  0
VERTEX
  8
0
 10
1674.78662109375
 20
952.4715576171875
 42
0
  0
VERTEX
  8
0
 10
1685.4388427734375
 20
934.15997314453125
 42
0
  0
SEQEND
  0
POLYLINE
  8
0
 10
0
 20
0
 39
0
 70
1
 66
1
  0
VERTEX
  8
0
 10
1752.87158203125
 20
715.92333984375
 42
0
  0
VERTEX
  8
0
 10
1752.87158203125
 20
638.92327880859375
 42
-0
  0
VERTEX
  8
0
 10
1774.224365234375
 20
638.92327880859375
 42
-0
  0
VERTEX
  8
0
 10
1832.1048583984375
 20
572.433349609375
 42
0.18499353528022766
  0
VERTEX
  8
0
 10
1872.4443359375
 20
691.43719482421875
 42
0
  0
VERTEX
  8
0
 10
1872.4443359375
 20
812.43719482421875
 42
-0.33678543567657471
  0
VERTEX
  8
0
 10
1752.87158203125
 20
812.43719482421875
 42
0
  0
VERTEX
  8
0
 10
1752.87158203125
 20
755.43719482421875
 42
0
  0
VERTEX
  8
0
 10
1734.56005859375
 20
744.7850341796875
 42
0
  0
SEQEND
  0
POLYLINE
  8
0
 10
0
 20
0
 39
0
 70
1
 66
1
  0
VERTEX
  8
0
 10
1863.93310546875
 20
106.73389434814453
 42
0
  0
VERTEX
  8
0
 10
1863.93310546875
 20
183.73390197753906
 42
-0
  0
VERTEX
  8
0
 10
1842.5804443359375
 20
183.73390197753906
 42
-0
  0
VERTEX
  8
0
 10
1784.699951171875
 20
250.223876953125
 42
0.18499353528022766
  0
VERTEX
  8
0
 10
1744.3604736328125
 20
131.22000122070312
 42
0
  0
VERTEX
  8
0
 10
1744.3604736328125
 20
10.220000267028809
 42
-0.33678543567657471
  0
VERTEX
  8
0
 10
1863.93310546875
 20
10.220001220703125
 42
0
  0
VERTEX
  8
0
 10
1863.93310546875
 20
67.220001220703125
 42
0
  0
VERTEX
  8
0
 10
1882.2447509765625
 20
77.872177124023438
 42
0
  0
SEQEND
  0
POLYLINE
  8
0
 10
0
 20
0
 39
0
 70
1
 66
1
  0
VERTEX
  8
0
 10
1783.804931640625
 20
337.7633056640625
 42
0
  0
VERTEX
  8
0
 10
1783.804931640625
 20
260.7633056640625
 42
-0
  0
VERTEX
  8
0
 10
1805.1575927734375
 20
260.7633056640625
 42
-0
  0
VERTEX
  8
0
 10
1863.0380859375
 20
194.27333068847656
 42
0.18499353528022766
  0
VERTEX
  8
0
 10
1903.3775634765625
 20
313.2772216796875
 42
0
  0
VERTEX
  8
0
 10
1903.3775634765625
 20
434.2772216796875
 42
-0.33678543567657471
  0
VERTEX
  8
0
 10
1783.804931640625
 20
434.2772216796875
 42
0
  0
VERTEX
  8
0
 10
1783.804931640625
 20
377.2772216796875
 42
0
  0
VERTEX
  8
0
 10
1765.4932861328125
 20
366.62503051757812
 42
0
  0
SEQEND
  0
POLYLINE
  8
0
 10
0
 20
0
 39
0
 70
1
 66
1
  0
VERTEX
  8
0
 10
1846.2515869140625
 20
910.99664306640625
 42
0
  0
VERTEX
  8
0
 10
1846.2515869140625
 20
833.99664306640625
 42
-0
  0
VERTEX
  8
0
 10
1867.6043701171875
 20
833.99664306640625
 42
-0
  0
VERTEX
  8
0
 10
1925.4847412109375
 20
767.50665283203125
 42
0.18499353528022766
  0
VERTEX
  8
0
 10
1965.8243408203125
 20
886.51055908203125
 42
0
  0
VERTEX
  8
0
 10
1965.8243408203125
 20
1007.5105590820312
 42
-0.33678543567657471
  0
VERTEX
  8
0
 10
1846.2515869140625
 20
1007.5105590820312
 42
0
  0
VERTEX
  8
0
 10
1846.2515869140625
 20
950.51055908203125
 42
0
  0
VERTEX
  8
0
 10
1827.93994140625
 20
939.85833740234375
 42
0
  0
SEQEND
  0
POLYLINE
  8
0
 10
0
 20
0
 39
0
 70
1
 66
1
  0
VERTEX
  8
0
 10
317.70620727539062
 20
25.270061492919922
 42
0.52233147621154785
  0
VERTEX
  8
0
 10
355.69735717773437
 20
140.21044921875
 42
0
  0
VERTEX
  8
0
 10
314.34616088867187
 20
103.94643402099609
 42
0
  0
VERTEX
  8
0
 10
280.0601806640625
 20
143.04209899902344
 42
0.49459162354469299
  0
VERTEX
  8
0
 10
208.18490600585937
 20
43.649616241455078
 42
-0
  0
VERTEX
  8
0
 10
224.44664001464844
 20
25.106666564941406
 42
-0
  0
SEQEND
  0
POLYLINE
  8
0
 10
0
 20
0
 39
0
 70
1
 66
1
  0
VERTEX
  8
0
 10
916.2662353515625
 20
967.1900634765625
 42
0.52233147621154785
  0
VERTEX
  8
0
 10
954.25738525390625
 20
1082.1304931640625
 42
0
  0
VERTEX
  8
0
 10
912.90618896484375
 20
1045.866455078125
 42
0
  0
VERTEX
  8
0
 10
878.62017822265625
 20
1084.962158203125
 42
0.49459162354469299
  0
VERTEX
  8
0
 10
806.74493408203125
 20
985.56964111328125
 42
-0
  0
VERTEX
  8
0
 10
823.00665283203125
 20
967.02667236328125
 42
-0
  0
SEQEND
  0
POLYLINE
  8
0
 10
0
 20
0
 39
0
 70
1
 66
1
  0
VERTEX
  8
0
 10
1843.946533203125
 20
559.3187255859375
 42
0.52233147621154785
  0
VERTEX
  8
0
 10
1805.9554443359375
 20
444.37832641601562
 42
0
  0
VERTEX
  8
0
 10
1847.306640625
 20
480.642333984375
 42
0
  0
VERTEX
  8
0
 10
1881.5926513671875
 20
441.54666137695312
 42
0.49459162354469299
  0
VERTEX
  8
0
 10
1953.4678955078125
 20
540.93914794921875
 42
-0
  0
VERTEX
  8
0
 10
1937.2061767578125
 20
559.48211669921875
 42
-0
  0
SEQEND
  0
POLYLINE
  8
0
 10
0
 20
0
 39
0
 70
1
 66
1
  0
VERTEX
  8
0
 10
1995.785400390625
 20
162.26620483398438
 42
0.52233147621154785
  0
VERTEX
  8
0
 10
1880.844970703125
 20
200.25735473632812
 42
0
  0
VERTEX
  8
0
 10
1917.1090087890625
 20
158.90615844726562
 42
0
  0
VERTEX
  8
0
 10
1878.0133056640625
 20
124.62017822265625
 42
0.49459162354469299
  0
VERTEX
  8
0
 10
1977.40576171875
 20
52.744907379150391
 42
-0
  0
VERTEX
  8
0
 10
1995.94873046875
 20
69.006637573242187
 42
-0
  0
SEQEND
  0
POLYLINE
  8
0
 10
0
 20
0
 39
0
 70
1
 66
1
  0
VERTEX
  8
0
 10
1997.9119873046875
 20
680.5928955078125
 42
0.52233147621154785
  0
VERTEX
  8
0
 10
1882.9716796875
 20
718.58404541015625
 42
0
  0
VERTEX
  8
0
 10
1919.2357177734375
 20
677.23284912109375
 42
0
  0
VERTEX
  8
0
 10
1880.1400146484375
 20
642.94683837890625
 42
0.49459162354469299
  0
VERTEX
  8
0
 10
1979.532470703125
 20
571.07159423828125
 42
-0
  0
VERTEX
  8
0
 10
1998.075439453125
 20
587.33331298828125
 42
-0
  0
SEQEND
  0
POLYLINE
  8
0
 10
0
 20
0
 39
0
 70
1
 66
1
  0
VERTEX
  8
0
 10
2030.7786865234375
 20
324.66619873046875
 42
0.52233147621154785
  0
VERTEX
  8
0
 10
1915.8382568359375
 20
362.6573486328125
 42
0
  0
VERTEX
  8
0
 10
1952.102294921875
 20
321.30615234375
 42
0
  0
VERTEX
  8
0
 10
1913.0067138671875
 20
287.02017211914062
 42
0.49459162354469299
  0
VERTEX
  8
0
 10
2012.399169921875
 20
215.14491271972656
 42
-0
  0
VERTEX
  8
0
 10
2030.942138671875
 20
231.40663146972656
 42
-0
  0
SEQEND
  0
POLYLINE
  8
0
 10
0
 20
0
 39
0
 70
1
 66
1
  0
VERTEX
  8
0
 10
2075.052001953125
 20
511.42620849609375
 42
0.52233147621154785
  0
VERTEX
  8
0
 10
1960.1116943359375
 20
549.4173583984375
 42
0
  0
VERTEX
  8
0
 10
1996.3756103515625
 20
508.066162109375
 42
0
  0
VERTEX
  8
0
 10
1957.280029296875
 20
473.78018188476562
 42
0.49459162354469299
  0
VERTEX
  8
0
 10
2056.672607421875
 20
401.9049072265625
 42
-0
  0
VERTEX
  8
0
 10
2075.21533203125
 20
418.1666259765625
 42
-0
  0
SEQEND
  0
POLYLINE
  8
0
 10
0
 20
0
 39
0
 70
1
 66
1
  0
VERTEX
  8
0
 10
2087.61865234375
 20
803.5528564453125
 42
0.52233147621154785
  0
VERTEX
  8
0
 10
1972.6783447265625
 20
841.54400634765625
 42
0
  0
VERTEX
  8
0
 10
2008.9423828125
 20
800.19281005859375
 42
0
  0
VERTEX
  8
0
 10
1969.8466796875
 20
765.9068603515625
 42
0.49459162354469299
  0
VERTEX
  8
0
 10
2069.2392578125
 20
694.03155517578125
 42
-0
  0
VERTEX
  8
0
 10
2087.7822265625
 20
710.29327392578125
 42
-0
  0
SEQEND
  0
POLYLINE
  8
0
 10
0
 20
0
 39
0
 70
1
 66
1
  0
VERTEX
  8
0
 10
2093.805419921875
 20
975.61956787109375
 42
0.52233147621154785
  0
VERTEX
  8
0
 10
1978.864990234375
 20
1013.6107177734375
 42
0
  0
VERTEX
  8
0
 10
2015.1290283203125
 20
972.259521484375
 42
0
  0
VERTEX
  8
0
 10
1976.0333251953125
 20
937.9735107421875
 42
0.49459162354469299
  0
VERTEX
  8
0
 10
2075.42578125
 20
866.0982666015625
 42
-0
  0
VERTEX
  8
0
 10
2093.96875
 20
882.3599853515625
 42
-0
  0
SEQEND
  0
POLYLINE
  8
0
 10
0
 20
0
 39
0
 70
1
 66
1
  0
VERTEX
  8
0
 10
2006.356689453125
 20
62.959896087646484
 42
0.52233147621154785
  0
VERTEX
  8
0
 10
2121.297119140625
 20
24.968751907348633
 42
0
  0
VERTEX
  8
0
 10
2085.033203125
 20
66.319938659667969
 42
0
  0
VERTEX
  8
0
 10
2124.128662109375
 20
100.60592651367187
 42
0.49459162354469299
  0
VERTEX
  8
0
 10
2024.736328125
 20
172.481201171875
 42
-0
  0
VERTEX
  8
0
 10
2006.193359375
 20
156.21946716308594
 42
-0
  0
SEQEND
  0
POLYLINE
  8
0
 10
0
 20
0
 39
0
 70
1
 66
1
  0
VERTEX
  8
0
 10
2158.958740234375
 20
282.90621948242187
 42
0.52233147621154785
  0
VERTEX
  8
0
 10
2044.018310546875
 20
320.89736938476562
 42
0
  0
VERTEX
  8
0
 10
2080.2822265625
 20
279.54617309570312
 42
0
  0
VERTEX
  8
0
 10
2041.1866455078125
 20
245.26017761230469
 42
0.49459162354469299
  0
VERTEX
  8
0
 10
2140.5791015625
 20
173.38490295410156
 42
-0
  0
VERTEX
  8
0
 10
2159.1220703125
 20
189.64663696289062
 42
-0
  0
SEQEND
  0
POLYLINE
  8
0
 10
0
 20
0
 39
0
 70
1
 66
1
  0
VERTEX
  8
0
 10
2054.526611328125
 20
680.5242919921875
 42
-0.26115888357162476
  0
VERTEX
  8
0
 10
2054.526611328125
 20
558.12664794921875
 42
0
  0
VERTEX
  8
0
 10
2137.510986328125
 20
558.12664794921875
 42
0
  0
VERTEX
  8
0
 10
2160.388427734375
 20
581.06964111328125
 42
0
  0
VERTEX
  8
0
 10
2160.388427734375
 20
730.993896484375
 42
-0
  0
VERTEX
  8
0
 10
2137.510986328125
 20
742.2100830078125
 42
-0.41513499617576599
  0
SEQEND
  0
POLYLINE
  8
0
 10
0
 20
0
 39
0
 70
1
 66
1
  0
VERTEX
  8
0
 10
2085.2666015625
 20
501.3043212890625
 42
-0.26115888357162476
  0
VERTEX
  8
0
 10
2085.2666015625
 20
378.90667724609375
 42
0
  0
VERTEX
  8
0
 10
2168.2509765625
 20
378.90667724609375
 42
0
  0
VERTEX
  8
0
 10
2191.12841796875
 20
401.84963989257812
 42
0
  0
VERTEX
  8
0
 10
2191.12841796875
 20
551.77392578125
 42
-0
  0
VERTEX
  8
0
 10
2168.2509765625
 20
562.99005126953125
 42
-0.41513499617576599
  0
SEQEND
  0
POLYLINE
  8
0
 10
0
 20
0
 39
0
 70
1
 66
1
  0
VERTEX
  8
0
 10
2098.993408203125
 20
991.21099853515625
 42
-0.26115888357162476
  0
VERTEX
  8
0
 10
2098.993408203125
 20
868.8133544921875
 42
0
  0
VERTEX
  8
0
 10
2181.9775390625
 20
868.8133544921875
 42
0
  0
VERTEX
  8
0
 10
2204.85498046875
 20
891.75628662109375
 42
0
  0
VERTEX
  8
0
 10
2204.85498046875
 20
1041.6805419921875
 42
-0
  0
VERTEX
  8
0
 10
2181.9775390625
 20
1052.896728515625
 42
-0.41513499617576599
  0
SEQEND
  0
POLYLINE
  8
0
 10
0
 20
0
 39
0
 70
1
 66
1
  0
VERTEX
  8
0
 10
2124.320068359375
 20
159.87763977050781
 42
-0.26115888357162476
  0
VERTEX
  8
0
 10
2124.320068359375
 20
37.480007171630859
 42
0
  0
VERTEX
  8
0
 10
2207.30419921875
 20
37.479999542236328
 42
0
  0
VERTEX
  8
0
 10
2230.181640625
 20
60.422962188720703
 42
0
  0
VERTEX
  8
0
 10
2230.181640625
 20
210.34724426269531
 42
-0
  0
VERTEX
  8
0
 10
2207.30419921875
 20
221.56341552734375
 42
-0.41513499617576599
  0
SEQEND
  0
POLYLINE
  8
0
 10
0
 20
0
 39
0
 70
1
 66
1
  0
VERTEX
  8
0
 10
2144.052490234375
 20
752.8133544921875
 42
-0.26115888357162476
  0
VERTEX
  8
0
 10
2266.449951171875
 20
752.8133544921875
 42
0
  0
VERTEX
  8
0
 10
2266.4501953125
 20
835.79754638671875
 42
0
  0
VERTEX
  8
0
 10
2243.507080078125
 20
858.675048828125
 42
0
  0
VERTEX
  8
0
 10
2093.582763671875
 20
858.675048828125
 42
-0
  0
VERTEX
  8
0
 10
2082.36669921875
 20
835.79754638671875
 42
-0.41513499617576599
  0
SEQEND
  0
POLYLINE
  8
0
 10
0
 20
0
 39
0
 70
1
 66
1
  0
VERTEX
  8
0
 10
2169.36669921875
 20
353.98431396484375
 42
-0.26115888357162476
  0
VERTEX
  8
0
 10
2169.36669921875
 20
231.586669921875
 42
0
  0
VERTEX
  8
0
 10
2252.350830078125
 20
231.586669921875
 42
0
  0
VERTEX
  8
0
 10
2275.228271484375
 20
254.52963256835937
 42
0
  0
VERTEX
  8
0
 10
2275.228271484375
 20
404.45391845703125
 42
-0
  0
VERTEX
  8
0
 10
2252.350830078125
 20
415.67007446289062
 42
-0.41513499617576599
  0
SEQEND
  0
POLYLINE
  8
0
 10
0
 20
0
 39
0
 70
1
 66
1
  0
VERTEX
  8
0
 10
2284.121826171875
 20
620.3924560546875
 42
-0.26115888357162476
  0
VERTEX
  8
0
 10
2284.121826171875
 20
742.7900390625
 42
0
  0
VERTEX
  8
0
 10
2201.137451171875
 20
742.79010009765625
 42
0
  0
VERTEX
  8
0
 10
2178.260009765625
 20
719.84710693359375
 42
0
  0
VERTEX
  8
0
 10
2178.260009765625
 20
569.9228515625
 42
-0
  0
VERTEX
  8
0
 10
2201.137451171875
 20
558.7066650390625
 42
-0.41513499617576599
  0
SEQEND
  0
POLYLINE
  8
0
 10
0
 20
0
 39
0
 70
1
 66
1
  0
VERTEX
  8
0
 10
2307.32177734375
 20
443.68576049804687
 42
-0.26115888357162476
  0
VERTEX
  8
0
 10
2307.32177734375
 20
566.0833740234375
 42
0
  0
VERTEX
  8
0
 10
2224.33740234375
 20
566.08343505859375
 42
0
  0
VERTEX
  8
0
 10
2201.4599609375
 20
543.14044189453125
 42
0
  0
VERTEX
  8
0
 10
2201.4599609375
 20
393.2161865234375
 42
-0
  0
VERTEX
  8
0
 10
2224.33740234375
 20
382
 42
-0.41513499617576599
  0
SEQEND
  0
POLYLINE
  8
0
 10
0
 20
0
 39
0
 70
1
 66
1
  0
VERTEX
  8
0
 10
2321.04833984375
 20
930.49908447265625
 42
-0.26115888357162476
  0
VERTEX
  8
0
 10
2321.04833984375
 20
1052.896728515625
 42
0
  0
VERTEX
  8
0
 10
2238.064208984375
 20
1052.896728515625
 42
0
  0
VERTEX
  8
0
 10
2215.186767578125
 20
1029.9537353515625
 42
0
  0
VERTEX
  8
0
 10
2215.186767578125
 20
880.02947998046875
 42
-0
  0
VERTEX
  8
0
 10
2238.064208984375
 20
868.8133544921875
 42
-0.41513499617576599
  0
SEQEND
  0
POLYLINE
  8
0
 10
0
 20
0
 39
0
 70
1
 66
1
  0
VERTEX
  8
0
 10
2346.375
 20
71.90576171875
 42
-0.26115888357162476
  0
VERTEX
  8
0
 10
2346.375
 20
194.30340576171875
 42
0
  0
VERTEX
  8
0
 10
2263.390869140625
 20
194.30340576171875
 42
0
  0
VERTEX
  8
0
 10
2240.513427734375
 20
171.36044311523438
 42
0
  0
VERTEX
  8
0
 10
2240.513427734375
 20
21.43617057800293
 42
-0
  0
VERTEX
  8
0
 10
2263.390869140625
 20
10.220000267028809
 42
-0.41513499617576599
  0
SEQEND
  0
POLYLINE
  8
0
 10
0
 20
0
 39
0
 70
1
 66
1
  0
VERTEX
  8
0
 10
2276.666748046875
 20
875.21099853515625
 42
-0.26115888357162476
  0
VERTEX
  8
0
 10
2276.666748046875
 20
752.8133544921875
 42
0
  0
VERTEX
  8
0
 10
2359.65087890625
 20
752.8133544921875
 42
0
  0
VERTEX
  8
0
 10
2382.5283203125
 20
775.75628662109375
 42
0
  0
VERTEX
  8
0
 10
2382.5283203125
 20
925.6805419921875
 42
-0
  0
VERTEX
  8
0
 10
2359.65087890625
 20
936.896728515625
 42
-0.41513499617576599
  0
SEQEND
  0
POLYLINE
  8
0
 10
0
 20
0
 39
0
 70
1
 66
1
  0
VERTEX
  8
0
 10
2391.421630859375
 20
266.01242065429687
 42
-0.26115888357162476
  0
VERTEX
  8
0
 10
2391.421630859375
 20
388.41006469726562
 42
0
  0
VERTEX
  8
0
 10
2308.4375
 20
388.41006469726562
 42
0
  0
VERTEX
  8
0
 10
2285.56005859375
 20
365.46710205078125
 42
0
  0
VERTEX
  8
0
 10
2285.56005859375
 20
215.54283142089844
 42
-0
  0
VERTEX
  8
0
 10
2308.4375
 20
204.32666015625
 42
-0.41513499617576599
  0
SEQEND
  0
POLYLINE
  8
0
 10
0
 20
0
 39
0
 70
1
 66
1
  0
VERTEX
  8
0
 10
2298.706787109375
 20
698.50433349609375
 42
-0.26115888357162476
  0
VERTEX
  8
0
 10
2298.706787109375
 20
576.106689453125
 42
0
  0
VERTEX
  8
0
 10
2381.69091796875
 20
576.106689453125
 42
0
  0
VERTEX
  8
0
 10
2404.568359375
 20
599.04962158203125
 42
0
  0
VERTEX
  8
0
 10
2404.568359375
 20
748.973876953125
 42
-0
  0
VERTEX
  8
0
 10
2381.69091796875
 20
760.1900634765625
 42
-0.41513499617576599
  0
SEQEND
  0
POLYLINE
  8
0
 10
0
 20
0
 39
0
 70
1
 66
1
  0
VERTEX
  8
0
 10
2319.780029296875
 20
520.83099365234375
 42
-0.26115888357162476
  0
VERTEX
  8
0
 10
2319.780029296875
 20
398.433349609375
 42
0
  0
VERTEX
  8
0
 10
2402.76416015625
 20
398.43331909179687
 42
0
  0
VERTEX
  8
0
 10
2425.6416015625
 20
421.37628173828125
 42
0
  0
VERTEX
  8
0
 10
2425.6416015625
 20
571.30059814453125
 42
-0
  0
VERTEX
  8
0
 10
2402.76416015625
 20
582.5167236328125
 42
-0.41513499617576599
  0
SEQEND
  0
POLYLINE
  8
0
 10
0
 20
0
 39
0
 70
1
 66
1
  0
VERTEX
  8
0
 10
425.37258911132812
 20
34.580001831054687
 42
0.23306103050708771
  0
VERTEX
  8
0
 10
552.3538818359375
 20
142.40231323242187
 42
0
  0
VERTEX
  8
0
 10
379.48666381835937
 20
142.40231323242187
 42
0
  0
VERTEX
  8
0
 10
379.48666381835937
 20
111.36863708496094
 42
-1.1275635957717896
  0
VERTEX
  8
0
 10
379.48666381835937
 20
70.332916259765625
 42
0
  0
VERTEX
  8
0
 10
379.48666381835937
 20
34.580001831054687
 42
0
  0
SEQEND
  0
POLYLINE
  8
0
 10
0
 20
0
 39
0
 70
1
 66
1
  0
VERTEX
  8
0
 10
2331.3798828125
 20
1028.8546142578125
 42
0.23306103050708771
  0
VERTEX
  8
0
 10
2439.202392578125
 20
901.87335205078125
 42
0
  0
VERTEX
  8
0
 10
2439.202392578125
 20
1074.7406005859375
 42
0
  0
VERTEX
  8
0
 10
2408.168701171875
 20
1074.7406005859375
 42
-1.1275635957717896
  0
VERTEX
  8
0
 10
2367.1328125
 20
1074.7406005859375
 42
0
  0
VERTEX
  8
0
 10
2331.3798828125
 20
1074.7406005859375
 42
0
  0
SEQEND
  0
POLYLINE
  8
0
 10
0
 20
0
 39
0
 70
1
 66
1
  0
VERTEX
  8
0
 10
2352.453369140625
 20
137.20130920410156
 42
0.23306103050708771
  0
VERTEX
  8
0
 10
2460.275634765625
 20
10.220000267028809
 42
0
  0
VERTEX
  8
0
 10
2460.275634765625
 20
183.08723449707031
 42
0
  0
VERTEX
  8
0
 10
2429.241943359375
 20
183.08723449707031
 42
-1.1275635957717896
  0
VERTEX
  8
0
 10
2388.206298828125
 20
183.08723449707031
 42
0
  0
VERTEX
  8
0
 10
2352.453369140625
 20
183.08723449707031
 42
0
  0
SEQEND
  0
POLYLINE
  8
0
 10
0
 20
0
 39
0
 70
1
 66
1
  0
VERTEX
  8
0
 10
2388.606689453125
 20
304.82131958007812
 42
0.23306103050708771
  0
VERTEX
  8
0
 10
2496.428955078125
 20
177.83999633789063
 42
0
  0
VERTEX
  8
0
 10
2496.428955078125
 20
350.70724487304687
 42
0
  0
VERTEX
  8
0
 10
2465.395263671875
 20
350.70724487304687
 42
-1.1275635957717896
  0
VERTEX
  8
0
 10
2424.359619140625
 20
350.70724487304687
 42
0
  0
VERTEX
  8
0
 10
2388.606689453125
 20
350.70724487304687
 42
0
  0
SEQEND
  0
POLYLINE
  8
0
 10
0
 20
0
 39
0
 70
1
 66
1
  0
VERTEX
  8
0
 10
2392.860107421875
 20
804.5880126953125
 42
0.23306103050708771
  0
VERTEX
  8
0
 10
2500.682373046875
 20
677.606689453125
 42
0
  0
VERTEX
  8
0
 10
2500.682373046875
 20
850.473876953125
 42
0
  0
VERTEX
  8
0
 10
2469.648681640625
 20
850.473876953125
 42
-1.1275635957717896
  0
VERTEX
  8
0
 10
2428.61279296875
 20
850.473876953125
 42
0
  0
VERTEX
  8
0
 10
2392.860107421875
 20
850.473876953125
 42
0
  0
SEQEND
  0
POLYLINE
  8
0
 10
0
 20
0
 39
0
 70
1
 66
1
  0
VERTEX
  8
0
 10
2417.026611328125
 20
621.69464111328125
 42
0.23306103050708771
  0
VERTEX
  8
0
 10
2524.848876953125
 20
494.71334838867187
 42
0
  0
VERTEX
  8
0
 10
2524.848876953125
 20
667.58056640625
 42
0
  0
VERTEX
  8
0
 10
2493.815185546875
 20
667.58056640625
 42
-1.1275635957717896
  0
VERTEX
  8
0
 10
2452.779541015625
 20
667.58056640625
 42
0
  0
VERTEX
  8
0
 10
2417.026611328125
 20
667.58056640625
 42
0
  0
SEQEND
  0
POLYLINE
  8
0
 10
0
 20
0
 39
0
 70
1
 66
1
  0
VERTEX
  8
0
 10
2543.795654296875
 20
406.6192626953125
 42
0.23306103050708771
  0
VERTEX
  8
0
 10
2435.973388671875
 20
533.6005859375
 42
0
  0
VERTEX
  8
0
 10
2435.973388671875
 20
360.73333740234375
 42
0
  0
VERTEX
  8
0
 10
2467.007080078125
 20
360.73333740234375
 42
-1.1275635957717896
  0
VERTEX
  8
0
 10
2508.042724609375
 20
360.73333740234375
 42
0
  0
VERTEX
  8
0
 10
2543.795654296875
 20
360.73333740234375
 42
0
  0
SEQEND
  0
POLYLINE
  8
0
 10
0
 20
0
 39
0
 70
1
 66
1
  0
VERTEX
  8
0
 10
2449.506591796875
 20
953.84130859375
 42
0.23306103050708771
  0
VERTEX
  8
0
 10
2557.328857421875
 20
826.8599853515625
 42
0
  0
VERTEX
  8
0
 10
2557.328857421875
 20
999.72723388671875
 42
0
  0
VERTEX
  8
0
 10
2526.29541015625
 20
999.72723388671875
 42
-1.1275635957717896
  0
VERTEX
  8
0
 10
2485.259521484375
 20
999.72723388671875
 42
0
  0
VERTEX
  8
0
 10
2449.506591796875
 20
999.72723388671875
 42
0
  0
SEQEND
  0
POLYLINE
  8
0
 10
0
 20
0
 39
0
 70
1
 66
1
  0
VERTEX
  8
0
 10
2506.7333984375
 20
137.20130920410156
 42
0.23306103050708771
  0
VERTEX
  8
0
 10
2614.5556640625
 20
10.220000267028809
 42
0
  0
VERTEX
  8
0
 10
2614.5556640625
 20
183.08723449707031
 42
0
  0
VERTEX
  8
0
 10
2583.52197265625
 20
183.08723449707031
 42
-1.1275635957717896
  0
VERTEX
  8
0
 10
2542.486328125
 20
183.08723449707031
 42
0
  0
VERTEX
  8
0
 10
2506.7333984375
 20
183.08723449707031
 42
0
  0
SEQEND
  0
POLYLINE
  8
0
 10
0
 20
0
 39
0
 70
1
 66
1
  0
VERTEX
  8
0
 10
2510.986572265625
 20
726.86798095703125
 42
0.23306103050708771
  0
VERTEX
  8
0
 10
2618.80908203125
 20
599.88665771484375
 42
0
  0
VERTEX
  8
0
 10
2618.80908203125
 20
772.75390625
 42
0
  0
VERTEX
  8
0
 10
2587.775390625
 20
772.75390625
 42
-1.1275635957717896
  0
VERTEX
  8
0
 10
2546.739501953125
 20
772.75390625
 42
0
  0
VERTEX
  8
0
 10
2510.986572265625
 20
772.75390625
 42
0
  0
SEQEND
  0
POLYLINE
  8
0
 10
0
 20
0
 39
0
 70
1
 66
1
  0
VERTEX
  8
0
 10
2535.1533203125
 20
465.67465209960937
 42
0.23306103050708771
  0
VERTEX
  8
0
 10
2642.9755859375
 20
338.69332885742187
 42
0
  0
VERTEX
  8
0
 10
2642.9755859375
 20
511.56057739257812
 42
0
  0
VERTEX
  8
0
 10
2611.94189453125
 20
511.56057739257812
 42
-1.1275635957717896
  0
VERTEX
  8
0
 10
2570.90625
 20
511.56057739257812
 42
0
  0
VERTEX
  8
0
 10
2535.1533203125
 20
511.56057739257812
 42
0
  0
SEQEND
  0
POLYLINE
  8
0
 10
0
 20
0
 39
0
 70
1
 66
1
  0
VERTEX
  8
0
 10
2552.166748046875
 20
1043.5479736328125
 42
0.23306103050708771
  0
VERTEX
  8
0
 10
2659.989013671875
 20
916.566650390625
 42
0
  0
VERTEX
  8
0
 10
2659.989013671875
 20
1089.4339599609375
 42
0
  0
VERTEX
  8
0
 10
2628.955322265625
 20
1089.4339599609375
 42
-1.1275635957717896
  0
VERTEX
  8
0
 10
2587.919677734375
 20
1089.4339599609375
 42
0
  0
VERTEX
  8
0
 10
2552.166748046875
 20
1089.4339599609375
 42
0
  0
SEQEND
  0
POLYLINE
  8
0
 10
0
 20
0
 39
0
 70
1
 66
1
  0
VERTEX
  8
0
 10
2661.92236328125
 20
238.99925231933594
 42
0.23306103050708771
  0
VERTEX
  8
0
 10
2554.10009765625
 20
365.98056030273437
 42
0
  0
VERTEX
  8
0
 10
2554.10009765625
 20
193.11332702636719
 42
0
  0
VERTEX
  8
0
 10
2585.1337890625
 20
193.11332702636719
 42
-1.1275635957717896
  0
VERTEX
  8
0
 10
2626.16943359375
 20
193.11332702636719
 42
0
  0
VERTEX
  8
0
 10
2661.92236328125
 20
193.11332702636719
 42
0
  0
SEQEND
  0
POLYLINE
  8
0
 10
0
 20
0
 39
0
 70
1
 66
1
  0
VERTEX
  8
0
 10
2675.45556640625
 20
828.6658935546875
 42
0.23306103050708771
  0
VERTEX
  8
0
 10
2567.63330078125
 20
955.647216796875
 42
0
  0
VERTEX
  8
0
 10
2567.63330078125
 20
782.780029296875
 42
0
  0
VERTEX
  8
0
 10
2598.6669921875
 20
782.780029296875
 42
-1.1275635957717896
  0
VERTEX
  8
0
 10
2639.70263671875
 20
782.780029296875
 42
0
  0
VERTEX
  8
0
 10
2675.45556640625
 20
782.780029296875
 42
0
  0
SEQEND
  0
POLYLINE
  8
0
 10
0
 20
0
 39
0
 70
1
 66
1
  0
VERTEX
  8
0
 10
2624.860107421875
 20
137.20130920410156
 42
0.23306103050708771
  0
VERTEX
  8
0
 10
2732.682373046875
 20
10.220000267028809
 42
0
  0
VERTEX
  8
0
 10
2732.682373046875
 20
183.08723449707031
 42
0
  0
VERTEX
  8
0
 10
2701.648681640625
 20
183.08723449707031
 42
-1.1275635957717896
  0
VERTEX
  8
0
 10
2660.61279296875
 20
183.08723449707031
 42
0
  0
VERTEX
  8
0
 10
2624.860107421875
 20
183.08723449707031
 42
0
  0
SEQEND
  0
POLYLINE
  8
0
 10
0
 20
0
 39
0
 70
1
 66
1
  0
VERTEX
  8
0
 10
2629.11328125
 20
570.84796142578125
 42
0.23306103050708771
  0
VERTEX
  8
0
 10
2736.935546875
 20
443.86666870117187
 42
0
  0
VERTEX
  8
0
 10
2736.935546875
 20
616.73388671875
 42
0
  0
VERTEX
  8
0
 10
2705.90185546875
 20
616.73388671875
 42
-1.1275635957717896
  0
VERTEX
  8
0
 10
2664.8662109375
 20
616.73388671875
 42
0
  0
VERTEX
  8
0
 10
2629.11328125
 20
616.73388671875
 42
0
  0
SEQEND
  0
POLYLINE
  8
0
 10
0
 20
0
 39
0
 70
1
 66
1
  0
VERTEX
  8
0
 10
2653.280029296875
 20
307.33465576171875
 42
0.23306103050708771
  0
VERTEX
  8
0
 10
2761.102294921875
 20
180.35333251953125
 42
0
  0
VERTEX
  8
0
 10
2761.102294921875
 20
353.2205810546875
 42
0
  0
VERTEX
  8
0
 10
2730.068603515625
 20
353.2205810546875
 42
-1.1275635957717896
  0
VERTEX
  8
0
 10
2689.032958984375
 20
353.2205810546875
 42
0
  0
VERTEX
  8
0
 10
2653.280029296875
 20
353.2205810546875
 42
0
  0
SEQEND
  0
POLYLINE
  8
0
 10
0
 20
0
 39
0
 70
1
 66
1
  0
VERTEX
  8
0
 10
2670.293212890625
 20
879.21466064453125
 42
0.23306103050708771
  0
VERTEX
  8
0
 10
2778.11572265625
 20
752.23333740234375
 42
0
  0
VERTEX
  8
0
 10
2778.11572265625
 20
925.1005859375
 42
0
  0
VERTEX
  8
0
 10
2747.08203125
 20
925.1005859375
 42
-1.1275635957717896
  0
VERTEX
  8
0
 10
2706.046142578125
 20
925.1005859375
 42
0
  0
VERTEX
  8
0
 10
2670.293212890625
 20
925.1005859375
 42
0
  0
SEQEND
  0
POLYLINE
  8
0
 10
0
 20
0
 39
0
 70
1
 66
1
  0
VERTEX
  8
0
 10
2674.999267578125
 20
626.760009765625
 42
0.23306103050708771
  0
VERTEX
  8
0
 10
2801.98046875
 20
734.58233642578125
 42
0
  0
VERTEX
  8
0
 10
2629.11328125
 20
734.58233642578125
 42
0
  0
VERTEX
  8
0
 10
2629.11328125
 20
703.54864501953125
 42
-1.1275635957717896
  0
VERTEX
  8
0
 10
2629.11328125
 20
662.512939453125
 42
0
  0
VERTEX
  8
0
 10
2629.11328125
 20
626.760009765625
 42
0
  0
SEQEND
  0
POLYLINE
  8
0
 10
0
 20
0
 39
0
 70
1
 66
1
  0
VERTEX
  8
0
 10
2707.219970703125
 20
1043.7413330078125
 42
0.23306103050708771
  0
VERTEX
  8
0
 10
2815.042236328125
 20
916.760009765625
 42
0
  0
VERTEX
  8
0
 10
2815.042236328125
 20
1089.627197265625
 42
0
  0
VERTEX
  8
0
 10
2784.008544921875
 20
1089.627197265625
 42
-1.1275635957717896
  0
VERTEX
  8
0
 10
2742.972900390625
 20
1089.627197265625
 42
0
  0
VERTEX
  8
0
 10
2707.219970703125
 20
1089.627197265625
 42
0
  0
SEQEND
  0
POLYLINE
  8
0
 10
0
 20
0
 39
0
 70
1
 66
1
  0
VERTEX
  8
0
 10
1057.5318603515625
 20
451.98666381835937
 42
0
  0
VERTEX
  8
0
 10
1106.116943359375
 20
458.35031127929687
 42
-0.065211214125156403
  0
VERTEX
  8
0
 10
1106.116943359375
 20
618.350341796875
 42
-0
  0
VERTEX
  8
0
 10
1057.5318603515625
 20
624.71392822265625
 42
0.065211214125156403
  0
SEQEND
  0
POLYLINE
  8
0
 10
0
 20
0
 39
0
 70
1
 66
1
  0
VERTEX
  8
0
 10
1896.1866455078125
 20
1083.8583984375
 42
0
  0
VERTEX
  8
0
 10
1902.55029296875
 20
1035.2733154296875
 42
-0.065211214125156403
  0
VERTEX
  8
0
 10
2062.55029296875
 20
1035.2733154296875
 42
-0
  0
VERTEX
  8
0
 10
2068.9140625
 20
1083.8583984375
 42
0.065211214125156403
  0
SEQEND
  0
POLYLINE
  8
0
 10
0
 20
0
 39
0
 70
1
 66
1
  0
VERTEX
  8
0
 10
2795.824951171875
 20
531.9139404296875
 42
0
  0
VERTEX
  8
0
 10
2747.239990234375
 20
525.55029296875
 42
-0.065211214125156403
  0
VERTEX
  8
0
 10
2747.239990234375
 20
365.55026245117187
 42
-0
  0
VERTEX
  8
0
 10
2795.824951171875
 20
359.18667602539062
 42
0.065211214125156403
  0
SEQEND
  0
POLYLINE
  8
0
 10
0
 20
0
 39
0
 70
1
 66
1
  0
VERTEX
  8
0
 10
2772.205322265625
 20
10.220000267028809
 42
0
  0
VERTEX
  8
0
 10
2820.790283203125
 20
16.583654403686523
 42
-0.065211214125156403
  0
VERTEX
  8
0
 10
2820.790283203125
 20
176.58367919921875
 42
-0
  0
VERTEX
  8
0
 10
2772.205322265625
 20
182.94728088378906
 42
0.065211214125156403
  0
SEQEND
  0
POLYLINE
  8
0
 10
0
 20
0
 39
0
 70
1
 66
1
  0
VERTEX
  8
0
 10
2845.51171875
 20
708.81396484375
 42
0
  0
VERTEX
  8
0
 10
2796.9267578125
 20
702.4503173828125
 42
-0.065211214125156403
  0
VERTEX
  8
0
 10
2796.9267578125
 20
542.45025634765625
 42
-0
  0
VERTEX
  8
0
 10
2845.51171875
 20
536.086669921875
 42
0.065211214125156403
  0
SEQEND
  0
POLYLINE
  8
0
 10
0
 20
0
 39
0
 70
1
 66
1
  0
VERTEX
  8
0
 10
2849.57177734375
 20
356.36727905273437
 42
0
  0
VERTEX
  8
0
 10
2800.986572265625
 20
350.00363159179687
 42
-0.065211214125156403
  0
VERTEX
  8
0
 10
2800.986572265625
 20
190.00361633300781
 42
-0
  0
VERTEX
  8
0
 10
2849.57177734375
 20
183.63999938964844
 42
0.065211214125156403
  0
SEQEND
  0
POLYLINE
  8
0
 10
0
 20
0
 39
0
 70
1
 66
1
  0
VERTEX
  8
0
 10
2852.8583984375
 20
911.23394775390625
 42
0
  0
VERTEX
  8
0
 10
2804.2734375
 20
904.87030029296875
 42
-0.065211214125156403
  0
VERTEX
  8
0
 10
2804.2734375
 20
744.87030029296875
 42
-0
  0
VERTEX
  8
0
 10
2852.8583984375
 20
738.50665283203125
 42
0.065211214125156403
  0
SEQEND
  0
ENDSEC
  0
EOF
