  0
SECTION
  2
ENTITIES
  0
POLYLINE
  8
0
 10
0
 20
0
 39
0
 70
1
 66
1
  0
VERTEX
  8
0
 10
0
 20
0
 42
0
  0
VERTEX
  8
0
 10
2500
 20
0
 42
0
  0
VERTEX
  8
0
 10
2500
 20
1000
 42
0
  0
VERTEX
  8
0
 10
0
 20
1000
 42
0
  0
SEQEND
  0
POLYLINE
  8
0
 10
0
 20
0
 39
0
 70
1
 66
1
  0
VERTEX
  8
0
 10
2226.9267578125
 20
224.64999389648437
 42
0.41421356797218323
  0
VERTEX
  8
0
 10
2223.9267578125
 20
227.64999389648437
 42
-0
  0
VERTEX
  8
0
 10
2109.9267578125
 20
227.64999389648437
 42
0.41421356797218323
  0
VERTEX
  8
0
 10
2106.9267578125
 20
224.64999389648437
 42
-0
  0
VERTEX
  8
0
 10
2106.9267578125
 20
160.64999389648437
 42
0.41421356797218323
  0
VERTEX
  8
0
 10
2109.9267578125
 20
157.64999389648438
 42
-0
  0
VERTEX
  8
0
 10
2114.9267578125
 20
157.64999389648438
 42
-0.4087902307510376
  0
VERTEX
  8
0
 10
2191.6767578125
 20
95.3131103515625
 42
0.38162419199943542
  0
VERTEX
  8
0
 10
2194.65771484375
 20
92.650001525878906
 42
-0
  0
VERTEX
  8
0
 10
2223.9267578125
 20
92.650001525878906
 42
0.41421356797218323
  0
VERTEX
  8
0
 10
2226.9267578125
 20
95.650001525878906
 42
-0
  0
SEQEND
  0
POLYLINE
  8
0
 10
0
 20
0
 39
0
 70
1
 66
1
  0
VERTEX
  8
0
 10
2106.9267578125
 20
13
 42
0.41421356797218323
  0
VERTEX
  8
0
 10
2109.9267578125
 20
10
 42
-0
  0
VERTEX
  8
0
 10
2223.9267578125
 20
10
 42
0.41421356797218323
  0
VERTEX
  8
0
 10
2226.9267578125
 20
13
 42
-0
  0
VERTEX
  8
0
 10
2226.9267578125
 20
77
 42
0.41421356797218323
  0
VERTEX
  8
0
 10
2223.9267578125
 20
80
 42
-0
  0
VERTEX
  8
0
 10
2218.9267578125
 20
80
 42
-0.4087902307510376
  0
VERTEX
  8
0
 10
2142.176513671875
 20
142.33688354492187
 42
0.38162419199943542
  0
VERTEX
  8
0
 10
2139.195556640625
 20
145
 42
-0
  0
VERTEX
  8
0
 10
2109.9267578125
 20
145
 42
0.41421356797218323
  0
VERTEX
  8
0
 10
2106.9267578125
 20
142
 42
-0
  0
SEQEND
  0
POLYLINE
  8
0
 10
0
 20
0
 39
0
 70
1
 66
1
  0
VERTEX
  8
0
 10
2226.9267578125
 20
452.29998779296875
 42
0.41421356797218323
  0
VERTEX
  8
0
 10
2223.9267578125
 20
455.29998779296875
 42
-0
  0
VERTEX
  8
0
 10
2109.9267578125
 20
455.29998779296875
 42
0.41421356797218323
  0
VERTEX
  8
0
 10
2106.9267578125
 20
452.29998779296875
 42
-0
  0
VERTEX
  8
0
 10
2106.9267578125
 20
388.29998779296875
 42
0.41421356797218323
  0
VERTEX
  8
0
 10
2109.9267578125
 20
385.29998779296875
 42
-0
  0
VERTEX
  8
0
 10
2114.9267578125
 20
385.29998779296875
 42
-0.4087902307510376
  0
VERTEX
  8
0
 10
2191.6767578125
 20
322.96310424804687
 42
0.38162419199943542
  0
VERTEX
  8
0
 10
2194.65771484375
 20
320.29998779296875
 42
-0
  0
VERTEX
  8
0
 10
2223.9267578125
 20
320.29998779296875
 42
0.41421356797218323
  0
VERTEX
  8
0
 10
2226.9267578125
 20
323.29998779296875
 42
-0
  0
SEQEND
  0
POLYLINE
  8
0
 10
0
 20
0
 39
0
 70
1
 66
1
  0
VERTEX
  8
0
 10
2106.9267578125
 20
240.64999389648437
 42
0.41421356797218323
  0
VERTEX
  8
0
 10
2109.9267578125
 20
237.64999389648437
 42
-0
  0
VERTEX
  8
0
 10
2223.9267578125
 20
237.64999389648437
 42
0.41421356797218323
  0
VERTEX
  8
0
 10
2226.9267578125
 20
240.64999389648437
 42
-0
  0
VERTEX
  8
0
 10
2226.9267578125
 20
304.64999389648437
 42
0.41421356797218323
  0
VERTEX
  8
0
 10
2223.9267578125
 20
307.64999389648438
 42
-0
  0
VERTEX
  8
0
 10
2218.9267578125
 20
307.64999389648438
 42
-0.4087902307510376
  0
VERTEX
  8
0
 10
2142.176513671875
 20
369.98687744140625
 42
0.38162419199943542
  0
VERTEX
  8
0
 10
2139.195556640625
 20
372.64999389648437
 42
-0
  0
VERTEX
  8
0
 10
2109.9267578125
 20
372.64999389648437
 42
0.41421356797218323
  0
VERTEX
  8
0
 10
2106.9267578125
 20
369.64999389648437
 42
-0
  0
SEQEND
  0
POLYLINE
  8
0
 10
0
 20
0
 39
0
 70
1
 66
1
  0
VERTEX
  8
0
 10
2356.9267578125
 20
224.64999389648437
 42
0.41421356797218323
  0
VERTEX
  8
0
 10
2353.9267578125
 20
227.64999389648437
 42
-0
  0
VERTEX
  8
0
 10
2239.9267578125
 20
227.64999389648437
 42
0.41421356797218323
  0
VERTEX
  8
0
 10
2236.9267578125
 20
224.64999389648437
 42
-0
  0
VERTEX
  8
0
 10
2236.9267578125
 20
160.64999389648437
 42
0.41421356797218323
  0
VERTEX
  8
0
 10
2239.9267578125
 20
157.64999389648438
 42
-0
  0
VERTEX
  8
0
 10
2244.9267578125
 20
157.64999389648438
 42
-0.4087902307510376
  0
VERTEX
  8
0
 10
2321.6767578125
 20
95.3131103515625
 42
0.38162419199943542
  0
VERTEX
  8
0
 10
2324.65771484375
 20
92.650001525878906
 42
-0
  0
VERTEX
  8
0
 10
2353.9267578125
 20
92.650001525878906
 42
0.41421356797218323
  0
VERTEX
  8
0
 10
2356.9267578125
 20
95.650001525878906
 42
-0
  0
SEQEND
  0
POLYLINE
  8
0
 10
0
 20
0
 39
0
 70
1
 66
1
  0
VERTEX
  8
0
 10
2236.9267578125
 20
13
 42
0.41421356797218323
  0
VERTEX
  8
0
 10
2239.9267578125
 20
10
 42
-0
  0
VERTEX
  8
0
 10
2353.9267578125
 20
10
 42
0.41421356797218323
  0
VERTEX
  8
0
 10
2356.9267578125
 20
13
 42
-0
  0
VERTEX
  8
0
 10
2356.9267578125
 20
77
 42
0.41421356797218323
  0
VERTEX
  8
0
 10
2353.9267578125
 20
80
 42
-0
  0
VERTEX
  8
0
 10
2348.9267578125
 20
80
 42
-0.4087902307510376
  0
VERTEX
  8
0
 10
2272.176513671875
 20
142.33688354492187
 42
0.38162419199943542
  0
VERTEX
  8
0
 10
2269.195556640625
 20
145
 42
-0
  0
VERTEX
  8
0
 10
2239.9267578125
 20
145
 42
0.41421356797218323
  0
VERTEX
  8
0
 10
2236.9267578125
 20
142
 42
-0
  0
SEQEND
  0
POLYLINE
  8
0
 10
0
 20
0
 39
0
 70
1
 66
1
  0
VERTEX
  8
0
 10
2361.669921875
 20
679.95001220703125
 42
0.41421356797218323
  0
VERTEX
  8
0
 10
2358.669921875
 20
682.95001220703125
 42
-0
  0
VERTEX
  8
0
 10
2244.669921875
 20
682.95001220703125
 42
0.41421356797218323
  0
VERTEX
  8
0
 10
2241.669921875
 20
679.95001220703125
 42
-0
  0
VERTEX
  8
0
 10
2241.669921875
 20
615.95001220703125
 42
0.41421356797218323
  0
VERTEX
  8
0
 10
2244.669921875
 20
612.95001220703125
 42
-0
  0
VERTEX
  8
0
 10
2249.669921875
 20
612.95001220703125
 42
-0.4087902307510376
  0
VERTEX
  8
0
 10
2326.419921875
 20
550.61309814453125
 42
0.38162419199943542
  0
VERTEX
  8
0
 10
2329.40087890625
 20
547.95001220703125
 42
-0
  0
VERTEX
  8
0
 10
2358.669921875
 20
547.95001220703125
 42
0.41421356797218323
  0
VERTEX
  8
0
 10
2361.669921875
 20
550.95001220703125
 42
-0
  0
SEQEND
  0
POLYLINE
  8
0
 10
0
 20
0
 39
0
 70
1
 66
1
  0
VERTEX
  8
0
 10
2241.669921875
 20
468.29998779296875
 42
0.41421356797218323
  0
VERTEX
  8
0
 10
2244.669921875
 20
465.29998779296875
 42
-0
  0
VERTEX
  8
0
 10
2358.669921875
 20
465.29998779296875
 42
0.41421356797218323
  0
VERTEX
  8
0
 10
2361.669921875
 20
468.29998779296875
 42
-0
  0
VERTEX
  8
0
 10
2361.669921875
 20
532.29998779296875
 42
0.41421356797218323
  0
VERTEX
  8
0
 10
2358.669921875
 20
535.29998779296875
 42
-0
  0
VERTEX
  8
0
 10
2353.669921875
 20
535.29998779296875
 42
-0.4087902307510376
  0
VERTEX
  8
0
 10
2276.919921875
 20
597.63690185546875
 42
0.38162419199943542
  0
VERTEX
  8
0
 10
2273.938720703125
 20
600.29998779296875
 42
-0
  0
VERTEX
  8
0
 10
2244.669921875
 20
600.29998779296875
 42
0.41421356797218323
  0
VERTEX
  8
0
 10
2241.669921875
 20
597.29998779296875
 42
-0
  0
SEQEND
  0
POLYLINE
  8
0
 10
0
 20
0
 39
0
 70
1
 66
1
  0
VERTEX
  8
0
 10
1959.06982421875
 20
830.82879638671875
 42
0.41421356797218323
  0
VERTEX
  8
0
 10
1956.06982421875
 20
833.82879638671875
 42
-0
  0
VERTEX
  8
0
 10
1842.06982421875
 20
833.82879638671875
 42
0.41421356797218323
  0
VERTEX
  8
0
 10
1839.06982421875
 20
830.82879638671875
 42
-0
  0
VERTEX
  8
0
 10
1839.06982421875
 20
766.82879638671875
 42
0.41421356797218323
  0
VERTEX
  8
0
 10
1842.06982421875
 20
763.82879638671875
 42
-0
  0
VERTEX
  8
0
 10
1847.06982421875
 20
763.82879638671875
 42
-0.4087902307510376
  0
VERTEX
  8
0
 10
1923.8199462890625
 20
701.49188232421875
 42
0.38162419199943542
  0
VERTEX
  8
0
 10
1926.8009033203125
 20
698.82879638671875
 42
-0
  0
VERTEX
  8
0
 10
1956.06982421875
 20
698.82879638671875
 42
0.41421356797218323
  0
VERTEX
  8
0
 10
1959.06982421875
 20
701.82879638671875
 42
-0
  0
SEQEND
  0
POLYLINE
  8
0
 10
0
 20
0
 39
0
 70
1
 66
1
  0
VERTEX
  8
0
 10
1839.06982421875
 20
619.17877197265625
 42
0.41421356797218323
  0
VERTEX
  8
0
 10
1842.06982421875
 20
616.17877197265625
 42
-0
  0
VERTEX
  8
0
 10
1956.06982421875
 20
616.17877197265625
 42
0.41421356797218323
  0
VERTEX
  8
0
 10
1959.06982421875
 20
619.17877197265625
 42
-0
  0
VERTEX
  8
0
 10
1959.06982421875
 20
683.17877197265625
 42
0.41421356797218323
  0
VERTEX
  8
0
 10
1956.06982421875
 20
686.17877197265625
 42
-0
  0
VERTEX
  8
0
 10
1951.06982421875
 20
686.17877197265625
 42
-0.4087902307510376
  0
VERTEX
  8
0
 10
1874.31982421875
 20
748.51568603515625
 42
0.38162419199943542
  0
VERTEX
  8
0
 10
1871.3388671875
 20
751.17877197265625
 42
-0
  0
VERTEX
  8
0
 10
1842.06982421875
 20
751.17877197265625
 42
0.41421356797218323
  0
VERTEX
  8
0
 10
1839.06982421875
 20
748.17877197265625
 42
-0
  0
SEQEND
  0
POLYLINE
  8
0
 10
0
 20
0
 39
0
 70
1
 66
1
  0
VERTEX
  8
0
 10
2231.669921875
 20
679.95001220703125
 42
0.41421356797218323
  0
VERTEX
  8
0
 10
2228.669921875
 20
682.95001220703125
 42
-0
  0
VERTEX
  8
0
 10
2114.669921875
 20
682.95001220703125
 42
0.41421356797218323
  0
VERTEX
  8
0
 10
2111.669921875
 20
679.95001220703125
 42
-0
  0
VERTEX
  8
0
 10
2111.669921875
 20
615.95001220703125
 42
0.41421356797218323
  0
VERTEX
  8
0
 10
2114.669921875
 20
612.95001220703125
 42
-0
  0
VERTEX
  8
0
 10
2119.669921875
 20
612.95001220703125
 42
-0.4087902307510376
  0
VERTEX
  8
0
 10
2196.419921875
 20
550.61309814453125
 42
0.38162419199943542
  0
VERTEX
  8
0
 10
2199.40087890625
 20
547.95001220703125
 42
-0
  0
VERTEX
  8
0
 10
2228.669921875
 20
547.95001220703125
 42
0.41421356797218323
  0
VERTEX
  8
0
 10
2231.669921875
 20
550.95001220703125
 42
-0
  0
SEQEND
  0
POLYLINE
  8
0
 10
0
 20
0
 39
0
 70
1
 66
1
  0
VERTEX
  8
0
 10
2111.669921875
 20
468.29998779296875
 42
0.41421356797218323
  0
VERTEX
  8
0
 10
2114.669921875
 20
465.29998779296875
 42
-0
  0
VERTEX
  8
0
 10
2228.669921875
 20
465.29998779296875
 42
0.41421356797218323
  0
VERTEX
  8
0
 10
2231.669921875
 20
468.29998779296875
 42
-0
  0
VERTEX
  8
0
 10
2231.669921875
 20
532.29998779296875
 42
0.41421356797218323
  0
VERTEX
  8
0
 10
2228.669921875
 20
535.29998779296875
 42
-0
  0
VERTEX
  8
0
 10
2223.669921875
 20
535.29998779296875
 42
-0.4087902307510376
  0
VERTEX
  8
0
 10
2146.919921875
 20
597.63690185546875
 42
0.38162419199943542
  0
VERTEX
  8
0
 10
2143.938720703125
 20
600.29998779296875
 42
-0
  0
VERTEX
  8
0
 10
2114.669921875
 20
600.29998779296875
 42
0.41421356797218323
  0
VERTEX
  8
0
 10
2111.669921875
 20
597.29998779296875
 42
-0
  0
SEQEND
  0
POLYLINE
  8
0
 10
0
 20
0
 39
0
 70
1
 66
1
  0
VERTEX
  8
0
 10
1661.0633544921875
 20
660.82879638671875
 42
0.41421356797218323
  0
VERTEX
  8
0
 10
1658.0633544921875
 20
663.82879638671875
 42
-0
  0
VERTEX
  8
0
 10
1544.0633544921875
 20
663.82879638671875
 42
0.41421356797218323
  0
VERTEX
  8
0
 10
1541.0633544921875
 20
660.82879638671875
 42
-0
  0
VERTEX
  8
0
 10
1541.0633544921875
 20
596.82879638671875
 42
0.41421356797218323
  0
VERTEX
  8
0
 10
1544.0633544921875
 20
593.82879638671875
 42
-0
  0
VERTEX
  8
0
 10
1549.0633544921875
 20
593.82879638671875
 42
-0.4087902307510376
  0
VERTEX
  8
0
 10
1625.8133544921875
 20
531.49188232421875
 42
0.38162419199943542
  0
VERTEX
  8
0
 10
1628.79443359375
 20
528.82879638671875
 42
-0
  0
VERTEX
  8
0
 10
1658.0633544921875
 20
528.82879638671875
 42
0.41421356797218323
  0
VERTEX
  8
0
 10
1661.0633544921875
 20
531.82879638671875
 42
-0
  0
SEQEND
  0
POLYLINE
  8
0
 10
0
 20
0
 39
0
 70
1
 66
1
  0
VERTEX
  8
0
 10
1541.0633544921875
 20
449.17877197265625
 42
0.41421356797218323
  0
VERTEX
  8
0
 10
1544.0633544921875
 20
446.17877197265625
 42
-0
  0
VERTEX
  8
0
 10
1658.0633544921875
 20
446.17877197265625
 42
0.41421356797218323
  0
VERTEX
  8
0
 10
1661.0633544921875
 20
449.17877197265625
 42
-0
  0
VERTEX
  8
0
 10
1661.0633544921875
 20
513.17877197265625
 42
0.41421356797218323
  0
VERTEX
  8
0
 10
1658.0633544921875
 20
516.17877197265625
 42
-0
  0
VERTEX
  8
0
 10
1653.0633544921875
 20
516.17877197265625
 42
-0.4087902307510376
  0
VERTEX
  8
0
 10
1576.3133544921875
 20
578.51568603515625
 42
0.38162419199943542
  0
VERTEX
  8
0
 10
1573.332275390625
 20
581.17877197265625
 42
-0
  0
VERTEX
  8
0
 10
1544.0633544921875
 20
581.17877197265625
 42
0.41421356797218323
  0
VERTEX
  8
0
 10
1541.0633544921875
 20
578.17877197265625
 42
-0
  0
SEQEND
  0
POLYLINE
  8
0
 10
0
 20
0
 39
0
 70
1
 66
1
  0
VERTEX
  8
0
 10
1829.06982421875
 20
830.82879638671875
 42
0.41421356797218323
  0
VERTEX
  8
0
 10
1826.06982421875
 20
833.82879638671875
 42
-0
  0
VERTEX
  8
0
 10
1712.06982421875
 20
833.82879638671875
 42
0.41421356797218323
  0
VERTEX
  8
0
 10
1709.06982421875
 20
830.82879638671875
 42
-0
  0
VERTEX
  8
0
 10
1709.06982421875
 20
766.82879638671875
 42
0.41421356797218323
  0
VERTEX
  8
0
 10
1712.06982421875
 20
763.82879638671875
 42
-0
  0
VERTEX
  8
0
 10
1717.06982421875
 20
763.82879638671875
 42
-0.4087902307510376
  0
VERTEX
  8
0
 10
1793.8199462890625
 20
701.49188232421875
 42
0.38162419199943542
  0
VERTEX
  8
0
 10
1796.8009033203125
 20
698.82879638671875
 42
-0
  0
VERTEX
  8
0
 10
1826.06982421875
 20
698.82879638671875
 42
0.41421356797218323
  0
VERTEX
  8
0
 10
1829.06982421875
 20
701.82879638671875
 42
-0
  0
SEQEND
  0
POLYLINE
  8
0
 10
0
 20
0
 39
0
 70
1
 66
1
  0
VERTEX
  8
0
 10
1709.06982421875
 20
619.17877197265625
 42
0.41421356797218323
  0
VERTEX
  8
0
 10
1712.06982421875
 20
616.17877197265625
 42
-0
  0
VERTEX
  8
0
 10
1826.06982421875
 20
616.17877197265625
 42
0.41421356797218323
  0
VERTEX
  8
0
 10
1829.06982421875
 20
619.17877197265625
 42
-0
  0
VERTEX
  8
0
 10
1829.06982421875
 20
683.17877197265625
 42
0.41421356797218323
  0
VERTEX
  8
0
 10
1826.06982421875
 20
686.17877197265625
 42
-0
  0
VERTEX
  8
0
 10
1821.06982421875
 20
686.17877197265625
 42
-0.4087902307510376
  0
VERTEX
  8
0
 10
1744.31982421875
 20
748.51568603515625
 42
0.38162419199943542
  0
VERTEX
  8
0
 10
1741.3388671875
 20
751.17877197265625
 42
-0
  0
VERTEX
  8
0
 10
1712.06982421875
 20
751.17877197265625
 42
0.41421356797218323
  0
VERTEX
  8
0
 10
1709.06982421875
 20
748.17877197265625
 42
-0
  0
SEQEND
  0
POLYLINE
  8
0
 10
0
 20
0
 39
0
 70
1
 66
1
  0
VERTEX
  8
0
 10
2486.9267578125
 20
224.64999389648437
 42
0.41421356797218323
  0
VERTEX
  8
0
 10
2483.9267578125
 20
227.64999389648437
 42
-0
  0
VERTEX
  8
0
 10
2369.9267578125
 20
227.64999389648437
 42
0.41421356797218323
  0
VERTEX
  8
0
 10
2366.9267578125
 20
224.64999389648437
 42
-0
  0
VERTEX
  8
0
 10
2366.9267578125
 20
160.64999389648437
 42
0.41421356797218323
  0
VERTEX
  8
0
 10
2369.9267578125
 20
157.64999389648438
 42
-0
  0
VERTEX
  8
0
 10
2374.9267578125
 20
157.64999389648438
 42
-0.4087902307510376
  0
VERTEX
  8
0
 10
2451.6767578125
 20
95.3131103515625
 42
0.38162419199943542
  0
VERTEX
  8
0
 10
2454.65771484375
 20
92.650001525878906
 42
-0
  0
VERTEX
  8
0
 10
2483.9267578125
 20
92.650001525878906
 42
0.41421356797218323
  0
VERTEX
  8
0
 10
2486.9267578125
 20
95.650001525878906
 42
-0
  0
SEQEND
  0
POLYLINE
  8
0
 10
0
 20
0
 39
0
 70
1
 66
1
  0
VERTEX
  8
0
 10
2366.9267578125
 20
13
 42
0.41421356797218323
  0
VERTEX
  8
0
 10
2369.9267578125
 20
10
 42
-0
  0
VERTEX
  8
0
 10
2483.9267578125
 20
10
 42
0.41421356797218323
  0
VERTEX
  8
0
 10
2486.9267578125
 20
13
 42
-0
  0
VERTEX
  8
0
 10
2486.9267578125
 20
77
 42
0.41421356797218323
  0
VERTEX
  8
0
 10
2483.9267578125
 20
80
 42
-0
  0
VERTEX
  8
0
 10
2478.9267578125
 20
80
 42
-0.4087902307510376
  0
VERTEX
  8
0
 10
2402.176513671875
 20
142.33688354492187
 42
0.38162419199943542
  0
VERTEX
  8
0
 10
2399.195556640625
 20
145
 42
-0
  0
VERTEX
  8
0
 10
2369.9267578125
 20
145
 42
0.41421356797218323
  0
VERTEX
  8
0
 10
2366.9267578125
 20
142
 42
-0
  0
SEQEND
  0
POLYLINE
  8
0
 10
0
 20
0
 39
0
 70
1
 66
1
  0
VERTEX
  8
0
 10
2486.9267578125
 20
452.29998779296875
 42
0.41421356797218323
  0
VERTEX
  8
0
 10
2483.9267578125
 20
455.29998779296875
 42
-0
  0
VERTEX
  8
0
 10
2369.9267578125
 20
455.29998779296875
 42
0.41421356797218323
  0
VERTEX
  8
0
 10
2366.9267578125
 20
452.29998779296875
 42
-0
  0
VERTEX
  8
0
 10
2366.9267578125
 20
388.29998779296875
 42
0.41421356797218323
  0
VERTEX
  8
0
 10
2369.9267578125
 20
385.29998779296875
 42
-0
  0
VERTEX
  8
0
 10
2374.9267578125
 20
385.29998779296875
 42
-0.4087902307510376
  0
VERTEX
  8
0
 10
2451.6767578125
 20
322.96310424804687
 42
0.38162419199943542
  0
VERTEX
  8
0
 10
2454.65771484375
 20
320.29998779296875
 42
-0
  0
VERTEX
  8
0
 10
2483.9267578125
 20
320.29998779296875
 42
0.41421356797218323
  0
VERTEX
  8
0
 10
2486.9267578125
 20
323.29998779296875
 42
-0
  0
SEQEND
  0
POLYLINE
  8
0
 10
0
 20
0
 39
0
 70
1
 66
1
  0
VERTEX
  8
0
 10
2366.9267578125
 20
240.64999389648437
 42
0.41421356797218323
  0
VERTEX
  8
0
 10
2369.9267578125
 20
237.64999389648437
 42
-0
  0
VERTEX
  8
0
 10
2483.9267578125
 20
237.64999389648437
 42
0.41421356797218323
  0
VERTEX
  8
0
 10
2486.9267578125
 20
240.64999389648437
 42
-0
  0
VERTEX
  8
0
 10
2486.9267578125
 20
304.64999389648437
 42
0.41421356797218323
  0
VERTEX
  8
0
 10
2483.9267578125
 20
307.64999389648438
 42
-0
  0
VERTEX
  8
0
 10
2478.9267578125
 20
307.64999389648438
 42
-0.4087902307510376
  0
VERTEX
  8
0
 10
2402.176513671875
 20
369.98687744140625
 42
0.38162419199943542
  0
VERTEX
  8
0
 10
2399.195556640625
 20
372.64999389648437
 42
-0
  0
VERTEX
  8
0
 10
2369.9267578125
 20
372.64999389648437
 42
0.41421356797218323
  0
VERTEX
  8
0
 10
2366.9267578125
 20
369.64999389648437
 42
-0
  0
SEQEND
  0
POLYLINE
  8
0
 10
0
 20
0
 39
0
 70
1
 66
1
  0
VERTEX
  8
0
 10
2264.884765625
 20
855.45001220703125
 42
0
  0
VERTEX
  8
0
 10
2246.12109375
 20
822.95001220703125
 42
0
  0
VERTEX
  8
0
 10
2246.12109375
 20
817.95001220703125
 42
0
  0
VERTEX
  8
0
 10
2346.12109375
 20
817.95001220703125
 42
0.41421356797218323
  0
VERTEX
  8
0
 10
2361.12109375
 20
832.95001220703125
 42
0
  0
VERTEX
  8
0
 10
2361.12109375
 20
962.95001220703125
 42
0.41421356797218323
  0
VERTEX
  8
0
 10
2346.12109375
 20
977.95001220703125
 42
0
  0
VERTEX
  8
0
 10
2246.12109375
 20
977.95001220703125
 42
0
  0
VERTEX
  8
0
 10
2246.12109375
 20
972.95001220703125
 42
0
  0
VERTEX
  8
0
 10
2264.884765625
 20
940.45001220703125
 42
-0.26794919371604919
  0
SEQEND
  0
POLYLINE
  8
0
 10
0
 20
0
 39
0
 70
1
 66
1
  0
VERTEX
  8
0
 10
1814.8272705078125
 20
483.67877197265625
 42
0
  0
VERTEX
  8
0
 10
1796.0633544921875
 20
451.17877197265625
 42
0
  0
VERTEX
  8
0
 10
1796.0633544921875
 20
446.17877197265625
 42
0
  0
VERTEX
  8
0
 10
1896.0633544921875
 20
446.17877197265625
 42
0.41421356797218323
  0
VERTEX
  8
0
 10
1911.0633544921875
 20
461.17877197265625
 42
0
  0
VERTEX
  8
0
 10
1911.0633544921875
 20
591.17877197265625
 42
0.41421356797218323
  0
VERTEX
  8
0
 10
1896.0633544921875
 20
606.17877197265625
 42
0
  0
VERTEX
  8
0
 10
1796.0633544921875
 20
606.17877197265625
 42
0
  0
VERTEX
  8
0
 10
1796.0633544921875
 20
601.17877197265625
 42
0
  0
VERTEX
  8
0
 10
1814.8272705078125
 20
568.67877197265625
 42
-0.26794919371604919
  0
SEQEND
  0
POLYLINE
  8
0
 10
0
 20
0
 39
0
 70
1
 66
1
  0
VERTEX
  8
0
 10
1983.090576171875
 20
47.5
 42
0
  0
VERTEX
  8
0
 10
1964.32666015625
 20
15
 42
0
  0
VERTEX
  8
0
 10
1964.32666015625
 20
10
 42
0
  0
VERTEX
  8
0
 10
2064.32666015625
 20
10
 42
0.41421356797218323
  0
VERTEX
  8
0
 10
2079.32666015625
 20
25
 42
0
  0
VERTEX
  8
0
 10
2079.32666015625
 20
155
 42
0.41421356797218323
  0
VERTEX
  8
0
 10
2064.32666015625
 20
170
 42
0
  0
VERTEX
  8
0
 10
1964.32666015625
 20
170
 42
0
  0
VERTEX
  8
0
 10
1964.32666015625
 20
165
 42
0
  0
VERTEX
  8
0
 10
1983.090576171875
 20
132.5
 42
-0.26794919371604919
  0
SEQEND
  0
POLYLINE
  8
0
 10
0
 20
0
 39
0
 70
1
 66
1
  0
VERTEX
  8
0
 10
1689.8272705078125
 20
483.67877197265625
 42
0
  0
VERTEX
  8
0
 10
1671.0633544921875
 20
451.17877197265625
 42
0
  0
VERTEX
  8
0
 10
1671.0633544921875
 20
446.17877197265625
 42
0
  0
VERTEX
  8
0
 10
1771.0633544921875
 20
446.17877197265625
 42
0.41421356797218323
  0
VERTEX
  8
0
 10
1786.0633544921875
 20
461.17877197265625
 42
0
  0
VERTEX
  8
0
 10
1786.0633544921875
 20
591.17877197265625
 42
0.41421356797218323
  0
VERTEX
  8
0
 10
1771.0633544921875
 20
606.17877197265625
 42
0
  0
VERTEX
  8
0
 10
1671.0633544921875
 20
606.17877197265625
 42
0
  0
VERTEX
  8
0
 10
1671.0633544921875
 20
601.17877197265625
 42
0
  0
VERTEX
  8
0
 10
1689.8272705078125
 20
568.67877197265625
 42
-0.26794919371604919
  0
SEQEND
  0
POLYLINE
  8
0
 10
0
 20
0
 39
0
 70
1
 66
1
  0
VERTEX
  8
0
 10
323.6741943359375
 20
10.512296676635742
 42
0.44644454121589661
  0
VERTEX
  8
0
 10
423.26312255859375
 20
100.18257141113281
 42
-0
  0
VERTEX
  8
0
 10
422.99957275390625
 20
230.09767150878906
 42
0.52425891160964966
  0
VERTEX
  8
0
 10
143.23466491699219
 20
422.74468994140625
 42
0
  0
VERTEX
  8
0
 10
32.150074005126953
 20
322.72369384765625
 42
0.52425903081893921
  0
VERTEX
  8
0
 10
194.49833679199219
 20
24.354219436645508
 42
-0
  0
SEQEND
  0
POLYLINE
  8
0
 10
0
 20
0
 39
0
 70
1
 66
1
  0
VERTEX
  8
0
 10
2404.169921875
 20
711.7138671875
 42
0
  0
VERTEX
  8
0
 10
2436.669921875
 20
692.95001220703125
 42
0
  0
VERTEX
  8
0
 10
2441.669921875
 20
692.95001220703125
 42
0
  0
VERTEX
  8
0
 10
2441.669921875
 20
792.95001220703125
 42
0.41421356797218323
  0
VERTEX
  8
0
 10
2426.669921875
 20
807.95001220703125
 42
0
  0
VERTEX
  8
0
 10
2296.669921875
 20
807.95001220703125
 42
0.41421356797218323
  0
VERTEX
  8
0
 10
2281.669921875
 20
792.95001220703125
 42
0
  0
VERTEX
  8
0
 10
2281.669921875
 20
692.95001220703125
 42
0
  0
VERTEX
  8
0
 10
2286.669921875
 20
692.95001220703125
 42
0
  0
VERTEX
  8
0
 10
2319.169921875
 20
711.7138671875
 42
-0.26794919371604919
  0
SEQEND
  0
POLYLINE
  8
0
 10
0
 20
0
 39
0
 70
1
 66
1
  0
VERTEX
  8
0
 10
2234.169921875
 20
711.7138671875
 42
0
  0
VERTEX
  8
0
 10
2266.669921875
 20
692.95001220703125
 42
0
  0
VERTEX
  8
0
 10
2271.669921875
 20
692.95001220703125
 42
0
  0
VERTEX
  8
0
 10
2271.669921875
 20
792.95001220703125
 42
0.41421356797218323
  0
VERTEX
  8
0
 10
2256.669921875
 20
807.95001220703125
 42
0
  0
VERTEX
  8
0
 10
2126.669921875
 20
807.95001220703125
 42
0.41421356797218323
  0
VERTEX
  8
0
 10
2111.669921875
 20
792.95001220703125
 42
0
  0
VERTEX
  8
0
 10
2111.669921875
 20
692.95001220703125
 42
0
  0
VERTEX
  8
0
 10
2116.669921875
 20
692.95001220703125
 42
0
  0
VERTEX
  8
0
 10
2149.169921875
 20
711.7138671875
 42
-0.26794919371604919
  0
SEQEND
  0
POLYLINE
  8
0
 10
0
 20
0
 39
0
 70
1
 66
1
  0
VERTEX
  8
0
 10
1602.833740234375
 20
711.32879638671875
 42
0
  0
VERTEX
  8
0
 10
1584.06982421875
 20
678.82879638671875
 42
0
  0
VERTEX
  8
0
 10
1584.06982421875
 20
673.82879638671875
 42
0
  0
VERTEX
  8
0
 10
1684.06982421875
 20
673.82879638671875
 42
0.41421356797218323
  0
VERTEX
  8
0
 10
1699.06982421875
 20
688.82879638671875
 42
0
  0
VERTEX
  8
0
 10
1699.06982421875
 20
818.82879638671875
 42
0.41421356797218323
  0
VERTEX
  8
0
 10
1684.06982421875
 20
833.82879638671875
 42
0
  0
VERTEX
  8
0
 10
1584.06982421875
 20
833.82879638671875
 42
0
  0
VERTEX
  8
0
 10
1584.06982421875
 20
828.82879638671875
 42
0
  0
VERTEX
  8
0
 10
1602.833740234375
 20
796.32879638671875
 42
-0.26794919371604919
  0
SEQEND
  0
POLYLINE
  8
0
 10
0
 20
0
 39
0
 70
1
 66
1
  0
VERTEX
  8
0
 10
323.6741943359375
 20
446.69107055664062
 42
0.44644454121589661
  0
VERTEX
  8
0
 10
423.26312255859375
 20
536.361328125
 42
-0
  0
VERTEX
  8
0
 10
422.99957275390625
 20
666.2764892578125
 42
0.52425891160964966
  0
VERTEX
  8
0
 10
143.23466491699219
 20
858.9234619140625
 42
0
  0
VERTEX
  8
0
 10
32.150074005126953
 20
758.9024658203125
 42
0.52425903081893921
  0
VERTEX
  8
0
 10
194.49833679199219
 20
460.53298950195312
 42
-0
  0
SEQEND
  0
POLYLINE
  8
0
 10
0
 20
0
 39
0
 70
1
 66
1
  0
VERTEX
  8
0
 10
746.9375
 20
10.512296676635742
 42
0.44644454121589661
  0
VERTEX
  8
0
 10
846.52642822265625
 20
100.18257141113281
 42
-0
  0
VERTEX
  8
0
 10
846.26287841796875
 20
230.09767150878906
 42
0.52425891160964966
  0
VERTEX
  8
0
 10
566.49798583984375
 20
422.74468994140625
 42
0
  0
VERTEX
  8
0
 10
455.41336059570312
 20
322.72369384765625
 42
0.52425903081893921
  0
VERTEX
  8
0
 10
617.76165771484375
 20
24.354219436645508
 42
-0
  0
SEQEND
  0
POLYLINE
  8
0
 10
0
 20
0
 39
0
 70
1
 66
1
  0
VERTEX
  8
0
 10
1295.8770751953125
 20
951.5262451171875
 42
0.28045684099197388
  0
VERTEX
  8
0
 10
1260.63671875
 20
973.63409423828125
 42
-0
  0
VERTEX
  8
0
 10
1168.868408203125
 20
974.86566162109375
 42
0.41814959049224854
  0
VERTEX
  8
0
 10
1148.5999755859375
 20
954.86749267578125
 42
0
  0
VERTEX
  8
0
 10
1148.5999755859375
 20
896
 42
0.44050243496894836
  0
VERTEX
  8
0
 10
1170.3759765625
 20
876.07904052734375
 42
0
  0
VERTEX
  8
0
 10
1268.15185546875
 20
884.79571533203125
 42
0.52875018119812012
  0
VERTEX
  8
0
 10
1300.3770751953125
 20
942.5262451171875
 42
-0
  0
SEQEND
  0
POLYLINE
  8
0
 10
0
 20
0
 39
0
 70
1
 66
1
  0
VERTEX
  8
0
 10
1280.8087158203125
 20
857.277099609375
 42
0.28045684099197388
  0
VERTEX
  8
0
 10
1258.7008056640625
 20
822.03680419921875
 42
-0
  0
VERTEX
  8
0
 10
1257.46923828125
 20
730.2684326171875
 42
0.41814959049224854
  0
VERTEX
  8
0
 10
1277.4674072265625
 20
710
 42
0
  0
VERTEX
  8
0
 10
1336.3349609375
 20
710
 42
0.44050243496894836
  0
VERTEX
  8
0
 10
1356.2559814453125
 20
731.7760009765625
 42
0
  0
VERTEX
  8
0
 10
1347.5391845703125
 20
829.55194091796875
 42
0.52875018119812012
  0
VERTEX
  8
0
 10
1289.8087158203125
 20
861.777099609375
 42
-0
  0
SEQEND
  0
POLYLINE
  8
0
 10
0
 20
0
 39
0
 70
1
 66
1
  0
VERTEX
  8
0
 10
2390.433837890625
 20
502.79998779296875
 42
0
  0
VERTEX
  8
0
 10
2371.669921875
 20
470.29998779296875
 42
0
  0
VERTEX
  8
0
 10
2371.669921875
 20
465.29998779296875
 42
0
  0
VERTEX
  8
0
 10
2471.669921875
 20
465.29998779296875
 42
0.41421356797218323
  0
VERTEX
  8
0
 10
2486.669921875
 20
480.29998779296875
 42
0
  0
VERTEX
  8
0
 10
2486.669921875
 20
610.29998779296875
 42
0.41421356797218323
  0
VERTEX
  8
0
 10
2471.669921875
 20
625.29998779296875
 42
0
  0
VERTEX
  8
0
 10
2371.669921875
 20
625.29998779296875
 42
0
  0
VERTEX
  8
0
 10
2371.669921875
 20
620.29998779296875
 42
0
  0
VERTEX
  8
0
 10
2390.433837890625
 20
587.79998779296875
 42
-0.26794919371604919
  0
SEQEND
  0
POLYLINE
  8
0
 10
0
 20
0
 39
0
 70
1
 66
1
  0
VERTEX
  8
0
 10
2394.462158203125
 20
965.22711181640625
 42
0.28045684099197388
  0
VERTEX
  8
0
 10
2372.3544921875
 20
929.98675537109375
 42
-0
  0
VERTEX
  8
0
 10
2371.122802734375
 20
838.2183837890625
 42
0.41814959049224854
  0
VERTEX
  8
0
 10
2391.12109375
 20
817.95001220703125
 42
0
  0
VERTEX
  8
0
 10
2449.988525390625
 20
817.95001220703125
 42
0.44050243496894836
  0
VERTEX
  8
0
 10
2469.909423828125
 20
839.7259521484375
 42
0
  0
VERTEX
  8
0
 10
2461.19287109375
 20
937.50189208984375
 42
0.52875018119812012
  0
VERTEX
  8
0
 10
2403.462158203125
 20
969.72711181640625
 42
-0
  0
SEQEND
  0
POLYLINE
  8
0
 10
0
 20
0
 39
0
 70
1
 66
1
  0
VERTEX
  8
0
 10
1939.8272705078125
 20
483.67877197265625
 42
0
  0
VERTEX
  8
0
 10
1921.0633544921875
 20
451.17877197265625
 42
0
  0
VERTEX
  8
0
 10
1921.0633544921875
 20
446.17877197265625
 42
0
  0
VERTEX
  8
0
 10
2021.0633544921875
 20
446.17877197265625
 42
0.41421356797218323
  0
VERTEX
  8
0
 10
2036.0633544921875
 20
461.17877197265625
 42
0
  0
VERTEX
  8
0
 10
2036.0633544921875
 20
591.17877197265625
 42
0.41421356797218323
  0
VERTEX
  8
0
 10
2021.0633544921875
 20
606.17877197265625
 42
0
  0
VERTEX
  8
0
 10
1921.0633544921875
 20
606.17877197265625
 42
0
  0
VERTEX
  8
0
 10
1921.0633544921875
 20
601.17877197265625
 42
0
  0
VERTEX
  8
0
 10
1939.8272705078125
 20
568.67877197265625
 42
-0.26794919371604919
  0
SEQEND
  0
POLYLINE
  8
0
 10
0
 20
0
 39
0
 70
1
 66
1
  0
VERTEX
  8
0
 10
1983.8604736328125
 20
862.5926513671875
 42
0
  0
VERTEX
  8
0
 10
2016.3604736328125
 20
843.82879638671875
 42
0
  0
VERTEX
  8
0
 10
2021.3604736328125
 20
843.82879638671875
 42
0
  0
VERTEX
  8
0
 10
2021.3604736328125
 20
943.82879638671875
 42
0.41421356797218323
  0
VERTEX
  8
0
 10
2006.3604736328125
 20
958.82879638671875
 42
0
  0
VERTEX
  8
0
 10
1876.3604736328125
 20
958.82879638671875
 42
0.41421356797218323
  0
VERTEX
  8
0
 10
1861.3604736328125
 20
943.82879638671875
 42
0
  0
VERTEX
  8
0
 10
1861.3604736328125
 20
843.82879638671875
 42
0
  0
VERTEX
  8
0
 10
1866.3604736328125
 20
843.82879638671875
 42
0
  0
VERTEX
  8
0
 10
1898.8604736328125
 20
862.5926513671875
 42
-0.26794919371604919
  0
SEQEND
  0
POLYLINE
  8
0
 10
0
 20
0
 39
0
 70
1
 66
1
  0
VERTEX
  8
0
 10
489.27706909179687
 20
957.8837890625
 42
0.28045684099197388
  0
VERTEX
  8
0
 10
454.03677368164062
 20
979.99163818359375
 42
-0
  0
VERTEX
  8
0
 10
362.26837158203125
 20
981.2232666015625
 42
0.41814959049224854
  0
VERTEX
  8
0
 10
342
 20
961.22503662109375
 42
0
  0
VERTEX
  8
0
 10
342
 20
902.3575439453125
 42
0.44050243496894836
  0
VERTEX
  8
0
 10
363.77593994140625
 20
882.43658447265625
 42
0
  0
VERTEX
  8
0
 10
461.55191040039062
 20
891.15325927734375
 42
0.52875018119812012
  0
VERTEX
  8
0
 10
493.77706909179687
 20
948.8837890625
 42
-0
  0
SEQEND
  0
POLYLINE
  8
0
 10
0
 20
0
 39
0
 70
1
 66
1
  0
VERTEX
  8
0
 10
1854.737548828125
 20
10.512296676635742
 42
0.44644454121589661
  0
VERTEX
  8
0
 10
1954.326416015625
 20
100.18257141113281
 42
-0
  0
VERTEX
  8
0
 10
1954.06298828125
 20
230.09767150878906
 42
0.52425891160964966
  0
VERTEX
  8
0
 10
1674.2979736328125
 20
422.74468994140625
 42
0
  0
VERTEX
  8
0
 10
1563.21337890625
 20
322.72369384765625
 42
0.52425903081893921
  0
VERTEX
  8
0
 10
1725.5616455078125
 20
24.354219436645508
 42
-0
  0
SEQEND
  0
POLYLINE
  8
0
 10
0
 20
0
 39
0
 70
1
 66
1
  0
VERTEX
  8
0
 10
523.297119140625
 20
784.0689697265625
 42
-0.078318998217582703
  0
VERTEX
  8
0
 10
543.20806884765625
 20
794.50579833984375
 42
0.14564000070095062
  0
VERTEX
  8
0
 10
565.86328125
 20
807.40478515625
 42
-0
  0
VERTEX
  8
0
 10
565.86328125
 20
822.32281494140625
 42
0.15331900119781494
  0
VERTEX
  8
0
 10
540.614501953125
 20
832.92138671875
 42
-0.084683999419212341
  0
VERTEX
  8
0
 10
517.881103515625
 20
841.456298828125
 42
-0.21670499444007874
  0
VERTEX
  8
0
 10
507.27142333984375
 20
858.45269775390625
 42
-0
  0
VERTEX
  8
0
 10
506.28662109375
 20
865.69976806640625
 42
-0
  0
VERTEX
  8
0
 10
433.2633056640625
 20
855.68621826171875
 42
-0
  0
VERTEX
  8
0
 10
433.2633056640625
 20
670.95281982421875
 42
-0
  0
VERTEX
  8
0
 10
506.28662109375
 20
660.93927001953125
 42
-0
  0
VERTEX
  8
0
 10
507.27142333984375
 20
668.18609619140625
 42
-0.21670499444007874
  0
VERTEX
  8
0
 10
517.881103515625
 20
685.18316650390625
 42
-0.084683999419212341
  0
VERTEX
  8
0
 10
540.61444091796875
 20
693.71746826171875
 42
0.15331900119781494
  0
VERTEX
  8
0
 10
565.86328125
 20
704.316162109375
 42
-0
  0
VERTEX
  8
0
 10
565.86328125
 20
719.23455810546875
 42
0.14564000070095062
  0
VERTEX
  8
0
 10
543.20806884765625
 20
732.1334228515625
 42
-0.075286000967025757
  0
VERTEX
  8
0
 10
523.9991455078125
 20
742.05511474609375
 42
-0.26006799936294556
  0
VERTEX
  8
0
 10
513.809814453125
 20
763.31951904296875
 42
-0.25048500299453735
  0
SEQEND
  0
POLYLINE
  8
0
 10
0
 20
0
 39
0
 70
1
 66
1
  0
VERTEX
  8
0
 10
1185.8699951171875
 20
170.29434204101562
 42
1.0934768915176392
  0
VERTEX
  8
0
 10
857.1832275390625
 20
170.2943115234375
 42
-0
  0
VERTEX
  8
0
 10
871.526611328125
 20
10
 42
0
  0
VERTEX
  8
0
 10
1171.526611328125
 20
10
 42
0
  0
SEQEND
  0
POLYLINE
  8
0
 10
0
 20
0
 39
0
 70
1
 66
1
  0
VERTEX
  8
0
 10
1728.2308349609375
 20
933.862548828125
 42
-0.078318998217582703
  0
VERTEX
  8
0
 10
1717.7939453125
 20
953.7735595703125
 42
0.14564000070095062
  0
VERTEX
  8
0
 10
1704.89501953125
 20
976.42877197265625
 42
-0
  0
VERTEX
  8
0
 10
1689.9769287109375
 20
976.42877197265625
 42
0.15331900119781494
  0
VERTEX
  8
0
 10
1679.37841796875
 20
951.17999267578125
 42
-0.084683999419212341
  0
VERTEX
  8
0
 10
1670.843505859375
 20
928.44659423828125
 42
-0.21670499444007874
  0
VERTEX
  8
0
 10
1653.8470458984375
 20
917.8369140625
 42
-0
  0
VERTEX
  8
0
 10
1646.5999755859375
 20
916.85211181640625
 42
-0
  0
VERTEX
  8
0
 10
1656.613525390625
 20
843.82879638671875
 42
-0
  0
VERTEX
  8
0
 10
1841.346923828125
 20
843.82879638671875
 42
-0
  0
VERTEX
  8
0
 10
1851.3604736328125
 20
916.85211181640625
 42
-0
  0
VERTEX
  8
0
 10
1844.1136474609375
 20
917.8369140625
 42
-0.21670499444007874
  0
VERTEX
  8
0
 10
1827.1165771484375
 20
928.44659423828125
 42
-0.084683999419212341
  0
VERTEX
  8
0
 10
1818.582275390625
 20
951.179931640625
 42
0.15331900119781494
  0
VERTEX
  8
0
 10
1807.983642578125
 20
976.42877197265625
 42
-0
  0
VERTEX
  8
0
 10
1793.065185546875
 20
976.42877197265625
 42
0.14564000070095062
  0
VERTEX
  8
0
 10
1780.166259765625
 20
953.7735595703125
 42
-0.075286000967025757
  0
VERTEX
  8
0
 10
1770.24462890625
 20
934.56463623046875
 42
-0.26006799936294556
  0
VERTEX
  8
0
 10
1748.980224609375
 20
924.37530517578125
 42
-0.25048500299453735
  0
SEQEND
  0
POLYLINE
  8
0
 10
0
 20
0
 39
0
 70
1
 66
1
  0
VERTEX
  8
0
 10
2059.103759765625
 20
739.3084716796875
 42
-0.078318998217582703
  0
VERTEX
  8
0
 10
2079.0146484375
 20
749.74530029296875
 42
0.14564000070095062
  0
VERTEX
  8
0
 10
2101.669921875
 20
762.644287109375
 42
-0
  0
VERTEX
  8
0
 10
2101.669921875
 20
777.56231689453125
 42
0.15331900119781494
  0
VERTEX
  8
0
 10
2076.421142578125
 20
788.160888671875
 42
-0.084683999419212341
  0
VERTEX
  8
0
 10
2053.687744140625
 20
796.69580078125
 42
-0.21670499444007874
  0
VERTEX
  8
0
 10
2043.0780029296875
 20
813.69219970703125
 42
-0
  0
VERTEX
  8
0
 10
2042.09326171875
 20
820.93927001953125
 42
-0
  0
VERTEX
  8
0
 10
1969.06982421875
 20
810.92572021484375
 42
-0
  0
VERTEX
  8
0
 10
1969.06982421875
 20
626.19232177734375
 42
-0
  0
VERTEX
  8
0
 10
2042.0931396484375
 20
616.17877197265625
 42
-0
  0
VERTEX
  8
0
 10
2043.0780029296875
 20
623.42559814453125
 42
-0.21670499444007874
  0
VERTEX
  8
0
 10
2053.687744140625
 20
640.42266845703125
 42
-0.084683999419212341
  0
VERTEX
  8
0
 10
2076.421142578125
 20
648.95697021484375
 42
0.15331900119781494
  0
VERTEX
  8
0
 10
2101.669921875
 20
659.5556640625
 42
-0
  0
VERTEX
  8
0
 10
2101.669921875
 20
674.47406005859375
 42
0.14564000070095062
  0
VERTEX
  8
0
 10
2079.0146484375
 20
687.3729248046875
 42
-0.075286000967025757
  0
VERTEX
  8
0
 10
2059.8056640625
 20
697.29461669921875
 42
-0.26006799936294556
  0
VERTEX
  8
0
 10
2049.616455078125
 20
718.55902099609375
 42
-0.25048500299453735
  0
SEQEND
  0
POLYLINE
  8
0
 10
0
 20
0
 39
0
 70
1
 66
1
  0
VERTEX
  8
0
 10
655.277099609375
 20
951.22601318359375
 42
0.28045684099197388
  0
VERTEX
  8
0
 10
620.0367431640625
 20
973.3338623046875
 42
-0
  0
VERTEX
  8
0
 10
528.26837158203125
 20
974.5654296875
 42
0.41814959049224854
  0
VERTEX
  8
0
 10
508
 20
954.5672607421875
 42
0
  0
VERTEX
  8
0
 10
508
 20
895.69976806640625
 42
0.44050243496894836
  0
VERTEX
  8
0
 10
529.77593994140625
 20
875.77880859375
 42
0
  0
VERTEX
  8
0
 10
627.5518798828125
 20
884.4954833984375
 42
0.52875018119812012
  0
VERTEX
  8
0
 10
659.777099609375
 20
942.22601318359375
 42
-0
  0
SEQEND
  0
POLYLINE
  8
0
 10
0
 20
0
 39
0
 70
1
 66
1
  0
VERTEX
  8
0
 10
2356.9267578125
 20
452.29998779296875
 42
0.41421356797218323
  0
VERTEX
  8
0
 10
2353.9267578125
 20
455.29998779296875
 42
-0
  0
VERTEX
  8
0
 10
2239.9267578125
 20
455.29998779296875
 42
0.41421356797218323
  0
VERTEX
  8
0
 10
2236.9267578125
 20
452.29998779296875
 42
-0
  0
VERTEX
  8
0
 10
2236.9267578125
 20
388.29998779296875
 42
0.41421356797218323
  0
VERTEX
  8
0
 10
2239.9267578125
 20
385.29998779296875
 42
-0
  0
VERTEX
  8
0
 10
2244.9267578125
 20
385.29998779296875
 42
-0.4087902307510376
  0
VERTEX
  8
0
 10
2321.6767578125
 20
322.96310424804687
 42
0.38162419199943542
  0
VERTEX
  8
0
 10
2324.65771484375
 20
320.29998779296875
 42
-0
  0
VERTEX
  8
0
 10
2353.9267578125
 20
320.29998779296875
 42
0.41421356797218323
  0
VERTEX
  8
0
 10
2356.9267578125
 20
323.29998779296875
 42
-0
  0
SEQEND
  0
POLYLINE
  8
0
 10
0
 20
0
 39
0
 70
1
 66
1
  0
VERTEX
  8
0
 10
2236.9267578125
 20
240.64999389648437
 42
0.41421356797218323
  0
VERTEX
  8
0
 10
2239.9267578125
 20
237.64999389648437
 42
-0
  0
VERTEX
  8
0
 10
2353.9267578125
 20
237.64999389648437
 42
0.41421356797218323
  0
VERTEX
  8
0
 10
2356.9267578125
 20
240.64999389648437
 42
-0
  0
VERTEX
  8
0
 10
2356.9267578125
 20
304.64999389648437
 42
0.41421356797218323
  0
VERTEX
  8
0
 10
2353.9267578125
 20
307.64999389648438
 42
-0
  0
VERTEX
  8
0
 10
2348.9267578125
 20
307.64999389648438
 42
-0.4087902307510376
  0
VERTEX
  8
0
 10
2272.176513671875
 20
369.98687744140625
 42
0.38162419199943542
  0
VERTEX
  8
0
 10
2269.195556640625
 20
372.64999389648437
 42
-0
  0
VERTEX
  8
0
 10
2239.9267578125
 20
372.64999389648437
 42
0.41421356797218323
  0
VERTEX
  8
0
 10
2236.9267578125
 20
369.64999389648437
 42
-0
  0
SEQEND
  0
POLYLINE
  8
0
 10
0
 20
0
 39
0
 70
1
 66
1
  0
VERTEX
  8
0
 10
665.8970947265625
 20
784.0689697265625
 42
-0.078318998217582703
  0
VERTEX
  8
0
 10
685.80804443359375
 20
794.50579833984375
 42
0.14564000070095062
  0
VERTEX
  8
0
 10
708.46331787109375
 20
807.40478515625
 42
-0
  0
VERTEX
  8
0
 10
708.46331787109375
 20
822.32281494140625
 42
0.15331900119781494
  0
VERTEX
  8
0
 10
683.2144775390625
 20
832.92138671875
 42
-0.084683999419212341
  0
VERTEX
  8
0
 10
660.48114013671875
 20
841.456298828125
 42
-0.21670499444007874
  0
VERTEX
  8
0
 10
649.8714599609375
 20
858.45269775390625
 42
-0
  0
VERTEX
  8
0
 10
648.88665771484375
 20
865.69976806640625
 42
-0
  0
VERTEX
  8
0
 10
575.86328125
 20
855.68621826171875
 42
-0
  0
VERTEX
  8
0
 10
575.86328125
 20
670.95281982421875
 42
-0
  0
VERTEX
  8
0
 10
648.8865966796875
 20
660.93927001953125
 42
-0
  0
VERTEX
  8
0
 10
649.8714599609375
 20
668.18609619140625
 42
-0.21670499444007874
  0
VERTEX
  8
0
 10
660.48114013671875
 20
685.18316650390625
 42
-0.084683999419212341
  0
VERTEX
  8
0
 10
683.2144775390625
 20
693.71746826171875
 42
0.15331900119781494
  0
VERTEX
  8
0
 10
708.46331787109375
 20
704.316162109375
 42
-0
  0
VERTEX
  8
0
 10
708.46331787109375
 20
719.23455810546875
 42
0.14564000070095062
  0
VERTEX
  8
0
 10
685.80804443359375
 20
732.1334228515625
 42
-0.075286000967025757
  0
VERTEX
  8
0
 10
666.59912109375
 20
742.05511474609375
 42
-0.26006799936294556
  0
VERTEX
  8
0
 10
656.40985107421875
 20
763.31951904296875
 42
-0.25048500299453735
  0
SEQEND
  0
POLYLINE
  8
0
 10
0
 20
0
 39
0
 70
1
 66
1
  0
VERTEX
  8
0
 10
2112.9912109375
 20
920.97308349609375
 42
-0.078318998217582703
  0
VERTEX
  8
0
 10
2102.554443359375
 20
940.884033203125
 42
0.14564000070095062
  0
VERTEX
  8
0
 10
2089.655517578125
 20
963.539306640625
 42
-0
  0
VERTEX
  8
0
 10
2074.737548828125
 20
963.539306640625
 42
0.15331900119781494
  0
VERTEX
  8
0
 10
2064.138916015625
 20
938.29046630859375
 42
-0.084683999419212341
  0
VERTEX
  8
0
 10
2055.60400390625
 20
915.55706787109375
 42
-0.21670499444007874
  0
VERTEX
  8
0
 10
2038.6075439453125
 20
904.9473876953125
 42
-0
  0
VERTEX
  8
0
 10
2031.3604736328125
 20
903.96258544921875
 42
-0
  0
VERTEX
  8
0
 10
2041.3740234375
 20
830.93927001953125
 42
-0
  0
VERTEX
  8
0
 10
2226.107421875
 20
830.93927001953125
 42
-0
  0
VERTEX
  8
0
 10
2236.12109375
 20
903.96258544921875
 42
-0
  0
VERTEX
  8
0
 10
2228.874267578125
 20
904.9473876953125
 42
-0.21670499444007874
  0
VERTEX
  8
0
 10
2211.877197265625
 20
915.55706787109375
 42
-0.084683999419212341
  0
VERTEX
  8
0
 10
2203.3427734375
 20
938.29046630859375
 42
0.15331900119781494
  0
VERTEX
  8
0
 10
2192.744140625
 20
963.539306640625
 42
-0
  0
VERTEX
  8
0
 10
2177.82568359375
 20
963.539306640625
 42
0.14564000070095062
  0
VERTEX
  8
0
 10
2164.9267578125
 20
940.884033203125
 42
-0.075286000967025757
  0
VERTEX
  8
0
 10
2155.005126953125
 20
921.67510986328125
 42
-0.26006799936294556
  0
VERTEX
  8
0
 10
2133.74072265625
 20
911.48583984375
 42
-0.25048500299453735
  0
SEQEND
  0
POLYLINE
  8
0
 10
0
 20
0
 39
0
 70
1
 66
1
  0
VERTEX
  8
0
 10
2054.3603515625
 20
303.12969970703125
 42
-0.078318998217582703
  0
VERTEX
  8
0
 10
2074.271484375
 20
313.5665283203125
 42
0.14564000070095062
  0
VERTEX
  8
0
 10
2096.9267578125
 20
326.46551513671875
 42
-0
  0
VERTEX
  8
0
 10
2096.9267578125
 20
341.38351440429687
 42
0.15331900119781494
  0
VERTEX
  8
0
 10
2071.677734375
 20
351.98208618164062
 42
-0.084683999419212341
  0
VERTEX
  8
0
 10
2048.9443359375
 20
360.51699829101562
 42
-0.21670499444007874
  0
VERTEX
  8
0
 10
2038.334716796875
 20
377.513427734375
 42
-0
  0
VERTEX
  8
0
 10
2037.3499755859375
 20
384.760498046875
 42
-0
  0
VERTEX
  8
0
 10
1964.32666015625
 20
374.7469482421875
 42
-0
  0
VERTEX
  8
0
 10
1964.32666015625
 20
190.01356506347656
 42
-0
  0
VERTEX
  8
0
 10
2037.3499755859375
 20
180
 42
-0
  0
VERTEX
  8
0
 10
2038.3348388671875
 20
187.246826171875
 42
-0.21670499444007874
  0
VERTEX
  8
0
 10
2048.9443359375
 20
204.243896484375
 42
-0.084683999419212341
  0
VERTEX
  8
0
 10
2071.677734375
 20
212.7781982421875
 42
0.15331900119781494
  0
VERTEX
  8
0
 10
2096.9267578125
 20
223.37689208984375
 42
-0
  0
VERTEX
  8
0
 10
2096.9267578125
 20
238.2952880859375
 42
0.14564000070095062
  0
VERTEX
  8
0
 10
2074.271484375
 20
251.19416809082031
 42
-0.075286000967025757
  0
VERTEX
  8
0
 10
2055.0625
 20
261.1158447265625
 42
-0.26006799936294556
  0
VERTEX
  8
0
 10
2044.8731689453125
 20
282.3802490234375
 42
-0.25048500299453735
  0
SEQEND
  0
POLYLINE
  8
0
 10
0
 20
0
 39
0
 70
1
 66
1
  0
VERTEX
  8
0
 10
1389.6761474609375
 20
857.277099609375
 42
0.28045684099197388
  0
VERTEX
  8
0
 10
1367.568359375
 20
822.03680419921875
 42
-0
  0
VERTEX
  8
0
 10
1366.3367919921875
 20
730.2684326171875
 42
0.41814959049224854
  0
VERTEX
  8
0
 10
1386.3349609375
 20
710
 42
0
  0
VERTEX
  8
0
 10
1445.202392578125
 20
710
 42
0.44050243496894836
  0
VERTEX
  8
0
 10
1465.1234130859375
 20
731.7760009765625
 42
0
  0
VERTEX
  8
0
 10
1456.40673828125
 20
829.55194091796875
 42
0.52875018119812012
  0
VERTEX
  8
0
 10
1398.6761474609375
 20
861.777099609375
 42
-0
  0
SEQEND
  0
POLYLINE
  8
0
 10
0
 20
0
 39
0
 70
1
 66
1
  0
VERTEX
  8
0
 10
323.27706909179687
 20
957.8837890625
 42
0.28045684099197388
  0
VERTEX
  8
0
 10
288.03677368164062
 20
979.99163818359375
 42
-0
  0
VERTEX
  8
0
 10
196.26838684082031
 20
981.2232666015625
 42
0.41814959049224854
  0
VERTEX
  8
0
 10
176
 20
961.22503662109375
 42
0
  0
VERTEX
  8
0
 10
176
 20
902.3575439453125
 42
0.44050243496894836
  0
VERTEX
  8
0
 10
197.77593994140625
 20
882.43658447265625
 42
0
  0
VERTEX
  8
0
 10
295.55191040039062
 20
891.15325927734375
 42
0.52875018119812012
  0
VERTEX
  8
0
 10
327.77706909179687
 20
948.8837890625
 42
-0
  0
SEQEND
  0
POLYLINE
  8
0
 10
0
 20
0
 39
0
 70
1
 66
1
  0
VERTEX
  8
0
 10
665.8970947265625
 20
569.3084716796875
 42
-0.078318998217582703
  0
VERTEX
  8
0
 10
685.80804443359375
 20
579.74530029296875
 42
0.14564000070095062
  0
VERTEX
  8
0
 10
708.46331787109375
 20
592.644287109375
 42
-0
  0
VERTEX
  8
0
 10
708.46331787109375
 20
607.56231689453125
 42
0.15331900119781494
  0
VERTEX
  8
0
 10
683.2144775390625
 20
618.160888671875
 42
-0.084683999419212341
  0
VERTEX
  8
0
 10
660.48114013671875
 20
626.69580078125
 42
-0.21670499444007874
  0
VERTEX
  8
0
 10
649.8714599609375
 20
643.69219970703125
 42
-0
  0
VERTEX
  8
0
 10
648.88665771484375
 20
650.93927001953125
 42
-0
  0
VERTEX
  8
0
 10
575.86328125
 20
640.92572021484375
 42
-0
  0
VERTEX
  8
0
 10
575.86328125
 20
456.19235229492187
 42
-0
  0
VERTEX
  8
0
 10
648.8865966796875
 20
446.17877197265625
 42
-0
  0
VERTEX
  8
0
 10
649.8714599609375
 20
453.42559814453125
 42
-0.21670499444007874
  0
VERTEX
  8
0
 10
660.48114013671875
 20
470.42266845703125
 42
-0.084683999419212341
  0
VERTEX
  8
0
 10
683.2144775390625
 20
478.95697021484375
 42
0.15331900119781494
  0
VERTEX
  8
0
 10
708.46331787109375
 20
489.5556640625
 42
-0
  0
VERTEX
  8
0
 10
708.46331787109375
 20
504.47406005859375
 42
0.14564000070095062
  0
VERTEX
  8
0
 10
685.80804443359375
 20
517.3729248046875
 42
-0.075286000967025757
  0
VERTEX
  8
0
 10
666.59912109375
 20
527.29461669921875
 42
-0.26006799936294556
  0
VERTEX
  8
0
 10
656.40985107421875
 20
548.55902099609375
 42
-0.25048500299453735
  0
SEQEND
  0
POLYLINE
  8
0
 10
0
 20
0
 39
0
 70
1
 66
1
  0
VERTEX
  8
0
 10
523.297119140625
 20
569.3084716796875
 42
-0.078318998217582703
  0
VERTEX
  8
0
 10
543.20806884765625
 20
579.74530029296875
 42
0.14564000070095062
  0
VERTEX
  8
0
 10
565.86328125
 20
592.644287109375
 42
-0
  0
VERTEX
  8
0
 10
565.86328125
 20
607.56231689453125
 42
0.15331900119781494
  0
VERTEX
  8
0
 10
540.614501953125
 20
618.160888671875
 42
-0.084683999419212341
  0
VERTEX
  8
0
 10
517.881103515625
 20
626.69580078125
 42
-0.21670499444007874
  0
VERTEX
  8
0
 10
507.27142333984375
 20
643.69219970703125
 42
-0
  0
VERTEX
  8
0
 10
506.28662109375
 20
650.93927001953125
 42
-0
  0
VERTEX
  8
0
 10
433.2633056640625
 20
640.92572021484375
 42
-0
  0
VERTEX
  8
0
 10
433.2633056640625
 20
456.19235229492187
 42
-0
  0
VERTEX
  8
0
 10
506.28662109375
 20
446.17877197265625
 42
-0
  0
VERTEX
  8
0
 10
507.27142333984375
 20
453.42559814453125
 42
-0.21670499444007874
  0
VERTEX
  8
0
 10
517.881103515625
 20
470.42266845703125
 42
-0.084683999419212341
  0
VERTEX
  8
0
 10
540.61444091796875
 20
478.95697021484375
 42
0.15331900119781494
  0
VERTEX
  8
0
 10
565.86328125
 20
489.5556640625
 42
-0
  0
VERTEX
  8
0
 10
565.86328125
 20
504.47406005859375
 42
0.14564000070095062
  0
VERTEX
  8
0
 10
543.20806884765625
 20
517.3729248046875
 42
-0.075286000967025757
  0
VERTEX
  8
0
 10
523.9991455078125
 20
527.29461669921875
 42
-0.26006799936294556
  0
VERTEX
  8
0
 10
513.809814453125
 20
548.55902099609375
 42
-0.25048500299453735
  0
SEQEND
  0
POLYLINE
  8
0
 10
0
 20
0
 39
0
 70
1
 66
1
  0
VERTEX
  8
0
 10
821.277099609375
 20
951.5262451171875
 42
0.28045684099197388
  0
VERTEX
  8
0
 10
786.0367431640625
 20
973.63409423828125
 42
-0
  0
VERTEX
  8
0
 10
694.26837158203125
 20
974.86566162109375
 42
0.41814959049224854
  0
VERTEX
  8
0
 10
674
 20
954.86749267578125
 42
0
  0
VERTEX
  8
0
 10
674
 20
896
 42
0.44050243496894836
  0
VERTEX
  8
0
 10
695.77593994140625
 20
876.07904052734375
 42
0
  0
VERTEX
  8
0
 10
793.5518798828125
 20
884.79571533203125
 42
0.52875018119812012
  0
VERTEX
  8
0
 10
825.777099609375
 20
942.5262451171875
 42
-0
  0
SEQEND
  0
POLYLINE
  8
0
 10
0
 20
0
 39
0
 70
1
 66
1
  0
VERTEX
  8
0
 10
1461.8770751953125
 20
951.5262451171875
 42
0.28045684099197388
  0
VERTEX
  8
0
 10
1426.63671875
 20
973.63409423828125
 42
-0
  0
VERTEX
  8
0
 10
1334.868408203125
 20
974.86566162109375
 42
0.41814959049224854
  0
VERTEX
  8
0
 10
1314.5999755859375
 20
954.86749267578125
 42
0
  0
VERTEX
  8
0
 10
1314.5999755859375
 20
896
 42
0.44050243496894836
  0
VERTEX
  8
0
 10
1336.3759765625
 20
876.07904052734375
 42
0
  0
VERTEX
  8
0
 10
1434.15185546875
 20
884.79571533203125
 42
0.52875018119812012
  0
VERTEX
  8
0
 10
1466.3770751953125
 20
942.5262451171875
 42
-0
  0
SEQEND
  0
POLYLINE
  8
0
 10
0
 20
0
 39
0
 70
1
 66
1
  0
VERTEX
  8
0
 10
1525.8699951171875
 20
170.29434204101562
 42
1.0934768915176392
  0
VERTEX
  8
0
 10
1197.1832275390625
 20
170.2943115234375
 42
-0
  0
VERTEX
  8
0
 10
1211.526611328125
 20
10
 42
0
  0
VERTEX
  8
0
 10
1511.526611328125
 20
10
 42
0
  0
SEQEND
  0
POLYLINE
  8
0
 10
0
 20
0
 39
0
 70
1
 66
1
  0
VERTEX
  8
0
 10
1171.9412841796875
 20
857.277099609375
 42
0.28045684099197388
  0
VERTEX
  8
0
 10
1149.8333740234375
 20
822.03680419921875
 42
-0
  0
VERTEX
  8
0
 10
1148.601806640625
 20
730.2684326171875
 42
0.41814959049224854
  0
VERTEX
  8
0
 10
1168.5999755859375
 20
710
 42
0
  0
VERTEX
  8
0
 10
1227.467529296875
 20
710
 42
0.44050243496894836
  0
VERTEX
  8
0
 10
1247.388427734375
 20
731.7760009765625
 42
0
  0
VERTEX
  8
0
 10
1238.6717529296875
 20
829.55194091796875
 42
0.52875018119812012
  0
VERTEX
  8
0
 10
1180.9412841796875
 20
861.777099609375
 42
-0
  0
SEQEND
  0
POLYLINE
  8
0
 10
0
 20
0
 39
0
 70
1
 66
1
  0
VERTEX
  8
0
 10
1530.40673828125
 20
520.29437255859375
 42
1.0934768915176392
  0
VERTEX
  8
0
 10
1201.719970703125
 20
520.2943115234375
 42
-0
  0
VERTEX
  8
0
 10
1216.0633544921875
 20
360
 42
0
  0
VERTEX
  8
0
 10
1516.0633544921875
 20
360
 42
0
  0
SEQEND
  0
POLYLINE
  8
0
 10
0
 20
0
 39
0
 70
1
 66
1
  0
VERTEX
  8
0
 10
1498.543701171875
 20
857.277099609375
 42
0.28045684099197388
  0
VERTEX
  8
0
 10
1476.435791015625
 20
822.03680419921875
 42
-0
  0
VERTEX
  8
0
 10
1475.2042236328125
 20
730.2684326171875
 42
0.41814959049224854
  0
VERTEX
  8
0
 10
1495.202392578125
 20
710
 42
0
  0
VERTEX
  8
0
 10
1554.06982421875
 20
710
 42
0.44050243496894836
  0
VERTEX
  8
0
 10
1573.9908447265625
 20
731.7760009765625
 42
0
  0
VERTEX
  8
0
 10
1565.274169921875
 20
829.55194091796875
 42
0.52875018119812012
  0
VERTEX
  8
0
 10
1507.543701171875
 20
861.777099609375
 42
-0
  0
SEQEND
  0
POLYLINE
  8
0
 10
0
 20
0
 39
0
 70
1
 66
1
  0
VERTEX
  8
0
 10
1627.8770751953125
 20
951.5262451171875
 42
0.28045684099197388
  0
VERTEX
  8
0
 10
1592.63671875
 20
973.63409423828125
 42
-0
  0
VERTEX
  8
0
 10
1500.868408203125
 20
974.86566162109375
 42
0.41814959049224854
  0
VERTEX
  8
0
 10
1480.5999755859375
 20
954.86749267578125
 42
0
  0
VERTEX
  8
0
 10
1480.5999755859375
 20
896
 42
0.44050243496894836
  0
VERTEX
  8
0
 10
1502.3759765625
 20
876.07904052734375
 42
0
  0
VERTEX
  8
0
 10
1600.15185546875
 20
884.79571533203125
 42
0.52875018119812012
  0
VERTEX
  8
0
 10
1632.3770751953125
 20
942.5262451171875
 42
-0
  0
SEQEND
  0
POLYLINE
  8
0
 10
0
 20
0
 39
0
 70
1
 66
1
  0
VERTEX
  8
0
 10
157.27708435058594
 20
957.8837890625
 42
0.28045684099197388
  0
VERTEX
  8
0
 10
122.03677368164062
 20
979.99163818359375
 42
-0
  0
VERTEX
  8
0
 10
30.26838493347168
 20
981.2232666015625
 42
0.41814959049224854
  0
VERTEX
  8
0
 10
10
 20
961.22503662109375
 42
0
  0
VERTEX
  8
0
 10
10
 20
902.3575439453125
 42
0.44050243496894836
  0
VERTEX
  8
0
 10
31.775949478149414
 20
882.43658447265625
 42
0
  0
VERTEX
  8
0
 10
129.55191040039062
 20
891.15325927734375
 42
0.52875018119812012
  0
VERTEX
  8
0
 10
161.77708435058594
 20
948.8837890625
 42
-0
  0
SEQEND
  0
POLYLINE
  8
0
 10
0
 20
0
 39
0
 70
1
 66
1
  0
VERTEX
  8
0
 10
1096.0338134765625
 20
833.12969970703125
 42
-0.078318998217582703
  0
VERTEX
  8
0
 10
1115.9447021484375
 20
843.5665283203125
 42
0.14564000070095062
  0
VERTEX
  8
0
 10
1138.5999755859375
 20
856.46551513671875
 42
-0
  0
VERTEX
  8
0
 10
1138.5999755859375
 20
871.383544921875
 42
0.15331900119781494
  0
VERTEX
  8
0
 10
1113.3511962890625
 20
881.98211669921875
 42
-0.084683999419212341
  0
VERTEX
  8
0
 10
1090.6177978515625
 20
890.51702880859375
 42
-0.21670499444007874
  0
VERTEX
  8
0
 10
1080.008056640625
 20
907.513427734375
 42
-0
  0
VERTEX
  8
0
 10
1079.0233154296875
 20
914.760498046875
 42
-0
  0
VERTEX
  8
0
 10
1006
 20
904.7469482421875
 42
-0
  0
VERTEX
  8
0
 10
1006
 20
720.01361083984375
 42
-0
  0
VERTEX
  8
0
 10
1079.0233154296875
 20
710
 42
-0
  0
VERTEX
  8
0
 10
1080.0081787109375
 20
717.246826171875
 42
-0.21670499444007874
  0
VERTEX
  8
0
 10
1090.6177978515625
 20
734.243896484375
 42
-0.084683999419212341
  0
VERTEX
  8
0
 10
1113.3511962890625
 20
742.7781982421875
 42
0.15331900119781494
  0
VERTEX
  8
0
 10
1138.5999755859375
 20
753.37689208984375
 42
-0
  0
VERTEX
  8
0
 10
1138.5999755859375
 20
768.2952880859375
 42
0.14564000070095062
  0
VERTEX
  8
0
 10
1115.9447021484375
 20
781.1942138671875
 42
-0.075286000967025757
  0
VERTEX
  8
0
 10
1096.73583984375
 20
791.1158447265625
 42
-0.26006799936294556
  0
VERTEX
  8
0
 10
1086.5465087890625
 20
812.3802490234375
 42
-0.25048500299453735
  0
SEQEND
  0
POLYLINE
  8
0
 10
0
 20
0
 39
0
 70
1
 66
1
  0
VERTEX
  8
0
 10
987.277099609375
 20
951.5262451171875
 42
0.28045684099197388
  0
VERTEX
  8
0
 10
952.0367431640625
 20
973.63409423828125
 42
-0
  0
VERTEX
  8
0
 10
860.26837158203125
 20
974.86566162109375
 42
0.41814959049224854
  0
VERTEX
  8
0
 10
840
 20
954.86749267578125
 42
0
  0
VERTEX
  8
0
 10
840
 20
896
 42
0.44050243496894836
  0
VERTEX
  8
0
 10
861.77593994140625
 20
876.07904052734375
 42
0
  0
VERTEX
  8
0
 10
959.5518798828125
 20
884.79571533203125
 42
0.52875018119812012
  0
VERTEX
  8
0
 10
991.777099609375
 20
942.5262451171875
 42
-0
  0
SEQEND
  0
POLYLINE
  8
0
 10
0
 20
0
 39
0
 70
1
 66
1
  0
VERTEX
  8
0
 10
741.8045654296875
 20
857.277099609375
 42
0.28045684099197388
  0
VERTEX
  8
0
 10
719.69671630859375
 20
822.03680419921875
 42
-0
  0
VERTEX
  8
0
 10
718.465087890625
 20
730.2684326171875
 42
0.41814959049224854
  0
VERTEX
  8
0
 10
738.46331787109375
 20
710
 42
0
  0
VERTEX
  8
0
 10
797.330810546875
 20
710
 42
0.44050243496894836
  0
VERTEX
  8
0
 10
817.25177001953125
 20
731.7760009765625
 42
0
  0
VERTEX
  8
0
 10
808.53509521484375
 20
829.55194091796875
 42
0.52875018119812012
  0
VERTEX
  8
0
 10
750.8045654296875
 20
861.777099609375
 42
-0
  0
SEQEND
  0
POLYLINE
  8
0
 10
0
 20
0
 39
0
 70
1
 66
1
  0
VERTEX
  8
0
 10
850.67205810546875
 20
857.277099609375
 42
0.28045684099197388
  0
VERTEX
  8
0
 10
828.56414794921875
 20
822.03680419921875
 42
-0
  0
VERTEX
  8
0
 10
827.33258056640625
 20
730.2684326171875
 42
0.41814959049224854
  0
VERTEX
  8
0
 10
847.330810546875
 20
710
 42
0
  0
VERTEX
  8
0
 10
906.1982421875
 20
710
 42
0.44050243496894836
  0
VERTEX
  8
0
 10
926.1192626953125
 20
731.7760009765625
 42
0
  0
VERTEX
  8
0
 10
917.402587890625
 20
829.55194091796875
 42
0.52875018119812012
  0
VERTEX
  8
0
 10
859.67205810546875
 20
861.777099609375
 42
-0
  0
SEQEND
  0
POLYLINE
  8
0
 10
0
 20
0
 39
0
 70
1
 66
1
  0
VERTEX
  8
0
 10
1190.40673828125
 20
520.29437255859375
 42
1.0934768915176392
  0
VERTEX
  8
0
 10
861.719970703125
 20
520.2943115234375
 42
-0
  0
VERTEX
  8
0
 10
876.06329345703125
 20
360
 42
0
  0
VERTEX
  8
0
 10
1176.0633544921875
 20
360
 42
0
  0
SEQEND
  0
POLYLINE
  8
0
 10
0
 20
0
 39
0
 70
1
 66
1
  0
VERTEX
  8
0
 10
808.49713134765625
 20
569.3084716796875
 42
-0.078318998217582703
  0
VERTEX
  8
0
 10
828.4080810546875
 20
579.74530029296875
 42
0.14564000070095062
  0
VERTEX
  8
0
 10
851.06329345703125
 20
592.644287109375
 42
-0
  0
VERTEX
  8
0
 10
851.06329345703125
 20
607.56231689453125
 42
0.15331900119781494
  0
VERTEX
  8
0
 10
825.81451416015625
 20
618.160888671875
 42
-0.084683999419212341
  0
VERTEX
  8
0
 10
803.08111572265625
 20
626.69580078125
 42
-0.21670499444007874
  0
VERTEX
  8
0
 10
792.471435546875
 20
643.69219970703125
 42
-0
  0
VERTEX
  8
0
 10
791.48663330078125
 20
650.93927001953125
 42
-0
  0
VERTEX
  8
0
 10
718.46331787109375
 20
640.92572021484375
 42
-0
  0
VERTEX
  8
0
 10
718.46331787109375
 20
456.19235229492187
 42
-0
  0
VERTEX
  8
0
 10
791.48663330078125
 20
446.17877197265625
 42
-0
  0
VERTEX
  8
0
 10
792.471435546875
 20
453.42559814453125
 42
-0.21670499444007874
  0
VERTEX
  8
0
 10
803.08111572265625
 20
470.42266845703125
 42
-0.084683999419212341
  0
VERTEX
  8
0
 10
825.814453125
 20
478.95697021484375
 42
0.15331900119781494
  0
VERTEX
  8
0
 10
851.06329345703125
 20
489.5556640625
 42
-0
  0
VERTEX
  8
0
 10
851.06329345703125
 20
504.47406005859375
 42
0.14564000070095062
  0
VERTEX
  8
0
 10
828.4080810546875
 20
517.3729248046875
 42
-0.075286000967025757
  0
VERTEX
  8
0
 10
809.19915771484375
 20
527.29461669921875
 42
-0.26006799936294556
  0
VERTEX
  8
0
 10
799.00982666015625
 20
548.55902099609375
 42
-0.25048500299453735
  0
SEQEND
  0
ENDSEC
  0
EOF
