  0
SECTION
  2
ENTITIES
  0
POLYLINE
  8
0
 10
0
 20
0
 39
0
 70
1
 66
1
  0
VERTEX
  8
0
 10
0
 20
0
 42
0
  0
VERTEX
  8
0
 10
2000
 20
0
 42
0
  0
VERTEX
  8
0
 10
2000
 20
1000
 42
0
  0
VERTEX
  8
0
 10
0
 20
1000
 42
0
  0
SEQEND
  0
POLYLINE
  8
0
 10
0
 20
0
 39
0
 70
1
 66
1
  0
VERTEX
  8
0
 10
1770
 20
682
 42
0
  0
VERTEX
  8
0
 10
1770
 20
814
 42
-0
  0
VERTEX
  8
0
 10
1760
 20
824
 42
0
  0
VERTEX
  8
0
 10
1740
 20
824
 42
-0
  0
VERTEX
  8
0
 10
1730
 20
814
 42
0
  0
VERTEX
  8
0
 10
1730
 20
682
 42
0
  0
VERTEX
  8
0
 10
1740
 20
672
 42
0
  0
VERTEX
  8
0
 10
1760
 20
672
 42
-0
  0
SEQEND
  0
POLYLINE
  8
0
 10
0
 20
0
 39
0
 70
1
 66
1
  0
VERTEX
  8
0
 10
1750
 20
810.5
 42
-1
  0
VERTEX
  8
0
 10
1750
 20
797.5
 42
-1
  0
SEQEND
  0
POLYLINE
  8
0
 10
0
 20
0
 39
0
 70
1
 66
1
  0
VERTEX
  8
0
 10
1750
 20
698.5
 42
-1
  0
VERTEX
  8
0
 10
1750
 20
685.5
 42
-1
  0
SEQEND
  0
POLYLINE
  8
0
 10
0
 20
0
 39
0
 70
1
 66
1
  0
VERTEX
  8
0
 10
550
 20
10
 42
0
  0
VERTEX
  8
0
 10
550
 20
670
 42
-0
  0
VERTEX
  8
0
 10
450
 20
690
 42
0
  0
VERTEX
  8
0
 10
450
 20
10
 42
0
  0
SEQEND
  0
POLYLINE
  8
0
 10
0
 20
0
 39
0
 70
1
 66
1
  0
VERTEX
  8
0
 10
1970
 20
668
 42
0
  0
VERTEX
  8
0
 10
1970
 20
800
 42
-0
  0
VERTEX
  8
0
 10
1960
 20
810
 42
0
  0
VERTEX
  8
0
 10
1940
 20
810
 42
-0
  0
VERTEX
  8
0
 10
1930
 20
800
 42
0
  0
VERTEX
  8
0
 10
1930
 20
668
 42
0
  0
VERTEX
  8
0
 10
1940
 20
658
 42
0
  0
VERTEX
  8
0
 10
1960
 20
658
 42
-0
  0
SEQEND
  0
POLYLINE
  8
0
 10
0
 20
0
 39
0
 70
1
 66
1
  0
VERTEX
  8
0
 10
1950
 20
796.5
 42
-1
  0
VERTEX
  8
0
 10
1950
 20
783.5
 42
-1
  0
SEQEND
  0
POLYLINE
  8
0
 10
0
 20
0
 39
0
 70
1
 66
1
  0
VERTEX
  8
0
 10
1950
 20
684.5
 42
-1
  0
VERTEX
  8
0
 10
1950
 20
671.5
 42
-1
  0
SEQEND
  0
POLYLINE
  8
0
 10
0
 20
0
 39
0
 70
1
 66
1
  0
VERTEX
  8
0
 10
330
 20
10
 42
0
  0
VERTEX
  8
0
 10
330
 20
670
 42
-0
  0
VERTEX
  8
0
 10
230
 20
690
 42
0
  0
VERTEX
  8
0
 10
230
 20
10
 42
0
  0
SEQEND
  0
POLYLINE
  8
0
 10
0
 20
0
 39
0
 70
1
 66
1
  0
VERTEX
  8
0
 10
220
 20
10
 42
0
  0
VERTEX
  8
0
 10
220
 20
670
 42
-0
  0
VERTEX
  8
0
 10
120
 20
690
 42
0
  0
VERTEX
  8
0
 10
120
 20
10
 42
0
  0
SEQEND
  0
POLYLINE
  8
0
 10
0
 20
0
 39
0
 70
1
 66
1
  0
VERTEX
  8
0
 10
110
 20
10
 42
0
  0
VERTEX
  8
0
 10
110
 20
670
 42
-0
  0
VERTEX
  8
0
 10
10
 20
690
 42
0
  0
VERTEX
  8
0
 10
10
 20
10
 42
0
  0
SEQEND
  0
POLYLINE
  8
0
 10
0
 20
0
 39
0
 70
1
 66
1
  0
VERTEX
  8
0
 10
660
 20
10
 42
0
  0
VERTEX
  8
0
 10
660
 20
670
 42
-0
  0
VERTEX
  8
0
 10
560
 20
690
 42
0
  0
VERTEX
  8
0
 10
560
 20
10
 42
0
  0
SEQEND
  0
POLYLINE
  8
0
 10
0
 20
0
 39
0
 70
1
 66
1
  0
VERTEX
  8
0
 10
690
 20
800
 42
0
  0
VERTEX
  8
0
 10
30
 20
800
 42
-0
  0
VERTEX
  8
0
 10
10
 20
700
 42
0
  0
VERTEX
  8
0
 10
690
 20
700
 42
0
  0
SEQEND
  0
POLYLINE
  8
0
 10
0
 20
0
 39
0
 70
1
 66
1
  0
VERTEX
  8
0
 10
690
 20
910
 42
0
  0
VERTEX
  8
0
 10
30
 20
910
 42
-0
  0
VERTEX
  8
0
 10
10
 20
810
 42
0
  0
VERTEX
  8
0
 10
690
 20
810
 42
0
  0
SEQEND
  0
POLYLINE
  8
0
 10
0
 20
0
 39
0
 70
1
 66
1
  0
VERTEX
  8
0
 10
1655
 20
816.89111328125
 42
0
  0
VERTEX
  8
0
 10
1720
 20
945
 42
0
  0
VERTEX
  8
0
 10
1480
 20
945
 42
0
  0
VERTEX
  8
0
 10
1480
 20
770
 42
0
  0
SEQEND
  0
POLYLINE
  8
0
 10
0
 20
0
 39
0
 70
1
 66
1
  0
VERTEX
  8
0
 10
1731.89111328125
 20
325
 42
0
  0
VERTEX
  8
0
 10
1860
 20
260
 42
0
  0
VERTEX
  8
0
 10
1860
 20
500
 42
0
  0
VERTEX
  8
0
 10
1685
 20
500
 42
0
  0
SEQEND
  0
POLYLINE
  8
0
 10
0
 20
0
 39
0
 70
1
 66
1
  0
VERTEX
  8
0
 10
1701.89111328125
 20
75
 42
0
  0
VERTEX
  8
0
 10
1830
 20
10
 42
0
  0
VERTEX
  8
0
 10
1830
 20
250
 42
0
  0
VERTEX
  8
0
 10
1655
 20
250
 42
0
  0
SEQEND
  0
POLYLINE
  8
0
 10
0
 20
0
 39
0
 70
1
 66
1
  0
VERTEX
  8
0
 10
1546.89111328125
 20
575
 42
0
  0
VERTEX
  8
0
 10
1675
 20
510
 42
0
  0
VERTEX
  8
0
 10
1675
 20
750
 42
0
  0
VERTEX
  8
0
 10
1500
 20
750
 42
0
  0
SEQEND
  0
POLYLINE
  8
0
 10
0
 20
0
 39
0
 70
1
 66
1
  0
VERTEX
  8
0
 10
440
 20
10
 42
0
  0
VERTEX
  8
0
 10
440
 20
670
 42
-0
  0
VERTEX
  8
0
 10
340
 20
690
 42
0
  0
VERTEX
  8
0
 10
340
 20
10
 42
0
  0
SEQEND
  0
POLYLINE
  8
0
 10
0
 20
0
 39
0
 70
1
 66
1
  0
VERTEX
  8
0
 10
1546.89111328125
 20
325
 42
0
  0
VERTEX
  8
0
 10
1675
 20
260
 42
0
  0
VERTEX
  8
0
 10
1675
 20
500
 42
0
  0
VERTEX
  8
0
 10
1500
 20
500
 42
0
  0
SEQEND
  0
POLYLINE
  8
0
 10
0
 20
0
 39
0
 70
1
 66
1
  0
VERTEX
  8
0
 10
1516.89111328125
 20
75
 42
0
  0
VERTEX
  8
0
 10
1645
 20
10
 42
0
  0
VERTEX
  8
0
 10
1645
 20
250
 42
0
  0
VERTEX
  8
0
 10
1470
 20
250
 42
0
  0
SEQEND
  0
POLYLINE
  8
0
 10
0
 20
0
 39
0
 70
1
 66
1
  0
VERTEX
  8
0
 10
750
 20
560
 42
-0
  0
VERTEX
  8
0
 10
750
 20
60
 42
-0
  0
VERTEX
  8
0
 10
768
 20
10
 42
-0
  0
VERTEX
  8
0
 10
780
 20
10
 42
-0
  0
VERTEX
  8
0
 10
780
 20
610
 42
-0
  0
VERTEX
  8
0
 10
768
 20
610
 42
-0
  0
SEQEND
  0
POLYLINE
  8
0
 10
0
 20
0
 39
0
 70
1
 66
1
  0
VERTEX
  8
0
 10
1120
 20
920
 42
0
  0
VERTEX
  8
0
 10
1450
 20
920
 42
1
  0
VERTEX
  8
0
 10
1450
 20
960
 42
-0
  0
VERTEX
  8
0
 10
1120
 20
960
 42
1
  0
SEQEND
  0
POLYLINE
  8
0
 10
0
 20
0
 39
0
 70
1
 66
1
  0
VERTEX
  8
0
 10
1070
 20
360
 42
0
  0
VERTEX
  8
0
 10
1070
 20
30
 42
1
  0
VERTEX
  8
0
 10
1110
 20
30
 42
-0
  0
VERTEX
  8
0
 10
1110
 20
360
 42
1
  0
SEQEND
  0
POLYLINE
  8
0
 10
0
 20
0
 39
0
 70
1
 66
1
  0
VERTEX
  8
0
 10
1050
 20
970
 42
0
  0
VERTEX
  8
0
 10
1050
 20
640
 42
1
  0
VERTEX
  8
0
 10
1090
 20
640
 42
-0
  0
VERTEX
  8
0
 10
1090
 20
970
 42
1
  0
SEQEND
  0
POLYLINE
  8
0
 10
0
 20
0
 39
0
 70
1
 66
1
  0
VERTEX
  8
0
 10
1120
 20
360
 42
0
  0
VERTEX
  8
0
 10
1120
 20
30
 42
1
  0
VERTEX
  8
0
 10
1160
 20
30
 42
-0
  0
VERTEX
  8
0
 10
1160
 20
360
 42
1
  0
SEQEND
  0
POLYLINE
  8
0
 10
0
 20
0
 39
0
 70
1
 66
1
  0
VERTEX
  8
0
 10
1350
 20
740
 42
0
  0
VERTEX
  8
0
 10
1350
 20
410
 42
1
  0
VERTEX
  8
0
 10
1390
 20
410
 42
-0
  0
VERTEX
  8
0
 10
1390
 20
740
 42
1
  0
SEQEND
  0
POLYLINE
  8
0
 10
0
 20
0
 39
0
 70
1
 66
1
  0
VERTEX
  8
0
 10
710
 20
560
 42
-0
  0
VERTEX
  8
0
 10
710
 20
60
 42
-0
  0
VERTEX
  8
0
 10
728
 20
10
 42
-0
  0
VERTEX
  8
0
 10
740
 20
10
 42
-0
  0
VERTEX
  8
0
 10
740
 20
610
 42
-0
  0
VERTEX
  8
0
 10
728
 20
610
 42
-0
  0
SEQEND
  0
POLYLINE
  8
0
 10
0
 20
0
 39
0
 70
1
 66
1
  0
VERTEX
  8
0
 10
1300
 20
740
 42
0
  0
VERTEX
  8
0
 10
1300
 20
410
 42
1
  0
VERTEX
  8
0
 10
1340
 20
410
 42
-0
  0
VERTEX
  8
0
 10
1340
 20
740
 42
1
  0
SEQEND
  0
POLYLINE
  8
0
 10
0
 20
0
 39
0
 70
1
 66
1
  0
VERTEX
  8
0
 10
1250
 20
740
 42
0
  0
VERTEX
  8
0
 10
1250
 20
410
 42
1
  0
VERTEX
  8
0
 10
1290
 20
410
 42
-0
  0
VERTEX
  8
0
 10
1290
 20
740
 42
1
  0
SEQEND
  0
POLYLINE
  8
0
 10
0
 20
0
 39
0
 70
1
 66
1
  0
VERTEX
  8
0
 10
1420
 20
360
 42
0
  0
VERTEX
  8
0
 10
1420
 20
30
 42
1
  0
VERTEX
  8
0
 10
1460
 20
30
 42
-0
  0
VERTEX
  8
0
 10
1460
 20
360
 42
1
  0
SEQEND
  0
POLYLINE
  8
0
 10
0
 20
0
 39
0
 70
1
 66
1
  0
VERTEX
  8
0
 10
1370
 20
360
 42
0
  0
VERTEX
  8
0
 10
1370
 20
30
 42
1
  0
VERTEX
  8
0
 10
1410
 20
30
 42
-0
  0
VERTEX
  8
0
 10
1410
 20
360
 42
1
  0
SEQEND
  0
POLYLINE
  8
0
 10
0
 20
0
 39
0
 70
1
 66
1
  0
VERTEX
  8
0
 10
1000
 20
970
 42
0
  0
VERTEX
  8
0
 10
1000
 20
640
 42
1
  0
VERTEX
  8
0
 10
1040
 20
640
 42
-0
  0
VERTEX
  8
0
 10
1040
 20
970
 42
1
  0
SEQEND
  0
POLYLINE
  8
0
 10
0
 20
0
 39
0
 70
1
 66
1
  0
VERTEX
  8
0
 10
900
 20
970
 42
0
  0
VERTEX
  8
0
 10
900
 20
640
 42
1
  0
VERTEX
  8
0
 10
940
 20
640
 42
-0
  0
VERTEX
  8
0
 10
940
 20
970
 42
1
  0
SEQEND
  0
POLYLINE
  8
0
 10
0
 20
0
 39
0
 70
1
 66
1
  0
VERTEX
  8
0
 10
750
 20
970
 42
0
  0
VERTEX
  8
0
 10
750
 20
640
 42
1
  0
VERTEX
  8
0
 10
790
 20
640
 42
-0
  0
VERTEX
  8
0
 10
790
 20
970
 42
1
  0
SEQEND
  0
POLYLINE
  8
0
 10
0
 20
0
 39
0
 70
1
 66
1
  0
VERTEX
  8
0
 10
1120
 20
770
 42
0
  0
VERTEX
  8
0
 10
1450
 20
770
 42
1
  0
VERTEX
  8
0
 10
1450
 20
810
 42
-0
  0
VERTEX
  8
0
 10
1120
 20
810
 42
1
  0
SEQEND
  0
POLYLINE
  8
0
 10
0
 20
0
 39
0
 70
1
 66
1
  0
VERTEX
  8
0
 10
1120
 20
820
 42
0
  0
VERTEX
  8
0
 10
1450
 20
820
 42
1
  0
VERTEX
  8
0
 10
1450
 20
860
 42
-0
  0
VERTEX
  8
0
 10
1120
 20
860
 42
1
  0
SEQEND
  0
POLYLINE
  8
0
 10
0
 20
0
 39
0
 70
1
 66
1
  0
VERTEX
  8
0
 10
700
 20
970
 42
0
  0
VERTEX
  8
0
 10
700
 20
640
 42
1
  0
VERTEX
  8
0
 10
740
 20
640
 42
-0
  0
VERTEX
  8
0
 10
740
 20
970
 42
1
  0
SEQEND
  0
POLYLINE
  8
0
 10
0
 20
0
 39
0
 70
1
 66
1
  0
VERTEX
  8
0
 10
1220
 20
360
 42
0
  0
VERTEX
  8
0
 10
1220
 20
30
 42
1
  0
VERTEX
  8
0
 10
1260
 20
30
 42
-0
  0
VERTEX
  8
0
 10
1260
 20
360
 42
1
  0
SEQEND
  0
POLYLINE
  8
0
 10
0
 20
0
 39
0
 70
1
 66
1
  0
VERTEX
  8
0
 10
1450
 20
740
 42
0
  0
VERTEX
  8
0
 10
1450
 20
410
 42
1
  0
VERTEX
  8
0
 10
1490
 20
410
 42
-0
  0
VERTEX
  8
0
 10
1490
 20
740
 42
1
  0
SEQEND
  0
POLYLINE
  8
0
 10
0
 20
0
 39
0
 70
1
 66
1
  0
VERTEX
  8
0
 10
850
 20
970
 42
0
  0
VERTEX
  8
0
 10
850
 20
640
 42
1
  0
VERTEX
  8
0
 10
890
 20
640
 42
-0
  0
VERTEX
  8
0
 10
890
 20
970
 42
1
  0
SEQEND
  0
POLYLINE
  8
0
 10
0
 20
0
 39
0
 70
1
 66
1
  0
VERTEX
  8
0
 10
800
 20
970
 42
0
  0
VERTEX
  8
0
 10
800
 20
640
 42
1
  0
VERTEX
  8
0
 10
840
 20
640
 42
-0
  0
VERTEX
  8
0
 10
840
 20
970
 42
1
  0
SEQEND
  0
POLYLINE
  8
0
 10
0
 20
0
 39
0
 70
1
 66
1
  0
VERTEX
  8
0
 10
1400
 20
740
 42
0
  0
VERTEX
  8
0
 10
1400
 20
410
 42
1
  0
VERTEX
  8
0
 10
1440
 20
410
 42
-0
  0
VERTEX
  8
0
 10
1440
 20
740
 42
1
  0
SEQEND
  0
POLYLINE
  8
0
 10
0
 20
0
 39
0
 70
1
 66
1
  0
VERTEX
  8
0
 10
950
 20
970
 42
0
  0
VERTEX
  8
0
 10
950
 20
640
 42
1
  0
VERTEX
  8
0
 10
990
 20
640
 42
-0
  0
VERTEX
  8
0
 10
990
 20
970
 42
1
  0
SEQEND
  0
POLYLINE
  8
0
 10
0
 20
0
 39
0
 70
1
 66
1
  0
VERTEX
  8
0
 10
1320
 20
360
 42
0
  0
VERTEX
  8
0
 10
1320
 20
30
 42
1
  0
VERTEX
  8
0
 10
1360
 20
30
 42
-0
  0
VERTEX
  8
0
 10
1360
 20
360
 42
1
  0
SEQEND
  0
POLYLINE
  8
0
 10
0
 20
0
 39
0
 70
1
 66
1
  0
VERTEX
  8
0
 10
1270
 20
360
 42
0
  0
VERTEX
  8
0
 10
1270
 20
30
 42
1
  0
VERTEX
  8
0
 10
1310
 20
30
 42
-0
  0
VERTEX
  8
0
 10
1310
 20
360
 42
1
  0
SEQEND
  0
POLYLINE
  8
0
 10
0
 20
0
 39
0
 70
1
 66
1
  0
VERTEX
  8
0
 10
670
 20
560
 42
-0
  0
VERTEX
  8
0
 10
670
 20
60
 42
-0
  0
VERTEX
  8
0
 10
688
 20
10
 42
-0
  0
VERTEX
  8
0
 10
700
 20
10
 42
-0
  0
VERTEX
  8
0
 10
700
 20
610
 42
-0
  0
VERTEX
  8
0
 10
688
 20
610
 42
-0
  0
SEQEND
  0
POLYLINE
  8
0
 10
0
 20
0
 39
0
 70
1
 66
1
  0
VERTEX
  8
0
 10
1170
 20
360
 42
0
  0
VERTEX
  8
0
 10
1170
 20
30
 42
1
  0
VERTEX
  8
0
 10
1210
 20
30
 42
-0
  0
VERTEX
  8
0
 10
1210
 20
360
 42
1
  0
SEQEND
  0
POLYLINE
  8
0
 10
0
 20
0
 39
0
 70
1
 66
1
  0
VERTEX
  8
0
 10
1200
 20
740
 42
0
  0
VERTEX
  8
0
 10
1200
 20
410
 42
1
  0
VERTEX
  8
0
 10
1240
 20
410
 42
-0
  0
VERTEX
  8
0
 10
1240
 20
740
 42
1
  0
SEQEND
  0
POLYLINE
  8
0
 10
0
 20
0
 39
0
 70
1
 66
1
  0
VERTEX
  8
0
 10
1150
 20
740
 42
0
  0
VERTEX
  8
0
 10
1150
 20
410
 42
1
  0
VERTEX
  8
0
 10
1190
 20
410
 42
-0
  0
VERTEX
  8
0
 10
1190
 20
740
 42
1
  0
SEQEND
  0
POLYLINE
  8
0
 10
0
 20
0
 39
0
 70
1
 66
1
  0
VERTEX
  8
0
 10
1100
 20
740
 42
0
  0
VERTEX
  8
0
 10
1100
 20
410
 42
1
  0
VERTEX
  8
0
 10
1140
 20
410
 42
-0
  0
VERTEX
  8
0
 10
1140
 20
740
 42
1
  0
SEQEND
  0
POLYLINE
  8
0
 10
0
 20
0
 39
0
 70
1
 66
1
  0
VERTEX
  8
0
 10
1120
 20
870
 42
0
  0
VERTEX
  8
0
 10
1450
 20
870
 42
1
  0
VERTEX
  8
0
 10
1450
 20
910
 42
-0
  0
VERTEX
  8
0
 10
1120
 20
910
 42
1
  0
SEQEND
  0
POLYLINE
  8
0
 10
0
 20
0
 39
0
 70
1
 66
1
  0
VERTEX
  8
0
 10
60
 20
960
 42
-0
  0
VERTEX
  8
0
 10
560
 20
960
 42
-0
  0
VERTEX
  8
0
 10
610
 20
978
 42
-0
  0
VERTEX
  8
0
 10
610
 20
990
 42
-0
  0
VERTEX
  8
0
 10
10
 20
990
 42
-0
  0
VERTEX
  8
0
 10
10
 20
978
 42
-0
  0
SEQEND
  0
POLYLINE
  8
0
 10
0
 20
0
 39
0
 70
1
 66
1
  0
VERTEX
  8
0
 10
1725
 20
520
 42
0
  0
VERTEX
  8
0
 10
1725
 20
652
 42
-0
  0
VERTEX
  8
0
 10
1715
 20
662
 42
0
  0
VERTEX
  8
0
 10
1695
 20
662
 42
-0
  0
VERTEX
  8
0
 10
1685
 20
652
 42
0
  0
VERTEX
  8
0
 10
1685
 20
520
 42
0
  0
VERTEX
  8
0
 10
1695
 20
510
 42
0
  0
VERTEX
  8
0
 10
1715
 20
510
 42
-0
  0
SEQEND
  0
POLYLINE
  8
0
 10
0
 20
0
 39
0
 70
1
 66
1
  0
VERTEX
  8
0
 10
1705
 20
648.5
 42
-1
  0
VERTEX
  8
0
 10
1705
 20
635.5
 42
-1
  0
SEQEND
  0
POLYLINE
  8
0
 10
0
 20
0
 39
0
 70
1
 66
1
  0
VERTEX
  8
0
 10
1705
 20
536.5
 42
-1
  0
VERTEX
  8
0
 10
1705
 20
523.5
 42
-1
  0
SEQEND
  0
POLYLINE
  8
0
 10
0
 20
0
 39
0
 70
1
 66
1
  0
VERTEX
  8
0
 10
1870
 20
682
 42
0
  0
VERTEX
  8
0
 10
1870
 20
814
 42
-0
  0
VERTEX
  8
0
 10
1860
 20
824
 42
0
  0
VERTEX
  8
0
 10
1840
 20
824
 42
-0
  0
VERTEX
  8
0
 10
1830
 20
814
 42
0
  0
VERTEX
  8
0
 10
1830
 20
682
 42
0
  0
VERTEX
  8
0
 10
1840
 20
672
 42
0
  0
VERTEX
  8
0
 10
1860
 20
672
 42
-0
  0
SEQEND
  0
POLYLINE
  8
0
 10
0
 20
0
 39
0
 70
1
 66
1
  0
VERTEX
  8
0
 10
1850
 20
810.5
 42
-1
  0
VERTEX
  8
0
 10
1850
 20
797.5
 42
-1
  0
SEQEND
  0
POLYLINE
  8
0
 10
0
 20
0
 39
0
 70
1
 66
1
  0
VERTEX
  8
0
 10
1850
 20
698.5
 42
-1
  0
VERTEX
  8
0
 10
1850
 20
685.5
 42
-1
  0
SEQEND
  0
POLYLINE
  8
0
 10
0
 20
0
 39
0
 70
1
 66
1
  0
VERTEX
  8
0
 10
1820
 20
844
 42
0
  0
VERTEX
  8
0
 10
1820
 20
976
 42
-0
  0
VERTEX
  8
0
 10
1810
 20
986
 42
0
  0
VERTEX
  8
0
 10
1790
 20
986
 42
-0
  0
VERTEX
  8
0
 10
1780
 20
976
 42
0
  0
VERTEX
  8
0
 10
1780
 20
844
 42
0
  0
VERTEX
  8
0
 10
1790
 20
834
 42
0
  0
VERTEX
  8
0
 10
1810
 20
834
 42
-0
  0
SEQEND
  0
POLYLINE
  8
0
 10
0
 20
0
 39
0
 70
1
 66
1
  0
VERTEX
  8
0
 10
1800
 20
972.5
 42
-1
  0
VERTEX
  8
0
 10
1800
 20
959.5
 42
-1
  0
SEQEND
  0
POLYLINE
  8
0
 10
0
 20
0
 39
0
 70
1
 66
1
  0
VERTEX
  8
0
 10
1800
 20
860.5
 42
-1
  0
VERTEX
  8
0
 10
1800
 20
847.5
 42
-1
  0
SEQEND
  0
POLYLINE
  8
0
 10
0
 20
0
 39
0
 70
1
 66
1
  0
VERTEX
  8
0
 10
1910
 20
182
 42
0
  0
VERTEX
  8
0
 10
1910
 20
314
 42
-0
  0
VERTEX
  8
0
 10
1900
 20
324
 42
0
  0
VERTEX
  8
0
 10
1880
 20
324
 42
-0
  0
VERTEX
  8
0
 10
1870
 20
314
 42
0
  0
VERTEX
  8
0
 10
1870
 20
182
 42
0
  0
VERTEX
  8
0
 10
1880
 20
172
 42
0
  0
VERTEX
  8
0
 10
1900
 20
172
 42
-0
  0
SEQEND
  0
POLYLINE
  8
0
 10
0
 20
0
 39
0
 70
1
 66
1
  0
VERTEX
  8
0
 10
1890
 20
310.5
 42
-1
  0
VERTEX
  8
0
 10
1890
 20
297.5
 42
-1
  0
SEQEND
  0
POLYLINE
  8
0
 10
0
 20
0
 39
0
 70
1
 66
1
  0
VERTEX
  8
0
 10
1890
 20
198.5
 42
-1
  0
VERTEX
  8
0
 10
1890
 20
185.5
 42
-1
  0
SEQEND
  0
POLYLINE
  8
0
 10
0
 20
0
 39
0
 70
1
 66
1
  0
VERTEX
  8
0
 10
1970
 20
830
 42
0
  0
VERTEX
  8
0
 10
1970
 20
962
 42
-0
  0
VERTEX
  8
0
 10
1960
 20
972
 42
0
  0
VERTEX
  8
0
 10
1940
 20
972
 42
-0
  0
VERTEX
  8
0
 10
1930
 20
962
 42
0
  0
VERTEX
  8
0
 10
1930
 20
830
 42
0
  0
VERTEX
  8
0
 10
1940
 20
820
 42
0
  0
VERTEX
  8
0
 10
1960
 20
820
 42
-0
  0
SEQEND
  0
POLYLINE
  8
0
 10
0
 20
0
 39
0
 70
1
 66
1
  0
VERTEX
  8
0
 10
1950
 20
958.5
 42
-1
  0
VERTEX
  8
0
 10
1950
 20
945.5
 42
-1
  0
SEQEND
  0
POLYLINE
  8
0
 10
0
 20
0
 39
0
 70
1
 66
1
  0
VERTEX
  8
0
 10
1950
 20
846.5
 42
-1
  0
VERTEX
  8
0
 10
1950
 20
833.5
 42
-1
  0
SEQEND
  0
POLYLINE
  8
0
 10
0
 20
0
 39
0
 70
1
 66
1
  0
VERTEX
  8
0
 10
1960
 20
344
 42
0
  0
VERTEX
  8
0
 10
1960
 20
476
 42
-0
  0
VERTEX
  8
0
 10
1950
 20
486
 42
0
  0
VERTEX
  8
0
 10
1930
 20
486
 42
-0
  0
VERTEX
  8
0
 10
1920
 20
476
 42
0
  0
VERTEX
  8
0
 10
1920
 20
344
 42
0
  0
VERTEX
  8
0
 10
1930
 20
334
 42
0
  0
VERTEX
  8
0
 10
1950
 20
334
 42
-0
  0
SEQEND
  0
POLYLINE
  8
0
 10
0
 20
0
 39
0
 70
1
 66
1
  0
VERTEX
  8
0
 10
1940
 20
472.5
 42
-1
  0
VERTEX
  8
0
 10
1940
 20
459.5
 42
-1
  0
SEQEND
  0
POLYLINE
  8
0
 10
0
 20
0
 39
0
 70
1
 66
1
  0
VERTEX
  8
0
 10
1940
 20
360.5
 42
-1
  0
VERTEX
  8
0
 10
1940
 20
347.5
 42
-1
  0
SEQEND
  0
POLYLINE
  8
0
 10
0
 20
0
 39
0
 70
1
 66
1
  0
VERTEX
  8
0
 10
1960
 20
182
 42
0
  0
VERTEX
  8
0
 10
1960
 20
314
 42
-0
  0
VERTEX
  8
0
 10
1950
 20
324
 42
0
  0
VERTEX
  8
0
 10
1930
 20
324
 42
-0
  0
VERTEX
  8
0
 10
1920
 20
314
 42
0
  0
VERTEX
  8
0
 10
1920
 20
182
 42
0
  0
VERTEX
  8
0
 10
1930
 20
172
 42
0
  0
VERTEX
  8
0
 10
1950
 20
172
 42
-0
  0
SEQEND
  0
POLYLINE
  8
0
 10
0
 20
0
 39
0
 70
1
 66
1
  0
VERTEX
  8
0
 10
1940
 20
310.5
 42
-1
  0
VERTEX
  8
0
 10
1940
 20
297.5
 42
-1
  0
SEQEND
  0
POLYLINE
  8
0
 10
0
 20
0
 39
0
 70
1
 66
1
  0
VERTEX
  8
0
 10
1940
 20
198.5
 42
-1
  0
VERTEX
  8
0
 10
1940
 20
185.5
 42
-1
  0
SEQEND
  0
POLYLINE
  8
0
 10
0
 20
0
 39
0
 70
1
 66
1
  0
VERTEX
  8
0
 10
1770
 20
844
 42
0
  0
VERTEX
  8
0
 10
1770
 20
976
 42
-0
  0
VERTEX
  8
0
 10
1760
 20
986
 42
0
  0
VERTEX
  8
0
 10
1740
 20
986
 42
-0
  0
VERTEX
  8
0
 10
1730
 20
976
 42
0
  0
VERTEX
  8
0
 10
1730
 20
844
 42
0
  0
VERTEX
  8
0
 10
1740
 20
834
 42
0
  0
VERTEX
  8
0
 10
1760
 20
834
 42
-0
  0
SEQEND
  0
POLYLINE
  8
0
 10
0
 20
0
 39
0
 70
1
 66
1
  0
VERTEX
  8
0
 10
1750
 20
972.5
 42
-1
  0
VERTEX
  8
0
 10
1750
 20
959.5
 42
-1
  0
SEQEND
  0
POLYLINE
  8
0
 10
0
 20
0
 39
0
 70
1
 66
1
  0
VERTEX
  8
0
 10
1750
 20
860.5
 42
-1
  0
VERTEX
  8
0
 10
1750
 20
847.5
 42
-1
  0
SEQEND
  0
POLYLINE
  8
0
 10
0
 20
0
 39
0
 70
1
 66
1
  0
VERTEX
  8
0
 10
1825
 20
520
 42
0
  0
VERTEX
  8
0
 10
1825
 20
652
 42
-0
  0
VERTEX
  8
0
 10
1815
 20
662
 42
0
  0
VERTEX
  8
0
 10
1795
 20
662
 42
-0
  0
VERTEX
  8
0
 10
1785
 20
652
 42
0
  0
VERTEX
  8
0
 10
1785
 20
520
 42
0
  0
VERTEX
  8
0
 10
1795
 20
510
 42
0
  0
VERTEX
  8
0
 10
1815
 20
510
 42
-0
  0
SEQEND
  0
POLYLINE
  8
0
 10
0
 20
0
 39
0
 70
1
 66
1
  0
VERTEX
  8
0
 10
1805
 20
648.5
 42
-1
  0
VERTEX
  8
0
 10
1805
 20
635.5
 42
-1
  0
SEQEND
  0
POLYLINE
  8
0
 10
0
 20
0
 39
0
 70
1
 66
1
  0
VERTEX
  8
0
 10
1805
 20
536.5
 42
-1
  0
VERTEX
  8
0
 10
1805
 20
523.5
 42
-1
  0
SEQEND
  0
POLYLINE
  8
0
 10
0
 20
0
 39
0
 70
1
 66
1
  0
VERTEX
  8
0
 10
1910
 20
344
 42
0
  0
VERTEX
  8
0
 10
1910
 20
476
 42
-0
  0
VERTEX
  8
0
 10
1900
 20
486
 42
0
  0
VERTEX
  8
0
 10
1880
 20
486
 42
-0
  0
VERTEX
  8
0
 10
1870
 20
476
 42
0
  0
VERTEX
  8
0
 10
1870
 20
344
 42
0
  0
VERTEX
  8
0
 10
1880
 20
334
 42
0
  0
VERTEX
  8
0
 10
1900
 20
334
 42
-0
  0
SEQEND
  0
POLYLINE
  8
0
 10
0
 20
0
 39
0
 70
1
 66
1
  0
VERTEX
  8
0
 10
1890
 20
472.5
 42
-1
  0
VERTEX
  8
0
 10
1890
 20
459.5
 42
-1
  0
SEQEND
  0
POLYLINE
  8
0
 10
0
 20
0
 39
0
 70
1
 66
1
  0
VERTEX
  8
0
 10
1890
 20
360.5
 42
-1
  0
VERTEX
  8
0
 10
1890
 20
347.5
 42
-1
  0
SEQEND
  0
POLYLINE
  8
0
 10
0
 20
0
 39
0
 70
1
 66
1
  0
VERTEX
  8
0
 10
60
 20
920
 42
-0
  0
VERTEX
  8
0
 10
560
 20
920
 42
-0
  0
VERTEX
  8
0
 10
610
 20
938
 42
-0
  0
VERTEX
  8
0
 10
610
 20
950
 42
-0
  0
VERTEX
  8
0
 10
10
 20
950
 42
-0
  0
VERTEX
  8
0
 10
10
 20
938
 42
-0
  0
SEQEND
  0
POLYLINE
  8
0
 10
0
 20
0
 39
0
 70
1
 66
1
  0
VERTEX
  8
0
 10
990
 20
560
 42
-0
  0
VERTEX
  8
0
 10
990
 20
60
 42
-0
  0
VERTEX
  8
0
 10
1008
 20
10
 42
-0
  0
VERTEX
  8
0
 10
1020
 20
10
 42
-0
  0
VERTEX
  8
0
 10
1020
 20
610
 42
-0
  0
VERTEX
  8
0
 10
1008
 20
610
 42
-0
  0
SEQEND
  0
POLYLINE
  8
0
 10
0
 20
0
 39
0
 70
1
 66
1
  0
VERTEX
  8
0
 10
950
 20
560
 42
-0
  0
VERTEX
  8
0
 10
950
 20
60
 42
-0
  0
VERTEX
  8
0
 10
968
 20
10
 42
-0
  0
VERTEX
  8
0
 10
980
 20
10
 42
-0
  0
VERTEX
  8
0
 10
980
 20
610
 42
-0
  0
VERTEX
  8
0
 10
968
 20
610
 42
-0
  0
SEQEND
  0
POLYLINE
  8
0
 10
0
 20
0
 39
0
 70
1
 66
1
  0
VERTEX
  8
0
 10
1920
 20
844
 42
0
  0
VERTEX
  8
0
 10
1920
 20
976
 42
-0
  0
VERTEX
  8
0
 10
1910
 20
986
 42
0
  0
VERTEX
  8
0
 10
1890
 20
986
 42
-0
  0
VERTEX
  8
0
 10
1880
 20
976
 42
0
  0
VERTEX
  8
0
 10
1880
 20
844
 42
0
  0
VERTEX
  8
0
 10
1890
 20
834
 42
0
  0
VERTEX
  8
0
 10
1910
 20
834
 42
-0
  0
SEQEND
  0
POLYLINE
  8
0
 10
0
 20
0
 39
0
 70
1
 66
1
  0
VERTEX
  8
0
 10
1900
 20
972.5
 42
-1
  0
VERTEX
  8
0
 10
1900
 20
959.5
 42
-1
  0
SEQEND
  0
POLYLINE
  8
0
 10
0
 20
0
 39
0
 70
1
 66
1
  0
VERTEX
  8
0
 10
1900
 20
860.5
 42
-1
  0
VERTEX
  8
0
 10
1900
 20
847.5
 42
-1
  0
SEQEND
  0
POLYLINE
  8
0
 10
0
 20
0
 39
0
 70
1
 66
1
  0
VERTEX
  8
0
 10
1030
 20
560
 42
-0
  0
VERTEX
  8
0
 10
1030
 20
60
 42
-0
  0
VERTEX
  8
0
 10
1048
 20
10
 42
-0
  0
VERTEX
  8
0
 10
1060
 20
10
 42
-0
  0
VERTEX
  8
0
 10
1060
 20
610
 42
-0
  0
VERTEX
  8
0
 10
1048
 20
610
 42
-0
  0
SEQEND
  0
POLYLINE
  8
0
 10
0
 20
0
 39
0
 70
1
 66
1
  0
VERTEX
  8
0
 10
910
 20
560
 42
-0
  0
VERTEX
  8
0
 10
910
 20
60
 42
-0
  0
VERTEX
  8
0
 10
928
 20
10
 42
-0
  0
VERTEX
  8
0
 10
940
 20
10
 42
-0
  0
VERTEX
  8
0
 10
940
 20
610
 42
-0
  0
VERTEX
  8
0
 10
928
 20
610
 42
-0
  0
SEQEND
  0
POLYLINE
  8
0
 10
0
 20
0
 39
0
 70
1
 66
1
  0
VERTEX
  8
0
 10
870
 20
560
 42
-0
  0
VERTEX
  8
0
 10
870
 20
60
 42
-0
  0
VERTEX
  8
0
 10
888
 20
10
 42
-0
  0
VERTEX
  8
0
 10
900
 20
10
 42
-0
  0
VERTEX
  8
0
 10
900
 20
610
 42
-0
  0
VERTEX
  8
0
 10
888
 20
610
 42
-0
  0
SEQEND
  0
POLYLINE
  8
0
 10
0
 20
0
 39
0
 70
1
 66
1
  0
VERTEX
  8
0
 10
830
 20
560
 42
-0
  0
VERTEX
  8
0
 10
830
 20
60
 42
-0
  0
VERTEX
  8
0
 10
848
 20
10
 42
-0
  0
VERTEX
  8
0
 10
860
 20
10
 42
-0
  0
VERTEX
  8
0
 10
860
 20
610
 42
-0
  0
VERTEX
  8
0
 10
848
 20
610
 42
-0
  0
SEQEND
  0
POLYLINE
  8
0
 10
0
 20
0
 39
0
 70
1
 66
1
  0
VERTEX
  8
0
 10
1920
 20
682
 42
0
  0
VERTEX
  8
0
 10
1920
 20
814
 42
-0
  0
VERTEX
  8
0
 10
1910
 20
824
 42
0
  0
VERTEX
  8
0
 10
1890
 20
824
 42
-0
  0
VERTEX
  8
0
 10
1880
 20
814
 42
0
  0
VERTEX
  8
0
 10
1880
 20
682
 42
0
  0
VERTEX
  8
0
 10
1890
 20
672
 42
0
  0
VERTEX
  8
0
 10
1910
 20
672
 42
-0
  0
SEQEND
  0
POLYLINE
  8
0
 10
0
 20
0
 39
0
 70
1
 66
1
  0
VERTEX
  8
0
 10
1900
 20
810.5
 42
-1
  0
VERTEX
  8
0
 10
1900
 20
797.5
 42
-1
  0
SEQEND
  0
POLYLINE
  8
0
 10
0
 20
0
 39
0
 70
1
 66
1
  0
VERTEX
  8
0
 10
1900
 20
698.5
 42
-1
  0
VERTEX
  8
0
 10
1900
 20
685.5
 42
-1
  0
SEQEND
  0
POLYLINE
  8
0
 10
0
 20
0
 39
0
 70
1
 66
1
  0
VERTEX
  8
0
 10
1975
 20
506
 42
0
  0
VERTEX
  8
0
 10
1975
 20
638
 42
-0
  0
VERTEX
  8
0
 10
1965
 20
648
 42
0
  0
VERTEX
  8
0
 10
1945
 20
648
 42
-0
  0
VERTEX
  8
0
 10
1935
 20
638
 42
0
  0
VERTEX
  8
0
 10
1935
 20
506
 42
0
  0
VERTEX
  8
0
 10
1945
 20
496
 42
0
  0
VERTEX
  8
0
 10
1965
 20
496
 42
-0
  0
SEQEND
  0
POLYLINE
  8
0
 10
0
 20
0
 39
0
 70
1
 66
1
  0
VERTEX
  8
0
 10
1955
 20
634.5
 42
-1
  0
VERTEX
  8
0
 10
1955
 20
621.5
 42
-1
  0
SEQEND
  0
POLYLINE
  8
0
 10
0
 20
0
 39
0
 70
1
 66
1
  0
VERTEX
  8
0
 10
1955
 20
522.5
 42
-1
  0
VERTEX
  8
0
 10
1955
 20
509.5
 42
-1
  0
SEQEND
  0
POLYLINE
  8
0
 10
0
 20
0
 39
0
 70
1
 66
1
  0
VERTEX
  8
0
 10
790
 20
560
 42
-0
  0
VERTEX
  8
0
 10
790
 20
60
 42
-0
  0
VERTEX
  8
0
 10
808
 20
10
 42
-0
  0
VERTEX
  8
0
 10
820
 20
10
 42
-0
  0
VERTEX
  8
0
 10
820
 20
610
 42
-0
  0
VERTEX
  8
0
 10
808
 20
610
 42
-0
  0
SEQEND
  0
POLYLINE
  8
0
 10
0
 20
0
 39
0
 70
1
 66
1
  0
VERTEX
  8
0
 10
1775
 20
520
 42
0
  0
VERTEX
  8
0
 10
1775
 20
652
 42
-0
  0
VERTEX
  8
0
 10
1765
 20
662
 42
0
  0
VERTEX
  8
0
 10
1745
 20
662
 42
-0
  0
VERTEX
  8
0
 10
1735
 20
652
 42
0
  0
VERTEX
  8
0
 10
1735
 20
520
 42
0
  0
VERTEX
  8
0
 10
1745
 20
510
 42
0
  0
VERTEX
  8
0
 10
1765
 20
510
 42
-0
  0
SEQEND
  0
POLYLINE
  8
0
 10
0
 20
0
 39
0
 70
1
 66
1
  0
VERTEX
  8
0
 10
1755
 20
648.5
 42
-1
  0
VERTEX
  8
0
 10
1755
 20
635.5
 42
-1
  0
SEQEND
  0
POLYLINE
  8
0
 10
0
 20
0
 39
0
 70
1
 66
1
  0
VERTEX
  8
0
 10
1755
 20
536.5
 42
-1
  0
VERTEX
  8
0
 10
1755
 20
523.5
 42
-1
  0
SEQEND
  0
POLYLINE
  8
0
 10
0
 20
0
 39
0
 70
1
 66
1
  0
VERTEX
  8
0
 10
1880
 20
20
 42
0
  0
VERTEX
  8
0
 10
1880
 20
152
 42
-0
  0
VERTEX
  8
0
 10
1870
 20
162
 42
0
  0
VERTEX
  8
0
 10
1850
 20
162
 42
-0
  0
VERTEX
  8
0
 10
1840
 20
152
 42
0
  0
VERTEX
  8
0
 10
1840
 20
20
 42
0
  0
VERTEX
  8
0
 10
1850
 20
10
 42
0
  0
VERTEX
  8
0
 10
1870
 20
10
 42
-0
  0
SEQEND
  0
POLYLINE
  8
0
 10
0
 20
0
 39
0
 70
1
 66
1
  0
VERTEX
  8
0
 10
1860
 20
148.5
 42
-1
  0
VERTEX
  8
0
 10
1860
 20
135.5
 42
-1
  0
SEQEND
  0
POLYLINE
  8
0
 10
0
 20
0
 39
0
 70
1
 66
1
  0
VERTEX
  8
0
 10
1860
 20
36.5
 42
-1
  0
VERTEX
  8
0
 10
1860
 20
23.5
 42
-1
  0
SEQEND
  0
POLYLINE
  8
0
 10
0
 20
0
 39
0
 70
1
 66
1
  0
VERTEX
  8
0
 10
1875
 20
520
 42
0
  0
VERTEX
  8
0
 10
1875
 20
652
 42
-0
  0
VERTEX
  8
0
 10
1865
 20
662
 42
0
  0
VERTEX
  8
0
 10
1845
 20
662
 42
-0
  0
VERTEX
  8
0
 10
1835
 20
652
 42
0
  0
VERTEX
  8
0
 10
1835
 20
520
 42
0
  0
VERTEX
  8
0
 10
1845
 20
510
 42
0
  0
VERTEX
  8
0
 10
1865
 20
510
 42
-0
  0
SEQEND
  0
POLYLINE
  8
0
 10
0
 20
0
 39
0
 70
1
 66
1
  0
VERTEX
  8
0
 10
1855
 20
648.5
 42
-1
  0
VERTEX
  8
0
 10
1855
 20
635.5
 42
-1
  0
SEQEND
  0
POLYLINE
  8
0
 10
0
 20
0
 39
0
 70
1
 66
1
  0
VERTEX
  8
0
 10
1855
 20
536.5
 42
-1
  0
VERTEX
  8
0
 10
1855
 20
523.5
 42
-1
  0
SEQEND
  0
POLYLINE
  8
0
 10
0
 20
0
 39
0
 70
1
 66
1
  0
VERTEX
  8
0
 10
1980
 20
20
 42
0
  0
VERTEX
  8
0
 10
1980
 20
152
 42
-0
  0
VERTEX
  8
0
 10
1970
 20
162
 42
0
  0
VERTEX
  8
0
 10
1950
 20
162
 42
-0
  0
VERTEX
  8
0
 10
1940
 20
152
 42
0
  0
VERTEX
  8
0
 10
1940
 20
20
 42
0
  0
VERTEX
  8
0
 10
1950
 20
10
 42
0
  0
VERTEX
  8
0
 10
1970
 20
10
 42
-0
  0
SEQEND
  0
POLYLINE
  8
0
 10
0
 20
0
 39
0
 70
1
 66
1
  0
VERTEX
  8
0
 10
1960
 20
148.5
 42
-1
  0
VERTEX
  8
0
 10
1960
 20
135.5
 42
-1
  0
SEQEND
  0
POLYLINE
  8
0
 10
0
 20
0
 39
0
 70
1
 66
1
  0
VERTEX
  8
0
 10
1960
 20
36.5
 42
-1
  0
VERTEX
  8
0
 10
1960
 20
23.5
 42
-1
  0
SEQEND
  0
POLYLINE
  8
0
 10
0
 20
0
 39
0
 70
1
 66
1
  0
VERTEX
  8
0
 10
1925
 20
506
 42
0
  0
VERTEX
  8
0
 10
1925
 20
638
 42
-0
  0
VERTEX
  8
0
 10
1915
 20
648
 42
0
  0
VERTEX
  8
0
 10
1895
 20
648
 42
-0
  0
VERTEX
  8
0
 10
1885
 20
638
 42
0
  0
VERTEX
  8
0
 10
1885
 20
506
 42
0
  0
VERTEX
  8
0
 10
1895
 20
496
 42
0
  0
VERTEX
  8
0
 10
1915
 20
496
 42
-0
  0
SEQEND
  0
POLYLINE
  8
0
 10
0
 20
0
 39
0
 70
1
 66
1
  0
VERTEX
  8
0
 10
1905
 20
634.5
 42
-1
  0
VERTEX
  8
0
 10
1905
 20
621.5
 42
-1
  0
SEQEND
  0
POLYLINE
  8
0
 10
0
 20
0
 39
0
 70
1
 66
1
  0
VERTEX
  8
0
 10
1905
 20
522.5
 42
-1
  0
VERTEX
  8
0
 10
1905
 20
509.5
 42
-1
  0
SEQEND
  0
POLYLINE
  8
0
 10
0
 20
0
 39
0
 70
1
 66
1
  0
VERTEX
  8
0
 10
1870
 20
844
 42
0
  0
VERTEX
  8
0
 10
1870
 20
976
 42
-0
  0
VERTEX
  8
0
 10
1860
 20
986
 42
0
  0
VERTEX
  8
0
 10
1840
 20
986
 42
-0
  0
VERTEX
  8
0
 10
1830
 20
976
 42
0
  0
VERTEX
  8
0
 10
1830
 20
844
 42
0
  0
VERTEX
  8
0
 10
1840
 20
834
 42
0
  0
VERTEX
  8
0
 10
1860
 20
834
 42
-0
  0
SEQEND
  0
POLYLINE
  8
0
 10
0
 20
0
 39
0
 70
1
 66
1
  0
VERTEX
  8
0
 10
1850
 20
972.5
 42
-1
  0
VERTEX
  8
0
 10
1850
 20
959.5
 42
-1
  0
SEQEND
  0
POLYLINE
  8
0
 10
0
 20
0
 39
0
 70
1
 66
1
  0
VERTEX
  8
0
 10
1850
 20
860.5
 42
-1
  0
VERTEX
  8
0
 10
1850
 20
847.5
 42
-1
  0
SEQEND
  0
POLYLINE
  8
0
 10
0
 20
0
 39
0
 70
1
 66
1
  0
VERTEX
  8
0
 10
1820
 20
682
 42
0
  0
VERTEX
  8
0
 10
1820
 20
814
 42
-0
  0
VERTEX
  8
0
 10
1810
 20
824
 42
0
  0
VERTEX
  8
0
 10
1790
 20
824
 42
-0
  0
VERTEX
  8
0
 10
1780
 20
814
 42
0
  0
VERTEX
  8
0
 10
1780
 20
682
 42
0
  0
VERTEX
  8
0
 10
1790
 20
672
 42
0
  0
VERTEX
  8
0
 10
1810
 20
672
 42
-0
  0
SEQEND
  0
POLYLINE
  8
0
 10
0
 20
0
 39
0
 70
1
 66
1
  0
VERTEX
  8
0
 10
1800
 20
810.5
 42
-1
  0
VERTEX
  8
0
 10
1800
 20
797.5
 42
-1
  0
SEQEND
  0
POLYLINE
  8
0
 10
0
 20
0
 39
0
 70
1
 66
1
  0
VERTEX
  8
0
 10
1800
 20
698.5
 42
-1
  0
VERTEX
  8
0
 10
1800
 20
685.5
 42
-1
  0
SEQEND
  0
POLYLINE
  8
0
 10
0
 20
0
 39
0
 70
1
 66
1
  0
VERTEX
  8
0
 10
1930
 20
20
 42
0
  0
VERTEX
  8
0
 10
1930
 20
152
 42
-0
  0
VERTEX
  8
0
 10
1920
 20
162
 42
0
  0
VERTEX
  8
0
 10
1900
 20
162
 42
-0
  0
VERTEX
  8
0
 10
1890
 20
152
 42
0
  0
VERTEX
  8
0
 10
1890
 20
20
 42
0
  0
VERTEX
  8
0
 10
1900
 20
10
 42
0
  0
VERTEX
  8
0
 10
1920
 20
10
 42
-0
  0
SEQEND
  0
POLYLINE
  8
0
 10
0
 20
0
 39
0
 70
1
 66
1
  0
VERTEX
  8
0
 10
1910
 20
148.5
 42
-1
  0
VERTEX
  8
0
 10
1910
 20
135.5
 42
-1
  0
SEQEND
  0
POLYLINE
  8
0
 10
0
 20
0
 39
0
 70
1
 66
1
  0
VERTEX
  8
0
 10
1910
 20
36.5
 42
-1
  0
VERTEX
  8
0
 10
1910
 20
23.5
 42
-1
  0
SEQEND
  0
ENDSEC
  0
EOF
