  0
SECTION
  2
ENTITIES
  0
POLYLINE
  8
0
 10
0
 20
0
 39
0
 70
1
 66
1
  0
VERTEX
  8
0
 10
0
 20
0
 42
0
  0
VERTEX
  8
0
 10
1200
 20
0
 42
0
  0
VERTEX
  8
0
 10
1200
 20
600
 42
0
  0
VERTEX
  8
0
 10
0
 20
600
 42
0
  0
SEQEND
  0
POLYLINE
  8
0
 10
0
 20
0
 39
0
 70
1
 66
1
  0
VERTEX
  8
0
 10
85.006309509277344
 20
30.158906936645508
 42
-0
  0
VERTEX
  8
0
 10
160.00631713867187
 20
30.158906936645508
 42
-0
  0
VERTEX
  8
0
 10
160.00631713867187
 20
165.15890502929687
 42
-0
  0
VERTEX
  8
0
 10
137.01031494140625
 20
165.15890502929687
 42
-0
  0
VERTEX
  8
0
 10
48.679309844970703
 20
16.336906433105469
 42
0.53532594442367554
  0
VERTEX
  8
0
 10
51.496311187744141
 20
10.206904411315918
 42
-0
  0
VERTEX
  8
0
 10
70.634307861328125
 20
10.160906791687012
 42
0.24879962205886841
  0
VERTEX
  8
0
 10
74.039306640625
 20
11.875903129577637
 42
0.015648115426301956
  0
SEQEND
  0
POLYLINE
  8
0
 10
0
 20
0
 39
0
 70
1
 66
1
  0
VERTEX
  8
0
 10
85.160003662109375
 20
145.16000366210937
 42
-0
  0
VERTEX
  8
0
 10
10.159999847412109
 20
145.16000366210937
 42
-0
  0
VERTEX
  8
0
 10
10.159999847412109
 20
10.159999847412109
 42
-0
  0
VERTEX
  8
0
 10
33.155998229980469
 20
10.159999847412109
 42
-0
  0
VERTEX
  8
0
 10
121.48699951171875
 20
158.98199462890625
 42
0.53532594442367554
  0
VERTEX
  8
0
 10
118.66999816894531
 20
165.11199951171875
 42
-0
  0
VERTEX
  8
0
 10
99.531997680664063
 20
165.15800476074219
 42
0.24879962205886841
  0
VERTEX
  8
0
 10
96.126998901367188
 20
163.44300842285156
 42
0.015648115426301956
  0
SEQEND
  0
POLYLINE
  8
0
 10
0
 20
0
 39
0
 70
1
 66
1
  0
VERTEX
  8
0
 10
85.006309509277344
 20
175.35890197753906
 42
-0
  0
VERTEX
  8
0
 10
160.00631713867187
 20
175.35890197753906
 42
-0
  0
VERTEX
  8
0
 10
160.00631713867187
 20
310.35891723632812
 42
-0
  0
VERTEX
  8
0
 10
137.01031494140625
 20
310.35891723632812
 42
-0
  0
VERTEX
  8
0
 10
48.679309844970703
 20
161.53691101074219
 42
0.53532594442367554
  0
VERTEX
  8
0
 10
51.496311187744141
 20
155.40690612792969
 42
-0
  0
VERTEX
  8
0
 10
70.634307861328125
 20
155.36090087890625
 42
0.24879962205886841
  0
VERTEX
  8
0
 10
74.039306640625
 20
157.07589721679687
 42
0.015648115426301956
  0
SEQEND
  0
POLYLINE
  8
0
 10
0
 20
0
 39
0
 70
1
 66
1
  0
VERTEX
  8
0
 10
85.160003662109375
 20
290.3599853515625
 42
-0
  0
VERTEX
  8
0
 10
10.159999847412109
 20
290.3599853515625
 42
-0
  0
VERTEX
  8
0
 10
10.159999847412109
 20
155.36000061035156
 42
-0
  0
VERTEX
  8
0
 10
33.155998229980469
 20
155.36000061035156
 42
-0
  0
VERTEX
  8
0
 10
121.48699951171875
 20
304.1820068359375
 42
0.53532594442367554
  0
VERTEX
  8
0
 10
118.66999816894531
 20
310.31201171875
 42
-0
  0
VERTEX
  8
0
 10
99.531997680664063
 20
310.35800170898437
 42
0.24879962205886841
  0
VERTEX
  8
0
 10
96.126998901367188
 20
308.64300537109375
 42
0.015648115426301956
  0
SEQEND
  0
POLYLINE
  8
0
 10
0
 20
0
 39
0
 70
1
 66
1
  0
VERTEX
  8
0
 10
85.006309509277344
 20
320.55889892578125
 42
-0
  0
VERTEX
  8
0
 10
160.00631713867187
 20
320.55889892578125
 42
-0
  0
VERTEX
  8
0
 10
160.00631713867187
 20
455.55889892578125
 42
-0
  0
VERTEX
  8
0
 10
137.01031494140625
 20
455.55889892578125
 42
-0
  0
VERTEX
  8
0
 10
48.679309844970703
 20
306.73690795898438
 42
0.53532594442367554
  0
VERTEX
  8
0
 10
51.496311187744141
 20
300.60690307617187
 42
-0
  0
VERTEX
  8
0
 10
70.634307861328125
 20
300.5609130859375
 42
0.24879962205886841
  0
VERTEX
  8
0
 10
74.039306640625
 20
302.27590942382812
 42
0.015648115426301956
  0
SEQEND
  0
POLYLINE
  8
0
 10
0
 20
0
 39
0
 70
1
 66
1
  0
VERTEX
  8
0
 10
85.160003662109375
 20
435.55999755859375
 42
-0
  0
VERTEX
  8
0
 10
10.159999847412109
 20
435.55999755859375
 42
-0
  0
VERTEX
  8
0
 10
10.159999847412109
 20
300.55999755859375
 42
-0
  0
VERTEX
  8
0
 10
33.155998229980469
 20
300.55999755859375
 42
-0
  0
VERTEX
  8
0
 10
121.48699951171875
 20
449.38198852539062
 42
0.53532594442367554
  0
VERTEX
  8
0
 10
118.66999816894531
 20
455.51199340820312
 42
-0
  0
VERTEX
  8
0
 10
99.531997680664063
 20
455.5579833984375
 42
0.24879962205886841
  0
VERTEX
  8
0
 10
96.126998901367188
 20
453.84298706054687
 42
0.015648115426301956
  0
SEQEND
  0
POLYLINE
  8
0
 10
0
 20
0
 39
0
 70
1
 66
1
  0
VERTEX
  8
0
 10
170.43890380859375
 20
461.60000610351562
 42
-0
  0
VERTEX
  8
0
 10
170.43890380859375
 20
386.60000610351562
 42
-0
  0
VERTEX
  8
0
 10
305.43890380859375
 20
386.60000610351562
 42
-0
  0
VERTEX
  8
0
 10
305.43890380859375
 20
409.59600830078125
 42
-0
  0
VERTEX
  8
0
 10
156.61691284179687
 20
497.927001953125
 42
0.53532594442367554
  0
VERTEX
  8
0
 10
150.48690795898437
 20
495.1099853515625
 42
-0
  0
VERTEX
  8
0
 10
150.44090270996094
 20
475.97198486328125
 42
0.24879962205886841
  0
VERTEX
  8
0
 10
152.15589904785156
 20
472.56698608398437
 42
0.015648115426301956
  0
SEQEND
  0
POLYLINE
  8
0
 10
0
 20
0
 39
0
 70
1
 66
1
  0
VERTEX
  8
0
 10
285.44000244140625
 20
461.44631958007812
 42
-0
  0
VERTEX
  8
0
 10
285.44000244140625
 20
536.4462890625
 42
-0
  0
VERTEX
  8
0
 10
150.44000244140625
 20
536.4462890625
 42
-0
  0
VERTEX
  8
0
 10
150.44000244140625
 20
513.4503173828125
 42
-0
  0
VERTEX
  8
0
 10
299.26199340820312
 20
425.11932373046875
 42
0.53532594442367554
  0
VERTEX
  8
0
 10
305.39199829101562
 20
427.93630981445312
 42
-0
  0
VERTEX
  8
0
 10
305.43798828125
 20
447.07431030273437
 42
0.24879962205886841
  0
VERTEX
  8
0
 10
303.72299194335937
 20
450.47930908203125
 42
0.015648115426301956
  0
SEQEND
  0
POLYLINE
  8
0
 10
0
 20
0
 39
0
 70
1
 66
1
  0
VERTEX
  8
0
 10
245.0863037109375
 20
30.158906936645508
 42
-0
  0
VERTEX
  8
0
 10
320.0863037109375
 20
30.158906936645508
 42
-0
  0
VERTEX
  8
0
 10
320.0863037109375
 20
165.15890502929687
 42
-0
  0
VERTEX
  8
0
 10
297.09030151367187
 20
165.15890502929687
 42
-0
  0
VERTEX
  8
0
 10
208.75930786132813
 20
16.336906433105469
 42
0.53532594442367554
  0
VERTEX
  8
0
 10
211.57630920410156
 20
10.206904411315918
 42
-0
  0
VERTEX
  8
0
 10
230.71430969238281
 20
10.160906791687012
 42
0.24879962205886841
  0
VERTEX
  8
0
 10
234.11930847167969
 20
11.875903129577637
 42
0.015648115426301956
  0
SEQEND
  0
POLYLINE
  8
0
 10
0
 20
0
 39
0
 70
1
 66
1
  0
VERTEX
  8
0
 10
245.24000549316406
 20
145.16000366210937
 42
-0
  0
VERTEX
  8
0
 10
170.24000549316406
 20
145.16000366210937
 42
-0
  0
VERTEX
  8
0
 10
170.24000549316406
 20
10.159999847412109
 42
-0
  0
VERTEX
  8
0
 10
193.23599243164062
 20
10.159999847412109
 42
-0
  0
VERTEX
  8
0
 10
281.56698608398437
 20
158.98199462890625
 42
0.53532594442367554
  0
VERTEX
  8
0
 10
278.75
 20
165.11199951171875
 42
-0
  0
VERTEX
  8
0
 10
259.61199951171875
 20
165.15800476074219
 42
0.24879962205886841
  0
VERTEX
  8
0
 10
256.20700073242187
 20
163.44300842285156
 42
0.015648115426301956
  0
SEQEND
  0
POLYLINE
  8
0
 10
0
 20
0
 39
0
 70
1
 66
1
  0
VERTEX
  8
0
 10
245.0863037109375
 20
175.35890197753906
 42
-0
  0
VERTEX
  8
0
 10
320.0863037109375
 20
175.35890197753906
 42
-0
  0
VERTEX
  8
0
 10
320.0863037109375
 20
310.35891723632812
 42
-0
  0
VERTEX
  8
0
 10
297.09030151367187
 20
310.35891723632812
 42
-0
  0
VERTEX
  8
0
 10
208.75930786132813
 20
161.53691101074219
 42
0.53532594442367554
  0
VERTEX
  8
0
 10
211.57630920410156
 20
155.40690612792969
 42
-0
  0
VERTEX
  8
0
 10
230.71430969238281
 20
155.36090087890625
 42
0.24879962205886841
  0
VERTEX
  8
0
 10
234.11930847167969
 20
157.07589721679687
 42
0.015648115426301956
  0
SEQEND
  0
POLYLINE
  8
0
 10
0
 20
0
 39
0
 70
1
 66
1
  0
VERTEX
  8
0
 10
245.24000549316406
 20
290.3599853515625
 42
-0
  0
VERTEX
  8
0
 10
170.24000549316406
 20
290.3599853515625
 42
-0
  0
VERTEX
  8
0
 10
170.24000549316406
 20
155.36000061035156
 42
-0
  0
VERTEX
  8
0
 10
193.23599243164062
 20
155.36000061035156
 42
-0
  0
VERTEX
  8
0
 10
281.56698608398437
 20
304.1820068359375
 42
0.53532594442367554
  0
VERTEX
  8
0
 10
278.75
 20
310.31201171875
 42
-0
  0
VERTEX
  8
0
 10
259.61199951171875
 20
310.35800170898437
 42
0.24879962205886841
  0
VERTEX
  8
0
 10
256.20700073242187
 20
308.64300537109375
 42
0.015648115426301956
  0
SEQEND
  0
POLYLINE
  8
0
 10
0
 20
0
 39
0
 70
1
 66
1
  0
VERTEX
  8
0
 10
315.7589111328125
 20
455.72000122070312
 42
-0
  0
VERTEX
  8
0
 10
315.7589111328125
 20
380.72000122070313
 42
-0
  0
VERTEX
  8
0
 10
450.7589111328125
 20
380.72000122070313
 42
-0
  0
VERTEX
  8
0
 10
450.7589111328125
 20
403.71600341796875
 42
-0
  0
VERTEX
  8
0
 10
301.93692016601562
 20
492.0469970703125
 42
0.53532594442367554
  0
VERTEX
  8
0
 10
295.80691528320312
 20
489.23001098632812
 42
-0
  0
VERTEX
  8
0
 10
295.76089477539062
 20
470.09201049804687
 42
0.24879962205886841
  0
VERTEX
  8
0
 10
297.47589111328125
 20
466.68701171875
 42
0.015648115426301956
  0
SEQEND
  0
POLYLINE
  8
0
 10
0
 20
0
 39
0
 70
1
 66
1
  0
VERTEX
  8
0
 10
430.760009765625
 20
455.56631469726562
 42
-0
  0
VERTEX
  8
0
 10
430.760009765625
 20
530.5662841796875
 42
-0
  0
VERTEX
  8
0
 10
295.760009765625
 20
530.5662841796875
 42
-0
  0
VERTEX
  8
0
 10
295.760009765625
 20
507.5703125
 42
-0
  0
VERTEX
  8
0
 10
444.58200073242187
 20
419.23931884765625
 42
0.53532594442367554
  0
VERTEX
  8
0
 10
450.71200561523438
 20
422.05630493164062
 42
-0
  0
VERTEX
  8
0
 10
450.75799560546875
 20
441.19430541992187
 42
0.24879962205886841
  0
VERTEX
  8
0
 10
449.04299926757812
 20
444.59930419921875
 42
0.015648115426301956
  0
SEQEND
  0
POLYLINE
  8
0
 10
0
 20
0
 39
0
 70
1
 66
1
  0
VERTEX
  8
0
 10
405.16632080078125
 20
30.158906936645508
 42
-0
  0
VERTEX
  8
0
 10
480.16632080078125
 20
30.158906936645508
 42
-0
  0
VERTEX
  8
0
 10
480.16632080078125
 20
165.15890502929687
 42
-0
  0
VERTEX
  8
0
 10
457.17031860351562
 20
165.15890502929687
 42
-0
  0
VERTEX
  8
0
 10
368.83932495117187
 20
16.336906433105469
 42
0.53532594442367554
  0
VERTEX
  8
0
 10
371.65631103515625
 20
10.206904411315918
 42
-0
  0
VERTEX
  8
0
 10
390.7943115234375
 20
10.160906791687012
 42
0.24879962205886841
  0
VERTEX
  8
0
 10
394.19931030273437
 20
11.875903129577637
 42
0.015648115426301956
  0
SEQEND
  0
POLYLINE
  8
0
 10
0
 20
0
 39
0
 70
1
 66
1
  0
VERTEX
  8
0
 10
405.32000732421875
 20
145.16000366210937
 42
-0
  0
VERTEX
  8
0
 10
330.32000732421875
 20
145.16000366210937
 42
-0
  0
VERTEX
  8
0
 10
330.32000732421875
 20
10.159999847412109
 42
-0
  0
VERTEX
  8
0
 10
353.31600952148437
 20
10.159999847412109
 42
-0
  0
VERTEX
  8
0
 10
441.64700317382812
 20
158.98199462890625
 42
0.53532594442367554
  0
VERTEX
  8
0
 10
438.82998657226562
 20
165.11199951171875
 42
-0
  0
VERTEX
  8
0
 10
419.69198608398437
 20
165.15800476074219
 42
0.24879962205886841
  0
VERTEX
  8
0
 10
416.2869873046875
 20
163.44300842285156
 42
0.015648115426301956
  0
SEQEND
  0
POLYLINE
  8
0
 10
0
 20
0
 39
0
 70
1
 66
1
  0
VERTEX
  8
0
 10
170.24000549316406
 20
320.3599853515625
 42
-0
  0
VERTEX
  8
0
 10
370.239990234375
 20
320.3599853515625
 42
-0
  0
VERTEX
  8
0
 10
370.239990234375
 20
370.3599853515625
 42
-0
  0
VERTEX
  8
0
 10
170.24000549316406
 20
370.3599853515625
 42
-0
  0
SEQEND
  0
POLYLINE
  8
0
 10
0
 20
0
 39
0
 70
1
 66
1
  0
VERTEX
  8
0
 10
509.55999755859375
 20
175.16000366210937
 42
-0
  0
VERTEX
  8
0
 10
509.55999755859375
 20
375.16000366210937
 42
-0
  0
VERTEX
  8
0
 10
459.55999755859375
 20
375.16000366210937
 42
-0
  0
VERTEX
  8
0
 10
459.55999755859375
 20
175.16000366210937
 42
-0
  0
SEQEND
  0
POLYLINE
  8
0
 10
0
 20
0
 39
0
 70
1
 66
1
  0
VERTEX
  8
0
 10
510.8800048828125
 20
385.27999877929687
 42
-0
  0
VERTEX
  8
0
 10
510.8800048828125
 20
585.280029296875
 42
-0
  0
VERTEX
  8
0
 10
460.8800048828125
 20
585.280029296875
 42
-0
  0
VERTEX
  8
0
 10
460.8800048828125
 20
385.27999877929687
 42
-0
  0
SEQEND
  0
POLYLINE
  8
0
 10
0
 20
0
 39
0
 70
1
 66
1
  0
VERTEX
  8
0
 10
569.79998779296875
 20
10.159999847412109
 42
-0
  0
VERTEX
  8
0
 10
569.79998779296875
 20
210.16000366210937
 42
-0
  0
VERTEX
  8
0
 10
519.79998779296875
 20
210.16000366210937
 42
-0
  0
VERTEX
  8
0
 10
519.79998779296875
 20
10.159999847412109
 42
-0
  0
SEQEND
  0
POLYLINE
  8
0
 10
0
 20
0
 39
0
 70
1
 66
1
  0
VERTEX
  8
0
 10
571.1199951171875
 20
220.27999877929687
 42
-0
  0
VERTEX
  8
0
 10
571.1199951171875
 20
420.27999877929687
 42
-0
  0
VERTEX
  8
0
 10
521.1199951171875
 20
420.27999877929687
 42
-0
  0
VERTEX
  8
0
 10
521.1199951171875
 20
220.27999877929687
 42
-0
  0
SEQEND
  0
POLYLINE
  8
0
 10
0
 20
0
 39
0
 70
1
 66
1
  0
VERTEX
  8
0
 10
630.03997802734375
 20
10.159999847412109
 42
-0
  0
VERTEX
  8
0
 10
630.03997802734375
 20
210.16000366210937
 42
-0
  0
VERTEX
  8
0
 10
580.03997802734375
 20
210.16000366210937
 42
-0
  0
VERTEX
  8
0
 10
580.03997802734375
 20
10.159999847412109
 42
-0
  0
SEQEND
  0
POLYLINE
  8
0
 10
0
 20
0
 39
0
 70
1
 66
1
  0
VERTEX
  8
0
 10
631.3599853515625
 20
220.27999877929687
 42
-0
  0
VERTEX
  8
0
 10
631.3599853515625
 20
420.27999877929687
 42
-0
  0
VERTEX
  8
0
 10
581.3599853515625
 20
420.27999877929687
 42
-0
  0
VERTEX
  8
0
 10
581.3599853515625
 20
220.27999877929687
 42
-0
  0
SEQEND
  0
POLYLINE
  8
0
 10
0
 20
0
 39
0
 70
1
 66
1
  0
VERTEX
  8
0
 10
690.280029296875
 20
10.159999847412109
 42
-0
  0
VERTEX
  8
0
 10
690.280029296875
 20
210.16000366210937
 42
-0
  0
VERTEX
  8
0
 10
640.280029296875
 20
210.16000366210937
 42
-0
  0
VERTEX
  8
0
 10
640.280029296875
 20
10.159999847412109
 42
-0
  0
SEQEND
  0
POLYLINE
  8
0
 10
0
 20
0
 39
0
 70
1
 66
1
  0
VERTEX
  8
0
 10
691.5999755859375
 20
220.27999877929687
 42
-0
  0
VERTEX
  8
0
 10
691.5999755859375
 20
420.27999877929687
 42
-0
  0
VERTEX
  8
0
 10
641.5999755859375
 20
420.27999877929687
 42
-0
  0
VERTEX
  8
0
 10
641.5999755859375
 20
220.27999877929687
 42
-0
  0
SEQEND
  0
POLYLINE
  8
0
 10
0
 20
0
 39
0
 70
1
 66
1
  0
VERTEX
  8
0
 10
521.1199951171875
 20
430.39999389648437
 42
-0
  0
VERTEX
  8
0
 10
721.1199951171875
 20
430.39999389648437
 42
-0
  0
VERTEX
  8
0
 10
721.1199951171875
 20
480.39999389648437
 42
-0
  0
VERTEX
  8
0
 10
521.1199951171875
 20
480.39999389648437
 42
-0
  0
SEQEND
  0
POLYLINE
  8
0
 10
0
 20
0
 39
0
 70
1
 66
1
  0
VERTEX
  8
0
 10
521.1199951171875
 20
490.51998901367187
 42
-0
  0
VERTEX
  8
0
 10
721.1199951171875
 20
490.51998901367187
 42
-0
  0
VERTEX
  8
0
 10
721.1199951171875
 20
540.52001953125
 42
-0
  0
VERTEX
  8
0
 10
521.1199951171875
 20
540.52001953125
 42
-0
  0
SEQEND
  0
POLYLINE
  8
0
 10
0
 20
0
 39
0
 70
1
 66
1
  0
VERTEX
  8
0
 10
750.52001953125
 20
10.159999847412109
 42
-0
  0
VERTEX
  8
0
 10
750.52001953125
 20
210.16000366210937
 42
-0
  0
VERTEX
  8
0
 10
700.52001953125
 20
210.16000366210937
 42
-0
  0
VERTEX
  8
0
 10
700.52001953125
 20
10.159999847412109
 42
-0
  0
SEQEND
  0
POLYLINE
  8
0
 10
0
 20
0
 39
0
 70
1
 66
1
  0
VERTEX
  8
0
 10
751.84002685546875
 20
220.27999877929687
 42
-0
  0
VERTEX
  8
0
 10
751.84002685546875
 20
420.27999877929687
 42
-0
  0
VERTEX
  8
0
 10
701.84002685546875
 20
420.27999877929687
 42
-0
  0
VERTEX
  8
0
 10
701.84002685546875
 20
220.27999877929687
 42
-0
  0
SEQEND
  0
POLYLINE
  8
0
 10
0
 20
0
 39
0
 70
1
 66
1
  0
VERTEX
  8
0
 10
810.760009765625
 20
10.159999847412109
 42
-0
  0
VERTEX
  8
0
 10
810.760009765625
 20
210.16000366210937
 42
-0
  0
VERTEX
  8
0
 10
760.760009765625
 20
210.16000366210937
 42
-0
  0
VERTEX
  8
0
 10
760.760009765625
 20
10.159999847412109
 42
-0
  0
SEQEND
  0
POLYLINE
  8
0
 10
0
 20
0
 39
0
 70
1
 66
1
  0
VERTEX
  8
0
 10
812.08001708984375
 20
220.27999877929687
 42
-0
  0
VERTEX
  8
0
 10
812.08001708984375
 20
420.27999877929687
 42
-0
  0
VERTEX
  8
0
 10
762.08001708984375
 20
420.27999877929687
 42
-0
  0
VERTEX
  8
0
 10
762.08001708984375
 20
220.27999877929687
 42
-0
  0
SEQEND
  0
POLYLINE
  8
0
 10
0
 20
0
 39
0
 70
1
 66
1
  0
VERTEX
  8
0
 10
871
 20
10.159999847412109
 42
-0
  0
VERTEX
  8
0
 10
871
 20
210.16000366210937
 42
-0
  0
VERTEX
  8
0
 10
821
 20
210.16000366210937
 42
-0
  0
VERTEX
  8
0
 10
821
 20
10.159999847412109
 42
-0
  0
SEQEND
  0
POLYLINE
  8
0
 10
0
 20
0
 39
0
 70
1
 66
1
  0
VERTEX
  8
0
 10
872.32000732421875
 20
220.27999877929687
 42
-0
  0
VERTEX
  8
0
 10
872.32000732421875
 20
420.27999877929687
 42
-0
  0
VERTEX
  8
0
 10
822.32000732421875
 20
420.27999877929687
 42
-0
  0
VERTEX
  8
0
 10
822.32000732421875
 20
220.27999877929687
 42
-0
  0
SEQEND
  0
POLYLINE
  8
0
 10
0
 20
0
 39
0
 70
1
 66
1
  0
VERTEX
  8
0
 10
931.239990234375
 20
10.159999847412109
 42
-0
  0
VERTEX
  8
0
 10
931.239990234375
 20
210.16000366210937
 42
-0
  0
VERTEX
  8
0
 10
881.239990234375
 20
210.16000366210937
 42
-0
  0
VERTEX
  8
0
 10
881.239990234375
 20
10.159999847412109
 42
-0
  0
SEQEND
  0
POLYLINE
  8
0
 10
0
 20
0
 39
0
 70
1
 66
1
  0
VERTEX
  8
0
 10
60.159999847412109
 20
445.760009765625
 42
-0
  0
VERTEX
  8
0
 10
10.159999847412109
 20
545.760009765625
 42
-0
  0
VERTEX
  8
0
 10
10.159999847412109
 20
445.760009765625
 42
-0
  0
SEQEND
  0
POLYLINE
  8
0
 10
0
 20
0
 39
0
 70
1
 66
1
  0
VERTEX
  8
0
 10
21.445999145507813
 20
545.760009765625
 42
-0
  0
VERTEX
  8
0
 10
71.445999145507813
 20
445.760009765625
 42
-0
  0
VERTEX
  8
0
 10
71.445999145507813
 20
545.760009765625
 42
-0
  0
SEQEND
  0
POLYLINE
  8
0
 10
0
 20
0
 39
0
 70
1
 66
1
  0
VERTEX
  8
0
 10
380.32000732421875
 20
155.36000061035156
 42
-0
  0
VERTEX
  8
0
 10
330.32000732421875
 20
255.36000061035156
 42
-0
  0
VERTEX
  8
0
 10
330.32000732421875
 20
155.36000061035156
 42
-0
  0
SEQEND
  0
POLYLINE
  8
0
 10
0
 20
0
 39
0
 70
1
 66
1
  0
VERTEX
  8
0
 10
341.60598754882812
 20
255.36000061035156
 42
-0
  0
VERTEX
  8
0
 10
391.60598754882812
 20
155.36000061035156
 42
-0
  0
VERTEX
  8
0
 10
391.60598754882812
 20
255.36000061035156
 42
-0
  0
SEQEND
  0
POLYLINE
  8
0
 10
0
 20
0
 39
0
 70
1
 66
1
  0
VERTEX
  8
0
 10
430.48001098632812
 20
265.39999389648438
 42
-0
  0
VERTEX
  8
0
 10
380.48001098632812
 20
365.39999389648437
 42
-0
  0
VERTEX
  8
0
 10
380.48001098632812
 20
265.39999389648438
 42
-0
  0
SEQEND
  0
POLYLINE
  8
0
 10
0
 20
0
 39
0
 70
1
 66
1
  0
VERTEX
  8
0
 10
391.7659912109375
 20
365.39999389648437
 42
-0
  0
VERTEX
  8
0
 10
441.7659912109375
 20
265.39999389648438
 42
-0
  0
VERTEX
  8
0
 10
441.7659912109375
 20
365.39999389648437
 42
-0
  0
SEQEND
  0
POLYLINE
  8
0
 10
0
 20
0
 39
0
 70
1
 66
1
  0
VERTEX
  8
0
 10
781.3599853515625
 20
430.39999389648437
 42
-0
  0
VERTEX
  8
0
 10
731.3599853515625
 20
530.4000244140625
 42
-0
  0
VERTEX
  8
0
 10
731.3599853515625
 20
430.39999389648437
 42
-0
  0
SEQEND
  0
POLYLINE
  8
0
 10
0
 20
0
 39
0
 70
1
 66
1
  0
VERTEX
  8
0
 10
742.64599609375
 20
530.4000244140625
 42
-0
  0
VERTEX
  8
0
 10
792.64599609375
 20
430.39999389648437
 42
-0
  0
VERTEX
  8
0
 10
792.64599609375
 20
530.4000244140625
 42
-0
  0
SEQEND
  0
POLYLINE
  8
0
 10
0
 20
0
 39
0
 70
1
 66
1
  0
VERTEX
  8
0
 10
852.8800048828125
 20
430.39999389648437
 42
-0
  0
VERTEX
  8
0
 10
802.8800048828125
 20
530.4000244140625
 42
-0
  0
VERTEX
  8
0
 10
802.8800048828125
 20
430.39999389648437
 42
-0
  0
SEQEND
  0
POLYLINE
  8
0
 10
0
 20
0
 39
0
 70
1
 66
1
  0
VERTEX
  8
0
 10
814.166015625
 20
530.4000244140625
 42
-0
  0
VERTEX
  8
0
 10
864.166015625
 20
430.39999389648437
 42
-0
  0
VERTEX
  8
0
 10
864.166015625
 20
530.4000244140625
 42
-0
  0
SEQEND
  0
POLYLINE
  8
0
 10
0
 20
0
 39
0
 70
1
 66
1
  0
VERTEX
  8
0
 10
924.4000244140625
 20
430.39999389648437
 42
-0
  0
VERTEX
  8
0
 10
874.4000244140625
 20
530.4000244140625
 42
-0
  0
VERTEX
  8
0
 10
874.4000244140625
 20
430.39999389648437
 42
-0
  0
SEQEND
  0
POLYLINE
  8
0
 10
0
 20
0
 39
0
 70
1
 66
1
  0
VERTEX
  8
0
 10
885.68597412109375
 20
530.4000244140625
 42
-0
  0
VERTEX
  8
0
 10
935.68597412109375
 20
430.39999389648437
 42
-0
  0
VERTEX
  8
0
 10
935.68597412109375
 20
530.4000244140625
 42
-0
  0
SEQEND
  0
POLYLINE
  8
0
 10
0
 20
0
 39
0
 70
1
 66
1
  0
VERTEX
  8
0
 10
141.63999938964844
 20
578.719970703125
 42
-0
  0
VERTEX
  8
0
 10
171.63999938964844
 20
578.719970703125
 42
-0
  0
VERTEX
  8
0
 10
171.63999938964844
 20
561.41143798828125
 42
-0.035174380987882614
  0
VERTEX
  8
0
 10
236.63999938964844
 20
554.719970703125
 42
0
  0
VERTEX
  8
0
 10
236.63999938964844
 20
589.719970703125
 42
0
  0
VERTEX
  8
0
 10
76.639999389648438
 20
589.719970703125
 42
0
  0
VERTEX
  8
0
 10
76.6400146484375
 20
554.72003173828125
 42
-0.035174380987882614
  0
VERTEX
  8
0
 10
141.63999938964844
 20
561.41143798828125
 42
0
  0
SEQEND
  0
POLYLINE
  8
0
 10
0
 20
0
 39
0
 70
1
 66
1
  0
VERTEX
  8
0
 10
311.79998779296875
 20
570.55999755859375
 42
-0
  0
VERTEX
  8
0
 10
341.79998779296875
 20
570.55999755859375
 42
-0
  0
VERTEX
  8
0
 10
341.79998779296875
 20
553.25140380859375
 42
-0.035174380987882614
  0
VERTEX
  8
0
 10
406.79998779296875
 20
546.55999755859375
 42
0
  0
VERTEX
  8
0
 10
406.79998779296875
 20
581.55999755859375
 42
0
  0
VERTEX
  8
0
 10
246.80000305175781
 20
581.55999755859375
 42
0
  0
VERTEX
  8
0
 10
246.80001831054687
 20
546.55999755859375
 42
-0.035174380987882614
  0
VERTEX
  8
0
 10
311.79998779296875
 20
553.25140380859375
 42
0
  0
SEQEND
  0
POLYLINE
  8
0
 10
0
 20
0
 39
0
 70
1
 66
1
  0
VERTEX
  8
0
 10
586.1199951171875
 20
574.6400146484375
 42
-0
  0
VERTEX
  8
0
 10
616.1199951171875
 20
574.6400146484375
 42
-0
  0
VERTEX
  8
0
 10
616.1199951171875
 20
557.3314208984375
 42
-0.035174380987882614
  0
VERTEX
  8
0
 10
681.1199951171875
 20
550.6400146484375
 42
0
  0
VERTEX
  8
0
 10
681.1199951171875
 20
585.6400146484375
 42
0
  0
VERTEX
  8
0
 10
521.1199951171875
 20
585.6400146484375
 42
0
  0
VERTEX
  8
0
 10
521.1199951171875
 20
550.6400146484375
 42
-0.035174380987882614
  0
VERTEX
  8
0
 10
586.1199951171875
 20
557.3314208984375
 42
0
  0
SEQEND
  0
POLYLINE
  8
0
 10
0
 20
0
 39
0
 70
1
 66
1
  0
VERTEX
  8
0
 10
756.280029296875
 20
574.6400146484375
 42
-0
  0
VERTEX
  8
0
 10
786.280029296875
 20
574.6400146484375
 42
-0
  0
VERTEX
  8
0
 10
786.280029296875
 20
557.3314208984375
 42
-0.035174380987882614
  0
VERTEX
  8
0
 10
851.280029296875
 20
550.6400146484375
 42
0
  0
VERTEX
  8
0
 10
851.280029296875
 20
585.6400146484375
 42
0
  0
VERTEX
  8
0
 10
691.280029296875
 20
585.6400146484375
 42
0
  0
VERTEX
  8
0
 10
691.280029296875
 20
550.6400146484375
 42
-0.035174380987882614
  0
VERTEX
  8
0
 10
756.280029296875
 20
557.3314208984375
 42
0
  0
SEQEND
  0
POLYLINE
  8
0
 10
0
 20
0
 39
0
 70
1
 66
1
  0
VERTEX
  8
0
 10
906.55999755859375
 20
315.27999877929687
 42
-0
  0
VERTEX
  8
0
 10
906.55999755859375
 20
285.27999877929687
 42
-0
  0
VERTEX
  8
0
 10
889.25140380859375
 20
285.27999877929687
 42
-0.035174380987882614
  0
VERTEX
  8
0
 10
882.55999755859375
 20
220.27999877929687
 42
0
  0
VERTEX
  8
0
 10
917.55999755859375
 20
220.27999877929687
 42
0
  0
VERTEX
  8
0
 10
917.55999755859375
 20
380.27999877929687
 42
0
  0
VERTEX
  8
0
 10
882.55999755859375
 20
380.27999877929687
 42
-0.035174380987882614
  0
VERTEX
  8
0
 10
889.25140380859375
 20
315.27999877929687
 42
0
  0
SEQEND
  0
POLYLINE
  8
0
 10
0
 20
0
 39
0
 70
1
 66
1
  0
VERTEX
  8
0
 10
951.67999267578125
 20
315.27999877929687
 42
-0
  0
VERTEX
  8
0
 10
951.67999267578125
 20
285.27999877929687
 42
-0
  0
VERTEX
  8
0
 10
934.37139892578125
 20
285.27999877929687
 42
-0.035174380987882614
  0
VERTEX
  8
0
 10
927.67999267578125
 20
220.27999877929687
 42
0
  0
VERTEX
  8
0
 10
962.67999267578125
 20
220.27999877929687
 42
0
  0
VERTEX
  8
0
 10
962.67999267578125
 20
380.27999877929687
 42
0
  0
VERTEX
  8
0
 10
927.67999267578125
 20
380.27999877929687
 42
-0.035174380987882614
  0
VERTEX
  8
0
 10
934.37139892578125
 20
315.27999877929687
 42
0
  0
SEQEND
  0
POLYLINE
  8
0
 10
0
 20
0
 39
0
 70
1
 66
1
  0
VERTEX
  8
0
 10
965.47998046875
 20
105.16000366210937
 42
-0
  0
VERTEX
  8
0
 10
965.47998046875
 20
75.160003662109375
 42
-0
  0
VERTEX
  8
0
 10
948.17138671875
 20
75.160003662109375
 42
-0.035174380987882614
  0
VERTEX
  8
0
 10
941.47998046875
 20
10.159999847412109
 42
0
  0
VERTEX
  8
0
 10
976.47998046875
 20
10.159999847412109
 42
0
  0
VERTEX
  8
0
 10
976.47998046875
 20
170.16000366210937
 42
0
  0
VERTEX
  8
0
 10
941.47998046875
 20
170.15998840332031
 42
-0.035174380987882614
  0
VERTEX
  8
0
 10
948.17138671875
 20
105.16000366210937
 42
0
  0
SEQEND
  0
POLYLINE
  8
0
 10
0
 20
0
 39
0
 70
1
 66
1
  0
VERTEX
  8
0
 10
965.96002197265625
 20
494.44000244140625
 42
-0
  0
VERTEX
  8
0
 10
965.96002197265625
 20
464.44000244140625
 42
-0
  0
VERTEX
  8
0
 10
948.65142822265625
 20
464.44000244140625
 42
-0.035174380987882614
  0
VERTEX
  8
0
 10
941.96002197265625
 20
399.44000244140625
 42
0
  0
VERTEX
  8
0
 10
976.96002197265625
 20
399.44000244140625
 42
0
  0
VERTEX
  8
0
 10
976.96002197265625
 20
559.44000244140625
 42
0
  0
VERTEX
  8
0
 10
941.96002197265625
 20
559.44000244140625
 42
-0.035174380987882614
  0
VERTEX
  8
0
 10
948.65142822265625
 20
494.44000244140625
 42
0
  0
SEQEND
  0
POLYLINE
  8
0
 10
0
 20
0
 39
0
 70
1
 66
1
  0
VERTEX
  8
0
 10
996.79998779296875
 20
275.20001220703125
 42
-0
  0
VERTEX
  8
0
 10
996.79998779296875
 20
245.19999694824219
 42
-0
  0
VERTEX
  8
0
 10
979.49139404296875
 20
245.19999694824219
 42
-0.035174380987882614
  0
VERTEX
  8
0
 10
972.79998779296875
 20
180.19999694824219
 42
0
  0
VERTEX
  8
0
 10
1007.7999877929687
 20
180.19999694824219
 42
0
  0
VERTEX
  8
0
 10
1007.7999877929687
 20
340.20001220703125
 42
0
  0
VERTEX
  8
0
 10
972.79998779296875
 20
340.19998168945312
 42
-0.035174380987882614
  0
VERTEX
  8
0
 10
979.49139404296875
 20
275.20001220703125
 42
0
  0
SEQEND
  0
POLYLINE
  8
0
 10
0
 20
0
 39
0
 70
1
 66
1
  0
VERTEX
  8
0
 10
1010.5999755859375
 20
105.16000366210937
 42
-0
  0
VERTEX
  8
0
 10
1010.5999755859375
 20
75.160003662109375
 42
-0
  0
VERTEX
  8
0
 10
993.2913818359375
 20
75.160003662109375
 42
-0.035174380987882614
  0
VERTEX
  8
0
 10
986.5999755859375
 20
10.159999847412109
 42
0
  0
VERTEX
  8
0
 10
1021.5999755859375
 20
10.159999847412109
 42
0
  0
VERTEX
  8
0
 10
1021.5999755859375
 20
170.16000366210937
 42
0
  0
VERTEX
  8
0
 10
986.5999755859375
 20
170.15998840332031
 42
-0.035174380987882614
  0
VERTEX
  8
0
 10
993.2913818359375
 20
105.16000366210937
 42
0
  0
SEQEND
  0
POLYLINE
  8
0
 10
0
 20
0
 39
0
 70
1
 66
1
  0
VERTEX
  8
0
 10
1011.0800170898437
 20
445.239990234375
 42
-0
  0
VERTEX
  8
0
 10
1011.0800170898437
 20
415.239990234375
 42
-0
  0
VERTEX
  8
0
 10
993.77142333984375
 20
415.239990234375
 42
-0.035174380987882614
  0
VERTEX
  8
0
 10
987.08001708984375
 20
350.239990234375
 42
0
  0
VERTEX
  8
0
 10
1022.0800170898437
 20
350.239990234375
 42
0
  0
VERTEX
  8
0
 10
1022.0800170898437
 20
510.239990234375
 42
0
  0
VERTEX
  8
0
 10
987.08001708984375
 20
510.239990234375
 42
-0.035174380987882614
  0
VERTEX
  8
0
 10
993.77142333984375
 20
445.239990234375
 42
0
  0
SEQEND
  0
POLYLINE
  8
0
 10
0
 20
0
 39
0
 70
1
 66
1
  0
VERTEX
  8
0
 10
1041.9200439453125
 20
275.20001220703125
 42
-0
  0
VERTEX
  8
0
 10
1041.9200439453125
 20
245.19999694824219
 42
-0
  0
VERTEX
  8
0
 10
1024.6114501953125
 20
245.19999694824219
 42
-0.035174380987882614
  0
VERTEX
  8
0
 10
1017.9199829101562
 20
180.19999694824219
 42
0
  0
VERTEX
  8
0
 10
1052.9200439453125
 20
180.19999694824219
 42
0
  0
VERTEX
  8
0
 10
1052.9200439453125
 20
340.20001220703125
 42
0
  0
VERTEX
  8
0
 10
1017.9199829101562
 20
340.19998168945312
 42
-0.035174380987882614
  0
VERTEX
  8
0
 10
1024.6114501953125
 20
275.20001220703125
 42
0
  0
SEQEND
  0
POLYLINE
  8
0
 10
0
 20
0
 39
0
 70
1
 66
1
  0
VERTEX
  8
0
 10
1055.719970703125
 20
105.16000366210937
 42
-0
  0
VERTEX
  8
0
 10
1055.719970703125
 20
75.160003662109375
 42
-0
  0
VERTEX
  8
0
 10
1038.411376953125
 20
75.160003662109375
 42
-0.035174380987882614
  0
VERTEX
  8
0
 10
1031.719970703125
 20
10.159999847412109
 42
0
  0
VERTEX
  8
0
 10
1066.719970703125
 20
10.159999847412109
 42
0
  0
VERTEX
  8
0
 10
1066.719970703125
 20
170.16000366210937
 42
0
  0
VERTEX
  8
0
 10
1031.719970703125
 20
170.15998840332031
 42
-0.035174380987882614
  0
VERTEX
  8
0
 10
1038.411376953125
 20
105.16000366210937
 42
0
  0
SEQEND
  0
POLYLINE
  8
0
 10
0
 20
0
 39
0
 70
1
 66
1
  0
VERTEX
  8
0
 10
1056.199951171875
 20
445.239990234375
 42
-0
  0
VERTEX
  8
0
 10
1056.199951171875
 20
415.239990234375
 42
-0
  0
VERTEX
  8
0
 10
1038.891357421875
 20
415.239990234375
 42
-0.035174380987882614
  0
VERTEX
  8
0
 10
1032.199951171875
 20
350.239990234375
 42
0
  0
VERTEX
  8
0
 10
1067.199951171875
 20
350.239990234375
 42
0
  0
VERTEX
  8
0
 10
1067.199951171875
 20
510.239990234375
 42
0
  0
VERTEX
  8
0
 10
1032.199951171875
 20
510.239990234375
 42
-0.035174380987882614
  0
VERTEX
  8
0
 10
1038.891357421875
 20
445.239990234375
 42
0
  0
SEQEND
  0
POLYLINE
  8
0
 10
0
 20
0
 39
0
 70
1
 66
1
  0
VERTEX
  8
0
 10
1087.0400390625
 20
275.20001220703125
 42
-0
  0
VERTEX
  8
0
 10
1087.0400390625
 20
245.19999694824219
 42
-0
  0
VERTEX
  8
0
 10
1069.7314453125
 20
245.19999694824219
 42
-0.035174380987882614
  0
VERTEX
  8
0
 10
1063.0400390625
 20
180.19999694824219
 42
0
  0
VERTEX
  8
0
 10
1098.0400390625
 20
180.19999694824219
 42
0
  0
VERTEX
  8
0
 10
1098.0400390625
 20
340.20001220703125
 42
0
  0
VERTEX
  8
0
 10
1063.0400390625
 20
340.19998168945312
 42
-0.035174380987882614
  0
VERTEX
  8
0
 10
1069.7314453125
 20
275.20001220703125
 42
0
  0
SEQEND
  0
POLYLINE
  8
0
 10
0
 20
0
 39
0
 70
1
 66
1
  0
VERTEX
  8
0
 10
1100.8399658203125
 20
105.16000366210937
 42
-0
  0
VERTEX
  8
0
 10
1100.8399658203125
 20
75.160003662109375
 42
-0
  0
VERTEX
  8
0
 10
1083.5313720703125
 20
75.160003662109375
 42
-0.035174380987882614
  0
VERTEX
  8
0
 10
1076.8399658203125
 20
10.159999847412109
 42
0
  0
VERTEX
  8
0
 10
1111.8399658203125
 20
10.159999847412109
 42
0
  0
VERTEX
  8
0
 10
1111.8399658203125
 20
170.16000366210937
 42
0
  0
VERTEX
  8
0
 10
1076.8399658203125
 20
170.15998840332031
 42
-0.035174380987882614
  0
VERTEX
  8
0
 10
1083.5313720703125
 20
105.16000366210937
 42
0
  0
SEQEND
  0
POLYLINE
  8
0
 10
0
 20
0
 39
0
 70
1
 66
1
  0
VERTEX
  8
0
 10
81.680000305175781
 20
470.55999755859375
 42
-0
  0
VERTEX
  8
0
 10
86.680000305175781
 20
465.55999755859375
 42
0
  0
VERTEX
  8
0
 10
121.68000030517578
 20
465.55999755859375
 42
0
  0
VERTEX
  8
0
 10
121.68000030517578
 20
532.55999755859375
 42
0
  0
VERTEX
  8
0
 10
86.680000305175781
 20
532.55999755859375
 42
-0
  0
VERTEX
  8
0
 10
81.680000305175781
 20
527.55999755859375
 42
0
  0
SEQEND
  0
POLYLINE
  8
0
 10
0
 20
0
 39
0
 70
1
 66
1
  0
VERTEX
  8
0
 10
94.680000305175781
 20
519.55999755859375
 42
-1
  0
VERTEX
  8
0
 10
106.68000030517578
 20
519.55999755859375
 42
-0
  0
VERTEX
  8
0
 10
106.68000030517578
 20
479.55999755859375
 42
-1
  0
VERTEX
  8
0
 10
94.680000305175781
 20
479.55999755859375
 42
0
  0
SEQEND
  0
POLYLINE
  8
0
 10
0
 20
0
 39
0
 70
1
 66
1
  0
VERTEX
  8
0
 10
401.83999633789062
 20
180.16000366210937
 42
-0
  0
VERTEX
  8
0
 10
406.83999633789062
 20
175.16000366210937
 42
0
  0
VERTEX
  8
0
 10
441.83999633789062
 20
175.16000366210937
 42
0
  0
VERTEX
  8
0
 10
441.83999633789062
 20
242.16000366210937
 42
0
  0
VERTEX
  8
0
 10
406.83999633789062
 20
242.16000366210937
 42
-0
  0
VERTEX
  8
0
 10
401.83999633789062
 20
237.16000366210937
 42
0
  0
SEQEND
  0
POLYLINE
  8
0
 10
0
 20
0
 39
0
 70
1
 66
1
  0
VERTEX
  8
0
 10
414.83999633789062
 20
229.16000366210937
 42
-1
  0
VERTEX
  8
0
 10
426.83999633789062
 20
229.16000366210937
 42
-0
  0
VERTEX
  8
0
 10
426.83999633789062
 20
189.16000366210937
 42
-1
  0
VERTEX
  8
0
 10
414.83999633789062
 20
189.16000366210937
 42
0
  0
SEQEND
  0
POLYLINE
  8
0
 10
0
 20
0
 39
0
 70
1
 66
1
  0
VERTEX
  8
0
 10
866.44000244140625
 20
580.44000244140625
 42
-0
  0
VERTEX
  8
0
 10
861.44000244140625
 20
575.44000244140625
 42
0
  0
VERTEX
  8
0
 10
861.44000244140625
 20
540.44000244140625
 42
0
  0
VERTEX
  8
0
 10
928.44000244140625
 20
540.44000244140625
 42
0
  0
VERTEX
  8
0
 10
928.44000244140625
 20
575.44000244140625
 42
-0
  0
VERTEX
  8
0
 10
923.44000244140625
 20
580.44000244140625
 42
0
  0
SEQEND
  0
POLYLINE
  8
0
 10
0
 20
0
 39
0
 70
1
 66
1
  0
VERTEX
  8
0
 10
915.44000244140625
 20
567.44000244140625
 42
-1
  0
VERTEX
  8
0
 10
915.44000244140625
 20
555.44000244140625
 42
-0
  0
VERTEX
  8
0
 10
875.44000244140625
 20
555.44000244140625
 42
-1
  0
VERTEX
  8
0
 10
875.44000244140625
 20
567.44000244140625
 42
0
  0
SEQEND
  0
POLYLINE
  8
0
 10
0
 20
0
 39
0
 70
1
 66
1
  0
VERTEX
  8
0
 10
987.08001708984375
 20
525.280029296875
 42
-0
  0
VERTEX
  8
0
 10
992.08001708984375
 20
520.280029296875
 42
0
  0
VERTEX
  8
0
 10
1027.0799560546875
 20
520.280029296875
 42
0
  0
VERTEX
  8
0
 10
1027.0799560546875
 20
587.280029296875
 42
0
  0
VERTEX
  8
0
 10
992.08001708984375
 20
587.280029296875
 42
-0
  0
VERTEX
  8
0
 10
987.08001708984375
 20
582.280029296875
 42
0
  0
SEQEND
  0
POLYLINE
  8
0
 10
0
 20
0
 39
0
 70
1
 66
1
  0
VERTEX
  8
0
 10
1000.0800170898437
 20
574.280029296875
 42
-1
  0
VERTEX
  8
0
 10
1012.0800170898437
 20
574.280029296875
 42
-0
  0
VERTEX
  8
0
 10
1012.0800170898437
 20
534.280029296875
 42
-1
  0
VERTEX
  8
0
 10
1000.0800170898437
 20
534.280029296875
 42
0
  0
SEQEND
  0
POLYLINE
  8
0
 10
0
 20
0
 39
0
 70
1
 66
1
  0
VERTEX
  8
0
 10
1037.239990234375
 20
525.280029296875
 42
-0
  0
VERTEX
  8
0
 10
1042.239990234375
 20
520.280029296875
 42
0
  0
VERTEX
  8
0
 10
1077.239990234375
 20
520.280029296875
 42
0
  0
VERTEX
  8
0
 10
1077.239990234375
 20
587.280029296875
 42
0
  0
VERTEX
  8
0
 10
1042.239990234375
 20
587.280029296875
 42
-0
  0
VERTEX
  8
0
 10
1037.239990234375
 20
582.280029296875
 42
0
  0
SEQEND
  0
POLYLINE
  8
0
 10
0
 20
0
 39
0
 70
1
 66
1
  0
VERTEX
  8
0
 10
1050.239990234375
 20
574.280029296875
 42
-1
  0
VERTEX
  8
0
 10
1062.239990234375
 20
574.280029296875
 42
-0
  0
VERTEX
  8
0
 10
1062.239990234375
 20
534.280029296875
 42
-1
  0
VERTEX
  8
0
 10
1050.239990234375
 20
534.280029296875
 42
0
  0
SEQEND
  0
POLYLINE
  8
0
 10
0
 20
0
 39
0
 70
1
 66
1
  0
VERTEX
  8
0
 10
1077.3199462890625
 20
355.239990234375
 42
-0
  0
VERTEX
  8
0
 10
1082.3199462890625
 20
350.239990234375
 42
0
  0
VERTEX
  8
0
 10
1117.3199462890625
 20
350.239990234375
 42
0
  0
VERTEX
  8
0
 10
1117.3199462890625
 20
417.239990234375
 42
0
  0
VERTEX
  8
0
 10
1082.3199462890625
 20
417.239990234375
 42
-0
  0
VERTEX
  8
0
 10
1077.3199462890625
 20
412.239990234375
 42
0
  0
SEQEND
  0
POLYLINE
  8
0
 10
0
 20
0
 39
0
 70
1
 66
1
  0
VERTEX
  8
0
 10
1090.3199462890625
 20
404.239990234375
 42
-1
  0
VERTEX
  8
0
 10
1102.3199462890625
 20
404.239990234375
 42
-0
  0
VERTEX
  8
0
 10
1102.3199462890625
 20
364.239990234375
 42
-1
  0
VERTEX
  8
0
 10
1090.3199462890625
 20
364.239990234375
 42
0
  0
SEQEND
  0
POLYLINE
  8
0
 10
0
 20
0
 39
0
 70
1
 66
1
  0
VERTEX
  8
0
 10
1077.3199462890625
 20
432.27999877929687
 42
-0
  0
VERTEX
  8
0
 10
1082.3199462890625
 20
427.27999877929687
 42
0
  0
VERTEX
  8
0
 10
1117.3199462890625
 20
427.27999877929687
 42
0
  0
VERTEX
  8
0
 10
1117.3199462890625
 20
494.27999877929687
 42
0
  0
VERTEX
  8
0
 10
1082.3199462890625
 20
494.27999877929687
 42
-0
  0
VERTEX
  8
0
 10
1077.3199462890625
 20
489.27999877929687
 42
0
  0
SEQEND
  0
POLYLINE
  8
0
 10
0
 20
0
 39
0
 70
1
 66
1
  0
VERTEX
  8
0
 10
1090.3199462890625
 20
481.27999877929687
 42
-1
  0
VERTEX
  8
0
 10
1102.3199462890625
 20
481.27999877929687
 42
-0
  0
VERTEX
  8
0
 10
1102.3199462890625
 20
441.27999877929687
 42
-1
  0
VERTEX
  8
0
 10
1090.3199462890625
 20
441.27999877929687
 42
0
  0
SEQEND
  0
POLYLINE
  8
0
 10
0
 20
0
 39
0
 70
1
 66
1
  0
VERTEX
  8
0
 10
1087.4000244140625
 20
509.32000732421875
 42
-0
  0
VERTEX
  8
0
 10
1092.4000244140625
 20
504.32000732421875
 42
0
  0
VERTEX
  8
0
 10
1127.4000244140625
 20
504.32000732421875
 42
0
  0
VERTEX
  8
0
 10
1127.4000244140625
 20
571.32000732421875
 42
0
  0
VERTEX
  8
0
 10
1092.4000244140625
 20
571.32000732421875
 42
-0
  0
VERTEX
  8
0
 10
1087.4000244140625
 20
566.32000732421875
 42
0
  0
SEQEND
  0
POLYLINE
  8
0
 10
0
 20
0
 39
0
 70
1
 66
1
  0
VERTEX
  8
0
 10
1100.4000244140625
 20
558.32000732421875
 42
-1
  0
VERTEX
  8
0
 10
1112.4000244140625
 20
558.32000732421875
 42
-0
  0
VERTEX
  8
0
 10
1112.4000244140625
 20
518.32000732421875
 42
-1
  0
VERTEX
  8
0
 10
1100.4000244140625
 20
518.32000732421875
 42
0
  0
SEQEND
  0
POLYLINE
  8
0
 10
0
 20
0
 39
0
 70
1
 66
1
  0
VERTEX
  8
0
 10
1108.1600341796875
 20
185.19999694824219
 42
-0
  0
VERTEX
  8
0
 10
1113.1600341796875
 20
180.19999694824219
 42
0
  0
VERTEX
  8
0
 10
1148.1600341796875
 20
180.19999694824219
 42
0
  0
VERTEX
  8
0
 10
1148.1600341796875
 20
247.19999694824219
 42
0
  0
VERTEX
  8
0
 10
1113.1600341796875
 20
247.19999694824219
 42
-0
  0
VERTEX
  8
0
 10
1108.1600341796875
 20
242.19999694824219
 42
0
  0
SEQEND
  0
POLYLINE
  8
0
 10
0
 20
0
 39
0
 70
1
 66
1
  0
VERTEX
  8
0
 10
1121.1600341796875
 20
234.19999694824219
 42
-1
  0
VERTEX
  8
0
 10
1133.1600341796875
 20
234.19999694824219
 42
-0
  0
VERTEX
  8
0
 10
1133.1600341796875
 20
194.19999694824219
 42
-1
  0
VERTEX
  8
0
 10
1121.1600341796875
 20
194.19999694824219
 42
0
  0
SEQEND
  0
POLYLINE
  8
0
 10
0
 20
0
 39
0
 70
1
 66
1
  0
VERTEX
  8
0
 10
1108.1600341796875
 20
262.239990234375
 42
-0
  0
VERTEX
  8
0
 10
1113.1600341796875
 20
257.239990234375
 42
0
  0
VERTEX
  8
0
 10
1148.1600341796875
 20
257.239990234375
 42
0
  0
VERTEX
  8
0
 10
1148.1600341796875
 20
324.239990234375
 42
0
  0
VERTEX
  8
0
 10
1113.1600341796875
 20
324.239990234375
 42
-0
  0
VERTEX
  8
0
 10
1108.1600341796875
 20
319.239990234375
 42
0
  0
SEQEND
  0
POLYLINE
  8
0
 10
0
 20
0
 39
0
 70
1
 66
1
  0
VERTEX
  8
0
 10
1121.1600341796875
 20
311.239990234375
 42
-1
  0
VERTEX
  8
0
 10
1133.1600341796875
 20
311.239990234375
 42
-0
  0
VERTEX
  8
0
 10
1133.1600341796875
 20
271.239990234375
 42
-1
  0
VERTEX
  8
0
 10
1121.1600341796875
 20
271.239990234375
 42
0
  0
SEQEND
  0
POLYLINE
  8
0
 10
0
 20
0
 39
0
 70
1
 66
1
  0
VERTEX
  8
0
 10
1121.9599609375
 20
15.159999847412109
 42
-0
  0
VERTEX
  8
0
 10
1126.9599609375
 20
10.159999847412109
 42
0
  0
VERTEX
  8
0
 10
1161.9599609375
 20
10.159999847412109
 42
0
  0
VERTEX
  8
0
 10
1161.9599609375
 20
77.160003662109375
 42
0
  0
VERTEX
  8
0
 10
1126.9599609375
 20
77.160003662109375
 42
-0
  0
VERTEX
  8
0
 10
1121.9599609375
 20
72.160003662109375
 42
0
  0
SEQEND
  0
POLYLINE
  8
0
 10
0
 20
0
 39
0
 70
1
 66
1
  0
VERTEX
  8
0
 10
1134.9599609375
 20
64.160003662109375
 42
-1
  0
VERTEX
  8
0
 10
1146.9599609375
 20
64.160003662109375
 42
-0
  0
VERTEX
  8
0
 10
1146.9599609375
 20
24.159999847412109
 42
-1
  0
VERTEX
  8
0
 10
1134.9599609375
 20
24.159999847412109
 42
0
  0
SEQEND
  0
POLYLINE
  8
0
 10
0
 20
0
 39
0
 70
1
 66
1
  0
VERTEX
  8
0
 10
1121.9599609375
 20
92.199996948242187
 42
-0
  0
VERTEX
  8
0
 10
1126.9599609375
 20
87.199996948242188
 42
0
  0
VERTEX
  8
0
 10
1161.9599609375
 20
87.199996948242188
 42
0
  0
VERTEX
  8
0
 10
1161.9599609375
 20
154.19999694824219
 42
0
  0
VERTEX
  8
0
 10
1126.9599609375
 20
154.19999694824219
 42
-0
  0
VERTEX
  8
0
 10
1121.9599609375
 20
149.19999694824219
 42
0
  0
SEQEND
  0
POLYLINE
  8
0
 10
0
 20
0
 39
0
 70
1
 66
1
  0
VERTEX
  8
0
 10
1134.9599609375
 20
141.19999694824219
 42
-1
  0
VERTEX
  8
0
 10
1146.9599609375
 20
141.19999694824219
 42
-0
  0
VERTEX
  8
0
 10
1146.9599609375
 20
101.19999694824219
 42
-1
  0
VERTEX
  8
0
 10
1134.9599609375
 20
101.19999694824219
 42
0
  0
SEQEND
  0
POLYLINE
  8
0
 10
0
 20
0
 39
0
 70
1
 66
1
  0
VERTEX
  8
0
 10
1127.47998046875
 20
339.27999877929687
 42
-0
  0
VERTEX
  8
0
 10
1132.47998046875
 20
334.27999877929687
 42
0
  0
VERTEX
  8
0
 10
1167.47998046875
 20
334.27999877929687
 42
0
  0
VERTEX
  8
0
 10
1167.47998046875
 20
401.27999877929687
 42
0
  0
VERTEX
  8
0
 10
1132.47998046875
 20
401.27999877929687
 42
-0
  0
VERTEX
  8
0
 10
1127.47998046875
 20
396.27999877929687
 42
0
  0
SEQEND
  0
POLYLINE
  8
0
 10
0
 20
0
 39
0
 70
1
 66
1
  0
VERTEX
  8
0
 10
1140.47998046875
 20
388.27999877929687
 42
-1
  0
VERTEX
  8
0
 10
1152.47998046875
 20
388.27999877929687
 42
-0
  0
VERTEX
  8
0
 10
1152.47998046875
 20
348.27999877929687
 42
-1
  0
VERTEX
  8
0
 10
1140.47998046875
 20
348.27999877929687
 42
0
  0
SEQEND
  0
POLYLINE
  8
0
 10
0
 20
0
 39
0
 70
1
 66
1
  0
VERTEX
  8
0
 10
1127.47998046875
 20
416.32000732421875
 42
-0
  0
VERTEX
  8
0
 10
1132.47998046875
 20
411.32000732421875
 42
0
  0
VERTEX
  8
0
 10
1167.47998046875
 20
411.32000732421875
 42
0
  0
VERTEX
  8
0
 10
1167.47998046875
 20
478.32000732421875
 42
0
  0
VERTEX
  8
0
 10
1132.47998046875
 20
478.32000732421875
 42
-0
  0
VERTEX
  8
0
 10
1127.47998046875
 20
473.32000732421875
 42
0
  0
SEQEND
  0
POLYLINE
  8
0
 10
0
 20
0
 39
0
 70
1
 66
1
  0
VERTEX
  8
0
 10
1140.47998046875
 20
465.32000732421875
 42
-1
  0
VERTEX
  8
0
 10
1152.47998046875
 20
465.32000732421875
 42
-0
  0
VERTEX
  8
0
 10
1152.47998046875
 20
425.32000732421875
 42
-1
  0
VERTEX
  8
0
 10
1140.47998046875
 20
425.32000732421875
 42
0
  0
SEQEND
  0
POLYLINE
  8
0
 10
0
 20
0
 39
0
 70
1
 66
1
  0
VERTEX
  8
0
 10
1137.56005859375
 20
493.3599853515625
 42
-0
  0
VERTEX
  8
0
 10
1142.56005859375
 20
488.3599853515625
 42
0
  0
VERTEX
  8
0
 10
1177.56005859375
 20
488.3599853515625
 42
0
  0
VERTEX
  8
0
 10
1177.56005859375
 20
555.3599853515625
 42
0
  0
VERTEX
  8
0
 10
1142.56005859375
 20
555.3599853515625
 42
-0
  0
VERTEX
  8
0
 10
1137.56005859375
 20
550.3599853515625
 42
0
  0
SEQEND
  0
POLYLINE
  8
0
 10
0
 20
0
 39
0
 70
1
 66
1
  0
VERTEX
  8
0
 10
1150.56005859375
 20
542.3599853515625
 42
-1
  0
VERTEX
  8
0
 10
1162.56005859375
 20
542.3599853515625
 42
-0
  0
VERTEX
  8
0
 10
1162.56005859375
 20
502.3599853515625
 42
-1
  0
VERTEX
  8
0
 10
1150.56005859375
 20
502.3599853515625
 42
0
  0
SEQEND
  0
POLYLINE
  8
0
 10
0
 20
0
 39
0
 70
1
 66
1
  0
VERTEX
  8
0
 10
10.159999847412109
 20
575.79998779296875
 42
0
  0
VERTEX
  8
0
 10
10.159999847412109
 20
555.79998779296875
 42
0
  0
VERTEX
  8
0
 10
38.159999847412109
 20
555.79998779296875
 42
0
  0
VERTEX
  8
0
 10
38.159999847412109
 20
575.79998779296875
 42
1
  0
SEQEND
  0
POLYLINE
  8
0
 10
0
 20
0
 39
0
 70
1
 66
1
  0
VERTEX
  8
0
 10
330.32000732421875
 20
285.39999389648438
 42
0
  0
VERTEX
  8
0
 10
330.32000732421875
 20
265.39999389648438
 42
0
  0
VERTEX
  8
0
 10
358.32000732421875
 20
265.39999389648438
 42
0
  0
VERTEX
  8
0
 10
358.32000732421875
 20
285.39999389648438
 42
1
  0
SEQEND
  0
POLYLINE
  8
0
 10
0
 20
0
 39
0
 70
1
 66
1
  0
VERTEX
  8
0
 10
416.95999145507812
 20
560.67999267578125
 42
0
  0
VERTEX
  8
0
 10
416.95999145507812
 20
540.67999267578125
 42
0
  0
VERTEX
  8
0
 10
444.95999145507812
 20
540.67999267578125
 42
0
  0
VERTEX
  8
0
 10
444.95999145507812
 20
560.67999267578125
 42
1
  0
SEQEND
  0
POLYLINE
  8
0
 10
0
 20
0
 39
0
 70
1
 66
1
  0
VERTEX
  8
0
 10
902.55999755859375
 20
418.32000732421875
 42
0
  0
VERTEX
  8
0
 10
882.55999755859375
 20
418.32000732421875
 42
0
  0
VERTEX
  8
0
 10
882.55999755859375
 20
390.32000732421875
 42
0
  0
VERTEX
  8
0
 10
902.55999755859375
 20
390.32000732421875
 42
1
  0
SEQEND
  0
POLYLINE
  8
0
 10
0
 20
0
 39
0
 70
1
 66
1
  0
VERTEX
  8
0
 10
1186.3199462890625
 20
176.32000732421875
 42
0
  0
VERTEX
  8
0
 10
1186.3199462890625
 20
196.32000732421875
 42
0
  0
VERTEX
  8
0
 10
1158.3199462890625
 20
196.32000732421875
 42
0
  0
VERTEX
  8
0
 10
1158.3199462890625
 20
176.32000732421875
 42
1
  0
SEQEND
  0
POLYLINE
  8
0
 10
0
 20
0
 39
0
 70
1
 66
1
  0
VERTEX
  8
0
 10
1158.3199462890625
 20
226.36000061035156
 42
0
  0
VERTEX
  8
0
 10
1158.3199462890625
 20
206.36000061035156
 42
0
  0
VERTEX
  8
0
 10
1186.3199462890625
 20
206.36000061035156
 42
0
  0
VERTEX
  8
0
 10
1186.3199462890625
 20
226.36000061035156
 42
1
  0
SEQEND
  0
POLYLINE
  8
0
 10
0
 20
0
 39
0
 70
1
 66
1
  0
VERTEX
  8
0
 10
1158.3199462890625
 20
270.39999389648437
 42
0
  0
VERTEX
  8
0
 10
1158.3199462890625
 20
250.39999389648437
 42
0
  0
VERTEX
  8
0
 10
1186.3199462890625
 20
250.39999389648437
 42
0
  0
VERTEX
  8
0
 10
1186.3199462890625
 20
270.39999389648437
 42
1
  0
SEQEND
  0
ENDSEC
  0
EOF
