  0
SECTION
  2
ENTITIES
  0
POLYLINE
  8
0
 10
0
 20
0
 39
0
 70
1
 66
1
  0
VERTEX
  8
0
 10
0
 20
0
 42
0
  0
VERTEX
  8
0
 10
2500
 20
0
 42
0
  0
VERTEX
  8
0
 10
2500
 20
1000
 42
0
  0
VERTEX
  8
0
 10
0
 20
1000
 42
0
  0
SEQEND
  0
POLYLINE
  8
0
 10
0
 20
0
 39
0
 70
1
 66
1
  0
VERTEX
  8
0
 10
320.33334350585937
 20
575.32550048828125
 42
-0
  0
VERTEX
  8
0
 10
20.333333969116211
 20
575.32550048828125
 42
0
  0
VERTEX
  8
0
 10
20.333333969116211
 20
355.32553100585937
 42
0
  0
VERTEX
  8
0
 10
10.333333015441895
 20
355.32553100585937
 42
0
  0
VERTEX
  8
0
 10
10.333333015441895
 20
325.32553100585937
 42
-0
  0
VERTEX
  8
0
 10
40.335773468017578
 20
10.333333015441895
 42
-0
  0
VERTEX
  8
0
 10
95.335777282714844
 20
10.333333015441895
 42
-0
  0
VERTEX
  8
0
 10
118.89241790771484
 20
266.88412475585937
 42
-0.3915596604347229
  0
VERTEX
  8
0
 10
138.83186340332031
 20
285.32553100585937
 42
0
  0
VERTEX
  8
0
 10
201.83479309082031
 20
285.32553100585937
 42
-0.39155969023704529
  0
VERTEX
  8
0
 10
221.77375793457031
 20
266.88412475585937
 42
-0
  0
VERTEX
  8
0
 10
245.33088684082031
 20
10.333333015441895
 42
0
  0
VERTEX
  8
0
 10
300.33090209960937
 20
10.333333015441895
 42
0
  0
VERTEX
  8
0
 10
330.33334350585937
 20
325.32553100585937
 42
-0
  0
VERTEX
  8
0
 10
330.33334350585937
 20
355.32553100585937
 42
-0
  0
VERTEX
  8
0
 10
320.33334350585937
 20
355.32553100585937
 42
-0
  0
SEQEND
  0
POLYLINE
  8
0
 10
0
 20
0
 39
0
 70
1
 66
1
  0
VERTEX
  8
0
 10
575.32550048828125
 20
595.33331298828125
 42
-0
  0
VERTEX
  8
0
 10
575.32550048828125
 20
895.33331298828125
 42
0
  0
VERTEX
  8
0
 10
355.32553100585937
 20
895.33331298828125
 42
0
  0
VERTEX
  8
0
 10
355.32553100585937
 20
905.33331298828125
 42
0
  0
VERTEX
  8
0
 10
325.32553100585937
 20
905.33331298828125
 42
-0
  0
VERTEX
  8
0
 10
10.333333015441895
 20
875.33087158203125
 42
-0
  0
VERTEX
  8
0
 10
10.333333015441895
 20
820.33087158203125
 42
-0
  0
VERTEX
  8
0
 10
266.88412475585937
 20
796.77423095703125
 42
-0.3915596604347229
  0
VERTEX
  8
0
 10
285.32553100585937
 20
776.83477783203125
 42
0
  0
VERTEX
  8
0
 10
285.32553100585937
 20
713.83184814453125
 42
-0.39155969023704529
  0
VERTEX
  8
0
 10
266.88412475585937
 20
693.89288330078125
 42
-0
  0
VERTEX
  8
0
 10
10.333333015441895
 20
670.33575439453125
 42
0
  0
VERTEX
  8
0
 10
10.333333015441895
 20
615.33575439453125
 42
0
  0
VERTEX
  8
0
 10
325.32553100585937
 20
585.33331298828125
 42
-0
  0
VERTEX
  8
0
 10
355.32553100585937
 20
585.33331298828125
 42
-0
  0
VERTEX
  8
0
 10
355.32553100585937
 20
595.33331298828125
 42
-0
  0
SEQEND
  0
POLYLINE
  8
0
 10
0
 20
0
 39
0
 70
1
 66
1
  0
VERTEX
  8
0
 10
344.83334350585937
 20
10.333333015441895
 42
-0
  0
VERTEX
  8
0
 10
644.83331298828125
 20
10.333333015441895
 42
0
  0
VERTEX
  8
0
 10
644.83331298828125
 20
230.33332824707031
 42
0
  0
VERTEX
  8
0
 10
654.83331298828125
 20
230.33332824707031
 42
0
  0
VERTEX
  8
0
 10
654.83331298828125
 20
260.33334350585937
 42
-0
  0
VERTEX
  8
0
 10
624.83087158203125
 20
575.32550048828125
 42
-0
  0
VERTEX
  8
0
 10
569.83087158203125
 20
575.32550048828125
 42
-0
  0
VERTEX
  8
0
 10
546.27423095703125
 20
318.77474975585937
 42
-0.3915596604347229
  0
VERTEX
  8
0
 10
526.33477783203125
 20
300.33334350585937
 42
0
  0
VERTEX
  8
0
 10
463.33187866210937
 20
300.33334350585937
 42
-0.39155969023704529
  0
VERTEX
  8
0
 10
443.39291381835938
 20
318.77474975585937
 42
-0
  0
VERTEX
  8
0
 10
419.83578491210937
 20
575.32550048828125
 42
0
  0
VERTEX
  8
0
 10
364.83578491210937
 20
575.32550048828125
 42
0
  0
VERTEX
  8
0
 10
334.83334350585937
 20
260.33334350585937
 42
-0
  0
VERTEX
  8
0
 10
334.83334350585937
 20
230.33332824707031
 42
-0
  0
VERTEX
  8
0
 10
344.83334350585937
 20
230.33332824707031
 42
-0
  0
SEQEND
  0
POLYLINE
  8
0
 10
0
 20
0
 39
0
 70
1
 66
1
  0
VERTEX
  8
0
 10
929.83331298828125
 20
988.4921875
 42
-0
  0
VERTEX
  8
0
 10
629.83331298828125
 20
988.4921875
 42
0
  0
VERTEX
  8
0
 10
629.83331298828125
 20
768.4921875
 42
0
  0
VERTEX
  8
0
 10
619.83331298828125
 20
768.4921875
 42
0
  0
VERTEX
  8
0
 10
619.83331298828125
 20
738.4921875
 42
-0
  0
VERTEX
  8
0
 10
649.83575439453125
 20
423.5
 42
-0
  0
VERTEX
  8
0
 10
704.83575439453125
 20
423.5
 42
-0
  0
VERTEX
  8
0
 10
728.39239501953125
 20
680.05078125
 42
-0.3915596604347229
  0
VERTEX
  8
0
 10
748.33184814453125
 20
698.4921875
 42
0
  0
VERTEX
  8
0
 10
811.33477783203125
 20
698.4921875
 42
-0.39155969023704529
  0
VERTEX
  8
0
 10
831.27374267578125
 20
680.05078125
 42
-0
  0
VERTEX
  8
0
 10
854.83087158203125
 20
423.5
 42
0
  0
VERTEX
  8
0
 10
909.83087158203125
 20
423.5
 42
0
  0
VERTEX
  8
0
 10
939.83331298828125
 20
738.4921875
 42
-0
  0
VERTEX
  8
0
 10
939.83331298828125
 20
768.4921875
 42
-0
  0
VERTEX
  8
0
 10
929.83331298828125
 20
768.4921875
 42
-0
  0
SEQEND
  0
POLYLINE
  8
0
 10
0
 20
0
 39
0
 70
1
 66
1
  0
VERTEX
  8
0
 10
987.16668701171875
 20
407.33334350585937
 42
-0
  0
VERTEX
  8
0
 10
665.16668701171875
 20
407.33334350585937
 42
-0
  0
VERTEX
  8
0
 10
665.16668701171875
 20
10.333333015441895
 42
-0
  0
VERTEX
  8
0
 10
764.16668701171875
 20
10.333333015441895
 42
-0
  0
VERTEX
  8
0
 10
764.16668701171875
 20
230.33332824707031
 42
-0
  0
VERTEX
  8
0
 10
987.16668701171875
 20
230.33332824707031
 42
-0
  0
SEQEND
  0
POLYLINE
  8
0
 10
0
 20
0
 39
0
 70
1
 66
1
  0
VERTEX
  8
0
 10
774.70782470703125
 20
10.333333015441895
 42
-0
  0
VERTEX
  8
0
 10
1096.707763671875
 20
10.333333015441895
 42
-0
  0
VERTEX
  8
0
 10
1096.707763671875
 20
407.33334350585937
 42
-0
  0
VERTEX
  8
0
 10
997.70782470703125
 20
407.33334350585937
 42
-0
  0
VERTEX
  8
0
 10
997.70782470703125
 20
187.33332824707031
 42
-0
  0
VERTEX
  8
0
 10
774.70782470703125
 20
187.33332824707031
 42
-0
  0
SEQEND
  0
POLYLINE
  8
0
 10
0
 20
0
 39
0
 70
1
 66
1
  0
VERTEX
  8
0
 10
1347.1666259765625
 20
527.0411376953125
 42
-0
  0
VERTEX
  8
0
 10
1347.1666259765625
 20
849.0411376953125
 42
-0
  0
VERTEX
  8
0
 10
950.16668701171875
 20
849.0411376953125
 42
-0
  0
VERTEX
  8
0
 10
950.16668701171875
 20
750.0411376953125
 42
-0
  0
VERTEX
  8
0
 10
1170.1666259765625
 20
750.0411376953125
 42
-0
  0
VERTEX
  8
0
 10
1170.1666259765625
 20
527.0411376953125
 42
-0
  0
SEQEND
  0
POLYLINE
  8
0
 10
0
 20
0
 39
0
 70
1
 66
1
  0
VERTEX
  8
0
 10
950.16668701171875
 20
739.5
 42
-0
  0
VERTEX
  8
0
 10
950.16668701171875
 20
417.5
 42
-0
  0
VERTEX
  8
0
 10
1347.1666259765625
 20
417.5
 42
-0
  0
VERTEX
  8
0
 10
1347.1666259765625
 20
516.5
 42
-0
  0
VERTEX
  8
0
 10
1127.1666259765625
 20
516.5
 42
-0
  0
VERTEX
  8
0
 10
1127.1666259765625
 20
739.5
 42
-0
  0
SEQEND
  0
POLYLINE
  8
0
 10
0
 20
0
 39
0
 70
1
 66
1
  0
VERTEX
  8
0
 10
1429
 20
407.33334350585937
 42
-0
  0
VERTEX
  8
0
 10
1107
 20
407.33334350585937
 42
-0
  0
VERTEX
  8
0
 10
1107
 20
10.333333015441895
 42
-0
  0
VERTEX
  8
0
 10
1206
 20
10.333333015441895
 42
-0
  0
VERTEX
  8
0
 10
1206
 20
230.33332824707031
 42
-0
  0
VERTEX
  8
0
 10
1429
 20
230.33332824707031
 42
-0
  0
SEQEND
  0
POLYLINE
  8
0
 10
0
 20
0
 39
0
 70
1
 66
1
  0
VERTEX
  8
0
 10
1216.5411376953125
 20
10.333333015441895
 42
-0
  0
VERTEX
  8
0
 10
1538.5411376953125
 20
10.333333015441895
 42
-0
  0
VERTEX
  8
0
 10
1538.5411376953125
 20
407.33334350585937
 42
-0
  0
VERTEX
  8
0
 10
1439.5411376953125
 20
407.33334350585937
 42
-0
  0
VERTEX
  8
0
 10
1439.5411376953125
 20
187.33332824707031
 42
-0
  0
VERTEX
  8
0
 10
1216.5411376953125
 20
187.33332824707031
 42
-0
  0
SEQEND
  0
POLYLINE
  8
0
 10
0
 20
0
 39
0
 70
1
 66
1
  0
VERTEX
  8
0
 10
1754.5
 20
527.0411376953125
 42
-0
  0
VERTEX
  8
0
 10
1754.5
 20
849.0411376953125
 42
-0
  0
VERTEX
  8
0
 10
1357.5
 20
849.0411376953125
 42
-0
  0
VERTEX
  8
0
 10
1357.5
 20
750.0411376953125
 42
-0
  0
VERTEX
  8
0
 10
1577.5
 20
750.0411376953125
 42
-0
  0
VERTEX
  8
0
 10
1577.5
 20
527.0411376953125
 42
-0
  0
SEQEND
  0
POLYLINE
  8
0
 10
0
 20
0
 39
0
 70
1
 66
1
  0
VERTEX
  8
0
 10
1357.5
 20
739.5
 42
-0
  0
VERTEX
  8
0
 10
1357.5
 20
417.5
 42
-0
  0
VERTEX
  8
0
 10
1754.5
 20
417.5
 42
-0
  0
VERTEX
  8
0
 10
1754.5
 20
516.5
 42
-0
  0
VERTEX
  8
0
 10
1534.5
 20
516.5
 42
-0
  0
VERTEX
  8
0
 10
1534.5
 20
739.5
 42
-0
  0
SEQEND
  0
POLYLINE
  8
0
 10
0
 20
0
 39
0
 70
1
 66
1
  0
VERTEX
  8
0
 10
1576.6959228515625
 20
859.16668701171875
 42
0
  0
VERTEX
  8
0
 10
1654.7056884765625
 20
984.16668701171875
 42
-0
  0
VERTEX
  8
0
 10
1018.1764526367187
 20
984.16668701171875
 42
-0
  0
VERTEX
  8
0
 10
940.16668701171875
 20
859.16668701171875
 42
0
  0
SEQEND
  0
POLYLINE
  8
0
 10
0
 20
0
 39
0
 70
1
 66
1
  0
VERTEX
  8
0
 10
1764.8333740234375
 20
88.343101501464844
 42
0
  0
VERTEX
  8
0
 10
1889.8333740234375
 20
10.333333015441895
 42
-0
  0
VERTEX
  8
0
 10
1889.8333740234375
 20
646.86260986328125
 42
-0
  0
VERTEX
  8
0
 10
1764.8333740234375
 20
724.87237548828125
 42
0
  0
SEQEND
  0
POLYLINE
  8
0
 10
0
 20
0
 39
0
 70
1
 66
1
  0
VERTEX
  8
0
 10
1900.1666259765625
 20
88.343101501464844
 42
0
  0
VERTEX
  8
0
 10
2025.1666259765625
 20
10.333333015441895
 42
-0
  0
VERTEX
  8
0
 10
2025.1666259765625
 20
646.86260986328125
 42
-0
  0
VERTEX
  8
0
 10
1900.1666259765625
 20
724.87237548828125
 42
0
  0
SEQEND
  0
POLYLINE
  8
0
 10
0
 20
0
 39
0
 70
1
 66
1
  0
VERTEX
  8
0
 10
2035.5
 20
88.343101501464844
 42
0
  0
VERTEX
  8
0
 10
2160.5
 20
10.333333015441895
 42
-0
  0
VERTEX
  8
0
 10
2160.5
 20
646.86260986328125
 42
-0
  0
VERTEX
  8
0
 10
2035.5
 20
724.87237548828125
 42
0
  0
SEQEND
  0
POLYLINE
  8
0
 10
0
 20
0
 39
0
 70
1
 66
1
  0
VERTEX
  8
0
 10
2170.833251953125
 20
88.343101501464844
 42
0
  0
VERTEX
  8
0
 10
2295.833251953125
 20
10.333333015441895
 42
-0
  0
VERTEX
  8
0
 10
2295.833251953125
 20
646.86260986328125
 42
-0
  0
VERTEX
  8
0
 10
2170.833251953125
 20
724.87237548828125
 42
0
  0
SEQEND
  0
POLYLINE
  8
0
 10
0
 20
0
 39
0
 70
1
 66
1
  0
VERTEX
  8
0
 10
2225.529296875
 20
859.16668701171875
 42
0
  0
VERTEX
  8
0
 10
2303.5390625
 20
984.16668701171875
 42
-0
  0
VERTEX
  8
0
 10
1667.009765625
 20
984.16668701171875
 42
-0
  0
VERTEX
  8
0
 10
1589
 20
859.16668701171875
 42
0
  0
SEQEND
  0
POLYLINE
  8
0
 10
0
 20
0
 39
0
 70
1
 66
1
  0
VERTEX
  8
0
 10
1687.41455078125
 20
83.333335876464844
 42
-0
  0
VERTEX
  8
0
 10
1643.6029052734375
 20
83.333335876464844
 42
-0
  0
VERTEX
  8
0
 10
1643.6029052734375
 20
185.33332824707031
 42
-0
  0
VERTEX
  8
0
 10
1687.41455078125
 20
272.80465698242187
 42
-0
  0
VERTEX
  8
0
 10
1687.41455078125
 20
342.97027587890625
 42
-0
  0
VERTEX
  8
0
 10
1548.8333740234375
 20
342.97027587890625
 42
-0
  0
VERTEX
  8
0
 10
1548.8333740234375
 20
10.333333015441895
 42
-0
  0
VERTEX
  8
0
 10
1687.41455078125
 20
10.333333015441895
 42
-0
  0
SEQEND
  0
POLYLINE
  8
0
 10
0
 20
0
 39
0
 70
1
 66
1
  0
VERTEX
  8
0
 10
2151.166748046875
 20
710.5
 42
-0
  0
VERTEX
  8
0
 10
2151.166748046875
 20
754.31158447265625
 42
-0
  0
VERTEX
  8
0
 10
2253.166748046875
 20
754.31158447265625
 42
-0
  0
VERTEX
  8
0
 10
2340.637939453125
 20
710.5
 42
-0
  0
VERTEX
  8
0
 10
2410.8037109375
 20
710.5
 42
-0
  0
VERTEX
  8
0
 10
2410.8037109375
 20
849.0811767578125
 42
-0
  0
VERTEX
  8
0
 10
2078.166748046875
 20
849.0811767578125
 42
-0
  0
VERTEX
  8
0
 10
2078.166748046875
 20
710.5
 42
-0
  0
SEQEND
  0
POLYLINE
  8
0
 10
0
 20
0
 39
0
 70
1
 66
1
  0
VERTEX
  8
0
 10
2444.747802734375
 20
83.333335876464844
 42
-0
  0
VERTEX
  8
0
 10
2400.936279296875
 20
83.333335876464844
 42
-0
  0
VERTEX
  8
0
 10
2400.936279296875
 20
185.33332824707031
 42
-0
  0
VERTEX
  8
0
 10
2444.747802734375
 20
272.80465698242187
 42
-0
  0
VERTEX
  8
0
 10
2444.747802734375
 20
342.97027587890625
 42
-0
  0
VERTEX
  8
0
 10
2306.166748046875
 20
342.97027587890625
 42
-0
  0
VERTEX
  8
0
 10
2306.166748046875
 20
10.333333015441895
 42
-0
  0
VERTEX
  8
0
 10
2444.747802734375
 20
10.333333015441895
 42
-0
  0
SEQEND
  0
POLYLINE
  8
0
 10
0
 20
0
 39
0
 70
1
 66
1
  0
VERTEX
  8
0
 10
2444.747802734375
 20
426
 42
-0
  0
VERTEX
  8
0
 10
2400.936279296875
 20
426
 42
-0
  0
VERTEX
  8
0
 10
2400.936279296875
 20
528
 42
-0
  0
VERTEX
  8
0
 10
2444.747802734375
 20
615.4713134765625
 42
-0
  0
VERTEX
  8
0
 10
2444.747802734375
 20
685.636962890625
 42
-0
  0
VERTEX
  8
0
 10
2306.166748046875
 20
685.636962890625
 42
-0
  0
VERTEX
  8
0
 10
2306.166748046875
 20
353
 42
-0
  0
VERTEX
  8
0
 10
2444.747802734375
 20
353
 42
-0
  0
SEQEND
  0
POLYLINE
  8
0
 10
0
 20
0
 39
0
 70
1
 66
1
  0
VERTEX
  8
0
 10
30.333333969116211
 20
754.5
 42
0
  0
VERTEX
  8
0
 10
10.333333015441895
 20
754.5
 42
0
  0
VERTEX
  8
0
 10
10.333333015441895
 20
704.5
 42
0
  0
VERTEX
  8
0
 10
20.333333969116211
 20
694.5
 42
0
  0
VERTEX
  8
0
 10
160.33332824707031
 20
694.5
 42
0
  0
VERTEX
  8
0
 10
160.33332824707031
 20
709.5
 42
0
  0
SEQEND
  0
POLYLINE
  8
0
 10
0
 20
0
 39
0
 70
1
 66
1
  0
VERTEX
  8
0
 10
140.33332824707031
 20
727.27716064453125
 42
0
  0
VERTEX
  8
0
 10
160.33332824707031
 20
727.27716064453125
 42
0
  0
VERTEX
  8
0
 10
160.33332824707031
 20
777.27716064453125
 42
0
  0
VERTEX
  8
0
 10
150.33332824707031
 20
787.27716064453125
 42
0
  0
VERTEX
  8
0
 10
10.333333015441895
 20
787.27716064453125
 42
0
  0
VERTEX
  8
0
 10
10.333333015441895
 20
772.27716064453125
 42
0
  0
SEQEND
  0
POLYLINE
  8
0
 10
0
 20
0
 39
0
 70
1
 66
1
  0
VERTEX
  8
0
 10
151.44381713867187
 20
30.333333969116211
 42
0
  0
VERTEX
  8
0
 10
151.44381713867187
 20
10.333333015441895
 42
0
  0
VERTEX
  8
0
 10
201.44381713867187
 20
10.333333015441895
 42
0
  0
VERTEX
  8
0
 10
211.44381713867187
 20
20.333333969116211
 42
0
  0
VERTEX
  8
0
 10
211.44381713867187
 20
160.33332824707031
 42
0
  0
VERTEX
  8
0
 10
196.44381713867187
 20
160.33332824707031
 42
0
  0
SEQEND
  0
POLYLINE
  8
0
 10
0
 20
0
 39
0
 70
1
 66
1
  0
VERTEX
  8
0
 10
178.66667175292969
 20
140.33332824707031
 42
0
  0
VERTEX
  8
0
 10
178.66667175292969
 20
160.33332824707031
 42
0
  0
VERTEX
  8
0
 10
128.66667175292969
 20
160.33332824707031
 42
0
  0
VERTEX
  8
0
 10
118.66666412353516
 20
150.33332824707031
 42
0
  0
VERTEX
  8
0
 10
118.66666412353516
 20
10.333333015441895
 42
0
  0
VERTEX
  8
0
 10
133.66667175292969
 20
10.333333015441895
 42
0
  0
SEQEND
  0
POLYLINE
  8
0
 10
0
 20
0
 39
0
 70
1
 66
1
  0
VERTEX
  8
0
 10
475.94381713867187
 20
454
 42
0
  0
VERTEX
  8
0
 10
475.94381713867187
 20
434
 42
0
  0
VERTEX
  8
0
 10
525.94378662109375
 20
434
 42
0
  0
VERTEX
  8
0
 10
535.94378662109375
 20
444
 42
0
  0
VERTEX
  8
0
 10
535.94378662109375
 20
584
 42
0
  0
VERTEX
  8
0
 10
520.94378662109375
 20
584
 42
0
  0
SEQEND
  0
POLYLINE
  8
0
 10
0
 20
0
 39
0
 70
1
 66
1
  0
VERTEX
  8
0
 10
503.16665649414062
 20
564
 42
0
  0
VERTEX
  8
0
 10
503.16665649414062
 20
584
 42
0
  0
VERTEX
  8
0
 10
453.16665649414062
 20
584
 42
0
  0
VERTEX
  8
0
 10
443.16665649414062
 20
574
 42
0
  0
VERTEX
  8
0
 10
443.16665649414062
 20
434
 42
0
  0
VERTEX
  8
0
 10
458.16665649414062
 20
434
 42
0
  0
SEQEND
  0
POLYLINE
  8
0
 10
0
 20
0
 39
0
 70
1
 66
1
  0
VERTEX
  8
0
 10
760.27716064453125
 20
437.5
 42
0
  0
VERTEX
  8
0
 10
760.27716064453125
 20
417.5
 42
0
  0
VERTEX
  8
0
 10
810.27716064453125
 20
417.5
 42
0
  0
VERTEX
  8
0
 10
820.27716064453125
 20
427.5
 42
0
  0
VERTEX
  8
0
 10
820.27716064453125
 20
567.5
 42
0
  0
VERTEX
  8
0
 10
805.27716064453125
 20
567.5
 42
0
  0
SEQEND
  0
POLYLINE
  8
0
 10
0
 20
0
 39
0
 70
1
 66
1
  0
VERTEX
  8
0
 10
787.5
 20
547.5
 42
0
  0
VERTEX
  8
0
 10
787.5
 20
567.5
 42
0
  0
VERTEX
  8
0
 10
737.5
 20
567.5
 42
0
  0
VERTEX
  8
0
 10
727.5
 20
557.5
 42
0
  0
VERTEX
  8
0
 10
727.5
 20
417.5
 42
0
  0
VERTEX
  8
0
 10
742.5
 20
417.5
 42
0
  0
SEQEND
  0
POLYLINE
  8
0
 10
0
 20
0
 39
0
 70
1
 66
1
  0
VERTEX
  8
0
 10
1784.8333740234375
 20
795
 42
0
  0
VERTEX
  8
0
 10
1764.8333740234375
 20
795
 42
0
  0
VERTEX
  8
0
 10
1764.8333740234375
 20
745
 42
0
  0
VERTEX
  8
0
 10
1774.8333740234375
 20
735
 42
0
  0
VERTEX
  8
0
 10
1914.8333740234375
 20
735
 42
0
  0
VERTEX
  8
0
 10
1914.8333740234375
 20
750
 42
0
  0
SEQEND
  0
POLYLINE
  8
0
 10
0
 20
0
 39
0
 70
1
 66
1
  0
VERTEX
  8
0
 10
1894.8333740234375
 20
767.77716064453125
 42
0
  0
VERTEX
  8
0
 10
1914.8333740234375
 20
767.77716064453125
 42
0
  0
VERTEX
  8
0
 10
1914.8333740234375
 20
817.77716064453125
 42
0
  0
VERTEX
  8
0
 10
1904.8333740234375
 20
827.77716064453125
 42
0
  0
VERTEX
  8
0
 10
1764.8333740234375
 20
827.77716064453125
 42
0
  0
VERTEX
  8
0
 10
1764.8333740234375
 20
812.77716064453125
 42
0
  0
SEQEND
  0
POLYLINE
  8
0
 10
0
 20
0
 39
0
 70
1
 66
1
  0
VERTEX
  8
0
 10
2315.666748046875
 20
919.16668701171875
 42
0
  0
VERTEX
  8
0
 10
2295.666748046875
 20
919.16668701171875
 42
0
  0
VERTEX
  8
0
 10
2295.666748046875
 20
869.16668701171875
 42
0
  0
VERTEX
  8
0
 10
2305.666748046875
 20
859.16668701171875
 42
0
  0
VERTEX
  8
0
 10
2445.666748046875
 20
859.16668701171875
 42
0
  0
VERTEX
  8
0
 10
2445.666748046875
 20
874.16668701171875
 42
0
  0
SEQEND
  0
POLYLINE
  8
0
 10
0
 20
0
 39
0
 70
1
 66
1
  0
VERTEX
  8
0
 10
2425.666748046875
 20
891.94378662109375
 42
0
  0
VERTEX
  8
0
 10
2445.666748046875
 20
891.94378662109375
 42
0
  0
VERTEX
  8
0
 10
2445.666748046875
 20
941.94378662109375
 42
0
  0
VERTEX
  8
0
 10
2435.666748046875
 20
951.94378662109375
 42
0
  0
VERTEX
  8
0
 10
2295.666748046875
 20
951.94378662109375
 42
0
  0
VERTEX
  8
0
 10
2295.666748046875
 20
936.94378662109375
 42
0
  0
SEQEND
  0
POLYLINE
  8
0
 10
0
 20
0
 39
0
 70
1
 66
1
  0
VERTEX
  8
0
 10
30.333333969116211
 20
960
 42
0
  0
VERTEX
  8
0
 10
10.333333015441895
 20
960
 42
0
  0
VERTEX
  8
0
 10
10.333333015441895
 20
910
 42
0
  0
VERTEX
  8
0
 10
20.333333969116211
 20
900
 42
0
  0
VERTEX
  8
0
 10
160.33332824707031
 20
900
 42
0
  0
VERTEX
  8
0
 10
160.33332824707031
 20
915
 42
0
  0
SEQEND
  0
POLYLINE
  8
0
 10
0
 20
0
 39
0
 70
1
 66
1
  0
VERTEX
  8
0
 10
150
 20
929.66668701171875
 42
0
  0
VERTEX
  8
0
 10
170
 20
929.66668701171875
 42
0
  0
VERTEX
  8
0
 10
170
 20
979.66668701171875
 42
0
  0
VERTEX
  8
0
 10
160
 20
989.66668701171875
 42
0
  0
VERTEX
  8
0
 10
20
 20
989.66668701171875
 42
0
  0
VERTEX
  8
0
 10
20
 20
974.66668701171875
 42
0
  0
SEQEND
  0
POLYLINE
  8
0
 10
0
 20
0
 39
0
 70
1
 66
1
  0
VERTEX
  8
0
 10
200.33332824707031
 20
975.5
 42
0
  0
VERTEX
  8
0
 10
180.33332824707031
 20
975.5
 42
0
  0
VERTEX
  8
0
 10
180.33332824707031
 20
925.5
 42
0
  0
VERTEX
  8
0
 10
190.33332824707031
 20
915.5
 42
0
  0
VERTEX
  8
0
 10
330.33334350585937
 20
915.5
 42
0
  0
VERTEX
  8
0
 10
330.33334350585937
 20
930.5
 42
0
  0
SEQEND
  0
POLYLINE
  8
0
 10
0
 20
0
 39
0
 70
1
 66
1
  0
VERTEX
  8
0
 10
364.66665649414062
 20
929.66668701171875
 42
0
  0
VERTEX
  8
0
 10
384.66665649414062
 20
929.66668701171875
 42
0
  0
VERTEX
  8
0
 10
384.66665649414062
 20
979.66668701171875
 42
0
  0
VERTEX
  8
0
 10
374.66665649414062
 20
989.66668701171875
 42
0
  0
VERTEX
  8
0
 10
234.66667175292969
 20
989.66668701171875
 42
0
  0
VERTEX
  8
0
 10
234.66667175292969
 20
974.66668701171875
 42
0
  0
SEQEND
  0
POLYLINE
  8
0
 10
0
 20
0
 39
0
 70
1
 66
1
  0
VERTEX
  8
0
 10
415
 20
965.66668701171875
 42
0
  0
VERTEX
  8
0
 10
395
 20
965.66668701171875
 42
0
  0
VERTEX
  8
0
 10
395
 20
915.66668701171875
 42
0
  0
VERTEX
  8
0
 10
405
 20
905.66668701171875
 42
0
  0
VERTEX
  8
0
 10
545
 20
905.66668701171875
 42
0
  0
VERTEX
  8
0
 10
545
 20
920.66668701171875
 42
0
  0
SEQEND
  0
POLYLINE
  8
0
 10
0
 20
0
 39
0
 70
1
 66
1
  0
VERTEX
  8
0
 10
551
 20
929.66668701171875
 42
0
  0
VERTEX
  8
0
 10
571
 20
929.66668701171875
 42
0
  0
VERTEX
  8
0
 10
571
 20
979.66668701171875
 42
0
  0
VERTEX
  8
0
 10
561
 20
989.66668701171875
 42
0
  0
VERTEX
  8
0
 10
421
 20
989.66668701171875
 42
0
  0
VERTEX
  8
0
 10
421
 20
974.66668701171875
 42
0
  0
SEQEND
  0
POLYLINE
  8
0
 10
0
 20
0
 39
0
 70
1
 66
1
  0
VERTEX
  8
0
 10
1653.8333740234375
 20
113.66666412353516
 42
0
  0
VERTEX
  8
0
 10
1653.8333740234375
 20
93.666664123535156
 42
0
  0
VERTEX
  8
0
 10
1703.8333740234375
 20
93.666664123535156
 42
0
  0
VERTEX
  8
0
 10
1713.8333740234375
 20
103.66666412353516
 42
0
  0
VERTEX
  8
0
 10
1713.8333740234375
 20
243.66667175292969
 42
0
  0
VERTEX
  8
0
 10
1698.8333740234375
 20
243.66667175292969
 42
0
  0
SEQEND
  0
POLYLINE
  8
0
 10
0
 20
0
 39
0
 70
1
 66
1
  0
VERTEX
  8
0
 10
1706.8333740234375
 20
347.33334350585937
 42
0
  0
VERTEX
  8
0
 10
1726.8333740234375
 20
347.33334350585937
 42
0
  0
VERTEX
  8
0
 10
1726.8333740234375
 20
397.33334350585937
 42
0
  0
VERTEX
  8
0
 10
1716.8333740234375
 20
407.33334350585937
 42
0
  0
VERTEX
  8
0
 10
1576.8333740234375
 20
407.33334350585937
 42
0
  0
VERTEX
  8
0
 10
1576.8333740234375
 20
392.33334350585937
 42
0
  0
SEQEND
  0
POLYLINE
  8
0
 10
0
 20
0
 39
0
 70
1
 66
1
  0
VERTEX
  8
0
 10
1961.3333740234375
 20
719
 42
0
  0
VERTEX
  8
0
 10
1961.3333740234375
 20
699
 42
0
  0
VERTEX
  8
0
 10
2011.3333740234375
 20
699
 42
0
  0
VERTEX
  8
0
 10
2021.3333740234375
 20
709
 42
0
  0
VERTEX
  8
0
 10
2021.3333740234375
 20
849
 42
0
  0
VERTEX
  8
0
 10
2006.3333740234375
 20
849
 42
0
  0
SEQEND
  0
POLYLINE
  8
0
 10
0
 20
0
 39
0
 70
1
 66
1
  0
VERTEX
  8
0
 10
2411.166748046875
 20
113.66666412353516
 42
0
  0
VERTEX
  8
0
 10
2411.166748046875
 20
93.666664123535156
 42
0
  0
VERTEX
  8
0
 10
2461.166748046875
 20
93.666664123535156
 42
0
  0
VERTEX
  8
0
 10
2471.166748046875
 20
103.66666412353516
 42
0
  0
VERTEX
  8
0
 10
2471.166748046875
 20
243.66667175292969
 42
0
  0
VERTEX
  8
0
 10
2456.166748046875
 20
243.66667175292969
 42
0
  0
SEQEND
  0
POLYLINE
  8
0
 10
0
 20
0
 39
0
 70
1
 66
1
  0
VERTEX
  8
0
 10
2411.166748046875
 20
456.33334350585937
 42
0
  0
VERTEX
  8
0
 10
2411.166748046875
 20
436.33334350585937
 42
0
  0
VERTEX
  8
0
 10
2461.166748046875
 20
436.33334350585937
 42
0
  0
VERTEX
  8
0
 10
2471.166748046875
 20
446.33334350585937
 42
0
  0
VERTEX
  8
0
 10
2471.166748046875
 20
586.33331298828125
 42
0
  0
VERTEX
  8
0
 10
2456.166748046875
 20
586.33331298828125
 42
0
  0
SEQEND
  0
POLYLINE
  8
0
 10
0
 20
0
 39
0
 70
1
 66
1
  0
VERTEX
  8
0
 10
2421
 20
715.66668701171875
 42
0
  0
VERTEX
  8
0
 10
2421
 20
695.66668701171875
 42
0
  0
VERTEX
  8
0
 10
2471
 20
695.66668701171875
 42
0
  0
VERTEX
  8
0
 10
2481
 20
705.66668701171875
 42
0
  0
VERTEX
  8
0
 10
2481
 20
845.66668701171875
 42
0
  0
VERTEX
  8
0
 10
2466
 20
845.66668701171875
 42
0
  0
SEQEND
  0
ENDSEC
  0
EOF
