  0
SECTION
  2
ENTITIES
  0
POLYLINE
  8
0
 10
0
 20
0
 39
0
 70
1
 66
1
  0
VERTEX
  8
0
 10
0
 20
0
 42
0
  0
VERTEX
  8
0
 10
2400
 20
0
 42
0
  0
VERTEX
  8
0
 10
2400
 20
800
 42
0
  0
VERTEX
  8
0
 10
0
 20
800
 42
0
  0
SEQEND
  0
POLYLINE
  8
0
 10
0
 20
0
 39
0
 70
1
 66
1
  0
VERTEX
  8
0
 10
281.53192138671875
 20
550.35125732421875
 42
1
  0
VERTEX
  8
0
 10
279.17575073242187
 20
10.356416702270508
 42
1
  0
SEQEND
  0
POLYLINE
  8
0
 10
0
 20
0
 39
0
 70
1
 66
1
  0
VERTEX
  8
0
 10
404.45596313476562
 20
74.304039001464844
 42
-1
  0
VERTEX
  8
0
 10
404.35995483398437
 20
52.304248809814453
 42
-1
  0
SEQEND
  0
POLYLINE
  8
0
 10
0
 20
0
 39
0
 70
1
 66
1
  0
VERTEX
  8
0
 10
406.3453369140625
 20
507.31259155273437
 42
-1
  0
VERTEX
  8
0
 10
406.24932861328125
 20
485.31280517578125
 42
-1
  0
SEQEND
  0
POLYLINE
  8
0
 10
0
 20
0
 39
0
 70
1
 66
1
  0
VERTEX
  8
0
 10
30.40422248840332
 20
292.44454956054687
 42
-1
  0
VERTEX
  8
0
 10
30.308229446411133
 20
270.44476318359375
 42
-1
  0
SEQEND
  0
POLYLINE
  8
0
 10
0
 20
0
 39
0
 70
1
 66
1
  0
VERTEX
  8
0
 10
777.40887451171875
 20
789.61279296875
 42
1
  0
VERTEX
  8
0
 10
775.05267333984375
 20
249.61795043945312
 42
1
  0
SEQEND
  0
POLYLINE
  8
0
 10
0
 20
0
 39
0
 70
1
 66
1
  0
VERTEX
  8
0
 10
900.3328857421875
 20
313.56558227539062
 42
-1
  0
VERTEX
  8
0
 10
900.23687744140625
 20
291.5657958984375
 42
-1
  0
SEQEND
  0
POLYLINE
  8
0
 10
0
 20
0
 39
0
 70
1
 66
1
  0
VERTEX
  8
0
 10
902.22222900390625
 20
746.57415771484375
 42
-1
  0
VERTEX
  8
0
 10
902.12628173828125
 20
724.5743408203125
 42
-1
  0
SEQEND
  0
POLYLINE
  8
0
 10
0
 20
0
 39
0
 70
1
 66
1
  0
VERTEX
  8
0
 10
526.2811279296875
 20
531.70611572265625
 42
-1
  0
VERTEX
  8
0
 10
526.1851806640625
 20
509.706298828125
 42
-1
  0
SEQEND
  0
POLYLINE
  8
0
 10
0
 20
0
 39
0
 70
1
 66
1
  0
VERTEX
  8
0
 10
1056.5692138671875
 20
600.35382080078125
 42
0
  0
VERTEX
  8
0
 10
1056.5692138671875
 20
10.353846549987793
 42
0
  0
VERTEX
  8
0
 10
1496.5692138671875
 20
10.353846549987793
 42
0
  0
VERTEX
  8
0
 10
1496.5692138671875
 20
600.35382080078125
 42
0
  0
SEQEND
  0
POLYLINE
  8
0
 10
0
 20
0
 39
0
 70
1
 66
1
  0
VERTEX
  8
0
 10
1482.5692138671875
 20
30.353845596313477
 42
-1
  0
VERTEX
  8
0
 10
1470.5692138671875
 20
30.353845596313477
 42
-1
  0
SEQEND
  0
POLYLINE
  8
0
 10
0
 20
0
 39
0
 70
1
 66
1
  0
VERTEX
  8
0
 10
1382.5692138671875
 20
30.353845596313477
 42
-1
  0
VERTEX
  8
0
 10
1370.5692138671875
 20
30.353845596313477
 42
-1
  0
SEQEND
  0
POLYLINE
  8
0
 10
0
 20
0
 39
0
 70
1
 66
1
  0
VERTEX
  8
0
 10
1282.5692138671875
 20
30.353845596313477
 42
-1
  0
VERTEX
  8
0
 10
1270.5692138671875
 20
30.353845596313477
 42
-1
  0
SEQEND
  0
POLYLINE
  8
0
 10
0
 20
0
 39
0
 70
1
 66
1
  0
VERTEX
  8
0
 10
1182.5692138671875
 20
30.353845596313477
 42
-1
  0
VERTEX
  8
0
 10
1170.5692138671875
 20
30.353845596313477
 42
-1
  0
SEQEND
  0
POLYLINE
  8
0
 10
0
 20
0
 39
0
 70
1
 66
1
  0
VERTEX
  8
0
 10
1482.5692138671875
 20
360.35385131835937
 42
-1
  0
VERTEX
  8
0
 10
1470.5692138671875
 20
360.35385131835937
 42
-1
  0
SEQEND
  0
POLYLINE
  8
0
 10
0
 20
0
 39
0
 70
1
 66
1
  0
VERTEX
  8
0
 10
1482.5692138671875
 20
250.35385131835937
 42
-1
  0
VERTEX
  8
0
 10
1470.5692138671875
 20
250.35385131835937
 42
-1
  0
SEQEND
  0
POLYLINE
  8
0
 10
0
 20
0
 39
0
 70
1
 66
1
  0
VERTEX
  8
0
 10
1482.5692138671875
 20
140.35385131835937
 42
-1
  0
VERTEX
  8
0
 10
1470.5692138671875
 20
140.35385131835937
 42
-1
  0
SEQEND
  0
POLYLINE
  8
0
 10
0
 20
0
 39
0
 70
1
 66
1
  0
VERTEX
  8
0
 10
1482.5692138671875
 20
580.35382080078125
 42
-1
  0
VERTEX
  8
0
 10
1470.5692138671875
 20
580.35382080078125
 42
-1
  0
SEQEND
  0
POLYLINE
  8
0
 10
0
 20
0
 39
0
 70
1
 66
1
  0
VERTEX
  8
0
 10
1482.5692138671875
 20
470.35385131835937
 42
-1
  0
VERTEX
  8
0
 10
1470.5692138671875
 20
470.35385131835937
 42
-1
  0
SEQEND
  0
POLYLINE
  8
0
 10
0
 20
0
 39
0
 70
1
 66
1
  0
VERTEX
  8
0
 10
1382.5692138671875
 20
580.35382080078125
 42
-1
  0
VERTEX
  8
0
 10
1370.5692138671875
 20
580.35382080078125
 42
-1
  0
SEQEND
  0
POLYLINE
  8
0
 10
0
 20
0
 39
0
 70
1
 66
1
  0
VERTEX
  8
0
 10
1282.5692138671875
 20
580.35382080078125
 42
-1
  0
VERTEX
  8
0
 10
1270.5692138671875
 20
580.35382080078125
 42
-1
  0
SEQEND
  0
POLYLINE
  8
0
 10
0
 20
0
 39
0
 70
1
 66
1
  0
VERTEX
  8
0
 10
1182.5692138671875
 20
580.35382080078125
 42
-1
  0
VERTEX
  8
0
 10
1170.5692138671875
 20
580.35382080078125
 42
-1
  0
SEQEND
  0
POLYLINE
  8
0
 10
0
 20
0
 39
0
 70
1
 66
1
  0
VERTEX
  8
0
 10
1082.5692138671875
 20
30.353845596313477
 42
-1
  0
VERTEX
  8
0
 10
1070.5692138671875
 20
30.353845596313477
 42
-1
  0
SEQEND
  0
POLYLINE
  8
0
 10
0
 20
0
 39
0
 70
1
 66
1
  0
VERTEX
  8
0
 10
1082.5692138671875
 20
140.35385131835937
 42
-1
  0
VERTEX
  8
0
 10
1070.5692138671875
 20
140.35385131835937
 42
-1
  0
SEQEND
  0
POLYLINE
  8
0
 10
0
 20
0
 39
0
 70
1
 66
1
  0
VERTEX
  8
0
 10
1082.5692138671875
 20
250.35385131835937
 42
-1
  0
VERTEX
  8
0
 10
1070.5692138671875
 20
250.35385131835937
 42
-1
  0
SEQEND
  0
POLYLINE
  8
0
 10
0
 20
0
 39
0
 70
1
 66
1
  0
VERTEX
  8
0
 10
1082.5692138671875
 20
360.35385131835937
 42
-1
  0
VERTEX
  8
0
 10
1070.5692138671875
 20
360.35385131835937
 42
-1
  0
SEQEND
  0
POLYLINE
  8
0
 10
0
 20
0
 39
0
 70
1
 66
1
  0
VERTEX
  8
0
 10
1082.5692138671875
 20
470.35385131835937
 42
-1
  0
VERTEX
  8
0
 10
1070.5692138671875
 20
470.35385131835937
 42
-1
  0
SEQEND
  0
POLYLINE
  8
0
 10
0
 20
0
 39
0
 70
1
 66
1
  0
VERTEX
  8
0
 10
1082.5692138671875
 20
580.35382080078125
 42
-1
  0
VERTEX
  8
0
 10
1070.5692138671875
 20
580.35382080078125
 42
-1
  0
SEQEND
  0
POLYLINE
  8
0
 10
0
 20
0
 39
0
 70
1
 66
1
  0
VERTEX
  8
0
 10
1506.84619140625
 20
600.35382080078125
 42
0
  0
VERTEX
  8
0
 10
1506.84619140625
 20
10.353846549987793
 42
0
  0
VERTEX
  8
0
 10
1946.84619140625
 20
10.353846549987793
 42
0
  0
VERTEX
  8
0
 10
1946.84619140625
 20
600.35382080078125
 42
0
  0
SEQEND
  0
POLYLINE
  8
0
 10
0
 20
0
 39
0
 70
1
 66
1
  0
VERTEX
  8
0
 10
1932.84619140625
 20
30.353845596313477
 42
-1
  0
VERTEX
  8
0
 10
1920.84619140625
 20
30.353845596313477
 42
-1
  0
SEQEND
  0
POLYLINE
  8
0
 10
0
 20
0
 39
0
 70
1
 66
1
  0
VERTEX
  8
0
 10
1832.84619140625
 20
30.353845596313477
 42
-1
  0
VERTEX
  8
0
 10
1820.84619140625
 20
30.353845596313477
 42
-1
  0
SEQEND
  0
POLYLINE
  8
0
 10
0
 20
0
 39
0
 70
1
 66
1
  0
VERTEX
  8
0
 10
1732.84619140625
 20
30.353845596313477
 42
-1
  0
VERTEX
  8
0
 10
1720.84619140625
 20
30.353845596313477
 42
-1
  0
SEQEND
  0
POLYLINE
  8
0
 10
0
 20
0
 39
0
 70
1
 66
1
  0
VERTEX
  8
0
 10
1632.84619140625
 20
30.353845596313477
 42
-1
  0
VERTEX
  8
0
 10
1620.84619140625
 20
30.353845596313477
 42
-1
  0
SEQEND
  0
POLYLINE
  8
0
 10
0
 20
0
 39
0
 70
1
 66
1
  0
VERTEX
  8
0
 10
1932.84619140625
 20
360.35385131835937
 42
-1
  0
VERTEX
  8
0
 10
1920.84619140625
 20
360.35385131835937
 42
-1
  0
SEQEND
  0
POLYLINE
  8
0
 10
0
 20
0
 39
0
 70
1
 66
1
  0
VERTEX
  8
0
 10
1932.84619140625
 20
250.35385131835937
 42
-1
  0
VERTEX
  8
0
 10
1920.84619140625
 20
250.35385131835937
 42
-1
  0
SEQEND
  0
POLYLINE
  8
0
 10
0
 20
0
 39
0
 70
1
 66
1
  0
VERTEX
  8
0
 10
1932.84619140625
 20
140.35385131835937
 42
-1
  0
VERTEX
  8
0
 10
1920.84619140625
 20
140.35385131835937
 42
-1
  0
SEQEND
  0
POLYLINE
  8
0
 10
0
 20
0
 39
0
 70
1
 66
1
  0
VERTEX
  8
0
 10
1932.84619140625
 20
580.35382080078125
 42
-1
  0
VERTEX
  8
0
 10
1920.84619140625
 20
580.35382080078125
 42
-1
  0
SEQEND
  0
POLYLINE
  8
0
 10
0
 20
0
 39
0
 70
1
 66
1
  0
VERTEX
  8
0
 10
1932.84619140625
 20
470.35385131835937
 42
-1
  0
VERTEX
  8
0
 10
1920.84619140625
 20
470.35385131835937
 42
-1
  0
SEQEND
  0
POLYLINE
  8
0
 10
0
 20
0
 39
0
 70
1
 66
1
  0
VERTEX
  8
0
 10
1832.84619140625
 20
580.35382080078125
 42
-1
  0
VERTEX
  8
0
 10
1820.84619140625
 20
580.35382080078125
 42
-1
  0
SEQEND
  0
POLYLINE
  8
0
 10
0
 20
0
 39
0
 70
1
 66
1
  0
VERTEX
  8
0
 10
1732.84619140625
 20
580.35382080078125
 42
-1
  0
VERTEX
  8
0
 10
1720.84619140625
 20
580.35382080078125
 42
-1
  0
SEQEND
  0
POLYLINE
  8
0
 10
0
 20
0
 39
0
 70
1
 66
1
  0
VERTEX
  8
0
 10
1632.84619140625
 20
580.35382080078125
 42
-1
  0
VERTEX
  8
0
 10
1620.84619140625
 20
580.35382080078125
 42
-1
  0
SEQEND
  0
POLYLINE
  8
0
 10
0
 20
0
 39
0
 70
1
 66
1
  0
VERTEX
  8
0
 10
1532.84619140625
 20
30.353845596313477
 42
-1
  0
VERTEX
  8
0
 10
1520.84619140625
 20
30.353845596313477
 42
-1
  0
SEQEND
  0
POLYLINE
  8
0
 10
0
 20
0
 39
0
 70
1
 66
1
  0
VERTEX
  8
0
 10
1532.84619140625
 20
140.35385131835937
 42
-1
  0
VERTEX
  8
0
 10
1520.84619140625
 20
140.35385131835937
 42
-1
  0
SEQEND
  0
POLYLINE
  8
0
 10
0
 20
0
 39
0
 70
1
 66
1
  0
VERTEX
  8
0
 10
1532.84619140625
 20
250.35385131835937
 42
-1
  0
VERTEX
  8
0
 10
1520.84619140625
 20
250.35385131835937
 42
-1
  0
SEQEND
  0
POLYLINE
  8
0
 10
0
 20
0
 39
0
 70
1
 66
1
  0
VERTEX
  8
0
 10
1532.84619140625
 20
360.35385131835937
 42
-1
  0
VERTEX
  8
0
 10
1520.84619140625
 20
360.35385131835937
 42
-1
  0
SEQEND
  0
POLYLINE
  8
0
 10
0
 20
0
 39
0
 70
1
 66
1
  0
VERTEX
  8
0
 10
1532.84619140625
 20
470.35385131835937
 42
-1
  0
VERTEX
  8
0
 10
1520.84619140625
 20
470.35385131835937
 42
-1
  0
SEQEND
  0
POLYLINE
  8
0
 10
0
 20
0
 39
0
 70
1
 66
1
  0
VERTEX
  8
0
 10
1532.84619140625
 20
580.35382080078125
 42
-1
  0
VERTEX
  8
0
 10
1520.84619140625
 20
580.35382080078125
 42
-1
  0
SEQEND
  0
POLYLINE
  8
0
 10
0
 20
0
 39
0
 70
1
 66
1
  0
VERTEX
  8
0
 10
148.86827087402344
 20
528.20001220703125
 42
-0.24591514468193054
  0
VERTEX
  8
0
 10
465.16842651367187
 20
528.41680908203125
 42
0
  0
VERTEX
  8
0
 10
340.08541870117187
 20
772.20001220703125
 42
0
  0
SEQEND
  0
POLYLINE
  8
0
 10
0
 20
0
 39
0
 70
1
 66
1
  0
VERTEX
  8
0
 10
326.65402221679687
 20
772.20001220703125
 42
-0.24591514468193054
  0
VERTEX
  8
0
 10
10.353846549987793
 20
771.983154296875
 42
0
  0
VERTEX
  8
0
 10
135.43687438964844
 20
528.20001220703125
 42
0
  0
SEQEND
  0
POLYLINE
  8
0
 10
0
 20
0
 39
0
 70
1
 66
1
  0
VERTEX
  8
0
 10
698.09906005859375
 20
10.353846549987793
 42
-0.24591514468193054
  0
VERTEX
  8
0
 10
1014.3992309570312
 20
10.570673942565918
 42
0
  0
VERTEX
  8
0
 10
889.316162109375
 20
254.35385131835937
 42
0
  0
SEQEND
  0
POLYLINE
  8
0
 10
0
 20
0
 39
0
 70
1
 66
1
  0
VERTEX
  8
0
 10
875.884765625
 20
254.35385131835937
 42
-0.24591514468193054
  0
VERTEX
  8
0
 10
559.5845947265625
 20
254.13702392578125
 42
0
  0
VERTEX
  8
0
 10
684.66766357421875
 20
10.353846549987793
 42
0
  0
SEQEND
  0
POLYLINE
  8
0
 10
0
 20
0
 39
0
 70
1
 66
1
  0
VERTEX
  8
0
 10
1957.123046875
 20
326.65402221679687
 42
-0.24591514468193054
  0
VERTEX
  8
0
 10
1957.33984375
 20
10.353846549987793
 42
0
  0
VERTEX
  8
0
 10
2201.123046875
 20
135.43687438964844
 42
0
  0
SEQEND
  0
POLYLINE
  8
0
 10
0
 20
0
 39
0
 70
1
 66
1
  0
VERTEX
  8
0
 10
2201.123046875
 20
148.86827087402344
 42
-0.24591514468193054
  0
VERTEX
  8
0
 10
2200.90625
 20
465.16842651367187
 42
0
  0
VERTEX
  8
0
 10
1957.123046875
 20
340.08541870117187
 42
0
  0
SEQEND
  0
POLYLINE
  8
0
 10
0
 20
0
 39
0
 70
1
 66
1
  0
VERTEX
  8
0
 10
2000.19140625
 20
545.73846435546875
 42
-0.24591514468193054
  0
VERTEX
  8
0
 10
2316.491455078125
 20
545.95526123046875
 42
0
  0
VERTEX
  8
0
 10
2191.408447265625
 20
789.73846435546875
 42
0
  0
SEQEND
  0
POLYLINE
  8
0
 10
0
 20
0
 39
0
 70
1
 66
1
  0
VERTEX
  8
0
 10
2177.97705078125
 20
789.73846435546875
 42
-0.24591514468193054
  0
VERTEX
  8
0
 10
1861.6768798828125
 20
789.5216064453125
 42
0
  0
VERTEX
  8
0
 10
1986.760009765625
 20
545.73846435546875
 42
0
  0
SEQEND
  0
POLYLINE
  8
0
 10
0
 20
0
 39
0
 70
1
 66
1
  0
VERTEX
  8
0
 10
486.2437744140625
 20
507.70770263671875
 42
-0.24591514468193054
  0
VERTEX
  8
0
 10
630.8765869140625
 20
789.00323486328125
 42
0
  0
VERTEX
  8
0
 10
356.87692260742187
 20
789.42425537109375
 42
0
  0
SEQEND
  0
POLYLINE
  8
0
 10
0
 20
0
 39
0
 70
1
 66
1
  0
VERTEX
  8
0
 10
1159.7548828125
 20
789.62738037109375
 42
0
  0
VERTEX
  8
0
 10
982.6153564453125
 20
789.62738037109375
 42
0.58318275213241577
  0
VERTEX
  8
0
 10
961.18621826171875
 20
751.75146484375
 42
-0
  0
VERTEX
  8
0
 10
995.73321533203125
 20
694.255615234375
 42
-0
  0
VERTEX
  8
0
 10
1009.802001953125
 20
692.02728271484375
 42
0
  0
VERTEX
  8
0
 10
1011.3663330078125
 20
701.9041748046875
 42
-1
  0
VERTEX
  8
0
 10
1031.1201171875
 20
698.7755126953125
 42
-0
  0
VERTEX
  8
0
 10
1029.5557861328125
 20
688.89862060546875
 42
-0
  0
VERTEX
  8
0
 10
1039.40625
 20
687.33843994140625
 42
-0
  0
VERTEX
  8
0
 10
1239.646484375
 20
726.26123046875
 42
0.3599417507648468
  0
SEQEND
  0
POLYLINE
  8
0
 10
0
 20
0
 39
0
 70
1
 66
1
  0
VERTEX
  8
0
 10
972.79913330078125
 20
762.71929931640625
 42
-1
  0
VERTEX
  8
0
 10
992.431640625
 20
766.53546142578125
 42
-1
  0
SEQEND
  0
POLYLINE
  8
0
 10
0
 20
0
 39
0
 70
1
 66
1
  0
VERTEX
  8
0
 10
1105.6300048828125
 20
610.55517578125
 42
0
  0
VERTEX
  8
0
 10
1282.76953125
 20
610.55517578125
 42
0.58318275213241577
  0
VERTEX
  8
0
 10
1304.19873046875
 20
648.43115234375
 42
-0
  0
VERTEX
  8
0
 10
1269.6517333984375
 20
705.927001953125
 42
-0
  0
VERTEX
  8
0
 10
1255.5828857421875
 20
708.1552734375
 42
0
  0
VERTEX
  8
0
 10
1254.0185546875
 20
698.27838134765625
 42
-1
  0
VERTEX
  8
0
 10
1234.2647705078125
 20
701.4071044921875
 42
-0
  0
VERTEX
  8
0
 10
1235.8291015625
 20
711.28399658203125
 42
-0
  0
VERTEX
  8
0
 10
1225.978759765625
 20
712.8441162109375
 42
-0
  0
VERTEX
  8
0
 10
1025.7384033203125
 20
673.92138671875
 42
0.3599417507648468
  0
SEQEND
  0
POLYLINE
  8
0
 10
0
 20
0
 39
0
 70
1
 66
1
  0
VERTEX
  8
0
 10
1292.5858154296875
 20
637.4632568359375
 42
-1
  0
VERTEX
  8
0
 10
1272.9532470703125
 20
633.6470947265625
 42
-1
  0
SEQEND
  0
POLYLINE
  8
0
 10
0
 20
0
 39
0
 70
1
 66
1
  0
VERTEX
  8
0
 10
1452.924072265625
 20
789.62738037109375
 42
0
  0
VERTEX
  8
0
 10
1275.78466796875
 20
789.62738037109375
 42
0.58318275213241577
  0
VERTEX
  8
0
 10
1254.35546875
 20
751.75146484375
 42
-0
  0
VERTEX
  8
0
 10
1288.9024658203125
 20
694.255615234375
 42
-0
  0
VERTEX
  8
0
 10
1302.97119140625
 20
692.02728271484375
 42
0
  0
VERTEX
  8
0
 10
1304.53564453125
 20
701.9041748046875
 42
-1
  0
VERTEX
  8
0
 10
1324.289306640625
 20
698.7755126953125
 42
-0
  0
VERTEX
  8
0
 10
1322.7249755859375
 20
688.89862060546875
 42
-0
  0
VERTEX
  8
0
 10
1332.575439453125
 20
687.33843994140625
 42
-0
  0
VERTEX
  8
0
 10
1532.815673828125
 20
726.26123046875
 42
0.3599417507648468
  0
SEQEND
  0
POLYLINE
  8
0
 10
0
 20
0
 39
0
 70
1
 66
1
  0
VERTEX
  8
0
 10
1265.9683837890625
 20
762.71929931640625
 42
-1
  0
VERTEX
  8
0
 10
1285.600830078125
 20
766.53546142578125
 42
-1
  0
SEQEND
  0
POLYLINE
  8
0
 10
0
 20
0
 39
0
 70
1
 66
1
  0
VERTEX
  8
0
 10
1398.79931640625
 20
610.55517578125
 42
0
  0
VERTEX
  8
0
 10
1575.938720703125
 20
610.55517578125
 42
0.58318275213241577
  0
VERTEX
  8
0
 10
1597.367919921875
 20
648.43115234375
 42
-0
  0
VERTEX
  8
0
 10
1562.8209228515625
 20
705.927001953125
 42
-0
  0
VERTEX
  8
0
 10
1548.752197265625
 20
708.1552734375
 42
0
  0
VERTEX
  8
0
 10
1547.1878662109375
 20
698.27838134765625
 42
-1
  0
VERTEX
  8
0
 10
1527.43408203125
 20
701.4071044921875
 42
-0
  0
VERTEX
  8
0
 10
1528.9984130859375
 20
711.28399658203125
 42
-0
  0
VERTEX
  8
0
 10
1519.14794921875
 20
712.8441162109375
 42
-0
  0
VERTEX
  8
0
 10
1318.90771484375
 20
673.92138671875
 42
0.3599417507648468
  0
SEQEND
  0
POLYLINE
  8
0
 10
0
 20
0
 39
0
 70
1
 66
1
  0
VERTEX
  8
0
 10
1585.7550048828125
 20
637.4632568359375
 42
-1
  0
VERTEX
  8
0
 10
1566.12255859375
 20
633.6470947265625
 42
-1
  0
SEQEND
  0
POLYLINE
  8
0
 10
0
 20
0
 39
0
 70
1
 66
1
  0
VERTEX
  8
0
 10
1746.0933837890625
 20
789.62738037109375
 42
0
  0
VERTEX
  8
0
 10
1568.953857421875
 20
789.62738037109375
 42
0.58318275213241577
  0
VERTEX
  8
0
 10
1547.524658203125
 20
751.75146484375
 42
-0
  0
VERTEX
  8
0
 10
1582.0716552734375
 20
694.255615234375
 42
-0
  0
VERTEX
  8
0
 10
1596.1405029296875
 20
692.02728271484375
 42
0
  0
VERTEX
  8
0
 10
1597.704833984375
 20
701.9041748046875
 42
-1
  0
VERTEX
  8
0
 10
1617.4586181640625
 20
698.7755126953125
 42
-0
  0
VERTEX
  8
0
 10
1615.894287109375
 20
688.89862060546875
 42
-0
  0
VERTEX
  8
0
 10
1625.74462890625
 20
687.33843994140625
 42
-0
  0
VERTEX
  8
0
 10
1825.9849853515625
 20
726.26123046875
 42
0.3599417507648468
  0
SEQEND
  0
POLYLINE
  8
0
 10
0
 20
0
 39
0
 70
1
 66
1
  0
VERTEX
  8
0
 10
1559.1375732421875
 20
762.71929931640625
 42
-1
  0
VERTEX
  8
0
 10
1578.7701416015625
 20
766.53546142578125
 42
-1
  0
SEQEND
  0
POLYLINE
  8
0
 10
0
 20
0
 39
0
 70
1
 66
1
  0
VERTEX
  8
0
 10
1691.968505859375
 20
610.55517578125
 42
0
  0
VERTEX
  8
0
 10
1869.1080322265625
 20
610.55517578125
 42
0.58318275213241577
  0
VERTEX
  8
0
 10
1890.5372314453125
 20
648.43115234375
 42
-0
  0
VERTEX
  8
0
 10
1855.990234375
 20
705.927001953125
 42
-0
  0
VERTEX
  8
0
 10
1841.92138671875
 20
708.1552734375
 42
0
  0
VERTEX
  8
0
 10
1840.3570556640625
 20
698.27838134765625
 42
-1
  0
VERTEX
  8
0
 10
1820.603271484375
 20
701.4071044921875
 42
-0
  0
VERTEX
  8
0
 10
1822.1676025390625
 20
711.28399658203125
 42
-0
  0
VERTEX
  8
0
 10
1812.317138671875
 20
712.8441162109375
 42
-0
  0
VERTEX
  8
0
 10
1612.076904296875
 20
673.92138671875
 42
0.3599417507648468
  0
SEQEND
  0
POLYLINE
  8
0
 10
0
 20
0
 39
0
 70
1
 66
1
  0
VERTEX
  8
0
 10
1878.92431640625
 20
637.4632568359375
 42
-1
  0
VERTEX
  8
0
 10
1859.291748046875
 20
633.6470947265625
 42
-1
  0
SEQEND
  0
POLYLINE
  8
0
 10
0
 20
0
 39
0
 70
1
 66
1
  0
VERTEX
  8
0
 10
2214.78466796875
 20
228.56922912597656
 42
0
  0
VERTEX
  8
0
 10
2314.78466796875
 20
228.56922912597656
 42
0
  0
VERTEX
  8
0
 10
2314.78466796875
 20
383.56924438476562
 42
0
  0
VERTEX
  8
0
 10
2214.78466796875
 20
383.56924438476562
 42
-0
  0
VERTEX
  8
0
 10
2174.78466796875
 20
343.56924438476562
 42
0
  0
VERTEX
  8
0
 10
2174.78466796875
 20
268.56924438476562
 42
0
  0
SEQEND
  0
POLYLINE
  8
0
 10
0
 20
0
 39
0
 70
1
 66
1
  0
VERTEX
  8
0
 10
2190.84619140625
 20
110.35384368896484
 42
0
  0
VERTEX
  8
0
 10
2190.84619140625
 20
10.353846549987793
 42
0
  0
VERTEX
  8
0
 10
2345.84619140625
 20
10.353846549987793
 42
0
  0
VERTEX
  8
0
 10
2345.84619140625
 20
110.35384368896484
 42
-0
  0
VERTEX
  8
0
 10
2305.84619140625
 20
150.35385131835937
 42
0
  0
VERTEX
  8
0
 10
2230.84619140625
 20
150.35385131835937
 42
0
  0
SEQEND
  0
POLYLINE
  8
0
 10
0
 20
0
 39
0
 70
1
 66
1
  0
VERTEX
  8
0
 10
2366.15380859375
 20
433.61538696289062
 42
0
  0
VERTEX
  8
0
 10
2366.15380859375
 20
533.6153564453125
 42
0
  0
VERTEX
  8
0
 10
2211.15380859375
 20
533.6153564453125
 42
0
  0
VERTEX
  8
0
 10
2211.15380859375
 20
433.61538696289062
 42
-0
  0
VERTEX
  8
0
 10
2251.15380859375
 20
393.61538696289062
 42
0
  0
VERTEX
  8
0
 10
2326.15380859375
 20
393.61538696289062
 42
0
  0
SEQEND
  0
POLYLINE
  8
0
 10
0
 20
0
 39
0
 70
1
 66
1
  0
VERTEX
  8
0
 10
543.4893798828125
 20
125.35329437255859
 42
1
  0
VERTEX
  8
0
 10
542.987548828125
 20
10.354393005371094
 42
1
  0
SEQEND
  0
POLYLINE
  8
0
 10
0
 20
0
 39
0
 70
1
 66
1
  0
VERTEX
  8
0
 10
543.30389404296875
 20
82.85369873046875
 42
-1
  0
VERTEX
  8
0
 10
543.17303466796875
 20
52.853988647460937
 42
-1
  0
SEQEND
  0
POLYLINE
  8
0
 10
0
 20
0
 39
0
 70
1
 66
1
  0
VERTEX
  8
0
 10
543.13360595703125
 20
43.819271087646484
 42
-1
  0
VERTEX
  8
0
 10
543.03759765625
 20
21.819482803344727
 42
-1
  0
SEQEND
  0
POLYLINE
  8
0
 10
0
 20
0
 39
0
 70
1
 66
1
  0
VERTEX
  8
0
 10
508.25198364257812
 20
79.006607055664063
 42
-1
  0
VERTEX
  8
0
 10
508.156005859375
 20
57.006816864013672
 42
-1
  0
SEQEND
  0
POLYLINE
  8
0
 10
0
 20
0
 39
0
 70
1
 66
1
  0
VERTEX
  8
0
 10
543.4393310546875
 20
113.88820648193359
 42
-1
  0
VERTEX
  8
0
 10
543.34332275390625
 20
91.888420104980469
 42
-1
  0
SEQEND
  0
POLYLINE
  8
0
 10
0
 20
0
 39
0
 70
1
 66
1
  0
VERTEX
  8
0
 10
971.6124267578125
 20
300.92251586914063
 42
1
  0
VERTEX
  8
0
 10
971.11065673828125
 20
185.92362976074219
 42
1
  0
SEQEND
  0
POLYLINE
  8
0
 10
0
 20
0
 39
0
 70
1
 66
1
  0
VERTEX
  8
0
 10
971.427001953125
 20
258.42294311523437
 42
-1
  0
VERTEX
  8
0
 10
971.29608154296875
 20
228.4232177734375
 42
-1
  0
SEQEND
  0
POLYLINE
  8
0
 10
0
 20
0
 39
0
 70
1
 66
1
  0
VERTEX
  8
0
 10
971.25665283203125
 20
219.38850402832031
 42
-1
  0
VERTEX
  8
0
 10
971.16064453125
 20
197.38871765136719
 42
-1
  0
SEQEND
  0
POLYLINE
  8
0
 10
0
 20
0
 39
0
 70
1
 66
1
  0
VERTEX
  8
0
 10
936.37506103515625
 20
254.57583618164062
 42
-1
  0
VERTEX
  8
0
 10
936.279052734375
 20
232.5760498046875
 42
-1
  0
SEQEND
  0
POLYLINE
  8
0
 10
0
 20
0
 39
0
 70
1
 66
1
  0
VERTEX
  8
0
 10
971.5623779296875
 20
289.45742797851562
 42
-1
  0
VERTEX
  8
0
 10
971.4664306640625
 20
267.4576416015625
 42
-1
  0
SEQEND
  0
POLYLINE
  8
0
 10
0
 20
0
 39
0
 70
1
 66
1
  0
VERTEX
  8
0
 10
2014.8740234375
 20
503.63021850585937
 42
1
  0
VERTEX
  8
0
 10
2014.3721923828125
 20
388.63131713867187
 42
1
  0
SEQEND
  0
POLYLINE
  8
0
 10
0
 20
0
 39
0
 70
1
 66
1
  0
VERTEX
  8
0
 10
2014.6884765625
 20
461.130615234375
 42
-1
  0
VERTEX
  8
0
 10
2014.5576171875
 20
431.13092041015625
 42
-1
  0
SEQEND
  0
POLYLINE
  8
0
 10
0
 20
0
 39
0
 70
1
 66
1
  0
VERTEX
  8
0
 10
2014.5181884765625
 20
422.09619140625
 42
-1
  0
VERTEX
  8
0
 10
2014.4222412109375
 20
400.09640502929687
 42
-1
  0
SEQEND
  0
POLYLINE
  8
0
 10
0
 20
0
 39
0
 70
1
 66
1
  0
VERTEX
  8
0
 10
1979.6365966796875
 20
457.28353881835937
 42
-1
  0
VERTEX
  8
0
 10
1979.5406494140625
 20
435.28375244140625
 42
-1
  0
SEQEND
  0
POLYLINE
  8
0
 10
0
 20
0
 39
0
 70
1
 66
1
  0
VERTEX
  8
0
 10
2014.823974609375
 20
492.16513061523438
 42
-1
  0
VERTEX
  8
0
 10
2014.7279052734375
 20
470.16534423828125
 42
-1
  0
SEQEND
  0
POLYLINE
  8
0
 10
0
 20
0
 39
0
 70
1
 66
1
  0
VERTEX
  8
0
 10
2120.65869140625
 20
571.199462890625
 42
1
  0
VERTEX
  8
0
 10
2120.15673828125
 20
456.2005615234375
 42
1
  0
SEQEND
  0
POLYLINE
  8
0
 10
0
 20
0
 39
0
 70
1
 66
1
  0
VERTEX
  8
0
 10
2120.47314453125
 20
528.6998291015625
 42
-1
  0
VERTEX
  8
0
 10
2120.34228515625
 20
498.70013427734375
 42
-1
  0
SEQEND
  0
POLYLINE
  8
0
 10
0
 20
0
 39
0
 70
1
 66
1
  0
VERTEX
  8
0
 10
2120.302734375
 20
489.66543579101562
 42
-1
  0
VERTEX
  8
0
 10
2120.206787109375
 20
467.6656494140625
 42
-1
  0
SEQEND
  0
POLYLINE
  8
0
 10
0
 20
0
 39
0
 70
1
 66
1
  0
VERTEX
  8
0
 10
2085.421142578125
 20
524.852783203125
 42
-1
  0
VERTEX
  8
0
 10
2085.3251953125
 20
502.85296630859375
 42
-1
  0
SEQEND
  0
POLYLINE
  8
0
 10
0
 20
0
 39
0
 70
1
 66
1
  0
VERTEX
  8
0
 10
2120.608642578125
 20
559.734375
 42
-1
  0
VERTEX
  8
0
 10
2120.512451171875
 20
537.73455810546875
 42
-1
  0
SEQEND
  0
POLYLINE
  8
0
 10
0
 20
0
 39
0
 70
1
 66
1
  0
VERTEX
  8
0
 10
2297.704833984375
 20
789.59942626953125
 42
1
  0
VERTEX
  8
0
 10
2297.202880859375
 20
674.60052490234375
 42
1
  0
SEQEND
  0
POLYLINE
  8
0
 10
0
 20
0
 39
0
 70
1
 66
1
  0
VERTEX
  8
0
 10
2297.519287109375
 20
747.099853515625
 42
-1
  0
VERTEX
  8
0
 10
2297.388427734375
 20
717.10015869140625
 42
-1
  0
SEQEND
  0
POLYLINE
  8
0
 10
0
 20
0
 39
0
 70
1
 66
1
  0
VERTEX
  8
0
 10
2297.348876953125
 20
708.0654296875
 42
-1
  0
VERTEX
  8
0
 10
2297.2529296875
 20
686.06561279296875
 42
-1
  0
SEQEND
  0
POLYLINE
  8
0
 10
0
 20
0
 39
0
 70
1
 66
1
  0
VERTEX
  8
0
 10
2262.46728515625
 20
743.25274658203125
 42
-1
  0
VERTEX
  8
0
 10
2262.371337890625
 20
721.25299072265625
 42
-1
  0
SEQEND
  0
POLYLINE
  8
0
 10
0
 20
0
 39
0
 70
1
 66
1
  0
VERTEX
  8
0
 10
2297.65478515625
 20
778.13433837890625
 42
-1
  0
VERTEX
  8
0
 10
2297.558837890625
 20
756.13458251953125
 42
-1
  0
SEQEND
  0
POLYLINE
  8
0
 10
0
 20
0
 39
0
 70
1
 66
1
  0
VERTEX
  8
0
 10
50.353847503662109
 20
562.620361328125
 42
0.53667503595352173
  0
VERTEX
  8
0
 10
10.353846549987793
 20
562.620361328125
 42
0
  0
VERTEX
  8
0
 10
10.353846549987793
 20
441.08734130859375
 42
0.53667503595352173
  0
VERTEX
  8
0
 10
50.353847503662109
 20
441.08734130859375
 42
0
  0
SEQEND
  0
POLYLINE
  8
0
 10
0
 20
0
 39
0
 70
1
 66
1
  0
VERTEX
  8
0
 10
30.353845596313477
 20
447.00384521484375
 42
-1
  0
VERTEX
  8
0
 10
30.353845596313477
 20
461.703857421875
 42
-1
  0
SEQEND
  0
POLYLINE
  8
0
 10
0
 20
0
 39
0
 70
1
 66
1
  0
VERTEX
  8
0
 10
30.353845596313477
 20
542.00384521484375
 42
-1
  0
VERTEX
  8
0
 10
30.353845596313477
 20
556.703857421875
 42
-1
  0
SEQEND
  0
POLYLINE
  8
0
 10
0
 20
0
 39
0
 70
1
 66
1
  0
VERTEX
  8
0
 10
105.27196502685547
 20
789.73846435546875
 42
0.53667503595352173
  0
VERTEX
  8
0
 10
105.27196502685547
 20
749.73846435546875
 42
0
  0
VERTEX
  8
0
 10
226.80496215820313
 20
749.73846435546875
 42
0.53667503595352173
  0
VERTEX
  8
0
 10
226.80496215820313
 20
789.73846435546875
 42
0
  0
SEQEND
  0
POLYLINE
  8
0
 10
0
 20
0
 39
0
 70
1
 66
1
  0
VERTEX
  8
0
 10
220.88845825195312
 20
769.73846435546875
 42
-1
  0
VERTEX
  8
0
 10
206.18846130371094
 20
769.73846435546875
 42
-1
  0
SEQEND
  0
POLYLINE
  8
0
 10
0
 20
0
 39
0
 70
1
 66
1
  0
VERTEX
  8
0
 10
125.88845825195312
 20
769.73846435546875
 42
-1
  0
VERTEX
  8
0
 10
111.18846130371094
 20
769.73846435546875
 42
-1
  0
SEQEND
  0
POLYLINE
  8
0
 10
0
 20
0
 39
0
 70
1
 66
1
  0
VERTEX
  8
0
 10
1041.923095703125
 20
179.54341125488281
 42
0.53667503595352173
  0
VERTEX
  8
0
 10
1001.923095703125
 20
179.54341125488281
 42
0
  0
VERTEX
  8
0
 10
1001.923095703125
 20
58.010425567626953
 42
0.53667503595352173
  0
VERTEX
  8
0
 10
1041.923095703125
 20
58.010421752929688
 42
0
  0
SEQEND
  0
POLYLINE
  8
0
 10
0
 20
0
 39
0
 70
1
 66
1
  0
VERTEX
  8
0
 10
1021.923095703125
 20
63.926921844482422
 42
-1
  0
VERTEX
  8
0
 10
1021.923095703125
 20
78.626922607421875
 42
-1
  0
SEQEND
  0
POLYLINE
  8
0
 10
0
 20
0
 39
0
 70
1
 66
1
  0
VERTEX
  8
0
 10
1021.923095703125
 20
158.92692565917969
 42
-1
  0
VERTEX
  8
0
 10
1021.923095703125
 20
173.62692260742187
 42
-1
  0
SEQEND
  0
POLYLINE
  8
0
 10
0
 20
0
 39
0
 70
1
 66
1
  0
VERTEX
  8
0
 10
2203.42578125
 20
218.35385131835937
 42
0.53667503595352173
  0
VERTEX
  8
0
 10
2203.42578125
 20
178.35385131835937
 42
0
  0
VERTEX
  8
0
 10
2324.958740234375
 20
178.35385131835937
 42
0.53667503595352173
  0
VERTEX
  8
0
 10
2324.958740234375
 20
218.35385131835937
 42
0
  0
SEQEND
  0
POLYLINE
  8
0
 10
0
 20
0
 39
0
 70
1
 66
1
  0
VERTEX
  8
0
 10
2319.042236328125
 20
198.35385131835937
 42
-1
  0
VERTEX
  8
0
 10
2304.34228515625
 20
198.35385131835937
 42
-1
  0
SEQEND
  0
POLYLINE
  8
0
 10
0
 20
0
 39
0
 70
1
 66
1
  0
VERTEX
  8
0
 10
2224.042236328125
 20
198.35385131835937
 42
-1
  0
VERTEX
  8
0
 10
2209.34228515625
 20
198.35385131835937
 42
-1
  0
SEQEND
  0
POLYLINE
  8
0
 10
0
 20
0
 39
0
 70
1
 66
1
  0
VERTEX
  8
0
 10
2365.0615234375
 20
354.743408203125
 42
0.53667503595352173
  0
VERTEX
  8
0
 10
2325.0615234375
 20
354.743408203125
 42
0
  0
VERTEX
  8
0
 10
2325.0615234375
 20
233.21041870117187
 42
0.53667503595352173
  0
VERTEX
  8
0
 10
2365.0615234375
 20
233.21041870117187
 42
0
  0
SEQEND
  0
POLYLINE
  8
0
 10
0
 20
0
 39
0
 70
1
 66
1
  0
VERTEX
  8
0
 10
2345.0615234375
 20
239.12692260742187
 42
-1
  0
VERTEX
  8
0
 10
2345.0615234375
 20
253.82691955566406
 42
-1
  0
SEQEND
  0
POLYLINE
  8
0
 10
0
 20
0
 39
0
 70
1
 66
1
  0
VERTEX
  8
0
 10
2345.0615234375
 20
334.12692260742187
 42
-1
  0
VERTEX
  8
0
 10
2345.0615234375
 20
348.82693481445312
 42
-1
  0
SEQEND
  0
POLYLINE
  8
0
 10
0
 20
0
 39
0
 70
1
 66
1
  0
VERTEX
  8
0
 10
2377.800048828125
 20
675.97418212890625
 42
0.53667503595352173
  0
VERTEX
  8
0
 10
2337.800048828125
 20
675.97418212890625
 42
0
  0
VERTEX
  8
0
 10
2337.800048828125
 20
554.44122314453125
 42
0.53667503595352173
  0
VERTEX
  8
0
 10
2377.800048828125
 20
554.441162109375
 42
0
  0
SEQEND
  0
POLYLINE
  8
0
 10
0
 20
0
 39
0
 70
1
 66
1
  0
VERTEX
  8
0
 10
2357.800048828125
 20
560.357666015625
 42
-1
  0
VERTEX
  8
0
 10
2357.800048828125
 20
575.05767822265625
 42
-1
  0
SEQEND
  0
POLYLINE
  8
0
 10
0
 20
0
 39
0
 70
1
 66
1
  0
VERTEX
  8
0
 10
2357.800048828125
 20
655.357666015625
 42
-1
  0
VERTEX
  8
0
 10
2357.800048828125
 20
670.05767822265625
 42
-1
  0
SEQEND
  0
ENDSEC
  0
EOF
