  0
SECTION
  2
ENTITIES
  0
POLYLINE
  8
0
 10
0
 20
0
 39
0
 70
1
 66
1
  0
VERTEX
  8
0
 10
0
 20
0
 42
0
  0
VERTEX
  8
0
 10
3000
 20
0
 42
0
  0
VERTEX
  8
0
 10
3000
 20
1000
 42
0
  0
VERTEX
  8
0
 10
0
 20
1000
 42
0
  0
SEQEND
  0
POLYLINE
  8
0
 10
0
 20
0
 39
0
 70
1
 66
1
  0
VERTEX
  8
0
 10
10.399999618530273
 20
695.4000244140625
 42
-0
  0
VERTEX
  8
0
 10
10.399999618530273
 20
10.399999618530273
 42
-0
  0
VERTEX
  8
0
 10
1490.4000244140625
 20
10.399999618530273
 42
-0
  0
VERTEX
  8
0
 10
1490.4000244140625
 20
695.4000244140625
 42
-0
  0
SEQEND
  0
POLYLINE
  8
0
 10
0
 20
0
 39
0
 70
1
 66
1
  0
VERTEX
  8
0
 10
750.4000244140625
 20
370.39999389648438
 42
-1
  0
VERTEX
  8
0
 10
650.4000244140625
 20
370.39999389648438
 42
-1
  0
SEQEND
  0
POLYLINE
  8
0
 10
0
 20
0
 39
0
 70
1
 66
1
  0
VERTEX
  8
0
 10
1471.4000244140625
 20
370.39999389648438
 42
-1
  0
VERTEX
  8
0
 10
859.4000244140625
 20
370.39999389648438
 42
-1
  0
SEQEND
  0
POLYLINE
  8
0
 10
0
 20
0
 39
0
 70
1
 66
1
  0
VERTEX
  8
0
 10
10.399999618530273
 20
945.5
 42
0
  0
VERTEX
  8
0
 10
10.399999618530273
 20
705.5
 42
0
  0
VERTEX
  8
0
 10
1304.4000244140625
 20
705.5
 42
0
  0
VERTEX
  8
0
 10
1304.4000244140625
 20
945.5
 42
0
  0
SEQEND
  0
POLYLINE
  8
0
 10
0
 20
0
 39
0
 70
1
 66
1
  0
VERTEX
  8
0
 10
1215.0050048828125
 20
825.5
 42
-1
  0
VERTEX
  8
0
 10
1199.7950439453125
 20
825.5
 42
-1
  0
SEQEND
  0
POLYLINE
  8
0
 10
0
 20
0
 39
0
 70
1
 66
1
  0
VERTEX
  8
0
 10
1115.0050048828125
 20
825.5
 42
-1
  0
VERTEX
  8
0
 10
1099.7950439453125
 20
825.5
 42
-1
  0
SEQEND
  0
POLYLINE
  8
0
 10
0
 20
0
 39
0
 70
1
 66
1
  0
VERTEX
  8
0
 10
1015.0050048828125
 20
825.5
 42
-1
  0
VERTEX
  8
0
 10
999.79498291015625
 20
825.5
 42
-1
  0
SEQEND
  0
POLYLINE
  8
0
 10
0
 20
0
 39
0
 70
1
 66
1
  0
VERTEX
  8
0
 10
915.0050048828125
 20
825.5
 42
-1
  0
VERTEX
  8
0
 10
899.79498291015625
 20
825.5
 42
-1
  0
SEQEND
  0
POLYLINE
  8
0
 10
0
 20
0
 39
0
 70
1
 66
1
  0
VERTEX
  8
0
 10
815.0050048828125
 20
825.5
 42
-1
  0
VERTEX
  8
0
 10
799.79498291015625
 20
825.5
 42
-1
  0
SEQEND
  0
POLYLINE
  8
0
 10
0
 20
0
 39
0
 70
1
 66
1
  0
VERTEX
  8
0
 10
715.0050048828125
 20
825.5
 42
-1
  0
VERTEX
  8
0
 10
699.7950439453125
 20
825.5
 42
-1
  0
SEQEND
  0
POLYLINE
  8
0
 10
0
 20
0
 39
0
 70
1
 66
1
  0
VERTEX
  8
0
 10
615.0050048828125
 20
825.5
 42
-1
  0
VERTEX
  8
0
 10
599.7950439453125
 20
825.5
 42
-1
  0
SEQEND
  0
POLYLINE
  8
0
 10
0
 20
0
 39
0
 70
1
 66
1
  0
VERTEX
  8
0
 10
515.0050048828125
 20
825.5
 42
-1
  0
VERTEX
  8
0
 10
499.79501342773437
 20
825.5
 42
-1
  0
SEQEND
  0
POLYLINE
  8
0
 10
0
 20
0
 39
0
 70
1
 66
1
  0
VERTEX
  8
0
 10
415.00497436523437
 20
825.5
 42
-1
  0
VERTEX
  8
0
 10
399.79501342773437
 20
825.5
 42
-1
  0
SEQEND
  0
POLYLINE
  8
0
 10
0
 20
0
 39
0
 70
1
 66
1
  0
VERTEX
  8
0
 10
315.00497436523437
 20
825.5
 42
-1
  0
VERTEX
  8
0
 10
299.79501342773437
 20
825.5
 42
-1
  0
SEQEND
  0
POLYLINE
  8
0
 10
0
 20
0
 39
0
 70
1
 66
1
  0
VERTEX
  8
0
 10
215.00497436523437
 20
825.5
 42
-1
  0
VERTEX
  8
0
 10
199.79501342773437
 20
825.5
 42
-1
  0
SEQEND
  0
POLYLINE
  8
0
 10
0
 20
0
 39
0
 70
1
 66
1
  0
VERTEX
  8
0
 10
115.00498199462891
 20
825.5
 42
-1
  0
VERTEX
  8
0
 10
99.795021057128906
 20
825.5
 42
-1
  0
SEQEND
  0
POLYLINE
  8
0
 10
0
 20
0
 39
0
 70
1
 66
1
  0
VERTEX
  8
0
 10
1651.709228515625
 20
157.29127502441406
 42
-0.38779455423355103
  0
VERTEX
  8
0
 10
1560.800048828125
 20
256.87722778320312
 42
-0
  0
VERTEX
  8
0
 10
1560.800048828125
 20
534.355712890625
 42
0.77775365114212036
  0
VERTEX
  8
0
 10
1542.01220703125
 20
539.127197265625
 42
-0
  0
VERTEX
  8
0
 10
1542.01220703125
 20
539.129150390625
 42
0.1250152587890625
  0
VERTEX
  8
0
 10
1500.800048828125
 20
376.87722778320312
 42
0
  0
VERTEX
  8
0
 10
1500.800048828125
 20
20.400655746459961
 42
0.59656262397766113
  0
VERTEX
  8
0
 10
1516.28662109375
 20
12.039327621459961
 42
-0
  0
VERTEX
  8
0
 10
1656.28662109375
 20
103.91432952880859
 42
0.25269123911857605
  0
VERTEX
  8
0
 10
1660.800048828125
 20
112.27565765380859
 42
-0
  0
VERTEX
  8
0
 10
1660.800048828125
 20
147.33229064941406
 42
0.38779458403587341
  0
SEQEND
  0
POLYLINE
  8
0
 10
0
 20
0
 39
0
 70
1
 66
1
  0
VERTEX
  8
0
 10
1509.890869140625
 20
572.23687744140625
 42
-0.38779455423355103
  0
VERTEX
  8
0
 10
1600.800048828125
 20
472.65093994140625
 42
-0
  0
VERTEX
  8
0
 10
1600.800048828125
 20
195.17242431640625
 42
0.77775365114212036
  0
VERTEX
  8
0
 10
1619.587890625
 20
190.40093994140625
 42
-0
  0
VERTEX
  8
0
 10
1619.587890625
 20
190.39898681640625
 42
0.1250152587890625
  0
VERTEX
  8
0
 10
1660.800048828125
 20
352.65093994140625
 42
0
  0
VERTEX
  8
0
 10
1660.800048828125
 20
709.12750244140625
 42
0.59656262397766113
  0
VERTEX
  8
0
 10
1645.3134765625
 20
717.48883056640625
 42
-0
  0
VERTEX
  8
0
 10
1505.3134765625
 20
625.61383056640625
 42
0.25269123911857605
  0
VERTEX
  8
0
 10
1500.800048828125
 20
617.25250244140625
 42
-0
  0
VERTEX
  8
0
 10
1500.800048828125
 20
582.19586181640625
 42
0.38779458403587341
  0
SEQEND
  0
POLYLINE
  8
0
 10
0
 20
0
 39
0
 70
1
 66
1
  0
VERTEX
  8
0
 10
1822.109130859375
 20
157.29127502441406
 42
-0.38779455423355103
  0
VERTEX
  8
0
 10
1731.199951171875
 20
256.87722778320312
 42
-0
  0
VERTEX
  8
0
 10
1731.199951171875
 20
534.355712890625
 42
0.77775365114212036
  0
VERTEX
  8
0
 10
1712.412109375
 20
539.127197265625
 42
-0
  0
VERTEX
  8
0
 10
1712.412109375
 20
539.129150390625
 42
0.1250152587890625
  0
VERTEX
  8
0
 10
1671.199951171875
 20
376.87722778320312
 42
0
  0
VERTEX
  8
0
 10
1671.199951171875
 20
20.400655746459961
 42
0.59656262397766113
  0
VERTEX
  8
0
 10
1686.6865234375
 20
12.039327621459961
 42
-0
  0
VERTEX
  8
0
 10
1826.6865234375
 20
103.91432952880859
 42
0.25269123911857605
  0
VERTEX
  8
0
 10
1831.199951171875
 20
112.27565765380859
 42
-0
  0
VERTEX
  8
0
 10
1831.199951171875
 20
147.33229064941406
 42
0.38779458403587341
  0
SEQEND
  0
POLYLINE
  8
0
 10
0
 20
0
 39
0
 70
1
 66
1
  0
VERTEX
  8
0
 10
1680.290771484375
 20
572.23687744140625
 42
-0.38779455423355103
  0
VERTEX
  8
0
 10
1771.199951171875
 20
472.65093994140625
 42
-0
  0
VERTEX
  8
0
 10
1771.199951171875
 20
195.17242431640625
 42
0.77775365114212036
  0
VERTEX
  8
0
 10
1789.98779296875
 20
190.40093994140625
 42
-0
  0
VERTEX
  8
0
 10
1789.98779296875
 20
190.39898681640625
 42
0.1250152587890625
  0
VERTEX
  8
0
 10
1831.199951171875
 20
352.65093994140625
 42
0
  0
VERTEX
  8
0
 10
1831.199951171875
 20
709.12750244140625
 42
0.59656262397766113
  0
VERTEX
  8
0
 10
1815.71337890625
 20
717.48883056640625
 42
-0
  0
VERTEX
  8
0
 10
1675.71337890625
 20
625.61383056640625
 42
0.25269123911857605
  0
VERTEX
  8
0
 10
1671.199951171875
 20
617.25250244140625
 42
-0
  0
VERTEX
  8
0
 10
1671.199951171875
 20
582.19586181640625
 42
0.38779458403587341
  0
SEQEND
  0
POLYLINE
  8
0
 10
0
 20
0
 39
0
 70
1
 66
1
  0
VERTEX
  8
0
 10
1992.5091552734375
 20
157.29127502441406
 42
-0.38779455423355103
  0
VERTEX
  8
0
 10
1901.5999755859375
 20
256.87722778320312
 42
-0
  0
VERTEX
  8
0
 10
1901.5999755859375
 20
534.355712890625
 42
0.77775365114212036
  0
VERTEX
  8
0
 10
1882.8121337890625
 20
539.127197265625
 42
-0
  0
VERTEX
  8
0
 10
1882.8121337890625
 20
539.129150390625
 42
0.1250152587890625
  0
VERTEX
  8
0
 10
1841.5999755859375
 20
376.87722778320312
 42
0
  0
VERTEX
  8
0
 10
1841.5999755859375
 20
20.400655746459961
 42
0.59656262397766113
  0
VERTEX
  8
0
 10
1857.0865478515625
 20
12.039327621459961
 42
-0
  0
VERTEX
  8
0
 10
1997.0865478515625
 20
103.91432952880859
 42
0.25269123911857605
  0
VERTEX
  8
0
 10
2001.5999755859375
 20
112.27565765380859
 42
-0
  0
VERTEX
  8
0
 10
2001.5999755859375
 20
147.33229064941406
 42
0.38779458403587341
  0
SEQEND
  0
POLYLINE
  8
0
 10
0
 20
0
 39
0
 70
1
 66
1
  0
VERTEX
  8
0
 10
1850.6907958984375
 20
572.23687744140625
 42
-0.38779455423355103
  0
VERTEX
  8
0
 10
1941.5999755859375
 20
472.65093994140625
 42
-0
  0
VERTEX
  8
0
 10
1941.5999755859375
 20
195.17242431640625
 42
0.77775365114212036
  0
VERTEX
  8
0
 10
1960.3878173828125
 20
190.40093994140625
 42
-0
  0
VERTEX
  8
0
 10
1960.3878173828125
 20
190.39898681640625
 42
0.1250152587890625
  0
VERTEX
  8
0
 10
2001.5999755859375
 20
352.65093994140625
 42
0
  0
VERTEX
  8
0
 10
2001.5999755859375
 20
709.12750244140625
 42
0.59656262397766113
  0
VERTEX
  8
0
 10
1986.1134033203125
 20
717.48883056640625
 42
-0
  0
VERTEX
  8
0
 10
1846.1134033203125
 20
625.61383056640625
 42
0.25269123911857605
  0
VERTEX
  8
0
 10
1841.5999755859375
 20
617.25250244140625
 42
-0
  0
VERTEX
  8
0
 10
1841.5999755859375
 20
582.19586181640625
 42
0.38779458403587341
  0
SEQEND
  0
POLYLINE
  8
0
 10
0
 20
0
 39
0
 70
1
 66
1
  0
VERTEX
  8
0
 10
1858.9368896484375
 20
980.3092041015625
 42
-0.38779455423355103
  0
VERTEX
  8
0
 10
1759.3509521484375
 20
889.4000244140625
 42
-0
  0
VERTEX
  8
0
 10
1481.8724365234375
 20
889.4000244140625
 42
0.77775365114212036
  0
VERTEX
  8
0
 10
1477.1009521484375
 20
870.6121826171875
 42
-0
  0
VERTEX
  8
0
 10
1477.0989990234375
 20
870.6121826171875
 42
0.1250152587890625
  0
VERTEX
  8
0
 10
1639.3509521484375
 20
829.4000244140625
 42
0
  0
VERTEX
  8
0
 10
1995.8275146484375
 20
829.4000244140625
 42
0.59656262397766113
  0
VERTEX
  8
0
 10
2004.1888427734375
 20
844.8865966796875
 42
-0
  0
VERTEX
  8
0
 10
1912.3138427734375
 20
984.8865966796875
 42
0.25269123911857605
  0
VERTEX
  8
0
 10
1903.9525146484375
 20
989.4000244140625
 42
-0
  0
VERTEX
  8
0
 10
1868.8958740234375
 20
989.4000244140625
 42
0.38779458403587341
  0
SEQEND
  0
POLYLINE
  8
0
 10
0
 20
0
 39
0
 70
1
 66
1
  0
VERTEX
  8
0
 10
1443.9913330078125
 20
838.4908447265625
 42
-0.38779455423355103
  0
VERTEX
  8
0
 10
1543.5772705078125
 20
929.4000244140625
 42
-0
  0
VERTEX
  8
0
 10
1821.0557861328125
 20
929.4000244140625
 42
0.77775365114212036
  0
VERTEX
  8
0
 10
1825.8272705078125
 20
948.1878662109375
 42
-0
  0
VERTEX
  8
0
 10
1825.8292236328125
 20
948.1878662109375
 42
0.1250152587890625
  0
VERTEX
  8
0
 10
1663.5772705078125
 20
989.4000244140625
 42
0
  0
VERTEX
  8
0
 10
1307.1007080078125
 20
989.4000244140625
 42
0.59656262397766113
  0
VERTEX
  8
0
 10
1298.7393798828125
 20
973.9134521484375
 42
-0
  0
VERTEX
  8
0
 10
1390.6143798828125
 20
833.9134521484375
 42
0.25269123911857605
  0
VERTEX
  8
0
 10
1398.9757080078125
 20
829.4000244140625
 42
-0
  0
VERTEX
  8
0
 10
1434.0323486328125
 20
829.4000244140625
 42
0.38779458403587341
  0
SEQEND
  0
POLYLINE
  8
0
 10
0
 20
0
 39
0
 70
1
 66
1
  0
VERTEX
  8
0
 10
2162.9091796875
 20
157.29127502441406
 42
-0.38779455423355103
  0
VERTEX
  8
0
 10
2072
 20
256.87722778320312
 42
-0
  0
VERTEX
  8
0
 10
2072
 20
534.355712890625
 42
0.77775365114212036
  0
VERTEX
  8
0
 10
2053.212158203125
 20
539.127197265625
 42
-0
  0
VERTEX
  8
0
 10
2053.212158203125
 20
539.129150390625
 42
0.1250152587890625
  0
VERTEX
  8
0
 10
2012
 20
376.87722778320312
 42
0
  0
VERTEX
  8
0
 10
2012
 20
20.400655746459961
 42
0.59656262397766113
  0
VERTEX
  8
0
 10
2027.486572265625
 20
12.039327621459961
 42
-0
  0
VERTEX
  8
0
 10
2167.486572265625
 20
103.91432952880859
 42
0.25269123911857605
  0
VERTEX
  8
0
 10
2172
 20
112.27565765380859
 42
-0
  0
VERTEX
  8
0
 10
2172
 20
147.33229064941406
 42
0.38779458403587341
  0
SEQEND
  0
POLYLINE
  8
0
 10
0
 20
0
 39
0
 70
1
 66
1
  0
VERTEX
  8
0
 10
2021.0908203125
 20
572.23687744140625
 42
-0.38779455423355103
  0
VERTEX
  8
0
 10
2112
 20
472.65093994140625
 42
-0
  0
VERTEX
  8
0
 10
2112
 20
195.17242431640625
 42
0.77775365114212036
  0
VERTEX
  8
0
 10
2130.787841796875
 20
190.40093994140625
 42
-0
  0
VERTEX
  8
0
 10
2130.787841796875
 20
190.39898681640625
 42
0.1250152587890625
  0
VERTEX
  8
0
 10
2172
 20
352.65093994140625
 42
0
  0
VERTEX
  8
0
 10
2172
 20
709.12750244140625
 42
0.59656262397766113
  0
VERTEX
  8
0
 10
2156.513427734375
 20
717.48883056640625
 42
-0
  0
VERTEX
  8
0
 10
2016.513427734375
 20
625.61383056640625
 42
0.25269123911857605
  0
VERTEX
  8
0
 10
2012
 20
617.25250244140625
 42
-0
  0
VERTEX
  8
0
 10
2012
 20
582.19586181640625
 42
0.38779458403587341
  0
SEQEND
  0
POLYLINE
  8
0
 10
0
 20
0
 39
0
 70
1
 66
1
  0
VERTEX
  8
0
 10
2333.30908203125
 20
157.29127502441406
 42
-0.38779455423355103
  0
VERTEX
  8
0
 10
2242.39990234375
 20
256.87722778320312
 42
-0
  0
VERTEX
  8
0
 10
2242.39990234375
 20
534.355712890625
 42
0.77775365114212036
  0
VERTEX
  8
0
 10
2223.612060546875
 20
539.127197265625
 42
-0
  0
VERTEX
  8
0
 10
2223.612060546875
 20
539.129150390625
 42
0.1250152587890625
  0
VERTEX
  8
0
 10
2182.39990234375
 20
376.87722778320312
 42
0
  0
VERTEX
  8
0
 10
2182.39990234375
 20
20.400655746459961
 42
0.59656262397766113
  0
VERTEX
  8
0
 10
2197.886474609375
 20
12.039327621459961
 42
-0
  0
VERTEX
  8
0
 10
2337.886474609375
 20
103.91432952880859
 42
0.25269123911857605
  0
VERTEX
  8
0
 10
2342.39990234375
 20
112.27565765380859
 42
-0
  0
VERTEX
  8
0
 10
2342.39990234375
 20
147.33229064941406
 42
0.38779458403587341
  0
SEQEND
  0
POLYLINE
  8
0
 10
0
 20
0
 39
0
 70
1
 66
1
  0
VERTEX
  8
0
 10
2191.49072265625
 20
572.23687744140625
 42
-0.38779455423355103
  0
VERTEX
  8
0
 10
2282.39990234375
 20
472.65093994140625
 42
-0
  0
VERTEX
  8
0
 10
2282.39990234375
 20
195.17242431640625
 42
0.77775365114212036
  0
VERTEX
  8
0
 10
2301.187744140625
 20
190.40093994140625
 42
-0
  0
VERTEX
  8
0
 10
2301.187744140625
 20
190.39898681640625
 42
0.1250152587890625
  0
VERTEX
  8
0
 10
2342.39990234375
 20
352.65093994140625
 42
0
  0
VERTEX
  8
0
 10
2342.39990234375
 20
709.12750244140625
 42
0.59656262397766113
  0
VERTEX
  8
0
 10
2326.913330078125
 20
717.48883056640625
 42
-0
  0
VERTEX
  8
0
 10
2186.913330078125
 20
625.61383056640625
 42
0.25269123911857605
  0
VERTEX
  8
0
 10
2182.39990234375
 20
617.25250244140625
 42
-0
  0
VERTEX
  8
0
 10
2182.39990234375
 20
582.19586181640625
 42
0.38779458403587341
  0
SEQEND
  0
POLYLINE
  8
0
 10
0
 20
0
 39
0
 70
1
 66
1
  0
VERTEX
  8
0
 10
2503.709228515625
 20
157.29127502441406
 42
-0.38779455423355103
  0
VERTEX
  8
0
 10
2412.800048828125
 20
256.87722778320312
 42
-0
  0
VERTEX
  8
0
 10
2412.800048828125
 20
534.355712890625
 42
0.77775365114212036
  0
VERTEX
  8
0
 10
2394.01220703125
 20
539.127197265625
 42
-0
  0
VERTEX
  8
0
 10
2394.01220703125
 20
539.129150390625
 42
0.1250152587890625
  0
VERTEX
  8
0
 10
2352.800048828125
 20
376.87722778320312
 42
0
  0
VERTEX
  8
0
 10
2352.800048828125
 20
20.400655746459961
 42
0.59656262397766113
  0
VERTEX
  8
0
 10
2368.28662109375
 20
12.039327621459961
 42
-0
  0
VERTEX
  8
0
 10
2508.28662109375
 20
103.91432952880859
 42
0.25269123911857605
  0
VERTEX
  8
0
 10
2512.800048828125
 20
112.27565765380859
 42
-0
  0
VERTEX
  8
0
 10
2512.800048828125
 20
147.33229064941406
 42
0.38779458403587341
  0
SEQEND
  0
POLYLINE
  8
0
 10
0
 20
0
 39
0
 70
1
 66
1
  0
VERTEX
  8
0
 10
2361.890869140625
 20
572.23687744140625
 42
-0.38779455423355103
  0
VERTEX
  8
0
 10
2452.800048828125
 20
472.65093994140625
 42
-0
  0
VERTEX
  8
0
 10
2452.800048828125
 20
195.17242431640625
 42
0.77775365114212036
  0
VERTEX
  8
0
 10
2471.587890625
 20
190.40093994140625
 42
-0
  0
VERTEX
  8
0
 10
2471.587890625
 20
190.39898681640625
 42
0.1250152587890625
  0
VERTEX
  8
0
 10
2512.800048828125
 20
352.65093994140625
 42
0
  0
VERTEX
  8
0
 10
2512.800048828125
 20
709.12750244140625
 42
0.59656262397766113
  0
VERTEX
  8
0
 10
2497.3134765625
 20
717.48883056640625
 42
-0
  0
VERTEX
  8
0
 10
2357.3134765625
 20
625.61383056640625
 42
0.25269123911857605
  0
VERTEX
  8
0
 10
2352.800048828125
 20
617.25250244140625
 42
-0
  0
VERTEX
  8
0
 10
2352.800048828125
 20
582.19586181640625
 42
0.38779458403587341
  0
SEQEND
  0
POLYLINE
  8
0
 10
0
 20
0
 39
0
 70
1
 66
1
  0
VERTEX
  8
0
 10
1122
 20
628.20001220703125
 42
-0
  0
VERTEX
  8
0
 10
1022
 20
628.20001220703125
 42
-0
  0
VERTEX
  8
0
 10
1022
 20
255.19999694824219
 42
-0
  0
VERTEX
  8
0
 10
1122
 20
78.199996948242188
 42
0
  0
SEQEND
  0
POLYLINE
  8
0
 10
0
 20
0
 39
0
 70
1
 66
1
  0
VERTEX
  8
0
 10
1054.01953125
 20
595.82098388671875
 42
0
  0
VERTEX
  8
0
 10
1086.01953125
 20
595.82098388671875
 42
0
  0
VERTEX
  8
0
 10
1086.01953125
 20
386.82098388671875
 42
0
  0
VERTEX
  8
0
 10
1054.01953125
 20
386.82098388671875
 42
0
  0
SEQEND
  0
POLYLINE
  8
0
 10
0
 20
0
 39
0
 70
1
 66
1
  0
VERTEX
  8
0
 10
1072
 20
345.35617065429687
 42
-1
  0
VERTEX
  8
0
 10
1072
 20
285.35617065429687
 42
-1
  0
SEQEND
  0
POLYLINE
  8
0
 10
0
 20
0
 39
0
 70
1
 66
1
  0
VERTEX
  8
0
 10
1132.4000244140625
 20
83
 42
-0
  0
VERTEX
  8
0
 10
1232.4000244140625
 20
83
 42
-0
  0
VERTEX
  8
0
 10
1232.4000244140625
 20
456
 42
-0
  0
VERTEX
  8
0
 10
1132.4000244140625
 20
633
 42
0
  0
SEQEND
  0
POLYLINE
  8
0
 10
0
 20
0
 39
0
 70
1
 66
1
  0
VERTEX
  8
0
 10
1200.3804931640625
 20
115.37901306152344
 42
0
  0
VERTEX
  8
0
 10
1168.3804931640625
 20
115.37901306152344
 42
0
  0
VERTEX
  8
0
 10
1168.3804931640625
 20
324.3790283203125
 42
0
  0
VERTEX
  8
0
 10
1200.3804931640625
 20
324.3790283203125
 42
0
  0
SEQEND
  0
POLYLINE
  8
0
 10
0
 20
0
 39
0
 70
1
 66
1
  0
VERTEX
  8
0
 10
1182.4000244140625
 20
365.84384155273437
 42
-1
  0
VERTEX
  8
0
 10
1182.4000244140625
 20
425.84384155273437
 42
-1
  0
SEQEND
  0
POLYLINE
  8
0
 10
0
 20
0
 39
0
 70
1
 66
1
  0
VERTEX
  8
0
 10
2393.10009765625
 20
729.20001220703125
 42
-0
  0
VERTEX
  8
0
 10
2393.10009765625
 20
829.20001220703125
 42
-0
  0
VERTEX
  8
0
 10
2020.0999755859375
 20
829.20001220703125
 42
-0
  0
VERTEX
  8
0
 10
1843.0999755859375
 20
729.20001220703125
 42
0
  0
SEQEND
  0
POLYLINE
  8
0
 10
0
 20
0
 39
0
 70
1
 66
1
  0
VERTEX
  8
0
 10
2360.720947265625
 20
797.1805419921875
 42
0
  0
VERTEX
  8
0
 10
2360.720947265625
 20
765.1805419921875
 42
0
  0
VERTEX
  8
0
 10
2151.720947265625
 20
765.1805419921875
 42
0
  0
VERTEX
  8
0
 10
2151.720947265625
 20
797.1805419921875
 42
0
  0
SEQEND
  0
POLYLINE
  8
0
 10
0
 20
0
 39
0
 70
1
 66
1
  0
VERTEX
  8
0
 10
2110.256103515625
 20
779.20001220703125
 42
-1
  0
VERTEX
  8
0
 10
2050.256103515625
 20
779.20001220703125
 42
-1
  0
SEQEND
  0
POLYLINE
  8
0
 10
0
 20
0
 39
0
 70
1
 66
1
  0
VERTEX
  8
0
 10
2538
 20
889.4000244140625
 42
-0
  0
VERTEX
  8
0
 10
2538
 20
989.4000244140625
 42
-0
  0
VERTEX
  8
0
 10
2165
 20
989.4000244140625
 42
-0
  0
VERTEX
  8
0
 10
1988
 20
889.4000244140625
 42
0
  0
SEQEND
  0
POLYLINE
  8
0
 10
0
 20
0
 39
0
 70
1
 66
1
  0
VERTEX
  8
0
 10
2505.62109375
 20
957.38055419921875
 42
0
  0
VERTEX
  8
0
 10
2505.62109375
 20
925.38055419921875
 42
0
  0
VERTEX
  8
0
 10
2296.62109375
 20
925.38055419921875
 42
0
  0
VERTEX
  8
0
 10
2296.62109375
 20
957.38055419921875
 42
0
  0
SEQEND
  0
POLYLINE
  8
0
 10
0
 20
0
 39
0
 70
1
 66
1
  0
VERTEX
  8
0
 10
2255.15625
 20
939.4000244140625
 42
-1
  0
VERTEX
  8
0
 10
2195.15625
 20
939.4000244140625
 42
-1
  0
SEQEND
  0
POLYLINE
  8
0
 10
0
 20
0
 39
0
 70
1
 66
1
  0
VERTEX
  8
0
 10
2523.199951171875
 20
10.399999618530273
 42
-0
  0
VERTEX
  8
0
 10
2623.199951171875
 20
10.399999618530273
 42
-0
  0
VERTEX
  8
0
 10
2623.199951171875
 20
383.39999389648437
 42
-0
  0
VERTEX
  8
0
 10
2523.199951171875
 20
560.4000244140625
 42
0
  0
SEQEND
  0
POLYLINE
  8
0
 10
0
 20
0
 39
0
 70
1
 66
1
  0
VERTEX
  8
0
 10
2591.180419921875
 20
42.779018402099609
 42
0
  0
VERTEX
  8
0
 10
2559.180419921875
 20
42.779018402099609
 42
0
  0
VERTEX
  8
0
 10
2559.180419921875
 20
251.77900695800781
 42
0
  0
VERTEX
  8
0
 10
2591.180419921875
 20
251.77900695800781
 42
0
  0
SEQEND
  0
POLYLINE
  8
0
 10
0
 20
0
 39
0
 70
1
 66
1
  0
VERTEX
  8
0
 10
2573.199951171875
 20
293.24383544921875
 42
-1
  0
VERTEX
  8
0
 10
2573.199951171875
 20
353.24383544921875
 42
-1
  0
SEQEND
  0
POLYLINE
  8
0
 10
0
 20
0
 39
0
 70
1
 66
1
  0
VERTEX
  8
0
 10
2648.39990234375
 20
911.0999755859375
 42
-0
  0
VERTEX
  8
0
 10
2548.39990234375
 20
911.0999755859375
 42
-0
  0
VERTEX
  8
0
 10
2548.39990234375
 20
538.0999755859375
 42
-0
  0
VERTEX
  8
0
 10
2648.39990234375
 20
361.10000610351562
 42
0
  0
SEQEND
  0
POLYLINE
  8
0
 10
0
 20
0
 39
0
 70
1
 66
1
  0
VERTEX
  8
0
 10
2580.41943359375
 20
878.72100830078125
 42
0
  0
VERTEX
  8
0
 10
2612.41943359375
 20
878.72100830078125
 42
0
  0
VERTEX
  8
0
 10
2612.41943359375
 20
669.72100830078125
 42
0
  0
VERTEX
  8
0
 10
2580.41943359375
 20
669.72100830078125
 42
0
  0
SEQEND
  0
POLYLINE
  8
0
 10
0
 20
0
 39
0
 70
1
 66
1
  0
VERTEX
  8
0
 10
2598.39990234375
 20
628.25616455078125
 42
-1
  0
VERTEX
  8
0
 10
2598.39990234375
 20
568.25616455078125
 42
-1
  0
SEQEND
  0
POLYLINE
  8
0
 10
0
 20
0
 39
0
 70
1
 66
1
  0
VERTEX
  8
0
 10
2658.800048828125
 20
10.399999618530273
 42
-0
  0
VERTEX
  8
0
 10
2758.800048828125
 20
10.399999618530273
 42
-0
  0
VERTEX
  8
0
 10
2758.800048828125
 20
383.39999389648437
 42
-0
  0
VERTEX
  8
0
 10
2658.800048828125
 20
560.4000244140625
 42
0
  0
SEQEND
  0
POLYLINE
  8
0
 10
0
 20
0
 39
0
 70
1
 66
1
  0
VERTEX
  8
0
 10
2726.780517578125
 20
42.779018402099609
 42
0
  0
VERTEX
  8
0
 10
2694.780517578125
 20
42.779018402099609
 42
0
  0
VERTEX
  8
0
 10
2694.780517578125
 20
251.77900695800781
 42
0
  0
VERTEX
  8
0
 10
2726.780517578125
 20
251.77900695800781
 42
0
  0
SEQEND
  0
POLYLINE
  8
0
 10
0
 20
0
 39
0
 70
1
 66
1
  0
VERTEX
  8
0
 10
2708.800048828125
 20
293.24383544921875
 42
-1
  0
VERTEX
  8
0
 10
2708.800048828125
 20
353.24383544921875
 42
-1
  0
SEQEND
  0
POLYLINE
  8
0
 10
0
 20
0
 39
0
 70
1
 66
1
  0
VERTEX
  8
0
 10
2758.800048828125
 20
955.5
 42
-0
  0
VERTEX
  8
0
 10
2658.800048828125
 20
955.5
 42
-0
  0
VERTEX
  8
0
 10
2658.800048828125
 20
582.5
 42
-0
  0
VERTEX
  8
0
 10
2758.800048828125
 20
405.5
 42
0
  0
SEQEND
  0
POLYLINE
  8
0
 10
0
 20
0
 39
0
 70
1
 66
1
  0
VERTEX
  8
0
 10
2690.819580078125
 20
923.1209716796875
 42
0
  0
VERTEX
  8
0
 10
2722.819580078125
 20
923.1209716796875
 42
0
  0
VERTEX
  8
0
 10
2722.819580078125
 20
714.1209716796875
 42
0
  0
VERTEX
  8
0
 10
2690.819580078125
 20
714.1209716796875
 42
0
  0
SEQEND
  0
POLYLINE
  8
0
 10
0
 20
0
 39
0
 70
1
 66
1
  0
VERTEX
  8
0
 10
2708.800048828125
 20
672.6561279296875
 42
-1
  0
VERTEX
  8
0
 10
2708.800048828125
 20
612.6561279296875
 42
-1
  0
SEQEND
  0
POLYLINE
  8
0
 10
0
 20
0
 39
0
 70
1
 66
1
  0
VERTEX
  8
0
 10
2829.199951171875
 20
800.4000244140625
 42
-0
  0
VERTEX
  8
0
 10
2804.199951171875
 20
860.4000244140625
 42
0
  0
VERTEX
  8
0
 10
2769.199951171875
 20
860.4000244140625
 42
0
  0
VERTEX
  8
0
 10
2769.199951171875
 20
10.399999618530273
 42
0
  0
VERTEX
  8
0
 10
2829.199951171875
 20
10.399999618530273
 42
0
  0
SEQEND
  0
POLYLINE
  8
0
 10
0
 20
0
 39
0
 70
1
 66
1
  0
VERTEX
  8
0
 10
2799.199951171875
 20
49.900001525878906
 42
-1
  0
VERTEX
  8
0
 10
2799.199951171875
 20
66.900001525878906
 42
-1
  0
SEQEND
  0
POLYLINE
  8
0
 10
0
 20
0
 39
0
 70
1
 66
1
  0
VERTEX
  8
0
 10
2799.199951171875
 20
649.9000244140625
 42
-1
  0
VERTEX
  8
0
 10
2799.199951171875
 20
666.9000244140625
 42
-1
  0
SEQEND
  0
POLYLINE
  8
0
 10
0
 20
0
 39
0
 70
1
 66
1
  0
VERTEX
  8
0
 10
2899.699951171875
 20
800.4000244140625
 42
-0
  0
VERTEX
  8
0
 10
2874.699951171875
 20
860.4000244140625
 42
0
  0
VERTEX
  8
0
 10
2839.699951171875
 20
860.4000244140625
 42
0
  0
VERTEX
  8
0
 10
2839.699951171875
 20
10.399999618530273
 42
0
  0
VERTEX
  8
0
 10
2899.699951171875
 20
10.399999618530273
 42
0
  0
SEQEND
  0
POLYLINE
  8
0
 10
0
 20
0
 39
0
 70
1
 66
1
  0
VERTEX
  8
0
 10
2869.699951171875
 20
49.900001525878906
 42
-1
  0
VERTEX
  8
0
 10
2869.699951171875
 20
66.900001525878906
 42
-1
  0
SEQEND
  0
POLYLINE
  8
0
 10
0
 20
0
 39
0
 70
1
 66
1
  0
VERTEX
  8
0
 10
2869.699951171875
 20
649.9000244140625
 42
-1
  0
VERTEX
  8
0
 10
2869.699951171875
 20
666.9000244140625
 42
-1
  0
SEQEND
  0
POLYLINE
  8
0
 10
0
 20
0
 39
0
 70
1
 66
1
  0
VERTEX
  8
0
 10
2970.199951171875
 20
800.4000244140625
 42
-0
  0
VERTEX
  8
0
 10
2945.199951171875
 20
860.4000244140625
 42
0
  0
VERTEX
  8
0
 10
2910.199951171875
 20
860.4000244140625
 42
0
  0
VERTEX
  8
0
 10
2910.199951171875
 20
10.399999618530273
 42
0
  0
VERTEX
  8
0
 10
2970.199951171875
 20
10.399999618530273
 42
0
  0
SEQEND
  0
POLYLINE
  8
0
 10
0
 20
0
 39
0
 70
1
 66
1
  0
VERTEX
  8
0
 10
2940.199951171875
 20
49.900001525878906
 42
-1
  0
VERTEX
  8
0
 10
2940.199951171875
 20
66.900001525878906
 42
-1
  0
SEQEND
  0
POLYLINE
  8
0
 10
0
 20
0
 39
0
 70
1
 66
1
  0
VERTEX
  8
0
 10
2940.199951171875
 20
649.9000244140625
 42
-1
  0
VERTEX
  8
0
 10
2940.199951171875
 20
666.9000244140625
 42
-1
  0
SEQEND
  0
POLYLINE
  8
0
 10
0
 20
0
 39
0
 70
1
 66
1
  0
VERTEX
  8
0
 10
991.66705322265625
 20
270.20001220703125
 42
-0.1576707661151886
  0
VERTEX
  8
0
 10
991.66705322265625
 20
470.20001220703125
 42
0
  0
VERTEX
  8
0
 10
887.83221435546875
 20
470.20001220703125
 42
0.11932211369276047
  0
VERTEX
  8
0
 10
887.83221435546875
 20
270.20001220703125
 42
-0
  0
SEQEND
  0
POLYLINE
  8
0
 10
0
 20
0
 39
0
 70
1
 66
1
  0
VERTEX
  8
0
 10
898.89996337890625
 20
359.20001220703125
 42
-1
  0
VERTEX
  8
0
 10
898.89996337890625
 20
381.20001220703125
 42
-0
  0
VERTEX
  8
0
 10
908.89996337890625
 20
381.20001220703125
 42
-1
  0
VERTEX
  8
0
 10
908.89996337890625
 20
359.20001220703125
 42
0
  0
SEQEND
  0
POLYLINE
  8
0
 10
0
 20
0
 39
0
 70
1
 66
1
  0
VERTEX
  8
0
 10
1357.3670654296875
 20
393.5
 42
-0.1576707661151886
  0
VERTEX
  8
0
 10
1357.3670654296875
 20
593.5
 42
0
  0
VERTEX
  8
0
 10
1253.5322265625
 20
593.5
 42
0.11932211369276047
  0
VERTEX
  8
0
 10
1253.5322265625
 20
393.5
 42
-0
  0
SEQEND
  0
POLYLINE
  8
0
 10
0
 20
0
 39
0
 70
1
 66
1
  0
VERTEX
  8
0
 10
1264.5999755859375
 20
482.5
 42
-1
  0
VERTEX
  8
0
 10
1264.5999755859375
 20
504.5
 42
-0
  0
VERTEX
  8
0
 10
1274.5999755859375
 20
504.5
 42
-1
  0
VERTEX
  8
0
 10
1274.5999755859375
 20
482.5
 42
0
  0
SEQEND
  0
POLYLINE
  8
0
 10
0
 20
0
 39
0
 70
1
 66
1
  0
VERTEX
  8
0
 10
1242.800048828125
 20
337.60000610351562
 42
-0.1576707661151886
  0
VERTEX
  8
0
 10
1242.800048828125
 20
137.60002136230469
 42
0
  0
VERTEX
  8
0
 10
1346.6348876953125
 20
137.60000610351562
 42
0.11932211369276047
  0
VERTEX
  8
0
 10
1346.6348876953125
 20
337.60000610351562
 42
-0
  0
SEQEND
  0
POLYLINE
  8
0
 10
0
 20
0
 39
0
 70
1
 66
1
  0
VERTEX
  8
0
 10
1335.567138671875
 20
248.60002136230469
 42
-1
  0
VERTEX
  8
0
 10
1335.567138671875
 20
226.60002136230469
 42
-0
  0
VERTEX
  8
0
 10
1325.567138671875
 20
226.60002136230469
 42
-1
  0
VERTEX
  8
0
 10
1325.567138671875
 20
248.60002136230469
 42
0
  0
SEQEND
  0
POLYLINE
  8
0
 10
0
 20
0
 39
0
 70
1
 66
1
  0
VERTEX
  8
0
 10
1514.800048828125
 20
821.26708984375
 42
-0.1576707661151886
  0
VERTEX
  8
0
 10
1314.800048828125
 20
821.26708984375
 42
0
  0
VERTEX
  8
0
 10
1314.800048828125
 20
717.43218994140625
 42
0.11932211369276047
  0
VERTEX
  8
0
 10
1514.800048828125
 20
717.43218994140625
 42
-0
  0
SEQEND
  0
POLYLINE
  8
0
 10
0
 20
0
 39
0
 70
1
 66
1
  0
VERTEX
  8
0
 10
1425.800048828125
 20
728.5
 42
-1
  0
VERTEX
  8
0
 10
1403.800048828125
 20
728.5
 42
-0
  0
VERTEX
  8
0
 10
1403.800048828125
 20
738.5
 42
-1
  0
VERTEX
  8
0
 10
1425.800048828125
 20
738.5
 42
0
  0
SEQEND
  0
POLYLINE
  8
0
 10
0
 20
0
 39
0
 70
1
 66
1
  0
VERTEX
  8
0
 10
2769.199951171875
 20
870.5
 42
-0.1576707661151886
  0
VERTEX
  8
0
 10
2969.199951171875
 20
870.5
 42
0
  0
VERTEX
  8
0
 10
2969.199951171875
 20
974.3348388671875
 42
0.11932211369276047
  0
VERTEX
  8
0
 10
2769.199951171875
 20
974.3348388671875
 42
-0
  0
SEQEND
  0
POLYLINE
  8
0
 10
0
 20
0
 39
0
 70
1
 66
1
  0
VERTEX
  8
0
 10
2858.199951171875
 20
963.26708984375
 42
-1
  0
VERTEX
  8
0
 10
2880.199951171875
 20
963.26708984375
 42
-0
  0
VERTEX
  8
0
 10
2880.199951171875
 20
953.26708984375
 42
-1
  0
VERTEX
  8
0
 10
2858.199951171875
 20
953.26708984375
 42
0
  0
SEQEND
  0
POLYLINE
  8
0
 10
0
 20
0
 39
0
 70
1
 66
1
  0
VERTEX
  8
0
 10
1714.36181640625
 20
819.19940185546875
 42
1
  0
VERTEX
  8
0
 10
1713.8382568359375
 20
699.2005615234375
 42
1
  0
SEQEND
  0
POLYLINE
  8
0
 10
0
 20
0
 39
0
 70
1
 66
1
  0
VERTEX
  8
0
 10
1714.23095703125
 20
789.19970703125
 42
-1
  0
VERTEX
  8
0
 10
1713.9691162109375
 20
729.20025634765625
 42
-1
  0
SEQEND
  0
POLYLINE
  8
0
 10
0
 20
0
 39
0
 70
1
 66
1
  0
VERTEX
  8
0
 10
2463.76171875
 20
839.8994140625
 42
1
  0
VERTEX
  8
0
 10
2463.23828125
 20
719.90057373046875
 42
1
  0
SEQEND
  0
POLYLINE
  8
0
 10
0
 20
0
 39
0
 70
1
 66
1
  0
VERTEX
  8
0
 10
2463.630859375
 20
809.89971923828125
 42
-1
  0
VERTEX
  8
0
 10
2463.369140625
 20
749.9002685546875
 42
-1
  0
SEQEND
  0
ENDSEC
  0
EOF
