  0
SECTION
  2
ENTITIES
  0
POLYLINE
  8
0
 10
0
 20
0
 39
0
 70
1
 66
1
  0
VERTEX
  8
0
 10
0
 20
0
 42
-0
  0
VERTEX
  8
0
 10
6000
 20
0
 42
-0
  0
VERTEX
  8
0
 10
6000
 20
1500
 42
-0
  0
VERTEX
  8
0
 10
0
 20
1500
 42
-0
  0
SEQEND
  0
POLYLINE
  8
0
 10
0
 20
0
 39
0
 70
1
 66
1
  0
VERTEX
  8
0
 10
5136.0908203125
 20
160.05000305175781
 42
-0
  0
VERTEX
  8
0
 10
5136.0908203125
 20
16.050003051757813
 42
-0
  0
VERTEX
  8
0
 10
5749.0908203125
 20
16.050125122070312
 42
-0
  0
VERTEX
  8
0
 10
5749.0908203125
 20
160.05012512207031
 42
-0
  0
SEQEND
  0
POLYLINE
  8
0
 10
0
 20
0
 39
0
 70
1
 66
1
  0
VERTEX
  8
0
 10
16.049999237060547
 20
1274.2462158203125
 42
-0
  0
VERTEX
  8
0
 10
914.04998779296875
 20
1274.2462158203125
 42
-0
  0
VERTEX
  8
0
 10
914.04998779296875
 20
1339.2462158203125
 42
-0
  0
VERTEX
  8
0
 10
16.049999237060547
 20
1339.2462158203125
 42
-0
  0
SEQEND
  0
POLYLINE
  8
0
 10
0
 20
0
 39
0
 70
1
 66
1
  0
VERTEX
  8
0
 10
946.050048828125
 20
280.1181640625
 42
1
  0
VERTEX
  8
0
 10
946.04998779296875
 20
480.1181640625
 42
0
  0
VERTEX
  8
0
 10
781.04998779296875
 20
480.11813354492187
 42
0
  0
VERTEX
  8
0
 10
781.04998779296875
 20
629.11810302734375
 42
0
  0
VERTEX
  8
0
 10
16.04998779296875
 20
629.11798095703125
 42
0
  0
VERTEX
  8
0
 10
16.050025939941406
 20
435.11798095703125
 42
0
  0
VERTEX
  8
0
 10
781.050048828125
 20
280.11813354492187
 42
0
  0
SEQEND
  0
POLYLINE
  8
0
 10
0
 20
0
 39
0
 70
1
 66
1
  0
VERTEX
  8
0
 10
946.050048828125
 20
410.1181640625
 42
-1
  0
VERTEX
  8
0
 10
946.050048828125
 20
350.1181640625
 42
-1
  0
SEQEND
  0
POLYLINE
  8
0
 10
0
 20
0
 39
0
 70
1
 66
1
  0
VERTEX
  8
0
 10
2873.110107421875
 20
459.02285766601562
 42
0
  0
VERTEX
  8
0
 10
2873.110107421875
 20
588.0228271484375
 42
0
  0
VERTEX
  8
0
 10
2108.110107421875
 20
588.022705078125
 42
0
  0
VERTEX
  8
0
 10
2108.110107421875
 20
414.022705078125
 42
0
  0
VERTEX
  8
0
 10
2873.110107421875
 20
259.02285766601562
 42
0
  0
VERTEX
  8
0
 10
3038.110107421875
 20
259.02288818359375
 42
1
  0
VERTEX
  8
0
 10
3038.110107421875
 20
459.02288818359375
 42
0
  0
SEQEND
  0
POLYLINE
  8
0
 10
0
 20
0
 39
0
 70
1
 66
1
  0
VERTEX
  8
0
 10
3038.110107421875
 20
389.02288818359375
 42
-1
  0
VERTEX
  8
0
 10
3038.110107421875
 20
329.02288818359375
 42
-1
  0
SEQEND
  0
POLYLINE
  8
0
 10
0
 20
0
 39
0
 70
1
 66
1
  0
VERTEX
  8
0
 10
116.04998779296875
 20
365.04986572265625
 42
1
  0
VERTEX
  8
0
 10
116.05010986328125
 20
165.04986572265625
 42
0
  0
VERTEX
  8
0
 10
281.05010986328125
 20
165.04997253417969
 42
0
  0
VERTEX
  8
0
 10
281.0501708984375
 20
16.049968719482422
 42
0
  0
VERTEX
  8
0
 10
1046.0501708984375
 20
16.0504150390625
 42
0
  0
VERTEX
  8
0
 10
1046.050048828125
 20
210.0504150390625
 42
0
  0
VERTEX
  8
0
 10
281.04998779296875
 20
365.04995727539062
 42
0
  0
SEQEND
  0
POLYLINE
  8
0
 10
0
 20
0
 39
0
 70
1
 66
1
  0
VERTEX
  8
0
 10
116.050048828125
 20
235.04986572265625
 42
-1
  0
VERTEX
  8
0
 10
116.04998779296875
 20
295.04986572265625
 42
-1
  0
SEQEND
  0
POLYLINE
  8
0
 10
0
 20
0
 39
0
 70
1
 66
1
  0
VERTEX
  8
0
 10
2367.704345703125
 20
145.05000305175781
 42
0
  0
VERTEX
  8
0
 10
2367.704345703125
 20
16.049999237060547
 42
0
  0
VERTEX
  8
0
 10
3132.704345703125
 20
16.050445556640625
 42
0
  0
VERTEX
  8
0
 10
3132.704345703125
 20
190.05044555664062
 42
0
  0
VERTEX
  8
0
 10
2367.7041015625
 20
345.04998779296875
 42
0
  0
VERTEX
  8
0
 10
2202.7041015625
 20
345.04989624023437
 42
1
  0
VERTEX
  8
0
 10
2202.704345703125
 20
145.04989624023437
 42
0
  0
SEQEND
  0
POLYLINE
  8
0
 10
0
 20
0
 39
0
 70
1
 66
1
  0
VERTEX
  8
0
 10
2202.7041015625
 20
215.04989624023437
 42
-1
  0
VERTEX
  8
0
 10
2202.7041015625
 20
275.04989624023437
 42
-1
  0
SEQEND
  0
POLYLINE
  8
0
 10
0
 20
0
 39
0
 70
1
 66
1
  0
VERTEX
  8
0
 10
116.04998779296875
 20
994.12799072265625
 42
1
  0
VERTEX
  8
0
 10
116.05010986328125
 20
794.12799072265625
 42
0
  0
VERTEX
  8
0
 10
281.05010986328125
 20
794.12811279296875
 42
0
  0
VERTEX
  8
0
 10
281.0501708984375
 20
645.12811279296875
 42
0
  0
VERTEX
  8
0
 10
1046.0501708984375
 20
645.1285400390625
 42
0
  0
VERTEX
  8
0
 10
1046.050048828125
 20
839.1285400390625
 42
0
  0
VERTEX
  8
0
 10
281.04998779296875
 20
994.1280517578125
 42
0
  0
SEQEND
  0
POLYLINE
  8
0
 10
0
 20
0
 39
0
 70
1
 66
1
  0
VERTEX
  8
0
 10
116.050048828125
 20
864.12799072265625
 42
-1
  0
VERTEX
  8
0
 10
116.04998779296875
 20
924.12799072265625
 42
-1
  0
SEQEND
  0
POLYLINE
  8
0
 10
0
 20
0
 39
0
 70
1
 66
1
  0
VERTEX
  8
0
 10
946.050048828125
 20
909.19622802734375
 42
1
  0
VERTEX
  8
0
 10
946.04998779296875
 20
1109.1962890625
 42
0
  0
VERTEX
  8
0
 10
781.04998779296875
 20
1109.1961669921875
 42
0
  0
VERTEX
  8
0
 10
781.04998779296875
 20
1258.1961669921875
 42
0
  0
VERTEX
  8
0
 10
16.04998779296875
 20
1258.196044921875
 42
0
  0
VERTEX
  8
0
 10
16.050025939941406
 20
1064.196044921875
 42
0
  0
VERTEX
  8
0
 10
781.050048828125
 20
909.1961669921875
 42
0
  0
SEQEND
  0
POLYLINE
  8
0
 10
0
 20
0
 39
0
 70
1
 66
1
  0
VERTEX
  8
0
 10
946.050048828125
 20
1039.1962890625
 42
-1
  0
VERTEX
  8
0
 10
946.050048828125
 20
979.19622802734375
 42
-1
  0
SEQEND
  0
POLYLINE
  8
0
 10
0
 20
0
 39
0
 70
1
 66
1
  0
VERTEX
  8
0
 10
2373.110595703125
 20
733.07275390625
 42
0
  0
VERTEX
  8
0
 10
2373.110595703125
 20
604.07275390625
 42
0
  0
VERTEX
  8
0
 10
3138.110595703125
 20
604.07318115234375
 42
0
  0
VERTEX
  8
0
 10
3138.110595703125
 20
778.07318115234375
 42
0
  0
VERTEX
  8
0
 10
2373.1103515625
 20
933.07275390625
 42
0
  0
VERTEX
  8
0
 10
2208.1103515625
 20
933.0726318359375
 42
1
  0
VERTEX
  8
0
 10
2208.110595703125
 20
733.0726318359375
 42
0
  0
SEQEND
  0
POLYLINE
  8
0
 10
0
 20
0
 39
0
 70
1
 66
1
  0
VERTEX
  8
0
 10
2208.1103515625
 20
803.0726318359375
 42
-1
  0
VERTEX
  8
0
 10
2208.1103515625
 20
863.0726318359375
 42
-1
  0
SEQEND
  0
POLYLINE
  8
0
 10
0
 20
0
 39
0
 70
1
 66
1
  0
VERTEX
  8
0
 10
2878.516357421875
 20
1047.045654296875
 42
0
  0
VERTEX
  8
0
 10
2878.516357421875
 20
1176.045654296875
 42
0
  0
VERTEX
  8
0
 10
2113.516357421875
 20
1176.0455322265625
 42
0
  0
VERTEX
  8
0
 10
2113.516357421875
 20
1002.0455322265625
 42
0
  0
VERTEX
  8
0
 10
2878.516357421875
 20
847.045654296875
 42
0
  0
VERTEX
  8
0
 10
3043.516357421875
 20
847.04571533203125
 42
1
  0
VERTEX
  8
0
 10
3043.516357421875
 20
1047.045654296875
 42
0
  0
SEQEND
  0
POLYLINE
  8
0
 10
0
 20
0
 39
0
 70
1
 66
1
  0
VERTEX
  8
0
 10
3043.516357421875
 20
977.04571533203125
 42
-1
  0
VERTEX
  8
0
 10
3043.516357421875
 20
917.04571533203125
 42
-1
  0
SEQEND
  0
POLYLINE
  8
0
 10
0
 20
0
 39
0
 70
1
 66
1
  0
VERTEX
  8
0
 10
1162.06005859375
 20
365.04986572265625
 42
1
  0
VERTEX
  8
0
 10
1162.060302734375
 20
165.04986572265625
 42
0
  0
VERTEX
  8
0
 10
1327.060302734375
 20
165.04997253417969
 42
0
  0
VERTEX
  8
0
 10
1327.060302734375
 20
16.049968719482422
 42
0
  0
VERTEX
  8
0
 10
2092.060302734375
 20
16.0504150390625
 42
0
  0
VERTEX
  8
0
 10
2092.060302734375
 20
210.0504150390625
 42
0
  0
VERTEX
  8
0
 10
1327.06005859375
 20
365.04995727539062
 42
0
  0
SEQEND
  0
POLYLINE
  8
0
 10
0
 20
0
 39
0
 70
1
 66
1
  0
VERTEX
  8
0
 10
1162.0601806640625
 20
235.04986572265625
 42
-1
  0
VERTEX
  8
0
 10
1162.06005859375
 20
295.04986572265625
 42
-1
  0
SEQEND
  0
POLYLINE
  8
0
 10
0
 20
0
 39
0
 70
1
 66
1
  0
VERTEX
  8
0
 10
1992.06005859375
 20
280.1181640625
 42
1
  0
VERTEX
  8
0
 10
1992.06005859375
 20
480.1181640625
 42
0
  0
VERTEX
  8
0
 10
1827.06005859375
 20
480.11813354492187
 42
0
  0
VERTEX
  8
0
 10
1827.06005859375
 20
629.11810302734375
 42
0
  0
VERTEX
  8
0
 10
1062.06005859375
 20
629.11798095703125
 42
0
  0
VERTEX
  8
0
 10
1062.06005859375
 20
435.11798095703125
 42
0
  0
VERTEX
  8
0
 10
1827.06005859375
 20
280.11813354492187
 42
0
  0
SEQEND
  0
POLYLINE
  8
0
 10
0
 20
0
 39
0
 70
1
 66
1
  0
VERTEX
  8
0
 10
1992.06005859375
 20
410.1181640625
 42
-1
  0
VERTEX
  8
0
 10
1992.06005859375
 20
350.1181640625
 42
-1
  0
SEQEND
  0
POLYLINE
  8
0
 10
0
 20
0
 39
0
 70
1
 66
1
  0
VERTEX
  8
0
 10
1162.06005859375
 20
994.12799072265625
 42
1
  0
VERTEX
  8
0
 10
1162.060302734375
 20
794.12799072265625
 42
0
  0
VERTEX
  8
0
 10
1327.060302734375
 20
794.12811279296875
 42
0
  0
VERTEX
  8
0
 10
1327.060302734375
 20
645.12811279296875
 42
0
  0
VERTEX
  8
0
 10
2092.060302734375
 20
645.1285400390625
 42
0
  0
VERTEX
  8
0
 10
2092.060302734375
 20
839.1285400390625
 42
0
  0
VERTEX
  8
0
 10
1327.06005859375
 20
994.1280517578125
 42
0
  0
SEQEND
  0
POLYLINE
  8
0
 10
0
 20
0
 39
0
 70
1
 66
1
  0
VERTEX
  8
0
 10
1162.0601806640625
 20
864.12799072265625
 42
-1
  0
VERTEX
  8
0
 10
1162.06005859375
 20
924.12799072265625
 42
-1
  0
SEQEND
  0
POLYLINE
  8
0
 10
0
 20
0
 39
0
 70
1
 66
1
  0
VERTEX
  8
0
 10
1992.06005859375
 20
909.19622802734375
 42
1
  0
VERTEX
  8
0
 10
1992.06005859375
 20
1109.1962890625
 42
0
  0
VERTEX
  8
0
 10
1827.06005859375
 20
1109.1961669921875
 42
0
  0
VERTEX
  8
0
 10
1827.06005859375
 20
1258.1961669921875
 42
0
  0
VERTEX
  8
0
 10
1062.06005859375
 20
1258.196044921875
 42
0
  0
VERTEX
  8
0
 10
1062.06005859375
 20
1064.196044921875
 42
0
  0
VERTEX
  8
0
 10
1827.06005859375
 20
909.1961669921875
 42
0
  0
SEQEND
  0
POLYLINE
  8
0
 10
0
 20
0
 39
0
 70
1
 66
1
  0
VERTEX
  8
0
 10
1992.06005859375
 20
1039.1962890625
 42
-1
  0
VERTEX
  8
0
 10
1992.06005859375
 20
979.19622802734375
 42
-1
  0
SEQEND
  0
POLYLINE
  8
0
 10
0
 20
0
 39
0
 70
1
 66
1
  0
VERTEX
  8
0
 10
3419.1201171875
 20
145.05000305175781
 42
0
  0
VERTEX
  8
0
 10
3419.1201171875
 20
16.049999237060547
 42
0
  0
VERTEX
  8
0
 10
4184.1201171875
 20
16.050445556640625
 42
0
  0
VERTEX
  8
0
 10
4184.1201171875
 20
190.05044555664062
 42
0
  0
VERTEX
  8
0
 10
3419.119873046875
 20
345.04998779296875
 42
0
  0
VERTEX
  8
0
 10
3254.119873046875
 20
345.04989624023437
 42
1
  0
VERTEX
  8
0
 10
3254.1201171875
 20
145.04989624023437
 42
0
  0
SEQEND
  0
POLYLINE
  8
0
 10
0
 20
0
 39
0
 70
1
 66
1
  0
VERTEX
  8
0
 10
3254.1201171875
 20
215.04989624023437
 42
-1
  0
VERTEX
  8
0
 10
3254.119873046875
 20
275.04989624023437
 42
-1
  0
SEQEND
  0
POLYLINE
  8
0
 10
0
 20
0
 39
0
 70
1
 66
1
  0
VERTEX
  8
0
 10
3924.52587890625
 20
459.02285766601562
 42
0
  0
VERTEX
  8
0
 10
3924.52587890625
 20
588.0228271484375
 42
0
  0
VERTEX
  8
0
 10
3159.52587890625
 20
588.022705078125
 42
0
  0
VERTEX
  8
0
 10
3159.52587890625
 20
414.022705078125
 42
0
  0
VERTEX
  8
0
 10
3924.52587890625
 20
259.02285766601562
 42
0
  0
VERTEX
  8
0
 10
4089.52587890625
 20
259.02288818359375
 42
1
  0
VERTEX
  8
0
 10
4089.52587890625
 20
459.02288818359375
 42
0
  0
SEQEND
  0
POLYLINE
  8
0
 10
0
 20
0
 39
0
 70
1
 66
1
  0
VERTEX
  8
0
 10
4089.52587890625
 20
389.02288818359375
 42
-1
  0
VERTEX
  8
0
 10
4089.52587890625
 20
329.02288818359375
 42
-1
  0
SEQEND
  0
POLYLINE
  8
0
 10
0
 20
0
 39
0
 70
1
 66
1
  0
VERTEX
  8
0
 10
3424.5263671875
 20
733.07275390625
 42
0
  0
VERTEX
  8
0
 10
3424.5263671875
 20
604.07275390625
 42
0
  0
VERTEX
  8
0
 10
4189.5263671875
 20
604.07318115234375
 42
0
  0
VERTEX
  8
0
 10
4189.5263671875
 20
778.07318115234375
 42
0
  0
VERTEX
  8
0
 10
3424.526123046875
 20
933.07275390625
 42
0
  0
VERTEX
  8
0
 10
3259.526123046875
 20
933.0726318359375
 42
1
  0
VERTEX
  8
0
 10
3259.5263671875
 20
733.0726318359375
 42
0
  0
SEQEND
  0
POLYLINE
  8
0
 10
0
 20
0
 39
0
 70
1
 66
1
  0
VERTEX
  8
0
 10
3259.5263671875
 20
803.0726318359375
 42
-1
  0
VERTEX
  8
0
 10
3259.526123046875
 20
863.0726318359375
 42
-1
  0
SEQEND
  0
POLYLINE
  8
0
 10
0
 20
0
 39
0
 70
1
 66
1
  0
VERTEX
  8
0
 10
3929.93212890625
 20
1047.045654296875
 42
0
  0
VERTEX
  8
0
 10
3929.93212890625
 20
1176.045654296875
 42
0
  0
VERTEX
  8
0
 10
3164.93212890625
 20
1176.0455322265625
 42
0
  0
VERTEX
  8
0
 10
3164.93212890625
 20
1002.0455322265625
 42
0
  0
VERTEX
  8
0
 10
3929.93212890625
 20
847.045654296875
 42
0
  0
VERTEX
  8
0
 10
4094.93212890625
 20
847.04571533203125
 42
1
  0
VERTEX
  8
0
 10
4094.93212890625
 20
1047.045654296875
 42
0
  0
SEQEND
  0
POLYLINE
  8
0
 10
0
 20
0
 39
0
 70
1
 66
1
  0
VERTEX
  8
0
 10
4094.93212890625
 20
977.04571533203125
 42
-1
  0
VERTEX
  8
0
 10
4094.93212890625
 20
917.04571533203125
 42
-1
  0
SEQEND
  0
POLYLINE
  8
0
 10
0
 20
0
 39
0
 70
1
 66
1
  0
VERTEX
  8
0
 10
16.049999237060547
 20
1355.2562255859375
 42
-0
  0
VERTEX
  8
0
 10
914.04998779296875
 20
1355.2562255859375
 42
-0
  0
VERTEX
  8
0
 10
914.04998779296875
 20
1420.2562255859375
 42
-0
  0
VERTEX
  8
0
 10
16.049999237060547
 20
1420.2562255859375
 42
-0
  0
SEQEND
  0
POLYLINE
  8
0
 10
0
 20
0
 39
0
 70
1
 66
1
  0
VERTEX
  8
0
 10
951.6214599609375
 20
1274.2462158203125
 42
-0
  0
VERTEX
  8
0
 10
1849.6214599609375
 20
1274.2462158203125
 42
-0
  0
VERTEX
  8
0
 10
1849.6214599609375
 20
1339.2462158203125
 42
-0
  0
VERTEX
  8
0
 10
951.6214599609375
 20
1339.2462158203125
 42
-0
  0
SEQEND
  0
POLYLINE
  8
0
 10
0
 20
0
 39
0
 70
1
 66
1
  0
VERTEX
  8
0
 10
951.6214599609375
 20
1355.2562255859375
 42
-0
  0
VERTEX
  8
0
 10
1849.6214599609375
 20
1355.2562255859375
 42
-0
  0
VERTEX
  8
0
 10
1849.6214599609375
 20
1420.2562255859375
 42
-0
  0
VERTEX
  8
0
 10
951.6214599609375
 20
1420.2562255859375
 42
-0
  0
SEQEND
  0
POLYLINE
  8
0
 10
0
 20
0
 39
0
 70
1
 66
1
  0
VERTEX
  8
0
 10
1865.63134765625
 20
1192.095703125
 42
-0
  0
VERTEX
  8
0
 10
2763.63134765625
 20
1192.095703125
 42
-0
  0
VERTEX
  8
0
 10
2763.63134765625
 20
1257.095703125
 42
-0
  0
VERTEX
  8
0
 10
1865.63134765625
 20
1257.095703125
 42
-0
  0
SEQEND
  0
POLYLINE
  8
0
 10
0
 20
0
 39
0
 70
1
 66
1
  0
VERTEX
  8
0
 10
1865.63134765625
 20
1273.105712890625
 42
-0
  0
VERTEX
  8
0
 10
2763.63134765625
 20
1273.105712890625
 42
-0
  0
VERTEX
  8
0
 10
2763.63134765625
 20
1338.105712890625
 42
-0
  0
VERTEX
  8
0
 10
1865.63134765625
 20
1338.105712890625
 42
-0
  0
SEQEND
  0
POLYLINE
  8
0
 10
0
 20
0
 39
0
 70
1
 66
1
  0
VERTEX
  8
0
 10
1865.63134765625
 20
1354.11572265625
 42
-0
  0
VERTEX
  8
0
 10
2763.63134765625
 20
1354.11572265625
 42
-0
  0
VERTEX
  8
0
 10
2763.63134765625
 20
1419.11572265625
 42
-0
  0
VERTEX
  8
0
 10
1865.63134765625
 20
1419.11572265625
 42
-0
  0
SEQEND
  0
POLYLINE
  8
0
 10
0
 20
0
 39
0
 70
1
 66
1
  0
VERTEX
  8
0
 10
2807.485595703125
 20
1192.095703125
 42
-0
  0
VERTEX
  8
0
 10
3705.485595703125
 20
1192.095703125
 42
-0
  0
VERTEX
  8
0
 10
3705.485595703125
 20
1257.095703125
 42
-0
  0
VERTEX
  8
0
 10
2807.485595703125
 20
1257.095703125
 42
-0
  0
SEQEND
  0
POLYLINE
  8
0
 10
0
 20
0
 39
0
 70
1
 66
1
  0
VERTEX
  8
0
 10
2807.485595703125
 20
1273.105712890625
 42
-0
  0
VERTEX
  8
0
 10
3705.485595703125
 20
1273.105712890625
 42
-0
  0
VERTEX
  8
0
 10
3705.485595703125
 20
1338.105712890625
 42
-0
  0
VERTEX
  8
0
 10
2807.485595703125
 20
1338.105712890625
 42
-0
  0
SEQEND
  0
POLYLINE
  8
0
 10
0
 20
0
 39
0
 70
1
 66
1
  0
VERTEX
  8
0
 10
2807.485595703125
 20
1354.11572265625
 42
-0
  0
VERTEX
  8
0
 10
3705.485595703125
 20
1354.11572265625
 42
-0
  0
VERTEX
  8
0
 10
3705.485595703125
 20
1419.11572265625
 42
-0
  0
VERTEX
  8
0
 10
2807.485595703125
 20
1419.11572265625
 42
-0
  0
SEQEND
  0
POLYLINE
  8
0
 10
0
 20
0
 39
0
 70
1
 66
1
  0
VERTEX
  8
0
 10
4205.576171875
 20
16.04998779296875
 42
-0
  0
VERTEX
  8
0
 10
5103.576171875
 20
16.04998779296875
 42
-0
  0
VERTEX
  8
0
 10
5103.576171875
 20
81.04998779296875
 42
-0
  0
VERTEX
  8
0
 10
4205.576171875
 20
81.04998779296875
 42
-0
  0
SEQEND
  0
POLYLINE
  8
0
 10
0
 20
0
 39
0
 70
1
 66
1
  0
VERTEX
  8
0
 10
4205.576171875
 20
97.059982299804688
 42
-0
  0
VERTEX
  8
0
 10
5103.576171875
 20
97.059982299804688
 42
-0
  0
VERTEX
  8
0
 10
5103.576171875
 20
162.05998229980469
 42
-0
  0
VERTEX
  8
0
 10
4205.576171875
 20
162.05998229980469
 42
-0
  0
SEQEND
  0
POLYLINE
  8
0
 10
0
 20
0
 39
0
 70
1
 66
1
  0
VERTEX
  8
0
 10
4205.576171875
 20
178.06999206542969
 42
-0
  0
VERTEX
  8
0
 10
5103.576171875
 20
178.06999206542969
 42
-0
  0
VERTEX
  8
0
 10
5103.576171875
 20
243.06999206542969
 42
-0
  0
VERTEX
  8
0
 10
4205.576171875
 20
243.06999206542969
 42
-0
  0
SEQEND
  0
POLYLINE
  8
0
 10
0
 20
0
 39
0
 70
1
 66
1
  0
VERTEX
  8
0
 10
4205.576171875
 20
259.07998657226562
 42
-0
  0
VERTEX
  8
0
 10
5103.576171875
 20
259.07998657226562
 42
-0
  0
VERTEX
  8
0
 10
5103.576171875
 20
324.07998657226562
 42
-0
  0
VERTEX
  8
0
 10
4205.576171875
 20
324.07998657226562
 42
-0
  0
SEQEND
  0
POLYLINE
  8
0
 10
0
 20
0
 39
0
 70
1
 66
1
  0
VERTEX
  8
0
 10
4205.576171875
 20
340.08999633789062
 42
-0
  0
VERTEX
  8
0
 10
5103.576171875
 20
340.08999633789062
 42
-0
  0
VERTEX
  8
0
 10
5103.576171875
 20
405.08999633789062
 42
-0
  0
VERTEX
  8
0
 10
4205.576171875
 20
405.08999633789062
 42
-0
  0
SEQEND
  0
POLYLINE
  8
0
 10
0
 20
0
 39
0
 70
1
 66
1
  0
VERTEX
  8
0
 10
4205.576171875
 20
421.0999755859375
 42
-0
  0
VERTEX
  8
0
 10
5103.576171875
 20
421.0999755859375
 42
-0
  0
VERTEX
  8
0
 10
5103.576171875
 20
486.0999755859375
 42
-0
  0
VERTEX
  8
0
 10
4205.576171875
 20
486.0999755859375
 42
-0
  0
SEQEND
  0
POLYLINE
  8
0
 10
0
 20
0
 39
0
 70
1
 66
1
  0
VERTEX
  8
0
 10
4205.576171875
 20
502.1099853515625
 42
-0
  0
VERTEX
  8
0
 10
5103.576171875
 20
502.1099853515625
 42
-0
  0
VERTEX
  8
0
 10
5103.576171875
 20
567.1099853515625
 42
-0
  0
VERTEX
  8
0
 10
4205.576171875
 20
567.1099853515625
 42
-0
  0
SEQEND
  0
POLYLINE
  8
0
 10
0
 20
0
 39
0
 70
1
 66
1
  0
VERTEX
  8
0
 10
4205.576171875
 20
583.1199951171875
 42
-0
  0
VERTEX
  8
0
 10
5103.576171875
 20
583.1199951171875
 42
-0
  0
VERTEX
  8
0
 10
5103.576171875
 20
648.1199951171875
 42
-0
  0
VERTEX
  8
0
 10
4205.576171875
 20
648.1199951171875
 42
-0
  0
SEQEND
  0
POLYLINE
  8
0
 10
0
 20
0
 39
0
 70
1
 66
1
  0
VERTEX
  8
0
 10
4205.576171875
 20
664.1300048828125
 42
-0
  0
VERTEX
  8
0
 10
5103.576171875
 20
664.1300048828125
 42
-0
  0
VERTEX
  8
0
 10
5103.576171875
 20
729.1300048828125
 42
-0
  0
VERTEX
  8
0
 10
4205.576171875
 20
729.1300048828125
 42
-0
  0
SEQEND
  0
POLYLINE
  8
0
 10
0
 20
0
 39
0
 70
1
 66
1
  0
VERTEX
  8
0
 10
4205.576171875
 20
745.1400146484375
 42
-0
  0
VERTEX
  8
0
 10
5103.576171875
 20
745.1400146484375
 42
-0
  0
VERTEX
  8
0
 10
5103.576171875
 20
810.1400146484375
 42
-0
  0
VERTEX
  8
0
 10
4205.576171875
 20
810.1400146484375
 42
-0
  0
SEQEND
  0
POLYLINE
  8
0
 10
0
 20
0
 39
0
 70
1
 66
1
  0
VERTEX
  8
0
 10
4205.576171875
 20
826.14996337890625
 42
-0
  0
VERTEX
  8
0
 10
5103.576171875
 20
826.14996337890625
 42
-0
  0
VERTEX
  8
0
 10
5103.576171875
 20
891.14996337890625
 42
-0
  0
VERTEX
  8
0
 10
4205.576171875
 20
891.14996337890625
 42
-0
  0
SEQEND
  0
POLYLINE
  8
0
 10
0
 20
0
 39
0
 70
1
 66
1
  0
VERTEX
  8
0
 10
4205.576171875
 20
907.15997314453125
 42
-0
  0
VERTEX
  8
0
 10
5103.576171875
 20
907.15997314453125
 42
-0
  0
VERTEX
  8
0
 10
5103.576171875
 20
972.15997314453125
 42
-0
  0
VERTEX
  8
0
 10
4205.576171875
 20
972.15997314453125
 42
-0
  0
SEQEND
  0
POLYLINE
  8
0
 10
0
 20
0
 39
0
 70
1
 66
1
  0
VERTEX
  8
0
 10
4205.576171875
 20
988.1700439453125
 42
-0
  0
VERTEX
  8
0
 10
5103.576171875
 20
988.1700439453125
 42
-0
  0
VERTEX
  8
0
 10
5103.576171875
 20
1053.1700439453125
 42
-0
  0
VERTEX
  8
0
 10
4205.576171875
 20
1053.1700439453125
 42
-0
  0
SEQEND
  0
POLYLINE
  8
0
 10
0
 20
0
 39
0
 70
1
 66
1
  0
VERTEX
  8
0
 10
4205.576171875
 20
1069.179931640625
 42
-0
  0
VERTEX
  8
0
 10
5103.576171875
 20
1069.179931640625
 42
-0
  0
VERTEX
  8
0
 10
5103.576171875
 20
1134.179931640625
 42
-0
  0
VERTEX
  8
0
 10
4205.576171875
 20
1134.179931640625
 42
-0
  0
SEQEND
  0
POLYLINE
  8
0
 10
0
 20
0
 39
0
 70
1
 66
1
  0
VERTEX
  8
0
 10
3945.982177734375
 20
1150.18994140625
 42
-0
  0
VERTEX
  8
0
 10
4843.982421875
 20
1150.18994140625
 42
-0
  0
VERTEX
  8
0
 10
4843.982421875
 20
1215.18994140625
 42
-0
  0
VERTEX
  8
0
 10
3945.982177734375
 20
1215.18994140625
 42
-0
  0
SEQEND
  0
POLYLINE
  8
0
 10
0
 20
0
 39
0
 70
1
 66
1
  0
VERTEX
  8
0
 10
3721.53564453125
 20
1231.199951171875
 42
-0
  0
VERTEX
  8
0
 10
4619.53564453125
 20
1231.199951171875
 42
-0
  0
VERTEX
  8
0
 10
4619.53564453125
 20
1296.199951171875
 42
-0
  0
VERTEX
  8
0
 10
3721.53564453125
 20
1296.199951171875
 42
-0
  0
SEQEND
  0
POLYLINE
  8
0
 10
0
 20
0
 39
0
 70
1
 66
1
  0
VERTEX
  8
0
 10
3721.53564453125
 20
1312.25
 42
-0
  0
VERTEX
  8
0
 10
4619.53564453125
 20
1312.25
 42
-0
  0
VERTEX
  8
0
 10
4619.53564453125
 20
1377.25
 42
-0
  0
VERTEX
  8
0
 10
3721.53564453125
 20
1377.25
 42
-0
  0
SEQEND
  0
POLYLINE
  8
0
 10
0
 20
0
 39
0
 70
1
 66
1
  0
VERTEX
  8
0
 10
3721.53564453125
 20
1393.300048828125
 42
-0
  0
VERTEX
  8
0
 10
4619.53564453125
 20
1393.300048828125
 42
-0
  0
VERTEX
  8
0
 10
4619.53564453125
 20
1458.300048828125
 42
-0
  0
VERTEX
  8
0
 10
3721.53564453125
 20
1458.300048828125
 42
-0
  0
SEQEND
  0
POLYLINE
  8
0
 10
0
 20
0
 39
0
 70
1
 66
1
  0
VERTEX
  8
0
 10
5136.0908203125
 20
320.06011962890625
 42
-0
  0
VERTEX
  8
0
 10
5136.0908203125
 20
176.06011962890625
 42
-0
  0
VERTEX
  8
0
 10
5749.0908203125
 20
176.06024169921875
 42
-0
  0
VERTEX
  8
0
 10
5749.0908203125
 20
320.06024169921875
 42
-0
  0
SEQEND
  0
POLYLINE
  8
0
 10
0
 20
0
 39
0
 70
1
 66
1
  0
VERTEX
  8
0
 10
5136.0908203125
 20
480.07025146484375
 42
-0
  0
VERTEX
  8
0
 10
5136.0908203125
 20
336.07025146484375
 42
-0
  0
VERTEX
  8
0
 10
5749.0908203125
 20
336.07037353515625
 42
-0
  0
VERTEX
  8
0
 10
5749.0908203125
 20
480.07037353515625
 42
-0
  0
SEQEND
  0
POLYLINE
  8
0
 10
0
 20
0
 39
0
 70
1
 66
1
  0
VERTEX
  8
0
 10
5136.0908203125
 20
640.08038330078125
 42
-0
  0
VERTEX
  8
0
 10
5136.0908203125
 20
496.08038330078125
 42
-0
  0
VERTEX
  8
0
 10
5749.0908203125
 20
496.08050537109375
 42
-0
  0
VERTEX
  8
0
 10
5749.0908203125
 20
640.08050537109375
 42
-0
  0
SEQEND
  0
POLYLINE
  8
0
 10
0
 20
0
 39
0
 70
1
 66
1
  0
VERTEX
  8
0
 10
5136.0908203125
 20
800.09051513671875
 42
-0
  0
VERTEX
  8
0
 10
5136.0908203125
 20
656.09051513671875
 42
-0
  0
VERTEX
  8
0
 10
5749.0908203125
 20
656.09063720703125
 42
-0
  0
VERTEX
  8
0
 10
5749.0908203125
 20
800.09063720703125
 42
-0
  0
SEQEND
  0
POLYLINE
  8
0
 10
0
 20
0
 39
0
 70
1
 66
1
  0
VERTEX
  8
0
 10
5136.0908203125
 20
960.1005859375
 42
-0
  0
VERTEX
  8
0
 10
5136.0908203125
 20
816.1005859375
 42
-0
  0
VERTEX
  8
0
 10
5749.0908203125
 20
816.1007080078125
 42
-0
  0
VERTEX
  8
0
 10
5749.0908203125
 20
960.1007080078125
 42
-0
  0
SEQEND
  0
POLYLINE
  8
0
 10
0
 20
0
 39
0
 70
1
 66
1
  0
VERTEX
  8
0
 10
5136.0908203125
 20
1120.1107177734375
 42
-0
  0
VERTEX
  8
0
 10
5136.0908203125
 20
976.1107177734375
 42
-0
  0
VERTEX
  8
0
 10
5749.0908203125
 20
976.11083984375
 42
-0
  0
VERTEX
  8
0
 10
5749.0908203125
 20
1120.11083984375
 42
-0
  0
SEQEND
  0
POLYLINE
  8
0
 10
0
 20
0
 39
0
 70
1
 66
1
  0
VERTEX
  8
0
 10
5938.66015625
 20
629.050048828125
 42
-0
  0
VERTEX
  8
0
 10
5794.66015625
 20
629.04998779296875
 42
-0
  0
VERTEX
  8
0
 10
5794.66015625
 20
16.04998779296875
 42
-0
  0
VERTEX
  8
0
 10
5938.66015625
 20
16.050048828125
 42
-0
  0
SEQEND
  0
POLYLINE
  8
0
 10
0
 20
0
 39
0
 70
1
 66
1
  0
VERTEX
  8
0
 10
4678.35546875
 20
1312.25
 42
-0
  0
VERTEX
  8
0
 10
5576.35546875
 20
1312.25
 42
-0
  0
VERTEX
  8
0
 10
5576.35546875
 20
1377.25
 42
-0
  0
VERTEX
  8
0
 10
4678.35546875
 20
1377.25
 42
-0
  0
SEQEND
  0
POLYLINE
  8
0
 10
0
 20
0
 39
0
 70
1
 66
1
  0
VERTEX
  8
0
 10
4678.35546875
 20
1393.260009765625
 42
-0
  0
VERTEX
  8
0
 10
5576.35546875
 20
1393.260009765625
 42
-0
  0
VERTEX
  8
0
 10
5576.35546875
 20
1458.260009765625
 42
-0
  0
VERTEX
  8
0
 10
4678.35546875
 20
1458.260009765625
 42
-0
  0
SEQEND
  0
POLYLINE
  8
0
 10
0
 20
0
 39
0
 70
1
 66
1
  0
VERTEX
  8
0
 10
4887.123046875
 20
1150.22998046875
 42
-0
  0
VERTEX
  8
0
 10
5785.123046875
 20
1150.22998046875
 42
-0
  0
VERTEX
  8
0
 10
5785.123046875
 20
1215.22998046875
 42
-0
  0
VERTEX
  8
0
 10
4887.123046875
 20
1215.22998046875
 42
-0
  0
SEQEND
  0
POLYLINE
  8
0
 10
0
 20
0
 39
0
 70
1
 66
1
  0
VERTEX
  8
0
 10
4887.123046875
 20
1231.239990234375
 42
-0
  0
VERTEX
  8
0
 10
5785.123046875
 20
1231.239990234375
 42
-0
  0
VERTEX
  8
0
 10
5785.123046875
 20
1296.239990234375
 42
-0
  0
VERTEX
  8
0
 10
4887.123046875
 20
1296.239990234375
 42
-0
  0
SEQEND
  0
ENDSEC
  0
EOF
