  0
SECTION
  2
ENTITIES
  0
POLYLINE
  8
0
 10
0
 20
0
 39
0
 70
1
 66
1
  0
VERTEX
  8
0
 10
0
 20
0
 42
-0
  0
VERTEX
  8
0
 10
6000
 20
0
 42
-0
  0
VERTEX
  8
0
 10
6000
 20
2000
 42
-0
  0
VERTEX
  8
0
 10
0
 20
2000
 42
-0
  0
SEQEND
  0
POLYLINE
  8
0
 10
0
 20
0
 39
0
 70
1
 66
1
  0
VERTEX
  8
0
 10
2477.129638671875
 20
1218.1204833984375
 42
-0
  0
VERTEX
  8
0
 10
1629.129638671875
 20
1218.1201171875
 42
-0
  0
VERTEX
  8
0
 10
1603.129638671875
 20
1203.1201171875
 42
-0
  0
VERTEX
  8
0
 10
1603.129638671875
 20
1128.1201171875
 42
-0
  0
VERTEX
  8
0
 10
2503.129638671875
 20
1128.1204833984375
 42
-0
  0
VERTEX
  8
0
 10
2503.129638671875
 20
1203.1204833984375
 42
-0
  0
SEQEND
  0
POLYLINE
  8
0
 10
0
 20
0
 39
0
 70
1
 66
1
  0
VERTEX
  8
0
 10
2551.94580078125
 20
1128.1201171875
 42
-0
  0
VERTEX
  8
0
 10
3101.94580078125
 20
1128.1201171875
 42
-0
  0
VERTEX
  8
0
 10
3101.94580078125
 20
1308.1201171875
 42
-0
  0
VERTEX
  8
0
 10
2551.94580078125
 20
1308.1201171875
 42
-0
  0
SEQEND
  0
POLYLINE
  8
0
 10
0
 20
0
 39
0
 70
1
 66
1
  0
VERTEX
  8
0
 10
18.050048828125
 20
1958.1800537109375
 42
-0
  0
VERTEX
  8
0
 10
18.050067901611328
 20
1858.1800537109375
 42
-0
  0
VERTEX
  8
0
 10
226.05006408691406
 20
1858.1800537109375
 42
-0
  0
VERTEX
  8
0
 10
226.050048828125
 20
1958.1800537109375
 42
-0
  0
SEQEND
  0
POLYLINE
  8
0
 10
0
 20
0
 39
0
 70
1
 66
1
  0
VERTEX
  8
0
 10
18.049972534179688
 20
1490.1300048828125
 42
-0
  0
VERTEX
  8
0
 10
1568.0499267578125
 20
1490.1300048828125
 42
-0
  0
VERTEX
  8
0
 10
1568.0499267578125
 20
1840.1300048828125
 42
-0
  0
VERTEX
  8
0
 10
18.049972534179688
 20
1840.1300048828125
 42
-0
  0
SEQEND
  0
POLYLINE
  8
0
 10
0
 20
0
 39
0
 70
1
 66
1
  0
VERTEX
  8
0
 10
813.04998779296875
 20
1749.6300048828125
 42
-0
  0
VERTEX
  8
0
 10
773.04998779296875
 20
1749.6300048828125
 42
-1
  0
VERTEX
  8
0
 10
773.04998779296875
 20
1790.6300048828125
 42
0
  0
VERTEX
  8
0
 10
813.04998779296875
 20
1790.6300048828125
 42
-1
  0
SEQEND
  0
POLYLINE
  8
0
 10
0
 20
0
 39
0
 70
1
 66
1
  0
VERTEX
  8
0
 10
18.04998779296875
 20
18.049957275390625
 42
-0
  0
VERTEX
  8
0
 10
1568.0499267578125
 20
18.049957275390625
 42
-0
  0
VERTEX
  8
0
 10
1568.0499267578125
 20
368.04995727539062
 42
-0
  0
VERTEX
  8
0
 10
18.04998779296875
 20
368.04995727539062
 42
-0
  0
SEQEND
  0
POLYLINE
  8
0
 10
0
 20
0
 39
0
 70
1
 66
1
  0
VERTEX
  8
0
 10
3710.2001953125
 20
1564.8170166015625
 42
-0
  0
VERTEX
  8
0
 10
3710.2001953125
 20
1164.8170166015625
 42
-0
  0
VERTEX
  8
0
 10
3980.2001953125
 20
1164.817138671875
 42
-0
  0
VERTEX
  8
0
 10
3980.2001953125
 20
1564.8170166015625
 42
-0
  0
SEQEND
  0
POLYLINE
  8
0
 10
0
 20
0
 39
0
 70
1
 66
1
  0
VERTEX
  8
0
 10
5351.00341796875
 20
536.0999755859375
 42
-0
  0
VERTEX
  8
0
 10
5851.00341796875
 20
536.0999755859375
 42
-0
  0
VERTEX
  8
0
 10
5851.00341796875
 20
836.0999755859375
 42
-0
  0
VERTEX
  8
0
 10
5351.00341796875
 20
836.0999755859375
 42
-0
  0
SEQEND
  0
POLYLINE
  8
0
 10
0
 20
0
 39
0
 70
1
 66
1
  0
VERTEX
  8
0
 10
4832.95361328125
 20
18.04998779296875
 42
-0
  0
VERTEX
  8
0
 10
5332.95361328125
 20
18.04998779296875
 42
-0
  0
VERTEX
  8
0
 10
5332.95361328125
 20
518.04998779296875
 42
-0
  0
VERTEX
  8
0
 10
4832.95361328125
 20
518.04998779296875
 42
-0
  0
SEQEND
  0
POLYLINE
  8
0
 10
0
 20
0
 39
0
 70
1
 66
1
  0
VERTEX
  8
0
 10
3176.150146484375
 20
1146.7667236328125
 42
-0
  0
VERTEX
  8
0
 10
3176.150146484375
 20
546.76678466796875
 42
-0
  0
VERTEX
  8
0
 10
3966.150390625
 20
546.7669677734375
 42
-0
  0
VERTEX
  8
0
 10
3966.150146484375
 20
1146.7669677734375
 42
-0
  0
SEQEND
  0
POLYLINE
  8
0
 10
0
 20
0
 39
0
 70
1
 66
1
  0
VERTEX
  8
0
 10
3571.150146484375
 20
946.766845703125
 42
-1
  0
VERTEX
  8
0
 10
3571.150146484375
 20
746.766845703125
 42
-1
  0
SEQEND
  0
POLYLINE
  8
0
 10
0
 20
0
 39
0
 70
1
 66
1
  0
VERTEX
  8
0
 10
3980.2001953125
 20
18.049999237060547
 42
-0
  0
VERTEX
  8
0
 10
3980.2001953125
 20
218.05000305175781
 42
0.5665850043296814
  0
VERTEX
  8
0
 10
3847.75244140625
 20
297.41110229492187
 42
-0
  0
VERTEX
  8
0
 10
3587.2001953125
 20
158.05000305175781
 42
-0
  0
VERTEX
  8
0
 10
3587.2001953125
 20
18.049999237060547
 42
-0
  0
SEQEND
  0
POLYLINE
  8
0
 10
0
 20
0
 39
0
 70
1
 66
1
  0
VERTEX
  8
0
 10
3862.7001953125
 20
218.05000305175781
 42
-1
  0
VERTEX
  8
0
 10
3917.7001953125
 20
218.05000305175781
 42
-1
  0
SEQEND
  0
POLYLINE
  8
0
 10
0
 20
0
 39
0
 70
1
 66
1
  0
VERTEX
  8
0
 10
3587.2001953125
 20
528.71612548828125
 42
-0
  0
VERTEX
  8
0
 10
3587.2001953125
 20
328.71615600585937
 42
0.5665850043296814
  0
VERTEX
  8
0
 10
3719.64794921875
 20
249.3551025390625
 42
-0
  0
VERTEX
  8
0
 10
3980.2001953125
 20
388.71630859375
 42
-0
  0
VERTEX
  8
0
 10
3980.2001953125
 20
528.71630859375
 42
-0
  0
SEQEND
  0
POLYLINE
  8
0
 10
0
 20
0
 39
0
 70
1
 66
1
  0
VERTEX
  8
0
 10
3704.7001953125
 20
328.7161865234375
 42
-1
  0
VERTEX
  8
0
 10
3649.7001953125
 20
328.7161865234375
 42
-1
  0
SEQEND
  0
POLYLINE
  8
0
 10
0
 20
0
 39
0
 70
1
 66
1
  0
VERTEX
  8
0
 10
18.04998779296875
 20
386.05990600585937
 42
-0
  0
VERTEX
  8
0
 10
1568.0499267578125
 20
386.05990600585937
 42
-0
  0
VERTEX
  8
0
 10
1568.0499267578125
 20
736.0599365234375
 42
-0
  0
VERTEX
  8
0
 10
18.04998779296875
 20
736.0599365234375
 42
-0
  0
SEQEND
  0
POLYLINE
  8
0
 10
0
 20
0
 39
0
 70
1
 66
1
  0
VERTEX
  8
0
 10
18.04998779296875
 20
754.0699462890625
 42
-0
  0
VERTEX
  8
0
 10
1568.0499267578125
 20
754.0699462890625
 42
-0
  0
VERTEX
  8
0
 10
1568.0499267578125
 20
1104.0699462890625
 42
-0
  0
VERTEX
  8
0
 10
18.04998779296875
 20
1104.0699462890625
 42
-0
  0
SEQEND
  0
POLYLINE
  8
0
 10
0
 20
0
 39
0
 70
1
 66
1
  0
VERTEX
  8
0
 10
18.04998779296875
 20
1122.0799560546875
 42
-0
  0
VERTEX
  8
0
 10
1568.0499267578125
 20
1122.0799560546875
 42
-0
  0
VERTEX
  8
0
 10
1568.0499267578125
 20
1472.0799560546875
 42
-0
  0
VERTEX
  8
0
 10
18.04998779296875
 20
1472.0799560546875
 42
-0
  0
SEQEND
  0
POLYLINE
  8
0
 10
0
 20
0
 39
0
 70
1
 66
1
  0
VERTEX
  8
0
 10
1608.0999755859375
 20
20.050018310546875
 42
-0
  0
VERTEX
  8
0
 10
3158.10009765625
 20
20.050018310546875
 42
-0
  0
VERTEX
  8
0
 10
3158.10009765625
 20
370.05001831054687
 42
-0
  0
VERTEX
  8
0
 10
1608.0999755859375
 20
370.05001831054687
 42
-0
  0
SEQEND
  0
POLYLINE
  8
0
 10
0
 20
0
 39
0
 70
1
 66
1
  0
VERTEX
  8
0
 10
2403.10009765625
 20
279.55001831054687
 42
-0
  0
VERTEX
  8
0
 10
2363.10009765625
 20
279.55001831054687
 42
-1
  0
VERTEX
  8
0
 10
2363.10009765625
 20
320.55001831054687
 42
0
  0
VERTEX
  8
0
 10
2403.10009765625
 20
320.55001831054687
 42
-1
  0
SEQEND
  0
POLYLINE
  8
0
 10
0
 20
0
 39
0
 70
1
 66
1
  0
VERTEX
  8
0
 10
246.06007385253906
 20
1958.1800537109375
 42
-0
  0
VERTEX
  8
0
 10
246.06008911132812
 20
1858.1800537109375
 42
-0
  0
VERTEX
  8
0
 10
454.06008911132812
 20
1858.1800537109375
 42
-0
  0
VERTEX
  8
0
 10
454.06005859375
 20
1958.1800537109375
 42
-0
  0
SEQEND
  0
POLYLINE
  8
0
 10
0
 20
0
 39
0
 70
1
 66
1
  0
VERTEX
  8
0
 10
474.070068359375
 20
1958.1800537109375
 42
-0
  0
VERTEX
  8
0
 10
474.07009887695312
 20
1858.1800537109375
 42
-0
  0
VERTEX
  8
0
 10
682.070068359375
 20
1858.1800537109375
 42
-0
  0
VERTEX
  8
0
 10
682.070068359375
 20
1958.1800537109375
 42
-0
  0
SEQEND
  0
POLYLINE
  8
0
 10
0
 20
0
 39
0
 70
1
 66
1
  0
VERTEX
  8
0
 10
702.08013916015625
 20
1958.1800537109375
 42
-0
  0
VERTEX
  8
0
 10
702.08013916015625
 20
1858.1800537109375
 42
-0
  0
VERTEX
  8
0
 10
910.08013916015625
 20
1858.1800537109375
 42
-0
  0
VERTEX
  8
0
 10
910.08013916015625
 20
1958.1800537109375
 42
-0
  0
SEQEND
  0
POLYLINE
  8
0
 10
0
 20
0
 39
0
 70
1
 66
1
  0
VERTEX
  8
0
 10
1608.0999755859375
 20
390.06002807617187
 42
-0
  0
VERTEX
  8
0
 10
3158.10009765625
 20
390.06002807617187
 42
-0
  0
VERTEX
  8
0
 10
3158.10009765625
 20
740.06005859375
 42
-0
  0
VERTEX
  8
0
 10
1608.0999755859375
 20
740.06005859375
 42
-0
  0
SEQEND
  0
POLYLINE
  8
0
 10
0
 20
0
 39
0
 70
1
 66
1
  0
VERTEX
  8
0
 10
2403.10009765625
 20
649.56005859375
 42
-0
  0
VERTEX
  8
0
 10
2363.10009765625
 20
649.56005859375
 42
-1
  0
VERTEX
  8
0
 10
2363.10009765625
 20
690.56005859375
 42
0
  0
VERTEX
  8
0
 10
2403.10009765625
 20
690.56005859375
 42
-1
  0
SEQEND
  0
POLYLINE
  8
0
 10
0
 20
0
 39
0
 70
1
 66
1
  0
VERTEX
  8
0
 10
1608.0999755859375
 20
760.070068359375
 42
-0
  0
VERTEX
  8
0
 10
3158.10009765625
 20
760.070068359375
 42
-0
  0
VERTEX
  8
0
 10
3158.10009765625
 20
1110.070068359375
 42
-0
  0
VERTEX
  8
0
 10
1608.0999755859375
 20
1110.070068359375
 42
-0
  0
SEQEND
  0
POLYLINE
  8
0
 10
0
 20
0
 39
0
 70
1
 66
1
  0
VERTEX
  8
0
 10
2403.10009765625
 20
1019.570068359375
 42
-0
  0
VERTEX
  8
0
 10
2363.10009765625
 20
1019.570068359375
 42
-1
  0
VERTEX
  8
0
 10
2363.10009765625
 20
1060.570068359375
 42
0
  0
VERTEX
  8
0
 10
2403.10009765625
 20
1060.570068359375
 42
-1
  0
SEQEND
  0
POLYLINE
  8
0
 10
0
 20
0
 39
0
 70
1
 66
1
  0
VERTEX
  8
0
 10
2477.129638671875
 20
1326.1705322265625
 42
-0
  0
VERTEX
  8
0
 10
1629.129638671875
 20
1326.170166015625
 42
-0
  0
VERTEX
  8
0
 10
1603.129638671875
 20
1311.170166015625
 42
-0
  0
VERTEX
  8
0
 10
1603.129638671875
 20
1236.170166015625
 42
-0
  0
VERTEX
  8
0
 10
2503.129638671875
 20
1236.1705322265625
 42
-0
  0
VERTEX
  8
0
 10
2503.129638671875
 20
1311.1705322265625
 42
-0
  0
SEQEND
  0
POLYLINE
  8
0
 10
0
 20
0
 39
0
 70
1
 66
1
  0
VERTEX
  8
0
 10
2477.129638671875
 20
1434.2205810546875
 42
-0
  0
VERTEX
  8
0
 10
1629.129638671875
 20
1434.22021484375
 42
-0
  0
VERTEX
  8
0
 10
1603.129638671875
 20
1419.22021484375
 42
-0
  0
VERTEX
  8
0
 10
1603.129638671875
 20
1344.22021484375
 42
-0
  0
VERTEX
  8
0
 10
2503.129638671875
 20
1344.2205810546875
 42
-0
  0
VERTEX
  8
0
 10
2503.129638671875
 20
1419.2205810546875
 42
-0
  0
SEQEND
  0
POLYLINE
  8
0
 10
0
 20
0
 39
0
 70
1
 66
1
  0
VERTEX
  8
0
 10
2477.129638671875
 20
1542.2706298828125
 42
-0
  0
VERTEX
  8
0
 10
1629.129638671875
 20
1542.270263671875
 42
-0
  0
VERTEX
  8
0
 10
1603.129638671875
 20
1527.270263671875
 42
-0
  0
VERTEX
  8
0
 10
1603.129638671875
 20
1452.270263671875
 42
-0
  0
VERTEX
  8
0
 10
2503.129638671875
 20
1452.2706298828125
 42
-0
  0
VERTEX
  8
0
 10
2503.129638671875
 20
1527.2706298828125
 42
-0
  0
SEQEND
  0
POLYLINE
  8
0
 10
0
 20
0
 39
0
 70
1
 66
1
  0
VERTEX
  8
0
 10
2477.129638671875
 20
1650.3206787109375
 42
-0
  0
VERTEX
  8
0
 10
1629.129638671875
 20
1650.3203125
 42
-0
  0
VERTEX
  8
0
 10
1603.129638671875
 20
1635.3203125
 42
-0
  0
VERTEX
  8
0
 10
1603.129638671875
 20
1560.3203125
 42
-0
  0
VERTEX
  8
0
 10
2503.129638671875
 20
1560.3206787109375
 42
-0
  0
VERTEX
  8
0
 10
2503.129638671875
 20
1635.3206787109375
 42
-0
  0
SEQEND
  0
POLYLINE
  8
0
 10
0
 20
0
 39
0
 70
1
 66
1
  0
VERTEX
  8
0
 10
2477.129638671875
 20
1758.3707275390625
 42
-0
  0
VERTEX
  8
0
 10
1629.129638671875
 20
1758.370361328125
 42
-0
  0
VERTEX
  8
0
 10
1603.129638671875
 20
1743.370361328125
 42
-0
  0
VERTEX
  8
0
 10
1603.129638671875
 20
1668.370361328125
 42
-0
  0
VERTEX
  8
0
 10
2503.129638671875
 20
1668.3707275390625
 42
-0
  0
VERTEX
  8
0
 10
2503.129638671875
 20
1743.3707275390625
 42
-0
  0
SEQEND
  0
POLYLINE
  8
0
 10
0
 20
0
 39
0
 70
1
 66
1
  0
VERTEX
  8
0
 10
2477.129638671875
 20
1866.4207763671875
 42
-0
  0
VERTEX
  8
0
 10
1629.129638671875
 20
1866.42041015625
 42
-0
  0
VERTEX
  8
0
 10
1603.129638671875
 20
1851.42041015625
 42
-0
  0
VERTEX
  8
0
 10
1603.129638671875
 20
1776.42041015625
 42
-0
  0
VERTEX
  8
0
 10
2503.129638671875
 20
1776.4207763671875
 42
-0
  0
VERTEX
  8
0
 10
2503.129638671875
 20
1851.4207763671875
 42
-0
  0
SEQEND
  0
POLYLINE
  8
0
 10
0
 20
0
 39
0
 70
1
 66
1
  0
VERTEX
  8
0
 10
2477.129638671875
 20
1974.4708251953125
 42
-0
  0
VERTEX
  8
0
 10
1629.129638671875
 20
1974.470458984375
 42
-0
  0
VERTEX
  8
0
 10
1603.129638671875
 20
1959.470458984375
 42
-0
  0
VERTEX
  8
0
 10
1603.129638671875
 20
1884.470458984375
 42
-0
  0
VERTEX
  8
0
 10
2503.129638671875
 20
1884.4708251953125
 42
-0
  0
VERTEX
  8
0
 10
2503.129638671875
 20
1959.4708251953125
 42
-0
  0
SEQEND
  0
POLYLINE
  8
0
 10
0
 20
0
 39
0
 70
1
 66
1
  0
VERTEX
  8
0
 10
2551.94580078125
 20
1326.130126953125
 42
-0
  0
VERTEX
  8
0
 10
3101.94580078125
 20
1326.130126953125
 42
-0
  0
VERTEX
  8
0
 10
3101.94580078125
 20
1506.130126953125
 42
-0
  0
VERTEX
  8
0
 10
2551.94580078125
 20
1506.130126953125
 42
-0
  0
SEQEND
  0
POLYLINE
  8
0
 10
0
 20
0
 39
0
 70
1
 66
1
  0
VERTEX
  8
0
 10
2551.94580078125
 20
1524.14013671875
 42
-0
  0
VERTEX
  8
0
 10
3101.94580078125
 20
1524.14013671875
 42
-0
  0
VERTEX
  8
0
 10
3101.94580078125
 20
1704.14013671875
 42
-0
  0
VERTEX
  8
0
 10
2551.94580078125
 20
1704.14013671875
 42
-0
  0
SEQEND
  0
POLYLINE
  8
0
 10
0
 20
0
 39
0
 70
1
 66
1
  0
VERTEX
  8
0
 10
2551.94580078125
 20
1722.150146484375
 42
-0
  0
VERTEX
  8
0
 10
3101.94580078125
 20
1722.150146484375
 42
-0
  0
VERTEX
  8
0
 10
3101.94580078125
 20
1902.150146484375
 42
-0
  0
VERTEX
  8
0
 10
2551.94580078125
 20
1902.150146484375
 42
-0
  0
SEQEND
  0
POLYLINE
  8
0
 10
0
 20
0
 39
0
 70
0
 66
1
  0
VERTEX
  8
0
 10
3176.150146484375
 20
218.05000305175781
 42
-0
  0
VERTEX
  8
0
 10
3308.59765625
 20
297.41116333007812
 42
0.5665850043296814
  0
VERTEX
  8
0
 10
3569.150146484375
 20
158.05015563964844
 42
-0
  0
VERTEX
  8
0
 10
3569.150146484375
 20
18.050151824951172
 42
-0
  0
VERTEX
  8
0
 10
3176.150146484375
 20
18.049999237060547
 42
-0
  0
VERTEX
  8
0
 10
3569.150146484375
 20
18.050151824951172
 42
0
  0
SEQEND
  0
POLYLINE
  8
0
 10
0
 20
0
 39
0
 70
1
 66
1
  0
VERTEX
  8
0
 10
3238.650146484375
 20
218.05003356933594
 42
-1
  0
VERTEX
  8
0
 10
3293.650146484375
 20
218.050048828125
 42
-1
  0
SEQEND
  0
POLYLINE
  8
0
 10
0
 20
0
 39
0
 70
0
 66
1
  0
VERTEX
  8
0
 10
3569.14990234375
 20
328.71649169921875
 42
-0
  0
VERTEX
  8
0
 10
3436.7021484375
 20
249.35546875
 42
0.5665850043296814
  0
VERTEX
  8
0
 10
3176.150146484375
 20
388.716796875
 42
-0
  0
VERTEX
  8
0
 10
3176.150146484375
 20
528.716796875
 42
-0
  0
VERTEX
  8
0
 10
3569.150146484375
 20
528.71649169921875
 42
-0
  0
VERTEX
  8
0
 10
3176.150146484375
 20
528.716796875
 42
0
  0
SEQEND
  0
POLYLINE
  8
0
 10
0
 20
0
 39
0
 70
1
 66
1
  0
VERTEX
  8
0
 10
3506.64990234375
 20
328.716552734375
 42
-1
  0
VERTEX
  8
0
 10
3451.64990234375
 20
328.71658325195312
 42
-1
  0
SEQEND
  0
POLYLINE
  8
0
 10
0
 20
0
 39
0
 70
1
 66
1
  0
VERTEX
  8
0
 10
3119.995849609375
 20
1164.81689453125
 42
-0
  0
VERTEX
  8
0
 10
3669.995849609375
 20
1164.81689453125
 42
-0
  0
VERTEX
  8
0
 10
3669.995849609375
 20
1344.81689453125
 42
-0
  0
VERTEX
  8
0
 10
3119.995849609375
 20
1344.81689453125
 42
-0
  0
SEQEND
  0
POLYLINE
  8
0
 10
0
 20
0
 39
0
 70
1
 66
1
  0
VERTEX
  8
0
 10
3119.995849609375
 20
1362.826904296875
 42
-0
  0
VERTEX
  8
0
 10
3669.995849609375
 20
1362.826904296875
 42
-0
  0
VERTEX
  8
0
 10
3669.995849609375
 20
1542.826904296875
 42
-0
  0
VERTEX
  8
0
 10
3119.995849609375
 20
1542.826904296875
 42
-0
  0
SEQEND
  0
POLYLINE
  8
0
 10
0
 20
0
 39
0
 70
1
 66
1
  0
VERTEX
  8
0
 10
3119.995849609375
 20
1560.8369140625
 42
-0
  0
VERTEX
  8
0
 10
3669.995849609375
 20
1560.8369140625
 42
-0
  0
VERTEX
  8
0
 10
3669.995849609375
 20
1740.8369140625
 42
-0
  0
VERTEX
  8
0
 10
3119.995849609375
 20
1740.8369140625
 42
-0
  0
SEQEND
  0
POLYLINE
  8
0
 10
0
 20
0
 39
0
 70
1
 66
1
  0
VERTEX
  8
0
 10
3119.995849609375
 20
1758.846923828125
 42
-0
  0
VERTEX
  8
0
 10
3669.995849609375
 20
1758.846923828125
 42
-0
  0
VERTEX
  8
0
 10
3669.995849609375
 20
1938.846923828125
 42
-0
  0
VERTEX
  8
0
 10
3119.995849609375
 20
1938.846923828125
 42
-0
  0
SEQEND
  0
POLYLINE
  8
0
 10
0
 20
0
 39
0
 70
1
 66
1
  0
VERTEX
  8
0
 10
3998.250244140625
 20
618.04998779296875
 42
-0
  0
VERTEX
  8
0
 10
3998.250244140625
 20
18.04998779296875
 42
-0
  0
VERTEX
  8
0
 10
4788.25048828125
 20
18.0501708984375
 42
-0
  0
VERTEX
  8
0
 10
4788.25
 20
618.05010986328125
 42
-0
  0
SEQEND
  0
POLYLINE
  8
0
 10
0
 20
0
 39
0
 70
1
 66
1
  0
VERTEX
  8
0
 10
4393.25048828125
 20
418.050048828125
 42
-1
  0
VERTEX
  8
0
 10
4393.25048828125
 20
218.05007934570312
 42
-1
  0
SEQEND
  0
POLYLINE
  8
0
 10
0
 20
0
 39
0
 70
1
 66
1
  0
VERTEX
  8
0
 10
3998.250244140625
 20
1236.06005859375
 42
-0
  0
VERTEX
  8
0
 10
3998.250244140625
 20
636.06011962890625
 42
-0
  0
VERTEX
  8
0
 10
4788.25048828125
 20
636.060302734375
 42
-0
  0
VERTEX
  8
0
 10
4788.25
 20
1236.060302734375
 42
-0
  0
SEQEND
  0
POLYLINE
  8
0
 10
0
 20
0
 39
0
 70
1
 66
1
  0
VERTEX
  8
0
 10
4393.25048828125
 20
1036.0601806640625
 42
-1
  0
VERTEX
  8
0
 10
4393.25048828125
 20
836.0601806640625
 42
-1
  0
SEQEND
  0
POLYLINE
  8
0
 10
0
 20
0
 39
0
 70
1
 66
1
  0
VERTEX
  8
0
 10
3998.250244140625
 20
1854.0701904296875
 42
-0
  0
VERTEX
  8
0
 10
3998.250244140625
 20
1254.0703125
 42
-0
  0
VERTEX
  8
0
 10
4788.25048828125
 20
1254.0704345703125
 42
-0
  0
VERTEX
  8
0
 10
4788.25
 20
1854.0704345703125
 42
-0
  0
SEQEND
  0
POLYLINE
  8
0
 10
0
 20
0
 39
0
 70
1
 66
1
  0
VERTEX
  8
0
 10
4393.25048828125
 20
1654.0703125
 42
-1
  0
VERTEX
  8
0
 10
4393.25048828125
 20
1454.0703125
 42
-1
  0
SEQEND
  0
POLYLINE
  8
0
 10
0
 20
0
 39
0
 70
1
 66
1
  0
VERTEX
  8
0
 10
3710.2001953125
 20
1982.8270263671875
 42
-0
  0
VERTEX
  8
0
 10
3710.2001953125
 20
1582.8270263671875
 42
-0
  0
VERTEX
  8
0
 10
3980.2001953125
 20
1582.8271484375
 42
-0
  0
VERTEX
  8
0
 10
3980.2001953125
 20
1982.8270263671875
 42
-0
  0
SEQEND
  0
POLYLINE
  8
0
 10
0
 20
0
 39
0
 70
1
 66
1
  0
VERTEX
  8
0
 10
4832.95361328125
 20
536.0599365234375
 42
-0
  0
VERTEX
  8
0
 10
5332.95361328125
 20
536.0599365234375
 42
-0
  0
VERTEX
  8
0
 10
5332.95361328125
 20
1036.0599365234375
 42
-0
  0
VERTEX
  8
0
 10
4832.95361328125
 20
1036.0599365234375
 42
-0
  0
SEQEND
  0
POLYLINE
  8
0
 10
0
 20
0
 39
0
 70
1
 66
1
  0
VERTEX
  8
0
 10
4832.95361328125
 20
1054.070068359375
 42
-0
  0
VERTEX
  8
0
 10
5332.95361328125
 20
1054.070068359375
 42
-0
  0
VERTEX
  8
0
 10
5332.95361328125
 20
1554.070068359375
 42
-0
  0
VERTEX
  8
0
 10
4832.95361328125
 20
1554.070068359375
 42
-0
  0
SEQEND
  0
POLYLINE
  8
0
 10
0
 20
0
 39
0
 70
1
 66
1
  0
VERTEX
  8
0
 10
4806.2998046875
 20
1972.1201171875
 42
-0
  0
VERTEX
  8
0
 10
4806.2998046875
 20
1572.1201171875
 42
-0
  0
VERTEX
  8
0
 10
5076.2998046875
 20
1572.1201171875
 42
-0
  0
VERTEX
  8
0
 10
5076.2998046875
 20
1972.1201171875
 42
-0
  0
SEQEND
  0
POLYLINE
  8
0
 10
0
 20
0
 39
0
 70
1
 66
1
  0
VERTEX
  8
0
 10
5094.3095703125
 20
1972.1201171875
 42
-0
  0
VERTEX
  8
0
 10
5094.3095703125
 20
1572.1201171875
 42
-0
  0
VERTEX
  8
0
 10
5364.3095703125
 20
1572.1201171875
 42
-0
  0
VERTEX
  8
0
 10
5364.3095703125
 20
1972.1201171875
 42
-0
  0
SEQEND
  0
POLYLINE
  8
0
 10
0
 20
0
 39
0
 70
1
 66
1
  0
VERTEX
  8
0
 10
5350.96337890625
 20
18.04998779296875
 42
-0
  0
VERTEX
  8
0
 10
5850.96337890625
 20
18.04998779296875
 42
-0
  0
VERTEX
  8
0
 10
5850.96337890625
 20
518.04998779296875
 42
-0
  0
VERTEX
  8
0
 10
5350.96337890625
 20
518.04998779296875
 42
-0
  0
SEQEND
  0
POLYLINE
  8
0
 10
0
 20
0
 39
0
 70
1
 66
1
  0
VERTEX
  8
0
 10
5351.00341796875
 20
854.1099853515625
 42
-0
  0
VERTEX
  8
0
 10
5851.00341796875
 20
854.1099853515625
 42
-0
  0
VERTEX
  8
0
 10
5851.00341796875
 20
1154.1099853515625
 42
-0
  0
VERTEX
  8
0
 10
5351.00341796875
 20
1154.1099853515625
 42
-0
  0
SEQEND
  0
POLYLINE
  8
0
 10
0
 20
0
 39
0
 70
1
 66
1
  0
VERTEX
  8
0
 10
5351.00341796875
 20
1172.1199951171875
 42
-0
  0
VERTEX
  8
0
 10
5851.00341796875
 20
1172.1199951171875
 42
-0
  0
VERTEX
  8
0
 10
5851.00341796875
 20
1472.1199951171875
 42
-0
  0
VERTEX
  8
0
 10
5351.00341796875
 20
1472.1199951171875
 42
-0
  0
SEQEND
  0
POLYLINE
  8
0
 10
0
 20
0
 39
0
 70
1
 66
1
  0
VERTEX
  8
0
 10
5401.12353515625
 20
1490.1700439453125
 42
-0
  0
VERTEX
  8
0
 10
5901.12353515625
 20
1490.1700439453125
 42
-0
  0
VERTEX
  8
0
 10
5901.12353515625
 20
1790.1700439453125
 42
-0
  0
VERTEX
  8
0
 10
5401.12353515625
 20
1790.1700439453125
 42
-0
  0
SEQEND
  0
ENDSEC
  0
EOF
