  0
SECTION
  2
ENTITIES
  0
POLYLINE
  8
0
 10
0
 20
0
 39
0
 70
1
 66
1
  0
VERTEX
  8
0
 10
0
 20
0
 42
-0
  0
VERTEX
  8
0
 10
3300
 20
0
 42
-0
  0
VERTEX
  8
0
 10
3300
 20
1800
 42
-0
  0
VERTEX
  8
0
 10
0
 20
1800
 42
-0
  0
SEQEND
  0
POLYLINE
  8
0
 10
0
 20
0
 39
0
 70
1
 66
1
  0
VERTEX
  8
0
 10
603.184326171875
 20
1190.6043701171875
 42
1
  0
VERTEX
  8
0
 10
598.03564453125
 20
10.615615844726563
 42
1
  0
SEQEND
  0
POLYLINE
  8
0
 10
0
 20
0
 39
0
 70
1
 66
1
  0
VERTEX
  8
0
 10
602.76983642578125
 20
1095.605224609375
 42
-1
  0
VERTEX
  8
0
 10
598.45013427734375
 20
105.61470794677734
 42
-1
  0
SEQEND
  0
POLYLINE
  8
0
 10
0
 20
0
 39
0
 70
1
 66
1
  0
VERTEX
  8
0
 10
1632.7843017578125
 20
1789.224365234375
 42
1
  0
VERTEX
  8
0
 10
1627.6356201171875
 20
609.235595703125
 42
1
  0
SEQEND
  0
POLYLINE
  8
0
 10
0
 20
0
 39
0
 70
1
 66
1
  0
VERTEX
  8
0
 10
1632.369873046875
 20
1694.2252197265625
 42
-1
  0
VERTEX
  8
0
 10
1628.0501708984375
 20
704.23468017578125
 42
-1
  0
SEQEND
  0
POLYLINE
  8
0
 10
0
 20
0
 39
0
 70
1
 66
1
  0
VERTEX
  8
0
 10
2662.38427734375
 20
1190.6043701171875
 42
1
  0
VERTEX
  8
0
 10
2657.235595703125
 20
10.615615844726563
 42
1
  0
SEQEND
  0
POLYLINE
  8
0
 10
0
 20
0
 39
0
 70
1
 66
1
  0
VERTEX
  8
0
 10
2661.9697265625
 20
1095.605224609375
 42
-1
  0
VERTEX
  8
0
 10
2657.650146484375
 20
105.61470794677734
 42
-1
  0
SEQEND
  0
POLYLINE
  8
0
 10
0
 20
0
 39
0
 70
1
 66
1
  0
VERTEX
  8
0
 10
450.6099853515625
 20
1182.43994140625
 42
0
  0
VERTEX
  8
0
 10
450.6099853515625
 20
1772.43994140625
 42
0
  0
VERTEX
  8
0
 10
10.609999656677246
 20
1772.43994140625
 42
0
  0
VERTEX
  8
0
 10
10.609999656677246
 20
1182.43994140625
 42
0
  0
SEQEND
  0
POLYLINE
  8
0
 10
0
 20
0
 39
0
 70
1
 66
1
  0
VERTEX
  8
0
 10
656.8599853515625
 20
305.6300048828125
 42
0
  0
VERTEX
  8
0
 10
656.8599853515625
 20
895.6300048828125
 42
0
  0
VERTEX
  8
0
 10
216.86000061035156
 20
895.6300048828125
 42
0
  0
VERTEX
  8
0
 10
216.86000061035156
 20
305.6300048828125
 42
0
  0
SEQEND
  0
POLYLINE
  8
0
 10
0
 20
0
 39
0
 70
1
 66
1
  0
VERTEX
  8
0
 10
1686.4599609375
 20
904.25
 42
0
  0
VERTEX
  8
0
 10
1686.4599609375
 20
1494.25
 42
0
  0
VERTEX
  8
0
 10
1246.4599609375
 20
1494.25
 42
0
  0
VERTEX
  8
0
 10
1246.4599609375
 20
904.25
 42
0
  0
SEQEND
  0
POLYLINE
  8
0
 10
0
 20
0
 39
0
 70
1
 66
1
  0
VERTEX
  8
0
 10
1182.43994140625
 20
10.609999656677246
 42
0
  0
VERTEX
  8
0
 10
1772.43994140625
 20
10.609999656677246
 42
0
  0
VERTEX
  8
0
 10
1772.43994140625
 20
450.6099853515625
 42
0
  0
VERTEX
  8
0
 10
1182.43994140625
 20
450.6099853515625
 42
0
  0
SEQEND
  0
POLYLINE
  8
0
 10
0
 20
0
 39
0
 70
1
 66
1
  0
VERTEX
  8
0
 10
2716.06005859375
 20
305.6300048828125
 42
0
  0
VERTEX
  8
0
 10
2716.06005859375
 20
895.6300048828125
 42
0
  0
VERTEX
  8
0
 10
2276.06005859375
 20
895.6300048828125
 42
0
  0
VERTEX
  8
0
 10
2276.06005859375
 20
305.6300048828125
 42
0
  0
SEQEND
  0
POLYLINE
  8
0
 10
0
 20
0
 39
0
 70
1
 66
1
  0
VERTEX
  8
0
 10
2212.0400390625
 20
1349.0899658203125
 42
0
  0
VERTEX
  8
0
 10
2802.0400390625
 20
1349.0899658203125
 42
0
  0
VERTEX
  8
0
 10
2802.0400390625
 20
1789.0899658203125
 42
0
  0
VERTEX
  8
0
 10
2212.0400390625
 20
1789.0899658203125
 42
0
  0
SEQEND
  0
POLYLINE
  8
0
 10
0
 20
0
 39
0
 70
1
 66
1
  0
VERTEX
  8
0
 10
940.31390380859375
 20
741.59417724609375
 42
-0
  0
VERTEX
  8
0
 10
988.31390380859375
 20
383.59027099609375
 42
0
  0
VERTEX
  8
0
 10
996.31390380859375
 20
373.59027099609375
 42
0
  0
VERTEX
  8
0
 10
1012.3139038085937
 20
369.59027099609375
 42
-0
  0
VERTEX
  8
0
 10
1012.3139038085937
 20
754.06195068359375
 42
0.19730307161808014
  0
VERTEX
  8
0
 10
997.88812255859375
 20
789.19769287109375
 42
-0
  0
VERTEX
  8
0
 10
852.31390380859375
 20
936.58734130859375
 42
-0
  0
VERTEX
  8
0
 10
687.30999755859375
 20
1067.5941162109375
 42
-0
  0
VERTEX
  8
0
 10
667.30999755859375
 20
1043.5911865234375
 42
-0.088012076914310455
  0
VERTEX
  8
0
 10
751.31390380859375
 20
948.59515380859375
 42
-0
  0
VERTEX
  8
0
 10
846.31390380859375
 20
793.59320068359375
 42
-0
  0
SEQEND
  0
POLYLINE
  8
0
 10
0
 20
0
 39
0
 70
1
 66
1
  0
VERTEX
  8
0
 10
739.30999755859375
 20
647.79998779296875
 42
-0
  0
VERTEX
  8
0
 10
691.30999755859375
 20
1005.8038940429687
 42
0
  0
VERTEX
  8
0
 10
683.30999755859375
 20
1015.8038940429687
 42
0
  0
VERTEX
  8
0
 10
667.30999755859375
 20
1019.8038940429687
 42
-0
  0
VERTEX
  8
0
 10
667.30999755859375
 20
635.33221435546875
 42
0.19730307161808014
  0
VERTEX
  8
0
 10
681.73577880859375
 20
600.19647216796875
 42
-0
  0
VERTEX
  8
0
 10
827.30999755859375
 20
452.80682373046875
 42
-0
  0
VERTEX
  8
0
 10
992.31390380859375
 20
321.79998779296875
 42
-0
  0
VERTEX
  8
0
 10
1012.3139038085937
 20
345.80291748046875
 42
-0.088012076914310455
  0
VERTEX
  8
0
 10
928.30999755859375
 20
440.79901123046875
 42
-0
  0
VERTEX
  8
0
 10
833.30999755859375
 20
595.80096435546875
 42
-0
  0
SEQEND
  0
POLYLINE
  8
0
 10
0
 20
0
 39
0
 70
1
 66
1
  0
VERTEX
  8
0
 10
957.1439208984375
 20
1463.30419921875
 42
-0
  0
VERTEX
  8
0
 10
1005.1439208984375
 20
1105.30029296875
 42
0
  0
VERTEX
  8
0
 10
1013.1439208984375
 20
1095.30029296875
 42
0
  0
VERTEX
  8
0
 10
1029.1439208984375
 20
1091.30029296875
 42
-0
  0
VERTEX
  8
0
 10
1029.1439208984375
 20
1475.77197265625
 42
0.19730307161808014
  0
VERTEX
  8
0
 10
1014.7181396484375
 20
1510.90771484375
 42
-0
  0
VERTEX
  8
0
 10
869.1439208984375
 20
1658.29736328125
 42
-0
  0
VERTEX
  8
0
 10
704.1400146484375
 20
1789.30419921875
 42
-0
  0
VERTEX
  8
0
 10
684.1400146484375
 20
1765.30126953125
 42
-0.088012076914310455
  0
VERTEX
  8
0
 10
768.1439208984375
 20
1670.30517578125
 42
-0
  0
VERTEX
  8
0
 10
863.1439208984375
 20
1515.30322265625
 42
-0
  0
SEQEND
  0
POLYLINE
  8
0
 10
0
 20
0
 39
0
 70
1
 66
1
  0
VERTEX
  8
0
 10
756.1400146484375
 20
1369.510009765625
 42
-0
  0
VERTEX
  8
0
 10
708.1400146484375
 20
1727.513916015625
 42
0
  0
VERTEX
  8
0
 10
700.1400146484375
 20
1737.513916015625
 42
0
  0
VERTEX
  8
0
 10
684.1400146484375
 20
1741.513916015625
 42
-0
  0
VERTEX
  8
0
 10
684.1400146484375
 20
1357.042236328125
 42
0.19730307161808014
  0
VERTEX
  8
0
 10
698.5657958984375
 20
1321.906494140625
 42
-0
  0
VERTEX
  8
0
 10
844.1400146484375
 20
1174.516845703125
 42
-0
  0
VERTEX
  8
0
 10
1009.1439208984375
 20
1043.510009765625
 42
-0
  0
VERTEX
  8
0
 10
1029.1439208984375
 20
1067.512939453125
 42
-0.088012076914310455
  0
VERTEX
  8
0
 10
945.1400146484375
 20
1162.509033203125
 42
-0
  0
VERTEX
  8
0
 10
850.1400146484375
 20
1317.510986328125
 42
-0
  0
SEQEND
  0
POLYLINE
  8
0
 10
0
 20
0
 39
0
 70
1
 66
1
  0
VERTEX
  8
0
 10
1969.9139404296875
 20
1340.214111328125
 42
-0
  0
VERTEX
  8
0
 10
2017.9139404296875
 20
982.21026611328125
 42
0
  0
VERTEX
  8
0
 10
2025.9139404296875
 20
972.21026611328125
 42
0
  0
VERTEX
  8
0
 10
2041.9139404296875
 20
968.21026611328125
 42
-0
  0
VERTEX
  8
0
 10
2041.9139404296875
 20
1352.681884765625
 42
0.19730307161808014
  0
VERTEX
  8
0
 10
2027.4881591796875
 20
1387.817626953125
 42
-0
  0
VERTEX
  8
0
 10
1881.9139404296875
 20
1535.207275390625
 42
-0
  0
VERTEX
  8
0
 10
1716.9100341796875
 20
1666.214111328125
 42
-0
  0
VERTEX
  8
0
 10
1696.9100341796875
 20
1642.211181640625
 42
-0.088012076914310455
  0
VERTEX
  8
0
 10
1780.9139404296875
 20
1547.215087890625
 42
-0
  0
VERTEX
  8
0
 10
1875.9139404296875
 20
1392.213134765625
 42
-0
  0
SEQEND
  0
POLYLINE
  8
0
 10
0
 20
0
 39
0
 70
1
 66
1
  0
VERTEX
  8
0
 10
1768.9100341796875
 20
1246.4200439453125
 42
-0
  0
VERTEX
  8
0
 10
1720.9100341796875
 20
1604.4239501953125
 42
0
  0
VERTEX
  8
0
 10
1712.9100341796875
 20
1614.4239501953125
 42
0
  0
VERTEX
  8
0
 10
1696.9100341796875
 20
1618.4239501953125
 42
-0
  0
VERTEX
  8
0
 10
1696.9100341796875
 20
1233.9522705078125
 42
0.19730307161808014
  0
VERTEX
  8
0
 10
1711.3358154296875
 20
1198.8165283203125
 42
-0
  0
VERTEX
  8
0
 10
1856.9100341796875
 20
1051.4268798828125
 42
-0
  0
VERTEX
  8
0
 10
2021.9139404296875
 20
920.41998291015625
 42
-0
  0
VERTEX
  8
0
 10
2041.9139404296875
 20
944.42291259765625
 42
-0.088012076914310455
  0
VERTEX
  8
0
 10
1957.9100341796875
 20
1039.4190673828125
 42
-0
  0
VERTEX
  8
0
 10
1862.9100341796875
 20
1194.4210205078125
 42
-0
  0
SEQEND
  0
POLYLINE
  8
0
 10
0
 20
0
 39
0
 70
1
 66
1
  0
VERTEX
  8
0
 10
2999.513916015625
 20
741.59417724609375
 42
-0
  0
VERTEX
  8
0
 10
3047.513916015625
 20
383.59027099609375
 42
0
  0
VERTEX
  8
0
 10
3055.513916015625
 20
373.59027099609375
 42
0
  0
VERTEX
  8
0
 10
3071.513916015625
 20
369.59027099609375
 42
-0
  0
VERTEX
  8
0
 10
3071.513916015625
 20
754.06195068359375
 42
0.19730307161808014
  0
VERTEX
  8
0
 10
3057.088134765625
 20
789.19769287109375
 42
-0
  0
VERTEX
  8
0
 10
2911.513916015625
 20
936.58734130859375
 42
-0
  0
VERTEX
  8
0
 10
2746.510009765625
 20
1067.5941162109375
 42
-0
  0
VERTEX
  8
0
 10
2726.510009765625
 20
1043.5911865234375
 42
-0.088012076914310455
  0
VERTEX
  8
0
 10
2810.513916015625
 20
948.59515380859375
 42
-0
  0
VERTEX
  8
0
 10
2905.513916015625
 20
793.59320068359375
 42
-0
  0
SEQEND
  0
POLYLINE
  8
0
 10
0
 20
0
 39
0
 70
1
 66
1
  0
VERTEX
  8
0
 10
2798.510009765625
 20
647.79998779296875
 42
-0
  0
VERTEX
  8
0
 10
2750.510009765625
 20
1005.8038940429687
 42
0
  0
VERTEX
  8
0
 10
2742.510009765625
 20
1015.8038940429687
 42
0
  0
VERTEX
  8
0
 10
2726.510009765625
 20
1019.8038940429687
 42
-0
  0
VERTEX
  8
0
 10
2726.510009765625
 20
635.33221435546875
 42
0.19730307161808014
  0
VERTEX
  8
0
 10
2740.935791015625
 20
600.19647216796875
 42
-0
  0
VERTEX
  8
0
 10
2886.510009765625
 20
452.80682373046875
 42
-0
  0
VERTEX
  8
0
 10
3051.513916015625
 20
321.79998779296875
 42
-0
  0
VERTEX
  8
0
 10
3071.513916015625
 20
345.80291748046875
 42
-0.088012076914310455
  0
VERTEX
  8
0
 10
2987.510009765625
 20
440.79901123046875
 42
-0
  0
VERTEX
  8
0
 10
2892.510009765625
 20
595.80096435546875
 42
-0
  0
SEQEND
  0
POLYLINE
  8
0
 10
0
 20
0
 39
0
 70
1
 66
1
  0
VERTEX
  8
0
 10
3085.643798828125
 20
1408.524169921875
 42
-0
  0
VERTEX
  8
0
 10
3133.643798828125
 20
1050.520263671875
 42
0
  0
VERTEX
  8
0
 10
3141.643798828125
 20
1040.520263671875
 42
0
  0
VERTEX
  8
0
 10
3157.643798828125
 20
1036.520263671875
 42
-0
  0
VERTEX
  8
0
 10
3157.643798828125
 20
1420.991943359375
 42
0.19730307161808014
  0
VERTEX
  8
0
 10
3143.218017578125
 20
1456.127685546875
 42
-0
  0
VERTEX
  8
0
 10
2997.643798828125
 20
1603.517333984375
 42
-0
  0
VERTEX
  8
0
 10
2832.639892578125
 20
1734.524169921875
 42
-0
  0
VERTEX
  8
0
 10
2812.639892578125
 20
1710.521240234375
 42
-0.088012076914310455
  0
VERTEX
  8
0
 10
2896.643798828125
 20
1615.525146484375
 42
-0
  0
VERTEX
  8
0
 10
2991.643798828125
 20
1460.523193359375
 42
-0
  0
SEQEND
  0
POLYLINE
  8
0
 10
0
 20
0
 39
0
 70
1
 66
1
  0
VERTEX
  8
0
 10
2884.639892578125
 20
1314.72998046875
 42
-0
  0
VERTEX
  8
0
 10
2836.639892578125
 20
1672.73388671875
 42
0
  0
VERTEX
  8
0
 10
2828.639892578125
 20
1682.73388671875
 42
0
  0
VERTEX
  8
0
 10
2812.639892578125
 20
1686.73388671875
 42
-0
  0
VERTEX
  8
0
 10
2812.639892578125
 20
1302.26220703125
 42
0.19730307161808014
  0
VERTEX
  8
0
 10
2827.065673828125
 20
1267.12646484375
 42
-0
  0
VERTEX
  8
0
 10
2972.639892578125
 20
1119.73681640625
 42
-0
  0
VERTEX
  8
0
 10
3137.643798828125
 20
988.72998046875
 42
-0
  0
VERTEX
  8
0
 10
3157.643798828125
 20
1012.73291015625
 42
-0.088012076914310455
  0
VERTEX
  8
0
 10
3073.639892578125
 20
1107.72900390625
 42
-0
  0
VERTEX
  8
0
 10
2978.639892578125
 20
1262.73095703125
 42
-0
  0
SEQEND
  0
POLYLINE
  8
0
 10
0
 20
0
 39
0
 70
1
 66
1
  0
VERTEX
  8
0
 10
485.6217041015625
 20
1496.3599853515625
 42
0
  0
VERTEX
  8
0
 10
461.05999755859375
 20
1496.3599853515625
 42
0
  0
VERTEX
  8
0
 10
461.05999755859375
 20
1190.3599853515625
 42
0
  0
VERTEX
  8
0
 10
484.5889892578125
 20
1190.3599853515625
 42
0
  0
VERTEX
  8
0
 10
601.92645263671875
 20
1233.0673828125
 42
0.31529900431632996
  0
VERTEX
  8
0
 10
617.05999755859375
 20
1254.6802978515625
 42
0
  0
VERTEX
  8
0
 10
617.05999755859375
 20
1301.394775390625
 42
0.15391500294208527
  0
VERTEX
  8
0
 10
612.9005126953125
 20
1314.5870361328125
 42
0
  0
SEQEND
  0
POLYLINE
  8
0
 10
0
 20
0
 39
0
 70
1
 66
1
  0
VERTEX
  8
0
 10
564.05999755859375
 20
1243.8599853515625
 42
-1
  0
VERTEX
  8
0
 10
564.05999755859375
 20
1312.8599853515625
 42
-1
  0
SEQEND
  0
POLYLINE
  8
0
 10
0
 20
0
 39
0
 70
1
 66
1
  0
VERTEX
  8
0
 10
592.498291015625
 20
1361.7584228515625
 42
0
  0
VERTEX
  8
0
 10
617.05999755859375
 20
1361.7584228515625
 42
0
  0
VERTEX
  8
0
 10
617.05999755859375
 20
1667.7584228515625
 42
0
  0
VERTEX
  8
0
 10
593.531005859375
 20
1667.7584228515625
 42
0
  0
VERTEX
  8
0
 10
476.19354248046875
 20
1625.051025390625
 42
0.31529900431632996
  0
VERTEX
  8
0
 10
461.05999755859375
 20
1603.4381103515625
 42
0
  0
VERTEX
  8
0
 10
461.05999755859375
 20
1556.7236328125
 42
0.15391500294208527
  0
VERTEX
  8
0
 10
465.21951293945312
 20
1543.5313720703125
 42
0
  0
SEQEND
  0
POLYLINE
  8
0
 10
0
 20
0
 39
0
 70
1
 66
1
  0
VERTEX
  8
0
 10
514.05999755859375
 20
1614.2584228515625
 42
-1
  0
VERTEX
  8
0
 10
514.05999755859375
 20
1545.2584228515625
 42
-1
  0
SEQEND
  0
POLYLINE
  8
0
 10
0
 20
0
 39
0
 70
1
 66
1
  0
VERTEX
  8
0
 10
1807.6016845703125
 20
316.6099853515625
 42
0
  0
VERTEX
  8
0
 10
1783.0400390625
 20
316.6099853515625
 42
0
  0
VERTEX
  8
0
 10
1783.0400390625
 20
10.609999656677246
 42
0
  0
VERTEX
  8
0
 10
1806.5689697265625
 20
10.609999656677246
 42
0
  0
VERTEX
  8
0
 10
1923.906494140625
 20
53.317352294921875
 42
0.31529900431632996
  0
VERTEX
  8
0
 10
1939.0400390625
 20
74.930282592773438
 42
0
  0
VERTEX
  8
0
 10
1939.0400390625
 20
121.64478302001953
 42
0.15391500294208527
  0
VERTEX
  8
0
 10
1934.8804931640625
 20
134.8370361328125
 42
0
  0
SEQEND
  0
POLYLINE
  8
0
 10
0
 20
0
 39
0
 70
1
 66
1
  0
VERTEX
  8
0
 10
1886.0400390625
 20
64.110000610351562
 42
-1
  0
VERTEX
  8
0
 10
1886.0400390625
 20
133.11000061035156
 42
-1
  0
SEQEND
  0
POLYLINE
  8
0
 10
0
 20
0
 39
0
 70
1
 66
1
  0
VERTEX
  8
0
 10
1914.478271484375
 20
182.00840759277344
 42
0
  0
VERTEX
  8
0
 10
1939.0400390625
 20
182.00840759277344
 42
0
  0
VERTEX
  8
0
 10
1939.0400390625
 20
488.00839233398437
 42
0
  0
VERTEX
  8
0
 10
1915.510986328125
 20
488.00839233398437
 42
0
  0
VERTEX
  8
0
 10
1798.173583984375
 20
445.30105590820312
 42
0.31529900431632996
  0
VERTEX
  8
0
 10
1783.0400390625
 20
423.6881103515625
 42
0
  0
VERTEX
  8
0
 10
1783.0400390625
 20
376.9736328125
 42
0.15391500294208527
  0
VERTEX
  8
0
 10
1787.199462890625
 20
363.7813720703125
 42
0
  0
SEQEND
  0
POLYLINE
  8
0
 10
0
 20
0
 39
0
 70
1
 66
1
  0
VERTEX
  8
0
 10
1836.0400390625
 20
434.50839233398437
 42
-1
  0
VERTEX
  8
0
 10
1836.0400390625
 20
365.50839233398437
 42
-1
  0
SEQEND
  0
POLYLINE
  8
0
 10
0
 20
0
 39
0
 70
1
 66
1
  0
VERTEX
  8
0
 10
35.171699523925781
 20
316.6099853515625
 42
0
  0
VERTEX
  8
0
 10
10.609999656677246
 20
316.6099853515625
 42
0
  0
VERTEX
  8
0
 10
10.609999656677246
 20
10.609999656677246
 42
0
  0
VERTEX
  8
0
 10
34.138980865478516
 20
10.609999656677246
 42
0
  0
VERTEX
  8
0
 10
151.47647094726562
 20
53.317352294921875
 42
0.31529900431632996
  0
VERTEX
  8
0
 10
166.61000061035156
 20
74.930282592773438
 42
0
  0
VERTEX
  8
0
 10
166.61000061035156
 20
121.64478302001953
 42
0.15391500294208527
  0
VERTEX
  8
0
 10
162.45050048828125
 20
134.8370361328125
 42
0
  0
SEQEND
  0
POLYLINE
  8
0
 10
0
 20
0
 39
0
 70
1
 66
1
  0
VERTEX
  8
0
 10
113.61000061035156
 20
64.110000610351562
 42
-1
  0
VERTEX
  8
0
 10
113.61000061035156
 20
133.11000061035156
 42
-1
  0
SEQEND
  0
POLYLINE
  8
0
 10
0
 20
0
 39
0
 70
1
 66
1
  0
VERTEX
  8
0
 10
316.6099853515625
 20
1135.3482666015625
 42
0
  0
VERTEX
  8
0
 10
316.6099853515625
 20
1159.9100341796875
 42
0
  0
VERTEX
  8
0
 10
10.609999656677246
 20
1159.9100341796875
 42
0
  0
VERTEX
  8
0
 10
10.609999656677246
 20
1136.3809814453125
 42
0
  0
VERTEX
  8
0
 10
53.317352294921875
 20
1019.0435180664062
 42
0.31529900431632996
  0
VERTEX
  8
0
 10
74.930282592773438
 20
1003.9099731445312
 42
0
  0
VERTEX
  8
0
 10
121.64478302001953
 20
1003.9099731445312
 42
0.15391500294208527
  0
VERTEX
  8
0
 10
134.8370361328125
 20
1008.0695190429687
 42
0
  0
SEQEND
  0
POLYLINE
  8
0
 10
0
 20
0
 39
0
 70
1
 66
1
  0
VERTEX
  8
0
 10
64.110000610351562
 20
1056.9100341796875
 42
-1
  0
VERTEX
  8
0
 10
133.11000061035156
 20
1056.9100341796875
 42
-1
  0
SEQEND
  0
POLYLINE
  8
0
 10
0
 20
0
 39
0
 70
1
 66
1
  0
VERTEX
  8
0
 10
262.73001098632812
 20
930.46173095703125
 42
0
  0
VERTEX
  8
0
 10
262.73001098632812
 20
905.9000244140625
 42
0
  0
VERTEX
  8
0
 10
568.72998046875
 20
905.9000244140625
 42
0
  0
VERTEX
  8
0
 10
568.72998046875
 20
929.428955078125
 42
0
  0
VERTEX
  8
0
 10
526.02264404296875
 20
1046.7664794921875
 42
0.31529900431632996
  0
VERTEX
  8
0
 10
504.40972900390625
 20
1061.9000244140625
 42
0
  0
VERTEX
  8
0
 10
457.69522094726562
 20
1061.9000244140625
 42
0.15391500294208527
  0
VERTEX
  8
0
 10
444.50296020507812
 20
1057.740478515625
 42
0
  0
SEQEND
  0
POLYLINE
  8
0
 10
0
 20
0
 39
0
 70
1
 66
1
  0
VERTEX
  8
0
 10
515.22998046875
 20
1008.9000244140625
 42
-1
  0
VERTEX
  8
0
 10
446.23001098632812
 20
1008.9000244140625
 42
-1
  0
SEQEND
  0
POLYLINE
  8
0
 10
0
 20
0
 39
0
 70
1
 66
1
  0
VERTEX
  8
0
 10
699.40997314453125
 20
270.748291015625
 42
0
  0
VERTEX
  8
0
 10
699.40997314453125
 20
295.30999755859375
 42
0
  0
VERTEX
  8
0
 10
393.41000366210937
 20
295.30999755859375
 42
0
  0
VERTEX
  8
0
 10
393.41000366210937
 20
271.781005859375
 42
0
  0
VERTEX
  8
0
 10
436.11734008789062
 20
154.44352722167969
 42
0.31529900431632996
  0
VERTEX
  8
0
 10
457.73028564453125
 20
139.30999755859375
 42
0
  0
VERTEX
  8
0
 10
504.44479370117187
 20
139.30999755859375
 42
0.15391500294208527
  0
VERTEX
  8
0
 10
517.63702392578125
 20
143.46949768066406
 42
0
  0
SEQEND
  0
POLYLINE
  8
0
 10
0
 20
0
 39
0
 70
1
 66
1
  0
VERTEX
  8
0
 10
446.91000366210937
 20
192.30999755859375
 42
-1
  0
VERTEX
  8
0
 10
515.90997314453125
 20
192.30999755859375
 42
-1
  0
SEQEND
  0
POLYLINE
  8
0
 10
0
 20
0
 39
0
 70
1
 66
1
  0
VERTEX
  8
0
 10
734.44171142578125
 20
449.92999267578125
 42
0
  0
VERTEX
  8
0
 10
709.8800048828125
 20
449.92999267578125
 42
0
  0
VERTEX
  8
0
 10
709.8800048828125
 20
143.92999267578125
 42
0
  0
VERTEX
  8
0
 10
733.40899658203125
 20
143.92999267578125
 42
0
  0
VERTEX
  8
0
 10
850.7464599609375
 20
186.63734436035156
 42
0.31529900431632996
  0
VERTEX
  8
0
 10
865.8800048828125
 20
208.25027465820313
 42
0
  0
VERTEX
  8
0
 10
865.8800048828125
 20
254.96478271484375
 42
0.15391500294208527
  0
VERTEX
  8
0
 10
861.72052001953125
 20
268.15704345703125
 42
0
  0
SEQEND
  0
POLYLINE
  8
0
 10
0
 20
0
 39
0
 70
1
 66
1
  0
VERTEX
  8
0
 10
812.8800048828125
 20
197.42999267578125
 42
-1
  0
VERTEX
  8
0
 10
812.8800048828125
 20
266.42999267578125
 42
-1
  0
SEQEND
  0
POLYLINE
  8
0
 10
0
 20
0
 39
0
 70
1
 66
1
  0
VERTEX
  8
0
 10
1048.228271484375
 20
1483.4000244140625
 42
0
  0
VERTEX
  8
0
 10
1072.7900390625
 20
1483.4000244140625
 42
0
  0
VERTEX
  8
0
 10
1072.7900390625
 20
1789.4000244140625
 42
0
  0
VERTEX
  8
0
 10
1049.260986328125
 20
1789.4000244140625
 42
0
  0
VERTEX
  8
0
 10
931.92352294921875
 20
1746.692626953125
 42
0.31529900431632996
  0
VERTEX
  8
0
 10
916.78997802734375
 20
1725.0797119140625
 42
0
  0
VERTEX
  8
0
 10
916.78997802734375
 20
1678.365234375
 42
0.15391500294208527
  0
VERTEX
  8
0
 10
920.94952392578125
 20
1665.1729736328125
 42
0
  0
SEQEND
  0
POLYLINE
  8
0
 10
0
 20
0
 39
0
 70
1
 66
1
  0
VERTEX
  8
0
 10
969.78997802734375
 20
1735.9000244140625
 42
-1
  0
VERTEX
  8
0
 10
969.78997802734375
 20
1666.9000244140625
 42
-1
  0
SEQEND
  0
POLYLINE
  8
0
 10
0
 20
0
 39
0
 70
1
 66
1
  0
VERTEX
  8
0
 10
840.8900146484375
 20
35.171699523925781
 42
0
  0
VERTEX
  8
0
 10
840.8900146484375
 20
10.609999656677246
 42
0
  0
VERTEX
  8
0
 10
1146.8900146484375
 20
10.609999656677246
 42
0
  0
VERTEX
  8
0
 10
1146.8900146484375
 20
34.138980865478516
 42
0
  0
VERTEX
  8
0
 10
1104.1826171875
 20
151.47647094726562
 42
0.31529900431632996
  0
VERTEX
  8
0
 10
1082.5697021484375
 20
166.61000061035156
 42
0
  0
VERTEX
  8
0
 10
1035.855224609375
 20
166.61000061035156
 42
0.15391500294208527
  0
VERTEX
  8
0
 10
1022.6629638671875
 20
162.45050048828125
 42
0
  0
SEQEND
  0
POLYLINE
  8
0
 10
0
 20
0
 39
0
 70
1
 66
1
  0
VERTEX
  8
0
 10
1093.3900146484375
 20
113.61000061035156
 42
-1
  0
VERTEX
  8
0
 10
1024.3900146484375
 20
113.61000061035156
 42
-1
  0
SEQEND
  0
POLYLINE
  8
0
 10
0
 20
0
 39
0
 70
1
 66
1
  0
VERTEX
  8
0
 10
1389.43994140625
 20
1764.3282470703125
 42
0
  0
VERTEX
  8
0
 10
1389.43994140625
 20
1788.8900146484375
 42
0
  0
VERTEX
  8
0
 10
1083.43994140625
 20
1788.8900146484375
 42
0
  0
VERTEX
  8
0
 10
1083.43994140625
 20
1765.3609619140625
 42
0
  0
VERTEX
  8
0
 10
1126.1473388671875
 20
1648.0235595703125
 42
0.31529900431632996
  0
VERTEX
  8
0
 10
1147.76025390625
 20
1632.8900146484375
 42
0
  0
VERTEX
  8
0
 10
1194.4747314453125
 20
1632.8900146484375
 42
0.15391500294208527
  0
VERTEX
  8
0
 10
1207.6669921875
 20
1637.049560546875
 42
0
  0
SEQEND
  0
POLYLINE
  8
0
 10
0
 20
0
 39
0
 70
1
 66
1
  0
VERTEX
  8
0
 10
1136.93994140625
 20
1685.8900146484375
 42
-1
  0
VERTEX
  8
0
 10
1205.93994140625
 20
1685.8900146484375
 42
-1
  0
SEQEND
  0
POLYLINE
  8
0
 10
0
 20
0
 39
0
 70
1
 66
1
  0
VERTEX
  8
0
 10
1190.3599853515625
 20
485.29168701171875
 42
0
  0
VERTEX
  8
0
 10
1190.3599853515625
 20
460.73001098632812
 42
0
  0
VERTEX
  8
0
 10
1496.3599853515625
 20
460.73001098632812
 42
0
  0
VERTEX
  8
0
 10
1496.3599853515625
 20
484.25897216796875
 42
0
  0
VERTEX
  8
0
 10
1453.652587890625
 20
601.59649658203125
 42
0.31529900431632996
  0
VERTEX
  8
0
 10
1432.0396728515625
 20
616.72998046875
 42
0
  0
VERTEX
  8
0
 10
1385.3251953125
 20
616.72998046875
 42
0.15391500294208527
  0
VERTEX
  8
0
 10
1372.1329345703125
 20
612.57049560546875
 42
0
  0
SEQEND
  0
POLYLINE
  8
0
 10
0
 20
0
 39
0
 70
1
 66
1
  0
VERTEX
  8
0
 10
1442.8599853515625
 20
563.72998046875
 42
-1
  0
VERTEX
  8
0
 10
1373.8599853515625
 20
563.72998046875
 42
-1
  0
SEQEND
  0
POLYLINE
  8
0
 10
0
 20
0
 39
0
 70
1
 66
1
  0
VERTEX
  8
0
 10
1292.3299560546875
 20
1529.0816650390625
 42
0
  0
VERTEX
  8
0
 10
1292.3299560546875
 20
1504.52001953125
 42
0
  0
VERTEX
  8
0
 10
1598.3299560546875
 20
1504.52001953125
 42
0
  0
VERTEX
  8
0
 10
1598.3299560546875
 20
1528.0489501953125
 42
0
  0
VERTEX
  8
0
 10
1555.6226806640625
 20
1645.386474609375
 42
0.31529900431632996
  0
VERTEX
  8
0
 10
1534.009765625
 20
1660.52001953125
 42
0
  0
VERTEX
  8
0
 10
1487.295166015625
 20
1660.52001953125
 42
0.15391500294208527
  0
VERTEX
  8
0
 10
1474.1029052734375
 20
1656.3604736328125
 42
0
  0
SEQEND
  0
POLYLINE
  8
0
 10
0
 20
0
 39
0
 70
1
 66
1
  0
VERTEX
  8
0
 10
1544.8299560546875
 20
1607.52001953125
 42
-1
  0
VERTEX
  8
0
 10
1475.8299560546875
 20
1607.52001953125
 42
-1
  0
SEQEND
  0
POLYLINE
  8
0
 10
0
 20
0
 39
0
 70
1
 66
1
  0
VERTEX
  8
0
 10
1729.010009765625
 20
869.3682861328125
 42
0
  0
VERTEX
  8
0
 10
1729.010009765625
 20
893.92999267578125
 42
0
  0
VERTEX
  8
0
 10
1423.010009765625
 20
893.92999267578125
 42
0
  0
VERTEX
  8
0
 10
1423.010009765625
 20
870.4010009765625
 42
0
  0
VERTEX
  8
0
 10
1465.7174072265625
 20
753.06353759765625
 42
0.31529900431632996
  0
VERTEX
  8
0
 10
1487.330322265625
 20
737.92999267578125
 42
0
  0
VERTEX
  8
0
 10
1534.0447998046875
 20
737.92999267578125
 42
0.15391500294208527
  0
VERTEX
  8
0
 10
1547.237060546875
 20
742.0894775390625
 42
0
  0
SEQEND
  0
POLYLINE
  8
0
 10
0
 20
0
 39
0
 70
1
 66
1
  0
VERTEX
  8
0
 10
1476.510009765625
 20
790.92999267578125
 42
-1
  0
VERTEX
  8
0
 10
1545.510009765625
 20
790.92999267578125
 42
-1
  0
SEQEND
  0
POLYLINE
  8
0
 10
0
 20
0
 39
0
 70
1
 66
1
  0
VERTEX
  8
0
 10
1764.041748046875
 20
1048.550048828125
 42
0
  0
VERTEX
  8
0
 10
1739.47998046875
 20
1048.550048828125
 42
0
  0
VERTEX
  8
0
 10
1739.47998046875
 20
742.54998779296875
 42
0
  0
VERTEX
  8
0
 10
1763.009033203125
 20
742.54998779296875
 42
0
  0
VERTEX
  8
0
 10
1880.346435546875
 20
785.25732421875
 42
0.31529900431632996
  0
VERTEX
  8
0
 10
1895.47998046875
 20
806.87030029296875
 42
0
  0
VERTEX
  8
0
 10
1895.47998046875
 20
853.58477783203125
 42
0.15391500294208527
  0
VERTEX
  8
0
 10
1891.320556640625
 20
866.77703857421875
 42
0
  0
SEQEND
  0
POLYLINE
  8
0
 10
0
 20
0
 39
0
 70
1
 66
1
  0
VERTEX
  8
0
 10
1842.47998046875
 20
796.04998779296875
 42
-1
  0
VERTEX
  8
0
 10
1842.47998046875
 20
865.04998779296875
 42
-1
  0
SEQEND
  0
POLYLINE
  8
0
 10
0
 20
0
 39
0
 70
1
 66
1
  0
VERTEX
  8
0
 10
1692.949951171875
 20
522.58172607421875
 42
0
  0
VERTEX
  8
0
 10
1692.949951171875
 20
498.01998901367187
 42
0
  0
VERTEX
  8
0
 10
1998.949951171875
 20
498.01998901367187
 42
0
  0
VERTEX
  8
0
 10
1998.949951171875
 20
521.5489501953125
 42
0
  0
VERTEX
  8
0
 10
1956.24267578125
 20
638.886474609375
 42
0.31529900431632996
  0
VERTEX
  8
0
 10
1934.6297607421875
 20
654.02001953125
 42
0
  0
VERTEX
  8
0
 10
1887.9151611328125
 20
654.02001953125
 42
0.15391500294208527
  0
VERTEX
  8
0
 10
1874.722900390625
 20
649.8604736328125
 42
0
  0
SEQEND
  0
POLYLINE
  8
0
 10
0
 20
0
 39
0
 70
1
 66
1
  0
VERTEX
  8
0
 10
1945.449951171875
 20
601.02001953125
 42
-1
  0
VERTEX
  8
0
 10
1876.449951171875
 20
601.02001953125
 42
-1
  0
SEQEND
  0
POLYLINE
  8
0
 10
0
 20
0
 39
0
 70
1
 66
1
  0
VERTEX
  8
0
 10
1974.251708984375
 20
316.6099853515625
 42
0
  0
VERTEX
  8
0
 10
1949.68994140625
 20
316.6099853515625
 42
0
  0
VERTEX
  8
0
 10
1949.68994140625
 20
10.609999656677246
 42
0
  0
VERTEX
  8
0
 10
1973.218994140625
 20
10.609999656677246
 42
0
  0
VERTEX
  8
0
 10
2090.556396484375
 20
53.317352294921875
 42
0.31529900431632996
  0
VERTEX
  8
0
 10
2105.68994140625
 20
74.930282592773438
 42
0
  0
VERTEX
  8
0
 10
2105.68994140625
 20
121.64478302001953
 42
0.15391500294208527
  0
VERTEX
  8
0
 10
2101.530517578125
 20
134.8370361328125
 42
0
  0
SEQEND
  0
POLYLINE
  8
0
 10
0
 20
0
 39
0
 70
1
 66
1
  0
VERTEX
  8
0
 10
2052.68994140625
 20
64.110000610351562
 42
-1
  0
VERTEX
  8
0
 10
2052.68994140625
 20
133.11000061035156
 42
-1
  0
SEQEND
  0
POLYLINE
  8
0
 10
0
 20
0
 39
0
 70
1
 66
1
  0
VERTEX
  8
0
 10
2164.9482421875
 20
1483.4000244140625
 42
0
  0
VERTEX
  8
0
 10
2189.510009765625
 20
1483.4000244140625
 42
0
  0
VERTEX
  8
0
 10
2189.510009765625
 20
1789.4000244140625
 42
0
  0
VERTEX
  8
0
 10
2165.98095703125
 20
1789.4000244140625
 42
0
  0
VERTEX
  8
0
 10
2048.6435546875
 20
1746.692626953125
 42
0.31529900431632996
  0
VERTEX
  8
0
 10
2033.510009765625
 20
1725.0797119140625
 42
0
  0
VERTEX
  8
0
 10
2033.510009765625
 20
1678.365234375
 42
0.15391500294208527
  0
VERTEX
  8
0
 10
2037.6695556640625
 20
1665.1729736328125
 42
0
  0
SEQEND
  0
POLYLINE
  8
0
 10
0
 20
0
 39
0
 70
1
 66
1
  0
VERTEX
  8
0
 10
2086.510009765625
 20
1735.9000244140625
 42
-1
  0
VERTEX
  8
0
 10
2086.510009765625
 20
1666.9000244140625
 42
-1
  0
SEQEND
  0
POLYLINE
  8
0
 10
0
 20
0
 39
0
 70
1
 66
1
  0
VERTEX
  8
0
 10
2525.9599609375
 20
1312.8883056640625
 42
0
  0
VERTEX
  8
0
 10
2525.9599609375
 20
1337.449951171875
 42
0
  0
VERTEX
  8
0
 10
2219.9599609375
 20
1337.449951171875
 42
0
  0
VERTEX
  8
0
 10
2219.9599609375
 20
1313.9210205078125
 42
0
  0
VERTEX
  8
0
 10
2262.667236328125
 20
1196.58349609375
 42
0.31529900431632996
  0
VERTEX
  8
0
 10
2284.2802734375
 20
1181.449951171875
 42
0
  0
VERTEX
  8
0
 10
2330.994873046875
 20
1181.449951171875
 42
0.15391500294208527
  0
VERTEX
  8
0
 10
2344.18701171875
 20
1185.6094970703125
 42
0
  0
SEQEND
  0
POLYLINE
  8
0
 10
0
 20
0
 39
0
 70
1
 66
1
  0
VERTEX
  8
0
 10
2273.4599609375
 20
1234.449951171875
 42
-1
  0
VERTEX
  8
0
 10
2342.4599609375
 20
1234.449951171875
 42
-1
  0
SEQEND
  0
POLYLINE
  8
0
 10
0
 20
0
 39
0
 70
1
 66
1
  0
VERTEX
  8
0
 10
2321.929931640625
 20
930.46173095703125
 42
0
  0
VERTEX
  8
0
 10
2321.929931640625
 20
905.9000244140625
 42
0
  0
VERTEX
  8
0
 10
2627.929931640625
 20
905.9000244140625
 42
0
  0
VERTEX
  8
0
 10
2627.929931640625
 20
929.428955078125
 42
0
  0
VERTEX
  8
0
 10
2585.22265625
 20
1046.7664794921875
 42
0.31529900431632996
  0
VERTEX
  8
0
 10
2563.609619140625
 20
1061.9000244140625
 42
0
  0
VERTEX
  8
0
 10
2516.895263671875
 20
1061.9000244140625
 42
0.15391500294208527
  0
VERTEX
  8
0
 10
2503.702880859375
 20
1057.740478515625
 42
0
  0
SEQEND
  0
POLYLINE
  8
0
 10
0
 20
0
 39
0
 70
1
 66
1
  0
VERTEX
  8
0
 10
2574.429931640625
 20
1008.9000244140625
 42
-1
  0
VERTEX
  8
0
 10
2505.429931640625
 20
1008.9000244140625
 42
-1
  0
SEQEND
  0
POLYLINE
  8
0
 10
0
 20
0
 39
0
 70
1
 66
1
  0
VERTEX
  8
0
 10
2758.610107421875
 20
270.748291015625
 42
0
  0
VERTEX
  8
0
 10
2758.610107421875
 20
295.30999755859375
 42
0
  0
VERTEX
  8
0
 10
2452.610107421875
 20
295.30999755859375
 42
0
  0
VERTEX
  8
0
 10
2452.610107421875
 20
271.781005859375
 42
0
  0
VERTEX
  8
0
 10
2495.3173828125
 20
154.44352722167969
 42
0.31529900431632996
  0
VERTEX
  8
0
 10
2516.93017578125
 20
139.30999755859375
 42
0
  0
VERTEX
  8
0
 10
2563.644775390625
 20
139.30999755859375
 42
0.15391500294208527
  0
VERTEX
  8
0
 10
2576.837158203125
 20
143.46949768066406
 42
0
  0
SEQEND
  0
POLYLINE
  8
0
 10
0
 20
0
 39
0
 70
1
 66
1
  0
VERTEX
  8
0
 10
2506.110107421875
 20
192.30999755859375
 42
-1
  0
VERTEX
  8
0
 10
2575.110107421875
 20
192.30999755859375
 42
-1
  0
SEQEND
  0
POLYLINE
  8
0
 10
0
 20
0
 39
0
 70
1
 66
1
  0
VERTEX
  8
0
 10
470.72784423828125
 20
1652.175537109375
 42
0.36246499419212341
  0
VERTEX
  8
0
 10
475.64718627929687
 20
1648.0699462890625
 42
0
  0
VERTEX
  8
0
 10
506.97802734375
 20
1648.0699462890625
 42
0
  0
VERTEX
  8
0
 10
506.97802734375
 20
1669.5699462890625
 42
0
  0
VERTEX
  8
0
 10
518.97802734375
 20
1669.5699462890625
 42
0
  0
VERTEX
  8
0
 10
518.97802734375
 20
1684.0699462890625
 42
-0.41421398520469666
  0
VERTEX
  8
0
 10
519.97802734375
 20
1685.0699462890625
 42
0
  0
VERTEX
  8
0
 10
642.220703125
 20
1685.0699462890625
 42
0
  0
VERTEX
  8
0
 10
646.97802734375
 20
1689.827392578125
 42
0
  0
VERTEX
  8
0
 10
646.97802734375
 20
1722.3126220703125
 42
0
  0
VERTEX
  8
0
 10
642.220703125
 20
1727.0699462890625
 42
0
  0
VERTEX
  8
0
 10
519.97802734375
 20
1727.0699462890625
 42
-0.41421398520469666
  0
VERTEX
  8
0
 10
518.97802734375
 20
1728.0699462890625
 42
0
  0
VERTEX
  8
0
 10
518.97802734375
 20
1742.5699462890625
 42
0
  0
VERTEX
  8
0
 10
506.97802734375
 20
1742.5699462890625
 42
0
  0
VERTEX
  8
0
 10
506.97802734375
 20
1764.0699462890625
 42
0
  0
VERTEX
  8
0
 10
475.64718627929687
 20
1764.0699462890625
 42
0.36246499419212341
  0
VERTEX
  8
0
 10
470.72784423828125
 20
1759.9644775390625
 42
0
  0
VERTEX
  8
0
 10
461.18902587890625
 20
1707.5010986328125
 42
0.090170003473758698
  0
VERTEX
  8
0
 10
461.18902587890625
 20
1704.638916015625
 42
0
  0
SEQEND
  0
POLYLINE
  8
0
 10
0
 20
0
 39
0
 70
1
 66
1
  0
VERTEX
  8
0
 10
750.56781005859375
 20
664.15557861328125
 42
0.36246499419212341
  0
VERTEX
  8
0
 10
755.4871826171875
 20
660.04998779296875
 42
0
  0
VERTEX
  8
0
 10
786.81805419921875
 20
660.04998779296875
 42
0
  0
VERTEX
  8
0
 10
786.81805419921875
 20
681.54998779296875
 42
0
  0
VERTEX
  8
0
 10
798.81805419921875
 20
681.54998779296875
 42
0
  0
VERTEX
  8
0
 10
798.81805419921875
 20
696.04998779296875
 42
-0.41421398520469666
  0
VERTEX
  8
0
 10
799.81805419921875
 20
697.04998779296875
 42
0
  0
VERTEX
  8
0
 10
922.0606689453125
 20
697.04998779296875
 42
0
  0
VERTEX
  8
0
 10
926.81805419921875
 20
701.807373046875
 42
0
  0
VERTEX
  8
0
 10
926.81805419921875
 20
734.29266357421875
 42
0
  0
VERTEX
  8
0
 10
922.0606689453125
 20
739.04998779296875
 42
0
  0
VERTEX
  8
0
 10
799.81805419921875
 20
739.04998779296875
 42
-0.41421398520469666
  0
VERTEX
  8
0
 10
798.81805419921875
 20
740.04998779296875
 42
0
  0
VERTEX
  8
0
 10
798.81805419921875
 20
754.54998779296875
 42
0
  0
VERTEX
  8
0
 10
786.81805419921875
 20
754.54998779296875
 42
0
  0
VERTEX
  8
0
 10
786.81805419921875
 20
776.04998779296875
 42
0
  0
VERTEX
  8
0
 10
755.4871826171875
 20
776.04998779296875
 42
0.36246499419212341
  0
VERTEX
  8
0
 10
750.56781005859375
 20
771.94439697265625
 42
0
  0
VERTEX
  8
0
 10
741.029052734375
 20
719.4810791015625
 42
0.090170003473758698
  0
VERTEX
  8
0
 10
741.029052734375
 20
716.618896484375
 42
0
  0
SEQEND
  0
POLYLINE
  8
0
 10
0
 20
0
 39
0
 70
1
 66
1
  0
VERTEX
  8
0
 10
767.3978271484375
 20
1385.8656005859375
 42
0.36246499419212341
  0
VERTEX
  8
0
 10
772.31719970703125
 20
1381.760009765625
 42
0
  0
VERTEX
  8
0
 10
803.64801025390625
 20
1381.760009765625
 42
0
  0
VERTEX
  8
0
 10
803.64801025390625
 20
1403.260009765625
 42
0
  0
VERTEX
  8
0
 10
815.64801025390625
 20
1403.260009765625
 42
0
  0
VERTEX
  8
0
 10
815.64801025390625
 20
1417.760009765625
 42
-0.41421398520469666
  0
VERTEX
  8
0
 10
816.64801025390625
 20
1418.760009765625
 42
0
  0
VERTEX
  8
0
 10
938.89068603515625
 20
1418.760009765625
 42
0
  0
VERTEX
  8
0
 10
943.64801025390625
 20
1423.517333984375
 42
0
  0
VERTEX
  8
0
 10
943.64801025390625
 20
1456.002685546875
 42
0
  0
VERTEX
  8
0
 10
938.89068603515625
 20
1460.760009765625
 42
0
  0
VERTEX
  8
0
 10
816.64801025390625
 20
1460.760009765625
 42
-0.41421398520469666
  0
VERTEX
  8
0
 10
815.64801025390625
 20
1461.760009765625
 42
0
  0
VERTEX
  8
0
 10
815.64801025390625
 20
1476.260009765625
 42
0
  0
VERTEX
  8
0
 10
803.64801025390625
 20
1476.260009765625
 42
0
  0
VERTEX
  8
0
 10
803.64801025390625
 20
1497.760009765625
 42
0
  0
VERTEX
  8
0
 10
772.31719970703125
 20
1497.760009765625
 42
0.36246499419212341
  0
VERTEX
  8
0
 10
767.3978271484375
 20
1493.6544189453125
 42
0
  0
VERTEX
  8
0
 10
757.85906982421875
 20
1441.1910400390625
 42
0.090170003473758698
  0
VERTEX
  8
0
 10
757.85906982421875
 20
1438.328857421875
 42
0
  0
SEQEND
  0
POLYLINE
  8
0
 10
0
 20
0
 39
0
 70
1
 66
1
  0
VERTEX
  8
0
 10
1669.5501708984375
 20
594.73443603515625
 42
0.36246499419212341
  0
VERTEX
  8
0
 10
1664.630859375
 20
598.84002685546875
 42
0
  0
VERTEX
  8
0
 10
1633.300048828125
 20
598.84002685546875
 42
0
  0
VERTEX
  8
0
 10
1633.300048828125
 20
577.34002685546875
 42
0
  0
VERTEX
  8
0
 10
1621.300048828125
 20
577.34002685546875
 42
0
  0
VERTEX
  8
0
 10
1621.300048828125
 20
562.84002685546875
 42
-0.41421398520469666
  0
VERTEX
  8
0
 10
1620.300048828125
 20
561.84002685546875
 42
0
  0
VERTEX
  8
0
 10
1498.057373046875
 20
561.84002685546875
 42
0
  0
VERTEX
  8
0
 10
1493.300048828125
 20
557.0826416015625
 42
0
  0
VERTEX
  8
0
 10
1493.300048828125
 20
524.59735107421875
 42
0
  0
VERTEX
  8
0
 10
1498.057373046875
 20
519.84002685546875
 42
0
  0
VERTEX
  8
0
 10
1620.300048828125
 20
519.84002685546875
 42
-0.41421398520469666
  0
VERTEX
  8
0
 10
1621.300048828125
 20
518.84002685546875
 42
0
  0
VERTEX
  8
0
 10
1621.300048828125
 20
504.33999633789062
 42
0
  0
VERTEX
  8
0
 10
1633.300048828125
 20
504.33999633789062
 42
0
  0
VERTEX
  8
0
 10
1633.300048828125
 20
482.83999633789062
 42
0
  0
VERTEX
  8
0
 10
1664.630859375
 20
482.83999633789062
 42
0.36246499419212341
  0
VERTEX
  8
0
 10
1669.5501708984375
 20
486.94558715820312
 42
0
  0
VERTEX
  8
0
 10
1679.0889892578125
 20
539.408935546875
 42
0.090170003473758698
  0
VERTEX
  8
0
 10
1679.0889892578125
 20
542.27105712890625
 42
0
  0
SEQEND
  0
POLYLINE
  8
0
 10
0
 20
0
 39
0
 70
1
 66
1
  0
VERTEX
  8
0
 10
1780.1678466796875
 20
1262.775634765625
 42
0.36246499419212341
  0
VERTEX
  8
0
 10
1785.087158203125
 20
1258.6700439453125
 42
0
  0
VERTEX
  8
0
 10
1816.41796875
 20
1258.6700439453125
 42
0
  0
VERTEX
  8
0
 10
1816.41796875
 20
1280.1700439453125
 42
0
  0
VERTEX
  8
0
 10
1828.41796875
 20
1280.1700439453125
 42
0
  0
VERTEX
  8
0
 10
1828.41796875
 20
1294.6700439453125
 42
-0.41421398520469666
  0
VERTEX
  8
0
 10
1829.41796875
 20
1295.6700439453125
 42
0
  0
VERTEX
  8
0
 10
1951.66064453125
 20
1295.6700439453125
 42
0
  0
VERTEX
  8
0
 10
1956.41796875
 20
1300.4273681640625
 42
0
  0
VERTEX
  8
0
 10
1956.41796875
 20
1332.91259765625
 42
0
  0
VERTEX
  8
0
 10
1951.66064453125
 20
1337.6700439453125
 42
0
  0
VERTEX
  8
0
 10
1829.41796875
 20
1337.6700439453125
 42
-0.41421398520469666
  0
VERTEX
  8
0
 10
1828.41796875
 20
1338.6700439453125
 42
0
  0
VERTEX
  8
0
 10
1828.41796875
 20
1353.1700439453125
 42
0
  0
VERTEX
  8
0
 10
1816.41796875
 20
1353.1700439453125
 42
0
  0
VERTEX
  8
0
 10
1816.41796875
 20
1374.6700439453125
 42
0
  0
VERTEX
  8
0
 10
1785.087158203125
 20
1374.6700439453125
 42
0.36246499419212341
  0
VERTEX
  8
0
 10
1780.1678466796875
 20
1370.564453125
 42
0
  0
VERTEX
  8
0
 10
1770.6290283203125
 20
1318.10107421875
 42
0.090170003473758698
  0
VERTEX
  8
0
 10
1770.6290283203125
 20
1315.2388916015625
 42
0
  0
SEQEND
  0
POLYLINE
  8
0
 10
0
 20
0
 39
0
 70
1
 66
1
  0
VERTEX
  8
0
 10
2084.684326171875
 20
327.17782592773437
 42
0.36246499419212341
  0
VERTEX
  8
0
 10
2088.7900390625
 20
332.09716796875
 42
0
  0
VERTEX
  8
0
 10
2088.7900390625
 20
363.42803955078125
 42
0
  0
VERTEX
  8
0
 10
2067.2900390625
 20
363.42803955078125
 42
0
  0
VERTEX
  8
0
 10
2067.2900390625
 20
375.42803955078125
 42
0
  0
VERTEX
  8
0
 10
2052.7900390625
 20
375.42803955078125
 42
-0.41421398520469666
  0
VERTEX
  8
0
 10
2051.7900390625
 20
376.42803955078125
 42
0
  0
VERTEX
  8
0
 10
2051.7900390625
 20
498.67068481445312
 42
0
  0
VERTEX
  8
0
 10
2047.0325927734375
 20
503.42803955078125
 42
0
  0
VERTEX
  8
0
 10
2014.54736328125
 20
503.42803955078125
 42
0
  0
VERTEX
  8
0
 10
2009.7900390625
 20
498.67068481445312
 42
0
  0
VERTEX
  8
0
 10
2009.7900390625
 20
376.42803955078125
 42
-0.41421398520469666
  0
VERTEX
  8
0
 10
2008.7900390625
 20
375.42803955078125
 42
0
  0
VERTEX
  8
0
 10
1994.2900390625
 20
375.42803955078125
 42
0
  0
VERTEX
  8
0
 10
1994.2900390625
 20
363.42803955078125
 42
0
  0
VERTEX
  8
0
 10
1972.7900390625
 20
363.42803955078125
 42
0
  0
VERTEX
  8
0
 10
1972.7900390625
 20
332.09716796875
 42
0.36246499419212341
  0
VERTEX
  8
0
 10
1976.8956298828125
 20
327.17782592773437
 42
0
  0
VERTEX
  8
0
 10
2029.35888671875
 20
317.6390380859375
 42
0.090170003473758698
  0
VERTEX
  8
0
 10
2032.2210693359375
 20
317.6390380859375
 42
0
  0
SEQEND
  0
POLYLINE
  8
0
 10
0
 20
0
 39
0
 70
1
 66
1
  0
VERTEX
  8
0
 10
2083.815673828125
 20
221.18019104003906
 42
0.36246499419212341
  0
VERTEX
  8
0
 10
2079.7099609375
 20
216.26084899902344
 42
0
  0
VERTEX
  8
0
 10
2079.7099609375
 20
184.92999267578125
 42
0
  0
VERTEX
  8
0
 10
2101.2099609375
 20
184.92999267578125
 42
0
  0
VERTEX
  8
0
 10
2101.2099609375
 20
172.92999267578125
 42
0
  0
VERTEX
  8
0
 10
2115.7099609375
 20
172.92999267578125
 42
-0.41421398520469666
  0
VERTEX
  8
0
 10
2116.7099609375
 20
171.92999267578125
 42
0
  0
VERTEX
  8
0
 10
2116.7099609375
 20
49.687355041503906
 42
0
  0
VERTEX
  8
0
 10
2121.46728515625
 20
44.930000305175781
 42
0
  0
VERTEX
  8
0
 10
2153.95263671875
 20
44.930000305175781
 42
0
  0
VERTEX
  8
0
 10
2158.7099609375
 20
49.687355041503906
 42
0
  0
VERTEX
  8
0
 10
2158.7099609375
 20
171.92999267578125
 42
-0.41421398520469666
  0
VERTEX
  8
0
 10
2159.7099609375
 20
172.92999267578125
 42
0
  0
VERTEX
  8
0
 10
2174.2099609375
 20
172.92999267578125
 42
0
  0
VERTEX
  8
0
 10
2174.2099609375
 20
184.92999267578125
 42
0
  0
VERTEX
  8
0
 10
2195.7099609375
 20
184.92999267578125
 42
0
  0
VERTEX
  8
0
 10
2195.7099609375
 20
216.26084899902344
 42
0.36246499419212341
  0
VERTEX
  8
0
 10
2191.6044921875
 20
221.18019104003906
 42
0
  0
VERTEX
  8
0
 10
2139.14111328125
 20
230.718994140625
 42
0.090170003473758698
  0
VERTEX
  8
0
 10
2136.27880859375
 20
230.718994140625
 42
0
  0
SEQEND
  0
POLYLINE
  8
0
 10
0
 20
0
 39
0
 70
1
 66
1
  0
VERTEX
  8
0
 10
2669.7802734375
 20
1312.814453125
 42
0.36246499419212341
  0
VERTEX
  8
0
 10
2664.86083984375
 20
1316.9200439453125
 42
0
  0
VERTEX
  8
0
 10
2633.530029296875
 20
1316.9200439453125
 42
0
  0
VERTEX
  8
0
 10
2633.530029296875
 20
1295.4200439453125
 42
0
  0
VERTEX
  8
0
 10
2621.530029296875
 20
1295.4200439453125
 42
0
  0
VERTEX
  8
0
 10
2621.530029296875
 20
1280.9200439453125
 42
-0.41421398520469666
  0
VERTEX
  8
0
 10
2620.530029296875
 20
1279.9200439453125
 42
0
  0
VERTEX
  8
0
 10
2498.287353515625
 20
1279.9200439453125
 42
0
  0
VERTEX
  8
0
 10
2493.530029296875
 20
1275.16259765625
 42
0
  0
VERTEX
  8
0
 10
2493.530029296875
 20
1242.6773681640625
 42
0
  0
VERTEX
  8
0
 10
2498.287353515625
 20
1237.9200439453125
 42
0
  0
VERTEX
  8
0
 10
2620.530029296875
 20
1237.9200439453125
 42
-0.41421398520469666
  0
VERTEX
  8
0
 10
2621.530029296875
 20
1236.9200439453125
 42
0
  0
VERTEX
  8
0
 10
2621.530029296875
 20
1222.4200439453125
 42
0
  0
VERTEX
  8
0
 10
2633.530029296875
 20
1222.4200439453125
 42
0
  0
VERTEX
  8
0
 10
2633.530029296875
 20
1200.9200439453125
 42
0
  0
VERTEX
  8
0
 10
2664.86083984375
 20
1200.9200439453125
 42
0.36246499419212341
  0
VERTEX
  8
0
 10
2669.7802734375
 20
1205.0255126953125
 42
0
  0
VERTEX
  8
0
 10
2679.319091796875
 20
1257.4888916015625
 42
0.090170003473758698
  0
VERTEX
  8
0
 10
2679.319091796875
 20
1260.35107421875
 42
0
  0
SEQEND
  0
POLYLINE
  8
0
 10
0
 20
0
 39
0
 70
1
 66
1
  0
VERTEX
  8
0
 10
2730.615478515625
 20
477.26019287109375
 42
0.36246499419212341
  0
VERTEX
  8
0
 10
2726.510009765625
 20
472.34085083007812
 42
0
  0
VERTEX
  8
0
 10
2726.510009765625
 20
441.010009765625
 42
0
  0
VERTEX
  8
0
 10
2748.010009765625
 20
441.010009765625
 42
0
  0
VERTEX
  8
0
 10
2748.010009765625
 20
429.010009765625
 42
0
  0
VERTEX
  8
0
 10
2762.510009765625
 20
429.010009765625
 42
-0.41421398520469666
  0
VERTEX
  8
0
 10
2763.510009765625
 20
428.010009765625
 42
0
  0
VERTEX
  8
0
 10
2763.510009765625
 20
305.76736450195312
 42
0
  0
VERTEX
  8
0
 10
2768.267333984375
 20
301.010009765625
 42
0
  0
VERTEX
  8
0
 10
2800.752685546875
 20
301.010009765625
 42
0
  0
VERTEX
  8
0
 10
2805.510009765625
 20
305.76736450195312
 42
0
  0
VERTEX
  8
0
 10
2805.510009765625
 20
428.010009765625
 42
-0.41421398520469666
  0
VERTEX
  8
0
 10
2806.510009765625
 20
429.010009765625
 42
0
  0
VERTEX
  8
0
 10
2821.010009765625
 20
429.010009765625
 42
0
  0
VERTEX
  8
0
 10
2821.010009765625
 20
441.010009765625
 42
0
  0
VERTEX
  8
0
 10
2842.510009765625
 20
441.010009765625
 42
0
  0
VERTEX
  8
0
 10
2842.510009765625
 20
472.34085083007812
 42
0.36246499419212341
  0
VERTEX
  8
0
 10
2838.404541015625
 20
477.26019287109375
 42
0
  0
VERTEX
  8
0
 10
2785.941162109375
 20
486.79898071289062
 42
0.090170003473758698
  0
VERTEX
  8
0
 10
2783.078857421875
 20
486.79898071289062
 42
0
  0
SEQEND
  0
POLYLINE
  8
0
 10
0
 20
0
 39
0
 70
1
 66
1
  0
VERTEX
  8
0
 10
2891.204345703125
 20
175.70782470703125
 42
0.36246499419212341
  0
VERTEX
  8
0
 10
2895.31005859375
 20
180.62718200683594
 42
0
  0
VERTEX
  8
0
 10
2895.31005859375
 20
211.95802307128906
 42
0
  0
VERTEX
  8
0
 10
2873.81005859375
 20
211.95802307128906
 42
0
  0
VERTEX
  8
0
 10
2873.81005859375
 20
223.95802307128906
 42
0
  0
VERTEX
  8
0
 10
2859.31005859375
 20
223.95802307128906
 42
-0.41421398520469666
  0
VERTEX
  8
0
 10
2858.31005859375
 20
224.95802307128906
 42
0
  0
VERTEX
  8
0
 10
2858.31005859375
 20
347.20068359375
 42
0
  0
VERTEX
  8
0
 10
2853.552734375
 20
351.95803833007812
 42
0
  0
VERTEX
  8
0
 10
2821.0673828125
 20
351.95803833007812
 42
0
  0
VERTEX
  8
0
 10
2816.31005859375
 20
347.20068359375
 42
0
  0
VERTEX
  8
0
 10
2816.31005859375
 20
224.95802307128906
 42
-0.41421398520469666
  0
VERTEX
  8
0
 10
2815.31005859375
 20
223.95802307128906
 42
0
  0
VERTEX
  8
0
 10
2800.81005859375
 20
223.95802307128906
 42
0
  0
VERTEX
  8
0
 10
2800.81005859375
 20
211.95802307128906
 42
0
  0
VERTEX
  8
0
 10
2779.31005859375
 20
211.95802307128906
 42
0
  0
VERTEX
  8
0
 10
2779.31005859375
 20
180.62718200683594
 42
0.36246499419212341
  0
VERTEX
  8
0
 10
2783.41552734375
 20
175.70782470703125
 42
0
  0
VERTEX
  8
0
 10
2835.87890625
 20
166.16903686523437
 42
0.090170003473758698
  0
VERTEX
  8
0
 10
2838.740966796875
 20
166.16903686523437
 42
0
  0
SEQEND
  0
POLYLINE
  8
0
 10
0
 20
0
 39
0
 70
1
 66
1
  0
VERTEX
  8
0
 10
2809.767822265625
 20
664.15557861328125
 42
0.36246499419212341
  0
VERTEX
  8
0
 10
2814.687255859375
 20
660.04998779296875
 42
0
  0
VERTEX
  8
0
 10
2846.01806640625
 20
660.04998779296875
 42
0
  0
VERTEX
  8
0
 10
2846.01806640625
 20
681.54998779296875
 42
0
  0
VERTEX
  8
0
 10
2858.01806640625
 20
681.54998779296875
 42
0
  0
VERTEX
  8
0
 10
2858.01806640625
 20
696.04998779296875
 42
-0.41421398520469666
  0
VERTEX
  8
0
 10
2859.01806640625
 20
697.04998779296875
 42
0
  0
VERTEX
  8
0
 10
2981.2607421875
 20
697.04998779296875
 42
0
  0
VERTEX
  8
0
 10
2986.01806640625
 20
701.807373046875
 42
0
  0
VERTEX
  8
0
 10
2986.01806640625
 20
734.29266357421875
 42
0
  0
VERTEX
  8
0
 10
2981.2607421875
 20
739.04998779296875
 42
0
  0
VERTEX
  8
0
 10
2859.01806640625
 20
739.04998779296875
 42
-0.41421398520469666
  0
VERTEX
  8
0
 10
2858.01806640625
 20
740.04998779296875
 42
0
  0
VERTEX
  8
0
 10
2858.01806640625
 20
754.54998779296875
 42
0
  0
VERTEX
  8
0
 10
2846.01806640625
 20
754.54998779296875
 42
0
  0
VERTEX
  8
0
 10
2846.01806640625
 20
776.04998779296875
 42
0
  0
VERTEX
  8
0
 10
2814.687255859375
 20
776.04998779296875
 42
0.36246499419212341
  0
VERTEX
  8
0
 10
2809.767822265625
 20
771.94439697265625
 42
0
  0
VERTEX
  8
0
 10
2800.22900390625
 20
719.4810791015625
 42
0.090170003473758698
  0
VERTEX
  8
0
 10
2800.22900390625
 20
716.618896484375
 42
0
  0
SEQEND
  0
POLYLINE
  8
0
 10
0
 20
0
 39
0
 70
1
 66
1
  0
VERTEX
  8
0
 10
3051.920166015625
 20
1785.3743896484375
 42
0.36246499419212341
  0
VERTEX
  8
0
 10
3047.000732421875
 20
1789.47998046875
 42
0
  0
VERTEX
  8
0
 10
3015.669921875
 20
1789.47998046875
 42
0
  0
VERTEX
  8
0
 10
3015.669921875
 20
1767.97998046875
 42
0
  0
VERTEX
  8
0
 10
3003.669921875
 20
1767.97998046875
 42
0
  0
VERTEX
  8
0
 10
3003.669921875
 20
1753.47998046875
 42
-0.41421398520469666
  0
VERTEX
  8
0
 10
3002.669921875
 20
1752.47998046875
 42
0
  0
VERTEX
  8
0
 10
2880.42724609375
 20
1752.47998046875
 42
0
  0
VERTEX
  8
0
 10
2875.669921875
 20
1747.72265625
 42
0
  0
VERTEX
  8
0
 10
2875.669921875
 20
1715.2373046875
 42
0
  0
VERTEX
  8
0
 10
2880.42724609375
 20
1710.47998046875
 42
0
  0
VERTEX
  8
0
 10
3002.669921875
 20
1710.47998046875
 42
-0.41421398520469666
  0
VERTEX
  8
0
 10
3003.669921875
 20
1709.47998046875
 42
0
  0
VERTEX
  8
0
 10
3003.669921875
 20
1694.97998046875
 42
0
  0
VERTEX
  8
0
 10
3015.669921875
 20
1694.97998046875
 42
0
  0
VERTEX
  8
0
 10
3015.669921875
 20
1673.47998046875
 42
0
  0
VERTEX
  8
0
 10
3047.000732421875
 20
1673.47998046875
 42
0.36246499419212341
  0
VERTEX
  8
0
 10
3051.920166015625
 20
1677.5855712890625
 42
0
  0
VERTEX
  8
0
 10
3061.458984375
 20
1730.0489501953125
 42
0.090170003473758698
  0
VERTEX
  8
0
 10
3061.458984375
 20
1732.9111328125
 42
0
  0
SEQEND
  0
POLYLINE
  8
0
 10
0
 20
0
 39
0
 70
1
 66
1
  0
VERTEX
  8
0
 10
2895.89794921875
 20
1331.0855712890625
 42
0.36246499419212341
  0
VERTEX
  8
0
 10
2900.817138671875
 20
1326.97998046875
 42
0
  0
VERTEX
  8
0
 10
2932.14794921875
 20
1326.97998046875
 42
0
  0
VERTEX
  8
0
 10
2932.14794921875
 20
1348.47998046875
 42
0
  0
VERTEX
  8
0
 10
2944.14794921875
 20
1348.47998046875
 42
0
  0
VERTEX
  8
0
 10
2944.14794921875
 20
1362.97998046875
 42
-0.41421398520469666
  0
VERTEX
  8
0
 10
2945.14794921875
 20
1363.97998046875
 42
0
  0
VERTEX
  8
0
 10
3067.390625
 20
1363.97998046875
 42
0
  0
VERTEX
  8
0
 10
3072.14794921875
 20
1368.7373046875
 42
0
  0
VERTEX
  8
0
 10
3072.14794921875
 20
1401.22265625
 42
0
  0
VERTEX
  8
0
 10
3067.390625
 20
1405.97998046875
 42
0
  0
VERTEX
  8
0
 10
2945.14794921875
 20
1405.97998046875
 42
-0.41421398520469666
  0
VERTEX
  8
0
 10
2944.14794921875
 20
1406.97998046875
 42
0
  0
VERTEX
  8
0
 10
2944.14794921875
 20
1421.47998046875
 42
0
  0
VERTEX
  8
0
 10
2932.14794921875
 20
1421.47998046875
 42
0
  0
VERTEX
  8
0
 10
2932.14794921875
 20
1442.97998046875
 42
0
  0
VERTEX
  8
0
 10
2900.817138671875
 20
1442.97998046875
 42
0.36246499419212341
  0
VERTEX
  8
0
 10
2895.89794921875
 20
1438.8743896484375
 42
0
  0
VERTEX
  8
0
 10
2886.359130859375
 20
1386.4111328125
 42
0.090170003473758698
  0
VERTEX
  8
0
 10
2886.359130859375
 20
1383.5489501953125
 42
0
  0
SEQEND
  0
POLYLINE
  8
0
 10
0
 20
0
 39
0
 70
1
 66
1
  0
VERTEX
  8
0
 10
3147.284423828125
 20
1577.8778076171875
 42
0.36246499419212341
  0
VERTEX
  8
0
 10
3151.389892578125
 20
1582.7972412109375
 42
0
  0
VERTEX
  8
0
 10
3151.389892578125
 20
1614.1280517578125
 42
0
  0
VERTEX
  8
0
 10
3129.889892578125
 20
1614.1280517578125
 42
0
  0
VERTEX
  8
0
 10
3129.889892578125
 20
1626.1280517578125
 42
0
  0
VERTEX
  8
0
 10
3115.389892578125
 20
1626.1280517578125
 42
-0.41421398520469666
  0
VERTEX
  8
0
 10
3114.389892578125
 20
1627.1280517578125
 42
0
  0
VERTEX
  8
0
 10
3114.389892578125
 20
1749.3707275390625
 42
0
  0
VERTEX
  8
0
 10
3109.632568359375
 20
1754.1280517578125
 42
0
  0
VERTEX
  8
0
 10
3077.1474609375
 20
1754.1280517578125
 42
0
  0
VERTEX
  8
0
 10
3072.389892578125
 20
1749.3707275390625
 42
0
  0
VERTEX
  8
0
 10
3072.389892578125
 20
1627.1280517578125
 42
-0.41421398520469666
  0
VERTEX
  8
0
 10
3071.389892578125
 20
1626.1280517578125
 42
0
  0
VERTEX
  8
0
 10
3056.889892578125
 20
1626.1280517578125
 42
0
  0
VERTEX
  8
0
 10
3056.889892578125
 20
1614.1280517578125
 42
0
  0
VERTEX
  8
0
 10
3035.389892578125
 20
1614.1280517578125
 42
0
  0
VERTEX
  8
0
 10
3035.389892578125
 20
1582.7972412109375
 42
0.36246499419212341
  0
VERTEX
  8
0
 10
3039.49560546875
 20
1577.8778076171875
 42
0
  0
VERTEX
  8
0
 10
3091.958984375
 20
1568.3389892578125
 42
0.090170003473758698
  0
VERTEX
  8
0
 10
3094.821044921875
 20
1568.3389892578125
 42
0
  0
SEQEND
  0
POLYLINE
  8
0
 10
0
 20
0
 39
0
 70
1
 66
1
  0
VERTEX
  8
0
 10
3147.6201171875
 20
122.50442504882812
 42
0.36246499419212341
  0
VERTEX
  8
0
 10
3142.700927734375
 20
126.61000061035156
 42
0
  0
VERTEX
  8
0
 10
3111.3701171875
 20
126.61000061035156
 42
0
  0
VERTEX
  8
0
 10
3111.3701171875
 20
105.11000061035156
 42
0
  0
VERTEX
  8
0
 10
3099.3701171875
 20
105.11000061035156
 42
0
  0
VERTEX
  8
0
 10
3099.3701171875
 20
90.610000610351563
 42
-0.41421398520469666
  0
VERTEX
  8
0
 10
3098.3701171875
 20
89.610000610351563
 42
0
  0
VERTEX
  8
0
 10
2976.12744140625
 20
89.610000610351563
 42
0
  0
VERTEX
  8
0
 10
2971.3701171875
 20
84.852638244628906
 42
0
  0
VERTEX
  8
0
 10
2971.3701171875
 20
52.367359161376953
 42
0
  0
VERTEX
  8
0
 10
2976.12744140625
 20
47.610000610351562
 42
0
  0
VERTEX
  8
0
 10
3098.3701171875
 20
47.610000610351562
 42
-0.41421398520469666
  0
VERTEX
  8
0
 10
3099.3701171875
 20
46.610000610351563
 42
0
  0
VERTEX
  8
0
 10
3099.3701171875
 20
32.110000610351563
 42
0
  0
VERTEX
  8
0
 10
3111.3701171875
 20
32.110000610351563
 42
0
  0
VERTEX
  8
0
 10
3111.3701171875
 20
10.609999656677246
 42
0
  0
VERTEX
  8
0
 10
3142.700927734375
 20
10.609999656677246
 42
0.36246499419212341
  0
VERTEX
  8
0
 10
3147.6201171875
 20
14.715573310852051
 42
0
  0
VERTEX
  8
0
 10
3157.158935546875
 20
67.178916931152344
 42
0.090170003473758698
  0
VERTEX
  8
0
 10
3157.158935546875
 20
70.041084289550781
 42
0
  0
SEQEND
  0
POLYLINE
  8
0
 10
0
 20
0
 39
0
 70
1
 66
1
  0
VERTEX
  8
0
 10
3237.04443359375
 20
1486.7978515625
 42
0.36246499419212341
  0
VERTEX
  8
0
 10
3241.14990234375
 20
1491.7171630859375
 42
0
  0
VERTEX
  8
0
 10
3241.14990234375
 20
1523.0479736328125
 42
0
  0
VERTEX
  8
0
 10
3219.64990234375
 20
1523.0479736328125
 42
0
  0
VERTEX
  8
0
 10
3219.64990234375
 20
1535.0479736328125
 42
0
  0
VERTEX
  8
0
 10
3205.14990234375
 20
1535.0479736328125
 42
-0.41421398520469666
  0
VERTEX
  8
0
 10
3204.14990234375
 20
1536.0479736328125
 42
0
  0
VERTEX
  8
0
 10
3204.14990234375
 20
1658.2906494140625
 42
0
  0
VERTEX
  8
0
 10
3199.392578125
 20
1663.0479736328125
 42
0
  0
VERTEX
  8
0
 10
3166.907470703125
 20
1663.0479736328125
 42
0
  0
VERTEX
  8
0
 10
3162.14990234375
 20
1658.2906494140625
 42
0
  0
VERTEX
  8
0
 10
3162.14990234375
 20
1536.0479736328125
 42
-0.41421398520469666
  0
VERTEX
  8
0
 10
3161.14990234375
 20
1535.0479736328125
 42
0
  0
VERTEX
  8
0
 10
3146.64990234375
 20
1535.0479736328125
 42
0
  0
VERTEX
  8
0
 10
3146.64990234375
 20
1523.0479736328125
 42
0
  0
VERTEX
  8
0
 10
3125.14990234375
 20
1523.0479736328125
 42
0
  0
VERTEX
  8
0
 10
3125.14990234375
 20
1491.7171630859375
 42
0.36246499419212341
  0
VERTEX
  8
0
 10
3129.255615234375
 20
1486.7978515625
 42
0
  0
VERTEX
  8
0
 10
3181.718994140625
 20
1477.259033203125
 42
0.090170003473758698
  0
VERTEX
  8
0
 10
3184.5810546875
 20
1477.259033203125
 42
0
  0
SEQEND
  0
POLYLINE
  8
0
 10
0
 20
0
 39
0
 70
1
 66
1
  0
VERTEX
  8
0
 10
3135.195556640625
 20
186.86019897460937
 42
0.36246499419212341
  0
VERTEX
  8
0
 10
3131.090087890625
 20
181.94084167480469
 42
0
  0
VERTEX
  8
0
 10
3131.090087890625
 20
150.61000061035156
 42
0
  0
VERTEX
  8
0
 10
3152.590087890625
 20
150.61000061035156
 42
0
  0
VERTEX
  8
0
 10
3152.590087890625
 20
138.61000061035156
 42
0
  0
VERTEX
  8
0
 10
3167.090087890625
 20
138.61000061035156
 42
-0.41421398520469666
  0
VERTEX
  8
0
 10
3168.090087890625
 20
137.61000061035156
 42
0
  0
VERTEX
  8
0
 10
3168.090087890625
 20
15.367354393005371
 42
0
  0
VERTEX
  8
0
 10
3172.847412109375
 20
10.609999656677246
 42
0
  0
VERTEX
  8
0
 10
3205.33251953125
 20
10.609999656677246
 42
0
  0
VERTEX
  8
0
 10
3210.090087890625
 20
15.367354393005371
 42
0
  0
VERTEX
  8
0
 10
3210.090087890625
 20
137.61000061035156
 42
-0.41421398520469666
  0
VERTEX
  8
0
 10
3211.090087890625
 20
138.61000061035156
 42
0
  0
VERTEX
  8
0
 10
3225.590087890625
 20
138.61000061035156
 42
0
  0
VERTEX
  8
0
 10
3225.590087890625
 20
150.61000061035156
 42
0
  0
VERTEX
  8
0
 10
3247.090087890625
 20
150.61000061035156
 42
0
  0
VERTEX
  8
0
 10
3247.090087890625
 20
181.94084167480469
 42
0.36246499419212341
  0
VERTEX
  8
0
 10
3242.984375
 20
186.86019897460937
 42
0
  0
VERTEX
  8
0
 10
3190.52099609375
 20
196.39898681640625
 42
0.090170003473758698
  0
VERTEX
  8
0
 10
3187.658935546875
 20
196.39898681640625
 42
0
  0
SEQEND
  0
POLYLINE
  8
0
 10
0
 20
0
 39
0
 70
1
 66
1
  0
VERTEX
  8
0
 10
3259.814453125
 20
947.9078369140625
 42
0.36246499419212341
  0
VERTEX
  8
0
 10
3263.919921875
 20
952.82720947265625
 42
0
  0
VERTEX
  8
0
 10
3263.919921875
 20
984.15802001953125
 42
0
  0
VERTEX
  8
0
 10
3242.419921875
 20
984.15802001953125
 42
0
  0
VERTEX
  8
0
 10
3242.419921875
 20
996.15802001953125
 42
0
  0
VERTEX
  8
0
 10
3227.919921875
 20
996.15802001953125
 42
-0.41421398520469666
  0
VERTEX
  8
0
 10
3226.919921875
 20
997.15802001953125
 42
0
  0
VERTEX
  8
0
 10
3226.919921875
 20
1119.400634765625
 42
0
  0
VERTEX
  8
0
 10
3222.16259765625
 20
1124.1580810546875
 42
0
  0
VERTEX
  8
0
 10
3189.67724609375
 20
1124.1580810546875
 42
0
  0
VERTEX
  8
0
 10
3184.919921875
 20
1119.400634765625
 42
0
  0
VERTEX
  8
0
 10
3184.919921875
 20
997.15802001953125
 42
-0.41421398520469666
  0
VERTEX
  8
0
 10
3183.919921875
 20
996.15802001953125
 42
0
  0
VERTEX
  8
0
 10
3169.419921875
 20
996.15802001953125
 42
0
  0
VERTEX
  8
0
 10
3169.419921875
 20
984.15802001953125
 42
0
  0
VERTEX
  8
0
 10
3147.919921875
 20
984.15802001953125
 42
0
  0
VERTEX
  8
0
 10
3147.919921875
 20
952.82720947265625
 42
0.36246499419212341
  0
VERTEX
  8
0
 10
3152.025634765625
 20
947.9078369140625
 42
0
  0
VERTEX
  8
0
 10
3204.489013671875
 20
938.3690185546875
 42
0.090170003473758698
  0
VERTEX
  8
0
 10
3207.35107421875
 20
938.3690185546875
 42
0
  0
SEQEND
  0
POLYLINE
  8
0
 10
0
 20
0
 39
0
 70
1
 66
1
  0
VERTEX
  8
0
 10
3279.9443359375
 20
1143.9278564453125
 42
0.36246499419212341
  0
VERTEX
  8
0
 10
3284.050048828125
 20
1148.84716796875
 42
0
  0
VERTEX
  8
0
 10
3284.050048828125
 20
1180.177978515625
 42
0
  0
VERTEX
  8
0
 10
3262.550048828125
 20
1180.177978515625
 42
0
  0
VERTEX
  8
0
 10
3262.550048828125
 20
1192.177978515625
 42
0
  0
VERTEX
  8
0
 10
3248.050048828125
 20
1192.177978515625
 42
-0.41421398520469666
  0
VERTEX
  8
0
 10
3247.050048828125
 20
1193.177978515625
 42
0
  0
VERTEX
  8
0
 10
3247.050048828125
 20
1315.420654296875
 42
0
  0
VERTEX
  8
0
 10
3242.292724609375
 20
1320.177978515625
 42
0
  0
VERTEX
  8
0
 10
3209.807373046875
 20
1320.177978515625
 42
0
  0
VERTEX
  8
0
 10
3205.050048828125
 20
1315.420654296875
 42
0
  0
VERTEX
  8
0
 10
3205.050048828125
 20
1193.177978515625
 42
-0.41421398520469666
  0
VERTEX
  8
0
 10
3204.050048828125
 20
1192.177978515625
 42
0
  0
VERTEX
  8
0
 10
3189.550048828125
 20
1192.177978515625
 42
0
  0
VERTEX
  8
0
 10
3189.550048828125
 20
1180.177978515625
 42
0
  0
VERTEX
  8
0
 10
3168.050048828125
 20
1180.177978515625
 42
0
  0
VERTEX
  8
0
 10
3168.050048828125
 20
1148.84716796875
 42
0.36246499419212341
  0
VERTEX
  8
0
 10
3172.155517578125
 20
1143.9278564453125
 42
0
  0
VERTEX
  8
0
 10
3224.618896484375
 20
1134.3890380859375
 42
0.090170003473758698
  0
VERTEX
  8
0
 10
3227.481201171875
 20
1134.3890380859375
 42
0
  0
SEQEND
  0
ENDSEC
  0
EOF
