  0
SECTION
  2
ENTITIES
  0
POLYLINE
  8
0
 10
0
 20
0
 39
0
 70
1
 66
1
  0
VERTEX
  8
0
 10
0
 20
0
 42
0
  0
VERTEX
  8
0
 10
3000
 20
0
 42
0
  0
VERTEX
  8
0
 10
3000
 20
1000
 42
0
  0
VERTEX
  8
0
 10
0
 20
1000
 42
0
  0
SEQEND
  0
POLYLINE
  8
0
 10
0
 20
0
 39
0
 70
1
 66
1
  0
VERTEX
  8
0
 10
1750.70947265625
 20
870
 42
0
  0
VERTEX
  8
0
 10
1904.70947265625
 20
870
 42
1
  0
VERTEX
  8
0
 10
1904.70947265625
 20
920
 42
0
  0
VERTEX
  8
0
 10
1750.70947265625
 20
920
 42
1
  0
SEQEND
  0
POLYLINE
  8
0
 10
0
 20
0
 39
0
 70
1
 66
1
  0
VERTEX
  8
0
 10
1030.5836181640625
 20
236.50721740722656
 42
0.8730241060256958
  0
VERTEX
  8
0
 10
1163.253173828125
 20
20.908052444458008
 42
-0
  0
VERTEX
  8
0
 10
1163.253173828125
 20
117.64630889892578
 42
-0.17889738082885742
  0
SEQEND
  0
POLYLINE
  8
0
 10
0
 20
0
 39
0
 70
1
 66
1
  0
VERTEX
  8
0
 10
1116.5283203125
 20
154.38766479492187
 42
0.8730241060256958
  0
VERTEX
  8
0
 10
983.85870361328125
 20
369.98681640625
 42
-0
  0
VERTEX
  8
0
 10
983.85870361328125
 20
273.24856567382812
 42
-0.17889738082885742
  0
SEQEND
  0
POLYLINE
  8
0
 10
0
 20
0
 39
0
 70
1
 66
1
  0
VERTEX
  8
0
 10
1149.218017578125
 20
617.402099609375
 42
0.8730241060256958
  0
VERTEX
  8
0
 10
1281.8875732421875
 20
401.80291748046875
 42
-0
  0
VERTEX
  8
0
 10
1281.8875732421875
 20
498.54119873046875
 42
-0.17889738082885742
  0
SEQEND
  0
POLYLINE
  8
0
 10
0
 20
0
 39
0
 70
1
 66
1
  0
VERTEX
  8
0
 10
1235.1627197265625
 20
535.28253173828125
 42
0.8730241060256958
  0
VERTEX
  8
0
 10
1102.4930419921875
 20
750.8817138671875
 42
-0
  0
VERTEX
  8
0
 10
1102.4931640625
 20
654.1434326171875
 42
-0.17889738082885742
  0
SEQEND
  0
POLYLINE
  8
0
 10
0
 20
0
 39
0
 70
1
 66
1
  0
VERTEX
  8
0
 10
959.823486328125
 20
760.81671142578125
 42
0.8730241060256958
  0
VERTEX
  8
0
 10
1092.4930419921875
 20
545.21759033203125
 42
-0
  0
VERTEX
  8
0
 10
1092.4930419921875
 20
641.955810546875
 42
-0.17889738082885742
  0
SEQEND
  0
POLYLINE
  8
0
 10
0
 20
0
 39
0
 70
1
 66
1
  0
VERTEX
  8
0
 10
1045.7681884765625
 20
678.6971435546875
 42
0.8730241060256958
  0
VERTEX
  8
0
 10
913.09857177734375
 20
894.29632568359375
 42
-0
  0
VERTEX
  8
0
 10
913.09857177734375
 20
797.55810546875
 42
-0.17889738082885742
  0
SEQEND
  0
POLYLINE
  8
0
 10
0
 20
0
 39
0
 70
1
 66
1
  0
VERTEX
  8
0
 10
2271.8876953125
 20
570.575439453125
 42
0
  0
VERTEX
  8
0
 10
2271.8876953125
 20
524.6895751953125
 42
0
  0
VERTEX
  8
0
 10
2307.640625
 20
524.6895751953125
 42
-1.1275635957717896
  0
VERTEX
  8
0
 10
2348.67626953125
 20
524.6895751953125
 42
0
  0
VERTEX
  8
0
 10
2379.7099609375
 20
524.6895751953125
 42
0
  0
VERTEX
  8
0
 10
2379.7099609375
 20
697.5567626953125
 42
0.23306103050708771
  0
SEQEND
  0
POLYLINE
  8
0
 10
0
 20
0
 39
0
 70
1
 66
1
  0
VERTEX
  8
0
 10
2262.647705078125
 20
55.885917663574219
 42
0
  0
VERTEX
  8
0
 10
2262.647705078125
 20
10
 42
0
  0
VERTEX
  8
0
 10
2298.400634765625
 20
10
 42
-1.1275635957717896
  0
VERTEX
  8
0
 10
2339.436279296875
 20
10
 42
0
  0
VERTEX
  8
0
 10
2370.469970703125
 20
10
 42
0
  0
VERTEX
  8
0
 10
2370.469970703125
 20
182.86723327636719
 42
0.23306103050708771
  0
SEQEND
  0
POLYLINE
  8
0
 10
0
 20
0
 39
0
 70
1
 66
1
  0
VERTEX
  8
0
 10
2507.854248046875
 20
787.3548583984375
 42
0
  0
VERTEX
  8
0
 10
2507.854248046875
 20
741.46893310546875
 42
0
  0
VERTEX
  8
0
 10
2543.60693359375
 20
741.46893310546875
 42
-1.1275635957717896
  0
VERTEX
  8
0
 10
2584.642822265625
 20
741.46893310546875
 42
0
  0
VERTEX
  8
0
 10
2615.676513671875
 20
741.46893310546875
 42
0
  0
VERTEX
  8
0
 10
2615.676513671875
 20
914.336181640625
 42
0.23306103050708771
  0
SEQEND
  0
POLYLINE
  8
0
 10
0
 20
0
 39
0
 70
1
 66
1
  0
VERTEX
  8
0
 10
581.034423828125
 20
760.81671142578125
 42
0.8730241060256958
  0
VERTEX
  8
0
 10
713.70404052734375
 20
545.21759033203125
 42
-0
  0
VERTEX
  8
0
 10
713.70404052734375
 20
641.955810546875
 42
-0.17889738082885742
  0
SEQEND
  0
POLYLINE
  8
0
 10
0
 20
0
 39
0
 70
1
 66
1
  0
VERTEX
  8
0
 10
666.9791259765625
 20
678.6971435546875
 42
0.8730241060256958
  0
VERTEX
  8
0
 10
534.30950927734375
 20
894.29632568359375
 42
-0
  0
VERTEX
  8
0
 10
534.30950927734375
 20
797.55810546875
 42
-0.17889738082885742
  0
SEQEND
  0
POLYLINE
  8
0
 10
0
 20
0
 39
0
 70
1
 66
1
  0
VERTEX
  8
0
 10
2271.8876953125
 20
387.70822143554687
 42
0
  0
VERTEX
  8
0
 10
2271.8876953125
 20
341.82232666015625
 42
0
  0
VERTEX
  8
0
 10
2307.640625
 20
341.82232666015625
 42
-1.1275635957717896
  0
VERTEX
  8
0
 10
2348.67626953125
 20
341.82232666015625
 42
0
  0
VERTEX
  8
0
 10
2379.7099609375
 20
341.82232666015625
 42
0
  0
VERTEX
  8
0
 10
2379.7099609375
 20
514.6895751953125
 42
0.23306103050708771
  0
SEQEND
  0
POLYLINE
  8
0
 10
0
 20
0
 39
0
 70
1
 66
1
  0
VERTEX
  8
0
 10
770.428955078125
 20
760.81671142578125
 42
0.8730241060256958
  0
VERTEX
  8
0
 10
903.09857177734375
 20
545.21759033203125
 42
-0
  0
VERTEX
  8
0
 10
903.0985107421875
 20
641.955810546875
 42
-0.17889738082885742
  0
SEQEND
  0
POLYLINE
  8
0
 10
0
 20
0
 39
0
 70
1
 66
1
  0
VERTEX
  8
0
 10
856.3736572265625
 20
678.6971435546875
 42
0.8730241060256958
  0
VERTEX
  8
0
 10
723.70404052734375
 20
894.29632568359375
 42
-0
  0
VERTEX
  8
0
 10
723.70404052734375
 20
797.55810546875
 42
-0.17889738082885742
  0
SEQEND
  0
POLYLINE
  8
0
 10
0
 20
0
 39
0
 70
1
 66
1
  0
VERTEX
  8
0
 10
2212.20947265625
 20
909
 42
0
  0
VERTEX
  8
0
 10
2212.20947265625
 20
755
 42
1
  0
VERTEX
  8
0
 10
2262.20947265625
 20
755
 42
0
  0
VERTEX
  8
0
 10
2262.20947265625
 20
909
 42
1
  0
SEQEND
  0
POLYLINE
  8
0
 10
0
 20
0
 39
0
 70
1
 66
1
  0
VERTEX
  8
0
 10
1964.70947265625
 20
870
 42
0
  0
VERTEX
  8
0
 10
2118.70947265625
 20
870
 42
1
  0
VERTEX
  8
0
 10
2118.70947265625
 20
920
 42
0
  0
VERTEX
  8
0
 10
1964.70947265625
 20
920
 42
1
  0
SEQEND
  0
POLYLINE
  8
0
 10
0
 20
0
 39
0
 70
1
 66
1
  0
VERTEX
  8
0
 10
1750.70947265625
 20
930
 42
0
  0
VERTEX
  8
0
 10
1904.70947265625
 20
930
 42
1
  0
VERTEX
  8
0
 10
1904.70947265625
 20
980
 42
0
  0
VERTEX
  8
0
 10
1750.70947265625
 20
980
 42
1
  0
SEQEND
  0
POLYLINE
  8
0
 10
0
 20
0
 39
0
 70
1
 66
1
  0
VERTEX
  8
0
 10
2389.7099609375
 20
421.62039184570312
 42
0
  0
VERTEX
  8
0
 10
2389.7099609375
 20
375.73446655273437
 42
0
  0
VERTEX
  8
0
 10
2425.462890625
 20
375.73446655273437
 42
-1.1275635957717896
  0
VERTEX
  8
0
 10
2466.49853515625
 20
375.73446655273437
 42
0
  0
VERTEX
  8
0
 10
2497.5322265625
 20
375.73446655273437
 42
0
  0
VERTEX
  8
0
 10
2497.5322265625
 20
548.6016845703125
 42
0.23306103050708771
  0
SEQEND
  0
POLYLINE
  8
0
 10
0
 20
0
 39
0
 70
1
 66
1
  0
VERTEX
  8
0
 10
2272.20947265625
 20
753.44268798828125
 42
0
  0
VERTEX
  8
0
 10
2272.20947265625
 20
707.5567626953125
 42
0
  0
VERTEX
  8
0
 10
2307.96240234375
 20
707.5567626953125
 42
-1.1275635957717896
  0
VERTEX
  8
0
 10
2348.998046875
 20
707.5567626953125
 42
0
  0
VERTEX
  8
0
 10
2380.03173828125
 20
707.5567626953125
 42
0
  0
VERTEX
  8
0
 10
2380.03173828125
 20
880.42401123046875
 42
0.23306103050708771
  0
SEQEND
  0
POLYLINE
  8
0
 10
0
 20
0
 39
0
 70
1
 66
1
  0
VERTEX
  8
0
 10
2863.546142578125
 20
55.885917663574219
 42
0
  0
VERTEX
  8
0
 10
2863.546142578125
 20
10
 42
0
  0
VERTEX
  8
0
 10
2899.299072265625
 20
10
 42
-1.1275635957717896
  0
VERTEX
  8
0
 10
2940.334716796875
 20
10
 42
0
  0
VERTEX
  8
0
 10
2971.368408203125
 20
10
 42
0
  0
VERTEX
  8
0
 10
2971.368408203125
 20
182.86723327636719
 42
0.23306103050708771
  0
SEQEND
  0
POLYLINE
  8
0
 10
0
 20
0
 39
0
 70
1
 66
1
  0
VERTEX
  8
0
 10
1219.9781494140625
 20
236.50721740722656
 42
0.8730241060256958
  0
VERTEX
  8
0
 10
1352.647705078125
 20
20.908052444458008
 42
-0
  0
VERTEX
  8
0
 10
1352.647705078125
 20
117.64630889892578
 42
-0.17889738082885742
  0
SEQEND
  0
POLYLINE
  8
0
 10
0
 20
0
 39
0
 70
1
 66
1
  0
VERTEX
  8
0
 10
1305.9228515625
 20
154.38766479492187
 42
0.8730241060256958
  0
VERTEX
  8
0
 10
1173.253173828125
 20
369.98681640625
 42
-0
  0
VERTEX
  8
0
 10
1173.2532958984375
 20
273.24856567382812
 42
-0.17889738082885742
  0
SEQEND
  0
POLYLINE
  8
0
 10
0
 20
0
 39
0
 70
1
 66
1
  0
VERTEX
  8
0
 10
2202.647705078125
 20
189
 42
0
  0
VERTEX
  8
0
 10
2202.647705078125
 20
35
 42
1
  0
VERTEX
  8
0
 10
2252.647705078125
 20
35
 42
0
  0
VERTEX
  8
0
 10
2252.647705078125
 20
189
 42
1
  0
SEQEND
  0
POLYLINE
  8
0
 10
0
 20
0
 39
0
 70
1
 66
1
  0
VERTEX
  8
0
 10
2803.546142578125
 20
189
 42
0
  0
VERTEX
  8
0
 10
2803.546142578125
 20
35
 42
1
  0
VERTEX
  8
0
 10
2853.546142578125
 20
35
 42
0
  0
VERTEX
  8
0
 10
2853.546142578125
 20
189
 42
1
  0
SEQEND
  0
POLYLINE
  8
0
 10
0
 20
0
 39
0
 70
1
 66
1
  0
VERTEX
  8
0
 10
2498.29248046875
 20
55.885917663574219
 42
0
  0
VERTEX
  8
0
 10
2498.29248046875
 20
10
 42
0
  0
VERTEX
  8
0
 10
2534.045166015625
 20
10
 42
-1.1275635957717896
  0
VERTEX
  8
0
 10
2575.0810546875
 20
10
 42
0
  0
VERTEX
  8
0
 10
2606.11474609375
 20
10
 42
0
  0
VERTEX
  8
0
 10
2606.11474609375
 20
182.86723327636719
 42
0.23306103050708771
  0
SEQEND
  0
POLYLINE
  8
0
 10
0
 20
0
 39
0
 70
1
 66
1
  0
VERTEX
  8
0
 10
1964.70947265625
 20
930
 42
0
  0
VERTEX
  8
0
 10
2118.70947265625
 20
930
 42
1
  0
VERTEX
  8
0
 10
2118.70947265625
 20
980
 42
0
  0
VERTEX
  8
0
 10
1964.70947265625
 20
980
 42
1
  0
SEQEND
  0
POLYLINE
  8
0
 10
0
 20
0
 39
0
 70
1
 66
1
  0
VERTEX
  8
0
 10
2390.03173828125
 20
787.3548583984375
 42
0
  0
VERTEX
  8
0
 10
2390.03173828125
 20
741.46893310546875
 42
0
  0
VERTEX
  8
0
 10
2425.78466796875
 20
741.46893310546875
 42
-1.1275635957717896
  0
VERTEX
  8
0
 10
2466.820556640625
 20
741.46893310546875
 42
0
  0
VERTEX
  8
0
 10
2497.854248046875
 20
741.46893310546875
 42
0
  0
VERTEX
  8
0
 10
2497.854248046875
 20
914.336181640625
 42
0.23306103050708771
  0
SEQEND
  0
POLYLINE
  8
0
 10
0
 20
0
 39
0
 70
1
 66
1
  0
VERTEX
  8
0
 10
2390.03173828125
 20
604.48760986328125
 42
0
  0
VERTEX
  8
0
 10
2390.03173828125
 20
558.6016845703125
 42
0
  0
VERTEX
  8
0
 10
2425.78466796875
 20
558.6016845703125
 42
-1.1275635957717896
  0
VERTEX
  8
0
 10
2466.820556640625
 20
558.6016845703125
 42
0
  0
VERTEX
  8
0
 10
2497.854248046875
 20
558.6016845703125
 42
0
  0
VERTEX
  8
0
 10
2497.854248046875
 20
731.46893310546875
 42
0.23306103050708771
  0
SEQEND
  0
POLYLINE
  8
0
 10
0
 20
0
 39
0
 70
1
 66
1
  0
VERTEX
  8
0
 10
2507.854248046875
 20
604.48760986328125
 42
0
  0
VERTEX
  8
0
 10
2507.854248046875
 20
558.6016845703125
 42
0
  0
VERTEX
  8
0
 10
2543.60693359375
 20
558.6016845703125
 42
-1.1275635957717896
  0
VERTEX
  8
0
 10
2584.642822265625
 20
558.6016845703125
 42
0
  0
VERTEX
  8
0
 10
2615.676513671875
 20
558.6016845703125
 42
0
  0
VERTEX
  8
0
 10
2615.676513671875
 20
731.46893310546875
 42
0.23306103050708771
  0
SEQEND
  0
POLYLINE
  8
0
 10
0
 20
0
 39
0
 70
1
 66
1
  0
VERTEX
  8
0
 10
2507.5322265625
 20
238.75314331054687
 42
0
  0
VERTEX
  8
0
 10
2507.5322265625
 20
192.86723327636719
 42
0
  0
VERTEX
  8
0
 10
2543.28515625
 20
192.86723327636719
 42
-1.1275635957717896
  0
VERTEX
  8
0
 10
2584.32080078125
 20
192.86723327636719
 42
0
  0
VERTEX
  8
0
 10
2615.3544921875
 20
192.86723327636719
 42
0
  0
VERTEX
  8
0
 10
2615.3544921875
 20
365.73446655273437
 42
0.23306103050708771
  0
SEQEND
  0
POLYLINE
  8
0
 10
0
 20
0
 39
0
 70
1
 66
1
  0
VERTEX
  8
0
 10
2507.5322265625
 20
421.62039184570312
 42
0
  0
VERTEX
  8
0
 10
2507.5322265625
 20
375.73446655273437
 42
0
  0
VERTEX
  8
0
 10
2543.28515625
 20
375.73446655273437
 42
-1.1275635957717896
  0
VERTEX
  8
0
 10
2584.32080078125
 20
375.73446655273437
 42
0
  0
VERTEX
  8
0
 10
2615.3544921875
 20
375.73446655273437
 42
0
  0
VERTEX
  8
0
 10
2615.3544921875
 20
548.6016845703125
 42
0.23306103050708771
  0
SEQEND
  0
POLYLINE
  8
0
 10
0
 20
0
 39
0
 70
1
 66
1
  0
VERTEX
  8
0
 10
2380.469970703125
 20
55.885917663574219
 42
0
  0
VERTEX
  8
0
 10
2380.469970703125
 20
10
 42
0
  0
VERTEX
  8
0
 10
2416.222900390625
 20
10
 42
-1.1275635957717896
  0
VERTEX
  8
0
 10
2457.2587890625
 20
10
 42
0
  0
VERTEX
  8
0
 10
2488.29248046875
 20
10
 42
0
  0
VERTEX
  8
0
 10
2488.29248046875
 20
182.86723327636719
 42
0.23306103050708771
  0
SEQEND
  0
POLYLINE
  8
0
 10
0
 20
0
 39
0
 70
1
 66
1
  0
VERTEX
  8
0
 10
2389.7099609375
 20
238.75314331054687
 42
0
  0
VERTEX
  8
0
 10
2389.7099609375
 20
192.86723327636719
 42
0
  0
VERTEX
  8
0
 10
2425.462890625
 20
192.86723327636719
 42
-1.1275635957717896
  0
VERTEX
  8
0
 10
2466.49853515625
 20
192.86723327636719
 42
0
  0
VERTEX
  8
0
 10
2497.5322265625
 20
192.86723327636719
 42
0
  0
VERTEX
  8
0
 10
2497.5322265625
 20
365.73446655273437
 42
0.23306103050708771
  0
SEQEND
  0
POLYLINE
  8
0
 10
0
 20
0
 39
0
 70
1
 66
1
  0
VERTEX
  8
0
 10
2329.629150390625
 20
224
 42
0
  0
VERTEX
  8
0
 10
2375.514892578125
 20
224
 42
0
  0
VERTEX
  8
0
 10
2375.514892578125
 20
259.7529296875
 42
-1.1275635957717896
  0
VERTEX
  8
0
 10
2375.514892578125
 20
300.78863525390625
 42
0
  0
VERTEX
  8
0
 10
2375.514892578125
 20
331.82232666015625
 42
0
  0
VERTEX
  8
0
 10
2202.647705078125
 20
331.82232666015625
 42
0.23306103050708771
  0
SEQEND
  0
POLYLINE
  8
0
 10
0
 20
0
 39
0
 70
1
 66
1
  0
VERTEX
  8
0
 10
1502.647705078125
 20
295
 42
0
  0
VERTEX
  8
0
 10
1502.647705078125
 20
75
 42
1
  0
VERTEX
  8
0
 10
1632.647705078125
 20
75
 42
0
  0
VERTEX
  8
0
 10
1632.647705078125
 20
295
 42
1
  0
SEQEND
  0
POLYLINE
  8
0
 10
0
 20
0
 39
0
 70
1
 66
1
  0
VERTEX
  8
0
 10
1431.8875732421875
 20
655
 42
0
  0
VERTEX
  8
0
 10
1431.8875732421875
 20
435
 42
1
  0
VERTEX
  8
0
 10
1561.8875732421875
 20
435
 42
0
  0
VERTEX
  8
0
 10
1561.8875732421875
 20
655
 42
1
  0
SEQEND
  0
POLYLINE
  8
0
 10
0
 20
0
 39
0
 70
1
 66
1
  0
VERTEX
  8
0
 10
1711.8875732421875
 20
655
 42
0
  0
VERTEX
  8
0
 10
1711.8875732421875
 20
435
 42
1
  0
VERTEX
  8
0
 10
1841.8875732421875
 20
435
 42
0
  0
VERTEX
  8
0
 10
1841.8875732421875
 20
655
 42
1
  0
SEQEND
  0
POLYLINE
  8
0
 10
0
 20
0
 39
0
 70
1
 66
1
  0
VERTEX
  8
0
 10
1571.8875732421875
 20
655
 42
0
  0
VERTEX
  8
0
 10
1571.8875732421875
 20
435
 42
1
  0
VERTEX
  8
0
 10
1701.8875732421875
 20
435
 42
0
  0
VERTEX
  8
0
 10
1701.8875732421875
 20
655
 42
1
  0
SEQEND
  0
POLYLINE
  8
0
 10
0
 20
0
 39
0
 70
1
 66
1
  0
VERTEX
  8
0
 10
1362.647705078125
 20
295
 42
0
  0
VERTEX
  8
0
 10
1362.647705078125
 20
75
 42
1
  0
VERTEX
  8
0
 10
1492.647705078125
 20
75
 42
0
  0
VERTEX
  8
0
 10
1492.647705078125
 20
295
 42
1
  0
SEQEND
  0
POLYLINE
  8
0
 10
0
 20
0
 39
0
 70
1
 66
1
  0
VERTEX
  8
0
 10
1527.4930419921875
 20
730
 42
0
  0
VERTEX
  8
0
 10
1747.4930419921875
 20
730
 42
1
  0
VERTEX
  8
0
 10
1747.4930419921875
 20
860
 42
0
  0
VERTEX
  8
0
 10
1527.4930419921875
 20
860
 42
1
  0
SEQEND
  0
POLYLINE
  8
0
 10
0
 20
0
 39
0
 70
1
 66
1
  0
VERTEX
  8
0
 10
1642.647705078125
 20
295
 42
0
  0
VERTEX
  8
0
 10
1642.647705078125
 20
75
 42
1
  0
VERTEX
  8
0
 10
1772.647705078125
 20
75
 42
0
  0
VERTEX
  8
0
 10
1772.647705078125
 20
295
 42
1
  0
SEQEND
  0
POLYLINE
  8
0
 10
0
 20
0
 39
0
 70
1
 66
1
  0
VERTEX
  8
0
 10
2808.662841796875
 20
431.16079711914062
 42
0.10082931816577911
  0
VERTEX
  8
0
 10
2809.44482421875
 20
558.3221435546875
 42
0.40808120369911194
  0
VERTEX
  8
0
 10
2804.82861328125
 20
561.4874267578125
 42
0
  0
VERTEX
  8
0
 10
2783.039306640625
 20
557.6607666015625
 42
-0.10543260723352432
  0
VERTEX
  8
0
 10
2783.039306640625
 20
435.66079711914062
 42
-0
  0
SEQEND
  0
POLYLINE
  8
0
 10
0
 20
0
 39
0
 70
1
 66
1
  0
VERTEX
  8
0
 10
2851.09423828125
 20
645.1607666015625
 42
0.10082931816577911
  0
VERTEX
  8
0
 10
2851.876220703125
 20
772.3221435546875
 42
0.40808120369911194
  0
VERTEX
  8
0
 10
2847.260009765625
 20
775.4874267578125
 42
0
  0
VERTEX
  8
0
 10
2825.470703125
 20
771.6607666015625
 42
-0.10543260723352432
  0
VERTEX
  8
0
 10
2825.470703125
 20
649.6607666015625
 42
-0
  0
SEQEND
  0
POLYLINE
  8
0
 10
0
 20
0
 39
0
 70
1
 66
1
  0
VERTEX
  8
0
 10
2851.09423828125
 20
364.38693237304687
 42
0.10082931816577911
  0
VERTEX
  8
0
 10
2851.876220703125
 20
491.54824829101562
 42
0.40808120369911194
  0
VERTEX
  8
0
 10
2847.260009765625
 20
494.71356201171875
 42
0
  0
VERTEX
  8
0
 10
2825.470703125
 20
490.88693237304687
 42
-0.10543260723352432
  0
VERTEX
  8
0
 10
2825.470703125
 20
368.88693237304687
 42
-0
  0
SEQEND
  0
POLYLINE
  8
0
 10
0
 20
0
 39
0
 70
1
 66
1
  0
VERTEX
  8
0
 10
1241.3095703125
 20
920.78973388671875
 42
0
  0
VERTEX
  8
0
 10
1269.9095458984375
 20
927.8897705078125
 42
0.34649235010147095
  0
VERTEX
  8
0
 10
1287.70947265625
 20
950.491943359375
 42
0
  0
VERTEX
  8
0
 10
1287.70947265625
 20
960.28973388671875
 42
0
  0
VERTEX
  8
0
 10
1176.3095703125
 20
960.28973388671875
 42
0
  0
VERTEX
  8
0
 10
1176.3095703125
 20
911.78973388671875
 42
0
  0
VERTEX
  8
0
 10
1241.3095703125
 20
911.78973388671875
 42
-0
  0
SEQEND
  0
POLYLINE
  8
0
 10
0
 20
0
 39
0
 70
1
 66
1
  0
VERTEX
  8
0
 10
2851.09423828125
 20
504.77386474609375
 42
0.10082931816577911
  0
VERTEX
  8
0
 10
2851.876220703125
 20
631.9351806640625
 42
0.40808120369911194
  0
VERTEX
  8
0
 10
2847.260009765625
 20
635.10052490234375
 42
0
  0
VERTEX
  8
0
 10
2825.470703125
 20
631.27386474609375
 42
-0.10543260723352432
  0
VERTEX
  8
0
 10
2825.470703125
 20
509.27386474609375
 42
-0
  0
SEQEND
  0
POLYLINE
  8
0
 10
0
 20
0
 39
0
 70
1
 66
1
  0
VERTEX
  8
0
 10
1167.4930419921875
 20
771.78973388671875
 42
0
  0
VERTEX
  8
0
 10
1387.4930419921875
 20
771.78973388671875
 42
1
  0
VERTEX
  8
0
 10
1387.4930419921875
 20
901.78973388671875
 42
0
  0
VERTEX
  8
0
 10
1167.4930419921875
 20
901.78973388671875
 42
1
  0
SEQEND
  0
POLYLINE
  8
0
 10
0
 20
0
 39
0
 70
1
 66
1
  0
VERTEX
  8
0
 10
2723.800048828125
 20
761.67279052734375
 42
0.10082931816577911
  0
VERTEX
  8
0
 10
2724.58203125
 20
888.8341064453125
 42
0.40808120369911194
  0
VERTEX
  8
0
 10
2719.9658203125
 20
891.99945068359375
 42
0
  0
VERTEX
  8
0
 10
2698.176513671875
 20
888.17279052734375
 42
-0.10543260723352432
  0
VERTEX
  8
0
 10
2698.176513671875
 20
766.17279052734375
 42
-0
  0
SEQEND
  0
POLYLINE
  8
0
 10
0
 20
0
 39
0
 70
1
 66
1
  0
VERTEX
  8
0
 10
2838.409423828125
 20
224
 42
0.10082931816577911
  0
VERTEX
  8
0
 10
2839.191650390625
 20
351.16131591796875
 42
0.40808120369911194
  0
VERTEX
  8
0
 10
2834.575439453125
 20
354.32662963867187
 42
0
  0
VERTEX
  8
0
 10
2812.785888671875
 20
350.5
 42
-0.10543260723352432
  0
VERTEX
  8
0
 10
2812.785888671875
 20
228.5
 42
-0
  0
SEQEND
  0
POLYLINE
  8
0
 10
0
 20
0
 39
0
 70
1
 66
1
  0
VERTEX
  8
0
 10
1291.8875732421875
 20
675.8948974609375
 42
0
  0
VERTEX
  8
0
 10
1291.8875732421875
 20
455.89486694335937
 42
1
  0
VERTEX
  8
0
 10
1421.8875732421875
 20
455.89486694335937
 42
0
  0
VERTEX
  8
0
 10
1421.8875732421875
 20
675.8948974609375
 42
1
  0
SEQEND
  0
POLYLINE
  8
0
 10
0
 20
0
 39
0
 70
1
 66
1
  0
VERTEX
  8
0
 10
2808.662841796875
 20
711.93463134765625
 42
0.10082931816577911
  0
VERTEX
  8
0
 10
2809.44482421875
 20
839.09600830078125
 42
0.40808120369911194
  0
VERTEX
  8
0
 10
2804.82861328125
 20
842.26129150390625
 42
0
  0
VERTEX
  8
0
 10
2783.039306640625
 20
838.43463134765625
 42
-0.10543260723352432
  0
VERTEX
  8
0
 10
2783.039306640625
 20
716.43463134765625
 42
-0
  0
SEQEND
  0
POLYLINE
  8
0
 10
0
 20
0
 39
0
 70
1
 66
1
  0
VERTEX
  8
0
 10
2062.647705078125
 20
295
 42
0
  0
VERTEX
  8
0
 10
2062.647705078125
 20
75
 42
1
  0
VERTEX
  8
0
 10
2192.647705078125
 20
75
 42
0
  0
VERTEX
  8
0
 10
2192.647705078125
 20
295
 42
1
  0
SEQEND
  0
POLYLINE
  8
0
 10
0
 20
0
 39
0
 70
1
 66
1
  0
VERTEX
  8
0
 10
1887.4930419921875
 20
730
 42
0
  0
VERTEX
  8
0
 10
2107.4931640625
 20
730
 42
1
  0
VERTEX
  8
0
 10
2107.4931640625
 20
860
 42
0
  0
VERTEX
  8
0
 10
1887.4930419921875
 20
860
 42
1
  0
SEQEND
  0
POLYLINE
  8
0
 10
0
 20
0
 39
0
 70
1
 66
1
  0
VERTEX
  8
0
 10
2808.662841796875
 20
852.32159423828125
 42
0.10082931816577911
  0
VERTEX
  8
0
 10
2809.44482421875
 20
979.48291015625
 42
0.40808120369911194
  0
VERTEX
  8
0
 10
2804.82861328125
 20
982.648193359375
 42
0
  0
VERTEX
  8
0
 10
2783.039306640625
 20
978.82159423828125
 42
-0.10543260723352432
  0
VERTEX
  8
0
 10
2783.039306640625
 20
856.82159423828125
 42
-0
  0
SEQEND
  0
POLYLINE
  8
0
 10
0
 20
0
 39
0
 70
1
 66
1
  0
VERTEX
  8
0
 10
2131.8876953125
 20
655
 42
0
  0
VERTEX
  8
0
 10
2131.8876953125
 20
435
 42
1
  0
VERTEX
  8
0
 10
2261.8876953125
 20
435
 42
0
  0
VERTEX
  8
0
 10
2261.8876953125
 20
655
 42
1
  0
SEQEND
  0
POLYLINE
  8
0
 10
0
 20
0
 39
0
 70
1
 66
1
  0
VERTEX
  8
0
 10
1922.647705078125
 20
295
 42
0
  0
VERTEX
  8
0
 10
1922.647705078125
 20
75
 42
1
  0
VERTEX
  8
0
 10
2052.647705078125
 20
75
 42
0
  0
VERTEX
  8
0
 10
2052.647705078125
 20
295
 42
1
  0
SEQEND
  0
POLYLINE
  8
0
 10
0
 20
0
 39
0
 70
1
 66
1
  0
VERTEX
  8
0
 10
1991.8875732421875
 20
655
 42
0
  0
VERTEX
  8
0
 10
1991.8875732421875
 20
435
 42
1
  0
VERTEX
  8
0
 10
2121.8876953125
 20
435
 42
0
  0
VERTEX
  8
0
 10
2121.8876953125
 20
655
 42
1
  0
SEQEND
  0
POLYLINE
  8
0
 10
0
 20
0
 39
0
 70
1
 66
1
  0
VERTEX
  8
0
 10
2723.800048828125
 20
621.285888671875
 42
0.10082931816577911
  0
VERTEX
  8
0
 10
2724.58203125
 20
748.44720458984375
 42
0.40808120369911194
  0
VERTEX
  8
0
 10
2719.9658203125
 20
751.61248779296875
 42
0
  0
VERTEX
  8
0
 10
2698.176513671875
 20
747.78582763671875
 42
-0.10543260723352432
  0
VERTEX
  8
0
 10
2698.176513671875
 20
625.78582763671875
 42
-0
  0
SEQEND
  0
POLYLINE
  8
0
 10
0
 20
0
 39
0
 70
1
 66
1
  0
VERTEX
  8
0
 10
2766.2314453125
 20
621.285888671875
 42
0.10082931816577911
  0
VERTEX
  8
0
 10
2767.013427734375
 20
748.44720458984375
 42
0.40808120369911194
  0
VERTEX
  8
0
 10
2762.397216796875
 20
751.61248779296875
 42
0
  0
VERTEX
  8
0
 10
2740.60791015625
 20
747.78582763671875
 42
-0.10543260723352432
  0
VERTEX
  8
0
 10
2740.60791015625
 20
625.78582763671875
 42
-0
  0
SEQEND
  0
POLYLINE
  8
0
 10
0
 20
0
 39
0
 70
1
 66
1
  0
VERTEX
  8
0
 10
1851.8875732421875
 20
655
 42
0
  0
VERTEX
  8
0
 10
1851.8875732421875
 20
435
 42
1
  0
VERTEX
  8
0
 10
1981.8875732421875
 20
435
 42
0
  0
VERTEX
  8
0
 10
1981.8875732421875
 20
655
 42
1
  0
SEQEND
  0
POLYLINE
  8
0
 10
0
 20
0
 39
0
 70
1
 66
1
  0
VERTEX
  8
0
 10
1782.647705078125
 20
295
 42
0
  0
VERTEX
  8
0
 10
1782.647705078125
 20
75
 42
1
  0
VERTEX
  8
0
 10
1912.647705078125
 20
75
 42
0
  0
VERTEX
  8
0
 10
1912.647705078125
 20
295
 42
1
  0
SEQEND
  0
POLYLINE
  8
0
 10
0
 20
0
 39
0
 70
1
 66
1
  0
VERTEX
  8
0
 10
2876.902099609375
 20
513.20001220703125
 42
0
  0
VERTEX
  8
0
 10
2884.001953125
 20
484.60000610351562
 42
0.34649235010147095
  0
VERTEX
  8
0
 10
2906.604248046875
 20
466.79998779296875
 42
0
  0
VERTEX
  8
0
 10
2916.402099609375
 20
466.79998779296875
 42
0
  0
VERTEX
  8
0
 10
2916.402099609375
 20
578.20001220703125
 42
0
  0
VERTEX
  8
0
 10
2867.902099609375
 20
578.20001220703125
 42
0
  0
VERTEX
  8
0
 10
2867.902099609375
 20
513.20001220703125
 42
-0
  0
SEQEND
  0
POLYLINE
  8
0
 10
0
 20
0
 39
0
 70
1
 66
1
  0
VERTEX
  8
0
 10
2766.2314453125
 20
761.67279052734375
 42
0.10082931816577911
  0
VERTEX
  8
0
 10
2767.013427734375
 20
888.8341064453125
 42
0.40808120369911194
  0
VERTEX
  8
0
 10
2762.397216796875
 20
891.99945068359375
 42
0
  0
VERTEX
  8
0
 10
2740.60791015625
 20
888.17279052734375
 42
-0.10543260723352432
  0
VERTEX
  8
0
 10
2740.60791015625
 20
766.17279052734375
 42
-0
  0
SEQEND
  0
POLYLINE
  8
0
 10
0
 20
0
 39
0
 70
1
 66
1
  0
VERTEX
  8
0
 10
2955.857666015625
 20
978.0235595703125
 42
0.10082931816577911
  0
VERTEX
  8
0
 10
2828.6962890625
 20
978.80560302734375
 42
0.40808120369911194
  0
VERTEX
  8
0
 10
2825.531005859375
 20
974.18939208984375
 42
0
  0
VERTEX
  8
0
 10
2829.357666015625
 20
952.4000244140625
 42
-0.10543260723352432
  0
VERTEX
  8
0
 10
2951.357666015625
 20
952.4000244140625
 42
-0
  0
SEQEND
  0
POLYLINE
  8
0
 10
0
 20
0
 39
0
 70
1
 66
1
  0
VERTEX
  8
0
 10
2786.73828125
 20
150.38693237304688
 42
0.10082931816577911
  0
VERTEX
  8
0
 10
2787.520263671875
 20
277.54824829101562
 42
0.40808120369911194
  0
VERTEX
  8
0
 10
2782.904052734375
 20
280.71356201171875
 42
0
  0
VERTEX
  8
0
 10
2761.11474609375
 20
276.88693237304687
 42
-0.10543260723352432
  0
VERTEX
  8
0
 10
2761.11474609375
 20
154.88691711425781
 42
-0
  0
SEQEND
  0
POLYLINE
  8
0
 10
0
 20
0
 39
0
 70
1
 66
1
  0
VERTEX
  8
0
 10
2786.73828125
 20
10
 42
0.10082931816577911
  0
VERTEX
  8
0
 10
2787.520263671875
 20
137.16133117675781
 42
0.40808120369911194
  0
VERTEX
  8
0
 10
2782.904052734375
 20
140.32662963867187
 42
0
  0
VERTEX
  8
0
 10
2761.11474609375
 20
136.49998474121094
 42
-0.10543260723352432
  0
VERTEX
  8
0
 10
2761.11474609375
 20
14.499992370605469
 42
-0
  0
SEQEND
  0
POLYLINE
  8
0
 10
0
 20
0
 39
0
 70
1
 66
1
  0
VERTEX
  8
0
 10
2808.662841796875
 20
571.5477294921875
 42
0.10082931816577911
  0
VERTEX
  8
0
 10
2809.44482421875
 20
698.70904541015625
 42
0.40808120369911194
  0
VERTEX
  8
0
 10
2804.82861328125
 20
701.8743896484375
 42
0
  0
VERTEX
  8
0
 10
2783.039306640625
 20
698.0477294921875
 42
-0.10543260723352432
  0
VERTEX
  8
0
 10
2783.039306640625
 20
576.0477294921875
 42
-0
  0
SEQEND
  0
POLYLINE
  8
0
 10
0
 20
0
 39
0
 70
1
 66
1
  0
VERTEX
  8
0
 10
2795.97802734375
 20
290.77386474609375
 42
0.10082931816577911
  0
VERTEX
  8
0
 10
2796.76025390625
 20
417.9351806640625
 42
0.40808120369911194
  0
VERTEX
  8
0
 10
2792.14404296875
 20
421.10049438476562
 42
0
  0
VERTEX
  8
0
 10
2770.3544921875
 20
417.27386474609375
 42
-0.10543260723352432
  0
VERTEX
  8
0
 10
2770.3544921875
 20
295.27386474609375
 42
-0
  0
SEQEND
  0
POLYLINE
  8
0
 10
0
 20
0
 39
0
 70
1
 66
1
  0
VERTEX
  8
0
 10
2766.2314453125
 20
480.89892578125
 42
0.10082931816577911
  0
VERTEX
  8
0
 10
2767.013427734375
 20
608.06024169921875
 42
0.40808120369911194
  0
VERTEX
  8
0
 10
2762.397216796875
 20
611.2255859375
 42
0
  0
VERTEX
  8
0
 10
2740.60791015625
 20
607.39892578125
 42
-0.10543260723352432
  0
VERTEX
  8
0
 10
2740.60791015625
 20
485.39892578125
 42
-0
  0
SEQEND
  0
POLYLINE
  8
0
 10
0
 20
0
 39
0
 70
1
 66
1
  0
VERTEX
  8
0
 10
2723.800048828125
 20
480.89892578125
 42
0.10082931816577911
  0
VERTEX
  8
0
 10
2724.58203125
 20
608.06024169921875
 42
0.40808120369911194
  0
VERTEX
  8
0
 10
2719.9658203125
 20
611.2255859375
 42
0
  0
VERTEX
  8
0
 10
2698.176513671875
 20
607.39892578125
 42
-0.10543260723352432
  0
VERTEX
  8
0
 10
2698.176513671875
 20
485.39892578125
 42
-0
  0
SEQEND
  0
POLYLINE
  8
0
 10
0
 20
0
 39
0
 70
1
 66
1
  0
VERTEX
  8
0
 10
2723.47802734375
 20
175.25599670410156
 42
0.10082931816577911
  0
VERTEX
  8
0
 10
2724.26025390625
 20
302.41732788085937
 42
0.40808120369911194
  0
VERTEX
  8
0
 10
2719.64404296875
 20
305.5826416015625
 42
0
  0
VERTEX
  8
0
 10
2697.8544921875
 20
301.7559814453125
 42
-0.10543260723352432
  0
VERTEX
  8
0
 10
2697.8544921875
 20
179.75599670410156
 42
-0
  0
SEQEND
  0
POLYLINE
  8
0
 10
0
 20
0
 39
0
 70
1
 66
1
  0
VERTEX
  8
0
 10
2851.09423828125
 20
785.5477294921875
 42
0.10082931816577911
  0
VERTEX
  8
0
 10
2851.876220703125
 20
912.70904541015625
 42
0.40808120369911194
  0
VERTEX
  8
0
 10
2847.260009765625
 20
915.8743896484375
 42
0
  0
VERTEX
  8
0
 10
2825.470703125
 20
912.0477294921875
 42
-0.10543260723352432
  0
VERTEX
  8
0
 10
2825.470703125
 20
790.0477294921875
 42
-0
  0
SEQEND
  0
POLYLINE
  8
0
 10
0
 20
0
 39
0
 70
1
 66
1
  0
VERTEX
  8
0
 10
303.33975219726562
 20
524.30950927734375
 42
-0.046706564724445343
  0
VERTEX
  8
0
 10
303.29342651367187
 20
521.68310546875
 42
0.0031346138566732407
  0
VERTEX
  8
0
 10
296.26324462890625
 20
483.22189331054687
 42
0.0084576783701777458
  0
VERTEX
  8
0
 10
286.51040649414062
 20
420.76187133789062
 42
0.013210054486989975
  0
VERTEX
  8
0
 10
279.72915649414062
 20
360.2257080078125
 42
0.014485171064734459
  0
VERTEX
  8
0
 10
276.04324340820312
 20
296.47039794921875
 42
0.019390320405364037
  0
VERTEX
  8
0
 10
276.72900390625
 20
219.20968627929687
 42
0.015223757363855839
  0
VERTEX
  8
0
 10
281.748291015625
 20
152.95901489257812
 42
0.010234789922833443
  0
VERTEX
  8
0
 10
289.50103759765625
 20
92.651458740234375
 42
0.0094475224614143372
  0
VERTEX
  8
0
 10
299.96817016601562
 20
30.420013427734375
 42
-0.011144493706524372
  0
VERTEX
  8
0
 10
303.33975219726562
 20
10
 42
-0
  0
VERTEX
  8
0
 10
326.38845825195312
 20
10
 42
-0.046703245490789413
  0
VERTEX
  8
0
 10
326.43478393554687
 20
12.62640380859375
 42
0.0031471042893826962
  0
VERTEX
  8
0
 10
333.4649658203125
 20
51.087615966796875
 42
0.008457675576210022
  0
VERTEX
  8
0
 10
343.21780395507812
 20
113.54766845703125
 42
0.013210056349635124
  0
VERTEX
  8
0
 10
349.99905395507812
 20
174.08380126953125
 42
0.014485174790024757
  0
VERTEX
  8
0
 10
353.6849365234375
 20
237.839111328125
 42
0.019391896203160286
  0
VERTEX
  8
0
 10
352.99920654296875
 20
315.099853515625
 42
0.015223757363855839
  0
VERTEX
  8
0
 10
347.97991943359375
 20
381.35052490234375
 42
0.010234789922833443
  0
VERTEX
  8
0
 10
340.2271728515625
 20
441.6580810546875
 42
0.0094475224614143372
  0
VERTEX
  8
0
 10
329.76004028320312
 20
503.8895263671875
 42
-0.011147454380989075
  0
VERTEX
  8
0
 10
326.38845825195312
 20
524.30950927734375
 42
-0
  0
SEQEND
  0
POLYLINE
  8
0
 10
0
 20
0
 39
0
 70
1
 66
1
  0
VERTEX
  8
0
 10
657.47021484375
 20
524.30950927734375
 42
-0.046706564724445343
  0
VERTEX
  8
0
 10
657.423828125
 20
521.68310546875
 42
0.0031346138566732407
  0
VERTEX
  8
0
 10
650.3936767578125
 20
483.22189331054687
 42
0.0084576783701777458
  0
VERTEX
  8
0
 10
640.640869140625
 20
420.76187133789062
 42
0.013210054486989975
  0
VERTEX
  8
0
 10
633.85955810546875
 20
360.2257080078125
 42
0.014485171064734459
  0
VERTEX
  8
0
 10
630.1737060546875
 20
296.47039794921875
 42
0.019390320405364037
  0
VERTEX
  8
0
 10
630.85943603515625
 20
219.20968627929687
 42
0.015223757363855839
  0
VERTEX
  8
0
 10
635.87872314453125
 20
152.95901489257812
 42
0.010234789922833443
  0
VERTEX
  8
0
 10
643.6314697265625
 20
92.651458740234375
 42
0.0094475224614143372
  0
VERTEX
  8
0
 10
654.0986328125
 20
30.420013427734375
 42
-0.011144493706524372
  0
VERTEX
  8
0
 10
657.47021484375
 20
10
 42
-0
  0
VERTEX
  8
0
 10
680.51885986328125
 20
10
 42
-0.046703245490789413
  0
VERTEX
  8
0
 10
680.565185546875
 20
12.62640380859375
 42
0.0031471042893826962
  0
VERTEX
  8
0
 10
687.59539794921875
 20
51.087615966796875
 42
0.008457675576210022
  0
VERTEX
  8
0
 10
697.34820556640625
 20
113.54766845703125
 42
0.013210056349635124
  0
VERTEX
  8
0
 10
704.1295166015625
 20
174.08380126953125
 42
0.014485174790024757
  0
VERTEX
  8
0
 10
707.81536865234375
 20
237.839111328125
 42
0.019391896203160286
  0
VERTEX
  8
0
 10
707.129638671875
 20
315.099853515625
 42
0.015223757363855839
  0
VERTEX
  8
0
 10
702.1103515625
 20
381.35052490234375
 42
0.010234789922833443
  0
VERTEX
  8
0
 10
694.35760498046875
 20
441.6580810546875
 42
0.0094475224614143372
  0
VERTEX
  8
0
 10
683.89044189453125
 20
503.8895263671875
 42
-0.011147454380989075
  0
VERTEX
  8
0
 10
680.51885986328125
 20
524.30950927734375
 42
-0
  0
SEQEND
  0
POLYLINE
  8
0
 10
0
 20
0
 39
0
 70
1
 66
1
  0
VERTEX
  8
0
 10
2876.902099609375
 20
634.5999755859375
 42
0
  0
VERTEX
  8
0
 10
2884.001953125
 20
606
 42
0.34649235010147095
  0
VERTEX
  8
0
 10
2906.604248046875
 20
588.20001220703125
 42
0
  0
VERTEX
  8
0
 10
2916.402099609375
 20
588.20001220703125
 42
0
  0
VERTEX
  8
0
 10
2916.402099609375
 20
699.5999755859375
 42
0
  0
VERTEX
  8
0
 10
2867.902099609375
 20
699.5999755859375
 42
0
  0
VERTEX
  8
0
 10
2867.902099609375
 20
634.5999755859375
 42
-0
  0
SEQEND
  0
POLYLINE
  8
0
 10
0
 20
0
 39
0
 70
1
 66
1
  0
VERTEX
  8
0
 10
2935.402099609375
 20
360.667236328125
 42
0
  0
VERTEX
  8
0
 10
2942.501953125
 20
332.06723022460937
 42
0.34649235010147095
  0
VERTEX
  8
0
 10
2965.104248046875
 20
314.26724243164062
 42
0
  0
VERTEX
  8
0
 10
2974.902099609375
 20
314.26724243164062
 42
0
  0
VERTEX
  8
0
 10
2974.902099609375
 20
425.667236328125
 42
0
  0
VERTEX
  8
0
 10
2926.402099609375
 20
425.667236328125
 42
0
  0
VERTEX
  8
0
 10
2926.402099609375
 20
360.667236328125
 42
-0
  0
SEQEND
  0
POLYLINE
  8
0
 10
0
 20
0
 39
0
 70
1
 66
1
  0
VERTEX
  8
0
 10
2876.902099609375
 20
756
 42
0
  0
VERTEX
  8
0
 10
2884.001953125
 20
727.4000244140625
 42
0.34649235010147095
  0
VERTEX
  8
0
 10
2906.604248046875
 20
709.5999755859375
 42
0
  0
VERTEX
  8
0
 10
2916.402099609375
 20
709.5999755859375
 42
0
  0
VERTEX
  8
0
 10
2916.402099609375
 20
821
 42
0
  0
VERTEX
  8
0
 10
2867.902099609375
 20
821
 42
0
  0
VERTEX
  8
0
 10
2867.902099609375
 20
756
 42
-0
  0
SEQEND
  0
POLYLINE
  8
0
 10
0
 20
0
 39
0
 70
1
 66
1
  0
VERTEX
  8
0
 10
2374.20947265625
 20
924.336181640625
 42
0
  0
VERTEX
  8
0
 10
2319.046630859375
 20
978.88934326171875
 42
0.66617089509963989
  0
VERTEX
  8
0
 10
2272.20947265625
 20
959.336181640625
 42
0
  0
VERTEX
  8
0
 10
2272.20947265625
 20
924.336181640625
 42
0
  0
SEQEND
  0
POLYLINE
  8
0
 10
0
 20
0
 39
0
 70
1
 66
1
  0
VERTEX
  8
0
 10
2325.465576171875
 20
986.836181640625
 42
0
  0
VERTEX
  8
0
 10
2380.62841796875
 20
932.282958984375
 42
0.66617089509963989
  0
VERTEX
  8
0
 10
2427.465576171875
 20
951.836181640625
 42
0
  0
VERTEX
  8
0
 10
2427.465576171875
 20
986.836181640625
 42
0
  0
SEQEND
  0
POLYLINE
  8
0
 10
0
 20
0
 39
0
 70
1
 66
1
  0
VERTEX
  8
0
 10
10
 20
827.6492919921875
 42
-0.046706564724445343
  0
VERTEX
  8
0
 10
12.626380920410156
 20
827.6029052734375
 42
0.0031346138566732407
  0
VERTEX
  8
0
 10
51.087615966796875
 20
820.57275390625
 42
0.0084576783701777458
  0
VERTEX
  8
0
 10
113.54764556884766
 20
810.8199462890625
 42
0.013210054486989975
  0
VERTEX
  8
0
 10
174.08378601074219
 20
804.03863525390625
 42
0.014485171064734459
  0
VERTEX
  8
0
 10
237.839111328125
 20
800.352783203125
 42
0.019390320405364037
  0
VERTEX
  8
0
 10
315.09982299804687
 20
801.03851318359375
 42
0.015223757363855839
  0
VERTEX
  8
0
 10
381.35049438476562
 20
806.05780029296875
 42
0.010234789922833443
  0
VERTEX
  8
0
 10
441.65805053710937
 20
813.810546875
 42
0.0094475224614143372
  0
VERTEX
  8
0
 10
503.88949584960937
 20
824.2777099609375
 42
-0.011144493706524372
  0
VERTEX
  8
0
 10
524.30950927734375
 20
827.6492919921875
 42
-0
  0
VERTEX
  8
0
 10
524.30950927734375
 20
850.69793701171875
 42
-0.046703245490789413
  0
VERTEX
  8
0
 10
521.68310546875
 20
850.7442626953125
 42
0.0031471042893826962
  0
VERTEX
  8
0
 10
483.22189331054687
 20
857.77447509765625
 42
0.008457675576210022
  0
VERTEX
  8
0
 10
420.7618408203125
 20
867.52728271484375
 42
0.013210056349635124
  0
VERTEX
  8
0
 10
360.2257080078125
 20
874.30859375
 42
0.014485174790024757
  0
VERTEX
  8
0
 10
296.47039794921875
 20
877.99444580078125
 42
0.019391896203160286
  0
VERTEX
  8
0
 10
219.20967102050781
 20
877.3087158203125
 42
0.015223757363855839
  0
VERTEX
  8
0
 10
152.95899963378906
 20
872.2894287109375
 42
0.010234789922833443
  0
VERTEX
  8
0
 10
92.651443481445313
 20
864.53668212890625
 42
0.0094475224614143372
  0
VERTEX
  8
0
 10
30.419992446899414
 20
854.06951904296875
 42
-0.011147454380989075
  0
VERTEX
  8
0
 10
10
 20
850.69793701171875
 42
-0
  0
SEQEND
  0
POLYLINE
  8
0
 10
0
 20
0
 39
0
 70
1
 66
1
  0
VERTEX
  8
0
 10
923.0679931640625
 20
524.30950927734375
 42
-0.046706564724445343
  0
VERTEX
  8
0
 10
923.02166748046875
 20
521.68310546875
 42
0.0031346138566732407
  0
VERTEX
  8
0
 10
915.99151611328125
 20
483.22189331054687
 42
0.0084576783701777458
  0
VERTEX
  8
0
 10
906.2386474609375
 20
420.76187133789062
 42
0.013210054486989975
  0
VERTEX
  8
0
 10
899.4573974609375
 20
360.2257080078125
 42
0.014485171064734459
  0
VERTEX
  8
0
 10
895.77154541015625
 20
296.47039794921875
 42
0.019390320405364037
  0
VERTEX
  8
0
 10
896.457275390625
 20
219.20968627929687
 42
0.015223757363855839
  0
VERTEX
  8
0
 10
901.4765625
 20
152.95901489257812
 42
0.010234789922833443
  0
VERTEX
  8
0
 10
909.22930908203125
 20
92.651458740234375
 42
0.0094475224614143372
  0
VERTEX
  8
0
 10
919.6964111328125
 20
30.420013427734375
 42
-0.011144493706524372
  0
VERTEX
  8
0
 10
923.0679931640625
 20
10
 42
-0
  0
VERTEX
  8
0
 10
946.11669921875
 20
10
 42
-0.046703245490789413
  0
VERTEX
  8
0
 10
946.16302490234375
 20
12.62640380859375
 42
0.0031471042893826962
  0
VERTEX
  8
0
 10
953.1932373046875
 20
51.087615966796875
 42
0.008457675576210022
  0
VERTEX
  8
0
 10
962.946044921875
 20
113.54766845703125
 42
0.013210056349635124
  0
VERTEX
  8
0
 10
969.727294921875
 20
174.08380126953125
 42
0.014485174790024757
  0
VERTEX
  8
0
 10
973.4132080078125
 20
237.839111328125
 42
0.019391896203160286
  0
VERTEX
  8
0
 10
972.72747802734375
 20
315.099853515625
 42
0.015223757363855839
  0
VERTEX
  8
0
 10
967.70819091796875
 20
381.35052490234375
 42
0.010234789922833443
  0
VERTEX
  8
0
 10
959.9554443359375
 20
441.6580810546875
 42
0.0094475224614143372
  0
VERTEX
  8
0
 10
949.48828125
 20
503.8895263671875
 42
-0.011147454380989075
  0
VERTEX
  8
0
 10
946.11669921875
 20
524.30950927734375
 42
-0
  0
SEQEND
  0
POLYLINE
  8
0
 10
0
 20
0
 39
0
 70
1
 66
1
  0
VERTEX
  8
0
 10
10
 20
739.11663818359375
 42
-0.046706564724445343
  0
VERTEX
  8
0
 10
12.626380920410156
 20
739.0703125
 42
0.0031346138566732407
  0
VERTEX
  8
0
 10
51.087615966796875
 20
732.0401611328125
 42
0.0084576783701777458
  0
VERTEX
  8
0
 10
113.54764556884766
 20
722.28729248046875
 42
0.013210054486989975
  0
VERTEX
  8
0
 10
174.08378601074219
 20
715.50604248046875
 42
0.014485171064734459
  0
VERTEX
  8
0
 10
237.839111328125
 20
711.82012939453125
 42
0.019390320405364037
  0
VERTEX
  8
0
 10
315.09982299804687
 20
712.50592041015625
 42
0.015223757363855839
  0
VERTEX
  8
0
 10
381.35049438476562
 20
717.52520751953125
 42
0.010234789922833443
  0
VERTEX
  8
0
 10
441.65805053710937
 20
725.2779541015625
 42
0.0094475224614143372
  0
VERTEX
  8
0
 10
503.88949584960937
 20
735.74505615234375
 42
-0.011144493706524372
  0
VERTEX
  8
0
 10
524.30950927734375
 20
739.11663818359375
 42
-0
  0
VERTEX
  8
0
 10
524.30950927734375
 20
762.16534423828125
 42
-0.046703245490789413
  0
VERTEX
  8
0
 10
521.68310546875
 20
762.211669921875
 42
0.0031471042893826962
  0
VERTEX
  8
0
 10
483.22189331054687
 20
769.24188232421875
 42
0.008457675576210022
  0
VERTEX
  8
0
 10
420.7618408203125
 20
778.99468994140625
 42
0.013210056349635124
  0
VERTEX
  8
0
 10
360.2257080078125
 20
785.77593994140625
 42
0.014485174790024757
  0
VERTEX
  8
0
 10
296.47039794921875
 20
789.46185302734375
 42
0.019391896203160286
  0
VERTEX
  8
0
 10
219.20967102050781
 20
788.776123046875
 42
0.015223757363855839
  0
VERTEX
  8
0
 10
152.95899963378906
 20
783.7568359375
 42
0.010234789922833443
  0
VERTEX
  8
0
 10
92.651443481445313
 20
776.00408935546875
 42
0.0094475224614143372
  0
VERTEX
  8
0
 10
30.419992446899414
 20
765.53692626953125
 42
-0.011147454380989075
  0
VERTEX
  8
0
 10
10
 20
762.16534423828125
 42
-0
  0
SEQEND
  0
POLYLINE
  8
0
 10
0
 20
0
 39
0
 70
1
 66
1
  0
VERTEX
  8
0
 10
2876.902099609375
 20
391.79998779296875
 42
0
  0
VERTEX
  8
0
 10
2884.001953125
 20
363.20001220703125
 42
0.34649235010147095
  0
VERTEX
  8
0
 10
2906.604248046875
 20
345.39999389648437
 42
0
  0
VERTEX
  8
0
 10
2916.402099609375
 20
345.39999389648437
 42
0
  0
VERTEX
  8
0
 10
2916.402099609375
 20
456.79998779296875
 42
0
  0
VERTEX
  8
0
 10
2867.902099609375
 20
456.79998779296875
 42
0
  0
VERTEX
  8
0
 10
2867.902099609375
 20
391.79998779296875
 42
-0
  0
SEQEND
  0
POLYLINE
  8
0
 10
0
 20
0
 39
0
 70
1
 66
1
  0
VERTEX
  8
0
 10
2162.70947265625
 20
916.4000244140625
 42
0
  0
VERTEX
  8
0
 10
2169.8095703125
 20
887.79998779296875
 42
0.34649235010147095
  0
VERTEX
  8
0
 10
2192.41162109375
 20
870
 42
0
  0
VERTEX
  8
0
 10
2202.20947265625
 20
870
 42
0
  0
VERTEX
  8
0
 10
2202.20947265625
 20
981.4000244140625
 42
0
  0
VERTEX
  8
0
 10
2153.70947265625
 20
981.4000244140625
 42
0
  0
VERTEX
  8
0
 10
2153.70947265625
 20
916.4000244140625
 42
-0
  0
SEQEND
  0
POLYLINE
  8
0
 10
0
 20
0
 39
0
 70
1
 66
1
  0
VERTEX
  8
0
 10
568.93756103515625
 20
524.30950927734375
 42
-0.046706564724445343
  0
VERTEX
  8
0
 10
568.8912353515625
 20
521.68310546875
 42
0.0031346138566732407
  0
VERTEX
  8
0
 10
561.861083984375
 20
483.22189331054687
 42
0.0084576783701777458
  0
VERTEX
  8
0
 10
552.10821533203125
 20
420.76187133789062
 42
0.013210054486989975
  0
VERTEX
  8
0
 10
545.32696533203125
 20
360.2257080078125
 42
0.014485171064734459
  0
VERTEX
  8
0
 10
541.64111328125
 20
296.47039794921875
 42
0.019390320405364037
  0
VERTEX
  8
0
 10
542.32684326171875
 20
219.20968627929687
 42
0.015223757363855839
  0
VERTEX
  8
0
 10
547.34613037109375
 20
152.95901489257812
 42
0.010234789922833443
  0
VERTEX
  8
0
 10
555.098876953125
 20
92.651458740234375
 42
0.0094475224614143372
  0
VERTEX
  8
0
 10
565.56597900390625
 20
30.420013427734375
 42
-0.011144493706524372
  0
VERTEX
  8
0
 10
568.93756103515625
 20
10
 42
-0
  0
VERTEX
  8
0
 10
591.98626708984375
 20
10
 42
-0.046703245490789413
  0
VERTEX
  8
0
 10
592.0325927734375
 20
12.62640380859375
 42
0.0031471042893826962
  0
VERTEX
  8
0
 10
599.06280517578125
 20
51.087615966796875
 42
0.008457675576210022
  0
VERTEX
  8
0
 10
608.81561279296875
 20
113.54766845703125
 42
0.013210056349635124
  0
VERTEX
  8
0
 10
615.59686279296875
 20
174.08380126953125
 42
0.014485174790024757
  0
VERTEX
  8
0
 10
619.28277587890625
 20
237.839111328125
 42
0.019391896203160286
  0
VERTEX
  8
0
 10
618.5970458984375
 20
315.099853515625
 42
0.015223757363855839
  0
VERTEX
  8
0
 10
613.5777587890625
 20
381.35052490234375
 42
0.010234789922833443
  0
VERTEX
  8
0
 10
605.82501220703125
 20
441.6580810546875
 42
0.0094475224614143372
  0
VERTEX
  8
0
 10
595.35784912109375
 20
503.8895263671875
 42
-0.011147454380989075
  0
VERTEX
  8
0
 10
591.98626708984375
 20
524.30950927734375
 42
-0
  0
SEQEND
  0
POLYLINE
  8
0
 10
0
 20
0
 39
0
 70
1
 66
1
  0
VERTEX
  8
0
 10
746.0028076171875
 20
524.30950927734375
 42
-0.046706564724445343
  0
VERTEX
  8
0
 10
745.95648193359375
 20
521.68310546875
 42
0.0031346138566732407
  0
VERTEX
  8
0
 10
738.92626953125
 20
483.22189331054687
 42
0.0084576783701777458
  0
VERTEX
  8
0
 10
729.1734619140625
 20
420.76187133789062
 42
0.013210054486989975
  0
VERTEX
  8
0
 10
722.3922119140625
 20
360.2257080078125
 42
0.014485171064734459
  0
VERTEX
  8
0
 10
718.706298828125
 20
296.47039794921875
 42
0.019390320405364037
  0
VERTEX
  8
0
 10
719.39202880859375
 20
219.20968627929687
 42
0.015223757363855839
  0
VERTEX
  8
0
 10
724.41131591796875
 20
152.95901489257812
 42
0.010234789922833443
  0
VERTEX
  8
0
 10
732.1640625
 20
92.651458740234375
 42
0.0094475224614143372
  0
VERTEX
  8
0
 10
742.6312255859375
 20
30.420013427734375
 42
-0.011144493706524372
  0
VERTEX
  8
0
 10
746.0028076171875
 20
10
 42
-0
  0
VERTEX
  8
0
 10
769.051513671875
 20
10
 42
-0.046703245490789413
  0
VERTEX
  8
0
 10
769.09783935546875
 20
12.62640380859375
 42
0.0031471042893826962
  0
VERTEX
  8
0
 10
776.12799072265625
 20
51.087615966796875
 42
0.008457675576210022
  0
VERTEX
  8
0
 10
785.880859375
 20
113.54766845703125
 42
0.013210056349635124
  0
VERTEX
  8
0
 10
792.662109375
 20
174.08380126953125
 42
0.014485174790024757
  0
VERTEX
  8
0
 10
796.34796142578125
 20
237.839111328125
 42
0.019391896203160286
  0
VERTEX
  8
0
 10
795.6622314453125
 20
315.099853515625
 42
0.015223757363855839
  0
VERTEX
  8
0
 10
790.6429443359375
 20
381.35052490234375
 42
0.010234789922833443
  0
VERTEX
  8
0
 10
782.89019775390625
 20
441.6580810546875
 42
0.0094475224614143372
  0
VERTEX
  8
0
 10
772.423095703125
 20
503.8895263671875
 42
-0.011147454380989075
  0
VERTEX
  8
0
 10
769.051513671875
 20
524.30950927734375
 42
-0
  0
SEQEND
  0
POLYLINE
  8
0
 10
0
 20
0
 39
0
 70
1
 66
1
  0
VERTEX
  8
0
 10
10
 20
650.58404541015625
 42
-0.046706564724445343
  0
VERTEX
  8
0
 10
12.626380920410156
 20
650.5377197265625
 42
0.0031346138566732407
  0
VERTEX
  8
0
 10
51.087615966796875
 20
643.50750732421875
 42
0.0084576783701777458
  0
VERTEX
  8
0
 10
113.54764556884766
 20
633.75469970703125
 42
0.013210054486989975
  0
VERTEX
  8
0
 10
174.08378601074219
 20
626.97344970703125
 42
0.014485171064734459
  0
VERTEX
  8
0
 10
237.839111328125
 20
623.28753662109375
 42
0.019390320405364037
  0
VERTEX
  8
0
 10
315.09982299804687
 20
623.97332763671875
 42
0.015223757363855839
  0
VERTEX
  8
0
 10
381.35049438476562
 20
628.9925537109375
 42
0.010234789922833443
  0
VERTEX
  8
0
 10
441.65805053710937
 20
636.74530029296875
 42
0.0094475224614143372
  0
VERTEX
  8
0
 10
503.88949584960937
 20
647.21246337890625
 42
-0.011144493706524372
  0
VERTEX
  8
0
 10
524.30950927734375
 20
650.58404541015625
 42
-0
  0
VERTEX
  8
0
 10
524.30950927734375
 20
673.63275146484375
 42
-0.046703245490789413
  0
VERTEX
  8
0
 10
521.68310546875
 20
673.6790771484375
 42
0.0031471042893826962
  0
VERTEX
  8
0
 10
483.22189331054687
 20
680.709228515625
 42
0.008457675576210022
  0
VERTEX
  8
0
 10
420.7618408203125
 20
690.46209716796875
 42
0.013210056349635124
  0
VERTEX
  8
0
 10
360.2257080078125
 20
697.24334716796875
 42
0.014485174790024757
  0
VERTEX
  8
0
 10
296.47039794921875
 20
700.92926025390625
 42
0.019391896203160286
  0
VERTEX
  8
0
 10
219.20967102050781
 20
700.24346923828125
 42
0.015223757363855839
  0
VERTEX
  8
0
 10
152.95899963378906
 20
695.22418212890625
 42
0.010234789922833443
  0
VERTEX
  8
0
 10
92.651443481445313
 20
687.47149658203125
 42
0.0094475224614143372
  0
VERTEX
  8
0
 10
30.419992446899414
 20
677.00433349609375
 42
-0.011147454380989075
  0
VERTEX
  8
0
 10
10
 20
673.63275146484375
 42
-0
  0
SEQEND
  0
POLYLINE
  8
0
 10
0
 20
0
 39
0
 70
1
 66
1
  0
VERTEX
  8
0
 10
126.27454376220703
 20
524.30950927734375
 42
-0.046706564724445343
  0
VERTEX
  8
0
 10
126.22820281982422
 20
521.68310546875
 42
0.0031346138566732407
  0
VERTEX
  8
0
 10
119.19802093505859
 20
483.22189331054687
 42
0.0084576783701777458
  0
VERTEX
  8
0
 10
109.4451904296875
 20
420.76187133789062
 42
0.013210054486989975
  0
VERTEX
  8
0
 10
102.66392517089844
 20
360.2257080078125
 42
0.014485171064734459
  0
VERTEX
  8
0
 10
98.978042602539063
 20
296.47039794921875
 42
0.019390320405364037
  0
VERTEX
  8
0
 10
99.663787841796875
 20
219.20968627929687
 42
0.015223757363855839
  0
VERTEX
  8
0
 10
104.68306732177734
 20
152.95901489257812
 42
0.010234789922833443
  0
VERTEX
  8
0
 10
112.43580627441406
 20
92.651458740234375
 42
0.0094475224614143372
  0
VERTEX
  8
0
 10
122.9029541015625
 20
30.420013427734375
 42
-0.011144493706524372
  0
VERTEX
  8
0
 10
126.27454376220703
 20
10
 42
-0
  0
VERTEX
  8
0
 10
149.32322692871094
 20
10
 42
-0.046703245490789413
  0
VERTEX
  8
0
 10
149.36956787109375
 20
12.62640380859375
 42
0.0031471042893826962
  0
VERTEX
  8
0
 10
156.39974975585937
 20
51.087615966796875
 42
0.008457675576210022
  0
VERTEX
  8
0
 10
166.15257263183594
 20
113.54766845703125
 42
0.013210056349635124
  0
VERTEX
  8
0
 10
172.933837890625
 20
174.08380126953125
 42
0.014485174790024757
  0
VERTEX
  8
0
 10
176.61972045898437
 20
237.839111328125
 42
0.019391896203160286
  0
VERTEX
  8
0
 10
175.93397521972656
 20
315.099853515625
 42
0.015223757363855839
  0
VERTEX
  8
0
 10
170.91470336914062
 20
381.35052490234375
 42
0.010234789922833443
  0
VERTEX
  8
0
 10
163.16195678710937
 20
441.6580810546875
 42
0.0094475224614143372
  0
VERTEX
  8
0
 10
152.69480895996094
 20
503.8895263671875
 42
-0.011147454380989075
  0
VERTEX
  8
0
 10
149.32322692871094
 20
524.30950927734375
 42
-0
  0
SEQEND
  0
POLYLINE
  8
0
 10
0
 20
0
 39
0
 70
1
 66
1
  0
VERTEX
  8
0
 10
2935.402099609375
 20
696.0672607421875
 42
0
  0
VERTEX
  8
0
 10
2942.501953125
 20
667.46722412109375
 42
0.34649235010147095
  0
VERTEX
  8
0
 10
2965.104248046875
 20
649.667236328125
 42
0
  0
VERTEX
  8
0
 10
2974.902099609375
 20
649.667236328125
 42
0
  0
VERTEX
  8
0
 10
2974.902099609375
 20
761.0672607421875
 42
0
  0
VERTEX
  8
0
 10
2926.402099609375
 20
761.0672607421875
 42
0
  0
VERTEX
  8
0
 10
2926.402099609375
 20
696.0672607421875
 42
-0
  0
SEQEND
  0
POLYLINE
  8
0
 10
0
 20
0
 39
0
 70
1
 66
1
  0
VERTEX
  8
0
 10
37.741931915283203
 20
524.30950927734375
 42
-0.046706564724445343
  0
VERTEX
  8
0
 10
37.695594787597656
 20
521.68310546875
 42
0.0031346138566732407
  0
VERTEX
  8
0
 10
30.665416717529297
 20
483.22189331054687
 42
0.0084576783701777458
  0
VERTEX
  8
0
 10
20.91258430480957
 20
420.76187133789062
 42
0.013210054486989975
  0
VERTEX
  8
0
 10
14.131317138671875
 20
360.2257080078125
 42
0.014485171064734459
  0
VERTEX
  8
0
 10
10.445432662963867
 20
296.47039794921875
 42
0.019390320405364037
  0
VERTEX
  8
0
 10
11.131179809570312
 20
219.20968627929687
 42
0.015223757363855839
  0
VERTEX
  8
0
 10
16.150459289550781
 20
152.95901489257812
 42
0.010234789922833443
  0
VERTEX
  8
0
 10
23.9031982421875
 20
92.651458740234375
 42
0.0094475224614143372
  0
VERTEX
  8
0
 10
34.370349884033203
 20
30.420013427734375
 42
-0.011144493706524372
  0
VERTEX
  8
0
 10
37.741931915283203
 20
10
 42
-0
  0
VERTEX
  8
0
 10
60.790618896484375
 20
10
 42
-0.046703245490789413
  0
VERTEX
  8
0
 10
60.836956024169922
 20
12.62640380859375
 42
0.0031471042893826962
  0
VERTEX
  8
0
 10
67.867134094238281
 20
51.087615966796875
 42
0.008457675576210022
  0
VERTEX
  8
0
 10
77.619972229003906
 20
113.54766845703125
 42
0.013210056349635124
  0
VERTEX
  8
0
 10
84.401237487792969
 20
174.08380126953125
 42
0.014485174790024757
  0
VERTEX
  8
0
 10
88.087120056152344
 20
237.839111328125
 42
0.019391896203160286
  0
VERTEX
  8
0
 10
87.401374816894531
 20
315.099853515625
 42
0.015223757363855839
  0
VERTEX
  8
0
 10
82.382095336914063
 20
381.35052490234375
 42
0.010234789922833443
  0
VERTEX
  8
0
 10
74.629356384277344
 20
441.6580810546875
 42
0.0094475224614143372
  0
VERTEX
  8
0
 10
64.162200927734375
 20
503.8895263671875
 42
-0.011147454380989075
  0
VERTEX
  8
0
 10
60.790618896484375
 20
524.30950927734375
 42
-0
  0
SEQEND
  0
POLYLINE
  8
0
 10
0
 20
0
 39
0
 70
1
 66
1
  0
VERTEX
  8
0
 10
2864.21728515625
 20
270.39999389648437
 42
0
  0
VERTEX
  8
0
 10
2871.3173828125
 20
241.80000305175781
 42
0.34649235010147095
  0
VERTEX
  8
0
 10
2893.919677734375
 20
224
 42
0
  0
VERTEX
  8
0
 10
2903.71728515625
 20
224
 42
0
  0
VERTEX
  8
0
 10
2903.71728515625
 20
335.39999389648437
 42
0
  0
VERTEX
  8
0
 10
2855.21728515625
 20
335.39999389648437
 42
0
  0
VERTEX
  8
0
 10
2855.21728515625
 20
270.39999389648437
 42
-0
  0
SEQEND
  0
POLYLINE
  8
0
 10
0
 20
0
 39
0
 70
1
 66
1
  0
VERTEX
  8
0
 10
2922.71728515625
 20
239.26724243164062
 42
0
  0
VERTEX
  8
0
 10
2929.8173828125
 20
210.667236328125
 42
0.34649235010147095
  0
VERTEX
  8
0
 10
2952.419677734375
 20
192.86723327636719
 42
0
  0
VERTEX
  8
0
 10
2962.21728515625
 20
192.86723327636719
 42
0
  0
VERTEX
  8
0
 10
2962.21728515625
 20
304.26724243164062
 42
0
  0
VERTEX
  8
0
 10
2913.71728515625
 20
304.26724243164062
 42
0
  0
VERTEX
  8
0
 10
2913.71728515625
 20
239.26724243164062
 42
-0
  0
SEQEND
  0
POLYLINE
  8
0
 10
0
 20
0
 39
0
 70
1
 66
1
  0
VERTEX
  8
0
 10
2935.402099609375
 20
817.46722412109375
 42
0
  0
VERTEX
  8
0
 10
2942.501953125
 20
788.86724853515625
 42
0.34649235010147095
  0
VERTEX
  8
0
 10
2965.104248046875
 20
771.0672607421875
 42
0
  0
VERTEX
  8
0
 10
2974.902099609375
 20
771.0672607421875
 42
0
  0
VERTEX
  8
0
 10
2974.902099609375
 20
882.46722412109375
 42
0
  0
VERTEX
  8
0
 10
2926.402099609375
 20
882.46722412109375
 42
0
  0
VERTEX
  8
0
 10
2926.402099609375
 20
817.46722412109375
 42
-0
  0
SEQEND
  0
POLYLINE
  8
0
 10
0
 20
0
 39
0
 70
1
 66
1
  0
VERTEX
  8
0
 10
834.535400390625
 20
524.30950927734375
 42
-0.046706564724445343
  0
VERTEX
  8
0
 10
834.48907470703125
 20
521.68310546875
 42
0.0031346138566732407
  0
VERTEX
  8
0
 10
827.4588623046875
 20
483.22189331054687
 42
0.0084576783701777458
  0
VERTEX
  8
0
 10
817.7060546875
 20
420.76187133789062
 42
0.013210054486989975
  0
VERTEX
  8
0
 10
810.9248046875
 20
360.2257080078125
 42
0.014485171064734459
  0
VERTEX
  8
0
 10
807.2388916015625
 20
296.47039794921875
 42
0.019390320405364037
  0
VERTEX
  8
0
 10
807.9246826171875
 20
219.20968627929687
 42
0.015223757363855839
  0
VERTEX
  8
0
 10
812.94390869140625
 20
152.95901489257812
 42
0.010234789922833443
  0
VERTEX
  8
0
 10
820.6966552734375
 20
92.651458740234375
 42
0.0094475224614143372
  0
VERTEX
  8
0
 10
831.163818359375
 20
30.420013427734375
 42
-0.011144493706524372
  0
VERTEX
  8
0
 10
834.535400390625
 20
10
 42
-0
  0
VERTEX
  8
0
 10
857.5841064453125
 20
10
 42
-0.046703245490789413
  0
VERTEX
  8
0
 10
857.63043212890625
 20
12.62640380859375
 42
0.0031471042893826962
  0
VERTEX
  8
0
 10
864.66058349609375
 20
51.087615966796875
 42
0.008457675576210022
  0
VERTEX
  8
0
 10
874.4134521484375
 20
113.54766845703125
 42
0.013210056349635124
  0
VERTEX
  8
0
 10
881.1947021484375
 20
174.08380126953125
 42
0.014485174790024757
  0
VERTEX
  8
0
 10
884.880615234375
 20
237.839111328125
 42
0.019391896203160286
  0
VERTEX
  8
0
 10
884.19482421875
 20
315.099853515625
 42
0.015223757363855839
  0
VERTEX
  8
0
 10
879.17559814453125
 20
381.35052490234375
 42
0.010234789922833443
  0
VERTEX
  8
0
 10
871.4228515625
 20
441.6580810546875
 42
0.0094475224614143372
  0
VERTEX
  8
0
 10
860.9556884765625
 20
503.8895263671875
 42
-0.011147454380989075
  0
VERTEX
  8
0
 10
857.5841064453125
 20
524.30950927734375
 42
-0
  0
SEQEND
  0
POLYLINE
  8
0
 10
0
 20
0
 39
0
 70
1
 66
1
  0
VERTEX
  8
0
 10
10
 20
916.181884765625
 42
-0.046706564724445343
  0
VERTEX
  8
0
 10
12.626380920410156
 20
916.13555908203125
 42
0.0031346138566732407
  0
VERTEX
  8
0
 10
51.087615966796875
 20
909.1053466796875
 42
0.0084576783701777458
  0
VERTEX
  8
0
 10
113.54764556884766
 20
899.3525390625
 42
0.013210054486989975
  0
VERTEX
  8
0
 10
174.08378601074219
 20
892.5712890625
 42
0.014485171064734459
  0
VERTEX
  8
0
 10
237.839111328125
 20
888.8853759765625
 42
0.019390320405364037
  0
VERTEX
  8
0
 10
315.09982299804687
 20
889.57110595703125
 42
0.015223757363855839
  0
VERTEX
  8
0
 10
381.35049438476562
 20
894.59039306640625
 42
0.010234789922833443
  0
VERTEX
  8
0
 10
441.65805053710937
 20
902.3431396484375
 42
0.0094475224614143372
  0
VERTEX
  8
0
 10
503.88949584960937
 20
912.810302734375
 42
-0.011144493706524372
  0
VERTEX
  8
0
 10
524.30950927734375
 20
916.181884765625
 42
-0
  0
VERTEX
  8
0
 10
524.30950927734375
 20
939.2305908203125
 42
-0.046703245490789413
  0
VERTEX
  8
0
 10
521.68310546875
 20
939.27691650390625
 42
0.0031471042893826962
  0
VERTEX
  8
0
 10
483.22189331054687
 20
946.30706787109375
 42
0.008457675576210022
  0
VERTEX
  8
0
 10
420.7618408203125
 20
956.0599365234375
 42
0.013210056349635124
  0
VERTEX
  8
0
 10
360.2257080078125
 20
962.8411865234375
 42
0.014485174790024757
  0
VERTEX
  8
0
 10
296.47039794921875
 20
966.52703857421875
 42
0.019391896203160286
  0
VERTEX
  8
0
 10
219.20967102050781
 20
965.84130859375
 42
0.015223757363855839
  0
VERTEX
  8
0
 10
152.95899963378906
 20
960.822021484375
 42
0.010234789922833443
  0
VERTEX
  8
0
 10
92.651443481445313
 20
953.06927490234375
 42
0.0094475224614143372
  0
VERTEX
  8
0
 10
30.419992446899414
 20
942.6021728515625
 42
-0.011147454380989075
  0
VERTEX
  8
0
 10
10
 20
939.2305908203125
 42
-0
  0
SEQEND
  0
POLYLINE
  8
0
 10
0
 20
0
 39
0
 70
1
 66
1
  0
VERTEX
  8
0
 10
10
 20
562.05145263671875
 42
-0.046706564724445343
  0
VERTEX
  8
0
 10
12.626380920410156
 20
562.005126953125
 42
0.0031346138566732407
  0
VERTEX
  8
0
 10
51.087615966796875
 20
554.97491455078125
 42
0.0084576783701777458
  0
VERTEX
  8
0
 10
113.54764556884766
 20
545.22210693359375
 42
0.013210054486989975
  0
VERTEX
  8
0
 10
174.08378601074219
 20
538.4407958984375
 42
0.014485171064734459
  0
VERTEX
  8
0
 10
237.839111328125
 20
534.75494384765625
 42
0.019390320405364037
  0
VERTEX
  8
0
 10
315.09982299804687
 20
535.440673828125
 42
0.015223757363855839
  0
VERTEX
  8
0
 10
381.35049438476562
 20
540.4599609375
 42
0.010234789922833443
  0
VERTEX
  8
0
 10
441.65805053710937
 20
548.21270751953125
 42
0.0094475224614143372
  0
VERTEX
  8
0
 10
503.88949584960937
 20
558.67987060546875
 42
-0.011144493706524372
  0
VERTEX
  8
0
 10
524.30950927734375
 20
562.05145263671875
 42
-0
  0
VERTEX
  8
0
 10
524.30950927734375
 20
585.10009765625
 42
-0.046703245490789413
  0
VERTEX
  8
0
 10
521.68310546875
 20
585.146484375
 42
0.0031471042893826962
  0
VERTEX
  8
0
 10
483.22189331054687
 20
592.1766357421875
 42
0.008457675576210022
  0
VERTEX
  8
0
 10
420.7618408203125
 20
601.92950439453125
 42
0.013210056349635124
  0
VERTEX
  8
0
 10
360.2257080078125
 20
608.71075439453125
 42
0.014485174790024757
  0
VERTEX
  8
0
 10
296.47039794921875
 20
612.3966064453125
 42
0.019391896203160286
  0
VERTEX
  8
0
 10
219.20967102050781
 20
611.71087646484375
 42
0.015223757363855839
  0
VERTEX
  8
0
 10
152.95899963378906
 20
606.69158935546875
 42
0.010234789922833443
  0
VERTEX
  8
0
 10
92.651443481445313
 20
598.9388427734375
 42
0.0094475224614143372
  0
VERTEX
  8
0
 10
30.419992446899414
 20
588.47174072265625
 42
-0.011147454380989075
  0
VERTEX
  8
0
 10
10
 20
585.10009765625
 42
-0
  0
SEQEND
  0
POLYLINE
  8
0
 10
0
 20
0
 39
0
 70
1
 66
1
  0
VERTEX
  8
0
 10
214.80714416503906
 20
524.30950927734375
 42
-0.046706564724445343
  0
VERTEX
  8
0
 10
214.76081848144531
 20
521.68310546875
 42
0.0031346138566732407
  0
VERTEX
  8
0
 10
207.73063659667969
 20
483.22189331054687
 42
0.0084576783701777458
  0
VERTEX
  8
0
 10
197.97779846191406
 20
420.76187133789062
 42
0.013210054486989975
  0
VERTEX
  8
0
 10
191.196533203125
 20
360.2257080078125
 42
0.014485171064734459
  0
VERTEX
  8
0
 10
187.51065063476562
 20
296.47039794921875
 42
0.019390320405364037
  0
VERTEX
  8
0
 10
188.19639587402344
 20
219.20968627929687
 42
0.015223757363855839
  0
VERTEX
  8
0
 10
193.21568298339844
 20
152.95901489257812
 42
0.010234789922833443
  0
VERTEX
  8
0
 10
200.96841430664062
 20
92.651458740234375
 42
0.0094475224614143372
  0
VERTEX
  8
0
 10
211.43556213378906
 20
30.420013427734375
 42
-0.011144493706524372
  0
VERTEX
  8
0
 10
214.80714416503906
 20
10
 42
-0
  0
VERTEX
  8
0
 10
237.8558349609375
 20
10
 42
-0.046703245490789413
  0
VERTEX
  8
0
 10
237.90217590332031
 20
12.62640380859375
 42
0.0031471042893826962
  0
VERTEX
  8
0
 10
244.93235778808594
 20
51.087615966796875
 42
0.008457675576210022
  0
VERTEX
  8
0
 10
254.6851806640625
 20
113.54766845703125
 42
0.013210056349635124
  0
VERTEX
  8
0
 10
261.46646118164062
 20
174.08380126953125
 42
0.014485174790024757
  0
VERTEX
  8
0
 10
265.15234375
 20
237.839111328125
 42
0.019391896203160286
  0
VERTEX
  8
0
 10
264.46658325195312
 20
315.099853515625
 42
0.015223757363855839
  0
VERTEX
  8
0
 10
259.44729614257812
 20
381.35052490234375
 42
0.010234789922833443
  0
VERTEX
  8
0
 10
251.69456481933594
 20
441.6580810546875
 42
0.0094475224614143372
  0
VERTEX
  8
0
 10
241.2274169921875
 20
503.8895263671875
 42
-0.011147454380989075
  0
VERTEX
  8
0
 10
237.8558349609375
 20
524.30950927734375
 42
-0
  0
SEQEND
  0
POLYLINE
  8
0
 10
0
 20
0
 39
0
 70
1
 66
1
  0
VERTEX
  8
0
 10
391.87237548828125
 20
524.30950927734375
 42
-0.046706564724445343
  0
VERTEX
  8
0
 10
391.82601928710937
 20
521.68310546875
 42
0.0031346138566732407
  0
VERTEX
  8
0
 10
384.79583740234375
 20
483.22189331054687
 42
0.0084576783701777458
  0
VERTEX
  8
0
 10
375.04302978515625
 20
420.76187133789062
 42
0.013210054486989975
  0
VERTEX
  8
0
 10
368.26174926757812
 20
360.2257080078125
 42
0.014485171064734459
  0
VERTEX
  8
0
 10
364.57586669921875
 20
296.47039794921875
 42
0.019390320405364037
  0
VERTEX
  8
0
 10
365.26162719726562
 20
219.20968627929687
 42
0.015223757363855839
  0
VERTEX
  8
0
 10
370.2808837890625
 20
152.95901489257812
 42
0.010234789922833443
  0
VERTEX
  8
0
 10
378.03363037109375
 20
92.651458740234375
 42
0.0094475224614143372
  0
VERTEX
  8
0
 10
388.50079345703125
 20
30.420013427734375
 42
-0.011144493706524372
  0
VERTEX
  8
0
 10
391.87237548828125
 20
10
 42
-0
  0
VERTEX
  8
0
 10
414.92105102539062
 20
10
 42
-0.046703245490789413
  0
VERTEX
  8
0
 10
414.96737670898437
 20
12.62640380859375
 42
0.0031471042893826962
  0
VERTEX
  8
0
 10
421.99755859375
 20
51.087615966796875
 42
0.008457675576210022
  0
VERTEX
  8
0
 10
431.75039672851562
 20
113.54766845703125
 42
0.013210056349635124
  0
VERTEX
  8
0
 10
438.53167724609375
 20
174.08380126953125
 42
0.014485174790024757
  0
VERTEX
  8
0
 10
442.21755981445312
 20
237.839111328125
 42
0.019391896203160286
  0
VERTEX
  8
0
 10
441.53179931640625
 20
315.099853515625
 42
0.015223757363855839
  0
VERTEX
  8
0
 10
436.51251220703125
 20
381.35052490234375
 42
0.010234789922833443
  0
VERTEX
  8
0
 10
428.75979614257812
 20
441.6580810546875
 42
0.0094475224614143372
  0
VERTEX
  8
0
 10
418.29263305664062
 20
503.8895263671875
 42
-0.011147454380989075
  0
VERTEX
  8
0
 10
414.92105102539062
 20
524.30950927734375
 42
-0
  0
SEQEND
  0
POLYLINE
  8
0
 10
0
 20
0
 39
0
 70
1
 66
1
  0
VERTEX
  8
0
 10
2876.902099609375
 20
877.4000244140625
 42
0
  0
VERTEX
  8
0
 10
2884.001953125
 20
848.79998779296875
 42
0.34649235010147095
  0
VERTEX
  8
0
 10
2906.604248046875
 20
831
 42
0
  0
VERTEX
  8
0
 10
2916.402099609375
 20
831
 42
0
  0
VERTEX
  8
0
 10
2916.402099609375
 20
942.4000244140625
 42
0
  0
VERTEX
  8
0
 10
2867.902099609375
 20
942.4000244140625
 42
0
  0
VERTEX
  8
0
 10
2867.902099609375
 20
877.4000244140625
 42
-0
  0
SEQEND
  0
POLYLINE
  8
0
 10
0
 20
0
 39
0
 70
1
 66
1
  0
VERTEX
  8
0
 10
480.40496826171875
 20
524.30950927734375
 42
-0.046706564724445343
  0
VERTEX
  8
0
 10
480.358642578125
 20
521.68310546875
 42
0.0031346138566732407
  0
VERTEX
  8
0
 10
473.32846069335937
 20
483.22189331054687
 42
0.0084576783701777458
  0
VERTEX
  8
0
 10
463.57562255859375
 20
420.76187133789062
 42
0.013210054486989975
  0
VERTEX
  8
0
 10
456.79437255859375
 20
360.2257080078125
 42
0.014485171064734459
  0
VERTEX
  8
0
 10
453.10848999023437
 20
296.47039794921875
 42
0.019390320405364037
  0
VERTEX
  8
0
 10
453.79421997070312
 20
219.20968627929687
 42
0.015223757363855839
  0
VERTEX
  8
0
 10
458.81350708007812
 20
152.95901489257812
 42
0.010234789922833443
  0
VERTEX
  8
0
 10
466.56625366210937
 20
92.651458740234375
 42
0.0094475224614143372
  0
VERTEX
  8
0
 10
477.03338623046875
 20
30.420013427734375
 42
-0.011144493706524372
  0
VERTEX
  8
0
 10
480.40496826171875
 20
10
 42
-0
  0
VERTEX
  8
0
 10
503.45367431640625
 20
10
 42
-0.046703245490789413
  0
VERTEX
  8
0
 10
503.5
 20
12.62640380859375
 42
0.0031471042893826962
  0
VERTEX
  8
0
 10
510.53018188476562
 20
51.087615966796875
 42
0.008457675576210022
  0
VERTEX
  8
0
 10
520.28302001953125
 20
113.54766845703125
 42
0.013210056349635124
  0
VERTEX
  8
0
 10
527.06427001953125
 20
174.08380126953125
 42
0.014485174790024757
  0
VERTEX
  8
0
 10
530.75018310546875
 20
237.839111328125
 42
0.019391896203160286
  0
VERTEX
  8
0
 10
530.06439208984375
 20
315.099853515625
 42
0.015223757363855839
  0
VERTEX
  8
0
 10
525.045166015625
 20
381.35052490234375
 42
0.010234789922833443
  0
VERTEX
  8
0
 10
517.29241943359375
 20
441.6580810546875
 42
0.0094475224614143372
  0
VERTEX
  8
0
 10
506.82525634765625
 20
503.8895263671875
 42
-0.011147454380989075
  0
VERTEX
  8
0
 10
503.45367431640625
 20
524.30950927734375
 42
-0
  0
SEQEND
  0
POLYLINE
  8
0
 10
0
 20
0
 39
0
 70
1
 66
1
  0
VERTEX
  8
0
 10
2704.721435546875
 20
924.336181640625
 42
0
  0
VERTEX
  8
0
 10
2649.55859375
 20
978.88934326171875
 42
0.66617089509963989
  0
VERTEX
  8
0
 10
2602.721435546875
 20
959.336181640625
 42
0
  0
VERTEX
  8
0
 10
2602.721435546875
 20
924.336181640625
 42
0
  0
SEQEND
  0
POLYLINE
  8
0
 10
0
 20
0
 39
0
 70
1
 66
1
  0
VERTEX
  8
0
 10
2655.9775390625
 20
986.836181640625
 42
0
  0
VERTEX
  8
0
 10
2711.140380859375
 20
932.282958984375
 42
0.66617089509963989
  0
VERTEX
  8
0
 10
2757.9775390625
 20
951.836181640625
 42
0
  0
VERTEX
  8
0
 10
2757.9775390625
 20
986.836181640625
 42
0
  0
SEQEND
  0
POLYLINE
  8
0
 10
0
 20
0
 39
0
 70
1
 66
1
  0
VERTEX
  8
0
 10
2688.61474609375
 20
63.256000518798828
 42
0
  0
VERTEX
  8
0
 10
2743.16796875
 20
118.41892242431641
 42
0.66617089509963989
  0
VERTEX
  8
0
 10
2723.61474609375
 20
165.25599670410156
 42
0
  0
VERTEX
  8
0
 10
2688.61474609375
 20
165.25599670410156
 42
0
  0
SEQEND
  0
POLYLINE
  8
0
 10
0
 20
0
 39
0
 70
1
 66
1
  0
VERTEX
  8
0
 10
2751.11474609375
 20
112
 42
0
  0
VERTEX
  8
0
 10
2696.5615234375
 20
56.837074279785156
 42
0.66617089509963989
  0
VERTEX
  8
0
 10
2716.11474609375
 20
10
 42
0
  0
VERTEX
  8
0
 10
2751.11474609375
 20
10
 42
0
  0
SEQEND
  0
POLYLINE
  8
0
 10
0
 20
0
 39
0
 70
1
 66
1
  0
VERTEX
  8
0
 10
2625.676513671875
 20
724.280029296875
 42
0
  0
VERTEX
  8
0
 10
2680.229736328125
 20
779.44293212890625
 42
0.66617089509963989
  0
VERTEX
  8
0
 10
2660.676513671875
 20
826.280029296875
 42
0
  0
VERTEX
  8
0
 10
2625.676513671875
 20
826.280029296875
 42
0
  0
SEQEND
  0
POLYLINE
  8
0
 10
0
 20
0
 39
0
 70
1
 66
1
  0
VERTEX
  8
0
 10
2688.176513671875
 20
773.02398681640625
 42
0
  0
VERTEX
  8
0
 10
2633.623291015625
 20
717.861083984375
 42
0.66617089509963989
  0
VERTEX
  8
0
 10
2653.176513671875
 20
671.02398681640625
 42
0
  0
VERTEX
  8
0
 10
2688.176513671875
 20
671.02398681640625
 42
0
  0
SEQEND
  0
POLYLINE
  8
0
 10
0
 20
0
 39
0
 70
1
 66
1
  0
VERTEX
  8
0
 10
987.30950927734375
 20
915.20440673828125
 42
0
  0
VERTEX
  8
0
 10
1141.3095703125
 20
915.20440673828125
 42
1
  0
VERTEX
  8
0
 10
1141.3095703125
 20
965.20440673828125
 42
0
  0
VERTEX
  8
0
 10
987.30950927734375
 20
965.20440673828125
 42
1
  0
SEQEND
  0
POLYLINE
  8
0
 10
0
 20
0
 39
0
 70
1
 66
1
  0
VERTEX
  8
0
 10
2926.402099609375
 20
614.667236328125
 42
0
  0
VERTEX
  8
0
 10
2926.402099609375
 20
460.667236328125
 42
1
  0
VERTEX
  8
0
 10
2976.402099609375
 20
460.667236328125
 42
0
  0
VERTEX
  8
0
 10
2976.402099609375
 20
614.667236328125
 42
1
  0
SEQEND
  0
POLYLINE
  8
0
 10
0
 20
0
 39
0
 70
1
 66
1
  0
VERTEX
  8
0
 10
1536.70947265625
 20
930
 42
0
  0
VERTEX
  8
0
 10
1690.70947265625
 20
930
 42
1
  0
VERTEX
  8
0
 10
1690.70947265625
 20
980
 42
0
  0
VERTEX
  8
0
 10
1536.70947265625
 20
980
 42
1
  0
SEQEND
  0
POLYLINE
  8
0
 10
0
 20
0
 39
0
 70
1
 66
1
  0
VERTEX
  8
0
 10
773.30950927734375
 20
915.20440673828125
 42
0
  0
VERTEX
  8
0
 10
927.30950927734375
 20
915.20440673828125
 42
1
  0
VERTEX
  8
0
 10
927.30950927734375
 20
965.20440673828125
 42
0
  0
VERTEX
  8
0
 10
773.30950927734375
 20
965.20440673828125
 42
1
  0
SEQEND
  0
POLYLINE
  8
0
 10
0
 20
0
 39
0
 70
1
 66
1
  0
VERTEX
  8
0
 10
2616.11474609375
 20
63.256000518798828
 42
0
  0
VERTEX
  8
0
 10
2670.66796875
 20
118.41892242431641
 42
0.66617089509963989
  0
VERTEX
  8
0
 10
2651.11474609375
 20
165.25599670410156
 42
0
  0
VERTEX
  8
0
 10
2616.11474609375
 20
165.25599670410156
 42
0
  0
SEQEND
  0
POLYLINE
  8
0
 10
0
 20
0
 39
0
 70
1
 66
1
  0
VERTEX
  8
0
 10
2678.61474609375
 20
112
 42
0
  0
VERTEX
  8
0
 10
2624.0615234375
 20
56.837074279785156
 42
0.66617089509963989
  0
VERTEX
  8
0
 10
2643.61474609375
 20
10
 42
0
  0
VERTEX
  8
0
 10
2678.61474609375
 20
10
 42
0
  0
SEQEND
  0
POLYLINE
  8
0
 10
0
 20
0
 39
0
 70
1
 66
1
  0
VERTEX
  8
0
 10
559.30950927734375
 20
915.20440673828125
 42
0
  0
VERTEX
  8
0
 10
713.30950927734375
 20
915.20440673828125
 42
1
  0
VERTEX
  8
0
 10
713.30950927734375
 20
965.20440673828125
 42
0
  0
VERTEX
  8
0
 10
559.30950927734375
 20
965.20440673828125
 42
1
  0
SEQEND
  0
POLYLINE
  8
0
 10
0
 20
0
 39
0
 70
1
 66
1
  0
VERTEX
  8
0
 10
1536.70947265625
 20
870
 42
0
  0
VERTEX
  8
0
 10
1690.70947265625
 20
870
 42
1
  0
VERTEX
  8
0
 10
1690.70947265625
 20
920
 42
0
  0
VERTEX
  8
0
 10
1536.70947265625
 20
920
 42
1
  0
SEQEND
  0
POLYLINE
  8
0
 10
0
 20
0
 39
0
 70
1
 66
1
  0
VERTEX
  8
0
 10
2625.676513671875
 20
559.02398681640625
 42
0
  0
VERTEX
  8
0
 10
2680.229736328125
 20
614.18695068359375
 42
0.66617089509963989
  0
VERTEX
  8
0
 10
2660.676513671875
 20
661.02398681640625
 42
0
  0
VERTEX
  8
0
 10
2625.676513671875
 20
661.02398681640625
 42
0
  0
SEQEND
  0
POLYLINE
  8
0
 10
0
 20
0
 39
0
 70
1
 66
1
  0
VERTEX
  8
0
 10
2688.176513671875
 20
607.76800537109375
 42
0
  0
VERTEX
  8
0
 10
2633.623291015625
 20
552.6051025390625
 42
0.66617089509963989
  0
VERTEX
  8
0
 10
2653.176513671875
 20
505.76800537109375
 42
0
  0
VERTEX
  8
0
 10
2688.176513671875
 20
505.76800537109375
 42
0
  0
SEQEND
  0
POLYLINE
  8
0
 10
0
 20
0
 39
0
 70
1
 66
1
  0
VERTEX
  8
0
 10
2625.3544921875
 20
228.51199340820312
 42
0
  0
VERTEX
  8
0
 10
2679.90771484375
 20
283.6749267578125
 42
0.66617089509963989
  0
VERTEX
  8
0
 10
2660.3544921875
 20
330.51199340820312
 42
0
  0
VERTEX
  8
0
 10
2625.3544921875
 20
330.51199340820312
 42
0
  0
SEQEND
  0
POLYLINE
  8
0
 10
0
 20
0
 39
0
 70
1
 66
1
  0
VERTEX
  8
0
 10
2687.8544921875
 20
277.25601196289062
 42
0
  0
VERTEX
  8
0
 10
2633.30126953125
 20
222.09307861328125
 42
0.66617089509963989
  0
VERTEX
  8
0
 10
2652.8544921875
 20
175.25599670410156
 42
0
  0
VERTEX
  8
0
 10
2687.8544921875
 20
175.25599670410156
 42
0
  0
SEQEND
  0
POLYLINE
  8
0
 10
0
 20
0
 39
0
 70
1
 66
1
  0
VERTEX
  8
0
 10
1322.70947265625
 20
911.78973388671875
 42
0
  0
VERTEX
  8
0
 10
1476.70947265625
 20
911.78973388671875
 42
1
  0
VERTEX
  8
0
 10
1476.70947265625
 20
961.78973388671875
 42
0
  0
VERTEX
  8
0
 10
1322.70947265625
 20
961.78973388671875
 42
1
  0
SEQEND
  0
POLYLINE
  8
0
 10
0
 20
0
 39
0
 70
1
 66
1
  0
VERTEX
  8
0
 10
2697.8544921875
 20
368.89892578125
 42
0
  0
VERTEX
  8
0
 10
2752.40771484375
 20
424.06185913085937
 42
0.66617089509963989
  0
VERTEX
  8
0
 10
2732.8544921875
 20
470.89892578125
 42
0
  0
VERTEX
  8
0
 10
2697.8544921875
 20
470.89892578125
 42
0
  0
SEQEND
  0
POLYLINE
  8
0
 10
0
 20
0
 39
0
 70
1
 66
1
  0
VERTEX
  8
0
 10
2760.3544921875
 20
417.6429443359375
 42
0
  0
VERTEX
  8
0
 10
2705.80126953125
 20
362.48001098632812
 42
0.66617089509963989
  0
VERTEX
  8
0
 10
2725.3544921875
 20
315.6429443359375
 42
0
  0
VERTEX
  8
0
 10
2760.3544921875
 20
315.6429443359375
 42
0
  0
SEQEND
  0
POLYLINE
  8
0
 10
0
 20
0
 39
0
 70
1
 66
1
  0
VERTEX
  8
0
 10
2539.465576171875
 20
924.336181640625
 42
0
  0
VERTEX
  8
0
 10
2484.302490234375
 20
978.88934326171875
 42
0.66617089509963989
  0
VERTEX
  8
0
 10
2437.465576171875
 20
959.336181640625
 42
0
  0
VERTEX
  8
0
 10
2437.465576171875
 20
924.336181640625
 42
0
  0
SEQEND
  0
POLYLINE
  8
0
 10
0
 20
0
 39
0
 70
1
 66
1
  0
VERTEX
  8
0
 10
2490.721435546875
 20
986.836181640625
 42
0
  0
VERTEX
  8
0
 10
2545.884521484375
 20
932.282958984375
 42
0.66617089509963989
  0
VERTEX
  8
0
 10
2592.721435546875
 20
951.836181640625
 42
0
  0
VERTEX
  8
0
 10
2592.721435546875
 20
986.836181640625
 42
0
  0
SEQEND
  0
POLYLINE
  8
0
 10
0
 20
0
 39
0
 70
1
 66
1
  0
VERTEX
  8
0
 10
2625.3544921875
 20
393.76800537109375
 42
0
  0
VERTEX
  8
0
 10
2679.90771484375
 20
448.93093872070312
 42
0.66617089509963989
  0
VERTEX
  8
0
 10
2660.3544921875
 20
495.76800537109375
 42
0
  0
VERTEX
  8
0
 10
2625.3544921875
 20
495.76800537109375
 42
0
  0
SEQEND
  0
POLYLINE
  8
0
 10
0
 20
0
 39
0
 70
1
 66
1
  0
VERTEX
  8
0
 10
2687.8544921875
 20
442.51199340820312
 42
0
  0
VERTEX
  8
0
 10
2633.30126953125
 20
387.34906005859375
 42
0.66617089509963989
  0
VERTEX
  8
0
 10
2652.8544921875
 20
340.51199340820312
 42
0
  0
VERTEX
  8
0
 10
2687.8544921875
 20
340.51199340820312
 42
0
  0
SEQEND
  0
ENDSEC
  0
EOF
