  0
SECTION
  2
ENTITIES
  0
POLYLINE
  8
0
 10
0
 20
0
 39
0
 70
1
 66
1
  0
VERTEX
  8
0
 10
0
 20
0
 42
-0
  0
VERTEX
  8
0
 10
6000
 20
0
 42
-0
  0
VERTEX
  8
0
 10
6000
 20
1500
 42
-0
  0
VERTEX
  8
0
 10
0
 20
1500
 42
-0
  0
SEQEND
  0
POLYLINE
  8
0
 10
0
 20
0
 39
0
 70
1
 66
1
  0
VERTEX
  8
0
 10
3106.2451171875
 20
1219.6220703125
 42
0
  0
VERTEX
  8
0
 10
2456.2451171875
 20
1219.6220703125
 42
0
  0
VERTEX
  8
0
 10
2456.2451171875
 20
805.62213134765625
 42
0
  0
VERTEX
  8
0
 10
2481.005126953125
 20
805.6220703125
 42
-0.47961649298667908
  0
VERTEX
  8
0
 10
3081.485107421875
 20
805.62213134765625
 42
0
  0
VERTEX
  8
0
 10
3106.2451171875
 20
805.62213134765625
 42
0
  0
SEQEND
  0
POLYLINE
  8
0
 10
0
 20
0
 39
0
 70
1
 66
1
  0
VERTEX
  8
0
 10
4210.2373046875
 20
1215.729248046875
 42
0
  0
VERTEX
  8
0
 10
3560.2373046875
 20
1215.729248046875
 42
0
  0
VERTEX
  8
0
 10
3560.2373046875
 20
801.72930908203125
 42
0
  0
VERTEX
  8
0
 10
3584.997314453125
 20
801.729248046875
 42
-0.47961649298667908
  0
VERTEX
  8
0
 10
4185.47705078125
 20
801.72930908203125
 42
0
  0
VERTEX
  8
0
 10
4210.2373046875
 20
801.72930908203125
 42
0
  0
SEQEND
  0
POLYLINE
  8
0
 10
0
 20
0
 39
0
 70
1
 66
1
  0
VERTEX
  8
0
 10
3631.10009765625
 20
182.0999755859375
 42
0
  0
VERTEX
  8
0
 10
5264.10009765625
 20
182.0999755859375
 42
0
  0
VERTEX
  8
0
 10
5264.10009765625
 20
344.0999755859375
 42
0
  0
VERTEX
  8
0
 10
3631.10009765625
 20
344.0999755859375
 42
0
  0
SEQEND
  0
POLYLINE
  8
0
 10
0
 20
0
 39
0
 70
1
 66
1
  0
VERTEX
  8
0
 10
3631.10009765625
 20
10.04998779296875
 42
0
  0
VERTEX
  8
0
 10
5264.10009765625
 20
10.04998779296875
 42
0
  0
VERTEX
  8
0
 10
5264.10009765625
 20
172.04998779296875
 42
0
  0
VERTEX
  8
0
 10
3631.10009765625
 20
172.04998779296875
 42
0
  0
SEQEND
  0
POLYLINE
  8
0
 10
0
 20
0
 39
0
 70
1
 66
1
  0
VERTEX
  8
0
 10
135.03460693359375
 20
907.3798828125
 42
1
  0
VERTEX
  8
0
 10
885.03460693359375
 20
907.3798828125
 42
1
  0
SEQEND
  0
POLYLINE
  8
0
 10
0
 20
0
 39
0
 70
1
 66
1
  0
VERTEX
  8
0
 10
245.03460693359375
 20
907.3798828125
 42
-1
  0
VERTEX
  8
0
 10
775.03460693359375
 20
907.3798828125
 42
-1
  0
SEQEND
  0
POLYLINE
  8
0
 10
0
 20
0
 39
0
 70
1
 66
1
  0
VERTEX
  8
0
 10
1245.04150390625
 20
907.37982177734375
 42
1
  0
VERTEX
  8
0
 10
1995.04150390625
 20
907.37982177734375
 42
1
  0
SEQEND
  0
POLYLINE
  8
0
 10
0
 20
0
 39
0
 70
1
 66
1
  0
VERTEX
  8
0
 10
1355.04150390625
 20
907.37982177734375
 42
-1
  0
VERTEX
  8
0
 10
1885.04150390625
 20
907.37982177734375
 42
-1
  0
SEQEND
  0
POLYLINE
  8
0
 10
0
 20
0
 39
0
 70
1
 66
1
  0
VERTEX
  8
0
 10
3599.177490234375
 20
1489.949951171875
 42
0
  0
VERTEX
  8
0
 10
3097.181640625
 20
1489.94970703125
 42
0.35856899619102478
  0
SEQEND
  0
POLYLINE
  8
0
 10
0
 20
0
 39
0
 70
1
 66
1
  0
VERTEX
  8
0
 10
1975.35400390625
 20
380.1500244140625
 42
0
  0
VERTEX
  8
0
 10
2477.35009765625
 20
380.1500244140625
 42
0.35856899619102478
  0
SEQEND
  0
POLYLINE
  8
0
 10
0
 20
0
 39
0
 70
1
 66
1
  0
VERTEX
  8
0
 10
2484.597900390625
 20
1489.949951171875
 42
0
  0
VERTEX
  8
0
 10
1937.6060791015625
 20
1489.94970703125
 42
0.40220001339912415
  0
SEQEND
  0
POLYLINE
  8
0
 10
0
 20
0
 39
0
 70
1
 66
1
  0
VERTEX
  8
0
 10
5989.9501953125
 20
10.050480842590332
 42
1
  0
VERTEX
  8
0
 10
5349.9501953125
 20
10.049983024597168
 42
0
  0
SEQEND
  0
POLYLINE
  8
0
 10
0
 20
0
 39
0
 70
1
 66
1
  0
VERTEX
  8
0
 10
2846.65625
 20
1229.672119140625
 42
0
  0
VERTEX
  8
0
 10
2946.65625
 20
1229.672119140625
 42
0
  0
VERTEX
  8
0
 10
2946.65625
 20
1279.672119140625
 42
0
  0
VERTEX
  8
0
 10
2846.65625
 20
1279.672119140625
 42
0
  0
SEQEND
  0
POLYLINE
  8
0
 10
0
 20
0
 39
0
 70
1
 66
1
  0
VERTEX
  8
0
 10
2736.606201171875
 20
1229.672119140625
 42
0
  0
VERTEX
  8
0
 10
2836.606201171875
 20
1229.672119140625
 42
0
  0
VERTEX
  8
0
 10
2836.606201171875
 20
1279.672119140625
 42
0
  0
VERTEX
  8
0
 10
2736.606201171875
 20
1279.672119140625
 42
0
  0
SEQEND
  0
POLYLINE
  8
0
 10
0
 20
0
 39
0
 70
1
 66
1
  0
VERTEX
  8
0
 10
2626.55615234375
 20
1229.672119140625
 42
0
  0
VERTEX
  8
0
 10
2726.55615234375
 20
1229.672119140625
 42
0
  0
VERTEX
  8
0
 10
2726.55615234375
 20
1279.672119140625
 42
0
  0
VERTEX
  8
0
 10
2626.55615234375
 20
1279.672119140625
 42
0
  0
SEQEND
  0
POLYLINE
  8
0
 10
0
 20
0
 39
0
 70
1
 66
1
  0
VERTEX
  8
0
 10
2516.506103515625
 20
1229.672119140625
 42
0
  0
VERTEX
  8
0
 10
2616.506103515625
 20
1229.672119140625
 42
0
  0
VERTEX
  8
0
 10
2616.506103515625
 20
1279.672119140625
 42
0
  0
VERTEX
  8
0
 10
2516.506103515625
 20
1279.672119140625
 42
0
  0
SEQEND
  0
POLYLINE
  8
0
 10
0
 20
0
 39
0
 70
1
 66
1
  0
VERTEX
  8
0
 10
690.27490234375
 20
803.48480224609375
 42
0
  0
VERTEX
  8
0
 10
576.35797119140625
 20
855.2652587890625
 42
0
  0
VERTEX
  8
0
 10
474.19186401367187
 20
855.2652587890625
 42
0
  0
VERTEX
  8
0
 10
360.27490234375
 20
803.48480224609375
 42
0
  0
VERTEX
  8
0
 10
360.27490234375
 20
773.2652587890625
 42
0
  0
VERTEX
  8
0
 10
405.27490234375
 20
773.2652587890625
 42
-1
  0
VERTEX
  8
0
 10
405.27490234375
 20
757.2652587890625
 42
0
  0
VERTEX
  8
0
 10
360.27490234375
 20
757.2652587890625
 42
0
  0
VERTEX
  8
0
 10
360.27490234375
 20
727.04571533203125
 42
0
  0
VERTEX
  8
0
 10
474.19186401367187
 20
675.2652587890625
 42
0
  0
VERTEX
  8
0
 10
576.35797119140625
 20
675.2652587890625
 42
0
  0
VERTEX
  8
0
 10
690.27490234375
 20
727.04571533203125
 42
0
  0
VERTEX
  8
0
 10
690.27490234375
 20
757.2652587890625
 42
0
  0
VERTEX
  8
0
 10
645.27490234375
 20
757.2652587890625
 42
-1
  0
VERTEX
  8
0
 10
645.27490234375
 20
773.2652587890625
 42
0
  0
VERTEX
  8
0
 10
690.27490234375
 20
773.2652587890625
 42
0
  0
SEQEND
  0
POLYLINE
  8
0
 10
0
 20
0
 39
0
 70
1
 66
1
  0
VERTEX
  8
0
 10
480.27490234375
 20
765.2652587890625
 42
-1
  0
VERTEX
  8
0
 10
570.27490234375
 20
765.2652587890625
 42
-1
  0
SEQEND
  0
POLYLINE
  8
0
 10
0
 20
0
 39
0
 70
1
 66
1
  0
VERTEX
  8
0
 10
692.772705078125
 20
993.5347900390625
 42
0
  0
VERTEX
  8
0
 10
578.85577392578125
 20
1045.315185546875
 42
0
  0
VERTEX
  8
0
 10
476.68966674804687
 20
1045.315185546875
 42
0
  0
VERTEX
  8
0
 10
362.772705078125
 20
993.5347900390625
 42
0
  0
VERTEX
  8
0
 10
362.772705078125
 20
963.31524658203125
 42
0
  0
VERTEX
  8
0
 10
407.772705078125
 20
963.31524658203125
 42
-1
  0
VERTEX
  8
0
 10
407.772705078125
 20
947.31524658203125
 42
0
  0
VERTEX
  8
0
 10
362.772705078125
 20
947.31524658203125
 42
0
  0
VERTEX
  8
0
 10
362.772705078125
 20
917.095703125
 42
0
  0
VERTEX
  8
0
 10
476.68966674804687
 20
865.31524658203125
 42
0
  0
VERTEX
  8
0
 10
578.85577392578125
 20
865.31524658203125
 42
0
  0
VERTEX
  8
0
 10
692.772705078125
 20
917.095703125
 42
0
  0
VERTEX
  8
0
 10
692.772705078125
 20
947.31524658203125
 42
0
  0
VERTEX
  8
0
 10
647.772705078125
 20
947.31524658203125
 42
-1
  0
VERTEX
  8
0
 10
647.772705078125
 20
963.31524658203125
 42
0
  0
VERTEX
  8
0
 10
692.772705078125
 20
963.31524658203125
 42
0
  0
SEQEND
  0
POLYLINE
  8
0
 10
0
 20
0
 39
0
 70
1
 66
1
  0
VERTEX
  8
0
 10
482.772705078125
 20
955.31524658203125
 42
-1
  0
VERTEX
  8
0
 10
572.772705078125
 20
955.31524658203125
 42
-1
  0
SEQEND
  0
POLYLINE
  8
0
 10
0
 20
0
 39
0
 70
1
 66
1
  0
VERTEX
  8
0
 10
1269.0863037109375
 20
508.36953735351562
 42
0
  0
VERTEX
  8
0
 10
1155.1693115234375
 20
560.14996337890625
 42
0
  0
VERTEX
  8
0
 10
1053.0032958984375
 20
560.14996337890625
 42
0
  0
VERTEX
  8
0
 10
939.0863037109375
 20
508.36953735351562
 42
0
  0
VERTEX
  8
0
 10
939.0863037109375
 20
478.14996337890625
 42
0
  0
VERTEX
  8
0
 10
984.0863037109375
 20
478.14996337890625
 42
-1
  0
VERTEX
  8
0
 10
984.0863037109375
 20
462.14996337890625
 42
0
  0
VERTEX
  8
0
 10
939.0863037109375
 20
462.14996337890625
 42
0
  0
VERTEX
  8
0
 10
939.0863037109375
 20
431.93038940429687
 42
0
  0
VERTEX
  8
0
 10
1053.0032958984375
 20
380.14996337890625
 42
0
  0
VERTEX
  8
0
 10
1155.1693115234375
 20
380.14996337890625
 42
0
  0
VERTEX
  8
0
 10
1269.0863037109375
 20
431.93038940429687
 42
0
  0
VERTEX
  8
0
 10
1269.0863037109375
 20
462.14996337890625
 42
0
  0
VERTEX
  8
0
 10
1224.0863037109375
 20
462.14996337890625
 42
-1
  0
VERTEX
  8
0
 10
1224.0863037109375
 20
478.14996337890625
 42
0
  0
VERTEX
  8
0
 10
1269.0863037109375
 20
478.14996337890625
 42
0
  0
SEQEND
  0
POLYLINE
  8
0
 10
0
 20
0
 39
0
 70
1
 66
1
  0
VERTEX
  8
0
 10
1059.0863037109375
 20
470.14996337890625
 42
-1
  0
VERTEX
  8
0
 10
1149.0863037109375
 20
470.14996337890625
 42
-1
  0
SEQEND
  0
POLYLINE
  8
0
 10
0
 20
0
 39
0
 70
1
 66
1
  0
VERTEX
  8
0
 10
1246.94482421875
 20
1438.1695556640625
 42
0
  0
VERTEX
  8
0
 10
1133.02783203125
 20
1489.949951171875
 42
0
  0
VERTEX
  8
0
 10
1030.86181640625
 20
1489.949951171875
 42
0
  0
VERTEX
  8
0
 10
916.94482421875
 20
1438.1695556640625
 42
0
  0
VERTEX
  8
0
 10
916.94482421875
 20
1407.949951171875
 42
0
  0
VERTEX
  8
0
 10
961.94482421875
 20
1407.949951171875
 42
-1
  0
VERTEX
  8
0
 10
961.94482421875
 20
1391.949951171875
 42
0
  0
VERTEX
  8
0
 10
916.94482421875
 20
1391.949951171875
 42
0
  0
VERTEX
  8
0
 10
916.94482421875
 20
1361.7303466796875
 42
0
  0
VERTEX
  8
0
 10
1030.86181640625
 20
1309.949951171875
 42
0
  0
VERTEX
  8
0
 10
1133.02783203125
 20
1309.949951171875
 42
0
  0
VERTEX
  8
0
 10
1246.94482421875
 20
1361.7303466796875
 42
0
  0
VERTEX
  8
0
 10
1246.94482421875
 20
1391.949951171875
 42
0
  0
VERTEX
  8
0
 10
1201.94482421875
 20
1391.949951171875
 42
-1
  0
VERTEX
  8
0
 10
1201.94482421875
 20
1407.949951171875
 42
0
  0
VERTEX
  8
0
 10
1246.94482421875
 20
1407.949951171875
 42
0
  0
SEQEND
  0
POLYLINE
  8
0
 10
0
 20
0
 39
0
 70
1
 66
1
  0
VERTEX
  8
0
 10
1014.44482421875
 20
1399.949951171875
 42
-1
  0
VERTEX
  8
0
 10
1149.44482421875
 20
1399.949951171875
 42
-1
  0
SEQEND
  0
POLYLINE
  8
0
 10
0
 20
0
 39
0
 70
1
 66
1
  0
VERTEX
  8
0
 10
1781.4075927734375
 20
792.59002685546875
 42
0
  0
VERTEX
  8
0
 10
1667.4906005859375
 20
844.3704833984375
 42
0
  0
VERTEX
  8
0
 10
1565.3245849609375
 20
844.3704833984375
 42
0
  0
VERTEX
  8
0
 10
1451.4075927734375
 20
792.59002685546875
 42
0
  0
VERTEX
  8
0
 10
1451.4075927734375
 20
762.3704833984375
 42
0
  0
VERTEX
  8
0
 10
1496.4075927734375
 20
762.3704833984375
 42
-1
  0
VERTEX
  8
0
 10
1496.4075927734375
 20
746.3704833984375
 42
0
  0
VERTEX
  8
0
 10
1451.4075927734375
 20
746.3704833984375
 42
0
  0
VERTEX
  8
0
 10
1451.4075927734375
 20
716.15093994140625
 42
0
  0
VERTEX
  8
0
 10
1565.3245849609375
 20
664.3704833984375
 42
0
  0
VERTEX
  8
0
 10
1667.4906005859375
 20
664.3704833984375
 42
0
  0
VERTEX
  8
0
 10
1781.4075927734375
 20
716.15093994140625
 42
0
  0
VERTEX
  8
0
 10
1781.4075927734375
 20
746.3704833984375
 42
0
  0
VERTEX
  8
0
 10
1736.4075927734375
 20
746.3704833984375
 42
-1
  0
VERTEX
  8
0
 10
1736.4075927734375
 20
762.3704833984375
 42
0
  0
VERTEX
  8
0
 10
1781.4075927734375
 20
762.3704833984375
 42
0
  0
SEQEND
  0
POLYLINE
  8
0
 10
0
 20
0
 39
0
 70
1
 66
1
  0
VERTEX
  8
0
 10
1548.9075927734375
 20
754.3704833984375
 42
-1
  0
VERTEX
  8
0
 10
1683.9075927734375
 20
754.3704833984375
 42
-1
  0
SEQEND
  0
POLYLINE
  8
0
 10
0
 20
0
 39
0
 70
1
 66
1
  0
VERTEX
  8
0
 10
1754.02197265625
 20
982.6400146484375
 42
0
  0
VERTEX
  8
0
 10
1640.10498046875
 20
1034.42041015625
 42
0
  0
VERTEX
  8
0
 10
1537.93896484375
 20
1034.42041015625
 42
0
  0
VERTEX
  8
0
 10
1424.02197265625
 20
982.6400146484375
 42
0
  0
VERTEX
  8
0
 10
1424.02197265625
 20
952.42047119140625
 42
0
  0
VERTEX
  8
0
 10
1469.02197265625
 20
952.42047119140625
 42
-1
  0
VERTEX
  8
0
 10
1469.02197265625
 20
936.42047119140625
 42
0
  0
VERTEX
  8
0
 10
1424.02197265625
 20
936.42047119140625
 42
0
  0
VERTEX
  8
0
 10
1424.02197265625
 20
906.200927734375
 42
0
  0
VERTEX
  8
0
 10
1537.93896484375
 20
854.42047119140625
 42
0
  0
VERTEX
  8
0
 10
1640.10498046875
 20
854.42047119140625
 42
0
  0
VERTEX
  8
0
 10
1754.02197265625
 20
906.200927734375
 42
0
  0
VERTEX
  8
0
 10
1754.02197265625
 20
936.42047119140625
 42
0
  0
VERTEX
  8
0
 10
1709.02197265625
 20
936.42047119140625
 42
-1
  0
VERTEX
  8
0
 10
1709.02197265625
 20
952.42047119140625
 42
0
  0
VERTEX
  8
0
 10
1754.02197265625
 20
952.42047119140625
 42
0
  0
SEQEND
  0
POLYLINE
  8
0
 10
0
 20
0
 39
0
 70
1
 66
1
  0
VERTEX
  8
0
 10
1521.52197265625
 20
944.42047119140625
 42
-1
  0
VERTEX
  8
0
 10
1656.52197265625
 20
944.42047119140625
 42
-1
  0
SEQEND
  0
POLYLINE
  8
0
 10
0
 20
0
 39
0
 70
1
 66
1
  0
VERTEX
  8
0
 10
3951.76416015625
 20
1225.779296875
 42
0
  0
VERTEX
  8
0
 10
4051.76416015625
 20
1225.779296875
 42
0
  0
VERTEX
  8
0
 10
4051.76416015625
 20
1275.779296875
 42
0
  0
VERTEX
  8
0
 10
3951.76416015625
 20
1275.779296875
 42
0
  0
SEQEND
  0
POLYLINE
  8
0
 10
0
 20
0
 39
0
 70
1
 66
1
  0
VERTEX
  8
0
 10
3841.714111328125
 20
1225.779296875
 42
0
  0
VERTEX
  8
0
 10
3941.714111328125
 20
1225.779296875
 42
0
  0
VERTEX
  8
0
 10
3941.714111328125
 20
1275.779296875
 42
0
  0
VERTEX
  8
0
 10
3841.714111328125
 20
1275.779296875
 42
0
  0
SEQEND
  0
POLYLINE
  8
0
 10
0
 20
0
 39
0
 70
1
 66
1
  0
VERTEX
  8
0
 10
3731.6640625
 20
1225.779296875
 42
0
  0
VERTEX
  8
0
 10
3831.6640625
 20
1225.779296875
 42
0
  0
VERTEX
  8
0
 10
3831.6640625
 20
1275.779296875
 42
0
  0
VERTEX
  8
0
 10
3731.6640625
 20
1275.779296875
 42
0
  0
SEQEND
  0
POLYLINE
  8
0
 10
0
 20
0
 39
0
 70
1
 66
1
  0
VERTEX
  8
0
 10
3621.614013671875
 20
1225.779296875
 42
0
  0
VERTEX
  8
0
 10
3721.614013671875
 20
1225.779296875
 42
0
  0
VERTEX
  8
0
 10
3721.614013671875
 20
1275.779296875
 42
0
  0
VERTEX
  8
0
 10
3621.614013671875
 20
1275.779296875
 42
0
  0
SEQEND
  0
POLYLINE
  8
0
 10
0
 20
0
 39
0
 70
1
 66
1
  0
VERTEX
  8
0
 10
4534.900390625
 20
989.95001220703125
 42
1
  0
VERTEX
  8
0
 10
5534.900390625
 20
989.95001220703125
 42
1
  0
SEQEND
  0
POLYLINE
  8
0
 10
0
 20
0
 39
0
 70
1
 66
1
  0
VERTEX
  8
0
 10
3088.669921875
 20
789.31494140625
 42
0.29276999831199646
  0
VERTEX
  8
0
 10
2473.852783203125
 20
789.314697265625
 42
-0
  0
SEQEND
  0
POLYLINE
  8
0
 10
0
 20
0
 39
0
 70
1
 66
1
  0
VERTEX
  8
0
 10
2498.532958984375
 20
779.2646484375
 42
0.29276999831199646
  0
VERTEX
  8
0
 10
3113.349853515625
 20
779.2646484375
 42
-0
  0
SEQEND
  0
POLYLINE
  8
0
 10
0
 20
0
 39
0
 70
1
 66
1
  0
VERTEX
  8
0
 10
4192.662109375
 20
785.4263916015625
 42
0.29276999831199646
  0
VERTEX
  8
0
 10
3577.844970703125
 20
785.4261474609375
 42
-0
  0
SEQEND
  0
POLYLINE
  8
0
 10
0
 20
0
 39
0
 70
1
 66
1
  0
VERTEX
  8
0
 10
3636.87353515625
 20
775.3760986328125
 42
0.29276999831199646
  0
VERTEX
  8
0
 10
4251.6904296875
 20
775.3760986328125
 42
-0
  0
SEQEND
  0
POLYLINE
  8
0
 10
0
 20
0
 39
0
 70
1
 66
1
  0
VERTEX
  8
0
 10
3589.0322265625
 20
675.3260498046875
 42
0.29276999831199646
  0
VERTEX
  8
0
 10
4203.84912109375
 20
675.3260498046875
 42
-0
  0
SEQEND
  0
POLYLINE
  8
0
 10
0
 20
0
 39
0
 70
1
 66
1
  0
VERTEX
  8
0
 10
3652.87109375
 20
380.15020751953125
 42
0.29276999831199646
  0
VERTEX
  8
0
 10
3038.05419921875
 20
380.14996337890625
 42
-0
  0
SEQEND
  0
POLYLINE
  8
0
 10
0
 20
0
 39
0
 70
1
 66
1
  0
VERTEX
  8
0
 10
5269.9501953125
 20
507.89691162109375
 42
0
  0
VERTEX
  8
0
 10
5269.9501953125
 20
489.9498291015625
 42
0
  0
VERTEX
  8
0
 10
5989.9501953125
 20
489.949951171875
 42
0
  0
VERTEX
  8
0
 10
5989.9501953125
 20
1489.949951171875
 42
0
  0
VERTEX
  8
0
 10
5269.9501953125
 20
1489.9498291015625
 42
0
  0
VERTEX
  8
0
 10
5269.9501953125
 20
1472.002685546875
 42
-0.57047700881958008
  0
SEQEND
  0
POLYLINE
  8
0
 10
0
 20
0
 39
0
 70
1
 66
1
  0
VERTEX
  8
0
 10
1120.056640625
 20
930.14996337890625
 42
1
  0
VERTEX
  8
0
 10
2220.056640625
 20
930.14996337890625
 42
1
  0
SEQEND
  0
POLYLINE
  8
0
 10
0
 20
0
 39
0
 70
1
 66
1
  0
VERTEX
  8
0
 10
1230.056640625
 20
930.14996337890625
 42
-1
  0
VERTEX
  8
0
 10
2110.056640625
 20
930.14996337890625
 42
-1
  0
SEQEND
  0
POLYLINE
  8
0
 10
0
 20
0
 39
0
 70
1
 66
1
  0
VERTEX
  8
0
 10
2230.0634765625
 20
939.949951171875
 42
1
  0
VERTEX
  8
0
 10
3330.0634765625
 20
939.949951171875
 42
1
  0
SEQEND
  0
POLYLINE
  8
0
 10
0
 20
0
 39
0
 70
1
 66
1
  0
VERTEX
  8
0
 10
2340.0634765625
 20
939.949951171875
 42
-1
  0
VERTEX
  8
0
 10
3220.0634765625
 20
939.949951171875
 42
-1
  0
SEQEND
  0
POLYLINE
  8
0
 10
0
 20
0
 39
0
 70
1
 66
1
  0
VERTEX
  8
0
 10
3340.113525390625
 20
939.949951171875
 42
1
  0
VERTEX
  8
0
 10
4440.11328125
 20
939.949951171875
 42
1
  0
SEQEND
  0
POLYLINE
  8
0
 10
0
 20
0
 39
0
 70
1
 66
1
  0
VERTEX
  8
0
 10
3450.113525390625
 20
939.949951171875
 42
-1
  0
VERTEX
  8
0
 10
4330.11328125
 20
939.949951171875
 42
-1
  0
SEQEND
  0
POLYLINE
  8
0
 10
0
 20
0
 39
0
 70
1
 66
1
  0
VERTEX
  8
0
 10
10.0498046875
 20
930.14996337890625
 42
1
  0
VERTEX
  8
0
 10
1110.0498046875
 20
930.14996337890625
 42
1
  0
SEQEND
  0
POLYLINE
  8
0
 10
0
 20
0
 39
0
 70
1
 66
1
  0
VERTEX
  8
0
 10
120.0498046875
 20
930.14996337890625
 42
-1
  0
VERTEX
  8
0
 10
1000.0498046875
 20
930.14996337890625
 42
-1
  0
SEQEND
  0
POLYLINE
  8
0
 10
0
 20
0
 39
0
 70
1
 66
1
  0
VERTEX
  8
0
 10
10.04998779296875
 20
195.0999755859375
 42
0
  0
VERTEX
  8
0
 10
3621.050048828125
 20
195.0999755859375
 42
0
  0
VERTEX
  8
0
 10
3621.050048828125
 20
370.0999755859375
 42
0
  0
VERTEX
  8
0
 10
10.04998779296875
 20
370.0999755859375
 42
0
  0
SEQEND
  0
POLYLINE
  8
0
 10
0
 20
0
 39
0
 70
1
 66
1
  0
VERTEX
  8
0
 10
10.04998779296875
 20
10.04998779296875
 42
0
  0
VERTEX
  8
0
 10
3621.050048828125
 20
10.04998779296875
 42
0
  0
VERTEX
  8
0
 10
3621.050048828125
 20
185.04998779296875
 42
0
  0
VERTEX
  8
0
 10
10.04998779296875
 20
185.04998779296875
 42
0
  0
SEQEND
  0
POLYLINE
  8
0
 10
0
 20
0
 39
0
 70
1
 66
1
  0
VERTEX
  8
0
 10
2213.711181640625
 20
1314.1556396484375
 42
1
  0
VERTEX
  8
0
 10
2333.711181640625
 20
1314.1556396484375
 42
1
  0
SEQEND
  0
POLYLINE
  8
0
 10
0
 20
0
 39
0
 70
1
 66
1
  0
VERTEX
  8
0
 10
2243.711181640625
 20
1314.1556396484375
 42
-1
  0
VERTEX
  8
0
 10
2303.711181640625
 20
1314.1556396484375
 42
-1
  0
SEQEND
  0
POLYLINE
  8
0
 10
0
 20
0
 39
0
 70
1
 66
1
  0
VERTEX
  8
0
 10
3193.426513671875
 20
533.5478515625
 42
1
  0
VERTEX
  8
0
 10
3313.426513671875
 20
533.5478515625
 42
1
  0
SEQEND
  0
POLYLINE
  8
0
 10
0
 20
0
 39
0
 70
1
 66
1
  0
VERTEX
  8
0
 10
3223.426513671875
 20
533.5478515625
 42
-1
  0
VERTEX
  8
0
 10
3283.426513671875
 20
533.5478515625
 42
-1
  0
SEQEND
  0
POLYLINE
  8
0
 10
0
 20
0
 39
0
 70
1
 66
1
  0
VERTEX
  8
0
 10
3348.321533203125
 20
1333.805419921875
 42
1
  0
VERTEX
  8
0
 10
3468.321533203125
 20
1333.805419921875
 42
1
  0
SEQEND
  0
POLYLINE
  8
0
 10
0
 20
0
 39
0
 70
1
 66
1
  0
VERTEX
  8
0
 10
3378.321533203125
 20
1333.805419921875
 42
-1
  0
VERTEX
  8
0
 10
3438.321533203125
 20
1333.805419921875
 42
-1
  0
SEQEND
  0
POLYLINE
  8
0
 10
0
 20
0
 39
0
 70
1
 66
1
  0
VERTEX
  8
0
 10
2167.9755859375
 20
480.20013427734375
 42
0
  0
VERTEX
  8
0
 10
2287.9755859375
 20
480.20013427734375
 42
0
  0
VERTEX
  8
0
 10
2287.9755859375
 20
600.20013427734375
 42
0
  0
VERTEX
  8
0
 10
2167.9755859375
 20
600.20013427734375
 42
0
  0
SEQEND
  0
POLYLINE
  8
0
 10
0
 20
0
 39
0
 70
1
 66
1
  0
VERTEX
  8
0
 10
10.049999237060547
 20
1369.949951171875
 42
0
  0
VERTEX
  8
0
 10
130.05000305175781
 20
1369.949951171875
 42
0
  0
VERTEX
  8
0
 10
130.05000305175781
 20
1489.949951171875
 42
0
  0
VERTEX
  8
0
 10
10.049999237060547
 20
1489.949951171875
 42
0
  0
SEQEND
  0
POLYLINE
  8
0
 10
0
 20
0
 39
0
 70
1
 66
1
  0
VERTEX
  8
0
 10
10.049999237060547
 20
380.14996337890625
 42
0
  0
VERTEX
  8
0
 10
130.05000305175781
 20
380.14996337890625
 42
0
  0
VERTEX
  8
0
 10
130.05000305175781
 20
500.14996337890625
 42
0
  0
VERTEX
  8
0
 10
10.049999237060547
 20
500.14996337890625
 42
0
  0
SEQEND
  0
ENDSEC
  0
EOF
