  0
SECTION
  2
ENTITIES
  0
POLYLINE
  8
0
 10
0
 20
0
 39
0
 70
1
 66
1
  0
VERTEX
  8
0
 10
0
 20
0
 42
-0
  0
VERTEX
  8
0
 10
1750
 20
0
 42
-0
  0
VERTEX
  8
0
 10
1750
 20
1100
 42
-0
  0
VERTEX
  8
0
 10
0
 20
1100
 42
-0
  0
SEQEND
  0
POLYLINE
  8
0
 10
0
 20
0
 39
0
 70
1
 66
1
  0
VERTEX
  8
0
 10
423.81759643554687
 20
10.25
 42
-0
  0
VERTEX
  8
0
 10
422.94192504882812
 20
471.4080810546875
 42
-0
  0
VERTEX
  8
0
 10
10.25
 20
544.17681884765625
 42
-0
  0
VERTEX
  8
0
 10
11.125675201416016
 20
83.018722534179688
 42
0
  0
SEQEND
  0
POLYLINE
  8
0
 10
0
 20
0
 39
0
 70
1
 66
1
  0
VERTEX
  8
0
 10
404.14727783203125
 20
244.22024536132812
 42
-1
  0
VERTEX
  8
0
 10
29.920326232910156
 20
310.20654296875
 42
-1
  0
SEQEND
  0
POLYLINE
  8
0
 10
0
 20
0
 39
0
 70
1
 66
1
  0
VERTEX
  8
0
 10
423.81759643554687
 20
481.94232177734375
 42
-0
  0
VERTEX
  8
0
 10
422.94192504882812
 20
943.10040283203125
 42
-0
  0
VERTEX
  8
0
 10
10.25
 20
1015.8690795898437
 42
-0
  0
VERTEX
  8
0
 10
11.125675201416016
 20
554.7110595703125
 42
0
  0
SEQEND
  0
POLYLINE
  8
0
 10
0
 20
0
 39
0
 70
1
 66
1
  0
VERTEX
  8
0
 10
404.14727783203125
 20
715.91253662109375
 42
-1
  0
VERTEX
  8
0
 10
29.920326232910156
 20
781.89886474609375
 42
-1
  0
SEQEND
  0
POLYLINE
  8
0
 10
0
 20
0
 39
0
 70
1
 66
1
  0
VERTEX
  8
0
 10
846.64453125
 20
550.73077392578125
 42
-0
  0
VERTEX
  8
0
 10
845.76885986328125
 20
1011.8888549804687
 42
-0
  0
VERTEX
  8
0
 10
433.07693481445312
 20
1084.6575927734375
 42
-0
  0
VERTEX
  8
0
 10
433.95260620117187
 20
623.49951171875
 42
0
  0
SEQEND
  0
POLYLINE
  8
0
 10
0
 20
0
 39
0
 70
1
 66
1
  0
VERTEX
  8
0
 10
826.97418212890625
 20
784.70098876953125
 42
-1
  0
VERTEX
  8
0
 10
452.74725341796875
 20
850.68731689453125
 42
-1
  0
SEQEND
  0
POLYLINE
  8
0
 10
0
 20
0
 39
0
 70
1
 66
1
  0
VERTEX
  8
0
 10
847.5867919921875
 20
10.25
 42
-0
  0
VERTEX
  8
0
 10
846.71112060546875
 20
471.4080810546875
 42
-0
  0
VERTEX
  8
0
 10
434.01922607421875
 20
544.17681884765625
 42
-0
  0
VERTEX
  8
0
 10
434.8948974609375
 20
83.018722534179688
 42
0
  0
SEQEND
  0
POLYLINE
  8
0
 10
0
 20
0
 39
0
 70
1
 66
1
  0
VERTEX
  8
0
 10
827.91650390625
 20
244.22024536132812
 42
-1
  0
VERTEX
  8
0
 10
453.68954467773437
 20
310.20654296875
 42
-1
  0
SEQEND
  0
POLYLINE
  8
0
 10
0
 20
0
 39
0
 70
1
 66
1
  0
VERTEX
  8
0
 10
1269.6060791015625
 20
548.7115478515625
 42
-0
  0
VERTEX
  8
0
 10
1268.7303466796875
 20
1009.86962890625
 42
-0
  0
VERTEX
  8
0
 10
856.0384521484375
 20
1082.6383056640625
 42
-0
  0
VERTEX
  8
0
 10
856.91412353515625
 20
621.48028564453125
 42
0
  0
SEQEND
  0
POLYLINE
  8
0
 10
0
 20
0
 39
0
 70
1
 66
1
  0
VERTEX
  8
0
 10
1249.9356689453125
 20
782.6817626953125
 42
-1
  0
VERTEX
  8
0
 10
875.70880126953125
 20
848.6680908203125
 42
-1
  0
SEQEND
  0
POLYLINE
  8
0
 10
0
 20
0
 39
0
 70
1
 66
1
  0
VERTEX
  8
0
 10
1270.54833984375
 20
10.25
 42
-0
  0
VERTEX
  8
0
 10
1269.6727294921875
 20
471.4080810546875
 42
-0
  0
VERTEX
  8
0
 10
856.98077392578125
 20
544.17681884765625
 42
-0
  0
VERTEX
  8
0
 10
857.8564453125
 20
83.018722534179688
 42
0
  0
SEQEND
  0
POLYLINE
  8
0
 10
0
 20
0
 39
0
 70
1
 66
1
  0
VERTEX
  8
0
 10
1250.8780517578125
 20
244.22024536132812
 42
-1
  0
VERTEX
  8
0
 10
876.651123046875
 20
310.20654296875
 42
-1
  0
SEQEND
  0
POLYLINE
  8
0
 10
0
 20
0
 39
0
 70
1
 66
1
  0
VERTEX
  8
0
 10
1692.567626953125
 20
546.69232177734375
 42
-0
  0
VERTEX
  8
0
 10
1691.69189453125
 20
1007.8504028320312
 42
-0
  0
VERTEX
  8
0
 10
1279
 20
1080.619140625
 42
-0
  0
VERTEX
  8
0
 10
1279.875732421875
 20
619.4610595703125
 42
0
  0
SEQEND
  0
POLYLINE
  8
0
 10
0
 20
0
 39
0
 70
1
 66
1
  0
VERTEX
  8
0
 10
1672.897216796875
 20
780.66253662109375
 42
-1
  0
VERTEX
  8
0
 10
1298.6702880859375
 20
846.64886474609375
 42
-1
  0
SEQEND
  0
POLYLINE
  8
0
 10
0
 20
0
 39
0
 70
1
 66
1
  0
VERTEX
  8
0
 10
1693.5098876953125
 20
10.25
 42
-0
  0
VERTEX
  8
0
 10
1692.63427734375
 20
471.4080810546875
 42
-0
  0
VERTEX
  8
0
 10
1279.9422607421875
 20
544.17681884765625
 42
-0
  0
VERTEX
  8
0
 10
1280.8179931640625
 20
83.018722534179688
 42
0
  0
SEQEND
  0
POLYLINE
  8
0
 10
0
 20
0
 39
0
 70
1
 66
1
  0
VERTEX
  8
0
 10
1673.839599609375
 20
244.22024536132812
 42
-1
  0
VERTEX
  8
0
 10
1299.6126708984375
 20
310.20654296875
 42
-1
  0
SEQEND
  0
POLYLINE
  8
0
 10
0
 20
0
 39
0
 70
1
 66
1
  0
VERTEX
  8
0
 10
215.716796875
 20
454.6329345703125
 42
1
  0
VERTEX
  8
0
 10
214.16781616210937
 20
99.636306762695313
 42
1
  0
SEQEND
  0
POLYLINE
  8
0
 10
0
 20
0
 39
0
 70
1
 66
1
  0
VERTEX
  8
0
 10
325.42123413085937
 20
386.65359497070312
 42
-0
  0
VERTEX
  8
0
 10
324.4613037109375
 20
166.65570068359375
 42
-0
  0
VERTEX
  8
0
 10
104.46338653564453
 20
167.61563110351562
 42
-0
  0
VERTEX
  8
0
 10
105.42331695556641
 20
387.613525390625
 42
-0
  0
SEQEND
  0
POLYLINE
  8
0
 10
0
 20
0
 39
0
 70
1
 66
1
  0
VERTEX
  8
0
 10
215.716796875
 20
926.32525634765625
 42
1
  0
VERTEX
  8
0
 10
214.16781616210937
 20
571.32861328125
 42
1
  0
SEQEND
  0
POLYLINE
  8
0
 10
0
 20
0
 39
0
 70
1
 66
1
  0
VERTEX
  8
0
 10
325.42123413085937
 20
858.34588623046875
 42
-0
  0
VERTEX
  8
0
 10
324.4613037109375
 20
638.3480224609375
 42
-0
  0
VERTEX
  8
0
 10
104.46338653564453
 20
639.30792236328125
 42
-0
  0
VERTEX
  8
0
 10
105.42331695556641
 20
859.30584716796875
 42
-0
  0
SEQEND
  0
POLYLINE
  8
0
 10
0
 20
0
 39
0
 70
1
 66
1
  0
VERTEX
  8
0
 10
638.543701171875
 20
995.11370849609375
 42
1
  0
VERTEX
  8
0
 10
636.9947509765625
 20
640.1170654296875
 42
1
  0
SEQEND
  0
POLYLINE
  8
0
 10
0
 20
0
 39
0
 70
1
 66
1
  0
VERTEX
  8
0
 10
748.2481689453125
 20
927.13433837890625
 42
-0
  0
VERTEX
  8
0
 10
747.2882080078125
 20
707.136474609375
 42
-0
  0
VERTEX
  8
0
 10
527.290283203125
 20
708.09637451171875
 42
-0
  0
VERTEX
  8
0
 10
528.250244140625
 20
928.09429931640625
 42
-0
  0
SEQEND
  0
POLYLINE
  8
0
 10
0
 20
0
 39
0
 70
1
 66
1
  0
VERTEX
  8
0
 10
639.48602294921875
 20
454.6329345703125
 42
1
  0
VERTEX
  8
0
 10
637.93707275390625
 20
99.636306762695313
 42
1
  0
SEQEND
  0
POLYLINE
  8
0
 10
0
 20
0
 39
0
 70
1
 66
1
  0
VERTEX
  8
0
 10
749.1904296875
 20
386.65359497070312
 42
-0
  0
VERTEX
  8
0
 10
748.23052978515625
 20
166.65570068359375
 42
-0
  0
VERTEX
  8
0
 10
528.23260498046875
 20
167.61563110351562
 42
-0
  0
VERTEX
  8
0
 10
529.19256591796875
 20
387.613525390625
 42
-0
  0
SEQEND
  0
POLYLINE
  8
0
 10
0
 20
0
 39
0
 70
1
 66
1
  0
VERTEX
  8
0
 10
1061.5052490234375
 20
993.094482421875
 42
1
  0
VERTEX
  8
0
 10
1059.956298828125
 20
638.09783935546875
 42
1
  0
SEQEND
  0
POLYLINE
  8
0
 10
0
 20
0
 39
0
 70
1
 66
1
  0
VERTEX
  8
0
 10
1171.209716796875
 20
925.1151123046875
 42
-0
  0
VERTEX
  8
0
 10
1170.249755859375
 20
705.11724853515625
 42
-0
  0
VERTEX
  8
0
 10
950.2518310546875
 20
706.0771484375
 42
-0
  0
VERTEX
  8
0
 10
951.2117919921875
 20
926.0750732421875
 42
-0
  0
SEQEND
  0
POLYLINE
  8
0
 10
0
 20
0
 39
0
 70
1
 66
1
  0
VERTEX
  8
0
 10
1062.447509765625
 20
454.6329345703125
 42
1
  0
VERTEX
  8
0
 10
1060.8985595703125
 20
99.636306762695313
 42
1
  0
SEQEND
  0
POLYLINE
  8
0
 10
0
 20
0
 39
0
 70
1
 66
1
  0
VERTEX
  8
0
 10
1172.1519775390625
 20
386.65359497070312
 42
-0
  0
VERTEX
  8
0
 10
1171.1920166015625
 20
166.65570068359375
 42
-0
  0
VERTEX
  8
0
 10
951.19415283203125
 20
167.61563110351562
 42
-0
  0
VERTEX
  8
0
 10
952.15411376953125
 20
387.613525390625
 42
-0
  0
SEQEND
  0
POLYLINE
  8
0
 10
0
 20
0
 39
0
 70
1
 66
1
  0
VERTEX
  8
0
 10
1484.466796875
 20
991.07525634765625
 42
1
  0
VERTEX
  8
0
 10
1482.9178466796875
 20
636.07861328125
 42
1
  0
SEQEND
  0
POLYLINE
  8
0
 10
0
 20
0
 39
0
 70
1
 66
1
  0
VERTEX
  8
0
 10
1594.1712646484375
 20
923.09588623046875
 42
-0
  0
VERTEX
  8
0
 10
1593.2113037109375
 20
703.0980224609375
 42
-0
  0
VERTEX
  8
0
 10
1373.21337890625
 20
704.05792236328125
 42
-0
  0
VERTEX
  8
0
 10
1374.17333984375
 20
924.05584716796875
 42
-0
  0
SEQEND
  0
POLYLINE
  8
0
 10
0
 20
0
 39
0
 70
1
 66
1
  0
VERTEX
  8
0
 10
1485.4090576171875
 20
454.6329345703125
 42
1
  0
VERTEX
  8
0
 10
1483.860107421875
 20
99.636306762695313
 42
1
  0
SEQEND
  0
POLYLINE
  8
0
 10
0
 20
0
 39
0
 70
1
 66
1
  0
VERTEX
  8
0
 10
1595.113525390625
 20
386.65359497070312
 42
-0
  0
VERTEX
  8
0
 10
1594.153564453125
 20
166.65570068359375
 42
-0
  0
VERTEX
  8
0
 10
1374.1556396484375
 20
167.61563110351562
 42
-0
  0
VERTEX
  8
0
 10
1375.1156005859375
 20
387.613525390625
 42
-0
  0
SEQEND
  0
POLYLINE
  8
0
 10
0
 20
0
 39
0
 70
1
 66
1
  0
VERTEX
  8
0
 10
295.51922607421875
 20
177.71153259277344
 42
0
  0
VERTEX
  8
0
 10
295.51922607421875
 20
372.7115478515625
 42
0
  0
VERTEX
  8
0
 10
115.51923370361328
 20
372.7115478515625
 42
0
  0
VERTEX
  8
0
 10
115.51923370361328
 20
177.71153259277344
 42
0
  0
SEQEND
  0
POLYLINE
  8
0
 10
0
 20
0
 39
0
 70
1
 66
1
  0
VERTEX
  8
0
 10
270.51922607421875
 20
236.98222351074219
 42
-0
  0
VERTEX
  8
0
 10
140.51922607421875
 20
236.98222351074219
 42
-0
  0
VERTEX
  8
0
 10
140.51922607421875
 20
356.98220825195312
 42
-0
  0
VERTEX
  8
0
 10
270.51922607421875
 20
356.98220825195312
 42
-0
  0
SEQEND
  0
POLYLINE
  8
0
 10
0
 20
0
 39
0
 70
1
 66
1
  0
VERTEX
  8
0
 10
295.51922607421875
 20
649.40386962890625
 42
0
  0
VERTEX
  8
0
 10
295.51922607421875
 20
844.40386962890625
 42
0
  0
VERTEX
  8
0
 10
115.51923370361328
 20
844.40386962890625
 42
0
  0
VERTEX
  8
0
 10
115.51923370361328
 20
649.40386962890625
 42
0
  0
SEQEND
  0
POLYLINE
  8
0
 10
0
 20
0
 39
0
 70
1
 66
1
  0
VERTEX
  8
0
 10
270.51922607421875
 20
708.67449951171875
 42
-0
  0
VERTEX
  8
0
 10
140.51922607421875
 20
708.67449951171875
 42
-0
  0
VERTEX
  8
0
 10
140.51922607421875
 20
828.67449951171875
 42
-0
  0
VERTEX
  8
0
 10
270.51922607421875
 20
828.67449951171875
 42
-0
  0
SEQEND
  0
POLYLINE
  8
0
 10
0
 20
0
 39
0
 70
1
 66
1
  0
VERTEX
  8
0
 10
718.34613037109375
 20
718.19232177734375
 42
0
  0
VERTEX
  8
0
 10
718.34613037109375
 20
913.19232177734375
 42
0
  0
VERTEX
  8
0
 10
538.34613037109375
 20
913.19232177734375
 42
0
  0
VERTEX
  8
0
 10
538.34613037109375
 20
718.19232177734375
 42
0
  0
SEQEND
  0
POLYLINE
  8
0
 10
0
 20
0
 39
0
 70
1
 66
1
  0
VERTEX
  8
0
 10
693.34613037109375
 20
777.4630126953125
 42
-0
  0
VERTEX
  8
0
 10
563.34613037109375
 20
777.4630126953125
 42
-0
  0
VERTEX
  8
0
 10
563.34613037109375
 20
897.4630126953125
 42
-0
  0
VERTEX
  8
0
 10
693.34613037109375
 20
897.4630126953125
 42
-0
  0
SEQEND
  0
POLYLINE
  8
0
 10
0
 20
0
 39
0
 70
1
 66
1
  0
VERTEX
  8
0
 10
719.2884521484375
 20
177.71153259277344
 42
0
  0
VERTEX
  8
0
 10
719.2884521484375
 20
372.7115478515625
 42
0
  0
VERTEX
  8
0
 10
539.2884521484375
 20
372.7115478515625
 42
0
  0
VERTEX
  8
0
 10
539.2884521484375
 20
177.71153259277344
 42
0
  0
SEQEND
  0
POLYLINE
  8
0
 10
0
 20
0
 39
0
 70
1
 66
1
  0
VERTEX
  8
0
 10
694.2884521484375
 20
236.98222351074219
 42
-0
  0
VERTEX
  8
0
 10
564.2884521484375
 20
236.98222351074219
 42
-0
  0
VERTEX
  8
0
 10
564.2884521484375
 20
356.98220825195312
 42
-0
  0
VERTEX
  8
0
 10
694.2884521484375
 20
356.98220825195312
 42
-0
  0
SEQEND
  0
POLYLINE
  8
0
 10
0
 20
0
 39
0
 70
1
 66
1
  0
VERTEX
  8
0
 10
1141.3077392578125
 20
716.173095703125
 42
0
  0
VERTEX
  8
0
 10
1141.3077392578125
 20
911.173095703125
 42
0
  0
VERTEX
  8
0
 10
961.30767822265625
 20
911.173095703125
 42
0
  0
VERTEX
  8
0
 10
961.30767822265625
 20
716.173095703125
 42
0
  0
SEQEND
  0
POLYLINE
  8
0
 10
0
 20
0
 39
0
 70
1
 66
1
  0
VERTEX
  8
0
 10
1116.3077392578125
 20
775.44378662109375
 42
-0
  0
VERTEX
  8
0
 10
986.30767822265625
 20
775.44378662109375
 42
-0
  0
VERTEX
  8
0
 10
986.30767822265625
 20
895.44378662109375
 42
-0
  0
VERTEX
  8
0
 10
1116.3077392578125
 20
895.44378662109375
 42
-0
  0
SEQEND
  0
POLYLINE
  8
0
 10
0
 20
0
 39
0
 70
1
 66
1
  0
VERTEX
  8
0
 10
1142.25
 20
177.71153259277344
 42
0
  0
VERTEX
  8
0
 10
1142.25
 20
372.7115478515625
 42
0
  0
VERTEX
  8
0
 10
962.25
 20
372.7115478515625
 42
0
  0
VERTEX
  8
0
 10
962.25
 20
177.71153259277344
 42
0
  0
SEQEND
  0
POLYLINE
  8
0
 10
0
 20
0
 39
0
 70
1
 66
1
  0
VERTEX
  8
0
 10
1117.25
 20
236.98222351074219
 42
-0
  0
VERTEX
  8
0
 10
987.25
 20
236.98222351074219
 42
-0
  0
VERTEX
  8
0
 10
987.25
 20
356.98220825195312
 42
-0
  0
VERTEX
  8
0
 10
1117.25
 20
356.98220825195312
 42
-0
  0
SEQEND
  0
POLYLINE
  8
0
 10
0
 20
0
 39
0
 70
1
 66
1
  0
VERTEX
  8
0
 10
1564.269287109375
 20
714.15386962890625
 42
0
  0
VERTEX
  8
0
 10
1564.269287109375
 20
909.15386962890625
 42
0
  0
VERTEX
  8
0
 10
1384.269287109375
 20
909.15386962890625
 42
0
  0
VERTEX
  8
0
 10
1384.269287109375
 20
714.15386962890625
 42
0
  0
SEQEND
  0
POLYLINE
  8
0
 10
0
 20
0
 39
0
 70
1
 66
1
  0
VERTEX
  8
0
 10
1539.269287109375
 20
773.42449951171875
 42
-0
  0
VERTEX
  8
0
 10
1409.269287109375
 20
773.42449951171875
 42
-0
  0
VERTEX
  8
0
 10
1409.269287109375
 20
893.42449951171875
 42
-0
  0
VERTEX
  8
0
 10
1539.269287109375
 20
893.42449951171875
 42
-0
  0
SEQEND
  0
POLYLINE
  8
0
 10
0
 20
0
 39
0
 70
1
 66
1
  0
VERTEX
  8
0
 10
1565.2115478515625
 20
177.71153259277344
 42
0
  0
VERTEX
  8
0
 10
1565.2115478515625
 20
372.7115478515625
 42
0
  0
VERTEX
  8
0
 10
1385.2115478515625
 20
372.7115478515625
 42
0
  0
VERTEX
  8
0
 10
1385.2115478515625
 20
177.71153259277344
 42
0
  0
SEQEND
  0
POLYLINE
  8
0
 10
0
 20
0
 39
0
 70
1
 66
1
  0
VERTEX
  8
0
 10
1540.2115478515625
 20
236.98222351074219
 42
-0
  0
VERTEX
  8
0
 10
1410.2115478515625
 20
236.98222351074219
 42
-0
  0
VERTEX
  8
0
 10
1410.2115478515625
 20
356.98220825195312
 42
-0
  0
VERTEX
  8
0
 10
1540.2115478515625
 20
356.98220825195312
 42
-0
  0
SEQEND
  0
POLYLINE
  8
0
 10
0
 20
0
 39
0
 70
1
 66
1
  0
VERTEX
  8
0
 10
170.86705017089844
 20
1089.7305908203125
 42
0.015384012833237648
  0
VERTEX
  8
0
 10
145.92875671386719
 20
1082.367431640625
 42
0.0191365797072649
  0
VERTEX
  8
0
 10
115.46781921386719
 20
1071.035400390625
 42
0.019108468666672707
  0
VERTEX
  8
0
 10
85.961280822753906
 20
1057.4105224609375
 42
0.007651415653526783
  0
VERTEX
  8
0
 10
74.465095520019531
 20
1051.3358154296875
 42
-0
  0
VERTEX
  8
0
 10
74.461540222167969
 20
1036.498046875
 42
0.01902422308921814
  0
VERTEX
  8
0
 10
103.5330810546875
 20
1021.9690551757812
 42
0.019087811931967735
  0
VERTEX
  8
0
 10
133.62632751464844
 20
1009.6942138671875
 42
0.019247783347964287
  0
VERTEX
  8
0
 10
164.5697021484375
 20
999.75714111328125
 42
-0
  0
VERTEX
  8
0
 10
170.845458984375
 20
998.05767822265625
 42
-0
  0
VERTEX
  8
0
 10
171.60752868652344
 20
998.50201416015625
 42
0.022583933547139168
  0
VERTEX
  8
0
 10
174.68194580078125
 20
1021.103759765625
 42
0.02241675928235054
  0
VERTEX
  8
0
 10
175.7109375
 20
1043.89306640625
 42
0.022449150681495667
  0
VERTEX
  8
0
 10
174.69345092773437
 20
1066.6826171875
 42
0.02266138419508934
  0
VERTEX
  8
0
 10
171.62901306152344
 20
1089.285888671875
 42
-0
  0
SEQEND
  0
POLYLINE
  8
0
 10
0
 20
0
 39
0
 70
1
 66
1
  0
VERTEX
  8
0
 10
118.63873291015625
 20
1045.9913330078125
 42
-0
  0
VERTEX
  8
0
 10
145.31234741210937
 20
1061.373291015625
 42
-0
  0
VERTEX
  8
0
 10
148.91015625
 20
1059.298095703125
 42
-0
  0
VERTEX
  8
0
 10
148.90284729003906
 20
1028.5006103515625
 42
-0
  0
VERTEX
  8
0
 10
145.30403137207031
 20
1026.427001953125
 42
-0
  0
VERTEX
  8
0
 10
118.63770294189453
 20
1041.821533203125
 42
-0
  0
SEQEND
  0
POLYLINE
  8
0
 10
0
 20
0
 39
0
 70
1
 66
1
  0
VERTEX
  8
0
 10
247.19398498535156
 20
338.84597778320312
 42
0.015384012833237648
  0
VERTEX
  8
0
 10
222.25569152832031
 20
331.48275756835937
 42
0.0191365797072649
  0
VERTEX
  8
0
 10
191.79473876953125
 20
320.15081787109375
 42
0.019108468666672707
  0
VERTEX
  8
0
 10
162.2882080078125
 20
306.52584838867188
 42
0.007651415653526783
  0
VERTEX
  8
0
 10
150.79202270507812
 20
300.451171875
 42
-0
  0
VERTEX
  8
0
 10
150.78846740722656
 20
285.61343383789062
 42
0.01902422308921814
  0
VERTEX
  8
0
 10
179.86000061035156
 20
271.08444213867187
 42
0.019087811931967735
  0
VERTEX
  8
0
 10
209.9532470703125
 20
258.80960083007812
 42
0.019247783347964287
  0
VERTEX
  8
0
 10
240.89662170410156
 20
248.87251281738281
 42
-0
  0
VERTEX
  8
0
 10
247.17237854003906
 20
247.17308044433594
 42
-0
  0
VERTEX
  8
0
 10
247.9344482421875
 20
247.61741638183594
 42
0.022583933547139168
  0
VERTEX
  8
0
 10
251.00886535644531
 20
270.21914672851562
 42
0.02241675928235054
  0
VERTEX
  8
0
 10
252.03785705566406
 20
293.00845336914062
 42
0.022449150681495667
  0
VERTEX
  8
0
 10
251.0203857421875
 20
315.79800415039062
 42
0.02266138419508934
  0
VERTEX
  8
0
 10
247.9559326171875
 20
338.4012451171875
 42
-0
  0
SEQEND
  0
POLYLINE
  8
0
 10
0
 20
0
 39
0
 70
1
 66
1
  0
VERTEX
  8
0
 10
194.96565246582031
 20
295.10675048828125
 42
-0
  0
VERTEX
  8
0
 10
221.6392822265625
 20
310.4886474609375
 42
-0
  0
VERTEX
  8
0
 10
225.23707580566406
 20
308.4134521484375
 42
-0
  0
VERTEX
  8
0
 10
225.22976684570312
 20
277.61602783203125
 42
-0
  0
VERTEX
  8
0
 10
221.63096618652344
 20
275.54241943359375
 42
-0
  0
VERTEX
  8
0
 10
194.96463012695312
 20
290.93692016601562
 42
-0
  0
SEQEND
  0
POLYLINE
  8
0
 10
0
 20
0
 39
0
 70
1
 66
1
  0
VERTEX
  8
0
 10
247.19398498535156
 20
810.53826904296875
 42
0.015384012833237648
  0
VERTEX
  8
0
 10
222.25569152832031
 20
803.175048828125
 42
0.0191365797072649
  0
VERTEX
  8
0
 10
191.79473876953125
 20
791.8431396484375
 42
0.019108468666672707
  0
VERTEX
  8
0
 10
162.2882080078125
 20
778.2181396484375
 42
0.007651415653526783
  0
VERTEX
  8
0
 10
150.79202270507812
 20
772.14349365234375
 42
-0
  0
VERTEX
  8
0
 10
150.78846740722656
 20
757.30572509765625
 42
0.01902422308921814
  0
VERTEX
  8
0
 10
179.86000061035156
 20
742.7767333984375
 42
0.019087811931967735
  0
VERTEX
  8
0
 10
209.9532470703125
 20
730.50189208984375
 42
0.019247783347964287
  0
VERTEX
  8
0
 10
240.89662170410156
 20
720.5648193359375
 42
-0
  0
VERTEX
  8
0
 10
247.17237854003906
 20
718.8653564453125
 42
-0
  0
VERTEX
  8
0
 10
247.9344482421875
 20
719.30975341796875
 42
0.022583933547139168
  0
VERTEX
  8
0
 10
251.00886535644531
 20
741.91143798828125
 42
0.02241675928235054
  0
VERTEX
  8
0
 10
252.03785705566406
 20
764.70074462890625
 42
0.022449150681495667
  0
VERTEX
  8
0
 10
251.0203857421875
 20
787.49029541015625
 42
0.02266138419508934
  0
VERTEX
  8
0
 10
247.9559326171875
 20
810.09356689453125
 42
-0
  0
SEQEND
  0
POLYLINE
  8
0
 10
0
 20
0
 39
0
 70
1
 66
1
  0
VERTEX
  8
0
 10
194.96565246582031
 20
766.799072265625
 42
-0
  0
VERTEX
  8
0
 10
221.6392822265625
 20
782.18096923828125
 42
-0
  0
VERTEX
  8
0
 10
225.23707580566406
 20
780.10577392578125
 42
-0
  0
VERTEX
  8
0
 10
225.22976684570312
 20
749.308349609375
 42
-0
  0
VERTEX
  8
0
 10
221.63096618652344
 20
747.2347412109375
 42
-0
  0
VERTEX
  8
0
 10
194.96463012695312
 20
762.62921142578125
 42
-0
  0
SEQEND
  0
POLYLINE
  8
0
 10
0
 20
0
 39
0
 70
1
 66
1
  0
VERTEX
  8
0
 10
186.59616088867187
 20
1084.905517578125
 42
0.015384012833237648
  0
VERTEX
  8
0
 10
193.95936584472656
 20
1059.9671630859375
 42
0.0191365797072649
  0
VERTEX
  8
0
 10
205.29130554199219
 20
1029.5062255859375
 42
0.019108468666672707
  0
VERTEX
  8
0
 10
218.91627502441406
 20
999.999755859375
 42
0.007651415653526783
  0
VERTEX
  8
0
 10
224.990966796875
 20
988.5035400390625
 42
-0
  0
VERTEX
  8
0
 10
239.82870483398437
 20
988.5
 42
0.01902422308921814
  0
VERTEX
  8
0
 10
254.35769653320313
 20
1017.571533203125
 42
0.019087811931967735
  0
VERTEX
  8
0
 10
266.63253784179687
 20
1047.664794921875
 42
0.019247783347964287
  0
VERTEX
  8
0
 10
276.56961059570312
 20
1078.608154296875
 42
-0
  0
VERTEX
  8
0
 10
278.26904296875
 20
1084.8839111328125
 42
-0
  0
VERTEX
  8
0
 10
277.82470703125
 20
1085.64599609375
 42
0.022583933547139168
  0
VERTEX
  8
0
 10
255.22297668457031
 20
1088.720458984375
 42
0.02241675928235054
  0
VERTEX
  8
0
 10
232.43367004394531
 20
1089.7493896484375
 42
0.022449150681495667
  0
VERTEX
  8
0
 10
209.64413452148437
 20
1088.73193359375
 42
0.02266138419508934
  0
VERTEX
  8
0
 10
187.0408935546875
 20
1085.66748046875
 42
-0
  0
SEQEND
  0
POLYLINE
  8
0
 10
0
 20
0
 39
0
 70
1
 66
1
  0
VERTEX
  8
0
 10
230.33538818359375
 20
1032.67724609375
 42
-0
  0
VERTEX
  8
0
 10
214.95347595214844
 20
1059.350830078125
 42
-0
  0
VERTEX
  8
0
 10
217.02867126464844
 20
1062.9486083984375
 42
-0
  0
VERTEX
  8
0
 10
247.82611083984375
 20
1062.9412841796875
 42
-0
  0
VERTEX
  8
0
 10
249.89970397949219
 20
1059.342529296875
 42
-0
  0
VERTEX
  8
0
 10
234.50523376464844
 20
1032.6761474609375
 42
-0
  0
SEQEND
  0
POLYLINE
  8
0
 10
0
 20
0
 39
0
 70
1
 66
1
  0
VERTEX
  8
0
 10
347.7305908203125
 20
983.78619384765625
 42
0.015384012833237648
  0
VERTEX
  8
0
 10
340.36737060546875
 20
1008.7244873046875
 42
0.0191365797072649
  0
VERTEX
  8
0
 10
329.03543090820312
 20
1039.1854248046875
 42
0.019108468666672707
  0
VERTEX
  8
0
 10
315.41046142578125
 20
1068.6920166015625
 42
0.007651415653526783
  0
VERTEX
  8
0
 10
309.33578491210937
 20
1080.1881103515625
 42
-0
  0
VERTEX
  8
0
 10
294.498046875
 20
1080.1917724609375
 42
0.01902422308921814
  0
VERTEX
  8
0
 10
279.96905517578125
 20
1051.1201171875
 42
0.019087811931967735
  0
VERTEX
  8
0
 10
267.6942138671875
 20
1021.0269165039062
 42
0.019247783347964287
  0
VERTEX
  8
0
 10
257.75714111328125
 20
990.08355712890625
 42
-0
  0
VERTEX
  8
0
 10
256.05767822265625
 20
983.80780029296875
 42
-0
  0
VERTEX
  8
0
 10
256.50204467773437
 20
983.04571533203125
 42
0.022583933547139168
  0
VERTEX
  8
0
 10
279.103759765625
 20
979.9713134765625
 42
0.02241675928235054
  0
VERTEX
  8
0
 10
301.89306640625
 20
978.94232177734375
 42
0.022449150681495667
  0
VERTEX
  8
0
 10
324.6826171875
 20
979.95977783203125
 42
0.02266138419508934
  0
VERTEX
  8
0
 10
347.28585815429687
 20
983.02423095703125
 42
-0
  0
SEQEND
  0
POLYLINE
  8
0
 10
0
 20
0
 39
0
 70
1
 66
1
  0
VERTEX
  8
0
 10
303.99136352539062
 20
1036.0145263671875
 42
-0
  0
VERTEX
  8
0
 10
319.373291015625
 20
1009.3408813476562
 42
-0
  0
VERTEX
  8
0
 10
317.29806518554687
 20
1005.7431030273437
 42
-0
  0
VERTEX
  8
0
 10
286.50064086914062
 20
1005.7504272460937
 42
-0
  0
VERTEX
  8
0
 10
284.42703247070312
 20
1009.3492431640625
 42
-0
  0
VERTEX
  8
0
 10
299.821533203125
 20
1036.0155029296875
 42
-0
  0
SEQEND
  0
POLYLINE
  8
0
 10
0
 20
0
 39
0
 70
1
 66
1
  0
VERTEX
  8
0
 10
325.51922607421875
 20
1084.905517578125
 42
0.015384012833237648
  0
VERTEX
  8
0
 10
332.8824462890625
 20
1059.9671630859375
 42
0.0191365797072649
  0
VERTEX
  8
0
 10
344.21438598632812
 20
1029.5062255859375
 42
0.019108468666672707
  0
VERTEX
  8
0
 10
357.83935546875
 20
999.999755859375
 42
0.007651415653526783
  0
VERTEX
  8
0
 10
363.91403198242187
 20
988.5035400390625
 42
-0
  0
VERTEX
  8
0
 10
378.75177001953125
 20
988.5
 42
0.01902422308921814
  0
VERTEX
  8
0
 10
393.28076171875
 20
1017.571533203125
 42
0.019087811931967735
  0
VERTEX
  8
0
 10
405.55563354492187
 20
1047.664794921875
 42
0.019247783347964287
  0
VERTEX
  8
0
 10
415.49270629882812
 20
1078.608154296875
 42
-0
  0
VERTEX
  8
0
 10
417.192138671875
 20
1084.8839111328125
 42
-0
  0
VERTEX
  8
0
 10
416.747802734375
 20
1085.64599609375
 42
0.022583933547139168
  0
VERTEX
  8
0
 10
394.14605712890625
 20
1088.720458984375
 42
0.02241675928235054
  0
VERTEX
  8
0
 10
371.35675048828125
 20
1089.7493896484375
 42
0.022449150681495667
  0
VERTEX
  8
0
 10
348.56719970703125
 20
1088.73193359375
 42
0.02266138419508934
  0
VERTEX
  8
0
 10
325.96395874023437
 20
1085.66748046875
 42
-0
  0
SEQEND
  0
POLYLINE
  8
0
 10
0
 20
0
 39
0
 70
1
 66
1
  0
VERTEX
  8
0
 10
369.25845336914062
 20
1032.67724609375
 42
-0
  0
VERTEX
  8
0
 10
353.87655639648437
 20
1059.350830078125
 42
-0
  0
VERTEX
  8
0
 10
355.95175170898437
 20
1062.9486083984375
 42
-0
  0
VERTEX
  8
0
 10
386.74920654296875
 20
1062.9412841796875
 42
-0
  0
VERTEX
  8
0
 10
388.82278442382812
 20
1059.342529296875
 42
-0
  0
VERTEX
  8
0
 10
373.42831420898437
 20
1032.6761474609375
 42
-0
  0
SEQEND
  0
POLYLINE
  8
0
 10
0
 20
0
 39
0
 70
1
 66
1
  0
VERTEX
  8
0
 10
670.0208740234375
 20
879.32672119140625
 42
0.015384012833237648
  0
VERTEX
  8
0
 10
645.08258056640625
 20
871.9635009765625
 42
0.0191365797072649
  0
VERTEX
  8
0
 10
614.62164306640625
 20
860.631591796875
 42
0.019108468666672707
  0
VERTEX
  8
0
 10
585.1151123046875
 20
847.00665283203125
 42
0.007651415653526783
  0
VERTEX
  8
0
 10
573.61895751953125
 20
840.93194580078125
 42
-0
  0
VERTEX
  8
0
 10
573.6153564453125
 20
826.09417724609375
 42
0.01902422308921814
  0
VERTEX
  8
0
 10
602.68695068359375
 20
811.565185546875
 42
0.019087811931967735
  0
VERTEX
  8
0
 10
632.7801513671875
 20
799.29034423828125
 42
0.019247783347964287
  0
VERTEX
  8
0
 10
663.72357177734375
 20
789.353271484375
 42
-0
  0
VERTEX
  8
0
 10
669.99932861328125
 20
787.65386962890625
 42
-0
  0
VERTEX
  8
0
 10
670.7613525390625
 20
788.09820556640625
 42
0.022583933547139168
  0
VERTEX
  8
0
 10
673.8358154296875
 20
810.69989013671875
 42
0.02241675928235054
  0
VERTEX
  8
0
 10
674.86480712890625
 20
833.4892578125
 42
0.022449150681495667
  0
VERTEX
  8
0
 10
673.8472900390625
 20
856.27874755859375
 42
0.02266138419508934
  0
VERTEX
  8
0
 10
670.7828369140625
 20
878.88201904296875
 42
-0
  0
SEQEND
  0
POLYLINE
  8
0
 10
0
 20
0
 39
0
 70
1
 66
1
  0
VERTEX
  8
0
 10
617.7926025390625
 20
835.5875244140625
 42
-0
  0
VERTEX
  8
0
 10
644.4661865234375
 20
850.96942138671875
 42
-0
  0
VERTEX
  8
0
 10
648.06402587890625
 20
848.89422607421875
 42
-0
  0
VERTEX
  8
0
 10
648.05670166015625
 20
818.0968017578125
 42
-0
  0
VERTEX
  8
0
 10
644.4578857421875
 20
816.023193359375
 42
-0
  0
VERTEX
  8
0
 10
617.79156494140625
 20
831.41766357421875
 42
-0
  0
SEQEND
  0
POLYLINE
  8
0
 10
0
 20
0
 39
0
 70
1
 66
1
  0
VERTEX
  8
0
 10
670.96319580078125
 20
338.84597778320312
 42
0.015384012833237648
  0
VERTEX
  8
0
 10
646.02490234375
 20
331.48275756835937
 42
0.0191365797072649
  0
VERTEX
  8
0
 10
615.56396484375
 20
320.15081787109375
 42
0.019108468666672707
  0
VERTEX
  8
0
 10
586.05743408203125
 20
306.52584838867188
 42
0.007651415653526783
  0
VERTEX
  8
0
 10
574.561279296875
 20
300.451171875
 42
-0
  0
VERTEX
  8
0
 10
574.55767822265625
 20
285.61343383789062
 42
0.01902422308921814
  0
VERTEX
  8
0
 10
603.62921142578125
 20
271.08444213867187
 42
0.019087811931967735
  0
VERTEX
  8
0
 10
633.72247314453125
 20
258.80960083007812
 42
0.019247783347964287
  0
VERTEX
  8
0
 10
664.66583251953125
 20
248.87251281738281
 42
-0
  0
VERTEX
  8
0
 10
670.94158935546875
 20
247.17308044433594
 42
-0
  0
VERTEX
  8
0
 10
671.70367431640625
 20
247.61741638183594
 42
0.022583933547139168
  0
VERTEX
  8
0
 10
674.778076171875
 20
270.21914672851562
 42
0.02241675928235054
  0
VERTEX
  8
0
 10
675.80706787109375
 20
293.00845336914062
 42
0.022449150681495667
  0
VERTEX
  8
0
 10
674.78961181640625
 20
315.79800415039062
 42
0.02266138419508934
  0
VERTEX
  8
0
 10
671.72515869140625
 20
338.4012451171875
 42
-0
  0
SEQEND
  0
POLYLINE
  8
0
 10
0
 20
0
 39
0
 70
1
 66
1
  0
VERTEX
  8
0
 10
618.73486328125
 20
295.10675048828125
 42
-0
  0
VERTEX
  8
0
 10
645.40850830078125
 20
310.4886474609375
 42
-0
  0
VERTEX
  8
0
 10
649.00628662109375
 20
308.4134521484375
 42
-0
  0
VERTEX
  8
0
 10
648.9990234375
 20
277.61602783203125
 42
-0
  0
VERTEX
  8
0
 10
645.40020751953125
 20
275.54241943359375
 42
-0
  0
VERTEX
  8
0
 10
618.73388671875
 20
290.93692016601562
 42
-0
  0
SEQEND
  0
POLYLINE
  8
0
 10
0
 20
0
 39
0
 70
1
 66
1
  0
VERTEX
  8
0
 10
1092.982421875
 20
877.3074951171875
 42
0.015384012833237648
  0
VERTEX
  8
0
 10
1068.044189453125
 20
869.94427490234375
 42
0.0191365797072649
  0
VERTEX
  8
0
 10
1037.583251953125
 20
858.61236572265625
 42
0.019108468666672707
  0
VERTEX
  8
0
 10
1008.07666015625
 20
844.9874267578125
 42
0.007651415653526783
  0
VERTEX
  8
0
 10
996.58050537109375
 20
838.9127197265625
 42
-0
  0
VERTEX
  8
0
 10
996.576904296875
 20
824.074951171875
 42
0.01902422308921814
  0
VERTEX
  8
0
 10
1025.6484375
 20
809.54595947265625
 42
0.019087811931967735
  0
VERTEX
  8
0
 10
1055.74169921875
 20
797.2711181640625
 42
0.019247783347964287
  0
VERTEX
  8
0
 10
1086.68505859375
 20
787.33404541015625
 42
-0
  0
VERTEX
  8
0
 10
1092.9608154296875
 20
785.6346435546875
 42
-0
  0
VERTEX
  8
0
 10
1093.722900390625
 20
786.0789794921875
 42
0.022583933547139168
  0
VERTEX
  8
0
 10
1096.79736328125
 20
808.6806640625
 42
0.02241675928235054
  0
VERTEX
  8
0
 10
1097.8262939453125
 20
831.469970703125
 42
0.022449150681495667
  0
VERTEX
  8
0
 10
1096.808837890625
 20
854.259521484375
 42
0.02266138419508934
  0
VERTEX
  8
0
 10
1093.744384765625
 20
876.86279296875
 42
-0
  0
SEQEND
  0
POLYLINE
  8
0
 10
0
 20
0
 39
0
 70
1
 66
1
  0
VERTEX
  8
0
 10
1040.754150390625
 20
833.56829833984375
 42
-0
  0
VERTEX
  8
0
 10
1067.427734375
 20
848.9501953125
 42
-0
  0
VERTEX
  8
0
 10
1071.0255126953125
 20
846.875
 42
-0
  0
VERTEX
  8
0
 10
1071.0181884765625
 20
816.07757568359375
 42
-0
  0
VERTEX
  8
0
 10
1067.41943359375
 20
814.00396728515625
 42
-0
  0
VERTEX
  8
0
 10
1040.7530517578125
 20
829.3984375
 42
-0
  0
SEQEND
  0
POLYLINE
  8
0
 10
0
 20
0
 39
0
 70
1
 66
1
  0
VERTEX
  8
0
 10
1093.9248046875
 20
338.84597778320312
 42
0.015384012833237648
  0
VERTEX
  8
0
 10
1068.9864501953125
 20
331.48275756835937
 42
0.0191365797072649
  0
VERTEX
  8
0
 10
1038.5255126953125
 20
320.15081787109375
 42
0.019108468666672707
  0
VERTEX
  8
0
 10
1009.0189819335937
 20
306.52584838867188
 42
0.007651415653526783
  0
VERTEX
  8
0
 10
997.52276611328125
 20
300.451171875
 42
-0
  0
VERTEX
  8
0
 10
997.51922607421875
 20
285.61343383789062
 42
0.01902422308921814
  0
VERTEX
  8
0
 10
1026.5908203125
 20
271.08444213867187
 42
0.019087811931967735
  0
VERTEX
  8
0
 10
1056.6839599609375
 20
258.80960083007812
 42
0.019247783347964287
  0
VERTEX
  8
0
 10
1087.62744140625
 20
248.87251281738281
 42
-0
  0
VERTEX
  8
0
 10
1093.9031982421875
 20
247.17308044433594
 42
-0
  0
VERTEX
  8
0
 10
1094.6651611328125
 20
247.61741638183594
 42
0.022583933547139168
  0
VERTEX
  8
0
 10
1097.7396240234375
 20
270.21914672851562
 42
0.02241675928235054
  0
VERTEX
  8
0
 10
1098.7686767578125
 20
293.00845336914062
 42
0.022449150681495667
  0
VERTEX
  8
0
 10
1097.7510986328125
 20
315.79800415039062
 42
0.02266138419508934
  0
VERTEX
  8
0
 10
1094.6866455078125
 20
338.4012451171875
 42
-0
  0
SEQEND
  0
POLYLINE
  8
0
 10
0
 20
0
 39
0
 70
1
 66
1
  0
VERTEX
  8
0
 10
1041.6964111328125
 20
295.10675048828125
 42
-0
  0
VERTEX
  8
0
 10
1068.3699951171875
 20
310.4886474609375
 42
-0
  0
VERTEX
  8
0
 10
1071.9678955078125
 20
308.4134521484375
 42
-0
  0
VERTEX
  8
0
 10
1071.9605712890625
 20
277.61602783203125
 42
-0
  0
VERTEX
  8
0
 10
1068.3616943359375
 20
275.54241943359375
 42
-0
  0
VERTEX
  8
0
 10
1041.6954345703125
 20
290.93692016601562
 42
-0
  0
SEQEND
  0
POLYLINE
  8
0
 10
0
 20
0
 39
0
 70
1
 66
1
  0
VERTEX
  8
0
 10
1515.9439697265625
 20
875.28826904296875
 42
0.015384012833237648
  0
VERTEX
  8
0
 10
1491.0057373046875
 20
867.925048828125
 42
0.0191365797072649
  0
VERTEX
  8
0
 10
1460.5447998046875
 20
856.5931396484375
 42
0.019108468666672707
  0
VERTEX
  8
0
 10
1431.0382080078125
 20
842.9681396484375
 42
0.007651415653526783
  0
VERTEX
  8
0
 10
1419.5419921875
 20
836.89349365234375
 42
-0
  0
VERTEX
  8
0
 10
1419.5384521484375
 20
822.05572509765625
 42
0.01902422308921814
  0
VERTEX
  8
0
 10
1448.6099853515625
 20
807.5267333984375
 42
0.019087811931967735
  0
VERTEX
  8
0
 10
1478.7032470703125
 20
795.25189208984375
 42
0.019247783347964287
  0
VERTEX
  8
0
 10
1509.6466064453125
 20
785.3148193359375
 42
-0
  0
VERTEX
  8
0
 10
1515.92236328125
 20
783.6153564453125
 42
-0
  0
VERTEX
  8
0
 10
1516.6844482421875
 20
784.05975341796875
 42
0.022583933547139168
  0
VERTEX
  8
0
 10
1519.7589111328125
 20
806.66143798828125
 42
0.02241675928235054
  0
VERTEX
  8
0
 10
1520.787841796875
 20
829.45074462890625
 42
0.022449150681495667
  0
VERTEX
  8
0
 10
1519.7703857421875
 20
852.24029541015625
 42
0.02266138419508934
  0
VERTEX
  8
0
 10
1516.7059326171875
 20
874.84356689453125
 42
-0
  0
SEQEND
  0
POLYLINE
  8
0
 10
0
 20
0
 39
0
 70
1
 66
1
  0
VERTEX
  8
0
 10
1463.7156982421875
 20
831.549072265625
 42
-0
  0
VERTEX
  8
0
 10
1490.3892822265625
 20
846.93096923828125
 42
-0
  0
VERTEX
  8
0
 10
1493.987060546875
 20
844.85577392578125
 42
-0
  0
VERTEX
  8
0
 10
1493.979736328125
 20
814.058349609375
 42
-0
  0
VERTEX
  8
0
 10
1490.3809814453125
 20
811.9847412109375
 42
-0
  0
VERTEX
  8
0
 10
1463.714599609375
 20
827.37921142578125
 42
-0
  0
SEQEND
  0
POLYLINE
  8
0
 10
0
 20
0
 39
0
 70
1
 66
1
  0
VERTEX
  8
0
 10
1516.88623046875
 20
338.84597778320312
 42
0.015384012833237648
  0
VERTEX
  8
0
 10
1491.947998046875
 20
331.48275756835937
 42
0.0191365797072649
  0
VERTEX
  8
0
 10
1461.487060546875
 20
320.15081787109375
 42
0.019108468666672707
  0
VERTEX
  8
0
 10
1431.98046875
 20
306.52584838867188
 42
0.007651415653526783
  0
VERTEX
  8
0
 10
1420.484375
 20
300.451171875
 42
-0
  0
VERTEX
  8
0
 10
1420.480712890625
 20
285.61343383789062
 42
0.01902422308921814
  0
VERTEX
  8
0
 10
1449.5523681640625
 20
271.08444213867187
 42
0.019087811931967735
  0
VERTEX
  8
0
 10
1479.6455078125
 20
258.80960083007812
 42
0.019247783347964287
  0
VERTEX
  8
0
 10
1510.5889892578125
 20
248.87251281738281
 42
-0
  0
VERTEX
  8
0
 10
1516.8646240234375
 20
247.17308044433594
 42
-0
  0
VERTEX
  8
0
 10
1517.626708984375
 20
247.61741638183594
 42
0.022583933547139168
  0
VERTEX
  8
0
 10
1520.701171875
 20
270.21914672851562
 42
0.02241675928235054
  0
VERTEX
  8
0
 10
1521.730224609375
 20
293.00845336914062
 42
0.022449150681495667
  0
VERTEX
  8
0
 10
1520.712646484375
 20
315.79800415039062
 42
0.02266138419508934
  0
VERTEX
  8
0
 10
1517.648193359375
 20
338.4012451171875
 42
-0
  0
SEQEND
  0
POLYLINE
  8
0
 10
0
 20
0
 39
0
 70
1
 66
1
  0
VERTEX
  8
0
 10
1464.657958984375
 20
295.10675048828125
 42
-0
  0
VERTEX
  8
0
 10
1491.33154296875
 20
310.4886474609375
 42
-0
  0
VERTEX
  8
0
 10
1494.929443359375
 20
308.4134521484375
 42
-0
  0
VERTEX
  8
0
 10
1494.922119140625
 20
277.61602783203125
 42
-0
  0
VERTEX
  8
0
 10
1491.3232421875
 20
275.54241943359375
 42
-0
  0
VERTEX
  8
0
 10
1464.656982421875
 20
290.93692016601562
 42
-0
  0
SEQEND
  0
POLYLINE
  8
0
 10
0
 20
0
 39
0
 70
1
 66
1
  0
VERTEX
  8
0
 10
1693.6346435546875
 20
1049.75
 42
-0
  0
VERTEX
  8
0
 10
1693.6346435546875
 20
1089.75
 42
-0
  0
VERTEX
  8
0
 10
1513.6346435546875
 20
1089.75
 42
-0
  0
VERTEX
  8
0
 10
1513.6346435546875
 20
1049.75
 42
0
  0
SEQEND
  0
POLYLINE
  8
0
 10
0
 20
0
 39
0
 70
1
 66
1
  0
VERTEX
  8
0
 10
1615.6346435546875
 20
1069.75
 42
-1
  0
VERTEX
  8
0
 10
1591.6346435546875
 20
1069.75
 42
-1
  0
SEQEND
  0
POLYLINE
  8
0
 10
0
 20
0
 39
0
 70
1
 66
1
  0
VERTEX
  8
0
 10
70.25
 20
10.25
 42
1
  0
VERTEX
  8
0
 10
70.25
 20
50.25
 42
0
  0
VERTEX
  8
0
 10
10.25
 20
50.25
 42
0
  0
VERTEX
  8
0
 10
10.25
 20
10.25
 42
0
  0
SEQEND
  0
POLYLINE
  8
0
 10
0
 20
0
 39
0
 70
1
 66
1
  0
VERTEX
  8
0
 10
70.25
 20
22.25
 42
-1
  0
VERTEX
  8
0
 10
70.25
 20
38.25
 42
-1
  0
SEQEND
  0
POLYLINE
  8
0
 10
0
 20
0
 39
0
 70
1
 66
1
  0
VERTEX
  8
0
 10
453.88461303710937
 20
591.5384521484375
 42
1
  0
VERTEX
  8
0
 10
453.88461303710937
 20
551.5384521484375
 42
0
  0
VERTEX
  8
0
 10
513.8846435546875
 20
551.5384521484375
 42
0
  0
VERTEX
  8
0
 10
513.8846435546875
 20
591.5384521484375
 42
0
  0
SEQEND
  0
POLYLINE
  8
0
 10
0
 20
0
 39
0
 70
1
 66
1
  0
VERTEX
  8
0
 10
453.88461303710937
 20
579.5384521484375
 42
-1
  0
VERTEX
  8
0
 10
453.88461303710937
 20
563.5384521484375
 42
-1
  0
SEQEND
  0
POLYLINE
  8
0
 10
0
 20
0
 39
0
 70
1
 66
1
  0
VERTEX
  8
0
 10
494.01922607421875
 20
10.25
 42
1
  0
VERTEX
  8
0
 10
494.01922607421875
 20
50.25
 42
0
  0
VERTEX
  8
0
 10
434.01922607421875
 20
50.25
 42
0
  0
VERTEX
  8
0
 10
434.01922607421875
 20
10.25
 42
0
  0
SEQEND
  0
POLYLINE
  8
0
 10
0
 20
0
 39
0
 70
1
 66
1
  0
VERTEX
  8
0
 10
494.01922607421875
 20
22.25
 42
-1
  0
VERTEX
  8
0
 10
494.01922607421875
 20
38.25
 42
-1
  0
SEQEND
  0
POLYLINE
  8
0
 10
0
 20
0
 39
0
 70
1
 66
1
  0
VERTEX
  8
0
 10
544.076904296875
 20
575.65386962890625
 42
1
  0
VERTEX
  8
0
 10
544.076904296875
 20
535.65386962890625
 42
0
  0
VERTEX
  8
0
 10
604.076904296875
 20
535.65386962890625
 42
0
  0
VERTEX
  8
0
 10
604.076904296875
 20
575.65386962890625
 42
0
  0
SEQEND
  0
POLYLINE
  8
0
 10
0
 20
0
 39
0
 70
1
 66
1
  0
VERTEX
  8
0
 10
544.076904296875
 20
563.65386962890625
 42
-1
  0
VERTEX
  8
0
 10
544.076904296875
 20
547.65386962890625
 42
-1
  0
SEQEND
  0
POLYLINE
  8
0
 10
0
 20
0
 39
0
 70
1
 66
1
  0
VERTEX
  8
0
 10
634.26922607421875
 20
559.76922607421875
 42
1
  0
VERTEX
  8
0
 10
634.26922607421875
 20
519.76922607421875
 42
0
  0
VERTEX
  8
0
 10
694.26922607421875
 20
519.76922607421875
 42
0
  0
VERTEX
  8
0
 10
694.26922607421875
 20
559.76922607421875
 42
0
  0
SEQEND
  0
POLYLINE
  8
0
 10
0
 20
0
 39
0
 70
1
 66
1
  0
VERTEX
  8
0
 10
634.26922607421875
 20
547.76922607421875
 42
-1
  0
VERTEX
  8
0
 10
634.26922607421875
 20
531.76922607421875
 42
-1
  0
SEQEND
  0
POLYLINE
  8
0
 10
0
 20
0
 39
0
 70
1
 66
1
  0
VERTEX
  8
0
 10
692.69232177734375
 20
1089.75
 42
1
  0
VERTEX
  8
0
 10
692.69232177734375
 20
1049.75
 42
0
  0
VERTEX
  8
0
 10
752.69232177734375
 20
1049.75
 42
0
  0
VERTEX
  8
0
 10
752.69232177734375
 20
1089.75
 42
0
  0
SEQEND
  0
POLYLINE
  8
0
 10
0
 20
0
 39
0
 70
1
 66
1
  0
VERTEX
  8
0
 10
692.69232177734375
 20
1077.75
 42
-1
  0
VERTEX
  8
0
 10
692.69232177734375
 20
1061.75
 42
-1
  0
SEQEND
  0
POLYLINE
  8
0
 10
0
 20
0
 39
0
 70
1
 66
1
  0
VERTEX
  8
0
 10
724.4615478515625
 20
543.8846435546875
 42
1
  0
VERTEX
  8
0
 10
724.4615478515625
 20
503.88461303710937
 42
0
  0
VERTEX
  8
0
 10
784.4615478515625
 20
503.88461303710937
 42
0
  0
VERTEX
  8
0
 10
784.4615478515625
 20
543.8846435546875
 42
0
  0
SEQEND
  0
POLYLINE
  8
0
 10
0
 20
0
 39
0
 70
1
 66
1
  0
VERTEX
  8
0
 10
724.4615478515625
 20
531.8846435546875
 42
-1
  0
VERTEX
  8
0
 10
724.4615478515625
 20
515.8846435546875
 42
-1
  0
SEQEND
  0
POLYLINE
  8
0
 10
0
 20
0
 39
0
 70
1
 66
1
  0
VERTEX
  8
0
 10
782.8846435546875
 20
1073.8653564453125
 42
1
  0
VERTEX
  8
0
 10
782.8846435546875
 20
1033.8653564453125
 42
0
  0
VERTEX
  8
0
 10
842.8846435546875
 20
1033.8653564453125
 42
0
  0
VERTEX
  8
0
 10
842.8846435546875
 20
1073.8653564453125
 42
0
  0
SEQEND
  0
POLYLINE
  8
0
 10
0
 20
0
 39
0
 70
1
 66
1
  0
VERTEX
  8
0
 10
782.8846435546875
 20
1061.8653564453125
 42
-1
  0
VERTEX
  8
0
 10
782.8846435546875
 20
1045.8653564453125
 42
-1
  0
SEQEND
  0
POLYLINE
  8
0
 10
0
 20
0
 39
0
 70
1
 66
1
  0
VERTEX
  8
0
 10
876.84613037109375
 20
591.5384521484375
 42
1
  0
VERTEX
  8
0
 10
876.84613037109375
 20
551.5384521484375
 42
0
  0
VERTEX
  8
0
 10
936.84613037109375
 20
551.5384521484375
 42
0
  0
VERTEX
  8
0
 10
936.84613037109375
 20
591.5384521484375
 42
0
  0
SEQEND
  0
POLYLINE
  8
0
 10
0
 20
0
 39
0
 70
1
 66
1
  0
VERTEX
  8
0
 10
876.84613037109375
 20
579.5384521484375
 42
-1
  0
VERTEX
  8
0
 10
876.84613037109375
 20
563.5384521484375
 42
-1
  0
SEQEND
  0
POLYLINE
  8
0
 10
0
 20
0
 39
0
 70
1
 66
1
  0
VERTEX
  8
0
 10
917.7884521484375
 20
10.25
 42
1
  0
VERTEX
  8
0
 10
917.7884521484375
 20
50.25
 42
0
  0
VERTEX
  8
0
 10
857.7884521484375
 20
50.25
 42
0
  0
VERTEX
  8
0
 10
857.7884521484375
 20
10.25
 42
0
  0
SEQEND
  0
POLYLINE
  8
0
 10
0
 20
0
 39
0
 70
1
 66
1
  0
VERTEX
  8
0
 10
917.7884521484375
 20
22.25
 42
-1
  0
VERTEX
  8
0
 10
917.7884521484375
 20
38.25
 42
-1
  0
SEQEND
  0
POLYLINE
  8
0
 10
0
 20
0
 39
0
 70
1
 66
1
  0
VERTEX
  8
0
 10
967.0384521484375
 20
575.65386962890625
 42
1
  0
VERTEX
  8
0
 10
967.0384521484375
 20
535.65386962890625
 42
0
  0
VERTEX
  8
0
 10
1027.0384521484375
 20
535.65386962890625
 42
0
  0
VERTEX
  8
0
 10
1027.0384521484375
 20
575.65386962890625
 42
0
  0
SEQEND
  0
POLYLINE
  8
0
 10
0
 20
0
 39
0
 70
1
 66
1
  0
VERTEX
  8
0
 10
967.0384521484375
 20
563.65386962890625
 42
-1
  0
VERTEX
  8
0
 10
967.0384521484375
 20
547.65386962890625
 42
-1
  0
SEQEND
  0
POLYLINE
  8
0
 10
0
 20
0
 39
0
 70
1
 66
1
  0
VERTEX
  8
0
 10
1057.230712890625
 20
559.76922607421875
 42
1
  0
VERTEX
  8
0
 10
1057.230712890625
 20
519.76922607421875
 42
0
  0
VERTEX
  8
0
 10
1117.230712890625
 20
519.76922607421875
 42
0
  0
VERTEX
  8
0
 10
1117.230712890625
 20
559.76922607421875
 42
0
  0
SEQEND
  0
POLYLINE
  8
0
 10
0
 20
0
 39
0
 70
1
 66
1
  0
VERTEX
  8
0
 10
1057.230712890625
 20
547.76922607421875
 42
-1
  0
VERTEX
  8
0
 10
1057.230712890625
 20
531.76922607421875
 42
-1
  0
SEQEND
  0
POLYLINE
  8
0
 10
0
 20
0
 39
0
 70
1
 66
1
  0
VERTEX
  8
0
 10
1104.076904296875
 20
1089.75
 42
1
  0
VERTEX
  8
0
 10
1104.076904296875
 20
1049.75
 42
0
  0
VERTEX
  8
0
 10
1164.076904296875
 20
1049.75
 42
0
  0
VERTEX
  8
0
 10
1164.076904296875
 20
1089.75
 42
0
  0
SEQEND
  0
POLYLINE
  8
0
 10
0
 20
0
 39
0
 70
1
 66
1
  0
VERTEX
  8
0
 10
1104.076904296875
 20
1077.75
 42
-1
  0
VERTEX
  8
0
 10
1104.076904296875
 20
1061.75
 42
-1
  0
SEQEND
  0
POLYLINE
  8
0
 10
0
 20
0
 39
0
 70
1
 66
1
  0
VERTEX
  8
0
 10
1147.423095703125
 20
543.8846435546875
 42
1
  0
VERTEX
  8
0
 10
1147.423095703125
 20
503.88461303710937
 42
0
  0
VERTEX
  8
0
 10
1207.423095703125
 20
503.88461303710937
 42
0
  0
VERTEX
  8
0
 10
1207.423095703125
 20
543.8846435546875
 42
0
  0
SEQEND
  0
POLYLINE
  8
0
 10
0
 20
0
 39
0
 70
1
 66
1
  0
VERTEX
  8
0
 10
1147.423095703125
 20
531.8846435546875
 42
-1
  0
VERTEX
  8
0
 10
1147.423095703125
 20
515.8846435546875
 42
-1
  0
SEQEND
  0
POLYLINE
  8
0
 10
0
 20
0
 39
0
 70
1
 66
1
  0
VERTEX
  8
0
 10
1194.269287109375
 20
1073.8653564453125
 42
1
  0
VERTEX
  8
0
 10
1194.269287109375
 20
1033.8653564453125
 42
0
  0
VERTEX
  8
0
 10
1254.269287109375
 20
1033.8653564453125
 42
0
  0
VERTEX
  8
0
 10
1254.269287109375
 20
1073.8653564453125
 42
0
  0
SEQEND
  0
POLYLINE
  8
0
 10
0
 20
0
 39
0
 70
1
 66
1
  0
VERTEX
  8
0
 10
1194.269287109375
 20
1061.8653564453125
 42
-1
  0
VERTEX
  8
0
 10
1194.269287109375
 20
1045.8653564453125
 42
-1
  0
SEQEND
  0
POLYLINE
  8
0
 10
0
 20
0
 39
0
 70
1
 66
1
  0
VERTEX
  8
0
 10
1299.8077392578125
 20
591.5384521484375
 42
1
  0
VERTEX
  8
0
 10
1299.8077392578125
 20
551.5384521484375
 42
0
  0
VERTEX
  8
0
 10
1359.8077392578125
 20
551.5384521484375
 42
0
  0
VERTEX
  8
0
 10
1359.8077392578125
 20
591.5384521484375
 42
0
  0
SEQEND
  0
POLYLINE
  8
0
 10
0
 20
0
 39
0
 70
1
 66
1
  0
VERTEX
  8
0
 10
1299.8077392578125
 20
579.5384521484375
 42
-1
  0
VERTEX
  8
0
 10
1299.8077392578125
 20
563.5384521484375
 42
-1
  0
SEQEND
  0
POLYLINE
  8
0
 10
0
 20
0
 39
0
 70
1
 66
1
  0
VERTEX
  8
0
 10
1340.75
 20
10.25
 42
1
  0
VERTEX
  8
0
 10
1340.75
 20
50.25
 42
0
  0
VERTEX
  8
0
 10
1280.75
 20
50.25
 42
0
  0
VERTEX
  8
0
 10
1280.75
 20
10.25
 42
0
  0
SEQEND
  0
POLYLINE
  8
0
 10
0
 20
0
 39
0
 70
1
 66
1
  0
VERTEX
  8
0
 10
1340.75
 20
22.25
 42
-1
  0
VERTEX
  8
0
 10
1340.75
 20
38.25
 42
-1
  0
SEQEND
  0
POLYLINE
  8
0
 10
0
 20
0
 39
0
 70
1
 66
1
  0
VERTEX
  8
0
 10
1390
 20
575.65386962890625
 42
1
  0
VERTEX
  8
0
 10
1390
 20
535.65386962890625
 42
0
  0
VERTEX
  8
0
 10
1450
 20
535.65386962890625
 42
0
  0
VERTEX
  8
0
 10
1450
 20
575.65386962890625
 42
0
  0
SEQEND
  0
POLYLINE
  8
0
 10
0
 20
0
 39
0
 70
1
 66
1
  0
VERTEX
  8
0
 10
1390
 20
563.65386962890625
 42
-1
  0
VERTEX
  8
0
 10
1390
 20
547.65386962890625
 42
-1
  0
SEQEND
  0
POLYLINE
  8
0
 10
0
 20
0
 39
0
 70
1
 66
1
  0
VERTEX
  8
0
 10
1480.1922607421875
 20
559.76922607421875
 42
1
  0
VERTEX
  8
0
 10
1480.1922607421875
 20
519.76922607421875
 42
0
  0
VERTEX
  8
0
 10
1540.1922607421875
 20
519.76922607421875
 42
0
  0
VERTEX
  8
0
 10
1540.1922607421875
 20
559.76922607421875
 42
0
  0
SEQEND
  0
POLYLINE
  8
0
 10
0
 20
0
 39
0
 70
1
 66
1
  0
VERTEX
  8
0
 10
1480.1922607421875
 20
547.76922607421875
 42
-1
  0
VERTEX
  8
0
 10
1480.1922607421875
 20
531.76922607421875
 42
-1
  0
SEQEND
  0
POLYLINE
  8
0
 10
0
 20
0
 39
0
 70
1
 66
1
  0
VERTEX
  8
0
 10
1570.3846435546875
 20
543.8846435546875
 42
1
  0
VERTEX
  8
0
 10
1570.3846435546875
 20
503.88461303710937
 42
0
  0
VERTEX
  8
0
 10
1630.3846435546875
 20
503.88461303710937
 42
0
  0
VERTEX
  8
0
 10
1630.3846435546875
 20
543.8846435546875
 42
0
  0
SEQEND
  0
POLYLINE
  8
0
 10
0
 20
0
 39
0
 70
1
 66
1
  0
VERTEX
  8
0
 10
1570.3846435546875
 20
531.8846435546875
 42
-1
  0
VERTEX
  8
0
 10
1570.3846435546875
 20
515.8846435546875
 42
-1
  0
SEQEND
  0
POLYLINE
  8
0
 10
0
 20
0
 39
0
 70
1
 66
1
  0
VERTEX
  8
0
 10
1660.576904296875
 20
528
 42
1
  0
VERTEX
  8
0
 10
1660.576904296875
 20
488
 42
0
  0
VERTEX
  8
0
 10
1720.576904296875
 20
488
 42
0
  0
VERTEX
  8
0
 10
1720.576904296875
 20
528
 42
0
  0
SEQEND
  0
POLYLINE
  8
0
 10
0
 20
0
 39
0
 70
1
 66
1
  0
VERTEX
  8
0
 10
1660.576904296875
 20
516
 42
-1
  0
VERTEX
  8
0
 10
1660.576904296875
 20
500
 42
-1
  0
SEQEND
  0
ENDSEC
  0
EOF
