  0
SECTION
  2
ENTITIES
  0
POLYLINE
  8
0
 10
0
 20
0
 39
0
 70
1
 66
1
  0
VERTEX
  8
0
 10
0
 20
0
 42
-0
  0
VERTEX
  8
0
 10
6000
 20
0
 42
-0
  0
VERTEX
  8
0
 10
6000
 20
1500
 42
-0
  0
VERTEX
  8
0
 10
0
 20
1500
 42
-0
  0
SEQEND
  0
POLYLINE
  8
0
 10
0
 20
0
 39
0
 70
1
 66
1
  0
VERTEX
  8
0
 10
20.050003051757812
 20
480.11163330078125
 42
-0
  0
VERTEX
  8
0
 10
2020.050048828125
 20
480.11163330078125
 42
-0
  0
VERTEX
  8
0
 10
2020.050048828125
 20
530.11163330078125
 42
0.41421398520469666
  0
VERTEX
  8
0
 10
1920.050048828125
 20
630.11163330078125
 42
-0
  0
VERTEX
  8
0
 10
120.05000305175781
 20
630.11163330078125
 42
0.41421398520469666
  0
VERTEX
  8
0
 10
20.050003051757812
 20
530.11163330078125
 42
-0
  0
SEQEND
  0
POLYLINE
  8
0
 10
0
 20
0
 39
0
 70
1
 66
1
  0
VERTEX
  8
0
 10
2231.860107421875
 20
20.049999237060547
 42
-0
  0
VERTEX
  8
0
 10
4231.8603515625
 20
20.049999237060547
 42
-0
  0
VERTEX
  8
0
 10
4231.8603515625
 20
70.050003051757813
 42
0.41421398520469666
  0
VERTEX
  8
0
 10
4131.8603515625
 20
170.05000305175781
 42
-0
  0
VERTEX
  8
0
 10
2331.860107421875
 20
170.05000305175781
 42
0.41421398520469666
  0
VERTEX
  8
0
 10
2231.860107421875
 20
70.050003051757813
 42
-0
  0
SEQEND
  0
POLYLINE
  8
0
 10
0
 20
0
 39
0
 70
1
 66
1
  0
VERTEX
  8
0
 10
20.050003051757812
 20
1160.191650390625
 42
-0
  0
VERTEX
  8
0
 10
2020.050048828125
 20
1160.191650390625
 42
-0
  0
VERTEX
  8
0
 10
2020.050048828125
 20
1210.191650390625
 42
0.41421398520469666
  0
VERTEX
  8
0
 10
1920.050048828125
 20
1310.191650390625
 42
-0
  0
VERTEX
  8
0
 10
120.05000305175781
 20
1310.191650390625
 42
0.41421398520469666
  0
VERTEX
  8
0
 10
20.050003051757812
 20
1210.191650390625
 42
-0
  0
SEQEND
  0
POLYLINE
  8
0
 10
0
 20
0
 39
0
 70
1
 66
1
  0
VERTEX
  8
0
 10
5188.98779296875
 20
1239.3748779296875
 42
0
  0
VERTEX
  8
0
 10
5188.98779296875
 20
1469.3748779296875
 42
0
  0
VERTEX
  8
0
 10
5168.98779296875
 20
1469.3748779296875
 42
0
  0
VERTEX
  8
0
 10
4938.98779296875
 20
1239.3748779296875
 42
0
  0
VERTEX
  8
0
 10
4938.98779296875
 20
1219.3748779296875
 42
0
  0
VERTEX
  8
0
 10
5168.98779296875
 20
1219.3748779296875
 42
0
  0
SEQEND
  0
POLYLINE
  8
0
 10
0
 20
0
 39
0
 70
1
 66
1
  0
VERTEX
  8
0
 10
5068.48779296875
 20
1299.3748779296875
 42
-1
  0
VERTEX
  8
0
 10
5149.48779296875
 20
1299.3748779296875
 42
-1
  0
SEQEND
  0
POLYLINE
  8
0
 10
0
 20
0
 39
0
 70
1
 66
1
  0
VERTEX
  8
0
 10
5855.15673828125
 20
444.97711181640625
 42
-0.21545200049877167
  0
VERTEX
  8
0
 10
5870.1669921875
 20
438.1943359375
 42
0.69136500358581543
  0
VERTEX
  8
0
 10
5983.9501953125
 20
481.1502685546875
 42
-0
  0
VERTEX
  8
0
 10
5983.9501953125
 20
595.40118408203125
 42
0.26967498660087585
  0
VERTEX
  8
0
 10
5978.89453125
 20
604.09344482421875
 42
-0
  0
VERTEX
  8
0
 10
5966.48779296875
 20
611.1502685546875
 42
-0.58165097236633301
  0
VERTEX
  8
0
 10
5601.41259765625
 20
611.1502685546875
 42
-0
  0
VERTEX
  8
0
 10
5589.005859375
 20
604.09344482421875
 42
0.26967498660087585
  0
VERTEX
  8
0
 10
5583.9501953125
 20
595.40118408203125
 42
-0
  0
VERTEX
  8
0
 10
5583.9501953125
 20
481.1502685546875
 42
0.69136500358581543
  0
VERTEX
  8
0
 10
5697.7333984375
 20
438.1943359375
 42
-0.21545200049877167
  0
VERTEX
  8
0
 10
5712.74365234375
 20
444.97711181640625
 42
-0
  0
SEQEND
  0
POLYLINE
  8
0
 10
0
 20
0
 39
0
 70
1
 66
1
  0
VERTEX
  8
0
 10
5597.9501953125
 20
481.1502685546875
 42
-1
  0
VERTEX
  8
0
 10
5699.9501953125
 20
481.1502685546875
 42
-1
  0
SEQEND
  0
POLYLINE
  8
0
 10
0
 20
0
 39
0
 70
1
 66
1
  0
VERTEX
  8
0
 10
5867.9501953125
 20
481.1502685546875
 42
-1
  0
VERTEX
  8
0
 10
5969.9501953125
 20
481.1502685546875
 42
-1
  0
SEQEND
  0
POLYLINE
  8
0
 10
0
 20
0
 39
0
 70
1
 66
1
  0
VERTEX
  8
0
 10
2075.177734375
 20
480.11160278320312
 42
-0
  0
VERTEX
  8
0
 10
2239.177734375
 20
480.11160278320312
 42
-0
  0
VERTEX
  8
0
 10
2239.177734375
 20
755.111572265625
 42
-0
  0
VERTEX
  8
0
 10
2075.177734375
 20
755.111572265625
 42
-0
  0
SEQEND
  0
POLYLINE
  8
0
 10
0
 20
0
 39
0
 70
1
 66
1
  0
VERTEX
  8
0
 10
3226.8466796875
 20
1048.25
 42
-0
  0
VERTEX
  8
0
 10
4176.8466796875
 20
1048.25
 42
-0
  0
VERTEX
  8
0
 10
4176.8466796875
 20
1418.25
 42
-0
  0
VERTEX
  8
0
 10
3226.8466796875
 20
1418.25
 42
-0
  0
SEQEND
  0
POLYLINE
  8
0
 10
0
 20
0
 39
0
 70
1
 66
1
  0
VERTEX
  8
0
 10
4855.259765625
 20
1058.210205078125
 42
-0
  0
VERTEX
  8
0
 10
4855.259765625
 20
1222.210205078125
 42
-0
  0
VERTEX
  8
0
 10
4550.259765625
 20
1222.2099609375
 42
-0
  0
VERTEX
  8
0
 10
4550.259765625
 20
1058.2100830078125
 42
-0
  0
SEQEND
  0
POLYLINE
  8
0
 10
0
 20
0
 39
0
 70
1
 66
1
  0
VERTEX
  8
0
 10
3542.41552734375
 20
416.15005493164063
 42
-0
  0
VERTEX
  8
0
 10
4652.41552734375
 20
416.15005493164063
 42
-0
  0
VERTEX
  8
0
 10
4652.41552734375
 20
716.1500244140625
 42
-0
  0
VERTEX
  8
0
 10
3542.41552734375
 20
716.1500244140625
 42
-0
  0
SEQEND
  0
POLYLINE
  8
0
 10
0
 20
0
 39
0
 70
1
 66
1
  0
VERTEX
  8
0
 10
5221.62451171875
 20
440.9576416015625
 42
-0
  0
VERTEX
  8
0
 10
5401.59326171875
 20
440.9576416015625
 42
-0.19853000342845917
  0
VERTEX
  8
0
 10
5415.71435546875
 20
435.12054443359375
 42
0.66764700412750244
  0
VERTEX
  8
0
 10
5526.60888671875
 20
481.1500244140625
 42
-0
  0
VERTEX
  8
0
 10
5526.60888671875
 20
597.245849609375
 42
0.25516399741172791
  0
VERTEX
  8
0
 10
5522.017578125
 20
605.65692138671875
 42
-0
  0
VERTEX
  8
0
 10
5513.47509765625
 20
611.1500244140625
 42
-0.54586797952651978
  0
VERTEX
  8
0
 10
5109.74267578125
 20
611.1500244140625
 42
-0
  0
VERTEX
  8
0
 10
5101.2001953125
 20
605.65692138671875
 42
0.25516399741172791
  0
VERTEX
  8
0
 10
5096.60888671875
 20
597.245849609375
 42
-0
  0
VERTEX
  8
0
 10
5096.60888671875
 20
481.1500244140625
 42
0.66764700412750244
  0
VERTEX
  8
0
 10
5207.50341796875
 20
435.12054443359375
 42
-0.19853000342845917
  0
SEQEND
  0
POLYLINE
  8
0
 10
0
 20
0
 39
0
 70
1
 66
1
  0
VERTEX
  8
0
 10
5411.10888671875
 20
481.1500244140625
 42
-1
  0
VERTEX
  8
0
 10
5512.10888671875
 20
481.1500244140625
 42
-1
  0
SEQEND
  0
POLYLINE
  8
0
 10
0
 20
0
 39
0
 70
1
 66
1
  0
VERTEX
  8
0
 10
5111.10888671875
 20
481.1500244140625
 42
-1
  0
VERTEX
  8
0
 10
5212.10888671875
 20
481.1500244140625
 42
-1
  0
SEQEND
  0
POLYLINE
  8
0
 10
0
 20
0
 39
0
 70
1
 66
1
  0
VERTEX
  8
0
 10
2892.865478515625
 20
495.110107421875
 42
-0
  0
VERTEX
  8
0
 10
2903.865478515625
 20
495.110107421875
 42
-0.41421398520469666
  0
VERTEX
  8
0
 10
2908.865478515625
 20
490.110107421875
 42
-0
  0
VERTEX
  8
0
 10
2908.865478515625
 20
360.110107421875
 42
-0
  0
VERTEX
  8
0
 10
3187.865478515625
 20
360.110107421875
 42
-0
  0
VERTEX
  8
0
 10
3187.865478515625
 20
490.110107421875
 42
-0.41421398520469666
  0
VERTEX
  8
0
 10
3192.865478515625
 20
495.110107421875
 42
-0
  0
VERTEX
  8
0
 10
3203.865478515625
 20
495.110107421875
 42
-0.41421398520469666
  0
VERTEX
  8
0
 10
3208.865478515625
 20
490.110107421875
 42
-0
  0
VERTEX
  8
0
 10
3208.865478515625
 20
360.110107421875
 42
-0
  0
VERTEX
  8
0
 10
3506.365478515625
 20
360.110107421875
 42
-0
  0
VERTEX
  8
0
 10
3506.365478515625
 20
495.110107421875
 42
-0
  0
VERTEX
  8
0
 10
3526.365478515625
 20
495.110107421875
 42
-0
  0
VERTEX
  8
0
 10
3526.365478515625
 20
635.110107421875
 42
-0
  0
VERTEX
  8
0
 10
2270.365478515625
 20
635.110107421875
 42
-0
  0
VERTEX
  8
0
 10
2270.365478515625
 20
495.110107421875
 42
-0
  0
VERTEX
  8
0
 10
2290.365478515625
 20
495.110107421875
 42
-0
  0
VERTEX
  8
0
 10
2290.365478515625
 20
360.110107421875
 42
-0
  0
VERTEX
  8
0
 10
2587.865478515625
 20
360.110107421875
 42
-0
  0
VERTEX
  8
0
 10
2587.865478515625
 20
490.110107421875
 42
-0.41421398520469666
  0
VERTEX
  8
0
 10
2592.865478515625
 20
495.110107421875
 42
-0
  0
VERTEX
  8
0
 10
2603.865478515625
 20
495.110107421875
 42
-0.41421398520469666
  0
VERTEX
  8
0
 10
2608.865478515625
 20
490.110107421875
 42
-0
  0
VERTEX
  8
0
 10
2608.865478515625
 20
360.110107421875
 42
-0
  0
VERTEX
  8
0
 10
2887.865478515625
 20
360.110107421875
 42
-0
  0
VERTEX
  8
0
 10
2887.865478515625
 20
490.110107421875
 42
-0.41421398520469666
  0
SEQEND
  0
POLYLINE
  8
0
 10
0
 20
0
 39
0
 70
1
 66
1
  0
VERTEX
  8
0
 10
2290.365478515625
 20
655.16009521484375
 42
0
  0
VERTEX
  8
0
 10
2587.865478515625
 20
655.16009521484375
 42
0
  0
VERTEX
  8
0
 10
2587.865478515625
 20
755.16009521484375
 42
-0.41421398520469666
  0
VERTEX
  8
0
 10
2592.865478515625
 20
760.16009521484375
 42
0
  0
VERTEX
  8
0
 10
2603.865478515625
 20
760.16009521484375
 42
-0.41421398520469666
  0
VERTEX
  8
0
 10
2608.865478515625
 20
755.16009521484375
 42
0
  0
VERTEX
  8
0
 10
2608.865478515625
 20
655.16009521484375
 42
0
  0
VERTEX
  8
0
 10
2887.865478515625
 20
655.16009521484375
 42
0
  0
VERTEX
  8
0
 10
2887.865478515625
 20
755.16009521484375
 42
-0.41421398520469666
  0
VERTEX
  8
0
 10
2892.865478515625
 20
760.16009521484375
 42
0
  0
VERTEX
  8
0
 10
2903.865478515625
 20
760.16009521484375
 42
-0.41421398520469666
  0
VERTEX
  8
0
 10
2908.865478515625
 20
755.16009521484375
 42
0
  0
VERTEX
  8
0
 10
2908.865478515625
 20
655.16009521484375
 42
0
  0
VERTEX
  8
0
 10
3187.865478515625
 20
655.16009521484375
 42
0
  0
VERTEX
  8
0
 10
3187.865478515625
 20
755.16009521484375
 42
-0.41421398520469666
  0
VERTEX
  8
0
 10
3192.865478515625
 20
760.16009521484375
 42
0
  0
VERTEX
  8
0
 10
3203.865478515625
 20
760.16009521484375
 42
-0.41421398520469666
  0
VERTEX
  8
0
 10
3208.865478515625
 20
755.16009521484375
 42
0
  0
VERTEX
  8
0
 10
3208.865478515625
 20
655.16009521484375
 42
0
  0
VERTEX
  8
0
 10
3506.365478515625
 20
655.16009521484375
 42
0
  0
VERTEX
  8
0
 10
3506.365478515625
 20
760.16009521484375
 42
0
  0
VERTEX
  8
0
 10
3526.365478515625
 20
760.16009521484375
 42
0
  0
VERTEX
  8
0
 10
3526.365478515625
 20
830.16009521484375
 42
0
  0
VERTEX
  8
0
 10
2270.365478515625
 20
830.16009521484375
 42
0
  0
VERTEX
  8
0
 10
2270.365478515625
 20
760.16009521484375
 42
0
  0
VERTEX
  8
0
 10
2290.365478515625
 20
760.16009521484375
 42
0
  0
SEQEND
  0
POLYLINE
  8
0
 10
0
 20
0
 39
0
 70
1
 66
1
  0
VERTEX
  8
0
 10
4247.91015625
 20
220.10003662109375
 42
-0
  0
VERTEX
  8
0
 10
5707.91015625
 20
220.10003662109375
 42
-0
  0
VERTEX
  8
0
 10
5707.91015625
 20
350.10003662109375
 42
0.41421398520469666
  0
VERTEX
  8
0
 10
5657.91015625
 20
400.10003662109375
 42
-0
  0
VERTEX
  8
0
 10
4297.91015625
 20
400.10003662109375
 42
0.41421398520469666
  0
VERTEX
  8
0
 10
4247.91015625
 20
350.10003662109375
 42
-0
  0
SEQEND
  0
POLYLINE
  8
0
 10
0
 20
0
 39
0
 70
1
 66
1
  0
VERTEX
  8
0
 10
2170.050048828125
 20
180.05084228515625
 42
0.41421398520469666
  0
VERTEX
  8
0
 10
2120.050048828125
 20
230.05082702636719
 42
-0
  0
VERTEX
  8
0
 10
70.050048828125
 20
230.05001831054687
 42
0.41421398520469666
  0
VERTEX
  8
0
 10
20.050048828125
 20
180.05000305175781
 42
-0
  0
VERTEX
  8
0
 10
20.050048828125
 20
20.050003051757812
 42
-0
  0
VERTEX
  8
0
 10
2170.050048828125
 20
20.05084228515625
 42
-0
  0
SEQEND
  0
POLYLINE
  8
0
 10
0
 20
0
 39
0
 70
1
 66
1
  0
VERTEX
  8
0
 10
2170.050048828125
 20
410.0616455078125
 42
0.41421398520469666
  0
VERTEX
  8
0
 10
2120.050048828125
 20
460.06161499023437
 42
-0
  0
VERTEX
  8
0
 10
70.050048828125
 20
460.06082153320312
 42
0.41421398520469666
  0
VERTEX
  8
0
 10
20.050048828125
 20
410.06082153320312
 42
-0
  0
VERTEX
  8
0
 10
20.050048828125
 20
250.06080627441406
 42
-0
  0
VERTEX
  8
0
 10
2170.050048828125
 20
250.0616455078125
 42
-0
  0
SEQEND
  0
POLYLINE
  8
0
 10
0
 20
0
 39
0
 70
1
 66
1
  0
VERTEX
  8
0
 10
20.050003051757812
 20
650.12164306640625
 42
-0
  0
VERTEX
  8
0
 10
2020.050048828125
 20
650.12164306640625
 42
-0
  0
VERTEX
  8
0
 10
2020.050048828125
 20
700.12164306640625
 42
0.41421398520469666
  0
VERTEX
  8
0
 10
1920.050048828125
 20
800.12164306640625
 42
-0
  0
VERTEX
  8
0
 10
120.05000305175781
 20
800.12164306640625
 42
0.41421398520469666
  0
VERTEX
  8
0
 10
20.050003051757812
 20
700.12164306640625
 42
-0
  0
SEQEND
  0
POLYLINE
  8
0
 10
0
 20
0
 39
0
 70
1
 66
1
  0
VERTEX
  8
0
 10
20.050003051757812
 20
820.13165283203125
 42
-0
  0
VERTEX
  8
0
 10
2020.050048828125
 20
820.13165283203125
 42
-0
  0
VERTEX
  8
0
 10
2020.050048828125
 20
870.13165283203125
 42
0.41421398520469666
  0
VERTEX
  8
0
 10
1920.050048828125
 20
970.13165283203125
 42
-0
  0
VERTEX
  8
0
 10
120.05000305175781
 20
970.13165283203125
 42
0.41421398520469666
  0
VERTEX
  8
0
 10
20.050003051757812
 20
870.13165283203125
 42
-0
  0
SEQEND
  0
POLYLINE
  8
0
 10
0
 20
0
 39
0
 70
1
 66
1
  0
VERTEX
  8
0
 10
20.050003051757812
 20
990.1416015625
 42
-0
  0
VERTEX
  8
0
 10
2020.050048828125
 20
990.1416015625
 42
-0
  0
VERTEX
  8
0
 10
2020.050048828125
 20
1040.1416015625
 42
0.41421398520469666
  0
VERTEX
  8
0
 10
1920.050048828125
 20
1140.1416015625
 42
-0
  0
VERTEX
  8
0
 10
120.05000305175781
 20
1140.1416015625
 42
0.41421398520469666
  0
VERTEX
  8
0
 10
20.050003051757812
 20
1040.1416015625
 42
-0
  0
SEQEND
  0
POLYLINE
  8
0
 10
0
 20
0
 39
0
 70
1
 66
1
  0
VERTEX
  8
0
 10
20.050003051757812
 20
1330.20166015625
 42
-0
  0
VERTEX
  8
0
 10
2020.050048828125
 20
1330.20166015625
 42
-0
  0
VERTEX
  8
0
 10
2020.050048828125
 20
1380.20166015625
 42
0.41421398520469666
  0
VERTEX
  8
0
 10
1920.050048828125
 20
1480.20166015625
 42
-0
  0
VERTEX
  8
0
 10
120.05000305175781
 20
1480.20166015625
 42
0.41421398520469666
  0
VERTEX
  8
0
 10
20.050003051757812
 20
1380.20166015625
 42
-0
  0
SEQEND
  0
POLYLINE
  8
0
 10
0
 20
0
 39
0
 70
1
 66
1
  0
VERTEX
  8
0
 10
2231.860107421875
 20
190.06007385253906
 42
-0
  0
VERTEX
  8
0
 10
4231.8603515625
 20
190.06007385253906
 42
-0
  0
VERTEX
  8
0
 10
4231.8603515625
 20
240.06007385253906
 42
0.41421398520469666
  0
VERTEX
  8
0
 10
4131.8603515625
 20
340.06005859375
 42
-0
  0
VERTEX
  8
0
 10
2331.860107421875
 20
340.06005859375
 42
0.41421398520469666
  0
VERTEX
  8
0
 10
2231.860107421875
 20
240.06007385253906
 42
-0
  0
SEQEND
  0
POLYLINE
  8
0
 10
0
 20
0
 39
0
 70
1
 66
1
  0
VERTEX
  8
0
 10
4247.91015625
 20
20.049999237060547
 42
-0
  0
VERTEX
  8
0
 10
5707.91015625
 20
20.049999237060547
 42
-0
  0
VERTEX
  8
0
 10
5707.91015625
 20
150.05000305175781
 42
0.41421398520469666
  0
VERTEX
  8
0
 10
5657.91015625
 20
200.05000305175781
 42
-0
  0
VERTEX
  8
0
 10
4297.91015625
 20
200.05000305175781
 42
0.41421398520469666
  0
VERTEX
  8
0
 10
4247.91015625
 20
150.05000305175781
 42
-0
  0
SEQEND
  0
POLYLINE
  8
0
 10
0
 20
0
 39
0
 70
1
 66
1
  0
VERTEX
  8
0
 10
5855.15673828125
 20
645.4912109375
 42
-0.21545200049877167
  0
VERTEX
  8
0
 10
5870.1669921875
 20
638.70843505859375
 42
0.69136500358581543
  0
VERTEX
  8
0
 10
5983.9501953125
 20
681.66436767578125
 42
-0
  0
VERTEX
  8
0
 10
5983.9501953125
 20
795.915283203125
 42
0.26967498660087585
  0
VERTEX
  8
0
 10
5978.89453125
 20
804.6075439453125
 42
-0
  0
VERTEX
  8
0
 10
5966.48779296875
 20
811.66436767578125
 42
-0.58165097236633301
  0
VERTEX
  8
0
 10
5601.41259765625
 20
811.66436767578125
 42
-0
  0
VERTEX
  8
0
 10
5589.005859375
 20
804.6075439453125
 42
0.26967498660087585
  0
VERTEX
  8
0
 10
5583.9501953125
 20
795.915283203125
 42
-0
  0
VERTEX
  8
0
 10
5583.9501953125
 20
681.66436767578125
 42
0.69136500358581543
  0
VERTEX
  8
0
 10
5697.7333984375
 20
638.70843505859375
 42
-0.21545200049877167
  0
VERTEX
  8
0
 10
5712.74365234375
 20
645.4912109375
 42
-0
  0
SEQEND
  0
POLYLINE
  8
0
 10
0
 20
0
 39
0
 70
1
 66
1
  0
VERTEX
  8
0
 10
5597.9501953125
 20
681.66436767578125
 42
-1
  0
VERTEX
  8
0
 10
5699.9501953125
 20
681.66436767578125
 42
-1
  0
SEQEND
  0
POLYLINE
  8
0
 10
0
 20
0
 39
0
 70
1
 66
1
  0
VERTEX
  8
0
 10
5867.9501953125
 20
681.66436767578125
 42
-1
  0
VERTEX
  8
0
 10
5969.9501953125
 20
681.66436767578125
 42
-1
  0
SEQEND
  0
POLYLINE
  8
0
 10
0
 20
0
 39
0
 70
1
 66
1
  0
VERTEX
  8
0
 10
5855.15673828125
 20
846.005126953125
 42
-0.21545200049877167
  0
VERTEX
  8
0
 10
5870.1669921875
 20
839.22235107421875
 42
0.69136500358581543
  0
VERTEX
  8
0
 10
5983.9501953125
 20
882.17828369140625
 42
-0
  0
VERTEX
  8
0
 10
5983.9501953125
 20
996.42919921875
 42
0.26967498660087585
  0
VERTEX
  8
0
 10
5978.89453125
 20
1005.1214599609375
 42
-0
  0
VERTEX
  8
0
 10
5966.48779296875
 20
1012.1782836914062
 42
-0.58165097236633301
  0
VERTEX
  8
0
 10
5601.41259765625
 20
1012.1782836914062
 42
-0
  0
VERTEX
  8
0
 10
5589.005859375
 20
1005.1214599609375
 42
0.26967498660087585
  0
VERTEX
  8
0
 10
5583.9501953125
 20
996.42919921875
 42
-0
  0
VERTEX
  8
0
 10
5583.9501953125
 20
882.17828369140625
 42
0.69136500358581543
  0
VERTEX
  8
0
 10
5697.7333984375
 20
839.22235107421875
 42
-0.21545200049877167
  0
VERTEX
  8
0
 10
5712.74365234375
 20
846.005126953125
 42
-0
  0
SEQEND
  0
POLYLINE
  8
0
 10
0
 20
0
 39
0
 70
1
 66
1
  0
VERTEX
  8
0
 10
5597.9501953125
 20
882.17828369140625
 42
-1
  0
VERTEX
  8
0
 10
5699.9501953125
 20
882.17828369140625
 42
-1
  0
SEQEND
  0
POLYLINE
  8
0
 10
0
 20
0
 39
0
 70
1
 66
1
  0
VERTEX
  8
0
 10
5867.9501953125
 20
882.17828369140625
 42
-1
  0
VERTEX
  8
0
 10
5969.9501953125
 20
882.17828369140625
 42
-1
  0
SEQEND
  0
POLYLINE
  8
0
 10
0
 20
0
 39
0
 70
1
 66
1
  0
VERTEX
  8
0
 10
5855.15673828125
 20
1046.519287109375
 42
-0.21545200049877167
  0
VERTEX
  8
0
 10
5870.1669921875
 20
1039.7364501953125
 42
0.69136500358581543
  0
VERTEX
  8
0
 10
5983.9501953125
 20
1082.6923828125
 42
-0
  0
VERTEX
  8
0
 10
5983.9501953125
 20
1196.943359375
 42
0.26967498660087585
  0
VERTEX
  8
0
 10
5978.89453125
 20
1205.6356201171875
 42
-0
  0
VERTEX
  8
0
 10
5966.48779296875
 20
1212.6923828125
 42
-0.58165097236633301
  0
VERTEX
  8
0
 10
5601.41259765625
 20
1212.6923828125
 42
-0
  0
VERTEX
  8
0
 10
5589.005859375
 20
1205.6356201171875
 42
0.26967498660087585
  0
VERTEX
  8
0
 10
5583.9501953125
 20
1196.943359375
 42
-0
  0
VERTEX
  8
0
 10
5583.9501953125
 20
1082.6923828125
 42
0.69136500358581543
  0
VERTEX
  8
0
 10
5697.7333984375
 20
1039.7364501953125
 42
-0.21545200049877167
  0
VERTEX
  8
0
 10
5712.74365234375
 20
1046.519287109375
 42
-0
  0
SEQEND
  0
POLYLINE
  8
0
 10
0
 20
0
 39
0
 70
1
 66
1
  0
VERTEX
  8
0
 10
5597.9501953125
 20
1082.6923828125
 42
-1
  0
VERTEX
  8
0
 10
5699.9501953125
 20
1082.6923828125
 42
-1
  0
SEQEND
  0
POLYLINE
  8
0
 10
0
 20
0
 39
0
 70
1
 66
1
  0
VERTEX
  8
0
 10
5867.9501953125
 20
1082.6923828125
 42
-1
  0
VERTEX
  8
0
 10
5969.9501953125
 20
1082.6923828125
 42
-1
  0
SEQEND
  0
POLYLINE
  8
0
 10
0
 20
0
 39
0
 70
1
 66
1
  0
VERTEX
  8
0
 10
5221.62451171875
 20
638.3492431640625
 42
-0
  0
VERTEX
  8
0
 10
5401.59326171875
 20
638.3492431640625
 42
-0.19853000342845917
  0
VERTEX
  8
0
 10
5415.71435546875
 20
632.51214599609375
 42
0.66764700412750244
  0
VERTEX
  8
0
 10
5526.60888671875
 20
678.5416259765625
 42
-0
  0
VERTEX
  8
0
 10
5526.60888671875
 20
794.637451171875
 42
0.25516399741172791
  0
VERTEX
  8
0
 10
5522.017578125
 20
803.04852294921875
 42
-0
  0
VERTEX
  8
0
 10
5513.47509765625
 20
808.5416259765625
 42
-0.54586797952651978
  0
VERTEX
  8
0
 10
5109.74267578125
 20
808.5416259765625
 42
-0
  0
VERTEX
  8
0
 10
5101.2001953125
 20
803.04852294921875
 42
0.25516399741172791
  0
VERTEX
  8
0
 10
5096.60888671875
 20
794.637451171875
 42
-0
  0
VERTEX
  8
0
 10
5096.60888671875
 20
678.5416259765625
 42
0.66764700412750244
  0
VERTEX
  8
0
 10
5207.50341796875
 20
632.51214599609375
 42
-0.19853000342845917
  0
SEQEND
  0
POLYLINE
  8
0
 10
0
 20
0
 39
0
 70
1
 66
1
  0
VERTEX
  8
0
 10
5411.10888671875
 20
678.5416259765625
 42
-1
  0
VERTEX
  8
0
 10
5512.10888671875
 20
678.5416259765625
 42
-1
  0
SEQEND
  0
POLYLINE
  8
0
 10
0
 20
0
 39
0
 70
1
 66
1
  0
VERTEX
  8
0
 10
5111.10888671875
 20
678.5416259765625
 42
-1
  0
VERTEX
  8
0
 10
5212.10888671875
 20
678.5416259765625
 42
-1
  0
SEQEND
  0
POLYLINE
  8
0
 10
0
 20
0
 39
0
 70
1
 66
1
  0
VERTEX
  8
0
 10
5221.62451171875
 20
835.74090576171875
 42
-0
  0
VERTEX
  8
0
 10
5401.59326171875
 20
835.74090576171875
 42
-0.19853000342845917
  0
VERTEX
  8
0
 10
5415.71435546875
 20
829.90380859375
 42
0.66764700412750244
  0
VERTEX
  8
0
 10
5526.60888671875
 20
875.93328857421875
 42
-0
  0
VERTEX
  8
0
 10
5526.60888671875
 20
992.02911376953125
 42
0.25516399741172791
  0
VERTEX
  8
0
 10
5522.017578125
 20
1000.440185546875
 42
-0
  0
VERTEX
  8
0
 10
5513.47509765625
 20
1005.9332885742187
 42
-0.54586797952651978
  0
VERTEX
  8
0
 10
5109.74267578125
 20
1005.9332885742187
 42
-0
  0
VERTEX
  8
0
 10
5101.2001953125
 20
1000.440185546875
 42
0.25516399741172791
  0
VERTEX
  8
0
 10
5096.60888671875
 20
992.02911376953125
 42
-0
  0
VERTEX
  8
0
 10
5096.60888671875
 20
875.93328857421875
 42
0.66764700412750244
  0
VERTEX
  8
0
 10
5207.50341796875
 20
829.90380859375
 42
-0.19853000342845917
  0
SEQEND
  0
POLYLINE
  8
0
 10
0
 20
0
 39
0
 70
1
 66
1
  0
VERTEX
  8
0
 10
5411.10888671875
 20
875.93328857421875
 42
-1
  0
VERTEX
  8
0
 10
5512.10888671875
 20
875.93328857421875
 42
-1
  0
SEQEND
  0
POLYLINE
  8
0
 10
0
 20
0
 39
0
 70
1
 66
1
  0
VERTEX
  8
0
 10
5111.10888671875
 20
875.93328857421875
 42
-1
  0
VERTEX
  8
0
 10
5212.10888671875
 20
875.93328857421875
 42
-1
  0
SEQEND
  0
POLYLINE
  8
0
 10
0
 20
0
 39
0
 70
1
 66
1
  0
VERTEX
  8
0
 10
5221.62451171875
 20
1033.1324462890625
 42
-0
  0
VERTEX
  8
0
 10
5401.59326171875
 20
1033.1324462890625
 42
-0.19853000342845917
  0
VERTEX
  8
0
 10
5415.71435546875
 20
1027.29541015625
 42
0.66764700412750244
  0
VERTEX
  8
0
 10
5526.60888671875
 20
1073.3248291015625
 42
-0
  0
VERTEX
  8
0
 10
5526.60888671875
 20
1189.420654296875
 42
0.25516399741172791
  0
VERTEX
  8
0
 10
5522.017578125
 20
1197.831787109375
 42
-0
  0
VERTEX
  8
0
 10
5513.47509765625
 20
1203.3248291015625
 42
-0.54586797952651978
  0
VERTEX
  8
0
 10
5109.74267578125
 20
1203.3248291015625
 42
-0
  0
VERTEX
  8
0
 10
5101.2001953125
 20
1197.831787109375
 42
0.25516399741172791
  0
VERTEX
  8
0
 10
5096.60888671875
 20
1189.420654296875
 42
-0
  0
VERTEX
  8
0
 10
5096.60888671875
 20
1073.3248291015625
 42
0.66764700412750244
  0
VERTEX
  8
0
 10
5207.50341796875
 20
1027.29541015625
 42
-0.19853000342845917
  0
SEQEND
  0
POLYLINE
  8
0
 10
0
 20
0
 39
0
 70
1
 66
1
  0
VERTEX
  8
0
 10
5411.10888671875
 20
1073.3248291015625
 42
-1
  0
VERTEX
  8
0
 10
5512.10888671875
 20
1073.3248291015625
 42
-1
  0
SEQEND
  0
POLYLINE
  8
0
 10
0
 20
0
 39
0
 70
1
 66
1
  0
VERTEX
  8
0
 10
5111.10888671875
 20
1073.3248291015625
 42
-1
  0
VERTEX
  8
0
 10
5212.10888671875
 20
1073.3248291015625
 42
-1
  0
SEQEND
  0
POLYLINE
  8
0
 10
0
 20
0
 39
0
 70
1
 66
1
  0
VERTEX
  8
0
 10
2290.365478515625
 20
850.2100830078125
 42
0
  0
VERTEX
  8
0
 10
2587.865478515625
 20
850.2100830078125
 42
0
  0
VERTEX
  8
0
 10
2587.865478515625
 20
950.2100830078125
 42
-0.41421398520469666
  0
VERTEX
  8
0
 10
2592.865478515625
 20
955.2100830078125
 42
0
  0
VERTEX
  8
0
 10
2603.865478515625
 20
955.2100830078125
 42
-0.41421398520469666
  0
VERTEX
  8
0
 10
2608.865478515625
 20
950.2100830078125
 42
0
  0
VERTEX
  8
0
 10
2608.865478515625
 20
850.2100830078125
 42
0
  0
VERTEX
  8
0
 10
2887.865478515625
 20
850.2100830078125
 42
0
  0
VERTEX
  8
0
 10
2887.865478515625
 20
950.2100830078125
 42
-0.41421398520469666
  0
VERTEX
  8
0
 10
2892.865478515625
 20
955.2100830078125
 42
0
  0
VERTEX
  8
0
 10
2903.865478515625
 20
955.2100830078125
 42
-0.41421398520469666
  0
VERTEX
  8
0
 10
2908.865478515625
 20
950.2100830078125
 42
0
  0
VERTEX
  8
0
 10
2908.865478515625
 20
850.2100830078125
 42
0
  0
VERTEX
  8
0
 10
3187.865478515625
 20
850.2100830078125
 42
0
  0
VERTEX
  8
0
 10
3187.865478515625
 20
950.2100830078125
 42
-0.41421398520469666
  0
VERTEX
  8
0
 10
3192.865478515625
 20
955.2100830078125
 42
0
  0
VERTEX
  8
0
 10
3203.865478515625
 20
955.2100830078125
 42
-0.41421398520469666
  0
VERTEX
  8
0
 10
3208.865478515625
 20
950.2100830078125
 42
0
  0
VERTEX
  8
0
 10
3208.865478515625
 20
850.2100830078125
 42
0
  0
VERTEX
  8
0
 10
3506.365478515625
 20
850.2100830078125
 42
0
  0
VERTEX
  8
0
 10
3506.365478515625
 20
955.2100830078125
 42
0
  0
VERTEX
  8
0
 10
3526.365478515625
 20
955.2100830078125
 42
0
  0
VERTEX
  8
0
 10
3526.365478515625
 20
1025.2100830078125
 42
0
  0
VERTEX
  8
0
 10
2270.365478515625
 20
1025.2100830078125
 42
0
  0
VERTEX
  8
0
 10
2270.365478515625
 20
955.2100830078125
 42
0
  0
VERTEX
  8
0
 10
2290.365478515625
 20
955.2100830078125
 42
0
  0
SEQEND
  0
POLYLINE
  8
0
 10
0
 20
0
 39
0
 70
1
 66
1
  0
VERTEX
  8
0
 10
2080.74658203125
 20
775.12158203125
 42
-0
  0
VERTEX
  8
0
 10
2244.74658203125
 20
775.12158203125
 42
-0
  0
VERTEX
  8
0
 10
2244.74658203125
 20
1050.12158203125
 42
-0
  0
VERTEX
  8
0
 10
2080.74658203125
 20
1050.12158203125
 42
-0
  0
SEQEND
  0
POLYLINE
  8
0
 10
0
 20
0
 39
0
 70
1
 66
1
  0
VERTEX
  8
0
 10
2080.74658203125
 20
1070.171630859375
 42
-0
  0
VERTEX
  8
0
 10
2244.74658203125
 20
1070.171630859375
 42
-0
  0
VERTEX
  8
0
 10
2244.74658203125
 20
1345.171630859375
 42
-0
  0
VERTEX
  8
0
 10
2080.74658203125
 20
1345.171630859375
 42
-0
  0
SEQEND
  0
POLYLINE
  8
0
 10
0
 20
0
 39
0
 70
1
 66
1
  0
VERTEX
  8
0
 10
3542.41552734375
 20
732.20001220703125
 42
-0
  0
VERTEX
  8
0
 10
4652.41552734375
 20
732.20001220703125
 42
-0
  0
VERTEX
  8
0
 10
4652.41552734375
 20
1032.199951171875
 42
-0
  0
VERTEX
  8
0
 10
3542.41552734375
 20
1032.199951171875
 42
-0
  0
SEQEND
  0
POLYLINE
  8
0
 10
0
 20
0
 39
0
 70
1
 66
1
  0
VERTEX
  8
0
 10
2260.796630859375
 20
1041.2601318359375
 42
-0
  0
VERTEX
  8
0
 10
3210.796630859375
 20
1041.2601318359375
 42
-0
  0
VERTEX
  8
0
 10
3210.796630859375
 20
1411.2601318359375
 42
-0
  0
VERTEX
  8
0
 10
2260.796630859375
 20
1411.2601318359375
 42
-0
  0
SEQEND
  0
POLYLINE
  8
0
 10
0
 20
0
 39
0
 70
1
 66
1
  0
VERTEX
  8
0
 10
4697.9990234375
 20
416.1500244140625
 42
-0
  0
VERTEX
  8
0
 10
4861.9990234375
 20
416.1500244140625
 42
-0
  0
VERTEX
  8
0
 10
4861.9990234375
 20
721.1500244140625
 42
-0
  0
VERTEX
  8
0
 10
4697.9990234375
 20
721.1500244140625
 42
-0
  0
SEQEND
  0
POLYLINE
  8
0
 10
0
 20
0
 39
0
 70
1
 66
1
  0
VERTEX
  8
0
 10
4878.0087890625
 20
416.1500244140625
 42
-0
  0
VERTEX
  8
0
 10
5042.0087890625
 20
416.1500244140625
 42
-0
  0
VERTEX
  8
0
 10
5042.0087890625
 20
721.1500244140625
 42
-0
  0
VERTEX
  8
0
 10
4878.0087890625
 20
721.1500244140625
 42
-0
  0
SEQEND
  0
POLYLINE
  8
0
 10
0
 20
0
 39
0
 70
1
 66
1
  0
VERTEX
  8
0
 10
4697.9990234375
 20
737.1600341796875
 42
-0
  0
VERTEX
  8
0
 10
4861.9990234375
 20
737.1600341796875
 42
-0
  0
VERTEX
  8
0
 10
4861.9990234375
 20
1042.1600341796875
 42
-0
  0
VERTEX
  8
0
 10
4697.9990234375
 20
1042.1600341796875
 42
-0
  0
SEQEND
  0
POLYLINE
  8
0
 10
0
 20
0
 39
0
 70
1
 66
1
  0
VERTEX
  8
0
 10
4555.2607421875
 20
1402.26025390625
 42
-0
  0
VERTEX
  8
0
 10
4555.2607421875
 20
1238.26025390625
 42
-0
  0
VERTEX
  8
0
 10
4860.2607421875
 20
1238.26025390625
 42
-0
  0
VERTEX
  8
0
 10
4860.2607421875
 20
1402.26025390625
 42
-0
  0
SEQEND
  0
POLYLINE
  8
0
 10
0
 20
0
 39
0
 70
1
 66
1
  0
VERTEX
  8
0
 10
4878.0087890625
 20
737.1600341796875
 42
-0
  0
VERTEX
  8
0
 10
5042.0087890625
 20
737.1600341796875
 42
-0
  0
VERTEX
  8
0
 10
5042.0087890625
 20
1042.1600341796875
 42
-0
  0
VERTEX
  8
0
 10
4878.0087890625
 20
1042.1600341796875
 42
-0
  0
SEQEND
  0
POLYLINE
  8
0
 10
0
 20
0
 39
0
 70
1
 66
1
  0
VERTEX
  8
0
 10
4192.896484375
 20
1392.300048828125
 42
-0
  0
VERTEX
  8
0
 10
4192.896484375
 20
1228.300048828125
 42
-0
  0
VERTEX
  8
0
 10
4497.896484375
 20
1228.30029296875
 42
-0
  0
VERTEX
  8
0
 10
4497.896484375
 20
1392.30029296875
 42
-0
  0
SEQEND
  0
POLYLINE
  8
0
 10
0
 20
0
 39
0
 70
1
 66
1
  0
VERTEX
  8
0
 10
4192.896484375
 20
1212.25
 42
-0
  0
VERTEX
  8
0
 10
4192.896484375
 20
1048.25
 42
-0
  0
VERTEX
  8
0
 10
4497.896484375
 20
1048.25
 42
-0
  0
VERTEX
  8
0
 10
4497.896484375
 20
1212.25
 42
-0
  0
SEQEND
  0
POLYLINE
  8
0
 10
0
 20
0
 39
0
 70
1
 66
1
  0
VERTEX
  8
0
 10
4876.310546875
 20
1449.375
 42
0
  0
VERTEX
  8
0
 10
4876.310546875
 20
1219.375
 42
0
  0
VERTEX
  8
0
 10
4896.310546875
 20
1219.375
 42
0
  0
VERTEX
  8
0
 10
5126.310546875
 20
1449.3751220703125
 42
0
  0
VERTEX
  8
0
 10
5126.310546875
 20
1469.3751220703125
 42
0
  0
VERTEX
  8
0
 10
4896.310546875
 20
1469.375
 42
0
  0
SEQEND
  0
POLYLINE
  8
0
 10
0
 20
0
 39
0
 70
1
 66
1
  0
VERTEX
  8
0
 10
4996.810546875
 20
1389.3751220703125
 42
-1
  0
VERTEX
  8
0
 10
4915.810546875
 20
1389.375
 42
-1
  0
SEQEND
  0
POLYLINE
  8
0
 10
0
 20
0
 39
0
 70
1
 66
1
  0
VERTEX
  8
0
 10
5983.9501953125
 20
62.128589630126953
 42
0
  0
VERTEX
  8
0
 10
5983.9501953125
 20
292.12860107421875
 42
0
  0
VERTEX
  8
0
 10
5963.9501953125
 20
292.12860107421875
 42
0
  0
VERTEX
  8
0
 10
5733.9501953125
 20
62.128589630126953
 42
0
  0
VERTEX
  8
0
 10
5733.9501953125
 20
42.128589630126953
 42
0
  0
VERTEX
  8
0
 10
5963.9501953125
 20
42.128589630126953
 42
0
  0
SEQEND
  0
POLYLINE
  8
0
 10
0
 20
0
 39
0
 70
1
 66
1
  0
VERTEX
  8
0
 10
5863.4501953125
 20
122.12858581542969
 42
-1
  0
VERTEX
  8
0
 10
5944.4501953125
 20
122.12858581542969
 42
-1
  0
SEQEND
  0
POLYLINE
  8
0
 10
0
 20
0
 39
0
 70
1
 66
1
  0
VERTEX
  8
0
 10
5730.28564453125
 20
368.10348510742188
 42
0
  0
VERTEX
  8
0
 10
5730.28564453125
 20
138.10348510742187
 42
0
  0
VERTEX
  8
0
 10
5750.28564453125
 20
138.10348510742187
 42
0
  0
VERTEX
  8
0
 10
5980.28564453125
 20
368.10357666015625
 42
0
  0
VERTEX
  8
0
 10
5980.28564453125
 20
388.10357666015625
 42
0
  0
VERTEX
  8
0
 10
5750.28564453125
 20
388.10348510742188
 42
0
  0
SEQEND
  0
POLYLINE
  8
0
 10
0
 20
0
 39
0
 70
1
 66
1
  0
VERTEX
  8
0
 10
5850.78564453125
 20
308.103515625
 42
-1
  0
VERTEX
  8
0
 10
5769.78564453125
 20
308.10348510742188
 42
-1
  0
SEQEND
  0
POLYLINE
  8
0
 10
0
 20
0
 39
0
 70
1
 66
1
  0
VERTEX
  8
0
 10
5571.66015625
 20
1239.3748779296875
 42
0
  0
VERTEX
  8
0
 10
5571.66015625
 20
1469.3748779296875
 42
0
  0
VERTEX
  8
0
 10
5551.66015625
 20
1469.3748779296875
 42
0
  0
VERTEX
  8
0
 10
5321.66015625
 20
1239.3748779296875
 42
0
  0
VERTEX
  8
0
 10
5321.66015625
 20
1219.3748779296875
 42
0
  0
VERTEX
  8
0
 10
5551.66015625
 20
1219.3748779296875
 42
0
  0
SEQEND
  0
POLYLINE
  8
0
 10
0
 20
0
 39
0
 70
1
 66
1
  0
VERTEX
  8
0
 10
5451.16015625
 20
1299.3748779296875
 42
-1
  0
VERTEX
  8
0
 10
5532.16015625
 20
1299.3748779296875
 42
-1
  0
SEQEND
  0
POLYLINE
  8
0
 10
0
 20
0
 39
0
 70
1
 66
1
  0
VERTEX
  8
0
 10
5258.98291015625
 20
1449.375
 42
0
  0
VERTEX
  8
0
 10
5258.98291015625
 20
1219.375
 42
0
  0
VERTEX
  8
0
 10
5278.98291015625
 20
1219.375
 42
0
  0
VERTEX
  8
0
 10
5508.98291015625
 20
1449.3751220703125
 42
0
  0
VERTEX
  8
0
 10
5508.98291015625
 20
1469.3751220703125
 42
0
  0
VERTEX
  8
0
 10
5278.98291015625
 20
1469.375
 42
0
  0
SEQEND
  0
POLYLINE
  8
0
 10
0
 20
0
 39
0
 70
1
 66
1
  0
VERTEX
  8
0
 10
5379.48291015625
 20
1389.3751220703125
 42
-1
  0
VERTEX
  8
0
 10
5298.48291015625
 20
1389.375
 42
-1
  0
SEQEND
  0
POLYLINE
  8
0
 10
0
 20
0
 39
0
 70
1
 66
1
  0
VERTEX
  8
0
 10
5948.3349609375
 20
1213.5465087890625
 42
0
  0
VERTEX
  8
0
 10
5948.3349609375
 20
1443.5465087890625
 42
0
  0
VERTEX
  8
0
 10
5928.3349609375
 20
1443.5465087890625
 42
0
  0
VERTEX
  8
0
 10
5698.3349609375
 20
1213.5465087890625
 42
0
  0
VERTEX
  8
0
 10
5698.3349609375
 20
1193.5465087890625
 42
0
  0
VERTEX
  8
0
 10
5928.3349609375
 20
1193.5465087890625
 42
0
  0
SEQEND
  0
POLYLINE
  8
0
 10
0
 20
0
 39
0
 70
1
 66
1
  0
VERTEX
  8
0
 10
5827.8349609375
 20
1273.5465087890625
 42
-1
  0
VERTEX
  8
0
 10
5908.8349609375
 20
1273.5465087890625
 42
-1
  0
SEQEND
  0
POLYLINE
  8
0
 10
0
 20
0
 39
0
 70
1
 66
1
  0
VERTEX
  8
0
 10
5635.65771484375
 20
1423.546630859375
 42
0
  0
VERTEX
  8
0
 10
5635.65771484375
 20
1193.546630859375
 42
0
  0
VERTEX
  8
0
 10
5655.65771484375
 20
1193.546630859375
 42
0
  0
VERTEX
  8
0
 10
5885.65771484375
 20
1423.5467529296875
 42
0
  0
VERTEX
  8
0
 10
5885.65771484375
 20
1443.5467529296875
 42
0
  0
VERTEX
  8
0
 10
5655.65771484375
 20
1443.546630859375
 42
0
  0
SEQEND
  0
POLYLINE
  8
0
 10
0
 20
0
 39
0
 70
1
 66
1
  0
VERTEX
  8
0
 10
5756.15771484375
 20
1363.5467529296875
 42
-1
  0
VERTEX
  8
0
 10
5675.15771484375
 20
1363.546630859375
 42
-1
  0
SEQEND
  0
ENDSEC
  0
EOF
