  0
SECTION
  2
ENTITIES
  0
POLYLINE
  8
0
 10
0
 20
0
 39
0
 70
1
 66
1
  0
VERTEX
  8
0
 10
0
 20
0
 42
0
  0
VERTEX
  8
0
 10
2000
 20
0
 42
0
  0
VERTEX
  8
0
 10
2000
 20
1000
 42
0
  0
VERTEX
  8
0
 10
0
 20
1000
 42
0
  0
SEQEND
  0
POLYLINE
  8
0
 10
0
 20
0
 39
0
 70
1
 66
1
  0
VERTEX
  8
0
 10
38.141933441162109
 20
10.399999618530273
 42
-0
  0
VERTEX
  8
0
 10
61.190616607666016
 20
10.399999618530273
 42
-0.011147454380989075
  0
VERTEX
  8
0
 10
64.562202453613281
 20
30.819992065429687
 42
0.0094475224614143372
  0
VERTEX
  8
0
 10
75.029350280761719
 20
93.051445007324219
 42
0.010234789922833443
  0
VERTEX
  8
0
 10
82.782089233398437
 20
153.35899353027344
 42
0.015223757363855839
  0
VERTEX
  8
0
 10
87.801368713378906
 20
219.60966491699219
 42
0.019391896203160286
  0
VERTEX
  8
0
 10
88.487113952636719
 20
296.87039184570312
 42
0.014485174790024757
  0
VERTEX
  8
0
 10
84.801231384277344
 20
360.62570190429687
 42
0.013210056349635124
  0
VERTEX
  8
0
 10
78.019966125488281
 20
421.16183471679687
 42
0.008457675576210022
  0
VERTEX
  8
0
 10
68.267135620117188
 20
483.62188720703125
 42
0.0031471042893826962
  0
VERTEX
  8
0
 10
61.236953735351563
 20
522.0831298828125
 42
-0.046703245490789413
  0
VERTEX
  8
0
 10
61.190616607666016
 20
524.70953369140625
 42
-0
  0
VERTEX
  8
0
 10
38.141933441162109
 20
524.70953369140625
 42
-0.011144493706524372
  0
VERTEX
  8
0
 10
34.770347595214844
 20
504.28948974609375
 42
0.0094475224614143372
  0
VERTEX
  8
0
 10
24.303197860717773
 20
442.05804443359375
 42
0.010234789922833443
  0
VERTEX
  8
0
 10
16.550458908081055
 20
381.75048828125
 42
0.015223757363855839
  0
VERTEX
  8
0
 10
11.531179428100586
 20
315.49981689453125
 42
0.019390320405364037
  0
VERTEX
  8
0
 10
10.845432281494141
 20
238.23910522460937
 42
0.014485171064734459
  0
VERTEX
  8
0
 10
14.531316757202148
 20
174.48377990722656
 42
0.013210054486989975
  0
VERTEX
  8
0
 10
21.312583923339844
 20
113.94764709472656
 42
0.0084576783701777458
  0
VERTEX
  8
0
 10
31.06541633605957
 20
51.487617492675781
 42
0.0031346138566732407
  0
VERTEX
  8
0
 10
38.095596313476563
 20
13.02638053894043
 42
-0.046706564724445343
  0
SEQEND
  0
POLYLINE
  8
0
 10
0
 20
0
 39
0
 70
1
 66
1
  0
VERTEX
  8
0
 10
80.54193115234375
 20
474.79998779296875
 42
-0
  0
VERTEX
  8
0
 10
103.59062194824219
 20
474.79998779296875
 42
-0.011147454380989075
  0
VERTEX
  8
0
 10
106.96220397949219
 20
495.22000122070312
 42
0.0094475224614143372
  0
VERTEX
  8
0
 10
117.42935180664062
 20
557.451416015625
 42
0.010234789922833443
  0
VERTEX
  8
0
 10
125.18209075927734
 20
617.75897216796875
 42
0.015223757363855839
  0
VERTEX
  8
0
 10
130.20137023925781
 20
684.0096435546875
 42
0.019391896203160286
  0
VERTEX
  8
0
 10
130.88711547851562
 20
761.2703857421875
 42
0.014485174790024757
  0
VERTEX
  8
0
 10
127.20123291015625
 20
825.02569580078125
 42
0.013210056349635124
  0
VERTEX
  8
0
 10
120.41996765136719
 20
885.56182861328125
 42
0.008457675576210022
  0
VERTEX
  8
0
 10
110.66713714599609
 20
948.02191162109375
 42
0.0031471042893826962
  0
VERTEX
  8
0
 10
103.63695526123047
 20
986.48309326171875
 42
-0.046703245490789413
  0
VERTEX
  8
0
 10
103.59062194824219
 20
989.1094970703125
 42
-0
  0
VERTEX
  8
0
 10
80.54193115234375
 20
989.1094970703125
 42
-0.011144493706524372
  0
VERTEX
  8
0
 10
77.17034912109375
 20
968.68951416015625
 42
0.0094475224614143372
  0
VERTEX
  8
0
 10
66.703201293945313
 20
906.45806884765625
 42
0.010234789922833443
  0
VERTEX
  8
0
 10
58.950458526611328
 20
846.1505126953125
 42
0.015223757363855839
  0
VERTEX
  8
0
 10
53.931179046630859
 20
779.89984130859375
 42
0.019390320405364037
  0
VERTEX
  8
0
 10
53.245433807373047
 20
702.63909912109375
 42
0.014485171064734459
  0
VERTEX
  8
0
 10
56.931316375732422
 20
638.8837890625
 42
0.013210054486989975
  0
VERTEX
  8
0
 10
63.71258544921875
 20
578.34765625
 42
0.0084576783701777458
  0
VERTEX
  8
0
 10
73.465415954589844
 20
515.88763427734375
 42
0.0031346138566732407
  0
VERTEX
  8
0
 10
80.495597839355469
 20
477.4263916015625
 42
-0.046706564724445343
  0
SEQEND
  0
POLYLINE
  8
0
 10
0
 20
0
 39
0
 70
1
 66
1
  0
VERTEX
  8
0
 10
126.94193267822266
 20
10.399999618530273
 42
-0
  0
VERTEX
  8
0
 10
149.99061584472656
 20
10.399999618530273
 42
-0.011147454380989075
  0
VERTEX
  8
0
 10
153.36219787597656
 20
30.819992065429687
 42
0.0094475224614143372
  0
VERTEX
  8
0
 10
163.82936096191406
 20
93.051445007324219
 42
0.010234789922833443
  0
VERTEX
  8
0
 10
171.58209228515625
 20
153.35899353027344
 42
0.015223757363855839
  0
VERTEX
  8
0
 10
176.60137939453125
 20
219.60966491699219
 42
0.019391896203160286
  0
VERTEX
  8
0
 10
177.28712463378906
 20
296.87039184570312
 42
0.014485174790024757
  0
VERTEX
  8
0
 10
173.60124206542969
 20
360.62570190429687
 42
0.013210056349635124
  0
VERTEX
  8
0
 10
166.81997680664062
 20
421.16183471679687
 42
0.008457675576210022
  0
VERTEX
  8
0
 10
157.067138671875
 20
483.62188720703125
 42
0.0031471042893826962
  0
VERTEX
  8
0
 10
150.03695678710937
 20
522.0831298828125
 42
-0.046703245490789413
  0
VERTEX
  8
0
 10
149.99061584472656
 20
524.70953369140625
 42
-0
  0
VERTEX
  8
0
 10
126.94193267822266
 20
524.70953369140625
 42
-0.011144493706524372
  0
VERTEX
  8
0
 10
123.57035064697266
 20
504.28948974609375
 42
0.0094475224614143372
  0
VERTEX
  8
0
 10
113.10319519042969
 20
442.05804443359375
 42
0.010234789922833443
  0
VERTEX
  8
0
 10
105.35045623779297
 20
381.75048828125
 42
0.015223757363855839
  0
VERTEX
  8
0
 10
100.3311767578125
 20
315.49981689453125
 42
0.019390320405364037
  0
VERTEX
  8
0
 10
99.645431518554687
 20
238.23910522460937
 42
0.014485171064734459
  0
VERTEX
  8
0
 10
103.33131408691406
 20
174.48377990722656
 42
0.013210054486989975
  0
VERTEX
  8
0
 10
110.11258697509766
 20
113.94764709472656
 42
0.0084576783701777458
  0
VERTEX
  8
0
 10
119.86541748046875
 20
51.487617492675781
 42
0.0031346138566732407
  0
VERTEX
  8
0
 10
126.89559173583984
 20
13.02638053894043
 42
-0.046706564724445343
  0
SEQEND
  0
POLYLINE
  8
0
 10
0
 20
0
 39
0
 70
1
 66
1
  0
VERTEX
  8
0
 10
169.34193420410156
 20
474.79998779296875
 42
-0
  0
VERTEX
  8
0
 10
192.390625
 20
474.79998779296875
 42
-0.011147454380989075
  0
VERTEX
  8
0
 10
195.76220703125
 20
495.22000122070312
 42
0.0094475224614143372
  0
VERTEX
  8
0
 10
206.22935485839844
 20
557.451416015625
 42
0.010234789922833443
  0
VERTEX
  8
0
 10
213.98208618164062
 20
617.75897216796875
 42
0.015223757363855839
  0
VERTEX
  8
0
 10
219.00137329101562
 20
684.0096435546875
 42
0.019391896203160286
  0
VERTEX
  8
0
 10
219.68711853027344
 20
761.2703857421875
 42
0.014485174790024757
  0
VERTEX
  8
0
 10
216.00123596191406
 20
825.02569580078125
 42
0.013210056349635124
  0
VERTEX
  8
0
 10
209.219970703125
 20
885.56182861328125
 42
0.008457675576210022
  0
VERTEX
  8
0
 10
199.46713256835937
 20
948.02191162109375
 42
0.0031471042893826962
  0
VERTEX
  8
0
 10
192.43695068359375
 20
986.48309326171875
 42
-0.046703245490789413
  0
VERTEX
  8
0
 10
192.390625
 20
989.1094970703125
 42
-0
  0
VERTEX
  8
0
 10
169.34193420410156
 20
989.1094970703125
 42
-0.011144493706524372
  0
VERTEX
  8
0
 10
165.97035217285156
 20
968.68951416015625
 42
0.0094475224614143372
  0
VERTEX
  8
0
 10
155.50320434570312
 20
906.45806884765625
 42
0.010234789922833443
  0
VERTEX
  8
0
 10
147.75045776367188
 20
846.1505126953125
 42
0.015223757363855839
  0
VERTEX
  8
0
 10
142.73118591308594
 20
779.89984130859375
 42
0.019390320405364037
  0
VERTEX
  8
0
 10
142.04542541503906
 20
702.63909912109375
 42
0.014485171064734459
  0
VERTEX
  8
0
 10
145.7313232421875
 20
638.8837890625
 42
0.013210054486989975
  0
VERTEX
  8
0
 10
152.51258850097656
 20
578.34765625
 42
0.0084576783701777458
  0
VERTEX
  8
0
 10
162.26541137695312
 20
515.88763427734375
 42
0.0031346138566732407
  0
VERTEX
  8
0
 10
169.29559326171875
 20
477.4263916015625
 42
-0.046706564724445343
  0
SEQEND
  0
POLYLINE
  8
0
 10
0
 20
0
 39
0
 70
1
 66
1
  0
VERTEX
  8
0
 10
215.74192810058594
 20
10.399999618530273
 42
-0
  0
VERTEX
  8
0
 10
238.79061889648437
 20
10.399999618530273
 42
-0.011147454380989075
  0
VERTEX
  8
0
 10
242.16220092773437
 20
30.819992065429687
 42
0.0094475224614143372
  0
VERTEX
  8
0
 10
252.62934875488281
 20
93.051445007324219
 42
0.010234789922833443
  0
VERTEX
  8
0
 10
260.382080078125
 20
153.35899353027344
 42
0.015223757363855839
  0
VERTEX
  8
0
 10
265.4013671875
 20
219.60966491699219
 42
0.019391896203160286
  0
VERTEX
  8
0
 10
266.08712768554687
 20
296.87039184570312
 42
0.014485174790024757
  0
VERTEX
  8
0
 10
262.4012451171875
 20
360.62570190429687
 42
0.013210056349635124
  0
VERTEX
  8
0
 10
255.61996459960938
 20
421.16183471679687
 42
0.008457675576210022
  0
VERTEX
  8
0
 10
245.86714172363281
 20
483.62188720703125
 42
0.0031471042893826962
  0
VERTEX
  8
0
 10
238.83695983886719
 20
522.0831298828125
 42
-0.046703245490789413
  0
VERTEX
  8
0
 10
238.79061889648437
 20
524.70953369140625
 42
-0
  0
VERTEX
  8
0
 10
215.74192810058594
 20
524.70953369140625
 42
-0.011144493706524372
  0
VERTEX
  8
0
 10
212.37034606933594
 20
504.28948974609375
 42
0.0094475224614143372
  0
VERTEX
  8
0
 10
201.9031982421875
 20
442.05804443359375
 42
0.010234789922833443
  0
VERTEX
  8
0
 10
194.15045166015625
 20
381.75048828125
 42
0.015223757363855839
  0
VERTEX
  8
0
 10
189.13117980957031
 20
315.49981689453125
 42
0.019390320405364037
  0
VERTEX
  8
0
 10
188.4454345703125
 20
238.23910522460937
 42
0.014485171064734459
  0
VERTEX
  8
0
 10
192.13131713867187
 20
174.48377990722656
 42
0.013210054486989975
  0
VERTEX
  8
0
 10
198.91258239746094
 20
113.94764709472656
 42
0.0084576783701777458
  0
VERTEX
  8
0
 10
208.66542053222656
 20
51.487617492675781
 42
0.0031346138566732407
  0
VERTEX
  8
0
 10
215.69560241699219
 20
13.02638053894043
 42
-0.046706564724445343
  0
SEQEND
  0
POLYLINE
  8
0
 10
0
 20
0
 39
0
 70
1
 66
1
  0
VERTEX
  8
0
 10
258.14193725585938
 20
474.79998779296875
 42
-0
  0
VERTEX
  8
0
 10
281.19061279296875
 20
474.79998779296875
 42
-0.011147454380989075
  0
VERTEX
  8
0
 10
284.56219482421875
 20
495.22000122070312
 42
0.0094475224614143372
  0
VERTEX
  8
0
 10
295.02935791015625
 20
557.451416015625
 42
0.010234789922833443
  0
VERTEX
  8
0
 10
302.7821044921875
 20
617.75897216796875
 42
0.015223757363855839
  0
VERTEX
  8
0
 10
307.80136108398437
 20
684.0096435546875
 42
0.019391896203160286
  0
VERTEX
  8
0
 10
308.48712158203125
 20
761.2703857421875
 42
0.014485174790024757
  0
VERTEX
  8
0
 10
304.80123901367187
 20
825.02569580078125
 42
0.013210056349635124
  0
VERTEX
  8
0
 10
298.01995849609375
 20
885.56182861328125
 42
0.008457675576210022
  0
VERTEX
  8
0
 10
288.26712036132812
 20
948.02191162109375
 42
0.0031471042893826962
  0
VERTEX
  8
0
 10
281.23696899414062
 20
986.48309326171875
 42
-0.046703245490789413
  0
VERTEX
  8
0
 10
281.19061279296875
 20
989.1094970703125
 42
-0
  0
VERTEX
  8
0
 10
258.14193725585938
 20
989.1094970703125
 42
-0.011144493706524372
  0
VERTEX
  8
0
 10
254.77035522460937
 20
968.68951416015625
 42
0.0094475224614143372
  0
VERTEX
  8
0
 10
244.30319213867187
 20
906.45806884765625
 42
0.010234789922833443
  0
VERTEX
  8
0
 10
236.55046081542969
 20
846.1505126953125
 42
0.015223757363855839
  0
VERTEX
  8
0
 10
231.53117370605469
 20
779.89984130859375
 42
0.019390320405364037
  0
VERTEX
  8
0
 10
230.84542846679687
 20
702.63909912109375
 42
0.014485171064734459
  0
VERTEX
  8
0
 10
234.53131103515625
 20
638.8837890625
 42
0.013210054486989975
  0
VERTEX
  8
0
 10
241.31257629394531
 20
578.34765625
 42
0.0084576783701777458
  0
VERTEX
  8
0
 10
251.06541442871094
 20
515.88763427734375
 42
0.0031346138566732407
  0
VERTEX
  8
0
 10
258.0955810546875
 20
477.4263916015625
 42
-0.046706564724445343
  0
SEQEND
  0
POLYLINE
  8
0
 10
0
 20
0
 39
0
 70
1
 66
1
  0
VERTEX
  8
0
 10
304.54193115234375
 20
10.399999618530273
 42
-0
  0
VERTEX
  8
0
 10
327.59060668945312
 20
10.399999618530273
 42
-0.011147454380989075
  0
VERTEX
  8
0
 10
330.96218872070312
 20
30.819992065429687
 42
0.0094475224614143372
  0
VERTEX
  8
0
 10
341.42935180664062
 20
93.051445007324219
 42
0.010234789922833443
  0
VERTEX
  8
0
 10
349.18209838867187
 20
153.35899353027344
 42
0.015223757363855839
  0
VERTEX
  8
0
 10
354.20138549804687
 20
219.60966491699219
 42
0.019391896203160286
  0
VERTEX
  8
0
 10
354.88711547851562
 20
296.87039184570312
 42
0.014485174790024757
  0
VERTEX
  8
0
 10
351.20123291015625
 20
360.62570190429687
 42
0.013210056349635124
  0
VERTEX
  8
0
 10
344.41998291015625
 20
421.16183471679687
 42
0.008457675576210022
  0
VERTEX
  8
0
 10
334.66714477539062
 20
483.62188720703125
 42
0.0031471042893826962
  0
VERTEX
  8
0
 10
327.636962890625
 20
522.0831298828125
 42
-0.046703245490789413
  0
VERTEX
  8
0
 10
327.59060668945312
 20
524.70953369140625
 42
-0
  0
VERTEX
  8
0
 10
304.54193115234375
 20
524.70953369140625
 42
-0.011144493706524372
  0
VERTEX
  8
0
 10
301.17034912109375
 20
504.28948974609375
 42
0.0094475224614143372
  0
VERTEX
  8
0
 10
290.70318603515625
 20
442.05804443359375
 42
0.010234789922833443
  0
VERTEX
  8
0
 10
282.95046997070312
 20
381.75048828125
 42
0.015223757363855839
  0
VERTEX
  8
0
 10
277.93118286132812
 20
315.49981689453125
 42
0.019390320405364037
  0
VERTEX
  8
0
 10
277.24542236328125
 20
238.23910522460937
 42
0.014485171064734459
  0
VERTEX
  8
0
 10
280.93130493164062
 20
174.48377990722656
 42
0.013210054486989975
  0
VERTEX
  8
0
 10
287.71258544921875
 20
113.94764709472656
 42
0.0084576783701777458
  0
VERTEX
  8
0
 10
297.46542358398437
 20
51.487617492675781
 42
0.0031346138566732407
  0
VERTEX
  8
0
 10
304.49560546875
 20
13.02638053894043
 42
-0.046706564724445343
  0
SEQEND
  0
POLYLINE
  8
0
 10
0
 20
0
 39
0
 70
1
 66
1
  0
VERTEX
  8
0
 10
346.94192504882812
 20
474.79998779296875
 42
-0
  0
VERTEX
  8
0
 10
369.99063110351562
 20
474.79998779296875
 42
-0.011147454380989075
  0
VERTEX
  8
0
 10
373.36221313476562
 20
495.22000122070312
 42
0.0094475224614143372
  0
VERTEX
  8
0
 10
383.829345703125
 20
557.451416015625
 42
0.010234789922833443
  0
VERTEX
  8
0
 10
391.58209228515625
 20
617.75897216796875
 42
0.015223757363855839
  0
VERTEX
  8
0
 10
396.60137939453125
 20
684.0096435546875
 42
0.019391896203160286
  0
VERTEX
  8
0
 10
397.287109375
 20
761.2703857421875
 42
0.014485174790024757
  0
VERTEX
  8
0
 10
393.60122680664062
 20
825.02569580078125
 42
0.013210056349635124
  0
VERTEX
  8
0
 10
386.81997680664062
 20
885.56182861328125
 42
0.008457675576210022
  0
VERTEX
  8
0
 10
377.067138671875
 20
948.02191162109375
 42
0.0031471042893826962
  0
VERTEX
  8
0
 10
370.03695678710937
 20
986.48309326171875
 42
-0.046703245490789413
  0
VERTEX
  8
0
 10
369.99063110351562
 20
989.1094970703125
 42
-0
  0
VERTEX
  8
0
 10
346.94192504882812
 20
989.1094970703125
 42
-0.011144493706524372
  0
VERTEX
  8
0
 10
343.57034301757812
 20
968.68951416015625
 42
0.0094475224614143372
  0
VERTEX
  8
0
 10
333.10321044921875
 20
906.45806884765625
 42
0.010234789922833443
  0
VERTEX
  8
0
 10
325.3504638671875
 20
846.1505126953125
 42
0.015223757363855839
  0
VERTEX
  8
0
 10
320.3311767578125
 20
779.89984130859375
 42
0.019390320405364037
  0
VERTEX
  8
0
 10
319.64544677734375
 20
702.63909912109375
 42
0.014485171064734459
  0
VERTEX
  8
0
 10
323.33132934570312
 20
638.8837890625
 42
0.013210054486989975
  0
VERTEX
  8
0
 10
330.11257934570312
 20
578.34765625
 42
0.0084576783701777458
  0
VERTEX
  8
0
 10
339.86541748046875
 20
515.88763427734375
 42
0.0031346138566732407
  0
VERTEX
  8
0
 10
346.89559936523437
 20
477.4263916015625
 42
-0.046706564724445343
  0
SEQEND
  0
POLYLINE
  8
0
 10
0
 20
0
 39
0
 70
1
 66
1
  0
VERTEX
  8
0
 10
393.3419189453125
 20
10.399999618530273
 42
-0
  0
VERTEX
  8
0
 10
416.390625
 20
10.399999618530273
 42
-0.011147454380989075
  0
VERTEX
  8
0
 10
419.76220703125
 20
30.819992065429687
 42
0.0094475224614143372
  0
VERTEX
  8
0
 10
430.22933959960937
 20
93.051445007324219
 42
0.010234789922833443
  0
VERTEX
  8
0
 10
437.98208618164062
 20
153.35899353027344
 42
0.015223757363855839
  0
VERTEX
  8
0
 10
443.00137329101562
 20
219.60966491699219
 42
0.019391896203160286
  0
VERTEX
  8
0
 10
443.68710327148437
 20
296.87039184570312
 42
0.014485174790024757
  0
VERTEX
  8
0
 10
440.001220703125
 20
360.62570190429687
 42
0.013210056349635124
  0
VERTEX
  8
0
 10
433.219970703125
 20
421.16183471679687
 42
0.008457675576210022
  0
VERTEX
  8
0
 10
423.46713256835937
 20
483.62188720703125
 42
0.0031471042893826962
  0
VERTEX
  8
0
 10
416.43695068359375
 20
522.0831298828125
 42
-0.046703245490789413
  0
VERTEX
  8
0
 10
416.390625
 20
524.70953369140625
 42
-0
  0
VERTEX
  8
0
 10
393.3419189453125
 20
524.70953369140625
 42
-0.011144493706524372
  0
VERTEX
  8
0
 10
389.9703369140625
 20
504.28948974609375
 42
0.0094475224614143372
  0
VERTEX
  8
0
 10
379.50320434570312
 20
442.05804443359375
 42
0.010234789922833443
  0
VERTEX
  8
0
 10
371.75045776367188
 20
381.75048828125
 42
0.015223757363855839
  0
VERTEX
  8
0
 10
366.73117065429687
 20
315.49981689453125
 42
0.019390320405364037
  0
VERTEX
  8
0
 10
366.04544067382812
 20
238.23910522460937
 42
0.014485171064734459
  0
VERTEX
  8
0
 10
369.7313232421875
 20
174.48377990722656
 42
0.013210054486989975
  0
VERTEX
  8
0
 10
376.5125732421875
 20
113.94764709472656
 42
0.0084576783701777458
  0
VERTEX
  8
0
 10
386.26541137695312
 20
51.487617492675781
 42
0.0031346138566732407
  0
VERTEX
  8
0
 10
393.29559326171875
 20
13.02638053894043
 42
-0.046706564724445343
  0
SEQEND
  0
POLYLINE
  8
0
 10
0
 20
0
 39
0
 70
1
 66
1
  0
VERTEX
  8
0
 10
435.741943359375
 20
474.79998779296875
 42
-0
  0
VERTEX
  8
0
 10
458.79061889648437
 20
474.79998779296875
 42
-0.011147454380989075
  0
VERTEX
  8
0
 10
462.16220092773437
 20
495.22000122070312
 42
0.0094475224614143372
  0
VERTEX
  8
0
 10
472.62936401367187
 20
557.451416015625
 42
0.010234789922833443
  0
VERTEX
  8
0
 10
480.382080078125
 20
617.75897216796875
 42
0.015223757363855839
  0
VERTEX
  8
0
 10
485.4013671875
 20
684.0096435546875
 42
0.019391896203160286
  0
VERTEX
  8
0
 10
486.08712768554687
 20
761.2703857421875
 42
0.014485174790024757
  0
VERTEX
  8
0
 10
482.4012451171875
 20
825.02569580078125
 42
0.013210056349635124
  0
VERTEX
  8
0
 10
475.61996459960937
 20
885.56182861328125
 42
0.008457675576210022
  0
VERTEX
  8
0
 10
465.86712646484375
 20
948.02191162109375
 42
0.0031471042893826962
  0
VERTEX
  8
0
 10
458.83694458007812
 20
986.48309326171875
 42
-0.046703245490789413
  0
VERTEX
  8
0
 10
458.79061889648437
 20
989.1094970703125
 42
-0
  0
VERTEX
  8
0
 10
435.741943359375
 20
989.1094970703125
 42
-0.011144493706524372
  0
VERTEX
  8
0
 10
432.370361328125
 20
968.68951416015625
 42
0.0094475224614143372
  0
VERTEX
  8
0
 10
421.9031982421875
 20
906.45806884765625
 42
0.010234789922833443
  0
VERTEX
  8
0
 10
414.15045166015625
 20
846.1505126953125
 42
0.015223757363855839
  0
VERTEX
  8
0
 10
409.13116455078125
 20
779.89984130859375
 42
0.019390320405364037
  0
VERTEX
  8
0
 10
408.4454345703125
 20
702.63909912109375
 42
0.014485171064734459
  0
VERTEX
  8
0
 10
412.13131713867187
 20
638.8837890625
 42
0.013210054486989975
  0
VERTEX
  8
0
 10
418.91259765625
 20
578.34765625
 42
0.0084576783701777458
  0
VERTEX
  8
0
 10
428.6654052734375
 20
515.88763427734375
 42
0.0031346138566732407
  0
VERTEX
  8
0
 10
435.69558715820312
 20
477.4263916015625
 42
-0.046706564724445343
  0
SEQEND
  0
POLYLINE
  8
0
 10
0
 20
0
 39
0
 70
1
 66
1
  0
VERTEX
  8
0
 10
482.14193725585937
 20
10.399999618530273
 42
-0
  0
VERTEX
  8
0
 10
505.19061279296875
 20
10.399999618530273
 42
-0.011147454380989075
  0
VERTEX
  8
0
 10
508.56219482421875
 20
30.819992065429687
 42
0.0094475224614143372
  0
VERTEX
  8
0
 10
519.02935791015625
 20
93.051445007324219
 42
0.010234789922833443
  0
VERTEX
  8
0
 10
526.7821044921875
 20
153.35899353027344
 42
0.015223757363855839
  0
VERTEX
  8
0
 10
531.8013916015625
 20
219.60966491699219
 42
0.019391896203160286
  0
VERTEX
  8
0
 10
532.48712158203125
 20
296.87039184570312
 42
0.014485174790024757
  0
VERTEX
  8
0
 10
528.80120849609375
 20
360.62570190429687
 42
0.013210056349635124
  0
VERTEX
  8
0
 10
522.01995849609375
 20
421.16183471679687
 42
0.008457675576210022
  0
VERTEX
  8
0
 10
512.26715087890625
 20
483.62188720703125
 42
0.0031471042893826962
  0
VERTEX
  8
0
 10
505.23696899414062
 20
522.0831298828125
 42
-0.046703245490789413
  0
VERTEX
  8
0
 10
505.19061279296875
 20
524.70953369140625
 42
-0
  0
VERTEX
  8
0
 10
482.14193725585937
 20
524.70953369140625
 42
-0.011144493706524372
  0
VERTEX
  8
0
 10
478.77035522460937
 20
504.28948974609375
 42
0.0094475224614143372
  0
VERTEX
  8
0
 10
468.30319213867187
 20
442.05804443359375
 42
0.010234789922833443
  0
VERTEX
  8
0
 10
460.55044555664062
 20
381.75048828125
 42
0.015223757363855839
  0
VERTEX
  8
0
 10
455.53118896484375
 20
315.49981689453125
 42
0.019390320405364037
  0
VERTEX
  8
0
 10
454.84542846679688
 20
238.23910522460937
 42
0.014485171064734459
  0
VERTEX
  8
0
 10
458.53131103515625
 20
174.48377990722656
 42
0.013210054486989975
  0
VERTEX
  8
0
 10
465.31259155273437
 20
113.94764709472656
 42
0.0084576783701777458
  0
VERTEX
  8
0
 10
475.0654296875
 20
51.487617492675781
 42
0.0031346138566732407
  0
VERTEX
  8
0
 10
482.0955810546875
 20
13.02638053894043
 42
-0.046706564724445343
  0
SEQEND
  0
POLYLINE
  8
0
 10
0
 20
0
 39
0
 70
1
 66
1
  0
VERTEX
  8
0
 10
524.54193115234375
 20
474.79998779296875
 42
-0
  0
VERTEX
  8
0
 10
547.59063720703125
 20
474.79998779296875
 42
-0.011147454380989075
  0
VERTEX
  8
0
 10
550.96221923828125
 20
495.22000122070312
 42
0.0094475224614143372
  0
VERTEX
  8
0
 10
561.42938232421875
 20
557.451416015625
 42
0.010234789922833443
  0
VERTEX
  8
0
 10
569.18206787109375
 20
617.75897216796875
 42
0.015223757363855839
  0
VERTEX
  8
0
 10
574.20135498046875
 20
684.0096435546875
 42
0.019391896203160286
  0
VERTEX
  8
0
 10
574.88714599609375
 20
761.2703857421875
 42
0.014485174790024757
  0
VERTEX
  8
0
 10
571.20123291015625
 20
825.02569580078125
 42
0.013210056349635124
  0
VERTEX
  8
0
 10
564.41998291015625
 20
885.56182861328125
 42
0.008457675576210022
  0
VERTEX
  8
0
 10
554.6671142578125
 20
948.02191162109375
 42
0.0031471042893826962
  0
VERTEX
  8
0
 10
547.636962890625
 20
986.48309326171875
 42
-0.046703245490789413
  0
VERTEX
  8
0
 10
547.59063720703125
 20
989.1094970703125
 42
-0
  0
VERTEX
  8
0
 10
524.54193115234375
 20
989.1094970703125
 42
-0.011144493706524372
  0
VERTEX
  8
0
 10
521.17034912109375
 20
968.68951416015625
 42
0.0094475224614143372
  0
VERTEX
  8
0
 10
510.70318603515625
 20
906.45806884765625
 42
0.010234789922833443
  0
VERTEX
  8
0
 10
502.95046997070313
 20
846.1505126953125
 42
0.015223757363855839
  0
VERTEX
  8
0
 10
497.93118286132813
 20
779.89984130859375
 42
0.019390320405364037
  0
VERTEX
  8
0
 10
497.24542236328125
 20
702.63909912109375
 42
0.014485171064734459
  0
VERTEX
  8
0
 10
500.93130493164063
 20
638.8837890625
 42
0.013210054486989975
  0
VERTEX
  8
0
 10
507.71258544921875
 20
578.34765625
 42
0.0084576783701777458
  0
VERTEX
  8
0
 10
517.46539306640625
 20
515.88763427734375
 42
0.0031346138566732407
  0
VERTEX
  8
0
 10
524.49560546875
 20
477.4263916015625
 42
-0.046706564724445343
  0
SEQEND
  0
POLYLINE
  8
0
 10
0
 20
0
 39
0
 70
1
 66
1
  0
VERTEX
  8
0
 10
543.20001220703125
 20
298.18450927734375
 42
0
  0
VERTEX
  8
0
 10
543.20001220703125
 20
113.18450164794922
 42
0
  0
VERTEX
  8
0
 10
681.5789794921875
 20
207.68423461914062
 42
0
  0
SEQEND
  0
POLYLINE
  8
0
 10
0
 20
0
 39
0
 70
1
 66
1
  0
VERTEX
  8
0
 10
681.5789794921875
 20
10.399999618530273
 42
0
  0
VERTEX
  8
0
 10
681.5789794921875
 20
195.39999389648437
 42
0
  0
VERTEX
  8
0
 10
543.20001220703125
 20
100.90026092529297
 42
0
  0
SEQEND
  0
POLYLINE
  8
0
 10
0
 20
0
 39
0
 70
1
 66
1
  0
VERTEX
  8
0
 10
561.79998779296875
 20
495.9844970703125
 42
0
  0
VERTEX
  8
0
 10
561.79998779296875
 20
310.9844970703125
 42
0
  0
VERTEX
  8
0
 10
700.178955078125
 20
405.4842529296875
 42
0
  0
SEQEND
  0
POLYLINE
  8
0
 10
0
 20
0
 39
0
 70
1
 66
1
  0
VERTEX
  8
0
 10
700.178955078125
 20
208.19999694824219
 42
0
  0
VERTEX
  8
0
 10
700.178955078125
 20
393.20001220703125
 42
0
  0
VERTEX
  8
0
 10
561.79998779296875
 20
298.70025634765625
 42
0
  0
SEQEND
  0
POLYLINE
  8
0
 10
0
 20
0
 39
0
 70
1
 66
1
  0
VERTEX
  8
0
 10
584
 20
987.384521484375
 42
0
  0
VERTEX
  8
0
 10
584
 20
802.384521484375
 42
0
  0
VERTEX
  8
0
 10
722.37896728515625
 20
896.88421630859375
 42
0
  0
SEQEND
  0
POLYLINE
  8
0
 10
0
 20
0
 39
0
 70
1
 66
1
  0
VERTEX
  8
0
 10
722.37896728515625
 20
699.5999755859375
 42
0
  0
VERTEX
  8
0
 10
722.37896728515625
 20
884.5999755859375
 42
0
  0
VERTEX
  8
0
 10
584
 20
790.10028076171875
 42
0
  0
SEQEND
  0
POLYLINE
  8
0
 10
0
 20
0
 39
0
 70
1
 66
1
  0
VERTEX
  8
0
 10
584.79998779296875
 20
690.78448486328125
 42
0
  0
VERTEX
  8
0
 10
584.79998779296875
 20
505.78448486328125
 42
0
  0
VERTEX
  8
0
 10
723.178955078125
 20
600.28424072265625
 42
0
  0
SEQEND
  0
POLYLINE
  8
0
 10
0
 20
0
 39
0
 70
1
 66
1
  0
VERTEX
  8
0
 10
723.178955078125
 20
403
 42
0
  0
VERTEX
  8
0
 10
723.178955078125
 20
588
 42
0
  0
VERTEX
  8
0
 10
584.79998779296875
 20
493.500244140625
 42
0
  0
SEQEND
  0
POLYLINE
  8
0
 10
0
 20
0
 39
0
 70
1
 66
1
  0
VERTEX
  8
0
 10
710.4000244140625
 20
298.18450927734375
 42
0
  0
VERTEX
  8
0
 10
710.4000244140625
 20
113.18450164794922
 42
0
  0
VERTEX
  8
0
 10
848.7789306640625
 20
207.68423461914062
 42
0
  0
SEQEND
  0
POLYLINE
  8
0
 10
0
 20
0
 39
0
 70
1
 66
1
  0
VERTEX
  8
0
 10
848.7789306640625
 20
10.399999618530273
 42
0
  0
VERTEX
  8
0
 10
848.7789306640625
 20
195.39999389648437
 42
0
  0
VERTEX
  8
0
 10
710.4000244140625
 20
100.90026092529297
 42
0
  0
SEQEND
  0
POLYLINE
  8
0
 10
0
 20
0
 39
0
 70
1
 66
1
  0
VERTEX
  8
0
 10
732.5999755859375
 20
790.18450927734375
 42
0
  0
VERTEX
  8
0
 10
732.5999755859375
 20
605.18450927734375
 42
0
  0
VERTEX
  8
0
 10
870.97894287109375
 20
699.68426513671875
 42
0
  0
SEQEND
  0
POLYLINE
  8
0
 10
0
 20
0
 39
0
 70
1
 66
1
  0
VERTEX
  8
0
 10
870.97894287109375
 20
502.39999389648437
 42
0
  0
VERTEX
  8
0
 10
870.97894287109375
 20
687.4000244140625
 42
0
  0
VERTEX
  8
0
 10
732.5999755859375
 20
592.9002685546875
 42
0
  0
SEQEND
  0
POLYLINE
  8
0
 10
0
 20
0
 39
0
 70
1
 66
1
  0
VERTEX
  8
0
 10
733.4000244140625
 20
492.9844970703125
 42
0
  0
VERTEX
  8
0
 10
733.4000244140625
 20
307.9844970703125
 42
0
  0
VERTEX
  8
0
 10
871.7789306640625
 20
402.4842529296875
 42
0
  0
SEQEND
  0
POLYLINE
  8
0
 10
0
 20
0
 39
0
 70
1
 66
1
  0
VERTEX
  8
0
 10
871.7789306640625
 20
205.19999694824219
 42
0
  0
VERTEX
  8
0
 10
871.7789306640625
 20
390.20001220703125
 42
0
  0
VERTEX
  8
0
 10
733.4000244140625
 20
295.70025634765625
 42
0
  0
SEQEND
  0
POLYLINE
  8
0
 10
0
 20
0
 39
0
 70
1
 66
1
  0
VERTEX
  8
0
 10
748.20001220703125
 20
989.78448486328125
 42
0
  0
VERTEX
  8
0
 10
748.20001220703125
 20
804.78448486328125
 42
0
  0
VERTEX
  8
0
 10
886.5789794921875
 20
899.28424072265625
 42
0
  0
SEQEND
  0
POLYLINE
  8
0
 10
0
 20
0
 39
0
 70
1
 66
1
  0
VERTEX
  8
0
 10
886.5789794921875
 20
702
 42
0
  0
VERTEX
  8
0
 10
886.5789794921875
 20
887
 42
0
  0
VERTEX
  8
0
 10
748.20001220703125
 20
792.500244140625
 42
0
  0
SEQEND
  0
POLYLINE
  8
0
 10
0
 20
0
 39
0
 70
1
 66
1
  0
VERTEX
  8
0
 10
881.20001220703125
 20
592.384521484375
 42
0
  0
VERTEX
  8
0
 10
881.20001220703125
 20
407.38449096679687
 42
0
  0
VERTEX
  8
0
 10
1019.5789794921875
 20
501.88424682617187
 42
0
  0
SEQEND
  0
POLYLINE
  8
0
 10
0
 20
0
 39
0
 70
1
 66
1
  0
VERTEX
  8
0
 10
1019.5789794921875
 20
304.60000610351562
 42
0
  0
VERTEX
  8
0
 10
1019.5789794921875
 20
489.60000610351562
 42
0
  0
VERTEX
  8
0
 10
881.20001220703125
 20
395.10025024414062
 42
0
  0
SEQEND
  0
POLYLINE
  8
0
 10
0
 20
0
 39
0
 70
1
 66
1
  0
VERTEX
  8
0
 10
882
 20
298.18450927734375
 42
0
  0
VERTEX
  8
0
 10
882
 20
113.18450164794922
 42
0
  0
VERTEX
  8
0
 10
1020.3789672851562
 20
207.68423461914062
 42
0
  0
SEQEND
  0
POLYLINE
  8
0
 10
0
 20
0
 39
0
 70
1
 66
1
  0
VERTEX
  8
0
 10
1020.3789672851562
 20
10.399999618530273
 42
0
  0
VERTEX
  8
0
 10
1020.3789672851562
 20
195.39999389648437
 42
0
  0
VERTEX
  8
0
 10
882
 20
100.90026092529297
 42
0
  0
SEQEND
  0
POLYLINE
  8
0
 10
0
 20
0
 39
0
 70
1
 66
1
  0
VERTEX
  8
0
 10
896.79998779296875
 20
791.9844970703125
 42
0
  0
VERTEX
  8
0
 10
896.79998779296875
 20
606.9844970703125
 42
0
  0
VERTEX
  8
0
 10
1035.178955078125
 20
701.4842529296875
 42
0
  0
SEQEND
  0
POLYLINE
  8
0
 10
0
 20
0
 39
0
 70
1
 66
1
  0
VERTEX
  8
0
 10
1035.178955078125
 20
504.20001220703125
 42
0
  0
VERTEX
  8
0
 10
1035.178955078125
 20
689.20001220703125
 42
0
  0
VERTEX
  8
0
 10
896.79998779296875
 20
594.70025634765625
 42
0
  0
SEQEND
  0
POLYLINE
  8
0
 10
0
 20
0
 39
0
 70
1
 66
1
  0
VERTEX
  8
0
 10
915.20001220703125
 20
989.78448486328125
 42
0
  0
VERTEX
  8
0
 10
915.20001220703125
 20
804.78448486328125
 42
0
  0
VERTEX
  8
0
 10
1053.5789794921875
 20
899.28424072265625
 42
0
  0
SEQEND
  0
POLYLINE
  8
0
 10
0
 20
0
 39
0
 70
1
 66
1
  0
VERTEX
  8
0
 10
1053.5789794921875
 20
702
 42
0
  0
VERTEX
  8
0
 10
1053.5789794921875
 20
887
 42
0
  0
VERTEX
  8
0
 10
915.20001220703125
 20
792.500244140625
 42
0
  0
SEQEND
  0
POLYLINE
  8
0
 10
0
 20
0
 39
0
 70
1
 66
1
  0
VERTEX
  8
0
 10
1029.800048828125
 20
397.58450317382812
 42
0
  0
VERTEX
  8
0
 10
1029.800048828125
 20
212.58450317382812
 42
0
  0
VERTEX
  8
0
 10
1168.178955078125
 20
307.084228515625
 42
0
  0
SEQEND
  0
POLYLINE
  8
0
 10
0
 20
0
 39
0
 70
1
 66
1
  0
VERTEX
  8
0
 10
1168.178955078125
 20
109.80000305175781
 42
0
  0
VERTEX
  8
0
 10
1168.178955078125
 20
294.79998779296875
 42
0
  0
VERTEX
  8
0
 10
1029.800048828125
 20
200.30026245117187
 42
0
  0
SEQEND
  0
POLYLINE
  8
0
 10
0
 20
0
 39
0
 70
1
 66
1
  0
VERTEX
  8
0
 10
1045.4000244140625
 20
413.60000610351562
 42
0.83103597164154053
  0
VERTEX
  8
0
 10
1093.7255859375
 20
404.60464477539062
 42
0
  0
VERTEX
  8
0
 10
1145.4000244140625
 20
538.5999755859375
 42
0
  0
VERTEX
  8
0
 10
1145.4000244140625
 20
644.5999755859375
 42
0
  0
VERTEX
  8
0
 10
1045.4000244140625
 20
644.5999755859375
 42
0
  0
SEQEND
  0
POLYLINE
  8
0
 10
0
 20
0
 39
0
 70
1
 66
1
  0
VERTEX
  8
0
 10
1163.800048828125
 20
885.79998779296875
 42
0.83103597164154053
  0
VERTEX
  8
0
 10
1115.474365234375
 20
894.79534912109375
 42
0
  0
VERTEX
  8
0
 10
1063.800048828125
 20
760.79998779296875
 42
0
  0
VERTEX
  8
0
 10
1063.800048828125
 20
654.79998779296875
 42
0
  0
VERTEX
  8
0
 10
1163.800048828125
 20
654.79998779296875
 42
0
  0
SEQEND
  0
POLYLINE
  8
0
 10
0
 20
0
 39
0
 70
1
 66
1
  0
VERTEX
  8
0
 10
1224.199951171875
 20
579.4000244140625
 42
0.83103597164154053
  0
VERTEX
  8
0
 10
1175.8743896484375
 20
588.3953857421875
 42
0
  0
VERTEX
  8
0
 10
1124.199951171875
 20
454.39999389648437
 42
0
  0
VERTEX
  8
0
 10
1124.199951171875
 20
348.39999389648437
 42
0
  0
VERTEX
  8
0
 10
1224.199951171875
 20
348.39999389648437
 42
0
  0
SEQEND
  0
POLYLINE
  8
0
 10
0
 20
0
 39
0
 70
1
 66
1
  0
VERTEX
  8
0
 10
1274.199951171875
 20
845.5999755859375
 42
0.83103597164154053
  0
VERTEX
  8
0
 10
1225.8743896484375
 20
854.5953369140625
 42
0
  0
VERTEX
  8
0
 10
1174.199951171875
 20
720.5999755859375
 42
0
  0
VERTEX
  8
0
 10
1174.199951171875
 20
614.5999755859375
 42
0
  0
VERTEX
  8
0
 10
1274.199951171875
 20
614.5999755859375
 42
0
  0
SEQEND
  0
POLYLINE
  8
0
 10
0
 20
0
 39
0
 70
1
 66
1
  0
VERTEX
  8
0
 10
1278.4000244140625
 20
241.39999389648437
 42
0.83103597164154053
  0
VERTEX
  8
0
 10
1230.0743408203125
 20
250.39535522460937
 42
0
  0
VERTEX
  8
0
 10
1178.4000244140625
 20
116.40000152587891
 42
0
  0
VERTEX
  8
0
 10
1178.4000244140625
 20
10.399999618530273
 42
0
  0
VERTEX
  8
0
 10
1278.4000244140625
 20
10.399999618530273
 42
0
  0
SEQEND
  0
POLYLINE
  8
0
 10
0
 20
0
 39
0
 70
1
 66
1
  0
VERTEX
  8
0
 10
1102.800048828125
 20
989.5999755859375
 42
0.83103597164154053
  0
VERTEX
  8
0
 10
1093.8046875
 20
941.2744140625
 42
0
  0
VERTEX
  8
0
 10
1227.800048828125
 20
889.5999755859375
 42
0
  0
VERTEX
  8
0
 10
1333.800048828125
 20
889.5999755859375
 42
0
  0
VERTEX
  8
0
 10
1333.800048828125
 20
989.5999755859375
 42
0
  0
SEQEND
  0
POLYLINE
  8
0
 10
0
 20
0
 39
0
 70
1
 66
1
  0
VERTEX
  8
0
 10
1334.5999755859375
 20
507.60000610351562
 42
0.83103597164154053
  0
VERTEX
  8
0
 10
1286.2744140625
 20
516.5953369140625
 42
0
  0
VERTEX
  8
0
 10
1234.5999755859375
 20
382.60000610351562
 42
0
  0
VERTEX
  8
0
 10
1234.5999755859375
 20
276.60000610351562
 42
0
  0
VERTEX
  8
0
 10
1334.5999755859375
 20
276.60000610351562
 42
0
  0
SEQEND
  0
POLYLINE
  8
0
 10
0
 20
0
 39
0
 70
1
 66
1
  0
VERTEX
  8
0
 10
1384.5999755859375
 20
773.79998779296875
 42
0.83103597164154053
  0
VERTEX
  8
0
 10
1336.2744140625
 20
782.79534912109375
 42
0
  0
VERTEX
  8
0
 10
1284.5999755859375
 20
648.79998779296875
 42
0
  0
VERTEX
  8
0
 10
1284.5999755859375
 20
542.79998779296875
 42
0
  0
VERTEX
  8
0
 10
1384.5999755859375
 20
542.79998779296875
 42
0
  0
SEQEND
  0
POLYLINE
  8
0
 10
0
 20
0
 39
0
 70
1
 66
1
  0
VERTEX
  8
0
 10
1388.800048828125
 20
241.39999389648437
 42
0.83103597164154053
  0
VERTEX
  8
0
 10
1340.474365234375
 20
250.39535522460937
 42
0
  0
VERTEX
  8
0
 10
1288.800048828125
 20
116.40000152587891
 42
0
  0
VERTEX
  8
0
 10
1288.800048828125
 20
10.399999618530273
 42
0
  0
VERTEX
  8
0
 10
1388.800048828125
 20
10.399999618530273
 42
0
  0
SEQEND
  0
POLYLINE
  8
0
 10
0
 20
0
 39
0
 70
1
 66
1
  0
VERTEX
  8
0
 10
1445
 20
507.60000610351562
 42
0.83103597164154053
  0
VERTEX
  8
0
 10
1396.6744384765625
 20
516.5953369140625
 42
0
  0
VERTEX
  8
0
 10
1345
 20
382.60000610351562
 42
0
  0
VERTEX
  8
0
 10
1345
 20
276.60000610351562
 42
0
  0
VERTEX
  8
0
 10
1445
 20
276.60000610351562
 42
0
  0
SEQEND
  0
POLYLINE
  8
0
 10
0
 20
0
 39
0
 70
1
 66
1
  0
VERTEX
  8
0
 10
1495
 20
773.79998779296875
 42
0.83103597164154053
  0
VERTEX
  8
0
 10
1446.6744384765625
 20
782.79534912109375
 42
0
  0
VERTEX
  8
0
 10
1395
 20
648.79998779296875
 42
0
  0
VERTEX
  8
0
 10
1395
 20
542.79998779296875
 42
0
  0
VERTEX
  8
0
 10
1495
 20
542.79998779296875
 42
0
  0
SEQEND
  0
POLYLINE
  8
0
 10
0
 20
0
 39
0
 70
1
 66
1
  0
VERTEX
  8
0
 10
1499.199951171875
 20
241.39999389648437
 42
0.83103597164154053
  0
VERTEX
  8
0
 10
1450.8743896484375
 20
250.39535522460937
 42
0
  0
VERTEX
  8
0
 10
1399.199951171875
 20
116.40000152587891
 42
0
  0
VERTEX
  8
0
 10
1399.199951171875
 20
10.399999618530273
 42
0
  0
VERTEX
  8
0
 10
1499.199951171875
 20
10.399999618530273
 42
0
  0
SEQEND
  0
POLYLINE
  8
0
 10
0
 20
0
 39
0
 70
1
 66
1
  0
VERTEX
  8
0
 10
1418.5975341796875
 20
981.30133056640625
 42
-0
  0
VERTEX
  8
0
 10
1344.199951171875
 20
942.30133056640625
 42
-0
  0
VERTEX
  8
0
 10
1489.5975341796875
 20
859.6285400390625
 42
-0
  0
VERTEX
  8
0
 10
1489.5975341796875
 20
981.30133056640625
 42
-0
  0
SEQEND
  0
POLYLINE
  8
0
 10
0
 20
0
 39
0
 70
1
 66
1
  0
VERTEX
  8
0
 10
1415.199951171875
 20
809
 42
-0
  0
VERTEX
  8
0
 10
1489.5975341796875
 20
848
 42
-0
  0
VERTEX
  8
0
 10
1344.199951171875
 20
930.67279052734375
 42
-0
  0
VERTEX
  8
0
 10
1344.199951171875
 20
809
 42
-0
  0
SEQEND
  0
POLYLINE
  8
0
 10
0
 20
0
 39
0
 70
1
 66
1
  0
VERTEX
  8
0
 10
1529.797607421875
 20
448.90133666992187
 42
-0
  0
VERTEX
  8
0
 10
1455.4000244140625
 20
409.90133666992187
 42
-0
  0
VERTEX
  8
0
 10
1600.797607421875
 20
327.22854614257813
 42
-0
  0
VERTEX
  8
0
 10
1600.797607421875
 20
448.90133666992187
 42
-0
  0
SEQEND
  0
POLYLINE
  8
0
 10
0
 20
0
 39
0
 70
1
 66
1
  0
VERTEX
  8
0
 10
1526.4000244140625
 20
276.60000610351562
 42
-0
  0
VERTEX
  8
0
 10
1600.797607421875
 20
315.60000610351562
 42
-0
  0
VERTEX
  8
0
 10
1455.4000244140625
 20
398.27279663085937
 42
-0
  0
VERTEX
  8
0
 10
1455.4000244140625
 20
276.60000610351562
 42
-0
  0
SEQEND
  0
POLYLINE
  8
0
 10
0
 20
0
 39
0
 70
1
 66
1
  0
VERTEX
  8
0
 10
1574.1976318359375
 20
965.5013427734375
 42
-0
  0
VERTEX
  8
0
 10
1499.800048828125
 20
926.5013427734375
 42
-0
  0
VERTEX
  8
0
 10
1645.1976318359375
 20
843.82855224609375
 42
-0
  0
VERTEX
  8
0
 10
1645.1976318359375
 20
965.5013427734375
 42
-0
  0
SEQEND
  0
POLYLINE
  8
0
 10
0
 20
0
 39
0
 70
1
 66
1
  0
VERTEX
  8
0
 10
1570.800048828125
 20
793.20001220703125
 42
-0
  0
VERTEX
  8
0
 10
1645.1976318359375
 20
832.20001220703125
 42
-0
  0
VERTEX
  8
0
 10
1499.800048828125
 20
914.872802734375
 42
-0
  0
VERTEX
  8
0
 10
1499.800048828125
 20
793.20001220703125
 42
-0
  0
SEQEND
  0
POLYLINE
  8
0
 10
0
 20
0
 39
0
 70
1
 66
1
  0
VERTEX
  8
0
 10
1579.797607421875
 20
631.30133056640625
 42
-0
  0
VERTEX
  8
0
 10
1505.4000244140625
 20
592.30133056640625
 42
-0
  0
VERTEX
  8
0
 10
1650.797607421875
 20
509.6285400390625
 42
-0
  0
VERTEX
  8
0
 10
1650.797607421875
 20
631.30133056640625
 42
-0
  0
SEQEND
  0
POLYLINE
  8
0
 10
0
 20
0
 39
0
 70
1
 66
1
  0
VERTEX
  8
0
 10
1576.4000244140625
 20
459
 42
-0
  0
VERTEX
  8
0
 10
1650.797607421875
 20
498
 42
-0
  0
VERTEX
  8
0
 10
1505.4000244140625
 20
580.67279052734375
 42
-0
  0
VERTEX
  8
0
 10
1505.4000244140625
 20
459
 42
-0
  0
SEQEND
  0
POLYLINE
  8
0
 10
0
 20
0
 39
0
 70
1
 66
1
  0
VERTEX
  8
0
 10
1583.99755859375
 20
182.70133972167969
 42
-0
  0
VERTEX
  8
0
 10
1509.5999755859375
 20
143.70133972167969
 42
-0
  0
VERTEX
  8
0
 10
1654.99755859375
 20
61.028533935546875
 42
-0
  0
VERTEX
  8
0
 10
1654.99755859375
 20
182.70133972167969
 42
-0
  0
SEQEND
  0
POLYLINE
  8
0
 10
0
 20
0
 39
0
 70
1
 66
1
  0
VERTEX
  8
0
 10
1580.5999755859375
 20
10.399999618530273
 42
-0
  0
VERTEX
  8
0
 10
1654.99755859375
 20
49.400001525878906
 42
-0
  0
VERTEX
  8
0
 10
1509.5999755859375
 20
132.07279968261719
 42
-0
  0
VERTEX
  8
0
 10
1509.5999755859375
 20
10.399999618530273
 42
-0
  0
SEQEND
  0
POLYLINE
  8
0
 10
0
 20
0
 39
0
 70
1
 66
1
  0
VERTEX
  8
0
 10
1632.5975341796875
 20
813.70135498046875
 42
-0
  0
VERTEX
  8
0
 10
1558.199951171875
 20
774.70135498046875
 42
-0
  0
VERTEX
  8
0
 10
1703.5975341796875
 20
692.02850341796875
 42
-0
  0
VERTEX
  8
0
 10
1703.5975341796875
 20
813.70135498046875
 42
-0
  0
SEQEND
  0
POLYLINE
  8
0
 10
0
 20
0
 39
0
 70
1
 66
1
  0
VERTEX
  8
0
 10
1629.199951171875
 20
641.4000244140625
 42
-0
  0
VERTEX
  8
0
 10
1703.5975341796875
 20
680.4000244140625
 42
-0
  0
VERTEX
  8
0
 10
1558.199951171875
 20
763.07281494140625
 42
-0
  0
VERTEX
  8
0
 10
1558.199951171875
 20
641.4000244140625
 42
-0
  0
SEQEND
  0
POLYLINE
  8
0
 10
0
 20
0
 39
0
 70
1
 66
1
  0
VERTEX
  8
0
 10
1699
 20
518.5999755859375
 42
0
  0
VERTEX
  8
0
 10
1661
 20
513.5999755859375
 42
0
  0
VERTEX
  8
0
 10
1661
 20
191.60000610351562
 42
-0
  0
VERTEX
  8
0
 10
1699
 20
196.60000610351562
 42
0
  0
SEQEND
  0
POLYLINE
  8
0
 10
0
 20
0
 39
0
 70
1
 66
1
  0
VERTEX
  8
0
 10
1747.4000244140625
 20
337.39999389648437
 42
0
  0
VERTEX
  8
0
 10
1709.4000244140625
 20
332.39999389648437
 42
0
  0
VERTEX
  8
0
 10
1709.4000244140625
 20
10.399999618530273
 42
-0
  0
VERTEX
  8
0
 10
1747.4000244140625
 20
15.399999618530273
 42
0
  0
SEQEND
  0
POLYLINE
  8
0
 10
0
 20
0
 39
0
 70
1
 66
1
  0
VERTEX
  8
0
 10
1747.4000244140625
 20
670.20001220703125
 42
0
  0
VERTEX
  8
0
 10
1709.4000244140625
 20
665.20001220703125
 42
0
  0
VERTEX
  8
0
 10
1709.4000244140625
 20
343.20001220703125
 42
-0
  0
VERTEX
  8
0
 10
1747.4000244140625
 20
348.20001220703125
 42
0
  0
SEQEND
  0
POLYLINE
  8
0
 10
0
 20
0
 39
0
 70
1
 66
1
  0
VERTEX
  8
0
 10
1795.800048828125
 20
337.39999389648437
 42
0
  0
VERTEX
  8
0
 10
1757.800048828125
 20
332.39999389648437
 42
0
  0
VERTEX
  8
0
 10
1757.800048828125
 20
10.399999618530273
 42
-0
  0
VERTEX
  8
0
 10
1795.800048828125
 20
15.399999618530273
 42
0
  0
SEQEND
  0
POLYLINE
  8
0
 10
0
 20
0
 39
0
 70
1
 66
1
  0
VERTEX
  8
0
 10
1795.800048828125
 20
670.20001220703125
 42
0
  0
VERTEX
  8
0
 10
1757.800048828125
 20
665.20001220703125
 42
0
  0
VERTEX
  8
0
 10
1757.800048828125
 20
343.20001220703125
 42
-0
  0
VERTEX
  8
0
 10
1795.800048828125
 20
348.20001220703125
 42
0
  0
SEQEND
  0
POLYLINE
  8
0
 10
0
 20
0
 39
0
 70
1
 66
1
  0
VERTEX
  8
0
 10
1844.199951171875
 20
337.39999389648437
 42
0
  0
VERTEX
  8
0
 10
1806.199951171875
 20
332.39999389648437
 42
0
  0
VERTEX
  8
0
 10
1806.199951171875
 20
10.399999618530273
 42
-0
  0
VERTEX
  8
0
 10
1844.199951171875
 20
15.399999618530273
 42
0
  0
SEQEND
  0
POLYLINE
  8
0
 10
0
 20
0
 39
0
 70
1
 66
1
  0
VERTEX
  8
0
 10
1844.199951171875
 20
670.20001220703125
 42
0
  0
VERTEX
  8
0
 10
1806.199951171875
 20
665.20001220703125
 42
0
  0
VERTEX
  8
0
 10
1806.199951171875
 20
343.20001220703125
 42
-0
  0
VERTEX
  8
0
 10
1844.199951171875
 20
348.20001220703125
 42
0
  0
SEQEND
  0
POLYLINE
  8
0
 10
0
 20
0
 39
0
 70
1
 66
1
  0
VERTEX
  8
0
 10
1892.5999755859375
 20
337.39999389648437
 42
0
  0
VERTEX
  8
0
 10
1854.5999755859375
 20
332.39999389648437
 42
0
  0
VERTEX
  8
0
 10
1854.5999755859375
 20
10.399999618530273
 42
-0
  0
VERTEX
  8
0
 10
1892.5999755859375
 20
15.399999618530273
 42
0
  0
SEQEND
  0
POLYLINE
  8
0
 10
0
 20
0
 39
0
 70
1
 66
1
  0
VERTEX
  8
0
 10
1892.5999755859375
 20
670.20001220703125
 42
0
  0
VERTEX
  8
0
 10
1854.5999755859375
 20
665.20001220703125
 42
0
  0
VERTEX
  8
0
 10
1854.5999755859375
 20
343.20001220703125
 42
-0
  0
VERTEX
  8
0
 10
1892.5999755859375
 20
348.20001220703125
 42
0
  0
SEQEND
  0
POLYLINE
  8
0
 10
0
 20
0
 39
0
 70
1
 66
1
  0
VERTEX
  8
0
 10
1941
 20
337.39999389648437
 42
0
  0
VERTEX
  8
0
 10
1903
 20
332.39999389648437
 42
0
  0
VERTEX
  8
0
 10
1903
 20
10.399999618530273
 42
-0
  0
VERTEX
  8
0
 10
1941
 20
15.399999618530273
 42
0
  0
SEQEND
  0
POLYLINE
  8
0
 10
0
 20
0
 39
0
 70
1
 66
1
  0
VERTEX
  8
0
 10
1941
 20
670.20001220703125
 42
0
  0
VERTEX
  8
0
 10
1903
 20
665.20001220703125
 42
0
  0
VERTEX
  8
0
 10
1903
 20
343.20001220703125
 42
-0
  0
VERTEX
  8
0
 10
1941
 20
348.20001220703125
 42
0
  0
SEQEND
  0
POLYLINE
  8
0
 10
0
 20
0
 39
0
 70
1
 66
1
  0
VERTEX
  8
0
 10
1652.800048828125
 20
988.5999755859375
 42
0
  0
VERTEX
  8
0
 10
1657.800048828125
 20
950.5999755859375
 42
0
  0
VERTEX
  8
0
 10
1979.800048828125
 20
950.5999755859375
 42
-0
  0
VERTEX
  8
0
 10
1974.800048828125
 20
988.5999755859375
 42
0
  0
SEQEND
  0
POLYLINE
  8
0
 10
0
 20
0
 39
0
 70
1
 66
1
  0
VERTEX
  8
0
 10
1655.4000244140625
 20
861.79998779296875
 42
0
  0
VERTEX
  8
0
 10
1660.4000244140625
 20
823.79998779296875
 42
0
  0
VERTEX
  8
0
 10
1982.4000244140625
 20
823.79998779296875
 42
-0
  0
VERTEX
  8
0
 10
1977.4000244140625
 20
861.79998779296875
 42
0
  0
SEQEND
  0
POLYLINE
  8
0
 10
0
 20
0
 39
0
 70
1
 66
1
  0
VERTEX
  8
0
 10
1655.4000244140625
 20
910
 42
0
  0
VERTEX
  8
0
 10
1660.4000244140625
 20
872
 42
0
  0
VERTEX
  8
0
 10
1982.4000244140625
 20
872
 42
-0
  0
VERTEX
  8
0
 10
1977.4000244140625
 20
910
 42
0
  0
SEQEND
  0
POLYLINE
  8
0
 10
0
 20
0
 39
0
 70
1
 66
1
  0
VERTEX
  8
0
 10
1989.4000244140625
 20
337.39999389648437
 42
0
  0
VERTEX
  8
0
 10
1951.4000244140625
 20
332.39999389648437
 42
0
  0
VERTEX
  8
0
 10
1951.4000244140625
 20
10.399999618530273
 42
-0
  0
VERTEX
  8
0
 10
1989.4000244140625
 20
15.399999618530273
 42
0
  0
SEQEND
  0
POLYLINE
  8
0
 10
0
 20
0
 39
0
 70
1
 66
1
  0
VERTEX
  8
0
 10
1989.4000244140625
 20
670.20001220703125
 42
0
  0
VERTEX
  8
0
 10
1951.4000244140625
 20
665.20001220703125
 42
0
  0
VERTEX
  8
0
 10
1951.4000244140625
 20
343.20001220703125
 42
-0
  0
VERTEX
  8
0
 10
1989.4000244140625
 20
348.20001220703125
 42
0
  0
SEQEND
  0
POLYLINE
  8
0
 10
0
 20
0
 39
0
 70
1
 66
1
  0
VERTEX
  8
0
 10
1713.800048828125
 20
676.79998779296875
 42
-0
  0
VERTEX
  8
0
 10
1913.800048828125
 20
701.79998779296875
 42
0
  0
VERTEX
  8
0
 10
1913.800048828125
 20
726.79998779296875
 42
0
  0
VERTEX
  8
0
 10
1713.800048828125
 20
726.79998779296875
 42
0
  0
SEQEND
  0
POLYLINE
  8
0
 10
0
 20
0
 39
0
 70
1
 66
1
  0
VERTEX
  8
0
 10
1713.800048828125
 20
737
 42
-0
  0
VERTEX
  8
0
 10
1913.800048828125
 20
762
 42
0
  0
VERTEX
  8
0
 10
1913.800048828125
 20
787
 42
0
  0
VERTEX
  8
0
 10
1713.800048828125
 20
787
 42
0
  0
SEQEND
  0
POLYLINE
  8
0
 10
0
 20
0
 39
0
 70
1
 66
1
  0
VERTEX
  8
0
 10
60.400001525878906
 20
945
 42
0
  0
VERTEX
  8
0
 10
10.399999618530273
 20
945
 42
0
  0
VERTEX
  8
0
 10
10.399999618530273
 20
745
 42
0
  0
VERTEX
  8
0
 10
35.400001525878906
 20
745
 42
-0
  0
SEQEND
  0
POLYLINE
  8
0
 10
0
 20
0
 39
0
 70
1
 66
1
  0
VERTEX
  8
0
 10
1596.199951171875
 20
192.80000305175781
 42
0
  0
VERTEX
  8
0
 10
1646.199951171875
 20
192.80000305175781
 42
0
  0
VERTEX
  8
0
 10
1646.199951171875
 20
392.79998779296875
 42
0
  0
VERTEX
  8
0
 10
1621.199951171875
 20
392.79998779296875
 42
-0
  0
SEQEND
  0
POLYLINE
  8
0
 10
0
 20
0
 39
0
 70
1
 66
1
  0
VERTEX
  8
0
 10
1080.818115234375
 20
110.39952087402344
 42
1
  0
VERTEX
  8
0
 10
1080.3818359375
 20
10.40047550201416
 42
1
  0
SEQEND
  0
POLYLINE
  8
0
 10
0
 20
0
 39
0
 70
1
 66
1
  0
VERTEX
  8
0
 10
1557.5999755859375
 20
180.80000305175781
 42
-0
  0
VERTEX
  8
0
 10
1559.5999755859375
 20
182.80000305175781
 42
0
  0
VERTEX
  8
0
 10
1559.5999755859375
 20
230.80000305175781
 42
0
  0
VERTEX
  8
0
 10
1554.5999755859375
 20
230.80000305175781
 42
-0
  0
VERTEX
  8
0
 10
1509.5999755859375
 20
185.80000305175781
 42
0
  0
VERTEX
  8
0
 10
1509.5999755859375
 20
180.80000305175781
 42
0
  0
SEQEND
  0
POLYLINE
  8
0
 10
0
 20
0
 39
0
 70
1
 66
1
  0
VERTEX
  8
0
 10
1511.5999755859375
 20
255.02799987792969
 42
-0
  0
VERTEX
  8
0
 10
1509.5999755859375
 20
253.02799987792969
 42
0
  0
VERTEX
  8
0
 10
1509.5999755859375
 20
205.02799987792969
 42
0
  0
VERTEX
  8
0
 10
1514.5999755859375
 20
205.02799987792969
 42
-0
  0
VERTEX
  8
0
 10
1559.5999755859375
 20
250.02799987792969
 42
0
  0
VERTEX
  8
0
 10
1559.5999755859375
 20
255.02799987792969
 42
0
  0
SEQEND
  0
POLYLINE
  8
0
 10
0
 20
0
 39
0
 70
1
 66
1
  0
VERTEX
  8
0
 10
1972.199951171875
 20
680.4000244140625
 42
-0
  0
VERTEX
  8
0
 10
1974.199951171875
 20
682.4000244140625
 42
0
  0
VERTEX
  8
0
 10
1974.199951171875
 20
730.4000244140625
 42
0
  0
VERTEX
  8
0
 10
1969.199951171875
 20
730.4000244140625
 42
-0
  0
VERTEX
  8
0
 10
1924.199951171875
 20
685.4000244140625
 42
0
  0
VERTEX
  8
0
 10
1924.199951171875
 20
680.4000244140625
 42
0
  0
SEQEND
  0
POLYLINE
  8
0
 10
0
 20
0
 39
0
 70
1
 66
1
  0
VERTEX
  8
0
 10
1926.199951171875
 20
754.62799072265625
 42
-0
  0
VERTEX
  8
0
 10
1924.199951171875
 20
752.62799072265625
 42
0
  0
VERTEX
  8
0
 10
1924.199951171875
 20
704.62799072265625
 42
0
  0
VERTEX
  8
0
 10
1929.199951171875
 20
704.62799072265625
 42
-0
  0
VERTEX
  8
0
 10
1974.199951171875
 20
749.62799072265625
 42
0
  0
VERTEX
  8
0
 10
1974.199951171875
 20
754.62799072265625
 42
0
  0
SEQEND
  0
POLYLINE
  8
0
 10
0
 20
0
 39
0
 70
1
 66
1
  0
VERTEX
  8
0
 10
564.5999755859375
 20
10.399999618530273
 42
-0
  0
VERTEX
  8
0
 10
566.5999755859375
 20
12.399999618530273
 42
0
  0
VERTEX
  8
0
 10
566.5999755859375
 20
60.400001525878906
 42
0
  0
VERTEX
  8
0
 10
561.5999755859375
 20
60.400001525878906
 42
-0
  0
VERTEX
  8
0
 10
516.5999755859375
 20
15.399999618530273
 42
0
  0
VERTEX
  8
0
 10
516.5999755859375
 20
10.399999618530273
 42
0
  0
SEQEND
  0
POLYLINE
  8
0
 10
0
 20
0
 39
0
 70
1
 66
1
  0
VERTEX
  8
0
 10
577
 20
12.399999618530273
 42
-0
  0
VERTEX
  8
0
 10
579
 20
10.399999618530273
 42
0
  0
VERTEX
  8
0
 10
627
 20
10.399999618530273
 42
0
  0
VERTEX
  8
0
 10
627
 20
15.399999618530273
 42
-0
  0
VERTEX
  8
0
 10
582
 20
60.400001525878906
 42
0
  0
VERTEX
  8
0
 10
577
 20
60.400001525878906
 42
0
  0
SEQEND
  0
POLYLINE
  8
0
 10
0
 20
0
 39
0
 70
1
 66
1
  0
VERTEX
  8
0
 10
635.5999755859375
 20
721.4000244140625
 42
-0
  0
VERTEX
  8
0
 10
633.5999755859375
 20
723.4000244140625
 42
0
  0
VERTEX
  8
0
 10
585.5999755859375
 20
723.4000244140625
 42
0
  0
VERTEX
  8
0
 10
585.5999755859375
 20
718.4000244140625
 42
-0
  0
VERTEX
  8
0
 10
630.5999755859375
 20
673.4000244140625
 42
0
  0
VERTEX
  8
0
 10
635.5999755859375
 20
673.4000244140625
 42
0
  0
SEQEND
  0
POLYLINE
  8
0
 10
0
 20
0
 39
0
 70
1
 66
1
  0
VERTEX
  8
0
 10
681.4000244140625
 20
987.5999755859375
 42
-0
  0
VERTEX
  8
0
 10
679.4000244140625
 20
989.5999755859375
 42
0
  0
VERTEX
  8
0
 10
631.4000244140625
 20
989.5999755859375
 42
0
  0
VERTEX
  8
0
 10
631.4000244140625
 20
984.5999755859375
 42
-0
  0
VERTEX
  8
0
 10
676.4000244140625
 20
939.5999755859375
 42
0
  0
VERTEX
  8
0
 10
681.4000244140625
 20
939.5999755859375
 42
0
  0
SEQEND
  0
POLYLINE
  8
0
 10
0
 20
0
 39
0
 70
1
 66
1
  0
VERTEX
  8
0
 10
696
 20
682
 42
-0
  0
VERTEX
  8
0
 10
694
 20
684
 42
0
  0
VERTEX
  8
0
 10
646
 20
684
 42
0
  0
VERTEX
  8
0
 10
646
 20
679
 42
-0
  0
VERTEX
  8
0
 10
691
 20
634
 42
0
  0
VERTEX
  8
0
 10
696
 20
634
 42
0
  0
SEQEND
  0
POLYLINE
  8
0
 10
0
 20
0
 39
0
 70
1
 66
1
  0
VERTEX
  8
0
 10
739.79998779296875
 20
10.399999618530273
 42
-0
  0
VERTEX
  8
0
 10
741.79998779296875
 20
12.399999618530273
 42
0
  0
VERTEX
  8
0
 10
741.79998779296875
 20
60.400001525878906
 42
0
  0
VERTEX
  8
0
 10
736.79998779296875
 20
60.400001525878906
 42
-0
  0
VERTEX
  8
0
 10
691.79998779296875
 20
15.399999618530273
 42
0
  0
VERTEX
  8
0
 10
691.79998779296875
 20
10.399999618530273
 42
0
  0
SEQEND
  0
POLYLINE
  8
0
 10
0
 20
0
 39
0
 70
1
 66
1
  0
VERTEX
  8
0
 10
783.4000244140625
 20
524.20001220703125
 42
-0
  0
VERTEX
  8
0
 10
781.4000244140625
 20
526.20001220703125
 42
0
  0
VERTEX
  8
0
 10
733.4000244140625
 20
526.20001220703125
 42
0
  0
VERTEX
  8
0
 10
733.4000244140625
 20
521.20001220703125
 42
-0
  0
VERTEX
  8
0
 10
778.4000244140625
 20
476.20001220703125
 42
0
  0
VERTEX
  8
0
 10
783.4000244140625
 20
476.20001220703125
 42
0
  0
SEQEND
  0
POLYLINE
  8
0
 10
0
 20
0
 39
0
 70
1
 66
1
  0
VERTEX
  8
0
 10
843.79998779296875
 20
484.60000610351562
 42
-0
  0
VERTEX
  8
0
 10
841.79998779296875
 20
486.60000610351562
 42
0
  0
VERTEX
  8
0
 10
793.79998779296875
 20
486.60000610351562
 42
0
  0
VERTEX
  8
0
 10
793.79998779296875
 20
481.60000610351562
 42
-0
  0
VERTEX
  8
0
 10
838.79998779296875
 20
436.60000610351562
 42
0
  0
VERTEX
  8
0
 10
843.79998779296875
 20
436.60000610351562
 42
0
  0
SEQEND
  0
POLYLINE
  8
0
 10
0
 20
0
 39
0
 70
1
 66
1
  0
VERTEX
  8
0
 10
849.20001220703125
 20
987.5999755859375
 42
-0
  0
VERTEX
  8
0
 10
847.20001220703125
 20
989.5999755859375
 42
0
  0
VERTEX
  8
0
 10
799.20001220703125
 20
989.5999755859375
 42
0
  0
VERTEX
  8
0
 10
799.20001220703125
 20
984.5999755859375
 42
-0
  0
VERTEX
  8
0
 10
844.20001220703125
 20
939.5999755859375
 42
0
  0
VERTEX
  8
0
 10
849.20001220703125
 20
939.5999755859375
 42
0
  0
SEQEND
  0
POLYLINE
  8
0
 10
0
 20
0
 39
0
 70
1
 66
1
  0
VERTEX
  8
0
 10
907
 20
10.399999618530273
 42
-0
  0
VERTEX
  8
0
 10
909
 20
12.399999618530273
 42
0
  0
VERTEX
  8
0
 10
909
 20
60.400001525878906
 42
0
  0
VERTEX
  8
0
 10
904
 20
60.400001525878906
 42
-0
  0
VERTEX
  8
0
 10
859
 20
15.399999618530273
 42
0
  0
VERTEX
  8
0
 10
859
 20
10.399999618530273
 42
0
  0
SEQEND
  0
POLYLINE
  8
0
 10
0
 20
0
 39
0
 70
1
 66
1
  0
VERTEX
  8
0
 10
932
 20
329.39999389648437
 42
-0
  0
VERTEX
  8
0
 10
930
 20
331.39999389648437
 42
0
  0
VERTEX
  8
0
 10
882
 20
331.39999389648437
 42
0
  0
VERTEX
  8
0
 10
882
 20
326.39999389648437
 42
-0
  0
VERTEX
  8
0
 10
927
 20
281.39999389648437
 42
0
  0
VERTEX
  8
0
 10
932
 20
281.39999389648437
 42
0
  0
SEQEND
  0
POLYLINE
  8
0
 10
0
 20
0
 39
0
 70
1
 66
1
  0
VERTEX
  8
0
 10
919.4000244140625
 20
12.399999618530273
 42
-0
  0
VERTEX
  8
0
 10
921.4000244140625
 20
10.399999618530273
 42
0
  0
VERTEX
  8
0
 10
969.4000244140625
 20
10.399999618530273
 42
0
  0
VERTEX
  8
0
 10
969.4000244140625
 20
15.399999618530273
 42
-0
  0
VERTEX
  8
0
 10
924.4000244140625
 20
60.400001525878906
 42
0
  0
VERTEX
  8
0
 10
919.4000244140625
 20
60.400001525878906
 42
0
  0
SEQEND
  0
POLYLINE
  8
0
 10
0
 20
0
 39
0
 70
1
 66
1
  0
VERTEX
  8
0
 10
992.4000244140625
 20
289.79998779296875
 42
-0
  0
VERTEX
  8
0
 10
990.4000244140625
 20
291.79998779296875
 42
0
  0
VERTEX
  8
0
 10
942.4000244140625
 20
291.79998779296875
 42
0
  0
VERTEX
  8
0
 10
942.4000244140625
 20
286.79998779296875
 42
-0
  0
VERTEX
  8
0
 10
987.4000244140625
 20
241.80000305175781
 42
0
  0
VERTEX
  8
0
 10
992.4000244140625
 20
241.80000305175781
 42
0
  0
SEQEND
  0
POLYLINE
  8
0
 10
0
 20
0
 39
0
 70
1
 66
1
  0
VERTEX
  8
0
 10
1016.2000122070312
 20
987.5999755859375
 42
-0
  0
VERTEX
  8
0
 10
1014.2000122070312
 20
989.5999755859375
 42
0
  0
VERTEX
  8
0
 10
966.20001220703125
 20
989.5999755859375
 42
0
  0
VERTEX
  8
0
 10
966.20001220703125
 20
984.5999755859375
 42
-0
  0
VERTEX
  8
0
 10
1011.2000122070312
 20
939.5999755859375
 42
0
  0
VERTEX
  8
0
 10
1016.2000122070312
 20
939.5999755859375
 42
0
  0
SEQEND
  0
POLYLINE
  8
0
 10
0
 20
0
 39
0
 70
1
 66
1
  0
VERTEX
  8
0
 10
1026.5999755859375
 20
930.20001220703125
 42
-0
  0
VERTEX
  8
0
 10
1028.5999755859375
 20
928.20001220703125
 42
0
  0
VERTEX
  8
0
 10
1076.5999755859375
 20
928.20001220703125
 42
0
  0
VERTEX
  8
0
 10
1076.5999755859375
 20
933.20001220703125
 42
-0
  0
VERTEX
  8
0
 10
1031.5999755859375
 20
978.20001220703125
 42
0
  0
VERTEX
  8
0
 10
1026.5999755859375
 20
978.20001220703125
 42
0
  0
SEQEND
  0
POLYLINE
  8
0
 10
0
 20
0
 39
0
 70
1
 66
1
  0
VERTEX
  8
0
 10
1032.5999755859375
 20
150.80000305175781
 42
-0
  0
VERTEX
  8
0
 10
1030.5999755859375
 20
148.80000305175781
 42
0
  0
VERTEX
  8
0
 10
1030.5999755859375
 20
100.80000305175781
 42
0
  0
VERTEX
  8
0
 10
1035.5999755859375
 20
100.80000305175781
 42
-0
  0
VERTEX
  8
0
 10
1080.5999755859375
 20
145.80000305175781
 42
0
  0
VERTEX
  8
0
 10
1080.5999755859375
 20
150.80000305175781
 42
0
  0
SEQEND
  0
POLYLINE
  8
0
 10
0
 20
0
 39
0
 70
1
 66
1
  0
VERTEX
  8
0
 10
1065.800048828125
 20
916
 42
-0
  0
VERTEX
  8
0
 10
1063.800048828125
 20
914
 42
0
  0
VERTEX
  8
0
 10
1063.800048828125
 20
866
 42
0
  0
VERTEX
  8
0
 10
1068.800048828125
 20
866
 42
-0
  0
VERTEX
  8
0
 10
1113.800048828125
 20
911
 42
0
  0
VERTEX
  8
0
 10
1113.800048828125
 20
916
 42
0
  0
SEQEND
  0
POLYLINE
  8
0
 10
0
 20
0
 39
0
 70
1
 66
1
  0
VERTEX
  8
0
 10
1206.800048828125
 20
336.20001220703125
 42
-0
  0
VERTEX
  8
0
 10
1204.800048828125
 20
338.20001220703125
 42
0
  0
VERTEX
  8
0
 10
1156.800048828125
 20
338.20001220703125
 42
0
  0
VERTEX
  8
0
 10
1156.800048828125
 20
333.20001220703125
 42
-0
  0
VERTEX
  8
0
 10
1201.800048828125
 20
288.20001220703125
 42
0
  0
VERTEX
  8
0
 10
1206.800048828125
 20
288.20001220703125
 42
0
  0
SEQEND
  0
POLYLINE
  8
0
 10
0
 20
0
 39
0
 70
1
 66
1
  0
VERTEX
  8
0
 10
1176.199951171875
 20
875.79998779296875
 42
-0
  0
VERTEX
  8
0
 10
1174.199951171875
 20
873.79998779296875
 42
0
  0
VERTEX
  8
0
 10
1174.199951171875
 20
825.79998779296875
 42
0
  0
VERTEX
  8
0
 10
1179.199951171875
 20
825.79998779296875
 42
-0
  0
VERTEX
  8
0
 10
1224.199951171875
 20
870.79998779296875
 42
0
  0
VERTEX
  8
0
 10
1224.199951171875
 20
875.79998779296875
 42
0
  0
SEQEND
  0
POLYLINE
  8
0
 10
0
 20
0
 39
0
 70
1
 66
1
  0
VERTEX
  8
0
 10
1320.4000244140625
 20
877.4000244140625
 42
-0
  0
VERTEX
  8
0
 10
1318.4000244140625
 20
879.4000244140625
 42
0
  0
VERTEX
  8
0
 10
1270.4000244140625
 20
879.4000244140625
 42
0
  0
VERTEX
  8
0
 10
1270.4000244140625
 20
874.4000244140625
 42
-0
  0
VERTEX
  8
0
 10
1315.4000244140625
 20
829.4000244140625
 42
0
  0
VERTEX
  8
0
 10
1320.4000244140625
 20
829.4000244140625
 42
0
  0
SEQEND
  0
POLYLINE
  8
0
 10
0
 20
0
 39
0
 70
1
 66
1
  0
VERTEX
  8
0
 10
1286.5999755859375
 20
804
 42
-0
  0
VERTEX
  8
0
 10
1284.5999755859375
 20
802
 42
0
  0
VERTEX
  8
0
 10
1284.5999755859375
 20
754
 42
0
  0
VERTEX
  8
0
 10
1289.5999755859375
 20
754
 42
-0
  0
VERTEX
  8
0
 10
1334.5999755859375
 20
799
 42
0
  0
VERTEX
  8
0
 10
1334.5999755859375
 20
804
 42
0
  0
SEQEND
  0
POLYLINE
  8
0
 10
0
 20
0
 39
0
 70
1
 66
1
  0
VERTEX
  8
0
 10
1683.800048828125
 20
10.399999618530273
 42
-0
  0
VERTEX
  8
0
 10
1685.800048828125
 20
12.399999618530273
 42
0
  0
VERTEX
  8
0
 10
1685.800048828125
 20
60.400001525878906
 42
0
  0
VERTEX
  8
0
 10
1680.800048828125
 20
60.400001525878906
 42
-0
  0
VERTEX
  8
0
 10
1635.800048828125
 20
15.399999618530273
 42
0
  0
VERTEX
  8
0
 10
1635.800048828125
 20
10.399999618530273
 42
0
  0
SEQEND
  0
POLYLINE
  8
0
 10
0
 20
0
 39
0
 70
1
 66
1
  0
VERTEX
  8
0
 10
1984.800048828125
 20
811.5999755859375
 42
-0
  0
VERTEX
  8
0
 10
1982.800048828125
 20
813.5999755859375
 42
0
  0
VERTEX
  8
0
 10
1934.800048828125
 20
813.5999755859375
 42
0
  0
VERTEX
  8
0
 10
1934.800048828125
 20
808.5999755859375
 42
-0
  0
VERTEX
  8
0
 10
1979.800048828125
 20
763.5999755859375
 42
0
  0
VERTEX
  8
0
 10
1984.800048828125
 20
763.5999755859375
 42
0
  0
SEQEND
  0
ENDSEC
  0
EOF
