  0
SECTION
  2
ENTITIES
  0
POLYLINE
  8
0
 10
0
 20
0
 39
0
 70
1
 66
1
  0
VERTEX
  8
0
 10
0
 20
0
 42
0
  0
VERTEX
  8
0
 10
2400
 20
0
 42
0
  0
VERTEX
  8
0
 10
2400
 20
800
 42
0
  0
VERTEX
  8
0
 10
0
 20
800
 42
0
  0
SEQEND
  0
POLYLINE
  8
0
 10
0
 20
0
 39
0
 70
1
 66
1
  0
VERTEX
  8
0
 10
10.279999732971191
 20
10.279999732971191
 42
0
  0
VERTEX
  8
0
 10
90.279998779296875
 20
10.279999732971191
 42
-0
  0
VERTEX
  8
0
 10
90.279998779296875
 20
50.279998779296875
 42
-0
  0
VERTEX
  8
0
 10
190.27999877929687
 20
50.279998779296875
 42
0
  0
VERTEX
  8
0
 10
190.27999877929687
 20
10.279999732971191
 42
0
  0
VERTEX
  8
0
 10
270.27999877929687
 20
10.279999732971191
 42
0
  0
VERTEX
  8
0
 10
270.27999877929687
 20
286.27999877929687
 42
0
  0
VERTEX
  8
0
 10
207.27999877929687
 20
286.27999877929687
 42
0
  0
VERTEX
  8
0
 10
207.27999877929687
 20
130.27999877929687
 42
0
  0
VERTEX
  8
0
 10
73.279998779296875
 20
130.27999877929687
 42
-0
  0
VERTEX
  8
0
 10
73.279998779296875
 20
286.27999877929687
 42
0
  0
VERTEX
  8
0
 10
10.279999732971191
 20
286.27999877929687
 42
0
  0
SEQEND
  0
POLYLINE
  8
0
 10
0
 20
0
 39
0
 70
1
 66
1
  0
VERTEX
  8
0
 10
10.279999732971191
 20
296.3599853515625
 42
0
  0
VERTEX
  8
0
 10
90.279998779296875
 20
296.3599853515625
 42
-0
  0
VERTEX
  8
0
 10
90.279998779296875
 20
336.3599853515625
 42
-0
  0
VERTEX
  8
0
 10
190.27999877929687
 20
336.3599853515625
 42
0
  0
VERTEX
  8
0
 10
190.27999877929687
 20
296.3599853515625
 42
0
  0
VERTEX
  8
0
 10
270.27999877929687
 20
296.3599853515625
 42
0
  0
VERTEX
  8
0
 10
270.27999877929687
 20
572.3599853515625
 42
0
  0
VERTEX
  8
0
 10
207.27999877929687
 20
572.3599853515625
 42
0
  0
VERTEX
  8
0
 10
207.27999877929687
 20
416.3599853515625
 42
0
  0
VERTEX
  8
0
 10
73.279998779296875
 20
416.3599853515625
 42
-0
  0
VERTEX
  8
0
 10
73.279998779296875
 20
572.3599853515625
 42
0
  0
VERTEX
  8
0
 10
10.279999732971191
 20
572.3599853515625
 42
0
  0
SEQEND
  0
POLYLINE
  8
0
 10
0
 20
0
 39
0
 70
1
 66
1
  0
VERTEX
  8
0
 10
343.72000122070313
 20
702.5999755859375
 42
0
  0
VERTEX
  8
0
 10
263.72000122070312
 20
702.5999755859375
 42
-0
  0
VERTEX
  8
0
 10
263.72000122070312
 20
662.5999755859375
 42
-0
  0
VERTEX
  8
0
 10
163.72000122070312
 20
662.5999755859375
 42
0
  0
VERTEX
  8
0
 10
163.72000122070312
 20
702.5999755859375
 42
0
  0
VERTEX
  8
0
 10
83.720001220703125
 20
702.5999755859375
 42
0
  0
VERTEX
  8
0
 10
83.720001220703125
 20
426.60000610351562
 42
0
  0
VERTEX
  8
0
 10
146.72000122070312
 20
426.60000610351562
 42
0
  0
VERTEX
  8
0
 10
146.72000122070312
 20
582.5999755859375
 42
0
  0
VERTEX
  8
0
 10
280.72000122070312
 20
582.5999755859375
 42
-0
  0
VERTEX
  8
0
 10
280.72000122070312
 20
426.60000610351562
 42
0
  0
VERTEX
  8
0
 10
343.72000122070313
 20
426.60000610351562
 42
0
  0
SEQEND
  0
POLYLINE
  8
0
 10
0
 20
0
 39
0
 70
1
 66
1
  0
VERTEX
  8
0
 10
280.51998901367187
 20
10.279999732971191
 42
0
  0
VERTEX
  8
0
 10
360.51998901367187
 20
10.279999732971191
 42
-0
  0
VERTEX
  8
0
 10
360.51998901367187
 20
50.279998779296875
 42
-0
  0
VERTEX
  8
0
 10
460.51998901367187
 20
50.279998779296875
 42
0
  0
VERTEX
  8
0
 10
460.51998901367187
 20
10.279999732971191
 42
0
  0
VERTEX
  8
0
 10
540.52001953125
 20
10.279999732971191
 42
0
  0
VERTEX
  8
0
 10
540.52001953125
 20
286.27999877929687
 42
0
  0
VERTEX
  8
0
 10
477.51998901367187
 20
286.27999877929687
 42
0
  0
VERTEX
  8
0
 10
477.51998901367187
 20
130.27999877929687
 42
0
  0
VERTEX
  8
0
 10
343.51998901367187
 20
130.27999877929687
 42
-0
  0
VERTEX
  8
0
 10
343.51998901367187
 20
286.27999877929687
 42
0
  0
VERTEX
  8
0
 10
280.51998901367187
 20
286.27999877929687
 42
0
  0
SEQEND
  0
POLYLINE
  8
0
 10
0
 20
0
 39
0
 70
1
 66
1
  0
VERTEX
  8
0
 10
613.96002197265625
 20
416.51998901367187
 42
0
  0
VERTEX
  8
0
 10
533.96002197265625
 20
416.51998901367187
 42
-0
  0
VERTEX
  8
0
 10
533.96002197265625
 20
376.51998901367187
 42
-0
  0
VERTEX
  8
0
 10
433.95999145507812
 20
376.51998901367187
 42
0
  0
VERTEX
  8
0
 10
433.95999145507812
 20
416.51998901367187
 42
0
  0
VERTEX
  8
0
 10
353.95999145507812
 20
416.51998901367187
 42
0
  0
VERTEX
  8
0
 10
353.95999145507812
 20
140.52000427246094
 42
0
  0
VERTEX
  8
0
 10
416.95999145507812
 20
140.52000427246094
 42
0
  0
VERTEX
  8
0
 10
416.95999145507812
 20
296.51998901367187
 42
0
  0
VERTEX
  8
0
 10
550.96002197265625
 20
296.51998901367187
 42
-0
  0
VERTEX
  8
0
 10
550.96002197265625
 20
140.52000427246094
 42
0
  0
VERTEX
  8
0
 10
613.96002197265625
 20
140.52000427246094
 42
0
  0
SEQEND
  0
POLYLINE
  8
0
 10
0
 20
0
 39
0
 70
1
 66
1
  0
VERTEX
  8
0
 10
353.95999145507812
 20
426.60000610351562
 42
0
  0
VERTEX
  8
0
 10
433.95999145507812
 20
426.60000610351562
 42
-0
  0
VERTEX
  8
0
 10
433.95999145507812
 20
466.60000610351562
 42
-0
  0
VERTEX
  8
0
 10
533.96002197265625
 20
466.60000610351562
 42
0
  0
VERTEX
  8
0
 10
533.96002197265625
 20
426.60000610351562
 42
0
  0
VERTEX
  8
0
 10
613.96002197265625
 20
426.60000610351562
 42
0
  0
VERTEX
  8
0
 10
613.96002197265625
 20
702.5999755859375
 42
0
  0
VERTEX
  8
0
 10
550.96002197265625
 20
702.5999755859375
 42
0
  0
VERTEX
  8
0
 10
550.96002197265625
 20
546.5999755859375
 42
0
  0
VERTEX
  8
0
 10
416.95999145507812
 20
546.5999755859375
 42
-0
  0
VERTEX
  8
0
 10
416.95999145507812
 20
702.5999755859375
 42
0
  0
VERTEX
  8
0
 10
353.95999145507812
 20
702.5999755859375
 42
0
  0
SEQEND
  0
POLYLINE
  8
0
 10
0
 20
0
 39
0
 70
1
 66
1
  0
VERTEX
  8
0
 10
624.20001220703125
 20
10.279999732971191
 42
0
  0
VERTEX
  8
0
 10
704.20001220703125
 20
10.279999732971191
 42
-0
  0
VERTEX
  8
0
 10
704.20001220703125
 20
50.279998779296875
 42
-0
  0
VERTEX
  8
0
 10
804.20001220703125
 20
50.279998779296875
 42
0
  0
VERTEX
  8
0
 10
804.20001220703125
 20
10.279999732971191
 42
0
  0
VERTEX
  8
0
 10
884.20001220703125
 20
10.279999732971191
 42
0
  0
VERTEX
  8
0
 10
884.20001220703125
 20
286.27999877929687
 42
0
  0
VERTEX
  8
0
 10
821.20001220703125
 20
286.27999877929687
 42
0
  0
VERTEX
  8
0
 10
821.20001220703125
 20
130.27999877929687
 42
0
  0
VERTEX
  8
0
 10
687.20001220703125
 20
130.27999877929687
 42
-0
  0
VERTEX
  8
0
 10
687.20001220703125
 20
286.27999877929687
 42
0
  0
VERTEX
  8
0
 10
624.20001220703125
 20
286.27999877929687
 42
0
  0
SEQEND
  0
POLYLINE
  8
0
 10
0
 20
0
 39
0
 70
1
 66
1
  0
VERTEX
  8
0
 10
624.20001220703125
 20
296.3599853515625
 42
0
  0
VERTEX
  8
0
 10
704.20001220703125
 20
296.3599853515625
 42
-0
  0
VERTEX
  8
0
 10
704.20001220703125
 20
336.3599853515625
 42
-0
  0
VERTEX
  8
0
 10
804.20001220703125
 20
336.3599853515625
 42
0
  0
VERTEX
  8
0
 10
804.20001220703125
 20
296.3599853515625
 42
0
  0
VERTEX
  8
0
 10
884.20001220703125
 20
296.3599853515625
 42
0
  0
VERTEX
  8
0
 10
884.20001220703125
 20
572.3599853515625
 42
0
  0
VERTEX
  8
0
 10
821.20001220703125
 20
572.3599853515625
 42
0
  0
VERTEX
  8
0
 10
821.20001220703125
 20
416.3599853515625
 42
0
  0
VERTEX
  8
0
 10
687.20001220703125
 20
416.3599853515625
 42
-0
  0
VERTEX
  8
0
 10
687.20001220703125
 20
572.3599853515625
 42
0
  0
VERTEX
  8
0
 10
624.20001220703125
 20
572.3599853515625
 42
0
  0
SEQEND
  0
POLYLINE
  8
0
 10
0
 20
0
 39
0
 70
1
 66
1
  0
VERTEX
  8
0
 10
510.27999877929687
 20
712.67999267578125
 42
0
  0
VERTEX
  8
0
 10
560.280029296875
 20
762.67999267578125
 42
0
  0
VERTEX
  8
0
 10
325.27999877929687
 20
762.67999267578125
 42
-0
  0
VERTEX
  8
0
 10
285.27999877929687
 20
737.67999267578125
 42
-0
  0
VERTEX
  8
0
 10
245.27999877929687
 20
762.67999267578125
 42
0
  0
VERTEX
  8
0
 10
10.279999732971191
 20
762.67999267578125
 42
-0
  0
VERTEX
  8
0
 10
60.279998779296875
 20
712.67999267578125
 42
0
  0
SEQEND
  0
POLYLINE
  8
0
 10
0
 20
0
 39
0
 70
1
 66
1
  0
VERTEX
  8
0
 10
894.44000244140625
 20
60.279998779296875
 42
0
  0
VERTEX
  8
0
 10
944.44000244140625
 20
10.279999732971191
 42
0
  0
VERTEX
  8
0
 10
944.44000244140625
 20
245.27999877929687
 42
-0
  0
VERTEX
  8
0
 10
919.44000244140625
 20
285.27999877929687
 42
-0
  0
VERTEX
  8
0
 10
944.44000244140625
 20
325.27999877929687
 42
0
  0
VERTEX
  8
0
 10
944.44000244140625
 20
560.280029296875
 42
-0
  0
VERTEX
  8
0
 10
894.44000244140625
 20
510.27999877929687
 42
0
  0
SEQEND
  0
POLYLINE
  8
0
 10
0
 20
0
 39
0
 70
1
 66
1
  0
VERTEX
  8
0
 10
954.760009765625
 20
60.279998779296875
 42
0
  0
VERTEX
  8
0
 10
1004.760009765625
 20
10.279999732971191
 42
0
  0
VERTEX
  8
0
 10
1004.760009765625
 20
245.27999877929687
 42
-0
  0
VERTEX
  8
0
 10
979.760009765625
 20
285.27999877929687
 42
-0
  0
VERTEX
  8
0
 10
1004.760009765625
 20
325.27999877929687
 42
0
  0
VERTEX
  8
0
 10
1004.760009765625
 20
560.280029296875
 42
-0
  0
VERTEX
  8
0
 10
954.760009765625
 20
510.27999877929687
 42
0
  0
SEQEND
  0
POLYLINE
  8
0
 10
0
 20
0
 39
0
 70
1
 66
1
  0
VERTEX
  8
0
 10
1015.0800170898437
 20
60.279998779296875
 42
0
  0
VERTEX
  8
0
 10
1065.0799560546875
 20
10.279999732971191
 42
0
  0
VERTEX
  8
0
 10
1065.0799560546875
 20
245.27999877929687
 42
-0
  0
VERTEX
  8
0
 10
1040.0799560546875
 20
285.27999877929687
 42
-0
  0
VERTEX
  8
0
 10
1065.0799560546875
 20
325.27999877929687
 42
0
  0
VERTEX
  8
0
 10
1065.0799560546875
 20
560.280029296875
 42
-0
  0
VERTEX
  8
0
 10
1015.0800170898437
 20
510.27999877929687
 42
0
  0
SEQEND
  0
POLYLINE
  8
0
 10
0
 20
0
 39
0
 70
1
 66
1
  0
VERTEX
  8
0
 10
574.84002685546875
 20
762.67999267578125
 42
0
  0
VERTEX
  8
0
 10
524.84002685546875
 20
712.67999267578125
 42
0
  0
VERTEX
  8
0
 10
759.84002685546875
 20
712.67999267578125
 42
-0
  0
VERTEX
  8
0
 10
799.84002685546875
 20
737.67999267578125
 42
-0
  0
VERTEX
  8
0
 10
839.84002685546875
 20
712.67999267578125
 42
0
  0
VERTEX
  8
0
 10
1074.8399658203125
 20
712.67999267578125
 42
-0
  0
VERTEX
  8
0
 10
1024.8399658203125
 20
762.67999267578125
 42
0
  0
SEQEND
  0
POLYLINE
  8
0
 10
0
 20
0
 39
0
 70
1
 66
1
  0
VERTEX
  8
0
 10
1075.4000244140625
 20
60.279998779296875
 42
0
  0
VERTEX
  8
0
 10
1125.4000244140625
 20
10.279999732971191
 42
0
  0
VERTEX
  8
0
 10
1125.4000244140625
 20
245.27999877929687
 42
-0
  0
VERTEX
  8
0
 10
1100.4000244140625
 20
285.27999877929687
 42
-0
  0
VERTEX
  8
0
 10
1125.4000244140625
 20
325.27999877929687
 42
0
  0
VERTEX
  8
0
 10
1125.4000244140625
 20
560.280029296875
 42
-0
  0
VERTEX
  8
0
 10
1075.4000244140625
 20
510.27999877929687
 42
0
  0
SEQEND
  0
POLYLINE
  8
0
 10
0
 20
0
 39
0
 70
1
 66
1
  0
VERTEX
  8
0
 10
1054.199951171875
 20
582.44000244140625
 42
0
  0
VERTEX
  8
0
 10
1074.199951171875
 20
602.44000244140625
 42
0
  0
VERTEX
  8
0
 10
1074.199951171875
 20
637.44000244140625
 42
0
  0
VERTEX
  8
0
 10
774.20001220703125
 20
637.44000244140625
 42
0
  0
VERTEX
  8
0
 10
624.20001220703125
 20
597.44000244140625
 42
0
  0
VERTEX
  8
0
 10
624.20001220703125
 20
582.44000244140625
 42
0
  0
SEQEND
  0
POLYLINE
  8
0
 10
0
 20
0
 39
0
 70
1
 66
1
  0
VERTEX
  8
0
 10
1054.199951171875
 20
647.55999755859375
 42
0
  0
VERTEX
  8
0
 10
1074.199951171875
 20
667.55999755859375
 42
0
  0
VERTEX
  8
0
 10
1074.199951171875
 20
702.55999755859375
 42
0
  0
VERTEX
  8
0
 10
774.20001220703125
 20
702.55999755859375
 42
0
  0
VERTEX
  8
0
 10
624.20001220703125
 20
662.55999755859375
 42
0
  0
VERTEX
  8
0
 10
624.20001220703125
 20
647.55999755859375
 42
0
  0
SEQEND
  0
POLYLINE
  8
0
 10
0
 20
0
 39
0
 70
1
 66
1
  0
VERTEX
  8
0
 10
1135.719970703125
 20
30.280000686645508
 42
0
  0
VERTEX
  8
0
 10
1155.719970703125
 20
10.279999732971191
 42
0
  0
VERTEX
  8
0
 10
1190.719970703125
 20
10.279999732971191
 42
0
  0
VERTEX
  8
0
 10
1190.719970703125
 20
310.27999877929687
 42
0
  0
VERTEX
  8
0
 10
1150.719970703125
 20
460.27999877929687
 42
0
  0
VERTEX
  8
0
 10
1135.719970703125
 20
460.27999877929687
 42
0
  0
SEQEND
  0
POLYLINE
  8
0
 10
0
 20
0
 39
0
 70
1
 66
1
  0
VERTEX
  8
0
 10
1208.800048828125
 20
769.4000244140625
 42
0
  0
VERTEX
  8
0
 10
1188.800048828125
 20
789.4000244140625
 42
0
  0
VERTEX
  8
0
 10
1153.800048828125
 20
789.4000244140625
 42
0
  0
VERTEX
  8
0
 10
1153.800048828125
 20
489.39999389648437
 42
0
  0
VERTEX
  8
0
 10
1193.800048828125
 20
339.39999389648438
 42
0
  0
VERTEX
  8
0
 10
1208.800048828125
 20
339.39999389648438
 42
0
  0
SEQEND
  0
POLYLINE
  8
0
 10
0
 20
0
 39
0
 70
1
 66
1
  0
VERTEX
  8
0
 10
1219.0799560546875
 20
30.280000686645508
 42
0
  0
VERTEX
  8
0
 10
1239.0799560546875
 20
10.279999732971191
 42
0
  0
VERTEX
  8
0
 10
1274.0799560546875
 20
10.279999732971191
 42
0
  0
VERTEX
  8
0
 10
1274.0799560546875
 20
310.27999877929687
 42
0
  0
VERTEX
  8
0
 10
1234.0799560546875
 20
460.27999877929687
 42
0
  0
VERTEX
  8
0
 10
1219.0799560546875
 20
460.27999877929687
 42
0
  0
SEQEND
  0
POLYLINE
  8
0
 10
0
 20
0
 39
0
 70
1
 66
1
  0
VERTEX
  8
0
 10
1292.1600341796875
 20
769.4000244140625
 42
0
  0
VERTEX
  8
0
 10
1272.1600341796875
 20
789.4000244140625
 42
0
  0
VERTEX
  8
0
 10
1237.1600341796875
 20
789.4000244140625
 42
0
  0
VERTEX
  8
0
 10
1237.1600341796875
 20
489.39999389648437
 42
0
  0
VERTEX
  8
0
 10
1277.1600341796875
 20
339.39999389648438
 42
0
  0
VERTEX
  8
0
 10
1292.1600341796875
 20
339.39999389648438
 42
0
  0
SEQEND
  0
POLYLINE
  8
0
 10
0
 20
0
 39
0
 70
1
 66
1
  0
VERTEX
  8
0
 10
1302.43994140625
 20
30.280000686645508
 42
0
  0
VERTEX
  8
0
 10
1322.43994140625
 20
10.279999732971191
 42
0
  0
VERTEX
  8
0
 10
1357.43994140625
 20
10.279999732971191
 42
0
  0
VERTEX
  8
0
 10
1357.43994140625
 20
310.27999877929687
 42
0
  0
VERTEX
  8
0
 10
1317.43994140625
 20
460.27999877929687
 42
0
  0
VERTEX
  8
0
 10
1302.43994140625
 20
460.27999877929687
 42
0
  0
SEQEND
  0
POLYLINE
  8
0
 10
0
 20
0
 39
0
 70
1
 66
1
  0
VERTEX
  8
0
 10
1375.52001953125
 20
769.4000244140625
 42
0
  0
VERTEX
  8
0
 10
1355.52001953125
 20
789.4000244140625
 42
0
  0
VERTEX
  8
0
 10
1320.52001953125
 20
789.4000244140625
 42
0
  0
VERTEX
  8
0
 10
1320.52001953125
 20
489.39999389648437
 42
0
  0
VERTEX
  8
0
 10
1360.52001953125
 20
339.39999389648438
 42
0
  0
VERTEX
  8
0
 10
1375.52001953125
 20
339.39999389648438
 42
0
  0
SEQEND
  0
POLYLINE
  8
0
 10
0
 20
0
 39
0
 70
1
 66
1
  0
VERTEX
  8
0
 10
1385.800048828125
 20
30.280000686645508
 42
0
  0
VERTEX
  8
0
 10
1405.800048828125
 20
10.279999732971191
 42
0
  0
VERTEX
  8
0
 10
1440.800048828125
 20
10.279999732971191
 42
0
  0
VERTEX
  8
0
 10
1440.800048828125
 20
310.27999877929687
 42
0
  0
VERTEX
  8
0
 10
1400.800048828125
 20
460.27999877929687
 42
0
  0
VERTEX
  8
0
 10
1385.800048828125
 20
460.27999877929687
 42
0
  0
SEQEND
  0
POLYLINE
  8
0
 10
0
 20
0
 39
0
 70
1
 66
1
  0
VERTEX
  8
0
 10
1458.8800048828125
 20
769.4000244140625
 42
0
  0
VERTEX
  8
0
 10
1438.8800048828125
 20
789.4000244140625
 42
0
  0
VERTEX
  8
0
 10
1403.8800048828125
 20
789.4000244140625
 42
0
  0
VERTEX
  8
0
 10
1403.8800048828125
 20
489.39999389648437
 42
0
  0
VERTEX
  8
0
 10
1443.8800048828125
 20
339.39999389648438
 42
0
  0
VERTEX
  8
0
 10
1458.8800048828125
 20
339.39999389648438
 42
0
  0
SEQEND
  0
POLYLINE
  8
0
 10
0
 20
0
 39
0
 70
1
 66
1
  0
VERTEX
  8
0
 10
1531.1600341796875
 20
325.27999877929687
 42
-0
  0
VERTEX
  8
0
 10
1539.1600341796875
 20
325.27999877929687
 42
0
  0
VERTEX
  8
0
 10
1539.1600341796875
 20
340.27999877929687
 42
0
  0
VERTEX
  8
0
 10
1469.1600341796875
 20
340.27999877929687
 42
0
  0
VERTEX
  8
0
 10
1469.1600341796875
 20
310.27999877929687
 42
-0
  0
VERTEX
  8
0
 10
1509.1600341796875
 20
310.27999877929687
 42
-0
  0
VERTEX
  8
0
 10
1509.1600341796875
 20
40.279998779296875
 42
-0
  0
VERTEX
  8
0
 10
1469.1600341796875
 20
40.279998779296875
 42
0
  0
VERTEX
  8
0
 10
1469.1600341796875
 20
10.279999732971191
 42
0
  0
VERTEX
  8
0
 10
1539.1600341796875
 20
10.279999732971191
 42
0
  0
VERTEX
  8
0
 10
1539.1600341796875
 20
25.280000686645508
 42
-0
  0
VERTEX
  8
0
 10
1531.1600341796875
 20
25.280000686645508
 42
0
  0
VERTEX
  8
0
 10
1531.1600341796875
 20
172.77999877929687
 42
-0
  0
VERTEX
  8
0
 10
1518.6600341796875
 20
172.77999877929687
 42
0
  0
VERTEX
  8
0
 10
1518.6600341796875
 20
177.77999877929687
 42
0
  0
VERTEX
  8
0
 10
1531.1600341796875
 20
177.77999877929687
 42
0
  0
SEQEND
  0
POLYLINE
  8
0
 10
0
 20
0
 39
0
 70
1
 66
1
  0
VERTEX
  8
0
 10
1531.1600341796875
 20
665.44000244140625
 42
-0
  0
VERTEX
  8
0
 10
1539.1600341796875
 20
665.44000244140625
 42
0
  0
VERTEX
  8
0
 10
1539.1600341796875
 20
680.44000244140625
 42
0
  0
VERTEX
  8
0
 10
1469.1600341796875
 20
680.44000244140625
 42
0
  0
VERTEX
  8
0
 10
1469.1600341796875
 20
650.44000244140625
 42
-0
  0
VERTEX
  8
0
 10
1509.1600341796875
 20
650.44000244140625
 42
-0
  0
VERTEX
  8
0
 10
1509.1600341796875
 20
380.44000244140625
 42
-0
  0
VERTEX
  8
0
 10
1469.1600341796875
 20
380.44000244140625
 42
0
  0
VERTEX
  8
0
 10
1469.1600341796875
 20
350.44000244140625
 42
0
  0
VERTEX
  8
0
 10
1539.1600341796875
 20
350.44000244140625
 42
0
  0
VERTEX
  8
0
 10
1539.1600341796875
 20
365.44000244140625
 42
-0
  0
VERTEX
  8
0
 10
1531.1600341796875
 20
365.44000244140625
 42
0
  0
VERTEX
  8
0
 10
1531.1600341796875
 20
512.94000244140625
 42
-0
  0
VERTEX
  8
0
 10
1518.6600341796875
 20
512.94000244140625
 42
0
  0
VERTEX
  8
0
 10
1518.6600341796875
 20
517.94000244140625
 42
0
  0
VERTEX
  8
0
 10
1531.1600341796875
 20
517.94000244140625
 42
0
  0
SEQEND
  0
POLYLINE
  8
0
 10
0
 20
0
 39
0
 70
1
 66
1
  0
VERTEX
  8
0
 10
1603.47998046875
 20
390.72000122070312
 42
-0
  0
VERTEX
  8
0
 10
1611.47998046875
 20
390.72000122070312
 42
0
  0
VERTEX
  8
0
 10
1611.47998046875
 20
405.72000122070312
 42
0
  0
VERTEX
  8
0
 10
1541.47998046875
 20
405.72000122070312
 42
0
  0
VERTEX
  8
0
 10
1541.47998046875
 20
375.72000122070312
 42
-0
  0
VERTEX
  8
0
 10
1581.47998046875
 20
375.72000122070312
 42
-0
  0
VERTEX
  8
0
 10
1581.47998046875
 20
105.72000122070312
 42
-0
  0
VERTEX
  8
0
 10
1541.47998046875
 20
105.72000122070312
 42
0
  0
VERTEX
  8
0
 10
1541.47998046875
 20
75.720001220703125
 42
0
  0
VERTEX
  8
0
 10
1611.47998046875
 20
75.720001220703125
 42
0
  0
VERTEX
  8
0
 10
1611.47998046875
 20
90.720001220703125
 42
-0
  0
VERTEX
  8
0
 10
1603.47998046875
 20
90.720001220703125
 42
0
  0
VERTEX
  8
0
 10
1603.47998046875
 20
238.22000122070312
 42
-0
  0
VERTEX
  8
0
 10
1590.97998046875
 20
238.22000122070312
 42
0
  0
VERTEX
  8
0
 10
1590.97998046875
 20
243.22000122070312
 42
0
  0
VERTEX
  8
0
 10
1603.47998046875
 20
243.22000122070312
 42
0
  0
SEQEND
  0
POLYLINE
  8
0
 10
0
 20
0
 39
0
 70
1
 66
1
  0
VERTEX
  8
0
 10
1603.47998046875
 20
730.8800048828125
 42
-0
  0
VERTEX
  8
0
 10
1611.47998046875
 20
730.8800048828125
 42
0
  0
VERTEX
  8
0
 10
1611.47998046875
 20
745.8800048828125
 42
0
  0
VERTEX
  8
0
 10
1541.47998046875
 20
745.8800048828125
 42
0
  0
VERTEX
  8
0
 10
1541.47998046875
 20
715.8800048828125
 42
-0
  0
VERTEX
  8
0
 10
1581.47998046875
 20
715.8800048828125
 42
-0
  0
VERTEX
  8
0
 10
1581.47998046875
 20
445.8800048828125
 42
-0
  0
VERTEX
  8
0
 10
1541.47998046875
 20
445.8800048828125
 42
0
  0
VERTEX
  8
0
 10
1541.47998046875
 20
415.8800048828125
 42
0
  0
VERTEX
  8
0
 10
1611.47998046875
 20
415.8800048828125
 42
0
  0
VERTEX
  8
0
 10
1611.47998046875
 20
430.8800048828125
 42
-0
  0
VERTEX
  8
0
 10
1603.47998046875
 20
430.8800048828125
 42
0
  0
VERTEX
  8
0
 10
1603.47998046875
 20
578.3800048828125
 42
-0
  0
VERTEX
  8
0
 10
1590.97998046875
 20
578.3800048828125
 42
0
  0
VERTEX
  8
0
 10
1590.97998046875
 20
583.3800048828125
 42
0
  0
VERTEX
  8
0
 10
1603.47998046875
 20
583.3800048828125
 42
0
  0
SEQEND
  0
POLYLINE
  8
0
 10
0
 20
0
 39
0
 70
1
 66
1
  0
VERTEX
  8
0
 10
1675.800048828125
 20
325.27999877929687
 42
-0
  0
VERTEX
  8
0
 10
1683.800048828125
 20
325.27999877929687
 42
0
  0
VERTEX
  8
0
 10
1683.800048828125
 20
340.27999877929687
 42
0
  0
VERTEX
  8
0
 10
1613.800048828125
 20
340.27999877929687
 42
0
  0
VERTEX
  8
0
 10
1613.800048828125
 20
310.27999877929687
 42
-0
  0
VERTEX
  8
0
 10
1653.800048828125
 20
310.27999877929687
 42
-0
  0
VERTEX
  8
0
 10
1653.800048828125
 20
40.279998779296875
 42
-0
  0
VERTEX
  8
0
 10
1613.800048828125
 20
40.279998779296875
 42
0
  0
VERTEX
  8
0
 10
1613.800048828125
 20
10.279999732971191
 42
0
  0
VERTEX
  8
0
 10
1683.800048828125
 20
10.279999732971191
 42
0
  0
VERTEX
  8
0
 10
1683.800048828125
 20
25.280000686645508
 42
-0
  0
VERTEX
  8
0
 10
1675.800048828125
 20
25.280000686645508
 42
0
  0
VERTEX
  8
0
 10
1675.800048828125
 20
172.77999877929687
 42
-0
  0
VERTEX
  8
0
 10
1663.300048828125
 20
172.77999877929687
 42
0
  0
VERTEX
  8
0
 10
1663.300048828125
 20
177.77999877929687
 42
0
  0
VERTEX
  8
0
 10
1675.800048828125
 20
177.77999877929687
 42
0
  0
SEQEND
  0
POLYLINE
  8
0
 10
0
 20
0
 39
0
 70
1
 66
1
  0
VERTEX
  8
0
 10
1675.800048828125
 20
665.44000244140625
 42
-0
  0
VERTEX
  8
0
 10
1683.800048828125
 20
665.44000244140625
 42
0
  0
VERTEX
  8
0
 10
1683.800048828125
 20
680.44000244140625
 42
0
  0
VERTEX
  8
0
 10
1613.800048828125
 20
680.44000244140625
 42
0
  0
VERTEX
  8
0
 10
1613.800048828125
 20
650.44000244140625
 42
-0
  0
VERTEX
  8
0
 10
1653.800048828125
 20
650.44000244140625
 42
-0
  0
VERTEX
  8
0
 10
1653.800048828125
 20
380.44000244140625
 42
-0
  0
VERTEX
  8
0
 10
1613.800048828125
 20
380.44000244140625
 42
0
  0
VERTEX
  8
0
 10
1613.800048828125
 20
350.44000244140625
 42
0
  0
VERTEX
  8
0
 10
1683.800048828125
 20
350.44000244140625
 42
0
  0
VERTEX
  8
0
 10
1683.800048828125
 20
365.44000244140625
 42
-0
  0
VERTEX
  8
0
 10
1675.800048828125
 20
365.44000244140625
 42
0
  0
VERTEX
  8
0
 10
1675.800048828125
 20
512.94000244140625
 42
-0
  0
VERTEX
  8
0
 10
1663.300048828125
 20
512.94000244140625
 42
0
  0
VERTEX
  8
0
 10
1663.300048828125
 20
517.94000244140625
 42
0
  0
VERTEX
  8
0
 10
1675.800048828125
 20
517.94000244140625
 42
0
  0
SEQEND
  0
POLYLINE
  8
0
 10
0
 20
0
 39
0
 70
1
 66
1
  0
VERTEX
  8
0
 10
1748.1199951171875
 20
390.72000122070312
 42
-0
  0
VERTEX
  8
0
 10
1756.1199951171875
 20
390.72000122070312
 42
0
  0
VERTEX
  8
0
 10
1756.1199951171875
 20
405.72000122070312
 42
0
  0
VERTEX
  8
0
 10
1686.1199951171875
 20
405.72000122070312
 42
0
  0
VERTEX
  8
0
 10
1686.1199951171875
 20
375.72000122070312
 42
-0
  0
VERTEX
  8
0
 10
1726.1199951171875
 20
375.72000122070312
 42
-0
  0
VERTEX
  8
0
 10
1726.1199951171875
 20
105.72000122070312
 42
-0
  0
VERTEX
  8
0
 10
1686.1199951171875
 20
105.72000122070312
 42
0
  0
VERTEX
  8
0
 10
1686.1199951171875
 20
75.720001220703125
 42
0
  0
VERTEX
  8
0
 10
1756.1199951171875
 20
75.720001220703125
 42
0
  0
VERTEX
  8
0
 10
1756.1199951171875
 20
90.720001220703125
 42
-0
  0
VERTEX
  8
0
 10
1748.1199951171875
 20
90.720001220703125
 42
0
  0
VERTEX
  8
0
 10
1748.1199951171875
 20
238.22000122070312
 42
-0
  0
VERTEX
  8
0
 10
1735.6199951171875
 20
238.22000122070312
 42
0
  0
VERTEX
  8
0
 10
1735.6199951171875
 20
243.22000122070312
 42
0
  0
VERTEX
  8
0
 10
1748.1199951171875
 20
243.22000122070312
 42
0
  0
SEQEND
  0
POLYLINE
  8
0
 10
0
 20
0
 39
0
 70
1
 66
1
  0
VERTEX
  8
0
 10
1748.1199951171875
 20
730.8800048828125
 42
-0
  0
VERTEX
  8
0
 10
1756.1199951171875
 20
730.8800048828125
 42
0
  0
VERTEX
  8
0
 10
1756.1199951171875
 20
745.8800048828125
 42
0
  0
VERTEX
  8
0
 10
1686.1199951171875
 20
745.8800048828125
 42
0
  0
VERTEX
  8
0
 10
1686.1199951171875
 20
715.8800048828125
 42
-0
  0
VERTEX
  8
0
 10
1726.1199951171875
 20
715.8800048828125
 42
-0
  0
VERTEX
  8
0
 10
1726.1199951171875
 20
445.8800048828125
 42
-0
  0
VERTEX
  8
0
 10
1686.1199951171875
 20
445.8800048828125
 42
0
  0
VERTEX
  8
0
 10
1686.1199951171875
 20
415.8800048828125
 42
0
  0
VERTEX
  8
0
 10
1756.1199951171875
 20
415.8800048828125
 42
0
  0
VERTEX
  8
0
 10
1756.1199951171875
 20
430.8800048828125
 42
-0
  0
VERTEX
  8
0
 10
1748.1199951171875
 20
430.8800048828125
 42
0
  0
VERTEX
  8
0
 10
1748.1199951171875
 20
578.3800048828125
 42
-0
  0
VERTEX
  8
0
 10
1735.6199951171875
 20
578.3800048828125
 42
0
  0
VERTEX
  8
0
 10
1735.6199951171875
 20
583.3800048828125
 42
0
  0
VERTEX
  8
0
 10
1748.1199951171875
 20
583.3800048828125
 42
0
  0
SEQEND
  0
POLYLINE
  8
0
 10
0
 20
0
 39
0
 70
1
 66
1
  0
VERTEX
  8
0
 10
1484.1600341796875
 20
778.20001220703125
 42
-0
  0
VERTEX
  8
0
 10
1484.1600341796875
 20
786.20001220703125
 42
0
  0
VERTEX
  8
0
 10
1469.1600341796875
 20
786.20001220703125
 42
0
  0
VERTEX
  8
0
 10
1469.1600341796875
 20
716.20001220703125
 42
0
  0
VERTEX
  8
0
 10
1499.1600341796875
 20
716.20001220703125
 42
-0
  0
VERTEX
  8
0
 10
1499.1600341796875
 20
756.20001220703125
 42
-0
  0
VERTEX
  8
0
 10
1769.1600341796875
 20
756.20001220703125
 42
-0
  0
VERTEX
  8
0
 10
1769.1600341796875
 20
716.20001220703125
 42
0
  0
VERTEX
  8
0
 10
1799.1600341796875
 20
716.20001220703125
 42
0
  0
VERTEX
  8
0
 10
1799.1600341796875
 20
786.20001220703125
 42
0
  0
VERTEX
  8
0
 10
1784.1600341796875
 20
786.20001220703125
 42
-0
  0
VERTEX
  8
0
 10
1784.1600341796875
 20
778.20001220703125
 42
0
  0
VERTEX
  8
0
 10
1636.6600341796875
 20
778.20001220703125
 42
-0
  0
VERTEX
  8
0
 10
1636.6600341796875
 20
765.70001220703125
 42
0
  0
VERTEX
  8
0
 10
1631.6600341796875
 20
765.70001220703125
 42
0
  0
VERTEX
  8
0
 10
1631.6600341796875
 20
778.20001220703125
 42
0
  0
SEQEND
  0
POLYLINE
  8
0
 10
0
 20
0
 39
0
 70
1
 66
1
  0
VERTEX
  8
0
 10
1820.43994140625
 20
325.27999877929687
 42
-0
  0
VERTEX
  8
0
 10
1828.43994140625
 20
325.27999877929687
 42
0
  0
VERTEX
  8
0
 10
1828.43994140625
 20
340.27999877929687
 42
0
  0
VERTEX
  8
0
 10
1758.43994140625
 20
340.27999877929687
 42
0
  0
VERTEX
  8
0
 10
1758.43994140625
 20
310.27999877929687
 42
-0
  0
VERTEX
  8
0
 10
1798.43994140625
 20
310.27999877929687
 42
-0
  0
VERTEX
  8
0
 10
1798.43994140625
 20
40.279998779296875
 42
-0
  0
VERTEX
  8
0
 10
1758.43994140625
 20
40.279998779296875
 42
0
  0
VERTEX
  8
0
 10
1758.43994140625
 20
10.279999732971191
 42
0
  0
VERTEX
  8
0
 10
1828.43994140625
 20
10.279999732971191
 42
0
  0
VERTEX
  8
0
 10
1828.43994140625
 20
25.280000686645508
 42
-0
  0
VERTEX
  8
0
 10
1820.43994140625
 20
25.280000686645508
 42
0
  0
VERTEX
  8
0
 10
1820.43994140625
 20
172.77999877929687
 42
-0
  0
VERTEX
  8
0
 10
1807.93994140625
 20
172.77999877929687
 42
0
  0
VERTEX
  8
0
 10
1807.93994140625
 20
177.77999877929687
 42
0
  0
VERTEX
  8
0
 10
1820.43994140625
 20
177.77999877929687
 42
0
  0
SEQEND
  0
POLYLINE
  8
0
 10
0
 20
0
 39
0
 70
1
 66
1
  0
VERTEX
  8
0
 10
1798.43994140625
 20
403.07998657226563
 42
0
  0
VERTEX
  8
0
 10
1898.43994140625
 20
403.07998657226563
 42
0
  0
VERTEX
  8
0
 10
1898.43994140625
 20
558.08001708984375
 42
0
  0
VERTEX
  8
0
 10
1798.43994140625
 20
558.08001708984375
 42
-0
  0
VERTEX
  8
0
 10
1758.43994140625
 20
518.08001708984375
 42
0
  0
VERTEX
  8
0
 10
1758.43994140625
 20
443.07998657226562
 42
0
  0
SEQEND
  0
POLYLINE
  8
0
 10
0
 20
0
 39
0
 70
1
 66
1
  0
VERTEX
  8
0
 10
1820.8399658203125
 20
568.20001220703125
 42
0
  0
VERTEX
  8
0
 10
1920.8399658203125
 20
568.20001220703125
 42
0
  0
VERTEX
  8
0
 10
1920.8399658203125
 20
723.20001220703125
 42
0
  0
VERTEX
  8
0
 10
1820.8399658203125
 20
723.20001220703125
 42
-0
  0
VERTEX
  8
0
 10
1780.8399658203125
 20
683.20001220703125
 42
0
  0
VERTEX
  8
0
 10
1780.8399658203125
 20
608.20001220703125
 42
0
  0
SEQEND
  0
POLYLINE
  8
0
 10
0
 20
0
 39
0
 70
1
 66
1
  0
VERTEX
  8
0
 10
1870.760009765625
 20
10.279999732971191
 42
0
  0
VERTEX
  8
0
 10
1970.760009765625
 20
10.279999732971191
 42
0
  0
VERTEX
  8
0
 10
1970.760009765625
 20
165.27999877929687
 42
0
  0
VERTEX
  8
0
 10
1870.760009765625
 20
165.27999877929687
 42
-0
  0
VERTEX
  8
0
 10
1830.760009765625
 20
125.27999877929687
 42
0
  0
VERTEX
  8
0
 10
1830.760009765625
 20
50.279998779296875
 42
0
  0
SEQEND
  0
POLYLINE
  8
0
 10
0
 20
0
 39
0
 70
1
 66
1
  0
VERTEX
  8
0
 10
1870.760009765625
 20
175.39999389648437
 42
0
  0
VERTEX
  8
0
 10
1970.760009765625
 20
175.39999389648437
 42
0
  0
VERTEX
  8
0
 10
1970.760009765625
 20
330.39999389648438
 42
0
  0
VERTEX
  8
0
 10
1870.760009765625
 20
330.39999389648438
 42
-0
  0
VERTEX
  8
0
 10
1830.760009765625
 20
290.39999389648437
 42
0
  0
VERTEX
  8
0
 10
1830.760009765625
 20
215.39999389648437
 42
0
  0
SEQEND
  0
POLYLINE
  8
0
 10
0
 20
0
 39
0
 70
1
 66
1
  0
VERTEX
  8
0
 10
2008.6800537109375
 20
495.51998901367187
 42
0
  0
VERTEX
  8
0
 10
1908.6800537109375
 20
495.51998901367187
 42
0
  0
VERTEX
  8
0
 10
1908.6800537109375
 20
340.51998901367187
 42
0
  0
VERTEX
  8
0
 10
2008.6800537109375
 20
340.51998901367187
 42
-0
  0
VERTEX
  8
0
 10
2048.679931640625
 20
380.51998901367187
 42
0
  0
VERTEX
  8
0
 10
2048.679931640625
 20
455.51998901367187
 42
0
  0
SEQEND
  0
POLYLINE
  8
0
 10
0
 20
0
 39
0
 70
1
 66
1
  0
VERTEX
  8
0
 10
2031.0799560546875
 20
660.6400146484375
 42
0
  0
VERTEX
  8
0
 10
1931.0799560546875
 20
660.6400146484375
 42
0
  0
VERTEX
  8
0
 10
1931.0799560546875
 20
505.6400146484375
 42
0
  0
VERTEX
  8
0
 10
2031.0799560546875
 20
505.6400146484375
 42
-0
  0
VERTEX
  8
0
 10
2071.080078125
 20
545.6400146484375
 42
0
  0
VERTEX
  8
0
 10
2071.080078125
 20
620.6400146484375
 42
0
  0
SEQEND
  0
POLYLINE
  8
0
 10
0
 20
0
 39
0
 70
1
 66
1
  0
VERTEX
  8
0
 10
2081
 20
165.27999877929687
 42
0
  0
VERTEX
  8
0
 10
1981
 20
165.27999877929687
 42
0
  0
VERTEX
  8
0
 10
1981
 20
10.279999732971191
 42
0
  0
VERTEX
  8
0
 10
2081
 20
10.279999732971191
 42
-0
  0
VERTEX
  8
0
 10
2121
 20
50.279998779296875
 42
0
  0
VERTEX
  8
0
 10
2121
 20
125.27999877929687
 42
0
  0
SEQEND
  0
POLYLINE
  8
0
 10
0
 20
0
 39
0
 70
1
 66
1
  0
VERTEX
  8
0
 10
2081
 20
330.39999389648438
 42
0
  0
VERTEX
  8
0
 10
1981
 20
330.39999389648438
 42
0
  0
VERTEX
  8
0
 10
1981
 20
175.39999389648437
 42
0
  0
VERTEX
  8
0
 10
2081
 20
175.39999389648437
 42
-0
  0
VERTEX
  8
0
 10
2121
 20
215.39999389648437
 42
0
  0
VERTEX
  8
0
 10
2121
 20
290.39999389648437
 42
0
  0
SEQEND
  0
POLYLINE
  8
0
 10
0
 20
0
 39
0
 70
1
 66
1
  0
VERTEX
  8
0
 10
2071.8798828125
 20
634.5999755859375
 42
0
  0
VERTEX
  8
0
 10
2171.8798828125
 20
634.5999755859375
 42
0
  0
VERTEX
  8
0
 10
2171.8798828125
 20
789.5999755859375
 42
0
  0
VERTEX
  8
0
 10
2071.8798828125
 20
789.5999755859375
 42
-0
  0
VERTEX
  8
0
 10
2031.8800048828125
 20
749.5999755859375
 42
0
  0
VERTEX
  8
0
 10
2031.8800048828125
 20
674.5999755859375
 42
0
  0
SEQEND
  0
POLYLINE
  8
0
 10
0
 20
0
 39
0
 70
1
 66
1
  0
VERTEX
  8
0
 10
2098.919921875
 20
327.239990234375
 42
0
  0
VERTEX
  8
0
 10
2198.919921875
 20
327.239990234375
 42
0
  0
VERTEX
  8
0
 10
2198.919921875
 20
482.239990234375
 42
0
  0
VERTEX
  8
0
 10
2098.919921875
 20
482.239990234375
 42
-0
  0
VERTEX
  8
0
 10
2058.919921875
 20
442.239990234375
 42
0
  0
VERTEX
  8
0
 10
2058.919921875
 20
367.239990234375
 42
0
  0
SEQEND
  0
POLYLINE
  8
0
 10
0
 20
0
 39
0
 70
1
 66
1
  0
VERTEX
  8
0
 10
2168.199951171875
 20
92.839996337890625
 42
0
  0
VERTEX
  8
0
 10
2268.199951171875
 20
92.839996337890625
 42
0
  0
VERTEX
  8
0
 10
2268.199951171875
 20
247.83999633789062
 42
0
  0
VERTEX
  8
0
 10
2168.199951171875
 20
247.83999633789062
 42
-0
  0
VERTEX
  8
0
 10
2128.199951171875
 20
207.83999633789063
 42
0
  0
VERTEX
  8
0
 10
2128.199951171875
 20
132.83999633789062
 42
0
  0
SEQEND
  0
POLYLINE
  8
0
 10
0
 20
0
 39
0
 70
1
 66
1
  0
VERTEX
  8
0
 10
2199.39990234375
 20
492.3599853515625
 42
0
  0
VERTEX
  8
0
 10
2299.39990234375
 20
492.3599853515625
 42
0
  0
VERTEX
  8
0
 10
2299.39990234375
 20
647.3599853515625
 42
0
  0
VERTEX
  8
0
 10
2199.39990234375
 20
647.3599853515625
 42
-0
  0
VERTEX
  8
0
 10
2159.39990234375
 20
607.3599853515625
 42
0
  0
VERTEX
  8
0
 10
2159.39990234375
 20
532.3599853515625
 42
0
  0
SEQEND
  0
POLYLINE
  8
0
 10
0
 20
0
 39
0
 70
1
 66
1
  0
VERTEX
  8
0
 10
2309.159912109375
 20
412.95999145507812
 42
0
  0
VERTEX
  8
0
 10
2209.159912109375
 20
412.95999145507812
 42
0
  0
VERTEX
  8
0
 10
2209.159912109375
 20
257.95999145507812
 42
0
  0
VERTEX
  8
0
 10
2309.159912109375
 20
257.95999145507812
 42
-0
  0
VERTEX
  8
0
 10
2349.159912109375
 20
297.95999145507812
 42
0
  0
VERTEX
  8
0
 10
2349.159912109375
 20
372.95999145507812
 42
0
  0
SEQEND
  0
POLYLINE
  8
0
 10
0
 20
0
 39
0
 70
1
 66
1
  0
VERTEX
  8
0
 10
2278.43994140625
 20
80.279998779296875
 42
0
  0
VERTEX
  8
0
 10
2289.93994140625
 20
80.279998779296875
 42
0
  0
VERTEX
  8
0
 10
2289.93994140625
 20
10.279999732971191
 42
0
  0
VERTEX
  8
0
 10
2316.93994140625
 20
10.279999732971191
 42
-0
  0
VERTEX
  8
0
 10
2316.93994140625
 20
80.279998779296875
 42
0
  0
VERTEX
  8
0
 10
2328.43994140625
 20
80.279998779296875
 42
0
  0
VERTEX
  8
0
 10
2328.43994140625
 20
238.27999877929687
 42
0
  0
VERTEX
  8
0
 10
2278.43994140625
 20
238.27999877929687
 42
0
  0
SEQEND
  0
POLYLINE
  8
0
 10
0
 20
0
 39
0
 70
1
 66
1
  0
VERTEX
  8
0
 10
2309.639892578125
 20
485.72000122070313
 42
0
  0
VERTEX
  8
0
 10
2321.139892578125
 20
485.72000122070313
 42
0
  0
VERTEX
  8
0
 10
2321.139892578125
 20
415.72000122070312
 42
0
  0
VERTEX
  8
0
 10
2348.139892578125
 20
415.72000122070312
 42
-0
  0
VERTEX
  8
0
 10
2348.139892578125
 20
485.72000122070313
 42
0
  0
VERTEX
  8
0
 10
2359.639892578125
 20
485.72000122070313
 42
0
  0
VERTEX
  8
0
 10
2359.639892578125
 20
643.719970703125
 42
0
  0
VERTEX
  8
0
 10
2309.639892578125
 20
643.719970703125
 42
0
  0
SEQEND
  0
POLYLINE
  8
0
 10
0
 20
0
 39
0
 70
1
 66
1
  0
VERTEX
  8
0
 10
10.279999732971191
 20
642.44000244140625
 42
0
  0
VERTEX
  8
0
 10
29.280000686645508
 20
642.44000244140625
 42
0
  0
VERTEX
  8
0
 10
29.280000686645508
 20
582.44000244140625
 42
0
  0
VERTEX
  8
0
 10
41.279998779296875
 20
582.44000244140625
 42
-0
  0
VERTEX
  8
0
 10
41.279998779296875
 20
642.44000244140625
 42
0
  0
VERTEX
  8
0
 10
60.279998779296875
 20
642.44000244140625
 42
0
  0
VERTEX
  8
0
 10
60.279998779296875
 20
668.44000244140625
 42
0
  0
VERTEX
  8
0
 10
10.279999732971191
 20
668.44000244140625
 42
0
  0
SEQEND
  0
POLYLINE
  8
0
 10
0
 20
0
 39
0
 70
1
 66
1
  0
VERTEX
  8
0
 10
83.55999755859375
 20
200.52000427246094
 42
0
  0
VERTEX
  8
0
 10
102.55999755859375
 20
200.52000427246094
 42
0
  0
VERTEX
  8
0
 10
102.55999755859375
 20
140.52000427246094
 42
0
  0
VERTEX
  8
0
 10
114.55999755859375
 20
140.52000427246094
 42
-0
  0
VERTEX
  8
0
 10
114.55999755859375
 20
200.52000427246094
 42
0
  0
VERTEX
  8
0
 10
133.55999755859375
 20
200.52000427246094
 42
0
  0
VERTEX
  8
0
 10
133.55999755859375
 20
226.52000427246094
 42
0
  0
VERTEX
  8
0
 10
83.55999755859375
 20
226.52000427246094
 42
0
  0
SEQEND
  0
POLYLINE
  8
0
 10
0
 20
0
 39
0
 70
1
 66
1
  0
VERTEX
  8
0
 10
133.55999755859375
 20
262.67999267578125
 42
0
  0
VERTEX
  8
0
 10
114.55999755859375
 20
262.67999267578125
 42
0
  0
VERTEX
  8
0
 10
114.55999755859375
 20
322.67999267578125
 42
0
  0
VERTEX
  8
0
 10
102.55999755859375
 20
322.67999267578125
 42
-0
  0
VERTEX
  8
0
 10
102.55999755859375
 20
262.67999267578125
 42
0
  0
VERTEX
  8
0
 10
83.55999755859375
 20
262.67999267578125
 42
0
  0
VERTEX
  8
0
 10
83.55999755859375
 20
236.67999267578125
 42
0
  0
VERTEX
  8
0
 10
133.55999755859375
 20
236.67999267578125
 42
0
  0
SEQEND
  0
POLYLINE
  8
0
 10
0
 20
0
 39
0
 70
1
 66
1
  0
VERTEX
  8
0
 10
175.16000366210937
 20
166.52000427246094
 42
0
  0
VERTEX
  8
0
 10
156.16000366210937
 20
166.52000427246094
 42
0
  0
VERTEX
  8
0
 10
156.16000366210937
 20
226.52000427246094
 42
0
  0
VERTEX
  8
0
 10
144.16000366210937
 20
226.52000427246094
 42
-0
  0
VERTEX
  8
0
 10
144.16000366210937
 20
166.52000427246094
 42
0
  0
VERTEX
  8
0
 10
125.16000366210937
 20
166.52000427246094
 42
0
  0
VERTEX
  8
0
 10
125.16000366210937
 20
140.52000427246094
 42
0
  0
VERTEX
  8
0
 10
175.16000366210937
 20
140.52000427246094
 42
0
  0
SEQEND
  0
POLYLINE
  8
0
 10
0
 20
0
 39
0
 70
1
 66
1
  0
VERTEX
  8
0
 10
125.16000366210937
 20
296.67999267578125
 42
0
  0
VERTEX
  8
0
 10
144.16000366210937
 20
296.67999267578125
 42
0
  0
VERTEX
  8
0
 10
144.16000366210937
 20
236.67999267578125
 42
0
  0
VERTEX
  8
0
 10
156.16000366210937
 20
236.67999267578125
 42
-0
  0
VERTEX
  8
0
 10
156.16000366210937
 20
296.67999267578125
 42
0
  0
VERTEX
  8
0
 10
175.16000366210937
 20
296.67999267578125
 42
0
  0
VERTEX
  8
0
 10
175.16000366210937
 20
322.67999267578125
 42
0
  0
VERTEX
  8
0
 10
125.16000366210937
 20
322.67999267578125
 42
0
  0
SEQEND
  0
POLYLINE
  8
0
 10
0
 20
0
 39
0
 70
1
 66
1
  0
VERTEX
  8
0
 10
280.51998901367187
 20
356.3599853515625
 42
0
  0
VERTEX
  8
0
 10
299.51998901367187
 20
356.3599853515625
 42
0
  0
VERTEX
  8
0
 10
299.51998901367187
 20
296.3599853515625
 42
0
  0
VERTEX
  8
0
 10
311.51998901367187
 20
296.3599853515625
 42
-0
  0
VERTEX
  8
0
 10
311.51998901367187
 20
356.3599853515625
 42
0
  0
VERTEX
  8
0
 10
330.51998901367187
 20
356.3599853515625
 42
0
  0
VERTEX
  8
0
 10
330.51998901367187
 20
382.3599853515625
 42
0
  0
VERTEX
  8
0
 10
280.51998901367187
 20
382.3599853515625
 42
0
  0
SEQEND
  0
POLYLINE
  8
0
 10
0
 20
0
 39
0
 70
1
 66
1
  0
VERTEX
  8
0
 10
427.239990234375
 20
616.84002685546875
 42
0
  0
VERTEX
  8
0
 10
446.239990234375
 20
616.84002685546875
 42
0
  0
VERTEX
  8
0
 10
446.239990234375
 20
556.84002685546875
 42
0
  0
VERTEX
  8
0
 10
458.239990234375
 20
556.84002685546875
 42
-0
  0
VERTEX
  8
0
 10
458.239990234375
 20
616.84002685546875
 42
0
  0
VERTEX
  8
0
 10
477.239990234375
 20
616.84002685546875
 42
0
  0
VERTEX
  8
0
 10
477.239990234375
 20
642.84002685546875
 42
0
  0
VERTEX
  8
0
 10
427.239990234375
 20
642.84002685546875
 42
0
  0
SEQEND
  0
POLYLINE
  8
0
 10
0
 20
0
 39
0
 70
1
 66
1
  0
VERTEX
  8
0
 10
487.239990234375
 20
695.96002197265625
 42
0
  0
VERTEX
  8
0
 10
487.239990234375
 20
676.96002197265625
 42
0
  0
VERTEX
  8
0
 10
427.239990234375
 20
676.96002197265625
 42
0
  0
VERTEX
  8
0
 10
427.239990234375
 20
664.96002197265625
 42
-0
  0
VERTEX
  8
0
 10
487.239990234375
 20
664.96002197265625
 42
0
  0
VERTEX
  8
0
 10
487.239990234375
 20
645.96002197265625
 42
0
  0
VERTEX
  8
0
 10
513.239990234375
 20
645.96002197265625
 42
0
  0
VERTEX
  8
0
 10
513.239990234375
 20
695.96002197265625
 42
0
  0
SEQEND
  0
POLYLINE
  8
0
 10
0
 20
0
 39
0
 70
1
 66
1
  0
VERTEX
  8
0
 10
550.760009765625
 20
70.279998779296875
 42
0
  0
VERTEX
  8
0
 10
569.760009765625
 20
70.279998779296875
 42
0
  0
VERTEX
  8
0
 10
569.760009765625
 20
10.279999732971191
 42
0
  0
VERTEX
  8
0
 10
581.760009765625
 20
10.279999732971191
 42
-0
  0
VERTEX
  8
0
 10
581.760009765625
 20
70.279998779296875
 42
0
  0
VERTEX
  8
0
 10
600.760009765625
 20
70.279998779296875
 42
0
  0
VERTEX
  8
0
 10
600.760009765625
 20
96.279998779296875
 42
0
  0
VERTEX
  8
0
 10
550.760009765625
 20
96.279998779296875
 42
0
  0
SEQEND
  0
POLYLINE
  8
0
 10
0
 20
0
 39
0
 70
1
 66
1
  0
VERTEX
  8
0
 10
697.47998046875
 20
200.52000427246094
 42
0
  0
VERTEX
  8
0
 10
716.47998046875
 20
200.52000427246094
 42
0
  0
VERTEX
  8
0
 10
716.47998046875
 20
140.52000427246094
 42
0
  0
VERTEX
  8
0
 10
728.47998046875
 20
140.52000427246094
 42
-0
  0
VERTEX
  8
0
 10
728.47998046875
 20
200.52000427246094
 42
0
  0
VERTEX
  8
0
 10
747.47998046875
 20
200.52000427246094
 42
0
  0
VERTEX
  8
0
 10
747.47998046875
 20
226.52000427246094
 42
0
  0
VERTEX
  8
0
 10
697.47998046875
 20
226.52000427246094
 42
0
  0
SEQEND
  0
POLYLINE
  8
0
 10
0
 20
0
 39
0
 70
1
 66
1
  0
VERTEX
  8
0
 10
747.47998046875
 20
262.67999267578125
 42
0
  0
VERTEX
  8
0
 10
728.47998046875
 20
262.67999267578125
 42
0
  0
VERTEX
  8
0
 10
728.47998046875
 20
322.67999267578125
 42
0
  0
VERTEX
  8
0
 10
716.47998046875
 20
322.67999267578125
 42
-0
  0
VERTEX
  8
0
 10
716.47998046875
 20
262.67999267578125
 42
0
  0
VERTEX
  8
0
 10
697.47998046875
 20
262.67999267578125
 42
0
  0
VERTEX
  8
0
 10
697.47998046875
 20
236.67999267578125
 42
0
  0
VERTEX
  8
0
 10
747.47998046875
 20
236.67999267578125
 42
0
  0
SEQEND
  0
POLYLINE
  8
0
 10
0
 20
0
 39
0
 70
1
 66
1
  0
VERTEX
  8
0
 10
697.47998046875
 20
486.60000610351562
 42
0
  0
VERTEX
  8
0
 10
716.47998046875
 20
486.60000610351562
 42
0
  0
VERTEX
  8
0
 10
716.47998046875
 20
426.60000610351562
 42
0
  0
VERTEX
  8
0
 10
728.47998046875
 20
426.60000610351562
 42
-0
  0
VERTEX
  8
0
 10
728.47998046875
 20
486.60000610351562
 42
0
  0
VERTEX
  8
0
 10
747.47998046875
 20
486.60000610351562
 42
0
  0
VERTEX
  8
0
 10
747.47998046875
 20
512.5999755859375
 42
0
  0
VERTEX
  8
0
 10
697.47998046875
 20
512.5999755859375
 42
0
  0
SEQEND
  0
POLYLINE
  8
0
 10
0
 20
0
 39
0
 70
1
 66
1
  0
VERTEX
  8
0
 10
757.47998046875
 20
565.719970703125
 42
0
  0
VERTEX
  8
0
 10
757.47998046875
 20
546.719970703125
 42
0
  0
VERTEX
  8
0
 10
697.47998046875
 20
546.719970703125
 42
0
  0
VERTEX
  8
0
 10
697.47998046875
 20
534.719970703125
 42
-0
  0
VERTEX
  8
0
 10
757.47998046875
 20
534.719970703125
 42
0
  0
VERTEX
  8
0
 10
757.47998046875
 20
515.719970703125
 42
0
  0
VERTEX
  8
0
 10
783.47998046875
 20
515.719970703125
 42
0
  0
VERTEX
  8
0
 10
783.47998046875
 20
565.719970703125
 42
0
  0
SEQEND
  0
POLYLINE
  8
0
 10
0
 20
0
 39
0
 70
1
 66
1
  0
VERTEX
  8
0
 10
789.08001708984375
 20
166.52000427246094
 42
0
  0
VERTEX
  8
0
 10
770.08001708984375
 20
166.52000427246094
 42
0
  0
VERTEX
  8
0
 10
770.08001708984375
 20
226.52000427246094
 42
0
  0
VERTEX
  8
0
 10
758.08001708984375
 20
226.52000427246094
 42
-0
  0
VERTEX
  8
0
 10
758.08001708984375
 20
166.52000427246094
 42
0
  0
VERTEX
  8
0
 10
739.08001708984375
 20
166.52000427246094
 42
0
  0
VERTEX
  8
0
 10
739.08001708984375
 20
140.52000427246094
 42
0
  0
VERTEX
  8
0
 10
789.08001708984375
 20
140.52000427246094
 42
0
  0
SEQEND
  0
POLYLINE
  8
0
 10
0
 20
0
 39
0
 70
1
 66
1
  0
VERTEX
  8
0
 10
739.08001708984375
 20
296.67999267578125
 42
0
  0
VERTEX
  8
0
 10
758.08001708984375
 20
296.67999267578125
 42
0
  0
VERTEX
  8
0
 10
758.08001708984375
 20
236.67999267578125
 42
0
  0
VERTEX
  8
0
 10
770.08001708984375
 20
236.67999267578125
 42
-0
  0
VERTEX
  8
0
 10
770.08001708984375
 20
296.67999267578125
 42
0
  0
VERTEX
  8
0
 10
789.08001708984375
 20
296.67999267578125
 42
0
  0
VERTEX
  8
0
 10
789.08001708984375
 20
322.67999267578125
 42
0
  0
VERTEX
  8
0
 10
739.08001708984375
 20
322.67999267578125
 42
0
  0
SEQEND
  0
POLYLINE
  8
0
 10
0
 20
0
 39
0
 70
1
 66
1
  0
VERTEX
  8
0
 10
1066.280029296875
 20
735.8800048828125
 42
0
  0
VERTEX
  8
0
 10
1085.280029296875
 20
735.8800048828125
 42
0
  0
VERTEX
  8
0
 10
1085.280029296875
 20
675.8800048828125
 42
0
  0
VERTEX
  8
0
 10
1097.280029296875
 20
675.8800048828125
 42
-0
  0
VERTEX
  8
0
 10
1097.280029296875
 20
735.8800048828125
 42
0
  0
VERTEX
  8
0
 10
1116.280029296875
 20
735.8800048828125
 42
0
  0
VERTEX
  8
0
 10
1116.280029296875
 20
761.8800048828125
 42
0
  0
VERTEX
  8
0
 10
1066.280029296875
 20
761.8800048828125
 42
0
  0
SEQEND
  0
POLYLINE
  8
0
 10
0
 20
0
 39
0
 70
1
 66
1
  0
VERTEX
  8
0
 10
1132.760009765625
 20
596.44000244140625
 42
0
  0
VERTEX
  8
0
 10
1113.760009765625
 20
596.44000244140625
 42
0
  0
VERTEX
  8
0
 10
1113.760009765625
 20
656.44000244140625
 42
0
  0
VERTEX
  8
0
 10
1101.760009765625
 20
656.44000244140625
 42
-0
  0
VERTEX
  8
0
 10
1101.760009765625
 20
596.44000244140625
 42
0
  0
VERTEX
  8
0
 10
1082.760009765625
 20
596.44000244140625
 42
0
  0
VERTEX
  8
0
 10
1082.760009765625
 20
570.44000244140625
 42
0
  0
VERTEX
  8
0
 10
1132.760009765625
 20
570.44000244140625
 42
0
  0
SEQEND
  0
POLYLINE
  8
0
 10
0
 20
0
 39
0
 70
1
 66
1
  0
VERTEX
  8
0
 10
1838.5999755859375
 20
392.92001342773437
 42
0
  0
VERTEX
  8
0
 10
1838.5999755859375
 20
373.92001342773437
 42
0
  0
VERTEX
  8
0
 10
1778.5999755859375
 20
373.92001342773437
 42
0
  0
VERTEX
  8
0
 10
1778.5999755859375
 20
361.92001342773437
 42
-0
  0
VERTEX
  8
0
 10
1838.5999755859375
 20
361.92001342773437
 42
0
  0
VERTEX
  8
0
 10
1838.5999755859375
 20
342.92001342773437
 42
0
  0
VERTEX
  8
0
 10
1864.5999755859375
 20
342.92001342773437
 42
0
  0
VERTEX
  8
0
 10
1864.5999755859375
 20
392.92001342773437
 42
0
  0
SEQEND
  0
POLYLINE
  8
0
 10
0
 20
0
 39
0
 70
1
 66
1
  0
VERTEX
  8
0
 10
1835.47998046875
 20
733.32000732421875
 42
0
  0
VERTEX
  8
0
 10
1835.47998046875
 20
752.32000732421875
 42
0
  0
VERTEX
  8
0
 10
1895.47998046875
 20
752.32000732421875
 42
0
  0
VERTEX
  8
0
 10
1895.47998046875
 20
764.32000732421875
 42
-0
  0
VERTEX
  8
0
 10
1835.47998046875
 20
764.32000732421875
 42
0
  0
VERTEX
  8
0
 10
1835.47998046875
 20
783.32000732421875
 42
0
  0
VERTEX
  8
0
 10
1809.47998046875
 20
783.32000732421875
 42
0
  0
VERTEX
  8
0
 10
1809.47998046875
 20
733.32000732421875
 42
0
  0
SEQEND
  0
POLYLINE
  8
0
 10
0
 20
0
 39
0
 70
1
 66
1
  0
VERTEX
  8
0
 10
1912.3599853515625
 20
733.47998046875
 42
0
  0
VERTEX
  8
0
 10
1931.3599853515625
 20
733.47998046875
 42
0
  0
VERTEX
  8
0
 10
1931.3599853515625
 20
673.47998046875
 42
0
  0
VERTEX
  8
0
 10
1943.3599853515625
 20
673.47998046875
 42
-0
  0
VERTEX
  8
0
 10
1943.3599853515625
 20
733.47998046875
 42
0
  0
VERTEX
  8
0
 10
1962.3599853515625
 20
733.47998046875
 42
0
  0
VERTEX
  8
0
 10
1962.3599853515625
 20
759.47998046875
 42
0
  0
VERTEX
  8
0
 10
1912.3599853515625
 20
759.47998046875
 42
0
  0
SEQEND
  0
POLYLINE
  8
0
 10
0
 20
0
 39
0
 70
1
 66
1
  0
VERTEX
  8
0
 10
2003.9599609375
 20
696.760009765625
 42
0
  0
VERTEX
  8
0
 10
1984.9599609375
 20
696.760009765625
 42
0
  0
VERTEX
  8
0
 10
1984.9599609375
 20
756.760009765625
 42
0
  0
VERTEX
  8
0
 10
1972.9599609375
 20
756.760009765625
 42
-0
  0
VERTEX
  8
0
 10
1972.9599609375
 20
696.760009765625
 42
0
  0
VERTEX
  8
0
 10
1953.9599609375
 20
696.760009765625
 42
0
  0
VERTEX
  8
0
 10
1953.9599609375
 20
670.760009765625
 42
0
  0
VERTEX
  8
0
 10
2003.9599609375
 20
670.760009765625
 42
0
  0
SEQEND
  0
POLYLINE
  8
0
 10
0
 20
0
 39
0
 70
1
 66
1
  0
VERTEX
  8
0
 10
2112.60009765625
 20
518.3599853515625
 42
0
  0
VERTEX
  8
0
 10
2093.60009765625
 20
518.3599853515625
 42
0
  0
VERTEX
  8
0
 10
2093.60009765625
 20
578.3599853515625
 42
0
  0
VERTEX
  8
0
 10
2081.60009765625
 20
578.3599853515625
 42
-0
  0
VERTEX
  8
0
 10
2081.60009765625
 20
518.3599853515625
 42
0
  0
VERTEX
  8
0
 10
2062.60009765625
 20
518.3599853515625
 42
0
  0
VERTEX
  8
0
 10
2062.60009765625
 20
492.3599853515625
 42
0
  0
VERTEX
  8
0
 10
2112.60009765625
 20
492.3599853515625
 42
0
  0
SEQEND
  0
POLYLINE
  8
0
 10
0
 20
0
 39
0
 70
1
 66
1
  0
VERTEX
  8
0
 10
2085.159912109375
 20
588.67999267578125
 42
0
  0
VERTEX
  8
0
 10
2104.159912109375
 20
588.67999267578125
 42
0
  0
VERTEX
  8
0
 10
2104.159912109375
 20
528.67999267578125
 42
0
  0
VERTEX
  8
0
 10
2116.159912109375
 20
528.67999267578125
 42
-0
  0
VERTEX
  8
0
 10
2116.159912109375
 20
588.67999267578125
 42
0
  0
VERTEX
  8
0
 10
2135.159912109375
 20
588.67999267578125
 42
0
  0
VERTEX
  8
0
 10
2135.159912109375
 20
614.67999267578125
 42
0
  0
VERTEX
  8
0
 10
2085.159912109375
 20
614.67999267578125
 42
0
  0
SEQEND
  0
POLYLINE
  8
0
 10
0
 20
0
 39
0
 70
1
 66
1
  0
VERTEX
  8
0
 10
2186.60009765625
 20
60.279998779296875
 42
0
  0
VERTEX
  8
0
 10
2186.60009765625
 20
41.279998779296875
 42
0
  0
VERTEX
  8
0
 10
2126.60009765625
 20
41.279998779296875
 42
0
  0
VERTEX
  8
0
 10
2126.60009765625
 20
29.280000686645508
 42
-0
  0
VERTEX
  8
0
 10
2186.60009765625
 20
29.280000686645508
 42
0
  0
VERTEX
  8
0
 10
2186.60009765625
 20
10.279999732971191
 42
0
  0
VERTEX
  8
0
 10
2212.60009765625
 20
10.279999732971191
 42
0
  0
VERTEX
  8
0
 10
2212.60009765625
 20
60.279998779296875
 42
0
  0
SEQEND
  0
POLYLINE
  8
0
 10
0
 20
0
 39
0
 70
1
 66
1
  0
VERTEX
  8
0
 10
2182.1201171875
 20
717.47998046875
 42
0
  0
VERTEX
  8
0
 10
2201.1201171875
 20
717.47998046875
 42
0
  0
VERTEX
  8
0
 10
2201.1201171875
 20
657.47998046875
 42
0
  0
VERTEX
  8
0
 10
2213.1201171875
 20
657.47998046875
 42
-0
  0
VERTEX
  8
0
 10
2213.1201171875
 20
717.47998046875
 42
0
  0
VERTEX
  8
0
 10
2232.1201171875
 20
717.47998046875
 42
0
  0
VERTEX
  8
0
 10
2232.1201171875
 20
743.47998046875
 42
0
  0
VERTEX
  8
0
 10
2182.1201171875
 20
743.47998046875
 42
0
  0
SEQEND
  0
POLYLINE
  8
0
 10
0
 20
0
 39
0
 70
1
 66
1
  0
VERTEX
  8
0
 10
2242.60009765625
 20
784.91998291015625
 42
0
  0
VERTEX
  8
0
 10
2242.60009765625
 20
765.91998291015625
 42
0
  0
VERTEX
  8
0
 10
2182.60009765625
 20
765.91998291015625
 42
0
  0
VERTEX
  8
0
 10
2182.60009765625
 20
753.91998291015625
 42
-0
  0
VERTEX
  8
0
 10
2242.60009765625
 20
753.91998291015625
 42
0
  0
VERTEX
  8
0
 10
2242.60009765625
 20
734.91998291015625
 42
0
  0
VERTEX
  8
0
 10
2268.60009765625
 20
734.91998291015625
 42
0
  0
VERTEX
  8
0
 10
2268.60009765625
 20
784.91998291015625
 42
0
  0
SEQEND
  0
POLYLINE
  8
0
 10
0
 20
0
 39
0
 70
1
 66
1
  0
VERTEX
  8
0
 10
2235.159912109375
 20
423.07998657226562
 42
0
  0
VERTEX
  8
0
 10
2235.159912109375
 20
442.07998657226562
 42
0
  0
VERTEX
  8
0
 10
2295.159912109375
 20
442.07998657226562
 42
0
  0
VERTEX
  8
0
 10
2295.159912109375
 20
454.07998657226563
 42
-0
  0
VERTEX
  8
0
 10
2235.159912109375
 20
454.07998657226563
 42
0
  0
VERTEX
  8
0
 10
2235.159912109375
 20
473.07998657226562
 42
0
  0
VERTEX
  8
0
 10
2209.159912109375
 20
473.07998657226562
 42
0
  0
VERTEX
  8
0
 10
2209.159912109375
 20
423.07998657226562
 42
0
  0
SEQEND
  0
POLYLINE
  8
0
 10
0
 20
0
 39
0
 70
1
 66
1
  0
VERTEX
  8
0
 10
2283.39990234375
 20
707.47998046875
 42
0
  0
VERTEX
  8
0
 10
2283.39990234375
 20
688.47998046875
 42
0
  0
VERTEX
  8
0
 10
2223.39990234375
 20
688.47998046875
 42
0
  0
VERTEX
  8
0
 10
2223.39990234375
 20
676.47998046875
 42
-0
  0
VERTEX
  8
0
 10
2283.39990234375
 20
676.47998046875
 42
0
  0
VERTEX
  8
0
 10
2283.39990234375
 20
657.47998046875
 42
0
  0
VERTEX
  8
0
 10
2309.39990234375
 20
657.47998046875
 42
0
  0
VERTEX
  8
0
 10
2309.39990234375
 20
707.47998046875
 42
0
  0
SEQEND
  0
POLYLINE
  8
0
 10
0
 20
0
 39
0
 70
1
 66
1
  0
VERTEX
  8
0
 10
2301
 20
717.79998779296875
 42
0
  0
VERTEX
  8
0
 10
2320
 20
717.79998779296875
 42
0
  0
VERTEX
  8
0
 10
2320
 20
657.79998779296875
 42
0
  0
VERTEX
  8
0
 10
2332
 20
657.79998779296875
 42
-0
  0
VERTEX
  8
0
 10
2332
 20
717.79998779296875
 42
0
  0
VERTEX
  8
0
 10
2351
 20
717.79998779296875
 42
0
  0
VERTEX
  8
0
 10
2351
 20
743.79998779296875
 42
0
  0
VERTEX
  8
0
 10
2301
 20
743.79998779296875
 42
0
  0
SEQEND
  0
POLYLINE
  8
0
 10
0
 20
0
 39
0
 70
1
 66
1
  0
VERTEX
  8
0
 10
2377.239990234375
 20
36.279998779296875
 42
0
  0
VERTEX
  8
0
 10
2358.239990234375
 20
36.279998779296875
 42
0
  0
VERTEX
  8
0
 10
2358.239990234375
 20
96.279998779296875
 42
0
  0
VERTEX
  8
0
 10
2346.239990234375
 20
96.279998779296875
 42
-0
  0
VERTEX
  8
0
 10
2346.239990234375
 20
36.279998779296875
 42
0
  0
VERTEX
  8
0
 10
2327.239990234375
 20
36.279998779296875
 42
0
  0
VERTEX
  8
0
 10
2327.239990234375
 20
10.279999732971191
 42
0
  0
VERTEX
  8
0
 10
2377.239990234375
 20
10.279999732971191
 42
0
  0
SEQEND
  0
ENDSEC
  0
EOF
