  0
SECTION
  2
ENTITIES
  0
POLYLINE
  8
0
 10
0
 20
0
 39
0
 70
1
 66
1
  0
VERTEX
  8
0
 10
0
 20
0
 42
-0
  0
VERTEX
  8
0
 10
4600
 20
0
 42
-0
  0
VERTEX
  8
0
 10
4600
 20
2000
 42
-0
  0
VERTEX
  8
0
 10
0
 20
2000
 42
-0
  0
SEQEND
  0
POLYLINE
  8
0
 10
0
 20
0
 39
0
 70
1
 66
1
  0
VERTEX
  8
0
 10
3048.05615234375
 20
518.885498046875
 42
-0.25076499581336975
  0
VERTEX
  8
0
 10
3089.65869140625
 20
541.1505126953125
 42
-0
  0
VERTEX
  8
0
 10
3636.140380859375
 20
541.1505126953125
 42
-0.25076499581336975
  0
VERTEX
  8
0
 10
3677.742919921875
 20
518.885498046875
 42
-0
  0
VERTEX
  8
0
 10
3702.8994140625
 20
481.1505126953125
 42
-0
  0
VERTEX
  8
0
 10
3762.8994140625
 20
481.1505126953125
 42
-0
  0
VERTEX
  8
0
 10
3762.8994140625
 20
646.1505126953125
 42
-0
  0
VERTEX
  8
0
 10
3800.901123046875
 20
912.94793701171875
 42
0.99558401107788086
  0
VERTEX
  8
0
 10
3405.1552734375
 20
971.10467529296875
 42
-0
  0
VERTEX
  8
0
 10
3366.56298828125
 20
716.3355712890625
 42
-0.23149999976158142
  0
VERTEX
  8
0
 10
3341.55712890625
 20
680.19879150390625
 42
-0
  0
VERTEX
  8
0
 10
3274.282958984375
 20
642.52520751953125
 42
-0.12831999361515045
  0
VERTEX
  8
0
 10
3249.852783203125
 20
636.1505126953125
 42
-0
  0
VERTEX
  8
0
 10
2962.8994140625
 20
636.1505126953125
 42
-0
  0
VERTEX
  8
0
 10
2962.8994140625
 20
481.1505126953125
 42
-0
  0
VERTEX
  8
0
 10
3022.8994140625
 20
481.1505126953125
 42
-0
  0
SEQEND
  0
POLYLINE
  8
0
 10
0
 20
0
 39
0
 70
1
 66
1
  0
VERTEX
  8
0
 10
3493.8994140625
 20
941.1505126953125
 42
-1
  0
VERTEX
  8
0
 10
3711.8994140625
 20
941.1505126953125
 42
-1
  0
SEQEND
  0
POLYLINE
  8
0
 10
0
 20
0
 39
0
 70
1
 66
1
  0
VERTEX
  8
0
 10
3726.912109375
 20
1270.4658203125
 42
-0.25076499581336975
  0
VERTEX
  8
0
 10
3685.3095703125
 20
1248.2008056640625
 42
-0
  0
VERTEX
  8
0
 10
3138.828125
 20
1248.20068359375
 42
-0.25076499581336975
  0
VERTEX
  8
0
 10
3097.2255859375
 20
1270.465576171875
 42
-0
  0
VERTEX
  8
0
 10
3072.06884765625
 20
1308.2005615234375
 42
-0
  0
VERTEX
  8
0
 10
3012.06884765625
 20
1308.2005615234375
 42
-0
  0
VERTEX
  8
0
 10
3012.06884765625
 20
1143.2005615234375
 42
-0
  0
VERTEX
  8
0
 10
2974.0673828125
 20
876.40313720703125
 42
0.99558401107788086
  0
VERTEX
  8
0
 10
3369.813232421875
 20
818.24652099609375
 42
-0
  0
VERTEX
  8
0
 10
3408.4052734375
 20
1073.015625
 42
-0.23149999976158142
  0
VERTEX
  8
0
 10
3433.4111328125
 20
1109.1524658203125
 42
-0
  0
VERTEX
  8
0
 10
3500.685546875
 20
1146.8260498046875
 42
-0.12831999361515045
  0
VERTEX
  8
0
 10
3525.11572265625
 20
1153.2008056640625
 42
-0
  0
VERTEX
  8
0
 10
3812.06884765625
 20
1153.200927734375
 42
-0
  0
VERTEX
  8
0
 10
3812.06884765625
 20
1308.200927734375
 42
-0
  0
VERTEX
  8
0
 10
3752.06884765625
 20
1308.200927734375
 42
-0
  0
SEQEND
  0
POLYLINE
  8
0
 10
0
 20
0
 39
0
 70
1
 66
1
  0
VERTEX
  8
0
 10
3281.069091796875
 20
848.20068359375
 42
-1
  0
VERTEX
  8
0
 10
3063.069091796875
 20
848.20062255859375
 42
-1
  0
SEQEND
  0
POLYLINE
  8
0
 10
0
 20
0
 39
0
 70
1
 66
1
  0
VERTEX
  8
0
 10
2870.79150390625
 20
1270.4658203125
 42
-0.25076499581336975
  0
VERTEX
  8
0
 10
2829.18896484375
 20
1248.2008056640625
 42
-0
  0
VERTEX
  8
0
 10
2282.70751953125
 20
1248.20068359375
 42
-0.25076499581336975
  0
VERTEX
  8
0
 10
2241.10498046875
 20
1270.465576171875
 42
-0
  0
VERTEX
  8
0
 10
2215.9482421875
 20
1308.2005615234375
 42
-0
  0
VERTEX
  8
0
 10
2155.9482421875
 20
1308.2005615234375
 42
-0
  0
VERTEX
  8
0
 10
2155.9482421875
 20
1143.2005615234375
 42
-0
  0
VERTEX
  8
0
 10
2117.94677734375
 20
876.40313720703125
 42
0.99558401107788086
  0
VERTEX
  8
0
 10
2513.692626953125
 20
818.24652099609375
 42
-0
  0
VERTEX
  8
0
 10
2552.28466796875
 20
1073.015625
 42
-0.23149999976158142
  0
VERTEX
  8
0
 10
2577.29052734375
 20
1109.1524658203125
 42
-0
  0
VERTEX
  8
0
 10
2644.56494140625
 20
1146.8260498046875
 42
-0.12831999361515045
  0
VERTEX
  8
0
 10
2668.9951171875
 20
1153.2008056640625
 42
-0
  0
VERTEX
  8
0
 10
2955.9482421875
 20
1153.200927734375
 42
-0
  0
VERTEX
  8
0
 10
2955.9482421875
 20
1308.200927734375
 42
-0
  0
VERTEX
  8
0
 10
2895.9482421875
 20
1308.200927734375
 42
-0
  0
SEQEND
  0
POLYLINE
  8
0
 10
0
 20
0
 39
0
 70
1
 66
1
  0
VERTEX
  8
0
 10
2424.948486328125
 20
848.20068359375
 42
-1
  0
VERTEX
  8
0
 10
2206.948486328125
 20
848.20062255859375
 42
-1
  0
SEQEND
  0
POLYLINE
  8
0
 10
0
 20
0
 39
0
 70
1
 66
1
  0
VERTEX
  8
0
 10
2214.256591796875
 20
518.885498046875
 42
-0.25076499581336975
  0
VERTEX
  8
0
 10
2255.859130859375
 20
541.1505126953125
 42
-0
  0
VERTEX
  8
0
 10
2802.3408203125
 20
541.1505126953125
 42
-0.25076499581336975
  0
VERTEX
  8
0
 10
2843.943359375
 20
518.885498046875
 42
-0
  0
VERTEX
  8
0
 10
2869.10009765625
 20
481.1505126953125
 42
-0
  0
VERTEX
  8
0
 10
2929.10009765625
 20
481.1505126953125
 42
-0
  0
VERTEX
  8
0
 10
2929.10009765625
 20
646.1505126953125
 42
-0
  0
VERTEX
  8
0
 10
2967.1015625
 20
912.94793701171875
 42
0.99558401107788086
  0
VERTEX
  8
0
 10
2571.355712890625
 20
971.10467529296875
 42
-0
  0
VERTEX
  8
0
 10
2532.763427734375
 20
716.3355712890625
 42
-0.23149999976158142
  0
VERTEX
  8
0
 10
2507.757568359375
 20
680.19879150390625
 42
-0
  0
VERTEX
  8
0
 10
2440.4833984375
 20
642.52520751953125
 42
-0.12831999361515045
  0
VERTEX
  8
0
 10
2416.05322265625
 20
636.1505126953125
 42
-0
  0
VERTEX
  8
0
 10
2129.10009765625
 20
636.1505126953125
 42
-0
  0
VERTEX
  8
0
 10
2129.10009765625
 20
481.1505126953125
 42
-0
  0
VERTEX
  8
0
 10
2189.10009765625
 20
481.1505126953125
 42
-0
  0
SEQEND
  0
POLYLINE
  8
0
 10
0
 20
0
 39
0
 70
1
 66
1
  0
VERTEX
  8
0
 10
2660.10009765625
 20
941.1505126953125
 42
-1
  0
VERTEX
  8
0
 10
2878.10009765625
 20
941.1505126953125
 42
-1
  0
SEQEND
  0
POLYLINE
  8
0
 10
0
 20
0
 39
0
 70
1
 66
1
  0
VERTEX
  8
0
 10
3607.457275390625
 20
49.785003662109375
 42
-0.25076499581336975
  0
VERTEX
  8
0
 10
3649.059814453125
 20
72.04998779296875
 42
-0
  0
VERTEX
  8
0
 10
4195.54150390625
 20
72.04998779296875
 42
-0.25076499581336975
  0
VERTEX
  8
0
 10
4237.14404296875
 20
49.785003662109375
 42
-0
  0
VERTEX
  8
0
 10
4262.30078125
 20
12.04998779296875
 42
-0
  0
VERTEX
  8
0
 10
4322.30078125
 20
12.04998779296875
 42
-0
  0
VERTEX
  8
0
 10
4322.30078125
 20
177.04998779296875
 42
-0
  0
VERTEX
  8
0
 10
4360.30224609375
 20
443.84744262695312
 42
0.99558401107788086
  0
VERTEX
  8
0
 10
3964.556396484375
 20
502.00418090820312
 42
-0
  0
VERTEX
  8
0
 10
3925.964111328125
 20
247.23503112792969
 42
-0.23149999976158142
  0
VERTEX
  8
0
 10
3900.958251953125
 20
211.09828186035156
 42
-0
  0
VERTEX
  8
0
 10
3833.68408203125
 20
173.4246826171875
 42
-0.12831999361515045
  0
VERTEX
  8
0
 10
3809.25390625
 20
167.04998779296875
 42
-0
  0
VERTEX
  8
0
 10
3522.30078125
 20
167.04998779296875
 42
-0
  0
VERTEX
  8
0
 10
3522.30078125
 20
12.04998779296875
 42
-0
  0
VERTEX
  8
0
 10
3582.30078125
 20
12.04998779296875
 42
-0
  0
SEQEND
  0
POLYLINE
  8
0
 10
0
 20
0
 39
0
 70
1
 66
1
  0
VERTEX
  8
0
 10
4053.30078125
 20
472.04998779296875
 42
-1
  0
VERTEX
  8
0
 10
4271.30078125
 20
472.04998779296875
 42
-1
  0
SEQEND
  0
POLYLINE
  8
0
 10
0
 20
0
 39
0
 70
1
 66
1
  0
VERTEX
  8
0
 10
4573.64208984375
 20
1455.701171875
 42
1
  0
VERTEX
  8
0
 10
4213.64208984375
 20
1455.701171875
 42
1
  0
SEQEND
  0
POLYLINE
  8
0
 10
0
 20
0
 39
0
 70
1
 66
1
  0
VERTEX
  8
0
 10
4503.64208984375
 20
1455.701171875
 42
-1
  0
VERTEX
  8
0
 10
4283.64208984375
 20
1455.701171875
 42
-1
  0
SEQEND
  0
POLYLINE
  8
0
 10
0
 20
0
 39
0
 70
1
 66
1
  0
VERTEX
  8
0
 10
4410.5888671875
 20
1798.4993896484375
 42
1
  0
VERTEX
  8
0
 10
4050.5888671875
 20
1798.4993896484375
 42
1
  0
SEQEND
  0
POLYLINE
  8
0
 10
0
 20
0
 39
0
 70
1
 66
1
  0
VERTEX
  8
0
 10
4340.5888671875
 20
1798.4993896484375
 42
-1
  0
VERTEX
  8
0
 10
4120.5888671875
 20
1798.4993896484375
 42
-1
  0
SEQEND
  0
POLYLINE
  8
0
 10
0
 20
0
 39
0
 70
1
 66
1
  0
VERTEX
  8
0
 10
4470.17626953125
 20
842.623779296875
 42
1
  0
VERTEX
  8
0
 10
4110.17626953125
 20
842.623779296875
 42
1
  0
SEQEND
  0
POLYLINE
  8
0
 10
0
 20
0
 39
0
 70
1
 66
1
  0
VERTEX
  8
0
 10
4400.17626953125
 20
842.623779296875
 42
-1
  0
VERTEX
  8
0
 10
4180.17626953125
 20
842.623779296875
 42
-1
  0
SEQEND
  0
POLYLINE
  8
0
 10
0
 20
0
 39
0
 70
1
 66
1
  0
VERTEX
  8
0
 10
4311.6630859375
 20
1191.54736328125
 42
1
  0
VERTEX
  8
0
 10
3951.6630859375
 20
1191.54736328125
 42
1
  0
SEQEND
  0
POLYLINE
  8
0
 10
0
 20
0
 39
0
 70
1
 66
1
  0
VERTEX
  8
0
 10
4241.6630859375
 20
1191.54736328125
 42
-1
  0
VERTEX
  8
0
 10
4021.6630859375
 20
1191.54736328125
 42
-1
  0
SEQEND
  0
POLYLINE
  8
0
 10
0
 20
0
 39
0
 70
1
 66
1
  0
VERTEX
  8
0
 10
4073.76953125
 20
1482.000732421875
 42
1
  0
VERTEX
  8
0
 10
3713.76953125
 20
1482.000732421875
 42
1
  0
SEQEND
  0
POLYLINE
  8
0
 10
0
 20
0
 39
0
 70
1
 66
1
  0
VERTEX
  8
0
 10
4003.76953125
 20
1482.000732421875
 42
-1
  0
VERTEX
  8
0
 10
3783.76953125
 20
1482.000732421875
 42
-1
  0
SEQEND
  0
POLYLINE
  8
0
 10
0
 20
0
 39
0
 70
1
 66
1
  0
VERTEX
  8
0
 10
1037.0499267578125
 20
137.0504150390625
 42
0
  0
VERTEX
  8
0
 10
366.94189453125
 20
137.05014038085937
 42
-0.13292500376701355
  0
VERTEX
  8
0
 10
341.72564697265625
 20
143.87443542480469
 42
0
  0
VERTEX
  8
0
 10
132.58193969726562
 20
266.02218627929687
 42
0.79196399450302124
  0
VERTEX
  8
0
 10
25.01025390625
 20
153.39599609375
 42
0
  0
VERTEX
  8
0
 10
117.04998779296875
 20
12.050048828125
 42
0
  0
VERTEX
  8
0
 10
2112.050048828125
 20
12.050827026367188
 42
0.41421398520469666
  0
VERTEX
  8
0
 10
2117.050048828125
 20
17.050827026367188
 42
0
  0
VERTEX
  8
0
 10
2117.050048828125
 20
67.798171997070312
 42
0.36775198578834534
  0
VERTEX
  8
0
 10
2112.8525390625
 20
72.733352661132813
 42
0
  0
VERTEX
  8
0
 10
1526.540283203125
 20
168.06842041015625
 42
-0.23447899520397186
  0
VERTEX
  8
0
 10
1490.4091796875
 20
193.96249389648437
 42
0
  0
VERTEX
  8
0
 10
1417.0498046875
 20
332.05056762695312
 42
0
  0
VERTEX
  8
0
 10
1087.0498046875
 20
332.0504150390625
 42
0
  0
VERTEX
  8
0
 10
1087.0499267578125
 20
187.05043029785156
 42
-0.41421398520469666
  0
SEQEND
  0
POLYLINE
  8
0
 10
0
 20
0
 39
0
 70
1
 66
1
  0
VERTEX
  8
0
 10
1037.050048828125
 20
1075.911865234375
 42
0
  0
VERTEX
  8
0
 10
366.94195556640625
 20
1075.91162109375
 42
-0.13292500376701355
  0
VERTEX
  8
0
 10
341.7257080078125
 20
1082.73583984375
 42
0
  0
VERTEX
  8
0
 10
132.58200073242187
 20
1204.8836669921875
 42
0.79196399450302124
  0
VERTEX
  8
0
 10
25.01031494140625
 20
1092.2574462890625
 42
0
  0
VERTEX
  8
0
 10
117.050048828125
 20
950.9114990234375
 42
0
  0
VERTEX
  8
0
 10
2112.050048828125
 20
950.91229248046875
 42
0.41421398520469666
  0
VERTEX
  8
0
 10
2117.050048828125
 20
955.91229248046875
 42
0
  0
VERTEX
  8
0
 10
2117.050048828125
 20
1006.6596069335937
 42
0.36775198578834534
  0
VERTEX
  8
0
 10
2112.8525390625
 20
1011.5947875976562
 42
0
  0
VERTEX
  8
0
 10
1526.5404052734375
 20
1106.929931640625
 42
-0.23447899520397186
  0
VERTEX
  8
0
 10
1490.4091796875
 20
1132.823974609375
 42
0
  0
VERTEX
  8
0
 10
1417.0499267578125
 20
1270.9119873046875
 42
0
  0
VERTEX
  8
0
 10
1087.0499267578125
 20
1270.911865234375
 42
0
  0
VERTEX
  8
0
 10
1087.050048828125
 20
1125.911865234375
 42
-0.41421398520469666
  0
SEQEND
  0
POLYLINE
  8
0
 10
0
 20
0
 39
0
 70
1
 66
1
  0
VERTEX
  8
0
 10
1037.050048828125
 20
606.481201171875
 42
0
  0
VERTEX
  8
0
 10
366.94195556640625
 20
606.48095703125
 42
-0.13292500376701355
  0
VERTEX
  8
0
 10
341.7257080078125
 20
613.30523681640625
 42
0
  0
VERTEX
  8
0
 10
132.58200073242187
 20
735.4530029296875
 42
0.79196399450302124
  0
VERTEX
  8
0
 10
25.01031494140625
 20
622.8267822265625
 42
0
  0
VERTEX
  8
0
 10
117.050048828125
 20
481.4808349609375
 42
0
  0
VERTEX
  8
0
 10
2112.050048828125
 20
481.48162841796875
 42
0.41421398520469666
  0
VERTEX
  8
0
 10
2117.050048828125
 20
486.48162841796875
 42
0
  0
VERTEX
  8
0
 10
2117.050048828125
 20
537.22894287109375
 42
0.36775198578834534
  0
VERTEX
  8
0
 10
2112.8525390625
 20
542.16412353515625
 42
0
  0
VERTEX
  8
0
 10
1526.5404052734375
 20
637.49920654296875
 42
-0.23447899520397186
  0
VERTEX
  8
0
 10
1490.4091796875
 20
663.39324951171875
 42
0
  0
VERTEX
  8
0
 10
1417.0499267578125
 20
801.4813232421875
 42
0
  0
VERTEX
  8
0
 10
1087.0499267578125
 20
801.481201171875
 42
0
  0
VERTEX
  8
0
 10
1087.050048828125
 20
656.481201171875
 42
-0.41421398520469666
  0
SEQEND
  0
POLYLINE
  8
0
 10
0
 20
0
 39
0
 70
1
 66
1
  0
VERTEX
  8
0
 10
1092.050048828125
 20
344.43084716796875
 42
0
  0
VERTEX
  8
0
 10
1762.1580810546875
 20
344.43084716796875
 42
-0.13292500376701355
  0
VERTEX
  8
0
 10
1787.3743896484375
 20
337.6065673828125
 42
0
  0
VERTEX
  8
0
 10
1996.51806640625
 20
215.458740234375
 42
0.79196399450302124
  0
VERTEX
  8
0
 10
2104.08984375
 20
328.08489990234375
 42
0
  0
VERTEX
  8
0
 10
2012.050048828125
 20
469.43084716796875
 42
0
  0
VERTEX
  8
0
 10
17.050048828125
 20
469.43084716796875
 42
0.41421398520469666
  0
VERTEX
  8
0
 10
12.050048828125
 20
464.43084716796875
 42
0
  0
VERTEX
  8
0
 10
12.050048828125
 20
413.68353271484375
 42
0.36775198578834534
  0
VERTEX
  8
0
 10
16.24755859375
 20
408.74835205078125
 42
0
  0
VERTEX
  8
0
 10
602.5596923828125
 20
313.41302490234375
 42
-0.23447899520397186
  0
VERTEX
  8
0
 10
638.6907958984375
 20
287.51895141601562
 42
0
  0
VERTEX
  8
0
 10
712.050048828125
 20
149.43086242675781
 42
0
  0
VERTEX
  8
0
 10
1042.050048828125
 20
149.43086242675781
 42
0
  0
VERTEX
  8
0
 10
1042.050048828125
 20
294.43084716796875
 42
-0.41421398520469666
  0
SEQEND
  0
POLYLINE
  8
0
 10
0
 20
0
 39
0
 70
1
 66
1
  0
VERTEX
  8
0
 10
1092.050048828125
 20
813.861572265625
 42
0
  0
VERTEX
  8
0
 10
1762.1580810546875
 20
813.861572265625
 42
-0.13292500376701355
  0
VERTEX
  8
0
 10
1787.3743896484375
 20
807.03729248046875
 42
0
  0
VERTEX
  8
0
 10
1996.51806640625
 20
684.88946533203125
 42
0.79196399450302124
  0
VERTEX
  8
0
 10
2104.08984375
 20
797.515625
 42
0
  0
VERTEX
  8
0
 10
2012.050048828125
 20
938.861572265625
 42
0
  0
VERTEX
  8
0
 10
17.050048828125
 20
938.861572265625
 42
0.41421398520469666
  0
VERTEX
  8
0
 10
12.050048828125
 20
933.861572265625
 42
0
  0
VERTEX
  8
0
 10
12.050048828125
 20
883.1142578125
 42
0.36775198578834534
  0
VERTEX
  8
0
 10
16.24755859375
 20
878.1790771484375
 42
0
  0
VERTEX
  8
0
 10
602.5596923828125
 20
782.84375
 42
-0.23447899520397186
  0
VERTEX
  8
0
 10
638.6907958984375
 20
756.94964599609375
 42
0
  0
VERTEX
  8
0
 10
712.050048828125
 20
618.861572265625
 42
0
  0
VERTEX
  8
0
 10
1042.050048828125
 20
618.861572265625
 42
0
  0
VERTEX
  8
0
 10
1042.050048828125
 20
763.861572265625
 42
-0.41421398520469666
  0
SEQEND
  0
POLYLINE
  8
0
 10
0
 20
0
 39
0
 70
1
 66
1
  0
VERTEX
  8
0
 10
2210.250732421875
 20
12.04998779296875
 42
0
  0
VERTEX
  8
0
 10
3505.2509765625
 20
12.050491333007813
 42
0.41421398520469666
  0
VERTEX
  8
0
 10
3510.250732421875
 20
17.050491333007813
 42
0
  0
VERTEX
  8
0
 10
3510.250732421875
 20
332.05050659179687
 42
0
  0
VERTEX
  8
0
 10
3180.250732421875
 20
332.05035400390625
 42
0
  0
VERTEX
  8
0
 10
3180.250732421875
 20
187.05036926269531
 42
-0.41421398520469666
  0
VERTEX
  8
0
 10
3130.250732421875
 20
137.05035400390625
 42
0
  0
VERTEX
  8
0
 10
2446.611083984375
 20
137.05007934570312
 42
-0.13360999524593353
  0
VERTEX
  8
0
 10
2444.077880859375
 20
137.73931884765625
 42
0
  0
VERTEX
  8
0
 10
2225.78271484375
 20
266.02212524414062
 42
0.79196399450302124
  0
VERTEX
  8
0
 10
2118.2109375
 20
153.39593505859375
 42
0
  0
SEQEND
  0
POLYLINE
  8
0
 10
0
 20
0
 39
0
 70
1
 66
1
  0
VERTEX
  8
0
 10
1665.03271484375
 20
1407.962158203125
 42
0
  0
VERTEX
  8
0
 10
370.03271484375
 20
1407.962158203125
 42
0.41421398520469666
  0
VERTEX
  8
0
 10
365.03271484375
 20
1402.962158203125
 42
0
  0
VERTEX
  8
0
 10
365.03271484375
 20
1087.962158203125
 42
0
  0
VERTEX
  8
0
 10
695.03271484375
 20
1087.962158203125
 42
0
  0
VERTEX
  8
0
 10
695.03271484375
 20
1232.962158203125
 42
-0.41421398520469666
  0
VERTEX
  8
0
 10
745.03271484375
 20
1282.962158203125
 42
0
  0
VERTEX
  8
0
 10
1428.67236328125
 20
1282.962158203125
 42
-0.13360999524593353
  0
VERTEX
  8
0
 10
1431.20556640625
 20
1282.2728271484375
 42
0
  0
VERTEX
  8
0
 10
1649.500732421875
 20
1153.989990234375
 42
0.79196399450302124
  0
VERTEX
  8
0
 10
1757.072509765625
 20
1266.6160888671875
 42
0
  0
SEQEND
  0
POLYLINE
  8
0
 10
0
 20
0
 39
0
 70
1
 66
1
  0
VERTEX
  8
0
 10
117.050048828125
 20
1420.0120849609375
 42
0
  0
VERTEX
  8
0
 10
1412.050048828125
 20
1420.0125732421875
 42
0.41421398520469666
  0
VERTEX
  8
0
 10
1417.050048828125
 20
1425.0125732421875
 42
0
  0
VERTEX
  8
0
 10
1417.0499267578125
 20
1740.0125732421875
 42
0
  0
VERTEX
  8
0
 10
1087.0499267578125
 20
1740.012451171875
 42
0
  0
VERTEX
  8
0
 10
1087.050048828125
 20
1595.012451171875
 42
-0.41421398520469666
  0
VERTEX
  8
0
 10
1037.050048828125
 20
1545.012451171875
 42
0
  0
VERTEX
  8
0
 10
353.410400390625
 20
1545.01220703125
 42
-0.13360999524593353
  0
VERTEX
  8
0
 10
350.87713623046875
 20
1545.701416015625
 42
0
  0
VERTEX
  8
0
 10
132.58200073242187
 20
1673.9842529296875
 42
0.79196399450302124
  0
VERTEX
  8
0
 10
25.01031494140625
 20
1561.3580322265625
 42
0
  0
SEQEND
  0
POLYLINE
  8
0
 10
0
 20
0
 39
0
 70
1
 66
1
  0
VERTEX
  8
0
 10
1517.5498046875
 20
1958.021484375
 42
0
  0
VERTEX
  8
0
 10
222.5498046875
 20
1958.021484375
 42
0.41421398520469666
  0
VERTEX
  8
0
 10
217.5498046875
 20
1953.021484375
 42
0
  0
VERTEX
  8
0
 10
217.5498046875
 20
1638.021484375
 42
0
  0
VERTEX
  8
0
 10
547.5498046875
 20
1638.021484375
 42
0
  0
VERTEX
  8
0
 10
547.5498046875
 20
1783.021484375
 42
-0.41421398520469666
  0
VERTEX
  8
0
 10
597.5498046875
 20
1833.021484375
 42
0
  0
VERTEX
  8
0
 10
1281.189453125
 20
1833.021484375
 42
-0.13360999524593353
  0
VERTEX
  8
0
 10
1283.72265625
 20
1832.3321533203125
 42
0
  0
VERTEX
  8
0
 10
1502.017822265625
 20
1704.04931640625
 42
0.79196399450302124
  0
VERTEX
  8
0
 10
1609.589599609375
 20
1816.6754150390625
 42
0
  0
SEQEND
  0
POLYLINE
  8
0
 10
0
 20
0
 39
0
 70
1
 66
1
  0
VERTEX
  8
0
 10
3748.480712890625
 20
469.10049438476562
 42
0
  0
VERTEX
  8
0
 10
2453.480712890625
 20
469.10049438476562
 42
0.41421398520469666
  0
VERTEX
  8
0
 10
2448.480712890625
 20
464.10049438476562
 42
0
  0
VERTEX
  8
0
 10
2448.480712890625
 20
149.10049438476562
 42
0
  0
VERTEX
  8
0
 10
2778.480712890625
 20
149.10049438476562
 42
0
  0
VERTEX
  8
0
 10
2778.480712890625
 20
294.10049438476562
 42
-0.41421398520469666
  0
VERTEX
  8
0
 10
2828.480712890625
 20
344.10049438476562
 42
0
  0
VERTEX
  8
0
 10
3512.120361328125
 20
344.10049438476562
 42
-0.13360999524593353
  0
VERTEX
  8
0
 10
3514.653564453125
 20
343.4112548828125
 42
0
  0
VERTEX
  8
0
 10
3732.94873046875
 20
215.12837219238281
 42
0.79196399450302124
  0
VERTEX
  8
0
 10
3840.5205078125
 20
327.7545166015625
 42
0
  0
SEQEND
  0
POLYLINE
  8
0
 10
0
 20
0
 39
0
 70
1
 66
1
  0
VERTEX
  8
0
 10
1828.4864501953125
 20
1417.525390625
 42
-0
  0
VERTEX
  8
0
 10
1848.486572265625
 20
1332.525390625
 42
-0
  0
VERTEX
  8
0
 10
1828.486572265625
 20
1247.525390625
 42
-0
  0
VERTEX
  8
0
 10
1828.4866943359375
 20
1112.525390625
 42
0.55911397933959961
  0
VERTEX
  8
0
 10
1901.062255859375
 20
1067.912109375
 42
-0
  0
VERTEX
  8
0
 10
2133.486572265625
 20
1185.525634765625
 42
-0
  0
VERTEX
  8
0
 10
2133.486572265625
 20
1222.025634765625
 42
-1
  0
VERTEX
  8
0
 10
2133.486572265625
 20
1443.025634765625
 42
-0
  0
VERTEX
  8
0
 10
2133.486328125
 20
1479.525634765625
 42
-0
  0
VERTEX
  8
0
 10
1901.0618896484375
 20
1597.138671875
 42
0.55911397933959961
  0
VERTEX
  8
0
 10
1828.4864501953125
 20
1552.525390625
 42
-0
  0
SEQEND
  0
POLYLINE
  8
0
 10
0
 20
0
 39
0
 70
1
 66
1
  0
VERTEX
  8
0
 10
2512.803955078125
 20
1565.2508544921875
 42
-0
  0
VERTEX
  8
0
 10
2427.803955078125
 20
1545.2508544921875
 42
-0
  0
VERTEX
  8
0
 10
2342.803955078125
 20
1565.2508544921875
 42
-0
  0
VERTEX
  8
0
 10
2207.803955078125
 20
1565.2508544921875
 42
0.55911397933959961
  0
VERTEX
  8
0
 10
2163.190673828125
 20
1492.67529296875
 42
-0
  0
VERTEX
  8
0
 10
2280.803955078125
 20
1260.2508544921875
 42
-0
  0
VERTEX
  8
0
 10
2317.303955078125
 20
1260.2508544921875
 42
-1
  0
VERTEX
  8
0
 10
2538.303955078125
 20
1260.2508544921875
 42
-0
  0
VERTEX
  8
0
 10
2574.803955078125
 20
1260.2508544921875
 42
-0
  0
VERTEX
  8
0
 10
2692.417236328125
 20
1492.67529296875
 42
0.55911397933959961
  0
VERTEX
  8
0
 10
2647.803955078125
 20
1565.2508544921875
 42
-0
  0
SEQEND
  0
POLYLINE
  8
0
 10
0
 20
0
 39
0
 70
1
 66
1
  0
VERTEX
  8
0
 10
3072.86767578125
 20
1607.0133056640625
 42
-0
  0
VERTEX
  8
0
 10
2987.86767578125
 20
1587.0133056640625
 42
-0
  0
VERTEX
  8
0
 10
2902.86767578125
 20
1607.0133056640625
 42
-0
  0
VERTEX
  8
0
 10
2767.86767578125
 20
1607.0133056640625
 42
0.55911397933959961
  0
VERTEX
  8
0
 10
2723.25439453125
 20
1534.437744140625
 42
-0
  0
VERTEX
  8
0
 10
2840.86767578125
 20
1302.0133056640625
 42
-0
  0
VERTEX
  8
0
 10
2877.36767578125
 20
1302.0133056640625
 42
-1
  0
VERTEX
  8
0
 10
3098.36767578125
 20
1302.0133056640625
 42
-0
  0
VERTEX
  8
0
 10
3134.86767578125
 20
1302.0133056640625
 42
-0
  0
VERTEX
  8
0
 10
3252.48095703125
 20
1534.437744140625
 42
0.55911397933959961
  0
VERTEX
  8
0
 10
3207.86767578125
 20
1607.0133056640625
 42
-0
  0
SEQEND
  0
POLYLINE
  8
0
 10
0
 20
0
 39
0
 70
1
 66
1
  0
VERTEX
  8
0
 10
3695.30908203125
 20
1674.0506591796875
 42
-0
  0
VERTEX
  8
0
 10
3780.308837890625
 20
1694.05078125
 42
-0
  0
VERTEX
  8
0
 10
3865.308837890625
 20
1674.05078125
 42
-0
  0
VERTEX
  8
0
 10
4000.308837890625
 20
1674.051025390625
 42
0.55911397933959961
  0
VERTEX
  8
0
 10
4044.922119140625
 20
1746.6265869140625
 42
-0
  0
VERTEX
  8
0
 10
3927.30859375
 20
1979.0509033203125
 42
-0
  0
VERTEX
  8
0
 10
3890.80859375
 20
1979.0509033203125
 42
-1
  0
VERTEX
  8
0
 10
3669.80859375
 20
1979.0506591796875
 42
-0
  0
VERTEX
  8
0
 10
3633.30859375
 20
1979.050537109375
 42
-0
  0
VERTEX
  8
0
 10
3515.695556640625
 20
1746.6259765625
 42
0.55911397933959961
  0
VERTEX
  8
0
 10
3560.30908203125
 20
1674.050537109375
 42
-0
  0
SEQEND
  0
POLYLINE
  8
0
 10
0
 20
0
 39
0
 70
1
 66
1
  0
VERTEX
  8
0
 10
3343.572509765625
 20
1260.250732421875
 42
-0
  0
VERTEX
  8
0
 10
3428.572265625
 20
1280.250732421875
 42
-0
  0
VERTEX
  8
0
 10
3513.572265625
 20
1260.2508544921875
 42
-0
  0
VERTEX
  8
0
 10
3648.572509765625
 20
1260.2508544921875
 42
0.55911397933959961
  0
VERTEX
  8
0
 10
3693.185546875
 20
1332.826416015625
 42
-0
  0
VERTEX
  8
0
 10
3575.572265625
 20
1565.2508544921875
 42
-0
  0
VERTEX
  8
0
 10
3539.072265625
 20
1565.2508544921875
 42
-1
  0
VERTEX
  8
0
 10
3318.072265625
 20
1565.250732421875
 42
-0
  0
VERTEX
  8
0
 10
3281.572265625
 20
1565.250732421875
 42
-0
  0
VERTEX
  8
0
 10
3163.958984375
 20
1332.826171875
 42
0.55911397933959961
  0
VERTEX
  8
0
 10
3208.572509765625
 20
1260.250732421875
 42
-0
  0
SEQEND
  0
POLYLINE
  8
0
 10
0
 20
0
 39
0
 70
1
 66
1
  0
VERTEX
  8
0
 10
1781.868896484375
 20
1599.002197265625
 42
-0
  0
VERTEX
  8
0
 10
1866.8687744140625
 20
1619.002197265625
 42
-0
  0
VERTEX
  8
0
 10
1951.8687744140625
 20
1599.0023193359375
 42
-0
  0
VERTEX
  8
0
 10
2086.868896484375
 20
1599.0023193359375
 42
0.55911397933959961
  0
VERTEX
  8
0
 10
2131.48193359375
 20
1671.577880859375
 42
-0
  0
VERTEX
  8
0
 10
2013.86865234375
 20
1904.0023193359375
 42
-0
  0
VERTEX
  8
0
 10
1977.36865234375
 20
1904.0023193359375
 42
-1
  0
VERTEX
  8
0
 10
1756.36865234375
 20
1904.002197265625
 42
-0
  0
VERTEX
  8
0
 10
1719.86865234375
 20
1904.002197265625
 42
-0
  0
VERTEX
  8
0
 10
1602.2554931640625
 20
1671.57763671875
 42
0.55911397933959961
  0
VERTEX
  8
0
 10
1646.868896484375
 20
1599.002197265625
 42
-0
  0
SEQEND
  0
POLYLINE
  8
0
 10
0
 20
0
 39
0
 70
1
 66
1
  0
VERTEX
  8
0
 10
2424.687744140625
 20
1882.3009033203125
 42
-0
  0
VERTEX
  8
0
 10
2339.687744140625
 20
1862.3009033203125
 42
-0
  0
VERTEX
  8
0
 10
2254.687744140625
 20
1882.3009033203125
 42
-0
  0
VERTEX
  8
0
 10
2119.687744140625
 20
1882.3009033203125
 42
0.55911397933959961
  0
VERTEX
  8
0
 10
2075.074462890625
 20
1809.725341796875
 42
-0
  0
VERTEX
  8
0
 10
2192.687744140625
 20
1577.3009033203125
 42
-0
  0
VERTEX
  8
0
 10
2229.187744140625
 20
1577.3009033203125
 42
-1
  0
VERTEX
  8
0
 10
2450.187744140625
 20
1577.3009033203125
 42
-0
  0
VERTEX
  8
0
 10
2486.687744140625
 20
1577.3009033203125
 42
-0
  0
VERTEX
  8
0
 10
2604.301025390625
 20
1809.725341796875
 42
0.55911397933959961
  0
VERTEX
  8
0
 10
2559.687744140625
 20
1882.3009033203125
 42
-0
  0
SEQEND
  0
POLYLINE
  8
0
 10
0
 20
0
 39
0
 70
1
 66
1
  0
VERTEX
  8
0
 10
3371.143310546875
 20
1924.0634765625
 42
-0
  0
VERTEX
  8
0
 10
3286.143310546875
 20
1904.0634765625
 42
-0
  0
VERTEX
  8
0
 10
3201.143310546875
 20
1924.0634765625
 42
-0
  0
VERTEX
  8
0
 10
3066.143310546875
 20
1924.0633544921875
 42
0.55911397933959961
  0
VERTEX
  8
0
 10
3021.530029296875
 20
1851.4876708984375
 42
-0
  0
VERTEX
  8
0
 10
3139.1435546875
 20
1619.0633544921875
 42
-0
  0
VERTEX
  8
0
 10
3175.6435546875
 20
1619.0633544921875
 42
-1
  0
VERTEX
  8
0
 10
3396.6435546875
 20
1619.0635986328125
 42
-0
  0
VERTEX
  8
0
 10
3433.1435546875
 20
1619.0635986328125
 42
-0
  0
VERTEX
  8
0
 10
3550.756591796875
 20
1851.4881591796875
 42
0.55911397933959961
  0
VERTEX
  8
0
 10
3506.143310546875
 20
1924.0635986328125
 42
-0
  0
SEQEND
  0
POLYLINE
  8
0
 10
0
 20
0
 39
0
 70
1
 66
1
  0
VERTEX
  8
0
 10
2737.658447265625
 20
1619.0633544921875
 42
-0
  0
VERTEX
  8
0
 10
2822.658203125
 20
1639.0633544921875
 42
-0
  0
VERTEX
  8
0
 10
2907.658203125
 20
1619.0634765625
 42
-0
  0
VERTEX
  8
0
 10
3042.658447265625
 20
1619.0634765625
 42
0.55911397933959961
  0
VERTEX
  8
0
 10
3087.271484375
 20
1691.6390380859375
 42
-0
  0
VERTEX
  8
0
 10
2969.658203125
 20
1924.0634765625
 42
-0
  0
VERTEX
  8
0
 10
2933.158203125
 20
1924.0634765625
 42
-1
  0
VERTEX
  8
0
 10
2712.158203125
 20
1924.0633544921875
 42
-0
  0
VERTEX
  8
0
 10
2675.658203125
 20
1924.0633544921875
 42
-0
  0
VERTEX
  8
0
 10
2558.044921875
 20
1691.638916015625
 42
0.55911397933959961
  0
VERTEX
  8
0
 10
2602.658447265625
 20
1619.0633544921875
 42
-0
  0
SEQEND
  0
POLYLINE
  8
0
 10
0
 20
0
 39
0
 70
1
 66
1
  0
VERTEX
  8
0
 10
3814.949462890625
 20
920.26678466796875
 42
-0
  0
VERTEX
  8
0
 10
3834.949462890625
 20
835.266845703125
 42
-0
  0
VERTEX
  8
0
 10
3814.949462890625
 20
750.26678466796875
 42
-0
  0
VERTEX
  8
0
 10
3814.949462890625
 20
615.26678466796875
 42
0.55911397933959961
  0
VERTEX
  8
0
 10
3887.525146484375
 20
570.653564453125
 42
-0
  0
VERTEX
  8
0
 10
4119.94970703125
 20
688.2669677734375
 42
-0
  0
VERTEX
  8
0
 10
4119.94970703125
 20
724.7669677734375
 42
-1
  0
VERTEX
  8
0
 10
4119.94921875
 20
945.7669677734375
 42
-0
  0
VERTEX
  8
0
 10
4119.94921875
 20
982.2669677734375
 42
-0
  0
VERTEX
  8
0
 10
3887.52490234375
 20
1099.880126953125
 42
0.55911397933959961
  0
VERTEX
  8
0
 10
3814.94921875
 20
1055.266845703125
 42
-0
  0
SEQEND
  0
ENDSEC
  0
EOF
