  0
SECTION
  2
ENTITIES
  0
POLYLINE
  8
0
 10
0
 20
0
 39
0
 70
1
 66
1
  0
VERTEX
  8
0
 10
0
 20
0
 42
0
  0
VERTEX
  8
0
 10
2000
 20
0
 42
0
  0
VERTEX
  8
0
 10
2000
 20
1000
 42
0
  0
VERTEX
  8
0
 10
0
 20
1000
 42
0
  0
SEQEND
  0
POLYLINE
  8
0
 10
0
 20
0
 39
0
 70
1
 66
1
  0
VERTEX
  8
0
 10
575.04571533203125
 20
451.68911743164062
 42
1.6674709320068359
  0
VERTEX
  8
0
 10
45.754234313964844
 20
451.6890869140625
 42
1.6674709320068359
  0
SEQEND
  0
POLYLINE
  8
0
 10
0
 20
0
 39
0
 70
1
 66
1
  0
VERTEX
  8
0
 10
479.03384399414062
 20
451.6890869140625
 42
-2.1424469947814941
  0
VERTEX
  8
0
 10
141.76611328125
 20
451.6890869140625
 42
-2.1424469947814941
  0
SEQEND
  0
POLYLINE
  8
0
 10
0
 20
0
 39
0
 70
1
 66
1
  0
VERTEX
  8
0
 10
1070.5999755859375
 20
710.4000244140625
 42
0
  0
VERTEX
  8
0
 10
620.5999755859375
 20
710.4000244140625
 42
0
  0
VERTEX
  8
0
 10
620.5999755859375
 20
10.399999618530273
 42
0
  0
VERTEX
  8
0
 10
1070.5999755859375
 20
10.399999618530273
 42
0
  0
SEQEND
  0
POLYLINE
  8
0
 10
0
 20
0
 39
0
 70
1
 66
1
  0
VERTEX
  8
0
 10
695.5999755859375
 20
40.400001525878906
 42
-0
  0
VERTEX
  8
0
 10
695.5999755859375
 20
440.39999389648437
 42
0
  0
VERTEX
  8
0
 10
995.5999755859375
 20
440.39999389648437
 42
0
  0
VERTEX
  8
0
 10
995.5999755859375
 20
40.400001525878906
 42
-0
  0
SEQEND
  0
POLYLINE
  8
0
 10
0
 20
0
 39
0
 70
1
 66
1
  0
VERTEX
  8
0
 10
955.79998779296875
 20
827.5999755859375
 42
-0
  0
VERTEX
  8
0
 10
734.79998779296875
 20
989.5999755859375
 42
-0
  0
VERTEX
  8
0
 10
513.79998779296875
 20
827.5999755859375
 42
0
  0
SEQEND
  0
POLYLINE
  8
0
 10
0
 20
0
 39
0
 70
1
 66
1
  0
VERTEX
  8
0
 10
752.32037353515625
 20
989.5999755859375
 42
-0
  0
VERTEX
  8
0
 10
973.32037353515625
 20
827.5999755859375
 42
-0
  0
VERTEX
  8
0
 10
1194.3204345703125
 20
989.5999755859375
 42
0
  0
SEQEND
  0
POLYLINE
  8
0
 10
0
 20
0
 39
0
 70
1
 66
1
  0
VERTEX
  8
0
 10
1080.800048828125
 20
380.12039184570312
 42
-0
  0
VERTEX
  8
0
 10
1242.800048828125
 20
601.12042236328125
 42
-0
  0
VERTEX
  8
0
 10
1080.800048828125
 20
822.12042236328125
 42
0
  0
SEQEND
  0
POLYLINE
  8
0
 10
0
 20
0
 39
0
 70
1
 66
1
  0
VERTEX
  8
0
 10
1242.800048828125
 20
583.5999755859375
 42
-0
  0
VERTEX
  8
0
 10
1080.800048828125
 20
362.60000610351562
 42
-0
  0
VERTEX
  8
0
 10
1242.800048828125
 20
141.60000610351562
 42
0
  0
SEQEND
  0
POLYLINE
  8
0
 10
0
 20
0
 39
0
 70
1
 66
1
  0
VERTEX
  8
0
 10
1253.4000244140625
 20
248.92039489746094
 42
-0
  0
VERTEX
  8
0
 10
1415.4000244140625
 20
469.92041015625
 42
-0
  0
VERTEX
  8
0
 10
1253.4000244140625
 20
690.92041015625
 42
0
  0
SEQEND
  0
POLYLINE
  8
0
 10
0
 20
0
 39
0
 70
1
 66
1
  0
VERTEX
  8
0
 10
1415.4000244140625
 20
452.39999389648437
 42
-0
  0
VERTEX
  8
0
 10
1253.4000244140625
 20
231.39999389648437
 42
-0
  0
VERTEX
  8
0
 10
1415.4000244140625
 20
10.399999618530273
 42
0
  0
SEQEND
  0
POLYLINE
  8
0
 10
0
 20
0
 39
0
 70
1
 66
1
  0
VERTEX
  8
0
 10
1384.4000244140625
 20
547.5203857421875
 42
-0
  0
VERTEX
  8
0
 10
1546.4000244140625
 20
768.5203857421875
 42
-0
  0
VERTEX
  8
0
 10
1384.4000244140625
 20
989.5203857421875
 42
0
  0
SEQEND
  0
POLYLINE
  8
0
 10
0
 20
0
 39
0
 70
1
 66
1
  0
VERTEX
  8
0
 10
1546.4000244140625
 20
751
 42
-0
  0
VERTEX
  8
0
 10
1384.4000244140625
 20
530
 42
-0
  0
VERTEX
  8
0
 10
1546.4000244140625
 20
309
 42
0
  0
SEQEND
  0
POLYLINE
  8
0
 10
0
 20
0
 39
0
 70
1
 66
1
  0
VERTEX
  8
0
 10
1556.800048828125
 20
248.92039489746094
 42
-0
  0
VERTEX
  8
0
 10
1718.800048828125
 20
469.92041015625
 42
-0
  0
VERTEX
  8
0
 10
1556.800048828125
 20
690.92041015625
 42
0
  0
SEQEND
  0
POLYLINE
  8
0
 10
0
 20
0
 39
0
 70
1
 66
1
  0
VERTEX
  8
0
 10
1718.800048828125
 20
452.39999389648437
 42
-0
  0
VERTEX
  8
0
 10
1556.800048828125
 20
231.39999389648437
 42
-0
  0
VERTEX
  8
0
 10
1718.800048828125
 20
10.399999618530273
 42
0
  0
SEQEND
  0
POLYLINE
  8
0
 10
0
 20
0
 39
0
 70
1
 66
1
  0
VERTEX
  8
0
 10
1687.800048828125
 20
547.5203857421875
 42
-0
  0
VERTEX
  8
0
 10
1849.800048828125
 20
768.5203857421875
 42
-0
  0
VERTEX
  8
0
 10
1687.800048828125
 20
989.5203857421875
 42
0
  0
SEQEND
  0
POLYLINE
  8
0
 10
0
 20
0
 39
0
 70
1
 66
1
  0
VERTEX
  8
0
 10
1849.800048828125
 20
751
 42
-0
  0
VERTEX
  8
0
 10
1687.800048828125
 20
530
 42
-0
  0
VERTEX
  8
0
 10
1849.800048828125
 20
309
 42
0
  0
SEQEND
  0
POLYLINE
  8
0
 10
0
 20
0
 39
0
 70
1
 66
1
  0
VERTEX
  8
0
 10
300.79998779296875
 20
566
 42
1
  0
VERTEX
  8
0
 10
150.80000305175781
 20
566
 42
0
  0
VERTEX
  8
0
 10
150.80000305175781
 20
206
 42
1
  0
VERTEX
  8
0
 10
300.79998779296875
 20
206
 42
0
  0
SEQEND
  0
POLYLINE
  8
0
 10
0
 20
0
 39
0
 70
1
 66
1
  0
VERTEX
  8
0
 10
461.20001220703125
 20
559.4000244140625
 42
1
  0
VERTEX
  8
0
 10
311.20001220703125
 20
559.4000244140625
 42
0
  0
VERTEX
  8
0
 10
311.20001220703125
 20
199.39999389648437
 42
1
  0
VERTEX
  8
0
 10
461.20001220703125
 20
199.39999389648437
 42
0
  0
SEQEND
  0
POLYLINE
  8
0
 10
0
 20
0
 39
0
 70
1
 66
1
  0
VERTEX
  8
0
 10
1371.4000244140625
 20
989.79998779296875
 42
-0
  0
VERTEX
  8
0
 10
1209.4000244140625
 20
768.79998779296875
 42
-0
  0
VERTEX
  8
0
 10
1371.4000244140625
 20
547.79998779296875
 42
0
  0
SEQEND
  0
POLYLINE
  8
0
 10
0
 20
0
 39
0
 70
1
 66
1
  0
VERTEX
  8
0
 10
1729.199951171875
 20
10.399999618530273
 42
-0
  0
VERTEX
  8
0
 10
1891.199951171875
 20
231.39999389648437
 42
-0
  0
VERTEX
  8
0
 10
1729.199951171875
 20
452.39999389648437
 42
0
  0
SEQEND
  0
POLYLINE
  8
0
 10
0
 20
0
 39
0
 70
1
 66
1
  0
VERTEX
  8
0
 10
706
 20
50.799999237060547
 42
-0
  0
VERTEX
  8
0
 10
836
 20
50.799999237060547
 42
-0
  0
VERTEX
  8
0
 10
836
 20
243.80000305175781
 42
-0.41421356797218323
  0
VERTEX
  8
0
 10
769
 20
310.79998779296875
 42
0
  0
VERTEX
  8
0
 10
706
 20
310.79998779296875
 42
0
  0
SEQEND
  0
POLYLINE
  8
0
 10
0
 20
0
 39
0
 70
1
 66
1
  0
VERTEX
  8
0
 10
733.26580810546875
 20
70.478828430175781
 42
-1
  0
VERTEX
  8
0
 10
733.26580810546875
 20
94.478836059570313
 42
-1
  0
SEQEND
  0
POLYLINE
  8
0
 10
0
 20
0
 39
0
 70
1
 66
1
  0
VERTEX
  8
0
 10
846.4000244140625
 20
50.799999237060547
 42
-0
  0
VERTEX
  8
0
 10
976.4000244140625
 20
50.799999237060547
 42
-0
  0
VERTEX
  8
0
 10
976.4000244140625
 20
243.80000305175781
 42
-0.41421356797218323
  0
VERTEX
  8
0
 10
909.4000244140625
 20
310.79998779296875
 42
0
  0
VERTEX
  8
0
 10
846.4000244140625
 20
310.79998779296875
 42
0
  0
SEQEND
  0
POLYLINE
  8
0
 10
0
 20
0
 39
0
 70
1
 66
1
  0
VERTEX
  8
0
 10
873.66583251953125
 20
70.478828430175781
 42
-1
  0
VERTEX
  8
0
 10
873.66583251953125
 20
94.478836059570313
 42
-1
  0
SEQEND
  0
POLYLINE
  8
0
 10
0
 20
0
 39
0
 70
1
 66
1
  0
VERTEX
  8
0
 10
1425.800048828125
 20
10.399999618530273
 42
-0
  0
VERTEX
  8
0
 10
1555.800048828125
 20
10.399999618530273
 42
-0
  0
VERTEX
  8
0
 10
1555.800048828125
 20
203.39999389648437
 42
-0.41421356797218323
  0
VERTEX
  8
0
 10
1488.800048828125
 20
270.39999389648437
 42
0
  0
VERTEX
  8
0
 10
1425.800048828125
 20
270.39999389648437
 42
0
  0
SEQEND
  0
POLYLINE
  8
0
 10
0
 20
0
 39
0
 70
1
 66
1
  0
VERTEX
  8
0
 10
1453.0657958984375
 20
30.078830718994141
 42
-1
  0
VERTEX
  8
0
 10
1453.0657958984375
 20
54.078834533691406
 42
-1
  0
SEQEND
  0
POLYLINE
  8
0
 10
0
 20
0
 39
0
 70
1
 66
1
  0
VERTEX
  8
0
 10
1669
 20
989.4000244140625
 42
-0
  0
VERTEX
  8
0
 10
1539
 20
989.4000244140625
 42
-0
  0
VERTEX
  8
0
 10
1539
 20
796.4000244140625
 42
-0.41421356797218323
  0
VERTEX
  8
0
 10
1606
 20
729.4000244140625
 42
0
  0
VERTEX
  8
0
 10
1669
 20
729.4000244140625
 42
0
  0
SEQEND
  0
POLYLINE
  8
0
 10
0
 20
0
 39
0
 70
1
 66
1
  0
VERTEX
  8
0
 10
1641.734130859375
 20
969.72119140625
 42
-1
  0
VERTEX
  8
0
 10
1641.734130859375
 20
945.72119140625
 42
-1
  0
SEQEND
  0
POLYLINE
  8
0
 10
0
 20
0
 39
0
 70
1
 66
1
  0
VERTEX
  8
0
 10
1972.4000244140625
 20
989.4000244140625
 42
-0
  0
VERTEX
  8
0
 10
1842.4000244140625
 20
989.4000244140625
 42
-0
  0
VERTEX
  8
0
 10
1842.4000244140625
 20
796.4000244140625
 42
-0.41421356797218323
  0
VERTEX
  8
0
 10
1909.4000244140625
 20
729.4000244140625
 42
0
  0
VERTEX
  8
0
 10
1972.4000244140625
 20
729.4000244140625
 42
0
  0
SEQEND
  0
POLYLINE
  8
0
 10
0
 20
0
 39
0
 70
1
 66
1
  0
VERTEX
  8
0
 10
1945.1341552734375
 20
969.72119140625
 42
-1
  0
VERTEX
  8
0
 10
1945.1341552734375
 20
945.72119140625
 42
-1
  0
SEQEND
  0
POLYLINE
  8
0
 10
0
 20
0
 39
0
 70
1
 66
1
  0
VERTEX
  8
0
 10
10.399999618530273
 20
10.399999618530273
 42
-0
  0
VERTEX
  8
0
 10
60.400001525878906
 20
10.399999618530273
 42
-0
  0
VERTEX
  8
0
 10
60.400001525878906
 20
120.40000152587891
 42
-0
  0
VERTEX
  8
0
 10
48.400001525878906
 20
120.40000152587891
 42
-1
  0
VERTEX
  8
0
 10
22.399999618530273
 20
120.40000152587891
 42
-0
  0
VERTEX
  8
0
 10
10.399999618530273
 20
120.40000152587891
 42
0
  0
SEQEND
  0
POLYLINE
  8
0
 10
0
 20
0
 39
0
 70
1
 66
1
  0
VERTEX
  8
0
 10
35.400001525878906
 20
52.400001525878906
 42
-1
  0
VERTEX
  8
0
 10
35.400001525878906
 20
78.400001525878906
 42
-1
  0
SEQEND
  0
POLYLINE
  8
0
 10
0
 20
0
 39
0
 70
1
 66
1
  0
VERTEX
  8
0
 10
10.399999618530273
 20
777.20001220703125
 42
-0
  0
VERTEX
  8
0
 10
60.400001525878906
 20
777.20001220703125
 42
-0
  0
VERTEX
  8
0
 10
60.400001525878906
 20
887.20001220703125
 42
-0
  0
VERTEX
  8
0
 10
48.400001525878906
 20
887.20001220703125
 42
-1
  0
VERTEX
  8
0
 10
22.399999618530273
 20
887.20001220703125
 42
-0
  0
VERTEX
  8
0
 10
10.399999618530273
 20
887.20001220703125
 42
0
  0
SEQEND
  0
POLYLINE
  8
0
 10
0
 20
0
 39
0
 70
1
 66
1
  0
VERTEX
  8
0
 10
35.400001525878906
 20
819.20001220703125
 42
-1
  0
VERTEX
  8
0
 10
35.400001525878906
 20
845.20001220703125
 42
-1
  0
SEQEND
  0
POLYLINE
  8
0
 10
0
 20
0
 39
0
 70
1
 66
1
  0
VERTEX
  8
0
 10
120.40000152587891
 20
897.4000244140625
 42
-0
  0
VERTEX
  8
0
 10
120.40000152587891
 20
947.4000244140625
 42
-0
  0
VERTEX
  8
0
 10
10.399999618530273
 20
947.4000244140625
 42
-0
  0
VERTEX
  8
0
 10
10.399999618530273
 20
935.4000244140625
 42
-1
  0
VERTEX
  8
0
 10
10.399999618530273
 20
909.4000244140625
 42
-0
  0
VERTEX
  8
0
 10
10.399999618530273
 20
897.4000244140625
 42
0
  0
SEQEND
  0
POLYLINE
  8
0
 10
0
 20
0
 39
0
 70
1
 66
1
  0
VERTEX
  8
0
 10
78.400001525878906
 20
922.4000244140625
 42
-1
  0
VERTEX
  8
0
 10
52.400001525878906
 20
922.4000244140625
 42
-1
  0
SEQEND
  0
POLYLINE
  8
0
 10
0
 20
0
 39
0
 70
1
 66
1
  0
VERTEX
  8
0
 10
130.80000305175781
 20
875.20001220703125
 42
-0
  0
VERTEX
  8
0
 10
180.80000305175781
 20
875.20001220703125
 42
-0
  0
VERTEX
  8
0
 10
180.80000305175781
 20
985.20001220703125
 42
-0
  0
VERTEX
  8
0
 10
168.80000305175781
 20
985.20001220703125
 42
-1
  0
VERTEX
  8
0
 10
142.80000305175781
 20
985.20001220703125
 42
-0
  0
VERTEX
  8
0
 10
130.80000305175781
 20
985.20001220703125
 42
0
  0
SEQEND
  0
POLYLINE
  8
0
 10
0
 20
0
 39
0
 70
1
 66
1
  0
VERTEX
  8
0
 10
155.80000305175781
 20
917.20001220703125
 42
-1
  0
VERTEX
  8
0
 10
155.80000305175781
 20
943.20001220703125
 42
-1
  0
SEQEND
  0
POLYLINE
  8
0
 10
0
 20
0
 39
0
 70
1
 66
1
  0
VERTEX
  8
0
 10
185.60000610351562
 20
651.20001220703125
 42
-0
  0
VERTEX
  8
0
 10
235.60000610351562
 20
651.20001220703125
 42
-0
  0
VERTEX
  8
0
 10
235.60000610351562
 20
761.20001220703125
 42
-0
  0
VERTEX
  8
0
 10
223.60000610351562
 20
761.20001220703125
 42
-1
  0
VERTEX
  8
0
 10
197.60000610351562
 20
761.20001220703125
 42
-0
  0
VERTEX
  8
0
 10
185.60000610351562
 20
761.20001220703125
 42
0
  0
SEQEND
  0
POLYLINE
  8
0
 10
0
 20
0
 39
0
 70
1
 66
1
  0
VERTEX
  8
0
 10
210.60000610351562
 20
693.20001220703125
 42
-1
  0
VERTEX
  8
0
 10
210.60000610351562
 20
719.20001220703125
 42
-1
  0
SEQEND
  0
POLYLINE
  8
0
 10
0
 20
0
 39
0
 70
1
 66
1
  0
VERTEX
  8
0
 10
246
 20
649.20001220703125
 42
-0
  0
VERTEX
  8
0
 10
296
 20
649.20001220703125
 42
-0
  0
VERTEX
  8
0
 10
296
 20
759.20001220703125
 42
-0
  0
VERTEX
  8
0
 10
284
 20
759.20001220703125
 42
-1
  0
VERTEX
  8
0
 10
258
 20
759.20001220703125
 42
-0
  0
VERTEX
  8
0
 10
246
 20
759.20001220703125
 42
0
  0
SEQEND
  0
POLYLINE
  8
0
 10
0
 20
0
 39
0
 70
1
 66
1
  0
VERTEX
  8
0
 10
271
 20
691.20001220703125
 42
-1
  0
VERTEX
  8
0
 10
271
 20
717.20001220703125
 42
-1
  0
SEQEND
  0
POLYLINE
  8
0
 10
0
 20
0
 39
0
 70
1
 66
1
  0
VERTEX
  8
0
 10
301.20001220703125
 20
903
 42
-0
  0
VERTEX
  8
0
 10
301.20001220703125
 20
953
 42
-0
  0
VERTEX
  8
0
 10
191.19999694824219
 20
953
 42
-0
  0
VERTEX
  8
0
 10
191.19999694824219
 20
941
 42
-1
  0
VERTEX
  8
0
 10
191.19999694824219
 20
915
 42
-0
  0
VERTEX
  8
0
 10
191.19999694824219
 20
903
 42
0
  0
SEQEND
  0
POLYLINE
  8
0
 10
0
 20
0
 39
0
 70
1
 66
1
  0
VERTEX
  8
0
 10
259.20001220703125
 20
928
 42
-1
  0
VERTEX
  8
0
 10
233.19999694824219
 20
928
 42
-1
  0
SEQEND
  0
POLYLINE
  8
0
 10
0
 20
0
 39
0
 70
1
 66
1
  0
VERTEX
  8
0
 10
306.39999389648437
 20
639.79998779296875
 42
-0
  0
VERTEX
  8
0
 10
356.39999389648438
 20
639.79998779296875
 42
-0
  0
VERTEX
  8
0
 10
356.39999389648438
 20
749.79998779296875
 42
-0
  0
VERTEX
  8
0
 10
344.39999389648437
 20
749.79998779296875
 42
-1
  0
VERTEX
  8
0
 10
318.39999389648437
 20
749.79998779296875
 42
-0
  0
VERTEX
  8
0
 10
306.39999389648437
 20
749.79998779296875
 42
0
  0
SEQEND
  0
POLYLINE
  8
0
 10
0
 20
0
 39
0
 70
1
 66
1
  0
VERTEX
  8
0
 10
331.39999389648437
 20
681.79998779296875
 42
-1
  0
VERTEX
  8
0
 10
331.39999389648437
 20
707.79998779296875
 42
-1
  0
SEQEND
  0
POLYLINE
  8
0
 10
0
 20
0
 39
0
 70
1
 66
1
  0
VERTEX
  8
0
 10
366.79998779296875
 20
644.5999755859375
 42
-0
  0
VERTEX
  8
0
 10
416.79998779296875
 20
644.5999755859375
 42
-0
  0
VERTEX
  8
0
 10
416.79998779296875
 20
754.5999755859375
 42
-0
  0
VERTEX
  8
0
 10
404.79998779296875
 20
754.5999755859375
 42
-1
  0
VERTEX
  8
0
 10
378.79998779296875
 20
754.5999755859375
 42
-0
  0
VERTEX
  8
0
 10
366.79998779296875
 20
754.5999755859375
 42
0
  0
SEQEND
  0
POLYLINE
  8
0
 10
0
 20
0
 39
0
 70
1
 66
1
  0
VERTEX
  8
0
 10
391.79998779296875
 20
686.5999755859375
 42
-1
  0
VERTEX
  8
0
 10
391.79998779296875
 20
712.5999755859375
 42
-1
  0
SEQEND
  0
POLYLINE
  8
0
 10
0
 20
0
 39
0
 70
1
 66
1
  0
VERTEX
  8
0
 10
421.60000610351562
 20
903
 42
-0
  0
VERTEX
  8
0
 10
421.60000610351562
 20
953
 42
-0
  0
VERTEX
  8
0
 10
311.60000610351562
 20
953
 42
-0
  0
VERTEX
  8
0
 10
311.60000610351562
 20
941
 42
-1
  0
VERTEX
  8
0
 10
311.60000610351562
 20
915
 42
-0
  0
VERTEX
  8
0
 10
311.60000610351562
 20
903
 42
0
  0
SEQEND
  0
POLYLINE
  8
0
 10
0
 20
0
 39
0
 70
1
 66
1
  0
VERTEX
  8
0
 10
379.60000610351562
 20
928
 42
-1
  0
VERTEX
  8
0
 10
353.60000610351562
 20
928
 42
-1
  0
SEQEND
  0
POLYLINE
  8
0
 10
0
 20
0
 39
0
 70
1
 66
1
  0
VERTEX
  8
0
 10
432
 20
878.79998779296875
 42
-0
  0
VERTEX
  8
0
 10
482
 20
878.79998779296875
 42
-0
  0
VERTEX
  8
0
 10
482
 20
988.79998779296875
 42
-0
  0
VERTEX
  8
0
 10
470
 20
988.79998779296875
 42
-1
  0
VERTEX
  8
0
 10
444
 20
988.79998779296875
 42
-0
  0
VERTEX
  8
0
 10
432
 20
988.79998779296875
 42
0
  0
SEQEND
  0
POLYLINE
  8
0
 10
0
 20
0
 39
0
 70
1
 66
1
  0
VERTEX
  8
0
 10
457
 20
920.79998779296875
 42
-1
  0
VERTEX
  8
0
 10
457
 20
946.79998779296875
 42
-1
  0
SEQEND
  0
POLYLINE
  8
0
 10
0
 20
0
 39
0
 70
1
 66
1
  0
VERTEX
  8
0
 10
492.39999389648437
 20
861.5999755859375
 42
-0
  0
VERTEX
  8
0
 10
542.4000244140625
 20
861.5999755859375
 42
-0
  0
VERTEX
  8
0
 10
542.4000244140625
 20
971.5999755859375
 42
-0
  0
VERTEX
  8
0
 10
530.4000244140625
 20
971.5999755859375
 42
-1
  0
VERTEX
  8
0
 10
504.39999389648437
 20
971.5999755859375
 42
-0
  0
VERTEX
  8
0
 10
492.39999389648437
 20
971.5999755859375
 42
0
  0
SEQEND
  0
POLYLINE
  8
0
 10
0
 20
0
 39
0
 70
1
 66
1
  0
VERTEX
  8
0
 10
517.4000244140625
 20
903.5999755859375
 42
-1
  0
VERTEX
  8
0
 10
517.4000244140625
 20
929.5999755859375
 42
-1
  0
SEQEND
  0
POLYLINE
  8
0
 10
0
 20
0
 39
0
 70
1
 66
1
  0
VERTEX
  8
0
 10
604.5999755859375
 20
10.399999618530273
 42
-0
  0
VERTEX
  8
0
 10
604.5999755859375
 20
60.400001525878906
 42
-0
  0
VERTEX
  8
0
 10
494.60000610351562
 20
60.400001525878906
 42
-0
  0
VERTEX
  8
0
 10
494.60000610351562
 20
48.400001525878906
 42
-1
  0
VERTEX
  8
0
 10
494.60000610351562
 20
22.399999618530273
 42
-0
  0
VERTEX
  8
0
 10
494.60000610351562
 20
10.399999618530273
 42
0
  0
SEQEND
  0
POLYLINE
  8
0
 10
0
 20
0
 39
0
 70
1
 66
1
  0
VERTEX
  8
0
 10
562.5999755859375
 20
35.400001525878906
 42
-1
  0
VERTEX
  8
0
 10
536.5999755859375
 20
35.400001525878906
 42
-1
  0
SEQEND
  0
POLYLINE
  8
0
 10
0
 20
0
 39
0
 70
1
 66
1
  0
VERTEX
  8
0
 10
677.20001220703125
 20
767.4000244140625
 42
-0
  0
VERTEX
  8
0
 10
677.20001220703125
 20
817.4000244140625
 42
-0
  0
VERTEX
  8
0
 10
567.20001220703125
 20
817.4000244140625
 42
-0
  0
VERTEX
  8
0
 10
567.20001220703125
 20
805.4000244140625
 42
-1
  0
VERTEX
  8
0
 10
567.20001220703125
 20
779.4000244140625
 42
-0
  0
VERTEX
  8
0
 10
567.20001220703125
 20
767.4000244140625
 42
0
  0
SEQEND
  0
POLYLINE
  8
0
 10
0
 20
0
 39
0
 70
1
 66
1
  0
VERTEX
  8
0
 10
635.20001220703125
 20
792.4000244140625
 42
-1
  0
VERTEX
  8
0
 10
609.20001220703125
 20
792.4000244140625
 42
-1
  0
SEQEND
  0
POLYLINE
  8
0
 10
0
 20
0
 39
0
 70
1
 66
1
  0
VERTEX
  8
0
 10
797.5999755859375
 20
720.5999755859375
 42
-0
  0
VERTEX
  8
0
 10
797.5999755859375
 20
770.5999755859375
 42
-0
  0
VERTEX
  8
0
 10
687.5999755859375
 20
770.5999755859375
 42
-0
  0
VERTEX
  8
0
 10
687.5999755859375
 20
758.5999755859375
 42
-1
  0
VERTEX
  8
0
 10
687.5999755859375
 20
732.5999755859375
 42
-0
  0
VERTEX
  8
0
 10
687.5999755859375
 20
720.5999755859375
 42
0
  0
SEQEND
  0
POLYLINE
  8
0
 10
0
 20
0
 39
0
 70
1
 66
1
  0
VERTEX
  8
0
 10
755.5999755859375
 20
745.5999755859375
 42
-1
  0
VERTEX
  8
0
 10
729.5999755859375
 20
745.5999755859375
 42
-1
  0
SEQEND
  0
POLYLINE
  8
0
 10
0
 20
0
 39
0
 70
1
 66
1
  0
VERTEX
  8
0
 10
816
 20
321
 42
-0
  0
VERTEX
  8
0
 10
816
 20
371
 42
-0
  0
VERTEX
  8
0
 10
706
 20
371
 42
-0
  0
VERTEX
  8
0
 10
706
 20
359
 42
-1
  0
VERTEX
  8
0
 10
706
 20
333
 42
-0
  0
VERTEX
  8
0
 10
706
 20
321
 42
0
  0
SEQEND
  0
POLYLINE
  8
0
 10
0
 20
0
 39
0
 70
1
 66
1
  0
VERTEX
  8
0
 10
774
 20
346
 42
-1
  0
VERTEX
  8
0
 10
748
 20
346
 42
-1
  0
SEQEND
  0
POLYLINE
  8
0
 10
0
 20
0
 39
0
 70
1
 66
1
  0
VERTEX
  8
0
 10
918
 20
720.5999755859375
 42
-0
  0
VERTEX
  8
0
 10
918
 20
770.5999755859375
 42
-0
  0
VERTEX
  8
0
 10
808
 20
770.5999755859375
 42
-0
  0
VERTEX
  8
0
 10
808
 20
758.5999755859375
 42
-1
  0
VERTEX
  8
0
 10
808
 20
732.5999755859375
 42
-0
  0
VERTEX
  8
0
 10
808
 20
720.5999755859375
 42
0
  0
SEQEND
  0
POLYLINE
  8
0
 10
0
 20
0
 39
0
 70
1
 66
1
  0
VERTEX
  8
0
 10
876
 20
745.5999755859375
 42
-1
  0
VERTEX
  8
0
 10
850
 20
745.5999755859375
 42
-1
  0
SEQEND
  0
POLYLINE
  8
0
 10
0
 20
0
 39
0
 70
1
 66
1
  0
VERTEX
  8
0
 10
931.5999755859375
 20
380
 42
-0
  0
VERTEX
  8
0
 10
931.5999755859375
 20
430
 42
-0
  0
VERTEX
  8
0
 10
821.5999755859375
 20
430
 42
-0
  0
VERTEX
  8
0
 10
821.5999755859375
 20
380
 42
0
  0
SEQEND
  0
POLYLINE
  8
0
 10
0
 20
0
 39
0
 70
1
 66
1
  0
VERTEX
  8
0
 10
916.80743408203125
 20
405
 42
-1
  0
VERTEX
  8
0
 10
890.80743408203125
 20
405
 42
-1
  0
SEQEND
  0
POLYLINE
  8
0
 10
0
 20
0
 39
0
 70
1
 66
1
  0
VERTEX
  8
0
 10
1038.4000244140625
 20
720.5999755859375
 42
-0
  0
VERTEX
  8
0
 10
1038.4000244140625
 20
770.5999755859375
 42
-0
  0
VERTEX
  8
0
 10
928.4000244140625
 20
770.5999755859375
 42
-0
  0
VERTEX
  8
0
 10
928.4000244140625
 20
720.5999755859375
 42
0
  0
SEQEND
  0
POLYLINE
  8
0
 10
0
 20
0
 39
0
 70
1
 66
1
  0
VERTEX
  8
0
 10
1023.607421875
 20
745.5999755859375
 42
-1
  0
VERTEX
  8
0
 10
997.607421875
 20
745.5999755859375
 42
-1
  0
SEQEND
  0
POLYLINE
  8
0
 10
0
 20
0
 39
0
 70
1
 66
1
  0
VERTEX
  8
0
 10
1081
 20
10.399999618530273
 42
-0
  0
VERTEX
  8
0
 10
1131
 20
10.399999618530273
 42
-0
  0
VERTEX
  8
0
 10
1131
 20
120.40000152587891
 42
-0
  0
VERTEX
  8
0
 10
1119
 20
120.40000152587891
 42
-1
  0
VERTEX
  8
0
 10
1093
 20
120.40000152587891
 42
-0
  0
VERTEX
  8
0
 10
1081
 20
120.40000152587891
 42
0
  0
SEQEND
  0
POLYLINE
  8
0
 10
0
 20
0
 39
0
 70
1
 66
1
  0
VERTEX
  8
0
 10
1106
 20
52.400001525878906
 42
-1
  0
VERTEX
  8
0
 10
1106
 20
78.400001525878906
 42
-1
  0
SEQEND
  0
POLYLINE
  8
0
 10
0
 20
0
 39
0
 70
1
 66
1
  0
VERTEX
  8
0
 10
1081
 20
130.60000610351562
 42
-0
  0
VERTEX
  8
0
 10
1131
 20
130.60000610351562
 42
-0
  0
VERTEX
  8
0
 10
1131
 20
240.60000610351562
 42
-0
  0
VERTEX
  8
0
 10
1081
 20
240.60000610351562
 42
0
  0
SEQEND
  0
POLYLINE
  8
0
 10
0
 20
0
 39
0
 70
1
 66
1
  0
VERTEX
  8
0
 10
1106
 20
145.39256286621094
 42
-1
  0
VERTEX
  8
0
 10
1106
 20
171.39256286621094
 42
-1
  0
SEQEND
  0
POLYLINE
  8
0
 10
0
 20
0
 39
0
 70
1
 66
1
  0
VERTEX
  8
0
 10
1108
 20
802.79998779296875
 42
-0
  0
VERTEX
  8
0
 10
1158
 20
802.79998779296875
 42
-0
  0
VERTEX
  8
0
 10
1158
 20
912.79998779296875
 42
-0
  0
VERTEX
  8
0
 10
1108
 20
912.79998779296875
 42
0
  0
SEQEND
  0
POLYLINE
  8
0
 10
0
 20
0
 39
0
 70
1
 66
1
  0
VERTEX
  8
0
 10
1133
 20
817.592529296875
 42
-1
  0
VERTEX
  8
0
 10
1133
 20
843.592529296875
 42
-1
  0
SEQEND
  0
POLYLINE
  8
0
 10
0
 20
0
 39
0
 70
1
 66
1
  0
VERTEX
  8
0
 10
1141.4000244140625
 20
10.399999618530273
 42
-0
  0
VERTEX
  8
0
 10
1191.4000244140625
 20
10.399999618530273
 42
-0
  0
VERTEX
  8
0
 10
1191.4000244140625
 20
120.40000152587891
 42
-0
  0
VERTEX
  8
0
 10
1141.4000244140625
 20
120.40000152587891
 42
0
  0
SEQEND
  0
POLYLINE
  8
0
 10
0
 20
0
 39
0
 70
1
 66
1
  0
VERTEX
  8
0
 10
1166.4000244140625
 20
25.192558288574219
 42
-1
  0
VERTEX
  8
0
 10
1166.4000244140625
 20
51.192558288574219
 42
-1
  0
SEQEND
  0
POLYLINE
  8
0
 10
0
 20
0
 39
0
 70
1
 66
1
  0
VERTEX
  8
0
 10
1168.4000244140625
 20
798.79998779296875
 42
-0
  0
VERTEX
  8
0
 10
1218.4000244140625
 20
798.79998779296875
 42
-0
  0
VERTEX
  8
0
 10
1218.4000244140625
 20
908.79998779296875
 42
-0
  0
VERTEX
  8
0
 10
1168.4000244140625
 20
908.79998779296875
 42
0
  0
SEQEND
  0
POLYLINE
  8
0
 10
0
 20
0
 39
0
 70
1
 66
1
  0
VERTEX
  8
0
 10
1193.4000244140625
 20
813.592529296875
 42
-1
  0
VERTEX
  8
0
 10
1193.4000244140625
 20
839.592529296875
 42
-1
  0
SEQEND
  0
POLYLINE
  8
0
 10
0
 20
0
 39
0
 70
1
 66
1
  0
VERTEX
  8
0
 10
1201.800048828125
 20
10.399999618530273
 42
-0
  0
VERTEX
  8
0
 10
1251.800048828125
 20
10.399999618530273
 42
-0
  0
VERTEX
  8
0
 10
1251.800048828125
 20
120.40000152587891
 42
-0
  0
VERTEX
  8
0
 10
1201.800048828125
 20
120.40000152587891
 42
0
  0
SEQEND
  0
POLYLINE
  8
0
 10
0
 20
0
 39
0
 70
1
 66
1
  0
VERTEX
  8
0
 10
1226.800048828125
 20
25.192558288574219
 42
-1
  0
VERTEX
  8
0
 10
1226.800048828125
 20
51.192558288574219
 42
-1
  0
SEQEND
  0
POLYLINE
  8
0
 10
0
 20
0
 39
0
 70
1
 66
1
  0
VERTEX
  8
0
 10
1294
 20
919
 42
-0
  0
VERTEX
  8
0
 10
1294
 20
969
 42
-0
  0
VERTEX
  8
0
 10
1184
 20
969
 42
-0
  0
VERTEX
  8
0
 10
1184
 20
919
 42
0
  0
SEQEND
  0
POLYLINE
  8
0
 10
0
 20
0
 39
0
 70
1
 66
1
  0
VERTEX
  8
0
 10
1279.2073974609375
 20
944
 42
-1
  0
VERTEX
  8
0
 10
1253.2073974609375
 20
944
 42
-1
  0
SEQEND
  0
POLYLINE
  8
0
 10
0
 20
0
 39
0
 70
1
 66
1
  0
VERTEX
  8
0
 10
1262.199951171875
 20
10.399999618530273
 42
-0
  0
VERTEX
  8
0
 10
1312.199951171875
 20
10.399999618530273
 42
-0
  0
VERTEX
  8
0
 10
1312.199951171875
 20
120.40000152587891
 42
-0
  0
VERTEX
  8
0
 10
1262.199951171875
 20
120.40000152587891
 42
0
  0
SEQEND
  0
POLYLINE
  8
0
 10
0
 20
0
 39
0
 70
1
 66
1
  0
VERTEX
  8
0
 10
1287.199951171875
 20
25.192558288574219
 42
-1
  0
VERTEX
  8
0
 10
1287.199951171875
 20
51.192558288574219
 42
-1
  0
SEQEND
  0
POLYLINE
  8
0
 10
0
 20
0
 39
0
 70
1
 66
1
  0
VERTEX
  8
0
 10
1478
 20
879.5999755859375
 42
-0
  0
VERTEX
  8
0
 10
1528
 20
879.5999755859375
 42
-0
  0
VERTEX
  8
0
 10
1528
 20
989.5999755859375
 42
-0
  0
VERTEX
  8
0
 10
1478
 20
989.5999755859375
 42
0
  0
SEQEND
  0
POLYLINE
  8
0
 10
0
 20
0
 39
0
 70
1
 66
1
  0
VERTEX
  8
0
 10
1503
 20
894.392578125
 42
-1
  0
VERTEX
  8
0
 10
1503
 20
920.392578125
 42
-1
  0
SEQEND
  0
POLYLINE
  8
0
 10
0
 20
0
 39
0
 70
1
 66
1
  0
VERTEX
  8
0
 10
1566.199951171875
 20
10.399999618530273
 42
-0
  0
VERTEX
  8
0
 10
1616.199951171875
 20
10.399999618530273
 42
-0
  0
VERTEX
  8
0
 10
1616.199951171875
 20
120.40000152587891
 42
-0
  0
VERTEX
  8
0
 10
1566.199951171875
 20
120.40000152587891
 42
0
  0
SEQEND
  0
POLYLINE
  8
0
 10
0
 20
0
 39
0
 70
1
 66
1
  0
VERTEX
  8
0
 10
1591.199951171875
 20
25.192558288574219
 42
-1
  0
VERTEX
  8
0
 10
1591.199951171875
 20
51.192558288574219
 42
-1
  0
SEQEND
  0
POLYLINE
  8
0
 10
0
 20
0
 39
0
 70
1
 66
1
  0
VERTEX
  8
0
 10
1781.4000244140625
 20
879.5999755859375
 42
-0
  0
VERTEX
  8
0
 10
1831.4000244140625
 20
879.5999755859375
 42
-0
  0
VERTEX
  8
0
 10
1831.4000244140625
 20
989.5999755859375
 42
-0
  0
VERTEX
  8
0
 10
1781.4000244140625
 20
989.5999755859375
 42
0
  0
SEQEND
  0
POLYLINE
  8
0
 10
0
 20
0
 39
0
 70
1
 66
1
  0
VERTEX
  8
0
 10
1806.4000244140625
 20
894.392578125
 42
-1
  0
VERTEX
  8
0
 10
1806.4000244140625
 20
920.392578125
 42
-1
  0
SEQEND
  0
POLYLINE
  8
0
 10
0
 20
0
 39
0
 70
1
 66
1
  0
VERTEX
  8
0
 10
1822.800048828125
 20
10.399999618530273
 42
-0
  0
VERTEX
  8
0
 10
1872.800048828125
 20
10.399999618530273
 42
-0
  0
VERTEX
  8
0
 10
1872.800048828125
 20
120.40000152587891
 42
-0
  0
VERTEX
  8
0
 10
1822.800048828125
 20
120.40000152587891
 42
0
  0
SEQEND
  0
POLYLINE
  8
0
 10
0
 20
0
 39
0
 70
1
 66
1
  0
VERTEX
  8
0
 10
1847.800048828125
 20
25.192558288574219
 42
-1
  0
VERTEX
  8
0
 10
1847.800048828125
 20
51.192558288574219
 42
-1
  0
SEQEND
  0
POLYLINE
  8
0
 10
0
 20
0
 39
0
 70
1
 66
1
  0
VERTEX
  8
0
 10
1860.199951171875
 20
291.39999389648437
 42
-0
  0
VERTEX
  8
0
 10
1910.199951171875
 20
291.39999389648437
 42
-0
  0
VERTEX
  8
0
 10
1910.199951171875
 20
401.39999389648437
 42
-0
  0
VERTEX
  8
0
 10
1860.199951171875
 20
401.39999389648437
 42
0
  0
SEQEND
  0
POLYLINE
  8
0
 10
0
 20
0
 39
0
 70
1
 66
1
  0
VERTEX
  8
0
 10
1885.199951171875
 20
306.19256591796875
 42
-1
  0
VERTEX
  8
0
 10
1885.199951171875
 20
332.19256591796875
 42
-1
  0
SEQEND
  0
POLYLINE
  8
0
 10
0
 20
0
 39
0
 70
1
 66
1
  0
VERTEX
  8
0
 10
1860.199951171875
 20
411.60000610351562
 42
-0
  0
VERTEX
  8
0
 10
1910.199951171875
 20
411.60000610351562
 42
-0
  0
VERTEX
  8
0
 10
1910.199951171875
 20
521.5999755859375
 42
-0
  0
VERTEX
  8
0
 10
1860.199951171875
 20
521.5999755859375
 42
0
  0
SEQEND
  0
POLYLINE
  8
0
 10
0
 20
0
 39
0
 70
1
 66
1
  0
VERTEX
  8
0
 10
1885.199951171875
 20
426.39254760742187
 42
-1
  0
VERTEX
  8
0
 10
1885.199951171875
 20
452.39254760742187
 42
-1
  0
SEQEND
  0
POLYLINE
  8
0
 10
0
 20
0
 39
0
 70
1
 66
1
  0
VERTEX
  8
0
 10
1860.199951171875
 20
531.79998779296875
 42
-0
  0
VERTEX
  8
0
 10
1910.199951171875
 20
531.79998779296875
 42
-0
  0
VERTEX
  8
0
 10
1910.199951171875
 20
641.79998779296875
 42
-0
  0
VERTEX
  8
0
 10
1860.199951171875
 20
641.79998779296875
 42
0
  0
SEQEND
  0
POLYLINE
  8
0
 10
0
 20
0
 39
0
 70
1
 66
1
  0
VERTEX
  8
0
 10
1885.199951171875
 20
546.592529296875
 42
-1
  0
VERTEX
  8
0
 10
1885.199951171875
 20
572.592529296875
 42
-1
  0
SEQEND
  0
POLYLINE
  8
0
 10
0
 20
0
 39
0
 70
1
 66
1
  0
VERTEX
  8
0
 10
1883.199951171875
 20
10.399999618530273
 42
-0
  0
VERTEX
  8
0
 10
1933.199951171875
 20
10.399999618530273
 42
-0
  0
VERTEX
  8
0
 10
1933.199951171875
 20
120.40000152587891
 42
-0
  0
VERTEX
  8
0
 10
1883.199951171875
 20
120.40000152587891
 42
0
  0
SEQEND
  0
POLYLINE
  8
0
 10
0
 20
0
 39
0
 70
1
 66
1
  0
VERTEX
  8
0
 10
1908.199951171875
 20
25.192558288574219
 42
-1
  0
VERTEX
  8
0
 10
1908.199951171875
 20
51.192558288574219
 42
-1
  0
SEQEND
  0
POLYLINE
  8
0
 10
0
 20
0
 39
0
 70
1
 66
1
  0
VERTEX
  8
0
 10
1901.4000244140625
 20
130.60000610351562
 42
-0
  0
VERTEX
  8
0
 10
1951.4000244140625
 20
130.60000610351562
 42
-0
  0
VERTEX
  8
0
 10
1951.4000244140625
 20
240.60000610351562
 42
-0
  0
VERTEX
  8
0
 10
1939.4000244140625
 20
240.60000610351562
 42
-1
  0
VERTEX
  8
0
 10
1913.4000244140625
 20
240.60000610351562
 42
-0
  0
VERTEX
  8
0
 10
1901.4000244140625
 20
240.60000610351562
 42
0
  0
SEQEND
  0
POLYLINE
  8
0
 10
0
 20
0
 39
0
 70
1
 66
1
  0
VERTEX
  8
0
 10
1926.4000244140625
 20
172.60000610351562
 42
-1
  0
VERTEX
  8
0
 10
1926.4000244140625
 20
198.60000610351562
 42
-1
  0
SEQEND
  0
POLYLINE
  8
0
 10
0
 20
0
 39
0
 70
1
 66
1
  0
VERTEX
  8
0
 10
1970.199951171875
 20
652
 42
-0
  0
VERTEX
  8
0
 10
1970.199951171875
 20
702
 42
-0
  0
VERTEX
  8
0
 10
1860.199951171875
 20
702
 42
-0
  0
VERTEX
  8
0
 10
1860.199951171875
 20
690
 42
-1
  0
VERTEX
  8
0
 10
1860.199951171875
 20
664
 42
-0
  0
VERTEX
  8
0
 10
1860.199951171875
 20
652
 42
0
  0
SEQEND
  0
POLYLINE
  8
0
 10
0
 20
0
 39
0
 70
1
 66
1
  0
VERTEX
  8
0
 10
1928.199951171875
 20
677
 42
-1
  0
VERTEX
  8
0
 10
1902.199951171875
 20
677
 42
-1
  0
SEQEND
  0
POLYLINE
  8
0
 10
0
 20
0
 39
0
 70
1
 66
1
  0
VERTEX
  8
0
 10
1920.5999755859375
 20
250.80000305175781
 42
-0
  0
VERTEX
  8
0
 10
1970.5999755859375
 20
250.80000305175781
 42
-0
  0
VERTEX
  8
0
 10
1970.5999755859375
 20
360.79998779296875
 42
-0
  0
VERTEX
  8
0
 10
1920.5999755859375
 20
360.79998779296875
 42
0
  0
SEQEND
  0
POLYLINE
  8
0
 10
0
 20
0
 39
0
 70
1
 66
1
  0
VERTEX
  8
0
 10
1945.5999755859375
 20
265.59255981445312
 42
-1
  0
VERTEX
  8
0
 10
1945.5999755859375
 20
291.59255981445312
 42
-1
  0
SEQEND
  0
POLYLINE
  8
0
 10
0
 20
0
 39
0
 70
1
 66
1
  0
VERTEX
  8
0
 10
1920.5999755859375
 20
371
 42
-0
  0
VERTEX
  8
0
 10
1970.5999755859375
 20
371
 42
-0
  0
VERTEX
  8
0
 10
1970.5999755859375
 20
481
 42
-0
  0
VERTEX
  8
0
 10
1920.5999755859375
 20
481
 42
0
  0
SEQEND
  0
POLYLINE
  8
0
 10
0
 20
0
 39
0
 70
1
 66
1
  0
VERTEX
  8
0
 10
1945.5999755859375
 20
385.79257202148437
 42
-1
  0
VERTEX
  8
0
 10
1945.5999755859375
 20
411.79254150390625
 42
-1
  0
SEQEND
  0
POLYLINE
  8
0
 10
0
 20
0
 39
0
 70
1
 66
1
  0
VERTEX
  8
0
 10
1920.5999755859375
 20
491.20001220703125
 42
-0
  0
VERTEX
  8
0
 10
1970.5999755859375
 20
491.20001220703125
 42
-0
  0
VERTEX
  8
0
 10
1970.5999755859375
 20
601.20001220703125
 42
-0
  0
VERTEX
  8
0
 10
1920.5999755859375
 20
601.20001220703125
 42
0
  0
SEQEND
  0
POLYLINE
  8
0
 10
0
 20
0
 39
0
 70
1
 66
1
  0
VERTEX
  8
0
 10
1945.5999755859375
 20
505.9925537109375
 42
-1
  0
VERTEX
  8
0
 10
1945.5999755859375
 20
531.9925537109375
 42
-1
  0
SEQEND
  0
ENDSEC
  0
EOF
