  0
SECTION
  2
ENTITIES
  0
POLYLINE
  8
0
 10
0
 20
0
 39
0
 70
1
 66
1
  0
VERTEX
  8
0
 10
0
 20
0
 42
-0
  0
VERTEX
  8
0
 10
2500
 20
0
 42
-0
  0
VERTEX
  8
0
 10
2500
 20
1000
 42
-0
  0
VERTEX
  8
0
 10
0
 20
1000
 42
-0
  0
SEQEND
  0
POLYLINE
  8
0
 10
0
 20
0
 39
0
 70
1
 66
1
  0
VERTEX
  8
0
 10
1632
 20
359.167724609375
 42
0
  0
VERTEX
  8
0
 10
1632
 20
384.167724609375
 42
-0
  0
VERTEX
  8
0
 10
1470
 20
453.667724609375
 42
0
  0
VERTEX
  8
0
 10
1470
 20
289.667724609375
 42
-0
  0
SEQEND
  0
POLYLINE
  8
0
 10
0
 20
0
 39
0
 70
1
 66
1
  0
VERTEX
  8
0
 10
1470
 20
489.83541870117187
 42
0
  0
VERTEX
  8
0
 10
1470
 20
464.83541870117187
 42
-0
  0
VERTEX
  8
0
 10
1632
 20
395.33541870117187
 42
0
  0
VERTEX
  8
0
 10
1632
 20
559.33544921875
 42
-0
  0
SEQEND
  0
POLYLINE
  8
0
 10
0
 20
0
 39
0
 70
1
 66
1
  0
VERTEX
  8
0
 10
547
 20
610
 42
0
  0
VERTEX
  8
0
 10
1647
 20
610
 42
0
  0
VERTEX
  8
0
 10
1647
 20
720
 42
0
  0
VERTEX
  8
0
 10
547
 20
720
 42
0
  0
SEQEND
  0
POLYLINE
  8
0
 10
0
 20
0
 39
0
 70
1
 66
1
  0
VERTEX
  8
0
 10
1804
 20
349.5
 42
0
  0
VERTEX
  8
0
 10
1804
 20
374.5
 42
-0
  0
VERTEX
  8
0
 10
1642
 20
444
 42
0
  0
VERTEX
  8
0
 10
1642
 20
280
 42
-0
  0
SEQEND
  0
POLYLINE
  8
0
 10
0
 20
0
 39
0
 70
1
 66
1
  0
VERTEX
  8
0
 10
1642
 20
480.167724609375
 42
0
  0
VERTEX
  8
0
 10
1642
 20
455.167724609375
 42
-0
  0
VERTEX
  8
0
 10
1804
 20
385.667724609375
 42
0
  0
VERTEX
  8
0
 10
1804
 20
549.667724609375
 42
-0
  0
SEQEND
  0
POLYLINE
  8
0
 10
0
 20
0
 39
0
 70
1
 66
1
  0
VERTEX
  8
0
 10
1460
 20
79.5
 42
0
  0
VERTEX
  8
0
 10
1460
 20
104.5
 42
-0
  0
VERTEX
  8
0
 10
1298
 20
174
 42
0
  0
VERTEX
  8
0
 10
1298
 20
10
 42
-0
  0
SEQEND
  0
POLYLINE
  8
0
 10
0
 20
0
 39
0
 70
1
 66
1
  0
VERTEX
  8
0
 10
1298
 20
210.16770935058594
 42
0
  0
VERTEX
  8
0
 10
1298
 20
185.16770935058594
 42
-0
  0
VERTEX
  8
0
 10
1460
 20
115.66771697998047
 42
0
  0
VERTEX
  8
0
 10
1460
 20
279.667724609375
 42
-0
  0
SEQEND
  0
POLYLINE
  8
0
 10
0
 20
0
 39
0
 70
1
 66
1
  0
VERTEX
  8
0
 10
1953.9415283203125
 20
877.3515625
 42
0
  0
VERTEX
  8
0
 10
1953.9415283203125
 20
617.3515625
 42
0
  0
VERTEX
  8
0
 10
2121.941650390625
 20
617.3515625
 42
0
  0
VERTEX
  8
0
 10
2121.941650390625
 20
877.3515625
 42
0
  0
SEQEND
  0
POLYLINE
  8
0
 10
0
 20
0
 39
0
 70
1
 66
1
  0
VERTEX
  8
0
 10
1642
 20
270
 42
0
  0
VERTEX
  8
0
 10
1642
 20
10
 42
0
  0
VERTEX
  8
0
 10
1810
 20
10
 42
0
  0
VERTEX
  8
0
 10
1810
 20
270
 42
0
  0
SEQEND
  0
POLYLINE
  8
0
 10
0
 20
0
 39
0
 70
1
 66
1
  0
VERTEX
  8
0
 10
1953.9415283203125
 20
607.3515625
 42
0
  0
VERTEX
  8
0
 10
1953.9415283203125
 20
347.35153198242187
 42
0
  0
VERTEX
  8
0
 10
2121.941650390625
 20
347.35153198242187
 42
0
  0
VERTEX
  8
0
 10
2121.941650390625
 20
607.3515625
 42
0
  0
SEQEND
  0
POLYLINE
  8
0
 10
0
 20
0
 39
0
 70
1
 66
1
  0
VERTEX
  8
0
 10
547
 20
730
 42
0
  0
VERTEX
  8
0
 10
1647
 20
730
 42
0
  0
VERTEX
  8
0
 10
1647
 20
840
 42
0
  0
VERTEX
  8
0
 10
547
 20
840
 42
0
  0
SEQEND
  0
POLYLINE
  8
0
 10
0
 20
0
 39
0
 70
1
 66
1
  0
VERTEX
  8
0
 10
1120
 20
270
 42
0
  0
VERTEX
  8
0
 10
1120
 20
10
 42
0
  0
VERTEX
  8
0
 10
1288
 20
10
 42
0
  0
VERTEX
  8
0
 10
1288
 20
270
 42
0
  0
SEQEND
  0
POLYLINE
  8
0
 10
0
 20
0
 39
0
 70
1
 66
1
  0
VERTEX
  8
0
 10
1120
 20
540
 42
0
  0
VERTEX
  8
0
 10
1120
 20
280
 42
0
  0
VERTEX
  8
0
 10
1288
 20
280
 42
0
  0
VERTEX
  8
0
 10
1288
 20
540
 42
0
  0
SEQEND
  0
POLYLINE
  8
0
 10
0
 20
0
 39
0
 70
1
 66
1
  0
VERTEX
  8
0
 10
1460
 20
359.167724609375
 42
0
  0
VERTEX
  8
0
 10
1460
 20
384.167724609375
 42
-0
  0
VERTEX
  8
0
 10
1298
 20
453.667724609375
 42
0
  0
VERTEX
  8
0
 10
1298
 20
289.667724609375
 42
-0
  0
SEQEND
  0
POLYLINE
  8
0
 10
0
 20
0
 39
0
 70
1
 66
1
  0
VERTEX
  8
0
 10
1298
 20
489.83541870117187
 42
0
  0
VERTEX
  8
0
 10
1298
 20
464.83541870117187
 42
-0
  0
VERTEX
  8
0
 10
1460
 20
395.33541870117187
 42
0
  0
VERTEX
  8
0
 10
1460
 20
559.33544921875
 42
-0
  0
SEQEND
  0
POLYLINE
  8
0
 10
0
 20
0
 39
0
 70
1
 66
1
  0
VERTEX
  8
0
 10
10
 20
250
 42
0
  0
VERTEX
  8
0
 10
1110
 20
250
 42
0
  0
VERTEX
  8
0
 10
1110
 20
360
 42
0
  0
VERTEX
  8
0
 10
10
 20
360
 42
0
  0
SEQEND
  0
POLYLINE
  8
0
 10
0
 20
0
 39
0
 70
1
 66
1
  0
VERTEX
  8
0
 10
1632
 20
79.5
 42
0
  0
VERTEX
  8
0
 10
1632
 20
104.5
 42
-0
  0
VERTEX
  8
0
 10
1470
 20
174
 42
0
  0
VERTEX
  8
0
 10
1470
 20
10
 42
-0
  0
SEQEND
  0
POLYLINE
  8
0
 10
0
 20
0
 39
0
 70
1
 66
1
  0
VERTEX
  8
0
 10
1470
 20
210.16770935058594
 42
0
  0
VERTEX
  8
0
 10
1470
 20
185.16770935058594
 42
-0
  0
VERTEX
  8
0
 10
1632
 20
115.66771697998047
 42
0
  0
VERTEX
  8
0
 10
1632
 20
279.667724609375
 42
-0
  0
SEQEND
  0
POLYLINE
  8
0
 10
0
 20
0
 39
0
 70
1
 66
1
  0
VERTEX
  8
0
 10
10
 20
130
 42
0
  0
VERTEX
  8
0
 10
1110
 20
130
 42
0
  0
VERTEX
  8
0
 10
1110
 20
240
 42
0
  0
VERTEX
  8
0
 10
10
 20
240
 42
0
  0
SEQEND
  0
POLYLINE
  8
0
 10
0
 20
0
 39
0
 70
1
 66
1
  0
VERTEX
  8
0
 10
10
 20
370
 42
0
  0
VERTEX
  8
0
 10
1110
 20
370
 42
0
  0
VERTEX
  8
0
 10
1110
 20
480
 42
0
  0
VERTEX
  8
0
 10
10
 20
480
 42
0
  0
SEQEND
  0
POLYLINE
  8
0
 10
0
 20
0
 39
0
 70
1
 66
1
  0
VERTEX
  8
0
 10
10
 20
10
 42
0
  0
VERTEX
  8
0
 10
1110
 20
10
 42
0
  0
VERTEX
  8
0
 10
1110
 20
120
 42
0
  0
VERTEX
  8
0
 10
10
 20
120
 42
0
  0
SEQEND
  0
POLYLINE
  8
0
 10
0
 20
0
 39
0
 70
1
 66
1
  0
VERTEX
  8
0
 10
10
 20
490
 42
0
  0
VERTEX
  8
0
 10
1110
 20
490
 42
0
  0
VERTEX
  8
0
 10
1110
 20
600
 42
0
  0
VERTEX
  8
0
 10
10
 20
600
 42
0
  0
SEQEND
  0
POLYLINE
  8
0
 10
0
 20
0
 39
0
 70
1
 66
1
  0
VERTEX
  8
0
 10
2106.505126953125
 20
14.067427635192871
 42
-0
  0
VERTEX
  8
0
 10
2106.941650390625
 20
144.89674377441406
 42
-0
  0
VERTEX
  8
0
 10
2097.189208984375
 20
170.63761901855469
 42
-0
  0
VERTEX
  8
0
 10
2010.1722412109375
 20
268.33380126953125
 42
-0
  0
VERTEX
  8
0
 10
1999.4364013671875
 20
264.266357421875
 42
-0
  0
VERTEX
  8
0
 10
1999
 20
133.43705749511719
 42
-0
  0
VERTEX
  8
0
 10
2008.7523193359375
 20
107.69617462158203
 42
-0
  0
VERTEX
  8
0
 10
2095.769287109375
 20
10
 42
-0
  0
SEQEND
  0
POLYLINE
  8
0
 10
0
 20
0
 39
0
 70
1
 66
1
  0
VERTEX
  8
0
 10
1943.505126953125
 20
351.41897583007812
 42
-0
  0
VERTEX
  8
0
 10
1943.9415283203125
 20
482.248291015625
 42
-0
  0
VERTEX
  8
0
 10
1934.189208984375
 20
507.98916625976562
 42
-0
  0
VERTEX
  8
0
 10
1847.1722412109375
 20
605.68536376953125
 42
-0
  0
VERTEX
  8
0
 10
1836.4364013671875
 20
601.617919921875
 42
-0
  0
VERTEX
  8
0
 10
1836
 20
470.78860473632812
 42
-0
  0
VERTEX
  8
0
 10
1845.7523193359375
 20
445.0477294921875
 42
-0
  0
VERTEX
  8
0
 10
1932.769287109375
 20
347.35153198242187
 42
-0
  0
SEQEND
  0
POLYLINE
  8
0
 10
0
 20
0
 39
0
 70
1
 66
1
  0
VERTEX
  8
0
 10
1943.505126953125
 20
619.75274658203125
 42
-0
  0
VERTEX
  8
0
 10
1943.9415283203125
 20
750.58209228515625
 42
-0
  0
VERTEX
  8
0
 10
1934.189208984375
 20
776.32293701171875
 42
-0
  0
VERTEX
  8
0
 10
1847.1722412109375
 20
874.01910400390625
 42
-0
  0
VERTEX
  8
0
 10
1836.4364013671875
 20
869.95172119140625
 42
-0
  0
VERTEX
  8
0
 10
1836
 20
739.12237548828125
 42
-0
  0
VERTEX
  8
0
 10
1845.7523193359375
 20
713.38153076171875
 42
-0
  0
VERTEX
  8
0
 10
1932.769287109375
 20
615.68536376953125
 42
-0
  0
SEQEND
  0
POLYLINE
  8
0
 10
0
 20
0
 39
0
 70
1
 66
1
  0
VERTEX
  8
0
 10
2306.941650390625
 20
10
 42
0
  0
VERTEX
  8
0
 10
2306.941650390625
 20
210
 42
0
  0
VERTEX
  8
0
 10
2216.941650390625
 20
210
 42
0
  0
VERTEX
  8
0
 10
2216.941650390625
 20
10
 42
0
  0
SEQEND
  0
POLYLINE
  8
0
 10
0
 20
0
 39
0
 70
1
 66
1
  0
VERTEX
  8
0
 10
2251.441650390625
 20
149.5
 42
-1
  0
VERTEX
  8
0
 10
2272.441650390625
 20
149.5
 42
0
  0
VERTEX
  8
0
 10
2272.441650390625
 20
100.5
 42
-1
  0
VERTEX
  8
0
 10
2251.441650390625
 20
100.5
 42
-0
  0
SEQEND
  0
POLYLINE
  8
0
 10
0
 20
0
 39
0
 70
1
 66
1
  0
VERTEX
  8
0
 10
2231.941650390625
 20
365
 42
0
  0
VERTEX
  8
0
 10
2231.941650390625
 20
280
 42
1
  0
VERTEX
  8
0
 10
2351.941650390625
 20
280
 42
0
  0
VERTEX
  8
0
 10
2351.941650390625
 20
365
 42
0
  0
SEQEND
  0
POLYLINE
  8
0
 10
0
 20
0
 39
0
 70
1
 66
1
  0
VERTEX
  8
0
 10
2231.941650390625
 20
985
 42
0
  0
VERTEX
  8
0
 10
2231.941650390625
 20
900
 42
1
  0
VERTEX
  8
0
 10
2351.941650390625
 20
900
 42
0
  0
VERTEX
  8
0
 10
2351.941650390625
 20
985
 42
0
  0
SEQEND
  0
POLYLINE
  8
0
 10
0
 20
0
 39
0
 70
1
 66
1
  0
VERTEX
  8
0
 10
2231.941650390625
 20
830
 42
0
  0
VERTEX
  8
0
 10
2231.941650390625
 20
745
 42
1
  0
VERTEX
  8
0
 10
2351.941650390625
 20
745
 42
0
  0
VERTEX
  8
0
 10
2351.941650390625
 20
830
 42
0
  0
SEQEND
  0
POLYLINE
  8
0
 10
0
 20
0
 39
0
 70
1
 66
1
  0
VERTEX
  8
0
 10
2316.941650390625
 20
155
 42
0
  0
VERTEX
  8
0
 10
2316.941650390625
 20
70
 42
1
  0
VERTEX
  8
0
 10
2436.941650390625
 20
70
 42
0
  0
VERTEX
  8
0
 10
2436.941650390625
 20
155
 42
0
  0
SEQEND
  0
POLYLINE
  8
0
 10
0
 20
0
 39
0
 70
1
 66
1
  0
VERTEX
  8
0
 10
1657
 20
559.667724609375
 42
0
  0
VERTEX
  8
0
 10
1826
 20
559.667724609375
 42
-0
  0
VERTEX
  8
0
 10
1657
 20
865.4976806640625
 42
0
  0
SEQEND
  0
POLYLINE
  8
0
 10
0
 20
0
 39
0
 70
1
 66
1
  0
VERTEX
  8
0
 10
1826
 20
887.019287109375
 42
0
  0
VERTEX
  8
0
 10
1657
 20
887.019287109375
 42
-0
  0
VERTEX
  8
0
 10
1826
 20
581.18927001953125
 42
0
  0
SEQEND
  0
POLYLINE
  8
0
 10
0
 20
0
 39
0
 70
1
 66
1
  0
VERTEX
  8
0
 10
1820
 20
10
 42
0
  0
VERTEX
  8
0
 10
1989
 20
10
 42
-0
  0
VERTEX
  8
0
 10
1820
 20
315.82998657226562
 42
0
  0
SEQEND
  0
POLYLINE
  8
0
 10
0
 20
0
 39
0
 70
1
 66
1
  0
VERTEX
  8
0
 10
1989
 20
337.35153198242187
 42
0
  0
VERTEX
  8
0
 10
1820
 20
337.35153198242187
 42
-0
  0
VERTEX
  8
0
 10
1989
 20
31.521556854248047
 42
0
  0
SEQEND
  0
POLYLINE
  8
0
 10
0
 20
0
 39
0
 70
1
 66
1
  0
VERTEX
  8
0
 10
368
 20
610
 42
0
  0
VERTEX
  8
0
 10
537
 20
610
 42
-0
  0
VERTEX
  8
0
 10
368
 20
915.8299560546875
 42
0
  0
SEQEND
  0
POLYLINE
  8
0
 10
0
 20
0
 39
0
 70
1
 66
1
  0
VERTEX
  8
0
 10
537
 20
937.3515625
 42
0
  0
VERTEX
  8
0
 10
368
 20
937.3515625
 42
-0
  0
VERTEX
  8
0
 10
537
 20
631.52154541015625
 42
0
  0
SEQEND
  0
POLYLINE
  8
0
 10
0
 20
0
 39
0
 70
1
 66
1
  0
VERTEX
  8
0
 10
2361.941650390625
 20
310
 42
0
  0
VERTEX
  8
0
 10
2361.941650390625
 20
225
 42
1
  0
VERTEX
  8
0
 10
2481.941650390625
 20
225
 42
0
  0
VERTEX
  8
0
 10
2481.941650390625
 20
310
 42
0
  0
SEQEND
  0
POLYLINE
  8
0
 10
0
 20
0
 39
0
 70
1
 66
1
  0
VERTEX
  8
0
 10
747
 20
987.019287109375
 42
0
  0
VERTEX
  8
0
 10
547
 20
987.019287109375
 42
0
  0
VERTEX
  8
0
 10
547
 20
897.019287109375
 42
0
  0
VERTEX
  8
0
 10
747
 20
897.019287109375
 42
0
  0
SEQEND
  0
POLYLINE
  8
0
 10
0
 20
0
 39
0
 70
1
 66
1
  0
VERTEX
  8
0
 10
607.5
 20
931.519287109375
 42
-1
  0
VERTEX
  8
0
 10
607.5
 20
952.519287109375
 42
0
  0
VERTEX
  8
0
 10
656.5
 20
952.519287109375
 42
-1
  0
VERTEX
  8
0
 10
656.5
 20
931.519287109375
 42
-0
  0
SEQEND
  0
POLYLINE
  8
0
 10
0
 20
0
 39
0
 70
1
 66
1
  0
VERTEX
  8
0
 10
2361.941650390625
 20
465
 42
0
  0
VERTEX
  8
0
 10
2361.941650390625
 20
380
 42
1
  0
VERTEX
  8
0
 10
2481.941650390625
 20
380
 42
0
  0
VERTEX
  8
0
 10
2481.941650390625
 20
465
 42
0
  0
SEQEND
  0
POLYLINE
  8
0
 10
0
 20
0
 39
0
 70
1
 66
1
  0
VERTEX
  8
0
 10
2007
 20
987.019287109375
 42
0
  0
VERTEX
  8
0
 10
1807
 20
987.019287109375
 42
0
  0
VERTEX
  8
0
 10
1807
 20
897.019287109375
 42
0
  0
VERTEX
  8
0
 10
2007
 20
897.019287109375
 42
0
  0
SEQEND
  0
POLYLINE
  8
0
 10
0
 20
0
 39
0
 70
1
 66
1
  0
VERTEX
  8
0
 10
1867.5
 20
931.519287109375
 42
-1
  0
VERTEX
  8
0
 10
1867.5
 20
952.519287109375
 42
0
  0
VERTEX
  8
0
 10
1916.5
 20
952.519287109375
 42
-1
  0
VERTEX
  8
0
 10
1916.5
 20
931.519287109375
 42
-0
  0
SEQEND
  0
POLYLINE
  8
0
 10
0
 20
0
 39
0
 70
1
 66
1
  0
VERTEX
  8
0
 10
2361.941650390625
 20
620
 42
0
  0
VERTEX
  8
0
 10
2361.941650390625
 20
535
 42
1
  0
VERTEX
  8
0
 10
2481.941650390625
 20
535
 42
0
  0
VERTEX
  8
0
 10
2481.941650390625
 20
620
 42
0
  0
SEQEND
  0
POLYLINE
  8
0
 10
0
 20
0
 39
0
 70
1
 66
1
  0
VERTEX
  8
0
 10
2361.941650390625
 20
775
 42
0
  0
VERTEX
  8
0
 10
2361.941650390625
 20
690
 42
1
  0
VERTEX
  8
0
 10
2481.941650390625
 20
690
 42
0
  0
VERTEX
  8
0
 10
2481.941650390625
 20
775
 42
0
  0
SEQEND
  0
POLYLINE
  8
0
 10
0
 20
0
 39
0
 70
1
 66
1
  0
VERTEX
  8
0
 10
2231.941650390625
 20
675
 42
0
  0
VERTEX
  8
0
 10
2231.941650390625
 20
590
 42
1
  0
VERTEX
  8
0
 10
2351.941650390625
 20
590
 42
0
  0
VERTEX
  8
0
 10
2351.941650390625
 20
675
 42
0
  0
SEQEND
  0
POLYLINE
  8
0
 10
0
 20
0
 39
0
 70
1
 66
1
  0
VERTEX
  8
0
 10
189
 20
610
 42
0
  0
VERTEX
  8
0
 10
358
 20
610
 42
-0
  0
VERTEX
  8
0
 10
189
 20
915.8299560546875
 42
0
  0
SEQEND
  0
POLYLINE
  8
0
 10
0
 20
0
 39
0
 70
1
 66
1
  0
VERTEX
  8
0
 10
358
 20
937.3515625
 42
0
  0
VERTEX
  8
0
 10
189
 20
937.3515625
 42
-0
  0
VERTEX
  8
0
 10
358
 20
631.52154541015625
 42
0
  0
SEQEND
  0
POLYLINE
  8
0
 10
0
 20
0
 39
0
 70
1
 66
1
  0
VERTEX
  8
0
 10
10
 20
610
 42
0
  0
VERTEX
  8
0
 10
179
 20
610
 42
-0
  0
VERTEX
  8
0
 10
10
 20
915.8299560546875
 42
0
  0
SEQEND
  0
POLYLINE
  8
0
 10
0
 20
0
 39
0
 70
1
 66
1
  0
VERTEX
  8
0
 10
179
 20
937.3515625
 42
0
  0
VERTEX
  8
0
 10
10
 20
937.3515625
 42
-0
  0
VERTEX
  8
0
 10
179
 20
631.52154541015625
 42
0
  0
SEQEND
  0
POLYLINE
  8
0
 10
0
 20
0
 39
0
 70
1
 66
1
  0
VERTEX
  8
0
 10
2231.941650390625
 20
520
 42
0
  0
VERTEX
  8
0
 10
2231.941650390625
 20
435
 42
1
  0
VERTEX
  8
0
 10
2351.941650390625
 20
435
 42
0
  0
VERTEX
  8
0
 10
2351.941650390625
 20
520
 42
0
  0
SEQEND
  0
POLYLINE
  8
0
 10
0
 20
0
 39
0
 70
1
 66
1
  0
VERTEX
  8
0
 10
957
 20
987.019287109375
 42
0
  0
VERTEX
  8
0
 10
757
 20
987.019287109375
 42
0
  0
VERTEX
  8
0
 10
757
 20
897.019287109375
 42
0
  0
VERTEX
  8
0
 10
957
 20
897.019287109375
 42
0
  0
SEQEND
  0
POLYLINE
  8
0
 10
0
 20
0
 39
0
 70
1
 66
1
  0
VERTEX
  8
0
 10
817.5
 20
931.519287109375
 42
-1
  0
VERTEX
  8
0
 10
817.5
 20
952.519287109375
 42
0
  0
VERTEX
  8
0
 10
866.5
 20
952.519287109375
 42
-1
  0
VERTEX
  8
0
 10
866.5
 20
931.519287109375
 42
-0
  0
SEQEND
  0
POLYLINE
  8
0
 10
0
 20
0
 39
0
 70
1
 66
1
  0
VERTEX
  8
0
 10
2221.941650390625
 20
220
 42
0
  0
VERTEX
  8
0
 10
2221.941650390625
 20
420
 42
0
  0
VERTEX
  8
0
 10
2131.941650390625
 20
420
 42
0
  0
VERTEX
  8
0
 10
2131.941650390625
 20
220
 42
0
  0
SEQEND
  0
POLYLINE
  8
0
 10
0
 20
0
 39
0
 70
1
 66
1
  0
VERTEX
  8
0
 10
2166.441650390625
 20
359.5
 42
-1
  0
VERTEX
  8
0
 10
2187.441650390625
 20
359.5
 42
0
  0
VERTEX
  8
0
 10
2187.441650390625
 20
310.5
 42
-1
  0
VERTEX
  8
0
 10
2166.441650390625
 20
310.5
 42
-0
  0
SEQEND
  0
POLYLINE
  8
0
 10
0
 20
0
 39
0
 70
1
 66
1
  0
VERTEX
  8
0
 10
1797
 20
987.019287109375
 42
0
  0
VERTEX
  8
0
 10
1597
 20
987.019287109375
 42
0
  0
VERTEX
  8
0
 10
1597
 20
897.019287109375
 42
0
  0
VERTEX
  8
0
 10
1797
 20
897.019287109375
 42
0
  0
SEQEND
  0
POLYLINE
  8
0
 10
0
 20
0
 39
0
 70
1
 66
1
  0
VERTEX
  8
0
 10
1657.5
 20
931.519287109375
 42
-1
  0
VERTEX
  8
0
 10
1657.5
 20
952.519287109375
 42
0
  0
VERTEX
  8
0
 10
1706.5
 20
952.519287109375
 42
-1
  0
VERTEX
  8
0
 10
1706.5
 20
931.519287109375
 42
-0
  0
SEQEND
  0
POLYLINE
  8
0
 10
0
 20
0
 39
0
 70
1
 66
1
  0
VERTEX
  8
0
 10
1167
 20
987.019287109375
 42
0
  0
VERTEX
  8
0
 10
967
 20
987.019287109375
 42
0
  0
VERTEX
  8
0
 10
967
 20
897.019287109375
 42
0
  0
VERTEX
  8
0
 10
1167
 20
897.019287109375
 42
0
  0
SEQEND
  0
POLYLINE
  8
0
 10
0
 20
0
 39
0
 70
1
 66
1
  0
VERTEX
  8
0
 10
1027.5
 20
931.519287109375
 42
-1
  0
VERTEX
  8
0
 10
1027.5
 20
952.519287109375
 42
0
  0
VERTEX
  8
0
 10
1076.5
 20
952.519287109375
 42
-1
  0
VERTEX
  8
0
 10
1076.5
 20
931.519287109375
 42
-0
  0
SEQEND
  0
POLYLINE
  8
0
 10
0
 20
0
 39
0
 70
1
 66
1
  0
VERTEX
  8
0
 10
1587
 20
987.019287109375
 42
0
  0
VERTEX
  8
0
 10
1387
 20
987.019287109375
 42
0
  0
VERTEX
  8
0
 10
1387
 20
897.019287109375
 42
0
  0
VERTEX
  8
0
 10
1587
 20
897.019287109375
 42
0
  0
SEQEND
  0
POLYLINE
  8
0
 10
0
 20
0
 39
0
 70
1
 66
1
  0
VERTEX
  8
0
 10
1447.5
 20
931.519287109375
 42
-1
  0
VERTEX
  8
0
 10
1447.5
 20
952.519287109375
 42
0
  0
VERTEX
  8
0
 10
1496.5
 20
952.519287109375
 42
-1
  0
VERTEX
  8
0
 10
1496.5
 20
931.519287109375
 42
-0
  0
SEQEND
  0
POLYLINE
  8
0
 10
0
 20
0
 39
0
 70
1
 66
1
  0
VERTEX
  8
0
 10
2217
 20
977.3515625
 42
0
  0
VERTEX
  8
0
 10
2017
 20
977.3515625
 42
0
  0
VERTEX
  8
0
 10
2017
 20
887.3515625
 42
0
  0
VERTEX
  8
0
 10
2217
 20
887.3515625
 42
0
  0
SEQEND
  0
POLYLINE
  8
0
 10
0
 20
0
 39
0
 70
1
 66
1
  0
VERTEX
  8
0
 10
2077.5
 20
921.8515625
 42
-1
  0
VERTEX
  8
0
 10
2077.5
 20
942.8515625
 42
0
  0
VERTEX
  8
0
 10
2126.5
 20
942.8515625
 42
-1
  0
VERTEX
  8
0
 10
2126.5
 20
921.8515625
 42
-0
  0
SEQEND
  0
POLYLINE
  8
0
 10
0
 20
0
 39
0
 70
1
 66
1
  0
VERTEX
  8
0
 10
2221.941650390625
 20
640
 42
0
  0
VERTEX
  8
0
 10
2221.941650390625
 20
840
 42
0
  0
VERTEX
  8
0
 10
2131.941650390625
 20
840
 42
0
  0
VERTEX
  8
0
 10
2131.941650390625
 20
640
 42
0
  0
SEQEND
  0
POLYLINE
  8
0
 10
0
 20
0
 39
0
 70
1
 66
1
  0
VERTEX
  8
0
 10
2166.441650390625
 20
779.5
 42
-1
  0
VERTEX
  8
0
 10
2187.441650390625
 20
779.5
 42
0
  0
VERTEX
  8
0
 10
2187.441650390625
 20
730.5
 42
-1
  0
VERTEX
  8
0
 10
2166.441650390625
 20
730.5
 42
-0
  0
SEQEND
  0
POLYLINE
  8
0
 10
0
 20
0
 39
0
 70
1
 66
1
  0
VERTEX
  8
0
 10
2451.941650390625
 20
785
 42
0
  0
VERTEX
  8
0
 10
2451.941650390625
 20
985
 42
0
  0
VERTEX
  8
0
 10
2361.941650390625
 20
985
 42
0
  0
VERTEX
  8
0
 10
2361.941650390625
 20
785
 42
0
  0
SEQEND
  0
POLYLINE
  8
0
 10
0
 20
0
 39
0
 70
1
 66
1
  0
VERTEX
  8
0
 10
2396.441650390625
 20
924.5
 42
-1
  0
VERTEX
  8
0
 10
2417.441650390625
 20
924.5
 42
0
  0
VERTEX
  8
0
 10
2417.441650390625
 20
875.5
 42
-1
  0
VERTEX
  8
0
 10
2396.441650390625
 20
875.5
 42
-0
  0
SEQEND
  0
POLYLINE
  8
0
 10
0
 20
0
 39
0
 70
1
 66
1
  0
VERTEX
  8
0
 10
2221.941650390625
 20
430
 42
0
  0
VERTEX
  8
0
 10
2221.941650390625
 20
630
 42
0
  0
VERTEX
  8
0
 10
2131.941650390625
 20
630
 42
0
  0
VERTEX
  8
0
 10
2131.941650390625
 20
430
 42
0
  0
SEQEND
  0
POLYLINE
  8
0
 10
0
 20
0
 39
0
 70
1
 66
1
  0
VERTEX
  8
0
 10
2166.441650390625
 20
569.5
 42
-1
  0
VERTEX
  8
0
 10
2187.441650390625
 20
569.5
 42
0
  0
VERTEX
  8
0
 10
2187.441650390625
 20
520.5
 42
-1
  0
VERTEX
  8
0
 10
2166.441650390625
 20
520.5
 42
-0
  0
SEQEND
  0
POLYLINE
  8
0
 10
0
 20
0
 39
0
 70
1
 66
1
  0
VERTEX
  8
0
 10
1377
 20
987.019287109375
 42
0
  0
VERTEX
  8
0
 10
1177
 20
987.019287109375
 42
0
  0
VERTEX
  8
0
 10
1177
 20
897.019287109375
 42
0
  0
VERTEX
  8
0
 10
1377
 20
897.019287109375
 42
0
  0
SEQEND
  0
POLYLINE
  8
0
 10
0
 20
0
 39
0
 70
1
 66
1
  0
VERTEX
  8
0
 10
1237.5
 20
931.519287109375
 42
-1
  0
VERTEX
  8
0
 10
1237.5
 20
952.519287109375
 42
0
  0
VERTEX
  8
0
 10
1286.5
 20
952.519287109375
 42
-1
  0
VERTEX
  8
0
 10
1286.5
 20
931.519287109375
 42
-0
  0
SEQEND
  0
POLYLINE
  8
0
 10
0
 20
0
 39
0
 70
1
 66
1
  0
VERTEX
  8
0
 10
2206.941650390625
 20
10
 42
0
  0
VERTEX
  8
0
 10
2206.941650390625
 20
210
 42
0
  0
VERTEX
  8
0
 10
2116.941650390625
 20
210
 42
0
  0
VERTEX
  8
0
 10
2116.941650390625
 20
10
 42
0
  0
SEQEND
  0
POLYLINE
  8
0
 10
0
 20
0
 39
0
 70
1
 66
1
  0
VERTEX
  8
0
 10
2151.441650390625
 20
149.5
 42
-1
  0
VERTEX
  8
0
 10
2172.441650390625
 20
149.5
 42
0
  0
VERTEX
  8
0
 10
2172.441650390625
 20
100.5
 42
-1
  0
VERTEX
  8
0
 10
2151.441650390625
 20
100.5
 42
-0
  0
SEQEND
  0
ENDSEC
  0
EOF
