  0
SECTION
  2
ENTITIES
  0
POLYLINE
  8
0
 10
0
 20
0
 39
0
 70
1
 66
1
  0
VERTEX
  8
0
 10
0
 20
0
 42
0
  0
VERTEX
  8
0
 10
2100
 20
0
 42
0
  0
VERTEX
  8
0
 10
2100
 20
1100
 42
0
  0
VERTEX
  8
0
 10
0
 20
1100
 42
0
  0
SEQEND
  0
POLYLINE
  8
0
 10
0
 20
0
 39
0
 70
1
 66
1
  0
VERTEX
  8
0
 10
10.250004768371582
 20
48.939319610595703
 42
0.7145150899887085
  0
VERTEX
  8
0
 10
189.25
 20
110.25
 42
0
  0
VERTEX
  8
0
 10
189.25
 20
360.25
 42
0.7145150899887085
  0
VERTEX
  8
0
 10
10.25
 20
421.5606689453125
 42
0
  0
SEQEND
  0
POLYLINE
  8
0
 10
0
 20
0
 39
0
 70
1
 66
1
  0
VERTEX
  8
0
 10
189.25
 20
881.25067138671875
 42
0.7145150899887085
  0
VERTEX
  8
0
 10
10.25
 20
819.94000244140625
 42
0
  0
VERTEX
  8
0
 10
10.25
 20
569.94000244140625
 42
0.7145150899887085
  0
VERTEX
  8
0
 10
189.25
 20
508.62933349609375
 42
0
  0
SEQEND
  0
POLYLINE
  8
0
 10
0
 20
0
 39
0
 70
1
 66
1
  0
VERTEX
  8
0
 10
199.66999816894531
 20
48.939319610595703
 42
0.7145150899887085
  0
VERTEX
  8
0
 10
378.67001342773437
 20
110.25
 42
0
  0
VERTEX
  8
0
 10
378.67001342773437
 20
360.25
 42
0.7145150899887085
  0
VERTEX
  8
0
 10
199.66999816894531
 20
421.5606689453125
 42
0
  0
SEQEND
  0
POLYLINE
  8
0
 10
0
 20
0
 39
0
 70
1
 66
1
  0
VERTEX
  8
0
 10
378.67001342773437
 20
881.25067138671875
 42
0.7145150899887085
  0
VERTEX
  8
0
 10
199.66999816894531
 20
819.94000244140625
 42
0
  0
VERTEX
  8
0
 10
199.66999816894531
 20
569.94000244140625
 42
0.7145150899887085
  0
VERTEX
  8
0
 10
378.67001342773437
 20
508.62933349609375
 42
0
  0
SEQEND
  0
POLYLINE
  8
0
 10
0
 20
0
 39
0
 70
1
 66
1
  0
VERTEX
  8
0
 10
389.08999633789062
 20
48.939319610595703
 42
0.7145150899887085
  0
VERTEX
  8
0
 10
568.09002685546875
 20
110.25
 42
0
  0
VERTEX
  8
0
 10
568.09002685546875
 20
360.25
 42
0.7145150899887085
  0
VERTEX
  8
0
 10
389.08999633789062
 20
421.5606689453125
 42
0
  0
SEQEND
  0
POLYLINE
  8
0
 10
0
 20
0
 39
0
 70
1
 66
1
  0
VERTEX
  8
0
 10
568.09002685546875
 20
881.25067138671875
 42
0.7145150899887085
  0
VERTEX
  8
0
 10
389.08999633789062
 20
819.94000244140625
 42
0
  0
VERTEX
  8
0
 10
389.08999633789062
 20
569.94000244140625
 42
0.7145150899887085
  0
VERTEX
  8
0
 10
568.09002685546875
 20
508.62933349609375
 42
0
  0
SEQEND
  0
POLYLINE
  8
0
 10
0
 20
0
 39
0
 70
1
 66
1
  0
VERTEX
  8
0
 10
485.69000244140625
 20
979.71002197265625
 42
-0
  0
VERTEX
  8
0
 10
630.69000244140625
 20
834.71002197265625
 42
0
  0
VERTEX
  8
0
 10
740.69000244140625
 20
834.71002197265625
 42
0
  0
VERTEX
  8
0
 10
740.69000244140625
 20
1089.7099609375
 42
0
  0
VERTEX
  8
0
 10
565.69000244140625
 20
1089.7099609375
 42
-0
  0
VERTEX
  8
0
 10
485.69000244140625
 20
1009.7100219726562
 42
0
  0
SEQEND
  0
POLYLINE
  8
0
 10
0
 20
0
 39
0
 70
1
 66
1
  0
VERTEX
  8
0
 10
545.1199951171875
 20
439.58999633789062
 42
-0
  0
VERTEX
  8
0
 10
690.1199951171875
 20
294.58999633789062
 42
0
  0
VERTEX
  8
0
 10
800.1199951171875
 20
294.58999633789062
 42
0
  0
VERTEX
  8
0
 10
800.1199951171875
 20
549.59002685546875
 42
0
  0
VERTEX
  8
0
 10
625.1199951171875
 20
549.59002685546875
 42
-0
  0
VERTEX
  8
0
 10
545.1199951171875
 20
469.58999633789062
 42
0
  0
SEQEND
  0
POLYLINE
  8
0
 10
0
 20
0
 39
0
 70
1
 66
1
  0
VERTEX
  8
0
 10
723.510009765625
 20
265.25
 42
-0
  0
VERTEX
  8
0
 10
578.510009765625
 20
120.25
 42
0
  0
VERTEX
  8
0
 10
578.510009765625
 20
10.25
 42
0
  0
VERTEX
  8
0
 10
833.510009765625
 20
10.25
 42
0
  0
VERTEX
  8
0
 10
833.510009765625
 20
185.25
 42
-0
  0
VERTEX
  8
0
 10
753.510009765625
 20
265.25
 42
0
  0
SEQEND
  0
POLYLINE
  8
0
 10
0
 20
0
 39
0
 70
1
 66
1
  0
VERTEX
  8
0
 10
723.510009765625
 20
814.6099853515625
 42
-0
  0
VERTEX
  8
0
 10
578.510009765625
 20
669.6099853515625
 42
0
  0
VERTEX
  8
0
 10
578.510009765625
 20
559.6099853515625
 42
0
  0
VERTEX
  8
0
 10
833.510009765625
 20
559.6099853515625
 42
0
  0
VERTEX
  8
0
 10
833.510009765625
 20
734.6099853515625
 42
-0
  0
VERTEX
  8
0
 10
753.510009765625
 20
814.6099853515625
 42
0
  0
SEQEND
  0
POLYLINE
  8
0
 10
0
 20
0
 39
0
 70
1
 66
1
  0
VERTEX
  8
0
 10
750.91998291015625
 20
832.08001708984375
 42
-0
  0
VERTEX
  8
0
 10
895.91998291015625
 20
687.08001708984375
 42
0
  0
VERTEX
  8
0
 10
1005.9199829101562
 20
687.08001708984375
 42
0
  0
VERTEX
  8
0
 10
1005.9199829101562
 20
942.08001708984375
 42
0
  0
VERTEX
  8
0
 10
830.91998291015625
 20
942.08001708984375
 42
-0
  0
VERTEX
  8
0
 10
750.91998291015625
 20
862.08001708984375
 42
0
  0
SEQEND
  0
POLYLINE
  8
0
 10
0
 20
0
 39
0
 70
1
 66
1
  0
VERTEX
  8
0
 10
792.08001708984375
 20
241.55999755859375
 42
-0
  0
VERTEX
  8
0
 10
937.08001708984375
 20
96.55999755859375
 42
0
  0
VERTEX
  8
0
 10
1047.0799560546875
 20
96.55999755859375
 42
0
  0
VERTEX
  8
0
 10
1047.0799560546875
 20
351.55999755859375
 42
0
  0
VERTEX
  8
0
 10
872.08001708984375
 20
351.55999755859375
 42
-0
  0
VERTEX
  8
0
 10
792.08001708984375
 20
271.55999755859375
 42
0
  0
SEQEND
  0
POLYLINE
  8
0
 10
0
 20
0
 39
0
 70
1
 66
1
  0
VERTEX
  8
0
 10
835.3499755859375
 20
361.57998657226562
 42
-0
  0
VERTEX
  8
0
 10
940.3499755859375
 20
526.58001708984375
 42
0
  0
VERTEX
  8
0
 10
940.3499755859375
 20
546.58001708984375
 42
0
  0
VERTEX
  8
0
 10
820.3499755859375
 20
546.58001708984375
 42
0
  0
VERTEX
  8
0
 10
810.3499755859375
 20
536.58001708984375
 42
0
  0
VERTEX
  8
0
 10
810.3499755859375
 20
361.57998657226562
 42
0
  0
SEQEND
  0
POLYLINE
  8
0
 10
0
 20
0
 39
0
 70
1
 66
1
  0
VERTEX
  8
0
 10
965.13348388671875
 20
546.58001708984375
 42
-0
  0
VERTEX
  8
0
 10
860.13348388671875
 20
381.57998657226562
 42
0
  0
VERTEX
  8
0
 10
860.13348388671875
 20
361.57998657226562
 42
0
  0
VERTEX
  8
0
 10
980.13348388671875
 20
361.57998657226562
 42
0
  0
VERTEX
  8
0
 10
990.13348388671875
 20
371.57998657226563
 42
0
  0
VERTEX
  8
0
 10
990.13348388671875
 20
546.58001708984375
 42
0
  0
SEQEND
  0
POLYLINE
  8
0
 10
0
 20
0
 39
0
 70
1
 66
1
  0
VERTEX
  8
0
 10
1025.4000244140625
 20
361.57998657226562
 42
-0
  0
VERTEX
  8
0
 10
1130.4000244140625
 20
526.58001708984375
 42
0
  0
VERTEX
  8
0
 10
1130.4000244140625
 20
546.58001708984375
 42
0
  0
VERTEX
  8
0
 10
1010.4000244140625
 20
546.58001708984375
 42
0
  0
VERTEX
  8
0
 10
1000.4000244140625
 20
536.58001708984375
 42
0
  0
VERTEX
  8
0
 10
1000.4000244140625
 20
361.57998657226562
 42
0
  0
SEQEND
  0
POLYLINE
  8
0
 10
0
 20
0
 39
0
 70
1
 66
1
  0
VERTEX
  8
0
 10
1155.1834716796875
 20
546.58001708984375
 42
-0
  0
VERTEX
  8
0
 10
1050.1834716796875
 20
381.57998657226562
 42
0
  0
VERTEX
  8
0
 10
1050.1834716796875
 20
361.57998657226562
 42
0
  0
VERTEX
  8
0
 10
1170.1834716796875
 20
361.57998657226562
 42
0
  0
VERTEX
  8
0
 10
1180.1834716796875
 20
371.57998657226563
 42
0
  0
VERTEX
  8
0
 10
1180.1834716796875
 20
546.58001708984375
 42
0
  0
SEQEND
  0
POLYLINE
  8
0
 10
0
 20
0
 39
0
 70
1
 66
1
  0
VERTEX
  8
0
 10
1041.1500244140625
 20
556.66998291015625
 42
-0
  0
VERTEX
  8
0
 10
1146.1500244140625
 20
721.66998291015625
 42
0
  0
VERTEX
  8
0
 10
1146.1500244140625
 20
741.66998291015625
 42
0
  0
VERTEX
  8
0
 10
1026.1500244140625
 20
741.66998291015625
 42
0
  0
VERTEX
  8
0
 10
1016.1500244140625
 20
731.66998291015625
 42
0
  0
VERTEX
  8
0
 10
1016.1500244140625
 20
556.66998291015625
 42
0
  0
SEQEND
  0
POLYLINE
  8
0
 10
0
 20
0
 39
0
 70
1
 66
1
  0
VERTEX
  8
0
 10
1170.9334716796875
 20
741.66998291015625
 42
-0
  0
VERTEX
  8
0
 10
1065.9334716796875
 20
576.66998291015625
 42
0
  0
VERTEX
  8
0
 10
1065.9334716796875
 20
556.66998291015625
 42
0
  0
VERTEX
  8
0
 10
1185.9334716796875
 20
556.66998291015625
 42
0
  0
VERTEX
  8
0
 10
1195.9334716796875
 20
566.66998291015625
 42
0
  0
VERTEX
  8
0
 10
1195.9334716796875
 20
741.66998291015625
 42
0
  0
SEQEND
  0
POLYLINE
  8
0
 10
0
 20
0
 39
0
 70
1
 66
1
  0
VERTEX
  8
0
 10
1041.1500244140625
 20
751.760009765625
 42
-0
  0
VERTEX
  8
0
 10
1146.1500244140625
 20
916.760009765625
 42
0
  0
VERTEX
  8
0
 10
1146.1500244140625
 20
936.760009765625
 42
0
  0
VERTEX
  8
0
 10
1026.1500244140625
 20
936.760009765625
 42
0
  0
VERTEX
  8
0
 10
1016.1500244140625
 20
926.760009765625
 42
0
  0
VERTEX
  8
0
 10
1016.1500244140625
 20
751.760009765625
 42
0
  0
SEQEND
  0
POLYLINE
  8
0
 10
0
 20
0
 39
0
 70
1
 66
1
  0
VERTEX
  8
0
 10
1170.9334716796875
 20
936.760009765625
 42
-0
  0
VERTEX
  8
0
 10
1065.9334716796875
 20
771.760009765625
 42
0
  0
VERTEX
  8
0
 10
1065.9334716796875
 20
751.760009765625
 42
0
  0
VERTEX
  8
0
 10
1185.9334716796875
 20
751.760009765625
 42
0
  0
VERTEX
  8
0
 10
1195.9334716796875
 20
761.760009765625
 42
0
  0
VERTEX
  8
0
 10
1195.9334716796875
 20
936.760009765625
 42
0
  0
SEQEND
  0
POLYLINE
  8
0
 10
0
 20
0
 39
0
 70
1
 66
1
  0
VERTEX
  8
0
 10
1082.31005859375
 20
10.25
 42
-0
  0
VERTEX
  8
0
 10
1187.31005859375
 20
175.25
 42
0
  0
VERTEX
  8
0
 10
1187.31005859375
 20
195.25
 42
0
  0
VERTEX
  8
0
 10
1067.31005859375
 20
195.25
 42
0
  0
VERTEX
  8
0
 10
1057.31005859375
 20
185.25
 42
0
  0
VERTEX
  8
0
 10
1057.31005859375
 20
10.25
 42
0
  0
SEQEND
  0
POLYLINE
  8
0
 10
0
 20
0
 39
0
 70
1
 66
1
  0
VERTEX
  8
0
 10
1212.093505859375
 20
195.25
 42
-0
  0
VERTEX
  8
0
 10
1107.093505859375
 20
30.25
 42
0
  0
VERTEX
  8
0
 10
1107.093505859375
 20
10.25
 42
0
  0
VERTEX
  8
0
 10
1227.093505859375
 20
10.25
 42
0
  0
VERTEX
  8
0
 10
1237.093505859375
 20
20.25
 42
0
  0
VERTEX
  8
0
 10
1237.093505859375
 20
195.25
 42
0
  0
SEQEND
  0
POLYLINE
  8
0
 10
0
 20
0
 39
0
 70
1
 66
1
  0
VERTEX
  8
0
 10
1215.449951171875
 20
205.33999633789062
 42
-0
  0
VERTEX
  8
0
 10
1320.449951171875
 20
370.33999633789062
 42
0
  0
VERTEX
  8
0
 10
1320.449951171875
 20
390.33999633789062
 42
0
  0
VERTEX
  8
0
 10
1200.449951171875
 20
390.33999633789062
 42
0
  0
VERTEX
  8
0
 10
1190.449951171875
 20
380.33999633789062
 42
0
  0
VERTEX
  8
0
 10
1190.449951171875
 20
205.33999633789062
 42
0
  0
SEQEND
  0
POLYLINE
  8
0
 10
0
 20
0
 39
0
 70
1
 66
1
  0
VERTEX
  8
0
 10
1345.2335205078125
 20
390.33999633789062
 42
-0
  0
VERTEX
  8
0
 10
1240.2335205078125
 20
225.33999633789062
 42
0
  0
VERTEX
  8
0
 10
1240.2335205078125
 20
205.33999633789062
 42
0
  0
VERTEX
  8
0
 10
1360.2335205078125
 20
205.33999633789062
 42
0
  0
VERTEX
  8
0
 10
1370.2335205078125
 20
215.33999633789062
 42
0
  0
VERTEX
  8
0
 10
1370.2335205078125
 20
390.33999633789062
 42
0
  0
SEQEND
  0
POLYLINE
  8
0
 10
0
 20
0
 39
0
 70
1
 66
1
  0
VERTEX
  8
0
 10
1231.199951171875
 20
400.42999267578125
 42
-0
  0
VERTEX
  8
0
 10
1336.199951171875
 20
565.42999267578125
 42
0
  0
VERTEX
  8
0
 10
1336.199951171875
 20
585.42999267578125
 42
0
  0
VERTEX
  8
0
 10
1216.199951171875
 20
585.42999267578125
 42
0
  0
VERTEX
  8
0
 10
1206.199951171875
 20
575.42999267578125
 42
0
  0
VERTEX
  8
0
 10
1206.199951171875
 20
400.42999267578125
 42
0
  0
SEQEND
  0
POLYLINE
  8
0
 10
0
 20
0
 39
0
 70
1
 66
1
  0
VERTEX
  8
0
 10
1360.9835205078125
 20
585.42999267578125
 42
-0
  0
VERTEX
  8
0
 10
1255.9835205078125
 20
420.42999267578125
 42
0
  0
VERTEX
  8
0
 10
1255.9835205078125
 20
400.42999267578125
 42
0
  0
VERTEX
  8
0
 10
1375.9835205078125
 20
400.42999267578125
 42
0
  0
VERTEX
  8
0
 10
1385.9835205078125
 20
410.42999267578125
 42
0
  0
VERTEX
  8
0
 10
1385.9835205078125
 20
585.42999267578125
 42
0
  0
SEQEND
  0
POLYLINE
  8
0
 10
0
 20
0
 39
0
 70
1
 66
1
  0
VERTEX
  8
0
 10
1231.199951171875
 20
595.52001953125
 42
-0
  0
VERTEX
  8
0
 10
1336.199951171875
 20
760.52001953125
 42
0
  0
VERTEX
  8
0
 10
1336.199951171875
 20
780.52001953125
 42
0
  0
VERTEX
  8
0
 10
1216.199951171875
 20
780.52001953125
 42
0
  0
VERTEX
  8
0
 10
1206.199951171875
 20
770.52001953125
 42
0
  0
VERTEX
  8
0
 10
1206.199951171875
 20
595.52001953125
 42
0
  0
SEQEND
  0
POLYLINE
  8
0
 10
0
 20
0
 39
0
 70
1
 66
1
  0
VERTEX
  8
0
 10
1360.9835205078125
 20
780.52001953125
 42
-0
  0
VERTEX
  8
0
 10
1255.9835205078125
 20
615.52001953125
 42
0
  0
VERTEX
  8
0
 10
1255.9835205078125
 20
595.52001953125
 42
0
  0
VERTEX
  8
0
 10
1375.9835205078125
 20
595.52001953125
 42
0
  0
VERTEX
  8
0
 10
1385.9835205078125
 20
605.52001953125
 42
0
  0
VERTEX
  8
0
 10
1385.9835205078125
 20
780.52001953125
 42
0
  0
SEQEND
  0
POLYLINE
  8
0
 10
0
 20
0
 39
0
 70
1
 66
1
  0
VERTEX
  8
0
 10
1231.199951171875
 20
790.6099853515625
 42
-0
  0
VERTEX
  8
0
 10
1336.199951171875
 20
955.6099853515625
 42
0
  0
VERTEX
  8
0
 10
1336.199951171875
 20
975.6099853515625
 42
0
  0
VERTEX
  8
0
 10
1216.199951171875
 20
975.6099853515625
 42
0
  0
VERTEX
  8
0
 10
1206.199951171875
 20
965.6099853515625
 42
0
  0
VERTEX
  8
0
 10
1206.199951171875
 20
790.6099853515625
 42
0
  0
SEQEND
  0
POLYLINE
  8
0
 10
0
 20
0
 39
0
 70
1
 66
1
  0
VERTEX
  8
0
 10
1360.9835205078125
 20
975.6099853515625
 42
-0
  0
VERTEX
  8
0
 10
1255.9835205078125
 20
810.6099853515625
 42
0
  0
VERTEX
  8
0
 10
1255.9835205078125
 20
790.6099853515625
 42
0
  0
VERTEX
  8
0
 10
1375.9835205078125
 20
790.6099853515625
 42
0
  0
VERTEX
  8
0
 10
1385.9835205078125
 20
800.6099853515625
 42
0
  0
VERTEX
  8
0
 10
1385.9835205078125
 20
975.6099853515625
 42
0
  0
SEQEND
  0
POLYLINE
  8
0
 10
0
 20
0
 39
0
 70
1
 66
1
  0
VERTEX
  8
0
 10
1272.3599853515625
 20
10.25
 42
-0
  0
VERTEX
  8
0
 10
1377.3599853515625
 20
175.25
 42
0
  0
VERTEX
  8
0
 10
1377.3599853515625
 20
195.25
 42
0
  0
VERTEX
  8
0
 10
1257.3599853515625
 20
195.25
 42
0
  0
VERTEX
  8
0
 10
1247.3599853515625
 20
185.25
 42
0
  0
VERTEX
  8
0
 10
1247.3599853515625
 20
10.25
 42
0
  0
SEQEND
  0
POLYLINE
  8
0
 10
0
 20
0
 39
0
 70
1
 66
1
  0
VERTEX
  8
0
 10
1402.1435546875
 20
195.25
 42
-0
  0
VERTEX
  8
0
 10
1297.1435546875
 20
30.25
 42
0
  0
VERTEX
  8
0
 10
1297.1435546875
 20
10.25
 42
0
  0
VERTEX
  8
0
 10
1417.1435546875
 20
10.25
 42
0
  0
VERTEX
  8
0
 10
1427.1435546875
 20
20.25
 42
0
  0
VERTEX
  8
0
 10
1427.1435546875
 20
195.25
 42
0
  0
SEQEND
  0
POLYLINE
  8
0
 10
0
 20
0
 39
0
 70
1
 66
1
  0
VERTEX
  8
0
 10
1405.5
 20
205.33999633789062
 42
-0
  0
VERTEX
  8
0
 10
1510.5
 20
370.33999633789062
 42
0
  0
VERTEX
  8
0
 10
1510.5
 20
390.33999633789062
 42
0
  0
VERTEX
  8
0
 10
1390.5
 20
390.33999633789062
 42
0
  0
VERTEX
  8
0
 10
1380.5
 20
380.33999633789062
 42
0
  0
VERTEX
  8
0
 10
1380.5
 20
205.33999633789062
 42
0
  0
SEQEND
  0
POLYLINE
  8
0
 10
0
 20
0
 39
0
 70
1
 66
1
  0
VERTEX
  8
0
 10
1535.283447265625
 20
390.33999633789062
 42
-0
  0
VERTEX
  8
0
 10
1430.283447265625
 20
225.33999633789062
 42
0
  0
VERTEX
  8
0
 10
1430.283447265625
 20
205.33999633789062
 42
0
  0
VERTEX
  8
0
 10
1550.283447265625
 20
205.33999633789062
 42
0
  0
VERTEX
  8
0
 10
1560.283447265625
 20
215.33999633789062
 42
0
  0
VERTEX
  8
0
 10
1560.283447265625
 20
390.33999633789062
 42
0
  0
SEQEND
  0
POLYLINE
  8
0
 10
0
 20
0
 39
0
 70
1
 66
1
  0
VERTEX
  8
0
 10
1421.25
 20
400.42999267578125
 42
-0
  0
VERTEX
  8
0
 10
1526.25
 20
565.42999267578125
 42
0
  0
VERTEX
  8
0
 10
1526.25
 20
585.42999267578125
 42
0
  0
VERTEX
  8
0
 10
1406.25
 20
585.42999267578125
 42
0
  0
VERTEX
  8
0
 10
1396.25
 20
575.42999267578125
 42
0
  0
VERTEX
  8
0
 10
1396.25
 20
400.42999267578125
 42
0
  0
SEQEND
  0
POLYLINE
  8
0
 10
0
 20
0
 39
0
 70
1
 66
1
  0
VERTEX
  8
0
 10
1551.033447265625
 20
585.42999267578125
 42
-0
  0
VERTEX
  8
0
 10
1446.033447265625
 20
420.42999267578125
 42
0
  0
VERTEX
  8
0
 10
1446.033447265625
 20
400.42999267578125
 42
0
  0
VERTEX
  8
0
 10
1566.033447265625
 20
400.42999267578125
 42
0
  0
VERTEX
  8
0
 10
1576.033447265625
 20
410.42999267578125
 42
0
  0
VERTEX
  8
0
 10
1576.033447265625
 20
585.42999267578125
 42
0
  0
SEQEND
  0
POLYLINE
  8
0
 10
0
 20
0
 39
0
 70
1
 66
1
  0
VERTEX
  8
0
 10
1421.25
 20
595.52001953125
 42
-0
  0
VERTEX
  8
0
 10
1526.25
 20
760.52001953125
 42
0
  0
VERTEX
  8
0
 10
1526.25
 20
780.52001953125
 42
0
  0
VERTEX
  8
0
 10
1406.25
 20
780.52001953125
 42
0
  0
VERTEX
  8
0
 10
1396.25
 20
770.52001953125
 42
0
  0
VERTEX
  8
0
 10
1396.25
 20
595.52001953125
 42
0
  0
SEQEND
  0
POLYLINE
  8
0
 10
0
 20
0
 39
0
 70
1
 66
1
  0
VERTEX
  8
0
 10
1551.033447265625
 20
780.52001953125
 42
-0
  0
VERTEX
  8
0
 10
1446.033447265625
 20
615.52001953125
 42
0
  0
VERTEX
  8
0
 10
1446.033447265625
 20
595.52001953125
 42
0
  0
VERTEX
  8
0
 10
1566.033447265625
 20
595.52001953125
 42
0
  0
VERTEX
  8
0
 10
1576.033447265625
 20
605.52001953125
 42
0
  0
VERTEX
  8
0
 10
1576.033447265625
 20
780.52001953125
 42
0
  0
SEQEND
  0
POLYLINE
  8
0
 10
0
 20
0
 39
0
 70
1
 66
1
  0
VERTEX
  8
0
 10
1421.25
 20
790.6099853515625
 42
-0
  0
VERTEX
  8
0
 10
1526.25
 20
955.6099853515625
 42
0
  0
VERTEX
  8
0
 10
1526.25
 20
975.6099853515625
 42
0
  0
VERTEX
  8
0
 10
1406.25
 20
975.6099853515625
 42
0
  0
VERTEX
  8
0
 10
1396.25
 20
965.6099853515625
 42
0
  0
VERTEX
  8
0
 10
1396.25
 20
790.6099853515625
 42
0
  0
SEQEND
  0
POLYLINE
  8
0
 10
0
 20
0
 39
0
 70
1
 66
1
  0
VERTEX
  8
0
 10
1551.033447265625
 20
975.6099853515625
 42
-0
  0
VERTEX
  8
0
 10
1446.033447265625
 20
810.6099853515625
 42
0
  0
VERTEX
  8
0
 10
1446.033447265625
 20
790.6099853515625
 42
0
  0
VERTEX
  8
0
 10
1566.033447265625
 20
790.6099853515625
 42
0
  0
VERTEX
  8
0
 10
1576.033447265625
 20
800.6099853515625
 42
0
  0
VERTEX
  8
0
 10
1576.033447265625
 20
975.6099853515625
 42
0
  0
SEQEND
  0
POLYLINE
  8
0
 10
0
 20
0
 39
0
 70
1
 66
1
  0
VERTEX
  8
0
 10
1462.4100341796875
 20
10.25
 42
-0
  0
VERTEX
  8
0
 10
1567.4100341796875
 20
175.25
 42
0
  0
VERTEX
  8
0
 10
1567.4100341796875
 20
195.25
 42
0
  0
VERTEX
  8
0
 10
1447.4100341796875
 20
195.25
 42
0
  0
VERTEX
  8
0
 10
1437.4100341796875
 20
185.25
 42
0
  0
VERTEX
  8
0
 10
1437.4100341796875
 20
10.25
 42
0
  0
SEQEND
  0
POLYLINE
  8
0
 10
0
 20
0
 39
0
 70
1
 66
1
  0
VERTEX
  8
0
 10
1592.1934814453125
 20
195.25
 42
-0
  0
VERTEX
  8
0
 10
1487.1934814453125
 20
30.25
 42
0
  0
VERTEX
  8
0
 10
1487.1934814453125
 20
10.25
 42
0
  0
VERTEX
  8
0
 10
1607.1934814453125
 20
10.25
 42
0
  0
VERTEX
  8
0
 10
1617.1934814453125
 20
20.25
 42
0
  0
VERTEX
  8
0
 10
1617.1934814453125
 20
195.25
 42
0
  0
SEQEND
  0
POLYLINE
  8
0
 10
0
 20
0
 39
0
 70
1
 66
1
  0
VERTEX
  8
0
 10
14.317427635192871
 20
1035.455078125
 42
-0
  0
VERTEX
  8
0
 10
10.25
 20
1024.7193603515625
 42
-0
  0
VERTEX
  8
0
 10
107.94617462158203
 20
937.70233154296875
 42
-0
  0
VERTEX
  8
0
 10
133.68705749511719
 20
927.95001220703125
 42
-0
  0
VERTEX
  8
0
 10
264.516357421875
 20
928.38641357421875
 42
-0
  0
VERTEX
  8
0
 10
268.58380126953125
 20
939.1221923828125
 42
-0
  0
VERTEX
  8
0
 10
170.88761901855469
 20
1026.13916015625
 42
-0
  0
VERTEX
  8
0
 10
145.14674377441406
 20
1035.8914794921875
 42
-0
  0
SEQEND
  0
POLYLINE
  8
0
 10
0
 20
0
 39
0
 70
1
 66
1
  0
VERTEX
  8
0
 10
132.12742614746094
 20
1089.215087890625
 42
-0
  0
VERTEX
  8
0
 10
128.05999755859375
 20
1078.4793701171875
 42
-0
  0
VERTEX
  8
0
 10
225.75617980957031
 20
991.46234130859375
 42
-0
  0
VERTEX
  8
0
 10
251.49705505371094
 20
981.71002197265625
 42
-0
  0
VERTEX
  8
0
 10
382.32635498046875
 20
982.14642333984375
 42
-0
  0
VERTEX
  8
0
 10
386.393798828125
 20
992.8822021484375
 42
-0
  0
VERTEX
  8
0
 10
288.69760131835938
 20
1079.899169921875
 42
-0
  0
VERTEX
  8
0
 10
262.95672607421875
 20
1089.6514892578125
 42
-0
  0
SEQEND
  0
POLYLINE
  8
0
 10
0
 20
0
 39
0
 70
1
 66
1
  0
VERTEX
  8
0
 10
754.9874267578125
 20
1059.6051025390625
 42
-0
  0
VERTEX
  8
0
 10
750.91998291015625
 20
1048.869384765625
 42
-0
  0
VERTEX
  8
0
 10
848.61614990234375
 20
961.85235595703125
 42
-0
  0
VERTEX
  8
0
 10
874.3570556640625
 20
952.0999755859375
 42
-0
  0
VERTEX
  8
0
 10
1005.1863403320312
 20
952.53643798828125
 42
-0
  0
VERTEX
  8
0
 10
1009.2537841796875
 20
963.272216796875
 42
-0
  0
VERTEX
  8
0
 10
911.5576171875
 20
1050.2891845703125
 42
-0
  0
VERTEX
  8
0
 10
885.81671142578125
 20
1060.04150390625
 42
-0
  0
SEQEND
  0
POLYLINE
  8
0
 10
0
 20
0
 39
0
 70
1
 66
1
  0
VERTEX
  8
0
 10
899.887451171875
 20
1089.215087890625
 42
-0
  0
VERTEX
  8
0
 10
895.82000732421875
 20
1078.4793701171875
 42
-0
  0
VERTEX
  8
0
 10
993.51617431640625
 20
991.46234130859375
 42
-0
  0
VERTEX
  8
0
 10
1019.257080078125
 20
981.71002197265625
 42
-0
  0
VERTEX
  8
0
 10
1150.0863037109375
 20
982.14642333984375
 42
-0
  0
VERTEX
  8
0
 10
1154.15380859375
 20
992.8822021484375
 42
-0
  0
VERTEX
  8
0
 10
1056.4576416015625
 20
1079.899169921875
 42
-0
  0
VERTEX
  8
0
 10
1030.716796875
 20
1089.6514892578125
 42
-0
  0
SEQEND
  0
POLYLINE
  8
0
 10
0
 20
0
 39
0
 70
1
 66
1
  0
VERTEX
  8
0
 10
1570.9864501953125
 20
205.20742797851563
 42
-0
  0
VERTEX
  8
0
 10
1581.72216796875
 20
201.13999938964844
 42
-0
  0
VERTEX
  8
0
 10
1668.7391357421875
 20
298.836181640625
 42
-0
  0
VERTEX
  8
0
 10
1678.4915771484375
 20
324.57705688476562
 42
-0
  0
VERTEX
  8
0
 10
1678.05517578125
 20
455.4063720703125
 42
-0
  0
VERTEX
  8
0
 10
1667.3193359375
 20
459.47378540039062
 42
-0
  0
VERTEX
  8
0
 10
1580.3023681640625
 20
361.77761840820312
 42
-0
  0
VERTEX
  8
0
 10
1570.550048828125
 20
336.0367431640625
 42
-0
  0
SEQEND
  0
POLYLINE
  8
0
 10
0
 20
0
 39
0
 70
1
 66
1
  0
VERTEX
  8
0
 10
1586.7364501953125
 20
400.92742919921875
 42
-0
  0
VERTEX
  8
0
 10
1597.47216796875
 20
396.8599853515625
 42
-0
  0
VERTEX
  8
0
 10
1684.4891357421875
 20
494.55618286132812
 42
-0
  0
VERTEX
  8
0
 10
1694.2415771484375
 20
520.29705810546875
 42
-0
  0
VERTEX
  8
0
 10
1693.80517578125
 20
651.1263427734375
 42
-0
  0
VERTEX
  8
0
 10
1683.0693359375
 20
655.19378662109375
 42
-0
  0
VERTEX
  8
0
 10
1596.0523681640625
 20
557.49761962890625
 42
-0
  0
VERTEX
  8
0
 10
1586.300048828125
 20
531.7567138671875
 42
-0
  0
SEQEND
  0
POLYLINE
  8
0
 10
0
 20
0
 39
0
 70
1
 66
1
  0
VERTEX
  8
0
 10
1586.7364501953125
 20
579.0074462890625
 42
-0
  0
VERTEX
  8
0
 10
1597.47216796875
 20
574.94000244140625
 42
-0
  0
VERTEX
  8
0
 10
1684.4891357421875
 20
672.63616943359375
 42
-0
  0
VERTEX
  8
0
 10
1694.2415771484375
 20
698.3770751953125
 42
-0
  0
VERTEX
  8
0
 10
1693.80517578125
 20
829.20635986328125
 42
-0
  0
VERTEX
  8
0
 10
1683.0693359375
 20
833.2738037109375
 42
-0
  0
VERTEX
  8
0
 10
1596.0523681640625
 20
735.57763671875
 42
-0
  0
VERTEX
  8
0
 10
1586.300048828125
 20
709.83673095703125
 42
-0
  0
SEQEND
  0
POLYLINE
  8
0
 10
0
 20
0
 39
0
 70
1
 66
1
  0
VERTEX
  8
0
 10
1586.7364501953125
 20
757.08740234375
 42
-0
  0
VERTEX
  8
0
 10
1597.47216796875
 20
753.02001953125
 42
-0
  0
VERTEX
  8
0
 10
1684.4891357421875
 20
850.7161865234375
 42
-0
  0
VERTEX
  8
0
 10
1694.2415771484375
 20
876.45703125
 42
-0
  0
VERTEX
  8
0
 10
1693.80517578125
 20
1007.286376953125
 42
-0
  0
VERTEX
  8
0
 10
1683.0693359375
 20
1011.353759765625
 42
-0
  0
VERTEX
  8
0
 10
1596.0523681640625
 20
913.6575927734375
 42
-0
  0
VERTEX
  8
0
 10
1586.300048828125
 20
887.916748046875
 42
-0
  0
SEQEND
  0
POLYLINE
  8
0
 10
0
 20
0
 39
0
 70
1
 66
1
  0
VERTEX
  8
0
 10
1627.8963623046875
 20
14.317427635192871
 42
-0
  0
VERTEX
  8
0
 10
1638.6322021484375
 20
10.25
 42
-0
  0
VERTEX
  8
0
 10
1725.649169921875
 20
107.94617462158203
 42
-0
  0
VERTEX
  8
0
 10
1735.4014892578125
 20
133.68705749511719
 42
-0
  0
VERTEX
  8
0
 10
1734.965087890625
 20
264.516357421875
 42
-0
  0
VERTEX
  8
0
 10
1724.2293701171875
 20
268.58380126953125
 42
-0
  0
VERTEX
  8
0
 10
1637.21240234375
 20
170.88761901855469
 42
-0
  0
VERTEX
  8
0
 10
1627.4599609375
 20
145.14674377441406
 42
-0
  0
SEQEND
  0
POLYLINE
  8
0
 10
0
 20
0
 39
0
 70
1
 66
1
  0
VERTEX
  8
0
 10
1689.2164306640625
 20
261.06741333007812
 42
-0
  0
VERTEX
  8
0
 10
1699.9521484375
 20
257
 42
-0
  0
VERTEX
  8
0
 10
1786.96923828125
 20
354.6961669921875
 42
-0
  0
VERTEX
  8
0
 10
1796.7215576171875
 20
380.43704223632812
 42
-0
  0
VERTEX
  8
0
 10
1796.28515625
 20
511.266357421875
 42
-0
  0
VERTEX
  8
0
 10
1785.54931640625
 20
515.33380126953125
 42
-0
  0
VERTEX
  8
0
 10
1698.5323486328125
 20
417.63760375976562
 42
-0
  0
VERTEX
  8
0
 10
1688.780029296875
 20
391.896728515625
 42
-0
  0
SEQEND
  0
POLYLINE
  8
0
 10
0
 20
0
 39
0
 70
1
 66
1
  0
VERTEX
  8
0
 10
1704.7564697265625
 20
554.64739990234375
 42
-0
  0
VERTEX
  8
0
 10
1715.4921875
 20
550.58001708984375
 42
-0
  0
VERTEX
  8
0
 10
1802.5091552734375
 20
648.27618408203125
 42
-0
  0
VERTEX
  8
0
 10
1812.2615966796875
 20
674.01702880859375
 42
-0
  0
VERTEX
  8
0
 10
1811.8250732421875
 20
804.84637451171875
 42
-0
  0
VERTEX
  8
0
 10
1801.08935546875
 20
808.913818359375
 42
-0
  0
VERTEX
  8
0
 10
1714.0723876953125
 20
711.21759033203125
 42
-0
  0
VERTEX
  8
0
 10
1704.3199462890625
 20
685.47674560546875
 42
-0
  0
SEQEND
  0
POLYLINE
  8
0
 10
0
 20
0
 39
0
 70
1
 66
1
  0
VERTEX
  8
0
 10
1704.7564697265625
 20
732.7274169921875
 42
-0
  0
VERTEX
  8
0
 10
1715.4921875
 20
728.65997314453125
 42
-0
  0
VERTEX
  8
0
 10
1802.5091552734375
 20
826.356201171875
 42
-0
  0
VERTEX
  8
0
 10
1812.2615966796875
 20
852.0970458984375
 42
-0
  0
VERTEX
  8
0
 10
1811.8250732421875
 20
982.9263916015625
 42
-0
  0
VERTEX
  8
0
 10
1801.08935546875
 20
986.9937744140625
 42
-0
  0
VERTEX
  8
0
 10
1714.0723876953125
 20
889.297607421875
 42
-0
  0
VERTEX
  8
0
 10
1704.3199462890625
 20
863.5567626953125
 42
-0
  0
SEQEND
  0
POLYLINE
  8
0
 10
0
 20
0
 39
0
 70
1
 66
1
  0
VERTEX
  8
0
 10
1746.12646484375
 20
14.317427635192871
 42
-0
  0
VERTEX
  8
0
 10
1756.8621826171875
 20
10.25
 42
-0
  0
VERTEX
  8
0
 10
1843.879150390625
 20
107.94617462158203
 42
-0
  0
VERTEX
  8
0
 10
1853.631591796875
 20
133.68705749511719
 42
-0
  0
VERTEX
  8
0
 10
1853.195068359375
 20
264.516357421875
 42
-0
  0
VERTEX
  8
0
 10
1842.4593505859375
 20
268.58380126953125
 42
-0
  0
VERTEX
  8
0
 10
1755.4423828125
 20
170.88761901855469
 42
-0
  0
VERTEX
  8
0
 10
1745.68994140625
 20
145.14674377441406
 42
-0
  0
SEQEND
  0
POLYLINE
  8
0
 10
0
 20
0
 39
0
 70
1
 66
1
  0
VERTEX
  8
0
 10
1807.0263671875
 20
477.78741455078125
 42
-0
  0
VERTEX
  8
0
 10
1817.76220703125
 20
473.72000122070312
 42
-0
  0
VERTEX
  8
0
 10
1904.7791748046875
 20
571.41619873046875
 42
-0
  0
VERTEX
  8
0
 10
1914.531494140625
 20
597.15704345703125
 42
-0
  0
VERTEX
  8
0
 10
1914.0950927734375
 20
727.98638916015625
 42
-0
  0
VERTEX
  8
0
 10
1903.359375
 20
732.05377197265625
 42
-0
  0
VERTEX
  8
0
 10
1816.34228515625
 20
634.35760498046875
 42
-0
  0
VERTEX
  8
0
 10
1806.5899658203125
 20
608.61676025390625
 42
-0
  0
SEQEND
  0
POLYLINE
  8
0
 10
0
 20
0
 39
0
 70
1
 66
1
  0
VERTEX
  8
0
 10
1807.4464111328125
 20
261.06741333007812
 42
-0
  0
VERTEX
  8
0
 10
1818.1822509765625
 20
257
 42
-0
  0
VERTEX
  8
0
 10
1905.19921875
 20
354.6961669921875
 42
-0
  0
VERTEX
  8
0
 10
1914.9515380859375
 20
380.43704223632812
 42
-0
  0
VERTEX
  8
0
 10
1914.51513671875
 20
511.266357421875
 42
-0
  0
VERTEX
  8
0
 10
1903.779296875
 20
515.33380126953125
 42
-0
  0
VERTEX
  8
0
 10
1816.7623291015625
 20
417.63760375976562
 42
-0
  0
VERTEX
  8
0
 10
1807.010009765625
 20
391.896728515625
 42
-0
  0
SEQEND
  0
POLYLINE
  8
0
 10
0
 20
0
 39
0
 70
1
 66
1
  0
VERTEX
  8
0
 10
1822.7763671875
 20
708.367431640625
 42
-0
  0
VERTEX
  8
0
 10
1833.51220703125
 20
704.29998779296875
 42
-0
  0
VERTEX
  8
0
 10
1920.5291748046875
 20
801.99615478515625
 42
-0
  0
VERTEX
  8
0
 10
1930.281494140625
 20
827.737060546875
 42
-0
  0
VERTEX
  8
0
 10
1929.8450927734375
 20
958.56634521484375
 42
-0
  0
VERTEX
  8
0
 10
1919.109375
 20
962.6337890625
 42
-0
  0
VERTEX
  8
0
 10
1832.09228515625
 20
864.9376220703125
 42
-0
  0
VERTEX
  8
0
 10
1822.3399658203125
 20
839.19671630859375
 42
-0
  0
SEQEND
  0
POLYLINE
  8
0
 10
0
 20
0
 39
0
 70
1
 66
1
  0
VERTEX
  8
0
 10
1864.3564453125
 20
14.317427635192871
 42
-0
  0
VERTEX
  8
0
 10
1875.0921630859375
 20
10.25
 42
-0
  0
VERTEX
  8
0
 10
1962.1092529296875
 20
107.94617462158203
 42
-0
  0
VERTEX
  8
0
 10
1971.861572265625
 20
133.68705749511719
 42
-0
  0
VERTEX
  8
0
 10
1971.4251708984375
 20
264.516357421875
 42
-0
  0
VERTEX
  8
0
 10
1960.6893310546875
 20
268.58380126953125
 42
-0
  0
VERTEX
  8
0
 10
1873.67236328125
 20
170.88761901855469
 42
-0
  0
VERTEX
  8
0
 10
1863.9200439453125
 20
145.14674377441406
 42
-0
  0
SEQEND
  0
POLYLINE
  8
0
 10
0
 20
0
 39
0
 70
1
 66
1
  0
VERTEX
  8
0
 10
1724.557373046875
 20
1089.215087890625
 42
-0
  0
VERTEX
  8
0
 10
1720.489990234375
 20
1078.4793701171875
 42
-0
  0
VERTEX
  8
0
 10
1818.1861572265625
 20
991.46234130859375
 42
-0
  0
VERTEX
  8
0
 10
1843.927001953125
 20
981.71002197265625
 42
-0
  0
VERTEX
  8
0
 10
1974.75634765625
 20
982.14642333984375
 42
-0
  0
VERTEX
  8
0
 10
1978.82373046875
 20
992.8822021484375
 42
-0
  0
VERTEX
  8
0
 10
1881.1275634765625
 20
1079.899169921875
 42
-0
  0
VERTEX
  8
0
 10
1855.38671875
 20
1089.6514892578125
 42
-0
  0
SEQEND
  0
POLYLINE
  8
0
 10
0
 20
0
 39
0
 70
1
 66
1
  0
VERTEX
  8
0
 10
1924.8199462890625
 20
639.114990234375
 42
0
  0
VERTEX
  8
0
 10
2064.820068359375
 20
499.114990234375
 42
0
  0
VERTEX
  8
0
 10
2064.820068359375
 20
639.114990234375
 42
0
  0
SEQEND
  0
POLYLINE
  8
0
 10
0
 20
0
 39
0
 70
1
 66
1
  0
VERTEX
  8
0
 10
2064.820068359375
 20
484.85000610351562
 42
0
  0
VERTEX
  8
0
 10
1924.8199462890625
 20
624.8499755859375
 42
0
  0
VERTEX
  8
0
 10
1924.8199462890625
 20
484.85000610351562
 42
0
  0
SEQEND
  0
POLYLINE
  8
0
 10
0
 20
0
 39
0
 70
1
 66
1
  0
VERTEX
  8
0
 10
1925.239990234375
 20
432.89498901367187
 42
0
  0
VERTEX
  8
0
 10
2065.239990234375
 20
292.89498901367187
 42
0
  0
VERTEX
  8
0
 10
2065.239990234375
 20
432.89498901367187
 42
0
  0
SEQEND
  0
POLYLINE
  8
0
 10
0
 20
0
 39
0
 70
1
 66
1
  0
VERTEX
  8
0
 10
2065.239990234375
 20
278.6300048828125
 42
0
  0
VERTEX
  8
0
 10
1925.239990234375
 20
418.6300048828125
 42
0
  0
VERTEX
  8
0
 10
1925.239990234375
 20
278.6300048828125
 42
0
  0
SEQEND
  0
POLYLINE
  8
0
 10
0
 20
0
 39
0
 70
1
 66
1
  0
VERTEX
  8
0
 10
1932.3800048828125
 20
803.54498291015625
 42
0
  0
VERTEX
  8
0
 10
2072.3798828125
 20
663.54498291015625
 42
0
  0
VERTEX
  8
0
 10
2072.3798828125
 20
803.54498291015625
 42
0
  0
SEQEND
  0
POLYLINE
  8
0
 10
0
 20
0
 39
0
 70
1
 66
1
  0
VERTEX
  8
0
 10
2072.3798828125
 20
649.280029296875
 42
0
  0
VERTEX
  8
0
 10
1932.3800048828125
 20
789.280029296875
 42
0
  0
VERTEX
  8
0
 10
1932.3800048828125
 20
649.280029296875
 42
0
  0
SEQEND
  0
POLYLINE
  8
0
 10
0
 20
0
 39
0
 70
1
 66
1
  0
VERTEX
  8
0
 10
1940.5699462890625
 20
967.9749755859375
 42
0
  0
VERTEX
  8
0
 10
2080.570068359375
 20
827.9749755859375
 42
0
  0
VERTEX
  8
0
 10
2080.570068359375
 20
967.9749755859375
 42
0
  0
SEQEND
  0
POLYLINE
  8
0
 10
0
 20
0
 39
0
 70
1
 66
1
  0
VERTEX
  8
0
 10
2080.570068359375
 20
813.71002197265625
 42
0
  0
VERTEX
  8
0
 10
1940.5699462890625
 20
953.71002197265625
 42
0
  0
VERTEX
  8
0
 10
1940.5699462890625
 20
813.71002197265625
 42
0
  0
SEQEND
  0
POLYLINE
  8
0
 10
0
 20
0
 39
0
 70
1
 66
1
  0
VERTEX
  8
0
 10
304.67001342773437
 20
1089.5799560546875
 42
0
  0
VERTEX
  8
0
 10
444.67001342773437
 20
949.58001708984375
 42
0
  0
VERTEX
  8
0
 10
444.67001342773437
 20
1089.5799560546875
 42
0
  0
SEQEND
  0
POLYLINE
  8
0
 10
0
 20
0
 39
0
 70
1
 66
1
  0
VERTEX
  8
0
 10
578.510009765625
 20
135.19999694824219
 42
0
  0
VERTEX
  8
0
 10
718.510009765625
 20
275.20001220703125
 42
0
  0
VERTEX
  8
0
 10
578.510009765625
 20
275.20001220703125
 42
0
  0
SEQEND
  0
POLYLINE
  8
0
 10
0
 20
0
 39
0
 70
1
 66
1
  0
VERTEX
  8
0
 10
578.510009765625
 20
684.55999755859375
 42
0
  0
VERTEX
  8
0
 10
718.510009765625
 20
824.55999755859375
 42
0
  0
VERTEX
  8
0
 10
578.510009765625
 20
824.55999755859375
 42
0
  0
SEQEND
  0
POLYLINE
  8
0
 10
0
 20
0
 39
0
 70
1
 66
1
  0
VERTEX
  8
0
 10
983.739990234375
 20
10.25
 42
0
  0
VERTEX
  8
0
 10
843.739990234375
 20
150.25
 42
0
  0
VERTEX
  8
0
 10
843.739990234375
 20
10.25
 42
0
  0
SEQEND
  0
POLYLINE
  8
0
 10
0
 20
0
 39
0
 70
1
 66
1
  0
VERTEX
  8
0
 10
863.739990234375
 20
616.66998291015625
 42
0
  0
VERTEX
  8
0
 10
843.739990234375
 20
616.66998291015625
 42
0
  0
VERTEX
  8
0
 10
843.739990234375
 20
566.66998291015625
 42
0
  0
VERTEX
  8
0
 10
853.739990234375
 20
556.66998291015625
 42
0
  0
VERTEX
  8
0
 10
993.739990234375
 20
556.66998291015625
 42
0
  0
VERTEX
  8
0
 10
993.739990234375
 20
571.66998291015625
 42
0
  0
SEQEND
  0
POLYLINE
  8
0
 10
0
 20
0
 39
0
 70
1
 66
1
  0
VERTEX
  8
0
 10
973.739990234375
 20
589.35797119140625
 42
0
  0
VERTEX
  8
0
 10
993.739990234375
 20
589.35797119140625
 42
0
  0
VERTEX
  8
0
 10
993.739990234375
 20
639.35797119140625
 42
0
  0
VERTEX
  8
0
 10
983.739990234375
 20
649.35797119140625
 42
0
  0
VERTEX
  8
0
 10
843.739990234375
 20
649.35797119140625
 42
0
  0
VERTEX
  8
0
 10
843.739990234375
 20
634.35797119140625
 42
0
  0
SEQEND
  0
POLYLINE
  8
0
 10
0
 20
0
 39
0
 70
1
 66
1
  0
VERTEX
  8
0
 10
1174.9599609375
 20
1057.0400390625
 42
0
  0
VERTEX
  8
0
 10
1154.9599609375
 20
1057.0400390625
 42
0
  0
VERTEX
  8
0
 10
1154.9599609375
 20
1007.0399780273437
 42
0
  0
VERTEX
  8
0
 10
1164.9599609375
 20
997.03997802734375
 42
0
  0
VERTEX
  8
0
 10
1304.9599609375
 20
997.03997802734375
 42
0
  0
VERTEX
  8
0
 10
1304.9599609375
 20
1012.0399780273437
 42
0
  0
SEQEND
  0
POLYLINE
  8
0
 10
0
 20
0
 39
0
 70
1
 66
1
  0
VERTEX
  8
0
 10
1284.9599609375
 20
1029.72802734375
 42
0
  0
VERTEX
  8
0
 10
1304.9599609375
 20
1029.72802734375
 42
0
  0
VERTEX
  8
0
 10
1304.9599609375
 20
1079.72802734375
 42
0
  0
VERTEX
  8
0
 10
1294.9599609375
 20
1089.72802734375
 42
0
  0
VERTEX
  8
0
 10
1154.9599609375
 20
1089.72802734375
 42
0
  0
VERTEX
  8
0
 10
1154.9599609375
 20
1074.72802734375
 42
0
  0
SEQEND
  0
POLYLINE
  8
0
 10
0
 20
0
 39
0
 70
1
 66
1
  0
VERTEX
  8
0
 10
1335.18994140625
 20
1045.699951171875
 42
0
  0
VERTEX
  8
0
 10
1315.18994140625
 20
1045.699951171875
 42
0
  0
VERTEX
  8
0
 10
1315.18994140625
 20
995.70001220703125
 42
0
  0
VERTEX
  8
0
 10
1325.18994140625
 20
985.70001220703125
 42
0
  0
VERTEX
  8
0
 10
1465.18994140625
 20
985.70001220703125
 42
0
  0
VERTEX
  8
0
 10
1465.18994140625
 20
1000.7000122070312
 42
0
  0
SEQEND
  0
POLYLINE
  8
0
 10
0
 20
0
 39
0
 70
1
 66
1
  0
VERTEX
  8
0
 10
1445.18994140625
 20
1018.3880004882812
 42
0
  0
VERTEX
  8
0
 10
1465.18994140625
 20
1018.3880004882812
 42
0
  0
VERTEX
  8
0
 10
1465.18994140625
 20
1068.387939453125
 42
0
  0
VERTEX
  8
0
 10
1455.18994140625
 20
1078.387939453125
 42
0
  0
VERTEX
  8
0
 10
1315.18994140625
 20
1078.387939453125
 42
0
  0
VERTEX
  8
0
 10
1315.18994140625
 20
1063.387939453125
 42
0
  0
SEQEND
  0
POLYLINE
  8
0
 10
0
 20
0
 39
0
 70
1
 66
1
  0
VERTEX
  8
0
 10
1495.4200439453125
 20
1045.699951171875
 42
0
  0
VERTEX
  8
0
 10
1475.4200439453125
 20
1045.699951171875
 42
0
  0
VERTEX
  8
0
 10
1475.4200439453125
 20
995.70001220703125
 42
0
  0
VERTEX
  8
0
 10
1485.4200439453125
 20
985.70001220703125
 42
0
  0
VERTEX
  8
0
 10
1625.4200439453125
 20
985.70001220703125
 42
0
  0
VERTEX
  8
0
 10
1625.4200439453125
 20
1000.7000122070312
 42
0
  0
SEQEND
  0
POLYLINE
  8
0
 10
0
 20
0
 39
0
 70
1
 66
1
  0
VERTEX
  8
0
 10
1605.4200439453125
 20
1018.3880004882812
 42
0
  0
VERTEX
  8
0
 10
1625.4200439453125
 20
1018.3880004882812
 42
0
  0
VERTEX
  8
0
 10
1625.4200439453125
 20
1068.387939453125
 42
0
  0
VERTEX
  8
0
 10
1615.4200439453125
 20
1078.387939453125
 42
0
  0
VERTEX
  8
0
 10
1475.4200439453125
 20
1078.387939453125
 42
0
  0
VERTEX
  8
0
 10
1475.4200439453125
 20
1063.387939453125
 42
0
  0
SEQEND
  0
POLYLINE
  8
0
 10
0
 20
0
 39
0
 70
1
 66
1
  0
VERTEX
  8
0
 10
2014.8380126953125
 20
30.25
 42
0
  0
VERTEX
  8
0
 10
2014.8380126953125
 20
10.25
 42
0
  0
VERTEX
  8
0
 10
2064.837890625
 20
10.25
 42
0
  0
VERTEX
  8
0
 10
2074.837890625
 20
20.25
 42
0
  0
VERTEX
  8
0
 10
2074.837890625
 20
160.25
 42
0
  0
VERTEX
  8
0
 10
2059.837890625
 20
160.25
 42
0
  0
SEQEND
  0
POLYLINE
  8
0
 10
0
 20
0
 39
0
 70
1
 66
1
  0
VERTEX
  8
0
 10
2042.1500244140625
 20
140.25
 42
0
  0
VERTEX
  8
0
 10
2042.1500244140625
 20
160.25
 42
0
  0
VERTEX
  8
0
 10
1992.1500244140625
 20
160.25
 42
0
  0
VERTEX
  8
0
 10
1982.1500244140625
 20
150.25
 42
0
  0
VERTEX
  8
0
 10
1982.1500244140625
 20
10.25
 42
0
  0
VERTEX
  8
0
 10
1997.1500244140625
 20
10.25
 42
0
  0
SEQEND
  0
POLYLINE
  8
0
 10
0
 20
0
 39
0
 70
1
 66
1
  0
VERTEX
  8
0
 10
394.76998901367187
 20
911.57000732421875
 42
0
  0
VERTEX
  8
0
 10
414.76998901367187
 20
911.57000732421875
 42
0
  0
VERTEX
  8
0
 10
414.76998901367187
 20
961.57000732421875
 42
0
  0
VERTEX
  8
0
 10
404.76998901367187
 20
971.57000732421875
 42
0
  0
VERTEX
  8
0
 10
264.76998901367187
 20
971.57000732421875
 42
0
  0
VERTEX
  8
0
 10
264.76998901367187
 20
956.57000732421875
 42
0
  0
SEQEND
  0
POLYLINE
  8
0
 10
0
 20
0
 39
0
 70
1
 66
1
  0
VERTEX
  8
0
 10
2032.97998046875
 20
1029.5899658203125
 42
0
  0
VERTEX
  8
0
 10
2052.97998046875
 20
1029.5899658203125
 42
0
  0
VERTEX
  8
0
 10
2052.97998046875
 20
1079.5899658203125
 42
0
  0
VERTEX
  8
0
 10
2042.97998046875
 20
1089.5899658203125
 42
0
  0
VERTEX
  8
0
 10
1902.97998046875
 20
1089.5899658203125
 42
0
  0
VERTEX
  8
0
 10
1902.97998046875
 20
1074.5899658203125
 42
0
  0
SEQEND
  0
POLYLINE
  8
0
 10
0
 20
0
 39
0
 70
1
 66
1
  0
VERTEX
  8
0
 10
110.25
 20
1045.969970703125
 42
0
  0
VERTEX
  8
0
 10
110.25
 20
1077.969970703125
 42
0
  0
VERTEX
  8
0
 10
18.25
 20
1077.969970703125
 42
0
  0
VERTEX
  8
0
 10
10.25
 20
1069.969970703125
 42
0
  0
VERTEX
  8
0
 10
10.25
 20
1045.969970703125
 42
0
  0
SEQEND
  0
POLYLINE
  8
0
 10
0
 20
0
 39
0
 70
1
 66
1
  0
VERTEX
  8
0
 10
750.91998291015625
 20
908.84002685546875
 42
0
  0
VERTEX
  8
0
 10
782.91998291015625
 20
908.84002685546875
 42
0
  0
VERTEX
  8
0
 10
782.91998291015625
 20
1000.8400268554687
 42
0
  0
VERTEX
  8
0
 10
774.91998291015625
 20
1008.8400268554687
 42
0
  0
VERTEX
  8
0
 10
750.91998291015625
 20
1008.8400268554687
 42
0
  0
SEQEND
  0
POLYLINE
  8
0
 10
0
 20
0
 39
0
 70
1
 66
1
  0
VERTEX
  8
0
 10
1057.31005859375
 20
205.33999633789062
 42
0
  0
VERTEX
  8
0
 10
1089.31005859375
 20
205.33999633789062
 42
0
  0
VERTEX
  8
0
 10
1089.31005859375
 20
297.33999633789062
 42
0
  0
VERTEX
  8
0
 10
1081.31005859375
 20
305.33999633789062
 42
0
  0
VERTEX
  8
0
 10
1057.31005859375
 20
305.33999633789062
 42
0
  0
SEQEND
  0
POLYLINE
  8
0
 10
0
 20
0
 39
0
 70
1
 66
1
  0
VERTEX
  8
0
 10
1099.72998046875
 20
205.33999633789062
 42
0
  0
VERTEX
  8
0
 10
1131.72998046875
 20
205.33999633789062
 42
0
  0
VERTEX
  8
0
 10
1131.72998046875
 20
297.33999633789062
 42
0
  0
VERTEX
  8
0
 10
1123.72998046875
 20
305.33999633789062
 42
0
  0
VERTEX
  8
0
 10
1099.72998046875
 20
305.33999633789062
 42
0
  0
SEQEND
  0
POLYLINE
  8
0
 10
0
 20
0
 39
0
 70
1
 66
1
  0
VERTEX
  8
0
 10
1157.31005859375
 20
315.3800048828125
 42
0
  0
VERTEX
  8
0
 10
1157.31005859375
 20
347.3800048828125
 42
0
  0
VERTEX
  8
0
 10
1065.31005859375
 20
347.3800048828125
 42
0
  0
VERTEX
  8
0
 10
1057.31005859375
 20
339.3800048828125
 42
0
  0
VERTEX
  8
0
 10
1057.31005859375
 20
315.3800048828125
 42
0
  0
SEQEND
  0
POLYLINE
  8
0
 10
0
 20
0
 39
0
 70
1
 66
1
  0
VERTEX
  8
0
 10
1142.1500244140625
 20
205.33999633789062
 42
0
  0
VERTEX
  8
0
 10
1174.1500244140625
 20
205.33999633789062
 42
0
  0
VERTEX
  8
0
 10
1174.1500244140625
 20
297.33999633789062
 42
0
  0
VERTEX
  8
0
 10
1166.1500244140625
 20
305.33999633789062
 42
0
  0
VERTEX
  8
0
 10
1142.1500244140625
 20
305.33999633789062
 42
0
  0
SEQEND
  0
POLYLINE
  8
0
 10
0
 20
0
 39
0
 70
1
 66
1
  0
VERTEX
  8
0
 10
1704.3199462890625
 20
930.04998779296875
 42
0
  0
VERTEX
  8
0
 10
1736.3199462890625
 20
930.04998779296875
 42
0
  0
VERTEX
  8
0
 10
1736.3199462890625
 20
1022.0499877929687
 42
0
  0
VERTEX
  8
0
 10
1728.3199462890625
 20
1030.050048828125
 42
0
  0
VERTEX
  8
0
 10
1704.3199462890625
 20
1030.050048828125
 42
0
  0
SEQEND
  0
POLYLINE
  8
0
 10
0
 20
0
 39
0
 70
1
 66
1
  0
VERTEX
  8
0
 10
2081.93994140625
 20
175.10000610351562
 42
0
  0
VERTEX
  8
0
 10
2081.93994140625
 20
207.10000610351562
 42
0
  0
VERTEX
  8
0
 10
1989.93994140625
 20
207.10000610351562
 42
0
  0
VERTEX
  8
0
 10
1981.93994140625
 20
199.10000610351562
 42
0
  0
VERTEX
  8
0
 10
1981.93994140625
 20
175.10000610351562
 42
0
  0
SEQEND
  0
POLYLINE
  8
0
 10
0
 20
0
 39
0
 70
1
 66
1
  0
VERTEX
  8
0
 10
2081.93994140625
 20
217.30999755859375
 42
0
  0
VERTEX
  8
0
 10
2081.93994140625
 20
249.30999755859375
 42
0
  0
VERTEX
  8
0
 10
1989.93994140625
 20
249.30999755859375
 42
0
  0
VERTEX
  8
0
 10
1981.93994140625
 20
241.30999755859375
 42
0
  0
VERTEX
  8
0
 10
1981.93994140625
 20
217.30999755859375
 42
0
  0
SEQEND
  0
POLYLINE
  8
0
 10
0
 20
0
 39
0
 70
1
 66
1
  0
VERTEX
  8
0
 10
2089.080078125
 20
978.1400146484375
 42
0
  0
VERTEX
  8
0
 10
2089.080078125
 20
1010.1400146484375
 42
0
  0
VERTEX
  8
0
 10
1997.0799560546875
 20
1010.1400146484375
 42
0
  0
VERTEX
  8
0
 10
1989.0799560546875
 20
1002.1400146484375
 42
0
  0
VERTEX
  8
0
 10
1989.0799560546875
 20
978.1400146484375
 42
0
  0
SEQEND
  0
POLYLINE
  8
0
 10
0
 20
0
 39
0
 70
1
 66
1
  0
VERTEX
  8
0
 10
1046.4300537109375
 20
86.349998474121094
 42
0
  0
VERTEX
  8
0
 10
946.42999267578125
 20
86.349998474121094
 42
0
  0
VERTEX
  8
0
 10
946.42999267578125
 20
62.349998474121094
 42
0
  0
VERTEX
  8
0
 10
954.42999267578125
 20
54.349998474121094
 42
0
  0
VERTEX
  8
0
 10
1046.4300537109375
 20
54.349998474121094
 42
0
  0
SEQEND
  0
ENDSEC
  0
EOF
