  0
SECTION
  2
ENTITIES
  0
POLYLINE
  8
0
 10
0
 20
0
 39
0
 70
1
 66
1
  0
VERTEX
  8
0
 10
0
 20
0
 42
-0
  0
VERTEX
  8
0
 10
6000
 20
0
 42
-0
  0
VERTEX
  8
0
 10
6000
 20
1500
 42
-0
  0
VERTEX
  8
0
 10
0
 20
1500
 42
-0
  0
SEQEND
  0
POLYLINE
  8
0
 10
0
 20
0
 39
0
 70
1
 66
1
  0
VERTEX
  8
0
 10
3028.2001953125
 20
320.050048828125
 42
0
  0
VERTEX
  8
0
 10
3028.2001953125
 20
30.050048828125
 42
-0
  0
VERTEX
  8
0
 10
3168.2001953125
 20
10.050079345703125
 42
0
  0
VERTEX
  8
0
 10
3168.2001953125
 20
340.05007934570312
 42
0
  0
SEQEND
  0
POLYLINE
  8
0
 10
0
 20
0
 39
0
 70
1
 66
1
  0
VERTEX
  8
0
 10
4612.30029296875
 20
320.050048828125
 42
0
  0
VERTEX
  8
0
 10
4612.30029296875
 20
30.050048828125
 42
-0
  0
VERTEX
  8
0
 10
4752.30029296875
 20
10.050079345703125
 42
0
  0
VERTEX
  8
0
 10
4752.30029296875
 20
340.05007934570312
 42
0
  0
SEQEND
  0
POLYLINE
  8
0
 10
0
 20
0
 39
0
 70
1
 66
1
  0
VERTEX
  8
0
 10
5793.39990234375
 20
320.05010986328125
 42
0
  0
VERTEX
  8
0
 10
5793.39990234375
 20
30.05010986328125
 42
-0
  0
VERTEX
  8
0
 10
5933.39990234375
 20
10.050140380859375
 42
0
  0
VERTEX
  8
0
 10
5933.39990234375
 20
340.05014038085937
 42
0
  0
SEQEND
  0
POLYLINE
  8
0
 10
0
 20
0
 39
0
 70
1
 66
1
  0
VERTEX
  8
0
 10
3800.876953125
 20
1360.100341796875
 42
0
  0
VERTEX
  8
0
 10
3800.876953125
 20
1070.100341796875
 42
-0
  0
VERTEX
  8
0
 10
3940.876953125
 20
1050.100341796875
 42
0
  0
VERTEX
  8
0
 10
3940.876953125
 20
1380.100341796875
 42
0
  0
SEQEND
  0
POLYLINE
  8
0
 10
0
 20
0
 39
0
 70
1
 66
1
  0
VERTEX
  8
0
 10
2361.5869140625
 20
1070.1004638671875
 42
0
  0
VERTEX
  8
0
 10
2361.586669921875
 20
1360.1004638671875
 42
-0
  0
VERTEX
  8
0
 10
2221.586669921875
 20
1380.100341796875
 42
0
  0
VERTEX
  8
0
 10
2221.5869140625
 20
1050.100341796875
 42
0
  0
SEQEND
  0
POLYLINE
  8
0
 10
0
 20
0
 39
0
 70
1
 66
1
  0
VERTEX
  8
0
 10
1444.10009765625
 20
320.04998779296875
 42
0
  0
VERTEX
  8
0
 10
1444.10009765625
 20
30.04998779296875
 42
-0
  0
VERTEX
  8
0
 10
1584.10009765625
 20
10.050018310546875
 42
0
  0
VERTEX
  8
0
 10
1584.10009765625
 20
340.05001831054687
 42
0
  0
SEQEND
  0
POLYLINE
  8
0
 10
0
 20
0
 39
0
 70
1
 66
1
  0
VERTEX
  8
0
 10
4199.25
 20
790.0504150390625
 42
-0
  0
VERTEX
  8
0
 10
3960.25
 20
790.05029296875
 42
-0
  0
VERTEX
  8
0
 10
3960.25
 20
1040.05029296875
 42
-0
  0
VERTEX
  8
0
 10
3417.25
 20
1040.0501708984375
 42
-0
  0
VERTEX
  8
0
 10
3417.25
 20
790.05010986328125
 42
-0
  0
VERTEX
  8
0
 10
3178.25
 20
790.050048828125
 42
-0
  0
VERTEX
  8
0
 10
3178.25048828125
 20
10.050048828125
 42
-0
  0
VERTEX
  8
0
 10
4199.25048828125
 20
10.0504150390625
 42
-0
  0
SEQEND
  0
POLYLINE
  8
0
 10
0
 20
0
 39
0
 70
1
 66
1
  0
VERTEX
  8
0
 10
2615.14990234375
 20
790.05029296875
 42
-0
  0
VERTEX
  8
0
 10
2376.14990234375
 20
790.0501708984375
 42
-0
  0
VERTEX
  8
0
 10
2376.14990234375
 20
1040.0501708984375
 42
-0
  0
VERTEX
  8
0
 10
1833.14990234375
 20
1040.050048828125
 42
-0
  0
VERTEX
  8
0
 10
1833.1500244140625
 20
790.04998779296875
 42
-0
  0
VERTEX
  8
0
 10
1594.1500244140625
 20
790.0499267578125
 42
-0
  0
VERTEX
  8
0
 10
1594.150390625
 20
10.0499267578125
 42
-0
  0
VERTEX
  8
0
 10
2615.150390625
 20
10.05029296875
 42
-0
  0
SEQEND
  0
POLYLINE
  8
0
 10
0
 20
0
 39
0
 70
1
 66
1
  0
VERTEX
  8
0
 10
1031.0496826171875
 20
790.0504150390625
 42
-0
  0
VERTEX
  8
0
 10
792.0496826171875
 20
790.05029296875
 42
-0
  0
VERTEX
  8
0
 10
792.049560546875
 20
1040.05029296875
 42
-0
  0
VERTEX
  8
0
 10
249.049560546875
 20
1040.0501708984375
 42
-0
  0
VERTEX
  8
0
 10
249.0496826171875
 20
790.05010986328125
 42
-0
  0
VERTEX
  8
0
 10
10.0496826171875
 20
790.050048828125
 42
-0
  0
VERTEX
  8
0
 10
10.04998779296875
 20
10.050048828125
 42
-0
  0
VERTEX
  8
0
 10
1031.0499267578125
 20
10.0504150390625
 42
-0
  0
SEQEND
  0
POLYLINE
  8
0
 10
0
 20
0
 39
0
 70
1
 66
1
  0
VERTEX
  8
0
 10
5783.349609375
 20
790.0504150390625
 42
-0
  0
VERTEX
  8
0
 10
5544.349609375
 20
790.05029296875
 42
-0
  0
VERTEX
  8
0
 10
5544.349609375
 20
1040.05029296875
 42
-0
  0
VERTEX
  8
0
 10
5001.349609375
 20
1040.0501708984375
 42
-0
  0
VERTEX
  8
0
 10
5001.349609375
 20
790.05010986328125
 42
-0
  0
VERTEX
  8
0
 10
4762.349609375
 20
790.050048828125
 42
-0
  0
VERTEX
  8
0
 10
4762.35009765625
 20
10.050048828125
 42
-0
  0
VERTEX
  8
0
 10
5783.35009765625
 20
10.0504150390625
 42
-0
  0
SEQEND
  0
POLYLINE
  8
0
 10
0
 20
0
 39
0
 70
1
 66
1
  0
VERTEX
  8
0
 10
802.099853515625
 20
859.95001220703125
 42
0
  0
VERTEX
  8
0
 10
1041.099853515625
 20
859.95001220703125
 42
0
  0
VERTEX
  8
0
 10
1041.099853515625
 20
659.95001220703125
 42
0
  0
VERTEX
  8
0
 10
1584.099853515625
 20
659.95001220703125
 42
-0
  0
VERTEX
  8
0
 10
1584.099853515625
 20
859.95001220703125
 42
0
  0
VERTEX
  8
0
 10
1823.099853515625
 20
859.95001220703125
 42
0
  0
VERTEX
  8
0
 10
1823.099853515625
 20
1489.949951171875
 42
0
  0
VERTEX
  8
0
 10
802.099853515625
 20
1489.949951171875
 42
0
  0
SEQEND
  0
POLYLINE
  8
0
 10
0
 20
0
 39
0
 70
1
 66
1
  0
VERTEX
  8
0
 10
2386.199951171875
 20
859.95001220703125
 42
0
  0
VERTEX
  8
0
 10
2625.199951171875
 20
859.95001220703125
 42
0
  0
VERTEX
  8
0
 10
2625.199951171875
 20
659.95001220703125
 42
0
  0
VERTEX
  8
0
 10
3168.199951171875
 20
659.95001220703125
 42
-0
  0
VERTEX
  8
0
 10
3168.199951171875
 20
859.95001220703125
 42
0
  0
VERTEX
  8
0
 10
3407.199951171875
 20
859.95001220703125
 42
0
  0
VERTEX
  8
0
 10
3407.199951171875
 20
1489.949951171875
 42
0
  0
VERTEX
  8
0
 10
2386.199951171875
 20
1489.949951171875
 42
0
  0
SEQEND
  0
POLYLINE
  8
0
 10
0
 20
0
 39
0
 70
1
 66
1
  0
VERTEX
  8
0
 10
3970.300048828125
 20
859.95001220703125
 42
0
  0
VERTEX
  8
0
 10
4209.2998046875
 20
859.95001220703125
 42
0
  0
VERTEX
  8
0
 10
4209.2998046875
 20
659.95001220703125
 42
0
  0
VERTEX
  8
0
 10
4752.2998046875
 20
659.95001220703125
 42
-0
  0
VERTEX
  8
0
 10
4752.2998046875
 20
859.95001220703125
 42
0
  0
VERTEX
  8
0
 10
4991.2998046875
 20
859.95001220703125
 42
0
  0
VERTEX
  8
0
 10
4991.2998046875
 20
1489.949951171875
 42
0
  0
VERTEX
  8
0
 10
3970.300048828125
 20
1489.949951171875
 42
0
  0
SEQEND
  0
POLYLINE
  8
0
 10
0
 20
0
 39
0
 70
1
 66
1
  0
VERTEX
  8
0
 10
20.050003051757812
 20
800.0999755859375
 42
0
  0
VERTEX
  8
0
 10
95.050003051757813
 20
850.0999755859375
 42
0
  0
VERTEX
  8
0
 10
95.050003051757813
 20
860.0999755859375
 42
0
  0
VERTEX
  8
0
 10
10.050003051757812
 20
860.0999755859375
 42
0
  0
VERTEX
  8
0
 10
10.050003051757812
 20
800.0999755859375
 42
0
  0
SEQEND
  0
POLYLINE
  8
0
 10
0
 20
0
 39
0
 70
1
 66
1
  0
VERTEX
  8
0
 10
20.050003051757812
 20
870.14996337890625
 42
0
  0
VERTEX
  8
0
 10
95.050003051757813
 20
920.14996337890625
 42
0
  0
VERTEX
  8
0
 10
95.050003051757813
 20
930.14996337890625
 42
0
  0
VERTEX
  8
0
 10
10.050003051757812
 20
930.14996337890625
 42
0
  0
VERTEX
  8
0
 10
10.050003051757812
 20
870.14996337890625
 42
0
  0
SEQEND
  0
POLYLINE
  8
0
 10
0
 20
0
 39
0
 70
1
 66
1
  0
VERTEX
  8
0
 10
128.12789916992187
 20
860.10009765625
 42
0
  0
VERTEX
  8
0
 10
53.127922058105469
 20
810.10003662109375
 42
0
  0
VERTEX
  8
0
 10
53.127922058105469
 20
800.10003662109375
 42
0
  0
VERTEX
  8
0
 10
138.1279296875
 20
800.10009765625
 42
0
  0
VERTEX
  8
0
 10
138.12789916992187
 20
860.10009765625
 42
0
  0
SEQEND
  0
POLYLINE
  8
0
 10
0
 20
0
 39
0
 70
1
 66
1
  0
VERTEX
  8
0
 10
128.12789916992187
 20
930.15008544921875
 42
0
  0
VERTEX
  8
0
 10
53.127922058105469
 20
880.1500244140625
 42
0
  0
VERTEX
  8
0
 10
53.127922058105469
 20
870.1500244140625
 42
0
  0
VERTEX
  8
0
 10
138.1279296875
 20
870.15008544921875
 42
0
  0
VERTEX
  8
0
 10
138.12789916992187
 20
930.15008544921875
 42
0
  0
SEQEND
  0
POLYLINE
  8
0
 10
0
 20
0
 39
0
 70
1
 66
1
  0
VERTEX
  8
0
 10
20.049999237060547
 20
940.199951171875
 42
0
  0
VERTEX
  8
0
 10
95.050003051757813
 20
990.199951171875
 42
0
  0
VERTEX
  8
0
 10
95.050003051757813
 20
1000.199951171875
 42
0
  0
VERTEX
  8
0
 10
10.049999237060547
 20
1000.199951171875
 42
0
  0
VERTEX
  8
0
 10
10.049999237060547
 20
940.199951171875
 42
0
  0
SEQEND
  0
POLYLINE
  8
0
 10
0
 20
0
 39
0
 70
1
 66
1
  0
VERTEX
  8
0
 10
228.99961853027344
 20
860.10009765625
 42
0
  0
VERTEX
  8
0
 10
153.9996337890625
 20
810.10003662109375
 42
0
  0
VERTEX
  8
0
 10
153.9996337890625
 20
800.10003662109375
 42
0
  0
VERTEX
  8
0
 10
238.99964904785156
 20
800.10009765625
 42
0
  0
VERTEX
  8
0
 10
238.99961853027344
 20
860.10009765625
 42
0
  0
SEQEND
  0
POLYLINE
  8
0
 10
0
 20
0
 39
0
 70
1
 66
1
  0
VERTEX
  8
0
 10
130.889404296875
 20
1000.2000732421875
 42
0
  0
VERTEX
  8
0
 10
55.889427185058594
 20
950.20001220703125
 42
0
  0
VERTEX
  8
0
 10
55.889427185058594
 20
940.20001220703125
 42
0
  0
VERTEX
  8
0
 10
140.88943481445312
 20
940.2000732421875
 42
0
  0
VERTEX
  8
0
 10
140.889404296875
 20
1000.2000732421875
 42
0
  0
SEQEND
  0
POLYLINE
  8
0
 10
0
 20
0
 39
0
 70
1
 66
1
  0
VERTEX
  8
0
 10
20.049999237060547
 20
1429.949951171875
 42
0
  0
VERTEX
  8
0
 10
95.050003051757813
 20
1479.949951171875
 42
0
  0
VERTEX
  8
0
 10
95.050003051757813
 20
1489.949951171875
 42
0
  0
VERTEX
  8
0
 10
10.049999237060547
 20
1489.949951171875
 42
0
  0
VERTEX
  8
0
 10
10.049999237060547
 20
1429.949951171875
 42
0
  0
SEQEND
  0
POLYLINE
  8
0
 10
0
 20
0
 39
0
 70
1
 66
1
  0
VERTEX
  8
0
 10
89.720367431640625
 20
1464.344970703125
 42
0
  0
VERTEX
  8
0
 10
14.720390319824219
 20
1414.344970703125
 42
0
  0
VERTEX
  8
0
 10
14.720390319824219
 20
1404.344970703125
 42
0
  0
VERTEX
  8
0
 10
99.720390319824219
 20
1404.344970703125
 42
0
  0
VERTEX
  8
0
 10
99.720367431640625
 20
1464.344970703125
 42
0
  0
SEQEND
  0
POLYLINE
  8
0
 10
0
 20
0
 39
0
 70
1
 66
1
  0
VERTEX
  8
0
 10
119.7703857421875
 20
1429.949951171875
 42
0
  0
VERTEX
  8
0
 10
194.7703857421875
 20
1479.949951171875
 42
0
  0
VERTEX
  8
0
 10
194.7703857421875
 20
1489.949951171875
 42
0
  0
VERTEX
  8
0
 10
109.7703857421875
 20
1489.949951171875
 42
0
  0
VERTEX
  8
0
 10
109.7703857421875
 20
1429.949951171875
 42
0
  0
SEQEND
  0
POLYLINE
  8
0
 10
0
 20
0
 39
0
 70
1
 66
1
  0
VERTEX
  8
0
 10
227.84822082519531
 20
1489.949951171875
 42
0
  0
VERTEX
  8
0
 10
152.84823608398438
 20
1439.949951171875
 42
0
  0
VERTEX
  8
0
 10
152.84823608398438
 20
1429.949951171875
 42
0
  0
VERTEX
  8
0
 10
237.84825134277344
 20
1429.949951171875
 42
0
  0
VERTEX
  8
0
 10
237.84822082519531
 20
1489.949951171875
 42
0
  0
SEQEND
  0
POLYLINE
  8
0
 10
0
 20
0
 39
0
 70
1
 66
1
  0
VERTEX
  8
0
 10
257.89825439453125
 20
1429.949951171875
 42
0
  0
VERTEX
  8
0
 10
332.89825439453125
 20
1479.949951171875
 42
0
  0
VERTEX
  8
0
 10
332.89825439453125
 20
1489.949951171875
 42
0
  0
VERTEX
  8
0
 10
247.89825439453125
 20
1489.949951171875
 42
0
  0
VERTEX
  8
0
 10
247.89825439453125
 20
1429.949951171875
 42
0
  0
SEQEND
  0
POLYLINE
  8
0
 10
0
 20
0
 39
0
 70
1
 66
1
  0
VERTEX
  8
0
 10
347.042236328125
 20
1477.3106689453125
 42
0
  0
VERTEX
  8
0
 10
272.04226684570312
 20
1427.3106689453125
 42
0
  0
VERTEX
  8
0
 10
272.04226684570312
 20
1417.3106689453125
 42
0
  0
VERTEX
  8
0
 10
357.04226684570312
 20
1417.3106689453125
 42
0
  0
VERTEX
  8
0
 10
357.042236328125
 20
1477.3106689453125
 42
0
  0
SEQEND
  0
POLYLINE
  8
0
 10
0
 20
0
 39
0
 70
1
 66
1
  0
VERTEX
  8
0
 10
351.84982299804687
 20
1050.1002197265625
 42
0
  0
VERTEX
  8
0
 10
426.84982299804687
 20
1100.1002197265625
 42
0
  0
VERTEX
  8
0
 10
426.84982299804687
 20
1110.1002197265625
 42
0
  0
VERTEX
  8
0
 10
341.84982299804687
 20
1110.1002197265625
 42
0
  0
VERTEX
  8
0
 10
341.84982299804687
 20
1050.1002197265625
 42
0
  0
SEQEND
  0
POLYLINE
  8
0
 10
0
 20
0
 39
0
 70
1
 66
1
  0
VERTEX
  8
0
 10
78.317253112792969
 20
1020.25
 42
0
  0
VERTEX
  8
0
 10
28.317211151123047
 20
1095.25
 42
0
  0
VERTEX
  8
0
 10
18.317211151123047
 20
1095.25
 42
0
  0
VERTEX
  8
0
 10
18.3172607421875
 20
1010.2499389648437
 42
0
  0
VERTEX
  8
0
 10
78.3172607421875
 20
1010.25
 42
0
  0
SEQEND
  0
POLYLINE
  8
0
 10
0
 20
0
 39
0
 70
1
 66
1
  0
VERTEX
  8
0
 10
163.69728088378906
 20
927.80340576171875
 42
0
  0
VERTEX
  8
0
 10
238.69728088378906
 20
977.80340576171875
 42
0
  0
VERTEX
  8
0
 10
238.69728088378906
 20
987.80340576171875
 42
0
  0
VERTEX
  8
0
 10
153.69728088378906
 20
987.80340576171875
 42
0
  0
VERTEX
  8
0
 10
153.69728088378906
 20
927.80340576171875
 42
0
  0
SEQEND
  0
POLYLINE
  8
0
 10
0
 20
0
 39
0
 70
1
 66
1
  0
VERTEX
  8
0
 10
228.2791748046875
 20
958.78948974609375
 42
0
  0
VERTEX
  8
0
 10
153.27920532226562
 20
908.7894287109375
 42
0
  0
VERTEX
  8
0
 10
153.27920532226562
 20
898.7894287109375
 42
0
  0
VERTEX
  8
0
 10
238.27920532226562
 20
898.78948974609375
 42
0
  0
VERTEX
  8
0
 10
238.2791748046875
 20
958.78948974609375
 42
0
  0
SEQEND
  0
POLYLINE
  8
0
 10
0
 20
0
 39
0
 70
1
 66
1
  0
VERTEX
  8
0
 10
163.85589599609375
 20
828.73944091796875
 42
0
  0
VERTEX
  8
0
 10
238.85589599609375
 20
878.73944091796875
 42
0
  0
VERTEX
  8
0
 10
238.85589599609375
 20
888.73944091796875
 42
0
  0
VERTEX
  8
0
 10
153.85589599609375
 20
888.73944091796875
 42
0
  0
VERTEX
  8
0
 10
153.85589599609375
 20
828.73944091796875
 42
0
  0
SEQEND
  0
POLYLINE
  8
0
 10
0
 20
0
 39
0
 70
1
 66
1
  0
VERTEX
  8
0
 10
459.92764282226562
 20
1110.1002197265625
 42
0
  0
VERTEX
  8
0
 10
384.92767333984375
 20
1060.1002197265625
 42
0
  0
VERTEX
  8
0
 10
384.92767333984375
 20
1050.1002197265625
 42
0
  0
VERTEX
  8
0
 10
469.92767333984375
 20
1050.1002197265625
 42
0
  0
VERTEX
  8
0
 10
469.92764282226562
 20
1110.1002197265625
 42
0
  0
SEQEND
  0
POLYLINE
  8
0
 10
0
 20
0
 39
0
 70
1
 66
1
  0
VERTEX
  8
0
 10
489.9776611328125
 20
1050.100341796875
 42
0
  0
VERTEX
  8
0
 10
564.9776611328125
 20
1100.100341796875
 42
0
  0
VERTEX
  8
0
 10
564.9776611328125
 20
1110.100341796875
 42
0
  0
VERTEX
  8
0
 10
479.9776611328125
 20
1110.100341796875
 42
0
  0
VERTEX
  8
0
 10
479.9776611328125
 20
1050.100341796875
 42
0
  0
SEQEND
  0
POLYLINE
  8
0
 10
0
 20
0
 39
0
 70
1
 66
1
  0
VERTEX
  8
0
 10
598.05548095703125
 20
1110.100341796875
 42
0
  0
VERTEX
  8
0
 10
523.05548095703125
 20
1060.100341796875
 42
0
  0
VERTEX
  8
0
 10
523.05548095703125
 20
1050.100341796875
 42
0
  0
VERTEX
  8
0
 10
608.05548095703125
 20
1050.100341796875
 42
0
  0
VERTEX
  8
0
 10
608.05548095703125
 20
1110.100341796875
 42
0
  0
SEQEND
  0
POLYLINE
  8
0
 10
0
 20
0
 39
0
 70
1
 66
1
  0
VERTEX
  8
0
 10
628.10546875
 20
1050.100341796875
 42
0
  0
VERTEX
  8
0
 10
703.10546875
 20
1100.100341796875
 42
0
  0
VERTEX
  8
0
 10
703.10546875
 20
1110.100341796875
 42
0
  0
VERTEX
  8
0
 10
618.10546875
 20
1110.100341796875
 42
0
  0
VERTEX
  8
0
 10
618.10546875
 20
1050.100341796875
 42
0
  0
SEQEND
  0
POLYLINE
  8
0
 10
0
 20
0
 39
0
 70
1
 66
1
  0
VERTEX
  8
0
 10
736.18328857421875
 20
1110.100341796875
 42
0
  0
VERTEX
  8
0
 10
661.18328857421875
 20
1060.100341796875
 42
0
  0
VERTEX
  8
0
 10
661.18328857421875
 20
1050.100341796875
 42
0
  0
VERTEX
  8
0
 10
746.18328857421875
 20
1050.100341796875
 42
0
  0
VERTEX
  8
0
 10
746.18328857421875
 20
1110.100341796875
 42
0
  0
SEQEND
  0
POLYLINE
  8
0
 10
0
 20
0
 39
0
 70
1
 66
1
  0
VERTEX
  8
0
 10
665.47235107421875
 20
1180.150390625
 42
0
  0
VERTEX
  8
0
 10
590.47235107421875
 20
1130.150390625
 42
0
  0
VERTEX
  8
0
 10
590.47235107421875
 20
1120.150390625
 42
0
  0
VERTEX
  8
0
 10
675.47235107421875
 20
1120.150390625
 42
0
  0
VERTEX
  8
0
 10
675.47235107421875
 20
1180.150390625
 42
0
  0
SEQEND
  0
POLYLINE
  8
0
 10
0
 20
0
 39
0
 70
1
 66
1
  0
VERTEX
  8
0
 10
1071.3935546875
 20
545.792724609375
 42
0
  0
VERTEX
  8
0
 10
1171.3935546875
 20
545.792724609375
 42
0
  0
VERTEX
  8
0
 10
1171.3935546875
 20
635.792724609375
 42
0
  0
VERTEX
  8
0
 10
1071.3935546875
 20
635.792724609375
 42
0
  0
SEQEND
  0
POLYLINE
  8
0
 10
0
 20
0
 39
0
 70
1
 66
1
  0
VERTEX
  8
0
 10
1181.403564453125
 20
545.792724609375
 42
0
  0
VERTEX
  8
0
 10
1281.403564453125
 20
545.792724609375
 42
0
  0
VERTEX
  8
0
 10
1281.403564453125
 20
635.792724609375
 42
0
  0
VERTEX
  8
0
 10
1181.403564453125
 20
635.792724609375
 42
0
  0
SEQEND
  0
POLYLINE
  8
0
 10
0
 20
0
 39
0
 70
1
 66
1
  0
VERTEX
  8
0
 10
1291.41357421875
 20
545.792724609375
 42
0
  0
VERTEX
  8
0
 10
1391.41357421875
 20
545.792724609375
 42
0
  0
VERTEX
  8
0
 10
1391.41357421875
 20
635.792724609375
 42
0
  0
VERTEX
  8
0
 10
1291.41357421875
 20
635.792724609375
 42
0
  0
SEQEND
  0
POLYLINE
  8
0
 10
0
 20
0
 39
0
 70
1
 66
1
  0
VERTEX
  8
0
 10
1401.423583984375
 20
537.02288818359375
 42
0
  0
VERTEX
  8
0
 10
1501.423583984375
 20
537.02288818359375
 42
0
  0
VERTEX
  8
0
 10
1501.423583984375
 20
627.02288818359375
 42
0
  0
VERTEX
  8
0
 10
1401.423583984375
 20
627.02288818359375
 42
0
  0
SEQEND
  0
POLYLINE
  8
0
 10
0
 20
0
 39
0
 70
1
 66
1
  0
VERTEX
  8
0
 10
1391.14990234375
 20
436.972900390625
 42
0
  0
VERTEX
  8
0
 10
1491.14990234375
 20
436.972900390625
 42
0
  0
VERTEX
  8
0
 10
1491.14990234375
 20
526.972900390625
 42
0
  0
VERTEX
  8
0
 10
1391.14990234375
 20
526.972900390625
 42
0
  0
SEQEND
  0
POLYLINE
  8
0
 10
0
 20
0
 39
0
 70
1
 66
1
  0
VERTEX
  8
0
 10
1391.14990234375
 20
336.92291259765625
 42
0
  0
VERTEX
  8
0
 10
1491.14990234375
 20
336.92291259765625
 42
0
  0
VERTEX
  8
0
 10
1491.14990234375
 20
426.92291259765625
 42
0
  0
VERTEX
  8
0
 10
1391.14990234375
 20
426.92291259765625
 42
0
  0
SEQEND
  0
POLYLINE
  8
0
 10
0
 20
0
 39
0
 70
1
 66
1
  0
VERTEX
  8
0
 10
1834.51025390625
 20
1395.6900634765625
 42
0
  0
VERTEX
  8
0
 10
1934.51025390625
 20
1395.6900634765625
 42
0
  0
VERTEX
  8
0
 10
1934.51025390625
 20
1485.6900634765625
 42
0
  0
VERTEX
  8
0
 10
1834.51025390625
 20
1485.6900634765625
 42
0
  0
SEQEND
  0
POLYLINE
  8
0
 10
0
 20
0
 39
0
 70
1
 66
1
  0
VERTEX
  8
0
 10
2072.04345703125
 20
1399.949951171875
 42
0
  0
VERTEX
  8
0
 10
2172.04345703125
 20
1399.949951171875
 42
0
  0
VERTEX
  8
0
 10
2172.04345703125
 20
1489.949951171875
 42
0
  0
VERTEX
  8
0
 10
2072.04345703125
 20
1489.949951171875
 42
0
  0
SEQEND
  0
POLYLINE
  8
0
 10
0
 20
0
 39
0
 70
1
 66
1
  0
VERTEX
  8
0
 10
2625.2001953125
 20
545.792724609375
 42
0
  0
VERTEX
  8
0
 10
2725.2001953125
 20
545.792724609375
 42
0
  0
VERTEX
  8
0
 10
2725.2001953125
 20
635.792724609375
 42
0
  0
VERTEX
  8
0
 10
2625.2001953125
 20
635.792724609375
 42
0
  0
SEQEND
  0
POLYLINE
  8
0
 10
0
 20
0
 39
0
 70
1
 66
1
  0
VERTEX
  8
0
 10
2735.250244140625
 20
545.792724609375
 42
0
  0
VERTEX
  8
0
 10
2835.250244140625
 20
545.792724609375
 42
0
  0
VERTEX
  8
0
 10
2835.250244140625
 20
635.792724609375
 42
0
  0
VERTEX
  8
0
 10
2735.250244140625
 20
635.792724609375
 42
0
  0
SEQEND
  0
POLYLINE
  8
0
 10
0
 20
0
 39
0
 70
1
 66
1
  0
VERTEX
  8
0
 10
2845.30029296875
 20
545.792724609375
 42
0
  0
VERTEX
  8
0
 10
2945.30029296875
 20
545.792724609375
 42
0
  0
VERTEX
  8
0
 10
2945.30029296875
 20
635.792724609375
 42
0
  0
VERTEX
  8
0
 10
2845.30029296875
 20
635.792724609375
 42
0
  0
SEQEND
  0
POLYLINE
  8
0
 10
0
 20
0
 39
0
 70
1
 66
1
  0
VERTEX
  8
0
 10
2955.350341796875
 20
545.792724609375
 42
0
  0
VERTEX
  8
0
 10
3055.350341796875
 20
545.792724609375
 42
0
  0
VERTEX
  8
0
 10
3055.350341796875
 20
635.792724609375
 42
0
  0
VERTEX
  8
0
 10
2955.350341796875
 20
635.792724609375
 42
0
  0
SEQEND
  0
POLYLINE
  8
0
 10
0
 20
0
 39
0
 70
1
 66
1
  0
VERTEX
  8
0
 10
2975.250244140625
 20
445.74273681640625
 42
0
  0
VERTEX
  8
0
 10
3075.250244140625
 20
445.74273681640625
 42
0
  0
VERTEX
  8
0
 10
3075.250244140625
 20
535.74273681640625
 42
0
  0
VERTEX
  8
0
 10
2975.250244140625
 20
535.74273681640625
 42
0
  0
SEQEND
  0
POLYLINE
  8
0
 10
0
 20
0
 39
0
 70
1
 66
1
  0
VERTEX
  8
0
 10
2975.250244140625
 20
337.85195922851562
 42
0
  0
VERTEX
  8
0
 10
3075.250244140625
 20
337.85195922851562
 42
0
  0
VERTEX
  8
0
 10
3075.250244140625
 20
427.85195922851563
 42
0
  0
VERTEX
  8
0
 10
2975.250244140625
 20
427.85195922851563
 42
0
  0
SEQEND
  0
POLYLINE
  8
0
 10
0
 20
0
 39
0
 70
1
 66
1
  0
VERTEX
  8
0
 10
4222.7216796875
 20
559.9000244140625
 42
0
  0
VERTEX
  8
0
 10
4322.7216796875
 20
559.9000244140625
 42
0
  0
VERTEX
  8
0
 10
4322.7216796875
 20
649.9000244140625
 42
0
  0
VERTEX
  8
0
 10
4222.7216796875
 20
649.9000244140625
 42
0
  0
SEQEND
  0
POLYLINE
  8
0
 10
0
 20
0
 39
0
 70
1
 66
1
  0
VERTEX
  8
0
 10
4332.73193359375
 20
559.9000244140625
 42
0
  0
VERTEX
  8
0
 10
4432.73193359375
 20
559.9000244140625
 42
0
  0
VERTEX
  8
0
 10
4432.73193359375
 20
649.9000244140625
 42
0
  0
VERTEX
  8
0
 10
4332.73193359375
 20
649.9000244140625
 42
0
  0
SEQEND
  0
POLYLINE
  8
0
 10
0
 20
0
 39
0
 70
1
 66
1
  0
VERTEX
  8
0
 10
4442.74169921875
 20
559.9000244140625
 42
0
  0
VERTEX
  8
0
 10
4542.74169921875
 20
559.9000244140625
 42
0
  0
VERTEX
  8
0
 10
4542.74169921875
 20
649.9000244140625
 42
0
  0
VERTEX
  8
0
 10
4442.74169921875
 20
649.9000244140625
 42
0
  0
SEQEND
  0
POLYLINE
  8
0
 10
0
 20
0
 39
0
 70
1
 66
1
  0
VERTEX
  8
0
 10
4552.751953125
 20
559.9000244140625
 42
0
  0
VERTEX
  8
0
 10
4652.751953125
 20
559.9000244140625
 42
0
  0
VERTEX
  8
0
 10
4652.751953125
 20
649.9000244140625
 42
0
  0
VERTEX
  8
0
 10
4552.751953125
 20
649.9000244140625
 42
0
  0
SEQEND
  0
POLYLINE
  8
0
 10
0
 20
0
 39
0
 70
1
 66
1
  0
VERTEX
  8
0
 10
4559.35009765625
 20
459.85003662109375
 42
0
  0
VERTEX
  8
0
 10
4659.35009765625
 20
459.85003662109375
 42
0
  0
VERTEX
  8
0
 10
4659.35009765625
 20
549.85003662109375
 42
0
  0
VERTEX
  8
0
 10
4559.35009765625
 20
549.85003662109375
 42
0
  0
SEQEND
  0
POLYLINE
  8
0
 10
0
 20
0
 39
0
 70
1
 66
1
  0
VERTEX
  8
0
 10
4560.9677734375
 20
359.800048828125
 42
0
  0
VERTEX
  8
0
 10
4660.9677734375
 20
359.800048828125
 42
0
  0
VERTEX
  8
0
 10
4660.9677734375
 20
449.800048828125
 42
0
  0
VERTEX
  8
0
 10
4560.9677734375
 20
449.800048828125
 42
0
  0
SEQEND
  0
POLYLINE
  8
0
 10
0
 20
0
 39
0
 70
1
 66
1
  0
VERTEX
  8
0
 10
3417.25
 20
1396.4085693359375
 42
0
  0
VERTEX
  8
0
 10
3517.25
 20
1396.4085693359375
 42
0
  0
VERTEX
  8
0
 10
3517.25
 20
1486.4085693359375
 42
0
  0
VERTEX
  8
0
 10
3417.25
 20
1486.4085693359375
 42
0
  0
SEQEND
  0
POLYLINE
  8
0
 10
0
 20
0
 39
0
 70
1
 66
1
  0
VERTEX
  8
0
 10
2266.865234375
 20
1399.949951171875
 42
0
  0
VERTEX
  8
0
 10
2366.865234375
 20
1399.949951171875
 42
0
  0
VERTEX
  8
0
 10
2366.865234375
 20
1489.949951171875
 42
0
  0
VERTEX
  8
0
 10
2266.865234375
 20
1489.949951171875
 42
0
  0
SEQEND
  0
POLYLINE
  8
0
 10
0
 20
0
 39
0
 70
1
 66
1
  0
VERTEX
  8
0
 10
3750.199951171875
 20
1399.949951171875
 42
0
  0
VERTEX
  8
0
 10
3850.199951171875
 20
1399.949951171875
 42
0
  0
VERTEX
  8
0
 10
3850.199951171875
 20
1489.949951171875
 42
0
  0
VERTEX
  8
0
 10
3750.199951171875
 20
1489.949951171875
 42
0
  0
SEQEND
  0
POLYLINE
  8
0
 10
0
 20
0
 39
0
 70
1
 66
1
  0
VERTEX
  8
0
 10
3860.25
 20
1399.949951171875
 42
0
  0
VERTEX
  8
0
 10
3960.25
 20
1399.949951171875
 42
0
  0
VERTEX
  8
0
 10
3960.25
 20
1489.949951171875
 42
0
  0
VERTEX
  8
0
 10
3860.25
 20
1489.949951171875
 42
0
  0
SEQEND
  0
POLYLINE
  8
0
 10
0
 20
0
 39
0
 70
1
 66
1
  0
VERTEX
  8
0
 10
5351.294921875
 20
1314.449951171875
 42
1
  0
VERTEX
  8
0
 10
5702.294921875
 20
1314.449951171875
 42
1
  0
SEQEND
  0
POLYLINE
  8
0
 10
0
 20
0
 39
0
 70
1
 66
1
  0
VERTEX
  8
0
 10
5509.294921875
 20
1314.449951171875
 42
-1
  0
VERTEX
  8
0
 10
5544.294921875
 20
1314.449951171875
 42
-1
  0
SEQEND
  0
POLYLINE
  8
0
 10
0
 20
0
 39
0
 70
1
 66
1
  0
VERTEX
  8
0
 10
1833.14990234375
 20
1225.6002197265625
 42
1
  0
VERTEX
  8
0
 10
2184.14990234375
 20
1225.6002197265625
 42
1
  0
SEQEND
  0
POLYLINE
  8
0
 10
0
 20
0
 39
0
 70
1
 66
1
  0
VERTEX
  8
0
 10
1991.14990234375
 20
1225.6002197265625
 42
-1
  0
VERTEX
  8
0
 10
2026.14990234375
 20
1225.6002197265625
 42
-1
  0
SEQEND
  0
POLYLINE
  8
0
 10
0
 20
0
 39
0
 70
1
 66
1
  0
VERTEX
  8
0
 10
3417.25
 20
1225.600341796875
 42
1
  0
VERTEX
  8
0
 10
3768.25
 20
1225.600341796875
 42
1
  0
SEQEND
  0
POLYLINE
  8
0
 10
0
 20
0
 39
0
 70
1
 66
1
  0
VERTEX
  8
0
 10
3575.25
 20
1225.600341796875
 42
-1
  0
VERTEX
  8
0
 10
3610.25
 20
1225.600341796875
 42
-1
  0
SEQEND
  0
POLYLINE
  8
0
 10
0
 20
0
 39
0
 70
1
 66
1
  0
VERTEX
  8
0
 10
5001.349609375
 20
1225.6002197265625
 42
1
  0
VERTEX
  8
0
 10
5352.349609375
 20
1225.6002197265625
 42
1
  0
SEQEND
  0
POLYLINE
  8
0
 10
0
 20
0
 39
0
 70
1
 66
1
  0
VERTEX
  8
0
 10
5159.349609375
 20
1225.6002197265625
 42
-1
  0
VERTEX
  8
0
 10
5194.349609375
 20
1225.6002197265625
 42
-1
  0
SEQEND
  0
POLYLINE
  8
0
 10
0
 20
0
 39
0
 70
1
 66
1
  0
VERTEX
  8
0
 10
10.050003051757812
 20
1214.3931884765625
 42
1
  0
VERTEX
  8
0
 10
361.04998779296875
 20
1214.3931884765625
 42
1
  0
SEQEND
  0
POLYLINE
  8
0
 10
0
 20
0
 39
0
 70
1
 66
1
  0
VERTEX
  8
0
 10
168.05000305175781
 20
1214.3931884765625
 42
-1
  0
VERTEX
  8
0
 10
203.05000305175781
 20
1214.3931884765625
 42
-1
  0
SEQEND
  0
POLYLINE
  8
0
 10
0
 20
0
 39
0
 70
1
 66
1
  0
VERTEX
  8
0
 10
356.956787109375
 20
1314.449951171875
 42
1
  0
VERTEX
  8
0
 10
707.956787109375
 20
1314.449951171875
 42
1
  0
SEQEND
  0
POLYLINE
  8
0
 10
0
 20
0
 39
0
 70
1
 66
1
  0
VERTEX
  8
0
 10
514.956787109375
 20
1314.449951171875
 42
-1
  0
VERTEX
  8
0
 10
549.956787109375
 20
1314.449951171875
 42
-1
  0
SEQEND
  0
POLYLINE
  8
0
 10
0
 20
0
 39
0
 70
1
 66
1
  0
VERTEX
  8
0
 10
1041.0999755859375
 20
10.04998779296875
 42
0
  0
VERTEX
  8
0
 10
1381.0999755859375
 20
10.04998779296875
 42
0
  0
VERTEX
  8
0
 10
1381.0999755859375
 20
260.04998779296875
 42
0
  0
VERTEX
  8
0
 10
1041.0999755859375
 20
260.04998779296875
 42
0
  0
SEQEND
  0
POLYLINE
  8
0
 10
0
 20
0
 39
0
 70
1
 66
1
  0
VERTEX
  8
0
 10
1041.099853515625
 20
270.0999755859375
 42
0
  0
VERTEX
  8
0
 10
1381.099853515625
 20
270.0999755859375
 42
0
  0
VERTEX
  8
0
 10
1381.099853515625
 20
520.0999755859375
 42
0
  0
VERTEX
  8
0
 10
1041.099853515625
 20
520.0999755859375
 42
0
  0
SEQEND
  0
POLYLINE
  8
0
 10
0
 20
0
 39
0
 70
1
 66
1
  0
VERTEX
  8
0
 10
2625.200439453125
 20
10.050003051757812
 42
0
  0
VERTEX
  8
0
 10
2965.200439453125
 20
10.050003051757812
 42
0
  0
VERTEX
  8
0
 10
2965.200439453125
 20
260.04998779296875
 42
0
  0
VERTEX
  8
0
 10
2625.200439453125
 20
260.04998779296875
 42
0
  0
SEQEND
  0
POLYLINE
  8
0
 10
0
 20
0
 39
0
 70
1
 66
1
  0
VERTEX
  8
0
 10
2625.2001953125
 20
270.0999755859375
 42
0
  0
VERTEX
  8
0
 10
2965.2001953125
 20
270.0999755859375
 42
0
  0
VERTEX
  8
0
 10
2965.2001953125
 20
520.0999755859375
 42
0
  0
VERTEX
  8
0
 10
2625.2001953125
 20
520.0999755859375
 42
0
  0
SEQEND
  0
POLYLINE
  8
0
 10
0
 20
0
 39
0
 70
1
 66
1
  0
VERTEX
  8
0
 10
4209.30029296875
 20
10.050003051757812
 42
0
  0
VERTEX
  8
0
 10
4549.30029296875
 20
10.050003051757812
 42
0
  0
VERTEX
  8
0
 10
4549.30029296875
 20
260.04998779296875
 42
0
  0
VERTEX
  8
0
 10
4209.30029296875
 20
260.04998779296875
 42
0
  0
SEQEND
  0
POLYLINE
  8
0
 10
0
 20
0
 39
0
 70
1
 66
1
  0
VERTEX
  8
0
 10
4209.30029296875
 20
270.0999755859375
 42
0
  0
VERTEX
  8
0
 10
4549.30029296875
 20
270.0999755859375
 42
0
  0
VERTEX
  8
0
 10
4549.30029296875
 20
520.0999755859375
 42
0
  0
VERTEX
  8
0
 10
4209.30029296875
 20
520.0999755859375
 42
0
  0
SEQEND
  0
POLYLINE
  8
0
 10
0
 20
0
 39
0
 70
1
 66
1
  0
VERTEX
  8
0
 10
5917.671875
 20
1276.2364501953125
 42
0
  0
VERTEX
  8
0
 10
5982.671875
 20
1404.3453369140625
 42
0
  0
VERTEX
  8
0
 10
5742.671875
 20
1404.3453369140625
 42
0
  0
VERTEX
  8
0
 10
5742.671875
 20
1229.3453369140625
 42
0
  0
SEQEND
  0
POLYLINE
  8
0
 10
0
 20
0
 39
0
 70
1
 66
1
  0
VERTEX
  8
0
 10
5814.9501953125
 20
1238.309326171875
 42
0
  0
VERTEX
  8
0
 10
5749.9501953125
 20
1110.200439453125
 42
0
  0
VERTEX
  8
0
 10
5989.9501953125
 20
1110.2005615234375
 42
0
  0
VERTEX
  8
0
 10
5989.9501953125
 20
1285.2005615234375
 42
0
  0
SEQEND
  0
POLYLINE
  8
0
 10
0
 20
0
 39
0
 70
1
 66
1
  0
VERTEX
  8
0
 10
5661.9501953125
 20
955.150390625
 42
0
  0
VERTEX
  8
0
 10
5989.9501953125
 20
955.150390625
 42
0
  0
VERTEX
  8
0
 10
5989.9501953125
 20
1100.150390625
 42
0
  0
VERTEX
  8
0
 10
5661.9501953125
 20
1100.150390625
 42
0
  0
SEQEND
  0
POLYLINE
  8
0
 10
0
 20
0
 39
0
 70
1
 66
1
  0
VERTEX
  8
0
 10
5793.39990234375
 20
678.10009765625
 42
0
  0
VERTEX
  8
0
 10
5793.39990234375
 20
350.10009765625
 42
0
  0
VERTEX
  8
0
 10
5938.39990234375
 20
350.10012817382812
 42
0
  0
VERTEX
  8
0
 10
5938.39990234375
 20
678.10009765625
 42
0
  0
SEQEND
  0
POLYLINE
  8
0
 10
0
 20
0
 39
0
 70
1
 66
1
  0
VERTEX
  8
0
 10
5661.9501953125
 20
800.10040283203125
 42
0
  0
VERTEX
  8
0
 10
5989.9501953125
 20
800.10040283203125
 42
0
  0
VERTEX
  8
0
 10
5989.9501953125
 20
945.10040283203125
 42
0
  0
VERTEX
  8
0
 10
5661.9501953125
 20
945.10040283203125
 42
0
  0
SEQEND
  0
ENDSEC
  0
EOF
