  0
SECTION
  2
ENTITIES
  0
POLYLINE
  8
0
 10
0
 20
0
 39
0
 70
1
 66
1
  0
VERTEX
  8
0
 10
0
 20
0
 42
-0
  0
VERTEX
  8
0
 10
1950
 20
0
 42
-0
  0
VERTEX
  8
0
 10
1950
 20
1000
 42
-0
  0
VERTEX
  8
0
 10
0
 20
1000
 42
-0
  0
SEQEND
  0
POLYLINE
  8
0
 10
0
 20
0
 39
0
 70
1
 66
1
  0
VERTEX
  8
0
 10
10.265000343322754
 20
265.2650146484375
 42
0
  0
VERTEX
  8
0
 10
10.265000343322754
 20
10.265000343322754
 42
0
  0
VERTEX
  8
0
 10
265.2650146484375
 20
10.265000343322754
 42
0
  0
VERTEX
  8
0
 10
265.2650146484375
 20
185.26499938964844
 42
-0
  0
VERTEX
  8
0
 10
185.26499938964844
 20
265.2650146484375
 42
0
  0
SEQEND
  0
POLYLINE
  8
0
 10
0
 20
0
 39
0
 70
1
 66
1
  0
VERTEX
  8
0
 10
10.265000343322754
 20
530.27001953125
 42
0
  0
VERTEX
  8
0
 10
10.265000343322754
 20
275.26998901367187
 42
0
  0
VERTEX
  8
0
 10
265.2650146484375
 20
275.26998901367187
 42
0
  0
VERTEX
  8
0
 10
265.2650146484375
 20
450.26998901367187
 42
-0
  0
VERTEX
  8
0
 10
185.26499938964844
 20
530.27001953125
 42
0
  0
SEQEND
  0
POLYLINE
  8
0
 10
0
 20
0
 39
0
 70
1
 66
1
  0
VERTEX
  8
0
 10
10.265000343322754
 20
795.2750244140625
 42
0
  0
VERTEX
  8
0
 10
10.265000343322754
 20
540.2750244140625
 42
0
  0
VERTEX
  8
0
 10
265.2650146484375
 20
540.2750244140625
 42
0
  0
VERTEX
  8
0
 10
265.2650146484375
 20
715.2750244140625
 42
-0
  0
VERTEX
  8
0
 10
185.26499938964844
 20
795.2750244140625
 42
0
  0
SEQEND
  0
POLYLINE
  8
0
 10
0
 20
0
 39
0
 70
1
 66
1
  0
VERTEX
  8
0
 10
435.69500732421875
 20
734.69000244140625
 42
0
  0
VERTEX
  8
0
 10
435.69500732421875
 20
989.69000244140625
 42
0
  0
VERTEX
  8
0
 10
180.69500732421875
 20
989.69000244140625
 42
0
  0
VERTEX
  8
0
 10
180.69500732421875
 20
814.69000244140625
 42
-0
  0
VERTEX
  8
0
 10
260.69500732421875
 20
734.69000244140625
 42
0
  0
SEQEND
  0
POLYLINE
  8
0
 10
0
 20
0
 39
0
 70
1
 66
1
  0
VERTEX
  8
0
 10
393.46499633789062
 20
10.265000343322754
 42
-0
  0
VERTEX
  8
0
 10
315.46499633789062
 20
310.2650146484375
 42
0
  0
VERTEX
  8
0
 10
275.46499633789062
 20
310.2650146484375
 42
0
  0
VERTEX
  8
0
 10
275.46499633789062
 20
10.265000343322754
 42
0
  0
SEQEND
  0
POLYLINE
  8
0
 10
0
 20
0
 39
0
 70
1
 66
1
  0
VERTEX
  8
0
 10
326.24301147460937
 20
310.2650146484375
 42
-0
  0
VERTEX
  8
0
 10
404.24301147460937
 20
10.265000343322754
 42
0
  0
VERTEX
  8
0
 10
444.24301147460937
 20
10.265000343322754
 42
0
  0
VERTEX
  8
0
 10
444.24301147460937
 20
310.2650146484375
 42
0
  0
SEQEND
  0
POLYLINE
  8
0
 10
0
 20
0
 39
0
 70
1
 66
1
  0
VERTEX
  8
0
 10
393.46499633789062
 20
320.31500244140625
 42
-0
  0
VERTEX
  8
0
 10
315.46499633789062
 20
620.31500244140625
 42
0
  0
VERTEX
  8
0
 10
275.46499633789062
 20
620.31500244140625
 42
0
  0
VERTEX
  8
0
 10
275.46499633789062
 20
320.31500244140625
 42
0
  0
SEQEND
  0
POLYLINE
  8
0
 10
0
 20
0
 39
0
 70
1
 66
1
  0
VERTEX
  8
0
 10
326.24301147460937
 20
620.31500244140625
 42
-0
  0
VERTEX
  8
0
 10
404.24301147460937
 20
320.31500244140625
 42
0
  0
VERTEX
  8
0
 10
444.24301147460937
 20
320.31500244140625
 42
0
  0
VERTEX
  8
0
 10
444.24301147460937
 20
620.31500244140625
 42
0
  0
SEQEND
  0
POLYLINE
  8
0
 10
0
 20
0
 39
0
 70
1
 66
1
  0
VERTEX
  8
0
 10
563.89501953125
 20
630.364990234375
 42
-0
  0
VERTEX
  8
0
 10
485.89498901367187
 20
930.364990234375
 42
0
  0
VERTEX
  8
0
 10
445.89498901367187
 20
930.364990234375
 42
0
  0
VERTEX
  8
0
 10
445.89498901367187
 20
630.364990234375
 42
0
  0
SEQEND
  0
POLYLINE
  8
0
 10
0
 20
0
 39
0
 70
1
 66
1
  0
VERTEX
  8
0
 10
496.67300415039062
 20
930.364990234375
 42
-0
  0
VERTEX
  8
0
 10
574.6729736328125
 20
630.364990234375
 42
0
  0
VERTEX
  8
0
 10
614.6729736328125
 20
630.364990234375
 42
0
  0
VERTEX
  8
0
 10
614.6729736328125
 20
930.364990234375
 42
0
  0
SEQEND
  0
POLYLINE
  8
0
 10
0
 20
0
 39
0
 70
1
 66
1
  0
VERTEX
  8
0
 10
572.4749755859375
 20
10.265000343322754
 42
-0
  0
VERTEX
  8
0
 10
494.47500610351562
 20
310.2650146484375
 42
0
  0
VERTEX
  8
0
 10
454.47500610351562
 20
310.2650146484375
 42
0
  0
VERTEX
  8
0
 10
454.47500610351562
 20
10.265000343322754
 42
0
  0
SEQEND
  0
POLYLINE
  8
0
 10
0
 20
0
 39
0
 70
1
 66
1
  0
VERTEX
  8
0
 10
505.25299072265625
 20
310.2650146484375
 42
-0
  0
VERTEX
  8
0
 10
583.25299072265625
 20
10.265000343322754
 42
0
  0
VERTEX
  8
0
 10
623.25299072265625
 20
10.265000343322754
 42
0
  0
VERTEX
  8
0
 10
623.25299072265625
 20
310.2650146484375
 42
0
  0
SEQEND
  0
POLYLINE
  8
0
 10
0
 20
0
 39
0
 70
1
 66
1
  0
VERTEX
  8
0
 10
572.4749755859375
 20
320.31500244140625
 42
-0
  0
VERTEX
  8
0
 10
494.47500610351562
 20
620.31500244140625
 42
0
  0
VERTEX
  8
0
 10
454.47500610351562
 20
620.31500244140625
 42
0
  0
VERTEX
  8
0
 10
454.47500610351562
 20
320.31500244140625
 42
0
  0
SEQEND
  0
POLYLINE
  8
0
 10
0
 20
0
 39
0
 70
1
 66
1
  0
VERTEX
  8
0
 10
505.25299072265625
 20
620.31500244140625
 42
-0
  0
VERTEX
  8
0
 10
583.25299072265625
 20
320.31500244140625
 42
0
  0
VERTEX
  8
0
 10
623.25299072265625
 20
320.31500244140625
 42
0
  0
VERTEX
  8
0
 10
623.25299072265625
 20
620.31500244140625
 42
0
  0
SEQEND
  0
POLYLINE
  8
0
 10
0
 20
0
 39
0
 70
1
 66
1
  0
VERTEX
  8
0
 10
742.905029296875
 20
630.364990234375
 42
-0
  0
VERTEX
  8
0
 10
664.905029296875
 20
930.364990234375
 42
0
  0
VERTEX
  8
0
 10
624.905029296875
 20
930.364990234375
 42
0
  0
VERTEX
  8
0
 10
624.905029296875
 20
630.364990234375
 42
0
  0
SEQEND
  0
POLYLINE
  8
0
 10
0
 20
0
 39
0
 70
1
 66
1
  0
VERTEX
  8
0
 10
675.6829833984375
 20
930.364990234375
 42
-0
  0
VERTEX
  8
0
 10
753.6829833984375
 20
630.364990234375
 42
0
  0
VERTEX
  8
0
 10
793.6829833984375
 20
630.364990234375
 42
0
  0
VERTEX
  8
0
 10
793.6829833984375
 20
930.364990234375
 42
0
  0
SEQEND
  0
POLYLINE
  8
0
 10
0
 20
0
 39
0
 70
1
 66
1
  0
VERTEX
  8
0
 10
751.4849853515625
 20
10.265000343322754
 42
-0
  0
VERTEX
  8
0
 10
673.4849853515625
 20
310.2650146484375
 42
0
  0
VERTEX
  8
0
 10
633.4849853515625
 20
310.2650146484375
 42
0
  0
VERTEX
  8
0
 10
633.4849853515625
 20
10.265000343322754
 42
0
  0
SEQEND
  0
POLYLINE
  8
0
 10
0
 20
0
 39
0
 70
1
 66
1
  0
VERTEX
  8
0
 10
684.26300048828125
 20
310.2650146484375
 42
-0
  0
VERTEX
  8
0
 10
762.26300048828125
 20
10.265000343322754
 42
0
  0
VERTEX
  8
0
 10
802.26300048828125
 20
10.265000343322754
 42
0
  0
VERTEX
  8
0
 10
802.26300048828125
 20
310.2650146484375
 42
0
  0
SEQEND
  0
POLYLINE
  8
0
 10
0
 20
0
 39
0
 70
1
 66
1
  0
VERTEX
  8
0
 10
751.4849853515625
 20
320.31500244140625
 42
-0
  0
VERTEX
  8
0
 10
673.4849853515625
 20
620.31500244140625
 42
0
  0
VERTEX
  8
0
 10
633.4849853515625
 20
620.31500244140625
 42
0
  0
VERTEX
  8
0
 10
633.4849853515625
 20
320.31500244140625
 42
0
  0
SEQEND
  0
POLYLINE
  8
0
 10
0
 20
0
 39
0
 70
1
 66
1
  0
VERTEX
  8
0
 10
684.26300048828125
 20
620.31500244140625
 42
-0
  0
VERTEX
  8
0
 10
762.26300048828125
 20
320.31500244140625
 42
0
  0
VERTEX
  8
0
 10
802.26300048828125
 20
320.31500244140625
 42
0
  0
VERTEX
  8
0
 10
802.26300048828125
 20
620.31500244140625
 42
0
  0
SEQEND
  0
POLYLINE
  8
0
 10
0
 20
0
 39
0
 70
1
 66
1
  0
VERTEX
  8
0
 10
1003.9149780273437
 20
630.364990234375
 42
0
  0
VERTEX
  8
0
 10
1003.9149780273437
 20
830.364990234375
 42
0
  0
VERTEX
  8
0
 10
803.91497802734375
 20
830.364990234375
 42
0
  0
VERTEX
  8
0
 10
803.91497802734375
 20
630.364990234375
 42
0
  0
SEQEND
  0
POLYLINE
  8
0
 10
0
 20
0
 39
0
 70
1
 66
1
  0
VERTEX
  8
0
 10
1012.4949951171875
 20
10.265000343322754
 42
0
  0
VERTEX
  8
0
 10
1012.4949951171875
 20
210.26499938964844
 42
0
  0
VERTEX
  8
0
 10
812.4949951171875
 20
210.26499938964844
 42
0
  0
VERTEX
  8
0
 10
812.4949951171875
 20
10.265000343322754
 42
0
  0
SEQEND
  0
POLYLINE
  8
0
 10
0
 20
0
 39
0
 70
1
 66
1
  0
VERTEX
  8
0
 10
1012.4949951171875
 20
220.27999877929687
 42
0
  0
VERTEX
  8
0
 10
1012.4949951171875
 20
420.27999877929687
 42
0
  0
VERTEX
  8
0
 10
812.4949951171875
 20
420.27999877929687
 42
0
  0
VERTEX
  8
0
 10
812.4949951171875
 20
220.27999877929687
 42
0
  0
SEQEND
  0
POLYLINE
  8
0
 10
0
 20
0
 39
0
 70
1
 66
1
  0
VERTEX
  8
0
 10
1214.125
 20
430.29501342773437
 42
0
  0
VERTEX
  8
0
 10
1214.125
 20
630.29498291015625
 42
0
  0
VERTEX
  8
0
 10
1014.125
 20
630.29498291015625
 42
0
  0
VERTEX
  8
0
 10
1014.125
 20
430.29501342773437
 42
0
  0
SEQEND
  0
POLYLINE
  8
0
 10
0
 20
0
 39
0
 70
1
 66
1
  0
VERTEX
  8
0
 10
837.4949951171875
 20
430.29501342773437
 42
-0
  0
VERTEX
  8
0
 10
942.4949951171875
 20
595.29498291015625
 42
0
  0
VERTEX
  8
0
 10
942.4949951171875
 20
615.29498291015625
 42
0
  0
VERTEX
  8
0
 10
822.4949951171875
 20
615.29498291015625
 42
0
  0
VERTEX
  8
0
 10
812.4949951171875
 20
605.29498291015625
 42
0
  0
VERTEX
  8
0
 10
812.4949951171875
 20
430.29501342773437
 42
0
  0
SEQEND
  0
POLYLINE
  8
0
 10
0
 20
0
 39
0
 70
1
 66
1
  0
VERTEX
  8
0
 10
967.27850341796875
 20
615.29498291015625
 42
-0
  0
VERTEX
  8
0
 10
862.27850341796875
 20
450.29501342773437
 42
0
  0
VERTEX
  8
0
 10
862.27850341796875
 20
430.29501342773437
 42
0
  0
VERTEX
  8
0
 10
982.27850341796875
 20
430.29501342773437
 42
0
  0
VERTEX
  8
0
 10
992.27850341796875
 20
440.29501342773437
 42
0
  0
VERTEX
  8
0
 10
992.27850341796875
 20
615.29498291015625
 42
0
  0
SEQEND
  0
POLYLINE
  8
0
 10
0
 20
0
 39
0
 70
1
 66
1
  0
VERTEX
  8
0
 10
1039.125
 20
640.30999755859375
 42
-0
  0
VERTEX
  8
0
 10
1144.125
 20
805.30999755859375
 42
0
  0
VERTEX
  8
0
 10
1144.125
 20
825.30999755859375
 42
0
  0
VERTEX
  8
0
 10
1024.125
 20
825.30999755859375
 42
0
  0
VERTEX
  8
0
 10
1014.125
 20
815.30999755859375
 42
0
  0
VERTEX
  8
0
 10
1014.125
 20
640.30999755859375
 42
0
  0
SEQEND
  0
POLYLINE
  8
0
 10
0
 20
0
 39
0
 70
1
 66
1
  0
VERTEX
  8
0
 10
1168.908447265625
 20
825.30999755859375
 42
-0
  0
VERTEX
  8
0
 10
1063.908447265625
 20
660.30999755859375
 42
0
  0
VERTEX
  8
0
 10
1063.908447265625
 20
640.30999755859375
 42
0
  0
VERTEX
  8
0
 10
1183.908447265625
 20
640.30999755859375
 42
0
  0
VERTEX
  8
0
 10
1193.908447265625
 20
650.30999755859375
 42
0
  0
VERTEX
  8
0
 10
1193.908447265625
 20
825.30999755859375
 42
0
  0
SEQEND
  0
POLYLINE
  8
0
 10
0
 20
0
 39
0
 70
1
 66
1
  0
VERTEX
  8
0
 10
1047.7049560546875
 20
10.265000343322754
 42
-0
  0
VERTEX
  8
0
 10
1152.7049560546875
 20
175.26499938964844
 42
0
  0
VERTEX
  8
0
 10
1152.7049560546875
 20
195.26499938964844
 42
0
  0
VERTEX
  8
0
 10
1032.7049560546875
 20
195.26499938964844
 42
0
  0
VERTEX
  8
0
 10
1022.7050170898437
 20
185.26499938964844
 42
0
  0
VERTEX
  8
0
 10
1022.7050170898437
 20
10.265000343322754
 42
0
  0
SEQEND
  0
POLYLINE
  8
0
 10
0
 20
0
 39
0
 70
1
 66
1
  0
VERTEX
  8
0
 10
1177.488525390625
 20
195.26499938964844
 42
-0
  0
VERTEX
  8
0
 10
1072.488525390625
 20
30.264999389648437
 42
0
  0
VERTEX
  8
0
 10
1072.488525390625
 20
10.265000343322754
 42
0
  0
VERTEX
  8
0
 10
1192.488525390625
 20
10.265000343322754
 42
0
  0
VERTEX
  8
0
 10
1202.488525390625
 20
20.264999389648438
 42
0
  0
VERTEX
  8
0
 10
1202.488525390625
 20
195.26499938964844
 42
0
  0
SEQEND
  0
POLYLINE
  8
0
 10
0
 20
0
 39
0
 70
1
 66
1
  0
VERTEX
  8
0
 10
1047.7049560546875
 20
205.46000671386719
 42
-0
  0
VERTEX
  8
0
 10
1152.7049560546875
 20
370.45999145507812
 42
0
  0
VERTEX
  8
0
 10
1152.7049560546875
 20
390.45999145507812
 42
0
  0
VERTEX
  8
0
 10
1032.7049560546875
 20
390.45999145507812
 42
0
  0
VERTEX
  8
0
 10
1022.7050170898437
 20
380.45999145507812
 42
0
  0
VERTEX
  8
0
 10
1022.7050170898437
 20
205.46000671386719
 42
0
  0
SEQEND
  0
POLYLINE
  8
0
 10
0
 20
0
 39
0
 70
1
 66
1
  0
VERTEX
  8
0
 10
1177.488525390625
 20
390.45999145507812
 42
-0
  0
VERTEX
  8
0
 10
1072.488525390625
 20
225.46000671386719
 42
0
  0
VERTEX
  8
0
 10
1072.488525390625
 20
205.46000671386719
 42
0
  0
VERTEX
  8
0
 10
1192.488525390625
 20
205.46000671386719
 42
0
  0
VERTEX
  8
0
 10
1202.488525390625
 20
215.46000671386719
 42
0
  0
VERTEX
  8
0
 10
1202.488525390625
 20
390.45999145507812
 42
0
  0
SEQEND
  0
POLYLINE
  8
0
 10
0
 20
0
 39
0
 70
1
 66
1
  0
VERTEX
  8
0
 10
1229.25
 20
640.30999755859375
 42
-0
  0
VERTEX
  8
0
 10
1334.25
 20
805.30999755859375
 42
0
  0
VERTEX
  8
0
 10
1334.25
 20
825.30999755859375
 42
0
  0
VERTEX
  8
0
 10
1214.25
 20
825.30999755859375
 42
0
  0
VERTEX
  8
0
 10
1204.25
 20
815.30999755859375
 42
0
  0
VERTEX
  8
0
 10
1204.25
 20
640.30999755859375
 42
0
  0
SEQEND
  0
POLYLINE
  8
0
 10
0
 20
0
 39
0
 70
1
 66
1
  0
VERTEX
  8
0
 10
1359.033447265625
 20
825.30999755859375
 42
-0
  0
VERTEX
  8
0
 10
1254.033447265625
 20
660.30999755859375
 42
0
  0
VERTEX
  8
0
 10
1254.033447265625
 20
640.30999755859375
 42
0
  0
VERTEX
  8
0
 10
1374.033447265625
 20
640.30999755859375
 42
0
  0
VERTEX
  8
0
 10
1384.033447265625
 20
650.30999755859375
 42
0
  0
VERTEX
  8
0
 10
1384.033447265625
 20
825.30999755859375
 42
0
  0
SEQEND
  0
POLYLINE
  8
0
 10
0
 20
0
 39
0
 70
1
 66
1
  0
VERTEX
  8
0
 10
1237.8299560546875
 20
10.265000343322754
 42
-0
  0
VERTEX
  8
0
 10
1342.8299560546875
 20
175.26499938964844
 42
0
  0
VERTEX
  8
0
 10
1342.8299560546875
 20
195.26499938964844
 42
0
  0
VERTEX
  8
0
 10
1222.8299560546875
 20
195.26499938964844
 42
0
  0
VERTEX
  8
0
 10
1212.8299560546875
 20
185.26499938964844
 42
0
  0
VERTEX
  8
0
 10
1212.8299560546875
 20
10.265000343322754
 42
0
  0
SEQEND
  0
POLYLINE
  8
0
 10
0
 20
0
 39
0
 70
1
 66
1
  0
VERTEX
  8
0
 10
1367.613525390625
 20
195.26499938964844
 42
-0
  0
VERTEX
  8
0
 10
1262.613525390625
 20
30.264999389648437
 42
0
  0
VERTEX
  8
0
 10
1262.613525390625
 20
10.265000343322754
 42
0
  0
VERTEX
  8
0
 10
1382.613525390625
 20
10.265000343322754
 42
0
  0
VERTEX
  8
0
 10
1392.613525390625
 20
20.264999389648438
 42
0
  0
VERTEX
  8
0
 10
1392.613525390625
 20
195.26499938964844
 42
0
  0
SEQEND
  0
POLYLINE
  8
0
 10
0
 20
0
 39
0
 70
1
 66
1
  0
VERTEX
  8
0
 10
1237.8299560546875
 20
205.46000671386719
 42
-0
  0
VERTEX
  8
0
 10
1342.8299560546875
 20
370.45999145507812
 42
0
  0
VERTEX
  8
0
 10
1342.8299560546875
 20
390.45999145507812
 42
0
  0
VERTEX
  8
0
 10
1222.8299560546875
 20
390.45999145507812
 42
0
  0
VERTEX
  8
0
 10
1212.8299560546875
 20
380.45999145507812
 42
0
  0
VERTEX
  8
0
 10
1212.8299560546875
 20
205.46000671386719
 42
0
  0
SEQEND
  0
POLYLINE
  8
0
 10
0
 20
0
 39
0
 70
1
 66
1
  0
VERTEX
  8
0
 10
1367.613525390625
 20
390.45999145507812
 42
-0
  0
VERTEX
  8
0
 10
1262.613525390625
 20
225.46000671386719
 42
0
  0
VERTEX
  8
0
 10
1262.613525390625
 20
205.46000671386719
 42
0
  0
VERTEX
  8
0
 10
1382.613525390625
 20
205.46000671386719
 42
0
  0
VERTEX
  8
0
 10
1392.613525390625
 20
215.46000671386719
 42
0
  0
VERTEX
  8
0
 10
1392.613525390625
 20
390.45999145507812
 42
0
  0
SEQEND
  0
POLYLINE
  8
0
 10
0
 20
0
 39
0
 70
1
 66
1
  0
VERTEX
  8
0
 10
1249.3349609375
 20
400.65499877929687
 42
-0
  0
VERTEX
  8
0
 10
1354.3349609375
 20
565.655029296875
 42
0
  0
VERTEX
  8
0
 10
1354.3349609375
 20
585.655029296875
 42
0
  0
VERTEX
  8
0
 10
1234.3349609375
 20
585.655029296875
 42
0
  0
VERTEX
  8
0
 10
1224.3349609375
 20
575.655029296875
 42
0
  0
VERTEX
  8
0
 10
1224.3349609375
 20
400.65499877929687
 42
0
  0
SEQEND
  0
POLYLINE
  8
0
 10
0
 20
0
 39
0
 70
1
 66
1
  0
VERTEX
  8
0
 10
1379.1185302734375
 20
585.655029296875
 42
-0
  0
VERTEX
  8
0
 10
1274.1185302734375
 20
420.65499877929687
 42
0
  0
VERTEX
  8
0
 10
1274.1185302734375
 20
400.65499877929687
 42
0
  0
VERTEX
  8
0
 10
1394.1185302734375
 20
400.65499877929687
 42
0
  0
VERTEX
  8
0
 10
1404.1185302734375
 20
410.65499877929687
 42
0
  0
VERTEX
  8
0
 10
1404.1185302734375
 20
585.655029296875
 42
0
  0
SEQEND
  0
POLYLINE
  8
0
 10
0
 20
0
 39
0
 70
1
 66
1
  0
VERTEX
  8
0
 10
1419.375
 20
595.8499755859375
 42
-0
  0
VERTEX
  8
0
 10
1524.375
 20
760.8499755859375
 42
0
  0
VERTEX
  8
0
 10
1524.375
 20
780.8499755859375
 42
0
  0
VERTEX
  8
0
 10
1404.375
 20
780.8499755859375
 42
0
  0
VERTEX
  8
0
 10
1394.375
 20
770.8499755859375
 42
0
  0
VERTEX
  8
0
 10
1394.375
 20
595.8499755859375
 42
0
  0
SEQEND
  0
POLYLINE
  8
0
 10
0
 20
0
 39
0
 70
1
 66
1
  0
VERTEX
  8
0
 10
1549.158447265625
 20
780.8499755859375
 42
-0
  0
VERTEX
  8
0
 10
1444.158447265625
 20
615.8499755859375
 42
0
  0
VERTEX
  8
0
 10
1444.158447265625
 20
595.8499755859375
 42
0
  0
VERTEX
  8
0
 10
1564.158447265625
 20
595.8499755859375
 42
0
  0
VERTEX
  8
0
 10
1574.158447265625
 20
605.8499755859375
 42
0
  0
VERTEX
  8
0
 10
1574.158447265625
 20
780.8499755859375
 42
0
  0
SEQEND
  0
POLYLINE
  8
0
 10
0
 20
0
 39
0
 70
1
 66
1
  0
VERTEX
  8
0
 10
1419.375
 20
791.04498291015625
 42
-0
  0
VERTEX
  8
0
 10
1524.375
 20
956.04498291015625
 42
0
  0
VERTEX
  8
0
 10
1524.375
 20
976.04498291015625
 42
0
  0
VERTEX
  8
0
 10
1404.375
 20
976.04498291015625
 42
0
  0
VERTEX
  8
0
 10
1394.375
 20
966.04498291015625
 42
0
  0
VERTEX
  8
0
 10
1394.375
 20
791.04498291015625
 42
0
  0
SEQEND
  0
POLYLINE
  8
0
 10
0
 20
0
 39
0
 70
1
 66
1
  0
VERTEX
  8
0
 10
1549.158447265625
 20
976.04498291015625
 42
-0
  0
VERTEX
  8
0
 10
1444.158447265625
 20
811.04498291015625
 42
0
  0
VERTEX
  8
0
 10
1444.158447265625
 20
791.04498291015625
 42
0
  0
VERTEX
  8
0
 10
1564.158447265625
 20
791.04498291015625
 42
0
  0
VERTEX
  8
0
 10
1574.158447265625
 20
801.04498291015625
 42
0
  0
VERTEX
  8
0
 10
1574.158447265625
 20
976.04498291015625
 42
0
  0
SEQEND
  0
POLYLINE
  8
0
 10
0
 20
0
 39
0
 70
1
 66
1
  0
VERTEX
  8
0
 10
1427.9549560546875
 20
10.265000343322754
 42
-0
  0
VERTEX
  8
0
 10
1532.9549560546875
 20
175.26499938964844
 42
0
  0
VERTEX
  8
0
 10
1532.9549560546875
 20
195.26499938964844
 42
0
  0
VERTEX
  8
0
 10
1412.9549560546875
 20
195.26499938964844
 42
0
  0
VERTEX
  8
0
 10
1402.9549560546875
 20
185.26499938964844
 42
0
  0
VERTEX
  8
0
 10
1402.9549560546875
 20
10.265000343322754
 42
0
  0
SEQEND
  0
POLYLINE
  8
0
 10
0
 20
0
 39
0
 70
1
 66
1
  0
VERTEX
  8
0
 10
1557.738525390625
 20
195.26499938964844
 42
-0
  0
VERTEX
  8
0
 10
1452.738525390625
 20
30.264999389648437
 42
0
  0
VERTEX
  8
0
 10
1452.738525390625
 20
10.265000343322754
 42
0
  0
VERTEX
  8
0
 10
1572.738525390625
 20
10.265000343322754
 42
0
  0
VERTEX
  8
0
 10
1582.738525390625
 20
20.264999389648438
 42
0
  0
VERTEX
  8
0
 10
1582.738525390625
 20
195.26499938964844
 42
0
  0
SEQEND
  0
POLYLINE
  8
0
 10
0
 20
0
 39
0
 70
1
 66
1
  0
VERTEX
  8
0
 10
1427.9549560546875
 20
205.46000671386719
 42
-0
  0
VERTEX
  8
0
 10
1532.9549560546875
 20
370.45999145507812
 42
0
  0
VERTEX
  8
0
 10
1532.9549560546875
 20
390.45999145507812
 42
0
  0
VERTEX
  8
0
 10
1412.9549560546875
 20
390.45999145507812
 42
0
  0
VERTEX
  8
0
 10
1402.9549560546875
 20
380.45999145507812
 42
0
  0
VERTEX
  8
0
 10
1402.9549560546875
 20
205.46000671386719
 42
0
  0
SEQEND
  0
POLYLINE
  8
0
 10
0
 20
0
 39
0
 70
1
 66
1
  0
VERTEX
  8
0
 10
1557.738525390625
 20
390.45999145507812
 42
-0
  0
VERTEX
  8
0
 10
1452.738525390625
 20
225.46000671386719
 42
0
  0
VERTEX
  8
0
 10
1452.738525390625
 20
205.46000671386719
 42
0
  0
VERTEX
  8
0
 10
1572.738525390625
 20
205.46000671386719
 42
0
  0
VERTEX
  8
0
 10
1582.738525390625
 20
215.46000671386719
 42
0
  0
VERTEX
  8
0
 10
1582.738525390625
 20
390.45999145507812
 42
0
  0
SEQEND
  0
POLYLINE
  8
0
 10
0
 20
0
 39
0
 70
1
 66
1
  0
VERTEX
  8
0
 10
1023.9149780273437
 20
840.3800048828125
 42
-0
  0
VERTEX
  8
0
 10
1023.9149780273437
 20
965.3800048828125
 42
-0
  0
VERTEX
  8
0
 10
803.91497802734375
 20
840.3800048828125
 42
0
  0
SEQEND
  0
POLYLINE
  8
0
 10
0
 20
0
 39
0
 70
1
 66
1
  0
VERTEX
  8
0
 10
803.91497802734375
 20
977.17901611328125
 42
-0
  0
VERTEX
  8
0
 10
803.91497802734375
 20
852.17901611328125
 42
-0
  0
VERTEX
  8
0
 10
1023.9149780273437
 20
977.17901611328125
 42
0
  0
SEQEND
  0
POLYLINE
  8
0
 10
0
 20
0
 39
0
 70
1
 66
1
  0
VERTEX
  8
0
 10
1254.2099609375
 20
835.5050048828125
 42
-0
  0
VERTEX
  8
0
 10
1254.2099609375
 20
960.5050048828125
 42
-0
  0
VERTEX
  8
0
 10
1034.2099609375
 20
835.5050048828125
 42
0
  0
SEQEND
  0
POLYLINE
  8
0
 10
0
 20
0
 39
0
 70
1
 66
1
  0
VERTEX
  8
0
 10
1034.2099609375
 20
972.30401611328125
 42
-0
  0
VERTEX
  8
0
 10
1034.2099609375
 20
847.30401611328125
 42
-0
  0
VERTEX
  8
0
 10
1254.2099609375
 20
972.30401611328125
 42
0
  0
SEQEND
  0
POLYLINE
  8
0
 10
0
 20
0
 39
0
 70
1
 66
1
  0
VERTEX
  8
0
 10
1634.4599609375
 20
400.65499877929687
 42
-0
  0
VERTEX
  8
0
 10
1634.4599609375
 20
525.655029296875
 42
-0
  0
VERTEX
  8
0
 10
1414.4599609375
 20
400.65499877929687
 42
0
  0
SEQEND
  0
POLYLINE
  8
0
 10
0
 20
0
 39
0
 70
1
 66
1
  0
VERTEX
  8
0
 10
1414.4599609375
 20
537.4539794921875
 42
-0
  0
VERTEX
  8
0
 10
1414.4599609375
 20
412.45401000976563
 42
-0
  0
VERTEX
  8
0
 10
1634.4599609375
 20
537.4539794921875
 42
0
  0
SEQEND
  0
POLYLINE
  8
0
 10
0
 20
0
 39
0
 70
1
 66
1
  0
VERTEX
  8
0
 10
1584.5
 20
547.489990234375
 42
-0
  0
VERTEX
  8
0
 10
1709.5
 20
547.489990234375
 42
-0
  0
VERTEX
  8
0
 10
1584.5
 20
767.489990234375
 42
0
  0
SEQEND
  0
POLYLINE
  8
0
 10
0
 20
0
 39
0
 70
1
 66
1
  0
VERTEX
  8
0
 10
1721.2989501953125
 20
767.489990234375
 42
-0
  0
VERTEX
  8
0
 10
1596.2989501953125
 20
767.489990234375
 42
-0
  0
VERTEX
  8
0
 10
1721.2989501953125
 20
547.489990234375
 42
0
  0
SEQEND
  0
POLYLINE
  8
0
 10
0
 20
0
 39
0
 70
1
 66
1
  0
VERTEX
  8
0
 10
1593.0799560546875
 20
10.265000343322754
 42
-0
  0
VERTEX
  8
0
 10
1718.0799560546875
 20
10.265000343322754
 42
-0
  0
VERTEX
  8
0
 10
1593.0799560546875
 20
230.26499938964844
 42
0
  0
SEQEND
  0
POLYLINE
  8
0
 10
0
 20
0
 39
0
 70
1
 66
1
  0
VERTEX
  8
0
 10
1729.8790283203125
 20
230.26499938964844
 42
-0
  0
VERTEX
  8
0
 10
1604.8790283203125
 20
230.26499938964844
 42
-0
  0
VERTEX
  8
0
 10
1729.8790283203125
 20
10.265000343322754
 42
0
  0
SEQEND
  0
POLYLINE
  8
0
 10
0
 20
0
 39
0
 70
1
 66
1
  0
VERTEX
  8
0
 10
1644.7550048828125
 20
240.36500549316406
 42
-0
  0
VERTEX
  8
0
 10
1769.7550048828125
 20
240.36500549316406
 42
-0
  0
VERTEX
  8
0
 10
1644.7550048828125
 20
460.364990234375
 42
0
  0
SEQEND
  0
POLYLINE
  8
0
 10
0
 20
0
 39
0
 70
1
 66
1
  0
VERTEX
  8
0
 10
1781.553955078125
 20
460.364990234375
 42
-0
  0
VERTEX
  8
0
 10
1656.553955078125
 20
460.364990234375
 42
-0
  0
VERTEX
  8
0
 10
1781.553955078125
 20
240.36500549316406
 42
0
  0
SEQEND
  0
POLYLINE
  8
0
 10
0
 20
0
 39
0
 70
1
 66
1
  0
VERTEX
  8
0
 10
1731.530029296875
 20
727.9649658203125
 42
-0
  0
VERTEX
  8
0
 10
1731.530029296875
 20
497.96493530273437
 42
0.50842314958572388
  0
VERTEX
  8
0
 10
1767.436279296875
 20
471.78134155273437
 42
0.32588791847229004
  0
VERTEX
  8
0
 10
1786.530029296875
 20
497.96493530273437
 42
-0
  0
VERTEX
  8
0
 10
1786.530029296875
 20
727.9649658203125
 42
1
  0
SEQEND
  0
POLYLINE
  8
0
 10
0
 20
0
 39
0
 70
1
 66
1
  0
VERTEX
  8
0
 10
1759.030029296875
 20
482.96493530273437
 42
-1
  0
VERTEX
  8
0
 10
1759.030029296875
 20
512.9649658203125
 42
-1
  0
SEQEND
  0
POLYLINE
  8
0
 10
0
 20
0
 39
0
 70
1
 66
1
  0
VERTEX
  8
0
 10
1759.030029296875
 20
712.9649658203125
 42
-1
  0
VERTEX
  8
0
 10
1759.030029296875
 20
742.9649658203125
 42
-1
  0
SEQEND
  0
POLYLINE
  8
0
 10
0
 20
0
 39
0
 70
1
 66
1
  0
VERTEX
  8
0
 10
1791.7850341796875
 20
267.76492309570312
 42
-0
  0
VERTEX
  8
0
 10
1791.7850341796875
 20
37.764938354492187
 42
0.50842314958572388
  0
VERTEX
  8
0
 10
1827.6912841796875
 20
11.581344604492188
 42
0.32588791847229004
  0
VERTEX
  8
0
 10
1846.7850341796875
 20
37.764938354492187
 42
-0
  0
VERTEX
  8
0
 10
1846.7850341796875
 20
267.76492309570312
 42
1
  0
SEQEND
  0
POLYLINE
  8
0
 10
0
 20
0
 39
0
 70
1
 66
1
  0
VERTEX
  8
0
 10
1819.2850341796875
 20
22.764938354492188
 42
-1
  0
VERTEX
  8
0
 10
1819.2850341796875
 20
52.764938354492188
 42
-1
  0
SEQEND
  0
POLYLINE
  8
0
 10
0
 20
0
 39
0
 70
1
 66
1
  0
VERTEX
  8
0
 10
1819.2850341796875
 20
252.76493835449219
 42
-1
  0
VERTEX
  8
0
 10
1819.2850341796875
 20
282.76492309570312
 42
-1
  0
SEQEND
  0
POLYLINE
  8
0
 10
0
 20
0
 39
0
 70
1
 66
1
  0
VERTEX
  8
0
 10
1796.85498046875
 20
562.7999267578125
 42
-0
  0
VERTEX
  8
0
 10
1796.85498046875
 20
332.7999267578125
 42
0.50842314958572388
  0
VERTEX
  8
0
 10
1832.76123046875
 20
306.6163330078125
 42
0.32588791847229004
  0
VERTEX
  8
0
 10
1851.85498046875
 20
332.7999267578125
 42
-0
  0
VERTEX
  8
0
 10
1851.85498046875
 20
562.7999267578125
 42
1
  0
SEQEND
  0
POLYLINE
  8
0
 10
0
 20
0
 39
0
 70
1
 66
1
  0
VERTEX
  8
0
 10
1824.35498046875
 20
317.7999267578125
 42
-1
  0
VERTEX
  8
0
 10
1824.35498046875
 20
347.7999267578125
 42
-1
  0
SEQEND
  0
POLYLINE
  8
0
 10
0
 20
0
 39
0
 70
1
 66
1
  0
VERTEX
  8
0
 10
1824.35498046875
 20
547.7999267578125
 42
-1
  0
VERTEX
  8
0
 10
1824.35498046875
 20
577.7999267578125
 42
-1
  0
SEQEND
  0
POLYLINE
  8
0
 10
0
 20
0
 39
0
 70
1
 66
1
  0
VERTEX
  8
0
 10
1796.85498046875
 20
857.8349609375
 42
-0
  0
VERTEX
  8
0
 10
1796.85498046875
 20
627.8349609375
 42
0.50842314958572388
  0
VERTEX
  8
0
 10
1832.76123046875
 20
601.6513671875
 42
0.32588791847229004
  0
VERTEX
  8
0
 10
1851.85498046875
 20
627.8349609375
 42
-0
  0
VERTEX
  8
0
 10
1851.85498046875
 20
857.8349609375
 42
1
  0
SEQEND
  0
POLYLINE
  8
0
 10
0
 20
0
 39
0
 70
1
 66
1
  0
VERTEX
  8
0
 10
1824.35498046875
 20
612.8349609375
 42
-1
  0
VERTEX
  8
0
 10
1824.35498046875
 20
642.8349609375
 42
-1
  0
SEQEND
  0
POLYLINE
  8
0
 10
0
 20
0
 39
0
 70
1
 66
1
  0
VERTEX
  8
0
 10
1824.35498046875
 20
842.8349609375
 42
-1
  0
VERTEX
  8
0
 10
1824.35498046875
 20
872.8349609375
 42
-1
  0
SEQEND
  0
POLYLINE
  8
0
 10
0
 20
0
 39
0
 70
1
 66
1
  0
VERTEX
  8
0
 10
1612
 20
895.3699951171875
 42
-0
  0
VERTEX
  8
0
 10
1842
 20
895.3699951171875
 42
0.50842314958572388
  0
VERTEX
  8
0
 10
1868.18359375
 20
931.2762451171875
 42
0.32588791847229004
  0
VERTEX
  8
0
 10
1842
 20
950.3699951171875
 42
-0
  0
VERTEX
  8
0
 10
1612
 20
950.3699951171875
 42
1
  0
SEQEND
  0
POLYLINE
  8
0
 10
0
 20
0
 39
0
 70
1
 66
1
  0
VERTEX
  8
0
 10
1857
 20
922.8699951171875
 42
-1
  0
VERTEX
  8
0
 10
1827
 20
922.8699951171875
 42
-1
  0
SEQEND
  0
POLYLINE
  8
0
 10
0
 20
0
 39
0
 70
1
 66
1
  0
VERTEX
  8
0
 10
1627
 20
922.8699951171875
 42
-1
  0
VERTEX
  8
0
 10
1597
 20
922.8699951171875
 42
-1
  0
SEQEND
  0
POLYLINE
  8
0
 10
0
 20
0
 39
0
 70
1
 66
1
  0
VERTEX
  8
0
 10
1857.1099853515625
 20
267.76492309570312
 42
-0
  0
VERTEX
  8
0
 10
1857.1099853515625
 20
37.764938354492187
 42
0.50842314958572388
  0
VERTEX
  8
0
 10
1893.0162353515625
 20
11.581344604492188
 42
0.32588791847229004
  0
VERTEX
  8
0
 10
1912.1099853515625
 20
37.764938354492187
 42
-0
  0
VERTEX
  8
0
 10
1912.1099853515625
 20
267.76492309570312
 42
1
  0
SEQEND
  0
POLYLINE
  8
0
 10
0
 20
0
 39
0
 70
1
 66
1
  0
VERTEX
  8
0
 10
1884.6099853515625
 20
22.764938354492188
 42
-1
  0
VERTEX
  8
0
 10
1884.6099853515625
 20
52.764938354492188
 42
-1
  0
SEQEND
  0
POLYLINE
  8
0
 10
0
 20
0
 39
0
 70
1
 66
1
  0
VERTEX
  8
0
 10
1884.6099853515625
 20
252.76493835449219
 42
-1
  0
VERTEX
  8
0
 10
1884.6099853515625
 20
282.76492309570312
 42
-1
  0
SEQEND
  0
POLYLINE
  8
0
 10
0
 20
0
 39
0
 70
1
 66
1
  0
VERTEX
  8
0
 10
1862.1800537109375
 20
562.7999267578125
 42
-0
  0
VERTEX
  8
0
 10
1862.1800537109375
 20
332.7999267578125
 42
0.50842314958572388
  0
VERTEX
  8
0
 10
1898.0863037109375
 20
306.6163330078125
 42
0.32588791847229004
  0
VERTEX
  8
0
 10
1917.1800537109375
 20
332.7999267578125
 42
-0
  0
VERTEX
  8
0
 10
1917.1800537109375
 20
562.7999267578125
 42
1
  0
SEQEND
  0
POLYLINE
  8
0
 10
0
 20
0
 39
0
 70
1
 66
1
  0
VERTEX
  8
0
 10
1889.6800537109375
 20
317.7999267578125
 42
-1
  0
VERTEX
  8
0
 10
1889.6800537109375
 20
347.7999267578125
 42
-1
  0
SEQEND
  0
POLYLINE
  8
0
 10
0
 20
0
 39
0
 70
1
 66
1
  0
VERTEX
  8
0
 10
1889.6800537109375
 20
547.7999267578125
 42
-1
  0
VERTEX
  8
0
 10
1889.6800537109375
 20
577.7999267578125
 42
-1
  0
SEQEND
  0
POLYLINE
  8
0
 10
0
 20
0
 39
0
 70
1
 66
1
  0
VERTEX
  8
0
 10
1862.1800537109375
 20
857.8349609375
 42
-0
  0
VERTEX
  8
0
 10
1862.1800537109375
 20
627.8349609375
 42
0.50842314958572388
  0
VERTEX
  8
0
 10
1898.0863037109375
 20
601.6513671875
 42
0.32588791847229004
  0
VERTEX
  8
0
 10
1917.1800537109375
 20
627.8349609375
 42
-0
  0
VERTEX
  8
0
 10
1917.1800537109375
 20
857.8349609375
 42
1
  0
SEQEND
  0
POLYLINE
  8
0
 10
0
 20
0
 39
0
 70
1
 66
1
  0
VERTEX
  8
0
 10
1889.6800537109375
 20
612.8349609375
 42
-1
  0
VERTEX
  8
0
 10
1889.6800537109375
 20
642.8349609375
 42
-1
  0
SEQEND
  0
POLYLINE
  8
0
 10
0
 20
0
 39
0
 70
1
 66
1
  0
VERTEX
  8
0
 10
1889.6800537109375
 20
842.8349609375
 42
-1
  0
VERTEX
  8
0
 10
1889.6800537109375
 20
872.8349609375
 42
-1
  0
SEQEND
  0
POLYLINE
  8
0
 10
0
 20
0
 39
0
 70
1
 66
1
  0
VERTEX
  8
0
 10
10.265000343322754
 20
907.280029296875
 42
0
  0
VERTEX
  8
0
 10
10.265000343322754
 20
805.280029296875
 42
0
  0
VERTEX
  8
0
 10
45.264999389648438
 20
805.280029296875
 42
0.66617089509963989
  0
VERTEX
  8
0
 10
64.818199157714844
 20
852.1170654296875
 42
0
  0
SEQEND
  0
POLYLINE
  8
0
 10
0
 20
0
 39
0
 70
1
 66
1
  0
VERTEX
  8
0
 10
72.764999389648437
 20
858.4351806640625
 42
0
  0
VERTEX
  8
0
 10
72.764999389648437
 20
960.4351806640625
 42
0
  0
VERTEX
  8
0
 10
37.764999389648438
 20
960.4351806640625
 42
0.66617089509963989
  0
VERTEX
  8
0
 10
18.211801528930664
 20
913.59814453125
 42
0
  0
SEQEND
  0
POLYLINE
  8
0
 10
0
 20
0
 39
0
 70
1
 66
1
  0
VERTEX
  8
0
 10
83
 20
907.280029296875
 42
0
  0
VERTEX
  8
0
 10
83
 20
805.280029296875
 42
0
  0
VERTEX
  8
0
 10
118
 20
805.280029296875
 42
0.66617089509963989
  0
VERTEX
  8
0
 10
137.55319213867187
 20
852.1170654296875
 42
0
  0
SEQEND
  0
POLYLINE
  8
0
 10
0
 20
0
 39
0
 70
1
 66
1
  0
VERTEX
  8
0
 10
145.5
 20
858.4351806640625
 42
0
  0
VERTEX
  8
0
 10
145.5
 20
960.4351806640625
 42
0
  0
VERTEX
  8
0
 10
110.5
 20
960.4351806640625
 42
0.66617089509963989
  0
VERTEX
  8
0
 10
90.946800231933594
 20
913.59814453125
 42
0
  0
SEQEND
  0
POLYLINE
  8
0
 10
0
 20
0
 39
0
 70
1
 66
1
  0
VERTEX
  8
0
 10
328.62020874023437
 20
630.364990234375
 42
0
  0
VERTEX
  8
0
 10
430.62020874023437
 20
630.364990234375
 42
0
  0
VERTEX
  8
0
 10
430.62020874023437
 20
665.364990234375
 42
0.66617089509963989
  0
VERTEX
  8
0
 10
383.78311157226562
 20
684.918212890625
 42
0
  0
SEQEND
  0
POLYLINE
  8
0
 10
0
 20
0
 39
0
 70
1
 66
1
  0
VERTEX
  8
0
 10
377.46499633789062
 20
692.864990234375
 42
0
  0
VERTEX
  8
0
 10
275.46499633789062
 20
692.864990234375
 42
0
  0
VERTEX
  8
0
 10
275.46499633789062
 20
657.864990234375
 42
0.66617089509963989
  0
VERTEX
  8
0
 10
322.30206298828125
 20
638.31182861328125
 42
0
  0
SEQEND
  0
POLYLINE
  8
0
 10
0
 20
0
 39
0
 70
1
 66
1
  0
VERTEX
  8
0
 10
1637.6551513671875
 20
777.59002685546875
 42
0
  0
VERTEX
  8
0
 10
1739.6551513671875
 20
777.59002685546875
 42
0
  0
VERTEX
  8
0
 10
1739.6551513671875
 20
812.59002685546875
 42
0.66617089509963989
  0
VERTEX
  8
0
 10
1692.818115234375
 20
832.1431884765625
 42
0
  0
SEQEND
  0
POLYLINE
  8
0
 10
0
 20
0
 39
0
 70
1
 66
1
  0
VERTEX
  8
0
 10
1686.5
 20
840.09002685546875
 42
0
  0
VERTEX
  8
0
 10
1584.5
 20
840.09002685546875
 42
0
  0
VERTEX
  8
0
 10
1584.5
 20
805.09002685546875
 42
0.66617089509963989
  0
VERTEX
  8
0
 10
1631.3370361328125
 20
785.53680419921875
 42
0
  0
SEQEND
  0
POLYLINE
  8
0
 10
0
 20
0
 39
0
 70
1
 66
1
  0
VERTEX
  8
0
 10
1324.5050048828125
 20
935.5050048828125
 42
-0
  0
VERTEX
  8
0
 10
1274.5050048828125
 20
935.5050048828125
 42
0.41421356797218323
  0
VERTEX
  8
0
 10
1264.5050048828125
 20
925.5050048828125
 42
-0
  0
VERTEX
  8
0
 10
1264.5050048828125
 20
845.5050048828125
 42
0.41421356797218323
  0
VERTEX
  8
0
 10
1274.5050048828125
 20
835.5050048828125
 42
-0
  0
VERTEX
  8
0
 10
1324.5050048828125
 20
835.5050048828125
 42
0.41421356797218323
  0
VERTEX
  8
0
 10
1334.5050048828125
 20
845.5050048828125
 42
-0
  0
VERTEX
  8
0
 10
1334.5050048828125
 20
925.5050048828125
 42
0.41421356797218323
  0
SEQEND
  0
POLYLINE
  8
0
 10
0
 20
0
 39
0
 70
1
 66
1
  0
VERTEX
  8
0
 10
1929.5550537109375
 20
887.375
 42
0
  0
VERTEX
  8
0
 10
1929.5550537109375
 20
989.375
 42
0
  0
VERTEX
  8
0
 10
1894.5550537109375
 20
989.375
 42
0.66617089509963989
  0
VERTEX
  8
0
 10
1875.0018310546875
 20
942.53790283203125
 42
0
  0
SEQEND
  0
ENDSEC
  0
EOF
