  0
SECTION
  2
ENTITIES
  0
POLYLINE
  8
0
 10
0
 20
0
 39
0
 70
1
 66
1
  0
VERTEX
  8
0
 10
0
 20
0
 42
-0
  0
VERTEX
  8
0
 10
1500
 20
0
 42
-0
  0
VERTEX
  8
0
 10
1500
 20
800
 42
-0
  0
VERTEX
  8
0
 10
0
 20
800
 42
-0
  0
SEQEND
  0
POLYLINE
  8
0
 10
0
 20
0
 39
0
 70
1
 66
1
  0
VERTEX
  8
0
 10
1212
 20
768
 42
0
  0
VERTEX
  8
0
 10
1040
 20
768
 42
0
  0
VERTEX
  8
0
 10
1040
 20
710
 42
0
  0
VERTEX
  8
0
 10
1052
 20
698
 42
0
  0
VERTEX
  8
0
 10
1200
 20
698
 42
0
  0
VERTEX
  8
0
 10
1212
 20
710
 42
0
  0
SEQEND
  0
POLYLINE
  8
0
 10
0
 20
0
 39
0
 70
1
 66
1
  0
VERTEX
  8
0
 10
1086.5
 20
733
 42
-1
  0
VERTEX
  8
0
 10
1105.5
 20
733
 42
-1
  0
SEQEND
  0
POLYLINE
  8
0
 10
0
 20
0
 39
0
 70
1
 66
1
  0
VERTEX
  8
0
 10
1146.5
 20
733
 42
-1
  0
VERTEX
  8
0
 10
1165.5
 20
733
 42
-1
  0
SEQEND
  0
POLYLINE
  8
0
 10
0
 20
0
 39
0
 70
1
 66
1
  0
VERTEX
  8
0
 10
1247
 20
767
 42
0
  0
VERTEX
  8
0
 10
1247
 20
619
 42
0
  0
VERTEX
  8
0
 10
1259
 20
607
 42
0
  0
VERTEX
  8
0
 10
1317
 20
607
 42
0
  0
VERTEX
  8
0
 10
1317
 20
779
 42
0
  0
VERTEX
  8
0
 10
1259
 20
779
 42
0
  0
SEQEND
  0
POLYLINE
  8
0
 10
0
 20
0
 39
0
 70
1
 66
1
  0
VERTEX
  8
0
 10
810
 20
238
 42
0
  0
VERTEX
  8
0
 10
810
 20
410
 42
0
  0
VERTEX
  8
0
 10
752
 20
410
 42
0
  0
VERTEX
  8
0
 10
740
 20
398
 42
0
  0
VERTEX
  8
0
 10
740
 20
250
 42
0
  0
VERTEX
  8
0
 10
752
 20
238
 42
0
  0
SEQEND
  0
POLYLINE
  8
0
 10
0
 20
0
 39
0
 70
1
 66
1
  0
VERTEX
  8
0
 10
775
 20
363.5
 42
-1
  0
VERTEX
  8
0
 10
775
 20
344.5
 42
-1
  0
SEQEND
  0
POLYLINE
  8
0
 10
0
 20
0
 39
0
 70
1
 66
1
  0
VERTEX
  8
0
 10
775
 20
303.5
 42
-1
  0
VERTEX
  8
0
 10
775
 20
284.5
 42
-1
  0
SEQEND
  0
POLYLINE
  8
0
 10
0
 20
0
 39
0
 70
1
 66
1
  0
VERTEX
  8
0
 10
1397
 20
607
 42
0
  0
VERTEX
  8
0
 10
1397
 20
779
 42
0
  0
VERTEX
  8
0
 10
1339
 20
779
 42
0
  0
VERTEX
  8
0
 10
1327
 20
767
 42
0
  0
VERTEX
  8
0
 10
1327
 20
619
 42
0
  0
VERTEX
  8
0
 10
1339
 20
607
 42
0
  0
SEQEND
  0
POLYLINE
  8
0
 10
0
 20
0
 39
0
 70
1
 66
1
  0
VERTEX
  8
0
 10
1362
 20
732.5
 42
-1
  0
VERTEX
  8
0
 10
1362
 20
713.5
 42
-1
  0
SEQEND
  0
POLYLINE
  8
0
 10
0
 20
0
 39
0
 70
1
 66
1
  0
VERTEX
  8
0
 10
1362
 20
672.5
 42
-1
  0
VERTEX
  8
0
 10
1362
 20
653.5
 42
-1
  0
SEQEND
  0
POLYLINE
  8
0
 10
0
 20
0
 39
0
 70
1
 66
1
  0
VERTEX
  8
0
 10
1066
 20
30
 42
0
  0
VERTEX
  8
0
 10
944
 20
152
 42
0
  0
VERTEX
  8
0
 10
924
 20
152
 42
0
  0
VERTEX
  8
0
 10
924
 20
20
 42
-0
  0
VERTEX
  8
0
 10
934
 20
10
 42
0
  0
VERTEX
  8
0
 10
1066
 20
10
 42
0
  0
SEQEND
  0
POLYLINE
  8
0
 10
0
 20
0
 39
0
 70
1
 66
1
  0
VERTEX
  8
0
 10
924
 20
186.30960083007812
 42
0
  0
VERTEX
  8
0
 10
1046
 20
64.309600830078125
 42
0
  0
VERTEX
  8
0
 10
1066
 20
64.309600830078125
 42
0
  0
VERTEX
  8
0
 10
1066
 20
196.30960083007812
 42
-0
  0
VERTEX
  8
0
 10
1056
 20
206.30960083007812
 42
0
  0
VERTEX
  8
0
 10
924
 20
206.30960083007812
 42
0
  0
SEQEND
  0
POLYLINE
  8
0
 10
0
 20
0
 39
0
 70
1
 66
1
  0
VERTEX
  8
0
 10
1147
 20
25
 42
0
  0
VERTEX
  8
0
 10
1147
 20
184
 42
-0
  0
VERTEX
  8
0
 10
1138
 20
193
 42
-0
  0
VERTEX
  8
0
 10
1076
 20
199
 42
0
  0
VERTEX
  8
0
 10
1076
 20
10
 42
0
  0
VERTEX
  8
0
 10
1138
 20
16
 42
0
  0
SEQEND
  0
POLYLINE
  8
0
 10
0
 20
0
 39
0
 70
1
 66
1
  0
VERTEX
  8
0
 10
1471
 20
25
 42
0
  0
VERTEX
  8
0
 10
1471
 20
184
 42
-0
  0
VERTEX
  8
0
 10
1462
 20
193
 42
-0
  0
VERTEX
  8
0
 10
1400
 20
199
 42
0
  0
VERTEX
  8
0
 10
1400
 20
10
 42
0
  0
VERTEX
  8
0
 10
1462
 20
16
 42
0
  0
SEQEND
  0
POLYLINE
  8
0
 10
0
 20
0
 39
0
 70
1
 66
1
  0
VERTEX
  8
0
 10
1399
 20
423
 42
0
  0
VERTEX
  8
0
 10
1399
 20
582
 42
-0
  0
VERTEX
  8
0
 10
1390
 20
591
 42
-0
  0
VERTEX
  8
0
 10
1328
 20
597
 42
0
  0
VERTEX
  8
0
 10
1328
 20
408
 42
0
  0
VERTEX
  8
0
 10
1390
 20
414
 42
0
  0
SEQEND
  0
POLYLINE
  8
0
 10
0
 20
0
 39
0
 70
1
 66
1
  0
VERTEX
  8
0
 10
1228
 20
25
 42
0
  0
VERTEX
  8
0
 10
1228
 20
184
 42
-0
  0
VERTEX
  8
0
 10
1219
 20
193
 42
-0
  0
VERTEX
  8
0
 10
1157
 20
199
 42
0
  0
VERTEX
  8
0
 10
1157
 20
10
 42
0
  0
VERTEX
  8
0
 10
1219
 20
16
 42
0
  0
SEQEND
  0
POLYLINE
  8
0
 10
0
 20
0
 39
0
 70
1
 66
1
  0
VERTEX
  8
0
 10
374
 20
729
 42
0
  0
VERTEX
  8
0
 10
574
 20
729
 42
0
  0
VERTEX
  8
0
 10
574
 20
779
 42
0
  0
VERTEX
  8
0
 10
374
 20
779
 42
0
  0
SEQEND
  0
POLYLINE
  8
0
 10
0
 20
0
 39
0
 70
1
 66
1
  0
VERTEX
  8
0
 10
832
 20
228
 42
0
  0
VERTEX
  8
0
 10
832
 20
10
 42
0
  0
VERTEX
  8
0
 10
902
 20
10
 42
0
  0
VERTEX
  8
0
 10
914
 20
22
 42
0
  0
VERTEX
  8
0
 10
914
 20
216
 42
0
  0
VERTEX
  8
0
 10
902
 20
228
 42
0
  0
SEQEND
  0
POLYLINE
  8
0
 10
0
 20
0
 39
0
 70
1
 66
1
  0
VERTEX
  8
0
 10
858.5
 20
159
 42
-1
  0
VERTEX
  8
0
 10
881.5
 20
159
 42
-1
  0
SEQEND
  0
POLYLINE
  8
0
 10
0
 20
0
 39
0
 70
1
 66
1
  0
VERTEX
  8
0
 10
858.5
 20
99
 42
-1
  0
VERTEX
  8
0
 10
881.5
 20
99
 42
-1
  0
SEQEND
  0
POLYLINE
  8
0
 10
0
 20
0
 39
0
 70
1
 66
1
  0
VERTEX
  8
0
 10
832
 20
458
 42
0
  0
VERTEX
  8
0
 10
832
 20
238
 42
0
  0
VERTEX
  8
0
 10
1032
 20
238
 42
0
  0
VERTEX
  8
0
 10
1032
 20
458
 42
0
  0
SEQEND
  0
POLYLINE
  8
0
 10
0
 20
0
 39
0
 70
1
 66
1
  0
VERTEX
  8
0
 10
740
 20
638
 42
0
  0
VERTEX
  8
0
 10
740
 20
420
 42
0
  0
VERTEX
  8
0
 10
810
 20
420
 42
0
  0
VERTEX
  8
0
 10
822
 20
432
 42
0
  0
VERTEX
  8
0
 10
822
 20
626
 42
0
  0
VERTEX
  8
0
 10
810
 20
638
 42
0
  0
SEQEND
  0
POLYLINE
  8
0
 10
0
 20
0
 39
0
 70
1
 66
1
  0
VERTEX
  8
0
 10
766.5
 20
569
 42
-1
  0
VERTEX
  8
0
 10
789.5
 20
569
 42
-1
  0
SEQEND
  0
POLYLINE
  8
0
 10
0
 20
0
 39
0
 70
1
 66
1
  0
VERTEX
  8
0
 10
766.5
 20
509
 42
-1
  0
VERTEX
  8
0
 10
789.5
 20
509
 42
-1
  0
SEQEND
  0
POLYLINE
  8
0
 10
0
 20
0
 39
0
 70
1
 66
1
  0
VERTEX
  8
0
 10
740
 20
228
 42
0
  0
VERTEX
  8
0
 10
740
 20
10
 42
0
  0
VERTEX
  8
0
 10
810
 20
10
 42
0
  0
VERTEX
  8
0
 10
822
 20
22
 42
0
  0
VERTEX
  8
0
 10
822
 20
216
 42
0
  0
VERTEX
  8
0
 10
810
 20
228
 42
0
  0
SEQEND
  0
POLYLINE
  8
0
 10
0
 20
0
 39
0
 70
1
 66
1
  0
VERTEX
  8
0
 10
766.5
 20
159
 42
-1
  0
VERTEX
  8
0
 10
789.5
 20
159
 42
-1
  0
SEQEND
  0
POLYLINE
  8
0
 10
0
 20
0
 39
0
 70
1
 66
1
  0
VERTEX
  8
0
 10
766.5
 20
99
 42
-1
  0
VERTEX
  8
0
 10
789.5
 20
99
 42
-1
  0
SEQEND
  0
POLYLINE
  8
0
 10
0
 20
0
 39
0
 70
1
 66
1
  0
VERTEX
  8
0
 10
1417
 20
607
 42
0
  0
VERTEX
  8
0
 10
1478
 20
607
 42
0
  0
VERTEX
  8
0
 10
1478
 20
789
 42
0
  0
VERTEX
  8
0
 10
1417
 20
789
 42
0
  0
VERTEX
  8
0
 10
1407
 20
779
 42
0
  0
VERTEX
  8
0
 10
1407
 20
617
 42
0
  0
SEQEND
  0
POLYLINE
  8
0
 10
0
 20
0
 39
0
 70
1
 66
1
  0
VERTEX
  8
0
 10
802
 20
776
 42
0
  0
VERTEX
  8
0
 10
584
 20
776
 42
0
  0
VERTEX
  8
0
 10
584
 20
706
 42
0
  0
VERTEX
  8
0
 10
596
 20
694
 42
0
  0
VERTEX
  8
0
 10
790
 20
694
 42
0
  0
VERTEX
  8
0
 10
802
 20
706
 42
0
  0
SEQEND
  0
POLYLINE
  8
0
 10
0
 20
0
 39
0
 70
1
 66
1
  0
VERTEX
  8
0
 10
733
 20
749.5
 42
-1
  0
VERTEX
  8
0
 10
733
 20
726.5
 42
-1
  0
SEQEND
  0
POLYLINE
  8
0
 10
0
 20
0
 39
0
 70
1
 66
1
  0
VERTEX
  8
0
 10
673
 20
749.5
 42
-1
  0
VERTEX
  8
0
 10
673
 20
726.5
 42
-1
  0
SEQEND
  0
POLYLINE
  8
0
 10
0
 20
0
 39
0
 70
1
 66
1
  0
VERTEX
  8
0
 10
1419
 20
408
 42
0
  0
VERTEX
  8
0
 10
1480
 20
408
 42
0
  0
VERTEX
  8
0
 10
1480
 20
590
 42
0
  0
VERTEX
  8
0
 10
1419
 20
590
 42
0
  0
VERTEX
  8
0
 10
1409
 20
580
 42
0
  0
VERTEX
  8
0
 10
1409
 20
418
 42
0
  0
SEQEND
  0
POLYLINE
  8
0
 10
0
 20
0
 39
0
 70
1
 66
1
  0
VERTEX
  8
0
 10
832
 20
688
 42
0
  0
VERTEX
  8
0
 10
832
 20
468
 42
0
  0
VERTEX
  8
0
 10
1032
 20
468
 42
0
  0
VERTEX
  8
0
 10
1032
 20
688
 42
0
  0
SEQEND
  0
POLYLINE
  8
0
 10
0
 20
0
 39
0
 70
1
 66
1
  0
VERTEX
  8
0
 10
1237
 20
626.3095703125
 42
0
  0
VERTEX
  8
0
 10
1042
 20
626.3095703125
 42
0
  0
VERTEX
  8
0
 10
1042
 20
426.30960083007812
 42
0
  0
VERTEX
  8
0
 10
1237
 20
426.30960083007812
 42
0
  0
SEQEND
  0
POLYLINE
  8
0
 10
0
 20
0
 39
0
 70
1
 66
1
  0
VERTEX
  8
0
 10
1072
 20
560.8095703125
 42
-1
  0
VERTEX
  8
0
 10
1072
 20
541.8095703125
 42
-1
  0
SEQEND
  0
POLYLINE
  8
0
 10
0
 20
0
 39
0
 70
1
 66
1
  0
VERTEX
  8
0
 10
1072
 20
510.80960083007812
 42
-1
  0
VERTEX
  8
0
 10
1072
 20
491.80960083007812
 42
-1
  0
SEQEND
  0
POLYLINE
  8
0
 10
0
 20
0
 39
0
 70
1
 66
1
  0
VERTEX
  8
0
 10
1237
 20
416.30960083007812
 42
0
  0
VERTEX
  8
0
 10
1042
 20
416.30960083007812
 42
0
  0
VERTEX
  8
0
 10
1042
 20
216.30960083007812
 42
0
  0
VERTEX
  8
0
 10
1237
 20
216.30960083007812
 42
0
  0
SEQEND
  0
POLYLINE
  8
0
 10
0
 20
0
 39
0
 70
1
 66
1
  0
VERTEX
  8
0
 10
1072
 20
350.80960083007812
 42
-1
  0
VERTEX
  8
0
 10
1072
 20
331.80960083007812
 42
-1
  0
SEQEND
  0
POLYLINE
  8
0
 10
0
 20
0
 39
0
 70
1
 66
1
  0
VERTEX
  8
0
 10
1072
 20
300.80960083007812
 42
-1
  0
VERTEX
  8
0
 10
1072
 20
281.80960083007812
 42
-1
  0
SEQEND
  0
POLYLINE
  8
0
 10
0
 20
0
 39
0
 70
1
 66
1
  0
VERTEX
  8
0
 10
1309
 20
25
 42
0
  0
VERTEX
  8
0
 10
1309
 20
184
 42
-0
  0
VERTEX
  8
0
 10
1300
 20
193
 42
-0
  0
VERTEX
  8
0
 10
1238
 20
199
 42
0
  0
VERTEX
  8
0
 10
1238
 20
10
 42
0
  0
VERTEX
  8
0
 10
1300
 20
16
 42
0
  0
SEQEND
  0
POLYLINE
  8
0
 10
0
 20
0
 39
0
 70
1
 66
1
  0
VERTEX
  8
0
 10
648
 20
228
 42
0
  0
VERTEX
  8
0
 10
648
 20
10
 42
0
  0
VERTEX
  8
0
 10
718
 20
10
 42
0
  0
VERTEX
  8
0
 10
730
 20
22
 42
0
  0
VERTEX
  8
0
 10
730
 20
216
 42
0
  0
VERTEX
  8
0
 10
718
 20
228
 42
0
  0
SEQEND
  0
POLYLINE
  8
0
 10
0
 20
0
 39
0
 70
1
 66
1
  0
VERTEX
  8
0
 10
674.5
 20
159
 42
-1
  0
VERTEX
  8
0
 10
697.5
 20
159
 42
-1
  0
SEQEND
  0
POLYLINE
  8
0
 10
0
 20
0
 39
0
 70
1
 66
1
  0
VERTEX
  8
0
 10
674.5
 20
99
 42
-1
  0
VERTEX
  8
0
 10
697.5
 20
99
 42
-1
  0
SEQEND
  0
POLYLINE
  8
0
 10
0
 20
0
 39
0
 70
1
 66
1
  0
VERTEX
  8
0
 10
1480
 20
224
 42
0
  0
VERTEX
  8
0
 10
1480
 20
383
 42
-0
  0
VERTEX
  8
0
 10
1471
 20
392
 42
-0
  0
VERTEX
  8
0
 10
1409
 20
398
 42
0
  0
VERTEX
  8
0
 10
1409
 20
209
 42
0
  0
VERTEX
  8
0
 10
1471
 20
215
 42
0
  0
SEQEND
  0
POLYLINE
  8
0
 10
0
 20
0
 39
0
 70
1
 66
1
  0
VERTEX
  8
0
 10
101
 20
233
 42
0
  0
VERTEX
  8
0
 10
101
 20
10
 42
0
  0
VERTEX
  8
0
 10
167
 20
10
 42
0
  0
VERTEX
  8
0
 10
182
 20
25
 42
0
  0
VERTEX
  8
0
 10
182
 20
218
 42
-0
  0
VERTEX
  8
0
 10
167
 20
233
 42
0
  0
SEQEND
  0
POLYLINE
  8
0
 10
0
 20
0
 39
0
 70
1
 66
1
  0
VERTEX
  8
0
 10
648
 20
456
 42
0
  0
VERTEX
  8
0
 10
648
 20
238
 42
0
  0
VERTEX
  8
0
 10
718
 20
238
 42
0
  0
VERTEX
  8
0
 10
730
 20
250
 42
0
  0
VERTEX
  8
0
 10
730
 20
444
 42
0
  0
VERTEX
  8
0
 10
718
 20
456
 42
0
  0
SEQEND
  0
POLYLINE
  8
0
 10
0
 20
0
 39
0
 70
1
 66
1
  0
VERTEX
  8
0
 10
674.5
 20
387
 42
-1
  0
VERTEX
  8
0
 10
697.5
 20
387
 42
-1
  0
SEQEND
  0
POLYLINE
  8
0
 10
0
 20
0
 39
0
 70
1
 66
1
  0
VERTEX
  8
0
 10
674.5
 20
327
 42
-1
  0
VERTEX
  8
0
 10
697.5
 20
327
 42
-1
  0
SEQEND
  0
POLYLINE
  8
0
 10
0
 20
0
 39
0
 70
1
 66
1
  0
VERTEX
  8
0
 10
374
 20
466
 42
0
  0
VERTEX
  8
0
 10
374
 20
243
 42
0
  0
VERTEX
  8
0
 10
440
 20
243
 42
0
  0
VERTEX
  8
0
 10
455
 20
258
 42
0
  0
VERTEX
  8
0
 10
455
 20
451
 42
-0
  0
VERTEX
  8
0
 10
440
 20
466
 42
0
  0
SEQEND
  0
POLYLINE
  8
0
 10
0
 20
0
 39
0
 70
1
 66
1
  0
VERTEX
  8
0
 10
364
 20
25
 42
0
  0
VERTEX
  8
0
 10
364
 20
238
 42
0
  0
VERTEX
  8
0
 10
349
 20
253
 42
0
  0
VERTEX
  8
0
 10
283
 20
253
 42
0
  0
VERTEX
  8
0
 10
283
 20
10
 42
0
  0
VERTEX
  8
0
 10
349
 20
10
 42
0
  0
SEQEND
  0
POLYLINE
  8
0
 10
0
 20
0
 39
0
 70
1
 66
1
  0
VERTEX
  8
0
 10
273
 20
531
 42
0
  0
VERTEX
  8
0
 10
273
 20
744
 42
0
  0
VERTEX
  8
0
 10
258
 20
759
 42
0
  0
VERTEX
  8
0
 10
192
 20
759
 42
0
  0
VERTEX
  8
0
 10
192
 20
516
 42
0
  0
VERTEX
  8
0
 10
258
 20
516
 42
0
  0
SEQEND
  0
POLYLINE
  8
0
 10
0
 20
0
 39
0
 70
1
 66
1
  0
VERTEX
  8
0
 10
465
 20
486
 42
0
  0
VERTEX
  8
0
 10
465
 20
263
 42
0
  0
VERTEX
  8
0
 10
531
 20
263
 42
0
  0
VERTEX
  8
0
 10
546
 20
278
 42
0
  0
VERTEX
  8
0
 10
546
 20
471
 42
-0
  0
VERTEX
  8
0
 10
531
 20
486
 42
0
  0
SEQEND
  0
POLYLINE
  8
0
 10
0
 20
0
 39
0
 70
1
 66
1
  0
VERTEX
  8
0
 10
182
 20
511
 42
0
  0
VERTEX
  8
0
 10
182
 20
724
 42
0
  0
VERTEX
  8
0
 10
167
 20
739
 42
0
  0
VERTEX
  8
0
 10
101
 20
739
 42
0
  0
VERTEX
  8
0
 10
101
 20
496
 42
0
  0
VERTEX
  8
0
 10
167
 20
496
 42
0
  0
SEQEND
  0
POLYLINE
  8
0
 10
0
 20
0
 39
0
 70
1
 66
1
  0
VERTEX
  8
0
 10
273
 20
25
 42
0
  0
VERTEX
  8
0
 10
273
 20
238
 42
0
  0
VERTEX
  8
0
 10
258
 20
253
 42
0
  0
VERTEX
  8
0
 10
192
 20
253
 42
0
  0
VERTEX
  8
0
 10
192
 20
10
 42
0
  0
VERTEX
  8
0
 10
258
 20
10
 42
0
  0
SEQEND
  0
POLYLINE
  8
0
 10
0
 20
0
 39
0
 70
1
 66
1
  0
VERTEX
  8
0
 10
91
 20
531
 42
0
  0
VERTEX
  8
0
 10
91
 20
744
 42
0
  0
VERTEX
  8
0
 10
76
 20
759
 42
0
  0
VERTEX
  8
0
 10
10
 20
759
 42
0
  0
VERTEX
  8
0
 10
10
 20
516
 42
0
  0
VERTEX
  8
0
 10
76
 20
516
 42
0
  0
SEQEND
  0
POLYLINE
  8
0
 10
0
 20
0
 39
0
 70
1
 66
1
  0
VERTEX
  8
0
 10
1390
 20
25
 42
0
  0
VERTEX
  8
0
 10
1390
 20
184
 42
-0
  0
VERTEX
  8
0
 10
1381
 20
193
 42
-0
  0
VERTEX
  8
0
 10
1319
 20
199
 42
0
  0
VERTEX
  8
0
 10
1319
 20
10
 42
0
  0
VERTEX
  8
0
 10
1381
 20
16
 42
0
  0
SEQEND
  0
POLYLINE
  8
0
 10
0
 20
0
 39
0
 70
1
 66
1
  0
VERTEX
  8
0
 10
648
 20
684
 42
0
  0
VERTEX
  8
0
 10
648
 20
466
 42
0
  0
VERTEX
  8
0
 10
718
 20
466
 42
0
  0
VERTEX
  8
0
 10
730
 20
478
 42
0
  0
VERTEX
  8
0
 10
730
 20
672
 42
0
  0
VERTEX
  8
0
 10
718
 20
684
 42
0
  0
SEQEND
  0
POLYLINE
  8
0
 10
0
 20
0
 39
0
 70
1
 66
1
  0
VERTEX
  8
0
 10
674.5
 20
615
 42
-1
  0
VERTEX
  8
0
 10
697.5
 20
615
 42
-1
  0
SEQEND
  0
POLYLINE
  8
0
 10
0
 20
0
 39
0
 70
1
 66
1
  0
VERTEX
  8
0
 10
674.5
 20
555
 42
-1
  0
VERTEX
  8
0
 10
697.5
 20
555
 42
-1
  0
SEQEND
  0
POLYLINE
  8
0
 10
0
 20
0
 39
0
 70
1
 66
1
  0
VERTEX
  8
0
 10
465
 20
719
 42
0
  0
VERTEX
  8
0
 10
465
 20
496
 42
0
  0
VERTEX
  8
0
 10
531
 20
496
 42
0
  0
VERTEX
  8
0
 10
546
 20
511
 42
0
  0
VERTEX
  8
0
 10
546
 20
704
 42
-0
  0
VERTEX
  8
0
 10
531
 20
719
 42
0
  0
SEQEND
  0
POLYLINE
  8
0
 10
0
 20
0
 39
0
 70
1
 66
1
  0
VERTEX
  8
0
 10
556
 20
228
 42
0
  0
VERTEX
  8
0
 10
556
 20
10
 42
0
  0
VERTEX
  8
0
 10
626
 20
10
 42
0
  0
VERTEX
  8
0
 10
638
 20
22
 42
0
  0
VERTEX
  8
0
 10
638
 20
216
 42
0
  0
VERTEX
  8
0
 10
626
 20
228
 42
0
  0
SEQEND
  0
POLYLINE
  8
0
 10
0
 20
0
 39
0
 70
1
 66
1
  0
VERTEX
  8
0
 10
582.5
 20
159
 42
-1
  0
VERTEX
  8
0
 10
605.5
 20
159
 42
-1
  0
SEQEND
  0
POLYLINE
  8
0
 10
0
 20
0
 39
0
 70
1
 66
1
  0
VERTEX
  8
0
 10
582.5
 20
99
 42
-1
  0
VERTEX
  8
0
 10
605.5
 20
99
 42
-1
  0
SEQEND
  0
POLYLINE
  8
0
 10
0
 20
0
 39
0
 70
1
 66
1
  0
VERTEX
  8
0
 10
556
 20
684
 42
0
  0
VERTEX
  8
0
 10
556
 20
466
 42
0
  0
VERTEX
  8
0
 10
626
 20
466
 42
0
  0
VERTEX
  8
0
 10
638
 20
478
 42
0
  0
VERTEX
  8
0
 10
638
 20
672
 42
0
  0
VERTEX
  8
0
 10
626
 20
684
 42
0
  0
SEQEND
  0
POLYLINE
  8
0
 10
0
 20
0
 39
0
 70
1
 66
1
  0
VERTEX
  8
0
 10
582.5
 20
615
 42
-1
  0
VERTEX
  8
0
 10
605.5
 20
615
 42
-1
  0
SEQEND
  0
POLYLINE
  8
0
 10
0
 20
0
 39
0
 70
1
 66
1
  0
VERTEX
  8
0
 10
582.5
 20
555
 42
-1
  0
VERTEX
  8
0
 10
605.5
 20
555
 42
-1
  0
SEQEND
  0
POLYLINE
  8
0
 10
0
 20
0
 39
0
 70
1
 66
1
  0
VERTEX
  8
0
 10
374
 20
699
 42
0
  0
VERTEX
  8
0
 10
374
 20
476
 42
0
  0
VERTEX
  8
0
 10
440
 20
476
 42
0
  0
VERTEX
  8
0
 10
455
 20
491
 42
0
  0
VERTEX
  8
0
 10
455
 20
684
 42
-0
  0
VERTEX
  8
0
 10
440
 20
699
 42
0
  0
SEQEND
  0
POLYLINE
  8
0
 10
0
 20
0
 39
0
 70
1
 66
1
  0
VERTEX
  8
0
 10
1030
 20
780
 42
0
  0
VERTEX
  8
0
 10
812
 20
780
 42
0
  0
VERTEX
  8
0
 10
812
 20
710
 42
0
  0
VERTEX
  8
0
 10
824
 20
698
 42
0
  0
VERTEX
  8
0
 10
1018
 20
698
 42
0
  0
VERTEX
  8
0
 10
1030
 20
710
 42
0
  0
SEQEND
  0
POLYLINE
  8
0
 10
0
 20
0
 39
0
 70
1
 66
1
  0
VERTEX
  8
0
 10
961
 20
753.5
 42
-1
  0
VERTEX
  8
0
 10
961
 20
730.5
 42
-1
  0
SEQEND
  0
POLYLINE
  8
0
 10
0
 20
0
 39
0
 70
1
 66
1
  0
VERTEX
  8
0
 10
901
 20
753.5
 42
-1
  0
VERTEX
  8
0
 10
901
 20
730.5
 42
-1
  0
SEQEND
  0
POLYLINE
  8
0
 10
0
 20
0
 39
0
 70
1
 66
1
  0
VERTEX
  8
0
 10
273
 20
278
 42
0
  0
VERTEX
  8
0
 10
273
 20
491
 42
0
  0
VERTEX
  8
0
 10
258
 20
506
 42
0
  0
VERTEX
  8
0
 10
192
 20
506
 42
0
  0
VERTEX
  8
0
 10
192
 20
263
 42
0
  0
VERTEX
  8
0
 10
258
 20
263
 42
0
  0
SEQEND
  0
POLYLINE
  8
0
 10
0
 20
0
 39
0
 70
1
 66
1
  0
VERTEX
  8
0
 10
364
 20
531
 42
0
  0
VERTEX
  8
0
 10
364
 20
744
 42
0
  0
VERTEX
  8
0
 10
349
 20
759
 42
0
  0
VERTEX
  8
0
 10
283
 20
759
 42
0
  0
VERTEX
  8
0
 10
283
 20
516
 42
0
  0
VERTEX
  8
0
 10
349
 20
516
 42
0
  0
SEQEND
  0
POLYLINE
  8
0
 10
0
 20
0
 39
0
 70
1
 66
1
  0
VERTEX
  8
0
 10
91
 20
278
 42
0
  0
VERTEX
  8
0
 10
91
 20
491
 42
0
  0
VERTEX
  8
0
 10
76
 20
506
 42
0
  0
VERTEX
  8
0
 10
10
 20
506
 42
0
  0
VERTEX
  8
0
 10
10
 20
263
 42
0
  0
VERTEX
  8
0
 10
76
 20
263
 42
0
  0
SEQEND
  0
POLYLINE
  8
0
 10
0
 20
0
 39
0
 70
1
 66
1
  0
VERTEX
  8
0
 10
364
 20
278
 42
0
  0
VERTEX
  8
0
 10
364
 20
491
 42
0
  0
VERTEX
  8
0
 10
349
 20
506
 42
0
  0
VERTEX
  8
0
 10
283
 20
506
 42
0
  0
VERTEX
  8
0
 10
283
 20
263
 42
0
  0
VERTEX
  8
0
 10
349
 20
263
 42
0
  0
SEQEND
  0
POLYLINE
  8
0
 10
0
 20
0
 39
0
 70
1
 66
1
  0
VERTEX
  8
0
 10
546
 20
25
 42
0
  0
VERTEX
  8
0
 10
546
 20
238
 42
0
  0
VERTEX
  8
0
 10
531
 20
253
 42
0
  0
VERTEX
  8
0
 10
465
 20
253
 42
0
  0
VERTEX
  8
0
 10
465
 20
10
 42
0
  0
VERTEX
  8
0
 10
531
 20
10
 42
0
  0
SEQEND
  0
POLYLINE
  8
0
 10
0
 20
0
 39
0
 70
1
 66
1
  0
VERTEX
  8
0
 10
374
 20
233
 42
0
  0
VERTEX
  8
0
 10
374
 20
10
 42
0
  0
VERTEX
  8
0
 10
440
 20
10
 42
0
  0
VERTEX
  8
0
 10
455
 20
25
 42
0
  0
VERTEX
  8
0
 10
455
 20
218
 42
-0
  0
VERTEX
  8
0
 10
440
 20
233
 42
0
  0
SEQEND
  0
POLYLINE
  8
0
 10
0
 20
0
 39
0
 70
1
 66
1
  0
VERTEX
  8
0
 10
1318
 20
423
 42
0
  0
VERTEX
  8
0
 10
1318
 20
582
 42
-0
  0
VERTEX
  8
0
 10
1309
 20
591
 42
-0
  0
VERTEX
  8
0
 10
1247
 20
597
 42
0
  0
VERTEX
  8
0
 10
1247
 20
408
 42
0
  0
VERTEX
  8
0
 10
1309
 20
414
 42
0
  0
SEQEND
  0
POLYLINE
  8
0
 10
0
 20
0
 39
0
 70
1
 66
1
  0
VERTEX
  8
0
 10
556
 20
456
 42
0
  0
VERTEX
  8
0
 10
556
 20
238
 42
0
  0
VERTEX
  8
0
 10
626
 20
238
 42
0
  0
VERTEX
  8
0
 10
638
 20
250
 42
0
  0
VERTEX
  8
0
 10
638
 20
444
 42
0
  0
VERTEX
  8
0
 10
626
 20
456
 42
0
  0
SEQEND
  0
POLYLINE
  8
0
 10
0
 20
0
 39
0
 70
1
 66
1
  0
VERTEX
  8
0
 10
582.5
 20
387
 42
-1
  0
VERTEX
  8
0
 10
605.5
 20
387
 42
-1
  0
SEQEND
  0
POLYLINE
  8
0
 10
0
 20
0
 39
0
 70
1
 66
1
  0
VERTEX
  8
0
 10
582.5
 20
327
 42
-1
  0
VERTEX
  8
0
 10
605.5
 20
327
 42
-1
  0
SEQEND
  0
POLYLINE
  8
0
 10
0
 20
0
 39
0
 70
1
 66
1
  0
VERTEX
  8
0
 10
182
 20
258
 42
0
  0
VERTEX
  8
0
 10
182
 20
471
 42
0
  0
VERTEX
  8
0
 10
167
 20
486
 42
0
  0
VERTEX
  8
0
 10
101
 20
486
 42
0
  0
VERTEX
  8
0
 10
101
 20
243
 42
0
  0
VERTEX
  8
0
 10
167
 20
243
 42
0
  0
SEQEND
  0
POLYLINE
  8
0
 10
0
 20
0
 39
0
 70
1
 66
1
  0
VERTEX
  8
0
 10
91
 20
25
 42
0
  0
VERTEX
  8
0
 10
91
 20
238
 42
0
  0
VERTEX
  8
0
 10
76
 20
253
 42
0
  0
VERTEX
  8
0
 10
10
 20
253
 42
0
  0
VERTEX
  8
0
 10
10
 20
10
 42
0
  0
VERTEX
  8
0
 10
76
 20
10
 42
0
  0
SEQEND
  0
POLYLINE
  8
0
 10
0
 20
0
 39
0
 70
1
 66
1
  0
VERTEX
  8
0
 10
1399
 20
224
 42
0
  0
VERTEX
  8
0
 10
1399
 20
383
 42
-0
  0
VERTEX
  8
0
 10
1390
 20
392
 42
-0
  0
VERTEX
  8
0
 10
1328
 20
398
 42
0
  0
VERTEX
  8
0
 10
1328
 20
209
 42
0
  0
VERTEX
  8
0
 10
1390
 20
215
 42
0
  0
SEQEND
  0
POLYLINE
  8
0
 10
0
 20
0
 39
0
 70
1
 66
1
  0
VERTEX
  8
0
 10
1318
 20
224
 42
0
  0
VERTEX
  8
0
 10
1318
 20
383
 42
-0
  0
VERTEX
  8
0
 10
1309
 20
392
 42
-0
  0
VERTEX
  8
0
 10
1247
 20
398
 42
0
  0
VERTEX
  8
0
 10
1247
 20
209
 42
0
  0
VERTEX
  8
0
 10
1309
 20
215
 42
0
  0
SEQEND
  0
ENDSEC
  0
EOF
