  0
SECTION
  2
ENTITIES
  0
POLYLINE
  8
0
 10
0
 20
0
 39
0
 70
1
 66
1
  0
VERTEX
  8
0
 10
0
 20
0
 42
0
  0
VERTEX
  8
0
 10
1200
 20
0
 42
0
  0
VERTEX
  8
0
 10
1200
 20
600
 42
0
  0
VERTEX
  8
0
 10
0
 20
600
 42
0
  0
SEQEND
  0
POLYLINE
  8
0
 10
0
 20
0
 39
0
 70
1
 66
1
  0
VERTEX
  8
0
 10
1026.751953125
 20
560
 42
0
  0
VERTEX
  8
0
 10
1026.751953125
 20
430
 42
0
  0
VERTEX
  8
0
 10
1062.751953125
 20
430
 42
0
  0
VERTEX
  8
0
 10
1062.751953125
 20
560
 42
0
  0
SEQEND
  0
POLYLINE
  8
0
 10
0
 20
0
 39
0
 70
1
 66
1
  0
VERTEX
  8
0
 10
335
 20
30
 42
0
  0
VERTEX
  8
0
 10
290
 20
160
 42
0
  0
VERTEX
  8
0
 10
275
 20
160
 42
0
  0
VERTEX
  8
0
 10
275
 20
20
 42
0
  0
VERTEX
  8
0
 10
285
 20
10
 42
0
  0
VERTEX
  8
0
 10
335
 20
10
 42
0
  0
SEQEND
  0
POLYLINE
  8
0
 10
0
 20
0
 39
0
 70
1
 66
1
  0
VERTEX
  8
0
 10
307.68798828125
 20
140
 42
0
  0
VERTEX
  8
0
 10
352.68798828125
 20
10
 42
0
  0
VERTEX
  8
0
 10
367.68798828125
 20
10
 42
0
  0
VERTEX
  8
0
 10
367.68798828125
 20
150
 42
0
  0
VERTEX
  8
0
 10
357.68798828125
 20
160
 42
0
  0
VERTEX
  8
0
 10
307.68798828125
 20
160
 42
0
  0
SEQEND
  0
POLYLINE
  8
0
 10
0
 20
0
 39
0
 70
1
 66
1
  0
VERTEX
  8
0
 10
480.75201416015625
 20
190
 42
0
  0
VERTEX
  8
0
 10
435.75201416015625
 20
320
 42
0
  0
VERTEX
  8
0
 10
420.75201416015625
 20
320
 42
0
  0
VERTEX
  8
0
 10
420.75201416015625
 20
180
 42
0
  0
VERTEX
  8
0
 10
430.75201416015625
 20
170
 42
0
  0
VERTEX
  8
0
 10
480.75201416015625
 20
170
 42
0
  0
SEQEND
  0
POLYLINE
  8
0
 10
0
 20
0
 39
0
 70
1
 66
1
  0
VERTEX
  8
0
 10
453.44000244140625
 20
300
 42
0
  0
VERTEX
  8
0
 10
498.44000244140625
 20
170
 42
0
  0
VERTEX
  8
0
 10
513.44000244140625
 20
170
 42
0
  0
VERTEX
  8
0
 10
513.44000244140625
 20
310
 42
0
  0
VERTEX
  8
0
 10
503.44000244140625
 20
320
 42
0
  0
VERTEX
  8
0
 10
453.44000244140625
 20
320
 42
0
  0
SEQEND
  0
POLYLINE
  8
0
 10
0
 20
0
 39
0
 70
1
 66
1
  0
VERTEX
  8
0
 10
275.37600708007813
 20
455
 42
0
  0
VERTEX
  8
0
 10
230.37600708007812
 20
585
 42
0
  0
VERTEX
  8
0
 10
215.37600708007812
 20
585
 42
0
  0
VERTEX
  8
0
 10
215.37600708007812
 20
445
 42
0
  0
VERTEX
  8
0
 10
225.37600708007812
 20
435
 42
0
  0
VERTEX
  8
0
 10
275.37600708007813
 20
435
 42
0
  0
SEQEND
  0
POLYLINE
  8
0
 10
0
 20
0
 39
0
 70
1
 66
1
  0
VERTEX
  8
0
 10
248.06399536132812
 20
565
 42
0
  0
VERTEX
  8
0
 10
293.06399536132812
 20
435
 42
0
  0
VERTEX
  8
0
 10
308.06399536132812
 20
435
 42
0
  0
VERTEX
  8
0
 10
308.06399536132812
 20
575
 42
0
  0
VERTEX
  8
0
 10
298.06399536132813
 20
585
 42
0
  0
VERTEX
  8
0
 10
248.06399536132812
 20
585
 42
0
  0
SEQEND
  0
POLYLINE
  8
0
 10
0
 20
0
 39
0
 70
1
 66
1
  0
VERTEX
  8
0
 10
523.44000244140625
 20
295
 42
0
  0
VERTEX
  8
0
 10
523.44000244140625
 20
75
 42
1
  0
VERTEX
  8
0
 10
653.44000244140625
 20
75
 42
0
  0
VERTEX
  8
0
 10
653.44000244140625
 20
295
 42
1
  0
SEQEND
  0
POLYLINE
  8
0
 10
0
 20
0
 39
0
 70
1
 66
1
  0
VERTEX
  8
0
 10
663.44000244140625
 20
295
 42
0
  0
VERTEX
  8
0
 10
663.44000244140625
 20
75
 42
1
  0
VERTEX
  8
0
 10
793.44000244140625
 20
75
 42
0
  0
VERTEX
  8
0
 10
793.44000244140625
 20
295
 42
1
  0
SEQEND
  0
POLYLINE
  8
0
 10
0
 20
0
 39
0
 70
1
 66
1
  0
VERTEX
  8
0
 10
275.37600708007813
 20
295
 42
0
  0
VERTEX
  8
0
 10
230.37600708007812
 20
425
 42
0
  0
VERTEX
  8
0
 10
215.37600708007812
 20
425
 42
0
  0
VERTEX
  8
0
 10
215.37600708007812
 20
285
 42
0
  0
VERTEX
  8
0
 10
225.37600708007812
 20
275
 42
0
  0
VERTEX
  8
0
 10
275.37600708007813
 20
275
 42
0
  0
SEQEND
  0
POLYLINE
  8
0
 10
0
 20
0
 39
0
 70
1
 66
1
  0
VERTEX
  8
0
 10
248.06399536132812
 20
405
 42
0
  0
VERTEX
  8
0
 10
293.06399536132812
 20
275
 42
0
  0
VERTEX
  8
0
 10
308.06399536132812
 20
275
 42
0
  0
VERTEX
  8
0
 10
308.06399536132812
 20
415
 42
0
  0
VERTEX
  8
0
 10
298.06399536132813
 20
425
 42
0
  0
VERTEX
  8
0
 10
248.06399536132812
 20
425
 42
0
  0
SEQEND
  0
POLYLINE
  8
0
 10
0
 20
0
 39
0
 70
1
 66
1
  0
VERTEX
  8
0
 10
338.06399536132813
 20
522.68798828125
 42
0
  0
VERTEX
  8
0
 10
468.06399536132812
 20
567.68798828125
 42
0
  0
VERTEX
  8
0
 10
468.06399536132812
 20
582.68798828125
 42
0
  0
VERTEX
  8
0
 10
328.06399536132812
 20
582.68798828125
 42
0
  0
VERTEX
  8
0
 10
318.06399536132813
 20
572.68798828125
 42
0
  0
VERTEX
  8
0
 10
318.06399536132813
 20
522.68798828125
 42
0
  0
SEQEND
  0
POLYLINE
  8
0
 10
0
 20
0
 39
0
 70
1
 66
1
  0
VERTEX
  8
0
 10
448.06399536132812
 20
550
 42
0
  0
VERTEX
  8
0
 10
318.06399536132813
 20
505
 42
0
  0
VERTEX
  8
0
 10
318.06399536132813
 20
490
 42
0
  0
VERTEX
  8
0
 10
458.06399536132812
 20
490
 42
0
  0
VERTEX
  8
0
 10
468.06399536132812
 20
500
 42
0
  0
VERTEX
  8
0
 10
468.06399536132812
 20
550
 42
0
  0
SEQEND
  0
POLYLINE
  8
0
 10
0
 20
0
 39
0
 70
1
 66
1
  0
VERTEX
  8
0
 10
378.06399536132812
 20
350
 42
0
  0
VERTEX
  8
0
 10
333.06399536132812
 20
480
 42
0
  0
VERTEX
  8
0
 10
318.06399536132813
 20
480
 42
0
  0
VERTEX
  8
0
 10
318.06399536132813
 20
340
 42
0
  0
VERTEX
  8
0
 10
328.06399536132812
 20
330
 42
0
  0
VERTEX
  8
0
 10
378.06399536132812
 20
330
 42
0
  0
SEQEND
  0
POLYLINE
  8
0
 10
0
 20
0
 39
0
 70
1
 66
1
  0
VERTEX
  8
0
 10
350.75201416015625
 20
460
 42
0
  0
VERTEX
  8
0
 10
395.75201416015625
 20
330
 42
0
  0
VERTEX
  8
0
 10
410.75201416015625
 20
330
 42
0
  0
VERTEX
  8
0
 10
410.75201416015625
 20
470
 42
0
  0
VERTEX
  8
0
 10
400.75201416015625
 20
480
 42
0
  0
VERTEX
  8
0
 10
350.75201416015625
 20
480
 42
0
  0
SEQEND
  0
POLYLINE
  8
0
 10
0
 20
0
 39
0
 70
1
 66
1
  0
VERTEX
  8
0
 10
378.06399536132812
 20
190
 42
0
  0
VERTEX
  8
0
 10
333.06399536132812
 20
320
 42
0
  0
VERTEX
  8
0
 10
318.06399536132813
 20
320
 42
0
  0
VERTEX
  8
0
 10
318.06399536132813
 20
180
 42
0
  0
VERTEX
  8
0
 10
328.06399536132812
 20
170
 42
0
  0
VERTEX
  8
0
 10
378.06399536132812
 20
170
 42
0
  0
SEQEND
  0
POLYLINE
  8
0
 10
0
 20
0
 39
0
 70
1
 66
1
  0
VERTEX
  8
0
 10
350.75201416015625
 20
300
 42
0
  0
VERTEX
  8
0
 10
395.75201416015625
 20
170
 42
0
  0
VERTEX
  8
0
 10
410.75201416015625
 20
170
 42
0
  0
VERTEX
  8
0
 10
410.75201416015625
 20
310
 42
0
  0
VERTEX
  8
0
 10
400.75201416015625
 20
320
 42
0
  0
VERTEX
  8
0
 10
350.75201416015625
 20
320
 42
0
  0
SEQEND
  0
POLYLINE
  8
0
 10
0
 20
0
 39
0
 70
1
 66
1
  0
VERTEX
  8
0
 10
1067.43994140625
 20
140
 42
0
  0
VERTEX
  8
0
 10
1067.43994140625
 20
10
 42
0
  0
VERTEX
  8
0
 10
1103.43994140625
 20
10
 42
0
  0
VERTEX
  8
0
 10
1103.43994140625
 20
140
 42
0
  0
SEQEND
  0
POLYLINE
  8
0
 10
0
 20
0
 39
0
 70
1
 66
1
  0
VERTEX
  8
0
 10
172.68800354003906
 20
295
 42
0
  0
VERTEX
  8
0
 10
127.68800354003906
 20
425
 42
0
  0
VERTEX
  8
0
 10
112.68800354003906
 20
425
 42
0
  0
VERTEX
  8
0
 10
112.68800354003906
 20
285
 42
0
  0
VERTEX
  8
0
 10
122.68800354003906
 20
275
 42
0
  0
VERTEX
  8
0
 10
172.68800354003906
 20
275
 42
0
  0
SEQEND
  0
POLYLINE
  8
0
 10
0
 20
0
 39
0
 70
1
 66
1
  0
VERTEX
  8
0
 10
145.37600708007813
 20
405
 42
0
  0
VERTEX
  8
0
 10
190.37600708007812
 20
275
 42
0
  0
VERTEX
  8
0
 10
205.37600708007812
 20
275
 42
0
  0
VERTEX
  8
0
 10
205.37600708007812
 20
415
 42
0
  0
VERTEX
  8
0
 10
195.37600708007812
 20
425
 42
0
  0
VERTEX
  8
0
 10
145.37600708007813
 20
425
 42
0
  0
SEQEND
  0
POLYLINE
  8
0
 10
0
 20
0
 39
0
 70
1
 66
1
  0
VERTEX
  8
0
 10
172.68800354003906
 20
455
 42
0
  0
VERTEX
  8
0
 10
127.68800354003906
 20
585
 42
0
  0
VERTEX
  8
0
 10
112.68800354003906
 20
585
 42
0
  0
VERTEX
  8
0
 10
112.68800354003906
 20
445
 42
0
  0
VERTEX
  8
0
 10
122.68800354003906
 20
435
 42
0
  0
VERTEX
  8
0
 10
172.68800354003906
 20
435
 42
0
  0
SEQEND
  0
POLYLINE
  8
0
 10
0
 20
0
 39
0
 70
1
 66
1
  0
VERTEX
  8
0
 10
145.37600708007813
 20
565
 42
0
  0
VERTEX
  8
0
 10
190.37600708007812
 20
435
 42
0
  0
VERTEX
  8
0
 10
205.37600708007812
 20
435
 42
0
  0
VERTEX
  8
0
 10
205.37600708007812
 20
575
 42
0
  0
VERTEX
  8
0
 10
195.37600708007812
 20
585
 42
0
  0
VERTEX
  8
0
 10
145.37600708007813
 20
585
 42
0
  0
SEQEND
  0
POLYLINE
  8
0
 10
0
 20
0
 39
0
 70
1
 66
1
  0
VERTEX
  8
0
 10
70
 20
295
 42
0
  0
VERTEX
  8
0
 10
25
 20
425
 42
0
  0
VERTEX
  8
0
 10
10
 20
425
 42
0
  0
VERTEX
  8
0
 10
10
 20
285
 42
0
  0
VERTEX
  8
0
 10
20
 20
275
 42
0
  0
VERTEX
  8
0
 10
70
 20
275
 42
0
  0
SEQEND
  0
POLYLINE
  8
0
 10
0
 20
0
 39
0
 70
1
 66
1
  0
VERTEX
  8
0
 10
42.687999725341797
 20
405
 42
0
  0
VERTEX
  8
0
 10
87.688003540039063
 20
275
 42
0
  0
VERTEX
  8
0
 10
102.68800354003906
 20
275
 42
0
  0
VERTEX
  8
0
 10
102.68800354003906
 20
415
 42
0
  0
VERTEX
  8
0
 10
92.688003540039063
 20
425
 42
0
  0
VERTEX
  8
0
 10
42.687999725341797
 20
425
 42
0
  0
SEQEND
  0
POLYLINE
  8
0
 10
0
 20
0
 39
0
 70
1
 66
1
  0
VERTEX
  8
0
 10
70
 20
455
 42
0
  0
VERTEX
  8
0
 10
25
 20
585
 42
0
  0
VERTEX
  8
0
 10
10
 20
585
 42
0
  0
VERTEX
  8
0
 10
10
 20
445
 42
0
  0
VERTEX
  8
0
 10
20
 20
435
 42
0
  0
VERTEX
  8
0
 10
70
 20
435
 42
0
  0
SEQEND
  0
POLYLINE
  8
0
 10
0
 20
0
 39
0
 70
1
 66
1
  0
VERTEX
  8
0
 10
42.687999725341797
 20
565
 42
0
  0
VERTEX
  8
0
 10
87.688003540039063
 20
435
 42
0
  0
VERTEX
  8
0
 10
102.68800354003906
 20
435
 42
0
  0
VERTEX
  8
0
 10
102.68800354003906
 20
575
 42
0
  0
VERTEX
  8
0
 10
92.688003540039063
 20
585
 42
0
  0
VERTEX
  8
0
 10
42.687999725341797
 20
585
 42
0
  0
SEQEND
  0
POLYLINE
  8
0
 10
0
 20
0
 39
0
 70
1
 66
1
  0
VERTEX
  8
0
 10
437.68798828125
 20
30
 42
0
  0
VERTEX
  8
0
 10
392.68798828125
 20
160
 42
0
  0
VERTEX
  8
0
 10
377.68798828125
 20
160
 42
0
  0
VERTEX
  8
0
 10
377.68798828125
 20
20
 42
0
  0
VERTEX
  8
0
 10
387.68798828125
 20
10
 42
0
  0
VERTEX
  8
0
 10
437.68798828125
 20
10
 42
0
  0
SEQEND
  0
POLYLINE
  8
0
 10
0
 20
0
 39
0
 70
1
 66
1
  0
VERTEX
  8
0
 10
410.37600708007812
 20
140
 42
0
  0
VERTEX
  8
0
 10
455.37600708007812
 20
10
 42
0
  0
VERTEX
  8
0
 10
470.37600708007812
 20
10
 42
0
  0
VERTEX
  8
0
 10
470.37600708007812
 20
150
 42
0
  0
VERTEX
  8
0
 10
460.37600708007813
 20
160
 42
0
  0
VERTEX
  8
0
 10
410.37600708007812
 20
160
 42
0
  0
SEQEND
  0
POLYLINE
  8
0
 10
0
 20
0
 39
0
 70
1
 66
1
  0
VERTEX
  8
0
 10
1156.751953125
 20
550
 42
0
  0
VERTEX
  8
0
 10
1156.751953125
 20
450
 42
0
  0
VERTEX
  8
0
 10
1180.751953125
 20
450
 42
0
  0
VERTEX
  8
0
 10
1188.751953125
 20
458
 42
0
  0
VERTEX
  8
0
 10
1188.751953125
 20
550
 42
0
  0
SEQEND
  0
POLYLINE
  8
0
 10
0
 20
0
 39
0
 70
1
 66
1
  0
VERTEX
  8
0
 10
1155.43994140625
 20
110
 42
0
  0
VERTEX
  8
0
 10
1155.43994140625
 20
10
 42
0
  0
VERTEX
  8
0
 10
1179.43994140625
 20
10
 42
0
  0
VERTEX
  8
0
 10
1187.43994140625
 20
18
 42
0
  0
VERTEX
  8
0
 10
1187.43994140625
 20
110
 42
0
  0
SEQEND
  0
POLYLINE
  8
0
 10
0
 20
0
 39
0
 70
1
 66
1
  0
VERTEX
  8
0
 10
1072.751953125
 20
470
 42
0
  0
VERTEX
  8
0
 10
1072.751953125
 20
370
 42
0
  0
VERTEX
  8
0
 10
1096.751953125
 20
370
 42
0
  0
VERTEX
  8
0
 10
1104.751953125
 20
378
 42
0
  0
VERTEX
  8
0
 10
1104.751953125
 20
470
 42
0
  0
SEQEND
  0
POLYLINE
  8
0
 10
0
 20
0
 39
0
 70
1
 66
1
  0
VERTEX
  8
0
 10
1156.751953125
 20
330
 42
0
  0
VERTEX
  8
0
 10
1156.751953125
 20
230
 42
0
  0
VERTEX
  8
0
 10
1180.751953125
 20
230
 42
0
  0
VERTEX
  8
0
 10
1188.751953125
 20
238
 42
0
  0
VERTEX
  8
0
 10
1188.751953125
 20
330
 42
0
  0
SEQEND
  0
POLYLINE
  8
0
 10
0
 20
0
 39
0
 70
1
 66
1
  0
VERTEX
  8
0
 10
1072.751953125
 20
580
 42
0
  0
VERTEX
  8
0
 10
1072.751953125
 20
480
 42
0
  0
VERTEX
  8
0
 10
1096.751953125
 20
480
 42
0
  0
VERTEX
  8
0
 10
1104.751953125
 20
488
 42
0
  0
VERTEX
  8
0
 10
1104.751953125
 20
580
 42
0
  0
SEQEND
  0
POLYLINE
  8
0
 10
0
 20
0
 39
0
 70
1
 66
1
  0
VERTEX
  8
0
 10
1109.43994140625
 20
250
 42
0
  0
VERTEX
  8
0
 10
1109.43994140625
 20
150
 42
0
  0
VERTEX
  8
0
 10
1133.43994140625
 20
150
 42
0
  0
VERTEX
  8
0
 10
1141.43994140625
 20
158
 42
0
  0
VERTEX
  8
0
 10
1141.43994140625
 20
250
 42
0
  0
SEQEND
  0
POLYLINE
  8
0
 10
0
 20
0
 39
0
 70
1
 66
1
  0
VERTEX
  8
0
 10
1114.751953125
 20
580
 42
0
  0
VERTEX
  8
0
 10
1114.751953125
 20
480
 42
0
  0
VERTEX
  8
0
 10
1138.751953125
 20
480
 42
0
  0
VERTEX
  8
0
 10
1146.751953125
 20
488
 42
0
  0
VERTEX
  8
0
 10
1146.751953125
 20
580
 42
0
  0
SEQEND
  0
POLYLINE
  8
0
 10
0
 20
0
 39
0
 70
1
 66
1
  0
VERTEX
  8
0
 10
1072.751953125
 20
360
 42
0
  0
VERTEX
  8
0
 10
1072.751953125
 20
260
 42
0
  0
VERTEX
  8
0
 10
1096.751953125
 20
260
 42
0
  0
VERTEX
  8
0
 10
1104.751953125
 20
268
 42
0
  0
VERTEX
  8
0
 10
1104.751953125
 20
360
 42
0
  0
SEQEND
  0
POLYLINE
  8
0
 10
0
 20
0
 39
0
 70
1
 66
1
  0
VERTEX
  8
0
 10
1067.43994140625
 20
250
 42
0
  0
VERTEX
  8
0
 10
1067.43994140625
 20
150
 42
0
  0
VERTEX
  8
0
 10
1091.43994140625
 20
150
 42
0
  0
VERTEX
  8
0
 10
1099.43994140625
 20
158
 42
0
  0
VERTEX
  8
0
 10
1099.43994140625
 20
250
 42
0
  0
SEQEND
  0
POLYLINE
  8
0
 10
0
 20
0
 39
0
 70
1
 66
1
  0
VERTEX
  8
0
 10
1156.751953125
 20
440
 42
0
  0
VERTEX
  8
0
 10
1156.751953125
 20
340
 42
0
  0
VERTEX
  8
0
 10
1180.751953125
 20
340
 42
0
  0
VERTEX
  8
0
 10
1188.751953125
 20
348
 42
0
  0
VERTEX
  8
0
 10
1188.751953125
 20
440
 42
0
  0
SEQEND
  0
POLYLINE
  8
0
 10
0
 20
0
 39
0
 70
1
 66
1
  0
VERTEX
  8
0
 10
1114.751953125
 20
360
 42
0
  0
VERTEX
  8
0
 10
1114.751953125
 20
260
 42
0
  0
VERTEX
  8
0
 10
1138.751953125
 20
260
 42
0
  0
VERTEX
  8
0
 10
1146.751953125
 20
268
 42
0
  0
VERTEX
  8
0
 10
1146.751953125
 20
360
 42
0
  0
SEQEND
  0
POLYLINE
  8
0
 10
0
 20
0
 39
0
 70
1
 66
1
  0
VERTEX
  8
0
 10
1114.751953125
 20
470
 42
0
  0
VERTEX
  8
0
 10
1114.751953125
 20
370
 42
0
  0
VERTEX
  8
0
 10
1138.751953125
 20
370
 42
0
  0
VERTEX
  8
0
 10
1146.751953125
 20
378
 42
0
  0
VERTEX
  8
0
 10
1146.751953125
 20
470
 42
0
  0
SEQEND
  0
POLYLINE
  8
0
 10
0
 20
0
 39
0
 70
1
 66
1
  0
VERTEX
  8
0
 10
1016.7520141601562
 20
300
 42
0
  0
VERTEX
  8
0
 10
1016.7520141601562
 20
410
 42
0
  0
VERTEX
  8
0
 10
1006.7520141601562
 20
420
 42
0
  0
VERTEX
  8
0
 10
956.75201416015625
 20
420
 42
0
  0
VERTEX
  8
0
 10
946.75201416015625
 20
410
 42
0
  0
VERTEX
  8
0
 10
946.75201416015625
 20
300
 42
0
  0
VERTEX
  8
0
 10
956.75201416015625
 20
290
 42
0
  0
VERTEX
  8
0
 10
1006.7520141601562
 20
290
 42
0
  0
SEQEND
  0
POLYLINE
  8
0
 10
0
 20
0
 39
0
 70
1
 66
1
  0
VERTEX
  8
0
 10
981.75201416015625
 20
380
 42
-1
  0
VERTEX
  8
0
 10
981.75201416015625
 20
330
 42
-1
  0
SEQEND
  0
POLYLINE
  8
0
 10
0
 20
0
 39
0
 70
1
 66
1
  0
VERTEX
  8
0
 10
981.75201416015625
 20
413.5
 42
-1
  0
VERTEX
  8
0
 10
981.75201416015625
 20
401.5
 42
-1
  0
SEQEND
  0
POLYLINE
  8
0
 10
0
 20
0
 39
0
 70
1
 66
1
  0
VERTEX
  8
0
 10
981.75201416015625
 20
308.5
 42
-1
  0
VERTEX
  8
0
 10
981.75201416015625
 20
296.5
 42
-1
  0
SEQEND
  0
POLYLINE
  8
0
 10
0
 20
0
 39
0
 70
1
 66
1
  0
VERTEX
  8
0
 10
923.44000244140625
 20
360
 42
0
  0
VERTEX
  8
0
 10
813.44000244140625
 20
360
 42
0
  0
VERTEX
  8
0
 10
803.44000244140625
 20
350
 42
0
  0
VERTEX
  8
0
 10
803.44000244140625
 20
300
 42
0
  0
VERTEX
  8
0
 10
813.44000244140625
 20
290
 42
0
  0
VERTEX
  8
0
 10
923.44000244140625
 20
290
 42
0
  0
VERTEX
  8
0
 10
933.44000244140625
 20
300
 42
0
  0
VERTEX
  8
0
 10
933.44000244140625
 20
350
 42
0
  0
SEQEND
  0
POLYLINE
  8
0
 10
0
 20
0
 39
0
 70
1
 66
1
  0
VERTEX
  8
0
 10
843.44000244140625
 20
325
 42
-1
  0
VERTEX
  8
0
 10
893.44000244140625
 20
325
 42
-1
  0
SEQEND
  0
POLYLINE
  8
0
 10
0
 20
0
 39
0
 70
1
 66
1
  0
VERTEX
  8
0
 10
809.94000244140625
 20
325
 42
-1
  0
VERTEX
  8
0
 10
821.94000244140625
 20
325
 42
-1
  0
SEQEND
  0
POLYLINE
  8
0
 10
0
 20
0
 39
0
 70
1
 66
1
  0
VERTEX
  8
0
 10
914.94000244140625
 20
325
 42
-1
  0
VERTEX
  8
0
 10
926.94000244140625
 20
325
 42
-1
  0
SEQEND
  0
POLYLINE
  8
0
 10
0
 20
0
 39
0
 70
1
 66
1
  0
VERTEX
  8
0
 10
580.75201416015625
 20
500
 42
0
  0
VERTEX
  8
0
 10
580.75201416015625
 20
370
 42
0
  0
VERTEX
  8
0
 10
616.75201416015625
 20
370
 42
0
  0
VERTEX
  8
0
 10
616.75201416015625
 20
500
 42
0
  0
SEQEND
  0
POLYLINE
  8
0
 10
0
 20
0
 39
0
 70
1
 66
1
  0
VERTEX
  8
0
 10
936.75201416015625
 20
380
 42
0
  0
VERTEX
  8
0
 10
936.75201416015625
 20
490
 42
0
  0
VERTEX
  8
0
 10
926.75201416015625
 20
500
 42
0
  0
VERTEX
  8
0
 10
876.75201416015625
 20
500
 42
0
  0
VERTEX
  8
0
 10
866.75201416015625
 20
490
 42
0
  0
VERTEX
  8
0
 10
866.75201416015625
 20
380
 42
0
  0
VERTEX
  8
0
 10
876.75201416015625
 20
370
 42
0
  0
VERTEX
  8
0
 10
926.75201416015625
 20
370
 42
0
  0
SEQEND
  0
POLYLINE
  8
0
 10
0
 20
0
 39
0
 70
1
 66
1
  0
VERTEX
  8
0
 10
901.75201416015625
 20
460
 42
-1
  0
VERTEX
  8
0
 10
901.75201416015625
 20
410
 42
-1
  0
SEQEND
  0
POLYLINE
  8
0
 10
0
 20
0
 39
0
 70
1
 66
1
  0
VERTEX
  8
0
 10
901.75201416015625
 20
493.5
 42
-1
  0
VERTEX
  8
0
 10
901.75201416015625
 20
481.5
 42
-1
  0
SEQEND
  0
POLYLINE
  8
0
 10
0
 20
0
 39
0
 70
1
 66
1
  0
VERTEX
  8
0
 10
901.75201416015625
 20
388.5
 42
-1
  0
VERTEX
  8
0
 10
901.75201416015625
 20
376.5
 42
-1
  0
SEQEND
  0
POLYLINE
  8
0
 10
0
 20
0
 39
0
 70
1
 66
1
  0
VERTEX
  8
0
 10
975.44000244140625
 20
140
 42
0
  0
VERTEX
  8
0
 10
975.44000244140625
 20
10
 42
0
  0
VERTEX
  8
0
 10
1011.4400024414062
 20
10
 42
0
  0
VERTEX
  8
0
 10
1011.4400024414062
 20
140
 42
0
  0
SEQEND
  0
POLYLINE
  8
0
 10
0
 20
0
 39
0
 70
1
 66
1
  0
VERTEX
  8
0
 10
873.44000244140625
 20
20
 42
0
  0
VERTEX
  8
0
 10
873.44000244140625
 20
130
 42
0
  0
VERTEX
  8
0
 10
863.44000244140625
 20
140
 42
0
  0
VERTEX
  8
0
 10
813.44000244140625
 20
140
 42
0
  0
VERTEX
  8
0
 10
803.44000244140625
 20
130
 42
0
  0
VERTEX
  8
0
 10
803.44000244140625
 20
20
 42
0
  0
VERTEX
  8
0
 10
813.44000244140625
 20
10
 42
0
  0
VERTEX
  8
0
 10
863.44000244140625
 20
10
 42
0
  0
SEQEND
  0
POLYLINE
  8
0
 10
0
 20
0
 39
0
 70
1
 66
1
  0
VERTEX
  8
0
 10
838.44000244140625
 20
100
 42
-1
  0
VERTEX
  8
0
 10
838.44000244140625
 20
50
 42
-1
  0
SEQEND
  0
POLYLINE
  8
0
 10
0
 20
0
 39
0
 70
1
 66
1
  0
VERTEX
  8
0
 10
838.44000244140625
 20
133.5
 42
-1
  0
VERTEX
  8
0
 10
838.44000244140625
 20
121.5
 42
-1
  0
SEQEND
  0
POLYLINE
  8
0
 10
0
 20
0
 39
0
 70
1
 66
1
  0
VERTEX
  8
0
 10
838.44000244140625
 20
28.5
 42
-1
  0
VERTEX
  8
0
 10
838.44000244140625
 20
16.5
 42
-1
  0
SEQEND
  0
POLYLINE
  8
0
 10
0
 20
0
 39
0
 70
1
 66
1
  0
VERTEX
  8
0
 10
738.06402587890625
 20
580
 42
0
  0
VERTEX
  8
0
 10
628.06402587890625
 20
580
 42
0
  0
VERTEX
  8
0
 10
618.06402587890625
 20
570
 42
0
  0
VERTEX
  8
0
 10
618.06402587890625
 20
520
 42
0
  0
VERTEX
  8
0
 10
628.06402587890625
 20
510
 42
0
  0
VERTEX
  8
0
 10
738.06402587890625
 20
510
 42
0
  0
VERTEX
  8
0
 10
748.06402587890625
 20
520
 42
0
  0
VERTEX
  8
0
 10
748.06402587890625
 20
570
 42
0
  0
SEQEND
  0
POLYLINE
  8
0
 10
0
 20
0
 39
0
 70
1
 66
1
  0
VERTEX
  8
0
 10
658.06402587890625
 20
545
 42
-1
  0
VERTEX
  8
0
 10
708.06402587890625
 20
545
 42
-1
  0
SEQEND
  0
POLYLINE
  8
0
 10
0
 20
0
 39
0
 70
1
 66
1
  0
VERTEX
  8
0
 10
624.56402587890625
 20
545
 42
-1
  0
VERTEX
  8
0
 10
636.56402587890625
 20
545
 42
-1
  0
SEQEND
  0
POLYLINE
  8
0
 10
0
 20
0
 39
0
 70
1
 66
1
  0
VERTEX
  8
0
 10
729.56402587890625
 20
545
 42
-1
  0
VERTEX
  8
0
 10
741.56402587890625
 20
545
 42
-1
  0
SEQEND
  0
POLYLINE
  8
0
 10
0
 20
0
 39
0
 70
1
 66
1
  0
VERTEX
  8
0
 10
1016.7520141601562
 20
440
 42
0
  0
VERTEX
  8
0
 10
1016.7520141601562
 20
550
 42
0
  0
VERTEX
  8
0
 10
1006.7520141601562
 20
560
 42
0
  0
VERTEX
  8
0
 10
956.75201416015625
 20
560
 42
0
  0
VERTEX
  8
0
 10
946.75201416015625
 20
550
 42
0
  0
VERTEX
  8
0
 10
946.75201416015625
 20
440
 42
0
  0
VERTEX
  8
0
 10
956.75201416015625
 20
430
 42
0
  0
VERTEX
  8
0
 10
1006.7520141601562
 20
430
 42
0
  0
SEQEND
  0
POLYLINE
  8
0
 10
0
 20
0
 39
0
 70
1
 66
1
  0
VERTEX
  8
0
 10
981.75201416015625
 20
520
 42
-1
  0
VERTEX
  8
0
 10
981.75201416015625
 20
470
 42
-1
  0
SEQEND
  0
POLYLINE
  8
0
 10
0
 20
0
 39
0
 70
1
 66
1
  0
VERTEX
  8
0
 10
981.75201416015625
 20
553.5
 42
-1
  0
VERTEX
  8
0
 10
981.75201416015625
 20
541.5
 42
-1
  0
SEQEND
  0
POLYLINE
  8
0
 10
0
 20
0
 39
0
 70
1
 66
1
  0
VERTEX
  8
0
 10
981.75201416015625
 20
448.5
 42
-1
  0
VERTEX
  8
0
 10
981.75201416015625
 20
436.5
 42
-1
  0
SEQEND
  0
POLYLINE
  8
0
 10
0
 20
0
 39
0
 70
1
 66
1
  0
VERTEX
  8
0
 10
598.06402587890625
 20
580
 42
0
  0
VERTEX
  8
0
 10
488.06399536132812
 20
580
 42
0
  0
VERTEX
  8
0
 10
478.06399536132812
 20
570
 42
0
  0
VERTEX
  8
0
 10
478.06399536132812
 20
520
 42
0
  0
VERTEX
  8
0
 10
488.06399536132812
 20
510
 42
0
  0
VERTEX
  8
0
 10
598.06402587890625
 20
510
 42
0
  0
VERTEX
  8
0
 10
608.06402587890625
 20
520
 42
0
  0
VERTEX
  8
0
 10
608.06402587890625
 20
570
 42
0
  0
SEQEND
  0
POLYLINE
  8
0
 10
0
 20
0
 39
0
 70
1
 66
1
  0
VERTEX
  8
0
 10
518.06402587890625
 20
545
 42
-1
  0
VERTEX
  8
0
 10
568.06402587890625
 20
545
 42
-1
  0
SEQEND
  0
POLYLINE
  8
0
 10
0
 20
0
 39
0
 70
1
 66
1
  0
VERTEX
  8
0
 10
484.56399536132812
 20
545
 42
-1
  0
VERTEX
  8
0
 10
496.56399536132812
 20
545
 42
-1
  0
SEQEND
  0
POLYLINE
  8
0
 10
0
 20
0
 39
0
 70
1
 66
1
  0
VERTEX
  8
0
 10
589.56402587890625
 20
545
 42
-1
  0
VERTEX
  8
0
 10
601.56402587890625
 20
545
 42
-1
  0
SEQEND
  0
POLYLINE
  8
0
 10
0
 20
0
 39
0
 70
1
 66
1
  0
VERTEX
  8
0
 10
776.75201416015625
 20
380
 42
0
  0
VERTEX
  8
0
 10
776.75201416015625
 20
490
 42
0
  0
VERTEX
  8
0
 10
766.75201416015625
 20
500
 42
0
  0
VERTEX
  8
0
 10
716.75201416015625
 20
500
 42
0
  0
VERTEX
  8
0
 10
706.75201416015625
 20
490
 42
0
  0
VERTEX
  8
0
 10
706.75201416015625
 20
380
 42
0
  0
VERTEX
  8
0
 10
716.75201416015625
 20
370
 42
0
  0
VERTEX
  8
0
 10
766.75201416015625
 20
370
 42
0
  0
SEQEND
  0
POLYLINE
  8
0
 10
0
 20
0
 39
0
 70
1
 66
1
  0
VERTEX
  8
0
 10
741.75201416015625
 20
460
 42
-1
  0
VERTEX
  8
0
 10
741.75201416015625
 20
410
 42
-1
  0
SEQEND
  0
POLYLINE
  8
0
 10
0
 20
0
 39
0
 70
1
 66
1
  0
VERTEX
  8
0
 10
741.75201416015625
 20
493.5
 42
-1
  0
VERTEX
  8
0
 10
741.75201416015625
 20
481.5
 42
-1
  0
SEQEND
  0
POLYLINE
  8
0
 10
0
 20
0
 39
0
 70
1
 66
1
  0
VERTEX
  8
0
 10
741.75201416015625
 20
388.5
 42
-1
  0
VERTEX
  8
0
 10
741.75201416015625
 20
376.5
 42
-1
  0
SEQEND
  0
POLYLINE
  8
0
 10
0
 20
0
 39
0
 70
1
 66
1
  0
VERTEX
  8
0
 10
490.75201416015625
 20
340
 42
0
  0
VERTEX
  8
0
 10
490.75201416015625
 20
450
 42
0
  0
VERTEX
  8
0
 10
480.75201416015625
 20
460
 42
0
  0
VERTEX
  8
0
 10
430.75201416015625
 20
460
 42
0
  0
VERTEX
  8
0
 10
420.75201416015625
 20
450
 42
0
  0
VERTEX
  8
0
 10
420.75201416015625
 20
340
 42
0
  0
VERTEX
  8
0
 10
430.75201416015625
 20
330
 42
0
  0
VERTEX
  8
0
 10
480.75201416015625
 20
330
 42
0
  0
SEQEND
  0
POLYLINE
  8
0
 10
0
 20
0
 39
0
 70
1
 66
1
  0
VERTEX
  8
0
 10
455.75201416015625
 20
420
 42
-1
  0
VERTEX
  8
0
 10
455.75201416015625
 20
370
 42
-1
  0
SEQEND
  0
POLYLINE
  8
0
 10
0
 20
0
 39
0
 70
1
 66
1
  0
VERTEX
  8
0
 10
455.75201416015625
 20
453.5
 42
-1
  0
VERTEX
  8
0
 10
455.75201416015625
 20
441.5
 42
-1
  0
SEQEND
  0
POLYLINE
  8
0
 10
0
 20
0
 39
0
 70
1
 66
1
  0
VERTEX
  8
0
 10
455.75201416015625
 20
348.5
 42
-1
  0
VERTEX
  8
0
 10
455.75201416015625
 20
336.5
 42
-1
  0
SEQEND
  0
POLYLINE
  8
0
 10
0
 20
0
 39
0
 70
1
 66
1
  0
VERTEX
  8
0
 10
570.75201416015625
 20
380
 42
0
  0
VERTEX
  8
0
 10
570.75201416015625
 20
490
 42
0
  0
VERTEX
  8
0
 10
560.75201416015625
 20
500
 42
0
  0
VERTEX
  8
0
 10
510.75201416015625
 20
500
 42
0
  0
VERTEX
  8
0
 10
500.75201416015625
 20
490
 42
0
  0
VERTEX
  8
0
 10
500.75201416015625
 20
380
 42
0
  0
VERTEX
  8
0
 10
510.75201416015625
 20
370
 42
0
  0
VERTEX
  8
0
 10
560.75201416015625
 20
370
 42
0
  0
SEQEND
  0
POLYLINE
  8
0
 10
0
 20
0
 39
0
 70
1
 66
1
  0
VERTEX
  8
0
 10
535.75201416015625
 20
460
 42
-1
  0
VERTEX
  8
0
 10
535.75201416015625
 20
410
 42
-1
  0
SEQEND
  0
POLYLINE
  8
0
 10
0
 20
0
 39
0
 70
1
 66
1
  0
VERTEX
  8
0
 10
535.75201416015625
 20
493.5
 42
-1
  0
VERTEX
  8
0
 10
535.75201416015625
 20
481.5
 42
-1
  0
SEQEND
  0
POLYLINE
  8
0
 10
0
 20
0
 39
0
 70
1
 66
1
  0
VERTEX
  8
0
 10
535.75201416015625
 20
388.5
 42
-1
  0
VERTEX
  8
0
 10
535.75201416015625
 20
376.5
 42
-1
  0
SEQEND
  0
POLYLINE
  8
0
 10
0
 20
0
 39
0
 70
1
 66
1
  0
VERTEX
  8
0
 10
265
 20
265
 42
0
  0
VERTEX
  8
0
 10
90
 20
265
 42
-0
  0
VERTEX
  8
0
 10
10
 20
185
 42
0
  0
VERTEX
  8
0
 10
10
 20
10
 42
0
  0
VERTEX
  8
0
 10
265
 20
10
 42
0
  0
SEQEND
  0
POLYLINE
  8
0
 10
0
 20
0
 39
0
 70
1
 66
1
  0
VERTEX
  8
0
 10
883.44000244140625
 20
280
 42
0
  0
VERTEX
  8
0
 10
883.44000244140625
 20
150
 42
0
  0
VERTEX
  8
0
 10
919.44000244140625
 20
150
 42
0
  0
VERTEX
  8
0
 10
919.44000244140625
 20
280
 42
0
  0
SEQEND
  0
POLYLINE
  8
0
 10
0
 20
0
 39
0
 70
1
 66
1
  0
VERTEX
  8
0
 10
883.44000244140625
 20
140
 42
0
  0
VERTEX
  8
0
 10
883.44000244140625
 20
10
 42
0
  0
VERTEX
  8
0
 10
919.44000244140625
 20
10
 42
0
  0
VERTEX
  8
0
 10
919.44000244140625
 20
140
 42
0
  0
SEQEND
  0
POLYLINE
  8
0
 10
0
 20
0
 39
0
 70
1
 66
1
  0
VERTEX
  8
0
 10
975.44000244140625
 20
280
 42
0
  0
VERTEX
  8
0
 10
975.44000244140625
 20
150
 42
0
  0
VERTEX
  8
0
 10
1011.4400024414062
 20
150
 42
0
  0
VERTEX
  8
0
 10
1011.4400024414062
 20
280
 42
0
  0
SEQEND
  0
POLYLINE
  8
0
 10
0
 20
0
 39
0
 70
1
 66
1
  0
VERTEX
  8
0
 10
1026.751953125
 20
420
 42
0
  0
VERTEX
  8
0
 10
1026.751953125
 20
290
 42
0
  0
VERTEX
  8
0
 10
1062.751953125
 20
290
 42
0
  0
VERTEX
  8
0
 10
1062.751953125
 20
420
 42
0
  0
SEQEND
  0
POLYLINE
  8
0
 10
0
 20
0
 39
0
 70
1
 66
1
  0
VERTEX
  8
0
 10
1151.43994140625
 20
220
 42
0
  0
VERTEX
  8
0
 10
1151.43994140625
 20
120
 42
0
  0
VERTEX
  8
0
 10
1175.43994140625
 20
120
 42
0
  0
VERTEX
  8
0
 10
1183.43994140625
 20
128
 42
0
  0
VERTEX
  8
0
 10
1183.43994140625
 20
220
 42
0
  0
SEQEND
  0
POLYLINE
  8
0
 10
0
 20
0
 39
0
 70
1
 66
1
  0
VERTEX
  8
0
 10
1021.4400024414062
 20
140
 42
0
  0
VERTEX
  8
0
 10
1021.4400024414062
 20
10
 42
0
  0
VERTEX
  8
0
 10
1057.43994140625
 20
10
 42
0
  0
VERTEX
  8
0
 10
1057.43994140625
 20
140
 42
0
  0
SEQEND
  0
POLYLINE
  8
0
 10
0
 20
0
 39
0
 70
1
 66
1
  0
VERTEX
  8
0
 10
696.75201416015625
 20
380
 42
0
  0
VERTEX
  8
0
 10
696.75201416015625
 20
490
 42
0
  0
VERTEX
  8
0
 10
686.75201416015625
 20
500
 42
0
  0
VERTEX
  8
0
 10
636.75201416015625
 20
500
 42
0
  0
VERTEX
  8
0
 10
626.75201416015625
 20
490
 42
0
  0
VERTEX
  8
0
 10
626.75201416015625
 20
380
 42
0
  0
VERTEX
  8
0
 10
636.75201416015625
 20
370
 42
0
  0
VERTEX
  8
0
 10
686.75201416015625
 20
370
 42
0
  0
SEQEND
  0
POLYLINE
  8
0
 10
0
 20
0
 39
0
 70
1
 66
1
  0
VERTEX
  8
0
 10
661.75201416015625
 20
460
 42
-1
  0
VERTEX
  8
0
 10
661.75201416015625
 20
410
 42
-1
  0
SEQEND
  0
POLYLINE
  8
0
 10
0
 20
0
 39
0
 70
1
 66
1
  0
VERTEX
  8
0
 10
661.75201416015625
 20
493.5
 42
-1
  0
VERTEX
  8
0
 10
661.75201416015625
 20
481.5
 42
-1
  0
SEQEND
  0
POLYLINE
  8
0
 10
0
 20
0
 39
0
 70
1
 66
1
  0
VERTEX
  8
0
 10
661.75201416015625
 20
388.5
 42
-1
  0
VERTEX
  8
0
 10
661.75201416015625
 20
376.5
 42
-1
  0
SEQEND
  0
POLYLINE
  8
0
 10
0
 20
0
 39
0
 70
1
 66
1
  0
VERTEX
  8
0
 10
1113.43994140625
 20
110
 42
0
  0
VERTEX
  8
0
 10
1113.43994140625
 20
10
 42
0
  0
VERTEX
  8
0
 10
1137.43994140625
 20
10
 42
0
  0
VERTEX
  8
0
 10
1145.43994140625
 20
18
 42
0
  0
VERTEX
  8
0
 10
1145.43994140625
 20
110
 42
0
  0
SEQEND
  0
POLYLINE
  8
0
 10
0
 20
0
 39
0
 70
1
 66
1
  0
VERTEX
  8
0
 10
929.44000244140625
 20
140
 42
0
  0
VERTEX
  8
0
 10
929.44000244140625
 20
10
 42
0
  0
VERTEX
  8
0
 10
965.44000244140625
 20
10
 42
0
  0
VERTEX
  8
0
 10
965.44000244140625
 20
140
 42
0
  0
SEQEND
  0
POLYLINE
  8
0
 10
0
 20
0
 39
0
 70
1
 66
1
  0
VERTEX
  8
0
 10
878.06402587890625
 20
580
 42
0
  0
VERTEX
  8
0
 10
768.06402587890625
 20
580
 42
0
  0
VERTEX
  8
0
 10
758.06402587890625
 20
570
 42
0
  0
VERTEX
  8
0
 10
758.06402587890625
 20
520
 42
0
  0
VERTEX
  8
0
 10
768.06402587890625
 20
510
 42
0
  0
VERTEX
  8
0
 10
878.06402587890625
 20
510
 42
0
  0
VERTEX
  8
0
 10
888.06402587890625
 20
520
 42
0
  0
VERTEX
  8
0
 10
888.06402587890625
 20
570
 42
0
  0
SEQEND
  0
POLYLINE
  8
0
 10
0
 20
0
 39
0
 70
1
 66
1
  0
VERTEX
  8
0
 10
798.06402587890625
 20
545
 42
-1
  0
VERTEX
  8
0
 10
848.06402587890625
 20
545
 42
-1
  0
SEQEND
  0
POLYLINE
  8
0
 10
0
 20
0
 39
0
 70
1
 66
1
  0
VERTEX
  8
0
 10
764.56402587890625
 20
545
 42
-1
  0
VERTEX
  8
0
 10
776.56402587890625
 20
545
 42
-1
  0
SEQEND
  0
POLYLINE
  8
0
 10
0
 20
0
 39
0
 70
1
 66
1
  0
VERTEX
  8
0
 10
869.56402587890625
 20
545
 42
-1
  0
VERTEX
  8
0
 10
881.56402587890625
 20
545
 42
-1
  0
SEQEND
  0
POLYLINE
  8
0
 10
0
 20
0
 39
0
 70
1
 66
1
  0
VERTEX
  8
0
 10
873.44000244140625
 20
160
 42
0
  0
VERTEX
  8
0
 10
873.44000244140625
 20
270
 42
0
  0
VERTEX
  8
0
 10
863.44000244140625
 20
280
 42
0
  0
VERTEX
  8
0
 10
813.44000244140625
 20
280
 42
0
  0
VERTEX
  8
0
 10
803.44000244140625
 20
270
 42
0
  0
VERTEX
  8
0
 10
803.44000244140625
 20
160
 42
0
  0
VERTEX
  8
0
 10
813.44000244140625
 20
150
 42
0
  0
VERTEX
  8
0
 10
863.44000244140625
 20
150
 42
0
  0
SEQEND
  0
POLYLINE
  8
0
 10
0
 20
0
 39
0
 70
1
 66
1
  0
VERTEX
  8
0
 10
838.44000244140625
 20
240
 42
-1
  0
VERTEX
  8
0
 10
838.44000244140625
 20
190
 42
-1
  0
SEQEND
  0
POLYLINE
  8
0
 10
0
 20
0
 39
0
 70
1
 66
1
  0
VERTEX
  8
0
 10
838.44000244140625
 20
273.5
 42
-1
  0
VERTEX
  8
0
 10
838.44000244140625
 20
261.5
 42
-1
  0
SEQEND
  0
POLYLINE
  8
0
 10
0
 20
0
 39
0
 70
1
 66
1
  0
VERTEX
  8
0
 10
838.44000244140625
 20
168.5
 42
-1
  0
VERTEX
  8
0
 10
838.44000244140625
 20
156.5
 42
-1
  0
SEQEND
  0
POLYLINE
  8
0
 10
0
 20
0
 39
0
 70
1
 66
1
  0
VERTEX
  8
0
 10
856.75201416015625
 20
380
 42
0
  0
VERTEX
  8
0
 10
856.75201416015625
 20
490
 42
0
  0
VERTEX
  8
0
 10
846.75201416015625
 20
500
 42
0
  0
VERTEX
  8
0
 10
796.75201416015625
 20
500
 42
0
  0
VERTEX
  8
0
 10
786.75201416015625
 20
490
 42
0
  0
VERTEX
  8
0
 10
786.75201416015625
 20
380
 42
0
  0
VERTEX
  8
0
 10
796.75201416015625
 20
370
 42
0
  0
VERTEX
  8
0
 10
846.75201416015625
 20
370
 42
0
  0
SEQEND
  0
POLYLINE
  8
0
 10
0
 20
0
 39
0
 70
1
 66
1
  0
VERTEX
  8
0
 10
821.75201416015625
 20
460
 42
-1
  0
VERTEX
  8
0
 10
821.75201416015625
 20
410
 42
-1
  0
SEQEND
  0
POLYLINE
  8
0
 10
0
 20
0
 39
0
 70
1
 66
1
  0
VERTEX
  8
0
 10
821.75201416015625
 20
493.5
 42
-1
  0
VERTEX
  8
0
 10
821.75201416015625
 20
481.5
 42
-1
  0
SEQEND
  0
POLYLINE
  8
0
 10
0
 20
0
 39
0
 70
1
 66
1
  0
VERTEX
  8
0
 10
821.75201416015625
 20
388.5
 42
-1
  0
VERTEX
  8
0
 10
821.75201416015625
 20
376.5
 42
-1
  0
SEQEND
  0
POLYLINE
  8
0
 10
0
 20
0
 39
0
 70
1
 66
1
  0
VERTEX
  8
0
 10
1021.4400024414062
 20
280
 42
0
  0
VERTEX
  8
0
 10
1021.4400024414062
 20
150
 42
0
  0
VERTEX
  8
0
 10
1057.43994140625
 20
150
 42
0
  0
VERTEX
  8
0
 10
1057.43994140625
 20
280
 42
0
  0
SEQEND
  0
POLYLINE
  8
0
 10
0
 20
0
 39
0
 70
1
 66
1
  0
VERTEX
  8
0
 10
929.44000244140625
 20
280
 42
0
  0
VERTEX
  8
0
 10
929.44000244140625
 20
150
 42
0
  0
VERTEX
  8
0
 10
965.44000244140625
 20
150
 42
0
  0
VERTEX
  8
0
 10
965.44000244140625
 20
280
 42
0
  0
SEQEND
  0
ENDSEC
  0
EOF
