  0
SECTION
  2
ENTITIES
  0
POLYLINE
  8
0
 10
0
 20
0
 39
0
 70
1
 66
1
  0
VERTEX
  8
0
 10
0
 20
0
 42
-0
  0
VERTEX
  8
0
 10
2000
 20
0
 42
-0
  0
VERTEX
  8
0
 10
2000
 20
1000
 42
-0
  0
VERTEX
  8
0
 10
0
 20
1000
 42
-0
  0
SEQEND
  0
POLYLINE
  8
0
 10
0
 20
0
 39
0
 70
1
 66
1
  0
VERTEX
  8
0
 10
962.4493408203125
 20
868
 42
0
  0
VERTEX
  8
0
 10
640.4493408203125
 20
868
 42
-0
  0
VERTEX
  8
0
 10
635.4493408203125
 20
830
 42
0
  0
VERTEX
  8
0
 10
957.4493408203125
 20
830
 42
0
  0
SEQEND
  0
POLYLINE
  8
0
 10
0
 20
0
 39
0
 70
1
 66
1
  0
VERTEX
  8
0
 10
1480.8472900390625
 20
20
 42
0
  0
VERTEX
  8
0
 10
1480.8472900390625
 20
453
 42
-0
  0
VERTEX
  8
0
 10
1435.8472900390625
 20
480
 42
0
  0
VERTEX
  8
0
 10
1380.8472900390625
 20
480
 42
-0
  0
VERTEX
  8
0
 10
1370.8472900390625
 20
470
 42
0
  0
VERTEX
  8
0
 10
1370.8472900390625
 20
20
 42
0
  0
VERTEX
  8
0
 10
1380.8472900390625
 20
10
 42
0
  0
VERTEX
  8
0
 10
1470.8472900390625
 20
10
 42
0
  0
SEQEND
  0
POLYLINE
  8
0
 10
0
 20
0
 39
0
 70
1
 66
1
  0
VERTEX
  8
0
 10
1425.8472900390625
 20
442.5
 42
-1
  0
VERTEX
  8
0
 10
1425.8472900390625
 20
397.5
 42
-1
  0
SEQEND
  0
POLYLINE
  8
0
 10
0
 20
0
 39
0
 70
1
 66
1
  0
VERTEX
  8
0
 10
1405.8472900390625
 20
469.5
 42
-1
  0
VERTEX
  8
0
 10
1405.8472900390625
 20
450.5
 42
-1
  0
SEQEND
  0
POLYLINE
  8
0
 10
0
 20
0
 39
0
 70
1
 66
1
  0
VERTEX
  8
0
 10
1465.8472900390625
 20
389.5
 42
-1
  0
VERTEX
  8
0
 10
1465.8472900390625
 20
370.5
 42
-1
  0
SEQEND
  0
POLYLINE
  8
0
 10
0
 20
0
 39
0
 70
1
 66
1
  0
VERTEX
  8
0
 10
1385.8472900390625
 20
214.5
 42
-1
  0
VERTEX
  8
0
 10
1385.8472900390625
 20
195.5
 42
-1
  0
SEQEND
  0
POLYLINE
  8
0
 10
0
 20
0
 39
0
 70
1
 66
1
  0
VERTEX
  8
0
 10
1465.8472900390625
 20
214.5
 42
-1
  0
VERTEX
  8
0
 10
1465.8472900390625
 20
195.5
 42
-1
  0
SEQEND
  0
POLYLINE
  8
0
 10
0
 20
0
 39
0
 70
1
 66
1
  0
VERTEX
  8
0
 10
1425.8472900390625
 20
92.5
 42
-1
  0
VERTEX
  8
0
 10
1425.8472900390625
 20
47.5
 42
-1
  0
SEQEND
  0
POLYLINE
  8
0
 10
0
 20
0
 39
0
 70
1
 66
1
  0
VERTEX
  8
0
 10
1385.8472900390625
 20
39.5
 42
-1
  0
VERTEX
  8
0
 10
1385.8472900390625
 20
20.5
 42
-1
  0
SEQEND
  0
POLYLINE
  8
0
 10
0
 20
0
 39
0
 70
1
 66
1
  0
VERTEX
  8
0
 10
1465.8472900390625
 20
39.5
 42
-1
  0
VERTEX
  8
0
 10
1465.8472900390625
 20
20.5
 42
-1
  0
SEQEND
  0
POLYLINE
  8
0
 10
0
 20
0
 39
0
 70
1
 66
1
  0
VERTEX
  8
0
 10
1843.898681640625
 20
500
 42
0
  0
VERTEX
  8
0
 10
1843.898681640625
 20
933
 42
-0
  0
VERTEX
  8
0
 10
1798.898681640625
 20
960
 42
0
  0
VERTEX
  8
0
 10
1743.898681640625
 20
960
 42
-0
  0
VERTEX
  8
0
 10
1733.898681640625
 20
950
 42
0
  0
VERTEX
  8
0
 10
1733.898681640625
 20
500
 42
0
  0
VERTEX
  8
0
 10
1743.898681640625
 20
490
 42
0
  0
VERTEX
  8
0
 10
1833.898681640625
 20
490
 42
0
  0
SEQEND
  0
POLYLINE
  8
0
 10
0
 20
0
 39
0
 70
1
 66
1
  0
VERTEX
  8
0
 10
1788.898681640625
 20
922.5
 42
-1
  0
VERTEX
  8
0
 10
1788.898681640625
 20
877.5
 42
-1
  0
SEQEND
  0
POLYLINE
  8
0
 10
0
 20
0
 39
0
 70
1
 66
1
  0
VERTEX
  8
0
 10
1768.898681640625
 20
949.5
 42
-1
  0
VERTEX
  8
0
 10
1768.898681640625
 20
930.5
 42
-1
  0
SEQEND
  0
POLYLINE
  8
0
 10
0
 20
0
 39
0
 70
1
 66
1
  0
VERTEX
  8
0
 10
1828.898681640625
 20
869.5
 42
-1
  0
VERTEX
  8
0
 10
1828.898681640625
 20
850.5
 42
-1
  0
SEQEND
  0
POLYLINE
  8
0
 10
0
 20
0
 39
0
 70
1
 66
1
  0
VERTEX
  8
0
 10
1748.898681640625
 20
694.5
 42
-1
  0
VERTEX
  8
0
 10
1748.898681640625
 20
675.5
 42
-1
  0
SEQEND
  0
POLYLINE
  8
0
 10
0
 20
0
 39
0
 70
1
 66
1
  0
VERTEX
  8
0
 10
1828.898681640625
 20
694.5
 42
-1
  0
VERTEX
  8
0
 10
1828.898681640625
 20
675.5
 42
-1
  0
SEQEND
  0
POLYLINE
  8
0
 10
0
 20
0
 39
0
 70
1
 66
1
  0
VERTEX
  8
0
 10
1788.898681640625
 20
572.5
 42
-1
  0
VERTEX
  8
0
 10
1788.898681640625
 20
527.5
 42
-1
  0
SEQEND
  0
POLYLINE
  8
0
 10
0
 20
0
 39
0
 70
1
 66
1
  0
VERTEX
  8
0
 10
1748.898681640625
 20
519.5
 42
-1
  0
VERTEX
  8
0
 10
1748.898681640625
 20
500.5
 42
-1
  0
SEQEND
  0
POLYLINE
  8
0
 10
0
 20
0
 39
0
 70
1
 66
1
  0
VERTEX
  8
0
 10
1828.898681640625
 20
519.5
 42
-1
  0
VERTEX
  8
0
 10
1828.898681640625
 20
500.5
 42
-1
  0
SEQEND
  0
POLYLINE
  8
0
 10
0
 20
0
 39
0
 70
1
 66
1
  0
VERTEX
  8
0
 10
1723.898681640625
 20
500
 42
0
  0
VERTEX
  8
0
 10
1723.898681640625
 20
933
 42
-0
  0
VERTEX
  8
0
 10
1678.898681640625
 20
960
 42
0
  0
VERTEX
  8
0
 10
1623.898681640625
 20
960
 42
-0
  0
VERTEX
  8
0
 10
1613.898681640625
 20
950
 42
0
  0
VERTEX
  8
0
 10
1613.898681640625
 20
500
 42
0
  0
VERTEX
  8
0
 10
1623.898681640625
 20
490
 42
0
  0
VERTEX
  8
0
 10
1713.898681640625
 20
490
 42
0
  0
SEQEND
  0
POLYLINE
  8
0
 10
0
 20
0
 39
0
 70
1
 66
1
  0
VERTEX
  8
0
 10
1668.898681640625
 20
922.5
 42
-1
  0
VERTEX
  8
0
 10
1668.898681640625
 20
877.5
 42
-1
  0
SEQEND
  0
POLYLINE
  8
0
 10
0
 20
0
 39
0
 70
1
 66
1
  0
VERTEX
  8
0
 10
1648.898681640625
 20
949.5
 42
-1
  0
VERTEX
  8
0
 10
1648.898681640625
 20
930.5
 42
-1
  0
SEQEND
  0
POLYLINE
  8
0
 10
0
 20
0
 39
0
 70
1
 66
1
  0
VERTEX
  8
0
 10
1708.898681640625
 20
869.5
 42
-1
  0
VERTEX
  8
0
 10
1708.898681640625
 20
850.5
 42
-1
  0
SEQEND
  0
POLYLINE
  8
0
 10
0
 20
0
 39
0
 70
1
 66
1
  0
VERTEX
  8
0
 10
1628.898681640625
 20
694.5
 42
-1
  0
VERTEX
  8
0
 10
1628.898681640625
 20
675.5
 42
-1
  0
SEQEND
  0
POLYLINE
  8
0
 10
0
 20
0
 39
0
 70
1
 66
1
  0
VERTEX
  8
0
 10
1708.898681640625
 20
694.5
 42
-1
  0
VERTEX
  8
0
 10
1708.898681640625
 20
675.5
 42
-1
  0
SEQEND
  0
POLYLINE
  8
0
 10
0
 20
0
 39
0
 70
1
 66
1
  0
VERTEX
  8
0
 10
1668.898681640625
 20
572.5
 42
-1
  0
VERTEX
  8
0
 10
1668.898681640625
 20
527.5
 42
-1
  0
SEQEND
  0
POLYLINE
  8
0
 10
0
 20
0
 39
0
 70
1
 66
1
  0
VERTEX
  8
0
 10
1628.898681640625
 20
519.5
 42
-1
  0
VERTEX
  8
0
 10
1628.898681640625
 20
500.5
 42
-1
  0
SEQEND
  0
POLYLINE
  8
0
 10
0
 20
0
 39
0
 70
1
 66
1
  0
VERTEX
  8
0
 10
1708.898681640625
 20
519.5
 42
-1
  0
VERTEX
  8
0
 10
1708.898681640625
 20
500.5
 42
-1
  0
SEQEND
  0
POLYLINE
  8
0
 10
0
 20
0
 39
0
 70
1
 66
1
  0
VERTEX
  8
0
 10
1603.898681640625
 20
500
 42
0
  0
VERTEX
  8
0
 10
1603.898681640625
 20
933
 42
-0
  0
VERTEX
  8
0
 10
1558.898681640625
 20
960
 42
0
  0
VERTEX
  8
0
 10
1503.898681640625
 20
960
 42
-0
  0
VERTEX
  8
0
 10
1493.898681640625
 20
950
 42
0
  0
VERTEX
  8
0
 10
1493.898681640625
 20
500
 42
0
  0
VERTEX
  8
0
 10
1503.898681640625
 20
490
 42
0
  0
VERTEX
  8
0
 10
1593.898681640625
 20
490
 42
0
  0
SEQEND
  0
POLYLINE
  8
0
 10
0
 20
0
 39
0
 70
1
 66
1
  0
VERTEX
  8
0
 10
1548.898681640625
 20
922.5
 42
-1
  0
VERTEX
  8
0
 10
1548.898681640625
 20
877.5
 42
-1
  0
SEQEND
  0
POLYLINE
  8
0
 10
0
 20
0
 39
0
 70
1
 66
1
  0
VERTEX
  8
0
 10
1528.898681640625
 20
949.5
 42
-1
  0
VERTEX
  8
0
 10
1528.898681640625
 20
930.5
 42
-1
  0
SEQEND
  0
POLYLINE
  8
0
 10
0
 20
0
 39
0
 70
1
 66
1
  0
VERTEX
  8
0
 10
1588.898681640625
 20
869.5
 42
-1
  0
VERTEX
  8
0
 10
1588.898681640625
 20
850.5
 42
-1
  0
SEQEND
  0
POLYLINE
  8
0
 10
0
 20
0
 39
0
 70
1
 66
1
  0
VERTEX
  8
0
 10
1508.898681640625
 20
694.5
 42
-1
  0
VERTEX
  8
0
 10
1508.898681640625
 20
675.5
 42
-1
  0
SEQEND
  0
POLYLINE
  8
0
 10
0
 20
0
 39
0
 70
1
 66
1
  0
VERTEX
  8
0
 10
1588.898681640625
 20
694.5
 42
-1
  0
VERTEX
  8
0
 10
1588.898681640625
 20
675.5
 42
-1
  0
SEQEND
  0
POLYLINE
  8
0
 10
0
 20
0
 39
0
 70
1
 66
1
  0
VERTEX
  8
0
 10
1548.898681640625
 20
572.5
 42
-1
  0
VERTEX
  8
0
 10
1548.898681640625
 20
527.5
 42
-1
  0
SEQEND
  0
POLYLINE
  8
0
 10
0
 20
0
 39
0
 70
1
 66
1
  0
VERTEX
  8
0
 10
1508.898681640625
 20
519.5
 42
-1
  0
VERTEX
  8
0
 10
1508.898681640625
 20
500.5
 42
-1
  0
SEQEND
  0
POLYLINE
  8
0
 10
0
 20
0
 39
0
 70
1
 66
1
  0
VERTEX
  8
0
 10
1588.898681640625
 20
519.5
 42
-1
  0
VERTEX
  8
0
 10
1588.898681640625
 20
500.5
 42
-1
  0
SEQEND
  0
POLYLINE
  8
0
 10
0
 20
0
 39
0
 70
1
 66
1
  0
VERTEX
  8
0
 10
1091.5948486328125
 20
298.4493408203125
 42
0
  0
VERTEX
  8
0
 10
1091.5948486328125
 20
448.4493408203125
 42
0
  0
VERTEX
  8
0
 10
1026.0948486328125
 20
561.898681640625
 42
0.97178131341934204
  0
VERTEX
  8
0
 10
973.3177490234375
 20
533.40960693359375
 42
-0
  0
SEQEND
  0
POLYLINE
  8
0
 10
0
 20
0
 39
0
 70
1
 66
1
  0
VERTEX
  8
0
 10
1031.3077392578125
 20
464.4493408203125
 42
-1
  0
VERTEX
  8
0
 10
1063.3077392578125
 20
464.4493408203125
 42
-1
  0
SEQEND
  0
POLYLINE
  8
0
 10
0
 20
0
 39
0
 70
1
 66
1
  0
VERTEX
  8
0
 10
984.1141357421875
 20
546.898681640625
 42
-1
  0
VERTEX
  8
0
 10
1016.1141357421875
 20
546.898681640625
 42
-1
  0
SEQEND
  0
POLYLINE
  8
0
 10
0
 20
0
 39
0
 70
1
 66
1
  0
VERTEX
  8
0
 10
940
 20
576.898681640625
 42
0
  0
VERTEX
  8
0
 10
940
 20
426.898681640625
 42
0
  0
VERTEX
  8
0
 10
1005.5
 20
313.4493408203125
 42
0.97178131341934204
  0
VERTEX
  8
0
 10
1058.277099609375
 20
341.93841552734375
 42
-0
  0
SEQEND
  0
POLYLINE
  8
0
 10
0
 20
0
 39
0
 70
1
 66
1
  0
VERTEX
  8
0
 10
1000.2871704101562
 20
410.898681640625
 42
-1
  0
VERTEX
  8
0
 10
968.28717041015625
 20
410.898681640625
 42
-1
  0
SEQEND
  0
POLYLINE
  8
0
 10
0
 20
0
 39
0
 70
1
 66
1
  0
VERTEX
  8
0
 10
1047.480712890625
 20
328.4493408203125
 42
-1
  0
VERTEX
  8
0
 10
1015.4807739257812
 20
328.4493408203125
 42
-1
  0
SEQEND
  0
POLYLINE
  8
0
 10
0
 20
0
 39
0
 70
1
 66
1
  0
VERTEX
  8
0
 10
1483.898681640625
 20
500
 42
0
  0
VERTEX
  8
0
 10
1483.898681640625
 20
933
 42
-0
  0
VERTEX
  8
0
 10
1438.898681640625
 20
960
 42
0
  0
VERTEX
  8
0
 10
1383.898681640625
 20
960
 42
-0
  0
VERTEX
  8
0
 10
1373.898681640625
 20
950
 42
0
  0
VERTEX
  8
0
 10
1373.898681640625
 20
500
 42
0
  0
VERTEX
  8
0
 10
1383.898681640625
 20
490
 42
0
  0
VERTEX
  8
0
 10
1473.898681640625
 20
490
 42
0
  0
SEQEND
  0
POLYLINE
  8
0
 10
0
 20
0
 39
0
 70
1
 66
1
  0
VERTEX
  8
0
 10
1428.898681640625
 20
922.5
 42
-1
  0
VERTEX
  8
0
 10
1428.898681640625
 20
877.5
 42
-1
  0
SEQEND
  0
POLYLINE
  8
0
 10
0
 20
0
 39
0
 70
1
 66
1
  0
VERTEX
  8
0
 10
1408.898681640625
 20
949.5
 42
-1
  0
VERTEX
  8
0
 10
1408.898681640625
 20
930.5
 42
-1
  0
SEQEND
  0
POLYLINE
  8
0
 10
0
 20
0
 39
0
 70
1
 66
1
  0
VERTEX
  8
0
 10
1468.898681640625
 20
869.5
 42
-1
  0
VERTEX
  8
0
 10
1468.898681640625
 20
850.5
 42
-1
  0
SEQEND
  0
POLYLINE
  8
0
 10
0
 20
0
 39
0
 70
1
 66
1
  0
VERTEX
  8
0
 10
1388.898681640625
 20
694.5
 42
-1
  0
VERTEX
  8
0
 10
1388.898681640625
 20
675.5
 42
-1
  0
SEQEND
  0
POLYLINE
  8
0
 10
0
 20
0
 39
0
 70
1
 66
1
  0
VERTEX
  8
0
 10
1468.898681640625
 20
694.5
 42
-1
  0
VERTEX
  8
0
 10
1468.898681640625
 20
675.5
 42
-1
  0
SEQEND
  0
POLYLINE
  8
0
 10
0
 20
0
 39
0
 70
1
 66
1
  0
VERTEX
  8
0
 10
1428.898681640625
 20
572.5
 42
-1
  0
VERTEX
  8
0
 10
1428.898681640625
 20
527.5
 42
-1
  0
SEQEND
  0
POLYLINE
  8
0
 10
0
 20
0
 39
0
 70
1
 66
1
  0
VERTEX
  8
0
 10
1388.898681640625
 20
519.5
 42
-1
  0
VERTEX
  8
0
 10
1388.898681640625
 20
500.5
 42
-1
  0
SEQEND
  0
POLYLINE
  8
0
 10
0
 20
0
 39
0
 70
1
 66
1
  0
VERTEX
  8
0
 10
1468.898681640625
 20
519.5
 42
-1
  0
VERTEX
  8
0
 10
1468.898681640625
 20
500.5
 42
-1
  0
SEQEND
  0
POLYLINE
  8
0
 10
0
 20
0
 39
0
 70
1
 66
1
  0
VERTEX
  8
0
 10
962.4493408203125
 20
916
 42
0
  0
VERTEX
  8
0
 10
640.4493408203125
 20
916
 42
-0
  0
VERTEX
  8
0
 10
635.4493408203125
 20
878
 42
0
  0
VERTEX
  8
0
 10
957.4493408203125
 20
878
 42
0
  0
SEQEND
  0
POLYLINE
  8
0
 10
0
 20
0
 39
0
 70
1
 66
1
  0
VERTEX
  8
0
 10
337
 20
928
 42
0
  0
VERTEX
  8
0
 10
15
 20
928
 42
-0
  0
VERTEX
  8
0
 10
10
 20
890
 42
0
  0
VERTEX
  8
0
 10
332
 20
890
 42
0
  0
SEQEND
  0
POLYLINE
  8
0
 10
0
 20
0
 39
0
 70
1
 66
1
  0
VERTEX
  8
0
 10
1840.8472900390625
 20
20
 42
0
  0
VERTEX
  8
0
 10
1840.8472900390625
 20
453
 42
-0
  0
VERTEX
  8
0
 10
1795.8472900390625
 20
480
 42
0
  0
VERTEX
  8
0
 10
1740.8472900390625
 20
480
 42
-0
  0
VERTEX
  8
0
 10
1730.8472900390625
 20
470
 42
0
  0
VERTEX
  8
0
 10
1730.8472900390625
 20
20
 42
0
  0
VERTEX
  8
0
 10
1740.8472900390625
 20
10
 42
0
  0
VERTEX
  8
0
 10
1830.8472900390625
 20
10
 42
0
  0
SEQEND
  0
POLYLINE
  8
0
 10
0
 20
0
 39
0
 70
1
 66
1
  0
VERTEX
  8
0
 10
1785.8472900390625
 20
442.5
 42
-1
  0
VERTEX
  8
0
 10
1785.8472900390625
 20
397.5
 42
-1
  0
SEQEND
  0
POLYLINE
  8
0
 10
0
 20
0
 39
0
 70
1
 66
1
  0
VERTEX
  8
0
 10
1765.8472900390625
 20
469.5
 42
-1
  0
VERTEX
  8
0
 10
1765.8472900390625
 20
450.5
 42
-1
  0
SEQEND
  0
POLYLINE
  8
0
 10
0
 20
0
 39
0
 70
1
 66
1
  0
VERTEX
  8
0
 10
1825.8472900390625
 20
389.5
 42
-1
  0
VERTEX
  8
0
 10
1825.8472900390625
 20
370.5
 42
-1
  0
SEQEND
  0
POLYLINE
  8
0
 10
0
 20
0
 39
0
 70
1
 66
1
  0
VERTEX
  8
0
 10
1745.8472900390625
 20
214.5
 42
-1
  0
VERTEX
  8
0
 10
1745.8472900390625
 20
195.5
 42
-1
  0
SEQEND
  0
POLYLINE
  8
0
 10
0
 20
0
 39
0
 70
1
 66
1
  0
VERTEX
  8
0
 10
1825.8472900390625
 20
214.5
 42
-1
  0
VERTEX
  8
0
 10
1825.8472900390625
 20
195.5
 42
-1
  0
SEQEND
  0
POLYLINE
  8
0
 10
0
 20
0
 39
0
 70
1
 66
1
  0
VERTEX
  8
0
 10
1785.8472900390625
 20
92.5
 42
-1
  0
VERTEX
  8
0
 10
1785.8472900390625
 20
47.5
 42
-1
  0
SEQEND
  0
POLYLINE
  8
0
 10
0
 20
0
 39
0
 70
1
 66
1
  0
VERTEX
  8
0
 10
1745.8472900390625
 20
39.5
 42
-1
  0
VERTEX
  8
0
 10
1745.8472900390625
 20
20.5
 42
-1
  0
SEQEND
  0
POLYLINE
  8
0
 10
0
 20
0
 39
0
 70
1
 66
1
  0
VERTEX
  8
0
 10
1825.8472900390625
 20
39.5
 42
-1
  0
VERTEX
  8
0
 10
1825.8472900390625
 20
20.5
 42
-1
  0
SEQEND
  0
POLYLINE
  8
0
 10
0
 20
0
 39
0
 70
1
 66
1
  0
VERTEX
  8
0
 10
1720.8472900390625
 20
20
 42
0
  0
VERTEX
  8
0
 10
1720.8472900390625
 20
453
 42
-0
  0
VERTEX
  8
0
 10
1675.8472900390625
 20
480
 42
0
  0
VERTEX
  8
0
 10
1620.8472900390625
 20
480
 42
-0
  0
VERTEX
  8
0
 10
1610.8472900390625
 20
470
 42
0
  0
VERTEX
  8
0
 10
1610.8472900390625
 20
20
 42
0
  0
VERTEX
  8
0
 10
1620.8472900390625
 20
10
 42
0
  0
VERTEX
  8
0
 10
1710.8472900390625
 20
10
 42
0
  0
SEQEND
  0
POLYLINE
  8
0
 10
0
 20
0
 39
0
 70
1
 66
1
  0
VERTEX
  8
0
 10
1665.8472900390625
 20
442.5
 42
-1
  0
VERTEX
  8
0
 10
1665.8472900390625
 20
397.5
 42
-1
  0
SEQEND
  0
POLYLINE
  8
0
 10
0
 20
0
 39
0
 70
1
 66
1
  0
VERTEX
  8
0
 10
1645.8472900390625
 20
469.5
 42
-1
  0
VERTEX
  8
0
 10
1645.8472900390625
 20
450.5
 42
-1
  0
SEQEND
  0
POLYLINE
  8
0
 10
0
 20
0
 39
0
 70
1
 66
1
  0
VERTEX
  8
0
 10
1705.8472900390625
 20
389.5
 42
-1
  0
VERTEX
  8
0
 10
1705.8472900390625
 20
370.5
 42
-1
  0
SEQEND
  0
POLYLINE
  8
0
 10
0
 20
0
 39
0
 70
1
 66
1
  0
VERTEX
  8
0
 10
1625.8472900390625
 20
214.5
 42
-1
  0
VERTEX
  8
0
 10
1625.8472900390625
 20
195.5
 42
-1
  0
SEQEND
  0
POLYLINE
  8
0
 10
0
 20
0
 39
0
 70
1
 66
1
  0
VERTEX
  8
0
 10
1705.8472900390625
 20
214.5
 42
-1
  0
VERTEX
  8
0
 10
1705.8472900390625
 20
195.5
 42
-1
  0
SEQEND
  0
POLYLINE
  8
0
 10
0
 20
0
 39
0
 70
1
 66
1
  0
VERTEX
  8
0
 10
1665.8472900390625
 20
92.5
 42
-1
  0
VERTEX
  8
0
 10
1665.8472900390625
 20
47.5
 42
-1
  0
SEQEND
  0
POLYLINE
  8
0
 10
0
 20
0
 39
0
 70
1
 66
1
  0
VERTEX
  8
0
 10
1625.8472900390625
 20
39.5
 42
-1
  0
VERTEX
  8
0
 10
1625.8472900390625
 20
20.5
 42
-1
  0
SEQEND
  0
POLYLINE
  8
0
 10
0
 20
0
 39
0
 70
1
 66
1
  0
VERTEX
  8
0
 10
1705.8472900390625
 20
39.5
 42
-1
  0
VERTEX
  8
0
 10
1705.8472900390625
 20
20.5
 42
-1
  0
SEQEND
  0
POLYLINE
  8
0
 10
0
 20
0
 39
0
 70
1
 66
1
  0
VERTEX
  8
0
 10
347
 20
830
 42
0
  0
VERTEX
  8
0
 10
497
 20
830
 42
0
  0
VERTEX
  8
0
 10
610.4493408203125
 20
895.5
 42
0.97178131341934204
  0
VERTEX
  8
0
 10
581.96026611328125
 20
948.277099609375
 42
-0
  0
SEQEND
  0
POLYLINE
  8
0
 10
0
 20
0
 39
0
 70
1
 66
1
  0
VERTEX
  8
0
 10
513
 20
890.28717041015625
 42
-1
  0
VERTEX
  8
0
 10
513
 20
858.28717041015625
 42
-1
  0
SEQEND
  0
POLYLINE
  8
0
 10
0
 20
0
 39
0
 70
1
 66
1
  0
VERTEX
  8
0
 10
595.4493408203125
 20
937.48077392578125
 42
-1
  0
VERTEX
  8
0
 10
595.4493408203125
 20
905.48077392578125
 42
-1
  0
SEQEND
  0
POLYLINE
  8
0
 10
0
 20
0
 39
0
 70
1
 66
1
  0
VERTEX
  8
0
 10
625.4493408203125
 20
981.5948486328125
 42
0
  0
VERTEX
  8
0
 10
475.4493408203125
 20
981.5948486328125
 42
0
  0
VERTEX
  8
0
 10
362
 20
916.0948486328125
 42
0.97178131341934204
  0
VERTEX
  8
0
 10
390.48907470703125
 20
863.3177490234375
 42
-0
  0
SEQEND
  0
POLYLINE
  8
0
 10
0
 20
0
 39
0
 70
1
 66
1
  0
VERTEX
  8
0
 10
459.4493408203125
 20
921.30767822265625
 42
-1
  0
VERTEX
  8
0
 10
459.4493408203125
 20
953.30767822265625
 42
-1
  0
SEQEND
  0
POLYLINE
  8
0
 10
0
 20
0
 39
0
 70
1
 66
1
  0
VERTEX
  8
0
 10
377
 20
874.1141357421875
 42
-1
  0
VERTEX
  8
0
 10
377
 20
906.1141357421875
 42
-1
  0
SEQEND
  0
POLYLINE
  8
0
 10
0
 20
0
 39
0
 70
1
 66
1
  0
VERTEX
  8
0
 10
337
 20
976
 42
0
  0
VERTEX
  8
0
 10
15
 20
976
 42
-0
  0
VERTEX
  8
0
 10
10
 20
938
 42
0
  0
VERTEX
  8
0
 10
332
 20
938
 42
0
  0
SEQEND
  0
POLYLINE
  8
0
 10
0
 20
0
 39
0
 70
1
 66
1
  0
VERTEX
  8
0
 10
1091.5948486328125
 20
10.000000953674316
 42
0
  0
VERTEX
  8
0
 10
1091.5948486328125
 20
160
 42
0
  0
VERTEX
  8
0
 10
1026.0948486328125
 20
273.4493408203125
 42
0.97178131341934204
  0
VERTEX
  8
0
 10
973.3177490234375
 20
244.96025085449219
 42
-0
  0
SEQEND
  0
POLYLINE
  8
0
 10
0
 20
0
 39
0
 70
1
 66
1
  0
VERTEX
  8
0
 10
1031.3077392578125
 20
176
 42
-1
  0
VERTEX
  8
0
 10
1063.3077392578125
 20
176
 42
-1
  0
SEQEND
  0
POLYLINE
  8
0
 10
0
 20
0
 39
0
 70
1
 66
1
  0
VERTEX
  8
0
 10
984.1141357421875
 20
258.4493408203125
 42
-1
  0
VERTEX
  8
0
 10
1016.1141357421875
 20
258.4493408203125
 42
-1
  0
SEQEND
  0
POLYLINE
  8
0
 10
0
 20
0
 39
0
 70
1
 66
1
  0
VERTEX
  8
0
 10
940
 20
288.4493408203125
 42
0
  0
VERTEX
  8
0
 10
940
 20
138.4493408203125
 42
0
  0
VERTEX
  8
0
 10
1005.5
 20
24.999996185302734
 42
0.97178131341934204
  0
VERTEX
  8
0
 10
1058.277099609375
 20
53.489086151123047
 42
-0
  0
SEQEND
  0
POLYLINE
  8
0
 10
0
 20
0
 39
0
 70
1
 66
1
  0
VERTEX
  8
0
 10
1000.2871704101562
 20
122.4493408203125
 42
-1
  0
VERTEX
  8
0
 10
968.28717041015625
 20
122.4493408203125
 42
-1
  0
SEQEND
  0
POLYLINE
  8
0
 10
0
 20
0
 39
0
 70
1
 66
1
  0
VERTEX
  8
0
 10
1047.480712890625
 20
40.000011444091797
 42
-1
  0
VERTEX
  8
0
 10
1015.4807739257812
 20
40.000011444091797
 42
-1
  0
SEQEND
  0
POLYLINE
  8
0
 10
0
 20
0
 39
0
 70
1
 66
1
  0
VERTEX
  8
0
 10
1600.8472900390625
 20
20
 42
0
  0
VERTEX
  8
0
 10
1600.8472900390625
 20
453
 42
-0
  0
VERTEX
  8
0
 10
1555.8472900390625
 20
480
 42
0
  0
VERTEX
  8
0
 10
1500.8472900390625
 20
480
 42
-0
  0
VERTEX
  8
0
 10
1490.8472900390625
 20
470
 42
0
  0
VERTEX
  8
0
 10
1490.8472900390625
 20
20
 42
0
  0
VERTEX
  8
0
 10
1500.8472900390625
 20
10
 42
0
  0
VERTEX
  8
0
 10
1590.8472900390625
 20
10
 42
0
  0
SEQEND
  0
POLYLINE
  8
0
 10
0
 20
0
 39
0
 70
1
 66
1
  0
VERTEX
  8
0
 10
1545.8472900390625
 20
442.5
 42
-1
  0
VERTEX
  8
0
 10
1545.8472900390625
 20
397.5
 42
-1
  0
SEQEND
  0
POLYLINE
  8
0
 10
0
 20
0
 39
0
 70
1
 66
1
  0
VERTEX
  8
0
 10
1525.8472900390625
 20
469.5
 42
-1
  0
VERTEX
  8
0
 10
1525.8472900390625
 20
450.5
 42
-1
  0
SEQEND
  0
POLYLINE
  8
0
 10
0
 20
0
 39
0
 70
1
 66
1
  0
VERTEX
  8
0
 10
1585.8472900390625
 20
389.5
 42
-1
  0
VERTEX
  8
0
 10
1585.8472900390625
 20
370.5
 42
-1
  0
SEQEND
  0
POLYLINE
  8
0
 10
0
 20
0
 39
0
 70
1
 66
1
  0
VERTEX
  8
0
 10
1505.8472900390625
 20
214.5
 42
-1
  0
VERTEX
  8
0
 10
1505.8472900390625
 20
195.5
 42
-1
  0
SEQEND
  0
POLYLINE
  8
0
 10
0
 20
0
 39
0
 70
1
 66
1
  0
VERTEX
  8
0
 10
1585.8472900390625
 20
214.5
 42
-1
  0
VERTEX
  8
0
 10
1585.8472900390625
 20
195.5
 42
-1
  0
SEQEND
  0
POLYLINE
  8
0
 10
0
 20
0
 39
0
 70
1
 66
1
  0
VERTEX
  8
0
 10
1545.8472900390625
 20
92.5
 42
-1
  0
VERTEX
  8
0
 10
1545.8472900390625
 20
47.5
 42
-1
  0
SEQEND
  0
POLYLINE
  8
0
 10
0
 20
0
 39
0
 70
1
 66
1
  0
VERTEX
  8
0
 10
1505.8472900390625
 20
39.5
 42
-1
  0
VERTEX
  8
0
 10
1505.8472900390625
 20
20.5
 42
-1
  0
SEQEND
  0
POLYLINE
  8
0
 10
0
 20
0
 39
0
 70
1
 66
1
  0
VERTEX
  8
0
 10
1585.8472900390625
 20
39.5
 42
-1
  0
VERTEX
  8
0
 10
1585.8472900390625
 20
20.5
 42
-1
  0
SEQEND
  0
POLYLINE
  8
0
 10
0
 20
0
 39
0
 70
1
 66
1
  0
VERTEX
  8
0
 10
730
 20
420
 42
0
  0
VERTEX
  8
0
 10
930
 20
420
 42
0
  0
VERTEX
  8
0
 10
930
 20
820
 42
0
  0
VERTEX
  8
0
 10
730
 20
820
 42
0
  0
SEQEND
  0
POLYLINE
  8
0
 10
0
 20
0
 39
0
 70
1
 66
1
  0
VERTEX
  8
0
 10
759.372802734375
 20
795.00225830078125
 42
0
  0
VERTEX
  8
0
 10
783.372802734375
 20
795.00225830078125
 42
0
  0
VERTEX
  8
0
 10
783.372802734375
 20
645.00225830078125
 42
0
  0
VERTEX
  8
0
 10
759.372802734375
 20
645.00225830078125
 42
0
  0
SEQEND
  0
POLYLINE
  8
0
 10
0
 20
0
 39
0
 70
1
 66
1
  0
VERTEX
  8
0
 10
900.627197265625
 20
795.00225830078125
 42
-0
  0
VERTEX
  8
0
 10
900.627197265625
 20
645.00225830078125
 42
-0
  0
VERTEX
  8
0
 10
876.627197265625
 20
645.00225830078125
 42
-0
  0
VERTEX
  8
0
 10
876.627197265625
 20
795.00225830078125
 42
-0
  0
SEQEND
  0
POLYLINE
  8
0
 10
0
 20
0
 39
0
 70
1
 66
1
  0
VERTEX
  8
0
 10
759.372802734375
 20
444.99774169921875
 42
-0
  0
VERTEX
  8
0
 10
759.372802734375
 20
594.99774169921875
 42
-0
  0
VERTEX
  8
0
 10
783.372802734375
 20
594.99774169921875
 42
-0
  0
VERTEX
  8
0
 10
783.372802734375
 20
444.99774169921875
 42
-0
  0
SEQEND
  0
POLYLINE
  8
0
 10
0
 20
0
 39
0
 70
1
 66
1
  0
VERTEX
  8
0
 10
900.627197265625
 20
444.99774169921875
 42
0
  0
VERTEX
  8
0
 10
876.627197265625
 20
444.99774169921875
 42
0
  0
VERTEX
  8
0
 10
876.627197265625
 20
594.99774169921875
 42
0
  0
VERTEX
  8
0
 10
900.627197265625
 20
594.99774169921875
 42
0
  0
SEQEND
  0
POLYLINE
  8
0
 10
0
 20
0
 39
0
 70
1
 66
1
  0
VERTEX
  8
0
 10
520
 20
420
 42
0
  0
VERTEX
  8
0
 10
720
 20
420
 42
0
  0
VERTEX
  8
0
 10
720
 20
820
 42
0
  0
VERTEX
  8
0
 10
520
 20
820
 42
0
  0
SEQEND
  0
POLYLINE
  8
0
 10
0
 20
0
 39
0
 70
1
 66
1
  0
VERTEX
  8
0
 10
549.372802734375
 20
795.00225830078125
 42
0
  0
VERTEX
  8
0
 10
573.372802734375
 20
795.00225830078125
 42
0
  0
VERTEX
  8
0
 10
573.372802734375
 20
645.00225830078125
 42
0
  0
VERTEX
  8
0
 10
549.372802734375
 20
645.00225830078125
 42
0
  0
SEQEND
  0
POLYLINE
  8
0
 10
0
 20
0
 39
0
 70
1
 66
1
  0
VERTEX
  8
0
 10
690.627197265625
 20
795.00225830078125
 42
-0
  0
VERTEX
  8
0
 10
690.627197265625
 20
645.00225830078125
 42
-0
  0
VERTEX
  8
0
 10
666.627197265625
 20
645.00225830078125
 42
-0
  0
VERTEX
  8
0
 10
666.627197265625
 20
795.00225830078125
 42
-0
  0
SEQEND
  0
POLYLINE
  8
0
 10
0
 20
0
 39
0
 70
1
 66
1
  0
VERTEX
  8
0
 10
549.372802734375
 20
444.99774169921875
 42
-0
  0
VERTEX
  8
0
 10
549.372802734375
 20
594.99774169921875
 42
-0
  0
VERTEX
  8
0
 10
573.372802734375
 20
594.99774169921875
 42
-0
  0
VERTEX
  8
0
 10
573.372802734375
 20
444.99774169921875
 42
-0
  0
SEQEND
  0
POLYLINE
  8
0
 10
0
 20
0
 39
0
 70
1
 66
1
  0
VERTEX
  8
0
 10
690.627197265625
 20
444.99774169921875
 42
0
  0
VERTEX
  8
0
 10
666.627197265625
 20
444.99774169921875
 42
0
  0
VERTEX
  8
0
 10
666.627197265625
 20
594.99774169921875
 42
0
  0
VERTEX
  8
0
 10
690.627197265625
 20
594.99774169921875
 42
0
  0
SEQEND
  0
POLYLINE
  8
0
 10
0
 20
0
 39
0
 70
1
 66
1
  0
VERTEX
  8
0
 10
730
 20
10
 42
0
  0
VERTEX
  8
0
 10
930
 20
10
 42
0
  0
VERTEX
  8
0
 10
930
 20
410
 42
0
  0
VERTEX
  8
0
 10
730
 20
410
 42
0
  0
SEQEND
  0
POLYLINE
  8
0
 10
0
 20
0
 39
0
 70
1
 66
1
  0
VERTEX
  8
0
 10
759.372802734375
 20
385.00225830078125
 42
0
  0
VERTEX
  8
0
 10
783.372802734375
 20
385.00225830078125
 42
0
  0
VERTEX
  8
0
 10
783.372802734375
 20
235.00225830078125
 42
0
  0
VERTEX
  8
0
 10
759.372802734375
 20
235.00225830078125
 42
0
  0
SEQEND
  0
POLYLINE
  8
0
 10
0
 20
0
 39
0
 70
1
 66
1
  0
VERTEX
  8
0
 10
900.627197265625
 20
385.00225830078125
 42
-0
  0
VERTEX
  8
0
 10
900.627197265625
 20
235.00225830078125
 42
-0
  0
VERTEX
  8
0
 10
876.627197265625
 20
235.00225830078125
 42
-0
  0
VERTEX
  8
0
 10
876.627197265625
 20
385.00225830078125
 42
-0
  0
SEQEND
  0
POLYLINE
  8
0
 10
0
 20
0
 39
0
 70
1
 66
1
  0
VERTEX
  8
0
 10
759.372802734375
 20
34.99774169921875
 42
-0
  0
VERTEX
  8
0
 10
759.372802734375
 20
184.99774169921875
 42
-0
  0
VERTEX
  8
0
 10
783.372802734375
 20
184.99774169921875
 42
-0
  0
VERTEX
  8
0
 10
783.372802734375
 20
34.99774169921875
 42
-0
  0
SEQEND
  0
POLYLINE
  8
0
 10
0
 20
0
 39
0
 70
1
 66
1
  0
VERTEX
  8
0
 10
900.627197265625
 20
34.99774169921875
 42
0
  0
VERTEX
  8
0
 10
876.627197265625
 20
34.99774169921875
 42
0
  0
VERTEX
  8
0
 10
876.627197265625
 20
184.99774169921875
 42
0
  0
VERTEX
  8
0
 10
900.627197265625
 20
184.99774169921875
 42
0
  0
SEQEND
  0
POLYLINE
  8
0
 10
0
 20
0
 39
0
 70
1
 66
1
  0
VERTEX
  8
0
 10
310
 20
420
 42
0
  0
VERTEX
  8
0
 10
510
 20
420
 42
0
  0
VERTEX
  8
0
 10
510
 20
820
 42
0
  0
VERTEX
  8
0
 10
310
 20
820
 42
0
  0
SEQEND
  0
POLYLINE
  8
0
 10
0
 20
0
 39
0
 70
1
 66
1
  0
VERTEX
  8
0
 10
339.372802734375
 20
795.00225830078125
 42
0
  0
VERTEX
  8
0
 10
363.372802734375
 20
795.00225830078125
 42
0
  0
VERTEX
  8
0
 10
363.372802734375
 20
645.00225830078125
 42
0
  0
VERTEX
  8
0
 10
339.372802734375
 20
645.00225830078125
 42
0
  0
SEQEND
  0
POLYLINE
  8
0
 10
0
 20
0
 39
0
 70
1
 66
1
  0
VERTEX
  8
0
 10
480.627197265625
 20
795.00225830078125
 42
-0
  0
VERTEX
  8
0
 10
480.627197265625
 20
645.00225830078125
 42
-0
  0
VERTEX
  8
0
 10
456.627197265625
 20
645.00225830078125
 42
-0
  0
VERTEX
  8
0
 10
456.627197265625
 20
795.00225830078125
 42
-0
  0
SEQEND
  0
POLYLINE
  8
0
 10
0
 20
0
 39
0
 70
1
 66
1
  0
VERTEX
  8
0
 10
339.372802734375
 20
444.99774169921875
 42
-0
  0
VERTEX
  8
0
 10
339.372802734375
 20
594.99774169921875
 42
-0
  0
VERTEX
  8
0
 10
363.372802734375
 20
594.99774169921875
 42
-0
  0
VERTEX
  8
0
 10
363.372802734375
 20
444.99774169921875
 42
-0
  0
SEQEND
  0
POLYLINE
  8
0
 10
0
 20
0
 39
0
 70
1
 66
1
  0
VERTEX
  8
0
 10
480.627197265625
 20
444.99774169921875
 42
0
  0
VERTEX
  8
0
 10
456.627197265625
 20
444.99774169921875
 42
0
  0
VERTEX
  8
0
 10
456.627197265625
 20
594.99774169921875
 42
0
  0
VERTEX
  8
0
 10
480.627197265625
 20
594.99774169921875
 42
0
  0
SEQEND
  0
POLYLINE
  8
0
 10
0
 20
0
 39
0
 70
1
 66
1
  0
VERTEX
  8
0
 10
1085.4493408203125
 20
816.00927734375
 42
0
  0
VERTEX
  8
0
 10
1235.4493408203125
 20
816.00927734375
 42
0
  0
VERTEX
  8
0
 10
1348.898681640625
 20
881.50927734375
 42
0.97178131341934204
  0
VERTEX
  8
0
 10
1320.4095458984375
 20
934.28643798828125
 42
-0
  0
SEQEND
  0
POLYLINE
  8
0
 10
0
 20
0
 39
0
 70
1
 66
1
  0
VERTEX
  8
0
 10
1251.4493408203125
 20
876.2965087890625
 42
-1
  0
VERTEX
  8
0
 10
1251.4493408203125
 20
844.2965087890625
 42
-1
  0
SEQEND
  0
POLYLINE
  8
0
 10
0
 20
0
 39
0
 70
1
 66
1
  0
VERTEX
  8
0
 10
1333.898681640625
 20
923.49005126953125
 42
-1
  0
VERTEX
  8
0
 10
1333.898681640625
 20
891.49005126953125
 42
-1
  0
SEQEND
  0
POLYLINE
  8
0
 10
0
 20
0
 39
0
 70
1
 66
1
  0
VERTEX
  8
0
 10
1363.898681640625
 20
967.60418701171875
 42
0
  0
VERTEX
  8
0
 10
1213.898681640625
 20
967.60418701171875
 42
0
  0
VERTEX
  8
0
 10
1100.4493408203125
 20
902.10418701171875
 42
0.97178131341934204
  0
VERTEX
  8
0
 10
1128.9384765625
 20
849.3270263671875
 42
-0
  0
SEQEND
  0
POLYLINE
  8
0
 10
0
 20
0
 39
0
 70
1
 66
1
  0
VERTEX
  8
0
 10
1197.898681640625
 20
907.3170166015625
 42
-1
  0
VERTEX
  8
0
 10
1197.898681640625
 20
939.3170166015625
 42
-1
  0
SEQEND
  0
POLYLINE
  8
0
 10
0
 20
0
 39
0
 70
1
 66
1
  0
VERTEX
  8
0
 10
1115.4493408203125
 20
860.1234130859375
 42
-1
  0
VERTEX
  8
0
 10
1115.4493408203125
 20
892.1234130859375
 42
-1
  0
SEQEND
  0
POLYLINE
  8
0
 10
0
 20
0
 39
0
 70
1
 66
1
  0
VERTEX
  8
0
 10
310
 20
10
 42
0
  0
VERTEX
  8
0
 10
510
 20
10
 42
0
  0
VERTEX
  8
0
 10
510
 20
410
 42
0
  0
VERTEX
  8
0
 10
310
 20
410
 42
0
  0
SEQEND
  0
POLYLINE
  8
0
 10
0
 20
0
 39
0
 70
1
 66
1
  0
VERTEX
  8
0
 10
339.372802734375
 20
385.00225830078125
 42
0
  0
VERTEX
  8
0
 10
363.372802734375
 20
385.00225830078125
 42
0
  0
VERTEX
  8
0
 10
363.372802734375
 20
235.00225830078125
 42
0
  0
VERTEX
  8
0
 10
339.372802734375
 20
235.00225830078125
 42
0
  0
SEQEND
  0
POLYLINE
  8
0
 10
0
 20
0
 39
0
 70
1
 66
1
  0
VERTEX
  8
0
 10
480.627197265625
 20
385.00225830078125
 42
-0
  0
VERTEX
  8
0
 10
480.627197265625
 20
235.00225830078125
 42
-0
  0
VERTEX
  8
0
 10
456.627197265625
 20
235.00225830078125
 42
-0
  0
VERTEX
  8
0
 10
456.627197265625
 20
385.00225830078125
 42
-0
  0
SEQEND
  0
POLYLINE
  8
0
 10
0
 20
0
 39
0
 70
1
 66
1
  0
VERTEX
  8
0
 10
339.372802734375
 20
34.99774169921875
 42
-0
  0
VERTEX
  8
0
 10
339.372802734375
 20
184.99774169921875
 42
-0
  0
VERTEX
  8
0
 10
363.372802734375
 20
184.99774169921875
 42
-0
  0
VERTEX
  8
0
 10
363.372802734375
 20
34.99774169921875
 42
-0
  0
SEQEND
  0
POLYLINE
  8
0
 10
0
 20
0
 39
0
 70
1
 66
1
  0
VERTEX
  8
0
 10
480.627197265625
 20
34.99774169921875
 42
0
  0
VERTEX
  8
0
 10
456.627197265625
 20
34.99774169921875
 42
0
  0
VERTEX
  8
0
 10
456.627197265625
 20
184.99774169921875
 42
0
  0
VERTEX
  8
0
 10
480.627197265625
 20
184.99774169921875
 42
0
  0
SEQEND
  0
POLYLINE
  8
0
 10
0
 20
0
 39
0
 70
1
 66
1
  0
VERTEX
  8
0
 10
520
 20
10
 42
0
  0
VERTEX
  8
0
 10
720
 20
10
 42
0
  0
VERTEX
  8
0
 10
720
 20
410
 42
0
  0
VERTEX
  8
0
 10
520
 20
410
 42
0
  0
SEQEND
  0
POLYLINE
  8
0
 10
0
 20
0
 39
0
 70
1
 66
1
  0
VERTEX
  8
0
 10
549.372802734375
 20
385.00225830078125
 42
0
  0
VERTEX
  8
0
 10
573.372802734375
 20
385.00225830078125
 42
0
  0
VERTEX
  8
0
 10
573.372802734375
 20
235.00225830078125
 42
0
  0
VERTEX
  8
0
 10
549.372802734375
 20
235.00225830078125
 42
0
  0
SEQEND
  0
POLYLINE
  8
0
 10
0
 20
0
 39
0
 70
1
 66
1
  0
VERTEX
  8
0
 10
690.627197265625
 20
385.00225830078125
 42
-0
  0
VERTEX
  8
0
 10
690.627197265625
 20
235.00225830078125
 42
-0
  0
VERTEX
  8
0
 10
666.627197265625
 20
235.00225830078125
 42
-0
  0
VERTEX
  8
0
 10
666.627197265625
 20
385.00225830078125
 42
-0
  0
SEQEND
  0
POLYLINE
  8
0
 10
0
 20
0
 39
0
 70
1
 66
1
  0
VERTEX
  8
0
 10
549.372802734375
 20
34.99774169921875
 42
-0
  0
VERTEX
  8
0
 10
549.372802734375
 20
184.99774169921875
 42
-0
  0
VERTEX
  8
0
 10
573.372802734375
 20
184.99774169921875
 42
-0
  0
VERTEX
  8
0
 10
573.372802734375
 20
34.99774169921875
 42
-0
  0
SEQEND
  0
POLYLINE
  8
0
 10
0
 20
0
 39
0
 70
1
 66
1
  0
VERTEX
  8
0
 10
690.627197265625
 20
34.99774169921875
 42
0
  0
VERTEX
  8
0
 10
666.627197265625
 20
34.99774169921875
 42
0
  0
VERTEX
  8
0
 10
666.627197265625
 20
184.99774169921875
 42
0
  0
VERTEX
  8
0
 10
690.627197265625
 20
184.99774169921875
 42
0
  0
SEQEND
  0
POLYLINE
  8
0
 10
0
 20
0
 39
0
 70
1
 66
1
  0
VERTEX
  8
0
 10
10
 20
10
 42
0
  0
VERTEX
  8
0
 10
75
 20
10
 42
0
  0
VERTEX
  8
0
 10
75
 20
420.68228149414062
 42
0
  0
VERTEX
  8
0
 10
59.279373168945313
 20
440
 42
0
  0
VERTEX
  8
0
 10
10
 20
440
 42
-0
  0
VERTEX
  8
0
 10
10
 20
357.76788330078125
 42
0
  0
VERTEX
  8
0
 10
32.972671508789062
 20
357.76788330078125
 42
0
  0
VERTEX
  8
0
 10
32.972671508789062
 20
319.76788330078125
 42
0
  0
VERTEX
  8
0
 10
10
 20
319.76788330078125
 42
-0
  0
SEQEND
  0
POLYLINE
  8
0
 10
0
 20
0
 39
0
 70
1
 66
1
  0
VERTEX
  8
0
 10
25.5
 20
146.43171691894531
 42
-1
  0
VERTEX
  8
0
 10
59.5
 20
146.43171691894531
 42
-1
  0
SEQEND
  0
POLYLINE
  8
0
 10
0
 20
0
 39
0
 70
1
 66
1
  0
VERTEX
  8
0
 10
235
 20
450
 42
0
  0
VERTEX
  8
0
 10
300
 20
450
 42
0
  0
VERTEX
  8
0
 10
300
 20
860.6822509765625
 42
0
  0
VERTEX
  8
0
 10
284.27935791015625
 20
880
 42
0
  0
VERTEX
  8
0
 10
235
 20
880
 42
-0
  0
VERTEX
  8
0
 10
235
 20
797.76788330078125
 42
0
  0
VERTEX
  8
0
 10
257.97265625
 20
797.76788330078125
 42
0
  0
VERTEX
  8
0
 10
257.97265625
 20
759.76788330078125
 42
0
  0
VERTEX
  8
0
 10
235
 20
759.76788330078125
 42
-0
  0
SEQEND
  0
POLYLINE
  8
0
 10
0
 20
0
 39
0
 70
1
 66
1
  0
VERTEX
  8
0
 10
250.5
 20
586.43170166015625
 42
-1
  0
VERTEX
  8
0
 10
284.5
 20
586.43170166015625
 42
-1
  0
SEQEND
  0
POLYLINE
  8
0
 10
0
 20
0
 39
0
 70
1
 66
1
  0
VERTEX
  8
0
 10
935.4493408203125
 20
953
 42
0
  0
VERTEX
  8
0
 10
935.4493408203125
 20
926
 42
-0
  0
VERTEX
  8
0
 10
1067.421142578125
 20
926
 42
0
  0
VERTEX
  8
0
 10
1075.4493408203125
 20
933.52191162109375
 42
-0
  0
VERTEX
  8
0
 10
1075.4493408203125
 20
945.47808837890625
 42
-0
  0
VERTEX
  8
0
 10
1067.421142578125
 20
953
 42
-0
  0
SEQEND
  0
POLYLINE
  8
0
 10
0
 20
0
 39
0
 70
1
 66
1
  0
VERTEX
  8
0
 10
785.4493408203125
 20
990
 42
0
  0
VERTEX
  8
0
 10
785.4493408203125
 20
963
 42
-0
  0
VERTEX
  8
0
 10
917.42108154296875
 20
963
 42
0
  0
VERTEX
  8
0
 10
925.4493408203125
 20
970.52191162109375
 42
-0
  0
VERTEX
  8
0
 10
925.4493408203125
 20
982.47808837890625
 42
-0
  0
VERTEX
  8
0
 10
917.42108154296875
 20
990
 42
-0
  0
SEQEND
  0
POLYLINE
  8
0
 10
0
 20
0
 39
0
 70
1
 66
1
  0
VERTEX
  8
0
 10
935.4493408203125
 20
990
 42
0
  0
VERTEX
  8
0
 10
935.4493408203125
 20
963
 42
-0
  0
VERTEX
  8
0
 10
1067.421142578125
 20
963
 42
0
  0
VERTEX
  8
0
 10
1075.4493408203125
 20
970.52191162109375
 42
-0
  0
VERTEX
  8
0
 10
1075.4493408203125
 20
982.47808837890625
 42
-0
  0
VERTEX
  8
0
 10
1067.421142578125
 20
990
 42
-0
  0
SEQEND
  0
POLYLINE
  8
0
 10
0
 20
0
 39
0
 70
1
 66
1
  0
VERTEX
  8
0
 10
972.4493408203125
 20
736.898681640625
 42
0
  0
VERTEX
  8
0
 10
999.4493408203125
 20
736.898681640625
 42
-0
  0
VERTEX
  8
0
 10
999.4493408203125
 20
868.87042236328125
 42
0
  0
VERTEX
  8
0
 10
991.9273681640625
 20
876.898681640625
 42
-0
  0
VERTEX
  8
0
 10
979.97125244140625
 20
876.898681640625
 42
-0
  0
VERTEX
  8
0
 10
972.4493408203125
 20
868.87042236328125
 42
-0
  0
SEQEND
  0
POLYLINE
  8
0
 10
0
 20
0
 39
0
 70
1
 66
1
  0
VERTEX
  8
0
 10
635.4493408203125
 20
990
 42
0
  0
VERTEX
  8
0
 10
635.4493408203125
 20
963
 42
-0
  0
VERTEX
  8
0
 10
767.42108154296875
 20
963
 42
0
  0
VERTEX
  8
0
 10
775.4493408203125
 20
970.52191162109375
 42
-0
  0
VERTEX
  8
0
 10
775.4493408203125
 20
982.47808837890625
 42
-0
  0
VERTEX
  8
0
 10
767.42108154296875
 20
990
 42
-0
  0
SEQEND
  0
POLYLINE
  8
0
 10
0
 20
0
 39
0
 70
1
 66
1
  0
VERTEX
  8
0
 10
1009.4493408203125
 20
736.898681640625
 42
0
  0
VERTEX
  8
0
 10
1036.4493408203125
 20
736.898681640625
 42
-0
  0
VERTEX
  8
0
 10
1036.4493408203125
 20
868.87042236328125
 42
0
  0
VERTEX
  8
0
 10
1028.9273681640625
 20
876.898681640625
 42
-0
  0
VERTEX
  8
0
 10
1016.9712524414062
 20
876.898681640625
 42
-0
  0
VERTEX
  8
0
 10
1009.4493408203125
 20
868.87042236328125
 42
-0
  0
SEQEND
  0
POLYLINE
  8
0
 10
0
 20
0
 39
0
 70
1
 66
1
  0
VERTEX
  8
0
 10
635.4493408203125
 20
953
 42
0
  0
VERTEX
  8
0
 10
635.4493408203125
 20
926
 42
-0
  0
VERTEX
  8
0
 10
767.42108154296875
 20
926
 42
0
  0
VERTEX
  8
0
 10
775.4493408203125
 20
933.52191162109375
 42
-0
  0
VERTEX
  8
0
 10
775.4493408203125
 20
945.47808837890625
 42
-0
  0
VERTEX
  8
0
 10
767.42108154296875
 20
953
 42
-0
  0
SEQEND
  0
POLYLINE
  8
0
 10
0
 20
0
 39
0
 70
1
 66
1
  0
VERTEX
  8
0
 10
235
 20
10
 42
0
  0
VERTEX
  8
0
 10
300
 20
10
 42
0
  0
VERTEX
  8
0
 10
300
 20
420.68228149414062
 42
0
  0
VERTEX
  8
0
 10
284.27935791015625
 20
440
 42
0
  0
VERTEX
  8
0
 10
235
 20
440
 42
-0
  0
VERTEX
  8
0
 10
235
 20
357.76788330078125
 42
0
  0
VERTEX
  8
0
 10
257.97265625
 20
357.76788330078125
 42
0
  0
VERTEX
  8
0
 10
257.97265625
 20
319.76788330078125
 42
0
  0
VERTEX
  8
0
 10
235
 20
319.76788330078125
 42
-0
  0
SEQEND
  0
POLYLINE
  8
0
 10
0
 20
0
 39
0
 70
1
 66
1
  0
VERTEX
  8
0
 10
250.5
 20
146.43171691894531
 42
-1
  0
VERTEX
  8
0
 10
284.5
 20
146.43171691894531
 42
-1
  0
SEQEND
  0
POLYLINE
  8
0
 10
0
 20
0
 39
0
 70
1
 66
1
  0
VERTEX
  8
0
 10
1276.8135986328125
 20
22.284612655639648
 42
-0
  0
VERTEX
  8
0
 10
1354.854736328125
 20
252.71449279785156
 42
-0
  0
VERTEX
  8
0
 10
1251.35791015625
 20
512.176025390625
 42
0
  0
VERTEX
  8
0
 10
1238.9368896484375
 20
497.95767211914062
 42
0.26977404952049255
  0
VERTEX
  8
0
 10
1236.8360595703125
 20
487.09417724609375
 42
0
  0
VERTEX
  8
0
 10
1310.2891845703125
 20
276.75668334960937
 42
-0.32629111409187317
  0
VERTEX
  8
0
 10
1304.5576171875
 20
256.89385986328125
 42
0
  0
VERTEX
  8
0
 10
1272.6827392578125
 20
245.858642578125
 42
0.2579103410243988
  0
VERTEX
  8
0
 10
1262.4962158203125
 20
234.53738403320312
 42
0
  0
VERTEX
  8
0
 10
1236.80810546875
 20
33.712146759033203
 42
0.8593367338180542
  0
SEQEND
  0
POLYLINE
  8
0
 10
0
 20
0
 39
0
 70
1
 66
1
  0
VERTEX
  8
0
 10
1281.4390869140625
 20
238.09724426269531
 42
-1
  0
VERTEX
  8
0
 10
1279.7828369140625
 20
218.16593933105469
 42
-1
  0
SEQEND
  0
POLYLINE
  8
0
 10
0
 20
0
 39
0
 70
1
 66
1
  0
VERTEX
  8
0
 10
1336.5599365234375
 20
261.81747436523437
 42
-1
  0
VERTEX
  8
0
 10
1334.9036865234375
 20
241.88615417480469
 42
-1
  0
SEQEND
  0
POLYLINE
  8
0
 10
0
 20
0
 39
0
 70
1
 66
1
  0
VERTEX
  8
0
 10
1258.7154541015625
 20
43.499370574951172
 42
-1
  0
VERTEX
  8
0
 10
1256.645263671875
 20
18.585231781005859
 42
-1
  0
SEQEND
  0
POLYLINE
  8
0
 10
0
 20
0
 39
0
 70
1
 66
1
  0
VERTEX
  8
0
 10
1320.254638671875
 20
793.72467041015625
 42
-0
  0
VERTEX
  8
0
 10
1242.213623046875
 20
563.2947998046875
 42
-0
  0
VERTEX
  8
0
 10
1345.71044921875
 20
303.83328247070312
 42
0
  0
VERTEX
  8
0
 10
1358.13134765625
 20
318.05160522460937
 42
0.26977404952049255
  0
VERTEX
  8
0
 10
1360.232177734375
 20
328.91513061523437
 42
0
  0
VERTEX
  8
0
 10
1286.779052734375
 20
539.25262451171875
 42
-0.32629111409187317
  0
VERTEX
  8
0
 10
1292.5106201171875
 20
559.11541748046875
 42
0
  0
VERTEX
  8
0
 10
1324.385498046875
 20
570.150634765625
 42
0.2579103410243988
  0
VERTEX
  8
0
 10
1334.572021484375
 20
581.471923828125
 42
0
  0
VERTEX
  8
0
 10
1360.2601318359375
 20
782.29718017578125
 42
0.8593367338180542
  0
SEQEND
  0
POLYLINE
  8
0
 10
0
 20
0
 39
0
 70
1
 66
1
  0
VERTEX
  8
0
 10
1315.6292724609375
 20
577.91204833984375
 42
-1
  0
VERTEX
  8
0
 10
1317.285400390625
 20
597.8433837890625
 42
-1
  0
SEQEND
  0
POLYLINE
  8
0
 10
0
 20
0
 39
0
 70
1
 66
1
  0
VERTEX
  8
0
 10
1260.5084228515625
 20
554.19183349609375
 42
-1
  0
VERTEX
  8
0
 10
1262.16455078125
 20
574.1231689453125
 42
-1
  0
SEQEND
  0
POLYLINE
  8
0
 10
0
 20
0
 39
0
 70
1
 66
1
  0
VERTEX
  8
0
 10
1338.352783203125
 20
772.50994873046875
 42
-1
  0
VERTEX
  8
0
 10
1340.4229736328125
 20
797.424072265625
 42
-1
  0
SEQEND
  0
POLYLINE
  8
0
 10
0
 20
0
 39
0
 70
1
 66
1
  0
VERTEX
  8
0
 10
940
 20
586.898681640625
 42
0
  0
VERTEX
  8
0
 10
967
 20
586.898681640625
 42
-0
  0
VERTEX
  8
0
 10
967
 20
718.87042236328125
 42
0
  0
VERTEX
  8
0
 10
959.47808837890625
 20
726.898681640625
 42
-0
  0
VERTEX
  8
0
 10
947.52191162109375
 20
726.898681640625
 42
-0
  0
VERTEX
  8
0
 10
940
 20
718.87042236328125
 42
-0
  0
SEQEND
  0
POLYLINE
  8
0
 10
0
 20
0
 39
0
 70
1
 66
1
  0
VERTEX
  8
0
 10
1051
 20
586.898681640625
 42
0
  0
VERTEX
  8
0
 10
1078
 20
586.898681640625
 42
-0
  0
VERTEX
  8
0
 10
1078
 20
718.87042236328125
 42
0
  0
VERTEX
  8
0
 10
1070.47802734375
 20
726.898681640625
 42
-0
  0
VERTEX
  8
0
 10
1058.52197265625
 20
726.898681640625
 42
-0
  0
VERTEX
  8
0
 10
1051
 20
718.87042236328125
 42
-0
  0
SEQEND
  0
POLYLINE
  8
0
 10
0
 20
0
 39
0
 70
1
 66
1
  0
VERTEX
  8
0
 10
160
 20
450
 42
0
  0
VERTEX
  8
0
 10
225
 20
450
 42
0
  0
VERTEX
  8
0
 10
225
 20
860.6822509765625
 42
0
  0
VERTEX
  8
0
 10
209.27937316894531
 20
880
 42
0
  0
VERTEX
  8
0
 10
160
 20
880
 42
-0
  0
VERTEX
  8
0
 10
160
 20
797.76788330078125
 42
0
  0
VERTEX
  8
0
 10
182.97267150878906
 20
797.76788330078125
 42
0
  0
VERTEX
  8
0
 10
182.97267150878906
 20
759.76788330078125
 42
0
  0
VERTEX
  8
0
 10
160
 20
759.76788330078125
 42
-0
  0
SEQEND
  0
POLYLINE
  8
0
 10
0
 20
0
 39
0
 70
1
 66
1
  0
VERTEX
  8
0
 10
175.5
 20
586.43170166015625
 42
-1
  0
VERTEX
  8
0
 10
209.5
 20
586.43170166015625
 42
-1
  0
SEQEND
  0
POLYLINE
  8
0
 10
0
 20
0
 39
0
 70
1
 66
1
  0
VERTEX
  8
0
 10
85
 20
10
 42
0
  0
VERTEX
  8
0
 10
150
 20
10
 42
0
  0
VERTEX
  8
0
 10
150
 20
420.68228149414062
 42
0
  0
VERTEX
  8
0
 10
134.27937316894531
 20
440
 42
0
  0
VERTEX
  8
0
 10
85
 20
440
 42
-0
  0
VERTEX
  8
0
 10
85
 20
357.76788330078125
 42
0
  0
VERTEX
  8
0
 10
107.97267150878906
 20
357.76788330078125
 42
0
  0
VERTEX
  8
0
 10
107.97267150878906
 20
319.76788330078125
 42
0
  0
VERTEX
  8
0
 10
85
 20
319.76788330078125
 42
-0
  0
SEQEND
  0
POLYLINE
  8
0
 10
0
 20
0
 39
0
 70
1
 66
1
  0
VERTEX
  8
0
 10
100.5
 20
146.43171691894531
 42
-1
  0
VERTEX
  8
0
 10
134.5
 20
146.43171691894531
 42
-1
  0
SEQEND
  0
POLYLINE
  8
0
 10
0
 20
0
 39
0
 70
1
 66
1
  0
VERTEX
  8
0
 10
1014
 20
586.898681640625
 42
0
  0
VERTEX
  8
0
 10
1041
 20
586.898681640625
 42
-0
  0
VERTEX
  8
0
 10
1041
 20
718.87042236328125
 42
0
  0
VERTEX
  8
0
 10
1033.47802734375
 20
726.898681640625
 42
-0
  0
VERTEX
  8
0
 10
1021.5219116210937
 20
726.898681640625
 42
-0
  0
VERTEX
  8
0
 10
1014
 20
718.87042236328125
 42
-0
  0
SEQEND
  0
POLYLINE
  8
0
 10
0
 20
0
 39
0
 70
1
 66
1
  0
VERTEX
  8
0
 10
10
 20
450
 42
0
  0
VERTEX
  8
0
 10
75
 20
450
 42
0
  0
VERTEX
  8
0
 10
75
 20
860.6822509765625
 42
0
  0
VERTEX
  8
0
 10
59.279373168945313
 20
880
 42
0
  0
VERTEX
  8
0
 10
10
 20
880
 42
-0
  0
VERTEX
  8
0
 10
10
 20
797.76788330078125
 42
0
  0
VERTEX
  8
0
 10
32.972671508789062
 20
797.76788330078125
 42
0
  0
VERTEX
  8
0
 10
32.972671508789062
 20
759.76788330078125
 42
0
  0
VERTEX
  8
0
 10
10
 20
759.76788330078125
 42
-0
  0
SEQEND
  0
POLYLINE
  8
0
 10
0
 20
0
 39
0
 70
1
 66
1
  0
VERTEX
  8
0
 10
25.5
 20
586.43170166015625
 42
-1
  0
VERTEX
  8
0
 10
59.5
 20
586.43170166015625
 42
-1
  0
SEQEND
  0
POLYLINE
  8
0
 10
0
 20
0
 39
0
 70
1
 66
1
  0
VERTEX
  8
0
 10
1853.898681640625
 20
816.00927734375
 42
0
  0
VERTEX
  8
0
 10
1880.898681640625
 20
816.00927734375
 42
-0
  0
VERTEX
  8
0
 10
1880.898681640625
 20
947.9810791015625
 42
0
  0
VERTEX
  8
0
 10
1873.376708984375
 20
956.00927734375
 42
-0
  0
VERTEX
  8
0
 10
1861.420654296875
 20
956.00927734375
 42
-0
  0
VERTEX
  8
0
 10
1853.898681640625
 20
947.9810791015625
 42
-0
  0
SEQEND
  0
POLYLINE
  8
0
 10
0
 20
0
 39
0
 70
1
 66
1
  0
VERTEX
  8
0
 10
85
 20
450
 42
0
  0
VERTEX
  8
0
 10
150
 20
450
 42
0
  0
VERTEX
  8
0
 10
150
 20
860.6822509765625
 42
0
  0
VERTEX
  8
0
 10
134.27937316894531
 20
880
 42
0
  0
VERTEX
  8
0
 10
85
 20
880
 42
-0
  0
VERTEX
  8
0
 10
85
 20
797.76788330078125
 42
0
  0
VERTEX
  8
0
 10
107.97267150878906
 20
797.76788330078125
 42
0
  0
VERTEX
  8
0
 10
107.97267150878906
 20
759.76788330078125
 42
0
  0
VERTEX
  8
0
 10
85
 20
759.76788330078125
 42
-0
  0
SEQEND
  0
POLYLINE
  8
0
 10
0
 20
0
 39
0
 70
1
 66
1
  0
VERTEX
  8
0
 10
100.5
 20
586.43170166015625
 42
-1
  0
VERTEX
  8
0
 10
134.5
 20
586.43170166015625
 42
-1
  0
SEQEND
  0
POLYLINE
  8
0
 10
0
 20
0
 39
0
 70
1
 66
1
  0
VERTEX
  8
0
 10
785.4493408203125
 20
953
 42
0
  0
VERTEX
  8
0
 10
785.4493408203125
 20
926
 42
-0
  0
VERTEX
  8
0
 10
917.42108154296875
 20
926
 42
0
  0
VERTEX
  8
0
 10
925.4493408203125
 20
933.52191162109375
 42
-0
  0
VERTEX
  8
0
 10
925.4493408203125
 20
945.47808837890625
 42
-0
  0
VERTEX
  8
0
 10
917.42108154296875
 20
953
 42
-0
  0
SEQEND
  0
POLYLINE
  8
0
 10
0
 20
0
 39
0
 70
1
 66
1
  0
VERTEX
  8
0
 10
1894.4913330078125
 20
22.284612655639648
 42
-0
  0
VERTEX
  8
0
 10
1972.5323486328125
 20
252.71449279785156
 42
-0
  0
VERTEX
  8
0
 10
1869.0355224609375
 20
512.176025390625
 42
0
  0
VERTEX
  8
0
 10
1856.614501953125
 20
497.95767211914062
 42
0.26977404952049255
  0
VERTEX
  8
0
 10
1854.513671875
 20
487.09417724609375
 42
0
  0
VERTEX
  8
0
 10
1927.966796875
 20
276.75668334960937
 42
-0.32629111409187317
  0
VERTEX
  8
0
 10
1922.2352294921875
 20
256.89385986328125
 42
0
  0
VERTEX
  8
0
 10
1890.3603515625
 20
245.858642578125
 42
0.2579103410243988
  0
VERTEX
  8
0
 10
1880.173828125
 20
234.53738403320312
 42
0
  0
VERTEX
  8
0
 10
1854.4857177734375
 20
33.712146759033203
 42
0.8593367338180542
  0
SEQEND
  0
POLYLINE
  8
0
 10
0
 20
0
 39
0
 70
1
 66
1
  0
VERTEX
  8
0
 10
1899.11669921875
 20
238.09724426269531
 42
-1
  0
VERTEX
  8
0
 10
1897.46044921875
 20
218.16593933105469
 42
-1
  0
SEQEND
  0
POLYLINE
  8
0
 10
0
 20
0
 39
0
 70
1
 66
1
  0
VERTEX
  8
0
 10
1954.237548828125
 20
261.81747436523437
 42
-1
  0
VERTEX
  8
0
 10
1952.581298828125
 20
241.88615417480469
 42
-1
  0
SEQEND
  0
POLYLINE
  8
0
 10
0
 20
0
 39
0
 70
1
 66
1
  0
VERTEX
  8
0
 10
1876.39306640625
 20
43.499370574951172
 42
-1
  0
VERTEX
  8
0
 10
1874.3228759765625
 20
18.585231781005859
 42
-1
  0
SEQEND
  0
POLYLINE
  8
0
 10
0
 20
0
 39
0
 70
1
 66
1
  0
VERTEX
  8
0
 10
1937.9322509765625
 20
793.72467041015625
 42
-0
  0
VERTEX
  8
0
 10
1859.8912353515625
 20
563.2947998046875
 42
-0
  0
VERTEX
  8
0
 10
1963.3880615234375
 20
303.83328247070312
 42
0
  0
VERTEX
  8
0
 10
1975.8089599609375
 20
318.05160522460937
 42
0.26977404952049255
  0
VERTEX
  8
0
 10
1977.9097900390625
 20
328.91513061523437
 42
0
  0
VERTEX
  8
0
 10
1904.4566650390625
 20
539.25262451171875
 42
-0.32629111409187317
  0
VERTEX
  8
0
 10
1910.188232421875
 20
559.11541748046875
 42
0
  0
VERTEX
  8
0
 10
1942.0631103515625
 20
570.150634765625
 42
0.2579103410243988
  0
VERTEX
  8
0
 10
1952.2496337890625
 20
581.471923828125
 42
0
  0
VERTEX
  8
0
 10
1977.937744140625
 20
782.29718017578125
 42
0.8593367338180542
  0
SEQEND
  0
POLYLINE
  8
0
 10
0
 20
0
 39
0
 70
1
 66
1
  0
VERTEX
  8
0
 10
1933.306884765625
 20
577.91204833984375
 42
-1
  0
VERTEX
  8
0
 10
1934.9630126953125
 20
597.8433837890625
 42
-1
  0
SEQEND
  0
POLYLINE
  8
0
 10
0
 20
0
 39
0
 70
1
 66
1
  0
VERTEX
  8
0
 10
1878.18603515625
 20
554.19183349609375
 42
-1
  0
VERTEX
  8
0
 10
1879.8421630859375
 20
574.1231689453125
 42
-1
  0
SEQEND
  0
POLYLINE
  8
0
 10
0
 20
0
 39
0
 70
1
 66
1
  0
VERTEX
  8
0
 10
1956.0303955078125
 20
772.50994873046875
 42
-1
  0
VERTEX
  8
0
 10
1958.1005859375
 20
797.424072265625
 42
-1
  0
SEQEND
  0
POLYLINE
  8
0
 10
0
 20
0
 39
0
 70
1
 66
1
  0
VERTEX
  8
0
 10
1046.4493408203125
 20
736.898681640625
 42
0
  0
VERTEX
  8
0
 10
1073.4493408203125
 20
736.898681640625
 42
-0
  0
VERTEX
  8
0
 10
1073.4493408203125
 20
868.87042236328125
 42
0
  0
VERTEX
  8
0
 10
1065.9273681640625
 20
876.898681640625
 42
-0
  0
VERTEX
  8
0
 10
1053.9713134765625
 20
876.898681640625
 42
-0
  0
VERTEX
  8
0
 10
1046.4493408203125
 20
868.87042236328125
 42
-0
  0
SEQEND
  0
POLYLINE
  8
0
 10
0
 20
0
 39
0
 70
1
 66
1
  0
VERTEX
  8
0
 10
160
 20
10
 42
0
  0
VERTEX
  8
0
 10
225
 20
10
 42
0
  0
VERTEX
  8
0
 10
225
 20
420.68228149414062
 42
0
  0
VERTEX
  8
0
 10
209.27937316894531
 20
440
 42
0
  0
VERTEX
  8
0
 10
160
 20
440
 42
-0
  0
VERTEX
  8
0
 10
160
 20
357.76788330078125
 42
0
  0
VERTEX
  8
0
 10
182.97267150878906
 20
357.76788330078125
 42
0
  0
VERTEX
  8
0
 10
182.97267150878906
 20
319.76788330078125
 42
0
  0
VERTEX
  8
0
 10
160
 20
319.76788330078125
 42
-0
  0
SEQEND
  0
POLYLINE
  8
0
 10
0
 20
0
 39
0
 70
1
 66
1
  0
VERTEX
  8
0
 10
175.5
 20
146.43171691894531
 42
-1
  0
VERTEX
  8
0
 10
209.5
 20
146.43171691894531
 42
-1
  0
SEQEND
  0
POLYLINE
  8
0
 10
0
 20
0
 39
0
 70
1
 66
1
  0
VERTEX
  8
0
 10
977
 20
586.898681640625
 42
0
  0
VERTEX
  8
0
 10
1004
 20
586.898681640625
 42
-0
  0
VERTEX
  8
0
 10
1004
 20
718.87042236328125
 42
0
  0
VERTEX
  8
0
 10
996.47808837890625
 20
726.898681640625
 42
-0
  0
VERTEX
  8
0
 10
984.52191162109375
 20
726.898681640625
 42
-0
  0
VERTEX
  8
0
 10
977
 20
718.87042236328125
 42
-0
  0
SEQEND
  0
POLYLINE
  8
0
 10
0
 20
0
 39
0
 70
1
 66
1
  0
VERTEX
  8
0
 10
1142.1875
 20
22.284612655639648
 42
-0
  0
VERTEX
  8
0
 10
1220.228515625
 20
252.71449279785156
 42
-0
  0
VERTEX
  8
0
 10
1116.731689453125
 20
512.176025390625
 42
0
  0
VERTEX
  8
0
 10
1104.310791015625
 20
497.95767211914062
 42
0.26977404952049255
  0
VERTEX
  8
0
 10
1102.2098388671875
 20
487.09417724609375
 42
0
  0
VERTEX
  8
0
 10
1175.6630859375
 20
276.75668334960937
 42
-0.32629111409187317
  0
VERTEX
  8
0
 10
1169.931396484375
 20
256.89385986328125
 42
0
  0
VERTEX
  8
0
 10
1138.056640625
 20
245.858642578125
 42
0.2579103410243988
  0
VERTEX
  8
0
 10
1127.8701171875
 20
234.53738403320312
 42
0
  0
VERTEX
  8
0
 10
1102.1820068359375
 20
33.712146759033203
 42
0.8593367338180542
  0
SEQEND
  0
POLYLINE
  8
0
 10
0
 20
0
 39
0
 70
1
 66
1
  0
VERTEX
  8
0
 10
1146.8128662109375
 20
238.09724426269531
 42
-1
  0
VERTEX
  8
0
 10
1145.15673828125
 20
218.16593933105469
 42
-1
  0
SEQEND
  0
POLYLINE
  8
0
 10
0
 20
0
 39
0
 70
1
 66
1
  0
VERTEX
  8
0
 10
1201.9337158203125
 20
261.81747436523437
 42
-1
  0
VERTEX
  8
0
 10
1200.277587890625
 20
241.88615417480469
 42
-1
  0
SEQEND
  0
POLYLINE
  8
0
 10
0
 20
0
 39
0
 70
1
 66
1
  0
VERTEX
  8
0
 10
1124.08935546875
 20
43.499370574951172
 42
-1
  0
VERTEX
  8
0
 10
1122.0191650390625
 20
18.585231781005859
 42
-1
  0
SEQEND
  0
POLYLINE
  8
0
 10
0
 20
0
 39
0
 70
1
 66
1
  0
VERTEX
  8
0
 10
1185.62841796875
 20
793.72467041015625
 42
-0
  0
VERTEX
  8
0
 10
1107.58740234375
 20
563.2947998046875
 42
-0
  0
VERTEX
  8
0
 10
1211.084228515625
 20
303.83328247070312
 42
0
  0
VERTEX
  8
0
 10
1223.5052490234375
 20
318.05160522460937
 42
0.26977404952049255
  0
VERTEX
  8
0
 10
1225.6060791015625
 20
328.91513061523437
 42
0
  0
VERTEX
  8
0
 10
1152.1529541015625
 20
539.25262451171875
 42
-0.32629111409187317
  0
VERTEX
  8
0
 10
1157.884521484375
 20
559.11541748046875
 42
0
  0
VERTEX
  8
0
 10
1189.75927734375
 20
570.150634765625
 42
0.2579103410243988
  0
VERTEX
  8
0
 10
1199.9459228515625
 20
581.471923828125
 42
0
  0
VERTEX
  8
0
 10
1225.6339111328125
 20
782.29718017578125
 42
0.8593367338180542
  0
SEQEND
  0
POLYLINE
  8
0
 10
0
 20
0
 39
0
 70
1
 66
1
  0
VERTEX
  8
0
 10
1181.0030517578125
 20
577.91204833984375
 42
-1
  0
VERTEX
  8
0
 10
1182.6591796875
 20
597.8433837890625
 42
-1
  0
SEQEND
  0
POLYLINE
  8
0
 10
0
 20
0
 39
0
 70
1
 66
1
  0
VERTEX
  8
0
 10
1125.8822021484375
 20
554.19183349609375
 42
-1
  0
VERTEX
  8
0
 10
1127.538330078125
 20
574.1231689453125
 42
-1
  0
SEQEND
  0
POLYLINE
  8
0
 10
0
 20
0
 39
0
 70
1
 66
1
  0
VERTEX
  8
0
 10
1203.7265625
 20
772.50994873046875
 42
-1
  0
VERTEX
  8
0
 10
1205.7967529296875
 20
797.424072265625
 42
-1
  0
SEQEND
  0
POLYLINE
  8
0
 10
0
 20
0
 39
0
 70
1
 66
1
  0
VERTEX
  8
0
 10
1890.898681640625
 20
816.00927734375
 42
0
  0
VERTEX
  8
0
 10
1917.898681640625
 20
816.00927734375
 42
-0
  0
VERTEX
  8
0
 10
1917.898681640625
 20
947.9810791015625
 42
0
  0
VERTEX
  8
0
 10
1910.376708984375
 20
956.00927734375
 42
-0
  0
VERTEX
  8
0
 10
1898.420654296875
 20
956.00927734375
 42
-0
  0
VERTEX
  8
0
 10
1890.898681640625
 20
947.9810791015625
 42
-0
  0
SEQEND
  0
POLYLINE
  8
0
 10
0
 20
0
 39
0
 70
1
 66
1
  0
VERTEX
  8
0
 10
1927.898681640625
 20
816.00927734375
 42
0
  0
VERTEX
  8
0
 10
1954.898681640625
 20
816.00927734375
 42
-0
  0
VERTEX
  8
0
 10
1954.898681640625
 20
947.9810791015625
 42
0
  0
VERTEX
  8
0
 10
1947.376708984375
 20
956.00927734375
 42
-0
  0
VERTEX
  8
0
 10
1935.420654296875
 20
956.00927734375
 42
-0
  0
VERTEX
  8
0
 10
1927.898681640625
 20
947.9810791015625
 42
-0
  0
SEQEND
  0
ENDSEC
  0
EOF
