  0
SECTION
  2
ENTITIES
  0
POLYLINE
  8
0
 10
0
 20
0
 39
0
 70
1
 66
1
  0
VERTEX
  8
0
 10
0
 20
0
 42
-0
  0
VERTEX
  8
0
 10
1000
 20
0
 42
-0
  0
VERTEX
  8
0
 10
1000
 20
600
 42
-0
  0
VERTEX
  8
0
 10
0
 20
600
 42
-0
  0
SEQEND
  0
POLYLINE
  8
0
 10
0
 20
0
 39
0
 70
1
 66
1
  0
VERTEX
  8
0
 10
239
 20
551.40643310546875
 42
-0
  0
VERTEX
  8
0
 10
256
 20
585.40643310546875
 42
-0
  0
VERTEX
  8
0
 10
185
 20
585.40643310546875
 42
-0
  0
VERTEX
  8
0
 10
185
 20
551.40643310546875
 42
-0
  0
SEQEND
  0
POLYLINE
  8
0
 10
0
 20
0
 39
0
 70
1
 66
1
  0
VERTEX
  8
0
 10
551
 20
585.40643310546875
 42
-0
  0
VERTEX
  8
0
 10
551
 20
551.40643310546875
 42
-0
  0
VERTEX
  8
0
 10
620
 20
551.40643310546875
 42
-0
  0
VERTEX
  8
0
 10
629
 20
585.40643310546875
 42
-0
  0
SEQEND
  0
POLYLINE
  8
0
 10
0
 20
0
 39
0
 70
1
 66
1
  0
VERTEX
  8
0
 10
44
 20
539.40643310546875
 42
0
  0
VERTEX
  8
0
 10
10
 20
522.40643310546875
 42
0
  0
VERTEX
  8
0
 10
10
 20
468.40643310546875
 42
0
  0
VERTEX
  8
0
 10
44
 20
468.40643310546875
 42
0
  0
SEQEND
  0
POLYLINE
  8
0
 10
0
 20
0
 39
0
 70
1
 66
1
  0
VERTEX
  8
0
 10
804
 20
585.40643310546875
 42
0
  0
VERTEX
  8
0
 10
821
 20
551.40643310546875
 42
0
  0
VERTEX
  8
0
 10
875
 20
551.40643310546875
 42
0
  0
VERTEX
  8
0
 10
875
 20
585.40643310546875
 42
0
  0
SEQEND
  0
POLYLINE
  8
0
 10
0
 20
0
 39
0
 70
1
 66
1
  0
VERTEX
  8
0
 10
917.35296630859375
 20
69.88299560546875
 42
0.95677298307418823
  0
VERTEX
  8
0
 10
920.00006103515625
 20
10
 42
0
  0
VERTEX
  8
0
 10
921.00006103515625
 20
10
 42
-0
  0
VERTEX
  8
0
 10
933.00006103515625
 20
10.000015258789062
 42
0.41421395540237427
  0
VERTEX
  8
0
 10
963.00006103515625
 20
40
 42
0
  0
VERTEX
  8
0
 10
963.00006103515625
 20
145
 42
0.41421404480934143
  0
VERTEX
  8
0
 10
953.00006103515625
 20
155
 42
0
  0
VERTEX
  8
0
 10
943.00006103515625
 20
155
 42
-0
  0
VERTEX
  8
0
 10
943.00006103515625
 20
105
 42
0
  0
VERTEX
  8
0
 10
921.00006103515625
 20
105
 42
-0
  0
VERTEX
  8
0
 10
921.00006103515625
 20
73.867385864257813
 42
-0.3885670006275177
  0
SEQEND
  0
POLYLINE
  8
0
 10
0
 20
0
 39
0
 70
1
 66
1
  0
VERTEX
  8
0
 10
925.00006103515625
 20
31
 42
-0
  0
VERTEX
  8
0
 10
917.00006103515625
 20
31
 42
-1
  0
VERTEX
  8
0
 10
917.00006103515625
 20
49
 42
-0
  0
VERTEX
  8
0
 10
925.00006103515625
 20
49
 42
-1
  0
SEQEND
  0
POLYLINE
  8
0
 10
0
 20
0
 39
0
 70
1
 66
1
  0
VERTEX
  8
0
 10
935.6470947265625
 20
163.98350524902344
 42
0.95677298307418823
  0
VERTEX
  8
0
 10
933.00006103515625
 20
223.86650085449219
 42
0
  0
VERTEX
  8
0
 10
932.00006103515625
 20
223.86650085449219
 42
-0
  0
VERTEX
  8
0
 10
920.00006103515625
 20
223.86648559570312
 42
0.41421395540237427
  0
VERTEX
  8
0
 10
890.00006103515625
 20
193.86650085449219
 42
0
  0
VERTEX
  8
0
 10
890.00006103515625
 20
88.866500854492188
 42
0.41421404480934143
  0
VERTEX
  8
0
 10
900.00006103515625
 20
78.866500854492187
 42
0
  0
VERTEX
  8
0
 10
910.00006103515625
 20
78.866500854492187
 42
-0
  0
VERTEX
  8
0
 10
910.00006103515625
 20
128.86650085449219
 42
0
  0
VERTEX
  8
0
 10
932.00006103515625
 20
128.86650085449219
 42
-0
  0
VERTEX
  8
0
 10
932.00006103515625
 20
159.99911499023437
 42
-0.3885670006275177
  0
SEQEND
  0
POLYLINE
  8
0
 10
0
 20
0
 39
0
 70
1
 66
1
  0
VERTEX
  8
0
 10
928.00006103515625
 20
202.86650085449219
 42
-0
  0
VERTEX
  8
0
 10
936.00006103515625
 20
202.86650085449219
 42
-1
  0
VERTEX
  8
0
 10
936.00006103515625
 20
184.86650085449219
 42
-0
  0
VERTEX
  8
0
 10
928.00006103515625
 20
184.86650085449219
 42
-1
  0
SEQEND
  0
POLYLINE
  8
0
 10
0
 20
0
 39
0
 70
1
 66
1
  0
VERTEX
  8
0
 10
879.5830078125
 20
495.75936889648438
 42
0.95677298307418823
  0
VERTEX
  8
0
 10
939.46600341796875
 20
498.40643310546875
 42
0
  0
VERTEX
  8
0
 10
939.46600341796875
 20
499.40643310546875
 42
-0
  0
VERTEX
  8
0
 10
939.46600341796875
 20
511.40646362304688
 42
0.41421395540237427
  0
VERTEX
  8
0
 10
909.46600341796875
 20
541.40643310546875
 42
0
  0
VERTEX
  8
0
 10
804.46600341796875
 20
541.40643310546875
 42
0.41421404480934143
  0
VERTEX
  8
0
 10
794.46600341796875
 20
531.40643310546875
 42
0
  0
VERTEX
  8
0
 10
794.46600341796875
 20
521.40643310546875
 42
-0
  0
VERTEX
  8
0
 10
844.46600341796875
 20
521.40643310546875
 42
0
  0
VERTEX
  8
0
 10
844.46600341796875
 20
499.40643310546875
 42
-0
  0
VERTEX
  8
0
 10
875.5986328125
 20
499.40643310546875
 42
-0.3885670006275177
  0
SEQEND
  0
POLYLINE
  8
0
 10
0
 20
0
 39
0
 70
1
 66
1
  0
VERTEX
  8
0
 10
918.46600341796875
 20
503.40643310546875
 42
-0
  0
VERTEX
  8
0
 10
918.46600341796875
 20
495.40643310546875
 42
-1
  0
VERTEX
  8
0
 10
900.46600341796875
 20
495.40643310546875
 42
-0
  0
VERTEX
  8
0
 10
900.46600341796875
 20
503.40643310546875
 42
-1
  0
SEQEND
  0
POLYLINE
  8
0
 10
0
 20
0
 39
0
 70
1
 66
1
  0
VERTEX
  8
0
 10
785.48248291015625
 20
514.05352783203125
 42
0.95677298307418823
  0
VERTEX
  8
0
 10
725.5994873046875
 20
511.40643310546875
 42
0
  0
VERTEX
  8
0
 10
725.5994873046875
 20
510.40643310546875
 42
-0
  0
VERTEX
  8
0
 10
725.5994873046875
 20
498.40643310546875
 42
0.41421395540237427
  0
VERTEX
  8
0
 10
755.5994873046875
 20
468.40643310546875
 42
0
  0
VERTEX
  8
0
 10
860.5994873046875
 20
468.40643310546875
 42
0.41421404480934143
  0
VERTEX
  8
0
 10
870.5994873046875
 20
478.40643310546875
 42
0
  0
VERTEX
  8
0
 10
870.5994873046875
 20
488.40643310546875
 42
-0
  0
VERTEX
  8
0
 10
820.5994873046875
 20
488.40643310546875
 42
0
  0
VERTEX
  8
0
 10
820.5994873046875
 20
510.40643310546875
 42
-0
  0
VERTEX
  8
0
 10
789.46685791015625
 20
510.40643310546875
 42
-0.3885670006275177
  0
SEQEND
  0
POLYLINE
  8
0
 10
0
 20
0
 39
0
 70
1
 66
1
  0
VERTEX
  8
0
 10
746.5994873046875
 20
506.40643310546875
 42
-0
  0
VERTEX
  8
0
 10
746.5994873046875
 20
514.40643310546875
 42
-1
  0
VERTEX
  8
0
 10
764.5994873046875
 20
514.40643310546875
 42
-0
  0
VERTEX
  8
0
 10
764.5994873046875
 20
506.40643310546875
 42
-1
  0
SEQEND
  0
POLYLINE
  8
0
 10
0
 20
0
 39
0
 70
1
 66
1
  0
VERTEX
  8
0
 10
431.85000610351562
 20
495.75936889648438
 42
0.95677298307418823
  0
VERTEX
  8
0
 10
491.73300170898437
 20
498.40643310546875
 42
0
  0
VERTEX
  8
0
 10
491.73300170898437
 20
499.40643310546875
 42
-0
  0
VERTEX
  8
0
 10
491.73297119140625
 20
511.40646362304688
 42
0.41421395540237427
  0
VERTEX
  8
0
 10
461.73300170898437
 20
541.40643310546875
 42
0
  0
VERTEX
  8
0
 10
356.73300170898437
 20
541.40643310546875
 42
0.41421404480934143
  0
VERTEX
  8
0
 10
346.73300170898437
 20
531.40643310546875
 42
0
  0
VERTEX
  8
0
 10
346.73300170898437
 20
521.40643310546875
 42
-0
  0
VERTEX
  8
0
 10
396.73300170898437
 20
521.40643310546875
 42
0
  0
VERTEX
  8
0
 10
396.73300170898437
 20
499.40643310546875
 42
-0
  0
VERTEX
  8
0
 10
427.8656005859375
 20
499.40643310546875
 42
-0.3885670006275177
  0
SEQEND
  0
POLYLINE
  8
0
 10
0
 20
0
 39
0
 70
1
 66
1
  0
VERTEX
  8
0
 10
470.73300170898437
 20
503.40643310546875
 42
-0
  0
VERTEX
  8
0
 10
470.73300170898437
 20
495.40643310546875
 42
-1
  0
VERTEX
  8
0
 10
452.73300170898437
 20
495.40643310546875
 42
-0
  0
VERTEX
  8
0
 10
452.73300170898437
 20
503.40643310546875
 42
-1
  0
SEQEND
  0
POLYLINE
  8
0
 10
0
 20
0
 39
0
 70
1
 66
1
  0
VERTEX
  8
0
 10
337.74948120117187
 20
514.05352783203125
 42
0.95677298307418823
  0
VERTEX
  8
0
 10
277.86648559570312
 20
511.40643310546875
 42
0
  0
VERTEX
  8
0
 10
277.86648559570312
 20
510.40643310546875
 42
-0
  0
VERTEX
  8
0
 10
277.86651611328125
 20
498.40643310546875
 42
0.41421395540237427
  0
VERTEX
  8
0
 10
307.86648559570312
 20
468.40643310546875
 42
0
  0
VERTEX
  8
0
 10
412.86648559570312
 20
468.40643310546875
 42
0.41421404480934143
  0
VERTEX
  8
0
 10
422.86648559570312
 20
478.40643310546875
 42
0
  0
VERTEX
  8
0
 10
422.86648559570312
 20
488.40643310546875
 42
-0
  0
VERTEX
  8
0
 10
372.86648559570312
 20
488.40643310546875
 42
0
  0
VERTEX
  8
0
 10
372.86648559570312
 20
510.40643310546875
 42
-0
  0
VERTEX
  8
0
 10
341.73388671875
 20
510.40643310546875
 42
-0.3885670006275177
  0
SEQEND
  0
POLYLINE
  8
0
 10
0
 20
0
 39
0
 70
1
 66
1
  0
VERTEX
  8
0
 10
298.86648559570312
 20
506.40643310546875
 42
-0
  0
VERTEX
  8
0
 10
298.86648559570312
 20
514.40643310546875
 42
-1
  0
VERTEX
  8
0
 10
316.86648559570312
 20
514.40643310546875
 42
-0
  0
VERTEX
  8
0
 10
316.86648559570312
 20
506.40643310546875
 42
-1
  0
SEQEND
  0
POLYLINE
  8
0
 10
0
 20
0
 39
0
 70
1
 66
1
  0
VERTEX
  8
0
 10
207.98350524902344
 20
495.75936889648438
 42
0.95677298307418823
  0
VERTEX
  8
0
 10
267.86648559570312
 20
498.40643310546875
 42
0
  0
VERTEX
  8
0
 10
267.86648559570312
 20
499.40643310546875
 42
-0
  0
VERTEX
  8
0
 10
267.86648559570312
 20
511.40646362304688
 42
0.41421395540237427
  0
VERTEX
  8
0
 10
237.86650085449219
 20
541.40643310546875
 42
0
  0
VERTEX
  8
0
 10
132.86650085449219
 20
541.40643310546875
 42
0.41421404480934143
  0
VERTEX
  8
0
 10
122.86650085449219
 20
531.40643310546875
 42
0
  0
VERTEX
  8
0
 10
122.86650085449219
 20
521.40643310546875
 42
-0
  0
VERTEX
  8
0
 10
172.86650085449219
 20
521.40643310546875
 42
0
  0
VERTEX
  8
0
 10
172.86650085449219
 20
499.40643310546875
 42
-0
  0
VERTEX
  8
0
 10
203.99911499023437
 20
499.40643310546875
 42
-0.3885670006275177
  0
SEQEND
  0
POLYLINE
  8
0
 10
0
 20
0
 39
0
 70
1
 66
1
  0
VERTEX
  8
0
 10
246.86650085449219
 20
503.40643310546875
 42
-0
  0
VERTEX
  8
0
 10
246.86650085449219
 20
495.40643310546875
 42
-1
  0
VERTEX
  8
0
 10
228.86650085449219
 20
495.40643310546875
 42
-0
  0
VERTEX
  8
0
 10
228.86650085449219
 20
503.40643310546875
 42
-1
  0
SEQEND
  0
POLYLINE
  8
0
 10
0
 20
0
 39
0
 70
1
 66
1
  0
VERTEX
  8
0
 10
113.88299560546875
 20
514.05352783203125
 42
0.95677298307418823
  0
VERTEX
  8
0
 10
54
 20
511.40643310546875
 42
0
  0
VERTEX
  8
0
 10
54
 20
510.40643310546875
 42
-0
  0
VERTEX
  8
0
 10
54.000015258789063
 20
498.40643310546875
 42
0.41421395540237427
  0
VERTEX
  8
0
 10
84
 20
468.40643310546875
 42
0
  0
VERTEX
  8
0
 10
189
 20
468.40643310546875
 42
0.41421404480934143
  0
VERTEX
  8
0
 10
199
 20
478.40643310546875
 42
0
  0
VERTEX
  8
0
 10
199
 20
488.40643310546875
 42
-0
  0
VERTEX
  8
0
 10
149
 20
488.40643310546875
 42
0
  0
VERTEX
  8
0
 10
149
 20
510.40643310546875
 42
-0
  0
VERTEX
  8
0
 10
117.86738586425781
 20
510.40643310546875
 42
-0.3885670006275177
  0
SEQEND
  0
POLYLINE
  8
0
 10
0
 20
0
 39
0
 70
1
 66
1
  0
VERTEX
  8
0
 10
75
 20
506.40643310546875
 42
-0
  0
VERTEX
  8
0
 10
75
 20
514.40643310546875
 42
-1
  0
VERTEX
  8
0
 10
93
 20
514.40643310546875
 42
-0
  0
VERTEX
  8
0
 10
93
 20
506.40643310546875
 42
-1
  0
SEQEND
  0
POLYLINE
  8
0
 10
0
 20
0
 39
0
 70
1
 66
1
  0
VERTEX
  8
0
 10
655.71649169921875
 20
495.75936889648438
 42
0.95677298307418823
  0
VERTEX
  8
0
 10
715.5994873046875
 20
498.40643310546875
 42
0
  0
VERTEX
  8
0
 10
715.5994873046875
 20
499.40643310546875
 42
-0
  0
VERTEX
  8
0
 10
715.5994873046875
 20
511.40646362304688
 42
0.41421395540237427
  0
VERTEX
  8
0
 10
685.5994873046875
 20
541.40643310546875
 42
0
  0
VERTEX
  8
0
 10
580.5994873046875
 20
541.40643310546875
 42
0.41421404480934143
  0
VERTEX
  8
0
 10
570.5994873046875
 20
531.40643310546875
 42
0
  0
VERTEX
  8
0
 10
570.5994873046875
 20
521.40643310546875
 42
-0
  0
VERTEX
  8
0
 10
620.5994873046875
 20
521.40643310546875
 42
0
  0
VERTEX
  8
0
 10
620.5994873046875
 20
499.40643310546875
 42
-0
  0
VERTEX
  8
0
 10
651.73211669921875
 20
499.40643310546875
 42
-0.3885670006275177
  0
SEQEND
  0
POLYLINE
  8
0
 10
0
 20
0
 39
0
 70
1
 66
1
  0
VERTEX
  8
0
 10
694.5994873046875
 20
503.40643310546875
 42
-0
  0
VERTEX
  8
0
 10
694.5994873046875
 20
495.40643310546875
 42
-1
  0
VERTEX
  8
0
 10
676.5994873046875
 20
495.40643310546875
 42
-0
  0
VERTEX
  8
0
 10
676.5994873046875
 20
503.40643310546875
 42
-1
  0
SEQEND
  0
POLYLINE
  8
0
 10
0
 20
0
 39
0
 70
1
 66
1
  0
VERTEX
  8
0
 10
561.615966796875
 20
514.05352783203125
 42
0.95677298307418823
  0
VERTEX
  8
0
 10
501.73300170898437
 20
511.40643310546875
 42
0
  0
VERTEX
  8
0
 10
501.73300170898437
 20
510.40643310546875
 42
-0
  0
VERTEX
  8
0
 10
501.73300170898437
 20
498.40643310546875
 42
0.41421395540237427
  0
VERTEX
  8
0
 10
531.73297119140625
 20
468.40643310546875
 42
0
  0
VERTEX
  8
0
 10
636.73297119140625
 20
468.40643310546875
 42
0.41421404480934143
  0
VERTEX
  8
0
 10
646.73297119140625
 20
478.40643310546875
 42
0
  0
VERTEX
  8
0
 10
646.73297119140625
 20
488.40643310546875
 42
-0
  0
VERTEX
  8
0
 10
596.73297119140625
 20
488.40643310546875
 42
0
  0
VERTEX
  8
0
 10
596.73297119140625
 20
510.40643310546875
 42
-0
  0
VERTEX
  8
0
 10
565.60040283203125
 20
510.40643310546875
 42
-0.3885670006275177
  0
SEQEND
  0
POLYLINE
  8
0
 10
0
 20
0
 39
0
 70
1
 66
1
  0
VERTEX
  8
0
 10
522.73297119140625
 20
506.40643310546875
 42
-0
  0
VERTEX
  8
0
 10
522.73297119140625
 20
514.40643310546875
 42
-1
  0
VERTEX
  8
0
 10
540.73297119140625
 20
514.40643310546875
 42
-0
  0
VERTEX
  8
0
 10
540.73297119140625
 20
506.40643310546875
 42
-1
  0
SEQEND
  0
POLYLINE
  8
0
 10
0
 20
0
 39
0
 70
1
 66
1
  0
VERTEX
  8
0
 10
640
 20
110.00000762939453
 42
-0
  0
VERTEX
  8
0
 10
607
 20
110.00000762939453
 42
-0
  0
VERTEX
  8
0
 10
607
 20
80.000007629394531
 42
-0
  0
VERTEX
  8
0
 10
548
 20
80.000007629394531
 42
-0
  0
VERTEX
  8
0
 10
538
 20
70.000007629394531
 42
-0
  0
VERTEX
  8
0
 10
538
 20
10
 42
-0
  0
VERTEX
  8
0
 10
548
 20
10
 42
-0
  0
VERTEX
  8
0
 10
697.38922119140625
 20
36.341346740722656
 42
0.36396992206573486
  0
VERTEX
  8
0
 10
704.00006103515625
 20
44.219810485839844
 42
-0
  0
VERTEX
  8
0
 10
704.00006103515625
 20
119.00000762939453
 42
1
  0
VERTEX
  8
0
 10
644
 20
119.00000762939453
 42
-0
  0
VERTEX
  8
0
 10
644
 20
113.99999237060547
 42
-0.41421392560005188
  0
SEQEND
  0
POLYLINE
  8
0
 10
0
 20
0
 39
0
 70
1
 66
1
  0
VERTEX
  8
0
 10
666.00006103515625
 20
116.00000762939453
 42
-1
  0
VERTEX
  8
0
 10
682.00006103515625
 20
116.00000762939453
 42
-1
  0
SEQEND
  0
POLYLINE
  8
0
 10
0
 20
0
 39
0
 70
1
 66
1
  0
VERTEX
  8
0
 10
673.4000244140625
 20
66.000007629394531
 42
-1
  0
VERTEX
  8
0
 10
686.60003662109375
 20
66.000007629394531
 42
-1
  0
SEQEND
  0
POLYLINE
  8
0
 10
0
 20
0
 39
0
 70
1
 66
1
  0
VERTEX
  8
0
 10
602.00006103515625
 20
129.20320129394531
 42
-0
  0
VERTEX
  8
0
 10
635.00006103515625
 20
129.20320129394531
 42
-0
  0
VERTEX
  8
0
 10
635.00006103515625
 20
159.20320129394531
 42
-0
  0
VERTEX
  8
0
 10
694.00006103515625
 20
159.20320129394531
 42
-0
  0
VERTEX
  8
0
 10
704.00006103515625
 20
169.20320129394531
 42
-0
  0
VERTEX
  8
0
 10
704.00006103515625
 20
229.20321655273438
 42
-0
  0
VERTEX
  8
0
 10
694.00006103515625
 20
229.20321655273438
 42
-0
  0
VERTEX
  8
0
 10
544.61083984375
 20
202.86186218261719
 42
0.36396992206573486
  0
VERTEX
  8
0
 10
538
 20
194.9833984375
 42
-0
  0
VERTEX
  8
0
 10
538
 20
120.20320892333984
 42
1
  0
VERTEX
  8
0
 10
598.00006103515625
 20
120.20320892333984
 42
-0
  0
VERTEX
  8
0
 10
598.00006103515625
 20
125.20322418212891
 42
-0.41421392560005188
  0
SEQEND
  0
POLYLINE
  8
0
 10
0
 20
0
 39
0
 70
1
 66
1
  0
VERTEX
  8
0
 10
576
 20
123.20320892333984
 42
-1
  0
VERTEX
  8
0
 10
560
 20
123.20320892333984
 42
-1
  0
SEQEND
  0
POLYLINE
  8
0
 10
0
 20
0
 39
0
 70
1
 66
1
  0
VERTEX
  8
0
 10
568.60003662109375
 20
173.20320129394531
 42
-1
  0
VERTEX
  8
0
 10
555.4000244140625
 20
173.20320129394531
 42
-1
  0
SEQEND
  0
POLYLINE
  8
0
 10
0
 20
0
 39
0
 70
1
 66
1
  0
VERTEX
  8
0
 10
640
 20
339.20321655273437
 42
-0
  0
VERTEX
  8
0
 10
607
 20
339.20321655273437
 42
-0
  0
VERTEX
  8
0
 10
607
 20
309.20321655273437
 42
-0
  0
VERTEX
  8
0
 10
548
 20
309.20321655273437
 42
-0
  0
VERTEX
  8
0
 10
538
 20
299.20321655273437
 42
-0
  0
VERTEX
  8
0
 10
538
 20
239.20321655273438
 42
-0
  0
VERTEX
  8
0
 10
548
 20
239.20321655273438
 42
-0
  0
VERTEX
  8
0
 10
697.38922119140625
 20
265.5445556640625
 42
0.36396992206573486
  0
VERTEX
  8
0
 10
704.00006103515625
 20
273.42303466796875
 42
-0
  0
VERTEX
  8
0
 10
704.00006103515625
 20
348.20321655273437
 42
1
  0
VERTEX
  8
0
 10
644
 20
348.20321655273437
 42
-0
  0
VERTEX
  8
0
 10
644
 20
343.20321655273437
 42
-0.41421392560005188
  0
SEQEND
  0
POLYLINE
  8
0
 10
0
 20
0
 39
0
 70
1
 66
1
  0
VERTEX
  8
0
 10
666.00006103515625
 20
345.20321655273437
 42
-1
  0
VERTEX
  8
0
 10
682.00006103515625
 20
345.20321655273437
 42
-1
  0
SEQEND
  0
POLYLINE
  8
0
 10
0
 20
0
 39
0
 70
1
 66
1
  0
VERTEX
  8
0
 10
673.4000244140625
 20
295.20321655273437
 42
-1
  0
VERTEX
  8
0
 10
686.60003662109375
 20
295.20321655273437
 42
-1
  0
SEQEND
  0
POLYLINE
  8
0
 10
0
 20
0
 39
0
 70
1
 66
1
  0
VERTEX
  8
0
 10
602.00006103515625
 20
358.40643310546875
 42
-0
  0
VERTEX
  8
0
 10
635.00006103515625
 20
358.40643310546875
 42
-0
  0
VERTEX
  8
0
 10
635.00006103515625
 20
388.40643310546875
 42
-0
  0
VERTEX
  8
0
 10
694.00006103515625
 20
388.40643310546875
 42
-0
  0
VERTEX
  8
0
 10
704.00006103515625
 20
398.40643310546875
 42
-0
  0
VERTEX
  8
0
 10
704.00006103515625
 20
458.40643310546875
 42
-0
  0
VERTEX
  8
0
 10
694.00006103515625
 20
458.40643310546875
 42
-0
  0
VERTEX
  8
0
 10
544.61083984375
 20
432.06509399414062
 42
0.36396992206573486
  0
VERTEX
  8
0
 10
538
 20
424.18661499023437
 42
-0
  0
VERTEX
  8
0
 10
538
 20
349.40643310546875
 42
1
  0
VERTEX
  8
0
 10
598.00006103515625
 20
349.40643310546875
 42
-0
  0
VERTEX
  8
0
 10
598.00006103515625
 20
354.40643310546875
 42
-0.41421392560005188
  0
SEQEND
  0
POLYLINE
  8
0
 10
0
 20
0
 39
0
 70
1
 66
1
  0
VERTEX
  8
0
 10
576
 20
352.40643310546875
 42
-1
  0
VERTEX
  8
0
 10
560
 20
352.40643310546875
 42
-1
  0
SEQEND
  0
POLYLINE
  8
0
 10
0
 20
0
 39
0
 70
1
 66
1
  0
VERTEX
  8
0
 10
568.60003662109375
 20
402.40643310546875
 42
-1
  0
VERTEX
  8
0
 10
555.4000244140625
 20
402.40643310546875
 42
-1
  0
SEQEND
  0
POLYLINE
  8
0
 10
0
 20
0
 39
0
 70
1
 66
1
  0
VERTEX
  8
0
 10
112
 20
339.20321655273437
 42
-0
  0
VERTEX
  8
0
 10
79
 20
339.20321655273437
 42
-0
  0
VERTEX
  8
0
 10
79
 20
309.20321655273437
 42
-0
  0
VERTEX
  8
0
 10
20
 20
309.20321655273437
 42
-0
  0
VERTEX
  8
0
 10
10
 20
299.20321655273437
 42
-0
  0
VERTEX
  8
0
 10
10
 20
239.20321655273438
 42
-0
  0
VERTEX
  8
0
 10
20
 20
239.20321655273438
 42
-0
  0
VERTEX
  8
0
 10
169.38919067382812
 20
265.5445556640625
 42
0.36396992206573486
  0
VERTEX
  8
0
 10
176.00001525878906
 20
273.42303466796875
 42
-0
  0
VERTEX
  8
0
 10
176.00001525878906
 20
348.20321655273437
 42
1
  0
VERTEX
  8
0
 10
116
 20
348.20321655273437
 42
-0
  0
VERTEX
  8
0
 10
116
 20
343.20321655273437
 42
-0.41421392560005188
  0
SEQEND
  0
POLYLINE
  8
0
 10
0
 20
0
 39
0
 70
1
 66
1
  0
VERTEX
  8
0
 10
138.00001525878906
 20
345.20321655273437
 42
-1
  0
VERTEX
  8
0
 10
154.00001525878906
 20
345.20321655273437
 42
-1
  0
SEQEND
  0
POLYLINE
  8
0
 10
0
 20
0
 39
0
 70
1
 66
1
  0
VERTEX
  8
0
 10
145.40000915527344
 20
295.20321655273437
 42
-1
  0
VERTEX
  8
0
 10
158.60002136230469
 20
295.20321655273437
 42
-1
  0
SEQEND
  0
POLYLINE
  8
0
 10
0
 20
0
 39
0
 70
1
 66
1
  0
VERTEX
  8
0
 10
74.000007629394531
 20
358.40643310546875
 42
-0
  0
VERTEX
  8
0
 10
107.00000762939453
 20
358.40643310546875
 42
-0
  0
VERTEX
  8
0
 10
107.00000762939453
 20
388.40643310546875
 42
-0
  0
VERTEX
  8
0
 10
166.00001525878906
 20
388.40643310546875
 42
-0
  0
VERTEX
  8
0
 10
176.00001525878906
 20
398.40643310546875
 42
-0
  0
VERTEX
  8
0
 10
176
 20
458.40643310546875
 42
-0
  0
VERTEX
  8
0
 10
166
 20
458.40643310546875
 42
-0
  0
VERTEX
  8
0
 10
16.610824584960937
 20
432.06509399414062
 42
0.36396992206573486
  0
VERTEX
  8
0
 10
10
 20
424.18661499023437
 42
-0
  0
VERTEX
  8
0
 10
10
 20
349.40643310546875
 42
1
  0
VERTEX
  8
0
 10
70.000007629394531
 20
349.40643310546875
 42
-0
  0
VERTEX
  8
0
 10
70.000007629394531
 20
354.40643310546875
 42
-0.41421392560005188
  0
SEQEND
  0
POLYLINE
  8
0
 10
0
 20
0
 39
0
 70
1
 66
1
  0
VERTEX
  8
0
 10
48
 20
352.40643310546875
 42
-1
  0
VERTEX
  8
0
 10
32
 20
352.40643310546875
 42
-1
  0
SEQEND
  0
POLYLINE
  8
0
 10
0
 20
0
 39
0
 70
1
 66
1
  0
VERTEX
  8
0
 10
40.600006103515625
 20
402.40643310546875
 42
-1
  0
VERTEX
  8
0
 10
27.399993896484375
 20
402.40643310546875
 42
-1
  0
SEQEND
  0
POLYLINE
  8
0
 10
0
 20
0
 39
0
 70
1
 66
1
  0
VERTEX
  8
0
 10
288
 20
339.20321655273437
 42
-0
  0
VERTEX
  8
0
 10
255.00001525878906
 20
339.20321655273437
 42
-0
  0
VERTEX
  8
0
 10
255.00001525878906
 20
309.20321655273437
 42
-0
  0
VERTEX
  8
0
 10
196.00001525878906
 20
309.20321655273437
 42
-0
  0
VERTEX
  8
0
 10
186.00001525878906
 20
299.20321655273437
 42
-0
  0
VERTEX
  8
0
 10
186.00001525878906
 20
239.20321655273438
 42
-0
  0
VERTEX
  8
0
 10
196.00001525878906
 20
239.20321655273438
 42
-0
  0
VERTEX
  8
0
 10
345.38919067382812
 20
265.5445556640625
 42
0.36396992206573486
  0
VERTEX
  8
0
 10
352.00003051757812
 20
273.42303466796875
 42
-0
  0
VERTEX
  8
0
 10
352.00003051757812
 20
348.20321655273437
 42
1
  0
VERTEX
  8
0
 10
292
 20
348.20321655273437
 42
-0
  0
VERTEX
  8
0
 10
292
 20
343.20321655273437
 42
-0.41421392560005188
  0
SEQEND
  0
POLYLINE
  8
0
 10
0
 20
0
 39
0
 70
1
 66
1
  0
VERTEX
  8
0
 10
314.00003051757813
 20
345.20321655273437
 42
-1
  0
VERTEX
  8
0
 10
330.00003051757812
 20
345.20321655273437
 42
-1
  0
SEQEND
  0
POLYLINE
  8
0
 10
0
 20
0
 39
0
 70
1
 66
1
  0
VERTEX
  8
0
 10
321.4000244140625
 20
295.20321655273437
 42
-1
  0
VERTEX
  8
0
 10
334.60003662109375
 20
295.20321655273437
 42
-1
  0
SEQEND
  0
POLYLINE
  8
0
 10
0
 20
0
 39
0
 70
1
 66
1
  0
VERTEX
  8
0
 10
250.00001525878906
 20
358.40643310546875
 42
-0
  0
VERTEX
  8
0
 10
283
 20
358.40643310546875
 42
-0
  0
VERTEX
  8
0
 10
283
 20
388.40643310546875
 42
-0
  0
VERTEX
  8
0
 10
342
 20
388.40643310546875
 42
-0
  0
VERTEX
  8
0
 10
352
 20
398.40643310546875
 42
-0
  0
VERTEX
  8
0
 10
352
 20
458.40643310546875
 42
-0
  0
VERTEX
  8
0
 10
342
 20
458.40643310546875
 42
-0
  0
VERTEX
  8
0
 10
192.61083984375
 20
432.06509399414062
 42
0.36396992206573486
  0
VERTEX
  8
0
 10
186
 20
424.18661499023437
 42
-0
  0
VERTEX
  8
0
 10
186.00001525878906
 20
349.40643310546875
 42
1
  0
VERTEX
  8
0
 10
246.00001525878906
 20
349.40643310546875
 42
-0
  0
VERTEX
  8
0
 10
246.00001525878906
 20
354.40643310546875
 42
-0.41421392560005188
  0
SEQEND
  0
POLYLINE
  8
0
 10
0
 20
0
 39
0
 70
1
 66
1
  0
VERTEX
  8
0
 10
224.00001525878906
 20
352.40643310546875
 42
-1
  0
VERTEX
  8
0
 10
208.00001525878906
 20
352.40643310546875
 42
-1
  0
SEQEND
  0
POLYLINE
  8
0
 10
0
 20
0
 39
0
 70
1
 66
1
  0
VERTEX
  8
0
 10
216.60002136230469
 20
402.40643310546875
 42
-1
  0
VERTEX
  8
0
 10
203.40000915527344
 20
402.40643310546875
 42
-1
  0
SEQEND
  0
POLYLINE
  8
0
 10
0
 20
0
 39
0
 70
1
 66
1
  0
VERTEX
  8
0
 10
288
 20
110.00000762939453
 42
-0
  0
VERTEX
  8
0
 10
255.00001525878906
 20
110.00000762939453
 42
-0
  0
VERTEX
  8
0
 10
255.00001525878906
 20
80.000007629394531
 42
-0
  0
VERTEX
  8
0
 10
196.00001525878906
 20
80.000007629394531
 42
-0
  0
VERTEX
  8
0
 10
186.00001525878906
 20
70.000007629394531
 42
-0
  0
VERTEX
  8
0
 10
186.00001525878906
 20
10
 42
-0
  0
VERTEX
  8
0
 10
196.00001525878906
 20
10
 42
-0
  0
VERTEX
  8
0
 10
345.38919067382812
 20
36.341346740722656
 42
0.36396992206573486
  0
VERTEX
  8
0
 10
352.00003051757812
 20
44.219810485839844
 42
-0
  0
VERTEX
  8
0
 10
352.00003051757812
 20
119.00000762939453
 42
1
  0
VERTEX
  8
0
 10
292
 20
119.00000762939453
 42
-0
  0
VERTEX
  8
0
 10
292
 20
113.99999237060547
 42
-0.41421392560005188
  0
SEQEND
  0
POLYLINE
  8
0
 10
0
 20
0
 39
0
 70
1
 66
1
  0
VERTEX
  8
0
 10
314.00003051757813
 20
116.00000762939453
 42
-1
  0
VERTEX
  8
0
 10
330.00003051757812
 20
116.00000762939453
 42
-1
  0
SEQEND
  0
POLYLINE
  8
0
 10
0
 20
0
 39
0
 70
1
 66
1
  0
VERTEX
  8
0
 10
321.4000244140625
 20
66.000007629394531
 42
-1
  0
VERTEX
  8
0
 10
334.60003662109375
 20
66.000007629394531
 42
-1
  0
SEQEND
  0
POLYLINE
  8
0
 10
0
 20
0
 39
0
 70
1
 66
1
  0
VERTEX
  8
0
 10
250.00001525878906
 20
129.20320129394531
 42
-0
  0
VERTEX
  8
0
 10
283
 20
129.20320129394531
 42
-0
  0
VERTEX
  8
0
 10
283
 20
159.20320129394531
 42
-0
  0
VERTEX
  8
0
 10
342
 20
159.20320129394531
 42
-0
  0
VERTEX
  8
0
 10
352
 20
169.20320129394531
 42
-0
  0
VERTEX
  8
0
 10
352
 20
229.20321655273438
 42
-0
  0
VERTEX
  8
0
 10
342
 20
229.20321655273438
 42
-0
  0
VERTEX
  8
0
 10
192.61083984375
 20
202.86186218261719
 42
0.36396992206573486
  0
VERTEX
  8
0
 10
186
 20
194.9833984375
 42
-0
  0
VERTEX
  8
0
 10
186.00001525878906
 20
120.20320892333984
 42
1
  0
VERTEX
  8
0
 10
246.00001525878906
 20
120.20320892333984
 42
-0
  0
VERTEX
  8
0
 10
246.00001525878906
 20
125.20322418212891
 42
-0.41421392560005188
  0
SEQEND
  0
POLYLINE
  8
0
 10
0
 20
0
 39
0
 70
1
 66
1
  0
VERTEX
  8
0
 10
224.00001525878906
 20
123.20320892333984
 42
-1
  0
VERTEX
  8
0
 10
208.00001525878906
 20
123.20320892333984
 42
-1
  0
SEQEND
  0
POLYLINE
  8
0
 10
0
 20
0
 39
0
 70
1
 66
1
  0
VERTEX
  8
0
 10
216.60002136230469
 20
173.20320129394531
 42
-1
  0
VERTEX
  8
0
 10
203.40000915527344
 20
173.20320129394531
 42
-1
  0
SEQEND
  0
POLYLINE
  8
0
 10
0
 20
0
 39
0
 70
1
 66
1
  0
VERTEX
  8
0
 10
112
 20
110.00000762939453
 42
-0
  0
VERTEX
  8
0
 10
79
 20
110.00000762939453
 42
-0
  0
VERTEX
  8
0
 10
79
 20
80.000007629394531
 42
-0
  0
VERTEX
  8
0
 10
20
 20
80.000007629394531
 42
-0
  0
VERTEX
  8
0
 10
10
 20
70.000007629394531
 42
-0
  0
VERTEX
  8
0
 10
10
 20
10
 42
-0
  0
VERTEX
  8
0
 10
20
 20
10
 42
-0
  0
VERTEX
  8
0
 10
169.38919067382812
 20
36.341346740722656
 42
0.36396992206573486
  0
VERTEX
  8
0
 10
176.00001525878906
 20
44.219810485839844
 42
-0
  0
VERTEX
  8
0
 10
176.00001525878906
 20
119.00000762939453
 42
1
  0
VERTEX
  8
0
 10
116
 20
119.00000762939453
 42
-0
  0
VERTEX
  8
0
 10
116
 20
113.99999237060547
 42
-0.41421392560005188
  0
SEQEND
  0
POLYLINE
  8
0
 10
0
 20
0
 39
0
 70
1
 66
1
  0
VERTEX
  8
0
 10
138.00001525878906
 20
116.00000762939453
 42
-1
  0
VERTEX
  8
0
 10
154.00001525878906
 20
116.00000762939453
 42
-1
  0
SEQEND
  0
POLYLINE
  8
0
 10
0
 20
0
 39
0
 70
1
 66
1
  0
VERTEX
  8
0
 10
145.40000915527344
 20
66.000007629394531
 42
-1
  0
VERTEX
  8
0
 10
158.60002136230469
 20
66.000007629394531
 42
-1
  0
SEQEND
  0
POLYLINE
  8
0
 10
0
 20
0
 39
0
 70
1
 66
1
  0
VERTEX
  8
0
 10
74.000007629394531
 20
129.20320129394531
 42
-0
  0
VERTEX
  8
0
 10
107.00000762939453
 20
129.20320129394531
 42
-0
  0
VERTEX
  8
0
 10
107.00000762939453
 20
159.20320129394531
 42
-0
  0
VERTEX
  8
0
 10
166.00001525878906
 20
159.20320129394531
 42
-0
  0
VERTEX
  8
0
 10
176.00001525878906
 20
169.20320129394531
 42
-0
  0
VERTEX
  8
0
 10
176
 20
229.20321655273438
 42
-0
  0
VERTEX
  8
0
 10
166
 20
229.20321655273438
 42
-0
  0
VERTEX
  8
0
 10
16.610824584960937
 20
202.86186218261719
 42
0.36396992206573486
  0
VERTEX
  8
0
 10
10
 20
194.9833984375
 42
-0
  0
VERTEX
  8
0
 10
10
 20
120.20320892333984
 42
1
  0
VERTEX
  8
0
 10
70.000007629394531
 20
120.20320892333984
 42
-0
  0
VERTEX
  8
0
 10
70.000007629394531
 20
125.20322418212891
 42
-0.41421392560005188
  0
SEQEND
  0
POLYLINE
  8
0
 10
0
 20
0
 39
0
 70
1
 66
1
  0
VERTEX
  8
0
 10
48
 20
123.20320892333984
 42
-1
  0
VERTEX
  8
0
 10
32
 20
123.20320892333984
 42
-1
  0
SEQEND
  0
POLYLINE
  8
0
 10
0
 20
0
 39
0
 70
1
 66
1
  0
VERTEX
  8
0
 10
40.600006103515625
 20
173.20320129394531
 42
-1
  0
VERTEX
  8
0
 10
27.399993896484375
 20
173.20320129394531
 42
-1
  0
SEQEND
  0
POLYLINE
  8
0
 10
0
 20
0
 39
0
 70
1
 66
1
  0
VERTEX
  8
0
 10
464.00003051757813
 20
110.00000762939453
 42
-0
  0
VERTEX
  8
0
 10
431.00003051757812
 20
110.00000762939453
 42
-0
  0
VERTEX
  8
0
 10
431.00003051757812
 20
80.000007629394531
 42
-0
  0
VERTEX
  8
0
 10
372.00003051757812
 20
80.000007629394531
 42
-0
  0
VERTEX
  8
0
 10
362.00003051757813
 20
70.000007629394531
 42
-0
  0
VERTEX
  8
0
 10
362.00003051757813
 20
10
 42
-0
  0
VERTEX
  8
0
 10
372.00003051757812
 20
10
 42
-0
  0
VERTEX
  8
0
 10
521.38922119140625
 20
36.341346740722656
 42
0.36396992206573486
  0
VERTEX
  8
0
 10
528
 20
44.219810485839844
 42
-0
  0
VERTEX
  8
0
 10
528
 20
119.00000762939453
 42
1
  0
VERTEX
  8
0
 10
468.00003051757812
 20
119.00000762939453
 42
-0
  0
VERTEX
  8
0
 10
468.00003051757812
 20
113.99999237060547
 42
-0.41421392560005188
  0
SEQEND
  0
POLYLINE
  8
0
 10
0
 20
0
 39
0
 70
1
 66
1
  0
VERTEX
  8
0
 10
490.00003051757813
 20
116.00000762939453
 42
-1
  0
VERTEX
  8
0
 10
506.00003051757812
 20
116.00000762939453
 42
-1
  0
SEQEND
  0
POLYLINE
  8
0
 10
0
 20
0
 39
0
 70
1
 66
1
  0
VERTEX
  8
0
 10
497.4000244140625
 20
66.000007629394531
 42
-1
  0
VERTEX
  8
0
 10
510.60003662109375
 20
66.000007629394531
 42
-1
  0
SEQEND
  0
POLYLINE
  8
0
 10
0
 20
0
 39
0
 70
1
 66
1
  0
VERTEX
  8
0
 10
426.00003051757812
 20
129.20320129394531
 42
-0
  0
VERTEX
  8
0
 10
459.00003051757812
 20
129.20320129394531
 42
-0
  0
VERTEX
  8
0
 10
459.00003051757812
 20
159.20320129394531
 42
-0
  0
VERTEX
  8
0
 10
518
 20
159.20320129394531
 42
-0
  0
VERTEX
  8
0
 10
528
 20
169.20320129394531
 42
-0
  0
VERTEX
  8
0
 10
528
 20
229.20321655273438
 42
-0
  0
VERTEX
  8
0
 10
518
 20
229.20321655273438
 42
-0
  0
VERTEX
  8
0
 10
368.61083984375
 20
202.86186218261719
 42
0.36396992206573486
  0
VERTEX
  8
0
 10
362.00003051757813
 20
194.9833984375
 42
-0
  0
VERTEX
  8
0
 10
362.00003051757813
 20
120.20320892333984
 42
1
  0
VERTEX
  8
0
 10
422.00003051757812
 20
120.20320892333984
 42
-0
  0
VERTEX
  8
0
 10
422.00003051757812
 20
125.20322418212891
 42
-0.41421392560005188
  0
SEQEND
  0
POLYLINE
  8
0
 10
0
 20
0
 39
0
 70
1
 66
1
  0
VERTEX
  8
0
 10
400.00003051757812
 20
123.20320892333984
 42
-1
  0
VERTEX
  8
0
 10
384.00003051757812
 20
123.20320892333984
 42
-1
  0
SEQEND
  0
POLYLINE
  8
0
 10
0
 20
0
 39
0
 70
1
 66
1
  0
VERTEX
  8
0
 10
392.60003662109375
 20
173.20320129394531
 42
-1
  0
VERTEX
  8
0
 10
379.4000244140625
 20
173.20320129394531
 42
-1
  0
SEQEND
  0
POLYLINE
  8
0
 10
0
 20
0
 39
0
 70
1
 66
1
  0
VERTEX
  8
0
 10
917.35296630859375
 20
293.74948120117187
 42
0.95677298307418823
  0
VERTEX
  8
0
 10
920.00006103515625
 20
233.86650085449219
 42
0
  0
VERTEX
  8
0
 10
921.00006103515625
 20
233.86650085449219
 42
-0
  0
VERTEX
  8
0
 10
933.00006103515625
 20
233.86651611328125
 42
0.41421395540237427
  0
VERTEX
  8
0
 10
963.00006103515625
 20
263.86648559570312
 42
0
  0
VERTEX
  8
0
 10
963.00006103515625
 20
368.86648559570312
 42
0.41421404480934143
  0
VERTEX
  8
0
 10
953.00006103515625
 20
378.86648559570312
 42
0
  0
VERTEX
  8
0
 10
943.00006103515625
 20
378.86648559570312
 42
-0
  0
VERTEX
  8
0
 10
943.00006103515625
 20
328.86648559570312
 42
0
  0
VERTEX
  8
0
 10
921.00006103515625
 20
328.86648559570312
 42
-0
  0
VERTEX
  8
0
 10
921.00006103515625
 20
297.73388671875
 42
-0.3885670006275177
  0
SEQEND
  0
POLYLINE
  8
0
 10
0
 20
0
 39
0
 70
1
 66
1
  0
VERTEX
  8
0
 10
925.00006103515625
 20
254.86650085449219
 42
-0
  0
VERTEX
  8
0
 10
917.00006103515625
 20
254.86650085449219
 42
-1
  0
VERTEX
  8
0
 10
917.00006103515625
 20
272.86648559570312
 42
-0
  0
VERTEX
  8
0
 10
925.00006103515625
 20
272.86648559570312
 42
-1
  0
SEQEND
  0
POLYLINE
  8
0
 10
0
 20
0
 39
0
 70
1
 66
1
  0
VERTEX
  8
0
 10
935.6470947265625
 20
387.85000610351562
 42
0.95677298307418823
  0
VERTEX
  8
0
 10
933.00006103515625
 20
447.73300170898437
 42
0
  0
VERTEX
  8
0
 10
932.00006103515625
 20
447.73300170898437
 42
-0
  0
VERTEX
  8
0
 10
920.00006103515625
 20
447.73297119140625
 42
0.41421395540237427
  0
VERTEX
  8
0
 10
890.00006103515625
 20
417.73300170898437
 42
0
  0
VERTEX
  8
0
 10
890.00006103515625
 20
312.73300170898437
 42
0.41421404480934143
  0
VERTEX
  8
0
 10
900.00006103515625
 20
302.73300170898437
 42
0
  0
VERTEX
  8
0
 10
910.00006103515625
 20
302.73300170898437
 42
-0
  0
VERTEX
  8
0
 10
910.00006103515625
 20
352.73300170898437
 42
0
  0
VERTEX
  8
0
 10
932.00006103515625
 20
352.73300170898437
 42
-0
  0
VERTEX
  8
0
 10
932.00006103515625
 20
383.8656005859375
 42
-0.3885670006275177
  0
SEQEND
  0
POLYLINE
  8
0
 10
0
 20
0
 39
0
 70
1
 66
1
  0
VERTEX
  8
0
 10
928.00006103515625
 20
426.73300170898437
 42
-0
  0
VERTEX
  8
0
 10
936.00006103515625
 20
426.73300170898437
 42
-1
  0
VERTEX
  8
0
 10
936.00006103515625
 20
408.73300170898437
 42
-0
  0
VERTEX
  8
0
 10
928.00006103515625
 20
408.73300170898437
 42
-1
  0
SEQEND
  0
POLYLINE
  8
0
 10
0
 20
0
 39
0
 70
1
 66
1
  0
VERTEX
  8
0
 10
464.00003051757813
 20
339.20321655273437
 42
-0
  0
VERTEX
  8
0
 10
431.00003051757812
 20
339.20321655273437
 42
-0
  0
VERTEX
  8
0
 10
431.00003051757812
 20
309.20321655273437
 42
-0
  0
VERTEX
  8
0
 10
372.00003051757812
 20
309.20321655273437
 42
-0
  0
VERTEX
  8
0
 10
362.00003051757813
 20
299.20321655273437
 42
-0
  0
VERTEX
  8
0
 10
362.00003051757813
 20
239.20321655273438
 42
-0
  0
VERTEX
  8
0
 10
372.00003051757812
 20
239.20321655273438
 42
-0
  0
VERTEX
  8
0
 10
521.38922119140625
 20
265.5445556640625
 42
0.36396992206573486
  0
VERTEX
  8
0
 10
528
 20
273.42303466796875
 42
-0
  0
VERTEX
  8
0
 10
528
 20
348.20321655273437
 42
1
  0
VERTEX
  8
0
 10
468.00003051757812
 20
348.20321655273437
 42
-0
  0
VERTEX
  8
0
 10
468.00003051757812
 20
343.20321655273437
 42
-0.41421392560005188
  0
SEQEND
  0
POLYLINE
  8
0
 10
0
 20
0
 39
0
 70
1
 66
1
  0
VERTEX
  8
0
 10
490.00003051757813
 20
345.20321655273437
 42
-1
  0
VERTEX
  8
0
 10
506.00003051757812
 20
345.20321655273437
 42
-1
  0
SEQEND
  0
POLYLINE
  8
0
 10
0
 20
0
 39
0
 70
1
 66
1
  0
VERTEX
  8
0
 10
497.4000244140625
 20
295.20321655273437
 42
-1
  0
VERTEX
  8
0
 10
510.60003662109375
 20
295.20321655273437
 42
-1
  0
SEQEND
  0
POLYLINE
  8
0
 10
0
 20
0
 39
0
 70
1
 66
1
  0
VERTEX
  8
0
 10
426.00003051757812
 20
358.40643310546875
 42
-0
  0
VERTEX
  8
0
 10
459.00003051757812
 20
358.40643310546875
 42
-0
  0
VERTEX
  8
0
 10
459.00003051757812
 20
388.40643310546875
 42
-0
  0
VERTEX
  8
0
 10
518
 20
388.40643310546875
 42
-0
  0
VERTEX
  8
0
 10
528
 20
398.40643310546875
 42
-0
  0
VERTEX
  8
0
 10
528
 20
458.40643310546875
 42
-0
  0
VERTEX
  8
0
 10
518
 20
458.40643310546875
 42
-0
  0
VERTEX
  8
0
 10
368.61083984375
 20
432.06509399414062
 42
0.36396992206573486
  0
VERTEX
  8
0
 10
362.00003051757813
 20
424.18661499023437
 42
-0
  0
VERTEX
  8
0
 10
362.00003051757813
 20
349.40643310546875
 42
1
  0
VERTEX
  8
0
 10
422.00003051757812
 20
349.40643310546875
 42
-0
  0
VERTEX
  8
0
 10
422.00003051757812
 20
354.40643310546875
 42
-0.41421392560005188
  0
SEQEND
  0
POLYLINE
  8
0
 10
0
 20
0
 39
0
 70
1
 66
1
  0
VERTEX
  8
0
 10
400.00003051757812
 20
352.40643310546875
 42
-1
  0
VERTEX
  8
0
 10
384.00003051757812
 20
352.40643310546875
 42
-1
  0
SEQEND
  0
POLYLINE
  8
0
 10
0
 20
0
 39
0
 70
1
 66
1
  0
VERTEX
  8
0
 10
392.60003662109375
 20
402.40643310546875
 42
-1
  0
VERTEX
  8
0
 10
379.4000244140625
 20
402.40643310546875
 42
-1
  0
SEQEND
  0
POLYLINE
  8
0
 10
0
 20
0
 39
0
 70
1
 66
1
  0
VERTEX
  8
0
 10
816.00006103515625
 20
110.00000762939453
 42
-0
  0
VERTEX
  8
0
 10
783.00006103515625
 20
110.00000762939453
 42
-0
  0
VERTEX
  8
0
 10
783.00006103515625
 20
80.000007629394531
 42
-0
  0
VERTEX
  8
0
 10
724.00006103515625
 20
80.000007629394531
 42
-0
  0
VERTEX
  8
0
 10
714.00006103515625
 20
70.000007629394531
 42
-0
  0
VERTEX
  8
0
 10
714.00006103515625
 20
10
 42
-0
  0
VERTEX
  8
0
 10
724.00006103515625
 20
10
 42
-0
  0
VERTEX
  8
0
 10
873.38922119140625
 20
36.341346740722656
 42
0.36396992206573486
  0
VERTEX
  8
0
 10
880.00006103515625
 20
44.219810485839844
 42
-0
  0
VERTEX
  8
0
 10
880.00006103515625
 20
119.00000762939453
 42
1
  0
VERTEX
  8
0
 10
820.00006103515625
 20
119.00000762939453
 42
-0
  0
VERTEX
  8
0
 10
820.00006103515625
 20
113.99999237060547
 42
-0.41421392560005188
  0
SEQEND
  0
POLYLINE
  8
0
 10
0
 20
0
 39
0
 70
1
 66
1
  0
VERTEX
  8
0
 10
842.00006103515625
 20
116.00000762939453
 42
-1
  0
VERTEX
  8
0
 10
858.00006103515625
 20
116.00000762939453
 42
-1
  0
SEQEND
  0
POLYLINE
  8
0
 10
0
 20
0
 39
0
 70
1
 66
1
  0
VERTEX
  8
0
 10
849.4000244140625
 20
66.000007629394531
 42
-1
  0
VERTEX
  8
0
 10
862.60003662109375
 20
66.000007629394531
 42
-1
  0
SEQEND
  0
POLYLINE
  8
0
 10
0
 20
0
 39
0
 70
1
 66
1
  0
VERTEX
  8
0
 10
778.00006103515625
 20
129.20320129394531
 42
-0
  0
VERTEX
  8
0
 10
811.00006103515625
 20
129.20320129394531
 42
-0
  0
VERTEX
  8
0
 10
811.00006103515625
 20
159.20320129394531
 42
-0
  0
VERTEX
  8
0
 10
870.00006103515625
 20
159.20320129394531
 42
-0
  0
VERTEX
  8
0
 10
880.00006103515625
 20
169.20320129394531
 42
-0
  0
VERTEX
  8
0
 10
880.00006103515625
 20
229.20321655273438
 42
-0
  0
VERTEX
  8
0
 10
870.00006103515625
 20
229.20321655273438
 42
-0
  0
VERTEX
  8
0
 10
720.61083984375
 20
202.86186218261719
 42
0.36396992206573486
  0
VERTEX
  8
0
 10
714.00006103515625
 20
194.9833984375
 42
-0
  0
VERTEX
  8
0
 10
714.00006103515625
 20
120.20320892333984
 42
1
  0
VERTEX
  8
0
 10
774.00006103515625
 20
120.20320892333984
 42
-0
  0
VERTEX
  8
0
 10
774.00006103515625
 20
125.20322418212891
 42
-0.41421392560005188
  0
SEQEND
  0
POLYLINE
  8
0
 10
0
 20
0
 39
0
 70
1
 66
1
  0
VERTEX
  8
0
 10
752.00006103515625
 20
123.20320892333984
 42
-1
  0
VERTEX
  8
0
 10
736.00006103515625
 20
123.20320892333984
 42
-1
  0
SEQEND
  0
POLYLINE
  8
0
 10
0
 20
0
 39
0
 70
1
 66
1
  0
VERTEX
  8
0
 10
744.60003662109375
 20
173.20320129394531
 42
-1
  0
VERTEX
  8
0
 10
731.4000244140625
 20
173.20320129394531
 42
-1
  0
SEQEND
  0
POLYLINE
  8
0
 10
0
 20
0
 39
0
 70
1
 66
1
  0
VERTEX
  8
0
 10
816.00006103515625
 20
339.20321655273437
 42
-0
  0
VERTEX
  8
0
 10
783.00006103515625
 20
339.20321655273437
 42
-0
  0
VERTEX
  8
0
 10
783.00006103515625
 20
309.20321655273437
 42
-0
  0
VERTEX
  8
0
 10
724.00006103515625
 20
309.20321655273437
 42
-0
  0
VERTEX
  8
0
 10
714.00006103515625
 20
299.20321655273437
 42
-0
  0
VERTEX
  8
0
 10
714.00006103515625
 20
239.20321655273438
 42
-0
  0
VERTEX
  8
0
 10
724.00006103515625
 20
239.20321655273438
 42
-0
  0
VERTEX
  8
0
 10
873.38922119140625
 20
265.5445556640625
 42
0.36396992206573486
  0
VERTEX
  8
0
 10
880.00006103515625
 20
273.42303466796875
 42
-0
  0
VERTEX
  8
0
 10
880.00006103515625
 20
348.20321655273437
 42
1
  0
VERTEX
  8
0
 10
820.00006103515625
 20
348.20321655273437
 42
-0
  0
VERTEX
  8
0
 10
820.00006103515625
 20
343.20321655273437
 42
-0.41421392560005188
  0
SEQEND
  0
POLYLINE
  8
0
 10
0
 20
0
 39
0
 70
1
 66
1
  0
VERTEX
  8
0
 10
842.00006103515625
 20
345.20321655273437
 42
-1
  0
VERTEX
  8
0
 10
858.00006103515625
 20
345.20321655273437
 42
-1
  0
SEQEND
  0
POLYLINE
  8
0
 10
0
 20
0
 39
0
 70
1
 66
1
  0
VERTEX
  8
0
 10
849.4000244140625
 20
295.20321655273437
 42
-1
  0
VERTEX
  8
0
 10
862.60003662109375
 20
295.20321655273437
 42
-1
  0
SEQEND
  0
POLYLINE
  8
0
 10
0
 20
0
 39
0
 70
1
 66
1
  0
VERTEX
  8
0
 10
778.00006103515625
 20
358.40643310546875
 42
-0
  0
VERTEX
  8
0
 10
811.00006103515625
 20
358.40643310546875
 42
-0
  0
VERTEX
  8
0
 10
811.00006103515625
 20
388.40643310546875
 42
-0
  0
VERTEX
  8
0
 10
870.00006103515625
 20
388.40643310546875
 42
-0
  0
VERTEX
  8
0
 10
880.00006103515625
 20
398.40643310546875
 42
-0
  0
VERTEX
  8
0
 10
880.00006103515625
 20
458.40643310546875
 42
-0
  0
VERTEX
  8
0
 10
870.00006103515625
 20
458.40643310546875
 42
-0
  0
VERTEX
  8
0
 10
720.61083984375
 20
432.06509399414062
 42
0.36396992206573486
  0
VERTEX
  8
0
 10
714.00006103515625
 20
424.18661499023437
 42
-0
  0
VERTEX
  8
0
 10
714.00006103515625
 20
349.40643310546875
 42
1
  0
VERTEX
  8
0
 10
774.00006103515625
 20
349.40643310546875
 42
-0
  0
VERTEX
  8
0
 10
774.00006103515625
 20
354.40643310546875
 42
-0.41421392560005188
  0
SEQEND
  0
POLYLINE
  8
0
 10
0
 20
0
 39
0
 70
1
 66
1
  0
VERTEX
  8
0
 10
752.00006103515625
 20
352.40643310546875
 42
-1
  0
VERTEX
  8
0
 10
736.00006103515625
 20
352.40643310546875
 42
-1
  0
SEQEND
  0
POLYLINE
  8
0
 10
0
 20
0
 39
0
 70
1
 66
1
  0
VERTEX
  8
0
 10
744.60003662109375
 20
402.40643310546875
 42
-1
  0
VERTEX
  8
0
 10
731.4000244140625
 20
402.40643310546875
 42
-1
  0
SEQEND
  0
POLYLINE
  8
0
 10
0
 20
0
 39
0
 70
1
 66
1
  0
VERTEX
  8
0
 10
10
 20
551.40643310546875
 42
0
  0
VERTEX
  8
0
 10
118
 20
551.40643310546875
 42
0
  0
VERTEX
  8
0
 10
120
 20
585.40643310546875
 42
0
  0
VERTEX
  8
0
 10
10
 20
585.40643310546875
 42
0
  0
SEQEND
  0
POLYLINE
  8
0
 10
0
 20
0
 39
0
 70
1
 66
1
  0
VERTEX
  8
0
 10
266
 20
551.40643310546875
 42
0
  0
VERTEX
  8
0
 10
374
 20
551.40643310546875
 42
0
  0
VERTEX
  8
0
 10
376
 20
585.40643310546875
 42
0
  0
VERTEX
  8
0
 10
266
 20
585.40643310546875
 42
0
  0
SEQEND
  0
POLYLINE
  8
0
 10
0
 20
0
 39
0
 70
1
 66
1
  0
VERTEX
  8
0
 10
915
 20
551.40643310546875
 42
1
  0
VERTEX
  8
0
 10
915
 20
581.40643310546875
 42
0
  0
VERTEX
  8
0
 10
885
 20
581.40643310546875
 42
0
  0
VERTEX
  8
0
 10
885
 20
551.40643310546875
 42
0
  0
SEQEND
  0
POLYLINE
  8
0
 10
0
 20
0
 39
0
 70
1
 66
1
  0
VERTEX
  8
0
 10
724
 20
551.40643310546875
 42
1
  0
VERTEX
  8
0
 10
724
 20
581.40643310546875
 42
0
  0
VERTEX
  8
0
 10
694
 20
581.40643310546875
 42
0
  0
VERTEX
  8
0
 10
694
 20
551.40643310546875
 42
0
  0
SEQEND
  0
POLYLINE
  8
0
 10
0
 20
0
 39
0
 70
1
 66
1
  0
VERTEX
  8
0
 10
669
 20
551.40643310546875
 42
1
  0
VERTEX
  8
0
 10
669
 20
581.40643310546875
 42
0
  0
VERTEX
  8
0
 10
639
 20
581.40643310546875
 42
0
  0
VERTEX
  8
0
 10
639
 20
551.40643310546875
 42
0
  0
SEQEND
  0
POLYLINE
  8
0
 10
0
 20
0
 39
0
 70
1
 66
1
  0
VERTEX
  8
0
 10
416
 20
551.40643310546875
 42
1
  0
VERTEX
  8
0
 10
416
 20
581.40643310546875
 42
0
  0
VERTEX
  8
0
 10
386
 20
581.40643310546875
 42
0
  0
VERTEX
  8
0
 10
386
 20
551.40643310546875
 42
0
  0
SEQEND
  0
POLYLINE
  8
0
 10
0
 20
0
 39
0
 70
1
 66
1
  0
VERTEX
  8
0
 10
471
 20
551.40643310546875
 42
1
  0
VERTEX
  8
0
 10
471
 20
581.40643310546875
 42
0
  0
VERTEX
  8
0
 10
441
 20
581.40643310546875
 42
0
  0
VERTEX
  8
0
 10
441
 20
551.40643310546875
 42
0
  0
SEQEND
  0
POLYLINE
  8
0
 10
0
 20
0
 39
0
 70
1
 66
1
  0
VERTEX
  8
0
 10
160
 20
551.40643310546875
 42
1
  0
VERTEX
  8
0
 10
160
 20
581.40643310546875
 42
0
  0
VERTEX
  8
0
 10
130
 20
581.40643310546875
 42
0
  0
VERTEX
  8
0
 10
130
 20
551.40643310546875
 42
0
  0
SEQEND
  0
POLYLINE
  8
0
 10
0
 20
0
 39
0
 70
1
 66
1
  0
VERTEX
  8
0
 10
779
 20
551.40643310546875
 42
1
  0
VERTEX
  8
0
 10
779
 20
581.40643310546875
 42
0
  0
VERTEX
  8
0
 10
749
 20
581.40643310546875
 42
0
  0
VERTEX
  8
0
 10
749
 20
551.40643310546875
 42
0
  0
SEQEND
  0
POLYLINE
  8
0
 10
0
 20
0
 39
0
 70
1
 66
1
  0
VERTEX
  8
0
 10
979.46600341796875
 20
487.73300170898437
 42
1
  0
VERTEX
  8
0
 10
949.46600341796875
 20
487.73300170898437
 42
0
  0
VERTEX
  8
0
 10
949.46600341796875
 20
457.73300170898437
 42
0
  0
VERTEX
  8
0
 10
979.46600341796875
 20
457.73300170898437
 42
0
  0
SEQEND
  0
POLYLINE
  8
0
 10
0
 20
0
 39
0
 70
1
 66
1
  0
VERTEX
  8
0
 10
979.46600341796875
 20
542.73297119140625
 42
1
  0
VERTEX
  8
0
 10
949.46600341796875
 20
542.73297119140625
 42
0
  0
VERTEX
  8
0
 10
949.46600341796875
 20
512.73297119140625
 42
0
  0
VERTEX
  8
0
 10
979.46600341796875
 20
512.73297119140625
 42
0
  0
SEQEND
  0
POLYLINE
  8
0
 10
0
 20
0
 39
0
 70
1
 66
1
  0
VERTEX
  8
0
 10
526
 20
551.40643310546875
 42
1
  0
VERTEX
  8
0
 10
526
 20
581.40643310546875
 42
0
  0
VERTEX
  8
0
 10
496
 20
581.40643310546875
 42
0
  0
VERTEX
  8
0
 10
496
 20
551.40643310546875
 42
0
  0
SEQEND
  0
ENDSEC
  0
EOF
