  0
SECTION
  2
ENTITIES
  0
POLYLINE
  8
0
 10
0
 20
0
 39
0
 70
1
 66
1
  0
VERTEX
  8
0
 10
0
 20
0
 42
0
  0
VERTEX
  8
0
 10
2400
 20
0
 42
0
  0
VERTEX
  8
0
 10
2400
 20
800
 42
0
  0
VERTEX
  8
0
 10
0
 20
800
 42
0
  0
SEQEND
  0
POLYLINE
  8
0
 10
0
 20
0
 39
0
 70
1
 66
1
  0
VERTEX
  8
0
 10
13.165186882019043
 20
163.97097778320312
 42
0
  0
VERTEX
  8
0
 10
18.165185928344727
 20
163.97097778320312
 42
0
  0
VERTEX
  8
0
 10
10.353846549987793
 20
104.48161315917969
 42
0
  0
VERTEX
  8
0
 10
957.64520263671875
 20
10.353846549987793
 42
-0
  0
VERTEX
  8
0
 10
961.5509033203125
 20
40.098537445068359
 42
0.07760649174451828
  0
VERTEX
  8
0
 10
961.5509033203125
 20
352.843505859375
 42
-0
  0
VERTEX
  8
0
 10
957.64520263671875
 20
382.58810424804687
 42
-0
  0
VERTEX
  8
0
 10
10.353846549987793
 20
288.4603271484375
 42
0
  0
VERTEX
  8
0
 10
18.165185928344727
 20
228.97097778320312
 42
-0
  0
VERTEX
  8
0
 10
13.165186882019043
 20
228.97097778320312
 42
0
  0
SEQEND
  0
POLYLINE
  8
0
 10
0
 20
0
 39
0
 70
1
 66
1
  0
VERTEX
  8
0
 10
970.87506103515625
 20
519.3709716796875
 42
0
  0
VERTEX
  8
0
 10
965.87506103515625
 20
519.3709716796875
 42
0
  0
VERTEX
  8
0
 10
973.6864013671875
 20
578.8603515625
 42
0
  0
VERTEX
  8
0
 10
26.395040512084961
 20
672.98809814453125
 42
-0
  0
VERTEX
  8
0
 10
22.489376068115234
 20
643.243408203125
 42
0.07760649174451828
  0
VERTEX
  8
0
 10
22.489355087280273
 20
330.49844360351562
 42
-0
  0
VERTEX
  8
0
 10
26.395040512084961
 20
300.75384521484375
 42
-0
  0
VERTEX
  8
0
 10
973.6864013671875
 20
394.88162231445312
 42
0
  0
VERTEX
  8
0
 10
965.87506103515625
 20
454.3709716796875
 42
-0
  0
VERTEX
  8
0
 10
970.87506103515625
 20
454.3709716796875
 42
0
  0
SEQEND
  0
POLYLINE
  8
0
 10
0
 20
0
 39
0
 70
1
 66
1
  0
VERTEX
  8
0
 10
984.015380859375
 20
640.53961181640625
 42
0
  0
VERTEX
  8
0
 10
984.015380859375
 20
240.53956604003906
 42
-0
  0
VERTEX
  8
0
 10
1227.6207275390625
 20
411.1138916015625
 42
0.52651196718215942
  0
VERTEX
  8
0
 10
1227.0052490234375
 20
477.06851196289062
 42
0
  0
SEQEND
  0
POLYLINE
  8
0
 10
0
 20
0
 39
0
 70
1
 66
1
  0
VERTEX
  8
0
 10
1204.5218505859375
 20
424.53958129882812
 42
-1
  0
VERTEX
  8
0
 10
1204.5218505859375
 20
464.53958129882812
 42
-1
  0
SEQEND
  0
POLYLINE
  8
0
 10
0
 20
0
 39
0
 70
1
 66
1
  0
VERTEX
  8
0
 10
1244.677734375
 20
10.353846549987793
 42
0
  0
VERTEX
  8
0
 10
1244.677734375
 20
410.35385131835937
 42
-0
  0
VERTEX
  8
0
 10
1001.0723266601562
 20
239.779541015625
 42
0.52651196718215942
  0
VERTEX
  8
0
 10
1001.6878051757812
 20
173.82492065429687
 42
0
  0
SEQEND
  0
POLYLINE
  8
0
 10
0
 20
0
 39
0
 70
1
 66
1
  0
VERTEX
  8
0
 10
1024.171142578125
 20
226.35386657714844
 42
-1
  0
VERTEX
  8
0
 10
1024.171142578125
 20
186.35385131835937
 42
-1
  0
SEQEND
  0
POLYLINE
  8
0
 10
0
 20
0
 39
0
 70
1
 66
1
  0
VERTEX
  8
0
 10
1255.03076171875
 20
640.53961181640625
 42
0
  0
VERTEX
  8
0
 10
1255.03076171875
 20
240.53956604003906
 42
-0
  0
VERTEX
  8
0
 10
1498.6361083984375
 20
411.1138916015625
 42
0.52651196718215942
  0
VERTEX
  8
0
 10
1498.0206298828125
 20
477.06851196289062
 42
0
  0
SEQEND
  0
POLYLINE
  8
0
 10
0
 20
0
 39
0
 70
1
 66
1
  0
VERTEX
  8
0
 10
1475.5372314453125
 20
424.53958129882812
 42
-1
  0
VERTEX
  8
0
 10
1475.5372314453125
 20
464.53958129882812
 42
-1
  0
SEQEND
  0
POLYLINE
  8
0
 10
0
 20
0
 39
0
 70
1
 66
1
  0
VERTEX
  8
0
 10
1515.693115234375
 20
10.353846549987793
 42
0
  0
VERTEX
  8
0
 10
1515.693115234375
 20
410.35385131835937
 42
-0
  0
VERTEX
  8
0
 10
1272.087646484375
 20
239.779541015625
 42
0.52651196718215942
  0
VERTEX
  8
0
 10
1272.7032470703125
 20
173.82492065429687
 42
0
  0
SEQEND
  0
POLYLINE
  8
0
 10
0
 20
0
 39
0
 70
1
 66
1
  0
VERTEX
  8
0
 10
1295.1865234375
 20
226.35386657714844
 42
-1
  0
VERTEX
  8
0
 10
1295.1865234375
 20
186.35385131835937
 42
-1
  0
SEQEND
  0
POLYLINE
  8
0
 10
0
 20
0
 39
0
 70
1
 66
1
  0
VERTEX
  8
0
 10
404.01214599609375
 20
645.984619140625
 42
0
  0
VERTEX
  8
0
 10
434.36782836914062
 20
785.72552490234375
 42
0
  0
VERTEX
  8
0
 10
10.353846549987793
 20
785.72552490234375
 42
0
  0
VERTEX
  8
0
 10
10.353846549987793
 20
698.54388427734375
 42
0
  0
VERTEX
  8
0
 10
26.578874588012695
 20
686.83050537109375
 42
0
  0
VERTEX
  8
0
 10
69.578872680664063
 20
686.83050537109375
 42
0
  0
VERTEX
  8
0
 10
69.578872680664063
 20
716.68719482421875
 42
0
  0
VERTEX
  8
0
 10
99.578872680664063
 20
716.68719482421875
 42
0
  0
VERTEX
  8
0
 10
99.578872680664063
 20
686.83050537109375
 42
0
  0
VERTEX
  8
0
 10
131.72776794433594
 20
686.83050537109375
 42
0
  0
VERTEX
  8
0
 10
131.72776794433594
 20
734.83050537109375
 42
0
  0
VERTEX
  8
0
 10
206.10845947265625
 20
734.83050537109375
 42
0
  0
VERTEX
  8
0
 10
206.10845947265625
 20
698.54388427734375
 42
0
  0
VERTEX
  8
0
 10
350.10845947265625
 20
698.54388427734375
 42
0
  0
SEQEND
  0
POLYLINE
  8
0
 10
0
 20
0
 39
0
 70
1
 66
1
  0
VERTEX
  8
0
 10
445.0172119140625
 20
784.61785888671875
 42
0
  0
VERTEX
  8
0
 10
414.66152954101562
 20
644.876953125
 42
0
  0
VERTEX
  8
0
 10
838.675537109375
 20
644.876953125
 42
0
  0
VERTEX
  8
0
 10
838.675537109375
 20
732.05859375
 42
0
  0
VERTEX
  8
0
 10
822.45050048828125
 20
743.77197265625
 42
0
  0
VERTEX
  8
0
 10
779.45050048828125
 20
743.77197265625
 42
0
  0
VERTEX
  8
0
 10
779.45050048828125
 20
713.915283203125
 42
0
  0
VERTEX
  8
0
 10
749.45050048828125
 20
713.915283203125
 42
0
  0
VERTEX
  8
0
 10
749.45050048828125
 20
743.77197265625
 42
0
  0
VERTEX
  8
0
 10
717.30157470703125
 20
743.77197265625
 42
0
  0
VERTEX
  8
0
 10
717.30157470703125
 20
695.77197265625
 42
0
  0
VERTEX
  8
0
 10
642.9208984375
 20
695.77197265625
 42
0
  0
VERTEX
  8
0
 10
642.9208984375
 20
732.05859375
 42
0
  0
VERTEX
  8
0
 10
498.9208984375
 20
732.05859375
 42
0
  0
SEQEND
  0
POLYLINE
  8
0
 10
0
 20
0
 39
0
 70
1
 66
1
  0
VERTEX
  8
0
 10
1242.5352783203125
 20
632.32305908203125
 42
0
  0
VERTEX
  8
0
 10
1272.890869140625
 20
772.06402587890625
 42
0
  0
VERTEX
  8
0
 10
848.876953125
 20
772.06402587890625
 42
0
  0
VERTEX
  8
0
 10
848.876953125
 20
684.88232421875
 42
0
  0
VERTEX
  8
0
 10
865.1019287109375
 20
673.1689453125
 42
0
  0
VERTEX
  8
0
 10
908.1019287109375
 20
673.1689453125
 42
0
  0
VERTEX
  8
0
 10
908.1019287109375
 20
703.025634765625
 42
0
  0
VERTEX
  8
0
 10
938.1019287109375
 20
703.025634765625
 42
0
  0
VERTEX
  8
0
 10
938.1019287109375
 20
673.1689453125
 42
0
  0
VERTEX
  8
0
 10
970.2508544921875
 20
673.1689453125
 42
0
  0
VERTEX
  8
0
 10
970.2508544921875
 20
721.1689453125
 42
0
  0
VERTEX
  8
0
 10
1044.631591796875
 20
721.1689453125
 42
0
  0
VERTEX
  8
0
 10
1044.631591796875
 20
684.88232421875
 42
0
  0
VERTEX
  8
0
 10
1188.631591796875
 20
684.88232421875
 42
0
  0
SEQEND
  0
POLYLINE
  8
0
 10
0
 20
0
 39
0
 70
1
 66
1
  0
VERTEX
  8
0
 10
1526.046142578125
 20
40.709529876708984
 42
0
  0
VERTEX
  8
0
 10
1665.787109375
 20
10.353846549987793
 42
0
  0
VERTEX
  8
0
 10
1665.787109375
 20
434.36782836914062
 42
0
  0
VERTEX
  8
0
 10
1578.60546875
 20
434.36782836914062
 42
0
  0
VERTEX
  8
0
 10
1566.89208984375
 20
418.14279174804687
 42
0
  0
VERTEX
  8
0
 10
1566.89208984375
 20
375.14279174804687
 42
0
  0
VERTEX
  8
0
 10
1596.748779296875
 20
375.14279174804687
 42
0
  0
VERTEX
  8
0
 10
1596.748779296875
 20
345.14279174804687
 42
0
  0
VERTEX
  8
0
 10
1566.89208984375
 20
345.14279174804687
 42
0
  0
VERTEX
  8
0
 10
1566.89208984375
 20
312.993896484375
 42
0
  0
VERTEX
  8
0
 10
1614.8919677734375
 20
312.993896484375
 42
0
  0
VERTEX
  8
0
 10
1614.8919677734375
 20
238.61322021484375
 42
0
  0
VERTEX
  8
0
 10
1578.60546875
 20
238.61322021484375
 42
0
  0
VERTEX
  8
0
 10
1578.60546875
 20
94.613212585449219
 42
0
  0
SEQEND
  0
POLYLINE
  8
0
 10
0
 20
0
 39
0
 70
1
 66
1
  0
VERTEX
  8
0
 10
1364.3231201171875
 20
579.70770263671875
 42
0
  0
VERTEX
  8
0
 10
1604.3231201171875
 20
579.70770263671875
 42
0
  0
VERTEX
  8
0
 10
1604.3231201171875
 20
789.70770263671875
 42
0
  0
VERTEX
  8
0
 10
1364.3231201171875
 20
789.70770263671875
 42
0
  0
SEQEND
  0
POLYLINE
  8
0
 10
0
 20
0
 39
0
 70
1
 66
1
  0
VERTEX
  8
0
 10
1824.6614990234375
 20
444.38461303710937
 42
0
  0
VERTEX
  8
0
 10
1824.6614990234375
 20
684.3846435546875
 42
0
  0
VERTEX
  8
0
 10
1614.6614990234375
 20
684.3846435546875
 42
0
  0
VERTEX
  8
0
 10
1614.6614990234375
 20
444.38461303710937
 42
0
  0
SEQEND
  0
POLYLINE
  8
0
 10
0
 20
0
 39
0
 70
1
 66
1
  0
VERTEX
  8
0
 10
1886.138427734375
 20
10.353846549987793
 42
0
  0
VERTEX
  8
0
 10
1886.138427734375
 20
250.35385131835937
 42
0
  0
VERTEX
  8
0
 10
1676.138427734375
 20
250.35385131835937
 42
0
  0
VERTEX
  8
0
 10
1676.138427734375
 20
10.353846549987793
 42
0
  0
SEQEND
  0
POLYLINE
  8
0
 10
0
 20
0
 39
0
 70
1
 66
1
  0
VERTEX
  8
0
 10
2044.90771484375
 20
260.5076904296875
 42
0
  0
VERTEX
  8
0
 10
2044.90771484375
 20
500.5076904296875
 42
0
  0
VERTEX
  8
0
 10
1834.90771484375
 20
500.5076904296875
 42
0
  0
VERTEX
  8
0
 10
1834.90771484375
 20
260.5076904296875
 42
0
  0
SEQEND
  0
POLYLINE
  8
0
 10
0
 20
0
 39
0
 70
1
 66
1
  0
VERTEX
  8
0
 10
1834.90771484375
 20
510.66152954101562
 42
-0
  0
VERTEX
  8
0
 10
1959.90771484375
 20
510.66152954101562
 42
-0
  0
VERTEX
  8
0
 10
1834.90771484375
 20
710.66156005859375
 42
0
  0
SEQEND
  0
POLYLINE
  8
0
 10
0
 20
0
 39
0
 70
1
 66
1
  0
VERTEX
  8
0
 10
1972.0577392578125
 20
710.66156005859375
 42
-0
  0
VERTEX
  8
0
 10
1847.0577392578125
 20
710.66156005859375
 42
-0
  0
VERTEX
  8
0
 10
1972.0577392578125
 20
510.66152954101562
 42
0
  0
SEQEND
  0
POLYLINE
  8
0
 10
0
 20
0
 39
0
 70
1
 66
1
  0
VERTEX
  8
0
 10
1896.3846435546875
 20
10.353846549987793
 42
-0
  0
VERTEX
  8
0
 10
2021.3846435546875
 20
10.353846549987793
 42
-0
  0
VERTEX
  8
0
 10
1896.3846435546875
 20
210.35385131835937
 42
0
  0
SEQEND
  0
POLYLINE
  8
0
 10
0
 20
0
 39
0
 70
1
 66
1
  0
VERTEX
  8
0
 10
2033.53466796875
 20
210.35385131835937
 42
-0
  0
VERTEX
  8
0
 10
1908.53466796875
 20
210.35385131835937
 42
-0
  0
VERTEX
  8
0
 10
2033.53466796875
 20
10.353846549987793
 42
0
  0
SEQEND
  0
POLYLINE
  8
0
 10
0
 20
0
 39
0
 70
1
 66
1
  0
VERTEX
  8
0
 10
1982.4154052734375
 20
510.66152954101562
 42
-0
  0
VERTEX
  8
0
 10
2107.415283203125
 20
510.66152954101562
 42
-0
  0
VERTEX
  8
0
 10
1982.4154052734375
 20
710.66156005859375
 42
0
  0
SEQEND
  0
POLYLINE
  8
0
 10
0
 20
0
 39
0
 70
1
 66
1
  0
VERTEX
  8
0
 10
2119.5654296875
 20
710.66156005859375
 42
-0
  0
VERTEX
  8
0
 10
1994.5654296875
 20
710.66156005859375
 42
-0
  0
VERTEX
  8
0
 10
2119.5654296875
 20
510.66152954101562
 42
0
  0
SEQEND
  0
POLYLINE
  8
0
 10
0
 20
0
 39
0
 70
1
 66
1
  0
VERTEX
  8
0
 10
2043.892333984375
 20
10.353846549987793
 42
-0
  0
VERTEX
  8
0
 10
2168.892333984375
 20
10.353846549987793
 42
-0
  0
VERTEX
  8
0
 10
2043.892333984375
 20
210.35385131835937
 42
0
  0
SEQEND
  0
POLYLINE
  8
0
 10
0
 20
0
 39
0
 70
1
 66
1
  0
VERTEX
  8
0
 10
2181.042236328125
 20
210.35385131835937
 42
-0
  0
VERTEX
  8
0
 10
2056.042236328125
 20
210.35385131835937
 42
-0
  0
VERTEX
  8
0
 10
2181.042236328125
 20
10.353846549987793
 42
0
  0
SEQEND
  0
POLYLINE
  8
0
 10
0
 20
0
 39
0
 70
1
 66
1
  0
VERTEX
  8
0
 10
2055.15380859375
 20
220.44615173339844
 42
-0
  0
VERTEX
  8
0
 10
2180.15380859375
 20
220.44615173339844
 42
-0
  0
VERTEX
  8
0
 10
2055.15380859375
 20
420.4461669921875
 42
0
  0
SEQEND
  0
POLYLINE
  8
0
 10
0
 20
0
 39
0
 70
1
 66
1
  0
VERTEX
  8
0
 10
2192.303955078125
 20
420.4461669921875
 42
-0
  0
VERTEX
  8
0
 10
2067.303955078125
 20
420.4461669921875
 42
-0
  0
VERTEX
  8
0
 10
2192.303955078125
 20
220.44615173339844
 42
0
  0
SEQEND
  0
POLYLINE
  8
0
 10
0
 20
0
 39
0
 70
1
 66
1
  0
VERTEX
  8
0
 10
2129.923095703125
 20
430.5384521484375
 42
-0
  0
VERTEX
  8
0
 10
2254.923095703125
 20
430.5384521484375
 42
-0
  0
VERTEX
  8
0
 10
2129.923095703125
 20
630.5384521484375
 42
0
  0
SEQEND
  0
POLYLINE
  8
0
 10
0
 20
0
 39
0
 70
1
 66
1
  0
VERTEX
  8
0
 10
2267.072998046875
 20
630.5384521484375
 42
-0
  0
VERTEX
  8
0
 10
2142.072998046875
 20
630.5384521484375
 42
-0
  0
VERTEX
  8
0
 10
2267.072998046875
 20
430.5384521484375
 42
0
  0
SEQEND
  0
POLYLINE
  8
0
 10
0
 20
0
 39
0
 70
1
 66
1
  0
VERTEX
  8
0
 10
2191.39990234375
 20
10.353846549987793
 42
-0
  0
VERTEX
  8
0
 10
2316.39990234375
 20
10.353846549987793
 42
-0
  0
VERTEX
  8
0
 10
2191.39990234375
 20
210.35385131835937
 42
0
  0
SEQEND
  0
POLYLINE
  8
0
 10
0
 20
0
 39
0
 70
1
 66
1
  0
VERTEX
  8
0
 10
2328.550048828125
 20
210.35385131835937
 42
-0
  0
VERTEX
  8
0
 10
2203.550048828125
 20
210.35385131835937
 42
-0
  0
VERTEX
  8
0
 10
2328.550048828125
 20
10.353846549987793
 42
0
  0
SEQEND
  0
POLYLINE
  8
0
 10
0
 20
0
 39
0
 70
1
 66
1
  0
VERTEX
  8
0
 10
2329.923095703125
 20
640.63079833984375
 42
-0
  0
VERTEX
  8
0
 10
2329.923095703125
 20
765.63079833984375
 42
-0
  0
VERTEX
  8
0
 10
2129.923095703125
 20
640.63079833984375
 42
0
  0
SEQEND
  0
POLYLINE
  8
0
 10
0
 20
0
 39
0
 70
1
 66
1
  0
VERTEX
  8
0
 10
2129.923095703125
 20
777.78076171875
 42
-0
  0
VERTEX
  8
0
 10
2129.923095703125
 20
652.78076171875
 42
-0
  0
VERTEX
  8
0
 10
2329.923095703125
 20
777.78076171875
 42
0
  0
SEQEND
  0
POLYLINE
  8
0
 10
0
 20
0
 39
0
 70
1
 66
1
  0
VERTEX
  8
0
 10
2202.66162109375
 20
220.44615173339844
 42
-0
  0
VERTEX
  8
0
 10
2327.66162109375
 20
220.44615173339844
 42
-0
  0
VERTEX
  8
0
 10
2202.66162109375
 20
420.4461669921875
 42
0
  0
SEQEND
  0
POLYLINE
  8
0
 10
0
 20
0
 39
0
 70
1
 66
1
  0
VERTEX
  8
0
 10
2339.8115234375
 20
420.4461669921875
 42
-0
  0
VERTEX
  8
0
 10
2214.8115234375
 20
420.4461669921875
 42
-0
  0
VERTEX
  8
0
 10
2339.8115234375
 20
220.44615173339844
 42
0
  0
SEQEND
  0
POLYLINE
  8
0
 10
0
 20
0
 39
0
 70
1
 66
1
  0
VERTEX
  8
0
 10
1172.769287109375
 20
662.79998779296875
 42
0
  0
VERTEX
  8
0
 10
967.76922607421875
 20
662.79998779296875
 42
-0
  0
VERTEX
  8
0
 10
1172.769287109375
 20
537.79998779296875
 42
-0
  0
SEQEND
  0
POLYLINE
  8
0
 10
0
 20
0
 39
0
 70
1
 66
1
  0
VERTEX
  8
0
 10
982.16925048828125
 20
10.353846549987793
 42
0
  0
VERTEX
  8
0
 10
1182.169189453125
 20
10.353846549987793
 42
-0
  0
VERTEX
  8
0
 10
982.16925048828125
 20
135.35385131835937
 42
-0
  0
SEQEND
  0
POLYLINE
  8
0
 10
0
 20
0
 39
0
 70
1
 66
1
  0
VERTEX
  8
0
 10
1255.03076171875
 20
10.353846549987793
 42
0
  0
VERTEX
  8
0
 10
1455.03076171875
 20
10.353846549987793
 42
-0
  0
VERTEX
  8
0
 10
1255.03076171875
 20
135.35385131835937
 42
-0
  0
SEQEND
  0
POLYLINE
  8
0
 10
0
 20
0
 39
0
 70
1
 66
1
  0
VERTEX
  8
0
 10
1579.4615478515625
 20
569.5692138671875
 42
0
  0
VERTEX
  8
0
 10
1379.4615478515625
 20
569.5692138671875
 42
-0
  0
VERTEX
  8
0
 10
1579.4615478515625
 20
444.56924438476562
 42
-0
  0
SEQEND
  0
POLYLINE
  8
0
 10
0
 20
0
 39
0
 70
1
 66
1
  0
VERTEX
  8
0
 10
1801.138427734375
 20
260.5076904296875
 42
-0
  0
VERTEX
  8
0
 10
1801.138427734375
 20
385.5076904296875
 42
-0
  0
VERTEX
  8
0
 10
1676.138427734375
 20
260.5076904296875
 42
0
  0
SEQEND
  0
POLYLINE
  8
0
 10
0
 20
0
 39
0
 70
1
 66
1
  0
VERTEX
  8
0
 10
1676.138427734375
 20
399.91412353515625
 42
-0
  0
VERTEX
  8
0
 10
1676.138427734375
 20
274.91412353515625
 42
-0
  0
VERTEX
  8
0
 10
1801.138427734375
 20
399.91412353515625
 42
0
  0
SEQEND
  0
POLYLINE
  8
0
 10
0
 20
0
 39
0
 70
1
 66
1
  0
VERTEX
  8
0
 10
225.35385131835937
 20
10.353846549987793
 42
-0
  0
VERTEX
  8
0
 10
225.35385131835937
 20
60.353847503662109
 42
-0
  0
VERTEX
  8
0
 10
10.353846549987793
 20
60.353847503662109
 42
-0
  0
VERTEX
  8
0
 10
10.353846549987793
 20
10.353846549987793
 42
-0
  0
SEQEND
  0
POLYLINE
  8
0
 10
0
 20
0
 39
0
 70
1
 66
1
  0
VERTEX
  8
0
 10
205.50384521484375
 20
35.353847503662109
 42
-1
  0
VERTEX
  8
0
 10
185.20384216308594
 20
35.353847503662109
 42
-1
  0
SEQEND
  0
POLYLINE
  8
0
 10
0
 20
0
 39
0
 70
1
 66
1
  0
VERTEX
  8
0
 10
50.503841400146484
 20
35.353847503662109
 42
-1
  0
VERTEX
  8
0
 10
30.203851699829102
 20
35.353847503662109
 42
-1
  0
SEQEND
  0
POLYLINE
  8
0
 10
0
 20
0
 39
0
 70
1
 66
1
  0
VERTEX
  8
0
 10
1829.6614990234375
 20
719.83074951171875
 42
-0
  0
VERTEX
  8
0
 10
1829.6614990234375
 20
769.83074951171875
 42
-0
  0
VERTEX
  8
0
 10
1614.6614990234375
 20
769.83074951171875
 42
-0
  0
VERTEX
  8
0
 10
1614.6614990234375
 20
719.83074951171875
 42
-0
  0
SEQEND
  0
POLYLINE
  8
0
 10
0
 20
0
 39
0
 70
1
 66
1
  0
VERTEX
  8
0
 10
1809.8115234375
 20
744.83074951171875
 42
-1
  0
VERTEX
  8
0
 10
1789.5115966796875
 20
744.83074951171875
 42
-1
  0
SEQEND
  0
POLYLINE
  8
0
 10
0
 20
0
 39
0
 70
1
 66
1
  0
VERTEX
  8
0
 10
1654.8115234375
 20
744.83074951171875
 42
-1
  0
VERTEX
  8
0
 10
1634.5115966796875
 20
744.83074951171875
 42
-1
  0
SEQEND
  0
POLYLINE
  8
0
 10
0
 20
0
 39
0
 70
1
 66
1
  0
VERTEX
  8
0
 10
2054.892333984375
 20
720.75384521484375
 42
-0
  0
VERTEX
  8
0
 10
2054.892333984375
 20
770.75384521484375
 42
-0
  0
VERTEX
  8
0
 10
1839.892333984375
 20
770.75384521484375
 42
-0
  0
VERTEX
  8
0
 10
1839.892333984375
 20
720.75384521484375
 42
-0
  0
SEQEND
  0
POLYLINE
  8
0
 10
0
 20
0
 39
0
 70
1
 66
1
  0
VERTEX
  8
0
 10
2035.0423583984375
 20
745.75384521484375
 42
-1
  0
VERTEX
  8
0
 10
2014.7423095703125
 20
745.75384521484375
 42
-1
  0
SEQEND
  0
POLYLINE
  8
0
 10
0
 20
0
 39
0
 70
1
 66
1
  0
VERTEX
  8
0
 10
1880.0423583984375
 20
745.75384521484375
 42
-1
  0
VERTEX
  8
0
 10
1859.7423095703125
 20
745.75384521484375
 42
-1
  0
SEQEND
  0
POLYLINE
  8
0
 10
0
 20
0
 39
0
 70
1
 66
1
  0
VERTEX
  8
0
 10
2277.4306640625
 20
430.5384521484375
 42
-0
  0
VERTEX
  8
0
 10
2327.4306640625
 20
430.5384521484375
 42
-0
  0
VERTEX
  8
0
 10
2327.4306640625
 20
630.5384521484375
 42
-0
  0
VERTEX
  8
0
 10
2277.4306640625
 20
630.5384521484375
 42
0
  0
SEQEND
  0
POLYLINE
  8
0
 10
0
 20
0
 39
0
 70
1
 66
1
  0
VERTEX
  8
0
 10
2302.4306640625
 20
467.2117919921875
 42
-1
  0
VERTEX
  8
0
 10
2302.4306640625
 20
497.2117919921875
 42
-1
  0
SEQEND
  0
POLYLINE
  8
0
 10
0
 20
0
 39
0
 70
1
 66
1
  0
VERTEX
  8
0
 10
2337.800048828125
 20
430.5384521484375
 42
-0
  0
VERTEX
  8
0
 10
2387.800048828125
 20
430.5384521484375
 42
-0
  0
VERTEX
  8
0
 10
2387.800048828125
 20
630.5384521484375
 42
-0
  0
VERTEX
  8
0
 10
2337.800048828125
 20
630.5384521484375
 42
0
  0
SEQEND
  0
POLYLINE
  8
0
 10
0
 20
0
 39
0
 70
1
 66
1
  0
VERTEX
  8
0
 10
2362.800048828125
 20
467.2117919921875
 42
-1
  0
VERTEX
  8
0
 10
2362.800048828125
 20
497.2117919921875
 42
-1
  0
SEQEND
  0
POLYLINE
  8
0
 10
0
 20
0
 39
0
 70
1
 66
1
  0
VERTEX
  8
0
 10
2339.09228515625
 20
10.353846549987793
 42
-0
  0
VERTEX
  8
0
 10
2389.09228515625
 20
10.353846549987793
 42
-0
  0
VERTEX
  8
0
 10
2389.09228515625
 20
210.35385131835937
 42
-0
  0
VERTEX
  8
0
 10
2339.09228515625
 20
210.35385131835937
 42
0
  0
SEQEND
  0
POLYLINE
  8
0
 10
0
 20
0
 39
0
 70
1
 66
1
  0
VERTEX
  8
0
 10
2364.09228515625
 20
47.027172088623047
 42
-1
  0
VERTEX
  8
0
 10
2364.09228515625
 20
77.027168273925781
 42
-1
  0
SEQEND
  0
ENDSEC
  0
EOF
