  0
SECTION
  2
ENTITIES
  0
POLYLINE
  8
0
 10
0
 20
0
 39
0
 70
1
 66
1
  0
VERTEX
  8
0
 10
0
 20
0
 42
0
  0
VERTEX
  8
0
 10
2500
 20
0
 42
0
  0
VERTEX
  8
0
 10
2500
 20
1000
 42
0
  0
VERTEX
  8
0
 10
0
 20
1000
 42
0
  0
SEQEND
  0
POLYLINE
  8
0
 10
0
 20
0
 39
0
 70
1
 66
1
  0
VERTEX
  8
0
 10
400.21142578125
 20
123.08329772949219
 42
-0
  0
VERTEX
  8
0
 10
400.21142578125
 20
348.24990844726562
 42
0
  0
VERTEX
  8
0
 10
205.5
 20
460.66659545898437
 42
0
  0
VERTEX
  8
0
 10
10.5
 20
348.08331298828125
 42
-0
  0
VERTEX
  8
0
 10
10.500007629394531
 20
122.91668701171875
 42
0
  0
VERTEX
  8
0
 10
205.21142578125
 20
10.5
 42
0
  0
SEQEND
  0
POLYLINE
  8
0
 10
0
 20
0
 39
0
 70
1
 66
1
  0
VERTEX
  8
0
 10
400.21142578125
 20
583.33331298828125
 42
-0
  0
VERTEX
  8
0
 10
400.21142578125
 20
808.4998779296875
 42
0
  0
VERTEX
  8
0
 10
205.5
 20
920.91656494140625
 42
0
  0
VERTEX
  8
0
 10
10.5
 20
808.33331298828125
 42
-0
  0
VERTEX
  8
0
 10
10.500007629394531
 20
583.16668701171875
 42
0
  0
VERTEX
  8
0
 10
205.21142578125
 20
470.75
 42
0
  0
SEQEND
  0
POLYLINE
  8
0
 10
0
 20
0
 39
0
 70
1
 66
1
  0
VERTEX
  8
0
 10
457.33331298828125
 20
270.75
 42
-0
  0
VERTEX
  8
0
 10
682.4998779296875
 20
270.75
 42
0
  0
VERTEX
  8
0
 10
794.91656494140625
 20
465.46142578125
 42
0
  0
VERTEX
  8
0
 10
682.33331298828125
 20
660.46142578125
 42
-0
  0
VERTEX
  8
0
 10
457.16668701171875
 20
660.46142578125
 42
0
  0
VERTEX
  8
0
 10
344.75
 20
465.75
 42
0
  0
SEQEND
  0
POLYLINE
  8
0
 10
0
 20
0
 39
0
 70
1
 66
1
  0
VERTEX
  8
0
 10
759.9556884765625
 20
660.1566162109375
 42
0
  0
VERTEX
  8
0
 10
920.25
 20
674.5
 42
0
  0
VERTEX
  8
0
 10
920.25
 20
974.5
 42
-0
  0
VERTEX
  8
0
 10
759.9556884765625
 20
988.8433837890625
 42
1.0934768915176392
  0
SEQEND
  0
POLYLINE
  8
0
 10
0
 20
0
 39
0
 70
1
 66
1
  0
VERTEX
  8
0
 10
671.9066162109375
 20
170.79434204101562
 42
0
  0
VERTEX
  8
0
 10
686.25
 20
10.5
 42
0
  0
VERTEX
  8
0
 10
986.25
 20
10.5
 42
-0
  0
VERTEX
  8
0
 10
1000.5933837890625
 20
170.7943115234375
 42
1.0934768915176392
  0
SEQEND
  0
POLYLINE
  8
0
 10
0
 20
0
 39
0
 70
1
 66
1
  0
VERTEX
  8
0
 10
980.9556884765625
 20
340.1566162109375
 42
0
  0
VERTEX
  8
0
 10
1141.25
 20
354.5
 42
0
  0
VERTEX
  8
0
 10
1141.25
 20
654.5
 42
-0
  0
VERTEX
  8
0
 10
980.9556884765625
 20
668.8433837890625
 42
1.0934768915176392
  0
SEQEND
  0
POLYLINE
  8
0
 10
0
 20
0
 39
0
 70
1
 66
1
  0
VERTEX
  8
0
 10
1171.7943115234375
 20
339.8433837890625
 42
0
  0
VERTEX
  8
0
 10
1011.5
 20
325.5
 42
0
  0
VERTEX
  8
0
 10
1011.5
 20
25.5
 42
-0
  0
VERTEX
  8
0
 10
1171.7943115234375
 20
11.156631469726562
 42
1.0934768915176392
  0
SEQEND
  0
POLYLINE
  8
0
 10
0
 20
0
 39
0
 70
1
 66
1
  0
VERTEX
  8
0
 10
1042
 20
679.5
 42
0
  0
VERTEX
  8
0
 10
1182
 20
659.5
 42
0
  0
VERTEX
  8
0
 10
1182
 20
989.5
 42
-0
  0
VERTEX
  8
0
 10
1042
 20
969.5
 42
0
  0
SEQEND
  0
POLYLINE
  8
0
 10
0
 20
0
 39
0
 70
1
 66
1
  0
VERTEX
  8
0
 10
1163.75
 20
356.25
 42
0
  0
VERTEX
  8
0
 10
1303.75
 20
336.25
 42
0
  0
VERTEX
  8
0
 10
1303.75
 20
666.25
 42
-0
  0
VERTEX
  8
0
 10
1163.75
 20
646.25
 42
0
  0
SEQEND
  0
POLYLINE
  8
0
 10
0
 20
0
 39
0
 70
1
 66
1
  0
VERTEX
  8
0
 10
1286.25
 20
679.5
 42
0
  0
VERTEX
  8
0
 10
1426.25
 20
659.5
 42
0
  0
VERTEX
  8
0
 10
1426.25
 20
989.5
 42
-0
  0
VERTEX
  8
0
 10
1286.25
 20
969.5
 42
0
  0
SEQEND
  0
POLYLINE
  8
0
 10
0
 20
0
 39
0
 70
1
 66
1
  0
VERTEX
  8
0
 10
1314.25
 20
296
 42
0
  0
VERTEX
  8
0
 10
1454.25
 20
276
 42
0
  0
VERTEX
  8
0
 10
1454.25
 20
606
 42
-0
  0
VERTEX
  8
0
 10
1314.25
 20
586
 42
0
  0
SEQEND
  0
POLYLINE
  8
0
 10
0
 20
0
 39
0
 70
1
 66
1
  0
VERTEX
  8
0
 10
1436.75
 20
619.25
 42
0
  0
VERTEX
  8
0
 10
1576.75
 20
599.25
 42
0
  0
VERTEX
  8
0
 10
1576.75
 20
929.25
 42
-0
  0
VERTEX
  8
0
 10
1436.75
 20
909.25
 42
0
  0
SEQEND
  0
POLYLINE
  8
0
 10
0
 20
0
 39
0
 70
1
 66
1
  0
VERTEX
  8
0
 10
1464.75
 20
30.5
 42
0
  0
VERTEX
  8
0
 10
1604.75
 20
10.5
 42
0
  0
VERTEX
  8
0
 10
1604.75
 20
340.5
 42
-0
  0
VERTEX
  8
0
 10
1464.75
 20
320.5
 42
0
  0
SEQEND
  0
POLYLINE
  8
0
 10
0
 20
0
 39
0
 70
1
 66
1
  0
VERTEX
  8
0
 10
1587.25
 20
353.75
 42
0
  0
VERTEX
  8
0
 10
1727.25
 20
333.75
 42
0
  0
VERTEX
  8
0
 10
1727.25
 20
663.75
 42
-0
  0
VERTEX
  8
0
 10
1587.25
 20
643.75
 42
0
  0
SEQEND
  0
POLYLINE
  8
0
 10
0
 20
0
 39
0
 70
1
 66
1
  0
VERTEX
  8
0
 10
1727.25
 20
964.75
 42
0
  0
VERTEX
  8
0
 10
1587.25
 20
984.75
 42
0
  0
VERTEX
  8
0
 10
1587.25
 20
654.75
 42
-0
  0
VERTEX
  8
0
 10
1727.25
 20
674.75
 42
0
  0
SEQEND
  0
POLYLINE
  8
0
 10
0
 20
0
 39
0
 70
1
 66
1
  0
VERTEX
  8
0
 10
511.17001342773437
 20
10.5
 42
0
  0
VERTEX
  8
0
 10
521.16998291015625
 20
10.5
 42
0
  0
VERTEX
  8
0
 10
521.16998291015625
 20
250.5
 42
0
  0
VERTEX
  8
0
 10
511.17001342773437
 20
260.5
 42
0
  0
VERTEX
  8
0
 10
431.17001342773437
 20
260.5
 42
0
  0
SEQEND
  0
POLYLINE
  8
0
 10
0
 20
0
 39
0
 70
1
 66
1
  0
VERTEX
  8
0
 10
420.5
 20
260.5
 42
0
  0
VERTEX
  8
0
 10
410.5
 20
260.5
 42
0
  0
VERTEX
  8
0
 10
410.5
 20
20.5
 42
0
  0
VERTEX
  8
0
 10
420.5
 20
10.5
 42
0
  0
VERTEX
  8
0
 10
500.5
 20
10.5
 42
0
  0
SEQEND
  0
POLYLINE
  8
0
 10
0
 20
0
 39
0
 70
1
 66
1
  0
VERTEX
  8
0
 10
511.17001342773437
 20
670.5
 42
0
  0
VERTEX
  8
0
 10
521.16998291015625
 20
670.5
 42
0
  0
VERTEX
  8
0
 10
521.16998291015625
 20
910.5
 42
0
  0
VERTEX
  8
0
 10
511.17001342773437
 20
920.5
 42
0
  0
VERTEX
  8
0
 10
431.17001342773437
 20
920.5
 42
0
  0
SEQEND
  0
POLYLINE
  8
0
 10
0
 20
0
 39
0
 70
1
 66
1
  0
VERTEX
  8
0
 10
420.5
 20
920.5
 42
0
  0
VERTEX
  8
0
 10
410.5
 20
920.5
 42
0
  0
VERTEX
  8
0
 10
410.5
 20
680.5
 42
0
  0
VERTEX
  8
0
 10
420.5
 20
670.5
 42
0
  0
VERTEX
  8
0
 10
500.5
 20
670.5
 42
0
  0
SEQEND
  0
POLYLINE
  8
0
 10
0
 20
0
 39
0
 70
1
 66
1
  0
VERTEX
  8
0
 10
632.16998291015625
 20
10.5
 42
0
  0
VERTEX
  8
0
 10
642.16998291015625
 20
10.5
 42
0
  0
VERTEX
  8
0
 10
642.16998291015625
 20
250.5
 42
0
  0
VERTEX
  8
0
 10
632.16998291015625
 20
260.5
 42
0
  0
VERTEX
  8
0
 10
552.16998291015625
 20
260.5
 42
0
  0
SEQEND
  0
POLYLINE
  8
0
 10
0
 20
0
 39
0
 70
1
 66
1
  0
VERTEX
  8
0
 10
541.5
 20
260.5
 42
0
  0
VERTEX
  8
0
 10
531.5
 20
260.5
 42
0
  0
VERTEX
  8
0
 10
531.5
 20
20.5
 42
0
  0
VERTEX
  8
0
 10
541.5
 20
10.5
 42
0
  0
VERTEX
  8
0
 10
621.5
 20
10.5
 42
0
  0
SEQEND
  0
POLYLINE
  8
0
 10
0
 20
0
 39
0
 70
1
 66
1
  0
VERTEX
  8
0
 10
1715.9200439453125
 20
10.5
 42
0
  0
VERTEX
  8
0
 10
1725.9200439453125
 20
10.5
 42
0
  0
VERTEX
  8
0
 10
1725.9200439453125
 20
250.5
 42
0
  0
VERTEX
  8
0
 10
1715.9200439453125
 20
260.5
 42
0
  0
VERTEX
  8
0
 10
1635.9200439453125
 20
260.5
 42
0
  0
SEQEND
  0
POLYLINE
  8
0
 10
0
 20
0
 39
0
 70
1
 66
1
  0
VERTEX
  8
0
 10
1625.25
 20
260.5
 42
0
  0
VERTEX
  8
0
 10
1615.25
 20
260.5
 42
0
  0
VERTEX
  8
0
 10
1615.25
 20
20.5
 42
0
  0
VERTEX
  8
0
 10
1625.25
 20
10.5
 42
0
  0
VERTEX
  8
0
 10
1705.25
 20
10.5
 42
0
  0
SEQEND
  0
POLYLINE
  8
0
 10
0
 20
0
 39
0
 70
1
 66
1
  0
VERTEX
  8
0
 10
1836.9200439453125
 20
10.5
 42
0
  0
VERTEX
  8
0
 10
1846.9200439453125
 20
10.5
 42
0
  0
VERTEX
  8
0
 10
1846.9200439453125
 20
250.5
 42
0
  0
VERTEX
  8
0
 10
1836.9200439453125
 20
260.5
 42
0
  0
VERTEX
  8
0
 10
1756.9200439453125
 20
260.5
 42
0
  0
SEQEND
  0
POLYLINE
  8
0
 10
0
 20
0
 39
0
 70
1
 66
1
  0
VERTEX
  8
0
 10
1746.25
 20
260.5
 42
0
  0
VERTEX
  8
0
 10
1736.25
 20
260.5
 42
0
  0
VERTEX
  8
0
 10
1736.25
 20
20.5
 42
0
  0
VERTEX
  8
0
 10
1746.25
 20
10.5
 42
0
  0
VERTEX
  8
0
 10
1826.25
 20
10.5
 42
0
  0
SEQEND
  0
POLYLINE
  8
0
 10
0
 20
0
 39
0
 70
1
 66
1
  0
VERTEX
  8
0
 10
1838.4200439453125
 20
270.75
 42
0
  0
VERTEX
  8
0
 10
1848.4200439453125
 20
270.75
 42
0
  0
VERTEX
  8
0
 10
1848.4200439453125
 20
510.75
 42
0
  0
VERTEX
  8
0
 10
1838.4200439453125
 20
520.75
 42
0
  0
VERTEX
  8
0
 10
1758.4200439453125
 20
520.75
 42
0
  0
SEQEND
  0
POLYLINE
  8
0
 10
0
 20
0
 39
0
 70
1
 66
1
  0
VERTEX
  8
0
 10
1747.75
 20
520.75
 42
0
  0
VERTEX
  8
0
 10
1737.75
 20
520.75
 42
0
  0
VERTEX
  8
0
 10
1737.75
 20
280.75
 42
0
  0
VERTEX
  8
0
 10
1747.75
 20
270.75
 42
0
  0
VERTEX
  8
0
 10
1827.75
 20
270.75
 42
0
  0
SEQEND
  0
POLYLINE
  8
0
 10
0
 20
0
 39
0
 70
1
 66
1
  0
VERTEX
  8
0
 10
1838.4200439453125
 20
531
 42
0
  0
VERTEX
  8
0
 10
1848.4200439453125
 20
531
 42
0
  0
VERTEX
  8
0
 10
1848.4200439453125
 20
771
 42
0
  0
VERTEX
  8
0
 10
1838.4200439453125
 20
781
 42
0
  0
VERTEX
  8
0
 10
1758.4200439453125
 20
781
 42
0
  0
SEQEND
  0
POLYLINE
  8
0
 10
0
 20
0
 39
0
 70
1
 66
1
  0
VERTEX
  8
0
 10
1747.75
 20
781
 42
0
  0
VERTEX
  8
0
 10
1737.75
 20
781
 42
0
  0
VERTEX
  8
0
 10
1737.75
 20
541
 42
0
  0
VERTEX
  8
0
 10
1747.75
 20
531
 42
0
  0
VERTEX
  8
0
 10
1827.75
 20
531
 42
0
  0
SEQEND
  0
POLYLINE
  8
0
 10
0
 20
0
 39
0
 70
1
 66
1
  0
VERTEX
  8
0
 10
1957.9200439453125
 20
10.5
 42
0
  0
VERTEX
  8
0
 10
1967.9200439453125
 20
10.5
 42
0
  0
VERTEX
  8
0
 10
1967.9200439453125
 20
250.5
 42
0
  0
VERTEX
  8
0
 10
1957.9200439453125
 20
260.5
 42
0
  0
VERTEX
  8
0
 10
1877.9200439453125
 20
260.5
 42
0
  0
SEQEND
  0
POLYLINE
  8
0
 10
0
 20
0
 39
0
 70
1
 66
1
  0
VERTEX
  8
0
 10
1867.25
 20
260.5
 42
0
  0
VERTEX
  8
0
 10
1857.25
 20
260.5
 42
0
  0
VERTEX
  8
0
 10
1857.25
 20
20.5
 42
0
  0
VERTEX
  8
0
 10
1867.25
 20
10.5
 42
0
  0
VERTEX
  8
0
 10
1947.25
 20
10.5
 42
0
  0
SEQEND
  0
POLYLINE
  8
0
 10
0
 20
0
 39
0
 70
1
 66
1
  0
VERTEX
  8
0
 10
1959.4200439453125
 20
270.75
 42
0
  0
VERTEX
  8
0
 10
1969.4200439453125
 20
270.75
 42
0
  0
VERTEX
  8
0
 10
1969.4200439453125
 20
510.75
 42
0
  0
VERTEX
  8
0
 10
1959.4200439453125
 20
520.75
 42
0
  0
VERTEX
  8
0
 10
1879.4200439453125
 20
520.75
 42
0
  0
SEQEND
  0
POLYLINE
  8
0
 10
0
 20
0
 39
0
 70
1
 66
1
  0
VERTEX
  8
0
 10
1868.75
 20
520.75
 42
0
  0
VERTEX
  8
0
 10
1858.75
 20
520.75
 42
0
  0
VERTEX
  8
0
 10
1858.75
 20
280.75
 42
0
  0
VERTEX
  8
0
 10
1868.75
 20
270.75
 42
0
  0
VERTEX
  8
0
 10
1948.75
 20
270.75
 42
0
  0
SEQEND
  0
POLYLINE
  8
0
 10
0
 20
0
 39
0
 70
1
 66
1
  0
VERTEX
  8
0
 10
1959.4200439453125
 20
531
 42
0
  0
VERTEX
  8
0
 10
1969.4200439453125
 20
531
 42
0
  0
VERTEX
  8
0
 10
1969.4200439453125
 20
771
 42
0
  0
VERTEX
  8
0
 10
1959.4200439453125
 20
781
 42
0
  0
VERTEX
  8
0
 10
1879.4200439453125
 20
781
 42
0
  0
SEQEND
  0
POLYLINE
  8
0
 10
0
 20
0
 39
0
 70
1
 66
1
  0
VERTEX
  8
0
 10
1868.75
 20
781
 42
0
  0
VERTEX
  8
0
 10
1858.75
 20
781
 42
0
  0
VERTEX
  8
0
 10
1858.75
 20
541
 42
0
  0
VERTEX
  8
0
 10
1868.75
 20
531
 42
0
  0
VERTEX
  8
0
 10
1948.75
 20
531
 42
0
  0
SEQEND
  0
POLYLINE
  8
0
 10
0
 20
0
 39
0
 70
1
 66
1
  0
VERTEX
  8
0
 10
1987.75
 20
891.91998291015625
 42
0
  0
VERTEX
  8
0
 10
1987.75
 20
901.91998291015625
 42
0
  0
VERTEX
  8
0
 10
1747.75
 20
901.91998291015625
 42
0
  0
VERTEX
  8
0
 10
1737.75
 20
891.91998291015625
 42
0
  0
VERTEX
  8
0
 10
1737.75
 20
811.91998291015625
 42
0
  0
SEQEND
  0
POLYLINE
  8
0
 10
0
 20
0
 39
0
 70
1
 66
1
  0
VERTEX
  8
0
 10
1737.75
 20
801.25
 42
0
  0
VERTEX
  8
0
 10
1737.75
 20
791.25
 42
0
  0
VERTEX
  8
0
 10
1977.75
 20
791.25
 42
0
  0
VERTEX
  8
0
 10
1987.75
 20
801.25
 42
0
  0
VERTEX
  8
0
 10
1987.75
 20
881.25
 42
0
  0
SEQEND
  0
POLYLINE
  8
0
 10
0
 20
0
 39
0
 70
1
 66
1
  0
VERTEX
  8
0
 10
2078.919921875
 20
10.5
 42
0
  0
VERTEX
  8
0
 10
2088.919921875
 20
10.5
 42
0
  0
VERTEX
  8
0
 10
2088.919921875
 20
250.5
 42
0
  0
VERTEX
  8
0
 10
2078.919921875
 20
260.5
 42
0
  0
VERTEX
  8
0
 10
1998.9200439453125
 20
260.5
 42
0
  0
SEQEND
  0
POLYLINE
  8
0
 10
0
 20
0
 39
0
 70
1
 66
1
  0
VERTEX
  8
0
 10
1988.25
 20
260.5
 42
0
  0
VERTEX
  8
0
 10
1978.25
 20
260.5
 42
0
  0
VERTEX
  8
0
 10
1978.25
 20
20.5
 42
0
  0
VERTEX
  8
0
 10
1988.25
 20
10.5
 42
0
  0
VERTEX
  8
0
 10
2068.25
 20
10.5
 42
0
  0
SEQEND
  0
POLYLINE
  8
0
 10
0
 20
0
 39
0
 70
1
 66
1
  0
VERTEX
  8
0
 10
560.5
 20
931
 42
-0
  0
VERTEX
  8
0
 10
610.5
 20
949
 42
-0
  0
VERTEX
  8
0
 10
610.5
 20
961
 42
-0
  0
VERTEX
  8
0
 10
10.5
 20
961
 42
-0
  0
VERTEX
  8
0
 10
10.5
 20
949
 42
-0
  0
VERTEX
  8
0
 10
60.5
 20
931
 42
-0
  0
SEQEND
  0
POLYLINE
  8
0
 10
0
 20
0
 39
0
 70
1
 66
1
  0
VERTEX
  8
0
 10
1998.25
 20
320.75
 42
-0
  0
VERTEX
  8
0
 10
2016.25
 20
270.75
 42
-0
  0
VERTEX
  8
0
 10
2028.25
 20
270.75
 42
-0
  0
VERTEX
  8
0
 10
2028.25
 20
870.75
 42
-0
  0
VERTEX
  8
0
 10
2016.25
 20
870.75
 42
-0
  0
VERTEX
  8
0
 10
1998.25
 20
820.75
 42
-0
  0
SEQEND
  0
POLYLINE
  8
0
 10
0
 20
0
 39
0
 70
1
 66
1
  0
VERTEX
  8
0
 10
2038.75
 20
320.75
 42
-0
  0
VERTEX
  8
0
 10
2056.75
 20
270.75
 42
-0
  0
VERTEX
  8
0
 10
2068.75
 20
270.75
 42
-0
  0
VERTEX
  8
0
 10
2068.75
 20
870.75
 42
-0
  0
VERTEX
  8
0
 10
2056.75
 20
870.75
 42
-0
  0
VERTEX
  8
0
 10
2038.75
 20
820.75
 42
-0
  0
SEQEND
  0
POLYLINE
  8
0
 10
0
 20
0
 39
0
 70
1
 66
1
  0
VERTEX
  8
0
 10
2079.25
 20
307.25
 42
-0
  0
VERTEX
  8
0
 10
2097.25
 20
257.25
 42
-0
  0
VERTEX
  8
0
 10
2109.25
 20
257.25
 42
-0
  0
VERTEX
  8
0
 10
2109.25
 20
857.25
 42
-0
  0
VERTEX
  8
0
 10
2097.25
 20
857.25
 42
-0
  0
VERTEX
  8
0
 10
2079.25
 20
807.25
 42
-0
  0
SEQEND
  0
POLYLINE
  8
0
 10
0
 20
0
 39
0
 70
1
 66
1
  0
VERTEX
  8
0
 10
2119.75
 20
60.5
 42
-0
  0
VERTEX
  8
0
 10
2137.75
 20
10.5
 42
-0
  0
VERTEX
  8
0
 10
2149.75
 20
10.5
 42
-0
  0
VERTEX
  8
0
 10
2149.75
 20
610.5
 42
-0
  0
VERTEX
  8
0
 10
2137.75
 20
610.5
 42
-0
  0
VERTEX
  8
0
 10
2119.75
 20
560.5
 42
-0
  0
SEQEND
  0
POLYLINE
  8
0
 10
0
 20
0
 39
0
 70
1
 66
1
  0
VERTEX
  8
0
 10
2160.25
 20
60.5
 42
-0
  0
VERTEX
  8
0
 10
2178.25
 20
10.5
 42
-0
  0
VERTEX
  8
0
 10
2190.25
 20
10.5
 42
-0
  0
VERTEX
  8
0
 10
2190.25
 20
610.5
 42
-0
  0
VERTEX
  8
0
 10
2178.25
 20
610.5
 42
-0
  0
VERTEX
  8
0
 10
2160.25
 20
560.5
 42
-0
  0
SEQEND
  0
POLYLINE
  8
0
 10
0
 20
0
 39
0
 70
1
 66
1
  0
VERTEX
  8
0
 10
2200.75
 20
60.5
 42
-0
  0
VERTEX
  8
0
 10
2218.75
 20
10.5
 42
-0
  0
VERTEX
  8
0
 10
2230.75
 20
10.5
 42
-0
  0
VERTEX
  8
0
 10
2230.75
 20
610.5
 42
-0
  0
VERTEX
  8
0
 10
2218.75
 20
610.5
 42
-0
  0
VERTEX
  8
0
 10
2200.75
 20
560.5
 42
-0
  0
SEQEND
  0
POLYLINE
  8
0
 10
0
 20
0
 39
0
 70
1
 66
1
  0
VERTEX
  8
0
 10
2241.25
 20
60.5
 42
-0
  0
VERTEX
  8
0
 10
2259.25
 20
10.5
 42
-0
  0
VERTEX
  8
0
 10
2271.25
 20
10.5
 42
-0
  0
VERTEX
  8
0
 10
2271.25
 20
610.5
 42
-0
  0
VERTEX
  8
0
 10
2259.25
 20
610.5
 42
-0
  0
VERTEX
  8
0
 10
2241.25
 20
560.5
 42
-0
  0
SEQEND
  0
POLYLINE
  8
0
 10
0
 20
0
 39
0
 70
1
 66
1
  0
VERTEX
  8
0
 10
2281.75
 20
60.5
 42
-0
  0
VERTEX
  8
0
 10
2299.75
 20
10.5
 42
-0
  0
VERTEX
  8
0
 10
2311.75
 20
10.5
 42
-0
  0
VERTEX
  8
0
 10
2311.75
 20
610.5
 42
-0
  0
VERTEX
  8
0
 10
2299.75
 20
610.5
 42
-0
  0
VERTEX
  8
0
 10
2281.75
 20
560.5
 42
-0
  0
SEQEND
  0
POLYLINE
  8
0
 10
0
 20
0
 39
0
 70
1
 66
1
  0
VERTEX
  8
0
 10
2273.25
 20
959.5
 42
-0
  0
VERTEX
  8
0
 10
2323.25
 20
977.5
 42
-0
  0
VERTEX
  8
0
 10
2323.25
 20
989.5
 42
-0
  0
VERTEX
  8
0
 10
1723.25
 20
989.5
 42
-0
  0
VERTEX
  8
0
 10
1723.25
 20
977.5
 42
-0
  0
VERTEX
  8
0
 10
1773.25
 20
959.5
 42
-0
  0
SEQEND
  0
POLYLINE
  8
0
 10
0
 20
0
 39
0
 70
1
 66
1
  0
VERTEX
  8
0
 10
2287.75
 20
912
 42
-0
  0
VERTEX
  8
0
 10
2337.75
 20
930
 42
-0
  0
VERTEX
  8
0
 10
2337.75
 20
942
 42
-0
  0
VERTEX
  8
0
 10
1737.75
 20
942
 42
-0
  0
VERTEX
  8
0
 10
1737.75
 20
930
 42
-0
  0
VERTEX
  8
0
 10
1787.75
 20
912
 42
-0
  0
SEQEND
  0
POLYLINE
  8
0
 10
0
 20
0
 39
0
 70
1
 66
1
  0
VERTEX
  8
0
 10
2322.25
 20
60.5
 42
-0
  0
VERTEX
  8
0
 10
2340.25
 20
10.5
 42
-0
  0
VERTEX
  8
0
 10
2352.25
 20
10.5
 42
-0
  0
VERTEX
  8
0
 10
2352.25
 20
610.5
 42
-0
  0
VERTEX
  8
0
 10
2340.25
 20
610.5
 42
-0
  0
VERTEX
  8
0
 10
2322.25
 20
560.5
 42
-0
  0
SEQEND
  0
POLYLINE
  8
0
 10
0
 20
0
 39
0
 70
1
 66
1
  0
VERTEX
  8
0
 10
2362.75
 20
60.5
 42
-0
  0
VERTEX
  8
0
 10
2380.75
 20
10.5
 42
-0
  0
VERTEX
  8
0
 10
2392.75
 20
10.5
 42
-0
  0
VERTEX
  8
0
 10
2392.75
 20
610.5
 42
-0
  0
VERTEX
  8
0
 10
2380.75
 20
610.5
 42
-0
  0
VERTEX
  8
0
 10
2362.75
 20
560.5
 42
-0
  0
SEQEND
  0
POLYLINE
  8
0
 10
0
 20
0
 39
0
 70
1
 66
1
  0
VERTEX
  8
0
 10
2403.25
 20
60.5
 42
-0
  0
VERTEX
  8
0
 10
2421.25
 20
10.5
 42
-0
  0
VERTEX
  8
0
 10
2433.25
 20
10.5
 42
-0
  0
VERTEX
  8
0
 10
2433.25
 20
610.5
 42
-0
  0
VERTEX
  8
0
 10
2421.25
 20
610.5
 42
-0
  0
VERTEX
  8
0
 10
2403.25
 20
560.5
 42
-0
  0
SEQEND
  0
POLYLINE
  8
0
 10
0
 20
0
 39
0
 70
1
 66
1
  0
VERTEX
  8
0
 10
2443.75
 20
60.5
 42
-0
  0
VERTEX
  8
0
 10
2461.75
 20
10.5
 42
-0
  0
VERTEX
  8
0
 10
2473.75
 20
10.5
 42
-0
  0
VERTEX
  8
0
 10
2473.75
 20
610.5
 42
-0
  0
VERTEX
  8
0
 10
2461.75
 20
610.5
 42
-0
  0
VERTEX
  8
0
 10
2443.75
 20
560.5
 42
-0
  0
SEQEND
  0
POLYLINE
  8
0
 10
0
 20
0
 39
0
 70
1
 66
1
  0
VERTEX
  8
0
 10
85.5
 20
438.28500366210937
 42
0
  0
VERTEX
  8
0
 10
95.5
 20
438.28500366210937
 42
0
  0
VERTEX
  8
0
 10
95.5
 20
498.28500366210937
 42
0
  0
VERTEX
  8
0
 10
10.5
 20
498.28500366210937
 42
0
  0
VERTEX
  8
0
 10
10.5
 20
488.28500366210937
 42
0
  0
SEQEND
  0
POLYLINE
  8
0
 10
0
 20
0
 39
0
 70
1
 66
1
  0
VERTEX
  8
0
 10
20.5
 20
469.5
 42
0
  0
VERTEX
  8
0
 10
10.5
 20
469.5
 42
0
  0
VERTEX
  8
0
 10
10.5
 20
409.5
 42
0
  0
VERTEX
  8
0
 10
95.5
 20
409.5
 42
0
  0
VERTEX
  8
0
 10
95.5
 20
419.5
 42
0
  0
SEQEND
  0
POLYLINE
  8
0
 10
0
 20
0
 39
0
 70
1
 66
1
  0
VERTEX
  8
0
 10
1005.75
 20
708.53497314453125
 42
0
  0
VERTEX
  8
0
 10
1015.75
 20
708.53497314453125
 42
0
  0
VERTEX
  8
0
 10
1015.75
 20
768.53497314453125
 42
0
  0
VERTEX
  8
0
 10
930.75
 20
768.53497314453125
 42
0
  0
VERTEX
  8
0
 10
930.75
 20
758.53497314453125
 42
0
  0
SEQEND
  0
POLYLINE
  8
0
 10
0
 20
0
 39
0
 70
1
 66
1
  0
VERTEX
  8
0
 10
940.75
 20
739.75
 42
0
  0
VERTEX
  8
0
 10
930.75
 20
739.75
 42
0
  0
VERTEX
  8
0
 10
930.75
 20
679.75
 42
0
  0
VERTEX
  8
0
 10
1015.75
 20
679.75
 42
0
  0
VERTEX
  8
0
 10
1015.75
 20
689.75
 42
0
  0
SEQEND
  0
POLYLINE
  8
0
 10
0
 20
0
 39
0
 70
1
 66
1
  0
VERTEX
  8
0
 10
1005.75
 20
807.53497314453125
 42
0
  0
VERTEX
  8
0
 10
1015.75
 20
807.53497314453125
 42
0
  0
VERTEX
  8
0
 10
1015.75
 20
867.53497314453125
 42
0
  0
VERTEX
  8
0
 10
930.75
 20
867.53497314453125
 42
0
  0
VERTEX
  8
0
 10
930.75
 20
857.53497314453125
 42
0
  0
SEQEND
  0
POLYLINE
  8
0
 10
0
 20
0
 39
0
 70
1
 66
1
  0
VERTEX
  8
0
 10
940.75
 20
838.75
 42
0
  0
VERTEX
  8
0
 10
930.75
 20
838.75
 42
0
  0
VERTEX
  8
0
 10
930.75
 20
778.75
 42
0
  0
VERTEX
  8
0
 10
1015.75
 20
778.75
 42
0
  0
VERTEX
  8
0
 10
1015.75
 20
788.75
 42
0
  0
SEQEND
  0
POLYLINE
  8
0
 10
0
 20
0
 39
0
 70
1
 66
1
  0
VERTEX
  8
0
 10
1005.75
 20
906.53497314453125
 42
0
  0
VERTEX
  8
0
 10
1015.75
 20
906.53497314453125
 42
0
  0
VERTEX
  8
0
 10
1015.75
 20
966.53497314453125
 42
0
  0
VERTEX
  8
0
 10
930.75
 20
966.53497314453125
 42
0
  0
VERTEX
  8
0
 10
930.75
 20
956.53497314453125
 42
0
  0
SEQEND
  0
POLYLINE
  8
0
 10
0
 20
0
 39
0
 70
1
 66
1
  0
VERTEX
  8
0
 10
940.75
 20
937.75
 42
0
  0
VERTEX
  8
0
 10
930.75
 20
937.75
 42
0
  0
VERTEX
  8
0
 10
930.75
 20
877.75
 42
0
  0
VERTEX
  8
0
 10
1015.75
 20
877.75
 42
0
  0
VERTEX
  8
0
 10
1015.75
 20
887.75
 42
0
  0
SEQEND
  0
POLYLINE
  8
0
 10
0
 20
0
 39
0
 70
1
 66
1
  0
VERTEX
  8
0
 10
1420
 20
39.284999847412109
 42
0
  0
VERTEX
  8
0
 10
1430
 20
39.284999847412109
 42
0
  0
VERTEX
  8
0
 10
1430
 20
99.285003662109375
 42
0
  0
VERTEX
  8
0
 10
1345
 20
99.285003662109375
 42
0
  0
VERTEX
  8
0
 10
1345
 20
89.285003662109375
 42
0
  0
SEQEND
  0
POLYLINE
  8
0
 10
0
 20
0
 39
0
 70
1
 66
1
  0
VERTEX
  8
0
 10
1355
 20
70.5
 42
0
  0
VERTEX
  8
0
 10
1345
 20
70.5
 42
0
  0
VERTEX
  8
0
 10
1345
 20
10.5
 42
0
  0
VERTEX
  8
0
 10
1430
 20
10.5
 42
0
  0
VERTEX
  8
0
 10
1430
 20
20.5
 42
0
  0
SEQEND
  0
POLYLINE
  8
0
 10
0
 20
0
 39
0
 70
1
 66
1
  0
VERTEX
  8
0
 10
1436.75
 20
138.28500366210937
 42
0
  0
VERTEX
  8
0
 10
1446.75
 20
138.28500366210937
 42
0
  0
VERTEX
  8
0
 10
1446.75
 20
198.28500366210937
 42
0
  0
VERTEX
  8
0
 10
1361.75
 20
198.28500366210937
 42
0
  0
VERTEX
  8
0
 10
1361.75
 20
188.28500366210937
 42
0
  0
SEQEND
  0
POLYLINE
  8
0
 10
0
 20
0
 39
0
 70
1
 66
1
  0
VERTEX
  8
0
 10
1371.75
 20
169.5
 42
0
  0
VERTEX
  8
0
 10
1361.75
 20
169.5
 42
0
  0
VERTEX
  8
0
 10
1361.75
 20
109.5
 42
0
  0
VERTEX
  8
0
 10
1446.75
 20
109.5
 42
0
  0
VERTEX
  8
0
 10
1446.75
 20
119.5
 42
0
  0
SEQEND
  0
POLYLINE
  8
0
 10
0
 20
0
 39
0
 70
1
 66
1
  0
VERTEX
  8
0
 10
1539.75
 20
372.03500366210937
 42
0
  0
VERTEX
  8
0
 10
1549.75
 20
372.03500366210937
 42
0
  0
VERTEX
  8
0
 10
1549.75
 20
432.03500366210937
 42
0
  0
VERTEX
  8
0
 10
1464.75
 20
432.03500366210937
 42
0
  0
VERTEX
  8
0
 10
1464.75
 20
422.03500366210937
 42
0
  0
SEQEND
  0
POLYLINE
  8
0
 10
0
 20
0
 39
0
 70
1
 66
1
  0
VERTEX
  8
0
 10
1474.75
 20
403.25
 42
0
  0
VERTEX
  8
0
 10
1464.75
 20
403.25
 42
0
  0
VERTEX
  8
0
 10
1464.75
 20
343.25
 42
0
  0
VERTEX
  8
0
 10
1549.75
 20
343.25
 42
0
  0
VERTEX
  8
0
 10
1549.75
 20
353.25
 42
0
  0
SEQEND
  0
POLYLINE
  8
0
 10
0
 20
0
 39
0
 70
1
 66
1
  0
VERTEX
  8
0
 10
1539.75
 20
471.03500366210937
 42
0
  0
VERTEX
  8
0
 10
1549.75
 20
471.03500366210937
 42
0
  0
VERTEX
  8
0
 10
1549.75
 20
531.03497314453125
 42
0
  0
VERTEX
  8
0
 10
1464.75
 20
531.03497314453125
 42
0
  0
VERTEX
  8
0
 10
1464.75
 20
521.03497314453125
 42
0
  0
SEQEND
  0
POLYLINE
  8
0
 10
0
 20
0
 39
0
 70
1
 66
1
  0
VERTEX
  8
0
 10
1474.75
 20
502.25
 42
0
  0
VERTEX
  8
0
 10
1464.75
 20
502.25
 42
0
  0
VERTEX
  8
0
 10
1464.75
 20
442.25
 42
0
  0
VERTEX
  8
0
 10
1549.75
 20
442.25
 42
0
  0
VERTEX
  8
0
 10
1549.75
 20
452.25
 42
0
  0
SEQEND
  0
POLYLINE
  8
0
 10
0
 20
0
 39
0
 70
1
 66
1
  0
VERTEX
  8
0
 10
2194.75
 20
649.53497314453125
 42
0
  0
VERTEX
  8
0
 10
2204.75
 20
649.53497314453125
 42
0
  0
VERTEX
  8
0
 10
2204.75
 20
709.53497314453125
 42
0
  0
VERTEX
  8
0
 10
2119.75
 20
709.53497314453125
 42
0
  0
VERTEX
  8
0
 10
2119.75
 20
699.53497314453125
 42
0
  0
SEQEND
  0
POLYLINE
  8
0
 10
0
 20
0
 39
0
 70
1
 66
1
  0
VERTEX
  8
0
 10
2129.75
 20
680.75
 42
0
  0
VERTEX
  8
0
 10
2119.75
 20
680.75
 42
0
  0
VERTEX
  8
0
 10
2119.75
 20
620.75
 42
0
  0
VERTEX
  8
0
 10
2204.75
 20
620.75
 42
0
  0
VERTEX
  8
0
 10
2204.75
 20
630.75
 42
0
  0
SEQEND
  0
POLYLINE
  8
0
 10
0
 20
0
 39
0
 70
1
 66
1
  0
VERTEX
  8
0
 10
2194.75
 20
748.53497314453125
 42
0
  0
VERTEX
  8
0
 10
2204.75
 20
748.53497314453125
 42
0
  0
VERTEX
  8
0
 10
2204.75
 20
808.53497314453125
 42
0
  0
VERTEX
  8
0
 10
2119.75
 20
808.53497314453125
 42
0
  0
VERTEX
  8
0
 10
2119.75
 20
798.53497314453125
 42
0
  0
SEQEND
  0
POLYLINE
  8
0
 10
0
 20
0
 39
0
 70
1
 66
1
  0
VERTEX
  8
0
 10
2129.75
 20
779.75
 42
0
  0
VERTEX
  8
0
 10
2119.75
 20
779.75
 42
0
  0
VERTEX
  8
0
 10
2119.75
 20
719.75
 42
0
  0
VERTEX
  8
0
 10
2204.75
 20
719.75
 42
0
  0
VERTEX
  8
0
 10
2204.75
 20
729.75
 42
0
  0
SEQEND
  0
POLYLINE
  8
0
 10
0
 20
0
 39
0
 70
1
 66
1
  0
VERTEX
  8
0
 10
2289.5
 20
841.78497314453125
 42
0
  0
VERTEX
  8
0
 10
2299.5
 20
841.78497314453125
 42
0
  0
VERTEX
  8
0
 10
2299.5
 20
901.78497314453125
 42
0
  0
VERTEX
  8
0
 10
2214.5
 20
901.78497314453125
 42
0
  0
VERTEX
  8
0
 10
2214.5
 20
891.78497314453125
 42
0
  0
SEQEND
  0
POLYLINE
  8
0
 10
0
 20
0
 39
0
 70
1
 66
1
  0
VERTEX
  8
0
 10
2224.5
 20
873
 42
0
  0
VERTEX
  8
0
 10
2214.5
 20
873
 42
0
  0
VERTEX
  8
0
 10
2214.5
 20
813
 42
0
  0
VERTEX
  8
0
 10
2299.5
 20
813
 42
0
  0
VERTEX
  8
0
 10
2299.5
 20
823
 42
0
  0
SEQEND
  0
POLYLINE
  8
0
 10
0
 20
0
 39
0
 70
1
 66
1
  0
VERTEX
  8
0
 10
2290.25
 20
649.53497314453125
 42
0
  0
VERTEX
  8
0
 10
2300.25
 20
649.53497314453125
 42
0
  0
VERTEX
  8
0
 10
2300.25
 20
709.53497314453125
 42
0
  0
VERTEX
  8
0
 10
2215.25
 20
709.53497314453125
 42
0
  0
VERTEX
  8
0
 10
2215.25
 20
699.53497314453125
 42
0
  0
SEQEND
  0
POLYLINE
  8
0
 10
0
 20
0
 39
0
 70
1
 66
1
  0
VERTEX
  8
0
 10
2225.25
 20
680.75
 42
0
  0
VERTEX
  8
0
 10
2215.25
 20
680.75
 42
0
  0
VERTEX
  8
0
 10
2215.25
 20
620.75
 42
0
  0
VERTEX
  8
0
 10
2300.25
 20
620.75
 42
0
  0
VERTEX
  8
0
 10
2300.25
 20
630.75
 42
0
  0
SEQEND
  0
POLYLINE
  8
0
 10
0
 20
0
 39
0
 70
1
 66
1
  0
VERTEX
  8
0
 10
2382.75
 20
746.03497314453125
 42
0
  0
VERTEX
  8
0
 10
2392.75
 20
746.03497314453125
 42
0
  0
VERTEX
  8
0
 10
2392.75
 20
806.03497314453125
 42
0
  0
VERTEX
  8
0
 10
2307.75
 20
806.03497314453125
 42
0
  0
VERTEX
  8
0
 10
2307.75
 20
796.03497314453125
 42
0
  0
SEQEND
  0
POLYLINE
  8
0
 10
0
 20
0
 39
0
 70
1
 66
1
  0
VERTEX
  8
0
 10
2317.75
 20
777.25
 42
0
  0
VERTEX
  8
0
 10
2307.75
 20
777.25
 42
0
  0
VERTEX
  8
0
 10
2307.75
 20
717.25
 42
0
  0
VERTEX
  8
0
 10
2392.75
 20
717.25
 42
0
  0
VERTEX
  8
0
 10
2392.75
 20
727.25
 42
0
  0
SEQEND
  0
POLYLINE
  8
0
 10
0
 20
0
 39
0
 70
1
 66
1
  0
VERTEX
  8
0
 10
2385
 20
845.03497314453125
 42
0
  0
VERTEX
  8
0
 10
2395
 20
845.03497314453125
 42
0
  0
VERTEX
  8
0
 10
2395
 20
905.03497314453125
 42
0
  0
VERTEX
  8
0
 10
2310
 20
905.03497314453125
 42
0
  0
VERTEX
  8
0
 10
2310
 20
895.03497314453125
 42
0
  0
SEQEND
  0
POLYLINE
  8
0
 10
0
 20
0
 39
0
 70
1
 66
1
  0
VERTEX
  8
0
 10
2320
 20
876.25
 42
0
  0
VERTEX
  8
0
 10
2310
 20
876.25
 42
0
  0
VERTEX
  8
0
 10
2310
 20
816.25
 42
0
  0
VERTEX
  8
0
 10
2395
 20
816.25
 42
0
  0
VERTEX
  8
0
 10
2395
 20
826.25
 42
0
  0
SEQEND
  0
POLYLINE
  8
0
 10
0
 20
0
 39
0
 70
1
 66
1
  0
VERTEX
  8
0
 10
2339.534912109375
 20
630.75
 42
0
  0
VERTEX
  8
0
 10
2339.534912109375
 20
620.75
 42
0
  0
VERTEX
  8
0
 10
2399.534912109375
 20
620.75
 42
0
  0
VERTEX
  8
0
 10
2399.534912109375
 20
705.75
 42
0
  0
VERTEX
  8
0
 10
2389.534912109375
 20
705.75
 42
0
  0
SEQEND
  0
POLYLINE
  8
0
 10
0
 20
0
 39
0
 70
1
 66
1
  0
VERTEX
  8
0
 10
2370.75
 20
695.75
 42
0
  0
VERTEX
  8
0
 10
2370.75
 20
705.75
 42
0
  0
VERTEX
  8
0
 10
2310.75
 20
705.75
 42
0
  0
VERTEX
  8
0
 10
2310.75
 20
620.75
 42
0
  0
VERTEX
  8
0
 10
2320.75
 20
620.75
 42
0
  0
SEQEND
  0
POLYLINE
  8
0
 10
0
 20
0
 39
0
 70
1
 66
1
  0
VERTEX
  8
0
 10
2478.25
 20
744.78497314453125
 42
0
  0
VERTEX
  8
0
 10
2488.25
 20
744.78497314453125
 42
0
  0
VERTEX
  8
0
 10
2488.25
 20
804.78497314453125
 42
0
  0
VERTEX
  8
0
 10
2403.25
 20
804.78497314453125
 42
0
  0
VERTEX
  8
0
 10
2403.25
 20
794.78497314453125
 42
0
  0
SEQEND
  0
POLYLINE
  8
0
 10
0
 20
0
 39
0
 70
1
 66
1
  0
VERTEX
  8
0
 10
2413.25
 20
776
 42
0
  0
VERTEX
  8
0
 10
2403.25
 20
776
 42
0
  0
VERTEX
  8
0
 10
2403.25
 20
716
 42
0
  0
VERTEX
  8
0
 10
2488.25
 20
716
 42
0
  0
VERTEX
  8
0
 10
2488.25
 20
726
 42
0
  0
SEQEND
  0
POLYLINE
  8
0
 10
0
 20
0
 39
0
 70
1
 66
1
  0
VERTEX
  8
0
 10
2460.75
 20
989.5
 42
-0
  0
VERTEX
  8
0
 10
2375.75
 20
989.5
 42
-0
  0
VERTEX
  8
0
 10
2375.75
 20
939.5
 42
0
  0
VERTEX
  8
0
 10
2410.75
 20
904.5
 42
0
  0
VERTEX
  8
0
 10
2460.75
 20
904.5
 42
0
  0
SEQEND
  0
POLYLINE
  8
0
 10
0
 20
0
 39
0
 70
1
 66
1
  0
VERTEX
  8
0
 10
730
 20
649.25
 42
-0
  0
VERTEX
  8
0
 10
730
 20
599.25
 42
-0
  0
VERTEX
  8
0
 10
751.72393798828125
 20
574.25
 42
-0
  0
VERTEX
  8
0
 10
788.27606201171875
 20
574.25
 42
0
  0
VERTEX
  8
0
 10
810
 20
599.25
 42
0
  0
VERTEX
  8
0
 10
810
 20
649.25
 42
0
  0
SEQEND
  0
POLYLINE
  8
0
 10
0
 20
0
 39
0
 70
1
 66
1
  0
VERTEX
  8
0
 10
1192.5
 20
668.25
 42
-0
  0
VERTEX
  8
0
 10
1242.5
 20
668.25
 42
-0
  0
VERTEX
  8
0
 10
1267.5
 20
689.97393798828125
 42
-0
  0
VERTEX
  8
0
 10
1267.5
 20
726.52606201171875
 42
0
  0
VERTEX
  8
0
 10
1242.5
 20
748.25
 42
0
  0
VERTEX
  8
0
 10
1192.5
 20
748.25
 42
0
  0
SEQEND
  0
POLYLINE
  8
0
 10
0
 20
0
 39
0
 70
1
 66
1
  0
VERTEX
  8
0
 10
1192.5
 20
758.5
 42
-0
  0
VERTEX
  8
0
 10
1242.5
 20
758.5
 42
-0
  0
VERTEX
  8
0
 10
1267.5
 20
780.22393798828125
 42
-0
  0
VERTEX
  8
0
 10
1267.5
 20
816.77606201171875
 42
0
  0
VERTEX
  8
0
 10
1242.5
 20
838.5
 42
0
  0
VERTEX
  8
0
 10
1192.5
 20
838.5
 42
0
  0
SEQEND
  0
POLYLINE
  8
0
 10
0
 20
0
 39
0
 70
1
 66
1
  0
VERTEX
  8
0
 10
1192.5
 20
848.75
 42
-0
  0
VERTEX
  8
0
 10
1242.5
 20
848.75
 42
-0
  0
VERTEX
  8
0
 10
1267.5
 20
870.47393798828125
 42
-0
  0
VERTEX
  8
0
 10
1267.5
 20
907.02606201171875
 42
0
  0
VERTEX
  8
0
 10
1242.5
 20
928.75
 42
0
  0
VERTEX
  8
0
 10
1192.5
 20
928.75
 42
0
  0
SEQEND
  0
POLYLINE
  8
0
 10
0
 20
0
 39
0
 70
1
 66
1
  0
VERTEX
  8
0
 10
2119.75
 20
818.75
 42
-0
  0
VERTEX
  8
0
 10
2169.75
 20
818.75
 42
-0
  0
VERTEX
  8
0
 10
2194.75
 20
840.47393798828125
 42
-0
  0
VERTEX
  8
0
 10
2194.75
 20
877.02606201171875
 42
0
  0
VERTEX
  8
0
 10
2169.75
 20
898.75
 42
0
  0
VERTEX
  8
0
 10
2119.75
 20
898.75
 42
0
  0
SEQEND
  0
POLYLINE
  8
0
 10
0
 20
0
 39
0
 70
1
 66
1
  0
VERTEX
  8
0
 10
2215.25
 20
719.75
 42
-0
  0
VERTEX
  8
0
 10
2265.25
 20
719.75
 42
-0
  0
VERTEX
  8
0
 10
2290.25
 20
741.47393798828125
 42
-0
  0
VERTEX
  8
0
 10
2290.25
 20
778.02606201171875
 42
0
  0
VERTEX
  8
0
 10
2265.25
 20
799.75
 42
0
  0
VERTEX
  8
0
 10
2215.25
 20
799.75
 42
0
  0
SEQEND
  0
POLYLINE
  8
0
 10
0
 20
0
 39
0
 70
1
 66
1
  0
VERTEX
  8
0
 10
2410
 20
620.75
 42
-0
  0
VERTEX
  8
0
 10
2460
 20
620.75
 42
-0
  0
VERTEX
  8
0
 10
2485
 20
642.47393798828125
 42
-0
  0
VERTEX
  8
0
 10
2485
 20
679.02606201171875
 42
0
  0
VERTEX
  8
0
 10
2460
 20
700.75
 42
0
  0
VERTEX
  8
0
 10
2410
 20
700.75
 42
0
  0
SEQEND
  0
POLYLINE
  8
0
 10
0
 20
0
 39
0
 70
1
 66
1
  0
VERTEX
  8
0
 10
2485.5
 20
815
 42
-0
  0
VERTEX
  8
0
 10
2485.5
 20
865
 42
-0
  0
VERTEX
  8
0
 10
2463.776123046875
 20
890
 42
-0
  0
VERTEX
  8
0
 10
2427.223876953125
 20
890
 42
0
  0
VERTEX
  8
0
 10
2405.5
 20
865
 42
0
  0
VERTEX
  8
0
 10
2405.5
 20
815
 42
0
  0
SEQEND
  0
POLYLINE
  8
0
 10
0
 20
0
 39
0
 70
1
 66
1
  0
VERTEX
  8
0
 10
70.5
 20
901.5
 42
0
  0
VERTEX
  8
0
 10
70.5
 20
911.5
 42
0
  0
VERTEX
  8
0
 10
10.5
 20
911.5
 42
0
  0
VERTEX
  8
0
 10
10.5
 20
826.5
 42
0
  0
VERTEX
  8
0
 10
20.5
 20
826.5
 42
0
  0
SEQEND
  0
POLYLINE
  8
0
 10
0
 20
0
 39
0
 70
1
 66
1
  0
VERTEX
  8
0
 10
20.5
 20
70.5
 42
0
  0
VERTEX
  8
0
 10
10.5
 20
70.5
 42
0
  0
VERTEX
  8
0
 10
10.5
 20
10.5
 42
0
  0
VERTEX
  8
0
 10
95.5
 20
10.5
 42
0
  0
VERTEX
  8
0
 10
95.5
 20
20.5
 42
0
  0
SEQEND
  0
POLYLINE
  8
0
 10
0
 20
0
 39
0
 70
1
 66
1
  0
VERTEX
  8
0
 10
307.5
 20
414.25
 42
0
  0
VERTEX
  8
0
 10
317.5
 20
414.25
 42
0
  0
VERTEX
  8
0
 10
317.5
 20
474.25
 42
0
  0
VERTEX
  8
0
 10
232.5
 20
474.25
 42
0
  0
VERTEX
  8
0
 10
232.5
 20
464.25
 42
0
  0
SEQEND
  0
POLYLINE
  8
0
 10
0
 20
0
 39
0
 70
1
 66
1
  0
VERTEX
  8
0
 10
331.25
 20
860.75
 42
0
  0
VERTEX
  8
0
 10
341.25
 20
860.75
 42
0
  0
VERTEX
  8
0
 10
341.25
 20
920.75
 42
0
  0
VERTEX
  8
0
 10
256.25
 20
920.75
 42
0
  0
VERTEX
  8
0
 10
256.25
 20
910.75
 42
0
  0
SEQEND
  0
POLYLINE
  8
0
 10
0
 20
0
 39
0
 70
1
 66
1
  0
VERTEX
  8
0
 10
323.75
 20
20.5
 42
0
  0
VERTEX
  8
0
 10
323.75
 20
10.5
 42
0
  0
VERTEX
  8
0
 10
383.75
 20
10.5
 42
0
  0
VERTEX
  8
0
 10
383.75
 20
95.5
 42
0
  0
VERTEX
  8
0
 10
373.75
 20
95.5
 42
0
  0
SEQEND
  0
POLYLINE
  8
0
 10
0
 20
0
 39
0
 70
1
 66
1
  0
VERTEX
  8
0
 10
591.5
 20
909.75
 42
0
  0
VERTEX
  8
0
 10
591.5
 20
919.75
 42
0
  0
VERTEX
  8
0
 10
531.5
 20
919.75
 42
0
  0
VERTEX
  8
0
 10
531.5
 20
834.75
 42
0
  0
VERTEX
  8
0
 10
541.5
 20
834.75
 42
0
  0
SEQEND
  0
POLYLINE
  8
0
 10
0
 20
0
 39
0
 70
1
 66
1
  0
VERTEX
  8
0
 10
581.5
 20
695.5
 42
-0
  0
VERTEX
  8
0
 10
581.5
 20
745.5
 42
1
  0
VERTEX
  8
0
 10
531.5
 20
745.5
 42
-0
  0
VERTEX
  8
0
 10
531.5
 20
695.5
 42
1
  0
SEQEND
  0
POLYLINE
  8
0
 10
0
 20
0
 39
0
 70
1
 66
1
  0
VERTEX
  8
0
 10
1425.25
 20
269
 42
-0
  0
VERTEX
  8
0
 10
1375.25
 20
269
 42
1
  0
VERTEX
  8
0
 10
1375.25
 20
219
 42
-0
  0
VERTEX
  8
0
 10
1425.25
 20
219
 42
1
  0
SEQEND
  0
POLYLINE
  8
0
 10
0
 20
0
 39
0
 70
1
 66
1
  0
VERTEX
  8
0
 10
1511.75
 20
981.25
 42
-0
  0
VERTEX
  8
0
 10
1461.75
 20
981.25
 42
1
  0
VERTEX
  8
0
 10
1461.75
 20
931.25
 42
-0
  0
VERTEX
  8
0
 10
1511.75
 20
931.25
 42
1
  0
SEQEND
  0
POLYLINE
  8
0
 10
0
 20
0
 39
0
 70
1
 66
1
  0
VERTEX
  8
0
 10
1539.75
 20
591.25
 42
-0
  0
VERTEX
  8
0
 10
1489.75
 20
591.25
 42
1
  0
VERTEX
  8
0
 10
1489.75
 20
541.25
 42
-0
  0
VERTEX
  8
0
 10
1539.75
 20
541.25
 42
1
  0
SEQEND
  0
POLYLINE
  8
0
 10
0
 20
0
 39
0
 70
1
 66
1
  0
VERTEX
  8
0
 10
1690.25
 20
320.75
 42
-0
  0
VERTEX
  8
0
 10
1640.25
 20
320.75
 42
1
  0
VERTEX
  8
0
 10
1640.25
 20
270.75
 42
-0
  0
VERTEX
  8
0
 10
1690.25
 20
270.75
 42
1
  0
SEQEND
  0
ENDSEC
  0
EOF
