  0
SECTION
  2
ENTITIES
  0
POLYLINE
  8
0
 10
0
 20
0
 39
0
 70
1
 66
1
  0
VERTEX
  8
0
 10
0
 20
0
 42
-0
  0
VERTEX
  8
0
 10
2000
 20
0
 42
-0
  0
VERTEX
  8
0
 10
2000
 20
1450
 42
-0
  0
VERTEX
  8
0
 10
0
 20
1450
 42
-0
  0
SEQEND
  0
POLYLINE
  8
0
 10
0
 20
0
 39
0
 70
1
 66
1
  0
VERTEX
  8
0
 10
227.05000305175781
 20
1112.85986328125
 42
1
  0
VERTEX
  8
0
 10
15.050003051757813
 20
1112.85986328125
 42
1
  0
SEQEND
  0
POLYLINE
  8
0
 10
0
 20
0
 39
0
 70
1
 66
1
  0
VERTEX
  8
0
 10
156.05000305175781
 20
1112.85986328125
 42
-1
  0
VERTEX
  8
0
 10
86.050003051757813
 20
1112.85986328125
 42
-1
  0
SEQEND
  0
POLYLINE
  8
0
 10
0
 20
0
 39
0
 70
1
 66
1
  0
VERTEX
  8
0
 10
510.04998779296875
 20
262.54998779296875
 42
1
  0
VERTEX
  8
0
 10
15.04998779296875
 20
262.54998779296875
 42
1
  0
SEQEND
  0
POLYLINE
  8
0
 10
0
 20
0
 39
0
 70
1
 66
1
  0
VERTEX
  8
0
 10
321.54998779296875
 20
262.54998779296875
 42
-1
  0
VERTEX
  8
0
 10
203.54998779296875
 20
262.54998779296875
 42
-1
  0
SEQEND
  0
POLYLINE
  8
0
 10
0
 20
0
 39
0
 70
1
 66
1
  0
VERTEX
  8
0
 10
1798.08935546875
 20
859.37896728515625
 42
0.18100099265575409
  0
VERTEX
  8
0
 10
1770.0999755859375
 20
861.08856201171875
 42
-0
  0
VERTEX
  8
0
 10
1645.780517578125
 20
823.08026123046875
 42
0.41421398520469666
  0
VERTEX
  8
0
 10
1632.5018310546875
 20
798.10675048828125
 42
-0
  0
VERTEX
  8
0
 10
1644.1497802734375
 20
760.0079345703125
 42
0.41385200619697571
  0
VERTEX
  8
0
 10
1669.0997314453125
 20
746.72210693359375
 42
-0
  0
VERTEX
  8
0
 10
1768.8106689453125
 20
777.07232666015625
 42
-0
  0
VERTEX
  8
0
 10
1953.8106689453125
 20
777.07232666015625
 42
-0
  0
VERTEX
  8
0
 10
1975.9052734375
 20
815.3411865234375
 42
0.57735002040863037
  0
VERTEX
  8
0
 10
1973.30712890625
 20
819.8411865234375
 42
-0
  0
VERTEX
  8
0
 10
1944.733642578125
 20
819.8411865234375
 42
-0
  0
VERTEX
  8
0
 10
1944.733642578125
 20
815.8411865234375
 42
-0
  0
VERTEX
  8
0
 10
1895.8106689453125
 20
815.8411865234375
 42
-0
  0
SEQEND
  0
POLYLINE
  8
0
 10
0
 20
0
 39
0
 70
1
 66
1
  0
VERTEX
  8
0
 10
510.04998779296875
 20
772.55999755859375
 42
1
  0
VERTEX
  8
0
 10
15.04998779296875
 20
772.55999755859375
 42
1
  0
SEQEND
  0
POLYLINE
  8
0
 10
0
 20
0
 39
0
 70
1
 66
1
  0
VERTEX
  8
0
 10
321.54998779296875
 20
772.55999755859375
 42
-1
  0
VERTEX
  8
0
 10
203.54998779296875
 20
772.55999755859375
 42
-1
  0
SEQEND
  0
POLYLINE
  8
0
 10
0
 20
0
 39
0
 70
1
 66
1
  0
VERTEX
  8
0
 10
1984.949951171875
 20
493.2169189453125
 42
1
  0
VERTEX
  8
0
 10
1489.949951171875
 20
493.2169189453125
 42
1
  0
SEQEND
  0
POLYLINE
  8
0
 10
0
 20
0
 39
0
 70
1
 66
1
  0
VERTEX
  8
0
 10
1796.449951171875
 20
493.2169189453125
 42
-1
  0
VERTEX
  8
0
 10
1678.449951171875
 20
493.2169189453125
 42
-1
  0
SEQEND
  0
POLYLINE
  8
0
 10
0
 20
0
 39
0
 70
1
 66
1
  0
VERTEX
  8
0
 10
806.691162109375
 20
1187.449951171875
 42
1
  0
VERTEX
  8
0
 10
311.691162109375
 20
1187.449951171875
 42
1
  0
SEQEND
  0
POLYLINE
  8
0
 10
0
 20
0
 39
0
 70
1
 66
1
  0
VERTEX
  8
0
 10
618.191162109375
 20
1187.449951171875
 42
-1
  0
VERTEX
  8
0
 10
500.191162109375
 20
1187.449951171875
 42
-1
  0
SEQEND
  0
POLYLINE
  8
0
 10
0
 20
0
 39
0
 70
1
 66
1
  0
VERTEX
  8
0
 10
1020.0599975585937
 20
262.54998779296875
 42
1
  0
VERTEX
  8
0
 10
525.05999755859375
 20
262.54998779296875
 42
1
  0
SEQEND
  0
POLYLINE
  8
0
 10
0
 20
0
 39
0
 70
1
 66
1
  0
VERTEX
  8
0
 10
831.55999755859375
 20
262.54998779296875
 42
-1
  0
VERTEX
  8
0
 10
713.55999755859375
 20
262.54998779296875
 42
-1
  0
SEQEND
  0
POLYLINE
  8
0
 10
0
 20
0
 39
0
 70
1
 66
1
  0
VERTEX
  8
0
 10
1530.0699462890625
 20
262.54998779296875
 42
1
  0
VERTEX
  8
0
 10
1035.0699462890625
 20
262.54998779296875
 42
1
  0
SEQEND
  0
POLYLINE
  8
0
 10
0
 20
0
 39
0
 70
1
 66
1
  0
VERTEX
  8
0
 10
1341.5699462890625
 20
262.54998779296875
 42
-1
  0
VERTEX
  8
0
 10
1223.5699462890625
 20
262.54998779296875
 42
-1
  0
SEQEND
  0
POLYLINE
  8
0
 10
0
 20
0
 39
0
 70
1
 66
1
  0
VERTEX
  8
0
 10
296.62750244140625
 20
1328.949951171875
 42
1
  0
VERTEX
  8
0
 10
84.627517700195313
 20
1328.949951171875
 42
1
  0
SEQEND
  0
POLYLINE
  8
0
 10
0
 20
0
 39
0
 70
1
 66
1
  0
VERTEX
  8
0
 10
225.62751770019531
 20
1328.949951171875
 42
-1
  0
VERTEX
  8
0
 10
155.62751770019531
 20
1328.949951171875
 42
-1
  0
SEQEND
  0
POLYLINE
  8
0
 10
0
 20
0
 39
0
 70
1
 66
1
  0
VERTEX
  8
0
 10
1728.869873046875
 20
121.05000305175781
 42
1
  0
VERTEX
  8
0
 10
1516.869873046875
 20
121.05000305175781
 42
1
  0
SEQEND
  0
POLYLINE
  8
0
 10
0
 20
0
 39
0
 70
1
 66
1
  0
VERTEX
  8
0
 10
1657.869873046875
 20
121.05000305175781
 42
-1
  0
VERTEX
  8
0
 10
1587.869873046875
 20
121.05000305175781
 42
-1
  0
SEQEND
  0
POLYLINE
  8
0
 10
0
 20
0
 39
0
 70
1
 66
1
  0
VERTEX
  8
0
 10
1955.919921875
 20
121.05000305175781
 42
1
  0
VERTEX
  8
0
 10
1743.919921875
 20
121.05000305175781
 42
1
  0
SEQEND
  0
POLYLINE
  8
0
 10
0
 20
0
 39
0
 70
1
 66
1
  0
VERTEX
  8
0
 10
1884.919921875
 20
121.05000305175781
 42
-1
  0
VERTEX
  8
0
 10
1814.919921875
 20
121.05000305175781
 42
-1
  0
SEQEND
  0
POLYLINE
  8
0
 10
0
 20
0
 39
0
 70
1
 66
1
  0
VERTEX
  8
0
 10
681.52996826171875
 20
577.96533203125
 42
1
  0
VERTEX
  8
0
 10
469.52996826171875
 20
577.96533203125
 42
1
  0
SEQEND
  0
POLYLINE
  8
0
 10
0
 20
0
 39
0
 70
1
 66
1
  0
VERTEX
  8
0
 10
610.52996826171875
 20
577.96533203125
 42
-1
  0
VERTEX
  8
0
 10
540.52996826171875
 20
577.96533203125
 42
-1
  0
SEQEND
  0
POLYLINE
  8
0
 10
0
 20
0
 39
0
 70
1
 66
1
  0
VERTEX
  8
0
 10
1313.9423828125
 20
624.00634765625
 42
1
  0
VERTEX
  8
0
 10
1101.9423828125
 20
624.00634765625
 42
1
  0
SEQEND
  0
POLYLINE
  8
0
 10
0
 20
0
 39
0
 70
1
 66
1
  0
VERTEX
  8
0
 10
1242.9423828125
 20
624.00634765625
 42
-1
  0
VERTEX
  8
0
 10
1172.9423828125
 20
624.00634765625
 42
-1
  0
SEQEND
  0
POLYLINE
  8
0
 10
0
 20
0
 39
0
 70
1
 66
1
  0
VERTEX
  8
0
 10
1403.9639892578125
 20
833.4056396484375
 42
1
  0
VERTEX
  8
0
 10
1191.9639892578125
 20
833.4056396484375
 42
1
  0
SEQEND
  0
POLYLINE
  8
0
 10
0
 20
0
 39
0
 70
1
 66
1
  0
VERTEX
  8
0
 10
1332.9639892578125
 20
833.4056396484375
 42
-1
  0
VERTEX
  8
0
 10
1262.9639892578125
 20
833.4056396484375
 42
-1
  0
SEQEND
  0
POLYLINE
  8
0
 10
0
 20
0
 39
0
 70
1
 66
1
  0
VERTEX
  8
0
 10
1600.2706298828125
 20
945.4739990234375
 42
1
  0
VERTEX
  8
0
 10
1388.2706298828125
 20
945.4739990234375
 42
1
  0
SEQEND
  0
POLYLINE
  8
0
 10
0
 20
0
 39
0
 70
1
 66
1
  0
VERTEX
  8
0
 10
1529.2706298828125
 20
945.4739990234375
 42
-1
  0
VERTEX
  8
0
 10
1459.2706298828125
 20
945.4739990234375
 42
-1
  0
SEQEND
  0
POLYLINE
  8
0
 10
0
 20
0
 39
0
 70
1
 66
1
  0
VERTEX
  8
0
 10
1125.59033203125
 20
788.39276123046875
 42
1
  0
VERTEX
  8
0
 10
630.59039306640625
 20
788.39276123046875
 42
1
  0
SEQEND
  0
POLYLINE
  8
0
 10
0
 20
0
 39
0
 70
1
 66
1
  0
VERTEX
  8
0
 10
937.09039306640625
 20
788.39276123046875
 42
-1
  0
VERTEX
  8
0
 10
819.09039306640625
 20
788.39276123046875
 42
-1
  0
SEQEND
  0
POLYLINE
  8
0
 10
0
 20
0
 39
0
 70
1
 66
1
  0
VERTEX
  8
0
 10
1443.2142333984375
 20
1187.4500732421875
 42
1
  0
VERTEX
  8
0
 10
948.2142333984375
 20
1187.4500732421875
 42
1
  0
SEQEND
  0
POLYLINE
  8
0
 10
0
 20
0
 39
0
 70
1
 66
1
  0
VERTEX
  8
0
 10
1254.7142333984375
 20
1187.4500732421875
 42
-1
  0
VERTEX
  8
0
 10
1136.7142333984375
 20
1187.4500732421875
 42
-1
  0
SEQEND
  0
POLYLINE
  8
0
 10
0
 20
0
 39
0
 70
1
 66
1
  0
VERTEX
  8
0
 10
1798.08935546875
 20
960.19781494140625
 42
0.18100099265575409
  0
VERTEX
  8
0
 10
1770.0999755859375
 20
961.90740966796875
 42
-0
  0
VERTEX
  8
0
 10
1645.780517578125
 20
923.89910888671875
 42
0.41421398520469666
  0
VERTEX
  8
0
 10
1632.5018310546875
 20
898.92559814453125
 42
-0
  0
VERTEX
  8
0
 10
1644.1497802734375
 20
860.8267822265625
 42
0.41385200619697571
  0
VERTEX
  8
0
 10
1669.0997314453125
 20
847.54095458984375
 42
-0
  0
VERTEX
  8
0
 10
1768.8106689453125
 20
877.89117431640625
 42
-0
  0
VERTEX
  8
0
 10
1953.8106689453125
 20
877.89117431640625
 42
-0
  0
VERTEX
  8
0
 10
1975.9052734375
 20
916.1600341796875
 42
0.57735002040863037
  0
VERTEX
  8
0
 10
1973.30712890625
 20
920.6600341796875
 42
-0
  0
VERTEX
  8
0
 10
1944.733642578125
 20
920.6600341796875
 42
-0
  0
VERTEX
  8
0
 10
1944.733642578125
 20
916.6600341796875
 42
-0
  0
VERTEX
  8
0
 10
1895.8106689453125
 20
916.6600341796875
 42
-0
  0
SEQEND
  0
POLYLINE
  8
0
 10
0
 20
0
 39
0
 70
1
 66
1
  0
VERTEX
  8
0
 10
1798.08935546875
 20
1061.0167236328125
 42
0.18100099265575409
  0
VERTEX
  8
0
 10
1770.0999755859375
 20
1062.726318359375
 42
-0
  0
VERTEX
  8
0
 10
1645.780517578125
 20
1024.718017578125
 42
0.41421398520469666
  0
VERTEX
  8
0
 10
1632.5018310546875
 20
999.7445068359375
 42
-0
  0
VERTEX
  8
0
 10
1644.1497802734375
 20
961.64569091796875
 42
0.41385200619697571
  0
VERTEX
  8
0
 10
1669.0997314453125
 20
948.35986328125
 42
-0
  0
VERTEX
  8
0
 10
1768.8106689453125
 20
978.7100830078125
 42
-0
  0
VERTEX
  8
0
 10
1953.8106689453125
 20
978.7100830078125
 42
-0
  0
VERTEX
  8
0
 10
1975.9052734375
 20
1016.9789428710937
 42
0.57735002040863037
  0
VERTEX
  8
0
 10
1973.30712890625
 20
1021.4789428710937
 42
-0
  0
VERTEX
  8
0
 10
1944.733642578125
 20
1021.4789428710937
 42
-0
  0
VERTEX
  8
0
 10
1944.733642578125
 20
1017.4789428710937
 42
-0
  0
VERTEX
  8
0
 10
1895.8106689453125
 20
1017.4789428710937
 42
-0
  0
SEQEND
  0
POLYLINE
  8
0
 10
0
 20
0
 39
0
 70
1
 66
1
  0
VERTEX
  8
0
 10
1807.7320556640625
 20
1162.2598876953125
 42
0.18100099265575409
  0
VERTEX
  8
0
 10
1779.74267578125
 20
1163.9696044921875
 42
-0
  0
VERTEX
  8
0
 10
1655.4232177734375
 20
1125.9613037109375
 42
0.41421398520469666
  0
VERTEX
  8
0
 10
1642.14453125
 20
1100.98779296875
 42
-0
  0
VERTEX
  8
0
 10
1653.79248046875
 20
1062.888916015625
 42
0.41385200619697571
  0
VERTEX
  8
0
 10
1678.742431640625
 20
1049.60302734375
 42
-0
  0
VERTEX
  8
0
 10
1778.453369140625
 20
1079.9532470703125
 42
-0
  0
VERTEX
  8
0
 10
1963.453369140625
 20
1079.9532470703125
 42
-0
  0
VERTEX
  8
0
 10
1985.5479736328125
 20
1118.22216796875
 42
0.57735002040863037
  0
VERTEX
  8
0
 10
1982.9498291015625
 20
1122.72216796875
 42
-0
  0
VERTEX
  8
0
 10
1954.3763427734375
 20
1122.72216796875
 42
-0
  0
VERTEX
  8
0
 10
1954.3763427734375
 20
1118.72216796875
 42
-0
  0
VERTEX
  8
0
 10
1905.453369140625
 20
1118.72216796875
 42
-0
  0
SEQEND
  0
POLYLINE
  8
0
 10
0
 20
0
 39
0
 70
1
 66
1
  0
VERTEX
  8
0
 10
1807.7320556640625
 20
1361.8978271484375
 42
0.18100099265575409
  0
VERTEX
  8
0
 10
1779.74267578125
 20
1363.6075439453125
 42
-0
  0
VERTEX
  8
0
 10
1655.4232177734375
 20
1325.5992431640625
 42
0.41421398520469666
  0
VERTEX
  8
0
 10
1642.14453125
 20
1300.625732421875
 42
-0
  0
VERTEX
  8
0
 10
1653.79248046875
 20
1262.52685546875
 42
0.41385200619697571
  0
VERTEX
  8
0
 10
1678.742431640625
 20
1249.240966796875
 42
-0
  0
VERTEX
  8
0
 10
1778.453369140625
 20
1279.5911865234375
 42
-0
  0
VERTEX
  8
0
 10
1963.453369140625
 20
1279.5911865234375
 42
-0
  0
VERTEX
  8
0
 10
1985.5479736328125
 20
1317.860107421875
 42
0.57735002040863037
  0
VERTEX
  8
0
 10
1982.9498291015625
 20
1322.360107421875
 42
-0
  0
VERTEX
  8
0
 10
1954.3763427734375
 20
1322.360107421875
 42
-0
  0
VERTEX
  8
0
 10
1954.3763427734375
 20
1318.360107421875
 42
-0
  0
VERTEX
  8
0
 10
1905.453369140625
 20
1318.360107421875
 42
-0
  0
SEQEND
  0
POLYLINE
  8
0
 10
0
 20
0
 39
0
 70
0
 66
1
  0
VERTEX
  8
0
 10
1609.1209716796875
 20
1328.4005126953125
 42
0.18100099265575409
  0
VERTEX
  8
0
 10
1482.4530029296875
 20
1357.6441650390625
 42
-0
  0
VERTEX
  8
0
 10
1467.464599609375
 20
1381.630615234375
 42
0.41421398520469666
  0
VERTEX
  8
0
 10
1476.426513671875
 20
1420.4490966796875
 42
-0
  0
VERTEX
  8
0
 10
1500.388916015625
 20
1435.4429931640625
 42
0.41385200619697571
  0
VERTEX
  8
0
 10
1601.97412109375
 20
1412.1221923828125
 42
-0
  0
VERTEX
  8
0
 10
1786.5234375
 20
1425.027099609375
 42
-0
  0
VERTEX
  8
0
 10
1811.233642578125
 20
1388.3927001953125
 42
-0
  0
VERTEX
  8
0
 10
1808.955810546875
 20
1383.722412109375
 42
0.57735002040863037
  0
VERTEX
  8
0
 10
1780.451904296875
 20
1381.729248046875
 42
-0
  0
VERTEX
  8
0
 10
1780.1729736328125
 20
1385.719482421875
 42
-0
  0
VERTEX
  8
0
 10
1731.369140625
 20
1382.3067626953125
 42
-0
  0
VERTEX
  8
0
 10
1636.9228515625
 20
1332.0584716796875
 42
-0
  0
VERTEX
  8
0
 10
1731.369140625
 20
1382.3067626953125
 42
0
  0
SEQEND
  0
POLYLINE
  8
0
 10
0
 20
0
 39
0
 70
1
 66
1
  0
VERTEX
  8
0
 10
1427.022705078125
 20
675.20672607421875
 42
0.18100099265575409
  0
VERTEX
  8
0
 10
1409.5682373046875
 20
653.25982666015625
 42
-0
  0
VERTEX
  8
0
 10
1369.39599609375
 20
529.62249755859375
 42
0.41421398520469666
  0
VERTEX
  8
0
 10
1382.23681640625
 20
504.42098999023437
 42
-0
  0
VERTEX
  8
0
 10
1420.12646484375
 20
492.10986328125
 42
0.41385200619697571
  0
VERTEX
  8
0
 10
1445.3203125
 20
504.92721557617187
 42
-0
  0
VERTEX
  8
0
 10
1477.6507568359375
 20
604.013916015625
 42
-0
  0
VERTEX
  8
0
 10
1583.7625732421875
 20
755.55712890625
 42
-0
  0
VERTEX
  8
0
 10
1565.08740234375
 20
795.60614013671875
 42
0.57735002040863037
  0
VERTEX
  8
0
 10
1559.9110107421875
 20
796.0589599609375
 42
-0
  0
VERTEX
  8
0
 10
1543.52197265625
 20
772.6529541015625
 42
-0
  0
VERTEX
  8
0
 10
1546.798583984375
 20
770.358642578125
 42
-0
  0
VERTEX
  8
0
 10
1518.7374267578125
 20
730.283203125
 42
-0
  0
SEQEND
  0
POLYLINE
  8
0
 10
0
 20
0
 39
0
 70
1
 66
1
  0
VERTEX
  8
0
 10
843.59930419921875
 20
1226.2093505859375
 42
0.18100099265575409
  0
VERTEX
  8
0
 10
833.7811279296875
 20
1199.94287109375
 42
-0
  0
VERTEX
  8
0
 10
833.78125
 20
1069.9427490234375
 42
0.41421398520469666
  0
VERTEX
  8
0
 10
853.78125
 20
1049.9427490234375
 42
-0
  0
VERTEX
  8
0
 10
893.620849609375
 20
1049.9427490234375
 42
0.41385200619697571
  0
VERTEX
  8
0
 10
913.620849609375
 20
1069.9180908203125
 42
-0
  0
VERTEX
  8
0
 10
913.7493896484375
 20
1174.1458740234375
 42
-0
  0
VERTEX
  8
0
 10
967.83807373046875
 20
1351.0625
 42
-0
  0
VERTEX
  8
0
 10
937.70111083984375
 20
1383.38037109375
 42
0.57735002040863037
  0
VERTEX
  8
0
 10
932.63812255859375
 20
1382.21142578125
 42
-0
  0
VERTEX
  8
0
 10
924.2840576171875
 20
1354.886474609375
 42
-0
  0
VERTEX
  8
0
 10
928.10931396484375
 20
1353.717041015625
 42
-0
  0
VERTEX
  8
0
 10
913.80560302734375
 20
1306.931640625
 42
-0
  0
SEQEND
  0
POLYLINE
  8
0
 10
0
 20
0
 39
0
 70
1
 66
1
  0
VERTEX
  8
0
 10
1807.7320556640625
 20
1262.078857421875
 42
0.18100099265575409
  0
VERTEX
  8
0
 10
1779.74267578125
 20
1263.78857421875
 42
-0
  0
VERTEX
  8
0
 10
1655.4232177734375
 20
1225.7802734375
 42
0.41421398520469666
  0
VERTEX
  8
0
 10
1642.14453125
 20
1200.8067626953125
 42
-0
  0
VERTEX
  8
0
 10
1653.79248046875
 20
1162.7078857421875
 42
0.41385200619697571
  0
VERTEX
  8
0
 10
1678.742431640625
 20
1149.4219970703125
 42
-0
  0
VERTEX
  8
0
 10
1778.453369140625
 20
1179.772216796875
 42
-0
  0
VERTEX
  8
0
 10
1963.453369140625
 20
1179.772216796875
 42
-0
  0
VERTEX
  8
0
 10
1985.5479736328125
 20
1218.0411376953125
 42
0.57735002040863037
  0
VERTEX
  8
0
 10
1982.9498291015625
 20
1222.5411376953125
 42
-0
  0
VERTEX
  8
0
 10
1954.3763427734375
 20
1222.5411376953125
 42
-0
  0
VERTEX
  8
0
 10
1954.3763427734375
 20
1218.5411376953125
 42
-0
  0
VERTEX
  8
0
 10
1905.453369140625
 20
1218.5411376953125
 42
-0
  0
SEQEND
  0
POLYLINE
  8
0
 10
0
 20
0
 39
0
 70
0
 66
1
  0
VERTEX
  8
0
 10
1591.5345458984375
 20
1207.004150390625
 42
0.18100099265575409
  0
VERTEX
  8
0
 10
1622.984375
 20
1080.8656005859375
 42
-0
  0
VERTEX
  8
0
 10
1608.4168701171875
 20
1056.6212158203125
 42
0.41421398520469666
  0
VERTEX
  8
0
 10
1569.7606201171875
 20
1046.983154296875
 42
-0
  0
VERTEX
  8
0
 10
1545.522216796875
 20
1061.5267333984375
 42
0.41385200619697571
  0
VERTEX
  8
0
 10
1520.1824951171875
 20
1162.6273193359375
 42
-0
  0
VERTEX
  8
0
 10
1424.900390625
 20
1321.20361328125
 42
-0
  0
VERTEX
  8
0
 10
1446.32373046875
 20
1359.852294921875
 42
-0
  0
VERTEX
  8
0
 10
1451.51904296875
 20
1359.9429931640625
 42
0.57735002040863037
  0
VERTEX
  8
0
 10
1466.235595703125
 20
1335.45068359375
 42
-0
  0
VERTEX
  8
0
 10
1462.806884765625
 20
1333.3905029296875
 42
-0
  0
VERTEX
  8
0
 10
1488.004150390625
 20
1291.455322265625
 42
-0
  0
VERTEX
  8
0
 10
1575.653564453125
 20
1230.1151123046875
 42
-0
  0
VERTEX
  8
0
 10
1488.004150390625
 20
1291.455322265625
 42
0
  0
SEQEND
  0
ENDSEC
  0
EOF
