  0
SECTION
  2
ENTITIES
  0
POLYLINE
  8
0
 10
0
 20
0
 39
0
 70
1
 66
1
  0
VERTEX
  8
0
 10
0
 20
0
 42
0
  0
VERTEX
  8
0
 10
2800
 20
0
 42
0
  0
VERTEX
  8
0
 10
2800
 20
1200
 42
0
  0
VERTEX
  8
0
 10
0
 20
1200
 42
0
  0
SEQEND
  0
POLYLINE
  8
0
 10
0
 20
0
 39
0
 70
1
 66
1
  0
VERTEX
  8
0
 10
10.384614944458008
 20
636.3846435546875
 42
0
  0
VERTEX
  8
0
 10
10.384614944458008
 20
10.384614944458008
 42
0
  0
VERTEX
  8
0
 10
1310.3846435546875
 20
10.384614944458008
 42
0
  0
VERTEX
  8
0
 10
1310.3846435546875
 20
636.3846435546875
 42
0
  0
SEQEND
  0
POLYLINE
  8
0
 10
0
 20
0
 39
0
 70
1
 66
1
  0
VERTEX
  8
0
 10
895.3846435546875
 20
123.38461303710937
 42
-1
  0
VERTEX
  8
0
 10
785.3846435546875
 20
123.38461303710937
 42
-1
  0
SEQEND
  0
POLYLINE
  8
0
 10
0
 20
0
 39
0
 70
1
 66
1
  0
VERTEX
  8
0
 10
895.3846435546875
 20
523.3846435546875
 42
-1
  0
VERTEX
  8
0
 10
785.3846435546875
 20
523.3846435546875
 42
-1
  0
SEQEND
  0
POLYLINE
  8
0
 10
0
 20
0
 39
0
 70
1
 66
1
  0
VERTEX
  8
0
 10
895.3846435546875
 20
323.38461303710937
 42
-1
  0
VERTEX
  8
0
 10
785.3846435546875
 20
323.38461303710937
 42
-1
  0
SEQEND
  0
POLYLINE
  8
0
 10
0
 20
0
 39
0
 70
1
 66
1
  0
VERTEX
  8
0
 10
675.3846435546875
 20
656.4154052734375
 42
-0
  0
VERTEX
  8
0
 10
675.3846435546875
 20
936.4154052734375
 42
0.41421356797218323
  0
VERTEX
  8
0
 10
665.3846435546875
 20
946.4154052734375
 42
0
  0
VERTEX
  8
0
 10
55.384616851806641
 20
946.4154052734375
 42
0.41421356797218323
  0
VERTEX
  8
0
 10
10.384614944458008
 20
901.4154052734375
 42
0
  0
VERTEX
  8
0
 10
10.384614944458008
 20
691.4154052734375
 42
0.41421356797218323
  0
VERTEX
  8
0
 10
55.384616851806641
 20
646.4154052734375
 42
0
  0
VERTEX
  8
0
 10
665.3846435546875
 20
646.4154052734375
 42
0.41421356797218323
  0
SEQEND
  0
POLYLINE
  8
0
 10
0
 20
0
 39
0
 70
1
 66
1
  0
VERTEX
  8
0
 10
55.384616851806641
 20
678.9154052734375
 42
-1
  0
VERTEX
  8
0
 10
55.384616851806641
 20
703.9154052734375
 42
-1
  0
SEQEND
  0
POLYLINE
  8
0
 10
0
 20
0
 39
0
 70
1
 66
1
  0
VERTEX
  8
0
 10
55.384616851806641
 20
888.9154052734375
 42
-1
  0
VERTEX
  8
0
 10
55.384616851806641
 20
913.9154052734375
 42
-1
  0
SEQEND
  0
POLYLINE
  8
0
 10
0
 20
0
 39
0
 70
1
 66
1
  0
VERTEX
  8
0
 10
647.8846435546875
 20
843.9154052734375
 42
-1
  0
VERTEX
  8
0
 10
647.8846435546875
 20
858.9154052734375
 42
-0
  0
VERTEX
  8
0
 10
662.8846435546875
 20
858.9154052734375
 42
-1
  0
VERTEX
  8
0
 10
662.8846435546875
 20
843.9154052734375
 42
0
  0
SEQEND
  0
POLYLINE
  8
0
 10
0
 20
0
 39
0
 70
1
 66
1
  0
VERTEX
  8
0
 10
140.38461303710937
 20
709.4154052734375
 42
-0
  0
VERTEX
  8
0
 10
140.38461303710937
 20
739.4154052734375
 42
-0
  0
VERTEX
  8
0
 10
155.38461303710937
 20
739.4154052734375
 42
0
  0
VERTEX
  8
0
 10
155.38461303710937
 20
709.4154052734375
 42
0
  0
SEQEND
  0
POLYLINE
  8
0
 10
0
 20
0
 39
0
 70
1
 66
1
  0
VERTEX
  8
0
 10
240.38461303710937
 20
709.4154052734375
 42
0
  0
VERTEX
  8
0
 10
225.38461303710937
 20
709.4154052734375
 42
-0
  0
VERTEX
  8
0
 10
225.38461303710937
 20
739.4154052734375
 42
-0
  0
VERTEX
  8
0
 10
240.38461303710937
 20
739.4154052734375
 42
0
  0
SEQEND
  0
POLYLINE
  8
0
 10
0
 20
0
 39
0
 70
1
 66
1
  0
VERTEX
  8
0
 10
140.38461303710937
 20
781.4154052734375
 42
-0
  0
VERTEX
  8
0
 10
140.38461303710937
 20
811.4154052734375
 42
-0
  0
VERTEX
  8
0
 10
155.38461303710937
 20
811.4154052734375
 42
0
  0
VERTEX
  8
0
 10
155.38461303710937
 20
781.4154052734375
 42
0
  0
SEQEND
  0
POLYLINE
  8
0
 10
0
 20
0
 39
0
 70
1
 66
1
  0
VERTEX
  8
0
 10
225.38461303710937
 20
781.4154052734375
 42
-0
  0
VERTEX
  8
0
 10
225.38461303710937
 20
811.4154052734375
 42
-0
  0
VERTEX
  8
0
 10
240.38461303710937
 20
811.4154052734375
 42
0
  0
VERTEX
  8
0
 10
240.38461303710937
 20
781.4154052734375
 42
0
  0
SEQEND
  0
POLYLINE
  8
0
 10
0
 20
0
 39
0
 70
1
 66
1
  0
VERTEX
  8
0
 10
585.3846435546875
 20
709.4154052734375
 42
-0
  0
VERTEX
  8
0
 10
585.3846435546875
 20
739.4154052734375
 42
0
  0
VERTEX
  8
0
 10
605.3846435546875
 20
724.4154052734375
 42
0
  0
SEQEND
  0
POLYLINE
  8
0
 10
0
 20
0
 39
0
 70
1
 66
1
  0
VERTEX
  8
0
 10
585.3846435546875
 20
781.4154052734375
 42
-0
  0
VERTEX
  8
0
 10
585.3846435546875
 20
811.4154052734375
 42
0
  0
VERTEX
  8
0
 10
605.3846435546875
 20
796.4154052734375
 42
0
  0
SEQEND
  0
POLYLINE
  8
0
 10
0
 20
0
 39
0
 70
1
 66
1
  0
VERTEX
  8
0
 10
647.8846435546875
 20
733.9154052734375
 42
-1
  0
VERTEX
  8
0
 10
647.8846435546875
 20
748.9154052734375
 42
-0
  0
VERTEX
  8
0
 10
662.8846435546875
 20
748.9154052734375
 42
-1
  0
VERTEX
  8
0
 10
662.8846435546875
 20
733.9154052734375
 42
0
  0
SEQEND
  0
POLYLINE
  8
0
 10
0
 20
0
 39
0
 70
1
 66
1
  0
VERTEX
  8
0
 10
225.38461303710937
 20
883.4154052734375
 42
-0
  0
VERTEX
  8
0
 10
240.38461303710937
 20
883.4154052734375
 42
0
  0
VERTEX
  8
0
 10
240.38461303710937
 20
853.4154052734375
 42
0
  0
VERTEX
  8
0
 10
225.38461303710937
 20
853.4154052734375
 42
-0
  0
SEQEND
  0
POLYLINE
  8
0
 10
0
 20
0
 39
0
 70
1
 66
1
  0
VERTEX
  8
0
 10
140.38461303710937
 20
853.4154052734375
 42
-0
  0
VERTEX
  8
0
 10
140.38461303710937
 20
883.4154052734375
 42
-0
  0
VERTEX
  8
0
 10
155.38461303710937
 20
883.4154052734375
 42
0
  0
VERTEX
  8
0
 10
155.38461303710937
 20
853.4154052734375
 42
0
  0
SEQEND
  0
POLYLINE
  8
0
 10
0
 20
0
 39
0
 70
1
 66
1
  0
VERTEX
  8
0
 10
605.3846435546875
 20
868.4154052734375
 42
0
  0
VERTEX
  8
0
 10
585.3846435546875
 20
853.4154052734375
 42
-0
  0
VERTEX
  8
0
 10
585.3846435546875
 20
883.4154052734375
 42
0
  0
SEQEND
  0
POLYLINE
  8
0
 10
0
 20
0
 39
0
 70
1
 66
1
  0
VERTEX
  8
0
 10
1350.6153564453125
 20
656.4154052734375
 42
-0
  0
VERTEX
  8
0
 10
1350.6153564453125
 20
936.4154052734375
 42
0.41421356797218323
  0
VERTEX
  8
0
 10
1340.6153564453125
 20
946.4154052734375
 42
0
  0
VERTEX
  8
0
 10
730.6153564453125
 20
946.4154052734375
 42
0.41421356797218323
  0
VERTEX
  8
0
 10
685.6153564453125
 20
901.4154052734375
 42
0
  0
VERTEX
  8
0
 10
685.6153564453125
 20
691.4154052734375
 42
0.41421356797218323
  0
VERTEX
  8
0
 10
730.6153564453125
 20
646.4154052734375
 42
0
  0
VERTEX
  8
0
 10
1340.6153564453125
 20
646.4154052734375
 42
0.41421356797218323
  0
SEQEND
  0
POLYLINE
  8
0
 10
0
 20
0
 39
0
 70
1
 66
1
  0
VERTEX
  8
0
 10
730.6153564453125
 20
678.9154052734375
 42
-1
  0
VERTEX
  8
0
 10
730.6153564453125
 20
703.9154052734375
 42
-1
  0
SEQEND
  0
POLYLINE
  8
0
 10
0
 20
0
 39
0
 70
1
 66
1
  0
VERTEX
  8
0
 10
730.6153564453125
 20
888.9154052734375
 42
-1
  0
VERTEX
  8
0
 10
730.6153564453125
 20
913.9154052734375
 42
-1
  0
SEQEND
  0
POLYLINE
  8
0
 10
0
 20
0
 39
0
 70
1
 66
1
  0
VERTEX
  8
0
 10
1323.1153564453125
 20
843.9154052734375
 42
-1
  0
VERTEX
  8
0
 10
1323.1153564453125
 20
858.9154052734375
 42
-0
  0
VERTEX
  8
0
 10
1338.1153564453125
 20
858.9154052734375
 42
-1
  0
VERTEX
  8
0
 10
1338.1153564453125
 20
843.9154052734375
 42
0
  0
SEQEND
  0
POLYLINE
  8
0
 10
0
 20
0
 39
0
 70
1
 66
1
  0
VERTEX
  8
0
 10
815.6153564453125
 20
709.4154052734375
 42
-0
  0
VERTEX
  8
0
 10
815.6153564453125
 20
739.4154052734375
 42
-0
  0
VERTEX
  8
0
 10
830.6153564453125
 20
739.4154052734375
 42
0
  0
VERTEX
  8
0
 10
830.6153564453125
 20
709.4154052734375
 42
0
  0
SEQEND
  0
POLYLINE
  8
0
 10
0
 20
0
 39
0
 70
1
 66
1
  0
VERTEX
  8
0
 10
915.6153564453125
 20
709.4154052734375
 42
0
  0
VERTEX
  8
0
 10
900.6153564453125
 20
709.4154052734375
 42
-0
  0
VERTEX
  8
0
 10
900.6153564453125
 20
739.4154052734375
 42
-0
  0
VERTEX
  8
0
 10
915.6153564453125
 20
739.4154052734375
 42
0
  0
SEQEND
  0
POLYLINE
  8
0
 10
0
 20
0
 39
0
 70
1
 66
1
  0
VERTEX
  8
0
 10
815.6153564453125
 20
781.4154052734375
 42
-0
  0
VERTEX
  8
0
 10
815.6153564453125
 20
811.4154052734375
 42
-0
  0
VERTEX
  8
0
 10
830.6153564453125
 20
811.4154052734375
 42
0
  0
VERTEX
  8
0
 10
830.6153564453125
 20
781.4154052734375
 42
0
  0
SEQEND
  0
POLYLINE
  8
0
 10
0
 20
0
 39
0
 70
1
 66
1
  0
VERTEX
  8
0
 10
900.6153564453125
 20
781.4154052734375
 42
-0
  0
VERTEX
  8
0
 10
900.6153564453125
 20
811.4154052734375
 42
-0
  0
VERTEX
  8
0
 10
915.6153564453125
 20
811.4154052734375
 42
0
  0
VERTEX
  8
0
 10
915.6153564453125
 20
781.4154052734375
 42
0
  0
SEQEND
  0
POLYLINE
  8
0
 10
0
 20
0
 39
0
 70
1
 66
1
  0
VERTEX
  8
0
 10
1260.6153564453125
 20
709.4154052734375
 42
-0
  0
VERTEX
  8
0
 10
1260.6153564453125
 20
739.4154052734375
 42
0
  0
VERTEX
  8
0
 10
1280.6153564453125
 20
724.4154052734375
 42
0
  0
SEQEND
  0
POLYLINE
  8
0
 10
0
 20
0
 39
0
 70
1
 66
1
  0
VERTEX
  8
0
 10
1260.6153564453125
 20
781.4154052734375
 42
-0
  0
VERTEX
  8
0
 10
1260.6153564453125
 20
811.4154052734375
 42
0
  0
VERTEX
  8
0
 10
1280.6153564453125
 20
796.4154052734375
 42
0
  0
SEQEND
  0
POLYLINE
  8
0
 10
0
 20
0
 39
0
 70
1
 66
1
  0
VERTEX
  8
0
 10
1323.1153564453125
 20
733.9154052734375
 42
-1
  0
VERTEX
  8
0
 10
1323.1153564453125
 20
748.9154052734375
 42
-0
  0
VERTEX
  8
0
 10
1338.1153564453125
 20
748.9154052734375
 42
-1
  0
VERTEX
  8
0
 10
1338.1153564453125
 20
733.9154052734375
 42
0
  0
SEQEND
  0
POLYLINE
  8
0
 10
0
 20
0
 39
0
 70
1
 66
1
  0
VERTEX
  8
0
 10
900.6153564453125
 20
883.4154052734375
 42
-0
  0
VERTEX
  8
0
 10
915.6153564453125
 20
883.4154052734375
 42
0
  0
VERTEX
  8
0
 10
915.6153564453125
 20
853.4154052734375
 42
0
  0
VERTEX
  8
0
 10
900.6153564453125
 20
853.4154052734375
 42
-0
  0
SEQEND
  0
POLYLINE
  8
0
 10
0
 20
0
 39
0
 70
1
 66
1
  0
VERTEX
  8
0
 10
815.6153564453125
 20
853.4154052734375
 42
-0
  0
VERTEX
  8
0
 10
815.6153564453125
 20
883.4154052734375
 42
-0
  0
VERTEX
  8
0
 10
830.6153564453125
 20
883.4154052734375
 42
0
  0
VERTEX
  8
0
 10
830.6153564453125
 20
853.4154052734375
 42
0
  0
SEQEND
  0
POLYLINE
  8
0
 10
0
 20
0
 39
0
 70
1
 66
1
  0
VERTEX
  8
0
 10
1280.6153564453125
 20
868.4154052734375
 42
0
  0
VERTEX
  8
0
 10
1260.6153564453125
 20
853.4154052734375
 42
-0
  0
VERTEX
  8
0
 10
1260.6153564453125
 20
883.4154052734375
 42
0
  0
SEQEND
  0
POLYLINE
  8
0
 10
0
 20
0
 39
0
 70
1
 66
1
  0
VERTEX
  8
0
 10
1600.78466796875
 20
510.38461303710937
 42
0
  0
VERTEX
  8
0
 10
1478.78466796875
 20
510.38461303710937
 42
-0
  0
VERTEX
  8
0
 10
1478.78466796875
 20
460.38461303710937
 42
-1
  0
VERTEX
  8
0
 10
1442.78466796875
 20
460.38461303710937
 42
0
  0
VERTEX
  8
0
 10
1442.78466796875
 20
510.38461303710937
 42
0
  0
VERTEX
  8
0
 10
1320.78466796875
 20
510.38461303710937
 42
0
  0
VERTEX
  8
0
 10
1320.78466796875
 20
10.384614944458008
 42
0
  0
VERTEX
  8
0
 10
1442.78466796875
 20
10.384614944458008
 42
0
  0
VERTEX
  8
0
 10
1442.78466796875
 20
60.384616851806641
 42
-1
  0
VERTEX
  8
0
 10
1478.78466796875
 20
60.384616851806641
 42
-0
  0
VERTEX
  8
0
 10
1478.78466796875
 20
10.384614944458008
 42
0
  0
VERTEX
  8
0
 10
1600.78466796875
 20
10.384614944458008
 42
0
  0
SEQEND
  0
POLYLINE
  8
0
 10
0
 20
0
 39
0
 70
1
 66
1
  0
VERTEX
  8
0
 10
1640.84619140625
 20
1020.4154052734375
 42
0
  0
VERTEX
  8
0
 10
1518.84619140625
 20
1020.4154052734375
 42
-0
  0
VERTEX
  8
0
 10
1518.84619140625
 20
970.4154052734375
 42
-1
  0
VERTEX
  8
0
 10
1482.84619140625
 20
970.4154052734375
 42
0
  0
VERTEX
  8
0
 10
1482.84619140625
 20
1020.4154052734375
 42
0
  0
VERTEX
  8
0
 10
1360.84619140625
 20
1020.4154052734375
 42
0
  0
VERTEX
  8
0
 10
1360.84619140625
 20
520.4154052734375
 42
0
  0
VERTEX
  8
0
 10
1482.84619140625
 20
520.4154052734375
 42
0
  0
VERTEX
  8
0
 10
1482.84619140625
 20
570.4154052734375
 42
-1
  0
VERTEX
  8
0
 10
1518.84619140625
 20
570.4154052734375
 42
-0
  0
VERTEX
  8
0
 10
1518.84619140625
 20
520.4154052734375
 42
0
  0
VERTEX
  8
0
 10
1640.84619140625
 20
520.4154052734375
 42
0
  0
SEQEND
  0
POLYLINE
  8
0
 10
0
 20
0
 39
0
 70
1
 66
1
  0
VERTEX
  8
0
 10
1891.123046875
 20
510.38461303710937
 42
0
  0
VERTEX
  8
0
 10
1769.123046875
 20
510.38461303710937
 42
-0
  0
VERTEX
  8
0
 10
1769.123046875
 20
460.38461303710937
 42
-1
  0
VERTEX
  8
0
 10
1733.123046875
 20
460.38461303710937
 42
0
  0
VERTEX
  8
0
 10
1733.123046875
 20
510.38461303710937
 42
0
  0
VERTEX
  8
0
 10
1611.123046875
 20
510.38461303710937
 42
0
  0
VERTEX
  8
0
 10
1611.123046875
 20
10.384614944458008
 42
0
  0
VERTEX
  8
0
 10
1733.123046875
 20
10.384614944458008
 42
0
  0
VERTEX
  8
0
 10
1733.123046875
 20
60.384616851806641
 42
-1
  0
VERTEX
  8
0
 10
1769.123046875
 20
60.384616851806641
 42
-0
  0
VERTEX
  8
0
 10
1769.123046875
 20
10.384614944458008
 42
0
  0
VERTEX
  8
0
 10
1891.123046875
 20
10.384614944458008
 42
0
  0
SEQEND
  0
POLYLINE
  8
0
 10
0
 20
0
 39
0
 70
1
 66
1
  0
VERTEX
  8
0
 10
1962.49462890625
 20
520.4154052734375
 42
-0
  0
VERTEX
  8
0
 10
1962.49462890625
 20
610.48931884765625
 42
-0.04366094246506691
  0
VERTEX
  8
0
 10
1962.646484375
 20
612.22576904296875
 42
-0
  0
VERTEX
  8
0
 10
1978.772216796875
 20
703.67889404296875
 42
0.087488666176795959
  0
VERTEX
  8
0
 10
1978.772216796875
 20
707.15191650390625
 42
-0
  0
VERTEX
  8
0
 10
1946.151611328125
 20
892.15191650390625
 42
0.36397022008895874
  0
VERTEX
  8
0
 10
1936.3037109375
 20
900.41534423828125
 42
-0
  0
VERTEX
  8
0
 10
1880.294677734375
 20
900.41534423828125
 42
0.41421356797218323
  0
VERTEX
  8
0
 10
1870.294677734375
 20
890.41534423828125
 42
-0
  0
VERTEX
  8
0
 10
1870.294677734375
 20
770.93267822265625
 42
-0.19104065001010895
  0
VERTEX
  8
0
 10
1863.772216796875
 20
754.48468017578125
 42
-0
  0
VERTEX
  8
0
 10
1786.01708984375
 20
671.86346435546875
 42
0.65726464986801147
  0
VERTEX
  8
0
 10
1803.49462890625
 20
631.41534423828125
 42
-0
  0
VERTEX
  8
0
 10
1828.49462890625
 20
631.41534423828125
 42
-0.41421356797218323
  0
VERTEX
  8
0
 10
1852.49462890625
 20
607.41534423828125
 42
-0
  0
VERTEX
  8
0
 10
1852.49462890625
 20
520.4154052734375
 42
-0
  0
SEQEND
  0
POLYLINE
  8
0
 10
0
 20
0
 39
0
 70
1
 66
1
  0
VERTEX
  8
0
 10
1907.49462890625
 20
652.91534423828125
 42
-1
  0
VERTEX
  8
0
 10
1907.49462890625
 20
757.91534423828125
 42
-1
  0
SEQEND
  0
POLYLINE
  8
0
 10
0
 20
0
 39
0
 70
1
 66
1
  0
VERTEX
  8
0
 10
1872.49462890625
 20
557.41534423828125
 42
-1
  0
VERTEX
  8
0
 10
1872.49462890625
 20
573.41534423828125
 42
-1
  0
SEQEND
  0
POLYLINE
  8
0
 10
0
 20
0
 39
0
 70
1
 66
1
  0
VERTEX
  8
0
 10
1884.49462890625
 20
852.41534423828125
 42
-1
  0
VERTEX
  8
0
 10
1884.49462890625
 20
868.41534423828125
 42
-1
  0
SEQEND
  0
POLYLINE
  8
0
 10
0
 20
0
 39
0
 70
1
 66
1
  0
VERTEX
  8
0
 10
1836.49462890625
 20
669.41534423828125
 42
-1
  0
VERTEX
  8
0
 10
1836.49462890625
 20
685.41534423828125
 42
-1
  0
SEQEND
  0
POLYLINE
  8
0
 10
0
 20
0
 39
0
 70
1
 66
1
  0
VERTEX
  8
0
 10
1907.49462890625
 20
587.41534423828125
 42
-1
  0
VERTEX
  8
0
 10
1907.49462890625
 20
603.41534423828125
 42
-1
  0
SEQEND
  0
POLYLINE
  8
0
 10
0
 20
0
 39
0
 70
1
 66
1
  0
VERTEX
  8
0
 10
1907.49462890625
 20
807.41534423828125
 42
-1
  0
VERTEX
  8
0
 10
1907.49462890625
 20
823.41534423828125
 42
-1
  0
SEQEND
  0
POLYLINE
  8
0
 10
0
 20
0
 39
0
 70
1
 66
1
  0
VERTEX
  8
0
 10
1667.6141357421875
 20
900.41534423828125
 42
-0
  0
VERTEX
  8
0
 10
1667.6141357421875
 20
810.3414306640625
 42
-0.04366094246506691
  0
VERTEX
  8
0
 10
1667.4622802734375
 20
808.60498046875
 42
-0
  0
VERTEX
  8
0
 10
1651.3365478515625
 20
717.15185546875
 42
0.087488666176795959
  0
VERTEX
  8
0
 10
1651.3365478515625
 20
713.6788330078125
 42
-0
  0
VERTEX
  8
0
 10
1683.9571533203125
 20
528.6788330078125
 42
0.36397022008895874
  0
VERTEX
  8
0
 10
1693.8050537109375
 20
520.4154052734375
 42
-0
  0
VERTEX
  8
0
 10
1749.8140869140625
 20
520.4154052734375
 42
0.41421356797218323
  0
VERTEX
  8
0
 10
1759.8140869140625
 20
530.4154052734375
 42
-0
  0
VERTEX
  8
0
 10
1759.8140869140625
 20
649.8980712890625
 42
-0.19104065001010895
  0
VERTEX
  8
0
 10
1766.3365478515625
 20
666.3460693359375
 42
-0
  0
VERTEX
  8
0
 10
1844.0916748046875
 20
748.96728515625
 42
0.65726464986801147
  0
VERTEX
  8
0
 10
1826.6141357421875
 20
789.4154052734375
 42
-0
  0
VERTEX
  8
0
 10
1801.6141357421875
 20
789.4154052734375
 42
-0.41421356797218323
  0
VERTEX
  8
0
 10
1777.6141357421875
 20
813.4154052734375
 42
-0
  0
VERTEX
  8
0
 10
1777.6141357421875
 20
900.41534423828125
 42
-0
  0
SEQEND
  0
POLYLINE
  8
0
 10
0
 20
0
 39
0
 70
1
 66
1
  0
VERTEX
  8
0
 10
1722.6141357421875
 20
767.9154052734375
 42
-1
  0
VERTEX
  8
0
 10
1722.6141357421875
 20
662.9154052734375
 42
-1
  0
SEQEND
  0
POLYLINE
  8
0
 10
0
 20
0
 39
0
 70
1
 66
1
  0
VERTEX
  8
0
 10
1757.6141357421875
 20
863.4154052734375
 42
-1
  0
VERTEX
  8
0
 10
1757.6141357421875
 20
847.4154052734375
 42
-1
  0
SEQEND
  0
POLYLINE
  8
0
 10
0
 20
0
 39
0
 70
1
 66
1
  0
VERTEX
  8
0
 10
1745.6141357421875
 20
568.4154052734375
 42
-1
  0
VERTEX
  8
0
 10
1745.6141357421875
 20
552.4154052734375
 42
-1
  0
SEQEND
  0
POLYLINE
  8
0
 10
0
 20
0
 39
0
 70
1
 66
1
  0
VERTEX
  8
0
 10
1793.6141357421875
 20
751.4154052734375
 42
-1
  0
VERTEX
  8
0
 10
1793.6141357421875
 20
735.4154052734375
 42
-1
  0
SEQEND
  0
POLYLINE
  8
0
 10
0
 20
0
 39
0
 70
1
 66
1
  0
VERTEX
  8
0
 10
1722.6141357421875
 20
833.4154052734375
 42
-1
  0
VERTEX
  8
0
 10
1722.6141357421875
 20
817.4154052734375
 42
-1
  0
SEQEND
  0
POLYLINE
  8
0
 10
0
 20
0
 39
0
 70
1
 66
1
  0
VERTEX
  8
0
 10
1722.6141357421875
 20
613.4154052734375
 42
-1
  0
VERTEX
  8
0
 10
1722.6141357421875
 20
597.4154052734375
 42
-1
  0
SEQEND
  0
POLYLINE
  8
0
 10
0
 20
0
 39
0
 70
1
 66
1
  0
VERTEX
  8
0
 10
2212.771484375
 20
10.384614944458008
 42
-0
  0
VERTEX
  8
0
 10
2212.771484375
 20
100.45852661132812
 42
-0.04366094246506691
  0
VERTEX
  8
0
 10
2212.92333984375
 20
102.19497680664062
 42
-0
  0
VERTEX
  8
0
 10
2229.049072265625
 20
193.64810180664062
 42
0.087488666176795959
  0
VERTEX
  8
0
 10
2229.049072265625
 20
197.12112426757813
 42
-0
  0
VERTEX
  8
0
 10
2196.428466796875
 20
382.12112426757812
 42
0.36397022008895874
  0
VERTEX
  8
0
 10
2186.58056640625
 20
390.38455200195312
 42
-0
  0
VERTEX
  8
0
 10
2130.571533203125
 20
390.38455200195312
 42
0.41421356797218323
  0
VERTEX
  8
0
 10
2120.571533203125
 20
380.38455200195312
 42
-0
  0
VERTEX
  8
0
 10
2120.571533203125
 20
260.90188598632812
 42
-0.19104065001010895
  0
VERTEX
  8
0
 10
2114.049072265625
 20
244.45388793945313
 42
-0
  0
VERTEX
  8
0
 10
2036.2940673828125
 20
161.83267211914063
 42
0.65726464986801147
  0
VERTEX
  8
0
 10
2053.771484375
 20
121.38455200195312
 42
-0
  0
VERTEX
  8
0
 10
2078.771484375
 20
121.38455200195312
 42
-0.41421356797218323
  0
VERTEX
  8
0
 10
2102.771484375
 20
97.384552001953125
 42
-0
  0
VERTEX
  8
0
 10
2102.771484375
 20
10.384614944458008
 42
-0
  0
SEQEND
  0
POLYLINE
  8
0
 10
0
 20
0
 39
0
 70
1
 66
1
  0
VERTEX
  8
0
 10
2157.771484375
 20
142.88455200195312
 42
-1
  0
VERTEX
  8
0
 10
2157.771484375
 20
247.88455200195312
 42
-1
  0
SEQEND
  0
POLYLINE
  8
0
 10
0
 20
0
 39
0
 70
1
 66
1
  0
VERTEX
  8
0
 10
2122.771484375
 20
47.384555816650391
 42
-1
  0
VERTEX
  8
0
 10
2122.771484375
 20
63.384555816650391
 42
-1
  0
SEQEND
  0
POLYLINE
  8
0
 10
0
 20
0
 39
0
 70
1
 66
1
  0
VERTEX
  8
0
 10
2134.771484375
 20
342.38455200195312
 42
-1
  0
VERTEX
  8
0
 10
2134.771484375
 20
358.38455200195313
 42
-1
  0
SEQEND
  0
POLYLINE
  8
0
 10
0
 20
0
 39
0
 70
1
 66
1
  0
VERTEX
  8
0
 10
2086.771484375
 20
159.38455200195312
 42
-1
  0
VERTEX
  8
0
 10
2086.771484375
 20
175.38455200195312
 42
-1
  0
SEQEND
  0
POLYLINE
  8
0
 10
0
 20
0
 39
0
 70
1
 66
1
  0
VERTEX
  8
0
 10
2157.771484375
 20
77.384552001953125
 42
-1
  0
VERTEX
  8
0
 10
2157.771484375
 20
93.384552001953125
 42
-1
  0
SEQEND
  0
POLYLINE
  8
0
 10
0
 20
0
 39
0
 70
1
 66
1
  0
VERTEX
  8
0
 10
2157.771484375
 20
297.38455200195312
 42
-1
  0
VERTEX
  8
0
 10
2157.771484375
 20
313.38455200195312
 42
-1
  0
SEQEND
  0
POLYLINE
  8
0
 10
0
 20
0
 39
0
 70
1
 66
1
  0
VERTEX
  8
0
 10
1917.8909912109375
 20
390.38455200195312
 42
-0
  0
VERTEX
  8
0
 10
1917.8909912109375
 20
300.31063842773437
 42
-0.04366094246506691
  0
VERTEX
  8
0
 10
1917.7391357421875
 20
298.57418823242187
 42
-0
  0
VERTEX
  8
0
 10
1901.6134033203125
 20
207.12106323242187
 42
0.087488666176795959
  0
VERTEX
  8
0
 10
1901.6134033203125
 20
203.64804077148437
 42
-0
  0
VERTEX
  8
0
 10
1934.2340087890625
 20
18.648042678833008
 42
0.36397022008895874
  0
VERTEX
  8
0
 10
1944.0819091796875
 20
10.384614944458008
 42
-0
  0
VERTEX
  8
0
 10
2000.0909423828125
 20
10.384614944458008
 42
0.41421356797218323
  0
VERTEX
  8
0
 10
2010.0909423828125
 20
20.384614944458008
 42
-0
  0
VERTEX
  8
0
 10
2010.0909423828125
 20
139.86727905273438
 42
-0.19104065001010895
  0
VERTEX
  8
0
 10
2016.6134033203125
 20
156.31527709960937
 42
-0
  0
VERTEX
  8
0
 10
2094.36865234375
 20
238.93649291992187
 42
0.65726464986801147
  0
VERTEX
  8
0
 10
2076.89111328125
 20
279.38461303710938
 42
-0
  0
VERTEX
  8
0
 10
2051.89111328125
 20
279.38461303710938
 42
-0.41421356797218323
  0
VERTEX
  8
0
 10
2027.8909912109375
 20
303.38461303710937
 42
-0
  0
VERTEX
  8
0
 10
2027.8909912109375
 20
390.38455200195312
 42
-0
  0
SEQEND
  0
POLYLINE
  8
0
 10
0
 20
0
 39
0
 70
1
 66
1
  0
VERTEX
  8
0
 10
1972.8909912109375
 20
257.88461303710937
 42
-1
  0
VERTEX
  8
0
 10
1972.8909912109375
 20
152.88461303710937
 42
-1
  0
SEQEND
  0
POLYLINE
  8
0
 10
0
 20
0
 39
0
 70
1
 66
1
  0
VERTEX
  8
0
 10
2007.8909912109375
 20
353.38461303710937
 42
-1
  0
VERTEX
  8
0
 10
2007.8909912109375
 20
337.38461303710937
 42
-1
  0
SEQEND
  0
POLYLINE
  8
0
 10
0
 20
0
 39
0
 70
1
 66
1
  0
VERTEX
  8
0
 10
1995.8909912109375
 20
58.384616851806641
 42
-1
  0
VERTEX
  8
0
 10
1995.8909912109375
 20
42.384616851806641
 42
-1
  0
SEQEND
  0
POLYLINE
  8
0
 10
0
 20
0
 39
0
 70
1
 66
1
  0
VERTEX
  8
0
 10
2043.8909912109375
 20
241.38461303710937
 42
-1
  0
VERTEX
  8
0
 10
2043.8909912109375
 20
225.38461303710937
 42
-1
  0
SEQEND
  0
POLYLINE
  8
0
 10
0
 20
0
 39
0
 70
1
 66
1
  0
VERTEX
  8
0
 10
1972.8909912109375
 20
323.38461303710937
 42
-1
  0
VERTEX
  8
0
 10
1972.8909912109375
 20
307.38461303710938
 42
-1
  0
SEQEND
  0
POLYLINE
  8
0
 10
0
 20
0
 39
0
 70
1
 66
1
  0
VERTEX
  8
0
 10
1972.8909912109375
 20
103.38461303710937
 42
-1
  0
VERTEX
  8
0
 10
1972.8909912109375
 20
87.384613037109375
 42
-1
  0
SEQEND
  0
POLYLINE
  8
0
 10
0
 20
0
 39
0
 70
1
 66
1
  0
VERTEX
  8
0
 10
2248.74072265625
 20
809.03076171875
 42
-0
  0
VERTEX
  8
0
 10
2248.74072265625
 20
899.10467529296875
 42
-0.04366094246506691
  0
VERTEX
  8
0
 10
2248.892578125
 20
900.84112548828125
 42
-0
  0
VERTEX
  8
0
 10
2265.018310546875
 20
992.29425048828125
 42
0.087488666176795959
  0
VERTEX
  8
0
 10
2265.018310546875
 20
995.76727294921875
 42
-0
  0
VERTEX
  8
0
 10
2232.397705078125
 20
1180.767333984375
 42
0.36397022008895874
  0
VERTEX
  8
0
 10
2222.5498046875
 20
1189.03076171875
 42
-0
  0
VERTEX
  8
0
 10
2166.540771484375
 20
1189.03076171875
 42
0.41421356797218323
  0
VERTEX
  8
0
 10
2156.540771484375
 20
1179.03076171875
 42
-0
  0
VERTEX
  8
0
 10
2156.540771484375
 20
1059.548095703125
 42
-0.19104065001010895
  0
VERTEX
  8
0
 10
2150.018310546875
 20
1043.10009765625
 42
-0
  0
VERTEX
  8
0
 10
2072.26318359375
 20
960.47882080078125
 42
0.65726464986801147
  0
VERTEX
  8
0
 10
2089.74072265625
 20
920.03070068359375
 42
-0
  0
VERTEX
  8
0
 10
2114.74072265625
 20
920.03070068359375
 42
-0.41421356797218323
  0
VERTEX
  8
0
 10
2138.74072265625
 20
896.03070068359375
 42
-0
  0
VERTEX
  8
0
 10
2138.74072265625
 20
809.03076171875
 42
-0
  0
SEQEND
  0
POLYLINE
  8
0
 10
0
 20
0
 39
0
 70
1
 66
1
  0
VERTEX
  8
0
 10
2193.74072265625
 20
941.53070068359375
 42
-1
  0
VERTEX
  8
0
 10
2193.74072265625
 20
1046.53076171875
 42
-1
  0
SEQEND
  0
POLYLINE
  8
0
 10
0
 20
0
 39
0
 70
1
 66
1
  0
VERTEX
  8
0
 10
2158.74072265625
 20
846.03070068359375
 42
-1
  0
VERTEX
  8
0
 10
2158.74072265625
 20
862.03070068359375
 42
-1
  0
SEQEND
  0
POLYLINE
  8
0
 10
0
 20
0
 39
0
 70
1
 66
1
  0
VERTEX
  8
0
 10
2170.74072265625
 20
1141.03076171875
 42
-1
  0
VERTEX
  8
0
 10
2170.74072265625
 20
1157.03076171875
 42
-1
  0
SEQEND
  0
POLYLINE
  8
0
 10
0
 20
0
 39
0
 70
1
 66
1
  0
VERTEX
  8
0
 10
2122.74072265625
 20
958.03070068359375
 42
-1
  0
VERTEX
  8
0
 10
2122.74072265625
 20
974.03070068359375
 42
-1
  0
SEQEND
  0
POLYLINE
  8
0
 10
0
 20
0
 39
0
 70
1
 66
1
  0
VERTEX
  8
0
 10
2193.74072265625
 20
876.03070068359375
 42
-1
  0
VERTEX
  8
0
 10
2193.74072265625
 20
892.03070068359375
 42
-1
  0
SEQEND
  0
POLYLINE
  8
0
 10
0
 20
0
 39
0
 70
1
 66
1
  0
VERTEX
  8
0
 10
2193.74072265625
 20
1096.03076171875
 42
-1
  0
VERTEX
  8
0
 10
2193.74072265625
 20
1112.03076171875
 42
-1
  0
SEQEND
  0
POLYLINE
  8
0
 10
0
 20
0
 39
0
 70
1
 66
1
  0
VERTEX
  8
0
 10
1953.8602294921875
 20
1189.03076171875
 42
-0
  0
VERTEX
  8
0
 10
1953.8602294921875
 20
1098.956787109375
 42
-0.04366094246506691
  0
VERTEX
  8
0
 10
1953.7083740234375
 20
1097.2203369140625
 42
-0
  0
VERTEX
  8
0
 10
1937.5826416015625
 20
1005.7672119140625
 42
0.087488666176795959
  0
VERTEX
  8
0
 10
1937.5826416015625
 20
1002.294189453125
 42
-0
  0
VERTEX
  8
0
 10
1970.2032470703125
 20
817.294189453125
 42
0.36397022008895874
  0
VERTEX
  8
0
 10
1980.0511474609375
 20
809.03076171875
 42
-0
  0
VERTEX
  8
0
 10
2036.0601806640625
 20
809.03076171875
 42
0.41421356797218323
  0
VERTEX
  8
0
 10
2046.0601806640625
 20
819.03076171875
 42
-0
  0
VERTEX
  8
0
 10
2046.0601806640625
 20
938.513427734375
 42
-0.19104065001010895
  0
VERTEX
  8
0
 10
2052.582763671875
 20
954.96142578125
 42
-0
  0
VERTEX
  8
0
 10
2130.337890625
 20
1037.5826416015625
 42
0.65726464986801147
  0
VERTEX
  8
0
 10
2112.8603515625
 20
1078.03076171875
 42
-0
  0
VERTEX
  8
0
 10
2087.8603515625
 20
1078.03076171875
 42
-0.41421356797218323
  0
VERTEX
  8
0
 10
2063.8603515625
 20
1102.03076171875
 42
-0
  0
VERTEX
  8
0
 10
2063.8603515625
 20
1189.03076171875
 42
-0
  0
SEQEND
  0
POLYLINE
  8
0
 10
0
 20
0
 39
0
 70
1
 66
1
  0
VERTEX
  8
0
 10
2008.8602294921875
 20
1056.53076171875
 42
-1
  0
VERTEX
  8
0
 10
2008.8602294921875
 20
951.53076171875
 42
-1
  0
SEQEND
  0
POLYLINE
  8
0
 10
0
 20
0
 39
0
 70
1
 66
1
  0
VERTEX
  8
0
 10
2043.8602294921875
 20
1152.03076171875
 42
-1
  0
VERTEX
  8
0
 10
2043.8602294921875
 20
1136.03076171875
 42
-1
  0
SEQEND
  0
POLYLINE
  8
0
 10
0
 20
0
 39
0
 70
1
 66
1
  0
VERTEX
  8
0
 10
2031.8602294921875
 20
857.03076171875
 42
-1
  0
VERTEX
  8
0
 10
2031.8602294921875
 20
841.03076171875
 42
-1
  0
SEQEND
  0
POLYLINE
  8
0
 10
0
 20
0
 39
0
 70
1
 66
1
  0
VERTEX
  8
0
 10
2079.8603515625
 20
1040.03076171875
 42
-1
  0
VERTEX
  8
0
 10
2079.8603515625
 20
1024.03076171875
 42
-1
  0
SEQEND
  0
POLYLINE
  8
0
 10
0
 20
0
 39
0
 70
1
 66
1
  0
VERTEX
  8
0
 10
2008.8602294921875
 20
1122.03076171875
 42
-1
  0
VERTEX
  8
0
 10
2008.8602294921875
 20
1106.03076171875
 42
-1
  0
SEQEND
  0
POLYLINE
  8
0
 10
0
 20
0
 39
0
 70
1
 66
1
  0
VERTEX
  8
0
 10
2008.8602294921875
 20
902.03076171875
 42
-1
  0
VERTEX
  8
0
 10
2008.8602294921875
 20
886.03076171875
 42
-1
  0
SEQEND
  0
POLYLINE
  8
0
 10
0
 20
0
 39
0
 70
1
 66
1
  0
VERTEX
  8
0
 10
580.3846435546875
 20
956.5692138671875
 42
0
  0
VERTEX
  8
0
 10
580.3846435546875
 20
1166.5692138671875
 42
0
  0
VERTEX
  8
0
 10
10.384614944458008
 20
1166.5692138671875
 42
0
  0
VERTEX
  8
0
 10
10.384614944458008
 20
956.5692138671875
 42
0
  0
SEQEND
  0
POLYLINE
  8
0
 10
0
 20
0
 39
0
 70
1
 66
1
  0
VERTEX
  8
0
 10
95.384613037109375
 20
1003.5692138671875
 42
-1
  0
VERTEX
  8
0
 10
95.384613037109375
 20
1119.5692138671875
 42
-1
  0
SEQEND
  0
POLYLINE
  8
0
 10
0
 20
0
 39
0
 70
1
 66
1
  0
VERTEX
  8
0
 10
95.384613037109375
 20
969.0692138671875
 42
-1
  0
VERTEX
  8
0
 10
95.384613037109375
 20
989.0692138671875
 42
-1
  0
SEQEND
  0
POLYLINE
  8
0
 10
0
 20
0
 39
0
 70
1
 66
1
  0
VERTEX
  8
0
 10
95.384613037109375
 20
1134.0692138671875
 42
-1
  0
VERTEX
  8
0
 10
95.384613037109375
 20
1154.0692138671875
 42
-1
  0
SEQEND
  0
POLYLINE
  8
0
 10
0
 20
0
 39
0
 70
1
 66
1
  0
VERTEX
  8
0
 10
495.38461303710937
 20
1003.5692138671875
 42
-1
  0
VERTEX
  8
0
 10
495.38461303710937
 20
1119.5692138671875
 42
-1
  0
SEQEND
  0
POLYLINE
  8
0
 10
0
 20
0
 39
0
 70
1
 66
1
  0
VERTEX
  8
0
 10
295.38461303710937
 20
1003.5692138671875
 42
-1
  0
VERTEX
  8
0
 10
295.38461303710937
 20
1119.5692138671875
 42
-1
  0
SEQEND
  0
POLYLINE
  8
0
 10
0
 20
0
 39
0
 70
1
 66
1
  0
VERTEX
  8
0
 10
295.38461303710937
 20
969.0692138671875
 42
-1
  0
VERTEX
  8
0
 10
295.38461303710937
 20
989.0692138671875
 42
-1
  0
SEQEND
  0
POLYLINE
  8
0
 10
0
 20
0
 39
0
 70
1
 66
1
  0
VERTEX
  8
0
 10
295.38461303710937
 20
1134.0692138671875
 42
-1
  0
VERTEX
  8
0
 10
295.38461303710937
 20
1154.0692138671875
 42
-1
  0
SEQEND
  0
POLYLINE
  8
0
 10
0
 20
0
 39
0
 70
1
 66
1
  0
VERTEX
  8
0
 10
495.38461303710937
 20
969.0692138671875
 42
-1
  0
VERTEX
  8
0
 10
495.38461303710937
 20
989.0692138671875
 42
-1
  0
SEQEND
  0
POLYLINE
  8
0
 10
0
 20
0
 39
0
 70
1
 66
1
  0
VERTEX
  8
0
 10
495.38461303710937
 20
1134.0692138671875
 42
-1
  0
VERTEX
  8
0
 10
495.38461303710937
 20
1154.0692138671875
 42
-1
  0
SEQEND
  0
POLYLINE
  8
0
 10
0
 20
0
 39
0
 70
1
 66
1
  0
VERTEX
  8
0
 10
1160.6307373046875
 20
956.5692138671875
 42
0
  0
VERTEX
  8
0
 10
1160.6307373046875
 20
1166.5692138671875
 42
0
  0
VERTEX
  8
0
 10
590.63079833984375
 20
1166.5692138671875
 42
0
  0
VERTEX
  8
0
 10
590.63079833984375
 20
956.5692138671875
 42
0
  0
SEQEND
  0
POLYLINE
  8
0
 10
0
 20
0
 39
0
 70
1
 66
1
  0
VERTEX
  8
0
 10
675.63079833984375
 20
1003.5692138671875
 42
-1
  0
VERTEX
  8
0
 10
675.63079833984375
 20
1119.5692138671875
 42
-1
  0
SEQEND
  0
POLYLINE
  8
0
 10
0
 20
0
 39
0
 70
1
 66
1
  0
VERTEX
  8
0
 10
675.63079833984375
 20
969.0692138671875
 42
-1
  0
VERTEX
  8
0
 10
675.63079833984375
 20
989.0692138671875
 42
-1
  0
SEQEND
  0
POLYLINE
  8
0
 10
0
 20
0
 39
0
 70
1
 66
1
  0
VERTEX
  8
0
 10
675.63079833984375
 20
1134.0692138671875
 42
-1
  0
VERTEX
  8
0
 10
675.63079833984375
 20
1154.0692138671875
 42
-1
  0
SEQEND
  0
POLYLINE
  8
0
 10
0
 20
0
 39
0
 70
1
 66
1
  0
VERTEX
  8
0
 10
1075.6307373046875
 20
1003.5692138671875
 42
-1
  0
VERTEX
  8
0
 10
1075.6307373046875
 20
1119.5692138671875
 42
-1
  0
SEQEND
  0
POLYLINE
  8
0
 10
0
 20
0
 39
0
 70
1
 66
1
  0
VERTEX
  8
0
 10
875.63079833984375
 20
1003.5692138671875
 42
-1
  0
VERTEX
  8
0
 10
875.63079833984375
 20
1119.5692138671875
 42
-1
  0
SEQEND
  0
POLYLINE
  8
0
 10
0
 20
0
 39
0
 70
1
 66
1
  0
VERTEX
  8
0
 10
875.63079833984375
 20
969.0692138671875
 42
-1
  0
VERTEX
  8
0
 10
875.63079833984375
 20
989.0692138671875
 42
-1
  0
SEQEND
  0
POLYLINE
  8
0
 10
0
 20
0
 39
0
 70
1
 66
1
  0
VERTEX
  8
0
 10
875.63079833984375
 20
1134.0692138671875
 42
-1
  0
VERTEX
  8
0
 10
875.63079833984375
 20
1154.0692138671875
 42
-1
  0
SEQEND
  0
POLYLINE
  8
0
 10
0
 20
0
 39
0
 70
1
 66
1
  0
VERTEX
  8
0
 10
1075.6307373046875
 20
969.0692138671875
 42
-1
  0
VERTEX
  8
0
 10
1075.6307373046875
 20
989.0692138671875
 42
-1
  0
SEQEND
  0
POLYLINE
  8
0
 10
0
 20
0
 39
0
 70
1
 66
1
  0
VERTEX
  8
0
 10
1075.6307373046875
 20
1134.0692138671875
 42
-1
  0
VERTEX
  8
0
 10
1075.6307373046875
 20
1154.0692138671875
 42
-1
  0
SEQEND
  0
POLYLINE
  8
0
 10
0
 20
0
 39
0
 70
1
 66
1
  0
VERTEX
  8
0
 10
2444.230712890625
 20
798.13848876953125
 42
0
  0
VERTEX
  8
0
 10
2234.230712890625
 20
798.13848876953125
 42
0
  0
VERTEX
  8
0
 10
2234.230712890625
 20
228.13845825195312
 42
0
  0
VERTEX
  8
0
 10
2444.230712890625
 20
228.13845825195312
 42
0
  0
SEQEND
  0
POLYLINE
  8
0
 10
0
 20
0
 39
0
 70
1
 66
1
  0
VERTEX
  8
0
 10
2397.230712890625
 20
313.13845825195312
 42
-1
  0
VERTEX
  8
0
 10
2281.230712890625
 20
313.13845825195312
 42
-1
  0
SEQEND
  0
POLYLINE
  8
0
 10
0
 20
0
 39
0
 70
1
 66
1
  0
VERTEX
  8
0
 10
2431.730712890625
 20
313.13845825195312
 42
-1
  0
VERTEX
  8
0
 10
2411.730712890625
 20
313.13845825195312
 42
-1
  0
SEQEND
  0
POLYLINE
  8
0
 10
0
 20
0
 39
0
 70
1
 66
1
  0
VERTEX
  8
0
 10
2266.730712890625
 20
313.13845825195312
 42
-1
  0
VERTEX
  8
0
 10
2246.730712890625
 20
313.13845825195312
 42
-1
  0
SEQEND
  0
POLYLINE
  8
0
 10
0
 20
0
 39
0
 70
1
 66
1
  0
VERTEX
  8
0
 10
2397.230712890625
 20
713.13848876953125
 42
-1
  0
VERTEX
  8
0
 10
2281.230712890625
 20
713.13848876953125
 42
-1
  0
SEQEND
  0
POLYLINE
  8
0
 10
0
 20
0
 39
0
 70
1
 66
1
  0
VERTEX
  8
0
 10
2397.230712890625
 20
513.13848876953125
 42
-1
  0
VERTEX
  8
0
 10
2281.230712890625
 20
513.13848876953125
 42
-1
  0
SEQEND
  0
POLYLINE
  8
0
 10
0
 20
0
 39
0
 70
1
 66
1
  0
VERTEX
  8
0
 10
2431.730712890625
 20
513.13848876953125
 42
-1
  0
VERTEX
  8
0
 10
2411.730712890625
 20
513.13848876953125
 42
-1
  0
SEQEND
  0
POLYLINE
  8
0
 10
0
 20
0
 39
0
 70
1
 66
1
  0
VERTEX
  8
0
 10
2266.730712890625
 20
513.13848876953125
 42
-1
  0
VERTEX
  8
0
 10
2246.730712890625
 20
513.13848876953125
 42
-1
  0
SEQEND
  0
POLYLINE
  8
0
 10
0
 20
0
 39
0
 70
1
 66
1
  0
VERTEX
  8
0
 10
2431.730712890625
 20
713.13848876953125
 42
-1
  0
VERTEX
  8
0
 10
2411.730712890625
 20
713.13848876953125
 42
-1
  0
SEQEND
  0
POLYLINE
  8
0
 10
0
 20
0
 39
0
 70
1
 66
1
  0
VERTEX
  8
0
 10
2266.730712890625
 20
713.13848876953125
 42
-1
  0
VERTEX
  8
0
 10
2246.730712890625
 20
713.13848876953125
 42
-1
  0
SEQEND
  0
POLYLINE
  8
0
 10
0
 20
0
 39
0
 70
1
 66
1
  0
VERTEX
  8
0
 10
2664.5693359375
 20
580.3846435546875
 42
0
  0
VERTEX
  8
0
 10
2454.5693359375
 20
580.3846435546875
 42
0
  0
VERTEX
  8
0
 10
2454.5693359375
 20
10.384614944458008
 42
0
  0
VERTEX
  8
0
 10
2664.5693359375
 20
10.384614944458008
 42
0
  0
SEQEND
  0
POLYLINE
  8
0
 10
0
 20
0
 39
0
 70
1
 66
1
  0
VERTEX
  8
0
 10
2617.5693359375
 20
95.384613037109375
 42
-1
  0
VERTEX
  8
0
 10
2501.5693359375
 20
95.384613037109375
 42
-1
  0
SEQEND
  0
POLYLINE
  8
0
 10
0
 20
0
 39
0
 70
1
 66
1
  0
VERTEX
  8
0
 10
2652.0693359375
 20
95.384613037109375
 42
-1
  0
VERTEX
  8
0
 10
2632.0693359375
 20
95.384613037109375
 42
-1
  0
SEQEND
  0
POLYLINE
  8
0
 10
0
 20
0
 39
0
 70
1
 66
1
  0
VERTEX
  8
0
 10
2487.0693359375
 20
95.384613037109375
 42
-1
  0
VERTEX
  8
0
 10
2467.0693359375
 20
95.384613037109375
 42
-1
  0
SEQEND
  0
POLYLINE
  8
0
 10
0
 20
0
 39
0
 70
1
 66
1
  0
VERTEX
  8
0
 10
2617.5693359375
 20
495.38461303710937
 42
-1
  0
VERTEX
  8
0
 10
2501.5693359375
 20
495.38461303710937
 42
-1
  0
SEQEND
  0
POLYLINE
  8
0
 10
0
 20
0
 39
0
 70
1
 66
1
  0
VERTEX
  8
0
 10
2617.5693359375
 20
295.38461303710937
 42
-1
  0
VERTEX
  8
0
 10
2501.5693359375
 20
295.38461303710937
 42
-1
  0
SEQEND
  0
POLYLINE
  8
0
 10
0
 20
0
 39
0
 70
1
 66
1
  0
VERTEX
  8
0
 10
2652.0693359375
 20
295.38461303710937
 42
-1
  0
VERTEX
  8
0
 10
2632.0693359375
 20
295.38461303710937
 42
-1
  0
SEQEND
  0
POLYLINE
  8
0
 10
0
 20
0
 39
0
 70
1
 66
1
  0
VERTEX
  8
0
 10
2487.0693359375
 20
295.38461303710937
 42
-1
  0
VERTEX
  8
0
 10
2467.0693359375
 20
295.38461303710937
 42
-1
  0
SEQEND
  0
POLYLINE
  8
0
 10
0
 20
0
 39
0
 70
1
 66
1
  0
VERTEX
  8
0
 10
2652.0693359375
 20
495.38461303710937
 42
-1
  0
VERTEX
  8
0
 10
2632.0693359375
 20
495.38461303710937
 42
-1
  0
SEQEND
  0
POLYLINE
  8
0
 10
0
 20
0
 39
0
 70
1
 66
1
  0
VERTEX
  8
0
 10
2487.0693359375
 20
495.38461303710937
 42
-1
  0
VERTEX
  8
0
 10
2467.0693359375
 20
495.38461303710937
 42
-1
  0
SEQEND
  0
POLYLINE
  8
0
 10
0
 20
0
 39
0
 70
1
 66
1
  0
VERTEX
  8
0
 10
2664.5693359375
 20
1160.4154052734375
 42
0
  0
VERTEX
  8
0
 10
2454.5693359375
 20
1160.4154052734375
 42
0
  0
VERTEX
  8
0
 10
2454.5693359375
 20
590.4154052734375
 42
0
  0
VERTEX
  8
0
 10
2664.5693359375
 20
590.4154052734375
 42
0
  0
SEQEND
  0
POLYLINE
  8
0
 10
0
 20
0
 39
0
 70
1
 66
1
  0
VERTEX
  8
0
 10
2617.5693359375
 20
675.4154052734375
 42
-1
  0
VERTEX
  8
0
 10
2501.5693359375
 20
675.4154052734375
 42
-1
  0
SEQEND
  0
POLYLINE
  8
0
 10
0
 20
0
 39
0
 70
1
 66
1
  0
VERTEX
  8
0
 10
2652.0693359375
 20
675.4154052734375
 42
-1
  0
VERTEX
  8
0
 10
2632.0693359375
 20
675.4154052734375
 42
-1
  0
SEQEND
  0
POLYLINE
  8
0
 10
0
 20
0
 39
0
 70
1
 66
1
  0
VERTEX
  8
0
 10
2487.0693359375
 20
675.4154052734375
 42
-1
  0
VERTEX
  8
0
 10
2467.0693359375
 20
675.4154052734375
 42
-1
  0
SEQEND
  0
POLYLINE
  8
0
 10
0
 20
0
 39
0
 70
1
 66
1
  0
VERTEX
  8
0
 10
2617.5693359375
 20
1075.4154052734375
 42
-1
  0
VERTEX
  8
0
 10
2501.5693359375
 20
1075.4154052734375
 42
-1
  0
SEQEND
  0
POLYLINE
  8
0
 10
0
 20
0
 39
0
 70
1
 66
1
  0
VERTEX
  8
0
 10
2617.5693359375
 20
875.4154052734375
 42
-1
  0
VERTEX
  8
0
 10
2501.5693359375
 20
875.4154052734375
 42
-1
  0
SEQEND
  0
POLYLINE
  8
0
 10
0
 20
0
 39
0
 70
1
 66
1
  0
VERTEX
  8
0
 10
2652.0693359375
 20
875.4154052734375
 42
-1
  0
VERTEX
  8
0
 10
2632.0693359375
 20
875.4154052734375
 42
-1
  0
SEQEND
  0
POLYLINE
  8
0
 10
0
 20
0
 39
0
 70
1
 66
1
  0
VERTEX
  8
0
 10
2487.0693359375
 20
875.4154052734375
 42
-1
  0
VERTEX
  8
0
 10
2467.0693359375
 20
875.4154052734375
 42
-1
  0
SEQEND
  0
POLYLINE
  8
0
 10
0
 20
0
 39
0
 70
1
 66
1
  0
VERTEX
  8
0
 10
2652.0693359375
 20
1075.4154052734375
 42
-1
  0
VERTEX
  8
0
 10
2632.0693359375
 20
1075.4154052734375
 42
-1
  0
SEQEND
  0
POLYLINE
  8
0
 10
0
 20
0
 39
0
 70
1
 66
1
  0
VERTEX
  8
0
 10
2487.0693359375
 20
1075.4154052734375
 42
-1
  0
VERTEX
  8
0
 10
2467.0693359375
 20
1075.4154052734375
 42
-1
  0
SEQEND
  0
POLYLINE
  8
0
 10
0
 20
0
 39
0
 70
1
 66
1
  0
VERTEX
  8
0
 10
2674.90771484375
 20
10.384614944458008
 42
-0
  0
VERTEX
  8
0
 10
2748.614013671875
 20
10.384614944458008
 42
-0
  0
VERTEX
  8
0
 10
2781.90771484375
 20
43.678268432617188
 42
0
  0
VERTEX
  8
0
 10
2781.90771484375
 20
89.879463195800781
 42
-0
  0
VERTEX
  8
0
 10
2762.958984375
 20
104.86206817626953
 42
-0
  0
VERTEX
  8
0
 10
2781.90771484375
 20
125.63294982910156
 42
0
  0
VERTEX
  8
0
 10
2781.90771484375
 20
281.27059936523437
 42
-0
  0
VERTEX
  8
0
 10
2762.958984375
 20
294.66336059570312
 42
-0
  0
VERTEX
  8
0
 10
2781.90771484375
 20
314.58920288085938
 42
0
  0
VERTEX
  8
0
 10
2781.90771484375
 20
586.1800537109375
 42
0
  0
VERTEX
  8
0
 10
2762.958984375
 20
606.10589599609375
 42
0
  0
VERTEX
  8
0
 10
2781.90771484375
 20
619.4986572265625
 42
0
  0
VERTEX
  8
0
 10
2781.90771484375
 20
775.13629150390625
 42
0
  0
VERTEX
  8
0
 10
2762.958984375
 20
795.90716552734375
 42
0
  0
VERTEX
  8
0
 10
2781.90771484375
 20
810.8897705078125
 42
0
  0
VERTEX
  8
0
 10
2781.90771484375
 20
857.09100341796875
 42
0
  0
VERTEX
  8
0
 10
2748.614013671875
 20
890.3846435546875
 42
0
  0
VERTEX
  8
0
 10
2674.90771484375
 20
890.3846435546875
 42
0
  0
VERTEX
  8
0
 10
2674.90771484375
 20
696.92755126953125
 42
0
  0
VERTEX
  8
0
 10
2706.624267578125
 20
677.99969482421875
 42
0
  0
VERTEX
  8
0
 10
2674.90771484375
 20
663.056640625
 42
0
  0
VERTEX
  8
0
 10
2674.90771484375
 20
473.23291015625
 42
0
  0
VERTEX
  8
0
 10
2706.624267578125
 20
450.38461303710937
 42
-0
  0
VERTEX
  8
0
 10
2674.90771484375
 20
427.53631591796875
 42
0
  0
VERTEX
  8
0
 10
2674.90771484375
 20
237.71258544921875
 42
-0
  0
VERTEX
  8
0
 10
2706.624267578125
 20
222.76956176757812
 42
-0
  0
VERTEX
  8
0
 10
2674.90771484375
 20
203.84172058105469
 42
0
  0
SEQEND
  0
POLYLINE
  8
0
 10
0
 20
0
 39
0
 70
1
 66
1
  0
VERTEX
  8
0
 10
2728.40771484375
 20
28.960367202758789
 42
-1
  0
VERTEX
  8
0
 10
2728.40771484375
 20
68.960365295410156
 42
-1
  0
SEQEND
  0
POLYLINE
  8
0
 10
0
 20
0
 39
0
 70
1
 66
1
  0
VERTEX
  8
0
 10
2728.40771484375
 20
351.39700317382812
 42
-1
  0
VERTEX
  8
0
 10
2728.40771484375
 20
375.39700317382812
 42
-1
  0
SEQEND
  0
POLYLINE
  8
0
 10
0
 20
0
 39
0
 70
1
 66
1
  0
VERTEX
  8
0
 10
2728.40771484375
 20
831.80889892578125
 42
-1
  0
VERTEX
  8
0
 10
2728.40771484375
 20
871.80889892578125
 42
-1
  0
SEQEND
  0
POLYLINE
  8
0
 10
0
 20
0
 39
0
 70
1
 66
1
  0
VERTEX
  8
0
 10
2728.40771484375
 20
525.37225341796875
 42
-1
  0
VERTEX
  8
0
 10
2728.40771484375
 20
549.37225341796875
 42
-1
  0
SEQEND
  0
POLYLINE
  8
0
 10
0
 20
0
 39
0
 70
1
 66
1
  0
VERTEX
  8
0
 10
1715.4349365234375
 20
1045.145751953125
 42
-0
  0
VERTEX
  8
0
 10
1827.934326171875
 20
1101.83154296875
 42
0.28324300050735474
  0
VERTEX
  8
0
 10
1836.1845703125
 20
1115.22705078125
 42
-0
  0
VERTEX
  8
0
 10
1836.1845703125
 20
1130.9886474609375
 42
-0
  0
VERTEX
  8
0
 10
1717.1845703125
 20
1130.9886474609375
 42
-0.41421398520469666
  0
VERTEX
  8
0
 10
1707.1845703125
 20
1140.9886474609375
 42
1
  0
VERTEX
  8
0
 10
1651.1845703125
 20
1140.9886474609375
 42
-0
  0
VERTEX
  8
0
 10
1651.1845703125
 20
1015.9886474609375
 42
1
  0
VERTEX
  8
0
 10
1707.1845703125
 20
1015.9886474609375
 42
-0
  0
VERTEX
  8
0
 10
1707.1845703125
 20
1031.750244140625
 42
-0.28324300050735474
  0
SEQEND
  0
POLYLINE
  8
0
 10
0
 20
0
 39
0
 70
1
 66
1
  0
VERTEX
  8
0
 10
1679.1845703125
 20
1003.9886474609375
 42
-1
  0
VERTEX
  8
0
 10
1679.1845703125
 20
1027.9886474609375
 42
-1
  0
SEQEND
  0
POLYLINE
  8
0
 10
0
 20
0
 39
0
 70
1
 66
1
  0
VERTEX
  8
0
 10
1679.1845703125
 20
1128.9886474609375
 42
-1
  0
VERTEX
  8
0
 10
1679.1845703125
 20
1152.9886474609375
 42
-1
  0
SEQEND
  0
POLYLINE
  8
0
 10
0
 20
0
 39
0
 70
1
 66
1
  0
VERTEX
  8
0
 10
1771.934326171875
 20
1019.8890380859375
 42
-0
  0
VERTEX
  8
0
 10
1659.4349365234375
 20
963.20330810546875
 42
0.28324300050735474
  0
VERTEX
  8
0
 10
1651.1845703125
 20
949.80767822265625
 42
-0
  0
VERTEX
  8
0
 10
1651.1845703125
 20
934.046142578125
 42
-0
  0
VERTEX
  8
0
 10
1770.1845703125
 20
934.046142578125
 42
-0.41421398520469666
  0
VERTEX
  8
0
 10
1780.1845703125
 20
924.046142578125
 42
1
  0
VERTEX
  8
0
 10
1836.1845703125
 20
924.046142578125
 42
-0
  0
VERTEX
  8
0
 10
1836.1845703125
 20
1049.046142578125
 42
1
  0
VERTEX
  8
0
 10
1780.1845703125
 20
1049.046142578125
 42
-0
  0
VERTEX
  8
0
 10
1780.1845703125
 20
1033.2845458984375
 42
-0.28324300050735474
  0
SEQEND
  0
POLYLINE
  8
0
 10
0
 20
0
 39
0
 70
1
 66
1
  0
VERTEX
  8
0
 10
1808.1845703125
 20
1061.046142578125
 42
-1
  0
VERTEX
  8
0
 10
1808.1845703125
 20
1037.046142578125
 42
-1
  0
SEQEND
  0
POLYLINE
  8
0
 10
0
 20
0
 39
0
 70
1
 66
1
  0
VERTEX
  8
0
 10
1808.1845703125
 20
936.046142578125
 42
-1
  0
VERTEX
  8
0
 10
1808.1845703125
 20
912.046142578125
 42
-1
  0
SEQEND
  0
POLYLINE
  8
0
 10
0
 20
0
 39
0
 70
1
 66
1
  0
VERTEX
  8
0
 10
1170.876953125
 20
1110.4461669921875
 42
0
  0
VERTEX
  8
0
 10
1170.876953125
 20
1030.4461669921875
 42
0
  0
VERTEX
  8
0
 10
1607.876953125
 20
1030.4461669921875
 42
0
  0
VERTEX
  8
0
 10
1607.876953125
 20
1110.4461669921875
 42
0
  0
SEQEND
  0
POLYLINE
  8
0
 10
0
 20
0
 39
0
 70
1
 66
1
  0
VERTEX
  8
0
 10
1591.376953125
 20
1081.9461669921875
 42
-1
  0
VERTEX
  8
0
 10
1580.376953125
 20
1081.9461669921875
 42
-1
  0
SEQEND
  0
POLYLINE
  8
0
 10
0
 20
0
 39
0
 70
1
 66
1
  0
VERTEX
  8
0
 10
1591.376953125
 20
1058.9461669921875
 42
-1
  0
VERTEX
  8
0
 10
1580.376953125
 20
1058.9461669921875
 42
-1
  0
SEQEND
  0
POLYLINE
  8
0
 10
0
 20
0
 39
0
 70
1
 66
1
  0
VERTEX
  8
0
 10
1184.876953125
 20
1083.4461669921875
 42
-1
  0
VERTEX
  8
0
 10
1184.876953125
 20
1097.4461669921875
 42
-0
  0
VERTEX
  8
0
 10
1200.876953125
 20
1097.4461669921875
 42
-1
  0
VERTEX
  8
0
 10
1200.876953125
 20
1083.4461669921875
 42
0
  0
SEQEND
  0
POLYLINE
  8
0
 10
0
 20
0
 39
0
 70
1
 66
1
  0
VERTEX
  8
0
 10
1240.876953125
 20
1097.4461669921875
 42
-1
  0
VERTEX
  8
0
 10
1240.876953125
 20
1083.4461669921875
 42
0
  0
VERTEX
  8
0
 10
1224.876953125
 20
1083.4461669921875
 42
-1
  0
VERTEX
  8
0
 10
1224.876953125
 20
1097.4461669921875
 42
-0
  0
SEQEND
  0
POLYLINE
  8
0
 10
0
 20
0
 39
0
 70
1
 66
1
  0
VERTEX
  8
0
 10
1200.876953125
 20
1057.4461669921875
 42
-1
  0
VERTEX
  8
0
 10
1200.876953125
 20
1043.4461669921875
 42
0
  0
VERTEX
  8
0
 10
1184.876953125
 20
1043.4461669921875
 42
-1
  0
VERTEX
  8
0
 10
1184.876953125
 20
1057.4461669921875
 42
-0
  0
SEQEND
  0
POLYLINE
  8
0
 10
0
 20
0
 39
0
 70
1
 66
1
  0
VERTEX
  8
0
 10
1224.876953125
 20
1043.4461669921875
 42
-1
  0
VERTEX
  8
0
 10
1224.876953125
 20
1057.4461669921875
 42
-0
  0
VERTEX
  8
0
 10
1240.876953125
 20
1057.4461669921875
 42
-1
  0
VERTEX
  8
0
 10
1240.876953125
 20
1043.4461669921875
 42
0
  0
SEQEND
  0
POLYLINE
  8
0
 10
0
 20
0
 39
0
 70
1
 66
1
  0
VERTEX
  8
0
 10
1977.5384521484375
 20
460.10769653320312
 42
-0
  0
VERTEX
  8
0
 10
2062.90478515625
 20
368.47479248046875
 42
0.26658442616462708
  0
VERTEX
  8
0
 10
2081.9287109375
 20
362.59548950195312
 42
0
  0
VERTEX
  8
0
 10
2097.53857421875
 20
366.10769653320312
 42
0
  0
VERTEX
  8
0
 10
2074.53857421875
 20
484.10769653320312
 42
-0
  0
VERTEX
  8
0
 10
2074.53857421875
 20
516.10772705078125
 42
-0
  0
VERTEX
  8
0
 10
2097.53857421875
 20
634.10772705078125
 42
-0
  0
VERTEX
  8
0
 10
2081.9287109375
 20
637.619873046875
 42
0.26658442616462708
  0
VERTEX
  8
0
 10
2062.90478515625
 20
631.7406005859375
 42
0
  0
VERTEX
  8
0
 10
1977.5384521484375
 20
540.10772705078125
 42
-0
  0
VERTEX
  8
0
 10
1972.5384521484375
 20
516.10772705078125
 42
0
  0
VERTEX
  8
0
 10
1972.5384521484375
 20
484.10769653320312
 42
-0
  0
SEQEND
  0
POLYLINE
  8
0
 10
0
 20
0
 39
0
 70
1
 66
1
  0
VERTEX
  8
0
 10
2002.5384521484375
 20
510.10769653320312
 42
-1
  0
VERTEX
  8
0
 10
2002.5384521484375
 20
490.10769653320312
 42
-1
  0
SEQEND
  0
POLYLINE
  8
0
 10
0
 20
0
 39
0
 70
1
 66
1
  0
VERTEX
  8
0
 10
2205.1845703125
 20
659
 42
-0
  0
VERTEX
  8
0
 10
2119.818359375
 20
750.6329345703125
 42
0.26658442616462708
  0
VERTEX
  8
0
 10
2100.79443359375
 20
756.51220703125
 42
0
  0
VERTEX
  8
0
 10
2085.1845703125
 20
753
 42
0
  0
VERTEX
  8
0
 10
2108.1845703125
 20
635
 42
-0
  0
VERTEX
  8
0
 10
2108.1845703125
 20
603
 42
-0
  0
VERTEX
  8
0
 10
2085.1845703125
 20
485
 42
-0
  0
VERTEX
  8
0
 10
2100.79443359375
 20
481.48779296875
 42
0.26658442616462708
  0
VERTEX
  8
0
 10
2119.818359375
 20
487.36709594726562
 42
0
  0
VERTEX
  8
0
 10
2205.1845703125
 20
579
 42
-0
  0
VERTEX
  8
0
 10
2210.1845703125
 20
603
 42
0
  0
VERTEX
  8
0
 10
2210.1845703125
 20
635
 42
-0
  0
SEQEND
  0
POLYLINE
  8
0
 10
0
 20
0
 39
0
 70
1
 66
1
  0
VERTEX
  8
0
 10
2180.1845703125
 20
609
 42
-1
  0
VERTEX
  8
0
 10
2180.1845703125
 20
629
 42
-1
  0
SEQEND
  0
POLYLINE
  8
0
 10
0
 20
0
 39
0
 70
1
 66
1
  0
VERTEX
  8
0
 10
2295.722412109375
 20
111.44641876220703
 42
-0
  0
VERTEX
  8
0
 10
2377.523193359375
 20
15.644400596618652
 42
0.28324300050735474
  0
VERTEX
  8
0
 10
2392.495849609375
 20
10.814486503601074
 42
-0
  0
VERTEX
  8
0
 10
2407.8056640625
 20
14.560784339904785
 42
-0
  0
VERTEX
  8
0
 10
2379.52099609375
 20
130.15049743652344
 42
-0.41421398520469666
  0
VERTEX
  8
0
 10
2386.857666015625
 20
142.24076843261719
 42
1
  0
VERTEX
  8
0
 10
2373.547119140625
 20
196.63592529296875
 42
-0
  0
VERTEX
  8
0
 10
2252.12939453125
 20
166.92518615722656
 42
1
  0
VERTEX
  8
0
 10
2265.43994140625
 20
112.53003692626953
 42
-0
  0
VERTEX
  8
0
 10
2280.749755859375
 20
116.27633666992187
 42
-0.28324300050735474
  0
SEQEND
  0
POLYLINE
  8
0
 10
0
 20
0
 39
0
 70
1
 66
1
  0
VERTEX
  8
0
 10
2247.12841796875
 20
136.87538146972656
 42
-1
  0
VERTEX
  8
0
 10
2270.440673828125
 20
142.57984924316406
 42
-1
  0
SEQEND
  0
POLYLINE
  8
0
 10
0
 20
0
 39
0
 70
1
 66
1
  0
VERTEX
  8
0
 10
2368.54638671875
 20
166.58612060546875
 42
-1
  0
VERTEX
  8
0
 10
2391.8583984375
 20
172.29058837890625
 42
-1
  0
SEQEND
  0
POLYLINE
  8
0
 10
0
 20
0
 39
0
 70
1
 66
1
  0
VERTEX
  8
0
 10
1846.5384521484375
 20
915.4769287109375
 42
0
  0
VERTEX
  8
0
 10
1851.5384521484375
 20
910.4769287109375
 42
0
  0
VERTEX
  8
0
 10
1911.5384521484375
 20
910.4769287109375
 42
-0
  0
VERTEX
  8
0
 10
1916.5384521484375
 20
915.4769287109375
 42
0
  0
VERTEX
  8
0
 10
1916.5384521484375
 20
1065.4769287109375
 42
-0
  0
VERTEX
  8
0
 10
1911.5384521484375
 20
1070.4769287109375
 42
0
  0
VERTEX
  8
0
 10
1851.5384521484375
 20
1070.4769287109375
 42
-0
  0
VERTEX
  8
0
 10
1846.5384521484375
 20
1065.4769287109375
 42
0
  0
SEQEND
  0
POLYLINE
  8
0
 10
0
 20
0
 39
0
 70
1
 66
1
  0
VERTEX
  8
0
 10
1881.5384521484375
 20
981.4769287109375
 42
-1
  0
VERTEX
  8
0
 10
1881.5384521484375
 20
999.4769287109375
 42
-1
  0
SEQEND
  0
POLYLINE
  8
0
 10
0
 20
0
 39
0
 70
1
 66
1
  0
VERTEX
  8
0
 10
1881.5384521484375
 20
921.7269287109375
 42
-1
  0
VERTEX
  8
0
 10
1881.5384521484375
 20
959.2269287109375
 42
-1
  0
SEQEND
  0
POLYLINE
  8
0
 10
0
 20
0
 39
0
 70
1
 66
1
  0
VERTEX
  8
0
 10
1881.5384521484375
 20
1021.7269287109375
 42
-1
  0
VERTEX
  8
0
 10
1881.5384521484375
 20
1059.2269287109375
 42
-1
  0
SEQEND
  0
POLYLINE
  8
0
 10
0
 20
0
 39
0
 70
1
 66
1
  0
VERTEX
  8
0
 10
1989.3385009765625
 20
643.015380859375
 42
0
  0
VERTEX
  8
0
 10
1994.3385009765625
 20
638.015380859375
 42
0
  0
VERTEX
  8
0
 10
2054.33837890625
 20
638.015380859375
 42
-0
  0
VERTEX
  8
0
 10
2059.33837890625
 20
643.015380859375
 42
0
  0
VERTEX
  8
0
 10
2059.33837890625
 20
793.015380859375
 42
-0
  0
VERTEX
  8
0
 10
2054.33837890625
 20
798.015380859375
 42
0
  0
VERTEX
  8
0
 10
1994.3385009765625
 20
798.015380859375
 42
-0
  0
VERTEX
  8
0
 10
1989.3385009765625
 20
793.015380859375
 42
0
  0
SEQEND
  0
POLYLINE
  8
0
 10
0
 20
0
 39
0
 70
1
 66
1
  0
VERTEX
  8
0
 10
2024.3385009765625
 20
709.015380859375
 42
-1
  0
VERTEX
  8
0
 10
2024.3385009765625
 20
727.015380859375
 42
-1
  0
SEQEND
  0
POLYLINE
  8
0
 10
0
 20
0
 39
0
 70
1
 66
1
  0
VERTEX
  8
0
 10
2024.3385009765625
 20
649.265380859375
 42
-1
  0
VERTEX
  8
0
 10
2024.3385009765625
 20
686.765380859375
 42
-1
  0
SEQEND
  0
POLYLINE
  8
0
 10
0
 20
0
 39
0
 70
1
 66
1
  0
VERTEX
  8
0
 10
2024.3385009765625
 20
749.265380859375
 42
-1
  0
VERTEX
  8
0
 10
2024.3385009765625
 20
786.765380859375
 42
-1
  0
SEQEND
  0
POLYLINE
  8
0
 10
0
 20
0
 39
0
 70
1
 66
1
  0
VERTEX
  8
0
 10
2268.90771484375
 20
1034.15380859375
 42
0
  0
VERTEX
  8
0
 10
2273.90771484375
 20
1029.15380859375
 42
0
  0
VERTEX
  8
0
 10
2333.90771484375
 20
1029.15380859375
 42
-0
  0
VERTEX
  8
0
 10
2338.90771484375
 20
1034.15380859375
 42
0
  0
VERTEX
  8
0
 10
2338.90771484375
 20
1184.15380859375
 42
-0
  0
VERTEX
  8
0
 10
2333.90771484375
 20
1189.15380859375
 42
0
  0
VERTEX
  8
0
 10
2273.90771484375
 20
1189.15380859375
 42
-0
  0
VERTEX
  8
0
 10
2268.90771484375
 20
1184.15380859375
 42
0
  0
SEQEND
  0
POLYLINE
  8
0
 10
0
 20
0
 39
0
 70
1
 66
1
  0
VERTEX
  8
0
 10
2303.90771484375
 20
1100.15380859375
 42
-1
  0
VERTEX
  8
0
 10
2303.90771484375
 20
1118.15380859375
 42
-1
  0
SEQEND
  0
POLYLINE
  8
0
 10
0
 20
0
 39
0
 70
1
 66
1
  0
VERTEX
  8
0
 10
2303.90771484375
 20
1040.40380859375
 42
-1
  0
VERTEX
  8
0
 10
2303.90771484375
 20
1077.90380859375
 42
-1
  0
SEQEND
  0
POLYLINE
  8
0
 10
0
 20
0
 39
0
 70
1
 66
1
  0
VERTEX
  8
0
 10
2303.90771484375
 20
1140.40380859375
 42
-1
  0
VERTEX
  8
0
 10
2303.90771484375
 20
1177.90380859375
 42
-1
  0
SEQEND
  0
POLYLINE
  8
0
 10
0
 20
0
 39
0
 70
1
 66
1
  0
VERTEX
  8
0
 10
2270.630859375
 20
813.16925048828125
 42
0
  0
VERTEX
  8
0
 10
2275.630859375
 20
808.16925048828125
 42
0
  0
VERTEX
  8
0
 10
2335.630859375
 20
808.16925048828125
 42
-0
  0
VERTEX
  8
0
 10
2340.630859375
 20
813.16925048828125
 42
0
  0
VERTEX
  8
0
 10
2340.630859375
 20
963.16925048828125
 42
-0
  0
VERTEX
  8
0
 10
2335.630859375
 20
968.16925048828125
 42
0
  0
VERTEX
  8
0
 10
2275.630859375
 20
968.16925048828125
 42
-0
  0
VERTEX
  8
0
 10
2270.630859375
 20
963.16925048828125
 42
0
  0
SEQEND
  0
POLYLINE
  8
0
 10
0
 20
0
 39
0
 70
1
 66
1
  0
VERTEX
  8
0
 10
2305.630859375
 20
879.16925048828125
 42
-1
  0
VERTEX
  8
0
 10
2305.630859375
 20
897.16925048828125
 42
-1
  0
SEQEND
  0
POLYLINE
  8
0
 10
0
 20
0
 39
0
 70
1
 66
1
  0
VERTEX
  8
0
 10
2305.630859375
 20
819.41925048828125
 42
-1
  0
VERTEX
  8
0
 10
2305.630859375
 20
856.91925048828125
 42
-1
  0
SEQEND
  0
POLYLINE
  8
0
 10
0
 20
0
 39
0
 70
1
 66
1
  0
VERTEX
  8
0
 10
2305.630859375
 20
919.41925048828125
 42
-1
  0
VERTEX
  8
0
 10
2305.630859375
 20
956.91925048828125
 42
-1
  0
SEQEND
  0
POLYLINE
  8
0
 10
0
 20
0
 39
0
 70
1
 66
1
  0
VERTEX
  8
0
 10
2349.24609375
 20
969.32305908203125
 42
0
  0
VERTEX
  8
0
 10
2354.24609375
 20
964.32305908203125
 42
0
  0
VERTEX
  8
0
 10
2414.24609375
 20
964.32305908203125
 42
-0
  0
VERTEX
  8
0
 10
2419.24609375
 20
969.32305908203125
 42
0
  0
VERTEX
  8
0
 10
2419.24609375
 20
1119.3231201171875
 42
-0
  0
VERTEX
  8
0
 10
2414.24609375
 20
1124.3231201171875
 42
0
  0
VERTEX
  8
0
 10
2354.24609375
 20
1124.3231201171875
 42
-0
  0
VERTEX
  8
0
 10
2349.24609375
 20
1119.3231201171875
 42
0
  0
SEQEND
  0
POLYLINE
  8
0
 10
0
 20
0
 39
0
 70
1
 66
1
  0
VERTEX
  8
0
 10
2384.24609375
 20
1035.3231201171875
 42
-1
  0
VERTEX
  8
0
 10
2384.24609375
 20
1053.3231201171875
 42
-1
  0
SEQEND
  0
POLYLINE
  8
0
 10
0
 20
0
 39
0
 70
1
 66
1
  0
VERTEX
  8
0
 10
2384.24609375
 20
975.57305908203125
 42
-1
  0
VERTEX
  8
0
 10
2384.24609375
 20
1013.0730590820312
 42
-1
  0
SEQEND
  0
POLYLINE
  8
0
 10
0
 20
0
 39
0
 70
1
 66
1
  0
VERTEX
  8
0
 10
2384.24609375
 20
1075.5731201171875
 42
-1
  0
VERTEX
  8
0
 10
2384.24609375
 20
1113.0731201171875
 42
-1
  0
SEQEND
  0
POLYLINE
  8
0
 10
0
 20
0
 39
0
 70
1
 66
1
  0
VERTEX
  8
0
 10
2674.90771484375
 20
905.5692138671875
 42
0
  0
VERTEX
  8
0
 10
2679.90771484375
 20
900.5692138671875
 42
0
  0
VERTEX
  8
0
 10
2739.90771484375
 20
900.5692138671875
 42
-0
  0
VERTEX
  8
0
 10
2744.90771484375
 20
905.5692138671875
 42
0
  0
VERTEX
  8
0
 10
2744.90771484375
 20
1055.5692138671875
 42
-0
  0
VERTEX
  8
0
 10
2739.90771484375
 20
1060.5692138671875
 42
0
  0
VERTEX
  8
0
 10
2679.90771484375
 20
1060.5692138671875
 42
-0
  0
VERTEX
  8
0
 10
2674.90771484375
 20
1055.5692138671875
 42
0
  0
SEQEND
  0
POLYLINE
  8
0
 10
0
 20
0
 39
0
 70
1
 66
1
  0
VERTEX
  8
0
 10
2709.90771484375
 20
971.5692138671875
 42
-1
  0
VERTEX
  8
0
 10
2709.90771484375
 20
989.5692138671875
 42
-1
  0
SEQEND
  0
POLYLINE
  8
0
 10
0
 20
0
 39
0
 70
1
 66
1
  0
VERTEX
  8
0
 10
2709.90771484375
 20
911.8192138671875
 42
-1
  0
VERTEX
  8
0
 10
2709.90771484375
 20
949.3192138671875
 42
-1
  0
SEQEND
  0
POLYLINE
  8
0
 10
0
 20
0
 39
0
 70
1
 66
1
  0
VERTEX
  8
0
 10
2709.90771484375
 20
1011.8192138671875
 42
-1
  0
VERTEX
  8
0
 10
2709.90771484375
 20
1049.3192138671875
 42
-1
  0
SEQEND
  0
ENDSEC
  0
EOF
