  0
SECTION
  2
ENTITIES
  0
POLYLINE
  8
0
 10
0
 20
0
 39
0
 70
1
 66
1
  0
VERTEX
  8
0
 10
0
 20
0
 42
-0
  0
VERTEX
  8
0
 10
4000
 20
0
 42
-0
  0
VERTEX
  8
0
 10
4000
 20
1100
 42
-0
  0
VERTEX
  8
0
 10
0
 20
1100
 42
-0
  0
SEQEND
  0
POLYLINE
  8
0
 10
0
 20
0
 39
0
 70
1
 66
1
  0
VERTEX
  8
0
 10
506.04998779296875
 20
261.04998779296875
 42
1
  0
VERTEX
  8
0
 10
16.04998779296875
 20
261.04998779296875
 42
1
  0
SEQEND
  0
POLYLINE
  8
0
 10
0
 20
0
 39
0
 70
1
 66
1
  0
VERTEX
  8
0
 10
328.54998779296875
 20
261.04998779296875
 42
-1
  0
VERTEX
  8
0
 10
193.54998779296875
 20
261.04998779296875
 42
-1
  0
SEQEND
  0
SEQEND
  0
POLYLINE
  8
0
 10
0
 20
0
 39
0
 70
1
 66
1
  0
VERTEX
  8
0
 10
506.04998779296875
 20
767.05999755859375
 42
1
  0
VERTEX
  8
0
 10
16.04998779296875
 20
767.05999755859375
 42
1
  0
SEQEND
  0
POLYLINE
  8
0
 10
0
 20
0
 39
0
 70
1
 66
1
  0
VERTEX
  8
0
 10
328.54998779296875
 20
767.05999755859375
 42
-1
  0
VERTEX
  8
0
 10
193.54998779296875
 20
767.05999755859375
 42
-1
  0
SEQEND
  0
POLYLINE
  8
0
 10
0
 20
0
 39
0
 70
1
 66
1
  0
VERTEX
  8
0
 10
1012.0599975585937
 20
261.04998779296875
 42
1
  0
VERTEX
  8
0
 10
522.05999755859375
 20
261.04998779296875
 42
1
  0
SEQEND
  0
POLYLINE
  8
0
 10
0
 20
0
 39
0
 70
1
 66
1
  0
VERTEX
  8
0
 10
834.55999755859375
 20
261.04998779296875
 42
-1
  0
VERTEX
  8
0
 10
699.55999755859375
 20
261.04998779296875
 42
-1
  0
SEQEND
  0
POLYLINE
  8
0
 10
0
 20
0
 39
0
 70
1
 66
1
  0
VERTEX
  8
0
 10
1518.0699462890625
 20
261.04998779296875
 42
1
  0
VERTEX
  8
0
 10
1028.0699462890625
 20
261.04998779296875
 42
1
  0
SEQEND
  0
POLYLINE
  8
0
 10
0
 20
0
 39
0
 70
1
 66
1
  0
VERTEX
  8
0
 10
1340.5699462890625
 20
261.04998779296875
 42
-1
  0
VERTEX
  8
0
 10
1205.5699462890625
 20
261.04998779296875
 42
-1
  0
SEQEND
  0
POLYLINE
  8
0
 10
0
 20
0
 39
0
 70
1
 66
1
  0
VERTEX
  8
0
 10
2024.080078125
 20
261.04998779296875
 42
1
  0
VERTEX
  8
0
 10
1534.080078125
 20
261.04998779296875
 42
1
  0
SEQEND
  0
POLYLINE
  8
0
 10
0
 20
0
 39
0
 70
1
 66
1
  0
VERTEX
  8
0
 10
1846.580078125
 20
261.04998779296875
 42
-1
  0
VERTEX
  8
0
 10
1711.580078125
 20
261.04998779296875
 42
-1
  0
SEQEND
  0
POLYLINE
  8
0
 10
0
 20
0
 39
0
 70
1
 66
1
  0
VERTEX
  8
0
 10
2530.090087890625
 20
261.04998779296875
 42
1
  0
VERTEX
  8
0
 10
2040.090087890625
 20
261.04998779296875
 42
1
  0
SEQEND
  0
POLYLINE
  8
0
 10
0
 20
0
 39
0
 70
1
 66
1
  0
VERTEX
  8
0
 10
2352.590087890625
 20
261.04998779296875
 42
-1
  0
VERTEX
  8
0
 10
2217.590087890625
 20
261.04998779296875
 42
-1
  0
SEQEND
  0
POLYLINE
  8
0
 10
0
 20
0
 39
0
 70
1
 66
1
  0
VERTEX
  8
0
 10
3036.10009765625
 20
261.04998779296875
 42
1
  0
VERTEX
  8
0
 10
2546.10009765625
 20
261.04998779296875
 42
1
  0
SEQEND
  0
POLYLINE
  8
0
 10
0
 20
0
 39
0
 70
1
 66
1
  0
VERTEX
  8
0
 10
2858.60009765625
 20
261.04998779296875
 42
-1
  0
VERTEX
  8
0
 10
2723.60009765625
 20
261.04998779296875
 42
-1
  0
SEQEND
  0
POLYLINE
  8
0
 10
0
 20
0
 39
0
 70
1
 66
1
  0
VERTEX
  8
0
 10
3542.110107421875
 20
261.04998779296875
 42
1
  0
VERTEX
  8
0
 10
3052.110107421875
 20
261.04998779296875
 42
1
  0
SEQEND
  0
POLYLINE
  8
0
 10
0
 20
0
 39
0
 70
1
 66
1
  0
VERTEX
  8
0
 10
3364.610107421875
 20
261.04998779296875
 42
-1
  0
VERTEX
  8
0
 10
3229.610107421875
 20
261.04998779296875
 42
-1
  0
SEQEND
  0
POLYLINE
  8
0
 10
0
 20
0
 39
0
 70
1
 66
1
  0
VERTEX
  8
0
 10
3982.577392578125
 20
514.48150634765625
 42
1
  0
VERTEX
  8
0
 10
3492.577392578125
 20
514.48150634765625
 42
1
  0
SEQEND
  0
POLYLINE
  8
0
 10
0
 20
0
 39
0
 70
1
 66
1
  0
VERTEX
  8
0
 10
3805.077392578125
 20
514.48150634765625
 42
-1
  0
VERTEX
  8
0
 10
3670.077392578125
 20
514.48150634765625
 42
-1
  0
SEQEND
  0
POLYLINE
  8
0
 10
0
 20
0
 39
0
 70
1
 66
1
  0
VERTEX
  8
0
 10
1012.0599975585937
 20
767.05999755859375
 42
1
  0
VERTEX
  8
0
 10
522.05999755859375
 20
767.05999755859375
 42
1
  0
SEQEND
  0
POLYLINE
  8
0
 10
0
 20
0
 39
0
 70
1
 66
1
  0
VERTEX
  8
0
 10
834.55999755859375
 20
767.05999755859375
 42
-1
  0
VERTEX
  8
0
 10
699.55999755859375
 20
767.05999755859375
 42
-1
  0
SEQEND
  0
POLYLINE
  8
0
 10
0
 20
0
 39
0
 70
1
 66
1
  0
VERTEX
  8
0
 10
1518.0699462890625
 20
767.05999755859375
 42
1
  0
VERTEX
  8
0
 10
1028.0699462890625
 20
767.05999755859375
 42
1
  0
SEQEND
  0
POLYLINE
  8
0
 10
0
 20
0
 39
0
 70
1
 66
1
  0
VERTEX
  8
0
 10
1340.5699462890625
 20
767.05999755859375
 42
-1
  0
VERTEX
  8
0
 10
1205.5699462890625
 20
767.05999755859375
 42
-1
  0
SEQEND
  0
POLYLINE
  8
0
 10
0
 20
0
 39
0
 70
1
 66
1
  0
VERTEX
  8
0
 10
2024.080078125
 20
767.05999755859375
 42
1
  0
VERTEX
  8
0
 10
1534.080078125
 20
767.05999755859375
 42
1
  0
SEQEND
  0
POLYLINE
  8
0
 10
0
 20
0
 39
0
 70
1
 66
1
  0
VERTEX
  8
0
 10
1846.580078125
 20
767.05999755859375
 42
-1
  0
VERTEX
  8
0
 10
1711.580078125
 20
767.05999755859375
 42
-1
  0
SEQEND
  0
POLYLINE
  8
0
 10
0
 20
0
 39
0
 70
1
 66
1
  0
VERTEX
  8
0
 10
2530.090087890625
 20
767.05999755859375
 42
1
  0
VERTEX
  8
0
 10
2040.090087890625
 20
767.05999755859375
 42
1
  0
SEQEND
  0
POLYLINE
  8
0
 10
0
 20
0
 39
0
 70
1
 66
1
  0
VERTEX
  8
0
 10
2352.590087890625
 20
767.05999755859375
 42
-1
  0
VERTEX
  8
0
 10
2217.590087890625
 20
767.05999755859375
 42
-1
  0
SEQEND
  0
POLYLINE
  8
0
 10
0
 20
0
 39
0
 70
1
 66
1
  0
VERTEX
  8
0
 10
3036.10009765625
 20
767.05999755859375
 42
1
  0
VERTEX
  8
0
 10
2546.10009765625
 20
767.05999755859375
 42
1
  0
SEQEND
  0
POLYLINE
  8
0
 10
0
 20
0
 39
0
 70
1
 66
1
  0
VERTEX
  8
0
 10
2858.60009765625
 20
767.05999755859375
 42
-1
  0
VERTEX
  8
0
 10
2723.60009765625
 20
767.05999755859375
 42
-1
  0
SEQEND
  0
POLYLINE
  8
0
 10
0
 20
0
 39
0
 70
1
 66
1
  0
VERTEX
  8
0
 10
3542.110107421875
 20
767.05999755859375
 42
1
  0
VERTEX
  8
0
 10
3052.110107421875
 20
767.05999755859375
 42
1
  0
SEQEND
  0
POLYLINE
  8
0
 10
0
 20
0
 39
0
 70
1
 66
1
  0
VERTEX
  8
0
 10
3364.610107421875
 20
767.05999755859375
 42
-1
  0
VERTEX
  8
0
 10
3229.610107421875
 20
767.05999755859375
 42
-1
  0
SEQEND
  0
SEQEND
  0
SEQEND
  0
SEQEND
  0
SEQEND
  0
SEQEND
  0
SEQEND
  0
SEQEND
  0
SEQEND
  0
SEQEND
  0
SEQEND
  0
SEQEND
  0
SEQEND
  0
SEQEND
  0
SEQEND
  0
SEQEND
  0
SEQEND
  0
SEQEND
  0
SEQEND
  0
SEQEND
  0
SEQEND
  0
SEQEND
  0
SEQEND
  0
SEQEND
  0
SEQEND
  0
SEQEND
  0
SEQEND
  0
SEQEND
  0
SEQEND
  0
SEQEND
  0
SEQEND
  0
SEQEND
  0
SEQEND
  0
SEQEND
  0
SEQEND
  0
SEQEND
  0
SEQEND
  0
SEQEND
  0
SEQEND
  0
SEQEND
  0
SEQEND
  0
SEQEND
  0
SEQEND
  0
SEQEND
  0
SEQEND
  0
SEQEND
  0
SEQEND
  0
SEQEND
  0
ENDSEC
  0
EOF
