  0
SECTION
  2
ENTITIES
  0
POLYLINE
  8
0
 10
0
 20
0
 39
0
 70
1
 66
1
  0
VERTEX
  8
0
 10
0
 20
0
 42
-0
  0
VERTEX
  8
0
 10
6000
 20
0
 42
-0
  0
VERTEX
  8
0
 10
6000
 20
1500
 42
-0
  0
VERTEX
  8
0
 10
0
 20
1500
 42
-0
  0
SEQEND
  0
POLYLINE
  8
0
 10
0
 20
0
 39
0
 70
1
 66
1
  0
VERTEX
  8
0
 10
536.99993896484375
 20
335.10025024414062
 42
-0
  0
VERTEX
  8
0
 10
537
 20
185.10025024414062
 42
-0
  0
VERTEX
  8
0
 10
755
 20
185.10028076171875
 42
-0
  0
VERTEX
  8
0
 10
754.99993896484375
 20
335.10028076171875
 42
-0
  0
SEQEND
  0
POLYLINE
  8
0
 10
0
 20
0
 39
0
 70
1
 66
1
  0
VERTEX
  8
0
 10
645.99993896484375
 20
300.10028076171875
 42
-1
  0
VERTEX
  8
0
 10
645.99993896484375
 20
220.10026550292969
 42
-1
  0
SEQEND
  0
POLYLINE
  8
0
 10
0
 20
0
 39
0
 70
1
 66
1
  0
VERTEX
  8
0
 10
536.99993896484375
 20
860.20062255859375
 42
-0
  0
VERTEX
  8
0
 10
537
 20
710.20062255859375
 42
-0
  0
VERTEX
  8
0
 10
755
 20
710.20068359375
 42
-0
  0
VERTEX
  8
0
 10
754.99993896484375
 20
860.20068359375
 42
-0
  0
SEQEND
  0
POLYLINE
  8
0
 10
0
 20
0
 39
0
 70
1
 66
1
  0
VERTEX
  8
0
 10
645.99993896484375
 20
825.20062255859375
 42
-1
  0
VERTEX
  8
0
 10
645.99993896484375
 20
745.20062255859375
 42
-1
  0
SEQEND
  0
POLYLINE
  8
0
 10
0
 20
0
 39
0
 70
1
 66
1
  0
VERTEX
  8
0
 10
1747.0498046875
 20
335.10028076171875
 42
-0
  0
VERTEX
  8
0
 10
1747.0498046875
 20
185.10028076171875
 42
-0
  0
VERTEX
  8
0
 10
1965.0498046875
 20
185.10031127929687
 42
-0
  0
VERTEX
  8
0
 10
1965.0498046875
 20
335.10031127929687
 42
-0
  0
SEQEND
  0
POLYLINE
  8
0
 10
0
 20
0
 39
0
 70
1
 66
1
  0
VERTEX
  8
0
 10
1856.0498046875
 20
300.10028076171875
 42
-1
  0
VERTEX
  8
0
 10
1856.0498046875
 20
220.10029602050781
 42
-1
  0
SEQEND
  0
POLYLINE
  8
0
 10
0
 20
0
 39
0
 70
1
 66
1
  0
VERTEX
  8
0
 10
1316.13720703125
 20
1303.21044921875
 42
0
  0
VERTEX
  8
0
 10
1641.13720703125
 20
1303.210693359375
 42
0
  0
VERTEX
  8
0
 10
1656.13720703125
 20
1318.210693359375
 42
0
  0
VERTEX
  8
0
 10
1656.1370849609375
 20
1408.210693359375
 42
0
  0
VERTEX
  8
0
 10
1636.13720703125
 20
1408.210693359375
 42
0
  0
VERTEX
  8
0
 10
1316.13720703125
 20
1323.21044921875
 42
0
  0
SEQEND
  0
POLYLINE
  8
0
 10
0
 20
0
 39
0
 70
1
 66
1
  0
VERTEX
  8
0
 10
1563.5919189453125
 20
1419.337646484375
 42
0
  0
VERTEX
  8
0
 10
1238.5919189453125
 20
1419.3375244140625
 42
0
  0
VERTEX
  8
0
 10
1223.5919189453125
 20
1404.3375244140625
 42
0
  0
VERTEX
  8
0
 10
1223.5919189453125
 20
1314.3375244140625
 42
0
  0
VERTEX
  8
0
 10
1243.5919189453125
 20
1314.3375244140625
 42
0
  0
VERTEX
  8
0
 10
1563.5919189453125
 20
1399.337646484375
 42
0
  0
SEQEND
  0
POLYLINE
  8
0
 10
0
 20
0
 39
0
 70
1
 66
1
  0
VERTEX
  8
0
 10
765.0499267578125
 20
875.15069580078125
 42
-0
  0
VERTEX
  8
0
 10
765.04998779296875
 20
700.15069580078125
 42
-0
  0
VERTEX
  8
0
 10
10.050048828125
 20
700.150390625
 42
-0
  0
VERTEX
  8
0
 10
10.050048828125
 20
535.150390625
 42
-0
  0
VERTEX
  8
0
 10
1110.050048828125
 20
535.15087890625
 42
-0
  0
VERTEX
  8
0
 10
1210.050048828125
 20
635.15087890625
 42
-0
  0
VERTEX
  8
0
 10
1210.0499267578125
 20
875.15087890625
 42
-0
  0
SEQEND
  0
POLYLINE
  8
0
 10
0
 20
0
 39
0
 70
1
 66
1
  0
VERTEX
  8
0
 10
765.0499267578125
 20
350.05029296875
 42
-0
  0
VERTEX
  8
0
 10
765.04998779296875
 20
175.05030822753906
 42
-0
  0
VERTEX
  8
0
 10
10.050048828125
 20
175.05000305175781
 42
-0
  0
VERTEX
  8
0
 10
10.050048828125
 20
10.050018310546875
 42
-0
  0
VERTEX
  8
0
 10
1110.050048828125
 20
10.050445556640625
 42
-0
  0
VERTEX
  8
0
 10
1210.050048828125
 20
110.05047607421875
 42
-0
  0
VERTEX
  8
0
 10
1210.0499267578125
 20
350.05047607421875
 42
-0
  0
SEQEND
  0
POLYLINE
  8
0
 10
0
 20
0
 39
0
 70
1
 66
1
  0
VERTEX
  8
0
 10
455.04998779296875
 20
710.200927734375
 42
-0
  0
VERTEX
  8
0
 10
455.04998779296875
 20
885.200927734375
 42
-0
  0
VERTEX
  8
0
 10
1210.050048828125
 20
885.200927734375
 42
-0
  0
VERTEX
  8
0
 10
1210.050048828125
 20
1050.200927734375
 42
-0
  0
VERTEX
  8
0
 10
110.05000305175781
 20
1050.200927734375
 42
-0
  0
VERTEX
  8
0
 10
10.050003051757812
 20
950.200927734375
 42
-0
  0
VERTEX
  8
0
 10
10.050003051757812
 20
710.200927734375
 42
-0
  0
SEQEND
  0
POLYLINE
  8
0
 10
0
 20
0
 39
0
 70
1
 66
1
  0
VERTEX
  8
0
 10
1665.10009765625
 20
185.1004638671875
 42
-0
  0
VERTEX
  8
0
 10
1665.10009765625
 20
360.1004638671875
 42
-0
  0
VERTEX
  8
0
 10
2420.10009765625
 20
360.1004638671875
 42
-0
  0
VERTEX
  8
0
 10
2420.10009765625
 20
525.1004638671875
 42
-0
  0
VERTEX
  8
0
 10
1320.10009765625
 20
525.1004638671875
 42
-0
  0
VERTEX
  8
0
 10
1220.10009765625
 20
425.1004638671875
 42
-0
  0
VERTEX
  8
0
 10
1220.10009765625
 20
185.1004638671875
 42
-0
  0
SEQEND
  0
POLYLINE
  8
0
 10
0
 20
0
 39
0
 70
1
 66
1
  0
VERTEX
  8
0
 10
455.04998779296875
 20
185.1004638671875
 42
-0
  0
VERTEX
  8
0
 10
455.04998779296875
 20
360.1004638671875
 42
-0
  0
VERTEX
  8
0
 10
1210.050048828125
 20
360.1004638671875
 42
-0
  0
VERTEX
  8
0
 10
1210.050048828125
 20
525.1004638671875
 42
-0
  0
VERTEX
  8
0
 10
110.04998779296875
 20
525.1004638671875
 42
-0
  0
VERTEX
  8
0
 10
10.04998779296875
 20
425.1004638671875
 42
-0
  0
VERTEX
  8
0
 10
10.04998779296875
 20
185.1004638671875
 42
-0
  0
SEQEND
  0
POLYLINE
  8
0
 10
0
 20
0
 39
0
 70
1
 66
1
  0
VERTEX
  8
0
 10
1975.099853515625
 20
350.05029296875
 42
-0
  0
VERTEX
  8
0
 10
1975.099853515625
 20
175.05030822753906
 42
-0
  0
VERTEX
  8
0
 10
1220.0999755859375
 20
175.05000305175781
 42
-0
  0
VERTEX
  8
0
 10
1220.0999755859375
 20
10.050018310546875
 42
-0
  0
VERTEX
  8
0
 10
2320.10009765625
 20
10.050445556640625
 42
-0
  0
VERTEX
  8
0
 10
2420.099853515625
 20
110.05047607421875
 42
-0
  0
VERTEX
  8
0
 10
2420.099853515625
 20
350.05047607421875
 42
-0
  0
SEQEND
  0
POLYLINE
  8
0
 10
0
 20
0
 39
0
 70
1
 66
1
  0
VERTEX
  8
0
 10
2196.592041015625
 20
535.15045166015625
 42
-0
  0
VERTEX
  8
0
 10
2363.592041015625
 20
535.15045166015625
 42
-0
  0
VERTEX
  8
0
 10
2423.592041015625
 20
849.15045166015625
 42
-0
  0
VERTEX
  8
0
 10
2423.592041015625
 20
909.15045166015625
 42
-0
  0
VERTEX
  8
0
 10
2366.592041015625
 20
909.15045166015625
 42
-0
  0
VERTEX
  8
0
 10
2366.592041015625
 20
891.15045166015625
 42
-0
  0
VERTEX
  8
0
 10
2196.592041015625
 20
891.15045166015625
 42
-0
  0
VERTEX
  8
0
 10
2171.592041015625
 20
866.15045166015625
 42
-0
  0
VERTEX
  8
0
 10
2171.592041015625
 20
560.15045166015625
 42
-0
  0
SEQEND
  0
POLYLINE
  8
0
 10
0
 20
0
 39
0
 70
1
 66
1
  0
VERTEX
  8
0
 10
2455.14990234375
 20
10.04998779296875
 42
-0
  0
VERTEX
  8
0
 10
2622.14990234375
 20
10.04998779296875
 42
-0
  0
VERTEX
  8
0
 10
2682.14990234375
 20
324.04998779296875
 42
-0
  0
VERTEX
  8
0
 10
2682.14990234375
 20
384.04998779296875
 42
-0
  0
VERTEX
  8
0
 10
2625.14990234375
 20
384.04998779296875
 42
-0
  0
VERTEX
  8
0
 10
2625.14990234375
 20
366.04998779296875
 42
-0
  0
VERTEX
  8
0
 10
2455.14990234375
 20
366.04998779296875
 42
-0
  0
VERTEX
  8
0
 10
2430.14990234375
 20
341.04998779296875
 42
-0
  0
VERTEX
  8
0
 10
2430.14990234375
 20
35.04998779296875
 42
-0
  0
SEQEND
  0
POLYLINE
  8
0
 10
0
 20
0
 39
0
 70
1
 66
1
  0
VERTEX
  8
0
 10
2657.14990234375
 20
750.10009765625
 42
-0
  0
VERTEX
  8
0
 10
2490.14990234375
 20
750.10003662109375
 42
-0
  0
VERTEX
  8
0
 10
2430.14990234375
 20
436.10000610351562
 42
-0
  0
VERTEX
  8
0
 10
2430.150146484375
 20
376.10000610351562
 42
-0
  0
VERTEX
  8
0
 10
2487.150146484375
 20
376.10003662109375
 42
-0
  0
VERTEX
  8
0
 10
2487.150146484375
 20
394.10003662109375
 42
-0
  0
VERTEX
  8
0
 10
2657.150146484375
 20
394.10009765625
 42
-0
  0
VERTEX
  8
0
 10
2682.150146484375
 20
419.10009765625
 42
-0
  0
VERTEX
  8
0
 10
2682.14990234375
 20
725.10009765625
 42
-0
  0
SEQEND
  0
POLYLINE
  8
0
 10
0
 20
0
 39
0
 70
1
 66
1
  0
VERTEX
  8
0
 10
1720.8460693359375
 20
535.15045166015625
 42
-0
  0
VERTEX
  8
0
 10
1887.8460693359375
 20
535.15045166015625
 42
-0
  0
VERTEX
  8
0
 10
1947.8460693359375
 20
849.15045166015625
 42
-0
  0
VERTEX
  8
0
 10
1947.8460693359375
 20
909.15045166015625
 42
-0
  0
VERTEX
  8
0
 10
1890.8460693359375
 20
909.15045166015625
 42
-0
  0
VERTEX
  8
0
 10
1890.8460693359375
 20
891.15045166015625
 42
-0
  0
VERTEX
  8
0
 10
1720.8460693359375
 20
891.15045166015625
 42
-0
  0
VERTEX
  8
0
 10
1695.8460693359375
 20
866.15045166015625
 42
-0
  0
VERTEX
  8
0
 10
1695.8460693359375
 20
560.15045166015625
 42
-0
  0
SEQEND
  0
POLYLINE
  8
0
 10
0
 20
0
 39
0
 70
1
 66
1
  0
VERTEX
  8
0
 10
2136.541748046875
 20
909.15057373046875
 42
-0
  0
VERTEX
  8
0
 10
1969.541748046875
 20
909.1505126953125
 42
-0
  0
VERTEX
  8
0
 10
1909.5418701171875
 20
595.1505126953125
 42
-0
  0
VERTEX
  8
0
 10
1909.5418701171875
 20
535.1505126953125
 42
-0
  0
VERTEX
  8
0
 10
1966.5418701171875
 20
535.1505126953125
 42
-0
  0
VERTEX
  8
0
 10
1966.5418701171875
 20
553.1505126953125
 42
-0
  0
VERTEX
  8
0
 10
2136.5419921875
 20
553.15057373046875
 42
-0
  0
VERTEX
  8
0
 10
2161.5419921875
 20
578.15057373046875
 42
-0
  0
VERTEX
  8
0
 10
2161.541748046875
 20
884.15057373046875
 42
-0
  0
SEQEND
  0
POLYLINE
  8
0
 10
0
 20
0
 39
0
 70
1
 66
1
  0
VERTEX
  8
0
 10
35.04998779296875
 20
1060.2509765625
 42
-0
  0
VERTEX
  8
0
 10
202.04998779296875
 20
1060.2509765625
 42
-0
  0
VERTEX
  8
0
 10
262.04998779296875
 20
1374.2509765625
 42
-0
  0
VERTEX
  8
0
 10
262.04998779296875
 20
1434.2509765625
 42
-0
  0
VERTEX
  8
0
 10
205.04998779296875
 20
1434.2509765625
 42
-0
  0
VERTEX
  8
0
 10
205.04998779296875
 20
1416.2509765625
 42
-0
  0
VERTEX
  8
0
 10
35.04998779296875
 20
1416.2509765625
 42
-0
  0
VERTEX
  8
0
 10
10.04998779296875
 20
1391.2509765625
 42
-0
  0
VERTEX
  8
0
 10
10.04998779296875
 20
1085.2509765625
 42
-0
  0
SEQEND
  0
POLYLINE
  8
0
 10
0
 20
0
 39
0
 70
1
 66
1
  0
VERTEX
  8
0
 10
450.745849609375
 20
1434.2510986328125
 42
-0
  0
VERTEX
  8
0
 10
283.745849609375
 20
1434.2509765625
 42
-0
  0
VERTEX
  8
0
 10
223.7459716796875
 20
1120.2509765625
 42
-0
  0
VERTEX
  8
0
 10
223.74600219726562
 20
1060.2509765625
 42
-0
  0
VERTEX
  8
0
 10
280.74600219726562
 20
1060.2509765625
 42
-0
  0
VERTEX
  8
0
 10
280.7459716796875
 20
1078.2509765625
 42
-0
  0
VERTEX
  8
0
 10
450.74600219726562
 20
1078.2510986328125
 42
-0
  0
VERTEX
  8
0
 10
475.7459716796875
 20
1103.2510986328125
 42
-0
  0
VERTEX
  8
0
 10
475.745849609375
 20
1409.2510986328125
 42
-0
  0
SEQEND
  0
POLYLINE
  8
0
 10
0
 20
0
 39
0
 70
1
 66
1
  0
VERTEX
  8
0
 10
510.79595947265625
 20
1060.2509765625
 42
-0
  0
VERTEX
  8
0
 10
677.79595947265625
 20
1060.2509765625
 42
-0
  0
VERTEX
  8
0
 10
737.79595947265625
 20
1374.2509765625
 42
-0
  0
VERTEX
  8
0
 10
737.79595947265625
 20
1434.2509765625
 42
-0
  0
VERTEX
  8
0
 10
680.79595947265625
 20
1434.2509765625
 42
-0
  0
VERTEX
  8
0
 10
680.79595947265625
 20
1416.2509765625
 42
-0
  0
VERTEX
  8
0
 10
510.79595947265625
 20
1416.2509765625
 42
-0
  0
VERTEX
  8
0
 10
485.79595947265625
 20
1391.2509765625
 42
-0
  0
VERTEX
  8
0
 10
485.79595947265625
 20
1085.2509765625
 42
-0
  0
SEQEND
  0
POLYLINE
  8
0
 10
0
 20
0
 39
0
 70
1
 66
1
  0
VERTEX
  8
0
 10
926.49176025390625
 20
1434.2510986328125
 42
-0
  0
VERTEX
  8
0
 10
759.49176025390625
 20
1434.2509765625
 42
-0
  0
VERTEX
  8
0
 10
699.49188232421875
 20
1120.2509765625
 42
-0
  0
VERTEX
  8
0
 10
699.491943359375
 20
1060.2509765625
 42
-0
  0
VERTEX
  8
0
 10
756.491943359375
 20
1060.2509765625
 42
-0
  0
VERTEX
  8
0
 10
756.49188232421875
 20
1078.2509765625
 42
-0
  0
VERTEX
  8
0
 10
926.49188232421875
 20
1078.2510986328125
 42
-0
  0
VERTEX
  8
0
 10
951.49188232421875
 20
1103.2510986328125
 42
-0
  0
VERTEX
  8
0
 10
951.49176025390625
 20
1409.2510986328125
 42
-0
  0
SEQEND
  0
POLYLINE
  8
0
 10
0
 20
0
 39
0
 70
1
 66
1
  0
VERTEX
  8
0
 10
1660.7958984375
 20
909.15057373046875
 42
-0
  0
VERTEX
  8
0
 10
1493.7958984375
 20
909.1505126953125
 42
-0
  0
VERTEX
  8
0
 10
1433.7960205078125
 20
595.1505126953125
 42
-0
  0
VERTEX
  8
0
 10
1433.7960205078125
 20
535.1505126953125
 42
-0
  0
VERTEX
  8
0
 10
1490.7960205078125
 20
535.1505126953125
 42
-0
  0
VERTEX
  8
0
 10
1490.7960205078125
 20
553.1505126953125
 42
-0
  0
VERTEX
  8
0
 10
1660.7960205078125
 20
553.15057373046875
 42
-0
  0
VERTEX
  8
0
 10
1685.7960205078125
 20
578.15057373046875
 42
-0
  0
VERTEX
  8
0
 10
1685.7958984375
 20
884.15057373046875
 42
-0
  0
SEQEND
  0
POLYLINE
  8
0
 10
0
 20
0
 39
0
 70
1
 66
1
  0
VERTEX
  8
0
 10
1245.10009765625
 20
535.15045166015625
 42
-0
  0
VERTEX
  8
0
 10
1412.10009765625
 20
535.15045166015625
 42
-0
  0
VERTEX
  8
0
 10
1472.10009765625
 20
849.15045166015625
 42
-0
  0
VERTEX
  8
0
 10
1472.10009765625
 20
909.15045166015625
 42
-0
  0
VERTEX
  8
0
 10
1415.10009765625
 20
909.15045166015625
 42
-0
  0
VERTEX
  8
0
 10
1415.10009765625
 20
891.15045166015625
 42
-0
  0
VERTEX
  8
0
 10
1245.10009765625
 20
891.15045166015625
 42
-0
  0
VERTEX
  8
0
 10
1220.10009765625
 20
866.15045166015625
 42
-0
  0
VERTEX
  8
0
 10
1220.10009765625
 20
560.15045166015625
 42
-0
  0
SEQEND
  0
POLYLINE
  8
0
 10
0
 20
0
 39
0
 70
1
 66
1
  0
VERTEX
  8
0
 10
986.5418701171875
 20
1060.2509765625
 42
-0
  0
VERTEX
  8
0
 10
1153.5418701171875
 20
1060.2509765625
 42
-0
  0
VERTEX
  8
0
 10
1213.5418701171875
 20
1374.2509765625
 42
-0
  0
VERTEX
  8
0
 10
1213.5418701171875
 20
1434.2509765625
 42
-0
  0
VERTEX
  8
0
 10
1156.5418701171875
 20
1434.2509765625
 42
-0
  0
VERTEX
  8
0
 10
1156.5418701171875
 20
1416.2509765625
 42
-0
  0
VERTEX
  8
0
 10
986.5418701171875
 20
1416.2509765625
 42
-0
  0
VERTEX
  8
0
 10
961.5418701171875
 20
1391.2509765625
 42
-0
  0
VERTEX
  8
0
 10
961.5418701171875
 20
1085.2509765625
 42
-0
  0
SEQEND
  0
POLYLINE
  8
0
 10
0
 20
0
 39
0
 70
1
 66
1
  0
VERTEX
  8
0
 10
2660.641845703125
 20
1134.150146484375
 42
-0
  0
VERTEX
  8
0
 10
2493.641845703125
 20
1134.1500244140625
 42
-0
  0
VERTEX
  8
0
 10
2433.64208984375
 20
820.1500244140625
 42
-0
  0
VERTEX
  8
0
 10
2433.64208984375
 20
760.1500244140625
 42
-0
  0
VERTEX
  8
0
 10
2490.64208984375
 20
760.15008544921875
 42
-0
  0
VERTEX
  8
0
 10
2490.64208984375
 20
778.15008544921875
 42
-0
  0
VERTEX
  8
0
 10
2660.64208984375
 20
778.150146484375
 42
-0
  0
VERTEX
  8
0
 10
2685.64208984375
 20
803.150146484375
 42
-0
  0
VERTEX
  8
0
 10
2685.641845703125
 20
1109.150146484375
 42
-0
  0
SEQEND
  0
SEQEND
  0
SEQEND
  0
POLYLINE
  8
0
 10
0
 20
0
 39
0
 70
1
 66
1
  0
VERTEX
  8
0
 10
5952.42333984375
 20
1073.1102294921875
 42
-0
  0
VERTEX
  8
0
 10
5927.42333984375
 20
1098.1102294921875
 42
-0
  0
VERTEX
  8
0
 10
5762.42333984375
 20
1098.110107421875
 42
-0
  0
VERTEX
  8
0
 10
5762.42333984375
 20
742.110107421875
 42
-0
  0
VERTEX
  8
0
 10
5927.42333984375
 20
742.11016845703125
 42
-0
  0
VERTEX
  8
0
 10
5952.42333984375
 20
767.1102294921875
 42
-0
  0
SEQEND
  0
POLYLINE
  8
0
 10
0
 20
0
 39
0
 70
1
 66
1
  0
VERTEX
  8
0
 10
5955.55029296875
 20
1439.1602783203125
 42
-0
  0
VERTEX
  8
0
 10
5930.55029296875
 20
1464.1602783203125
 42
-0
  0
VERTEX
  8
0
 10
5765.55029296875
 20
1464.16015625
 42
-0
  0
VERTEX
  8
0
 10
5765.55029296875
 20
1108.16015625
 42
-0
  0
VERTEX
  8
0
 10
5930.55029296875
 20
1108.16015625
 42
-0
  0
VERTEX
  8
0
 10
5955.55029296875
 20
1133.1602783203125
 42
-0
  0
SEQEND
  0
POLYLINE
  8
0
 10
0
 20
0
 39
0
 70
1
 66
1
  0
VERTEX
  8
0
 10
2458.64208984375
 20
1351.739501953125
 42
-0
  0
VERTEX
  8
0
 10
2433.64208984375
 20
1326.739501953125
 42
-0
  0
VERTEX
  8
0
 10
2433.64208984375
 20
1161.739501953125
 42
-0
  0
VERTEX
  8
0
 10
2789.64208984375
 20
1161.739501953125
 42
-0
  0
VERTEX
  8
0
 10
2789.64208984375
 20
1326.739501953125
 42
-0
  0
VERTEX
  8
0
 10
2764.64208984375
 20
1351.739501953125
 42
-0
  0
SEQEND
  0
POLYLINE
  8
0
 10
0
 20
0
 39
0
 70
1
 66
1
  0
VERTEX
  8
0
 10
4573.31982421875
 20
200.05001831054687
 42
-0
  0
VERTEX
  8
0
 10
4548.31982421875
 20
175.05000305175781
 42
-0
  0
VERTEX
  8
0
 10
4548.31982421875
 20
10.04998779296875
 42
-0
  0
VERTEX
  8
0
 10
4904.31982421875
 20
10.050048828125
 42
-0
  0
VERTEX
  8
0
 10
4904.31982421875
 20
175.05007934570312
 42
-0
  0
VERTEX
  8
0
 10
4879.31982421875
 20
200.05006408691406
 42
-0
  0
SEQEND
  0
POLYLINE
  8
0
 10
0
 20
0
 39
0
 70
1
 66
1
  0
VERTEX
  8
0
 10
1245.10009765625
 20
919.160400390625
 42
-0
  0
VERTEX
  8
0
 10
1412.10009765625
 20
919.160400390625
 42
-0
  0
VERTEX
  8
0
 10
1472.10009765625
 20
1233.160400390625
 42
-0
  0
VERTEX
  8
0
 10
1472.10009765625
 20
1293.160400390625
 42
-0
  0
VERTEX
  8
0
 10
1415.10009765625
 20
1293.160400390625
 42
-0
  0
VERTEX
  8
0
 10
1415.10009765625
 20
1275.160400390625
 42
-0
  0
VERTEX
  8
0
 10
1245.10009765625
 20
1275.160400390625
 42
-0
  0
VERTEX
  8
0
 10
1220.10009765625
 20
1250.160400390625
 42
-0
  0
VERTEX
  8
0
 10
1220.10009765625
 20
944.160400390625
 42
-0
  0
SEQEND
  0
POLYLINE
  8
0
 10
0
 20
0
 39
0
 70
1
 66
1
  0
VERTEX
  8
0
 10
1660.7958984375
 20
1293.16064453125
 42
-0
  0
VERTEX
  8
0
 10
1493.7958984375
 20
1293.1605224609375
 42
-0
  0
VERTEX
  8
0
 10
1433.7960205078125
 20
979.1605224609375
 42
-0
  0
VERTEX
  8
0
 10
1433.7960205078125
 20
919.1605224609375
 42
-0
  0
VERTEX
  8
0
 10
1490.7960205078125
 20
919.16058349609375
 42
-0
  0
VERTEX
  8
0
 10
1490.7960205078125
 20
937.16058349609375
 42
-0
  0
VERTEX
  8
0
 10
1660.7960205078125
 20
937.16064453125
 42
-0
  0
VERTEX
  8
0
 10
1685.7960205078125
 20
962.16064453125
 42
-0
  0
VERTEX
  8
0
 10
1685.7958984375
 20
1268.16064453125
 42
-0
  0
SEQEND
  0
POLYLINE
  8
0
 10
0
 20
0
 39
0
 70
1
 66
1
  0
VERTEX
  8
0
 10
1720.8460693359375
 20
918.94964599609375
 42
-0
  0
VERTEX
  8
0
 10
1887.8460693359375
 20
918.94964599609375
 42
-0
  0
VERTEX
  8
0
 10
1947.8460693359375
 20
1232.94970703125
 42
-0
  0
VERTEX
  8
0
 10
1947.8460693359375
 20
1292.94970703125
 42
-0
  0
VERTEX
  8
0
 10
1890.8460693359375
 20
1292.94970703125
 42
-0
  0
VERTEX
  8
0
 10
1890.8460693359375
 20
1274.94970703125
 42
-0
  0
VERTEX
  8
0
 10
1720.8460693359375
 20
1274.94970703125
 42
-0
  0
VERTEX
  8
0
 10
1695.8460693359375
 20
1249.94970703125
 42
-0
  0
VERTEX
  8
0
 10
1695.8460693359375
 20
943.94964599609375
 42
-0
  0
SEQEND
  0
POLYLINE
  8
0
 10
0
 20
0
 39
0
 70
1
 66
1
  0
VERTEX
  8
0
 10
2136.541748046875
 20
1293.16064453125
 42
-0
  0
VERTEX
  8
0
 10
1969.541748046875
 20
1293.1605224609375
 42
-0
  0
VERTEX
  8
0
 10
1909.5418701171875
 20
979.1605224609375
 42
-0
  0
VERTEX
  8
0
 10
1909.5418701171875
 20
919.1605224609375
 42
-0
  0
VERTEX
  8
0
 10
1966.5418701171875
 20
919.16058349609375
 42
-0
  0
VERTEX
  8
0
 10
1966.5418701171875
 20
937.16058349609375
 42
-0
  0
VERTEX
  8
0
 10
2136.5419921875
 20
937.16064453125
 42
-0
  0
VERTEX
  8
0
 10
2161.5419921875
 20
962.16064453125
 42
-0
  0
VERTEX
  8
0
 10
2161.541748046875
 20
1268.16064453125
 42
-0
  0
SEQEND
  0
POLYLINE
  8
0
 10
0
 20
0
 39
0
 70
1
 66
1
  0
VERTEX
  8
0
 10
2196.592041015625
 20
919.160400390625
 42
-0
  0
VERTEX
  8
0
 10
2363.592041015625
 20
919.160400390625
 42
-0
  0
VERTEX
  8
0
 10
2423.592041015625
 20
1233.160400390625
 42
-0
  0
VERTEX
  8
0
 10
2423.592041015625
 20
1293.160400390625
 42
-0
  0
VERTEX
  8
0
 10
2366.592041015625
 20
1293.160400390625
 42
-0
  0
VERTEX
  8
0
 10
2366.592041015625
 20
1275.160400390625
 42
-0
  0
VERTEX
  8
0
 10
2196.592041015625
 20
1275.160400390625
 42
-0
  0
VERTEX
  8
0
 10
2171.592041015625
 20
1250.160400390625
 42
-0
  0
VERTEX
  8
0
 10
2171.592041015625
 20
944.160400390625
 42
-0
  0
SEQEND
  0
SEQEND
  0
SEQEND
  0
SEQEND
  0
SEQEND
  0
SEQEND
  0
SEQEND
  0
SEQEND
  0
SEQEND
  0
SEQEND
  0
SEQEND
  0
SEQEND
  0
SEQEND
  0
SEQEND
  0
SEQEND
  0
SEQEND
  0
SEQEND
  0
SEQEND
  0
SEQEND
  0
SEQEND
  0
SEQEND
  0
SEQEND
  0
SEQEND
  0
POLYLINE
  8
0
 10
0
 20
0
 39
0
 70
1
 66
1
  0
VERTEX
  8
0
 10
1702.734375
 20
1303.2103271484375
 42
0
  0
VERTEX
  8
0
 10
2027.734375
 20
1303.2105712890625
 42
0
  0
VERTEX
  8
0
 10
2042.734375
 20
1318.2105712890625
 42
0
  0
VERTEX
  8
0
 10
2042.7342529296875
 20
1408.2105712890625
 42
0
  0
VERTEX
  8
0
 10
2022.734375
 20
1408.2105712890625
 42
0
  0
VERTEX
  8
0
 10
1702.734375
 20
1323.2103271484375
 42
0
  0
SEQEND
  0
POLYLINE
  8
0
 10
0
 20
0
 39
0
 70
1
 66
1
  0
VERTEX
  8
0
 10
2083.592041015625
 20
1303.2105712890625
 42
0
  0
VERTEX
  8
0
 10
2408.592041015625
 20
1303.2108154296875
 42
0
  0
VERTEX
  8
0
 10
2423.592041015625
 20
1318.2108154296875
 42
0
  0
VERTEX
  8
0
 10
2423.592041015625
 20
1408.2108154296875
 42
0
  0
VERTEX
  8
0
 10
2403.592041015625
 20
1408.2108154296875
 42
0
  0
VERTEX
  8
0
 10
2083.592041015625
 20
1323.2105712890625
 42
0
  0
SEQEND
  0
POLYLINE
  8
0
 10
0
 20
0
 39
0
 70
1
 66
1
  0
VERTEX
  8
0
 10
2006.1871337890625
 20
1434.2120361328125
 42
0
  0
VERTEX
  8
0
 10
1681.1871337890625
 20
1434.2119140625
 42
0
  0
VERTEX
  8
0
 10
1666.1871337890625
 20
1419.2119140625
 42
0
  0
VERTEX
  8
0
 10
1666.1871337890625
 20
1329.2119140625
 42
0
  0
VERTEX
  8
0
 10
1686.1871337890625
 20
1329.2119140625
 42
0
  0
VERTEX
  8
0
 10
2006.1871337890625
 20
1414.2120361328125
 42
0
  0
SEQEND
  0
POLYLINE
  8
0
 10
0
 20
0
 39
0
 70
1
 66
1
  0
VERTEX
  8
0
 10
2392.784423828125
 20
1435.73681640625
 42
0
  0
VERTEX
  8
0
 10
2067.784423828125
 20
1435.7366943359375
 42
0
  0
VERTEX
  8
0
 10
2052.784423828125
 20
1420.7366943359375
 42
0
  0
VERTEX
  8
0
 10
2052.784423828125
 20
1330.7366943359375
 42
0
  0
VERTEX
  8
0
 10
2072.784423828125
 20
1330.7366943359375
 42
0
  0
VERTEX
  8
0
 10
2392.784423828125
 20
1415.73681640625
 42
0
  0
SEQEND
  0
POLYLINE
  8
0
 10
0
 20
0
 39
0
 70
1
 66
1
  0
VERTEX
  8
0
 10
2449.765869140625
 20
1361.78955078125
 42
0
  0
VERTEX
  8
0
 10
2774.765869140625
 20
1361.789794921875
 42
0
  0
VERTEX
  8
0
 10
2789.765869140625
 20
1376.789794921875
 42
0
  0
VERTEX
  8
0
 10
2789.765869140625
 20
1466.789794921875
 42
0
  0
VERTEX
  8
0
 10
2769.765869140625
 20
1466.789794921875
 42
0
  0
VERTEX
  8
0
 10
2449.765869140625
 20
1381.78955078125
 42
0
  0
SEQEND
  0
POLYLINE
  8
0
 10
0
 20
0
 39
0
 70
1
 66
1
  0
VERTEX
  8
0
 10
2824.652099609375
 20
1351.739501953125
 42
-0
  0
VERTEX
  8
0
 10
2799.652099609375
 20
1326.739501953125
 42
-0
  0
VERTEX
  8
0
 10
2799.652099609375
 20
1161.739501953125
 42
-0
  0
VERTEX
  8
0
 10
3155.652099609375
 20
1161.739501953125
 42
-0
  0
VERTEX
  8
0
 10
3155.652099609375
 20
1326.739501953125
 42
-0
  0
VERTEX
  8
0
 10
3130.652099609375
 20
1351.739501953125
 42
-0
  0
SEQEND
  0
POLYLINE
  8
0
 10
0
 20
0
 39
0
 70
1
 66
1
  0
VERTEX
  8
0
 10
3190.662109375
 20
1351.739501953125
 42
-0
  0
VERTEX
  8
0
 10
3165.662109375
 20
1326.739501953125
 42
-0
  0
VERTEX
  8
0
 10
3165.662109375
 20
1161.739501953125
 42
-0
  0
VERTEX
  8
0
 10
3521.662109375
 20
1161.739501953125
 42
-0
  0
VERTEX
  8
0
 10
3521.662109375
 20
1326.739501953125
 42
-0
  0
VERTEX
  8
0
 10
3496.662109375
 20
1351.739501953125
 42
-0
  0
SEQEND
  0
POLYLINE
  8
0
 10
0
 20
0
 39
0
 70
1
 66
1
  0
VERTEX
  8
0
 10
3556.672119140625
 20
1351.739501953125
 42
-0
  0
VERTEX
  8
0
 10
3531.672119140625
 20
1326.739501953125
 42
-0
  0
VERTEX
  8
0
 10
3531.672119140625
 20
1161.739501953125
 42
-0
  0
VERTEX
  8
0
 10
3887.672119140625
 20
1161.739501953125
 42
-0
  0
VERTEX
  8
0
 10
3887.672119140625
 20
1326.739501953125
 42
-0
  0
VERTEX
  8
0
 10
3862.672119140625
 20
1351.739501953125
 42
-0
  0
SEQEND
  0
POLYLINE
  8
0
 10
0
 20
0
 39
0
 70
1
 66
1
  0
VERTEX
  8
0
 10
3922.68212890625
 20
1351.739501953125
 42
-0
  0
VERTEX
  8
0
 10
3897.68212890625
 20
1326.739501953125
 42
-0
  0
VERTEX
  8
0
 10
3897.68212890625
 20
1161.739501953125
 42
-0
  0
VERTEX
  8
0
 10
4253.68212890625
 20
1161.739501953125
 42
-0
  0
VERTEX
  8
0
 10
4253.68212890625
 20
1326.739501953125
 42
-0
  0
VERTEX
  8
0
 10
4228.68212890625
 20
1351.739501953125
 42
-0
  0
SEQEND
  0
POLYLINE
  8
0
 10
0
 20
0
 39
0
 70
1
 66
1
  0
VERTEX
  8
0
 10
4288.69189453125
 20
1351.739501953125
 42
-0
  0
VERTEX
  8
0
 10
4263.69189453125
 20
1326.739501953125
 42
-0
  0
VERTEX
  8
0
 10
4263.69189453125
 20
1161.739501953125
 42
-0
  0
VERTEX
  8
0
 10
4619.69189453125
 20
1161.739501953125
 42
-0
  0
VERTEX
  8
0
 10
4619.69189453125
 20
1326.739501953125
 42
-0
  0
VERTEX
  8
0
 10
4594.69189453125
 20
1351.739501953125
 42
-0
  0
SEQEND
  0
POLYLINE
  8
0
 10
0
 20
0
 39
0
 70
1
 66
1
  0
VERTEX
  8
0
 10
2799.77587890625
 20
1361.78955078125
 42
0
  0
VERTEX
  8
0
 10
3124.77587890625
 20
1361.789794921875
 42
0
  0
VERTEX
  8
0
 10
3139.77587890625
 20
1376.789794921875
 42
0
  0
VERTEX
  8
0
 10
3139.77587890625
 20
1466.789794921875
 42
0
  0
VERTEX
  8
0
 10
3119.77587890625
 20
1466.789794921875
 42
0
  0
VERTEX
  8
0
 10
2799.77587890625
 20
1381.78955078125
 42
0
  0
SEQEND
  0
POLYLINE
  8
0
 10
0
 20
0
 39
0
 70
1
 66
1
  0
VERTEX
  8
0
 10
3149.785888671875
 20
1361.78955078125
 42
0
  0
VERTEX
  8
0
 10
3474.785888671875
 20
1361.789794921875
 42
0
  0
VERTEX
  8
0
 10
3489.785888671875
 20
1376.789794921875
 42
0
  0
VERTEX
  8
0
 10
3489.785888671875
 20
1466.789794921875
 42
0
  0
VERTEX
  8
0
 10
3469.785888671875
 20
1466.789794921875
 42
0
  0
VERTEX
  8
0
 10
3149.785888671875
 20
1381.78955078125
 42
0
  0
SEQEND
  0
POLYLINE
  8
0
 10
0
 20
0
 39
0
 70
1
 66
1
  0
VERTEX
  8
0
 10
3499.7958984375
 20
1361.78955078125
 42
0
  0
VERTEX
  8
0
 10
3824.7958984375
 20
1361.789794921875
 42
0
  0
VERTEX
  8
0
 10
3839.7958984375
 20
1376.789794921875
 42
0
  0
VERTEX
  8
0
 10
3839.7958984375
 20
1466.789794921875
 42
0
  0
VERTEX
  8
0
 10
3819.7958984375
 20
1466.789794921875
 42
0
  0
VERTEX
  8
0
 10
3499.7958984375
 20
1381.78955078125
 42
0
  0
SEQEND
  0
POLYLINE
  8
0
 10
0
 20
0
 39
0
 70
1
 66
1
  0
VERTEX
  8
0
 10
3849.8056640625
 20
1361.78955078125
 42
0
  0
VERTEX
  8
0
 10
4174.8056640625
 20
1361.789794921875
 42
0
  0
VERTEX
  8
0
 10
4189.8056640625
 20
1376.789794921875
 42
0
  0
VERTEX
  8
0
 10
4189.8056640625
 20
1466.789794921875
 42
0
  0
VERTEX
  8
0
 10
4169.8056640625
 20
1466.789794921875
 42
0
  0
VERTEX
  8
0
 10
3849.8056640625
 20
1381.78955078125
 42
0
  0
SEQEND
  0
POLYLINE
  8
0
 10
0
 20
0
 39
0
 70
1
 66
1
  0
VERTEX
  8
0
 10
4199.81591796875
 20
1361.78955078125
 42
0
  0
VERTEX
  8
0
 10
4524.81591796875
 20
1361.789794921875
 42
0
  0
VERTEX
  8
0
 10
4539.81591796875
 20
1376.789794921875
 42
0
  0
VERTEX
  8
0
 10
4539.81591796875
 20
1466.789794921875
 42
0
  0
VERTEX
  8
0
 10
4519.81591796875
 20
1466.789794921875
 42
0
  0
VERTEX
  8
0
 10
4199.81591796875
 20
1381.78955078125
 42
0
  0
SEQEND
  0
POLYLINE
  8
0
 10
0
 20
0
 39
0
 70
1
 66
1
  0
VERTEX
  8
0
 10
4573.31982421875
 20
400.10003662109375
 42
-0
  0
VERTEX
  8
0
 10
4548.31982421875
 20
375.10003662109375
 42
-0
  0
VERTEX
  8
0
 10
4548.31982421875
 20
210.10000610351562
 42
-0
  0
VERTEX
  8
0
 10
4904.31982421875
 20
210.10006713867187
 42
-0
  0
VERTEX
  8
0
 10
4904.31982421875
 20
375.10009765625
 42
-0
  0
VERTEX
  8
0
 10
4879.31982421875
 20
400.10009765625
 42
-0
  0
SEQEND
  0
POLYLINE
  8
0
 10
0
 20
0
 39
0
 70
1
 66
1
  0
VERTEX
  8
0
 10
4573.31982421875
 20
600.15008544921875
 42
-0
  0
VERTEX
  8
0
 10
4548.31982421875
 20
575.15008544921875
 42
-0
  0
VERTEX
  8
0
 10
4548.31982421875
 20
410.15005493164062
 42
-0
  0
VERTEX
  8
0
 10
4904.31982421875
 20
410.15011596679687
 42
-0
  0
VERTEX
  8
0
 10
4904.31982421875
 20
575.150146484375
 42
-0
  0
VERTEX
  8
0
 10
4879.31982421875
 20
600.150146484375
 42
-0
  0
SEQEND
  0
POLYLINE
  8
0
 10
0
 20
0
 39
0
 70
1
 66
1
  0
VERTEX
  8
0
 10
4573.31982421875
 20
800.20013427734375
 42
-0
  0
VERTEX
  8
0
 10
4548.31982421875
 20
775.20013427734375
 42
-0
  0
VERTEX
  8
0
 10
4548.31982421875
 20
610.2000732421875
 42
-0
  0
VERTEX
  8
0
 10
4904.31982421875
 20
610.2001953125
 42
-0
  0
VERTEX
  8
0
 10
4904.31982421875
 20
775.2001953125
 42
-0
  0
VERTEX
  8
0
 10
4879.31982421875
 20
800.2001953125
 42
-0
  0
SEQEND
  0
POLYLINE
  8
0
 10
0
 20
0
 39
0
 70
1
 66
1
  0
VERTEX
  8
0
 10
4576.8115234375
 20
1000.2501220703125
 42
-0
  0
VERTEX
  8
0
 10
4551.8115234375
 20
975.2501220703125
 42
-0
  0
VERTEX
  8
0
 10
4551.8115234375
 20
810.2501220703125
 42
-0
  0
VERTEX
  8
0
 10
4907.8115234375
 20
810.2501220703125
 42
-0
  0
VERTEX
  8
0
 10
4907.8115234375
 20
975.25018310546875
 42
-0
  0
VERTEX
  8
0
 10
4882.8115234375
 20
1000.2501831054687
 42
-0
  0
SEQEND
  0
POLYLINE
  8
0
 10
0
 20
0
 39
0
 70
1
 66
1
  0
VERTEX
  8
0
 10
4969.91357421875
 20
200.05001831054687
 42
-0
  0
VERTEX
  8
0
 10
4944.91357421875
 20
175.05000305175781
 42
-0
  0
VERTEX
  8
0
 10
4944.91357421875
 20
10.04998779296875
 42
-0
  0
VERTEX
  8
0
 10
5300.91357421875
 20
10.050048828125
 42
-0
  0
VERTEX
  8
0
 10
5300.91357421875
 20
175.05007934570312
 42
-0
  0
VERTEX
  8
0
 10
5275.91357421875
 20
200.05006408691406
 42
-0
  0
SEQEND
  0
POLYLINE
  8
0
 10
0
 20
0
 39
0
 70
1
 66
1
  0
VERTEX
  8
0
 10
4969.91357421875
 20
400.06011962890625
 42
-0
  0
VERTEX
  8
0
 10
4944.91357421875
 20
375.06011962890625
 42
-0
  0
VERTEX
  8
0
 10
4944.91357421875
 20
210.06008911132812
 42
-0
  0
VERTEX
  8
0
 10
5300.91357421875
 20
210.06015014648437
 42
-0
  0
VERTEX
  8
0
 10
5300.91357421875
 20
375.0601806640625
 42
-0
  0
VERTEX
  8
0
 10
5275.91357421875
 20
400.0601806640625
 42
-0
  0
SEQEND
  0
POLYLINE
  8
0
 10
0
 20
0
 39
0
 70
1
 66
1
  0
VERTEX
  8
0
 10
4969.91357421875
 20
600.0701904296875
 42
-0
  0
VERTEX
  8
0
 10
4944.91357421875
 20
575.0701904296875
 42
-0
  0
VERTEX
  8
0
 10
4944.91357421875
 20
410.07015991210937
 42
-0
  0
VERTEX
  8
0
 10
5300.91357421875
 20
410.07022094726562
 42
-0
  0
VERTEX
  8
0
 10
5300.91357421875
 20
575.07025146484375
 42
-0
  0
VERTEX
  8
0
 10
5275.91357421875
 20
600.07025146484375
 42
-0
  0
SEQEND
  0
POLYLINE
  8
0
 10
0
 20
0
 39
0
 70
1
 66
1
  0
VERTEX
  8
0
 10
4969.91357421875
 20
800.080322265625
 42
-0
  0
VERTEX
  8
0
 10
4944.91357421875
 20
775.080322265625
 42
-0
  0
VERTEX
  8
0
 10
4944.91357421875
 20
610.080322265625
 42
-0
  0
VERTEX
  8
0
 10
5300.91357421875
 20
610.080322265625
 42
-0
  0
VERTEX
  8
0
 10
5300.91357421875
 20
775.08038330078125
 42
-0
  0
VERTEX
  8
0
 10
5275.91357421875
 20
800.08038330078125
 42
-0
  0
SEQEND
  0
POLYLINE
  8
0
 10
0
 20
0
 39
0
 70
1
 66
1
  0
VERTEX
  8
0
 10
4969.91357421875
 20
1000.09033203125
 42
-0
  0
VERTEX
  8
0
 10
4944.91357421875
 20
975.09033203125
 42
-0
  0
VERTEX
  8
0
 10
4944.91357421875
 20
810.09033203125
 42
-0
  0
VERTEX
  8
0
 10
5300.91357421875
 20
810.09033203125
 42
-0
  0
VERTEX
  8
0
 10
5300.91357421875
 20
975.09039306640625
 42
-0
  0
VERTEX
  8
0
 10
5275.91357421875
 20
1000.0903930664062
 42
-0
  0
SEQEND
  0
POLYLINE
  8
0
 10
0
 20
0
 39
0
 70
1
 66
1
  0
VERTEX
  8
0
 10
5345.4580078125
 20
200.05001831054687
 42
-0
  0
VERTEX
  8
0
 10
5320.4580078125
 20
175.05000305175781
 42
-0
  0
VERTEX
  8
0
 10
5320.4580078125
 20
10.04998779296875
 42
-0
  0
VERTEX
  8
0
 10
5676.4580078125
 20
10.050048828125
 42
-0
  0
VERTEX
  8
0
 10
5676.4580078125
 20
175.05007934570312
 42
-0
  0
VERTEX
  8
0
 10
5651.4580078125
 20
200.05006408691406
 42
-0
  0
SEQEND
  0
POLYLINE
  8
0
 10
0
 20
0
 39
0
 70
1
 66
1
  0
VERTEX
  8
0
 10
4654.74169921875
 20
1200.3001708984375
 42
-0
  0
VERTEX
  8
0
 10
4629.74169921875
 20
1175.3001708984375
 42
-0
  0
VERTEX
  8
0
 10
4629.74169921875
 20
1010.3001708984375
 42
-0
  0
VERTEX
  8
0
 10
4985.74169921875
 20
1010.3001708984375
 42
-0
  0
VERTEX
  8
0
 10
4985.74169921875
 20
1175.3001708984375
 42
-0
  0
VERTEX
  8
0
 10
4960.74169921875
 20
1200.3001708984375
 42
-0
  0
SEQEND
  0
POLYLINE
  8
0
 10
0
 20
0
 39
0
 70
1
 66
1
  0
VERTEX
  8
0
 10
4654.74169921875
 20
1400.3502197265625
 42
-0
  0
VERTEX
  8
0
 10
4629.74169921875
 20
1375.3502197265625
 42
-0
  0
VERTEX
  8
0
 10
4629.74169921875
 20
1210.3502197265625
 42
-0
  0
VERTEX
  8
0
 10
4985.74169921875
 20
1210.3502197265625
 42
-0
  0
VERTEX
  8
0
 10
4985.74169921875
 20
1375.3502197265625
 42
-0
  0
VERTEX
  8
0
 10
4960.74169921875
 20
1400.3502197265625
 42
-0
  0
SEQEND
  0
POLYLINE
  8
0
 10
0
 20
0
 39
0
 70
1
 66
1
  0
VERTEX
  8
0
 10
5055.32373046875
 20
1200.140380859375
 42
-0
  0
VERTEX
  8
0
 10
5030.32373046875
 20
1175.140380859375
 42
-0
  0
VERTEX
  8
0
 10
5030.32373046875
 20
1010.140380859375
 42
-0
  0
VERTEX
  8
0
 10
5386.32373046875
 20
1010.140380859375
 42
-0
  0
VERTEX
  8
0
 10
5386.32373046875
 20
1175.140380859375
 42
-0
  0
VERTEX
  8
0
 10
5361.32373046875
 20
1200.140380859375
 42
-0
  0
SEQEND
  0
POLYLINE
  8
0
 10
0
 20
0
 39
0
 70
1
 66
1
  0
VERTEX
  8
0
 10
5951.8818359375
 20
341.05007934570312
 42
-0
  0
VERTEX
  8
0
 10
5926.8818359375
 20
366.050048828125
 42
-0
  0
VERTEX
  8
0
 10
5761.8818359375
 20
366.04998779296875
 42
-0
  0
VERTEX
  8
0
 10
5761.8818359375
 20
10.04998779296875
 42
-0
  0
VERTEX
  8
0
 10
5926.8818359375
 20
10.050048828125
 42
-0
  0
VERTEX
  8
0
 10
5951.8818359375
 20
35.050079345703125
 42
-0
  0
SEQEND
  0
POLYLINE
  8
0
 10
0
 20
0
 39
0
 70
1
 66
1
  0
VERTEX
  8
0
 10
5345.4580078125
 20
400.06011962890625
 42
-0
  0
VERTEX
  8
0
 10
5320.4580078125
 20
375.06011962890625
 42
-0
  0
VERTEX
  8
0
 10
5320.4580078125
 20
210.06008911132812
 42
-0
  0
VERTEX
  8
0
 10
5676.4580078125
 20
210.06015014648437
 42
-0
  0
VERTEX
  8
0
 10
5676.4580078125
 20
375.0601806640625
 42
-0
  0
VERTEX
  8
0
 10
5651.4580078125
 20
400.0601806640625
 42
-0
  0
SEQEND
  0
POLYLINE
  8
0
 10
0
 20
0
 39
0
 70
1
 66
1
  0
VERTEX
  8
0
 10
5345.4580078125
 20
600.0701904296875
 42
-0
  0
VERTEX
  8
0
 10
5320.4580078125
 20
575.0701904296875
 42
-0
  0
VERTEX
  8
0
 10
5320.4580078125
 20
410.07015991210937
 42
-0
  0
VERTEX
  8
0
 10
5676.4580078125
 20
410.07022094726562
 42
-0
  0
VERTEX
  8
0
 10
5676.4580078125
 20
575.07025146484375
 42
-0
  0
VERTEX
  8
0
 10
5651.4580078125
 20
600.07025146484375
 42
-0
  0
SEQEND
  0
POLYLINE
  8
0
 10
0
 20
0
 39
0
 70
1
 66
1
  0
VERTEX
  8
0
 10
5345.4580078125
 20
800.080322265625
 42
-0
  0
VERTEX
  8
0
 10
5320.4580078125
 20
775.080322265625
 42
-0
  0
VERTEX
  8
0
 10
5320.4580078125
 20
610.080322265625
 42
-0
  0
VERTEX
  8
0
 10
5676.4580078125
 20
610.080322265625
 42
-0
  0
VERTEX
  8
0
 10
5676.4580078125
 20
775.08038330078125
 42
-0
  0
VERTEX
  8
0
 10
5651.4580078125
 20
800.08038330078125
 42
-0
  0
SEQEND
  0
POLYLINE
  8
0
 10
0
 20
0
 39
0
 70
1
 66
1
  0
VERTEX
  8
0
 10
5345.4580078125
 20
1000.09033203125
 42
-0
  0
VERTEX
  8
0
 10
5320.4580078125
 20
975.09033203125
 42
-0
  0
VERTEX
  8
0
 10
5320.4580078125
 20
810.09033203125
 42
-0
  0
VERTEX
  8
0
 10
5676.4580078125
 20
810.09033203125
 42
-0
  0
VERTEX
  8
0
 10
5676.4580078125
 20
975.09039306640625
 42
-0
  0
VERTEX
  8
0
 10
5651.4580078125
 20
1000.0903930664062
 42
-0
  0
SEQEND
  0
POLYLINE
  8
0
 10
0
 20
0
 39
0
 70
1
 66
1
  0
VERTEX
  8
0
 10
5055.32373046875
 20
1400.150390625
 42
-0
  0
VERTEX
  8
0
 10
5030.32373046875
 20
1375.150390625
 42
-0
  0
VERTEX
  8
0
 10
5030.32373046875
 20
1210.150390625
 42
-0
  0
VERTEX
  8
0
 10
5386.32373046875
 20
1210.150390625
 42
-0
  0
VERTEX
  8
0
 10
5386.32373046875
 20
1375.150390625
 42
-0
  0
VERTEX
  8
0
 10
5361.32373046875
 20
1400.150390625
 42
-0
  0
SEQEND
  0
POLYLINE
  8
0
 10
0
 20
0
 39
0
 70
1
 66
1
  0
VERTEX
  8
0
 10
5421.37353515625
 20
1200.140380859375
 42
-0
  0
VERTEX
  8
0
 10
5396.37353515625
 20
1175.140380859375
 42
-0
  0
VERTEX
  8
0
 10
5396.37353515625
 20
1010.140380859375
 42
-0
  0
VERTEX
  8
0
 10
5752.37353515625
 20
1010.140380859375
 42
-0
  0
VERTEX
  8
0
 10
5752.37353515625
 20
1175.140380859375
 42
-0
  0
VERTEX
  8
0
 10
5727.37353515625
 20
1200.140380859375
 42
-0
  0
SEQEND
  0
POLYLINE
  8
0
 10
0
 20
0
 39
0
 70
1
 66
1
  0
VERTEX
  8
0
 10
5421.37353515625
 20
1400.1904296875
 42
-0
  0
VERTEX
  8
0
 10
5396.37353515625
 20
1375.1904296875
 42
-0
  0
VERTEX
  8
0
 10
5396.37353515625
 20
1210.1904296875
 42
-0
  0
VERTEX
  8
0
 10
5752.37353515625
 20
1210.1904296875
 42
-0
  0
VERTEX
  8
0
 10
5752.37353515625
 20
1375.1904296875
 42
-0
  0
VERTEX
  8
0
 10
5727.37353515625
 20
1400.1904296875
 42
-0
  0
SEQEND
  0
POLYLINE
  8
0
 10
0
 20
0
 39
0
 70
1
 66
1
  0
VERTEX
  8
0
 10
5951.8818359375
 20
707.06011962890625
 42
-0
  0
VERTEX
  8
0
 10
5926.8818359375
 20
732.06011962890625
 42
-0
  0
VERTEX
  8
0
 10
5761.8818359375
 20
732.06005859375
 42
-0
  0
VERTEX
  8
0
 10
5761.8818359375
 20
376.06005859375
 42
-0
  0
VERTEX
  8
0
 10
5926.8818359375
 20
376.06011962890625
 42
-0
  0
VERTEX
  8
0
 10
5951.8818359375
 20
401.06015014648437
 42
-0
  0
SEQEND
  0
ENDSEC
  0
EOF
