  0
SECTION
  2
ENTITIES
  0
POLYLINE
  8
0
 10
0
 20
0
 39
0
 70
1
 66
1
  0
VERTEX
  8
0
 10
0
 20
0
 42
-0
  0
VERTEX
  8
0
 10
6000
 20
0
 42
-0
  0
VERTEX
  8
0
 10
6000
 20
2000
 42
-0
  0
VERTEX
  8
0
 10
0
 20
2000
 42
-0
  0
SEQEND
  0
POLYLINE
  8
0
 10
0
 20
0
 39
0
 70
1
 66
1
  0
VERTEX
  8
0
 10
4412.48486328125
 20
56.050037384033203
 42
-0
  0
VERTEX
  8
0
 10
4252.48486328125
 20
56.050006866455078
 42
1
  0
VERTEX
  8
0
 10
4252.48486328125
 20
16.050010681152344
 42
-0
  0
VERTEX
  8
0
 10
4432.48486328125
 20
16.050041198730469
 42
0.41421398520469666
  0
VERTEX
  8
0
 10
4472.48486328125
 20
56.050048828125
 42
-0
  0
VERTEX
  8
0
 10
4472.48486328125
 20
93.050048828125
 42
-0
  0
VERTEX
  8
0
 10
4432.48486328125
 20
93.050041198730469
 42
-0
  0
VERTEX
  8
0
 10
4432.48486328125
 20
76.050041198730469
 42
-0.41421398520469666
  0
SEQEND
  0
POLYLINE
  8
0
 10
0
 20
0
 39
0
 70
1
 66
1
  0
VERTEX
  8
0
 10
2439.414794921875
 20
16.049999237060547
 42
-0
  0
VERTEX
  8
0
 10
3339.414794921875
 20
16.049999237060547
 42
-0
  0
VERTEX
  8
0
 10
3339.414794921875
 20
62.049999237060547
 42
-0
  0
VERTEX
  8
0
 10
2439.414794921875
 20
62.049999237060547
 42
-0
  0
SEQEND
  0
POLYLINE
  8
0
 10
0
 20
0
 39
0
 70
1
 66
1
  0
VERTEX
  8
0
 10
1556.09619140625
 20
1409.385986328125
 42
-0
  0
VERTEX
  8
0
 10
2456.09619140625
 20
1409.385986328125
 42
-0
  0
VERTEX
  8
0
 10
2456.09619140625
 20
1455.385986328125
 42
-0
  0
VERTEX
  8
0
 10
1556.09619140625
 20
1455.385986328125
 42
-0
  0
SEQEND
  0
POLYLINE
  8
0
 10
0
 20
0
 39
0
 70
1
 66
1
  0
VERTEX
  8
0
 10
1774.10009765625
 20
38.04998779296875
 42
-0
  0
VERTEX
  8
0
 10
1844.10009765625
 20
38.04998779296875
 42
-0
  0
VERTEX
  8
0
 10
1844.10009765625
 20
14.04998779296875
 42
-0
  0
VERTEX
  8
0
 10
2102.10009765625
 20
14.04998779296875
 42
-0
  0
VERTEX
  8
0
 10
2102.10009765625
 20
38.04998779296875
 42
-0
  0
VERTEX
  8
0
 10
2172.10009765625
 20
38.04998779296875
 42
-0
  0
VERTEX
  8
0
 10
2201.398681640625
 20
54.965507507324219
 42
-0.46952301263809204
  0
VERTEX
  8
0
 10
2554.2451171875
 20
164.04998779296875
 42
-0
  0
VERTEX
  8
0
 10
2563.10009765625
 20
164.04998779296875
 42
-0
  0
VERTEX
  8
0
 10
2563.10009765625
 20
295.55136108398437
 42
0.33945399522781372
  0
VERTEX
  8
0
 10
2526.041015625
 20
343.84765625
 42
-0
  0
VERTEX
  8
0
 10
2096.10009765625
 20
459.04998779296875
 42
-0
  0
VERTEX
  8
0
 10
2096.10009765625
 20
363.04998779296875
 42
-1
  0
VERTEX
  8
0
 10
1850.10009765625
 20
363.04998779296875
 42
-0
  0
VERTEX
  8
0
 10
1850.10009765625
 20
459.04998779296875
 42
-0
  0
VERTEX
  8
0
 10
1420.1591796875
 20
343.84765625
 42
0.33945399522781372
  0
VERTEX
  8
0
 10
1383.10009765625
 20
295.55136108398437
 42
-0
  0
VERTEX
  8
0
 10
1383.10009765625
 20
164.04998779296875
 42
-0
  0
VERTEX
  8
0
 10
1391.9552001953125
 20
164.04998779296875
 42
-0.46952301263809204
  0
VERTEX
  8
0
 10
1744.801513671875
 20
54.965507507324219
 42
-0
  0
SEQEND
  0
POLYLINE
  8
0
 10
0
 20
0
 39
0
 70
1
 66
1
  0
VERTEX
  8
0
 10
4391.71533203125
 20
863.1500244140625
 42
-0
  0
VERTEX
  8
0
 10
4729.71533203125
 20
863.1500244140625
 42
-0
  0
VERTEX
  8
0
 10
4729.71533203125
 20
1087.1500244140625
 42
-0
  0
VERTEX
  8
0
 10
4391.71533203125
 20
1087.1500244140625
 42
-0
  0
SEQEND
  0
POLYLINE
  8
0
 10
0
 20
0
 39
0
 70
0
 66
1
  0
VERTEX
  8
0
 10
4521.37353515625
 20
1103.2000732421875
 42
-0
  0
VERTEX
  8
0
 10
4514.37353515625
 20
1110.2000732421875
 42
-0
  0
VERTEX
  8
0
 10
4514.37353515625
 20
1133.2000732421875
 42
-0
  0
VERTEX
  8
0
 10
4738.37353515625
 20
1153.2000732421875
 42
-0
  0
VERTEX
  8
0
 10
4738.37353515625
 20
1110.2000732421875
 42
-0
  0
VERTEX
  8
0
 10
4731.37353515625
 20
1103.2000732421875
 42
-0
  0
VERTEX
  8
0
 10
4738.37353515625
 20
1110.2000732421875
 42
0
  0
SEQEND
  0
POLYLINE
  8
0
 10
0
 20
0
 39
0
 70
1
 66
1
  0
VERTEX
  8
0
 10
14.050003051757813
 20
14.050003051757813
 42
-0
  0
VERTEX
  8
0
 10
1369.050048828125
 20
14.050003051757813
 42
-0
  0
VERTEX
  8
0
 10
1369.050048828125
 20
914.04998779296875
 42
-0
  0
VERTEX
  8
0
 10
14.050003051757813
 20
914.04998779296875
 42
-0
  0
SEQEND
  0
POLYLINE
  8
0
 10
0
 20
0
 39
0
 70
1
 66
1
  0
VERTEX
  8
0
 10
181.55000305175781
 20
464.04998779296875
 42
-1
  0
VERTEX
  8
0
 10
281.54998779296875
 20
464.04998779296875
 42
-1
  0
SEQEND
  0
POLYLINE
  8
0
 10
0
 20
0
 39
0
 70
1
 66
1
  0
VERTEX
  8
0
 10
1101.550048828125
 20
464.04998779296875
 42
-1
  0
VERTEX
  8
0
 10
1201.550048828125
 20
464.04998779296875
 42
-1
  0
SEQEND
  0
POLYLINE
  8
0
 10
0
 20
0
 39
0
 70
1
 66
1
  0
VERTEX
  8
0
 10
1870.55908203125
 20
1963.4908447265625
 42
-0
  0
VERTEX
  8
0
 10
1490.55908203125
 20
1963.49072265625
 42
-0
  0
VERTEX
  8
0
 10
1405.559326171875
 20
1503.4906005859375
 42
-0
  0
VERTEX
  8
0
 10
1405.559326171875
 20
1478.4906005859375
 42
-0
  0
VERTEX
  8
0
 10
1955.559326171875
 20
1478.4908447265625
 42
-0
  0
VERTEX
  8
0
 10
1955.5592041015625
 20
1503.4908447265625
 42
-0
  0
SEQEND
  0
POLYLINE
  8
0
 10
0
 20
0
 39
0
 70
1
 66
1
  0
VERTEX
  8
0
 10
1768.0592041015625
 20
1783.49072265625
 42
-1
  0
VERTEX
  8
0
 10
1593.05908203125
 20
1783.49072265625
 42
-1
  0
SEQEND
  0
POLYLINE
  8
0
 10
0
 20
0
 39
0
 70
1
 66
1
  0
VERTEX
  8
0
 10
1677.8603515625
 20
924.98614501953125
 42
0.70025700330734253
  0
VERTEX
  8
0
 10
1677.8603515625
 20
924.99700927734375
 42
-0.1503479927778244
  0
VERTEX
  8
0
 10
1509.9305419921875
 20
1051.986083984375
 42
-0
  0
VERTEX
  8
0
 10
1509.8603515625
 20
1051.986083984375
 42
-0
  0
VERTEX
  8
0
 10
1485.64404296875
 20
1051.986083984375
 42
0.33140701055526733
  0
VERTEX
  8
0
 10
1447.3226318359375
 20
1023.452392578125
 42
-0
  0
VERTEX
  8
0
 10
1417.8603515625
 20
924.98614501953125
 42
-0
  0
VERTEX
  8
0
 10
1417.8603515625
 20
919.98614501953125
 42
-0
  0
VERTEX
  8
0
 10
1677.8603515625
 20
919.98614501953125
 42
-0
  0
SEQEND
  0
POLYLINE
  8
0
 10
0
 20
0
 39
0
 70
1
 66
1
  0
VERTEX
  8
0
 10
1487.806884765625
 20
946.173828125
 42
-1.0020691156387329
  0
VERTEX
  8
0
 10
1447.951171875
 20
958.09326171875
 42
0
  0
VERTEX
  8
0
 10
1465.703857421875
 20
1017.9046020507812
 42
-1.000001072883606
  0
VERTEX
  8
0
 10
1505.584228515625
 20
1006.067626953125
 42
-0
  0
SEQEND
  0
POLYLINE
  8
0
 10
0
 20
0
 39
0
 70
1
 66
1
  0
VERTEX
  8
0
 10
14.050003051757813
 20
928.0599365234375
 42
-0
  0
VERTEX
  8
0
 10
1369.050048828125
 20
928.0599365234375
 42
-0
  0
VERTEX
  8
0
 10
1369.050048828125
 20
1828.0599365234375
 42
-0
  0
VERTEX
  8
0
 10
14.050003051757813
 20
1828.0599365234375
 42
-0
  0
SEQEND
  0
POLYLINE
  8
0
 10
0
 20
0
 39
0
 70
1
 66
1
  0
VERTEX
  8
0
 10
181.55000305175781
 20
1378.0599365234375
 42
-1
  0
VERTEX
  8
0
 10
281.54998779296875
 20
1378.0599365234375
 42
-1
  0
SEQEND
  0
POLYLINE
  8
0
 10
0
 20
0
 39
0
 70
1
 66
1
  0
VERTEX
  8
0
 10
1101.550048828125
 20
1378.0599365234375
 42
-1
  0
VERTEX
  8
0
 10
1201.550048828125
 20
1378.0599365234375
 42
-1
  0
SEQEND
  0
POLYLINE
  8
0
 10
0
 20
0
 39
0
 70
1
 66
1
  0
VERTEX
  8
0
 10
1774.10009765625
 20
497.05999755859375
 42
-0
  0
VERTEX
  8
0
 10
1844.10009765625
 20
497.05999755859375
 42
-0
  0
VERTEX
  8
0
 10
1844.10009765625
 20
473.05999755859375
 42
-0
  0
VERTEX
  8
0
 10
2102.10009765625
 20
473.05999755859375
 42
-0
  0
VERTEX
  8
0
 10
2102.10009765625
 20
497.05999755859375
 42
-0
  0
VERTEX
  8
0
 10
2172.10009765625
 20
497.05999755859375
 42
-0
  0
VERTEX
  8
0
 10
2201.398681640625
 20
513.97552490234375
 42
-0.46952301263809204
  0
VERTEX
  8
0
 10
2554.2451171875
 20
623.05999755859375
 42
-0
  0
VERTEX
  8
0
 10
2563.10009765625
 20
623.05999755859375
 42
-0
  0
VERTEX
  8
0
 10
2563.10009765625
 20
754.5614013671875
 42
0.33945399522781372
  0
VERTEX
  8
0
 10
2526.041015625
 20
802.857666015625
 42
-0
  0
VERTEX
  8
0
 10
2096.10009765625
 20
918.05999755859375
 42
-0
  0
VERTEX
  8
0
 10
2096.10009765625
 20
822.05999755859375
 42
-1
  0
VERTEX
  8
0
 10
1850.10009765625
 20
822.05999755859375
 42
-0
  0
VERTEX
  8
0
 10
1850.10009765625
 20
918.05999755859375
 42
-0
  0
VERTEX
  8
0
 10
1420.1591796875
 20
802.857666015625
 42
0.33945399522781372
  0
VERTEX
  8
0
 10
1383.10009765625
 20
754.5614013671875
 42
-0
  0
VERTEX
  8
0
 10
1383.10009765625
 20
623.05999755859375
 42
-0
  0
VERTEX
  8
0
 10
1391.9552001953125
 20
623.05999755859375
 42
-0.46952301263809204
  0
VERTEX
  8
0
 10
1744.801513671875
 20
513.97552490234375
 42
-0
  0
SEQEND
  0
POLYLINE
  8
0
 10
0
 20
0
 39
0
 70
1
 66
1
  0
VERTEX
  8
0
 10
1774.10009765625
 20
956.0699462890625
 42
-0
  0
VERTEX
  8
0
 10
1844.10009765625
 20
956.0699462890625
 42
-0
  0
VERTEX
  8
0
 10
1844.10009765625
 20
932.0699462890625
 42
-0
  0
VERTEX
  8
0
 10
2102.10009765625
 20
932.0699462890625
 42
-0
  0
VERTEX
  8
0
 10
2102.10009765625
 20
956.0699462890625
 42
-0
  0
VERTEX
  8
0
 10
2172.10009765625
 20
956.0699462890625
 42
-0
  0
VERTEX
  8
0
 10
2201.398681640625
 20
972.9854736328125
 42
-0.46952301263809204
  0
VERTEX
  8
0
 10
2554.2451171875
 20
1082.0699462890625
 42
-0
  0
VERTEX
  8
0
 10
2563.10009765625
 20
1082.0699462890625
 42
-0
  0
VERTEX
  8
0
 10
2563.10009765625
 20
1213.5712890625
 42
0.33945399522781372
  0
VERTEX
  8
0
 10
2526.041015625
 20
1261.86767578125
 42
-0
  0
VERTEX
  8
0
 10
2096.10009765625
 20
1377.0699462890625
 42
-0
  0
VERTEX
  8
0
 10
2096.10009765625
 20
1281.0699462890625
 42
-1
  0
VERTEX
  8
0
 10
1850.10009765625
 20
1281.0699462890625
 42
-0
  0
VERTEX
  8
0
 10
1850.10009765625
 20
1377.0699462890625
 42
-0
  0
VERTEX
  8
0
 10
1420.1591796875
 20
1261.86767578125
 42
0.33945399522781372
  0
VERTEX
  8
0
 10
1383.10009765625
 20
1213.5712890625
 42
-0
  0
VERTEX
  8
0
 10
1383.10009765625
 20
1082.0699462890625
 42
-0
  0
VERTEX
  8
0
 10
1391.9552001953125
 20
1082.0699462890625
 42
-0.46952301263809204
  0
VERTEX
  8
0
 10
1744.801513671875
 20
972.9854736328125
 42
-0
  0
SEQEND
  0
POLYLINE
  8
0
 10
0
 20
0
 39
0
 70
1
 66
1
  0
VERTEX
  8
0
 10
3591.968505859375
 20
38.050003051757813
 42
-0
  0
VERTEX
  8
0
 10
3661.968505859375
 20
38.050003051757813
 42
-0
  0
VERTEX
  8
0
 10
3661.968505859375
 20
14.050003051757813
 42
-0
  0
VERTEX
  8
0
 10
3919.968505859375
 20
14.050003051757813
 42
-0
  0
VERTEX
  8
0
 10
3919.968505859375
 20
38.050003051757813
 42
-0
  0
VERTEX
  8
0
 10
3989.968505859375
 20
38.050003051757813
 42
-0
  0
VERTEX
  8
0
 10
4019.26708984375
 20
54.965522766113281
 42
-0.46952301263809204
  0
VERTEX
  8
0
 10
4372.11328125
 20
164.05000305175781
 42
-0
  0
VERTEX
  8
0
 10
4380.96875
 20
164.05000305175781
 42
-0
  0
VERTEX
  8
0
 10
4380.96875
 20
295.5513916015625
 42
0.33945399522781372
  0
VERTEX
  8
0
 10
4343.9091796875
 20
343.84765625
 42
-0
  0
VERTEX
  8
0
 10
3913.968505859375
 20
459.04998779296875
 42
-0
  0
VERTEX
  8
0
 10
3913.968505859375
 20
363.04998779296875
 42
-1
  0
VERTEX
  8
0
 10
3667.968505859375
 20
363.04998779296875
 42
-0
  0
VERTEX
  8
0
 10
3667.968505859375
 20
459.04998779296875
 42
-0
  0
VERTEX
  8
0
 10
3238.027587890625
 20
343.84765625
 42
0.33945399522781372
  0
VERTEX
  8
0
 10
3200.968505859375
 20
295.5513916015625
 42
-0
  0
VERTEX
  8
0
 10
3200.968505859375
 20
164.05000305175781
 42
-0
  0
VERTEX
  8
0
 10
3209.823486328125
 20
164.05000305175781
 42
-0.46952301263809204
  0
VERTEX
  8
0
 10
3562.669921875
 20
54.965522766113281
 42
-0
  0
SEQEND
  0
POLYLINE
  8
0
 10
0
 20
0
 39
0
 70
1
 66
1
  0
VERTEX
  8
0
 10
3081.10302734375
 20
716.9429931640625
 42
-0
  0
VERTEX
  8
0
 10
3011.10302734375
 20
716.94293212890625
 42
-0
  0
VERTEX
  8
0
 10
3011.10302734375
 20
740.94293212890625
 42
-0
  0
VERTEX
  8
0
 10
2753.10302734375
 20
740.94281005859375
 42
-0
  0
VERTEX
  8
0
 10
2753.10302734375
 20
716.94281005859375
 42
-0
  0
VERTEX
  8
0
 10
2683.10302734375
 20
716.94281005859375
 42
-0
  0
VERTEX
  8
0
 10
2653.804443359375
 20
700.02728271484375
 42
-0.46952301263809204
  0
VERTEX
  8
0
 10
2300.9580078125
 20
590.942626953125
 42
-0
  0
VERTEX
  8
0
 10
2292.10302734375
 20
590.942626953125
 42
-0
  0
VERTEX
  8
0
 10
2292.10302734375
 20
459.4412841796875
 42
0.33945399522781372
  0
VERTEX
  8
0
 10
2329.162109375
 20
411.14498901367187
 42
-0
  0
VERTEX
  8
0
 10
2759.103271484375
 20
295.94284057617187
 42
-0
  0
VERTEX
  8
0
 10
2759.10302734375
 20
391.94284057617187
 42
-1
  0
VERTEX
  8
0
 10
3005.10302734375
 20
391.94293212890625
 42
-0
  0
VERTEX
  8
0
 10
3005.103271484375
 20
295.94293212890625
 42
-0
  0
VERTEX
  8
0
 10
3435.044189453125
 20
411.14544677734375
 42
0.33945399522781372
  0
VERTEX
  8
0
 10
3472.10302734375
 20
459.44174194335937
 42
-0
  0
VERTEX
  8
0
 10
3472.10302734375
 20
590.943115234375
 42
-0
  0
VERTEX
  8
0
 10
3463.248046875
 20
590.943115234375
 42
-0.46952301263809204
  0
VERTEX
  8
0
 10
3110.401611328125
 20
700.0274658203125
 42
-0
  0
SEQEND
  0
POLYLINE
  8
0
 10
0
 20
0
 39
0
 70
1
 66
1
  0
VERTEX
  8
0
 10
3069.055908203125
 20
1179.1810302734375
 42
-0
  0
VERTEX
  8
0
 10
2999.055908203125
 20
1179.1810302734375
 42
-0
  0
VERTEX
  8
0
 10
2999.055908203125
 20
1203.1810302734375
 42
-0
  0
VERTEX
  8
0
 10
2741.055908203125
 20
1203.180908203125
 42
-0
  0
VERTEX
  8
0
 10
2741.055908203125
 20
1179.180908203125
 42
-0
  0
VERTEX
  8
0
 10
2671.055908203125
 20
1179.1807861328125
 42
-0
  0
VERTEX
  8
0
 10
2641.75732421875
 20
1162.2652587890625
 42
-0.46952301263809204
  0
VERTEX
  8
0
 10
2288.9111328125
 20
1053.1806640625
 42
-0
  0
VERTEX
  8
0
 10
2280.055908203125
 20
1053.1806640625
 42
-0
  0
VERTEX
  8
0
 10
2280.05615234375
 20
921.6793212890625
 42
0.33945399522781372
  0
VERTEX
  8
0
 10
2317.115234375
 20
873.383056640625
 42
-0
  0
VERTEX
  8
0
 10
2747.05615234375
 20
758.180908203125
 42
-0
  0
VERTEX
  8
0
 10
2747.05615234375
 20
854.180908203125
 42
-1
  0
VERTEX
  8
0
 10
2993.05615234375
 20
854.18096923828125
 42
-0
  0
VERTEX
  8
0
 10
2993.05615234375
 20
758.18096923828125
 42
-0
  0
VERTEX
  8
0
 10
3422.9970703125
 20
873.38348388671875
 42
0.33945399522781372
  0
VERTEX
  8
0
 10
3460.055908203125
 20
921.6798095703125
 42
-0
  0
VERTEX
  8
0
 10
3460.055908203125
 20
1053.18115234375
 42
-0
  0
VERTEX
  8
0
 10
3451.200927734375
 20
1053.18115234375
 42
-0.46952301263809204
  0
VERTEX
  8
0
 10
3098.3544921875
 20
1162.2655029296875
 42
-0
  0
SEQEND
  0
POLYLINE
  8
0
 10
0
 20
0
 39
0
 70
1
 66
1
  0
VERTEX
  8
0
 10
3572.971435546875
 20
497.05999755859375
 42
-0
  0
VERTEX
  8
0
 10
3642.971435546875
 20
497.05999755859375
 42
-0
  0
VERTEX
  8
0
 10
3642.971435546875
 20
473.05999755859375
 42
-0
  0
VERTEX
  8
0
 10
3900.971435546875
 20
473.05999755859375
 42
-0
  0
VERTEX
  8
0
 10
3900.971435546875
 20
497.05999755859375
 42
-0
  0
VERTEX
  8
0
 10
3970.971435546875
 20
497.05999755859375
 42
-0
  0
VERTEX
  8
0
 10
4000.27001953125
 20
513.97552490234375
 42
-0.46952301263809204
  0
VERTEX
  8
0
 10
4353.1162109375
 20
623.05999755859375
 42
-0
  0
VERTEX
  8
0
 10
4361.9716796875
 20
623.05999755859375
 42
-0
  0
VERTEX
  8
0
 10
4361.9716796875
 20
754.5614013671875
 42
0.33945399522781372
  0
VERTEX
  8
0
 10
4324.912109375
 20
802.857666015625
 42
-0
  0
VERTEX
  8
0
 10
3894.971435546875
 20
918.05999755859375
 42
-0
  0
VERTEX
  8
0
 10
3894.971435546875
 20
822.05999755859375
 42
-1
  0
VERTEX
  8
0
 10
3648.971435546875
 20
822.05999755859375
 42
-0
  0
VERTEX
  8
0
 10
3648.971435546875
 20
918.05999755859375
 42
-0
  0
VERTEX
  8
0
 10
3219.030517578125
 20
802.857666015625
 42
0.33945399522781372
  0
VERTEX
  8
0
 10
3181.971435546875
 20
754.5614013671875
 42
-0
  0
VERTEX
  8
0
 10
3181.971435546875
 20
623.05999755859375
 42
-0
  0
VERTEX
  8
0
 10
3190.826416015625
 20
623.05999755859375
 42
-0.46952301263809204
  0
VERTEX
  8
0
 10
3543.6728515625
 20
513.97552490234375
 42
-0
  0
SEQEND
  0
POLYLINE
  8
0
 10
0
 20
0
 39
0
 70
1
 66
1
  0
VERTEX
  8
0
 10
3564.634765625
 20
956.0699462890625
 42
-0
  0
VERTEX
  8
0
 10
3634.634765625
 20
956.0699462890625
 42
-0
  0
VERTEX
  8
0
 10
3634.634765625
 20
932.0699462890625
 42
-0
  0
VERTEX
  8
0
 10
3892.634765625
 20
932.0699462890625
 42
-0
  0
VERTEX
  8
0
 10
3892.634765625
 20
956.0699462890625
 42
-0
  0
VERTEX
  8
0
 10
3962.634765625
 20
956.0699462890625
 42
-0
  0
VERTEX
  8
0
 10
3991.933349609375
 20
972.9854736328125
 42
-0.46952301263809204
  0
VERTEX
  8
0
 10
4344.77978515625
 20
1082.0699462890625
 42
-0
  0
VERTEX
  8
0
 10
4353.634765625
 20
1082.0699462890625
 42
-0
  0
VERTEX
  8
0
 10
4353.634765625
 20
1213.5712890625
 42
0.33945399522781372
  0
VERTEX
  8
0
 10
4316.57568359375
 20
1261.86767578125
 42
-0
  0
VERTEX
  8
0
 10
3886.634765625
 20
1377.0699462890625
 42
-0
  0
VERTEX
  8
0
 10
3886.634765625
 20
1281.0699462890625
 42
-1
  0
VERTEX
  8
0
 10
3640.634765625
 20
1281.0699462890625
 42
-0
  0
VERTEX
  8
0
 10
3640.634765625
 20
1377.0699462890625
 42
-0
  0
VERTEX
  8
0
 10
3210.69384765625
 20
1261.86767578125
 42
0.33945399522781372
  0
VERTEX
  8
0
 10
3173.634765625
 20
1213.5712890625
 42
-0
  0
VERTEX
  8
0
 10
3173.634765625
 20
1082.0699462890625
 42
-0
  0
VERTEX
  8
0
 10
3182.48974609375
 20
1082.0699462890625
 42
-0.46952301263809204
  0
VERTEX
  8
0
 10
3535.336181640625
 20
972.9854736328125
 42
-0
  0
SEQEND
  0
POLYLINE
  8
0
 10
0
 20
0
 39
0
 70
1
 66
1
  0
VERTEX
  8
0
 10
4300.20703125
 20
463.83975219726562
 42
0.70025700330734253
  0
VERTEX
  8
0
 10
4300.20703125
 20
463.85061645507812
 42
-0.1503479927778244
  0
VERTEX
  8
0
 10
4132.27734375
 20
590.8397216796875
 42
-0
  0
VERTEX
  8
0
 10
4132.20703125
 20
590.8397216796875
 42
-0
  0
VERTEX
  8
0
 10
4107.99072265625
 20
590.8397216796875
 42
0.33140701055526733
  0
VERTEX
  8
0
 10
4069.66943359375
 20
562.30596923828125
 42
-0
  0
VERTEX
  8
0
 10
4040.20703125
 20
463.83975219726562
 42
-0
  0
VERTEX
  8
0
 10
4040.20703125
 20
458.83975219726562
 42
-0
  0
VERTEX
  8
0
 10
4300.20703125
 20
458.83975219726562
 42
-0
  0
SEQEND
  0
POLYLINE
  8
0
 10
0
 20
0
 39
0
 70
1
 66
1
  0
VERTEX
  8
0
 10
4110.15380859375
 20
485.02740478515625
 42
-1.0020691156387329
  0
VERTEX
  8
0
 10
4070.2978515625
 20
496.94683837890625
 42
0
  0
VERTEX
  8
0
 10
4088.050537109375
 20
556.75823974609375
 42
-1.000001072883606
  0
VERTEX
  8
0
 10
4127.9306640625
 20
544.92120361328125
 42
-0
  0
SEQEND
  0
POLYLINE
  8
0
 10
0
 20
0
 39
0
 70
1
 66
1
  0
VERTEX
  8
0
 10
4281.830078125
 20
913.42791748046875
 42
0.70025700330734253
  0
VERTEX
  8
0
 10
4281.830078125
 20
913.43878173828125
 42
-0.1503479927778244
  0
VERTEX
  8
0
 10
4113.89990234375
 20
1040.427978515625
 42
-0
  0
VERTEX
  8
0
 10
4113.830078125
 20
1040.427978515625
 42
-0
  0
VERTEX
  8
0
 10
4089.613525390625
 20
1040.427978515625
 42
0.33140701055526733
  0
VERTEX
  8
0
 10
4051.292236328125
 20
1011.8941650390625
 42
-0
  0
VERTEX
  8
0
 10
4021.829833984375
 20
913.42791748046875
 42
-0
  0
VERTEX
  8
0
 10
4021.829833984375
 20
908.42791748046875
 42
-0
  0
VERTEX
  8
0
 10
4281.830078125
 20
908.42791748046875
 42
-0
  0
SEQEND
  0
POLYLINE
  8
0
 10
0
 20
0
 39
0
 70
1
 66
1
  0
VERTEX
  8
0
 10
4091.7763671875
 20
934.6156005859375
 42
-1.0020691156387329
  0
VERTEX
  8
0
 10
4051.920654296875
 20
946.5350341796875
 42
0
  0
VERTEX
  8
0
 10
4069.67333984375
 20
1006.3463745117187
 42
-1.000001072883606
  0
VERTEX
  8
0
 10
4109.5537109375
 20
994.5093994140625
 42
-0
  0
SEQEND
  0
POLYLINE
  8
0
 10
0
 20
0
 39
0
 70
1
 66
1
  0
VERTEX
  8
0
 10
1690.778564453125
 20
452.28128051757813
 42
0.70025700330734253
  0
VERTEX
  8
0
 10
1690.778564453125
 20
452.29214477539062
 42
-0.1503479927778244
  0
VERTEX
  8
0
 10
1522.8487548828125
 20
579.28125
 42
-0
  0
VERTEX
  8
0
 10
1522.778564453125
 20
579.28125
 42
-0
  0
VERTEX
  8
0
 10
1498.562255859375
 20
579.28125
 42
0.33140701055526733
  0
VERTEX
  8
0
 10
1460.2408447265625
 20
550.74749755859375
 42
-0
  0
VERTEX
  8
0
 10
1430.778564453125
 20
452.28128051757813
 42
-0
  0
VERTEX
  8
0
 10
1430.778564453125
 20
447.28128051757812
 42
-0
  0
VERTEX
  8
0
 10
1690.778564453125
 20
447.28128051757812
 42
-0
  0
SEQEND
  0
POLYLINE
  8
0
 10
0
 20
0
 39
0
 70
1
 66
1
  0
VERTEX
  8
0
 10
1500.72509765625
 20
473.46893310546875
 42
-1.0020691156387329
  0
VERTEX
  8
0
 10
1460.869384765625
 20
485.38836669921875
 42
0
  0
VERTEX
  8
0
 10
1478.6220703125
 20
545.19976806640625
 42
-1.000001072883606
  0
VERTEX
  8
0
 10
1518.50244140625
 20
533.36273193359375
 42
-0
  0
SEQEND
  0
POLYLINE
  8
0
 10
0
 20
0
 39
0
 70
1
 66
1
  0
VERTEX
  8
0
 10
1974.379150390625
 20
1478.96142578125
 42
-0
  0
VERTEX
  8
0
 10
2354.379150390625
 20
1478.961669921875
 42
-0
  0
VERTEX
  8
0
 10
2439.37890625
 20
1938.961669921875
 42
-0
  0
VERTEX
  8
0
 10
2439.37890625
 20
1963.961669921875
 42
-0
  0
VERTEX
  8
0
 10
1889.3787841796875
 20
1963.9613037109375
 42
-0
  0
VERTEX
  8
0
 10
1889.3787841796875
 20
1938.9613037109375
 42
-0
  0
SEQEND
  0
POLYLINE
  8
0
 10
0
 20
0
 39
0
 70
1
 66
1
  0
VERTEX
  8
0
 10
2076.87890625
 20
1658.96142578125
 42
-1
  0
VERTEX
  8
0
 10
2251.87890625
 20
1658.9615478515625
 42
-1
  0
SEQEND
  0
POLYLINE
  8
0
 10
0
 20
0
 39
0
 70
1
 66
1
  0
VERTEX
  8
0
 10
2838.1982421875
 20
1963.4908447265625
 42
-0
  0
VERTEX
  8
0
 10
2458.1982421875
 20
1963.49072265625
 42
-0
  0
VERTEX
  8
0
 10
2373.198486328125
 20
1503.4906005859375
 42
-0
  0
VERTEX
  8
0
 10
2373.198486328125
 20
1478.4906005859375
 42
-0
  0
VERTEX
  8
0
 10
2923.198486328125
 20
1478.4908447265625
 42
-0
  0
VERTEX
  8
0
 10
2923.198486328125
 20
1503.4908447265625
 42
-0
  0
SEQEND
  0
POLYLINE
  8
0
 10
0
 20
0
 39
0
 70
1
 66
1
  0
VERTEX
  8
0
 10
2735.6982421875
 20
1783.49072265625
 42
-1
  0
VERTEX
  8
0
 10
2560.6982421875
 20
1783.49072265625
 42
-1
  0
SEQEND
  0
POLYLINE
  8
0
 10
0
 20
0
 39
0
 70
1
 66
1
  0
VERTEX
  8
0
 10
2942.018310546875
 20
1478.96142578125
 42
-0
  0
VERTEX
  8
0
 10
3322.018310546875
 20
1478.961669921875
 42
-0
  0
VERTEX
  8
0
 10
3407.01806640625
 20
1938.961669921875
 42
-0
  0
VERTEX
  8
0
 10
3407.01806640625
 20
1963.961669921875
 42
-0
  0
VERTEX
  8
0
 10
2857.017822265625
 20
1963.9613037109375
 42
-0
  0
VERTEX
  8
0
 10
2857.01806640625
 20
1938.9613037109375
 42
-0
  0
SEQEND
  0
POLYLINE
  8
0
 10
0
 20
0
 39
0
 70
1
 66
1
  0
VERTEX
  8
0
 10
3044.51806640625
 20
1658.96142578125
 42
-1
  0
VERTEX
  8
0
 10
3219.51806640625
 20
1658.9615478515625
 42
-1
  0
SEQEND
  0
POLYLINE
  8
0
 10
0
 20
0
 39
0
 70
1
 66
1
  0
VERTEX
  8
0
 10
3805.83740234375
 20
1963.4908447265625
 42
-0
  0
VERTEX
  8
0
 10
3425.83740234375
 20
1963.49072265625
 42
-0
  0
VERTEX
  8
0
 10
3340.837646484375
 20
1503.4906005859375
 42
-0
  0
VERTEX
  8
0
 10
3340.837646484375
 20
1478.4906005859375
 42
-0
  0
VERTEX
  8
0
 10
3890.837646484375
 20
1478.4908447265625
 42
-0
  0
VERTEX
  8
0
 10
3890.837646484375
 20
1503.4908447265625
 42
-0
  0
SEQEND
  0
POLYLINE
  8
0
 10
0
 20
0
 39
0
 70
1
 66
1
  0
VERTEX
  8
0
 10
3703.33740234375
 20
1783.49072265625
 42
-1
  0
VERTEX
  8
0
 10
3528.33740234375
 20
1783.49072265625
 42
-1
  0
SEQEND
  0
POLYLINE
  8
0
 10
0
 20
0
 39
0
 70
1
 66
1
  0
VERTEX
  8
0
 10
3909.657470703125
 20
1478.96142578125
 42
-0
  0
VERTEX
  8
0
 10
4289.6572265625
 20
1478.961669921875
 42
-0
  0
VERTEX
  8
0
 10
4374.6572265625
 20
1938.961669921875
 42
-0
  0
VERTEX
  8
0
 10
4374.6572265625
 20
1963.961669921875
 42
-0
  0
VERTEX
  8
0
 10
3824.656982421875
 20
1963.9613037109375
 42
-0
  0
VERTEX
  8
0
 10
3824.6572265625
 20
1938.9613037109375
 42
-0
  0
SEQEND
  0
POLYLINE
  8
0
 10
0
 20
0
 39
0
 70
1
 66
1
  0
VERTEX
  8
0
 10
4012.1572265625
 20
1658.96142578125
 42
-1
  0
VERTEX
  8
0
 10
4187.1572265625
 20
1658.9615478515625
 42
-1
  0
SEQEND
  0
POLYLINE
  8
0
 10
0
 20
0
 39
0
 70
1
 66
1
  0
VERTEX
  8
0
 10
4772.89501953125
 20
1960.3419189453125
 42
-0
  0
VERTEX
  8
0
 10
4392.89501953125
 20
1960.341796875
 42
-0
  0
VERTEX
  8
0
 10
4307.89501953125
 20
1500.3416748046875
 42
-0
  0
VERTEX
  8
0
 10
4307.89501953125
 20
1475.3416748046875
 42
-0
  0
VERTEX
  8
0
 10
4857.89501953125
 20
1475.3419189453125
 42
-0
  0
VERTEX
  8
0
 10
4857.89501953125
 20
1500.3419189453125
 42
-0
  0
SEQEND
  0
POLYLINE
  8
0
 10
0
 20
0
 39
0
 70
1
 66
1
  0
VERTEX
  8
0
 10
4670.39501953125
 20
1780.341796875
 42
-1
  0
VERTEX
  8
0
 10
4495.39501953125
 20
1780.341796875
 42
-1
  0
SEQEND
  0
POLYLINE
  8
0
 10
0
 20
0
 39
0
 70
1
 66
1
  0
VERTEX
  8
0
 10
4968.70361328125
 20
1503.3358154296875
 42
-0
  0
VERTEX
  8
0
 10
5348.70361328125
 20
1503.3360595703125
 42
-0
  0
VERTEX
  8
0
 10
5433.703125
 20
1963.336181640625
 42
-0
  0
VERTEX
  8
0
 10
5433.703125
 20
1988.336181640625
 42
-0
  0
VERTEX
  8
0
 10
4883.703125
 20
1988.335693359375
 42
-0
  0
VERTEX
  8
0
 10
4883.703125
 20
1963.335693359375
 42
-0
  0
SEQEND
  0
POLYLINE
  8
0
 10
0
 20
0
 39
0
 70
1
 66
1
  0
VERTEX
  8
0
 10
5071.20361328125
 20
1683.3358154296875
 42
-1
  0
VERTEX
  8
0
 10
5246.20361328125
 20
1683.3359375
 42
-1
  0
SEQEND
  0
POLYLINE
  8
0
 10
0
 20
0
 39
0
 70
1
 66
1
  0
VERTEX
  8
0
 10
5417.13037109375
 20
497.0501708984375
 42
-0
  0
VERTEX
  8
0
 10
5037.13037109375
 20
497.05001831054687
 42
-0
  0
VERTEX
  8
0
 10
4952.13037109375
 20
37.04998779296875
 42
-0
  0
VERTEX
  8
0
 10
4952.13037109375
 20
12.04998779296875
 42
-0
  0
VERTEX
  8
0
 10
5502.13037109375
 20
12.050201416015625
 42
-0
  0
VERTEX
  8
0
 10
5502.13037109375
 20
37.050201416015625
 42
-0
  0
SEQEND
  0
POLYLINE
  8
0
 10
0
 20
0
 39
0
 70
1
 66
1
  0
VERTEX
  8
0
 10
5314.63037109375
 20
317.05010986328125
 42
-1
  0
VERTEX
  8
0
 10
5139.63037109375
 20
317.050048828125
 42
-1
  0
SEQEND
  0
POLYLINE
  8
0
 10
0
 20
0
 39
0
 70
1
 66
1
  0
VERTEX
  8
0
 10
5520.95068359375
 20
12.520743370056152
 42
-0
  0
VERTEX
  8
0
 10
5900.95068359375
 20
12.521039962768555
 42
-0
  0
VERTEX
  8
0
 10
5985.9501953125
 20
472.5211181640625
 42
-0
  0
VERTEX
  8
0
 10
5985.9501953125
 20
497.5211181640625
 42
-0
  0
VERTEX
  8
0
 10
5435.9501953125
 20
497.52069091796875
 42
-0
  0
VERTEX
  8
0
 10
5435.9501953125
 20
472.52069091796875
 42
-0
  0
SEQEND
  0
POLYLINE
  8
0
 10
0
 20
0
 39
0
 70
1
 66
1
  0
VERTEX
  8
0
 10
5623.45068359375
 20
192.52082824707031
 42
-1
  0
VERTEX
  8
0
 10
5798.45068359375
 20
192.52096557617187
 42
-1
  0
SEQEND
  0
POLYLINE
  8
0
 10
0
 20
0
 39
0
 70
1
 66
1
  0
VERTEX
  8
0
 10
5417.13037109375
 20
994.5706787109375
 42
-0
  0
VERTEX
  8
0
 10
5037.13037109375
 20
994.570556640625
 42
-0
  0
VERTEX
  8
0
 10
4952.13037109375
 20
534.570556640625
 42
-0
  0
VERTEX
  8
0
 10
4952.13037109375
 20
509.57052612304688
 42
-0
  0
VERTEX
  8
0
 10
5502.13037109375
 20
509.57073974609375
 42
-0
  0
VERTEX
  8
0
 10
5502.13037109375
 20
534.57073974609375
 42
-0
  0
SEQEND
  0
POLYLINE
  8
0
 10
0
 20
0
 39
0
 70
1
 66
1
  0
VERTEX
  8
0
 10
5314.63037109375
 20
814.5706787109375
 42
-1
  0
VERTEX
  8
0
 10
5139.63037109375
 20
814.57061767578125
 42
-1
  0
SEQEND
  0
POLYLINE
  8
0
 10
0
 20
0
 39
0
 70
1
 66
1
  0
VERTEX
  8
0
 10
5520.95068359375
 20
510.04132080078125
 42
-0
  0
VERTEX
  8
0
 10
5900.95068359375
 20
510.0416259765625
 42
-0
  0
VERTEX
  8
0
 10
5985.9501953125
 20
970.04168701171875
 42
-0
  0
VERTEX
  8
0
 10
5985.9501953125
 20
995.04168701171875
 42
-0
  0
VERTEX
  8
0
 10
5435.9501953125
 20
995.041259765625
 42
-0
  0
VERTEX
  8
0
 10
5435.9501953125
 20
970.041259765625
 42
-0
  0
SEQEND
  0
POLYLINE
  8
0
 10
0
 20
0
 39
0
 70
1
 66
1
  0
VERTEX
  8
0
 10
5623.45068359375
 20
690.0413818359375
 42
-1
  0
VERTEX
  8
0
 10
5798.45068359375
 20
690.04156494140625
 42
-1
  0
SEQEND
  0
POLYLINE
  8
0
 10
0
 20
0
 39
0
 70
1
 66
1
  0
VERTEX
  8
0
 10
5347.75146484375
 20
1491.6207275390625
 42
-0
  0
VERTEX
  8
0
 10
4967.75146484375
 20
1491.62060546875
 42
-0
  0
VERTEX
  8
0
 10
4882.75146484375
 20
1031.6204833984375
 42
-0
  0
VERTEX
  8
0
 10
4882.75146484375
 20
1006.6204833984375
 42
-0
  0
VERTEX
  8
0
 10
5432.75146484375
 20
1006.6207275390625
 42
-0
  0
VERTEX
  8
0
 10
5432.75146484375
 20
1031.6207275390625
 42
-0
  0
SEQEND
  0
POLYLINE
  8
0
 10
0
 20
0
 39
0
 70
1
 66
1
  0
VERTEX
  8
0
 10
5245.25146484375
 20
1311.62060546875
 42
-1
  0
VERTEX
  8
0
 10
5070.25146484375
 20
1311.62060546875
 42
-1
  0
SEQEND
  0
POLYLINE
  8
0
 10
0
 20
0
 39
0
 70
1
 66
1
  0
VERTEX
  8
0
 10
5451.57177734375
 20
1007.0912475585937
 42
-0
  0
VERTEX
  8
0
 10
5831.57177734375
 20
1007.091552734375
 42
-0
  0
VERTEX
  8
0
 10
5916.5712890625
 20
1467.091552734375
 42
-0
  0
VERTEX
  8
0
 10
5916.5712890625
 20
1492.091552734375
 42
-0
  0
VERTEX
  8
0
 10
5366.5712890625
 20
1492.0911865234375
 42
-0
  0
VERTEX
  8
0
 10
5366.5712890625
 20
1467.0911865234375
 42
-0
  0
SEQEND
  0
POLYLINE
  8
0
 10
0
 20
0
 39
0
 70
1
 66
1
  0
VERTEX
  8
0
 10
5554.07177734375
 20
1187.09130859375
 42
-1
  0
VERTEX
  8
0
 10
5729.07177734375
 20
1187.0914306640625
 42
-1
  0
SEQEND
  0
POLYLINE
  8
0
 10
0
 20
0
 39
0
 70
1
 66
1
  0
VERTEX
  8
0
 10
5838.6201171875
 20
1987.1417236328125
 42
-0
  0
VERTEX
  8
0
 10
5458.6201171875
 20
1987.1416015625
 42
-0
  0
VERTEX
  8
0
 10
5373.6201171875
 20
1527.1414794921875
 42
-0
  0
VERTEX
  8
0
 10
5373.6201171875
 20
1502.1414794921875
 42
-0
  0
VERTEX
  8
0
 10
5923.6201171875
 20
1502.1417236328125
 42
-0
  0
VERTEX
  8
0
 10
5923.6201171875
 20
1527.1417236328125
 42
-0
  0
SEQEND
  0
POLYLINE
  8
0
 10
0
 20
0
 39
0
 70
1
 66
1
  0
VERTEX
  8
0
 10
5736.1201171875
 20
1807.1416015625
 42
-1
  0
VERTEX
  8
0
 10
5561.1201171875
 20
1807.1416015625
 42
-1
  0
SEQEND
  0
POLYLINE
  8
0
 10
0
 20
0
 39
0
 70
1
 66
1
  0
VERTEX
  8
0
 10
4533.38037109375
 20
10.050000190734863
 42
-0
  0
VERTEX
  8
0
 10
4913.38037109375
 20
10.050296783447266
 42
-0
  0
VERTEX
  8
0
 10
4998.3798828125
 20
470.05035400390625
 42
-0
  0
VERTEX
  8
0
 10
4998.3798828125
 20
495.05035400390625
 42
-0
  0
VERTEX
  8
0
 10
4448.3798828125
 20
495.0499267578125
 42
-0
  0
VERTEX
  8
0
 10
4448.3798828125
 20
470.0499267578125
 42
-0
  0
SEQEND
  0
POLYLINE
  8
0
 10
0
 20
0
 39
0
 70
1
 66
1
  0
VERTEX
  8
0
 10
4635.88037109375
 20
190.05007934570312
 42
-1
  0
VERTEX
  8
0
 10
4810.88037109375
 20
190.05023193359375
 42
-1
  0
SEQEND
  0
POLYLINE
  8
0
 10
0
 20
0
 39
0
 70
1
 66
1
  0
VERTEX
  8
0
 10
2572.20556640625
 20
1224.1754150390625
 42
-0
  0
VERTEX
  8
0
 10
2910.20556640625
 20
1224.1754150390625
 42
-0
  0
VERTEX
  8
0
 10
2910.20556640625
 20
1448.1754150390625
 42
-0
  0
VERTEX
  8
0
 10
2572.20556640625
 20
1448.1754150390625
 42
-0
  0
SEQEND
  0
POLYLINE
  8
0
 10
0
 20
0
 39
0
 70
1
 66
1
  0
VERTEX
  8
0
 10
4376.021484375
 20
847.0999755859375
 42
-0
  0
VERTEX
  8
0
 10
4376.021484375
 20
509.0999755859375
 42
-0
  0
VERTEX
  8
0
 10
4600.021484375
 20
509.10000610351562
 42
-0
  0
VERTEX
  8
0
 10
4600.021484375
 20
847.10003662109375
 42
-0
  0
SEQEND
  0
POLYLINE
  8
0
 10
0
 20
0
 39
0
 70
1
 66
1
  0
VERTEX
  8
0
 10
4614.03125
 20
847.0999755859375
 42
-0
  0
VERTEX
  8
0
 10
4614.03125
 20
509.0999755859375
 42
-0
  0
VERTEX
  8
0
 10
4838.03125
 20
509.10000610351562
 42
-0
  0
VERTEX
  8
0
 10
4838.03125
 20
847.10003662109375
 42
-0
  0
SEQEND
  0
POLYLINE
  8
0
 10
0
 20
0
 39
0
 70
1
 66
1
  0
VERTEX
  8
0
 10
2439.414794921875
 20
91.213531494140625
 42
-0
  0
VERTEX
  8
0
 10
3339.414794921875
 20
91.213531494140625
 42
-0
  0
VERTEX
  8
0
 10
3339.414794921875
 20
137.21353149414062
 42
-0
  0
VERTEX
  8
0
 10
2439.414794921875
 20
137.21353149414062
 42
-0
  0
SEQEND
  0
POLYLINE
  8
0
 10
0
 20
0
 39
0
 70
1
 66
1
  0
VERTEX
  8
0
 10
3160.827392578125
 20
1405.628173828125
 42
-0
  0
VERTEX
  8
0
 10
4060.827392578125
 20
1405.628173828125
 42
-0
  0
VERTEX
  8
0
 10
4060.827392578125
 20
1451.628173828125
 42
-0
  0
VERTEX
  8
0
 10
3160.827392578125
 20
1451.628173828125
 42
-0
  0
SEQEND
  0
POLYLINE
  8
0
 10
0
 20
0
 39
0
 70
0
 66
1
  0
VERTEX
  8
0
 10
4409.568359375
 20
1158.7061767578125
 42
-0
  0
VERTEX
  8
0
 10
4402.568359375
 20
1165.7061767578125
 42
-0
  0
VERTEX
  8
0
 10
4402.568359375
 20
1188.7061767578125
 42
-0
  0
VERTEX
  8
0
 10
4626.568359375
 20
1208.7061767578125
 42
-0
  0
VERTEX
  8
0
 10
4626.568359375
 20
1165.7061767578125
 42
-0
  0
VERTEX
  8
0
 10
4619.568359375
 20
1158.7061767578125
 42
-0
  0
VERTEX
  8
0
 10
4626.568359375
 20
1165.7061767578125
 42
0
  0
SEQEND
  0
POLYLINE
  8
0
 10
0
 20
0
 39
0
 70
0
 66
1
  0
VERTEX
  8
0
 10
4416.1044921875
 20
1271.0294189453125
 42
-0
  0
VERTEX
  8
0
 10
4409.1044921875
 20
1278.0294189453125
 42
-0
  0
VERTEX
  8
0
 10
4409.1044921875
 20
1301.0294189453125
 42
-0
  0
VERTEX
  8
0
 10
4633.1044921875
 20
1321.0294189453125
 42
-0
  0
VERTEX
  8
0
 10
4633.1044921875
 20
1278.0294189453125
 42
-0
  0
VERTEX
  8
0
 10
4626.1044921875
 20
1271.0294189453125
 42
-0
  0
VERTEX
  8
0
 10
4633.1044921875
 20
1278.0294189453125
 42
0
  0
SEQEND
  0
POLYLINE
  8
0
 10
0
 20
0
 39
0
 70
0
 66
1
  0
VERTEX
  8
0
 10
4383.26123046875
 20
1333.585693359375
 42
-0
  0
VERTEX
  8
0
 10
4376.26123046875
 20
1340.585693359375
 42
-0
  0
VERTEX
  8
0
 10
4376.26123046875
 20
1363.585693359375
 42
-0
  0
VERTEX
  8
0
 10
4600.26123046875
 20
1383.585693359375
 42
-0
  0
VERTEX
  8
0
 10
4600.26123046875
 20
1340.585693359375
 42
-0
  0
VERTEX
  8
0
 10
4593.26123046875
 20
1333.585693359375
 42
-0
  0
VERTEX
  8
0
 10
4600.26123046875
 20
1340.585693359375
 42
0
  0
SEQEND
  0
POLYLINE
  8
0
 10
0
 20
0
 39
0
 70
0
 66
1
  0
VERTEX
  8
0
 10
4088.0791015625
 20
1354.0865478515625
 42
-0
  0
VERTEX
  8
0
 10
4081.0791015625
 20
1361.0865478515625
 42
-0
  0
VERTEX
  8
0
 10
4081.0791015625
 20
1384.0865478515625
 42
-0
  0
VERTEX
  8
0
 10
4305.0791015625
 20
1404.0865478515625
 42
-0
  0
VERTEX
  8
0
 10
4305.0791015625
 20
1361.0865478515625
 42
-0
  0
VERTEX
  8
0
 10
4298.0791015625
 20
1354.0865478515625
 42
-0
  0
VERTEX
  8
0
 10
4305.0791015625
 20
1361.0865478515625
 42
0
  0
SEQEND
  0
POLYLINE
  8
0
 10
0
 20
0
 39
0
 70
0
 66
1
  0
VERTEX
  8
0
 10
4350.376953125
 20
1396.1383056640625
 42
-0
  0
VERTEX
  8
0
 10
4343.376953125
 20
1403.1383056640625
 42
-0
  0
VERTEX
  8
0
 10
4343.376953125
 20
1426.1383056640625
 42
-0
  0
VERTEX
  8
0
 10
4567.376953125
 20
1446.1383056640625
 42
-0
  0
VERTEX
  8
0
 10
4567.376953125
 20
1403.1383056640625
 42
-0
  0
VERTEX
  8
0
 10
4560.376953125
 20
1396.1383056640625
 42
-0
  0
VERTEX
  8
0
 10
4567.376953125
 20
1403.1383056640625
 42
0
  0
SEQEND
  0
POLYLINE
  8
0
 10
0
 20
0
 39
0
 70
0
 66
1
  0
VERTEX
  8
0
 10
4669.3076171875
 20
1229.370361328125
 42
-0
  0
VERTEX
  8
0
 10
4662.3076171875
 20
1236.370361328125
 42
-0
  0
VERTEX
  8
0
 10
4662.3076171875
 20
1259.370361328125
 42
-0
  0
VERTEX
  8
0
 10
4886.3076171875
 20
1279.370361328125
 42
-0
  0
VERTEX
  8
0
 10
4886.3076171875
 20
1236.370361328125
 42
-0
  0
VERTEX
  8
0
 10
4879.3076171875
 20
1229.370361328125
 42
-0
  0
VERTEX
  8
0
 10
4886.3076171875
 20
1236.370361328125
 42
0
  0
SEQEND
  0
POLYLINE
  8
0
 10
0
 20
0
 39
0
 70
0
 66
1
  0
VERTEX
  8
0
 10
4669.30810546875
 20
1334.8409423828125
 42
-0
  0
VERTEX
  8
0
 10
4662.30810546875
 20
1341.8409423828125
 42
-0
  0
VERTEX
  8
0
 10
4662.30810546875
 20
1364.8409423828125
 42
-0
  0
VERTEX
  8
0
 10
4886.30810546875
 20
1384.8409423828125
 42
-0
  0
VERTEX
  8
0
 10
4886.30810546875
 20
1341.8409423828125
 42
-0
  0
VERTEX
  8
0
 10
4879.30810546875
 20
1334.8409423828125
 42
-0
  0
VERTEX
  8
0
 10
4886.30810546875
 20
1341.8409423828125
 42
0
  0
SEQEND
  0
POLYLINE
  8
0
 10
0
 20
0
 39
0
 70
1
 66
1
  0
VERTEX
  8
0
 10
4181.1181640625
 20
91.830276489257813
 42
-0
  0
VERTEX
  8
0
 10
4341.1181640625
 20
91.830368041992188
 42
1
  0
VERTEX
  8
0
 10
4341.1181640625
 20
131.83036804199219
 42
-0
  0
VERTEX
  8
0
 10
4161.1181640625
 20
131.83026123046875
 42
0.41421398520469666
  0
VERTEX
  8
0
 10
4121.1181640625
 20
91.830245971679688
 42
-0
  0
VERTEX
  8
0
 10
4121.1181640625
 20
54.830242156982422
 42
-0
  0
VERTEX
  8
0
 10
4161.1181640625
 20
54.830265045166016
 42
-0
  0
VERTEX
  8
0
 10
4161.1181640625
 20
71.830268859863281
 42
-0.41421398520469666
  0
SEQEND
  0
POLYLINE
  8
0
 10
0
 20
0
 39
0
 70
1
 66
1
  0
VERTEX
  8
0
 10
3123.4384765625
 20
1282.9361572265625
 42
-0
  0
VERTEX
  8
0
 10
2963.4384765625
 20
1282.9361572265625
 42
1
  0
VERTEX
  8
0
 10
2963.4384765625
 20
1242.9361572265625
 42
-0
  0
VERTEX
  8
0
 10
3143.4384765625
 20
1242.9361572265625
 42
0.41421398520469666
  0
VERTEX
  8
0
 10
3183.4384765625
 20
1282.9361572265625
 42
-0
  0
VERTEX
  8
0
 10
3183.4384765625
 20
1319.9361572265625
 42
-0
  0
VERTEX
  8
0
 10
3143.4384765625
 20
1319.9361572265625
 42
-0
  0
VERTEX
  8
0
 10
3143.4384765625
 20
1302.9361572265625
 42
-0.41421398520469666
  0
SEQEND
  0
POLYLINE
  8
0
 10
0
 20
0
 39
0
 70
1
 66
1
  0
VERTEX
  8
0
 10
3003.876953125
 20
1349.5780029296875
 42
-0
  0
VERTEX
  8
0
 10
3163.876953125
 20
1349.578125
 42
1
  0
VERTEX
  8
0
 10
3163.876953125
 20
1389.578125
 42
-0
  0
VERTEX
  8
0
 10
2983.876953125
 20
1389.5780029296875
 42
0.41421398520469666
  0
VERTEX
  8
0
 10
2943.876953125
 20
1349.5780029296875
 42
-0
  0
VERTEX
  8
0
 10
2943.876953125
 20
1312.5780029296875
 42
-0
  0
VERTEX
  8
0
 10
2983.876953125
 20
1312.5780029296875
 42
-0
  0
VERTEX
  8
0
 10
2983.876953125
 20
1329.5780029296875
 42
-0.41421398520469666
  0
SEQEND
  0
ENDSEC
  0
EOF
