  0
SECTION
  2
ENTITIES
  0
POLYLINE
  8
0
 10
0
 20
0
 39
0
 70
1
 66
1
  0
VERTEX
  8
0
 10
0
 20
0
 42
-0
  0
VERTEX
  8
0
 10
2000
 20
0
 42
-0
  0
VERTEX
  8
0
 10
2000
 20
1250
 42
-0
  0
VERTEX
  8
0
 10
0
 20
1250
 42
-0
  0
SEQEND
  0
POLYLINE
  8
0
 10
0
 20
0
 39
0
 70
1
 66
1
  0
VERTEX
  8
0
 10
460.39999389648437
 20
10.399999618530273
 42
-0
  0
VERTEX
  8
0
 10
460.39999389648437
 20
460.39999389648437
 42
-0
  0
VERTEX
  8
0
 10
10.399999618530273
 20
460.39999389648437
 42
-0
  0
VERTEX
  8
0
 10
10.399999618530273
 20
10.399999618530273
 42
-0
  0
SEQEND
  0
POLYLINE
  8
0
 10
0
 20
0
 39
0
 70
1
 66
1
  0
VERTEX
  8
0
 10
397.39999389648437
 20
73.400001525878906
 42
-0
  0
VERTEX
  8
0
 10
73.400001525878906
 20
73.400001525878906
 42
-0
  0
VERTEX
  8
0
 10
73.400001525878906
 20
397.39999389648437
 42
-0
  0
VERTEX
  8
0
 10
397.39999389648437
 20
397.39999389648437
 42
-0
  0
SEQEND
  0
POLYLINE
  8
0
 10
0
 20
0
 39
0
 70
1
 66
1
  0
VERTEX
  8
0
 10
445.39999389648437
 20
60.400001525878906
 42
-1
  0
VERTEX
  8
0
 10
415.39999389648437
 20
60.400001525878906
 42
-1
  0
SEQEND
  0
POLYLINE
  8
0
 10
0
 20
0
 39
0
 70
1
 66
1
  0
VERTEX
  8
0
 10
445.39999389648437
 20
410.39999389648438
 42
-1
  0
VERTEX
  8
0
 10
415.39999389648437
 20
410.39999389648438
 42
-1
  0
SEQEND
  0
POLYLINE
  8
0
 10
0
 20
0
 39
0
 70
1
 66
1
  0
VERTEX
  8
0
 10
460.39999389648437
 20
470.60000610351562
 42
-0
  0
VERTEX
  8
0
 10
460.39999389648437
 20
920.5999755859375
 42
-0
  0
VERTEX
  8
0
 10
10.399999618530273
 20
920.5999755859375
 42
-0
  0
VERTEX
  8
0
 10
10.399999618530273
 20
470.60000610351562
 42
-0
  0
SEQEND
  0
POLYLINE
  8
0
 10
0
 20
0
 39
0
 70
1
 66
1
  0
VERTEX
  8
0
 10
397.39999389648437
 20
533.5999755859375
 42
-0
  0
VERTEX
  8
0
 10
73.400001525878906
 20
533.5999755859375
 42
-0
  0
VERTEX
  8
0
 10
73.400001525878906
 20
857.5999755859375
 42
-0
  0
VERTEX
  8
0
 10
397.39999389648437
 20
857.5999755859375
 42
-0
  0
SEQEND
  0
POLYLINE
  8
0
 10
0
 20
0
 39
0
 70
1
 66
1
  0
VERTEX
  8
0
 10
445.39999389648437
 20
520.5999755859375
 42
-1
  0
VERTEX
  8
0
 10
415.39999389648437
 20
520.5999755859375
 42
-1
  0
SEQEND
  0
POLYLINE
  8
0
 10
0
 20
0
 39
0
 70
1
 66
1
  0
VERTEX
  8
0
 10
445.39999389648437
 20
870.5999755859375
 42
-1
  0
VERTEX
  8
0
 10
415.39999389648437
 20
870.5999755859375
 42
-1
  0
SEQEND
  0
POLYLINE
  8
0
 10
0
 20
0
 39
0
 70
1
 66
1
  0
VERTEX
  8
0
 10
920.79998779296875
 20
10.399999618530273
 42
-0
  0
VERTEX
  8
0
 10
920.79998779296875
 20
460.39999389648437
 42
-0
  0
VERTEX
  8
0
 10
470.79998779296875
 20
460.39999389648437
 42
-0
  0
VERTEX
  8
0
 10
470.79998779296875
 20
10.399999618530273
 42
-0
  0
SEQEND
  0
POLYLINE
  8
0
 10
0
 20
0
 39
0
 70
1
 66
1
  0
VERTEX
  8
0
 10
857.79998779296875
 20
73.400001525878906
 42
-0
  0
VERTEX
  8
0
 10
533.79998779296875
 20
73.400001525878906
 42
-0
  0
VERTEX
  8
0
 10
533.79998779296875
 20
397.39999389648437
 42
-0
  0
VERTEX
  8
0
 10
857.79998779296875
 20
397.39999389648437
 42
-0
  0
SEQEND
  0
POLYLINE
  8
0
 10
0
 20
0
 39
0
 70
1
 66
1
  0
VERTEX
  8
0
 10
905.79998779296875
 20
60.400001525878906
 42
-1
  0
VERTEX
  8
0
 10
875.79998779296875
 20
60.400001525878906
 42
-1
  0
SEQEND
  0
POLYLINE
  8
0
 10
0
 20
0
 39
0
 70
1
 66
1
  0
VERTEX
  8
0
 10
905.79998779296875
 20
410.39999389648438
 42
-1
  0
VERTEX
  8
0
 10
875.79998779296875
 20
410.39999389648438
 42
-1
  0
SEQEND
  0
POLYLINE
  8
0
 10
0
 20
0
 39
0
 70
1
 66
1
  0
VERTEX
  8
0
 10
920.79998779296875
 20
470.60000610351562
 42
-0
  0
VERTEX
  8
0
 10
920.79998779296875
 20
920.5999755859375
 42
-0
  0
VERTEX
  8
0
 10
470.79998779296875
 20
920.5999755859375
 42
-0
  0
VERTEX
  8
0
 10
470.79998779296875
 20
470.60000610351562
 42
-0
  0
SEQEND
  0
POLYLINE
  8
0
 10
0
 20
0
 39
0
 70
1
 66
1
  0
VERTEX
  8
0
 10
857.79998779296875
 20
533.5999755859375
 42
-0
  0
VERTEX
  8
0
 10
533.79998779296875
 20
533.5999755859375
 42
-0
  0
VERTEX
  8
0
 10
533.79998779296875
 20
857.5999755859375
 42
-0
  0
VERTEX
  8
0
 10
857.79998779296875
 20
857.5999755859375
 42
-0
  0
SEQEND
  0
POLYLINE
  8
0
 10
0
 20
0
 39
0
 70
1
 66
1
  0
VERTEX
  8
0
 10
905.79998779296875
 20
520.5999755859375
 42
-1
  0
VERTEX
  8
0
 10
875.79998779296875
 20
520.5999755859375
 42
-1
  0
SEQEND
  0
POLYLINE
  8
0
 10
0
 20
0
 39
0
 70
1
 66
1
  0
VERTEX
  8
0
 10
905.79998779296875
 20
870.5999755859375
 42
-1
  0
VERTEX
  8
0
 10
875.79998779296875
 20
870.5999755859375
 42
-1
  0
SEQEND
  0
POLYLINE
  8
0
 10
0
 20
0
 39
0
 70
1
 66
1
  0
VERTEX
  8
0
 10
1381.199951171875
 20
10.399999618530273
 42
-0
  0
VERTEX
  8
0
 10
1381.199951171875
 20
460.39999389648437
 42
-0
  0
VERTEX
  8
0
 10
931.20001220703125
 20
460.39999389648437
 42
-0
  0
VERTEX
  8
0
 10
931.20001220703125
 20
10.399999618530273
 42
-0
  0
SEQEND
  0
POLYLINE
  8
0
 10
0
 20
0
 39
0
 70
1
 66
1
  0
VERTEX
  8
0
 10
1318.199951171875
 20
73.400001525878906
 42
-0
  0
VERTEX
  8
0
 10
994.20001220703125
 20
73.400001525878906
 42
-0
  0
VERTEX
  8
0
 10
994.20001220703125
 20
397.39999389648437
 42
-0
  0
VERTEX
  8
0
 10
1318.199951171875
 20
397.39999389648437
 42
-0
  0
SEQEND
  0
POLYLINE
  8
0
 10
0
 20
0
 39
0
 70
1
 66
1
  0
VERTEX
  8
0
 10
1366.199951171875
 20
60.400001525878906
 42
-1
  0
VERTEX
  8
0
 10
1336.199951171875
 20
60.400001525878906
 42
-1
  0
SEQEND
  0
POLYLINE
  8
0
 10
0
 20
0
 39
0
 70
1
 66
1
  0
VERTEX
  8
0
 10
1366.199951171875
 20
410.39999389648438
 42
-1
  0
VERTEX
  8
0
 10
1336.199951171875
 20
410.39999389648438
 42
-1
  0
SEQEND
  0
POLYLINE
  8
0
 10
0
 20
0
 39
0
 70
1
 66
1
  0
VERTEX
  8
0
 10
1381.199951171875
 20
470.60000610351562
 42
-0
  0
VERTEX
  8
0
 10
1381.199951171875
 20
920.5999755859375
 42
-0
  0
VERTEX
  8
0
 10
931.20001220703125
 20
920.5999755859375
 42
-0
  0
VERTEX
  8
0
 10
931.20001220703125
 20
470.60000610351562
 42
-0
  0
SEQEND
  0
POLYLINE
  8
0
 10
0
 20
0
 39
0
 70
1
 66
1
  0
VERTEX
  8
0
 10
1318.199951171875
 20
533.5999755859375
 42
-0
  0
VERTEX
  8
0
 10
994.20001220703125
 20
533.5999755859375
 42
-0
  0
VERTEX
  8
0
 10
994.20001220703125
 20
857.5999755859375
 42
-0
  0
VERTEX
  8
0
 10
1318.199951171875
 20
857.5999755859375
 42
-0
  0
SEQEND
  0
POLYLINE
  8
0
 10
0
 20
0
 39
0
 70
1
 66
1
  0
VERTEX
  8
0
 10
1366.199951171875
 20
520.5999755859375
 42
-1
  0
VERTEX
  8
0
 10
1336.199951171875
 20
520.5999755859375
 42
-1
  0
SEQEND
  0
POLYLINE
  8
0
 10
0
 20
0
 39
0
 70
1
 66
1
  0
VERTEX
  8
0
 10
1366.199951171875
 20
870.5999755859375
 42
-1
  0
VERTEX
  8
0
 10
1336.199951171875
 20
870.5999755859375
 42
-1
  0
SEQEND
  0
POLYLINE
  8
0
 10
0
 20
0
 39
0
 70
1
 66
1
  0
VERTEX
  8
0
 10
1841.5999755859375
 20
10.399999618530273
 42
-0
  0
VERTEX
  8
0
 10
1841.5999755859375
 20
460.39999389648437
 42
-0
  0
VERTEX
  8
0
 10
1391.5999755859375
 20
460.39999389648437
 42
-0
  0
VERTEX
  8
0
 10
1391.5999755859375
 20
10.399999618530273
 42
-0
  0
SEQEND
  0
POLYLINE
  8
0
 10
0
 20
0
 39
0
 70
1
 66
1
  0
VERTEX
  8
0
 10
1778.5999755859375
 20
73.400001525878906
 42
-0
  0
VERTEX
  8
0
 10
1454.5999755859375
 20
73.400001525878906
 42
-0
  0
VERTEX
  8
0
 10
1454.5999755859375
 20
397.39999389648437
 42
-0
  0
VERTEX
  8
0
 10
1778.5999755859375
 20
397.39999389648437
 42
-0
  0
SEQEND
  0
POLYLINE
  8
0
 10
0
 20
0
 39
0
 70
1
 66
1
  0
VERTEX
  8
0
 10
1826.5999755859375
 20
60.400001525878906
 42
-1
  0
VERTEX
  8
0
 10
1796.5999755859375
 20
60.400001525878906
 42
-1
  0
SEQEND
  0
POLYLINE
  8
0
 10
0
 20
0
 39
0
 70
1
 66
1
  0
VERTEX
  8
0
 10
1826.5999755859375
 20
410.39999389648438
 42
-1
  0
VERTEX
  8
0
 10
1796.5999755859375
 20
410.39999389648438
 42
-1
  0
SEQEND
  0
POLYLINE
  8
0
 10
0
 20
0
 39
0
 70
1
 66
1
  0
VERTEX
  8
0
 10
1841.5999755859375
 20
470.60000610351562
 42
-0
  0
VERTEX
  8
0
 10
1841.5999755859375
 20
920.5999755859375
 42
-0
  0
VERTEX
  8
0
 10
1391.5999755859375
 20
920.5999755859375
 42
-0
  0
VERTEX
  8
0
 10
1391.5999755859375
 20
470.60000610351562
 42
-0
  0
SEQEND
  0
POLYLINE
  8
0
 10
0
 20
0
 39
0
 70
1
 66
1
  0
VERTEX
  8
0
 10
1778.5999755859375
 20
533.5999755859375
 42
-0
  0
VERTEX
  8
0
 10
1454.5999755859375
 20
533.5999755859375
 42
-0
  0
VERTEX
  8
0
 10
1454.5999755859375
 20
857.5999755859375
 42
-0
  0
VERTEX
  8
0
 10
1778.5999755859375
 20
857.5999755859375
 42
-0
  0
SEQEND
  0
POLYLINE
  8
0
 10
0
 20
0
 39
0
 70
1
 66
1
  0
VERTEX
  8
0
 10
1826.5999755859375
 20
520.5999755859375
 42
-1
  0
VERTEX
  8
0
 10
1796.5999755859375
 20
520.5999755859375
 42
-1
  0
SEQEND
  0
POLYLINE
  8
0
 10
0
 20
0
 39
0
 70
1
 66
1
  0
VERTEX
  8
0
 10
1826.5999755859375
 20
870.5999755859375
 42
-1
  0
VERTEX
  8
0
 10
1796.5999755859375
 20
870.5999755859375
 42
-1
  0
SEQEND
  0
POLYLINE
  8
0
 10
0
 20
0
 39
0
 70
1
 66
1
  0
VERTEX
  8
0
 10
510.39999389648437
 20
930.79998779296875
 42
0
  0
VERTEX
  8
0
 10
510.39999389648437
 20
1130.800048828125
 42
0
  0
VERTEX
  8
0
 10
10.399999618530273
 20
1130.800048828125
 42
0
  0
VERTEX
  8
0
 10
10.399999618530273
 20
930.79998779296875
 42
0
  0
SEQEND
  0
POLYLINE
  8
0
 10
0
 20
0
 39
0
 70
1
 66
1
  0
VERTEX
  8
0
 10
75.710975646972656
 20
1092.68505859375
 42
-1
  0
VERTEX
  8
0
 10
39.710975646972656
 20
1092.68505859375
 42
-1
  0
SEQEND
  0
POLYLINE
  8
0
 10
0
 20
0
 39
0
 70
1
 66
1
  0
VERTEX
  8
0
 10
312.39999389648437
 20
1030.800048828125
 42
-1
  0
VERTEX
  8
0
 10
208.39999389648437
 20
1030.800048828125
 42
-1
  0
SEQEND
  0
POLYLINE
  8
0
 10
0
 20
0
 39
0
 70
1
 66
1
  0
VERTEX
  8
0
 10
1020.7999877929687
 20
930.79998779296875
 42
0
  0
VERTEX
  8
0
 10
1020.7999877929687
 20
1130.800048828125
 42
0
  0
VERTEX
  8
0
 10
520.79998779296875
 20
1130.800048828125
 42
0
  0
VERTEX
  8
0
 10
520.79998779296875
 20
930.79998779296875
 42
0
  0
SEQEND
  0
POLYLINE
  8
0
 10
0
 20
0
 39
0
 70
1
 66
1
  0
VERTEX
  8
0
 10
586.1109619140625
 20
1092.68505859375
 42
-1
  0
VERTEX
  8
0
 10
550.1109619140625
 20
1092.68505859375
 42
-1
  0
SEQEND
  0
POLYLINE
  8
0
 10
0
 20
0
 39
0
 70
1
 66
1
  0
VERTEX
  8
0
 10
822.79998779296875
 20
1030.800048828125
 42
-1
  0
VERTEX
  8
0
 10
718.79998779296875
 20
1030.800048828125
 42
-1
  0
SEQEND
  0
POLYLINE
  8
0
 10
0
 20
0
 39
0
 70
1
 66
1
  0
VERTEX
  8
0
 10
1531.199951171875
 20
930.79998779296875
 42
0
  0
VERTEX
  8
0
 10
1531.199951171875
 20
1130.800048828125
 42
0
  0
VERTEX
  8
0
 10
1031.199951171875
 20
1130.800048828125
 42
0
  0
VERTEX
  8
0
 10
1031.199951171875
 20
930.79998779296875
 42
0
  0
SEQEND
  0
POLYLINE
  8
0
 10
0
 20
0
 39
0
 70
1
 66
1
  0
VERTEX
  8
0
 10
1096.510986328125
 20
1092.68505859375
 42
-1
  0
VERTEX
  8
0
 10
1060.510986328125
 20
1092.68505859375
 42
-1
  0
SEQEND
  0
POLYLINE
  8
0
 10
0
 20
0
 39
0
 70
1
 66
1
  0
VERTEX
  8
0
 10
1333.199951171875
 20
1030.800048828125
 42
-1
  0
VERTEX
  8
0
 10
1229.199951171875
 20
1030.800048828125
 42
-1
  0
SEQEND
  0
POLYLINE
  8
0
 10
0
 20
0
 39
0
 70
1
 66
1
  0
VERTEX
  8
0
 10
227.80000305175781
 20
83.800003051757813
 42
0
  0
VERTEX
  8
0
 10
227.80000305175781
 20
214.77359008789062
 42
0
  0
VERTEX
  8
0
 10
187.80000305175781
 20
274.79998779296875
 42
0
  0
VERTEX
  8
0
 10
187.80000305175781
 20
385.79998779296875
 42
0
  0
VERTEX
  8
0
 10
83.800003051757813
 20
385.79998779296875
 42
0
  0
VERTEX
  8
0
 10
83.800003051757813
 20
83.800003051757813
 42
0
  0
VERTEX
  8
0
 10
123.80000305175781
 20
83.800003051757813
 42
0
  0
VERTEX
  8
0
 10
123.80000305175781
 20
113.80000305175781
 42
0
  0
VERTEX
  8
0
 10
187.80000305175781
 20
113.80000305175781
 42
0
  0
VERTEX
  8
0
 10
187.80000305175781
 20
83.800003051757813
 42
0
  0
SEQEND
  0
POLYLINE
  8
0
 10
0
 20
0
 39
0
 70
1
 66
1
  0
VERTEX
  8
0
 10
183.30000305175781
 20
201.50088500976562
 42
-1
  0
VERTEX
  8
0
 10
128.30000305175781
 20
201.50088500976562
 42
-1
  0
SEQEND
  0
POLYLINE
  8
0
 10
0
 20
0
 39
0
 70
1
 66
1
  0
VERTEX
  8
0
 10
227.80000305175781
 20
544
 42
0
  0
VERTEX
  8
0
 10
227.80000305175781
 20
674.97357177734375
 42
0
  0
VERTEX
  8
0
 10
187.80000305175781
 20
735
 42
0
  0
VERTEX
  8
0
 10
187.80000305175781
 20
846
 42
0
  0
VERTEX
  8
0
 10
83.800003051757813
 20
846
 42
0
  0
VERTEX
  8
0
 10
83.800003051757813
 20
544
 42
0
  0
VERTEX
  8
0
 10
123.80000305175781
 20
544
 42
0
  0
VERTEX
  8
0
 10
123.80000305175781
 20
574
 42
0
  0
VERTEX
  8
0
 10
187.80000305175781
 20
574
 42
0
  0
VERTEX
  8
0
 10
187.80000305175781
 20
544
 42
0
  0
SEQEND
  0
POLYLINE
  8
0
 10
0
 20
0
 39
0
 70
1
 66
1
  0
VERTEX
  8
0
 10
183.30000305175781
 20
661.70086669921875
 42
-1
  0
VERTEX
  8
0
 10
128.30000305175781
 20
661.70086669921875
 42
-1
  0
SEQEND
  0
POLYLINE
  8
0
 10
0
 20
0
 39
0
 70
1
 66
1
  0
VERTEX
  8
0
 10
213
 20
387
 42
0
  0
VERTEX
  8
0
 10
213
 20
256.02642822265625
 42
0
  0
VERTEX
  8
0
 10
253
 20
196
 42
0
  0
VERTEX
  8
0
 10
253
 20
85
 42
0
  0
VERTEX
  8
0
 10
357
 20
85
 42
0
  0
VERTEX
  8
0
 10
357
 20
387
 42
0
  0
VERTEX
  8
0
 10
317
 20
387
 42
0
  0
VERTEX
  8
0
 10
317
 20
357
 42
0
  0
VERTEX
  8
0
 10
253
 20
357
 42
0
  0
VERTEX
  8
0
 10
253
 20
387
 42
0
  0
SEQEND
  0
POLYLINE
  8
0
 10
0
 20
0
 39
0
 70
1
 66
1
  0
VERTEX
  8
0
 10
257.5
 20
269.29913330078125
 42
-1
  0
VERTEX
  8
0
 10
312.5
 20
269.29913330078125
 42
-1
  0
SEQEND
  0
POLYLINE
  8
0
 10
0
 20
0
 39
0
 70
1
 66
1
  0
VERTEX
  8
0
 10
213
 20
847.20001220703125
 42
0
  0
VERTEX
  8
0
 10
213
 20
716.2264404296875
 42
0
  0
VERTEX
  8
0
 10
253
 20
656.20001220703125
 42
0
  0
VERTEX
  8
0
 10
253
 20
545.20001220703125
 42
0
  0
VERTEX
  8
0
 10
357
 20
545.20001220703125
 42
0
  0
VERTEX
  8
0
 10
357
 20
847.20001220703125
 42
0
  0
VERTEX
  8
0
 10
317
 20
847.20001220703125
 42
0
  0
VERTEX
  8
0
 10
317
 20
817.20001220703125
 42
0
  0
VERTEX
  8
0
 10
253
 20
817.20001220703125
 42
0
  0
VERTEX
  8
0
 10
253
 20
847.20001220703125
 42
0
  0
SEQEND
  0
POLYLINE
  8
0
 10
0
 20
0
 39
0
 70
1
 66
1
  0
VERTEX
  8
0
 10
257.5
 20
729.4991455078125
 42
-1
  0
VERTEX
  8
0
 10
312.5
 20
729.4991455078125
 42
-1
  0
SEQEND
  0
POLYLINE
  8
0
 10
0
 20
0
 39
0
 70
1
 66
1
  0
VERTEX
  8
0
 10
688.20001220703125
 20
83.800003051757813
 42
0
  0
VERTEX
  8
0
 10
688.20001220703125
 20
214.77359008789062
 42
0
  0
VERTEX
  8
0
 10
648.20001220703125
 20
274.79998779296875
 42
0
  0
VERTEX
  8
0
 10
648.20001220703125
 20
385.79998779296875
 42
0
  0
VERTEX
  8
0
 10
544.20001220703125
 20
385.79998779296875
 42
0
  0
VERTEX
  8
0
 10
544.20001220703125
 20
83.800003051757813
 42
0
  0
VERTEX
  8
0
 10
584.20001220703125
 20
83.800003051757813
 42
0
  0
VERTEX
  8
0
 10
584.20001220703125
 20
113.80000305175781
 42
0
  0
VERTEX
  8
0
 10
648.20001220703125
 20
113.80000305175781
 42
0
  0
VERTEX
  8
0
 10
648.20001220703125
 20
83.800003051757813
 42
0
  0
SEQEND
  0
POLYLINE
  8
0
 10
0
 20
0
 39
0
 70
1
 66
1
  0
VERTEX
  8
0
 10
643.70001220703125
 20
201.50088500976562
 42
-1
  0
VERTEX
  8
0
 10
588.70001220703125
 20
201.50088500976562
 42
-1
  0
SEQEND
  0
POLYLINE
  8
0
 10
0
 20
0
 39
0
 70
1
 66
1
  0
VERTEX
  8
0
 10
688.20001220703125
 20
544
 42
0
  0
VERTEX
  8
0
 10
688.20001220703125
 20
674.97357177734375
 42
0
  0
VERTEX
  8
0
 10
648.20001220703125
 20
735
 42
0
  0
VERTEX
  8
0
 10
648.20001220703125
 20
846
 42
0
  0
VERTEX
  8
0
 10
544.20001220703125
 20
846
 42
0
  0
VERTEX
  8
0
 10
544.20001220703125
 20
544
 42
0
  0
VERTEX
  8
0
 10
584.20001220703125
 20
544
 42
0
  0
VERTEX
  8
0
 10
584.20001220703125
 20
574
 42
0
  0
VERTEX
  8
0
 10
648.20001220703125
 20
574
 42
0
  0
VERTEX
  8
0
 10
648.20001220703125
 20
544
 42
0
  0
SEQEND
  0
POLYLINE
  8
0
 10
0
 20
0
 39
0
 70
1
 66
1
  0
VERTEX
  8
0
 10
643.70001220703125
 20
661.70086669921875
 42
-1
  0
VERTEX
  8
0
 10
588.70001220703125
 20
661.70086669921875
 42
-1
  0
SEQEND
  0
POLYLINE
  8
0
 10
0
 20
0
 39
0
 70
1
 66
1
  0
VERTEX
  8
0
 10
673.4000244140625
 20
387
 42
0
  0
VERTEX
  8
0
 10
673.4000244140625
 20
256.02642822265625
 42
0
  0
VERTEX
  8
0
 10
713.4000244140625
 20
196
 42
0
  0
VERTEX
  8
0
 10
713.4000244140625
 20
85
 42
0
  0
VERTEX
  8
0
 10
817.4000244140625
 20
85
 42
0
  0
VERTEX
  8
0
 10
817.4000244140625
 20
387
 42
0
  0
VERTEX
  8
0
 10
777.4000244140625
 20
387
 42
0
  0
VERTEX
  8
0
 10
777.4000244140625
 20
357
 42
0
  0
VERTEX
  8
0
 10
713.4000244140625
 20
357
 42
0
  0
VERTEX
  8
0
 10
713.4000244140625
 20
387
 42
0
  0
SEQEND
  0
POLYLINE
  8
0
 10
0
 20
0
 39
0
 70
1
 66
1
  0
VERTEX
  8
0
 10
717.9000244140625
 20
269.29913330078125
 42
-1
  0
VERTEX
  8
0
 10
772.9000244140625
 20
269.29913330078125
 42
-1
  0
SEQEND
  0
POLYLINE
  8
0
 10
0
 20
0
 39
0
 70
1
 66
1
  0
VERTEX
  8
0
 10
673.4000244140625
 20
847.20001220703125
 42
0
  0
VERTEX
  8
0
 10
673.4000244140625
 20
716.2264404296875
 42
0
  0
VERTEX
  8
0
 10
713.4000244140625
 20
656.20001220703125
 42
0
  0
VERTEX
  8
0
 10
713.4000244140625
 20
545.20001220703125
 42
0
  0
VERTEX
  8
0
 10
817.4000244140625
 20
545.20001220703125
 42
0
  0
VERTEX
  8
0
 10
817.4000244140625
 20
847.20001220703125
 42
0
  0
VERTEX
  8
0
 10
777.4000244140625
 20
847.20001220703125
 42
0
  0
VERTEX
  8
0
 10
777.4000244140625
 20
817.20001220703125
 42
0
  0
VERTEX
  8
0
 10
713.4000244140625
 20
817.20001220703125
 42
0
  0
VERTEX
  8
0
 10
713.4000244140625
 20
847.20001220703125
 42
0
  0
SEQEND
  0
POLYLINE
  8
0
 10
0
 20
0
 39
0
 70
1
 66
1
  0
VERTEX
  8
0
 10
717.9000244140625
 20
729.4991455078125
 42
-1
  0
VERTEX
  8
0
 10
772.9000244140625
 20
729.4991455078125
 42
-1
  0
SEQEND
  0
POLYLINE
  8
0
 10
0
 20
0
 39
0
 70
1
 66
1
  0
VERTEX
  8
0
 10
1148.5999755859375
 20
83.800003051757813
 42
0
  0
VERTEX
  8
0
 10
1148.5999755859375
 20
214.77359008789062
 42
0
  0
VERTEX
  8
0
 10
1108.5999755859375
 20
274.79998779296875
 42
0
  0
VERTEX
  8
0
 10
1108.5999755859375
 20
385.79998779296875
 42
0
  0
VERTEX
  8
0
 10
1004.5999755859375
 20
385.79998779296875
 42
0
  0
VERTEX
  8
0
 10
1004.5999755859375
 20
83.800003051757813
 42
0
  0
VERTEX
  8
0
 10
1044.5999755859375
 20
83.800003051757813
 42
0
  0
VERTEX
  8
0
 10
1044.5999755859375
 20
113.80000305175781
 42
0
  0
VERTEX
  8
0
 10
1108.5999755859375
 20
113.80000305175781
 42
0
  0
VERTEX
  8
0
 10
1108.5999755859375
 20
83.800003051757813
 42
0
  0
SEQEND
  0
POLYLINE
  8
0
 10
0
 20
0
 39
0
 70
1
 66
1
  0
VERTEX
  8
0
 10
1104.0999755859375
 20
201.50088500976562
 42
-1
  0
VERTEX
  8
0
 10
1049.0999755859375
 20
201.50088500976562
 42
-1
  0
SEQEND
  0
POLYLINE
  8
0
 10
0
 20
0
 39
0
 70
1
 66
1
  0
VERTEX
  8
0
 10
1148.5999755859375
 20
544
 42
0
  0
VERTEX
  8
0
 10
1148.5999755859375
 20
674.97357177734375
 42
0
  0
VERTEX
  8
0
 10
1108.5999755859375
 20
735
 42
0
  0
VERTEX
  8
0
 10
1108.5999755859375
 20
846
 42
0
  0
VERTEX
  8
0
 10
1004.5999755859375
 20
846
 42
0
  0
VERTEX
  8
0
 10
1004.5999755859375
 20
544
 42
0
  0
VERTEX
  8
0
 10
1044.5999755859375
 20
544
 42
0
  0
VERTEX
  8
0
 10
1044.5999755859375
 20
574
 42
0
  0
VERTEX
  8
0
 10
1108.5999755859375
 20
574
 42
0
  0
VERTEX
  8
0
 10
1108.5999755859375
 20
544
 42
0
  0
SEQEND
  0
POLYLINE
  8
0
 10
0
 20
0
 39
0
 70
1
 66
1
  0
VERTEX
  8
0
 10
1104.0999755859375
 20
661.70086669921875
 42
-1
  0
VERTEX
  8
0
 10
1049.0999755859375
 20
661.70086669921875
 42
-1
  0
SEQEND
  0
POLYLINE
  8
0
 10
0
 20
0
 39
0
 70
1
 66
1
  0
VERTEX
  8
0
 10
1133.800048828125
 20
387
 42
0
  0
VERTEX
  8
0
 10
1133.800048828125
 20
256.02642822265625
 42
0
  0
VERTEX
  8
0
 10
1173.800048828125
 20
196
 42
0
  0
VERTEX
  8
0
 10
1173.800048828125
 20
85
 42
0
  0
VERTEX
  8
0
 10
1277.800048828125
 20
85
 42
0
  0
VERTEX
  8
0
 10
1277.800048828125
 20
387
 42
0
  0
VERTEX
  8
0
 10
1237.800048828125
 20
387
 42
0
  0
VERTEX
  8
0
 10
1237.800048828125
 20
357
 42
0
  0
VERTEX
  8
0
 10
1173.800048828125
 20
357
 42
0
  0
VERTEX
  8
0
 10
1173.800048828125
 20
387
 42
0
  0
SEQEND
  0
POLYLINE
  8
0
 10
0
 20
0
 39
0
 70
1
 66
1
  0
VERTEX
  8
0
 10
1178.300048828125
 20
269.29913330078125
 42
-1
  0
VERTEX
  8
0
 10
1233.300048828125
 20
269.29913330078125
 42
-1
  0
SEQEND
  0
POLYLINE
  8
0
 10
0
 20
0
 39
0
 70
1
 66
1
  0
VERTEX
  8
0
 10
1133.800048828125
 20
847.20001220703125
 42
0
  0
VERTEX
  8
0
 10
1133.800048828125
 20
716.2264404296875
 42
0
  0
VERTEX
  8
0
 10
1173.800048828125
 20
656.20001220703125
 42
0
  0
VERTEX
  8
0
 10
1173.800048828125
 20
545.20001220703125
 42
0
  0
VERTEX
  8
0
 10
1277.800048828125
 20
545.20001220703125
 42
0
  0
VERTEX
  8
0
 10
1277.800048828125
 20
847.20001220703125
 42
0
  0
VERTEX
  8
0
 10
1237.800048828125
 20
847.20001220703125
 42
0
  0
VERTEX
  8
0
 10
1237.800048828125
 20
817.20001220703125
 42
0
  0
VERTEX
  8
0
 10
1173.800048828125
 20
817.20001220703125
 42
0
  0
VERTEX
  8
0
 10
1173.800048828125
 20
847.20001220703125
 42
0
  0
SEQEND
  0
POLYLINE
  8
0
 10
0
 20
0
 39
0
 70
1
 66
1
  0
VERTEX
  8
0
 10
1178.300048828125
 20
729.4991455078125
 42
-1
  0
VERTEX
  8
0
 10
1233.300048828125
 20
729.4991455078125
 42
-1
  0
SEQEND
  0
POLYLINE
  8
0
 10
0
 20
0
 39
0
 70
1
 66
1
  0
VERTEX
  8
0
 10
1609
 20
83.800003051757813
 42
0
  0
VERTEX
  8
0
 10
1609
 20
214.77359008789062
 42
0
  0
VERTEX
  8
0
 10
1569
 20
274.79998779296875
 42
0
  0
VERTEX
  8
0
 10
1569
 20
385.79998779296875
 42
0
  0
VERTEX
  8
0
 10
1465
 20
385.79998779296875
 42
0
  0
VERTEX
  8
0
 10
1465
 20
83.800003051757813
 42
0
  0
VERTEX
  8
0
 10
1505
 20
83.800003051757813
 42
0
  0
VERTEX
  8
0
 10
1505
 20
113.80000305175781
 42
0
  0
VERTEX
  8
0
 10
1569
 20
113.80000305175781
 42
0
  0
VERTEX
  8
0
 10
1569
 20
83.800003051757813
 42
0
  0
SEQEND
  0
POLYLINE
  8
0
 10
0
 20
0
 39
0
 70
1
 66
1
  0
VERTEX
  8
0
 10
1564.5
 20
201.50088500976562
 42
-1
  0
VERTEX
  8
0
 10
1509.5
 20
201.50088500976562
 42
-1
  0
SEQEND
  0
POLYLINE
  8
0
 10
0
 20
0
 39
0
 70
1
 66
1
  0
VERTEX
  8
0
 10
1609
 20
544
 42
0
  0
VERTEX
  8
0
 10
1609
 20
674.97357177734375
 42
0
  0
VERTEX
  8
0
 10
1569
 20
735
 42
0
  0
VERTEX
  8
0
 10
1569
 20
846
 42
0
  0
VERTEX
  8
0
 10
1465
 20
846
 42
0
  0
VERTEX
  8
0
 10
1465
 20
544
 42
0
  0
VERTEX
  8
0
 10
1505
 20
544
 42
0
  0
VERTEX
  8
0
 10
1505
 20
574
 42
0
  0
VERTEX
  8
0
 10
1569
 20
574
 42
0
  0
VERTEX
  8
0
 10
1569
 20
544
 42
0
  0
SEQEND
  0
POLYLINE
  8
0
 10
0
 20
0
 39
0
 70
1
 66
1
  0
VERTEX
  8
0
 10
1564.5
 20
661.70086669921875
 42
-1
  0
VERTEX
  8
0
 10
1509.5
 20
661.70086669921875
 42
-1
  0
SEQEND
  0
POLYLINE
  8
0
 10
0
 20
0
 39
0
 70
1
 66
1
  0
VERTEX
  8
0
 10
1685.5999755859375
 20
930.79998779296875
 42
0
  0
VERTEX
  8
0
 10
1685.5999755859375
 20
1061.7735595703125
 42
0
  0
VERTEX
  8
0
 10
1645.5999755859375
 20
1121.800048828125
 42
0
  0
VERTEX
  8
0
 10
1645.5999755859375
 20
1232.800048828125
 42
0
  0
VERTEX
  8
0
 10
1541.5999755859375
 20
1232.800048828125
 42
0
  0
VERTEX
  8
0
 10
1541.5999755859375
 20
930.79998779296875
 42
0
  0
VERTEX
  8
0
 10
1581.5999755859375
 20
930.79998779296875
 42
0
  0
VERTEX
  8
0
 10
1581.5999755859375
 20
960.79998779296875
 42
0
  0
VERTEX
  8
0
 10
1645.5999755859375
 20
960.79998779296875
 42
0
  0
VERTEX
  8
0
 10
1645.5999755859375
 20
930.79998779296875
 42
0
  0
SEQEND
  0
POLYLINE
  8
0
 10
0
 20
0
 39
0
 70
1
 66
1
  0
VERTEX
  8
0
 10
1641.0999755859375
 20
1048.5008544921875
 42
-1
  0
VERTEX
  8
0
 10
1586.0999755859375
 20
1048.5008544921875
 42
-1
  0
SEQEND
  0
POLYLINE
  8
0
 10
0
 20
0
 39
0
 70
1
 66
1
  0
VERTEX
  8
0
 10
1594.199951171875
 20
387
 42
0
  0
VERTEX
  8
0
 10
1594.199951171875
 20
256.02642822265625
 42
0
  0
VERTEX
  8
0
 10
1634.199951171875
 20
196
 42
0
  0
VERTEX
  8
0
 10
1634.199951171875
 20
85
 42
0
  0
VERTEX
  8
0
 10
1738.199951171875
 20
85
 42
0
  0
VERTEX
  8
0
 10
1738.199951171875
 20
387
 42
0
  0
VERTEX
  8
0
 10
1698.199951171875
 20
387
 42
0
  0
VERTEX
  8
0
 10
1698.199951171875
 20
357
 42
0
  0
VERTEX
  8
0
 10
1634.199951171875
 20
357
 42
0
  0
VERTEX
  8
0
 10
1634.199951171875
 20
387
 42
0
  0
SEQEND
  0
POLYLINE
  8
0
 10
0
 20
0
 39
0
 70
1
 66
1
  0
VERTEX
  8
0
 10
1638.699951171875
 20
269.29913330078125
 42
-1
  0
VERTEX
  8
0
 10
1693.699951171875
 20
269.29913330078125
 42
-1
  0
SEQEND
  0
POLYLINE
  8
0
 10
0
 20
0
 39
0
 70
1
 66
1
  0
VERTEX
  8
0
 10
1594.199951171875
 20
847.20001220703125
 42
0
  0
VERTEX
  8
0
 10
1594.199951171875
 20
716.2264404296875
 42
0
  0
VERTEX
  8
0
 10
1634.199951171875
 20
656.20001220703125
 42
0
  0
VERTEX
  8
0
 10
1634.199951171875
 20
545.20001220703125
 42
0
  0
VERTEX
  8
0
 10
1738.199951171875
 20
545.20001220703125
 42
0
  0
VERTEX
  8
0
 10
1738.199951171875
 20
847.20001220703125
 42
0
  0
VERTEX
  8
0
 10
1698.199951171875
 20
847.20001220703125
 42
0
  0
VERTEX
  8
0
 10
1698.199951171875
 20
817.20001220703125
 42
0
  0
VERTEX
  8
0
 10
1634.199951171875
 20
817.20001220703125
 42
0
  0
VERTEX
  8
0
 10
1634.199951171875
 20
847.20001220703125
 42
0
  0
SEQEND
  0
POLYLINE
  8
0
 10
0
 20
0
 39
0
 70
1
 66
1
  0
VERTEX
  8
0
 10
1638.699951171875
 20
729.4991455078125
 42
-1
  0
VERTEX
  8
0
 10
1693.699951171875
 20
729.4991455078125
 42
-1
  0
SEQEND
  0
POLYLINE
  8
0
 10
0
 20
0
 39
0
 70
1
 66
1
  0
VERTEX
  8
0
 10
1667.199951171875
 20
1239.5999755859375
 42
0
  0
VERTEX
  8
0
 10
1667.199951171875
 20
1108.62646484375
 42
0
  0
VERTEX
  8
0
 10
1707.199951171875
 20
1048.5999755859375
 42
0
  0
VERTEX
  8
0
 10
1707.199951171875
 20
937.5999755859375
 42
0
  0
VERTEX
  8
0
 10
1811.199951171875
 20
937.5999755859375
 42
0
  0
VERTEX
  8
0
 10
1811.199951171875
 20
1239.5999755859375
 42
0
  0
VERTEX
  8
0
 10
1771.199951171875
 20
1239.5999755859375
 42
0
  0
VERTEX
  8
0
 10
1771.199951171875
 20
1209.5999755859375
 42
0
  0
VERTEX
  8
0
 10
1707.199951171875
 20
1209.5999755859375
 42
0
  0
VERTEX
  8
0
 10
1707.199951171875
 20
1239.5999755859375
 42
0
  0
SEQEND
  0
POLYLINE
  8
0
 10
0
 20
0
 39
0
 70
1
 66
1
  0
VERTEX
  8
0
 10
1711.699951171875
 20
1121.899169921875
 42
-1
  0
VERTEX
  8
0
 10
1766.699951171875
 20
1121.899169921875
 42
-1
  0
SEQEND
  0
POLYLINE
  8
0
 10
0
 20
0
 39
0
 70
1
 66
1
  0
VERTEX
  8
0
 10
1952
 20
10.399999618530273
 42
-0
  0
VERTEX
  8
0
 10
1952
 20
370.4000244140625
 42
-0
  0
VERTEX
  8
0
 10
1852
 20
370.4000244140625
 42
-0
  0
VERTEX
  8
0
 10
1852
 20
10.399999618530273
 42
0
  0
SEQEND
  0
POLYLINE
  8
0
 10
0
 20
0
 39
0
 70
1
 66
1
  0
VERTEX
  8
0
 10
1931.4420166015625
 20
334.40945434570312
 42
-1
  0
VERTEX
  8
0
 10
1931.4420166015625
 20
354.40945434570312
 42
-1
  0
SEQEND
  0
POLYLINE
  8
0
 10
0
 20
0
 39
0
 70
1
 66
1
  0
VERTEX
  8
0
 10
1878.8177490234375
 20
26.390546798706055
 42
-1
  0
VERTEX
  8
0
 10
1878.8177490234375
 20
46.390548706054687
 42
-1
  0
SEQEND
  0
POLYLINE
  8
0
 10
0
 20
0
 39
0
 70
1
 66
1
  0
VERTEX
  8
0
 10
1878.8177490234375
 20
334.40945434570312
 42
-1
  0
VERTEX
  8
0
 10
1878.8177490234375
 20
354.40945434570312
 42
-1
  0
SEQEND
  0
POLYLINE
  8
0
 10
0
 20
0
 39
0
 70
1
 66
1
  0
VERTEX
  8
0
 10
1931.4420166015625
 20
26.390546798706055
 42
-1
  0
VERTEX
  8
0
 10
1931.4420166015625
 20
46.390548706054687
 42
-1
  0
SEQEND
  0
POLYLINE
  8
0
 10
0
 20
0
 39
0
 70
1
 66
1
  0
VERTEX
  8
0
 10
1952
 20
380.60000610351562
 42
-0
  0
VERTEX
  8
0
 10
1952
 20
740.60003662109375
 42
-0
  0
VERTEX
  8
0
 10
1852
 20
740.60003662109375
 42
-0
  0
VERTEX
  8
0
 10
1852
 20
380.60000610351562
 42
0
  0
SEQEND
  0
POLYLINE
  8
0
 10
0
 20
0
 39
0
 70
1
 66
1
  0
VERTEX
  8
0
 10
1931.4420166015625
 20
704.60943603515625
 42
-1
  0
VERTEX
  8
0
 10
1931.4420166015625
 20
724.60943603515625
 42
-1
  0
SEQEND
  0
POLYLINE
  8
0
 10
0
 20
0
 39
0
 70
1
 66
1
  0
VERTEX
  8
0
 10
1878.8177490234375
 20
396.59054565429687
 42
-1
  0
VERTEX
  8
0
 10
1878.8177490234375
 20
416.59054565429687
 42
-1
  0
SEQEND
  0
POLYLINE
  8
0
 10
0
 20
0
 39
0
 70
1
 66
1
  0
VERTEX
  8
0
 10
1878.8177490234375
 20
704.60943603515625
 42
-1
  0
VERTEX
  8
0
 10
1878.8177490234375
 20
724.60943603515625
 42
-1
  0
SEQEND
  0
POLYLINE
  8
0
 10
0
 20
0
 39
0
 70
1
 66
1
  0
VERTEX
  8
0
 10
1931.4420166015625
 20
396.59054565429687
 42
-1
  0
VERTEX
  8
0
 10
1931.4420166015625
 20
416.59054565429687
 42
-1
  0
SEQEND
  0
POLYLINE
  8
0
 10
0
 20
0
 39
0
 70
1
 66
1
  0
VERTEX
  8
0
 10
1952
 20
750.79998779296875
 42
-0
  0
VERTEX
  8
0
 10
1952
 20
1110.800048828125
 42
-0
  0
VERTEX
  8
0
 10
1852
 20
1110.800048828125
 42
-0
  0
VERTEX
  8
0
 10
1852
 20
750.79998779296875
 42
0
  0
SEQEND
  0
POLYLINE
  8
0
 10
0
 20
0
 39
0
 70
1
 66
1
  0
VERTEX
  8
0
 10
1931.4420166015625
 20
1074.8094482421875
 42
-1
  0
VERTEX
  8
0
 10
1931.4420166015625
 20
1094.8094482421875
 42
-1
  0
SEQEND
  0
POLYLINE
  8
0
 10
0
 20
0
 39
0
 70
1
 66
1
  0
VERTEX
  8
0
 10
1878.8177490234375
 20
766.79052734375
 42
-1
  0
VERTEX
  8
0
 10
1878.8177490234375
 20
786.79052734375
 42
-1
  0
SEQEND
  0
POLYLINE
  8
0
 10
0
 20
0
 39
0
 70
1
 66
1
  0
VERTEX
  8
0
 10
1878.8177490234375
 20
1074.8094482421875
 42
-1
  0
VERTEX
  8
0
 10
1878.8177490234375
 20
1094.8094482421875
 42
-1
  0
SEQEND
  0
POLYLINE
  8
0
 10
0
 20
0
 39
0
 70
1
 66
1
  0
VERTEX
  8
0
 10
1931.4420166015625
 20
766.79052734375
 42
-1
  0
VERTEX
  8
0
 10
1931.4420166015625
 20
786.79052734375
 42
-1
  0
SEQEND
  0
POLYLINE
  8
0
 10
0
 20
0
 39
0
 70
1
 66
1
  0
VERTEX
  8
0
 10
170.39999389648438
 20
1141
 42
-0
  0
VERTEX
  8
0
 10
170.39999389648438
 20
1211
 42
0
  0
VERTEX
  8
0
 10
10.399999618530273
 20
1211
 42
0
  0
VERTEX
  8
0
 10
10.399999618530273
 20
1141
 42
0
  0
SEQEND
  0
POLYLINE
  8
0
 10
0
 20
0
 39
0
 70
1
 66
1
  0
VERTEX
  8
0
 10
54.445541381835938
 20
1169.23974609375
 42
-1
  0
VERTEX
  8
0
 10
24.445531845092773
 20
1169.23974609375
 42
-1
  0
SEQEND
  0
POLYLINE
  8
0
 10
0
 20
0
 39
0
 70
1
 66
1
  0
VERTEX
  8
0
 10
340.79998779296875
 20
1141
 42
-0
  0
VERTEX
  8
0
 10
340.79998779296875
 20
1211
 42
0
  0
VERTEX
  8
0
 10
180.80000305175781
 20
1211
 42
0
  0
VERTEX
  8
0
 10
180.80000305175781
 20
1141
 42
0
  0
SEQEND
  0
POLYLINE
  8
0
 10
0
 20
0
 39
0
 70
1
 66
1
  0
VERTEX
  8
0
 10
224.84553527832031
 20
1169.23974609375
 42
-1
  0
VERTEX
  8
0
 10
194.84553527832031
 20
1169.23974609375
 42
-1
  0
SEQEND
  0
POLYLINE
  8
0
 10
0
 20
0
 39
0
 70
1
 66
1
  0
VERTEX
  8
0
 10
511.20001220703125
 20
1141
 42
-0
  0
VERTEX
  8
0
 10
511.20001220703125
 20
1211
 42
0
  0
VERTEX
  8
0
 10
351.20001220703125
 20
1211
 42
0
  0
VERTEX
  8
0
 10
351.20001220703125
 20
1141
 42
0
  0
SEQEND
  0
POLYLINE
  8
0
 10
0
 20
0
 39
0
 70
1
 66
1
  0
VERTEX
  8
0
 10
395.24554443359375
 20
1169.23974609375
 42
-1
  0
VERTEX
  8
0
 10
365.24554443359375
 20
1169.23974609375
 42
-1
  0
SEQEND
  0
POLYLINE
  8
0
 10
0
 20
0
 39
0
 70
1
 66
1
  0
VERTEX
  8
0
 10
681.5999755859375
 20
1141
 42
-0
  0
VERTEX
  8
0
 10
681.5999755859375
 20
1211
 42
0
  0
VERTEX
  8
0
 10
521.5999755859375
 20
1211
 42
0
  0
VERTEX
  8
0
 10
521.5999755859375
 20
1141
 42
0
  0
SEQEND
  0
POLYLINE
  8
0
 10
0
 20
0
 39
0
 70
1
 66
1
  0
VERTEX
  8
0
 10
565.64556884765625
 20
1169.23974609375
 42
-1
  0
VERTEX
  8
0
 10
535.6455078125
 20
1169.23974609375
 42
-1
  0
SEQEND
  0
POLYLINE
  8
0
 10
0
 20
0
 39
0
 70
1
 66
1
  0
VERTEX
  8
0
 10
852
 20
1141
 42
-0
  0
VERTEX
  8
0
 10
852
 20
1211
 42
0
  0
VERTEX
  8
0
 10
692
 20
1211
 42
0
  0
VERTEX
  8
0
 10
692
 20
1141
 42
0
  0
SEQEND
  0
POLYLINE
  8
0
 10
0
 20
0
 39
0
 70
1
 66
1
  0
VERTEX
  8
0
 10
736.0455322265625
 20
1169.23974609375
 42
-1
  0
VERTEX
  8
0
 10
706.0455322265625
 20
1169.23974609375
 42
-1
  0
SEQEND
  0
POLYLINE
  8
0
 10
0
 20
0
 39
0
 70
1
 66
1
  0
VERTEX
  8
0
 10
1022.4000244140625
 20
1141
 42
-0
  0
VERTEX
  8
0
 10
1022.4000244140625
 20
1211
 42
0
  0
VERTEX
  8
0
 10
862.4000244140625
 20
1211
 42
0
  0
VERTEX
  8
0
 10
862.4000244140625
 20
1141
 42
0
  0
SEQEND
  0
POLYLINE
  8
0
 10
0
 20
0
 39
0
 70
1
 66
1
  0
VERTEX
  8
0
 10
906.445556640625
 20
1169.23974609375
 42
-1
  0
VERTEX
  8
0
 10
876.445556640625
 20
1169.23974609375
 42
-1
  0
SEQEND
  0
POLYLINE
  8
0
 10
0
 20
0
 39
0
 70
1
 66
1
  0
VERTEX
  8
0
 10
1192.800048828125
 20
1141
 42
-0
  0
VERTEX
  8
0
 10
1192.800048828125
 20
1211
 42
0
  0
VERTEX
  8
0
 10
1032.800048828125
 20
1211
 42
0
  0
VERTEX
  8
0
 10
1032.800048828125
 20
1141
 42
0
  0
SEQEND
  0
POLYLINE
  8
0
 10
0
 20
0
 39
0
 70
1
 66
1
  0
VERTEX
  8
0
 10
1076.8455810546875
 20
1169.23974609375
 42
-1
  0
VERTEX
  8
0
 10
1046.8455810546875
 20
1169.23974609375
 42
-1
  0
SEQEND
  0
POLYLINE
  8
0
 10
0
 20
0
 39
0
 70
1
 66
1
  0
VERTEX
  8
0
 10
1363.199951171875
 20
1141
 42
-0
  0
VERTEX
  8
0
 10
1363.199951171875
 20
1211
 42
0
  0
VERTEX
  8
0
 10
1203.199951171875
 20
1211
 42
0
  0
VERTEX
  8
0
 10
1203.199951171875
 20
1141
 42
0
  0
SEQEND
  0
POLYLINE
  8
0
 10
0
 20
0
 39
0
 70
1
 66
1
  0
VERTEX
  8
0
 10
1247.2454833984375
 20
1169.23974609375
 42
-1
  0
VERTEX
  8
0
 10
1217.2454833984375
 20
1169.23974609375
 42
-1
  0
SEQEND
  0
POLYLINE
  8
0
 10
0
 20
0
 39
0
 70
1
 66
1
  0
VERTEX
  8
0
 10
1981.5999755859375
 20
1121
 42
-0
  0
VERTEX
  8
0
 10
1981.5999755859375
 20
1191
 42
0
  0
VERTEX
  8
0
 10
1821.5999755859375
 20
1191
 42
0
  0
VERTEX
  8
0
 10
1821.5999755859375
 20
1121
 42
0
  0
SEQEND
  0
POLYLINE
  8
0
 10
0
 20
0
 39
0
 70
1
 66
1
  0
VERTEX
  8
0
 10
1865.6455078125
 20
1149.23974609375
 42
-1
  0
VERTEX
  8
0
 10
1835.6455078125
 20
1149.23974609375
 42
-1
  0
SEQEND
  0
ENDSEC
  0
EOF
