  0
SECTION
  2
ENTITIES
  0
POLYLINE
  8
0
 10
0
 20
0
 39
0
 70
1
 66
1
  0
VERTEX
  8
0
 10
0
 20
0
 42
-0
  0
VERTEX
  8
0
 10
6000
 20
0
 42
-0
  0
VERTEX
  8
0
 10
6000
 20
1500
 42
-0
  0
VERTEX
  8
0
 10
0
 20
1500
 42
-0
  0
SEQEND
  0
POLYLINE
  8
0
 10
0
 20
0
 39
0
 70
1
 66
1
  0
VERTEX
  8
0
 10
2644.288330078125
 20
1196.496337890625
 42
-0
  0
VERTEX
  8
0
 10
2804.288330078125
 20
1196.4964599609375
 42
1
  0
VERTEX
  8
0
 10
2804.288330078125
 20
1236.4964599609375
 42
-0
  0
VERTEX
  8
0
 10
2624.288330078125
 20
1236.496337890625
 42
0.41421398520469666
  0
VERTEX
  8
0
 10
2584.288330078125
 20
1196.496337890625
 42
-0
  0
VERTEX
  8
0
 10
2584.288330078125
 20
1159.496337890625
 42
-0
  0
VERTEX
  8
0
 10
2624.288330078125
 20
1159.496337890625
 42
-0
  0
VERTEX
  8
0
 10
2624.288330078125
 20
1176.496337890625
 42
-0.41421398520469666
  0
SEQEND
  0
POLYLINE
  8
0
 10
0
 20
0
 39
0
 70
1
 66
1
  0
VERTEX
  8
0
 10
14.049999237060547
 20
1408.18408203125
 42
-0
  0
VERTEX
  8
0
 10
914.04998779296875
 20
1408.18408203125
 42
-0
  0
VERTEX
  8
0
 10
914.04998779296875
 20
1454.18408203125
 42
-0
  0
VERTEX
  8
0
 10
14.049999237060547
 20
1454.18408203125
 42
-0
  0
SEQEND
  0
POLYLINE
  8
0
 10
0
 20
0
 39
0
 70
1
 66
1
  0
VERTEX
  8
0
 10
2582.8193359375
 20
1431.18017578125
 42
-0
  0
VERTEX
  8
0
 10
3482.8193359375
 20
1431.18017578125
 42
-0
  0
VERTEX
  8
0
 10
3482.8193359375
 20
1477.18017578125
 42
-0
  0
VERTEX
  8
0
 10
2582.8193359375
 20
1477.18017578125
 42
-0
  0
SEQEND
  0
POLYLINE
  8
0
 10
0
 20
0
 39
0
 70
1
 66
1
  0
VERTEX
  8
0
 10
5620.7939453125
 20
522.0474853515625
 42
-0
  0
VERTEX
  8
0
 10
5620.79443359375
 20
312.0474853515625
 42
-0
  0
VERTEX
  8
0
 10
5627.79443359375
 20
305.0474853515625
 42
-0
  0
VERTEX
  8
0
 10
5650.79443359375
 20
305.04751586914063
 42
-0
  0
VERTEX
  8
0
 10
5670.7939453125
 20
529.04754638671875
 42
-0
  0
VERTEX
  8
0
 10
5627.7939453125
 20
529.0474853515625
 42
-0
  0
SEQEND
  0
POLYLINE
  8
0
 10
0
 20
0
 39
0
 70
1
 66
1
  0
VERTEX
  8
0
 10
14.050013542175293
 20
1369.050048828125
 42
-0
  0
VERTEX
  8
0
 10
14.050277709960937
 20
14.050048828125
 42
-0
  0
VERTEX
  8
0
 10
914.05029296875
 20
14.0501708984375
 42
-0
  0
VERTEX
  8
0
 10
914.04998779296875
 20
1369.0501708984375
 42
-0
  0
SEQEND
  0
POLYLINE
  8
0
 10
0
 20
0
 39
0
 70
1
 66
1
  0
VERTEX
  8
0
 10
464.050048828125
 20
1201.5501708984375
 42
-1
  0
VERTEX
  8
0
 10
464.05007934570312
 20
1101.5501708984375
 42
-1
  0
SEQEND
  0
POLYLINE
  8
0
 10
0
 20
0
 39
0
 70
1
 66
1
  0
VERTEX
  8
0
 10
464.05023193359375
 20
281.5501708984375
 42
-1
  0
VERTEX
  8
0
 10
464.05023193359375
 20
181.5501708984375
 42
-1
  0
SEQEND
  0
POLYLINE
  8
0
 10
0
 20
0
 39
0
 70
1
 66
1
  0
VERTEX
  8
0
 10
1927.1103515625
 20
14.050003051757813
 42
-0
  0
VERTEX
  8
0
 10
2307.1103515625
 20
14.050003051757813
 42
-0
  0
VERTEX
  8
0
 10
2392.1103515625
 20
474.04998779296875
 42
-0
  0
VERTEX
  8
0
 10
2392.1103515625
 20
499.04998779296875
 42
-0
  0
VERTEX
  8
0
 10
1842.1103515625
 20
499.04998779296875
 42
-0
  0
VERTEX
  8
0
 10
1842.1103515625
 20
474.04998779296875
 42
-0
  0
SEQEND
  0
POLYLINE
  8
0
 10
0
 20
0
 39
0
 70
1
 66
1
  0
VERTEX
  8
0
 10
2029.6103515625
 20
194.05000305175781
 42
-1
  0
VERTEX
  8
0
 10
2204.6103515625
 20
194.05000305175781
 42
-1
  0
SEQEND
  0
POLYLINE
  8
0
 10
0
 20
0
 39
0
 70
1
 66
1
  0
VERTEX
  8
0
 10
2909.09521484375
 20
14.050003051757813
 42
-0
  0
VERTEX
  8
0
 10
3564.09521484375
 20
14.050003051757813
 42
-0
  0
VERTEX
  8
0
 10
3564.09521484375
 20
314.04998779296875
 42
-0
  0
VERTEX
  8
0
 10
2909.09521484375
 20
314.04998779296875
 42
-0
  0
SEQEND
  0
POLYLINE
  8
0
 10
0
 20
0
 39
0
 70
1
 66
1
  0
VERTEX
  8
0
 10
4959.28662109375
 20
1073.25537109375
 42
-0
  0
VERTEX
  8
0
 10
4959.28662109375
 20
933.25537109375
 42
-0
  0
VERTEX
  8
0
 10
5654.28662109375
 20
933.2554931640625
 42
-0
  0
VERTEX
  8
0
 10
5654.28662109375
 20
1073.2554931640625
 42
-0
  0
SEQEND
  0
POLYLINE
  8
0
 10
0
 20
0
 39
0
 70
1
 66
1
  0
VERTEX
  8
0
 10
1844.1103515625
 20
1159.1102294921875
 42
-0
  0
VERTEX
  8
0
 10
1844.1104736328125
 20
1014.1102294921875
 42
-0
  0
VERTEX
  8
0
 10
2539.1103515625
 20
1014.1103515625
 42
-0
  0
VERTEX
  8
0
 10
2539.1103515625
 20
1159.1103515625
 42
-0
  0
SEQEND
  0
POLYLINE
  8
0
 10
0
 20
0
 39
0
 70
1
 66
1
  0
VERTEX
  8
0
 10
2459.1103515625
 20
1119.6103515625
 42
-1
  0
VERTEX
  8
0
 10
2459.1103515625
 20
1058.6103515625
 42
-1
  0
SEQEND
  0
POLYLINE
  8
0
 10
0
 20
0
 39
0
 70
1
 66
1
  0
VERTEX
  8
0
 10
1959.1104736328125
 20
1119.6102294921875
 42
-1
  0
VERTEX
  8
0
 10
1959.1104736328125
 20
1058.6102294921875
 42
-1
  0
SEQEND
  0
POLYLINE
  8
0
 10
0
 20
0
 39
0
 70
1
 66
1
  0
VERTEX
  8
0
 10
1844.1103515625
 20
1320.1602783203125
 42
-0
  0
VERTEX
  8
0
 10
1844.1104736328125
 20
1175.1602783203125
 42
-0
  0
VERTEX
  8
0
 10
2539.1103515625
 20
1175.160400390625
 42
-0
  0
VERTEX
  8
0
 10
2539.1103515625
 20
1320.160400390625
 42
-0
  0
SEQEND
  0
POLYLINE
  8
0
 10
0
 20
0
 39
0
 70
1
 66
1
  0
VERTEX
  8
0
 10
2459.1103515625
 20
1280.660400390625
 42
-1
  0
VERTEX
  8
0
 10
2459.1103515625
 20
1219.660400390625
 42
-1
  0
SEQEND
  0
POLYLINE
  8
0
 10
0
 20
0
 39
0
 70
1
 66
1
  0
VERTEX
  8
0
 10
1959.1104736328125
 20
1280.6602783203125
 42
-1
  0
VERTEX
  8
0
 10
1959.1104736328125
 20
1219.6602783203125
 42
-1
  0
SEQEND
  0
SEQEND
  0
POLYLINE
  8
0
 10
0
 20
0
 39
0
 70
1
 66
1
  0
VERTEX
  8
0
 10
928.06024169921875
 20
1369.050048828125
 42
-0
  0
VERTEX
  8
0
 10
928.060546875
 20
14.050048828125
 42
-0
  0
VERTEX
  8
0
 10
1828.060546875
 20
14.0501708984375
 42
-0
  0
VERTEX
  8
0
 10
1828.060302734375
 20
1369.0501708984375
 42
-0
  0
SEQEND
  0
POLYLINE
  8
0
 10
0
 20
0
 39
0
 70
1
 66
1
  0
VERTEX
  8
0
 10
1378.060302734375
 20
1201.5501708984375
 42
-1
  0
VERTEX
  8
0
 10
1378.060302734375
 20
1101.5501708984375
 42
-1
  0
SEQEND
  0
POLYLINE
  8
0
 10
0
 20
0
 39
0
 70
1
 66
1
  0
VERTEX
  8
0
 10
1378.060546875
 20
281.5501708984375
 42
-1
  0
VERTEX
  8
0
 10
1378.060546875
 20
181.5501708984375
 42
-1
  0
SEQEND
  0
POLYLINE
  8
0
 10
0
 20
0
 39
0
 70
1
 66
1
  0
VERTEX
  8
0
 10
928.0999755859375
 20
1408.4710693359375
 42
-0
  0
VERTEX
  8
0
 10
1828.0999755859375
 20
1408.4710693359375
 42
-0
  0
VERTEX
  8
0
 10
1828.0999755859375
 20
1454.4710693359375
 42
-0
  0
VERTEX
  8
0
 10
928.0999755859375
 20
1454.4710693359375
 42
-0
  0
SEQEND
  0
POLYLINE
  8
0
 10
0
 20
0
 39
0
 70
1
 66
1
  0
VERTEX
  8
0
 10
3535.851318359375
 20
1429.3001708984375
 42
-0
  0
VERTEX
  8
0
 10
4435.8515625
 20
1429.3001708984375
 42
-0
  0
VERTEX
  8
0
 10
4435.8515625
 20
1475.3001708984375
 42
-0
  0
VERTEX
  8
0
 10
3535.851318359375
 20
1475.3001708984375
 42
-0
  0
SEQEND
  0
POLYLINE
  8
0
 10
0
 20
0
 39
0
 70
1
 66
1
  0
VERTEX
  8
0
 10
1927.1103515625
 20
513.05999755859375
 42
-0
  0
VERTEX
  8
0
 10
2307.1103515625
 20
513.05999755859375
 42
-0
  0
VERTEX
  8
0
 10
2392.1103515625
 20
973.05999755859375
 42
-0
  0
VERTEX
  8
0
 10
2392.1103515625
 20
998.05999755859375
 42
-0
  0
VERTEX
  8
0
 10
1842.1103515625
 20
998.05999755859375
 42
-0
  0
VERTEX
  8
0
 10
1842.1103515625
 20
973.05999755859375
 42
-0
  0
SEQEND
  0
POLYLINE
  8
0
 10
0
 20
0
 39
0
 70
1
 66
1
  0
VERTEX
  8
0
 10
2029.6103515625
 20
693.05999755859375
 42
-1
  0
VERTEX
  8
0
 10
2204.6103515625
 20
693.05999755859375
 42
-1
  0
SEQEND
  0
POLYLINE
  8
0
 10
0
 20
0
 39
0
 70
1
 66
1
  0
VERTEX
  8
0
 10
2810.044921875
 20
499.0501708984375
 42
-0
  0
VERTEX
  8
0
 10
2430.044921875
 20
499.05001831054687
 42
-0
  0
VERTEX
  8
0
 10
2345.045166015625
 20
39.04998779296875
 42
-0
  0
VERTEX
  8
0
 10
2345.045166015625
 20
14.04998779296875
 42
-0
  0
VERTEX
  8
0
 10
2895.045166015625
 20
14.050201416015625
 42
-0
  0
VERTEX
  8
0
 10
2895.045166015625
 20
39.050201416015625
 42
-0
  0
SEQEND
  0
POLYLINE
  8
0
 10
0
 20
0
 39
0
 70
1
 66
1
  0
VERTEX
  8
0
 10
2707.544921875
 20
319.05010986328125
 42
-1
  0
VERTEX
  8
0
 10
2532.544921875
 20
319.050048828125
 42
-1
  0
SEQEND
  0
POLYLINE
  8
0
 10
0
 20
0
 39
0
 70
1
 66
1
  0
VERTEX
  8
0
 10
2810.044921875
 20
998.06036376953125
 42
-0
  0
VERTEX
  8
0
 10
2430.044921875
 20
998.06024169921875
 42
-0
  0
VERTEX
  8
0
 10
2345.045166015625
 20
538.0601806640625
 42
-0
  0
VERTEX
  8
0
 10
2345.045166015625
 20
513.0601806640625
 42
-0
  0
VERTEX
  8
0
 10
2895.045166015625
 20
513.0604248046875
 42
-0
  0
VERTEX
  8
0
 10
2895.045166015625
 20
538.0604248046875
 42
-0
  0
SEQEND
  0
POLYLINE
  8
0
 10
0
 20
0
 39
0
 70
1
 66
1
  0
VERTEX
  8
0
 10
2707.544921875
 20
818.06036376953125
 42
-1
  0
VERTEX
  8
0
 10
2532.544921875
 20
818.060302734375
 42
-1
  0
SEQEND
  0
POLYLINE
  8
0
 10
0
 20
0
 39
0
 70
1
 66
1
  0
VERTEX
  8
0
 10
4468.27783203125
 20
1424.3001708984375
 42
-0
  0
VERTEX
  8
0
 10
4678.27783203125
 20
1424.3001708984375
 42
-0
  0
VERTEX
  8
0
 10
4685.27783203125
 20
1431.3001708984375
 42
-0
  0
VERTEX
  8
0
 10
4685.27783203125
 20
1454.3001708984375
 42
-0
  0
VERTEX
  8
0
 10
4461.27783203125
 20
1474.3001708984375
 42
-0
  0
VERTEX
  8
0
 10
4461.27783203125
 20
1431.3001708984375
 42
-0
  0
SEQEND
  0
POLYLINE
  8
0
 10
0
 20
0
 39
0
 70
1
 66
1
  0
VERTEX
  8
0
 10
5615.22119140625
 20
253.33975219726562
 42
-0
  0
VERTEX
  8
0
 10
5615.2216796875
 20
43.339752197265625
 42
-0
  0
VERTEX
  8
0
 10
5622.2216796875
 20
36.339767456054687
 42
-0
  0
VERTEX
  8
0
 10
5645.2216796875
 20
36.33978271484375
 42
-0
  0
VERTEX
  8
0
 10
5665.22119140625
 20
260.33981323242187
 42
-0
  0
VERTEX
  8
0
 10
5622.22119140625
 20
260.33975219726562
 42
-0
  0
SEQEND
  0
POLYLINE
  8
0
 10
0
 20
0
 39
0
 70
1
 66
1
  0
VERTEX
  8
0
 10
2835.045166015625
 20
1063.248046875
 42
-0
  0
VERTEX
  8
0
 10
2675.045166015625
 20
1063.248046875
 42
1
  0
VERTEX
  8
0
 10
2675.045166015625
 20
1023.248046875
 42
-0
  0
VERTEX
  8
0
 10
2855.045166015625
 20
1023.2481079101562
 42
0.41421398520469666
  0
VERTEX
  8
0
 10
2895.045166015625
 20
1063.248046875
 42
-0
  0
VERTEX
  8
0
 10
2895.045166015625
 20
1100.248046875
 42
-0
  0
VERTEX
  8
0
 10
2855.045166015625
 20
1100.248046875
 42
-0
  0
VERTEX
  8
0
 10
2855.045166015625
 20
1083.248046875
 42
-0.41421398520469666
  0
SEQEND
  0
POLYLINE
  8
0
 10
0
 20
0
 39
0
 70
1
 66
1
  0
VERTEX
  8
0
 10
2660.9951171875
 20
1077.2982177734375
 42
-0
  0
VERTEX
  8
0
 10
2820.9951171875
 20
1077.29833984375
 42
1
  0
VERTEX
  8
0
 10
2820.9951171875
 20
1117.29833984375
 42
-0
  0
VERTEX
  8
0
 10
2640.9951171875
 20
1117.2982177734375
 42
0.41421398520469666
  0
VERTEX
  8
0
 10
2600.9951171875
 20
1077.2982177734375
 42
-0
  0
VERTEX
  8
0
 10
2600.9951171875
 20
1040.2982177734375
 42
-0
  0
VERTEX
  8
0
 10
2640.9951171875
 20
1040.2982177734375
 42
-0
  0
VERTEX
  8
0
 10
2640.9951171875
 20
1057.2982177734375
 42
-0.41421398520469666
  0
SEQEND
  0
POLYLINE
  8
0
 10
0
 20
0
 39
0
 70
1
 66
1
  0
VERTEX
  8
0
 10
2909.09521484375
 20
328.05999755859375
 42
-0
  0
VERTEX
  8
0
 10
3564.09521484375
 20
328.05999755859375
 42
-0
  0
VERTEX
  8
0
 10
3564.09521484375
 20
628.05999755859375
 42
-0
  0
VERTEX
  8
0
 10
2909.09521484375
 20
628.05999755859375
 42
-0
  0
SEQEND
  0
POLYLINE
  8
0
 10
0
 20
0
 39
0
 70
1
 66
1
  0
VERTEX
  8
0
 10
2909.09521484375
 20
642.07000732421875
 42
-0
  0
VERTEX
  8
0
 10
3564.09521484375
 20
642.07000732421875
 42
-0
  0
VERTEX
  8
0
 10
3564.09521484375
 20
942.07000732421875
 42
-0
  0
VERTEX
  8
0
 10
2909.09521484375
 20
942.07000732421875
 42
-0
  0
SEQEND
  0
POLYLINE
  8
0
 10
0
 20
0
 39
0
 70
1
 66
1
  0
VERTEX
  8
0
 10
2909.09521484375
 20
956.0799560546875
 42
-0
  0
VERTEX
  8
0
 10
3564.09521484375
 20
956.0799560546875
 42
-0
  0
VERTEX
  8
0
 10
3564.09521484375
 20
1256.0799560546875
 42
-0
  0
VERTEX
  8
0
 10
2909.09521484375
 20
1256.0799560546875
 42
-0
  0
SEQEND
  0
POLYLINE
  8
0
 10
0
 20
0
 39
0
 70
1
 66
1
  0
VERTEX
  8
0
 10
3596.145263671875
 20
14.050000190734863
 42
-0
  0
VERTEX
  8
0
 10
4251.1455078125
 20
14.050000190734863
 42
-0
  0
VERTEX
  8
0
 10
4251.1455078125
 20
314.04998779296875
 42
-0
  0
VERTEX
  8
0
 10
3596.145263671875
 20
314.04998779296875
 42
-0
  0
SEQEND
  0
POLYLINE
  8
0
 10
0
 20
0
 39
0
 70
1
 66
1
  0
VERTEX
  8
0
 10
3596.145263671875
 20
328.0999755859375
 42
-0
  0
VERTEX
  8
0
 10
4251.1455078125
 20
328.0999755859375
 42
-0
  0
VERTEX
  8
0
 10
4251.1455078125
 20
628.0999755859375
 42
-0
  0
VERTEX
  8
0
 10
3596.145263671875
 20
628.0999755859375
 42
-0
  0
SEQEND
  0
POLYLINE
  8
0
 10
0
 20
0
 39
0
 70
1
 66
1
  0
VERTEX
  8
0
 10
3596.145263671875
 20
642.14996337890625
 42
-0
  0
VERTEX
  8
0
 10
4251.1455078125
 20
642.14996337890625
 42
-0
  0
VERTEX
  8
0
 10
4251.1455078125
 20
942.14996337890625
 42
-0
  0
VERTEX
  8
0
 10
3596.145263671875
 20
942.14996337890625
 42
-0
  0
SEQEND
  0
POLYLINE
  8
0
 10
0
 20
0
 39
0
 70
1
 66
1
  0
VERTEX
  8
0
 10
3596.145263671875
 20
956.199951171875
 42
-0
  0
VERTEX
  8
0
 10
4251.1455078125
 20
956.199951171875
 42
-0
  0
VERTEX
  8
0
 10
4251.1455078125
 20
1256.199951171875
 42
-0
  0
VERTEX
  8
0
 10
3596.145263671875
 20
1256.199951171875
 42
-0
  0
SEQEND
  0
POLYLINE
  8
0
 10
0
 20
0
 39
0
 70
1
 66
1
  0
VERTEX
  8
0
 10
4267.1552734375
 20
14.050000190734863
 42
-0
  0
VERTEX
  8
0
 10
4922.1552734375
 20
14.050000190734863
 42
-0
  0
VERTEX
  8
0
 10
4922.1552734375
 20
314.04998779296875
 42
-0
  0
VERTEX
  8
0
 10
4267.1552734375
 20
314.04998779296875
 42
-0
  0
SEQEND
  0
POLYLINE
  8
0
 10
0
 20
0
 39
0
 70
1
 66
1
  0
VERTEX
  8
0
 10
4267.1552734375
 20
328.0999755859375
 42
-0
  0
VERTEX
  8
0
 10
4922.1552734375
 20
328.0999755859375
 42
-0
  0
VERTEX
  8
0
 10
4922.1552734375
 20
628.0999755859375
 42
-0
  0
VERTEX
  8
0
 10
4267.1552734375
 20
628.0999755859375
 42
-0
  0
SEQEND
  0
POLYLINE
  8
0
 10
0
 20
0
 39
0
 70
1
 66
1
  0
VERTEX
  8
0
 10
4267.1552734375
 20
642.14996337890625
 42
-0
  0
VERTEX
  8
0
 10
4922.1552734375
 20
642.14996337890625
 42
-0
  0
VERTEX
  8
0
 10
4922.1552734375
 20
942.14996337890625
 42
-0
  0
VERTEX
  8
0
 10
4267.1552734375
 20
942.14996337890625
 42
-0
  0
SEQEND
  0
POLYLINE
  8
0
 10
0
 20
0
 39
0
 70
1
 66
1
  0
VERTEX
  8
0
 10
4267.1552734375
 20
956.199951171875
 42
-0
  0
VERTEX
  8
0
 10
4922.1552734375
 20
956.199951171875
 42
-0
  0
VERTEX
  8
0
 10
4922.1552734375
 20
1256.199951171875
 42
-0
  0
VERTEX
  8
0
 10
4267.1552734375
 20
1256.199951171875
 42
-0
  0
SEQEND
  0
SEQEND
  0
POLYLINE
  8
0
 10
0
 20
0
 39
0
 70
1
 66
1
  0
VERTEX
  8
0
 10
1844.1103515625
 20
1481.17041015625
 42
-0
  0
VERTEX
  8
0
 10
1844.1104736328125
 20
1336.17041015625
 42
-0
  0
VERTEX
  8
0
 10
2539.1103515625
 20
1336.1705322265625
 42
-0
  0
VERTEX
  8
0
 10
2539.1103515625
 20
1481.1705322265625
 42
-0
  0
SEQEND
  0
POLYLINE
  8
0
 10
0
 20
0
 39
0
 70
1
 66
1
  0
VERTEX
  8
0
 10
2459.1103515625
 20
1441.6705322265625
 42
-1
  0
VERTEX
  8
0
 10
2459.1103515625
 20
1380.6705322265625
 42
-1
  0
SEQEND
  0
POLYLINE
  8
0
 10
0
 20
0
 39
0
 70
1
 66
1
  0
VERTEX
  8
0
 10
1959.1104736328125
 20
1441.67041015625
 42
-1
  0
VERTEX
  8
0
 10
1959.1104736328125
 20
1380.67041015625
 42
-1
  0
SEQEND
  0
POLYLINE
  8
0
 10
0
 20
0
 39
0
 70
1
 66
1
  0
VERTEX
  8
0
 10
2572.915771484375
 20
1417.1300048828125
 42
-0
  0
VERTEX
  8
0
 10
2572.915771484375
 20
1272.1300048828125
 42
-0
  0
VERTEX
  8
0
 10
3267.915771484375
 20
1272.130126953125
 42
-0
  0
VERTEX
  8
0
 10
3267.915771484375
 20
1417.130126953125
 42
-0
  0
SEQEND
  0
POLYLINE
  8
0
 10
0
 20
0
 39
0
 70
1
 66
1
  0
VERTEX
  8
0
 10
3187.915771484375
 20
1377.630126953125
 42
-1
  0
VERTEX
  8
0
 10
3187.915771484375
 20
1316.630126953125
 42
-1
  0
SEQEND
  0
POLYLINE
  8
0
 10
0
 20
0
 39
0
 70
1
 66
1
  0
VERTEX
  8
0
 10
2687.915771484375
 20
1377.6300048828125
 42
-1
  0
VERTEX
  8
0
 10
2687.915771484375
 20
1316.6300048828125
 42
-1
  0
SEQEND
  0
POLYLINE
  8
0
 10
0
 20
0
 39
0
 70
1
 66
1
  0
VERTEX
  8
0
 10
3295.789306640625
 20
1415.25
 42
-0
  0
VERTEX
  8
0
 10
3295.789306640625
 20
1270.25
 42
-0
  0
VERTEX
  8
0
 10
3990.789306640625
 20
1270.2501220703125
 42
-0
  0
VERTEX
  8
0
 10
3990.789306640625
 20
1415.2501220703125
 42
-0
  0
SEQEND
  0
POLYLINE
  8
0
 10
0
 20
0
 39
0
 70
1
 66
1
  0
VERTEX
  8
0
 10
3910.789306640625
 20
1375.7501220703125
 42
-1
  0
VERTEX
  8
0
 10
3910.789306640625
 20
1314.7501220703125
 42
-1
  0
SEQEND
  0
POLYLINE
  8
0
 10
0
 20
0
 39
0
 70
1
 66
1
  0
VERTEX
  8
0
 10
3410.789306640625
 20
1375.75
 42
-1
  0
VERTEX
  8
0
 10
3410.789306640625
 20
1314.75
 42
-1
  0
SEQEND
  0
POLYLINE
  8
0
 10
0
 20
0
 39
0
 70
1
 66
1
  0
VERTEX
  8
0
 10
4038.61083984375
 20
1410.25
 42
-0
  0
VERTEX
  8
0
 10
4038.61083984375
 20
1270.25
 42
-0
  0
VERTEX
  8
0
 10
4733.61083984375
 20
1270.2501220703125
 42
-0
  0
VERTEX
  8
0
 10
4733.61083984375
 20
1410.2501220703125
 42
-0
  0
SEQEND
  0
POLYLINE
  8
0
 10
0
 20
0
 39
0
 70
1
 66
1
  0
VERTEX
  8
0
 10
2818.33837890625
 20
1182.4461669921875
 42
-0
  0
VERTEX
  8
0
 10
2658.33837890625
 20
1182.4461669921875
 42
1
  0
VERTEX
  8
0
 10
2658.33837890625
 20
1142.4461669921875
 42
-0
  0
VERTEX
  8
0
 10
2838.33837890625
 20
1142.4461669921875
 42
0.41421398520469666
  0
VERTEX
  8
0
 10
2878.33837890625
 20
1182.4461669921875
 42
-0
  0
VERTEX
  8
0
 10
2878.33837890625
 20
1219.4461669921875
 42
-0
  0
VERTEX
  8
0
 10
2838.33837890625
 20
1219.4461669921875
 42
-0
  0
VERTEX
  8
0
 10
2838.33837890625
 20
1202.4461669921875
 42
-0.41421398520469666
  0
SEQEND
  0
POLYLINE
  8
0
 10
0
 20
0
 39
0
 70
1
 66
1
  0
VERTEX
  8
0
 10
4747.66064453125
 20
1410.25
 42
-0
  0
VERTEX
  8
0
 10
4747.66064453125
 20
1270.25
 42
-0
  0
VERTEX
  8
0
 10
5442.66064453125
 20
1270.2501220703125
 42
-0
  0
VERTEX
  8
0
 10
5442.66064453125
 20
1410.2501220703125
 42
-0
  0
SEQEND
  0
POLYLINE
  8
0
 10
0
 20
0
 39
0
 70
1
 66
1
  0
VERTEX
  8
0
 10
4950.37158203125
 20
1227.305419921875
 42
-0
  0
VERTEX
  8
0
 10
4950.37158203125
 20
1087.305419921875
 42
-0
  0
VERTEX
  8
0
 10
5645.37158203125
 20
1087.3055419921875
 42
-0
  0
VERTEX
  8
0
 10
5645.37158203125
 20
1227.3055419921875
 42
-0
  0
SEQEND
  0
SEQEND
  0
SEQEND
  0
POLYLINE
  8
0
 10
0
 20
0
 39
0
 70
1
 66
1
  0
VERTEX
  8
0
 10
5824.84375
 20
709.050048828125
 42
-0
  0
VERTEX
  8
0
 10
5684.84375
 20
709.04998779296875
 42
-0
  0
VERTEX
  8
0
 10
5684.84423828125
 20
14.04998779296875
 42
-0
  0
VERTEX
  8
0
 10
5824.84423828125
 20
14.050048828125
 42
-0
  0
SEQEND
  0
POLYLINE
  8
0
 10
0
 20
0
 39
0
 70
1
 66
1
  0
VERTEX
  8
0
 10
5978.8935546875
 20
709.050048828125
 42
-0
  0
VERTEX
  8
0
 10
5838.8935546875
 20
709.04998779296875
 42
-0
  0
VERTEX
  8
0
 10
5838.89404296875
 20
14.04998779296875
 42
-0
  0
VERTEX
  8
0
 10
5978.89404296875
 20
14.050048828125
 42
-0
  0
SEQEND
  0
POLYLINE
  8
0
 10
0
 20
0
 39
0
 70
1
 66
1
  0
VERTEX
  8
0
 10
5810.56640625
 20
1440.8529052734375
 42
-0
  0
VERTEX
  8
0
 10
5670.56640625
 20
1440.8529052734375
 42
-0
  0
VERTEX
  8
0
 10
5670.56689453125
 20
745.85284423828125
 42
-0
  0
VERTEX
  8
0
 10
5810.56689453125
 20
745.8529052734375
 42
-0
  0
SEQEND
  0
POLYLINE
  8
0
 10
0
 20
0
 39
0
 70
1
 66
1
  0
VERTEX
  8
0
 10
5964.6162109375
 20
1440.8529052734375
 42
-0
  0
VERTEX
  8
0
 10
5824.6162109375
 20
1440.8529052734375
 42
-0
  0
VERTEX
  8
0
 10
5824.61669921875
 20
745.85284423828125
 42
-0
  0
VERTEX
  8
0
 10
5964.61669921875
 20
745.8529052734375
 42
-0
  0
SEQEND
  0
POLYLINE
  8
0
 10
0
 20
0
 39
0
 70
1
 66
1
  0
VERTEX
  8
0
 10
4706.28759765625
 20
1424.3001708984375
 42
-0
  0
VERTEX
  8
0
 10
4916.28759765625
 20
1424.3001708984375
 42
-0
  0
VERTEX
  8
0
 10
4923.28759765625
 20
1431.3001708984375
 42
-0
  0
VERTEX
  8
0
 10
4923.28759765625
 20
1454.3001708984375
 42
-0
  0
VERTEX
  8
0
 10
4699.28759765625
 20
1474.3001708984375
 42
-0
  0
VERTEX
  8
0
 10
4699.28759765625
 20
1431.3001708984375
 42
-0
  0
SEQEND
  0
POLYLINE
  8
0
 10
0
 20
0
 39
0
 70
1
 66
1
  0
VERTEX
  8
0
 10
4944.2978515625
 20
1424.3001708984375
 42
-0
  0
VERTEX
  8
0
 10
5154.2978515625
 20
1424.3001708984375
 42
-0
  0
VERTEX
  8
0
 10
5161.2978515625
 20
1431.3001708984375
 42
-0
  0
VERTEX
  8
0
 10
5161.2978515625
 20
1454.3001708984375
 42
-0
  0
VERTEX
  8
0
 10
4937.2978515625
 20
1474.3001708984375
 42
-0
  0
VERTEX
  8
0
 10
4937.2978515625
 20
1431.3001708984375
 42
-0
  0
SEQEND
  0
POLYLINE
  8
0
 10
0
 20
0
 39
0
 70
1
 66
1
  0
VERTEX
  8
0
 10
5182.3076171875
 20
1424.3001708984375
 42
-0
  0
VERTEX
  8
0
 10
5392.3076171875
 20
1424.3001708984375
 42
-0
  0
VERTEX
  8
0
 10
5399.3076171875
 20
1431.3001708984375
 42
-0
  0
VERTEX
  8
0
 10
5399.3076171875
 20
1454.3001708984375
 42
-0
  0
VERTEX
  8
0
 10
5175.3076171875
 20
1474.3001708984375
 42
-0
  0
VERTEX
  8
0
 10
5175.3076171875
 20
1431.3001708984375
 42
-0
  0
SEQEND
  0
POLYLINE
  8
0
 10
0
 20
0
 39
0
 70
1
 66
1
  0
VERTEX
  8
0
 10
5420.3173828125
 20
1424.3001708984375
 42
-0
  0
VERTEX
  8
0
 10
5630.3173828125
 20
1424.3001708984375
 42
-0
  0
VERTEX
  8
0
 10
5637.3173828125
 20
1431.3001708984375
 42
-0
  0
VERTEX
  8
0
 10
5637.3173828125
 20
1454.3001708984375
 42
-0
  0
VERTEX
  8
0
 10
5413.3173828125
 20
1474.3001708984375
 42
-0
  0
VERTEX
  8
0
 10
5413.3173828125
 20
1431.3001708984375
 42
-0
  0
SEQEND
  0
POLYLINE
  8
0
 10
0
 20
0
 39
0
 70
1
 66
1
  0
VERTEX
  8
0
 10
5601.875
 20
46.175300598144531
 42
-0
  0
VERTEX
  8
0
 10
5601.875
 20
256.17529296875
 42
-0
  0
VERTEX
  8
0
 10
5594.875
 20
263.17529296875
 42
-0
  0
VERTEX
  8
0
 10
5571.875
 20
263.17529296875
 42
-0
  0
VERTEX
  8
0
 10
5551.875
 20
39.175262451171875
 42
-0
  0
VERTEX
  8
0
 10
5594.875
 20
39.175296783447266
 42
-0
  0
SEQEND
  0
POLYLINE
  8
0
 10
0
 20
0
 39
0
 70
1
 66
1
  0
VERTEX
  8
0
 10
5607.44775390625
 20
314.88302612304687
 42
-0
  0
VERTEX
  8
0
 10
5607.44775390625
 20
524.883056640625
 42
-0
  0
VERTEX
  8
0
 10
5600.44775390625
 20
531.883056640625
 42
-0
  0
VERTEX
  8
0
 10
5577.44775390625
 20
531.88299560546875
 42
-0
  0
VERTEX
  8
0
 10
5557.44775390625
 20
307.88299560546875
 42
-0
  0
VERTEX
  8
0
 10
5600.44775390625
 20
307.88302612304688
 42
-0
  0
SEQEND
  0
ENDSEC
  0
EOF
