  0
SECTION
  2
ENTITIES
  0
POLYLINE
  8
0
 10
0
 20
0
 39
0
 70
1
 66
1
  0
VERTEX
  8
0
 10
0
 20
0
 42
-0
  0
VERTEX
  8
0
 10
2500
 20
0
 42
-0
  0
VERTEX
  8
0
 10
2500
 20
1250
 42
-0
  0
VERTEX
  8
0
 10
0
 20
1250
 42
-0
  0
SEQEND
  0
POLYLINE
  8
0
 10
0
 20
0
 39
0
 70
1
 66
1
  0
VERTEX
  8
0
 10
315.8800048828125
 20
200.575439453125
 42
0
  0
VERTEX
  8
0
 10
315.8800048828125
 20
369.575439453125
 42
-0
  0
VERTEX
  8
0
 10
10.050003051757812
 20
200.575439453125
 42
0
  0
SEQEND
  0
POLYLINE
  8
0
 10
0
 20
0
 39
0
 70
1
 66
1
  0
VERTEX
  8
0
 10
315.87994384765625
 20
391.100830078125
 42
0
  0
VERTEX
  8
0
 10
315.87994384765625
 20
560.100830078125
 42
-0
  0
VERTEX
  8
0
 10
10.049957275390625
 20
391.100830078125
 42
0
  0
SEQEND
  0
POLYLINE
  8
0
 10
0
 20
0
 39
0
 70
1
 66
1
  0
VERTEX
  8
0
 10
10.049957275390625
 20
381.05072021484375
 42
0
  0
VERTEX
  8
0
 10
10.050018310546875
 20
212.05072021484375
 42
-0
  0
VERTEX
  8
0
 10
315.87994384765625
 20
381.05084228515625
 42
0
  0
SEQEND
  0
POLYLINE
  8
0
 10
0
 20
0
 39
0
 70
1
 66
1
  0
VERTEX
  8
0
 10
315.87991333007812
 20
581.626220703125
 42
0
  0
VERTEX
  8
0
 10
315.87991333007812
 20
750.626220703125
 42
-0
  0
VERTEX
  8
0
 10
10.0499267578125
 20
581.626220703125
 42
0
  0
SEQEND
  0
POLYLINE
  8
0
 10
0
 20
0
 39
0
 70
1
 66
1
  0
VERTEX
  8
0
 10
10.049896240234375
 20
571.57611083984375
 42
0
  0
VERTEX
  8
0
 10
10.049957275390625
 20
402.57611083984375
 42
-0
  0
VERTEX
  8
0
 10
315.8798828125
 20
571.57623291015625
 42
0
  0
SEQEND
  0
POLYLINE
  8
0
 10
0
 20
0
 39
0
 70
1
 66
1
  0
VERTEX
  8
0
 10
315.87991333007812
 20
772.151611328125
 42
0
  0
VERTEX
  8
0
 10
315.87991333007812
 20
941.151611328125
 42
-0
  0
VERTEX
  8
0
 10
10.0499267578125
 20
772.151611328125
 42
0
  0
SEQEND
  0
POLYLINE
  8
0
 10
0
 20
0
 39
0
 70
1
 66
1
  0
VERTEX
  8
0
 10
10.049896240234375
 20
762.10150146484375
 42
0
  0
VERTEX
  8
0
 10
10.049957275390625
 20
593.10150146484375
 42
-0
  0
VERTEX
  8
0
 10
315.8798828125
 20
762.10162353515625
 42
0
  0
SEQEND
  0
POLYLINE
  8
0
 10
0
 20
0
 39
0
 70
1
 66
1
  0
VERTEX
  8
0
 10
315.87979125976562
 20
962.677001953125
 42
0
  0
VERTEX
  8
0
 10
315.87979125976562
 20
1131.677001953125
 42
-0
  0
VERTEX
  8
0
 10
10.0498046875
 20
962.677001953125
 42
0
  0
SEQEND
  0
POLYLINE
  8
0
 10
0
 20
0
 39
0
 70
1
 66
1
  0
VERTEX
  8
0
 10
10.049896240234375
 20
952.62689208984375
 42
0
  0
VERTEX
  8
0
 10
10.049957275390625
 20
783.62689208984375
 42
-0
  0
VERTEX
  8
0
 10
315.8798828125
 20
952.62701416015625
 42
0
  0
SEQEND
  0
POLYLINE
  8
0
 10
0
 20
0
 39
0
 70
1
 66
1
  0
VERTEX
  8
0
 10
10.049774169921875
 20
1143.1522216796875
 42
0
  0
VERTEX
  8
0
 10
10.049835205078125
 20
974.1522216796875
 42
-0
  0
VERTEX
  8
0
 10
315.8797607421875
 20
1143.15234375
 42
0
  0
SEQEND
  0
POLYLINE
  8
0
 10
0
 20
0
 39
0
 70
1
 66
1
  0
VERTEX
  8
0
 10
631.760009765625
 20
10.04998779296875
 42
0
  0
VERTEX
  8
0
 10
631.760009765625
 20
179.04998779296875
 42
-0
  0
VERTEX
  8
0
 10
325.93002319335938
 20
10.04998779296875
 42
0
  0
SEQEND
  0
POLYLINE
  8
0
 10
0
 20
0
 39
0
 70
1
 66
1
  0
VERTEX
  8
0
 10
631.760009765625
 20
200.575439453125
 42
0
  0
VERTEX
  8
0
 10
631.760009765625
 20
369.575439453125
 42
-0
  0
VERTEX
  8
0
 10
325.92999267578125
 20
200.575439453125
 42
0
  0
SEQEND
  0
POLYLINE
  8
0
 10
0
 20
0
 39
0
 70
1
 66
1
  0
VERTEX
  8
0
 10
631.7598876953125
 20
391.100830078125
 42
0
  0
VERTEX
  8
0
 10
631.7598876953125
 20
560.100830078125
 42
-0
  0
VERTEX
  8
0
 10
325.929931640625
 20
391.100830078125
 42
0
  0
SEQEND
  0
POLYLINE
  8
0
 10
0
 20
0
 39
0
 70
1
 66
1
  0
VERTEX
  8
0
 10
325.92990112304688
 20
381.0506591796875
 42
0
  0
VERTEX
  8
0
 10
325.92996215820313
 20
212.0506591796875
 42
-0
  0
VERTEX
  8
0
 10
631.7598876953125
 20
381.05078125
 42
0
  0
SEQEND
  0
POLYLINE
  8
0
 10
0
 20
0
 39
0
 70
1
 66
1
  0
VERTEX
  8
0
 10
631.7598876953125
 20
581.62615966796875
 42
0
  0
VERTEX
  8
0
 10
631.7598876953125
 20
750.62615966796875
 42
-0
  0
VERTEX
  8
0
 10
325.929931640625
 20
581.62615966796875
 42
0
  0
SEQEND
  0
POLYLINE
  8
0
 10
0
 20
0
 39
0
 70
1
 66
1
  0
VERTEX
  8
0
 10
325.92977905273437
 20
571.5760498046875
 42
0
  0
VERTEX
  8
0
 10
325.92984008789062
 20
402.5760498046875
 42
-0
  0
VERTEX
  8
0
 10
631.759765625
 20
571.576171875
 42
0
  0
SEQEND
  0
POLYLINE
  8
0
 10
0
 20
0
 39
0
 70
1
 66
1
  0
VERTEX
  8
0
 10
631.7598876953125
 20
772.15155029296875
 42
0
  0
VERTEX
  8
0
 10
631.7598876953125
 20
941.15155029296875
 42
-0
  0
VERTEX
  8
0
 10
325.92990112304688
 20
772.15155029296875
 42
0
  0
SEQEND
  0
POLYLINE
  8
0
 10
0
 20
0
 39
0
 70
1
 66
1
  0
VERTEX
  8
0
 10
325.92990112304688
 20
762.1014404296875
 42
0
  0
VERTEX
  8
0
 10
325.92996215820313
 20
593.1014404296875
 42
-0
  0
VERTEX
  8
0
 10
631.7598876953125
 20
762.1015625
 42
0
  0
SEQEND
  0
POLYLINE
  8
0
 10
0
 20
0
 39
0
 70
1
 66
1
  0
VERTEX
  8
0
 10
631.759765625
 20
962.67694091796875
 42
0
  0
VERTEX
  8
0
 10
631.759765625
 20
1131.677001953125
 42
-0
  0
VERTEX
  8
0
 10
325.92977905273437
 20
962.67694091796875
 42
0
  0
SEQEND
  0
POLYLINE
  8
0
 10
0
 20
0
 39
0
 70
1
 66
1
  0
VERTEX
  8
0
 10
325.92990112304688
 20
952.6268310546875
 42
0
  0
VERTEX
  8
0
 10
325.92996215820313
 20
783.6268310546875
 42
-0
  0
VERTEX
  8
0
 10
631.7598876953125
 20
952.626953125
 42
0
  0
SEQEND
  0
POLYLINE
  8
0
 10
0
 20
0
 39
0
 70
1
 66
1
  0
VERTEX
  8
0
 10
325.92971801757812
 20
1143.1522216796875
 42
0
  0
VERTEX
  8
0
 10
325.92977905273437
 20
974.1522216796875
 42
-0
  0
VERTEX
  8
0
 10
631.75970458984375
 20
1143.15234375
 42
0
  0
SEQEND
  0
POLYLINE
  8
0
 10
0
 20
0
 39
0
 70
1
 66
1
  0
VERTEX
  8
0
 10
947.6400146484375
 20
10.0499267578125
 42
0
  0
VERTEX
  8
0
 10
947.6400146484375
 20
179.0499267578125
 42
-0
  0
VERTEX
  8
0
 10
641.80999755859375
 20
10.0499267578125
 42
0
  0
SEQEND
  0
POLYLINE
  8
0
 10
0
 20
0
 39
0
 70
1
 66
1
  0
VERTEX
  8
0
 10
325.92990112304688
 20
190.5252685546875
 42
0
  0
VERTEX
  8
0
 10
325.92996215820313
 20
21.5252685546875
 42
-0
  0
VERTEX
  8
0
 10
631.7598876953125
 20
190.525390625
 42
0
  0
SEQEND
  0
POLYLINE
  8
0
 10
0
 20
0
 39
0
 70
1
 66
1
  0
VERTEX
  8
0
 10
947.639892578125
 20
200.5753173828125
 42
0
  0
VERTEX
  8
0
 10
947.639892578125
 20
369.5753173828125
 42
-0
  0
VERTEX
  8
0
 10
641.8099365234375
 20
200.5753173828125
 42
0
  0
SEQEND
  0
POLYLINE
  8
0
 10
0
 20
0
 39
0
 70
1
 66
1
  0
VERTEX
  8
0
 10
947.639892578125
 20
391.1007080078125
 42
0
  0
VERTEX
  8
0
 10
947.639892578125
 20
560.1007080078125
 42
-0
  0
VERTEX
  8
0
 10
641.8099365234375
 20
391.1007080078125
 42
0
  0
SEQEND
  0
POLYLINE
  8
0
 10
0
 20
0
 39
0
 70
1
 66
1
  0
VERTEX
  8
0
 10
641.8099365234375
 20
381.0506591796875
 42
0
  0
VERTEX
  8
0
 10
641.8099365234375
 20
212.0506591796875
 42
-0
  0
VERTEX
  8
0
 10
947.639892578125
 20
381.05078125
 42
0
  0
SEQEND
  0
POLYLINE
  8
0
 10
0
 20
0
 39
0
 70
1
 66
1
  0
VERTEX
  8
0
 10
947.639892578125
 20
581.6260986328125
 42
0
  0
VERTEX
  8
0
 10
947.639892578125
 20
750.6260986328125
 42
-0
  0
VERTEX
  8
0
 10
641.80987548828125
 20
581.6260986328125
 42
0
  0
SEQEND
  0
POLYLINE
  8
0
 10
0
 20
0
 39
0
 70
1
 66
1
  0
VERTEX
  8
0
 10
641.809814453125
 20
571.5760498046875
 42
0
  0
VERTEX
  8
0
 10
641.8099365234375
 20
402.5760498046875
 42
-0
  0
VERTEX
  8
0
 10
947.63983154296875
 20
571.576171875
 42
0
  0
SEQEND
  0
POLYLINE
  8
0
 10
0
 20
0
 39
0
 70
1
 66
1
  0
VERTEX
  8
0
 10
947.639892578125
 20
772.1514892578125
 42
0
  0
VERTEX
  8
0
 10
947.639892578125
 20
941.1514892578125
 42
-0
  0
VERTEX
  8
0
 10
641.80987548828125
 20
772.1514892578125
 42
0
  0
SEQEND
  0
POLYLINE
  8
0
 10
0
 20
0
 39
0
 70
1
 66
1
  0
VERTEX
  8
0
 10
641.809814453125
 20
762.1014404296875
 42
0
  0
VERTEX
  8
0
 10
641.809814453125
 20
593.1014404296875
 42
-0
  0
VERTEX
  8
0
 10
947.6397705078125
 20
762.1015625
 42
0
  0
SEQEND
  0
POLYLINE
  8
0
 10
0
 20
0
 39
0
 70
1
 66
1
  0
VERTEX
  8
0
 10
947.6396484375
 20
962.6768798828125
 42
0
  0
VERTEX
  8
0
 10
947.6396484375
 20
1131.6768798828125
 42
-0
  0
VERTEX
  8
0
 10
641.8096923828125
 20
962.6768798828125
 42
0
  0
SEQEND
  0
POLYLINE
  8
0
 10
0
 20
0
 39
0
 70
1
 66
1
  0
VERTEX
  8
0
 10
641.809814453125
 20
952.62677001953125
 42
0
  0
VERTEX
  8
0
 10
641.809814453125
 20
783.62677001953125
 42
-0
  0
VERTEX
  8
0
 10
947.6397705078125
 20
952.62689208984375
 42
0
  0
SEQEND
  0
POLYLINE
  8
0
 10
0
 20
0
 39
0
 70
1
 66
1
  0
VERTEX
  8
0
 10
641.8096923828125
 20
1143.152099609375
 42
0
  0
VERTEX
  8
0
 10
641.8096923828125
 20
974.152099609375
 42
-0
  0
VERTEX
  8
0
 10
947.6396484375
 20
1143.1522216796875
 42
0
  0
SEQEND
  0
POLYLINE
  8
0
 10
0
 20
0
 39
0
 70
1
 66
1
  0
VERTEX
  8
0
 10
1263.5198974609375
 20
10.0498046875
 42
0
  0
VERTEX
  8
0
 10
1263.5198974609375
 20
179.0498046875
 42
-0
  0
VERTEX
  8
0
 10
957.68994140625
 20
10.0498046875
 42
0
  0
SEQEND
  0
POLYLINE
  8
0
 10
0
 20
0
 39
0
 70
1
 66
1
  0
VERTEX
  8
0
 10
641.8099365234375
 20
190.5252685546875
 42
0
  0
VERTEX
  8
0
 10
641.8099365234375
 20
21.5252685546875
 42
-0
  0
VERTEX
  8
0
 10
947.639892578125
 20
190.525390625
 42
0
  0
SEQEND
  0
POLYLINE
  8
0
 10
0
 20
0
 39
0
 70
1
 66
1
  0
VERTEX
  8
0
 10
1263.5198974609375
 20
200.5751953125
 42
0
  0
VERTEX
  8
0
 10
1263.5198974609375
 20
369.5751953125
 42
-0
  0
VERTEX
  8
0
 10
957.68988037109375
 20
200.5751953125
 42
0
  0
SEQEND
  0
POLYLINE
  8
0
 10
0
 20
0
 39
0
 70
1
 66
1
  0
VERTEX
  8
0
 10
1263.519775390625
 20
391.1005859375
 42
0
  0
VERTEX
  8
0
 10
1263.519775390625
 20
560.1005859375
 42
-0
  0
VERTEX
  8
0
 10
957.6898193359375
 20
391.1005859375
 42
0
  0
SEQEND
  0
POLYLINE
  8
0
 10
0
 20
0
 39
0
 70
1
 66
1
  0
VERTEX
  8
0
 10
957.6898193359375
 20
381.0504150390625
 42
0
  0
VERTEX
  8
0
 10
957.6898193359375
 20
212.0504150390625
 42
-0
  0
VERTEX
  8
0
 10
1263.519775390625
 20
381.050537109375
 42
0
  0
SEQEND
  0
POLYLINE
  8
0
 10
0
 20
0
 39
0
 70
1
 66
1
  0
VERTEX
  8
0
 10
1263.519775390625
 20
581.6259765625
 42
0
  0
VERTEX
  8
0
 10
1263.519775390625
 20
750.6259765625
 42
-0
  0
VERTEX
  8
0
 10
957.6898193359375
 20
581.6259765625
 42
0
  0
SEQEND
  0
POLYLINE
  8
0
 10
0
 20
0
 39
0
 70
1
 66
1
  0
VERTEX
  8
0
 10
957.6898193359375
 20
571.5758056640625
 42
0
  0
VERTEX
  8
0
 10
957.6898193359375
 20
402.5758056640625
 42
-0
  0
VERTEX
  8
0
 10
1263.519775390625
 20
571.575927734375
 42
0
  0
SEQEND
  0
POLYLINE
  8
0
 10
0
 20
0
 39
0
 70
1
 66
1
  0
VERTEX
  8
0
 10
1263.519775390625
 20
772.1513671875
 42
0
  0
VERTEX
  8
0
 10
1263.519775390625
 20
941.1513671875
 42
-0
  0
VERTEX
  8
0
 10
957.6898193359375
 20
772.1513671875
 42
0
  0
SEQEND
  0
POLYLINE
  8
0
 10
0
 20
0
 39
0
 70
1
 66
1
  0
VERTEX
  8
0
 10
957.6898193359375
 20
762.1011962890625
 42
0
  0
VERTEX
  8
0
 10
957.6898193359375
 20
593.1011962890625
 42
-0
  0
VERTEX
  8
0
 10
1263.519775390625
 20
762.101318359375
 42
0
  0
SEQEND
  0
POLYLINE
  8
0
 10
0
 20
0
 39
0
 70
1
 66
1
  0
VERTEX
  8
0
 10
1263.5196533203125
 20
962.6767578125
 42
0
  0
VERTEX
  8
0
 10
1263.5196533203125
 20
1131.6767578125
 42
-0
  0
VERTEX
  8
0
 10
957.689697265625
 20
962.6767578125
 42
0
  0
SEQEND
  0
POLYLINE
  8
0
 10
0
 20
0
 39
0
 70
1
 66
1
  0
VERTEX
  8
0
 10
957.6898193359375
 20
952.6265869140625
 42
0
  0
VERTEX
  8
0
 10
957.6898193359375
 20
783.6265869140625
 42
-0
  0
VERTEX
  8
0
 10
1263.519775390625
 20
952.626708984375
 42
0
  0
SEQEND
  0
POLYLINE
  8
0
 10
0
 20
0
 39
0
 70
1
 66
1
  0
VERTEX
  8
0
 10
957.689697265625
 20
1143.1519775390625
 42
0
  0
VERTEX
  8
0
 10
957.689697265625
 20
974.1519775390625
 42
-0
  0
VERTEX
  8
0
 10
1263.5196533203125
 20
1143.152099609375
 42
0
  0
SEQEND
  0
POLYLINE
  8
0
 10
0
 20
0
 39
0
 70
1
 66
1
  0
VERTEX
  8
0
 10
1579.39990234375
 20
10.0498046875
 42
0
  0
VERTEX
  8
0
 10
1579.39990234375
 20
179.0498046875
 42
-0
  0
VERTEX
  8
0
 10
1273.5699462890625
 20
10.0498046875
 42
0
  0
SEQEND
  0
POLYLINE
  8
0
 10
0
 20
0
 39
0
 70
1
 66
1
  0
VERTEX
  8
0
 10
957.68994140625
 20
190.525146484375
 42
0
  0
VERTEX
  8
0
 10
957.68994140625
 20
21.525146484375
 42
-0
  0
VERTEX
  8
0
 10
1263.5198974609375
 20
190.5252685546875
 42
0
  0
SEQEND
  0
POLYLINE
  8
0
 10
0
 20
0
 39
0
 70
1
 66
1
  0
VERTEX
  8
0
 10
1579.39990234375
 20
200.5751953125
 42
0
  0
VERTEX
  8
0
 10
1579.39990234375
 20
369.5751953125
 42
-0
  0
VERTEX
  8
0
 10
1273.5699462890625
 20
200.5751953125
 42
0
  0
SEQEND
  0
POLYLINE
  8
0
 10
0
 20
0
 39
0
 70
1
 66
1
  0
VERTEX
  8
0
 10
1579.3997802734375
 20
391.1005859375
 42
0
  0
VERTEX
  8
0
 10
1579.3997802734375
 20
560.1005859375
 42
-0
  0
VERTEX
  8
0
 10
1273.56982421875
 20
391.1005859375
 42
0
  0
SEQEND
  0
POLYLINE
  8
0
 10
0
 20
0
 39
0
 70
1
 66
1
  0
VERTEX
  8
0
 10
1273.56982421875
 20
381.0504150390625
 42
0
  0
VERTEX
  8
0
 10
1273.56982421875
 20
212.0504150390625
 42
-0
  0
VERTEX
  8
0
 10
1579.3997802734375
 20
381.050537109375
 42
0
  0
SEQEND
  0
POLYLINE
  8
0
 10
0
 20
0
 39
0
 70
1
 66
1
  0
VERTEX
  8
0
 10
1579.3997802734375
 20
581.6259765625
 42
0
  0
VERTEX
  8
0
 10
1579.3997802734375
 20
750.6259765625
 42
-0
  0
VERTEX
  8
0
 10
1273.56982421875
 20
581.6259765625
 42
0
  0
SEQEND
  0
POLYLINE
  8
0
 10
0
 20
0
 39
0
 70
1
 66
1
  0
VERTEX
  8
0
 10
1273.5699462890625
 20
571.5758056640625
 42
0
  0
VERTEX
  8
0
 10
1273.5699462890625
 20
402.5758056640625
 42
-0
  0
VERTEX
  8
0
 10
1579.39990234375
 20
571.575927734375
 42
0
  0
SEQEND
  0
POLYLINE
  8
0
 10
0
 20
0
 39
0
 70
1
 66
1
  0
VERTEX
  8
0
 10
1579.3997802734375
 20
772.1513671875
 42
0
  0
VERTEX
  8
0
 10
1579.3997802734375
 20
941.1513671875
 42
-0
  0
VERTEX
  8
0
 10
1273.56982421875
 20
772.1513671875
 42
0
  0
SEQEND
  0
POLYLINE
  8
0
 10
0
 20
0
 39
0
 70
1
 66
1
  0
VERTEX
  8
0
 10
1273.56982421875
 20
762.1011962890625
 42
0
  0
VERTEX
  8
0
 10
1273.56982421875
 20
593.1011962890625
 42
-0
  0
VERTEX
  8
0
 10
1579.3997802734375
 20
762.101318359375
 42
0
  0
SEQEND
  0
POLYLINE
  8
0
 10
0
 20
0
 39
0
 70
1
 66
1
  0
VERTEX
  8
0
 10
1579.399658203125
 20
962.6767578125
 42
0
  0
VERTEX
  8
0
 10
1579.399658203125
 20
1131.6767578125
 42
-0
  0
VERTEX
  8
0
 10
1273.5697021484375
 20
962.6767578125
 42
0
  0
SEQEND
  0
POLYLINE
  8
0
 10
0
 20
0
 39
0
 70
1
 66
1
  0
VERTEX
  8
0
 10
1273.56982421875
 20
952.6265869140625
 42
0
  0
VERTEX
  8
0
 10
1273.56982421875
 20
783.6265869140625
 42
-0
  0
VERTEX
  8
0
 10
1579.3997802734375
 20
952.626708984375
 42
0
  0
SEQEND
  0
POLYLINE
  8
0
 10
0
 20
0
 39
0
 70
1
 66
1
  0
VERTEX
  8
0
 10
1273.5697021484375
 20
1143.15185546875
 42
0
  0
VERTEX
  8
0
 10
1273.5697021484375
 20
974.15185546875
 42
-0
  0
VERTEX
  8
0
 10
1579.399658203125
 20
1143.1519775390625
 42
0
  0
SEQEND
  0
POLYLINE
  8
0
 10
0
 20
0
 39
0
 70
1
 66
1
  0
VERTEX
  8
0
 10
1895.2799072265625
 20
10.0498046875
 42
0
  0
VERTEX
  8
0
 10
1895.2799072265625
 20
179.0498046875
 42
-0
  0
VERTEX
  8
0
 10
1589.449951171875
 20
10.0498046875
 42
0
  0
SEQEND
  0
POLYLINE
  8
0
 10
0
 20
0
 39
0
 70
1
 66
1
  0
VERTEX
  8
0
 10
1273.5699462890625
 20
190.5250244140625
 42
0
  0
VERTEX
  8
0
 10
1273.5699462890625
 20
21.5250244140625
 42
-0
  0
VERTEX
  8
0
 10
1579.39990234375
 20
190.525146484375
 42
0
  0
SEQEND
  0
POLYLINE
  8
0
 10
0
 20
0
 39
0
 70
1
 66
1
  0
VERTEX
  8
0
 10
1895.2799072265625
 20
200.5751953125
 42
0
  0
VERTEX
  8
0
 10
1895.2799072265625
 20
369.5751953125
 42
-0
  0
VERTEX
  8
0
 10
1589.449951171875
 20
200.5751953125
 42
0
  0
SEQEND
  0
POLYLINE
  8
0
 10
0
 20
0
 39
0
 70
1
 66
1
  0
VERTEX
  8
0
 10
1895.27978515625
 20
391.1005859375
 42
0
  0
VERTEX
  8
0
 10
1895.27978515625
 20
560.1005859375
 42
-0
  0
VERTEX
  8
0
 10
1589.4498291015625
 20
391.1005859375
 42
0
  0
SEQEND
  0
POLYLINE
  8
0
 10
0
 20
0
 39
0
 70
1
 66
1
  0
VERTEX
  8
0
 10
1589.4498291015625
 20
381.0504150390625
 42
0
  0
VERTEX
  8
0
 10
1589.4498291015625
 20
212.0504150390625
 42
-0
  0
VERTEX
  8
0
 10
1895.27978515625
 20
381.050537109375
 42
0
  0
SEQEND
  0
POLYLINE
  8
0
 10
0
 20
0
 39
0
 70
1
 66
1
  0
VERTEX
  8
0
 10
1895.27978515625
 20
581.6259765625
 42
0
  0
VERTEX
  8
0
 10
1895.27978515625
 20
750.6259765625
 42
-0
  0
VERTEX
  8
0
 10
1589.4498291015625
 20
581.6259765625
 42
0
  0
SEQEND
  0
POLYLINE
  8
0
 10
0
 20
0
 39
0
 70
1
 66
1
  0
VERTEX
  8
0
 10
1589.4498291015625
 20
571.5758056640625
 42
0
  0
VERTEX
  8
0
 10
1589.4498291015625
 20
402.5758056640625
 42
-0
  0
VERTEX
  8
0
 10
1895.27978515625
 20
571.575927734375
 42
0
  0
SEQEND
  0
POLYLINE
  8
0
 10
0
 20
0
 39
0
 70
1
 66
1
  0
VERTEX
  8
0
 10
1895.27978515625
 20
772.1513671875
 42
0
  0
VERTEX
  8
0
 10
1895.27978515625
 20
941.1513671875
 42
-0
  0
VERTEX
  8
0
 10
1589.4498291015625
 20
772.1513671875
 42
0
  0
SEQEND
  0
POLYLINE
  8
0
 10
0
 20
0
 39
0
 70
1
 66
1
  0
VERTEX
  8
0
 10
1589.4498291015625
 20
762.1011962890625
 42
0
  0
VERTEX
  8
0
 10
1589.4498291015625
 20
593.1011962890625
 42
-0
  0
VERTEX
  8
0
 10
1895.27978515625
 20
762.101318359375
 42
0
  0
SEQEND
  0
POLYLINE
  8
0
 10
0
 20
0
 39
0
 70
1
 66
1
  0
VERTEX
  8
0
 10
1895.2796630859375
 20
962.6767578125
 42
0
  0
VERTEX
  8
0
 10
1895.2796630859375
 20
1131.6767578125
 42
-0
  0
VERTEX
  8
0
 10
1589.44970703125
 20
962.6767578125
 42
0
  0
SEQEND
  0
POLYLINE
  8
0
 10
0
 20
0
 39
0
 70
1
 66
1
  0
VERTEX
  8
0
 10
1589.4498291015625
 20
952.6265869140625
 42
0
  0
VERTEX
  8
0
 10
1589.4498291015625
 20
783.6265869140625
 42
-0
  0
VERTEX
  8
0
 10
1895.27978515625
 20
952.626708984375
 42
0
  0
SEQEND
  0
POLYLINE
  8
0
 10
0
 20
0
 39
0
 70
1
 66
1
  0
VERTEX
  8
0
 10
1589.44970703125
 20
1143.15185546875
 42
0
  0
VERTEX
  8
0
 10
1589.44970703125
 20
974.15185546875
 42
-0
  0
VERTEX
  8
0
 10
1895.2796630859375
 20
1143.1519775390625
 42
0
  0
SEQEND
  0
POLYLINE
  8
0
 10
0
 20
0
 39
0
 70
1
 66
1
  0
VERTEX
  8
0
 10
2211.159912109375
 20
10.0498046875
 42
0
  0
VERTEX
  8
0
 10
2211.159912109375
 20
179.0498046875
 42
-0
  0
VERTEX
  8
0
 10
1905.3299560546875
 20
10.0498046875
 42
0
  0
SEQEND
  0
POLYLINE
  8
0
 10
0
 20
0
 39
0
 70
1
 66
1
  0
VERTEX
  8
0
 10
1589.449951171875
 20
190.5250244140625
 42
0
  0
VERTEX
  8
0
 10
1589.449951171875
 20
21.5250244140625
 42
-0
  0
VERTEX
  8
0
 10
1895.2799072265625
 20
190.525146484375
 42
0
  0
SEQEND
  0
POLYLINE
  8
0
 10
0
 20
0
 39
0
 70
1
 66
1
  0
VERTEX
  8
0
 10
2211.159912109375
 20
200.5751953125
 42
0
  0
VERTEX
  8
0
 10
2211.159912109375
 20
369.5751953125
 42
-0
  0
VERTEX
  8
0
 10
1905.3299560546875
 20
200.5751953125
 42
0
  0
SEQEND
  0
POLYLINE
  8
0
 10
0
 20
0
 39
0
 70
1
 66
1
  0
VERTEX
  8
0
 10
2211.159912109375
 20
391.1005859375
 42
0
  0
VERTEX
  8
0
 10
2211.159912109375
 20
560.1005859375
 42
-0
  0
VERTEX
  8
0
 10
1905.329833984375
 20
391.1005859375
 42
0
  0
SEQEND
  0
POLYLINE
  8
0
 10
0
 20
0
 39
0
 70
1
 66
1
  0
VERTEX
  8
0
 10
1905.3299560546875
 20
381.0504150390625
 42
0
  0
VERTEX
  8
0
 10
1905.3299560546875
 20
212.0504150390625
 42
-0
  0
VERTEX
  8
0
 10
2211.159912109375
 20
381.050537109375
 42
0
  0
SEQEND
  0
POLYLINE
  8
0
 10
0
 20
0
 39
0
 70
1
 66
1
  0
VERTEX
  8
0
 10
2211.159912109375
 20
581.6259765625
 42
0
  0
VERTEX
  8
0
 10
2211.159912109375
 20
750.6259765625
 42
-0
  0
VERTEX
  8
0
 10
1905.329833984375
 20
581.6259765625
 42
0
  0
SEQEND
  0
POLYLINE
  8
0
 10
0
 20
0
 39
0
 70
1
 66
1
  0
VERTEX
  8
0
 10
1905.3299560546875
 20
571.5758056640625
 42
0
  0
VERTEX
  8
0
 10
1905.3299560546875
 20
402.5758056640625
 42
-0
  0
VERTEX
  8
0
 10
2211.159912109375
 20
571.575927734375
 42
0
  0
SEQEND
  0
POLYLINE
  8
0
 10
0
 20
0
 39
0
 70
1
 66
1
  0
VERTEX
  8
0
 10
2211.159912109375
 20
772.1513671875
 42
0
  0
VERTEX
  8
0
 10
2211.159912109375
 20
941.1513671875
 42
-0
  0
VERTEX
  8
0
 10
1905.329833984375
 20
772.1513671875
 42
0
  0
SEQEND
  0
POLYLINE
  8
0
 10
0
 20
0
 39
0
 70
1
 66
1
  0
VERTEX
  8
0
 10
1905.3297119140625
 20
762.1011962890625
 42
0
  0
VERTEX
  8
0
 10
1905.3297119140625
 20
593.1011962890625
 42
-0
  0
VERTEX
  8
0
 10
2211.15966796875
 20
762.101318359375
 42
0
  0
SEQEND
  0
POLYLINE
  8
0
 10
0
 20
0
 39
0
 70
1
 66
1
  0
VERTEX
  8
0
 10
2211.15966796875
 20
962.6767578125
 42
0
  0
VERTEX
  8
0
 10
2211.15966796875
 20
1131.6767578125
 42
-0
  0
VERTEX
  8
0
 10
1905.3297119140625
 20
962.6767578125
 42
0
  0
SEQEND
  0
POLYLINE
  8
0
 10
0
 20
0
 39
0
 70
1
 66
1
  0
VERTEX
  8
0
 10
1905.3297119140625
 20
952.6265869140625
 42
0
  0
VERTEX
  8
0
 10
1905.3297119140625
 20
783.6265869140625
 42
-0
  0
VERTEX
  8
0
 10
2211.15966796875
 20
952.626708984375
 42
0
  0
SEQEND
  0
POLYLINE
  8
0
 10
0
 20
0
 39
0
 70
1
 66
1
  0
VERTEX
  8
0
 10
1905.3297119140625
 20
1143.15185546875
 42
0
  0
VERTEX
  8
0
 10
1905.3297119140625
 20
974.15185546875
 42
-0
  0
VERTEX
  8
0
 10
2211.15966796875
 20
1143.1519775390625
 42
0
  0
SEQEND
  0
POLYLINE
  8
0
 10
0
 20
0
 39
0
 70
1
 66
1
  0
VERTEX
  8
0
 10
1905.3299560546875
 20
190.5250244140625
 42
0
  0
VERTEX
  8
0
 10
1905.3299560546875
 20
21.5250244140625
 42
-0
  0
VERTEX
  8
0
 10
2211.159912109375
 20
190.525146484375
 42
0
  0
SEQEND
  0
POLYLINE
  8
0
 10
0
 20
0
 39
0
 70
1
 66
1
  0
VERTEX
  8
0
 10
10.050018310546875
 20
190.52532958984375
 42
0
  0
VERTEX
  8
0
 10
10.050079345703125
 20
21.52532958984375
 42
-0
  0
VERTEX
  8
0
 10
315.8800048828125
 20
190.52545166015625
 42
0
  0
SEQEND
  0
POLYLINE
  8
0
 10
0
 20
0
 39
0
 70
1
 66
1
  0
VERTEX
  8
0
 10
315.88003540039062
 20
10.050048828125
 42
0
  0
VERTEX
  8
0
 10
315.88003540039062
 20
179.050048828125
 42
-0
  0
VERTEX
  8
0
 10
10.050048828125
 20
10.050048828125
 42
0
  0
SEQEND
  0
POLYLINE
  8
0
 10
0
 20
0
 39
0
 70
1
 66
1
  0
VERTEX
  8
0
 10
650.30902099609375
 20
1237.7025146484375
 42
0
  0
VERTEX
  8
0
 10
497.39901733398437
 20
1237.702392578125
 42
0
  0
VERTEX
  8
0
 10
497.3990478515625
 20
1153.202392578125
 42
0
  0
VERTEX
  8
0
 10
803.22906494140625
 20
1153.2025146484375
 42
0
  0
SEQEND
  0
POLYLINE
  8
0
 10
0
 20
0
 39
0
 70
1
 66
1
  0
VERTEX
  8
0
 10
1309.13671875
 20
1154.39990234375
 42
0
  0
VERTEX
  8
0
 10
1462.046630859375
 20
1154.39990234375
 42
0
  0
VERTEX
  8
0
 10
1462.046630859375
 20
1238.89990234375
 42
0
  0
VERTEX
  8
0
 10
1156.2166748046875
 20
1238.89990234375
 42
0
  0
SEQEND
  0
POLYLINE
  8
0
 10
0
 20
0
 39
0
 70
1
 66
1
  0
VERTEX
  8
0
 10
821.78814697265625
 20
1154.39990234375
 42
0
  0
VERTEX
  8
0
 10
974.6981201171875
 20
1154.39990234375
 42
0
  0
VERTEX
  8
0
 10
974.6981201171875
 20
1238.89990234375
 42
0
  0
VERTEX
  8
0
 10
668.8681640625
 20
1238.89990234375
 42
0
  0
SEQEND
  0
POLYLINE
  8
0
 10
0
 20
0
 39
0
 70
1
 66
1
  0
VERTEX
  8
0
 10
2286.268798828125
 20
1155.449951171875
 42
0
  0
VERTEX
  8
0
 10
2439.178955078125
 20
1155.449951171875
 42
0
  0
VERTEX
  8
0
 10
2439.178955078125
 20
1239.949951171875
 42
0
  0
VERTEX
  8
0
 10
2133.348876953125
 20
1239.949951171875
 42
0
  0
SEQEND
  0
POLYLINE
  8
0
 10
0
 20
0
 39
0
 70
1
 66
1
  0
VERTEX
  8
0
 10
2114.523193359375
 20
1238.89990234375
 42
0
  0
VERTEX
  8
0
 10
1961.6131591796875
 20
1238.8997802734375
 42
0
  0
VERTEX
  8
0
 10
1961.6131591796875
 20
1154.3997802734375
 42
0
  0
VERTEX
  8
0
 10
2267.443115234375
 20
1154.39990234375
 42
0
  0
SEQEND
  0
POLYLINE
  8
0
 10
0
 20
0
 39
0
 70
1
 66
1
  0
VERTEX
  8
0
 10
1625.0067138671875
 20
1238.9000244140625
 42
0
  0
VERTEX
  8
0
 10
1472.0968017578125
 20
1238.89990234375
 42
0
  0
VERTEX
  8
0
 10
1472.0968017578125
 20
1154.39990234375
 42
0
  0
VERTEX
  8
0
 10
1777.9267578125
 20
1154.4000244140625
 42
0
  0
SEQEND
  0
POLYLINE
  8
0
 10
0
 20
0
 39
0
 70
1
 66
1
  0
VERTEX
  8
0
 10
1137.658203125
 20
1237.7021484375
 42
0
  0
VERTEX
  8
0
 10
984.748291015625
 20
1237.7020263671875
 42
0
  0
VERTEX
  8
0
 10
984.748291015625
 20
1153.2020263671875
 42
0
  0
VERTEX
  8
0
 10
1290.5782470703125
 20
1153.2021484375
 42
0
  0
SEQEND
  0
POLYLINE
  8
0
 10
0
 20
0
 39
0
 70
1
 66
1
  0
VERTEX
  8
0
 10
334.43896484375
 20
1154.39990234375
 42
0
  0
VERTEX
  8
0
 10
487.34893798828125
 20
1154.39990234375
 42
0
  0
VERTEX
  8
0
 10
487.34893798828125
 20
1238.89990234375
 42
0
  0
VERTEX
  8
0
 10
181.51896667480469
 20
1238.89990234375
 42
0
  0
SEQEND
  0
POLYLINE
  8
0
 10
0
 20
0
 39
0
 70
1
 66
1
  0
VERTEX
  8
0
 10
162.96000671386719
 20
1237.702392578125
 42
0
  0
VERTEX
  8
0
 10
10.050018310546875
 20
1237.7022705078125
 42
0
  0
VERTEX
  8
0
 10
10.050048828125
 20
1153.2022705078125
 42
0
  0
VERTEX
  8
0
 10
315.88003540039062
 20
1153.202392578125
 42
0
  0
SEQEND
  0
POLYLINE
  8
0
 10
0
 20
0
 39
0
 70
1
 66
1
  0
VERTEX
  8
0
 10
1798.6531982421875
 20
1154.39990234375
 42
0
  0
VERTEX
  8
0
 10
1951.5631103515625
 20
1154.39990234375
 42
0
  0
VERTEX
  8
0
 10
1951.5631103515625
 20
1238.89990234375
 42
0
  0
VERTEX
  8
0
 10
1645.733154296875
 20
1238.89990234375
 42
0
  0
SEQEND
  0
POLYLINE
  8
0
 10
0
 20
0
 39
0
 70
1
 66
1
  0
VERTEX
  8
0
 10
2305.710205078125
 20
478.85003662109375
 42
0
  0
VERTEX
  8
0
 10
2390.20458984375
 20
631.7601318359375
 42
0
  0
VERTEX
  8
0
 10
2221.2099609375
 20
631.760009765625
 42
0
  0
VERTEX
  8
0
 10
2221.210205078125
 20
325.92999267578125
 42
0
  0
VERTEX
  8
0
 10
2305.710205078125
 20
325.9300537109375
 42
0
  0
SEQEND
  0
POLYLINE
  8
0
 10
0
 20
0
 39
0
 70
1
 66
1
  0
VERTEX
  8
0
 10
2405.449951171875
 20
478.84002685546875
 42
0
  0
VERTEX
  8
0
 10
2320.95556640625
 20
325.92999267578125
 42
0
  0
VERTEX
  8
0
 10
2489.949951171875
 20
325.9300537109375
 42
0
  0
VERTEX
  8
0
 10
2489.949951171875
 20
631.760009765625
 42
0
  0
VERTEX
  8
0
 10
2405.449951171875
 20
631.760009765625
 42
0
  0
SEQEND
  0
POLYLINE
  8
0
 10
0
 20
0
 39
0
 70
1
 66
1
  0
VERTEX
  8
0
 10
2305.710205078125
 20
794.73004150390625
 42
0
  0
VERTEX
  8
0
 10
2390.20458984375
 20
947.64013671875
 42
0
  0
VERTEX
  8
0
 10
2221.2099609375
 20
947.6400146484375
 42
0
  0
VERTEX
  8
0
 10
2221.210205078125
 20
641.80999755859375
 42
0
  0
VERTEX
  8
0
 10
2305.710205078125
 20
641.81005859375
 42
0
  0
SEQEND
  0
POLYLINE
  8
0
 10
0
 20
0
 39
0
 70
1
 66
1
  0
VERTEX
  8
0
 10
2405.449951171875
 20
794.7200927734375
 42
0
  0
VERTEX
  8
0
 10
2320.95556640625
 20
641.81005859375
 42
0
  0
VERTEX
  8
0
 10
2489.949951171875
 20
641.81011962890625
 42
0
  0
VERTEX
  8
0
 10
2489.949951171875
 20
947.64007568359375
 42
0
  0
VERTEX
  8
0
 10
2405.449951171875
 20
947.64007568359375
 42
0
  0
SEQEND
  0
POLYLINE
  8
0
 10
0
 20
0
 39
0
 70
1
 66
1
  0
VERTEX
  8
0
 10
2405.449951171875
 20
162.96000671386719
 42
0
  0
VERTEX
  8
0
 10
2320.95556640625
 20
10.04998779296875
 42
0
  0
VERTEX
  8
0
 10
2489.949951171875
 20
10.050048828125
 42
0
  0
VERTEX
  8
0
 10
2489.949951171875
 20
315.88003540039062
 42
0
  0
VERTEX
  8
0
 10
2405.449951171875
 20
315.8800048828125
 42
0
  0
SEQEND
  0
POLYLINE
  8
0
 10
0
 20
0
 39
0
 70
1
 66
1
  0
VERTEX
  8
0
 10
2305.7099609375
 20
162.96998596191406
 42
0
  0
VERTEX
  8
0
 10
2390.20458984375
 20
315.87994384765625
 42
0
  0
VERTEX
  8
0
 10
2221.2099609375
 20
315.8800048828125
 42
0
  0
VERTEX
  8
0
 10
2221.2099609375
 20
10.050004005432129
 42
0
  0
VERTEX
  8
0
 10
2305.7099609375
 20
10.04998779296875
 42
0
  0
SEQEND
  0
ENDSEC
  0
EOF
