  0
SECTION
  2
ENTITIES
  0
POLYLINE
  8
0
 10
0
 20
0
 39
0
 70
1
 66
1
  0
VERTEX
  8
0
 10
0
 20
0
 42
0
  0
VERTEX
  8
0
 10
1500
 20
0
 42
-0
  0
VERTEX
  8
0
 10
1500
 20
800
 42
-0
  0
VERTEX
  8
0
 10
4.8999998801318653e-014
 20
800
 42
-0
  0
SEQEND
  0
POLYLINE
  8
0
 10
0
 20
0
 39
0
 70
1
 66
1
  0
VERTEX
  8
0
 10
130.25
 20
310.25
 42
-0
  0
VERTEX
  8
0
 10
265.25
 20
310.25
 42
-0
  0
VERTEX
  8
0
 10
265.25
 20
10.250000000000009
 42
-0
  0
VERTEX
  8
0
 10
130.25
 20
10.25
 42
-0
  0
VERTEX
  8
0
 10
10.250000000000004
 20
130.25
 42
-0
  0
VERTEX
  8
0
 10
10.25
 20
190.25
 42
0
  0
SEQEND
  0
POLYLINE
  8
0
 10
0
 20
0
 39
0
 70
1
 66
1
  0
VERTEX
  8
0
 10
100.25000000000001
 20
122.25
 42
1
  0
VERTEX
  8
0
 10
100.25
 20
198.25
 42
1
  0
SEQEND
  0
POLYLINE
  8
0
 10
0
 20
0
 39
0
 70
1
 66
1
  0
VERTEX
  8
0
 10
130.25
 20
620.29999999999995
 42
-0
  0
VERTEX
  8
0
 10
265.25
 20
620.29999999999995
 42
-0
  0
VERTEX
  8
0
 10
265.25
 20
320.30000000000001
 42
-0
  0
VERTEX
  8
0
 10
130.25
 20
320.30000000000001
 42
-0
  0
VERTEX
  8
0
 10
10.250000000000004
 20
440.30000000000001
 42
-0
  0
VERTEX
  8
0
 10
10.25
 20
500.30000000000001
 42
0
  0
SEQEND
  0
POLYLINE
  8
0
 10
0
 20
0
 39
0
 70
1
 66
1
  0
VERTEX
  8
0
 10
100.25000000000001
 20
432.30000000000001
 42
1
  0
VERTEX
  8
0
 10
100.25
 20
508.30000000000001
 42
1
  0
SEQEND
  0
POLYLINE
  8
0
 10
0
 20
0
 39
0
 70
1
 66
1
  0
VERTEX
  8
0
 10
395.44999999999999
 20
310.25
 42
-0
  0
VERTEX
  8
0
 10
530.44999999999993
 20
310.25
 42
-0
  0
VERTEX
  8
0
 10
530.45000000000005
 20
10.250000000000009
 42
-0
  0
VERTEX
  8
0
 10
395.44999999999999
 20
10.25
 42
-0
  0
VERTEX
  8
0
 10
275.44999999999999
 20
130.25
 42
-0
  0
VERTEX
  8
0
 10
275.44999999999999
 20
190.25
 42
0
  0
SEQEND
  0
POLYLINE
  8
0
 10
0
 20
0
 39
0
 70
1
 66
1
  0
VERTEX
  8
0
 10
365.44999999999999
 20
122.25
 42
1
  0
VERTEX
  8
0
 10
365.44999999999999
 20
198.25
 42
1
  0
SEQEND
  0
POLYLINE
  8
0
 10
0
 20
0
 39
0
 70
1
 66
1
  0
VERTEX
  8
0
 10
395.44999999999999
 20
620.29999999999995
 42
-0
  0
VERTEX
  8
0
 10
530.44999999999993
 20
620.29999999999995
 42
-0
  0
VERTEX
  8
0
 10
530.45000000000005
 20
320.30000000000001
 42
-0
  0
VERTEX
  8
0
 10
395.44999999999999
 20
320.30000000000001
 42
-0
  0
VERTEX
  8
0
 10
275.44999999999999
 20
440.30000000000001
 42
-0
  0
VERTEX
  8
0
 10
275.44999999999999
 20
500.30000000000001
 42
0
  0
SEQEND
  0
POLYLINE
  8
0
 10
0
 20
0
 39
0
 70
1
 66
1
  0
VERTEX
  8
0
 10
365.44999999999999
 20
432.30000000000001
 42
1
  0
VERTEX
  8
0
 10
365.44999999999999
 20
508.30000000000001
 42
1
  0
SEQEND
  0
POLYLINE
  8
0
 10
0
 20
0
 39
0
 70
1
 66
1
  0
VERTEX
  8
0
 10
660.64999999999998
 20
310.25
 42
-0
  0
VERTEX
  8
0
 10
795.64999999999998
 20
310.25
 42
-0
  0
VERTEX
  8
0
 10
795.64999999999998
 20
10.250000000000009
 42
-0
  0
VERTEX
  8
0
 10
660.64999999999998
 20
10.25
 42
-0
  0
VERTEX
  8
0
 10
540.64999999999998
 20
130.25
 42
-0
  0
VERTEX
  8
0
 10
540.64999999999998
 20
190.25
 42
0
  0
SEQEND
  0
POLYLINE
  8
0
 10
0
 20
0
 39
0
 70
1
 66
1
  0
VERTEX
  8
0
 10
630.64999999999998
 20
122.25
 42
1
  0
VERTEX
  8
0
 10
630.64999999999998
 20
198.25
 42
1
  0
SEQEND
  0
POLYLINE
  8
0
 10
0
 20
0
 39
0
 70
1
 66
1
  0
VERTEX
  8
0
 10
660.64999999999998
 20
620.29999999999995
 42
-0
  0
VERTEX
  8
0
 10
795.64999999999998
 20
620.29999999999995
 42
-0
  0
VERTEX
  8
0
 10
795.64999999999998
 20
320.30000000000001
 42
-0
  0
VERTEX
  8
0
 10
660.64999999999998
 20
320.30000000000001
 42
-0
  0
VERTEX
  8
0
 10
540.64999999999998
 20
440.30000000000001
 42
-0
  0
VERTEX
  8
0
 10
540.64999999999998
 20
500.30000000000001
 42
0
  0
SEQEND
  0
POLYLINE
  8
0
 10
0
 20
0
 39
0
 70
1
 66
1
  0
VERTEX
  8
0
 10
630.64999999999998
 20
432.30000000000001
 42
1
  0
VERTEX
  8
0
 10
630.64999999999998
 20
508.30000000000001
 42
1
  0
SEQEND
  0
POLYLINE
  8
0
 10
0
 20
0
 39
0
 70
1
 66
1
  0
VERTEX
  8
0
 10
925.84999999999991
 20
310.25
 42
-0
  0
VERTEX
  8
0
 10
1060.8499999999999
 20
310.25
 42
-0
  0
VERTEX
  8
0
 10
1060.8499999999999
 20
10.250000000000009
 42
-0
  0
VERTEX
  8
0
 10
925.84999999999991
 20
10.25
 42
-0
  0
VERTEX
  8
0
 10
805.84999999999991
 20
130.25
 42
-0
  0
VERTEX
  8
0
 10
805.84999999999991
 20
190.25
 42
0
  0
SEQEND
  0
POLYLINE
  8
0
 10
0
 20
0
 39
0
 70
1
 66
1
  0
VERTEX
  8
0
 10
895.84999999999991
 20
122.25
 42
1
  0
VERTEX
  8
0
 10
895.84999999999991
 20
198.25
 42
1
  0
SEQEND
  0
POLYLINE
  8
0
 10
0
 20
0
 39
0
 70
1
 66
1
  0
VERTEX
  8
0
 10
925.84999999999991
 20
620.29999999999995
 42
-0
  0
VERTEX
  8
0
 10
1060.8499999999999
 20
620.29999999999995
 42
-0
  0
VERTEX
  8
0
 10
1060.8499999999999
 20
320.30000000000001
 42
-0
  0
VERTEX
  8
0
 10
925.84999999999991
 20
320.30000000000001
 42
-0
  0
VERTEX
  8
0
 10
805.84999999999991
 20
440.30000000000001
 42
-0
  0
VERTEX
  8
0
 10
805.84999999999991
 20
500.30000000000001
 42
0
  0
SEQEND
  0
POLYLINE
  8
0
 10
0
 20
0
 39
0
 70
1
 66
1
  0
VERTEX
  8
0
 10
895.84999999999991
 20
432.30000000000001
 42
1
  0
VERTEX
  8
0
 10
895.84999999999991
 20
508.30000000000001
 42
1
  0
SEQEND
  0
POLYLINE
  8
0
 10
0
 20
0
 39
0
 70
1
 66
1
  0
VERTEX
  8
0
 10
1191.05
 20
310.25
 42
-0
  0
VERTEX
  8
0
 10
1326.05
 20
310.25
 42
-0
  0
VERTEX
  8
0
 10
1326.05
 20
10.250000000000009
 42
-0
  0
VERTEX
  8
0
 10
1191.05
 20
10.25
 42
-0
  0
VERTEX
  8
0
 10
1071.05
 20
130.25
 42
-0
  0
VERTEX
  8
0
 10
1071.05
 20
190.25
 42
0
  0
SEQEND
  0
POLYLINE
  8
0
 10
0
 20
0
 39
0
 70
1
 66
1
  0
VERTEX
  8
0
 10
1161.05
 20
122.25
 42
1
  0
VERTEX
  8
0
 10
1161.05
 20
198.25
 42
1
  0
SEQEND
  0
POLYLINE
  8
0
 10
0
 20
0
 39
0
 70
1
 66
1
  0
VERTEX
  8
0
 10
1191.05
 20
620.29999999999995
 42
-0
  0
VERTEX
  8
0
 10
1326.05
 20
620.29999999999995
 42
-0
  0
VERTEX
  8
0
 10
1326.05
 20
320.30000000000001
 42
-0
  0
VERTEX
  8
0
 10
1191.05
 20
320.30000000000001
 42
-0
  0
VERTEX
  8
0
 10
1071.05
 20
440.30000000000001
 42
-0
  0
VERTEX
  8
0
 10
1071.05
 20
500.30000000000001
 42
0
  0
SEQEND
  0
POLYLINE
  8
0
 10
0
 20
0
 39
0
 70
1
 66
1
  0
VERTEX
  8
0
 10
1161.05
 20
432.30000000000001
 42
1
  0
VERTEX
  8
0
 10
1161.05
 20
508.30000000000001
 42
1
  0
SEQEND
  0
POLYLINE
  8
0
 10
0
 20
0
 39
0
 70
1
 66
1
  0
VERTEX
  8
0
 10
280.25
 20
630.35000000000002
 42
-0
  0
VERTEX
  8
0
 10
80.25
 20
630.35000000000002
 42
-0
  0
VERTEX
  8
0
 10
10.25
 20
730.35000000000002
 42
-0
  0
VERTEX
  8
0
 10
10.25
 20
750.35000000000002
 42
-0
  0
VERTEX
  8
0
 10
280.24999809265137
 20
750.35000000000002
 42
-0.49999997019767761
  0
SEQEND
  0
POLYLINE
  8
0
 10
0
 20
0
 39
0
 70
1
 66
1
  0
VERTEX
  8
0
 10
282.25
 20
682.35000000000002
 42
1
  0
VERTEX
  8
0
 10
282.25
 20
698.35000000000002
 42
-0
  0
VERTEX
  8
0
 10
98.25
 20
698.35000000000002
 42
1
  0
VERTEX
  8
0
 10
98.25
 20
682.35000000000002
 42
0
  0
SEQEND
  0
POLYLINE
  8
0
 10
0
 20
0
 39
0
 70
1
 66
1
  0
VERTEX
  8
0
 10
553.84999999999991
 20
669.79999999999995
 42
-0
  0
VERTEX
  8
0
 10
353.84999999999991
 20
669.79999999999995
 42
-0
  0
VERTEX
  8
0
 10
283.84999999999991
 20
769.79999999999995
 42
-0
  0
VERTEX
  8
0
 10
283.84999999999991
 20
789.79999999999995
 42
-0
  0
VERTEX
  8
0
 10
553.84999809265128
 20
789.79999999999995
 42
-0.49999997019767761
  0
SEQEND
  0
POLYLINE
  8
0
 10
0
 20
0
 39
0
 70
1
 66
1
  0
VERTEX
  8
0
 10
555.84999999999991
 20
721.79999999999995
 42
1
  0
VERTEX
  8
0
 10
555.84999999999991
 20
737.79999999999995
 42
-0
  0
VERTEX
  8
0
 10
371.84999999999991
 20
737.79999999999995
 42
1
  0
VERTEX
  8
0
 10
371.84999999999991
 20
721.79999999999995
 42
0
  0
SEQEND
  0
POLYLINE
  8
0
 10
0
 20
0
 39
0
 70
1
 66
1
  0
VERTEX
  8
0
 10
854.29999999999995
 20
669.79999999999995
 42
-0
  0
VERTEX
  8
0
 10
654.29999999999995
 20
669.79999999999995
 42
-0
  0
VERTEX
  8
0
 10
584.29999999999995
 20
769.79999999999995
 42
-0
  0
VERTEX
  8
0
 10
584.29999999999995
 20
789.79999999999995
 42
-0
  0
VERTEX
  8
0
 10
854.29999809265132
 20
789.79999999999995
 42
-0.49999997019767761
  0
SEQEND
  0
POLYLINE
  8
0
 10
0
 20
0
 39
0
 70
1
 66
1
  0
VERTEX
  8
0
 10
856.29999999999995
 20
721.79999999999995
 42
1
  0
VERTEX
  8
0
 10
856.29999999999995
 20
737.79999999999995
 42
-0
  0
VERTEX
  8
0
 10
672.29999999999995
 20
737.79999999999995
 42
1
  0
VERTEX
  8
0
 10
672.29999999999995
 20
721.79999999999995
 42
0
  0
SEQEND
  0
POLYLINE
  8
0
 10
0
 20
0
 39
0
 70
1
 66
1
  0
VERTEX
  8
0
 10
1154.75
 20
669.79999999999995
 42
-0
  0
VERTEX
  8
0
 10
954.75
 20
669.79999999999995
 42
-0
  0
VERTEX
  8
0
 10
884.75
 20
769.79999999999995
 42
-0
  0
VERTEX
  8
0
 10
884.75
 20
789.79999999999995
 42
-0
  0
VERTEX
  8
0
 10
1154.7499980926514
 20
789.79999999999995
 42
-0.49999997019767761
  0
SEQEND
  0
POLYLINE
  8
0
 10
0
 20
0
 39
0
 70
1
 66
1
  0
VERTEX
  8
0
 10
1156.75
 20
721.79999999999995
 42
1
  0
VERTEX
  8
0
 10
1156.75
 20
737.79999999999995
 42
-0
  0
VERTEX
  8
0
 10
972.75
 20
737.79999999999995
 42
1
  0
VERTEX
  8
0
 10
972.75
 20
721.79999999999995
 42
0
  0
SEQEND
  0
POLYLINE
  8
0
 10
0
 20
0
 39
0
 70
1
 66
1
  0
VERTEX
  8
0
 10
1336.25
 20
40.24999725818634
 42
-0
  0
VERTEX
  8
0
 10
1336.25
 20
240.24999725818634
 42
-0
  0
VERTEX
  8
0
 10
1436.25
 20
310.24999725818634
 42
-0
  0
VERTEX
  8
0
 10
1456.25
 20
310.24999725818634
 42
-0
  0
VERTEX
  8
0
 10
1456.25
 20
40.24999916553498
 42
-0.49999997019767761
  0
SEQEND
  0
POLYLINE
  8
0
 10
0
 20
0
 39
0
 70
1
 66
1
  0
VERTEX
  8
0
 10
1388.25
 20
38.24999725818634
 42
1
  0
VERTEX
  8
0
 10
1404.25
 20
38.24999725818634
 42
-0
  0
VERTEX
  8
0
 10
1404.25
 20
222.24999725818634
 42
1
  0
VERTEX
  8
0
 10
1388.25
 20
222.24999725818634
 42
0
  0
SEQEND
  0
POLYLINE
  8
0
 10
0
 20
0
 39
0
 70
1
 66
1
  0
VERTEX
  8
0
 10
1456.25
 20
537.04999999999995
 42
-0
  0
VERTEX
  8
0
 10
1456.25
 20
337.04999999999995
 42
-0
  0
VERTEX
  8
0
 10
1356.25
 20
267.04999999999995
 42
-0
  0
VERTEX
  8
0
 10
1336.25
 20
267.04999999999995
 42
-0
  0
VERTEX
  8
0
 10
1336.25
 20
537.04999809265132
 42
-0.49999997019767761
  0
SEQEND
  0
POLYLINE
  8
0
 10
0
 20
0
 39
0
 70
1
 66
1
  0
VERTEX
  8
0
 10
1404.25
 20
539.04999999999995
 42
1
  0
VERTEX
  8
0
 10
1388.25
 20
539.04999999999995
 42
-0
  0
VERTEX
  8
0
 10
1388.25
 20
355.04999999999995
 42
1
  0
VERTEX
  8
0
 10
1404.25
 20
355.04999999999995
 42
0
  0
SEQEND
  0
POLYLINE
  8
0
 10
0
 20
0
 39
0
 70
1
 66
1
  0
VERTEX
  8
0
 10
1455.2
 20
669.79999999999995
 42
-0
  0
VERTEX
  8
0
 10
1255.2
 20
669.79999999999995
 42
-0
  0
VERTEX
  8
0
 10
1185.2
 20
769.79999999999995
 42
-0
  0
VERTEX
  8
0
 10
1185.2
 20
789.79999999999995
 42
-0
  0
VERTEX
  8
0
 10
1455.1999980926514
 20
789.79999999999995
 42
-0.49999997019767761
  0
SEQEND
  0
POLYLINE
  8
0
 10
0
 20
0
 39
0
 70
1
 66
1
  0
VERTEX
  8
0
 10
1457.2
 20
721.79999999999995
 42
1
  0
VERTEX
  8
0
 10
1457.2
 20
737.79999999999995
 42
-0
  0
VERTEX
  8
0
 10
1273.2
 20
737.79999999999995
 42
1
  0
VERTEX
  8
0
 10
1273.2
 20
721.79999999999995
 42
0
  0
SEQEND
  0
POLYLINE
  8
0
 10
0
 20
0
 39
0
 70
1
 66
1
  0
VERTEX
  8
0
 10
10.250000000000012
 20
206.44999999999999
 42
-0
  0
VERTEX
  8
0
 10
10.25
 20
416.44999999999999
 42
0
  0
VERTEX
  8
0
 10
99.779197692871094
 20
328.5942413330078
 42
0.28014808893203735
  0
VERTEX
  8
0
 10
99.779197692871108
 20
294.30575866699218
 42
-0
  0
SEQEND
  0
POLYLINE
  8
0
 10
0
 20
0
 39
0
 70
1
 66
1
  0
VERTEX
  8
0
 10
51.458774566650398
 20
287.44999999999999
 42
1
  0
VERTEX
  8
0
 10
51.458774566650398
 20
335.44999999999999
 42
1
  0
SEQEND
  0
POLYLINE
  8
0
 10
0
 20
0
 39
0
 70
1
 66
1
  0
VERTEX
  8
0
 10
275.44999999999999
 20
206.44999999999999
 42
-0
  0
VERTEX
  8
0
 10
275.44999999999999
 20
416.44999999999999
 42
0
  0
VERTEX
  8
0
 10
364.97919769287108
 20
328.5942413330078
 42
0.28014808893203735
  0
VERTEX
  8
0
 10
364.97919769287108
 20
294.30575866699218
 42
-0
  0
SEQEND
  0
POLYLINE
  8
0
 10
0
 20
0
 39
0
 70
1
 66
1
  0
VERTEX
  8
0
 10
316.65877456665038
 20
287.44999999999999
 42
1
  0
VERTEX
  8
0
 10
316.65877456665038
 20
335.44999999999999
 42
1
  0
SEQEND
  0
POLYLINE
  8
0
 10
0
 20
0
 39
0
 70
1
 66
1
  0
VERTEX
  8
0
 10
540.64999999999998
 20
206.44999999999999
 42
-0
  0
VERTEX
  8
0
 10
540.64999999999998
 20
416.44999999999999
 42
0
  0
VERTEX
  8
0
 10
630.17919769287107
 20
328.5942413330078
 42
0.28014808893203735
  0
VERTEX
  8
0
 10
630.17919769287107
 20
294.30575866699218
 42
-0
  0
SEQEND
  0
POLYLINE
  8
0
 10
0
 20
0
 39
0
 70
1
 66
1
  0
VERTEX
  8
0
 10
581.85877456665037
 20
287.44999999999999
 42
1
  0
VERTEX
  8
0
 10
581.85877456665037
 20
335.44999999999999
 42
1
  0
SEQEND
  0
POLYLINE
  8
0
 10
0
 20
0
 39
0
 70
1
 66
1
  0
VERTEX
  8
0
 10
805.84999999999991
 20
206.44999999999999
 42
-0
  0
VERTEX
  8
0
 10
805.84999999999991
 20
416.44999999999999
 42
0
  0
VERTEX
  8
0
 10
895.379197692871
 20
328.5942413330078
 42
0.28014808893203735
  0
VERTEX
  8
0
 10
895.379197692871
 20
294.30575866699218
 42
-0
  0
SEQEND
  0
POLYLINE
  8
0
 10
0
 20
0
 39
0
 70
1
 66
1
  0
VERTEX
  8
0
 10
847.0587745666503
 20
287.44999999999999
 42
1
  0
VERTEX
  8
0
 10
847.0587745666503
 20
335.44999999999999
 42
1
  0
SEQEND
  0
POLYLINE
  8
0
 10
0
 20
0
 39
0
 70
1
 66
1
  0
VERTEX
  8
0
 10
1071.05
 20
206.44999999999999
 42
-0
  0
VERTEX
  8
0
 10
1071.05
 20
416.44999999999999
 42
0
  0
VERTEX
  8
0
 10
1160.579197692871
 20
328.5942413330078
 42
0.28014808893203735
  0
VERTEX
  8
0
 10
1160.579197692871
 20
294.30575866699218
 42
-0
  0
SEQEND
  0
POLYLINE
  8
0
 10
0
 20
0
 39
0
 70
1
 66
1
  0
VERTEX
  8
0
 10
1112.2587745666503
 20
287.44999999999999
 42
1
  0
VERTEX
  8
0
 10
1112.2587745666503
 20
335.44999999999999
 42
1
  0
SEQEND
  0
POLYLINE
  8
0
 10
0
 20
0
 39
0
 70
1
 66
1
  0
VERTEX
  8
0
 10
1436.25
 20
577.10000000000002
 42
0
  0
VERTEX
  8
0
 10
1336.25
 20
577.10000000000002
 42
0
  0
VERTEX
  8
0
 10
1336.25
 20
627.10000000000002
 42
0
  0
VERTEX
  8
0
 10
1436.25
 20
627.10000000000002
 42
0
  0
SEQEND
  0
POLYLINE
  8
0
 10
0
 20
0
 39
0
 70
1
 66
1
  0
VERTEX
  8
0
 10
1417
 20
602.10000000000002
 42
1
  0
VERTEX
  8
0
 10
1395.5
 20
602.10000000000002
 42
1
  0
SEQEND
  0
POLYLINE
  8
0
 10
0
 20
0
 39
0
 70
1
 66
1
  0
VERTEX
  8
0
 10
52.3671875
 20
615.41054687499854
 42
-0.76732701063156128
  0
VERTEX
  8
0
 10
52.3681640625
 20
562.28554687499854
 42
0
  0
VERTEX
  8
0
 10
10.25
 20
553.84999999999854
 42
0
  0
VERTEX
  8
0
 10
10.25
 20
623.84804687499854
 42
0
  0
SEQEND
  0
POLYLINE
  8
0
 10
0
 20
0
 39
0
 70
1
 66
1
  0
VERTEX
  8
0
 10
45.25
 20
573.84804687499854
 42
1
  0
VERTEX
  8
0
 10
45.25
 20
603.84804687499854
 42
1
  0
SEQEND
  0
POLYLINE
  8
0
 10
0
 20
0
 39
0
 70
1
 66
1
  0
VERTEX
  8
0
 10
359.26718749999964
 20
657.11054687499927
 42
-0.76732701063156128
  0
VERTEX
  8
0
 10
359.26816406249964
 20
603.98554687499927
 42
0
  0
VERTEX
  8
0
 10
317.14999999999964
 20
595.54999999999927
 42
0
  0
VERTEX
  8
0
 10
317.14999999999964
 20
665.54804687499927
 42
0
  0
SEQEND
  0
POLYLINE
  8
0
 10
0
 20
0
 39
0
 70
1
 66
1
  0
VERTEX
  8
0
 10
352.14999999999964
 20
615.54804687499927
 42
1
  0
VERTEX
  8
0
 10
352.14999999999964
 20
645.54804687499927
 42
1
  0
SEQEND
  0
POLYLINE
  8
0
 10
0
 20
0
 39
0
 70
1
 66
1
  0
VERTEX
  8
0
 10
558.932612005794
 20
606.83749999999782
 42
-0.76732701063156128
  0
VERTEX
  8
0
 10
558.931635443294
 20
659.96249999999782
 42
0
  0
VERTEX
  8
0
 10
601.049799505794
 20
668.39804687499782
 42
0
  0
VERTEX
  8
0
 10
601.049799505794
 20
598.39999999999782
 42
0
  0
SEQEND
  0
POLYLINE
  8
0
 10
0
 20
0
 39
0
 70
1
 66
1
  0
VERTEX
  8
0
 10
566.049799505794
 20
648.39999999999782
 42
1
  0
VERTEX
  8
0
 10
566.049799505794
 20
618.39999999999782
 42
1
  0
SEQEND
  0
POLYLINE
  8
0
 10
0
 20
0
 39
0
 70
1
 66
1
  0
VERTEX
  8
0
 10
825.932612005794
 20
600.08749999999782
 42
-0.76732701063156128
  0
VERTEX
  8
0
 10
825.931635443294
 20
653.21249999999782
 42
0
  0
VERTEX
  8
0
 10
868.049799505794
 20
661.64804687499782
 42
0
  0
VERTEX
  8
0
 10
868.049799505794
 20
591.64999999999782
 42
0
  0
SEQEND
  0
POLYLINE
  8
0
 10
0
 20
0
 39
0
 70
1
 66
1
  0
VERTEX
  8
0
 10
833.049799505794
 20
641.64999999999782
 42
1
  0
VERTEX
  8
0
 10
833.049799505794
 20
611.64999999999782
 42
1
  0
SEQEND
  0
POLYLINE
  8
0
 10
0
 20
0
 39
0
 70
1
 66
1
  0
VERTEX
  8
0
 10
1113.1671874999993
 20
615.41054687499854
 42
-0.76732701063156128
  0
VERTEX
  8
0
 10
1113.1681640624993
 20
562.28554687499854
 42
0
  0
VERTEX
  8
0
 10
1071.0499999999993
 20
553.84999999999854
 42
0
  0
VERTEX
  8
0
 10
1071.0499999999993
 20
623.84804687499854
 42
0
  0
SEQEND
  0
POLYLINE
  8
0
 10
0
 20
0
 39
0
 70
1
 66
1
  0
VERTEX
  8
0
 10
1106.0499999999993
 20
573.84804687499854
 42
1
  0
VERTEX
  8
0
 10
1106.0499999999993
 20
603.84804687499854
 42
1
  0
SEQEND
  0
POLYLINE
  8
0
 10
0
 20
0
 39
0
 70
1
 66
1
  0
VERTEX
  8
0
 10
1175.9374999999927
 20
672.46718750000036
 42
-0.76732701063156128
  0
VERTEX
  8
0
 10
1229.0624999999927
 20
672.46816406250036
 42
0
  0
VERTEX
  8
0
 10
1237.4980468749927
 20
630.35000000000036
 42
0
  0
VERTEX
  8
0
 10
1167.4999999999927
 20
630.35000000000036
 42
0
  0
SEQEND
  0
POLYLINE
  8
0
 10
0
 20
0
 39
0
 70
1
 66
1
  0
VERTEX
  8
0
 10
1217.4999999999927
 20
665.35000000000036
 42
1
  0
VERTEX
  8
0
 10
1187.4999999999927
 20
665.35000000000036
 42
1
  0
SEQEND
  0
POLYLINE
  8
0
 10
0
 20
0
 39
0
 70
1
 66
1
  0
VERTEX
  8
0
 10
16.306223601778093
 20
35.602155285994243
 42
-0.07530849426984787
  0
VERTEX
  8
0
 10
16.306223060360971
 20
42.491464274967498
 42
0.34488147497177124
  0
VERTEX
  8
0
 10
15.094148144341936
 20
44.63875926358061
 42
0
  0
VERTEX
  8
0
 10
10.86731764837122
 20
46.389569806035993
 42
-0.38417559862136841
  0
VERTEX
  8
0
 10
10.291490542577328
 20
47.598505649403833
 42
-0.051863282918930054
  0
VERTEX
  8
0
 10
12.666767433746493
 20
53.332931252009658
 42
-0.38417559862136841
  0
VERTEX
  8
0
 10
13.928785057505131
 20
53.780605839666364
 42
-0
  0
VERTEX
  8
0
 10
18.155615553475847
 20
52.029795297210981
 42
0.34488147497177124
  0
VERTEX
  8
0
 10
20.531048435322909
 20
52.691094847214359
 42
-0.075308471918106079
  0
VERTEX
  8
0
 10
25.402524209319942
 20
57.56257224855257
 42
0.34488147497177124
  0
VERTEX
  8
0
 10
26.063825165013945
 20
59.938005699823194
 42
0
  0
VERTEX
  8
0
 10
24.313015994339644
 20
64.164836529883772
 42
-0.38417559862136841
  0
VERTEX
  8
0
 10
24.760689176301803
 20
65.426853536061927
 42
-0.051863282918930054
  0
VERTEX
  8
0
 10
30.495116543640499
 20
67.802131089906723
 42
-0.38417559862136841
  0
VERTEX
  8
0
 10
31.704052555619562
 20
67.22630406954535
 42
-0
  0
VERTEX
  8
0
 10
33.454861726293863
 20
62.999473239484772
 42
0.34488147497177124
  0
VERTEX
  8
0
 10
35.602155594807805
 20
61.787397108975185
 42
-0.075308538973331451
  0
VERTEX
  8
0
 10
42.491467227021523
 20
61.787396555526243
 42
0.34488147497177124
  0
VERTEX
  8
0
 10
44.638759572394171
 20
62.999472566411342
 42
0
  0
VERTEX
  8
0
 10
46.389570114849555
 20
67.226303062382058
 42
-0.38417559862136841
  0
VERTEX
  8
0
 10
47.598505958217395
 20
67.80213016817595
 42
-0.051863282918930054
  0
VERTEX
  8
0
 10
53.332931560823219
 20
65.426853277006785
 42
-0.38417559862136841
  0
VERTEX
  8
0
 10
53.780606148479926
 20
64.164835653248147
 42
-0
  0
VERTEX
  8
0
 10
52.029795606024543
 20
59.938005157277431
 42
0.34488147497177124
  0
VERTEX
  8
0
 10
52.69109515602792
 20
57.562572275430369
 42
-0.075308538973331451
  0
VERTEX
  8
0
 10
57.562574470695886
 20
52.691093644406962
 42
0.34488147497177124
  0
VERTEX
  8
0
 10
59.938006008636755
 20
52.029795545739333
 42
0
  0
VERTEX
  8
0
 10
64.16483683869734
 20
53.780604716413634
 42
-0.38417559862136841
  0
VERTEX
  8
0
 10
65.426853844875495
 20
53.332931534451475
 42
-0.051863282918930054
  0
VERTEX
  8
0
 10
67.802131398720292
 20
47.598504167112779
 42
-0.38417559862136841
  0
VERTEX
  8
0
 10
67.226304378358918
 20
46.389568155133716
 42
-0
  0
VERTEX
  8
0
 10
62.999473548298333
 20
44.638758984459415
 42
0.34488147497177124
  0
VERTEX
  8
0
 10
61.787397417788746
 20
42.491465115945473
 42
-0.075308538973331451
  0
VERTEX
  8
0
 10
61.787396864339804
 20
35.602153483731755
 42
0.34488144516944885
  0
VERTEX
  8
0
 10
62.999472875224903
 20
33.454861138359107
 42
0
  0
VERTEX
  8
0
 10
67.226303371195627
 20
31.704050595903723
 42
-0.38417559862136841
  0
VERTEX
  8
0
 10
67.802130476989504
 20
30.495114752535883
 42
-0.051863282918930054
  0
VERTEX
  8
0
 10
65.426853585820339
 20
24.760689149930059
 42
-0.38417559862136841
  0
VERTEX
  8
0
 10
64.164835962061716
 20
24.313014562273352
 42
-0
  0
VERTEX
  8
0
 10
59.938005466090992
 20
26.063825104728735
 42
0.34488144516944885
  0
VERTEX
  8
0
 10
57.562572584243931
 20
25.402525554725358
 42
-0.075308538973331451
  0
VERTEX
  8
0
 10
52.691093953220523
 20
20.531046240057393
 42
0.34488144516944885
  0
VERTEX
  8
0
 10
52.029795854552894
 20
18.155614702116523
 42
0
  0
VERTEX
  8
0
 10
53.780605025227196
 20
13.928783872055945
 42
-0.38417559862136841
  0
VERTEX
  8
0
 10
53.332931843265037
 20
12.66676686587779
 42
-0.051863282918930054
  0
VERTEX
  8
0
 10
47.59850447592634
 20
10.291489312032994
 42
-0.38417559862136841
  0
VERTEX
  8
0
 10
46.389568463947278
 20
10.867316332394367
 42
-0
  0
VERTEX
  8
0
 10
44.638759293272976
 20
15.094147162454945
 42
0.34488147497177124
  0
VERTEX
  8
0
 10
42.491465424759035
 20
16.306223292964532
 42
-0.075308538973331451
  0
VERTEX
  8
0
 10
35.602153792545316
 20
16.306223846413474
 42
0.34488147497177124
  0
VERTEX
  8
0
 10
33.454861447172668
 20
15.094147835528375
 42
0
  0
VERTEX
  8
0
 10
31.704050904717285
 20
10.867317339557658
 42
-0.38417559862136841
  0
VERTEX
  8
0
 10
30.495115061349445
 20
10.291490233763767
 42
-0.051863271743059158
  0
VERTEX
  8
0
 10
24.760690780363852
 20
12.666766577499899
 42
-0.38417559862136841
  0
VERTEX
  8
0
 10
24.313014871086914
 20
13.928784748691569
 42
-0
  0
VERTEX
  8
0
 10
26.063825413542297
 20
18.155615244662286
 42
0.34488147497177124
  0
VERTEX
  8
0
 10
25.402525863538919
 20
20.531048126509347
 42
-0.075308501720428467
  0
VERTEX
  8
0
 10
20.531047429951109
 20
25.4025263925774
 42
0.34488147497177124
  0
VERTEX
  8
0
 10
18.155615010930084
 20
26.063824856200384
 42
0
  0
VERTEX
  8
0
 10
13.928784180869506
 20
24.313015685526082
 42
-0.38417559862136841
  0
VERTEX
  8
0
 10
12.666767174691351
 20
24.760688867488241
 42
-0.051863253116607666
  0
VERTEX
  8
0
 10
10.291490653096155
 20
30.495113742755919
 42
-0.38417559862136841
  0
VERTEX
  8
0
 10
10.867316641207928
 20
31.704052246806
 42
-0
  0
VERTEX
  8
0
 10
15.094147471268506
 20
33.454861417480302
 42
0.34488147497177124
  0
SEQEND
  0
POLYLINE
  8
0
 10
0
 20
0
 39
0
 70
1
 66
1
  0
VERTEX
  8
0
 10
45.169745328051242
 20
53.828882268230601
 42
1
  0
VERTEX
  8
0
 10
32.923875691515597
 20
24.264738133709116
 42
1
  0
SEQEND
  0
POLYLINE
  8
0
 10
0
 20
0
 39
0
 70
1
 66
1
  0
VERTEX
  8
0
 10
281.50622360177806
 20
35.602155285994243
 42
-0.07530849426984787
  0
VERTEX
  8
0
 10
281.50622306036098
 20
42.491464274967498
 42
0.34488147497177124
  0
VERTEX
  8
0
 10
280.29414814434193
 20
44.63875926358061
 42
0
  0
VERTEX
  8
0
 10
276.06731764837122
 20
46.389569806035993
 42
-0.38417559862136841
  0
VERTEX
  8
0
 10
275.49149054257731
 20
47.598505649403833
 42
-0.051863282918930054
  0
VERTEX
  8
0
 10
277.86676743374647
 20
53.332931252009658
 42
-0.38417559862136841
  0
VERTEX
  8
0
 10
279.12878505750513
 20
53.780605839666364
 42
-0
  0
VERTEX
  8
0
 10
283.35561555347584
 20
52.029795297210981
 42
0.34488147497177124
  0
VERTEX
  8
0
 10
285.73104843532292
 20
52.691094847214359
 42
-0.075308471918106079
  0
VERTEX
  8
0
 10
290.60252420931994
 20
57.56257224855257
 42
0.34488147497177124
  0
VERTEX
  8
0
 10
291.26382516501394
 20
59.938005699823194
 42
0
  0
VERTEX
  8
0
 10
289.51301599433964
 20
64.164836529883772
 42
-0.38417559862136841
  0
VERTEX
  8
0
 10
289.9606891763018
 20
65.426853536061927
 42
-0.051863282918930054
  0
VERTEX
  8
0
 10
295.69511654364049
 20
67.802131089906723
 42
-0.38417559862136841
  0
VERTEX
  8
0
 10
296.90405255561956
 20
67.22630406954535
 42
-0
  0
VERTEX
  8
0
 10
298.65486172629386
 20
62.999473239484772
 42
0.34488147497177124
  0
VERTEX
  8
0
 10
300.8021555948078
 20
61.787397108975185
 42
-0.075308538973331451
  0
VERTEX
  8
0
 10
307.69146722702152
 20
61.787396555526243
 42
0.34488147497177124
  0
VERTEX
  8
0
 10
309.83875957239417
 20
62.999472566411342
 42
0
  0
VERTEX
  8
0
 10
311.58957011484955
 20
67.226303062382058
 42
-0.38417559862136841
  0
VERTEX
  8
0
 10
312.79850595821739
 20
67.80213016817595
 42
-0.051863282918930054
  0
VERTEX
  8
0
 10
318.53293156082322
 20
65.426853277006785
 42
-0.38417559862136841
  0
VERTEX
  8
0
 10
318.98060614847992
 20
64.164835653248147
 42
-0
  0
VERTEX
  8
0
 10
317.22979560602454
 20
59.938005157277431
 42
0.34488147497177124
  0
VERTEX
  8
0
 10
317.89109515602792
 20
57.562572275430369
 42
-0.075308538973331451
  0
VERTEX
  8
0
 10
322.76257447069588
 20
52.691093644406962
 42
0.34488147497177124
  0
VERTEX
  8
0
 10
325.13800600863675
 20
52.029795545739333
 42
0
  0
VERTEX
  8
0
 10
329.36483683869733
 20
53.780604716413634
 42
-0.38417559862136841
  0
VERTEX
  8
0
 10
330.62685384487548
 20
53.332931534451475
 42
-0.051863282918930054
  0
VERTEX
  8
0
 10
333.00213139872028
 20
47.598504167112779
 42
-0.38417559862136841
  0
VERTEX
  8
0
 10
332.42630437835891
 20
46.389568155133716
 42
-0
  0
VERTEX
  8
0
 10
328.19947354829833
 20
44.638758984459415
 42
0.34488147497177124
  0
VERTEX
  8
0
 10
326.98739741778877
 20
42.491465115945473
 42
-0.075308538973331451
  0
VERTEX
  8
0
 10
326.98739686433981
 20
35.602153483731755
 42
0.34488144516944885
  0
VERTEX
  8
0
 10
328.1994728752249
 20
33.454861138359107
 42
0
  0
VERTEX
  8
0
 10
332.42630337119562
 20
31.704050595903723
 42
-0.38417559862136841
  0
VERTEX
  8
0
 10
333.00213047698952
 20
30.495114752535883
 42
-0.051863282918930054
  0
VERTEX
  8
0
 10
330.62685358582036
 20
24.760689149930059
 42
-0.38417559862136841
  0
VERTEX
  8
0
 10
329.3648359620617
 20
24.313014562273352
 42
-0
  0
VERTEX
  8
0
 10
325.13800546609099
 20
26.063825104728735
 42
0.34488144516944885
  0
VERTEX
  8
0
 10
322.76257258424391
 20
25.402525554725358
 42
-0.075308538973331451
  0
VERTEX
  8
0
 10
317.89109395322055
 20
20.531046240057393
 42
0.34488144516944885
  0
VERTEX
  8
0
 10
317.22979585455289
 20
18.155614702116523
 42
0
  0
VERTEX
  8
0
 10
318.98060502522719
 20
13.928783872055945
 42
-0.38417559862136841
  0
VERTEX
  8
0
 10
318.53293184326503
 20
12.66676686587779
 42
-0.051863282918930054
  0
VERTEX
  8
0
 10
312.79850447592634
 20
10.291489312032994
 42
-0.38417559862136841
  0
VERTEX
  8
0
 10
311.58956846394727
 20
10.867316332394367
 42
-0
  0
VERTEX
  8
0
 10
309.83875929327297
 20
15.094147162454945
 42
0.34488147497177124
  0
VERTEX
  8
0
 10
307.69146542475903
 20
16.306223292964532
 42
-0.075308538973331451
  0
VERTEX
  8
0
 10
300.80215379254531
 20
16.306223846413474
 42
0.34488147497177124
  0
VERTEX
  8
0
 10
298.65486144717266
 20
15.094147835528375
 42
0
  0
VERTEX
  8
0
 10
296.90405090471728
 20
10.867317339557658
 42
-0.38417559862136841
  0
VERTEX
  8
0
 10
295.69511506134944
 20
10.291490233763767
 42
-0.051863271743059158
  0
VERTEX
  8
0
 10
289.96069078036385
 20
12.666766577499899
 42
-0.38417559862136841
  0
VERTEX
  8
0
 10
289.51301487108691
 20
13.928784748691569
 42
-0
  0
VERTEX
  8
0
 10
291.26382541354229
 20
18.155615244662286
 42
0.34488147497177124
  0
VERTEX
  8
0
 10
290.60252586353892
 20
20.531048126509347
 42
-0.075308501720428467
  0
VERTEX
  8
0
 10
285.7310474299511
 20
25.4025263925774
 42
0.34488147497177124
  0
VERTEX
  8
0
 10
283.35561501093008
 20
26.063824856200384
 42
0
  0
VERTEX
  8
0
 10
279.1287841808695
 20
24.313015685526082
 42
-0.38417559862136841
  0
VERTEX
  8
0
 10
277.86676717469135
 20
24.760688867488241
 42
-0.051863253116607666
  0
VERTEX
  8
0
 10
275.49149065309615
 20
30.495113742755919
 42
-0.38417559862136841
  0
VERTEX
  8
0
 10
276.06731664120792
 20
31.704052246806
 42
-0
  0
VERTEX
  8
0
 10
280.2941474712685
 20
33.454861417480302
 42
0.34488147497177124
  0
SEQEND
  0
POLYLINE
  8
0
 10
0
 20
0
 39
0
 70
1
 66
1
  0
VERTEX
  8
0
 10
310.36974532805124
 20
53.828882268230601
 42
1
  0
VERTEX
  8
0
 10
298.12387569151559
 20
24.264738133709116
 42
1
  0
SEQEND
  0
POLYLINE
  8
0
 10
0
 20
0
 39
0
 70
1
 66
1
  0
VERTEX
  8
0
 10
546.70622360177811
 20
35.602155285994243
 42
-0.07530849426984787
  0
VERTEX
  8
0
 10
546.70622306036091
 20
42.491464274967498
 42
0.34488147497177124
  0
VERTEX
  8
0
 10
545.49414814434192
 20
44.63875926358061
 42
0
  0
VERTEX
  8
0
 10
541.2673176483712
 20
46.389569806035993
 42
-0.38417559862136841
  0
VERTEX
  8
0
 10
540.6914905425773
 20
47.598505649403833
 42
-0.051863282918930054
  0
VERTEX
  8
0
 10
543.06676743374646
 20
53.332931252009658
 42
-0.38417559862136841
  0
VERTEX
  8
0
 10
544.32878505750512
 20
53.780605839666364
 42
-0
  0
VERTEX
  8
0
 10
548.55561555347583
 20
52.029795297210981
 42
0.34488147497177124
  0
VERTEX
  8
0
 10
550.93104843532285
 20
52.691094847214359
 42
-0.075308471918106079
  0
VERTEX
  8
0
 10
555.80252420931993
 20
57.56257224855257
 42
0.34488147497177124
  0
VERTEX
  8
0
 10
556.46382516501399
 20
59.938005699823194
 42
0
  0
VERTEX
  8
0
 10
554.71301599433968
 20
64.164836529883772
 42
-0.38417559862136841
  0
VERTEX
  8
0
 10
555.16068917630173
 20
65.426853536061927
 42
-0.051863282918930054
  0
VERTEX
  8
0
 10
560.89511654364048
 20
67.802131089906723
 42
-0.38417559862136841
  0
VERTEX
  8
0
 10
562.10405255561955
 20
67.22630406954535
 42
-0
  0
VERTEX
  8
0
 10
563.85486172629385
 20
62.999473239484772
 42
0.34488147497177124
  0
VERTEX
  8
0
 10
566.00215559480785
 20
61.787397108975185
 42
-0.075308538973331451
  0
VERTEX
  8
0
 10
572.89146722702151
 20
61.787396555526243
 42
0.34488147497177124
  0
VERTEX
  8
0
 10
575.03875957239416
 20
62.999472566411342
 42
0
  0
VERTEX
  8
0
 10
576.78957011484954
 20
67.226303062382058
 42
-0.38417559862136841
  0
VERTEX
  8
0
 10
577.99850595821738
 20
67.80213016817595
 42
-0.051863282918930054
  0
VERTEX
  8
0
 10
583.7329315608232
 20
65.426853277006785
 42
-0.38417559862136841
  0
VERTEX
  8
0
 10
584.18060614847991
 20
64.164835653248147
 42
-0
  0
VERTEX
  8
0
 10
582.42979560602453
 20
59.938005157277431
 42
0.34488147497177124
  0
VERTEX
  8
0
 10
583.0910951560279
 20
57.562572275430369
 42
-0.075308538973331451
  0
VERTEX
  8
0
 10
587.96257447069593
 20
52.691093644406962
 42
0.34488147497177124
  0
VERTEX
  8
0
 10
590.33800600863674
 20
52.029795545739333
 42
0
  0
VERTEX
  8
0
 10
594.56483683869737
 20
53.780604716413634
 42
-0.38417559862136841
  0
VERTEX
  8
0
 10
595.82685384487547
 20
53.332931534451475
 42
-0.051863282918930054
  0
VERTEX
  8
0
 10
598.20213139872021
 20
47.598504167112779
 42
-0.38417559862136841
  0
VERTEX
  8
0
 10
597.6263043783589
 20
46.389568155133716
 42
-0
  0
VERTEX
  8
0
 10
593.39947354829837
 20
44.638758984459415
 42
0.34488147497177124
  0
VERTEX
  8
0
 10
592.1873974177887
 20
42.491465115945473
 42
-0.075308538973331451
  0
VERTEX
  8
0
 10
592.1873968643398
 20
35.602153483731755
 42
0.34488144516944885
  0
VERTEX
  8
0
 10
593.39947287522489
 20
33.454861138359107
 42
0
  0
VERTEX
  8
0
 10
597.6263033711956
 20
31.704050595903723
 42
-0.38417559862136841
  0
VERTEX
  8
0
 10
598.20213047698951
 20
30.495114752535883
 42
-0.051863282918930054
  0
VERTEX
  8
0
 10
595.82685358582034
 20
24.760689149930059
 42
-0.38417559862136841
  0
VERTEX
  8
0
 10
594.56483596206169
 20
24.313014562273352
 42
-0
  0
VERTEX
  8
0
 10
590.33800546609098
 20
26.063825104728735
 42
0.34488144516944885
  0
VERTEX
  8
0
 10
587.96257258424396
 20
25.402525554725358
 42
-0.075308538973331451
  0
VERTEX
  8
0
 10
583.09109395322048
 20
20.531046240057393
 42
0.34488144516944885
  0
VERTEX
  8
0
 10
582.42979585455282
 20
18.155614702116523
 42
0
  0
VERTEX
  8
0
 10
584.18060502522712
 20
13.928783872055945
 42
-0.38417559862136841
  0
VERTEX
  8
0
 10
583.73293184326508
 20
12.66676686587779
 42
-0.051863282918930054
  0
VERTEX
  8
0
 10
577.99850447592632
 20
10.291489312032994
 42
-0.38417559862136841
  0
VERTEX
  8
0
 10
576.78956846394726
 20
10.867316332394367
 42
-0
  0
VERTEX
  8
0
 10
575.03875929327296
 20
15.094147162454945
 42
0.34488147497177124
  0
VERTEX
  8
0
 10
572.89146542475896
 20
16.306223292964532
 42
-0.075308538973331451
  0
VERTEX
  8
0
 10
566.0021537925453
 20
16.306223846413474
 42
0.34488147497177124
  0
VERTEX
  8
0
 10
563.85486144717265
 20
15.094147835528375
 42
0
  0
VERTEX
  8
0
 10
562.10405090471727
 20
10.867317339557658
 42
-0.38417559862136841
  0
VERTEX
  8
0
 10
560.89511506134943
 20
10.291490233763767
 42
-0.051863271743059158
  0
VERTEX
  8
0
 10
555.16069078036389
 20
12.666766577499899
 42
-0.38417559862136841
  0
VERTEX
  8
0
 10
554.7130148710869
 20
13.928784748691569
 42
-0
  0
VERTEX
  8
0
 10
556.46382541354228
 20
18.155615244662286
 42
0.34488147497177124
  0
VERTEX
  8
0
 10
555.8025258635389
 20
20.531048126509347
 42
-0.075308501720428467
  0
VERTEX
  8
0
 10
550.93104742995115
 20
25.4025263925774
 42
0.34488147497177124
  0
VERTEX
  8
0
 10
548.55561501093007
 20
26.063824856200384
 42
0
  0
VERTEX
  8
0
 10
544.32878418086943
 20
24.313015685526082
 42
-0.38417559862136841
  0
VERTEX
  8
0
 10
543.06676717469134
 20
24.760688867488241
 42
-0.051863253116607666
  0
VERTEX
  8
0
 10
540.69149065309614
 20
30.495113742755919
 42
-0.38417559862136841
  0
VERTEX
  8
0
 10
541.26731664120791
 20
31.704052246806
 42
-0
  0
VERTEX
  8
0
 10
545.49414747126843
 20
33.454861417480302
 42
0.34488147497177124
  0
SEQEND
  0
POLYLINE
  8
0
 10
0
 20
0
 39
0
 70
1
 66
1
  0
VERTEX
  8
0
 10
575.56974532805123
 20
53.828882268230601
 42
1
  0
VERTEX
  8
0
 10
563.32387569151558
 20
24.264738133709116
 42
1
  0
SEQEND
  0
POLYLINE
  8
0
 10
0
 20
0
 39
0
 70
1
 66
1
  0
VERTEX
  8
0
 10
811.90622360177804
 20
35.602155285994243
 42
-0.07530849426984787
  0
VERTEX
  8
0
 10
811.90622306036084
 20
42.491464274967498
 42
0.34488147497177124
  0
VERTEX
  8
0
 10
810.69414814434185
 20
44.63875926358061
 42
0
  0
VERTEX
  8
0
 10
806.46731764837114
 20
46.389569806035993
 42
-0.38417559862136841
  0
VERTEX
  8
0
 10
805.89149054257723
 20
47.598505649403833
 42
-0.051863282918930054
  0
VERTEX
  8
0
 10
808.26676743374639
 20
53.332931252009658
 42
-0.38417559862136841
  0
VERTEX
  8
0
 10
809.52878505750505
 20
53.780605839666364
 42
-0
  0
VERTEX
  8
0
 10
813.75561555347576
 20
52.029795297210981
 42
0.34488147497177124
  0
VERTEX
  8
0
 10
816.13104843532278
 20
52.691094847214359
 42
-0.075308471918106079
  0
VERTEX
  8
0
 10
821.00252420931986
 20
57.56257224855257
 42
0.34488147497177124
  0
VERTEX
  8
0
 10
821.6638251650138
 20
59.938005699823194
 42
0
  0
VERTEX
  8
0
 10
819.9130159943395
 20
64.164836529883772
 42
-0.38417559862136841
  0
VERTEX
  8
0
 10
820.36068917630178
 20
65.426853536061927
 42
-0.051863282918930054
  0
VERTEX
  8
0
 10
826.09511654364042
 20
67.802131089906723
 42
-0.38417559862136841
  0
VERTEX
  8
0
 10
827.30405255561948
 20
67.22630406954535
 42
-0
  0
VERTEX
  8
0
 10
829.05486172629378
 20
62.999473239484772
 42
0.34488147497177124
  0
VERTEX
  8
0
 10
831.20215559480766
 20
61.787397108975185
 42
-0.075308538973331451
  0
VERTEX
  8
0
 10
838.09146722702144
 20
61.787396555526243
 42
0.34488147497177124
  0
VERTEX
  8
0
 10
840.23875957239409
 20
62.999472566411342
 42
0
  0
VERTEX
  8
0
 10
841.98957011484947
 20
67.226303062382058
 42
-0.38417559862136841
  0
VERTEX
  8
0
 10
843.19850595821731
 20
67.80213016817595
 42
-0.051863282918930054
  0
VERTEX
  8
0
 10
848.93293156082314
 20
65.426853277006785
 42
-0.38417559862136841
  0
VERTEX
  8
0
 10
849.38060614847984
 20
64.164835653248147
 42
-0
  0
VERTEX
  8
0
 10
847.62979560602446
 20
59.938005157277431
 42
0.34488147497177124
  0
VERTEX
  8
0
 10
848.29109515602784
 20
57.562572275430369
 42
-0.075308538973331451
  0
VERTEX
  8
0
 10
853.16257447069574
 20
52.691093644406962
 42
0.34488147497177124
  0
VERTEX
  8
0
 10
855.53800600863667
 20
52.029795545739333
 42
0
  0
VERTEX
  8
0
 10
859.76483683869719
 20
53.780604716413634
 42
-0.38417559862136841
  0
VERTEX
  8
0
 10
861.0268538448754
 20
53.332931534451475
 42
-0.051863282918930054
  0
VERTEX
  8
0
 10
863.40213139872026
 20
47.598504167112779
 42
-0.38417559862136841
  0
VERTEX
  8
0
 10
862.82630437835883
 20
46.389568155133716
 42
-0
  0
VERTEX
  8
0
 10
858.59947354829819
 20
44.638758984459415
 42
0.34488147497177124
  0
VERTEX
  8
0
 10
857.38739741778863
 20
42.491465115945473
 42
-0.075308538973331451
  0
VERTEX
  8
0
 10
857.38739686433973
 20
35.602153483731755
 42
0.34488144516944885
  0
VERTEX
  8
0
 10
858.59947287522482
 20
33.454861138359107
 42
0
  0
VERTEX
  8
0
 10
862.82630337119554
 20
31.704050595903723
 42
-0.38417559862136841
  0
VERTEX
  8
0
 10
863.40213047698944
 20
30.495114752535883
 42
-0.051863282918930054
  0
VERTEX
  8
0
 10
861.02685358582028
 20
24.760689149930059
 42
-0.38417559862136841
  0
VERTEX
  8
0
 10
859.76483596206162
 20
24.313014562273352
 42
-0
  0
VERTEX
  8
0
 10
855.53800546609091
 20
26.063825104728735
 42
0.34488144516944885
  0
VERTEX
  8
0
 10
853.16257258424389
 20
25.402525554725358
 42
-0.075308538973331451
  0
VERTEX
  8
0
 10
848.29109395322041
 20
20.531046240057393
 42
0.34488144516944885
  0
VERTEX
  8
0
 10
847.62979585455287
 20
18.155614702116523
 42
0
  0
VERTEX
  8
0
 10
849.38060502522717
 20
13.928783872055945
 42
-0.38417559862136841
  0
VERTEX
  8
0
 10
848.9329318432649
 20
12.66676686587779
 42
-0.051863282918930054
  0
VERTEX
  8
0
 10
843.19850447592626
 20
10.291489312032994
 42
-0.38417559862136841
  0
VERTEX
  8
0
 10
841.98956846394719
 20
10.867316332394367
 42
-0
  0
VERTEX
  8
0
 10
840.23875929327289
 20
15.094147162454945
 42
0.34488147497177124
  0
VERTEX
  8
0
 10
838.09146542475901
 20
16.306223292964532
 42
-0.075308538973331451
  0
VERTEX
  8
0
 10
831.20215379254523
 20
16.306223846413474
 42
0.34488147497177124
  0
VERTEX
  8
0
 10
829.05486144717258
 20
15.094147835528375
 42
0
  0
VERTEX
  8
0
 10
827.3040509047172
 20
10.867317339557658
 42
-0.38417559862136841
  0
VERTEX
  8
0
 10
826.09511506134936
 20
10.291490233763767
 42
-0.051863271743059158
  0
VERTEX
  8
0
 10
820.36069078036371
 20
12.666766577499899
 42
-0.38417559862136841
  0
VERTEX
  8
0
 10
819.91301487108683
 20
13.928784748691569
 42
-0
  0
VERTEX
  8
0
 10
821.66382541354221
 20
18.155615244662286
 42
0.34488147497177124
  0
VERTEX
  8
0
 10
821.00252586353884
 20
20.531048126509347
 42
-0.075308501720428467
  0
VERTEX
  8
0
 10
816.13104742995097
 20
25.4025263925774
 42
0.34488147497177124
  0
VERTEX
  8
0
 10
813.75561501093
 20
26.063824856200384
 42
0
  0
VERTEX
  8
0
 10
809.52878418086948
 20
24.313015685526082
 42
-0.38417559862136841
  0
VERTEX
  8
0
 10
808.26676717469127
 20
24.760688867488241
 42
-0.051863253116607666
  0
VERTEX
  8
0
 10
805.89149065309607
 20
30.495113742755919
 42
-0.38417559862136841
  0
VERTEX
  8
0
 10
806.46731664120784
 20
31.704052246806
 42
-0
  0
VERTEX
  8
0
 10
810.69414747126848
 20
33.454861417480302
 42
0.34488147497177124
  0
SEQEND
  0
POLYLINE
  8
0
 10
0
 20
0
 39
0
 70
1
 66
1
  0
VERTEX
  8
0
 10
840.76974532805116
 20
53.828882268230601
 42
1
  0
VERTEX
  8
0
 10
828.52387569151551
 20
24.264738133709116
 42
1
  0
SEQEND
  0
POLYLINE
  8
0
 10
0
 20
0
 39
0
 70
1
 66
1
  0
VERTEX
  8
0
 10
884.35622360177808
 20
652.70215528599419
 42
-0.07530849426984787
  0
VERTEX
  8
0
 10
884.35622306036089
 20
659.59146427496751
 42
0.34488147497177124
  0
VERTEX
  8
0
 10
883.1441481443419
 20
661.73875926358062
 42
0
  0
VERTEX
  8
0
 10
878.91731764837118
 20
663.489569806036
 42
-0.38417559862136841
  0
VERTEX
  8
0
 10
878.34149054257728
 20
664.69850564940384
 42
-0.051863282918930054
  0
VERTEX
  8
0
 10
880.71676743374644
 20
670.43293125200967
 42
-0.38417559862136841
  0
VERTEX
  8
0
 10
881.97878505750509
 20
670.88060583966637
 42
-0
  0
VERTEX
  8
0
 10
886.20561555347581
 20
669.12979529721099
 42
0.34488147497177124
  0
VERTEX
  8
0
 10
888.58104843532283
 20
669.79109484721437
 42
-0.075308471918106079
  0
VERTEX
  8
0
 10
893.4525242093199
 20
674.66257224855258
 42
0.34488147497177124
  0
VERTEX
  8
0
 10
894.11382516501385
 20
677.0380056998232
 42
0
  0
VERTEX
  8
0
 10
892.36301599433955
 20
681.26483652988372
 42
-0.38417559862136841
  0
VERTEX
  8
0
 10
892.81068917630182
 20
682.52685353606194
 42
-0.051863282918930054
  0
VERTEX
  8
0
 10
898.54511654364046
 20
684.90213108990679
 42
-0.38417559862136841
  0
VERTEX
  8
0
 10
899.75405255561952
 20
684.32630406954536
 42
-0
  0
VERTEX
  8
0
 10
901.50486172629383
 20
680.09947323948472
 42
0.34488147497177124
  0
VERTEX
  8
0
 10
903.65215559480771
 20
678.88739710897516
 42
-0.075308538973331451
  0
VERTEX
  8
0
 10
910.54146722702149
 20
678.88739655552627
 42
0.34488147497177124
  0
VERTEX
  8
0
 10
912.68875957239413
 20
680.09947256641135
 42
0
  0
VERTEX
  8
0
 10
914.43957011484952
 20
684.32630306238207
 42
-0.38417559862136841
  0
VERTEX
  8
0
 10
915.64850595821736
 20
684.90213016817597
 42
-0.051863282918930054
  0
VERTEX
  8
0
 10
921.38293156082318
 20
682.52685327700681
 42
-0.38417559862136841
  0
VERTEX
  8
0
 10
921.83060614847989
 20
681.26483565324816
 42
-0
  0
VERTEX
  8
0
 10
920.0797956060245
 20
677.03800515727744
 42
0.34488147497177124
  0
VERTEX
  8
0
 10
920.74109515602788
 20
674.66257227543042
 42
-0.075308538973331451
  0
VERTEX
  8
0
 10
925.61257447069579
 20
669.79109364440694
 42
0.34488147497177124
  0
VERTEX
  8
0
 10
927.98800600863672
 20
669.1297955457394
 42
0
  0
VERTEX
  8
0
 10
932.21483683869724
 20
670.8806047164137
 42
-0.38417559862136841
  0
VERTEX
  8
0
 10
933.47685384487545
 20
670.43293153445143
 42
-0.051863282918930054
  0
VERTEX
  8
0
 10
935.8521313987203
 20
664.69850416711279
 42
-0.38417559862136841
  0
VERTEX
  8
0
 10
935.27630437835887
 20
663.48956815513372
 42
-0
  0
VERTEX
  8
0
 10
931.04947354829824
 20
661.73875898445942
 42
0.34488147497177124
  0
VERTEX
  8
0
 10
929.83739741778868
 20
659.59146511594554
 42
-0.075308538973331451
  0
VERTEX
  8
0
 10
929.83739686433978
 20
652.70215348373176
 42
0.34488144516944885
  0
VERTEX
  8
0
 10
931.04947287522486
 20
650.55486113835912
 42
0
  0
VERTEX
  8
0
 10
935.27630337119558
 20
648.80405059590373
 42
-0.38417559862136841
  0
VERTEX
  8
0
 10
935.85213047698949
 20
647.59511475253589
 42
-0.051863282918930054
  0
VERTEX
  8
0
 10
933.47685358582032
 20
641.86068914993007
 42
-0.38417559862136841
  0
VERTEX
  8
0
 10
932.21483596206167
 20
641.41301456227336
 42
-0
  0
VERTEX
  8
0
 10
927.98800546609095
 20
643.16382510472874
 42
0.34488144516944885
  0
VERTEX
  8
0
 10
925.61257258424394
 20
642.50252555472537
 42
-0.075308538973331451
  0
VERTEX
  8
0
 10
920.74109395322046
 20
637.63104624005746
 42
0.34488144516944885
  0
VERTEX
  8
0
 10
920.07979585455291
 20
635.25561470211653
 42
0
  0
VERTEX
  8
0
 10
921.83060502522721
 20
631.02878387205601
 42
-0.38417559862136841
  0
VERTEX
  8
0
 10
921.38293184326494
 20
629.7667668658778
 42
-0.051863282918930054
  0
VERTEX
  8
0
 10
915.6485044759263
 20
627.39148931203295
 42
-0.38417559862136841
  0
VERTEX
  8
0
 10
914.43956846394724
 20
627.96731633239438
 42
-0
  0
VERTEX
  8
0
 10
912.68875929327294
 20
632.19414716245501
 42
0.34488147497177124
  0
VERTEX
  8
0
 10
910.54146542475905
 20
633.40622329296457
 42
-0.075308538973331451
  0
VERTEX
  8
0
 10
903.65215379254528
 20
633.40622384641347
 42
0.34488147497177124
  0
VERTEX
  8
0
 10
901.50486144717263
 20
632.19414783552838
 42
0
  0
VERTEX
  8
0
 10
899.75405090471725
 20
627.96731733955767
 42
-0.38417559862136841
  0
VERTEX
  8
0
 10
898.54511506134941
 20
627.39149023376376
 42
-0.051863271743059158
  0
VERTEX
  8
0
 10
892.81069078036376
 20
629.76676657749988
 42
-0.38417559862136841
  0
VERTEX
  8
0
 10
892.36301487108688
 20
631.02878474869158
 42
-0
  0
VERTEX
  8
0
 10
894.11382541354226
 20
635.25561524466229
 42
0.34488147497177124
  0
VERTEX
  8
0
 10
893.45252586353888
 20
637.63104812650931
 42
-0.075308501720428467
  0
VERTEX
  8
0
 10
888.58104742995101
 20
642.50252639257747
 42
0.34488147497177124
  0
VERTEX
  8
0
 10
886.20561501093005
 20
643.16382485620034
 42
0
  0
VERTEX
  8
0
 10
881.97878418086952
 20
641.41301568552603
 42
-0.38417559862136841
  0
VERTEX
  8
0
 10
880.71676717469131
 20
641.86068886748831
 42
-0.051863253116607666
  0
VERTEX
  8
0
 10
878.34149065309612
 20
647.59511374275598
 42
-0.38417559862136841
  0
VERTEX
  8
0
 10
878.91731664120789
 20
648.80405224680601
 42
-0
  0
VERTEX
  8
0
 10
883.14414747126852
 20
650.55486141748031
 42
0.34488147497177124
  0
SEQEND
  0
POLYLINE
  8
0
 10
0
 20
0
 39
0
 70
1
 66
1
  0
VERTEX
  8
0
 10
913.2197453280512
 20
670.92888226823061
 42
1
  0
VERTEX
  8
0
 10
900.97387569151556
 20
641.36473813370912
 42
1
  0
SEQEND
  0
POLYLINE
  8
0
 10
0
 20
0
 39
0
 70
1
 66
1
  0
VERTEX
  8
0
 10
1077.1062236017781
 20
35.602155285994243
 42
-0.07530849426984787
  0
VERTEX
  8
0
 10
1077.1062230603609
 20
42.491464274967498
 42
0.34488147497177124
  0
VERTEX
  8
0
 10
1075.8941481443419
 20
44.63875926358061
 42
0
  0
VERTEX
  8
0
 10
1071.6673176483712
 20
46.389569806035993
 42
-0.38417559862136841
  0
VERTEX
  8
0
 10
1071.0914905425773
 20
47.598505649403833
 42
-0.051863282918930054
  0
VERTEX
  8
0
 10
1073.4667674337466
 20
53.332931252009658
 42
-0.38417559862136841
  0
VERTEX
  8
0
 10
1074.7287850575051
 20
53.780605839666364
 42
-0
  0
VERTEX
  8
0
 10
1078.9556155534758
 20
52.029795297210981
 42
0.34488147497177124
  0
VERTEX
  8
0
 10
1081.3310484353228
 20
52.691094847214359
 42
-0.075308471918106079
  0
VERTEX
  8
0
 10
1086.20252420932
 20
57.56257224855257
 42
0.34488147497177124
  0
VERTEX
  8
0
 10
1086.8638251650138
 20
59.938005699823194
 42
0
  0
VERTEX
  8
0
 10
1085.1130159943395
 20
64.164836529883772
 42
-0.38417559862136841
  0
VERTEX
  8
0
 10
1085.5606891763018
 20
65.426853536061927
 42
-0.051863282918930054
  0
VERTEX
  8
0
 10
1091.2951165436405
 20
67.802131089906723
 42
-0.38417559862136841
  0
VERTEX
  8
0
 10
1092.5040525556196
 20
67.22630406954535
 42
-0
  0
VERTEX
  8
0
 10
1094.2548617262937
 20
62.999473239484772
 42
0.34488147497177124
  0
VERTEX
  8
0
 10
1096.4021555948077
 20
61.787397108975185
 42
-0.075308538973331451
  0
VERTEX
  8
0
 10
1103.2914672270215
 20
61.787396555526243
 42
0.34488147497177124
  0
VERTEX
  8
0
 10
1105.4387595723942
 20
62.999472566411342
 42
0
  0
VERTEX
  8
0
 10
1107.1895701148496
 20
67.226303062382058
 42
-0.38417559862136841
  0
VERTEX
  8
0
 10
1108.3985059582174
 20
67.80213016817595
 42
-0.051863282918930054
  0
VERTEX
  8
0
 10
1114.1329315608232
 20
65.426853277006785
 42
-0.38417559862136841
  0
VERTEX
  8
0
 10
1114.58060614848
 20
64.164835653248147
 42
-0
  0
VERTEX
  8
0
 10
1112.8297956060246
 20
59.938005157277431
 42
0.34488147497177124
  0
VERTEX
  8
0
 10
1113.4910951560278
 20
57.562572275430369
 42
-0.075308538973331451
  0
VERTEX
  8
0
 10
1118.3625744706958
 20
52.691093644406962
 42
0.34488147497177124
  0
VERTEX
  8
0
 10
1120.7380060086366
 20
52.029795545739333
 42
0
  0
VERTEX
  8
0
 10
1124.9648368386972
 20
53.780604716413634
 42
-0.38417559862136841
  0
VERTEX
  8
0
 10
1126.2268538448754
 20
53.332931534451475
 42
-0.051863282918930054
  0
VERTEX
  8
0
 10
1128.6021313987203
 20
47.598504167112779
 42
-0.38417559862136841
  0
VERTEX
  8
0
 10
1128.0263043783589
 20
46.389568155133716
 42
-0
  0
VERTEX
  8
0
 10
1123.7994735482982
 20
44.638758984459415
 42
0.34488147497177124
  0
VERTEX
  8
0
 10
1122.5873974177887
 20
42.491465115945473
 42
-0.075308538973331451
  0
VERTEX
  8
0
 10
1122.5873968643398
 20
35.602153483731755
 42
0.34488144516944885
  0
VERTEX
  8
0
 10
1123.7994728752249
 20
33.454861138359107
 42
0
  0
VERTEX
  8
0
 10
1128.0263033711956
 20
31.704050595903723
 42
-0.38417559862136841
  0
VERTEX
  8
0
 10
1128.6021304769895
 20
30.495114752535883
 42
-0.051863282918930054
  0
VERTEX
  8
0
 10
1126.2268535858202
 20
24.760689149930059
 42
-0.38417559862136841
  0
VERTEX
  8
0
 10
1124.9648359620617
 20
24.313014562273352
 42
-0
  0
VERTEX
  8
0
 10
1120.738005466091
 20
26.063825104728735
 42
0.34488144516944885
  0
VERTEX
  8
0
 10
1118.3625725842439
 20
25.402525554725358
 42
-0.075308538973331451
  0
VERTEX
  8
0
 10
1113.4910939532206
 20
20.531046240057393
 42
0.34488144516944885
  0
VERTEX
  8
0
 10
1112.8297958545529
 20
18.155614702116523
 42
0
  0
VERTEX
  8
0
 10
1114.5806050252272
 20
13.928783872055945
 42
-0.38417559862136841
  0
VERTEX
  8
0
 10
1114.1329318432649
 20
12.66676686587779
 42
-0.051863282918930054
  0
VERTEX
  8
0
 10
1108.3985044759263
 20
10.291489312032994
 42
-0.38417559862136841
  0
VERTEX
  8
0
 10
1107.1895684639471
 20
10.867316332394367
 42
-0
  0
VERTEX
  8
0
 10
1105.4387592932731
 20
15.094147162454945
 42
0.34488147497177124
  0
VERTEX
  8
0
 10
1103.2914654247591
 20
16.306223292964532
 42
-0.075308538973331451
  0
VERTEX
  8
0
 10
1096.4021537925453
 20
16.306223846413474
 42
0.34488147497177124
  0
VERTEX
  8
0
 10
1094.2548614471725
 20
15.094147835528375
 42
0
  0
VERTEX
  8
0
 10
1092.5040509047171
 20
10.867317339557658
 42
-0.38417559862136841
  0
VERTEX
  8
0
 10
1091.2951150613494
 20
10.291490233763767
 42
-0.051863271743059158
  0
VERTEX
  8
0
 10
1085.5606907803638
 20
12.666766577499899
 42
-0.38417559862136841
  0
VERTEX
  8
0
 10
1085.1130148710868
 20
13.928784748691569
 42
-0
  0
VERTEX
  8
0
 10
1086.8638254135421
 20
18.155615244662286
 42
0.34488147497177124
  0
VERTEX
  8
0
 10
1086.202525863539
 20
20.531048126509347
 42
-0.075308501720428467
  0
VERTEX
  8
0
 10
1081.331047429951
 20
25.4025263925774
 42
0.34488147497177124
  0
VERTEX
  8
0
 10
1078.9556150109302
 20
26.063824856200384
 42
0
  0
VERTEX
  8
0
 10
1074.7287841808695
 20
24.313015685526082
 42
-0.38417559862136841
  0
VERTEX
  8
0
 10
1073.4667671746913
 20
24.760688867488241
 42
-0.051863253116607666
  0
VERTEX
  8
0
 10
1071.0914906530961
 20
30.495113742755919
 42
-0.38417559862136841
  0
VERTEX
  8
0
 10
1071.6673166412079
 20
31.704052246806
 42
-0
  0
VERTEX
  8
0
 10
1075.8941474712685
 20
33.454861417480302
 42
0.34488147497177124
  0
SEQEND
  0
POLYLINE
  8
0
 10
0
 20
0
 39
0
 70
1
 66
1
  0
VERTEX
  8
0
 10
1105.9697453280512
 20
53.828882268230601
 42
1
  0
VERTEX
  8
0
 10
1093.7238756915156
 20
24.264738133709116
 42
1
  0
SEQEND
  0
POLYLINE
  8
0
 10
0
 20
0
 39
0
 70
1
 66
1
  0
VERTEX
  8
0
 10
1446.5
 20
570.69999999999993
 42
-0
  0
VERTEX
  8
0
 10
1446.5
 20
630.69999999999993
 42
-0
  0
VERTEX
  8
0
 10
1486.5
 20
630.69999999999993
 42
-0
  0
VERTEX
  8
0
 10
1486.5
 20
570.69999999999993
 42
-1
  0
SEQEND
  0
POLYLINE
  8
0
 10
0
 20
0
 39
0
 70
1
 66
1
  0
VERTEX
  8
0
 10
1458.5
 20
570.69999999999993
 42
1
  0
VERTEX
  8
0
 10
1474.5
 20
570.69999999999993
 42
1
  0
SEQEND
  0
POLYLINE
  8
0
 10
0
 20
0
 39
0
 70
1
 66
1
  0
VERTEX
  8
0
 10
79.700000000000003
 20
142.59999999999999
 42
-0
  0
VERTEX
  8
0
 10
79.700000000000003
 20
178.59999999999999
 42
-0
  0
VERTEX
  8
0
 10
81.382177782058719
 20
178.60000095318858
 42
0.34921517968177795
  0
VERTEX
  8
0
 10
110.01782150268555
 20
178.59999999999999
 42
-0
  0
VERTEX
  8
0
 10
111.7
 20
178.59999999999999
 42
-0
  0
VERTEX
  8
0
 10
111.70000000000002
 20
142.59999999999999
 42
-0
  0
VERTEX
  8
0
 10
106.7
 20
137.59999999999999
 42
-0
  0
VERTEX
  8
0
 10
84.700000000000003
 20
137.59999999999999
 42
-0
  0
SEQEND
  0
POLYLINE
  8
0
 10
0
 20
0
 39
0
 70
1
 66
1
  0
VERTEX
  8
0
 10
86.600000095367434
 20
154.59999999999999
 42
1
  0
VERTEX
  8
0
 10
104.80000038146973
 20
154.59999999999999
 42
1
  0
SEQEND
  0
POLYLINE
  8
0
 10
0
 20
0
 39
0
 70
1
 66
1
  0
VERTEX
  8
0
 10
79.700000000000003
 20
452.64999999999998
 42
-0
  0
VERTEX
  8
0
 10
79.700000000000003
 20
488.64999999999998
 42
-0
  0
VERTEX
  8
0
 10
81.382177782058719
 20
488.65000095318857
 42
0.34921517968177795
  0
VERTEX
  8
0
 10
110.01782150268555
 20
488.64999999999998
 42
-0
  0
VERTEX
  8
0
 10
111.7
 20
488.64999999999998
 42
-0
  0
VERTEX
  8
0
 10
111.70000000000002
 20
452.64999999999998
 42
-0
  0
VERTEX
  8
0
 10
106.7
 20
447.64999999999998
 42
-0
  0
VERTEX
  8
0
 10
84.700000000000003
 20
447.64999999999998
 42
-0
  0
SEQEND
  0
POLYLINE
  8
0
 10
0
 20
0
 39
0
 70
1
 66
1
  0
VERTEX
  8
0
 10
86.600000095367434
 20
464.64999999999998
 42
1
  0
VERTEX
  8
0
 10
104.80000038146973
 20
464.64999999999998
 42
1
  0
SEQEND
  0
POLYLINE
  8
0
 10
0
 20
0
 39
0
 70
1
 66
1
  0
VERTEX
  8
0
 10
275.44999999999999
 20
547
 42
-0
  0
VERTEX
  8
0
 10
275.44999999999999
 20
583
 42
-0
  0
VERTEX
  8
0
 10
277.1321777820587
 20
583.00000095318865
 42
0.34921517968177795
  0
VERTEX
  8
0
 10
305.76782150268554
 20
583
 42
-0
  0
VERTEX
  8
0
 10
307.44999999999999
 20
583
 42
-0
  0
VERTEX
  8
0
 10
307.44999999999999
 20
547
 42
-0
  0
VERTEX
  8
0
 10
302.44999999999999
 20
542
 42
-0
  0
VERTEX
  8
0
 10
280.44999999999999
 20
542
 42
-0
  0
SEQEND
  0
POLYLINE
  8
0
 10
0
 20
0
 39
0
 70
1
 66
1
  0
VERTEX
  8
0
 10
282.35000009536742
 20
559
 42
1
  0
VERTEX
  8
0
 10
300.55000038146972
 20
559
 42
1
  0
SEQEND
  0
POLYLINE
  8
0
 10
0
 20
0
 39
0
 70
1
 66
1
  0
VERTEX
  8
0
 10
344.89999999999998
 20
142.44999999999999
 42
-0
  0
VERTEX
  8
0
 10
344.89999999999998
 20
178.44999999999999
 42
-0
  0
VERTEX
  8
0
 10
346.58217778205869
 20
178.45000095318858
 42
0.34921517968177795
  0
VERTEX
  8
0
 10
375.21782150268552
 20
178.44999999999999
 42
-0
  0
VERTEX
  8
0
 10
376.89999999999998
 20
178.44999999999999
 42
-0
  0
VERTEX
  8
0
 10
376.89999999999998
 20
142.44999999999999
 42
-0
  0
VERTEX
  8
0
 10
371.89999999999998
 20
137.44999999999999
 42
-0
  0
VERTEX
  8
0
 10
349.89999999999998
 20
137.44999999999999
 42
-0
  0
SEQEND
  0
POLYLINE
  8
0
 10
0
 20
0
 39
0
 70
1
 66
1
  0
VERTEX
  8
0
 10
351.80000009536741
 20
154.44999999999999
 42
1
  0
VERTEX
  8
0
 10
370.0000003814697
 20
154.44999999999999
 42
1
  0
SEQEND
  0
POLYLINE
  8
0
 10
0
 20
0
 39
0
 70
1
 66
1
  0
VERTEX
  8
0
 10
344.89999999999998
 20
452.5
 42
-0
  0
VERTEX
  8
0
 10
344.89999999999998
 20
488.5
 42
-0
  0
VERTEX
  8
0
 10
346.58217778205869
 20
488.50000095318859
 42
0.34921517968177795
  0
VERTEX
  8
0
 10
375.21782150268552
 20
488.5
 42
-0
  0
VERTEX
  8
0
 10
376.89999999999998
 20
488.5
 42
-0
  0
VERTEX
  8
0
 10
376.89999999999998
 20
452.5
 42
-0
  0
VERTEX
  8
0
 10
371.89999999999998
 20
447.5
 42
-0
  0
VERTEX
  8
0
 10
349.89999999999998
 20
447.5
 42
-0
  0
SEQEND
  0
POLYLINE
  8
0
 10
0
 20
0
 39
0
 70
1
 66
1
  0
VERTEX
  8
0
 10
351.80000009536741
 20
464.5
 42
1
  0
VERTEX
  8
0
 10
370.0000003814697
 20
464.5
 42
1
  0
SEQEND
  0
POLYLINE
  8
0
 10
0
 20
0
 39
0
 70
1
 66
1
  0
VERTEX
  8
0
 10
540.64999999999998
 20
547
 42
-0
  0
VERTEX
  8
0
 10
540.64999999999998
 20
583
 42
-0
  0
VERTEX
  8
0
 10
542.33217778205869
 20
583.00000095318865
 42
0.34921517968177795
  0
VERTEX
  8
0
 10
570.96782150268552
 20
583
 42
-0
  0
VERTEX
  8
0
 10
572.64999999999998
 20
583
 42
-0
  0
VERTEX
  8
0
 10
572.64999999999998
 20
547
 42
-0
  0
VERTEX
  8
0
 10
567.64999999999998
 20
542
 42
-0
  0
VERTEX
  8
0
 10
545.64999999999998
 20
542
 42
-0
  0
SEQEND
  0
POLYLINE
  8
0
 10
0
 20
0
 39
0
 70
1
 66
1
  0
VERTEX
  8
0
 10
547.55000009536741
 20
559
 42
1
  0
VERTEX
  8
0
 10
565.7500003814697
 20
559
 42
1
  0
SEQEND
  0
POLYLINE
  8
0
 10
0
 20
0
 39
0
 70
1
 66
1
  0
VERTEX
  8
0
 10
610.10000000000002
 20
142.44999999999999
 42
-0
  0
VERTEX
  8
0
 10
610.10000000000002
 20
178.44999999999999
 42
-0
  0
VERTEX
  8
0
 10
611.78217778205874
 20
178.45000095318858
 42
0.34921517968177795
  0
VERTEX
  8
0
 10
640.41782150268557
 20
178.44999999999999
 42
-0
  0
VERTEX
  8
0
 10
642.10000000000002
 20
178.44999999999999
 42
-0
  0
VERTEX
  8
0
 10
642.10000000000002
 20
142.44999999999999
 42
-0
  0
VERTEX
  8
0
 10
637.10000000000002
 20
137.44999999999999
 42
-0
  0
VERTEX
  8
0
 10
615.10000000000002
 20
137.44999999999999
 42
-0
  0
SEQEND
  0
POLYLINE
  8
0
 10
0
 20
0
 39
0
 70
1
 66
1
  0
VERTEX
  8
0
 10
617.00000009536745
 20
154.44999999999999
 42
1
  0
VERTEX
  8
0
 10
635.20000038146975
 20
154.44999999999999
 42
1
  0
SEQEND
  0
POLYLINE
  8
0
 10
0
 20
0
 39
0
 70
1
 66
1
  0
VERTEX
  8
0
 10
610.10000000000002
 20
452.5
 42
-0
  0
VERTEX
  8
0
 10
610.10000000000002
 20
488.5
 42
-0
  0
VERTEX
  8
0
 10
611.78217778205874
 20
488.50000095318859
 42
0.34921517968177795
  0
VERTEX
  8
0
 10
640.41782150268557
 20
488.5
 42
-0
  0
VERTEX
  8
0
 10
642.10000000000002
 20
488.5
 42
-0
  0
VERTEX
  8
0
 10
642.10000000000002
 20
452.5
 42
-0
  0
VERTEX
  8
0
 10
637.10000000000002
 20
447.5
 42
-0
  0
VERTEX
  8
0
 10
615.10000000000002
 20
447.5
 42
-0
  0
SEQEND
  0
POLYLINE
  8
0
 10
0
 20
0
 39
0
 70
1
 66
1
  0
VERTEX
  8
0
 10
617.00000009536745
 20
464.5
 42
1
  0
VERTEX
  8
0
 10
635.20000038146975
 20
464.5
 42
1
  0
SEQEND
  0
POLYLINE
  8
0
 10
0
 20
0
 39
0
 70
1
 66
1
  0
VERTEX
  8
0
 10
611.29999999999995
 20
617.64999999999998
 42
-0
  0
VERTEX
  8
0
 10
611.29999999999995
 20
653.64999999999998
 42
-0
  0
VERTEX
  8
0
 10
612.98217778205867
 20
653.65000095318862
 42
0.34921517968177795
  0
VERTEX
  8
0
 10
641.6178215026855
 20
653.64999999999998
 42
-0
  0
VERTEX
  8
0
 10
643.29999999999995
 20
653.64999999999998
 42
-0
  0
VERTEX
  8
0
 10
643.29999999999995
 20
617.64999999999998
 42
-0
  0
VERTEX
  8
0
 10
638.29999999999995
 20
612.64999999999998
 42
-0
  0
VERTEX
  8
0
 10
616.29999999999995
 20
612.64999999999998
 42
-0
  0
SEQEND
  0
POLYLINE
  8
0
 10
0
 20
0
 39
0
 70
1
 66
1
  0
VERTEX
  8
0
 10
618.20000009536739
 20
629.64999999999998
 42
1
  0
VERTEX
  8
0
 10
636.40000038146968
 20
629.64999999999998
 42
1
  0
SEQEND
  0
POLYLINE
  8
0
 10
0
 20
0
 39
0
 70
1
 66
1
  0
VERTEX
  8
0
 10
805.84999999999991
 20
547
 42
-0
  0
VERTEX
  8
0
 10
805.84999999999991
 20
583
 42
-0
  0
VERTEX
  8
0
 10
807.53217778205862
 20
583.00000095318865
 42
0.34921517968177795
  0
VERTEX
  8
0
 10
836.16782150268546
 20
583
 42
-0
  0
VERTEX
  8
0
 10
837.84999999999991
 20
583
 42
-0
  0
VERTEX
  8
0
 10
837.84999999999991
 20
547
 42
-0
  0
VERTEX
  8
0
 10
832.84999999999991
 20
542
 42
-0
  0
VERTEX
  8
0
 10
810.84999999999991
 20
542
 42
-0
  0
SEQEND
  0
POLYLINE
  8
0
 10
0
 20
0
 39
0
 70
1
 66
1
  0
VERTEX
  8
0
 10
812.75000009536734
 20
559
 42
1
  0
VERTEX
  8
0
 10
830.95000038146964
 20
559
 42
1
  0
SEQEND
  0
POLYLINE
  8
0
 10
0
 20
0
 39
0
 70
1
 66
1
  0
VERTEX
  8
0
 10
875.29999999999995
 20
142.44999999999999
 42
-0
  0
VERTEX
  8
0
 10
875.29999999999995
 20
178.44999999999999
 42
-0
  0
VERTEX
  8
0
 10
876.98217778205867
 20
178.45000095318858
 42
0.34921517968177795
  0
VERTEX
  8
0
 10
905.6178215026855
 20
178.44999999999999
 42
-0
  0
VERTEX
  8
0
 10
907.29999999999995
 20
178.44999999999999
 42
-0
  0
VERTEX
  8
0
 10
907.29999999999995
 20
142.44999999999999
 42
-0
  0
VERTEX
  8
0
 10
902.29999999999995
 20
137.44999999999999
 42
-0
  0
VERTEX
  8
0
 10
880.29999999999995
 20
137.44999999999999
 42
-0
  0
SEQEND
  0
POLYLINE
  8
0
 10
0
 20
0
 39
0
 70
1
 66
1
  0
VERTEX
  8
0
 10
882.20000009536739
 20
154.44999999999999
 42
1
  0
VERTEX
  8
0
 10
900.40000038146968
 20
154.44999999999999
 42
1
  0
SEQEND
  0
POLYLINE
  8
0
 10
0
 20
0
 39
0
 70
1
 66
1
  0
VERTEX
  8
0
 10
875.29999999999995
 20
452.5
 42
-0
  0
VERTEX
  8
0
 10
875.29999999999995
 20
488.5
 42
-0
  0
VERTEX
  8
0
 10
876.98217778205867
 20
488.50000095318859
 42
0.34921517968177795
  0
VERTEX
  8
0
 10
905.6178215026855
 20
488.5
 42
-0
  0
VERTEX
  8
0
 10
907.29999999999995
 20
488.5
 42
-0
  0
VERTEX
  8
0
 10
907.29999999999995
 20
452.5
 42
-0
  0
VERTEX
  8
0
 10
902.29999999999995
 20
447.5
 42
-0
  0
VERTEX
  8
0
 10
880.29999999999995
 20
447.5
 42
-0
  0
SEQEND
  0
POLYLINE
  8
0
 10
0
 20
0
 39
0
 70
1
 66
1
  0
VERTEX
  8
0
 10
882.20000009536739
 20
464.5
 42
1
  0
VERTEX
  8
0
 10
900.40000038146968
 20
464.5
 42
1
  0
SEQEND
  0
POLYLINE
  8
0
 10
0
 20
0
 39
0
 70
1
 66
1
  0
VERTEX
  8
0
 10
1105
 20
659.64999999999998
 42
-0
  0
VERTEX
  8
0
 10
1141
 20
659.64999999999998
 42
-0
  0
VERTEX
  8
0
 10
1141.0000009531886
 20
657.96782221794126
 42
0.34921517968177795
  0
VERTEX
  8
0
 10
1141
 20
629.33217849731443
 42
-0
  0
VERTEX
  8
0
 10
1141
 20
627.64999999999998
 42
-0
  0
VERTEX
  8
0
 10
1105
 20
627.64999999999998
 42
-0
  0
VERTEX
  8
0
 10
1100
 20
632.64999999999998
 42
-0
  0
VERTEX
  8
0
 10
1100
 20
654.64999999999998
 42
-0
  0
SEQEND
  0
POLYLINE
  8
0
 10
0
 20
0
 39
0
 70
1
 66
1
  0
VERTEX
  8
0
 10
1117
 20
652.74999990463255
 42
1
  0
VERTEX
  8
0
 10
1117
 20
634.54999961853025
 42
1
  0
SEQEND
  0
POLYLINE
  8
0
 10
0
 20
0
 39
0
 70
1
 66
1
  0
VERTEX
  8
0
 10
1140.5
 20
142.59999999999999
 42
-0
  0
VERTEX
  8
0
 10
1140.5
 20
178.59999999999999
 42
-0
  0
VERTEX
  8
0
 10
1142.1821777820587
 20
178.60000095318858
 42
0.34921517968177795
  0
VERTEX
  8
0
 10
1170.8178215026855
 20
178.59999999999999
 42
-0
  0
VERTEX
  8
0
 10
1172.5
 20
178.59999999999999
 42
-0
  0
VERTEX
  8
0
 10
1172.5
 20
142.59999999999999
 42
-0
  0
VERTEX
  8
0
 10
1167.5
 20
137.59999999999999
 42
-0
  0
VERTEX
  8
0
 10
1145.5
 20
137.59999999999999
 42
-0
  0
SEQEND
  0
POLYLINE
  8
0
 10
0
 20
0
 39
0
 70
1
 66
1
  0
VERTEX
  8
0
 10
1147.4000000953674
 20
154.59999999999999
 42
1
  0
VERTEX
  8
0
 10
1165.6000003814697
 20
154.59999999999999
 42
1
  0
SEQEND
  0
POLYLINE
  8
0
 10
0
 20
0
 39
0
 70
1
 66
1
  0
VERTEX
  8
0
 10
1140.5
 20
452.64999999999998
 42
-0
  0
VERTEX
  8
0
 10
1140.5
 20
488.64999999999998
 42
-0
  0
VERTEX
  8
0
 10
1142.1821777820587
 20
488.65000095318857
 42
0.34921517968177795
  0
VERTEX
  8
0
 10
1170.8178215026855
 20
488.64999999999998
 42
-0
  0
VERTEX
  8
0
 10
1172.5
 20
488.64999999999998
 42
-0
  0
VERTEX
  8
0
 10
1172.5
 20
452.64999999999998
 42
-0
  0
VERTEX
  8
0
 10
1167.5
 20
447.64999999999998
 42
-0
  0
VERTEX
  8
0
 10
1145.5
 20
447.64999999999998
 42
-0
  0
SEQEND
  0
POLYLINE
  8
0
 10
0
 20
0
 39
0
 70
1
 66
1
  0
VERTEX
  8
0
 10
1147.4000000953674
 20
464.64999999999998
 42
1
  0
VERTEX
  8
0
 10
1165.6000003814697
 20
464.64999999999998
 42
1
  0
SEQEND
  0
ENDSEC
  0
EOF
