  0
SECTION
  2
ENTITIES
  0
POLYLINE
  8
0
 10
0
 20
0
 39
0
 70
1
 66
1
  0
VERTEX
  8
0
 10
0
 20
0
 42
0
  0
VERTEX
  8
0
 10
2500
 20
0
 42
0
  0
VERTEX
  8
0
 10
2500
 20
1000
 42
0
  0
VERTEX
  8
0
 10
0
 20
1000
 42
0
  0
SEQEND
  0
POLYLINE
  8
0
 10
0
 20
0
 39
0
 70
1
 66
1
  0
VERTEX
  8
0
 10
1550.751953125
 20
870
 42
0
  0
VERTEX
  8
0
 10
1520.751953125
 20
870
 42
0
  0
VERTEX
  8
0
 10
1520.751953125
 20
720
 42
0
  0
VERTEX
  8
0
 10
1600.751953125
 20
720
 42
-0
  0
SEQEND
  0
POLYLINE
  8
0
 10
0
 20
0
 39
0
 70
1
 66
1
  0
VERTEX
  8
0
 10
1611.5040283203125
 20
720
 42
0
  0
VERTEX
  8
0
 10
1641.5040283203125
 20
720
 42
0
  0
VERTEX
  8
0
 10
1641.5040283203125
 20
870
 42
0
  0
VERTEX
  8
0
 10
1561.5040283203125
 20
870
 42
-0
  0
SEQEND
  0
POLYLINE
  8
0
 10
0
 20
0
 39
0
 70
1
 66
1
  0
VERTEX
  8
0
 10
550
 20
310
 42
0
  0
VERTEX
  8
0
 10
635
 20
310
 42
0
  0
VERTEX
  8
0
 10
635
 20
600
 42
0
  0
VERTEX
  8
0
 10
550
 20
600
 42
0
  0
SEQEND
  0
POLYLINE
  8
0
 10
0
 20
0
 39
0
 70
1
 66
1
  0
VERTEX
  8
0
 10
1996.5040283203125
 20
295
 42
0
  0
VERTEX
  8
0
 10
1996.5040283203125
 20
10
 42
0
  0
VERTEX
  8
0
 10
2101.50390625
 20
10
 42
0
  0
VERTEX
  8
0
 10
2101.50390625
 20
295
 42
0
  0
SEQEND
  0
POLYLINE
  8
0
 10
0
 20
0
 39
0
 70
1
 66
1
  0
VERTEX
  8
0
 10
1881.5040283203125
 20
590
 42
0
  0
VERTEX
  8
0
 10
1881.5040283203125
 20
305
 42
0
  0
VERTEX
  8
0
 10
1986.5040283203125
 20
305
 42
0
  0
VERTEX
  8
0
 10
1986.5040283203125
 20
590
 42
0
  0
SEQEND
  0
POLYLINE
  8
0
 10
0
 20
0
 39
0
 70
1
 66
1
  0
VERTEX
  8
0
 10
1881.5040283203125
 20
885
 42
0
  0
VERTEX
  8
0
 10
1881.5040283203125
 20
600
 42
0
  0
VERTEX
  8
0
 10
1986.5040283203125
 20
600
 42
0
  0
VERTEX
  8
0
 10
1986.5040283203125
 20
885
 42
0
  0
SEQEND
  0
POLYLINE
  8
0
 10
0
 20
0
 39
0
 70
1
 66
1
  0
VERTEX
  8
0
 10
1766.5040283203125
 20
295
 42
0
  0
VERTEX
  8
0
 10
1766.5040283203125
 20
10
 42
0
  0
VERTEX
  8
0
 10
1871.5040283203125
 20
10
 42
0
  0
VERTEX
  8
0
 10
1871.5040283203125
 20
295
 42
0
  0
SEQEND
  0
POLYLINE
  8
0
 10
0
 20
0
 39
0
 70
1
 66
1
  0
VERTEX
  8
0
 10
1650
 20
160
 42
0
  0
VERTEX
  8
0
 10
1620
 20
160
 42
0
  0
VERTEX
  8
0
 10
1620
 20
10
 42
0
  0
VERTEX
  8
0
 10
1700
 20
10
 42
-0
  0
SEQEND
  0
POLYLINE
  8
0
 10
0
 20
0
 39
0
 70
1
 66
1
  0
VERTEX
  8
0
 10
1710.751953125
 20
10
 42
0
  0
VERTEX
  8
0
 10
1740.751953125
 20
10
 42
0
  0
VERTEX
  8
0
 10
1740.751953125
 20
160
 42
0
  0
VERTEX
  8
0
 10
1660.751953125
 20
160
 42
-0
  0
SEQEND
  0
POLYLINE
  8
0
 10
0
 20
0
 39
0
 70
1
 66
1
  0
VERTEX
  8
0
 10
835
 20
10
 42
0
  0
VERTEX
  8
0
 10
920
 20
10
 42
0
  0
VERTEX
  8
0
 10
920
 20
300
 42
0
  0
VERTEX
  8
0
 10
835
 20
300
 42
0
  0
SEQEND
  0
POLYLINE
  8
0
 10
0
 20
0
 39
0
 70
1
 66
1
  0
VERTEX
  8
0
 10
835
 20
610
 42
0
  0
VERTEX
  8
0
 10
920
 20
610
 42
0
  0
VERTEX
  8
0
 10
920
 20
900
 42
0
  0
VERTEX
  8
0
 10
835
 20
900
 42
0
  0
SEQEND
  0
POLYLINE
  8
0
 10
0
 20
0
 39
0
 70
1
 66
1
  0
VERTEX
  8
0
 10
740
 20
610
 42
0
  0
VERTEX
  8
0
 10
825
 20
610
 42
0
  0
VERTEX
  8
0
 10
825
 20
900
 42
0
  0
VERTEX
  8
0
 10
740
 20
900
 42
0
  0
SEQEND
  0
POLYLINE
  8
0
 10
0
 20
0
 39
0
 70
1
 66
1
  0
VERTEX
  8
0
 10
2111.50390625
 20
295
 42
0
  0
VERTEX
  8
0
 10
2111.50390625
 20
10
 42
0
  0
VERTEX
  8
0
 10
2216.50390625
 20
10
 42
0
  0
VERTEX
  8
0
 10
2216.50390625
 20
295
 42
0
  0
SEQEND
  0
POLYLINE
  8
0
 10
0
 20
0
 39
0
 70
1
 66
1
  0
VERTEX
  8
0
 10
835
 20
310
 42
0
  0
VERTEX
  8
0
 10
920
 20
310
 42
0
  0
VERTEX
  8
0
 10
920
 20
600
 42
0
  0
VERTEX
  8
0
 10
835
 20
600
 42
0
  0
SEQEND
  0
POLYLINE
  8
0
 10
0
 20
0
 39
0
 70
1
 66
1
  0
VERTEX
  8
0
 10
740
 20
310
 42
0
  0
VERTEX
  8
0
 10
825
 20
310
 42
0
  0
VERTEX
  8
0
 10
825
 20
600
 42
0
  0
VERTEX
  8
0
 10
740
 20
600
 42
0
  0
SEQEND
  0
POLYLINE
  8
0
 10
0
 20
0
 39
0
 70
1
 66
1
  0
VERTEX
  8
0
 10
1651.5040283203125
 20
911
 42
0
  0
VERTEX
  8
0
 10
1651.5040283203125
 20
626
 42
0
  0
VERTEX
  8
0
 10
1756.5040283203125
 20
626
 42
0
  0
VERTEX
  8
0
 10
1756.5040283203125
 20
911
 42
0
  0
SEQEND
  0
POLYLINE
  8
0
 10
0
 20
0
 39
0
 70
1
 66
1
  0
VERTEX
  8
0
 10
1881.5040283203125
 20
295
 42
0
  0
VERTEX
  8
0
 10
1881.5040283203125
 20
10
 42
0
  0
VERTEX
  8
0
 10
1986.5040283203125
 20
10
 42
0
  0
VERTEX
  8
0
 10
1986.5040283203125
 20
295
 42
0
  0
SEQEND
  0
POLYLINE
  8
0
 10
0
 20
0
 39
0
 70
1
 66
1
  0
VERTEX
  8
0
 10
1651.5040283203125
 20
455
 42
0
  0
VERTEX
  8
0
 10
1651.5040283203125
 20
170
 42
0
  0
VERTEX
  8
0
 10
1756.5040283203125
 20
170
 42
0
  0
VERTEX
  8
0
 10
1756.5040283203125
 20
455
 42
0
  0
SEQEND
  0
POLYLINE
  8
0
 10
0
 20
0
 39
0
 70
1
 66
1
  0
VERTEX
  8
0
 10
645
 20
10
 42
0
  0
VERTEX
  8
0
 10
730
 20
10
 42
0
  0
VERTEX
  8
0
 10
730
 20
300
 42
0
  0
VERTEX
  8
0
 10
645
 20
300
 42
0
  0
SEQEND
  0
POLYLINE
  8
0
 10
0
 20
0
 39
0
 70
1
 66
1
  0
VERTEX
  8
0
 10
740
 20
10
 42
0
  0
VERTEX
  8
0
 10
825
 20
10
 42
0
  0
VERTEX
  8
0
 10
825
 20
300
 42
0
  0
VERTEX
  8
0
 10
740
 20
300
 42
0
  0
SEQEND
  0
POLYLINE
  8
0
 10
0
 20
0
 39
0
 70
1
 66
1
  0
VERTEX
  8
0
 10
2141.50390625
 20
455
 42
0
  0
VERTEX
  8
0
 10
2111.50390625
 20
455
 42
0
  0
VERTEX
  8
0
 10
2111.50390625
 20
305
 42
0
  0
VERTEX
  8
0
 10
2191.50390625
 20
305
 42
-0
  0
SEQEND
  0
POLYLINE
  8
0
 10
0
 20
0
 39
0
 70
1
 66
1
  0
VERTEX
  8
0
 10
2202.256103515625
 20
305
 42
0
  0
VERTEX
  8
0
 10
2232.256103515625
 20
305
 42
0
  0
VERTEX
  8
0
 10
2232.256103515625
 20
455
 42
0
  0
VERTEX
  8
0
 10
2152.256103515625
 20
455
 42
-0
  0
SEQEND
  0
POLYLINE
  8
0
 10
0
 20
0
 39
0
 70
1
 66
1
  0
VERTEX
  8
0
 10
550
 20
610
 42
0
  0
VERTEX
  8
0
 10
635
 20
610
 42
0
  0
VERTEX
  8
0
 10
635
 20
900
 42
0
  0
VERTEX
  8
0
 10
550
 20
900
 42
0
  0
SEQEND
  0
POLYLINE
  8
0
 10
0
 20
0
 39
0
 70
1
 66
1
  0
VERTEX
  8
0
 10
645
 20
610
 42
0
  0
VERTEX
  8
0
 10
730
 20
610
 42
0
  0
VERTEX
  8
0
 10
730
 20
900
 42
0
  0
VERTEX
  8
0
 10
645
 20
900
 42
0
  0
SEQEND
  0
POLYLINE
  8
0
 10
0
 20
0
 39
0
 70
1
 66
1
  0
VERTEX
  8
0
 10
645
 20
310
 42
0
  0
VERTEX
  8
0
 10
730
 20
310
 42
0
  0
VERTEX
  8
0
 10
730
 20
600
 42
0
  0
VERTEX
  8
0
 10
645
 20
600
 42
0
  0
SEQEND
  0
POLYLINE
  8
0
 10
0
 20
0
 39
0
 70
1
 66
1
  0
VERTEX
  8
0
 10
550
 20
10
 42
0
  0
VERTEX
  8
0
 10
635
 20
10
 42
0
  0
VERTEX
  8
0
 10
635
 20
300
 42
0
  0
VERTEX
  8
0
 10
550
 20
300
 42
0
  0
SEQEND
  0
POLYLINE
  8
0
 10
0
 20
0
 39
0
 70
1
 66
1
  0
VERTEX
  8
0
 10
1766.5040283203125
 20
885
 42
0
  0
VERTEX
  8
0
 10
1766.5040283203125
 20
600
 42
0
  0
VERTEX
  8
0
 10
1871.5040283203125
 20
600
 42
0
  0
VERTEX
  8
0
 10
1871.5040283203125
 20
885
 42
0
  0
SEQEND
  0
POLYLINE
  8
0
 10
0
 20
0
 39
0
 70
1
 66
1
  0
VERTEX
  8
0
 10
1996.5040283203125
 20
590
 42
0
  0
VERTEX
  8
0
 10
1996.5040283203125
 20
305
 42
0
  0
VERTEX
  8
0
 10
2101.50390625
 20
305
 42
0
  0
VERTEX
  8
0
 10
2101.50390625
 20
590
 42
0
  0
SEQEND
  0
POLYLINE
  8
0
 10
0
 20
0
 39
0
 70
1
 66
1
  0
VERTEX
  8
0
 10
280
 20
630
 42
0
  0
VERTEX
  8
0
 10
540
 20
630
 42
0
  0
VERTEX
  8
0
 10
540
 20
930
 42
0
  0
VERTEX
  8
0
 10
280
 20
930
 42
0
  0
SEQEND
  0
POLYLINE
  8
0
 10
0
 20
0
 39
0
 70
1
 66
1
  0
VERTEX
  8
0
 10
301
 20
780
 42
-1
  0
VERTEX
  8
0
 10
329
 20
780
 42
-1
  0
SEQEND
  0
POLYLINE
  8
0
 10
0
 20
0
 39
0
 70
1
 66
1
  0
VERTEX
  8
0
 10
301
 20
660
 42
-1
  0
VERTEX
  8
0
 10
329
 20
660
 42
-1
  0
SEQEND
  0
POLYLINE
  8
0
 10
0
 20
0
 39
0
 70
1
 66
1
  0
VERTEX
  8
0
 10
301
 20
900
 42
-1
  0
VERTEX
  8
0
 10
329
 20
900
 42
-1
  0
SEQEND
  0
POLYLINE
  8
0
 10
0
 20
0
 39
0
 70
1
 66
1
  0
VERTEX
  8
0
 10
491
 20
780
 42
-1
  0
VERTEX
  8
0
 10
519
 20
780
 42
-1
  0
SEQEND
  0
POLYLINE
  8
0
 10
0
 20
0
 39
0
 70
1
 66
1
  0
VERTEX
  8
0
 10
491
 20
660
 42
-1
  0
VERTEX
  8
0
 10
519
 20
660
 42
-1
  0
SEQEND
  0
POLYLINE
  8
0
 10
0
 20
0
 39
0
 70
1
 66
1
  0
VERTEX
  8
0
 10
491
 20
900
 42
-1
  0
VERTEX
  8
0
 10
519
 20
900
 42
-1
  0
SEQEND
  0
POLYLINE
  8
0
 10
0
 20
0
 39
0
 70
1
 66
1
  0
VERTEX
  8
0
 10
10
 20
320
 42
0
  0
VERTEX
  8
0
 10
270
 20
320
 42
0
  0
VERTEX
  8
0
 10
270
 20
620
 42
0
  0
VERTEX
  8
0
 10
10
 20
620
 42
0
  0
SEQEND
  0
POLYLINE
  8
0
 10
0
 20
0
 39
0
 70
1
 66
1
  0
VERTEX
  8
0
 10
31
 20
470
 42
-1
  0
VERTEX
  8
0
 10
59
 20
470
 42
-1
  0
SEQEND
  0
POLYLINE
  8
0
 10
0
 20
0
 39
0
 70
1
 66
1
  0
VERTEX
  8
0
 10
31
 20
350
 42
-1
  0
VERTEX
  8
0
 10
59
 20
350
 42
-1
  0
SEQEND
  0
POLYLINE
  8
0
 10
0
 20
0
 39
0
 70
1
 66
1
  0
VERTEX
  8
0
 10
31
 20
590
 42
-1
  0
VERTEX
  8
0
 10
59
 20
590
 42
-1
  0
SEQEND
  0
POLYLINE
  8
0
 10
0
 20
0
 39
0
 70
1
 66
1
  0
VERTEX
  8
0
 10
221
 20
470
 42
-1
  0
VERTEX
  8
0
 10
249
 20
470
 42
-1
  0
SEQEND
  0
POLYLINE
  8
0
 10
0
 20
0
 39
0
 70
1
 66
1
  0
VERTEX
  8
0
 10
221
 20
350
 42
-1
  0
VERTEX
  8
0
 10
249
 20
350
 42
-1
  0
SEQEND
  0
POLYLINE
  8
0
 10
0
 20
0
 39
0
 70
1
 66
1
  0
VERTEX
  8
0
 10
221
 20
590
 42
-1
  0
VERTEX
  8
0
 10
249
 20
590
 42
-1
  0
SEQEND
  0
POLYLINE
  8
0
 10
0
 20
0
 39
0
 70
1
 66
1
  0
VERTEX
  8
0
 10
1766.5040283203125
 20
590
 42
0
  0
VERTEX
  8
0
 10
1766.5040283203125
 20
305
 42
0
  0
VERTEX
  8
0
 10
1871.5040283203125
 20
305
 42
0
  0
VERTEX
  8
0
 10
1871.5040283203125
 20
590
 42
0
  0
SEQEND
  0
POLYLINE
  8
0
 10
0
 20
0
 39
0
 70
1
 66
1
  0
VERTEX
  8
0
 10
280
 20
320
 42
0
  0
VERTEX
  8
0
 10
540
 20
320
 42
0
  0
VERTEX
  8
0
 10
540
 20
620
 42
0
  0
VERTEX
  8
0
 10
280
 20
620
 42
0
  0
SEQEND
  0
POLYLINE
  8
0
 10
0
 20
0
 39
0
 70
1
 66
1
  0
VERTEX
  8
0
 10
301
 20
470
 42
-1
  0
VERTEX
  8
0
 10
329
 20
470
 42
-1
  0
SEQEND
  0
POLYLINE
  8
0
 10
0
 20
0
 39
0
 70
1
 66
1
  0
VERTEX
  8
0
 10
301
 20
350
 42
-1
  0
VERTEX
  8
0
 10
329
 20
350
 42
-1
  0
SEQEND
  0
POLYLINE
  8
0
 10
0
 20
0
 39
0
 70
1
 66
1
  0
VERTEX
  8
0
 10
301
 20
590
 42
-1
  0
VERTEX
  8
0
 10
329
 20
590
 42
-1
  0
SEQEND
  0
POLYLINE
  8
0
 10
0
 20
0
 39
0
 70
1
 66
1
  0
VERTEX
  8
0
 10
491
 20
470
 42
-1
  0
VERTEX
  8
0
 10
519
 20
470
 42
-1
  0
SEQEND
  0
POLYLINE
  8
0
 10
0
 20
0
 39
0
 70
1
 66
1
  0
VERTEX
  8
0
 10
491
 20
350
 42
-1
  0
VERTEX
  8
0
 10
519
 20
350
 42
-1
  0
SEQEND
  0
POLYLINE
  8
0
 10
0
 20
0
 39
0
 70
1
 66
1
  0
VERTEX
  8
0
 10
491
 20
590
 42
-1
  0
VERTEX
  8
0
 10
519
 20
590
 42
-1
  0
SEQEND
  0
POLYLINE
  8
0
 10
0
 20
0
 39
0
 70
1
 66
1
  0
VERTEX
  8
0
 10
280
 20
10
 42
0
  0
VERTEX
  8
0
 10
540
 20
10
 42
0
  0
VERTEX
  8
0
 10
540
 20
310
 42
0
  0
VERTEX
  8
0
 10
280
 20
310
 42
0
  0
SEQEND
  0
POLYLINE
  8
0
 10
0
 20
0
 39
0
 70
1
 66
1
  0
VERTEX
  8
0
 10
301
 20
160
 42
-1
  0
VERTEX
  8
0
 10
329
 20
160
 42
-1
  0
SEQEND
  0
POLYLINE
  8
0
 10
0
 20
0
 39
0
 70
1
 66
1
  0
VERTEX
  8
0
 10
301
 20
40
 42
-1
  0
VERTEX
  8
0
 10
329
 20
40
 42
-1
  0
SEQEND
  0
POLYLINE
  8
0
 10
0
 20
0
 39
0
 70
1
 66
1
  0
VERTEX
  8
0
 10
301
 20
280
 42
-1
  0
VERTEX
  8
0
 10
329
 20
280
 42
-1
  0
SEQEND
  0
POLYLINE
  8
0
 10
0
 20
0
 39
0
 70
1
 66
1
  0
VERTEX
  8
0
 10
491
 20
160
 42
-1
  0
VERTEX
  8
0
 10
519
 20
160
 42
-1
  0
SEQEND
  0
POLYLINE
  8
0
 10
0
 20
0
 39
0
 70
1
 66
1
  0
VERTEX
  8
0
 10
491
 20
40
 42
-1
  0
VERTEX
  8
0
 10
519
 20
40
 42
-1
  0
SEQEND
  0
POLYLINE
  8
0
 10
0
 20
0
 39
0
 70
1
 66
1
  0
VERTEX
  8
0
 10
491
 20
280
 42
-1
  0
VERTEX
  8
0
 10
519
 20
280
 42
-1
  0
SEQEND
  0
POLYLINE
  8
0
 10
0
 20
0
 39
0
 70
1
 66
1
  0
VERTEX
  8
0
 10
10
 20
10
 42
0
  0
VERTEX
  8
0
 10
270
 20
10
 42
0
  0
VERTEX
  8
0
 10
270
 20
310
 42
0
  0
VERTEX
  8
0
 10
10
 20
310
 42
0
  0
SEQEND
  0
POLYLINE
  8
0
 10
0
 20
0
 39
0
 70
1
 66
1
  0
VERTEX
  8
0
 10
31
 20
160
 42
-1
  0
VERTEX
  8
0
 10
59
 20
160
 42
-1
  0
SEQEND
  0
POLYLINE
  8
0
 10
0
 20
0
 39
0
 70
1
 66
1
  0
VERTEX
  8
0
 10
31
 20
40
 42
-1
  0
VERTEX
  8
0
 10
59
 20
40
 42
-1
  0
SEQEND
  0
POLYLINE
  8
0
 10
0
 20
0
 39
0
 70
1
 66
1
  0
VERTEX
  8
0
 10
31
 20
280
 42
-1
  0
VERTEX
  8
0
 10
59
 20
280
 42
-1
  0
SEQEND
  0
POLYLINE
  8
0
 10
0
 20
0
 39
0
 70
1
 66
1
  0
VERTEX
  8
0
 10
221
 20
160
 42
-1
  0
VERTEX
  8
0
 10
249
 20
160
 42
-1
  0
SEQEND
  0
POLYLINE
  8
0
 10
0
 20
0
 39
0
 70
1
 66
1
  0
VERTEX
  8
0
 10
221
 20
40
 42
-1
  0
VERTEX
  8
0
 10
249
 20
40
 42
-1
  0
SEQEND
  0
POLYLINE
  8
0
 10
0
 20
0
 39
0
 70
1
 66
1
  0
VERTEX
  8
0
 10
221
 20
280
 42
-1
  0
VERTEX
  8
0
 10
249
 20
280
 42
-1
  0
SEQEND
  0
POLYLINE
  8
0
 10
0
 20
0
 39
0
 70
1
 66
1
  0
VERTEX
  8
0
 10
10
 20
630
 42
0
  0
VERTEX
  8
0
 10
270
 20
630
 42
0
  0
VERTEX
  8
0
 10
270
 20
930
 42
0
  0
VERTEX
  8
0
 10
10
 20
930
 42
0
  0
SEQEND
  0
POLYLINE
  8
0
 10
0
 20
0
 39
0
 70
1
 66
1
  0
VERTEX
  8
0
 10
31
 20
780
 42
-1
  0
VERTEX
  8
0
 10
59
 20
780
 42
-1
  0
SEQEND
  0
POLYLINE
  8
0
 10
0
 20
0
 39
0
 70
1
 66
1
  0
VERTEX
  8
0
 10
31
 20
660
 42
-1
  0
VERTEX
  8
0
 10
59
 20
660
 42
-1
  0
SEQEND
  0
POLYLINE
  8
0
 10
0
 20
0
 39
0
 70
1
 66
1
  0
VERTEX
  8
0
 10
31
 20
900
 42
-1
  0
VERTEX
  8
0
 10
59
 20
900
 42
-1
  0
SEQEND
  0
POLYLINE
  8
0
 10
0
 20
0
 39
0
 70
1
 66
1
  0
VERTEX
  8
0
 10
221
 20
780
 42
-1
  0
VERTEX
  8
0
 10
249
 20
780
 42
-1
  0
SEQEND
  0
POLYLINE
  8
0
 10
0
 20
0
 39
0
 70
1
 66
1
  0
VERTEX
  8
0
 10
221
 20
660
 42
-1
  0
VERTEX
  8
0
 10
249
 20
660
 42
-1
  0
SEQEND
  0
POLYLINE
  8
0
 10
0
 20
0
 39
0
 70
1
 66
1
  0
VERTEX
  8
0
 10
221
 20
900
 42
-1
  0
VERTEX
  8
0
 10
249
 20
900
 42
-1
  0
SEQEND
  0
POLYLINE
  8
0
 10
0
 20
0
 39
0
 70
1
 66
1
  0
VERTEX
  8
0
 10
1390
 20
880
 42
0
  0
VERTEX
  8
0
 10
1575
 20
880
 42
0
  0
VERTEX
  8
0
 10
1575
 20
943
 42
0
  0
VERTEX
  8
0
 10
1565
 20
953
 42
0
  0
VERTEX
  8
0
 10
1400
 20
953
 42
0
  0
VERTEX
  8
0
 10
1390
 20
943
 42
0
  0
SEQEND
  0
POLYLINE
  8
0
 10
0
 20
0
 39
0
 70
1
 66
1
  0
VERTEX
  8
0
 10
1039.52001953125
 20
229.99894714355469
 42
1
  0
VERTEX
  8
0
 10
1040.47998046875
 20
10.001047134399414
 42
1
  0
SEQEND
  0
POLYLINE
  8
0
 10
0
 20
0
 39
0
 70
1
 66
1
  0
VERTEX
  8
0
 10
1127.7318115234375
 20
150.85665893554687
 42
-0.16848739981651306
  0
VERTEX
  8
0
 10
1127.9976806640625
 20
89.910102844238281
 42
0
  0
VERTEX
  8
0
 10
952.2681884765625
 20
89.143333435058594
 42
-0.16848739981651306
  0
VERTEX
  8
0
 10
952.00225830078125
 20
150.08988952636719
 42
-0
  0
VERTEX
  8
0
 10
1011.1202392578125
 20
150.34783935546875
 42
0
  0
VERTEX
  8
0
 10
1011.0437622070312
 20
167.87088012695312
 42
-0
  0
VERTEX
  8
0
 10
1068.537353515625
 20
168.12173461914062
 42
-0
  0
VERTEX
  8
0
 10
1068.6138916015625
 20
150.59870910644531
 42
-0
  0
SEQEND
  0
POLYLINE
  8
0
 10
0
 20
0
 39
0
 70
1
 66
1
  0
VERTEX
  8
0
 10
1269.52001953125
 20
919.99896240234375
 42
1
  0
VERTEX
  8
0
 10
1270.47998046875
 20
700.00103759765625
 42
1
  0
SEQEND
  0
POLYLINE
  8
0
 10
0
 20
0
 39
0
 70
1
 66
1
  0
VERTEX
  8
0
 10
1357.7318115234375
 20
840.85662841796875
 42
-0.16848739981651306
  0
VERTEX
  8
0
 10
1357.9976806640625
 20
779.91009521484375
 42
0
  0
VERTEX
  8
0
 10
1182.2681884765625
 20
779.143310546875
 42
-0.16848739981651306
  0
VERTEX
  8
0
 10
1182.0023193359375
 20
840.08990478515625
 42
-0
  0
VERTEX
  8
0
 10
1241.1202392578125
 20
840.34783935546875
 42
0
  0
VERTEX
  8
0
 10
1241.043701171875
 20
857.870849609375
 42
-0
  0
VERTEX
  8
0
 10
1298.537353515625
 20
858.1217041015625
 42
-0
  0
VERTEX
  8
0
 10
1298.6138916015625
 20
840.59869384765625
 42
-0
  0
SEQEND
  0
POLYLINE
  8
0
 10
0
 20
0
 39
0
 70
1
 66
1
  0
VERTEX
  8
0
 10
2079.50390625
 20
980
 42
0
  0
VERTEX
  8
0
 10
2079.50390625
 20
795
 42
0
  0
VERTEX
  8
0
 10
2142.50390625
 20
795
 42
0
  0
VERTEX
  8
0
 10
2152.50390625
 20
805
 42
0
  0
VERTEX
  8
0
 10
2152.50390625
 20
970
 42
0
  0
VERTEX
  8
0
 10
2142.50390625
 20
980
 42
0
  0
SEQEND
  0
POLYLINE
  8
0
 10
0
 20
0
 39
0
 70
1
 66
1
  0
VERTEX
  8
0
 10
2322.50390625
 20
975
 42
0
  0
VERTEX
  8
0
 10
2322.50390625
 20
790
 42
0
  0
VERTEX
  8
0
 10
2385.50390625
 20
790
 42
0
  0
VERTEX
  8
0
 10
2395.50390625
 20
800
 42
0
  0
VERTEX
  8
0
 10
2395.50390625
 20
965
 42
0
  0
VERTEX
  8
0
 10
2385.50390625
 20
975
 42
0
  0
SEQEND
  0
POLYLINE
  8
0
 10
0
 20
0
 39
0
 70
1
 66
1
  0
VERTEX
  8
0
 10
1039.52001953125
 20
919.99896240234375
 42
1
  0
VERTEX
  8
0
 10
1040.47998046875
 20
700.00103759765625
 42
1
  0
SEQEND
  0
POLYLINE
  8
0
 10
0
 20
0
 39
0
 70
1
 66
1
  0
VERTEX
  8
0
 10
1127.7318115234375
 20
840.85662841796875
 42
-0.16848739981651306
  0
VERTEX
  8
0
 10
1127.9976806640625
 20
779.91009521484375
 42
0
  0
VERTEX
  8
0
 10
952.2681884765625
 20
779.143310546875
 42
-0.16848739981651306
  0
VERTEX
  8
0
 10
952.00225830078125
 20
840.08990478515625
 42
-0
  0
VERTEX
  8
0
 10
1011.1202392578125
 20
840.34783935546875
 42
0
  0
VERTEX
  8
0
 10
1011.0437622070312
 20
857.870849609375
 42
-0
  0
VERTEX
  8
0
 10
1068.537353515625
 20
858.1217041015625
 42
-0
  0
VERTEX
  8
0
 10
1068.6138916015625
 20
840.59869384765625
 42
-0
  0
SEQEND
  0
POLYLINE
  8
0
 10
0
 20
0
 39
0
 70
1
 66
1
  0
VERTEX
  8
0
 10
1766.5040283203125
 20
895
 42
0
  0
VERTEX
  8
0
 10
1951.5040283203125
 20
895
 42
0
  0
VERTEX
  8
0
 10
1951.5040283203125
 20
958
 42
0
  0
VERTEX
  8
0
 10
1941.5040283203125
 20
968
 42
0
  0
VERTEX
  8
0
 10
1776.5040283203125
 20
968
 42
0
  0
VERTEX
  8
0
 10
1766.5040283203125
 20
958
 42
0
  0
SEQEND
  0
POLYLINE
  8
0
 10
0
 20
0
 39
0
 70
1
 66
1
  0
VERTEX
  8
0
 10
2226.50390625
 20
195
 42
0
  0
VERTEX
  8
0
 10
2226.50390625
 20
10
 42
0
  0
VERTEX
  8
0
 10
2289.50390625
 20
10
 42
0
  0
VERTEX
  8
0
 10
2299.50390625
 20
20
 42
0
  0
VERTEX
  8
0
 10
2299.50390625
 20
185
 42
0
  0
VERTEX
  8
0
 10
2289.50390625
 20
195
 42
0
  0
SEQEND
  0
POLYLINE
  8
0
 10
0
 20
0
 39
0
 70
1
 66
1
  0
VERTEX
  8
0
 10
2245.50390625
 20
585
 42
0
  0
VERTEX
  8
0
 10
2245.50390625
 20
400
 42
0
  0
VERTEX
  8
0
 10
2308.50390625
 20
400
 42
0
  0
VERTEX
  8
0
 10
2318.50390625
 20
410
 42
0
  0
VERTEX
  8
0
 10
2318.50390625
 20
575
 42
0
  0
VERTEX
  8
0
 10
2308.50390625
 20
585
 42
0
  0
SEQEND
  0
POLYLINE
  8
0
 10
0
 20
0
 39
0
 70
1
 66
1
  0
VERTEX
  8
0
 10
2079.50390625
 20
785
 42
0
  0
VERTEX
  8
0
 10
2079.50390625
 20
600
 42
0
  0
VERTEX
  8
0
 10
2142.50390625
 20
600
 42
0
  0
VERTEX
  8
0
 10
2152.50390625
 20
610
 42
0
  0
VERTEX
  8
0
 10
2152.50390625
 20
775
 42
0
  0
VERTEX
  8
0
 10
2142.50390625
 20
785
 42
0
  0
SEQEND
  0
POLYLINE
  8
0
 10
0
 20
0
 39
0
 70
1
 66
1
  0
VERTEX
  8
0
 10
2328.50390625
 20
780
 42
0
  0
VERTEX
  8
0
 10
2328.50390625
 20
595
 42
0
  0
VERTEX
  8
0
 10
2391.50390625
 20
595
 42
0
  0
VERTEX
  8
0
 10
2401.50390625
 20
605
 42
0
  0
VERTEX
  8
0
 10
2401.50390625
 20
770
 42
0
  0
VERTEX
  8
0
 10
2391.50390625
 20
780
 42
0
  0
SEQEND
  0
POLYLINE
  8
0
 10
0
 20
0
 39
0
 70
1
 66
1
  0
VERTEX
  8
0
 10
1499.52001953125
 20
229.99894714355469
 42
1
  0
VERTEX
  8
0
 10
1500.47998046875
 20
10.001047134399414
 42
1
  0
SEQEND
  0
POLYLINE
  8
0
 10
0
 20
0
 39
0
 70
1
 66
1
  0
VERTEX
  8
0
 10
1587.7318115234375
 20
150.85665893554687
 42
-0.16848739981651306
  0
VERTEX
  8
0
 10
1587.9976806640625
 20
89.910102844238281
 42
0
  0
VERTEX
  8
0
 10
1412.2681884765625
 20
89.143333435058594
 42
-0.16848739981651306
  0
VERTEX
  8
0
 10
1412.0023193359375
 20
150.08988952636719
 42
-0
  0
VERTEX
  8
0
 10
1471.1202392578125
 20
150.34783935546875
 42
0
  0
VERTEX
  8
0
 10
1471.043701171875
 20
167.87088012695312
 42
-0
  0
VERTEX
  8
0
 10
1528.537353515625
 20
168.12173461914062
 42
-0
  0
VERTEX
  8
0
 10
1528.6138916015625
 20
150.59870910644531
 42
-0
  0
SEQEND
  0
POLYLINE
  8
0
 10
0
 20
0
 39
0
 70
1
 66
1
  0
VERTEX
  8
0
 10
2162.50390625
 20
845
 42
0
  0
VERTEX
  8
0
 10
2162.50390625
 20
660
 42
0
  0
VERTEX
  8
0
 10
2225.50390625
 20
660
 42
0
  0
VERTEX
  8
0
 10
2235.50390625
 20
670
 42
0
  0
VERTEX
  8
0
 10
2235.50390625
 20
835
 42
0
  0
VERTEX
  8
0
 10
2225.50390625
 20
845
 42
0
  0
SEQEND
  0
POLYLINE
  8
0
 10
0
 20
0
 39
0
 70
1
 66
1
  0
VERTEX
  8
0
 10
1269.52001953125
 20
689.99896240234375
 42
1
  0
VERTEX
  8
0
 10
1270.47998046875
 20
470.00103759765625
 42
1
  0
SEQEND
  0
POLYLINE
  8
0
 10
0
 20
0
 39
0
 70
1
 66
1
  0
VERTEX
  8
0
 10
1357.7318115234375
 20
610.85662841796875
 42
-0.16848739981651306
  0
VERTEX
  8
0
 10
1357.9976806640625
 20
549.91009521484375
 42
0
  0
VERTEX
  8
0
 10
1182.2681884765625
 20
549.143310546875
 42
-0.16848739981651306
  0
VERTEX
  8
0
 10
1182.0023193359375
 20
610.08990478515625
 42
-0
  0
VERTEX
  8
0
 10
1241.1202392578125
 20
610.34783935546875
 42
0
  0
VERTEX
  8
0
 10
1241.043701171875
 20
627.870849609375
 42
-0
  0
VERTEX
  8
0
 10
1298.537353515625
 20
628.1217041015625
 42
-0
  0
VERTEX
  8
0
 10
1298.6138916015625
 20
610.59869384765625
 42
-0
  0
SEQEND
  0
POLYLINE
  8
0
 10
0
 20
0
 39
0
 70
1
 66
1
  0
VERTEX
  8
0
 10
1269.52001953125
 20
459.99893188476562
 42
1
  0
VERTEX
  8
0
 10
1270.47998046875
 20
240.00103759765625
 42
1
  0
SEQEND
  0
POLYLINE
  8
0
 10
0
 20
0
 39
0
 70
1
 66
1
  0
VERTEX
  8
0
 10
1357.7318115234375
 20
380.85665893554687
 42
-0.16848739981651306
  0
VERTEX
  8
0
 10
1357.9976806640625
 20
319.91009521484375
 42
0
  0
VERTEX
  8
0
 10
1182.2681884765625
 20
319.14334106445312
 42
-0.16848739981651306
  0
VERTEX
  8
0
 10
1182.0023193359375
 20
380.08990478515625
 42
-0
  0
VERTEX
  8
0
 10
1241.1202392578125
 20
380.34783935546875
 42
0
  0
VERTEX
  8
0
 10
1241.043701171875
 20
397.87088012695312
 42
-0
  0
VERTEX
  8
0
 10
1298.537353515625
 20
398.12173461914062
 42
-0
  0
VERTEX
  8
0
 10
1298.6138916015625
 20
380.59869384765625
 42
-0
  0
SEQEND
  0
POLYLINE
  8
0
 10
0
 20
0
 39
0
 70
1
 66
1
  0
VERTEX
  8
0
 10
2325.256103515625
 20
390
 42
0
  0
VERTEX
  8
0
 10
2325.256103515625
 20
205
 42
0
  0
VERTEX
  8
0
 10
2388.256103515625
 20
205
 42
0
  0
VERTEX
  8
0
 10
2398.256103515625
 20
215
 42
0
  0
VERTEX
  8
0
 10
2398.256103515625
 20
380
 42
0
  0
VERTEX
  8
0
 10
2388.256103515625
 20
390
 42
0
  0
SEQEND
  0
POLYLINE
  8
0
 10
0
 20
0
 39
0
 70
1
 66
1
  0
VERTEX
  8
0
 10
1269.52001953125
 20
229.99894714355469
 42
1
  0
VERTEX
  8
0
 10
1270.47998046875
 20
10.001047134399414
 42
1
  0
SEQEND
  0
POLYLINE
  8
0
 10
0
 20
0
 39
0
 70
1
 66
1
  0
VERTEX
  8
0
 10
1357.7318115234375
 20
150.85665893554687
 42
-0.16848739981651306
  0
VERTEX
  8
0
 10
1357.9976806640625
 20
89.910102844238281
 42
0
  0
VERTEX
  8
0
 10
1182.2681884765625
 20
89.143333435058594
 42
-0.16848739981651306
  0
VERTEX
  8
0
 10
1182.0023193359375
 20
150.08988952636719
 42
-0
  0
VERTEX
  8
0
 10
1241.1202392578125
 20
150.34783935546875
 42
0
  0
VERTEX
  8
0
 10
1241.043701171875
 20
167.87088012695312
 42
-0
  0
VERTEX
  8
0
 10
1298.537353515625
 20
168.12173461914062
 42
-0
  0
VERTEX
  8
0
 10
1298.6138916015625
 20
150.59870910644531
 42
-0
  0
SEQEND
  0
POLYLINE
  8
0
 10
0
 20
0
 39
0
 70
1
 66
1
  0
VERTEX
  8
0
 10
1039.52001953125
 20
689.99896240234375
 42
1
  0
VERTEX
  8
0
 10
1040.47998046875
 20
470.00103759765625
 42
1
  0
SEQEND
  0
POLYLINE
  8
0
 10
0
 20
0
 39
0
 70
1
 66
1
  0
VERTEX
  8
0
 10
1127.7318115234375
 20
610.85662841796875
 42
-0.16848739981651306
  0
VERTEX
  8
0
 10
1127.9976806640625
 20
549.91009521484375
 42
0
  0
VERTEX
  8
0
 10
952.2681884765625
 20
549.143310546875
 42
-0.16848739981651306
  0
VERTEX
  8
0
 10
952.00225830078125
 20
610.08990478515625
 42
-0
  0
VERTEX
  8
0
 10
1011.1202392578125
 20
610.34783935546875
 42
0
  0
VERTEX
  8
0
 10
1011.0437622070312
 20
627.870849609375
 42
-0
  0
VERTEX
  8
0
 10
1068.537353515625
 20
628.1217041015625
 42
-0
  0
VERTEX
  8
0
 10
1068.6138916015625
 20
610.59869384765625
 42
-0
  0
SEQEND
  0
POLYLINE
  8
0
 10
0
 20
0
 39
0
 70
1
 66
1
  0
VERTEX
  8
0
 10
2309.50390625
 20
195
 42
0
  0
VERTEX
  8
0
 10
2309.50390625
 20
10
 42
0
  0
VERTEX
  8
0
 10
2372.50390625
 20
10
 42
0
  0
VERTEX
  8
0
 10
2382.50390625
 20
20
 42
0
  0
VERTEX
  8
0
 10
2382.50390625
 20
185
 42
0
  0
VERTEX
  8
0
 10
2372.50390625
 20
195
 42
0
  0
SEQEND
  0
POLYLINE
  8
0
 10
0
 20
0
 39
0
 70
1
 66
1
  0
VERTEX
  8
0
 10
1996.5040283203125
 20
785
 42
0
  0
VERTEX
  8
0
 10
1996.5040283203125
 20
600
 42
0
  0
VERTEX
  8
0
 10
2059.50390625
 20
600
 42
0
  0
VERTEX
  8
0
 10
2069.50390625
 20
610
 42
0
  0
VERTEX
  8
0
 10
2069.50390625
 20
775
 42
0
  0
VERTEX
  8
0
 10
2059.50390625
 20
785
 42
0
  0
SEQEND
  0
POLYLINE
  8
0
 10
0
 20
0
 39
0
 70
1
 66
1
  0
VERTEX
  8
0
 10
2245.50390625
 20
780
 42
0
  0
VERTEX
  8
0
 10
2245.50390625
 20
595
 42
0
  0
VERTEX
  8
0
 10
2308.50390625
 20
595
 42
0
  0
VERTEX
  8
0
 10
2318.50390625
 20
605
 42
0
  0
VERTEX
  8
0
 10
2318.50390625
 20
770
 42
0
  0
VERTEX
  8
0
 10
2308.50390625
 20
780
 42
0
  0
SEQEND
  0
POLYLINE
  8
0
 10
0
 20
0
 39
0
 70
1
 66
1
  0
VERTEX
  8
0
 10
2392.50390625
 20
195
 42
0
  0
VERTEX
  8
0
 10
2392.50390625
 20
10
 42
0
  0
VERTEX
  8
0
 10
2455.50390625
 20
10
 42
0
  0
VERTEX
  8
0
 10
2465.50390625
 20
20
 42
0
  0
VERTEX
  8
0
 10
2465.50390625
 20
185
 42
0
  0
VERTEX
  8
0
 10
2455.50390625
 20
195
 42
0
  0
SEQEND
  0
POLYLINE
  8
0
 10
0
 20
0
 39
0
 70
1
 66
1
  0
VERTEX
  8
0
 10
2328.50390625
 20
585
 42
0
  0
VERTEX
  8
0
 10
2328.50390625
 20
400
 42
0
  0
VERTEX
  8
0
 10
2391.50390625
 20
400
 42
0
  0
VERTEX
  8
0
 10
2401.50390625
 20
410
 42
0
  0
VERTEX
  8
0
 10
2401.50390625
 20
575
 42
0
  0
VERTEX
  8
0
 10
2391.50390625
 20
585
 42
0
  0
SEQEND
  0
POLYLINE
  8
0
 10
0
 20
0
 39
0
 70
1
 66
1
  0
VERTEX
  8
0
 10
2242.256103515625
 20
390
 42
0
  0
VERTEX
  8
0
 10
2242.256103515625
 20
205
 42
0
  0
VERTEX
  8
0
 10
2305.256103515625
 20
205
 42
0
  0
VERTEX
  8
0
 10
2315.256103515625
 20
215
 42
0
  0
VERTEX
  8
0
 10
2315.256103515625
 20
380
 42
0
  0
VERTEX
  8
0
 10
2305.256103515625
 20
390
 42
0
  0
SEQEND
  0
POLYLINE
  8
0
 10
0
 20
0
 39
0
 70
1
 66
1
  0
VERTEX
  8
0
 10
1996.5040283203125
 20
980
 42
0
  0
VERTEX
  8
0
 10
1996.5040283203125
 20
795
 42
0
  0
VERTEX
  8
0
 10
2059.50390625
 20
795
 42
0
  0
VERTEX
  8
0
 10
2069.50390625
 20
805
 42
0
  0
VERTEX
  8
0
 10
2069.50390625
 20
970
 42
0
  0
VERTEX
  8
0
 10
2059.50390625
 20
980
 42
0
  0
SEQEND
  0
POLYLINE
  8
0
 10
0
 20
0
 39
0
 70
1
 66
1
  0
VERTEX
  8
0
 10
711
 20
910
 42
0
  0
VERTEX
  8
0
 10
896
 20
910
 42
0
  0
VERTEX
  8
0
 10
896
 20
973
 42
0
  0
VERTEX
  8
0
 10
886
 20
983
 42
0
  0
VERTEX
  8
0
 10
721
 20
983
 42
0
  0
VERTEX
  8
0
 10
711
 20
973
 42
0
  0
SEQEND
  0
POLYLINE
  8
0
 10
0
 20
0
 39
0
 70
1
 66
1
  0
VERTEX
  8
0
 10
1039.52001953125
 20
459.99893188476562
 42
1
  0
VERTEX
  8
0
 10
1040.47998046875
 20
240.00103759765625
 42
1
  0
SEQEND
  0
POLYLINE
  8
0
 10
0
 20
0
 39
0
 70
1
 66
1
  0
VERTEX
  8
0
 10
1127.7318115234375
 20
380.85665893554687
 42
-0.16848739981651306
  0
VERTEX
  8
0
 10
1127.9976806640625
 20
319.91009521484375
 42
0
  0
VERTEX
  8
0
 10
952.2681884765625
 20
319.14334106445312
 42
-0.16848739981651306
  0
VERTEX
  8
0
 10
952.00225830078125
 20
380.08990478515625
 42
-0
  0
VERTEX
  8
0
 10
1011.1202392578125
 20
380.34783935546875
 42
0
  0
VERTEX
  8
0
 10
1011.0437622070312
 20
397.87088012695312
 42
-0
  0
VERTEX
  8
0
 10
1068.537353515625
 20
398.12173461914062
 42
-0
  0
VERTEX
  8
0
 10
1068.6138916015625
 20
380.59869384765625
 42
-0
  0
SEQEND
  0
POLYLINE
  8
0
 10
0
 20
0
 39
0
 70
1
 66
1
  0
VERTEX
  8
0
 10
1228
 20
980
 42
0
  0
VERTEX
  8
0
 10
1228
 20
930
 42
0
  0
VERTEX
  8
0
 10
1379
 20
930
 42
0
  0
VERTEX
  8
0
 10
1379
 20
990
 42
-0
  0
SEQEND
  0
POLYLINE
  8
0
 10
0
 20
0
 39
0
 70
1
 66
1
  0
VERTEX
  8
0
 10
906
 20
980
 42
0
  0
VERTEX
  8
0
 10
906
 20
930
 42
0
  0
VERTEX
  8
0
 10
1057
 20
930
 42
0
  0
VERTEX
  8
0
 10
1057
 20
990
 42
-0
  0
SEQEND
  0
POLYLINE
  8
0
 10
0
 20
0
 39
0
 70
1
 66
1
  0
VERTEX
  8
0
 10
1701.5040283203125
 20
616
 42
0
  0
VERTEX
  8
0
 10
1651.5040283203125
 20
616
 42
0
  0
VERTEX
  8
0
 10
1651.5040283203125
 20
465
 42
0
  0
VERTEX
  8
0
 10
1711.5040283203125
 20
465
 42
-0
  0
SEQEND
  0
POLYLINE
  8
0
 10
0
 20
0
 39
0
 70
1
 66
1
  0
VERTEX
  8
0
 10
1067
 20
980
 42
0
  0
VERTEX
  8
0
 10
1067
 20
930
 42
0
  0
VERTEX
  8
0
 10
1218
 20
930
 42
0
  0
VERTEX
  8
0
 10
1218
 20
990
 42
-0
  0
SEQEND
  0
POLYLINE
  8
0
 10
0
 20
0
 39
0
 70
1
 66
1
  0
VERTEX
  8
0
 10
550
 20
960
 42
0
  0
VERTEX
  8
0
 10
550
 20
910
 42
0
  0
VERTEX
  8
0
 10
701
 20
910
 42
0
  0
VERTEX
  8
0
 10
701
 20
970
 42
-0
  0
SEQEND
  0
POLYLINE
  8
0
 10
0
 20
0
 39
0
 70
1
 66
1
  0
VERTEX
  8
0
 10
2458.256103515625
 20
356
 42
0
  0
VERTEX
  8
0
 10
2408.256103515625
 20
356
 42
0
  0
VERTEX
  8
0
 10
2408.256103515625
 20
205
 42
0
  0
VERTEX
  8
0
 10
2468.256103515625
 20
205
 42
-0
  0
SEQEND
  0
POLYLINE
  8
0
 10
0
 20
0
 39
0
 70
1
 66
1
  0
VERTEX
  8
0
 10
2411.50390625
 20
746
 42
0
  0
VERTEX
  8
0
 10
2411.50390625
 20
561
 42
0
  0
VERTEX
  8
0
 10
2474.50390625
 20
561
 42
0
  0
VERTEX
  8
0
 10
2484.50390625
 20
571
 42
0
  0
VERTEX
  8
0
 10
2484.50390625
 20
736
 42
0
  0
VERTEX
  8
0
 10
2474.50390625
 20
746
 42
0
  0
SEQEND
  0
POLYLINE
  8
0
 10
0
 20
0
 39
0
 70
1
 66
1
  0
VERTEX
  8
0
 10
1550.751953125
 20
550
 42
0
  0
VERTEX
  8
0
 10
1520.751953125
 20
550
 42
0
  0
VERTEX
  8
0
 10
1520.751953125
 20
400
 42
0
  0
VERTEX
  8
0
 10
1600.751953125
 20
400
 42
-0
  0
SEQEND
  0
POLYLINE
  8
0
 10
0
 20
0
 39
0
 70
1
 66
1
  0
VERTEX
  8
0
 10
1611.5040283203125
 20
400
 42
0
  0
VERTEX
  8
0
 10
1641.5040283203125
 20
400
 42
0
  0
VERTEX
  8
0
 10
1641.5040283203125
 20
550
 42
0
  0
VERTEX
  8
0
 10
1561.5040283203125
 20
550
 42
-0
  0
SEQEND
  0
POLYLINE
  8
0
 10
0
 20
0
 39
0
 70
1
 66
1
  0
VERTEX
  8
0
 10
1550.751953125
 20
390
 42
0
  0
VERTEX
  8
0
 10
1520.751953125
 20
390
 42
0
  0
VERTEX
  8
0
 10
1520.751953125
 20
240
 42
0
  0
VERTEX
  8
0
 10
1600.751953125
 20
240
 42
-0
  0
SEQEND
  0
POLYLINE
  8
0
 10
0
 20
0
 39
0
 70
1
 66
1
  0
VERTEX
  8
0
 10
1611.5040283203125
 20
240
 42
0
  0
VERTEX
  8
0
 10
1641.5040283203125
 20
240
 42
0
  0
VERTEX
  8
0
 10
1641.5040283203125
 20
390
 42
0
  0
VERTEX
  8
0
 10
1561.5040283203125
 20
390
 42
-0
  0
SEQEND
  0
POLYLINE
  8
0
 10
0
 20
0
 39
0
 70
1
 66
1
  0
VERTEX
  8
0
 10
1550.751953125
 20
710
 42
0
  0
VERTEX
  8
0
 10
1520.751953125
 20
710
 42
0
  0
VERTEX
  8
0
 10
1520.751953125
 20
560
 42
0
  0
VERTEX
  8
0
 10
1600.751953125
 20
560
 42
-0
  0
SEQEND
  0
POLYLINE
  8
0
 10
0
 20
0
 39
0
 70
1
 66
1
  0
VERTEX
  8
0
 10
1611.5040283203125
 20
560
 42
0
  0
VERTEX
  8
0
 10
1641.5040283203125
 20
560
 42
0
  0
VERTEX
  8
0
 10
1641.5040283203125
 20
710
 42
0
  0
VERTEX
  8
0
 10
1561.5040283203125
 20
710
 42
-0
  0
SEQEND
  0
POLYLINE
  8
0
 10
0
 20
0
 39
0
 70
1
 66
1
  0
VERTEX
  8
0
 10
1420
 20
390
 42
0
  0
VERTEX
  8
0
 10
1390
 20
390
 42
0
  0
VERTEX
  8
0
 10
1390
 20
240
 42
0
  0
VERTEX
  8
0
 10
1470
 20
240
 42
-0
  0
SEQEND
  0
POLYLINE
  8
0
 10
0
 20
0
 39
0
 70
1
 66
1
  0
VERTEX
  8
0
 10
1480.751953125
 20
240
 42
0
  0
VERTEX
  8
0
 10
1510.751953125
 20
240
 42
0
  0
VERTEX
  8
0
 10
1510.751953125
 20
390
 42
0
  0
VERTEX
  8
0
 10
1430.751953125
 20
390
 42
-0
  0
SEQEND
  0
POLYLINE
  8
0
 10
0
 20
0
 39
0
 70
1
 66
1
  0
VERTEX
  8
0
 10
1420
 20
710
 42
0
  0
VERTEX
  8
0
 10
1390
 20
710
 42
0
  0
VERTEX
  8
0
 10
1390
 20
560
 42
0
  0
VERTEX
  8
0
 10
1470
 20
560
 42
-0
  0
SEQEND
  0
POLYLINE
  8
0
 10
0
 20
0
 39
0
 70
1
 66
1
  0
VERTEX
  8
0
 10
1480.751953125
 20
560
 42
0
  0
VERTEX
  8
0
 10
1510.751953125
 20
560
 42
0
  0
VERTEX
  8
0
 10
1510.751953125
 20
710
 42
0
  0
VERTEX
  8
0
 10
1430.751953125
 20
710
 42
-0
  0
SEQEND
  0
POLYLINE
  8
0
 10
0
 20
0
 39
0
 70
1
 66
1
  0
VERTEX
  8
0
 10
1420
 20
550
 42
0
  0
VERTEX
  8
0
 10
1390
 20
550
 42
0
  0
VERTEX
  8
0
 10
1390
 20
400
 42
0
  0
VERTEX
  8
0
 10
1470
 20
400
 42
-0
  0
SEQEND
  0
POLYLINE
  8
0
 10
0
 20
0
 39
0
 70
1
 66
1
  0
VERTEX
  8
0
 10
1480.751953125
 20
400
 42
0
  0
VERTEX
  8
0
 10
1510.751953125
 20
400
 42
0
  0
VERTEX
  8
0
 10
1510.751953125
 20
550
 42
0
  0
VERTEX
  8
0
 10
1430.751953125
 20
550
 42
-0
  0
SEQEND
  0
POLYLINE
  8
0
 10
0
 20
0
 39
0
 70
1
 66
1
  0
VERTEX
  8
0
 10
2411.50390625
 20
551
 42
0
  0
VERTEX
  8
0
 10
2411.50390625
 20
366
 42
0
  0
VERTEX
  8
0
 10
2474.50390625
 20
366
 42
0
  0
VERTEX
  8
0
 10
2484.50390625
 20
376
 42
0
  0
VERTEX
  8
0
 10
2484.50390625
 20
541
 42
0
  0
VERTEX
  8
0
 10
2474.50390625
 20
551
 42
0
  0
SEQEND
  0
POLYLINE
  8
0
 10
0
 20
0
 39
0
 70
1
 66
1
  0
VERTEX
  8
0
 10
2162.50390625
 20
650
 42
0
  0
VERTEX
  8
0
 10
2162.50390625
 20
465
 42
0
  0
VERTEX
  8
0
 10
2225.50390625
 20
465
 42
0
  0
VERTEX
  8
0
 10
2235.50390625
 20
475
 42
0
  0
VERTEX
  8
0
 10
2235.50390625
 20
640
 42
0
  0
VERTEX
  8
0
 10
2225.50390625
 20
650
 42
0
  0
SEQEND
  0
POLYLINE
  8
0
 10
0
 20
0
 39
0
 70
1
 66
1
  0
VERTEX
  8
0
 10
1420
 20
870
 42
0
  0
VERTEX
  8
0
 10
1390
 20
870
 42
0
  0
VERTEX
  8
0
 10
1390
 20
720
 42
0
  0
VERTEX
  8
0
 10
1470
 20
720
 42
-0
  0
SEQEND
  0
POLYLINE
  8
0
 10
0
 20
0
 39
0
 70
1
 66
1
  0
VERTEX
  8
0
 10
1480.751953125
 20
720
 42
0
  0
VERTEX
  8
0
 10
1510.751953125
 20
720
 42
0
  0
VERTEX
  8
0
 10
1510.751953125
 20
870
 42
0
  0
VERTEX
  8
0
 10
1430.751953125
 20
870
 42
-0
  0
SEQEND
  0
POLYLINE
  8
0
 10
0
 20
0
 39
0
 70
1
 66
1
  0
VERTEX
  8
0
 10
2312.50390625
 20
945.75201416015625
 42
0
  0
VERTEX
  8
0
 10
2312.50390625
 20
975.75201416015625
 42
0
  0
VERTEX
  8
0
 10
2162.50390625
 20
975.75201416015625
 42
0
  0
VERTEX
  8
0
 10
2162.50390625
 20
895.75201416015625
 42
-0
  0
SEQEND
  0
POLYLINE
  8
0
 10
0
 20
0
 39
0
 70
1
 66
1
  0
VERTEX
  8
0
 10
2162.50390625
 20
885
 42
0
  0
VERTEX
  8
0
 10
2162.50390625
 20
855
 42
0
  0
VERTEX
  8
0
 10
2312.50390625
 20
855
 42
0
  0
VERTEX
  8
0
 10
2312.50390625
 20
935
 42
-0
  0
SEQEND
  0
POLYLINE
  8
0
 10
0
 20
0
 39
0
 70
1
 66
1
  0
VERTEX
  8
0
 10
2405.50390625
 20
975
 42
0
  0
VERTEX
  8
0
 10
2405.50390625
 20
790
 42
0
  0
VERTEX
  8
0
 10
2468.50390625
 20
790
 42
0
  0
VERTEX
  8
0
 10
2478.50390625
 20
800
 42
0
  0
VERTEX
  8
0
 10
2478.50390625
 20
965
 42
0
  0
VERTEX
  8
0
 10
2468.50390625
 20
975
 42
0
  0
SEQEND
  0
ENDSEC
  0
EOF
