  0
SECTION
  2
ENTITIES
  0
POLYLINE
  8
0
 10
0
 20
0
 39
0
 70
1
 66
1
  0
VERTEX
  8
0
 10
0
 20
0
 42
0
  0
VERTEX
  8
0
 10
1650
 20
0
 42
0
  0
VERTEX
  8
0
 10
1650
 20
1500
 42
0
  0
VERTEX
  8
0
 10
0
 20
1500
 42
0
  0
SEQEND
  0
POLYLINE
  8
0
 10
0
 20
0
 39
0
 70
1
 66
1
  0
VERTEX
  8
0
 10
1390
 20
186
 42
0
  0
VERTEX
  8
0
 10
1390
 20
90
 42
0
  0
VERTEX
  8
0
 10
1470
 20
10
 42
0
  0
VERTEX
  8
0
 10
1605
 20
10
 42
0
  0
VERTEX
  8
0
 10
1605
 20
266
 42
0
  0
VERTEX
  8
0
 10
1470
 20
266
 42
0
  0
SEQEND
  0
POLYLINE
  8
0
 10
0
 20
0
 39
0
 70
1
 66
1
  0
VERTEX
  8
0
 10
1390
 20
1178.529296875
 42
0
  0
VERTEX
  8
0
 10
1390
 20
542
 42
-0
  0
VERTEX
  8
0
 10
1515
 20
620.009765625
 42
-0
  0
VERTEX
  8
0
 10
1515
 20
1256.5390625
 42
0
  0
SEQEND
  0
POLYLINE
  8
0
 10
0
 20
0
 39
0
 70
1
 66
1
  0
VERTEX
  8
0
 10
1165
 20
984
 42
0
  0
VERTEX
  8
0
 10
1165
 20
888
 42
0
  0
VERTEX
  8
0
 10
1245
 20
808
 42
0
  0
VERTEX
  8
0
 10
1380
 20
808
 42
0
  0
VERTEX
  8
0
 10
1380
 20
1064
 42
0
  0
VERTEX
  8
0
 10
1245
 20
1064
 42
0
  0
SEQEND
  0
POLYLINE
  8
0
 10
0
 20
0
 39
0
 70
1
 66
1
  0
VERTEX
  8
0
 10
1165
 20
1250
 42
0
  0
VERTEX
  8
0
 10
1165
 20
1154
 42
0
  0
VERTEX
  8
0
 10
1245
 20
1074
 42
0
  0
VERTEX
  8
0
 10
1380
 20
1074
 42
0
  0
VERTEX
  8
0
 10
1380
 20
1330
 42
0
  0
VERTEX
  8
0
 10
1245
 20
1330
 42
0
  0
SEQEND
  0
POLYLINE
  8
0
 10
0
 20
0
 39
0
 70
1
 66
1
  0
VERTEX
  8
0
 10
1390
 20
452
 42
0
  0
VERTEX
  8
0
 10
1390
 20
356
 42
0
  0
VERTEX
  8
0
 10
1470
 20
276
 42
0
  0
VERTEX
  8
0
 10
1605
 20
276
 42
0
  0
VERTEX
  8
0
 10
1605
 20
532
 42
0
  0
VERTEX
  8
0
 10
1470
 20
532
 42
0
  0
SEQEND
  0
POLYLINE
  8
0
 10
0
 20
0
 39
0
 70
1
 66
1
  0
VERTEX
  8
0
 10
812.548828125
 20
1340
 42
0
  0
VERTEX
  8
0
 10
1449.078125
 20
1340
 42
-0
  0
VERTEX
  8
0
 10
1371.068359375
 20
1465
 42
-0
  0
VERTEX
  8
0
 10
734.5390625
 20
1465
 42
0
  0
SEQEND
  0
POLYLINE
  8
0
 10
0
 20
0
 39
0
 70
1
 66
1
  0
VERTEX
  8
0
 10
940
 20
452
 42
0
  0
VERTEX
  8
0
 10
940
 20
356
 42
0
  0
VERTEX
  8
0
 10
1020
 20
276
 42
0
  0
VERTEX
  8
0
 10
1155
 20
276
 42
0
  0
VERTEX
  8
0
 10
1155
 20
532
 42
0
  0
VERTEX
  8
0
 10
1020
 20
532
 42
0
  0
SEQEND
  0
POLYLINE
  8
0
 10
0
 20
0
 39
0
 70
1
 66
1
  0
VERTEX
  8
0
 10
940
 20
186
 42
0
  0
VERTEX
  8
0
 10
940
 20
90
 42
0
  0
VERTEX
  8
0
 10
1020
 20
10
 42
0
  0
VERTEX
  8
0
 10
1155
 20
10
 42
0
  0
VERTEX
  8
0
 10
1155
 20
266
 42
0
  0
VERTEX
  8
0
 10
1020
 20
266
 42
0
  0
SEQEND
  0
POLYLINE
  8
0
 10
0
 20
0
 39
0
 70
1
 66
1
  0
VERTEX
  8
0
 10
1165
 20
452
 42
0
  0
VERTEX
  8
0
 10
1165
 20
356
 42
0
  0
VERTEX
  8
0
 10
1245
 20
276
 42
0
  0
VERTEX
  8
0
 10
1380
 20
276
 42
0
  0
VERTEX
  8
0
 10
1380
 20
532
 42
0
  0
VERTEX
  8
0
 10
1245
 20
532
 42
0
  0
SEQEND
  0
POLYLINE
  8
0
 10
0
 20
0
 39
0
 70
1
 66
1
  0
VERTEX
  8
0
 10
88.009765625
 20
1340
 42
0
  0
VERTEX
  8
0
 10
724.5390625
 20
1340
 42
-0
  0
VERTEX
  8
0
 10
646.529296875
 20
1465
 42
-0
  0
VERTEX
  8
0
 10
10
 20
1465
 42
0
  0
SEQEND
  0
POLYLINE
  8
0
 10
0
 20
0
 39
0
 70
1
 66
1
  0
VERTEX
  8
0
 10
940
 20
984
 42
0
  0
VERTEX
  8
0
 10
940
 20
888
 42
0
  0
VERTEX
  8
0
 10
1020
 20
808
 42
0
  0
VERTEX
  8
0
 10
1155
 20
808
 42
0
  0
VERTEX
  8
0
 10
1155
 20
1064
 42
0
  0
VERTEX
  8
0
 10
1020
 20
1064
 42
0
  0
SEQEND
  0
POLYLINE
  8
0
 10
0
 20
0
 39
0
 70
1
 66
1
  0
VERTEX
  8
0
 10
400
 20
670
 42
0
  0
VERTEX
  8
0
 10
540
 20
670
 42
-0
  0
VERTEX
  8
0
 10
620
 20
760
 42
0
  0
VERTEX
  8
0
 10
620
 20
900
 42
-0
  0
VERTEX
  8
0
 10
540
 20
990
 42
0
  0
VERTEX
  8
0
 10
400
 20
990
 42
-0
  0
VERTEX
  8
0
 10
320
 20
900
 42
0
  0
VERTEX
  8
0
 10
320
 20
760
 42
0
  0
SEQEND
  0
POLYLINE
  8
0
 10
0
 20
0
 39
0
 70
1
 66
1
  0
VERTEX
  8
0
 10
432
 20
730
 42
-1
  0
VERTEX
  8
0
 10
508
 20
730
 42
-1
  0
SEQEND
  0
POLYLINE
  8
0
 10
0
 20
0
 39
0
 70
1
 66
1
  0
VERTEX
  8
0
 10
1549.078125
 20
1372
 42
-0
  0
VERTEX
  8
0
 10
1549.078125
 20
1262
 42
-0
  0
VERTEX
  8
0
 10
1629.078125
 20
1262
 42
-0
  0
VERTEX
  8
0
 10
1629.078125
 20
1372
 42
-0
  0
SEQEND
  0
POLYLINE
  8
0
 10
0
 20
0
 39
0
 70
1
 66
1
  0
VERTEX
  8
0
 10
1525
 20
1012
 42
-0
  0
VERTEX
  8
0
 10
1525
 20
902
 42
-0
  0
VERTEX
  8
0
 10
1605
 20
902
 42
-0
  0
VERTEX
  8
0
 10
1605
 20
1012
 42
-0
  0
SEQEND
  0
POLYLINE
  8
0
 10
0
 20
0
 39
0
 70
1
 66
1
  0
VERTEX
  8
0
 10
710
 20
340
 42
0
  0
VERTEX
  8
0
 10
850
 20
340
 42
-0
  0
VERTEX
  8
0
 10
930
 20
430
 42
0
  0
VERTEX
  8
0
 10
930
 20
570
 42
-0
  0
VERTEX
  8
0
 10
850
 20
660
 42
0
  0
VERTEX
  8
0
 10
710
 20
660
 42
-0
  0
VERTEX
  8
0
 10
630
 20
570
 42
0
  0
VERTEX
  8
0
 10
630
 20
430
 42
0
  0
SEQEND
  0
POLYLINE
  8
0
 10
0
 20
0
 39
0
 70
1
 66
1
  0
VERTEX
  8
0
 10
742
 20
400
 42
-1
  0
VERTEX
  8
0
 10
818
 20
400
 42
-1
  0
SEQEND
  0
POLYLINE
  8
0
 10
0
 20
0
 39
0
 70
1
 66
1
  0
VERTEX
  8
0
 10
1459.078125
 20
1376.5390625
 42
-0
  0
VERTEX
  8
0
 10
1459.078125
 20
1266.5390625
 42
-0
  0
VERTEX
  8
0
 10
1539.078125
 20
1266.5390625
 42
-0
  0
VERTEX
  8
0
 10
1539.078125
 20
1376.5390625
 42
-0
  0
SEQEND
  0
POLYLINE
  8
0
 10
0
 20
0
 39
0
 70
1
 66
1
  0
VERTEX
  8
0
 10
1165
 20
718
 42
0
  0
VERTEX
  8
0
 10
1165
 20
622
 42
0
  0
VERTEX
  8
0
 10
1245
 20
542
 42
0
  0
VERTEX
  8
0
 10
1380
 20
542
 42
0
  0
VERTEX
  8
0
 10
1380
 20
798
 42
0
  0
VERTEX
  8
0
 10
1245
 20
798
 42
0
  0
SEQEND
  0
POLYLINE
  8
0
 10
0
 20
0
 39
0
 70
1
 66
1
  0
VERTEX
  8
0
 10
1165
 20
186
 42
0
  0
VERTEX
  8
0
 10
1165
 20
90
 42
0
  0
VERTEX
  8
0
 10
1245
 20
10
 42
0
  0
VERTEX
  8
0
 10
1380
 20
10
 42
0
  0
VERTEX
  8
0
 10
1380
 20
266
 42
0
  0
VERTEX
  8
0
 10
1245
 20
266
 42
0
  0
SEQEND
  0
POLYLINE
  8
0
 10
0
 20
0
 39
0
 70
1
 66
1
  0
VERTEX
  8
0
 10
1525
 20
1252
 42
-0
  0
VERTEX
  8
0
 10
1525
 20
1142
 42
-0
  0
VERTEX
  8
0
 10
1605
 20
1142
 42
-0
  0
VERTEX
  8
0
 10
1605
 20
1252
 42
-0
  0
SEQEND
  0
POLYLINE
  8
0
 10
0
 20
0
 39
0
 70
1
 66
1
  0
VERTEX
  8
0
 10
1459.078125
 20
1386.5390625
 42
-0
  0
VERTEX
  8
0
 10
1569.078125
 20
1386.5390625
 42
-0
  0
VERTEX
  8
0
 10
1569.078125
 20
1466.5390625
 42
-0
  0
VERTEX
  8
0
 10
1459.078125
 20
1466.5390625
 42
-0
  0
SEQEND
  0
POLYLINE
  8
0
 10
0
 20
0
 39
0
 70
1
 66
1
  0
VERTEX
  8
0
 10
90
 20
1000
 42
0
  0
VERTEX
  8
0
 10
230
 20
1000
 42
-0
  0
VERTEX
  8
0
 10
310
 20
1090
 42
0
  0
VERTEX
  8
0
 10
310
 20
1230
 42
-0
  0
VERTEX
  8
0
 10
230
 20
1320
 42
0
  0
VERTEX
  8
0
 10
90
 20
1320
 42
-0
  0
VERTEX
  8
0
 10
10
 20
1230
 42
0
  0
VERTEX
  8
0
 10
10
 20
1090
 42
0
  0
SEQEND
  0
POLYLINE
  8
0
 10
0
 20
0
 39
0
 70
1
 66
1
  0
VERTEX
  8
0
 10
122
 20
1060
 42
-1
  0
VERTEX
  8
0
 10
198
 20
1060
 42
-1
  0
SEQEND
  0
POLYLINE
  8
0
 10
0
 20
0
 39
0
 70
1
 66
1
  0
VERTEX
  8
0
 10
90
 20
670
 42
0
  0
VERTEX
  8
0
 10
230
 20
670
 42
-0
  0
VERTEX
  8
0
 10
310
 20
760
 42
0
  0
VERTEX
  8
0
 10
310
 20
900
 42
-0
  0
VERTEX
  8
0
 10
230
 20
990
 42
0
  0
VERTEX
  8
0
 10
90
 20
990
 42
-0
  0
VERTEX
  8
0
 10
10
 20
900
 42
0
  0
VERTEX
  8
0
 10
10
 20
760
 42
0
  0
SEQEND
  0
POLYLINE
  8
0
 10
0
 20
0
 39
0
 70
1
 66
1
  0
VERTEX
  8
0
 10
122
 20
730
 42
-1
  0
VERTEX
  8
0
 10
198
 20
730
 42
-1
  0
SEQEND
  0
POLYLINE
  8
0
 10
0
 20
0
 39
0
 70
1
 66
1
  0
VERTEX
  8
0
 10
710
 20
1000
 42
0
  0
VERTEX
  8
0
 10
850
 20
1000
 42
-0
  0
VERTEX
  8
0
 10
930
 20
1090
 42
0
  0
VERTEX
  8
0
 10
930
 20
1230
 42
-0
  0
VERTEX
  8
0
 10
850
 20
1320
 42
0
  0
VERTEX
  8
0
 10
710
 20
1320
 42
-0
  0
VERTEX
  8
0
 10
630
 20
1230
 42
0
  0
VERTEX
  8
0
 10
630
 20
1090
 42
0
  0
SEQEND
  0
POLYLINE
  8
0
 10
0
 20
0
 39
0
 70
1
 66
1
  0
VERTEX
  8
0
 10
742
 20
1060
 42
-1
  0
VERTEX
  8
0
 10
818
 20
1060
 42
-1
  0
SEQEND
  0
POLYLINE
  8
0
 10
0
 20
0
 39
0
 70
1
 66
1
  0
VERTEX
  8
0
 10
710
 20
670
 42
0
  0
VERTEX
  8
0
 10
850
 20
670
 42
-0
  0
VERTEX
  8
0
 10
930
 20
760
 42
0
  0
VERTEX
  8
0
 10
930
 20
900
 42
-0
  0
VERTEX
  8
0
 10
850
 20
990
 42
0
  0
VERTEX
  8
0
 10
710
 20
990
 42
-0
  0
VERTEX
  8
0
 10
630
 20
900
 42
0
  0
VERTEX
  8
0
 10
630
 20
760
 42
0
  0
SEQEND
  0
POLYLINE
  8
0
 10
0
 20
0
 39
0
 70
1
 66
1
  0
VERTEX
  8
0
 10
742
 20
730
 42
-1
  0
VERTEX
  8
0
 10
818
 20
730
 42
-1
  0
SEQEND
  0
POLYLINE
  8
0
 10
0
 20
0
 39
0
 70
1
 66
1
  0
VERTEX
  8
0
 10
90
 20
340
 42
0
  0
VERTEX
  8
0
 10
230
 20
340
 42
-0
  0
VERTEX
  8
0
 10
310
 20
430
 42
0
  0
VERTEX
  8
0
 10
310
 20
570
 42
-0
  0
VERTEX
  8
0
 10
230
 20
660
 42
0
  0
VERTEX
  8
0
 10
90
 20
660
 42
-0
  0
VERTEX
  8
0
 10
10
 20
570
 42
0
  0
VERTEX
  8
0
 10
10
 20
430
 42
0
  0
SEQEND
  0
POLYLINE
  8
0
 10
0
 20
0
 39
0
 70
1
 66
1
  0
VERTEX
  8
0
 10
122
 20
400
 42
-1
  0
VERTEX
  8
0
 10
198
 20
400
 42
-1
  0
SEQEND
  0
POLYLINE
  8
0
 10
0
 20
0
 39
0
 70
1
 66
1
  0
VERTEX
  8
0
 10
940
 20
1250
 42
0
  0
VERTEX
  8
0
 10
940
 20
1154
 42
0
  0
VERTEX
  8
0
 10
1020
 20
1074
 42
0
  0
VERTEX
  8
0
 10
1155
 20
1074
 42
0
  0
VERTEX
  8
0
 10
1155
 20
1330
 42
0
  0
VERTEX
  8
0
 10
1020
 20
1330
 42
0
  0
SEQEND
  0
POLYLINE
  8
0
 10
0
 20
0
 39
0
 70
1
 66
1
  0
VERTEX
  8
0
 10
940
 20
718
 42
0
  0
VERTEX
  8
0
 10
940
 20
622
 42
0
  0
VERTEX
  8
0
 10
1020
 20
542
 42
0
  0
VERTEX
  8
0
 10
1155
 20
542
 42
0
  0
VERTEX
  8
0
 10
1155
 20
798
 42
0
  0
VERTEX
  8
0
 10
1020
 20
798
 42
0
  0
SEQEND
  0
POLYLINE
  8
0
 10
0
 20
0
 39
0
 70
1
 66
1
  0
VERTEX
  8
0
 10
1525
 20
772
 42
-0
  0
VERTEX
  8
0
 10
1525
 20
662
 42
-0
  0
VERTEX
  8
0
 10
1605
 20
662
 42
-0
  0
VERTEX
  8
0
 10
1605
 20
772
 42
-0
  0
SEQEND
  0
POLYLINE
  8
0
 10
0
 20
0
 39
0
 70
1
 66
1
  0
VERTEX
  8
0
 10
1525
 20
652
 42
-0
  0
VERTEX
  8
0
 10
1525
 20
542
 42
-0
  0
VERTEX
  8
0
 10
1605
 20
542
 42
-0
  0
VERTEX
  8
0
 10
1605
 20
652
 42
-0
  0
SEQEND
  0
POLYLINE
  8
0
 10
0
 20
0
 39
0
 70
1
 66
1
  0
VERTEX
  8
0
 10
1525
 20
892
 42
-0
  0
VERTEX
  8
0
 10
1525
 20
782
 42
-0
  0
VERTEX
  8
0
 10
1605
 20
782
 42
-0
  0
VERTEX
  8
0
 10
1605
 20
892
 42
-0
  0
SEQEND
  0
POLYLINE
  8
0
 10
0
 20
0
 39
0
 70
1
 66
1
  0
VERTEX
  8
0
 10
90
 20
10
 42
0
  0
VERTEX
  8
0
 10
230
 20
10
 42
-0
  0
VERTEX
  8
0
 10
310
 20
100
 42
0
  0
VERTEX
  8
0
 10
310
 20
240
 42
-0
  0
VERTEX
  8
0
 10
230
 20
330
 42
0
  0
VERTEX
  8
0
 10
90
 20
330
 42
-0
  0
VERTEX
  8
0
 10
10
 20
240
 42
0
  0
VERTEX
  8
0
 10
10
 20
100
 42
0
  0
SEQEND
  0
POLYLINE
  8
0
 10
0
 20
0
 39
0
 70
1
 66
1
  0
VERTEX
  8
0
 10
122
 20
70
 42
-1
  0
VERTEX
  8
0
 10
198
 20
70
 42
-1
  0
SEQEND
  0
POLYLINE
  8
0
 10
0
 20
0
 39
0
 70
1
 66
1
  0
VERTEX
  8
0
 10
710
 20
10
 42
0
  0
VERTEX
  8
0
 10
850
 20
10
 42
-0
  0
VERTEX
  8
0
 10
930
 20
100
 42
0
  0
VERTEX
  8
0
 10
930
 20
240
 42
-0
  0
VERTEX
  8
0
 10
850
 20
330
 42
0
  0
VERTEX
  8
0
 10
710
 20
330
 42
-0
  0
VERTEX
  8
0
 10
630
 20
240
 42
0
  0
VERTEX
  8
0
 10
630
 20
100
 42
0
  0
SEQEND
  0
POLYLINE
  8
0
 10
0
 20
0
 39
0
 70
1
 66
1
  0
VERTEX
  8
0
 10
742
 20
70
 42
-1
  0
VERTEX
  8
0
 10
818
 20
70
 42
-1
  0
SEQEND
  0
POLYLINE
  8
0
 10
0
 20
0
 39
0
 70
1
 66
1
  0
VERTEX
  8
0
 10
400
 20
1000
 42
0
  0
VERTEX
  8
0
 10
540
 20
1000
 42
-0
  0
VERTEX
  8
0
 10
620
 20
1090
 42
0
  0
VERTEX
  8
0
 10
620
 20
1230
 42
-0
  0
VERTEX
  8
0
 10
540
 20
1320
 42
0
  0
VERTEX
  8
0
 10
400
 20
1320
 42
-0
  0
VERTEX
  8
0
 10
320
 20
1230
 42
0
  0
VERTEX
  8
0
 10
320
 20
1090
 42
0
  0
SEQEND
  0
POLYLINE
  8
0
 10
0
 20
0
 39
0
 70
1
 66
1
  0
VERTEX
  8
0
 10
432
 20
1060
 42
-1
  0
VERTEX
  8
0
 10
508
 20
1060
 42
-1
  0
SEQEND
  0
POLYLINE
  8
0
 10
0
 20
0
 39
0
 70
1
 66
1
  0
VERTEX
  8
0
 10
400
 20
10
 42
0
  0
VERTEX
  8
0
 10
540
 20
10
 42
-0
  0
VERTEX
  8
0
 10
620
 20
100
 42
0
  0
VERTEX
  8
0
 10
620
 20
240
 42
-0
  0
VERTEX
  8
0
 10
540
 20
330
 42
0
  0
VERTEX
  8
0
 10
400
 20
330
 42
-0
  0
VERTEX
  8
0
 10
320
 20
240
 42
0
  0
VERTEX
  8
0
 10
320
 20
100
 42
0
  0
SEQEND
  0
POLYLINE
  8
0
 10
0
 20
0
 39
0
 70
1
 66
1
  0
VERTEX
  8
0
 10
432
 20
70
 42
-1
  0
VERTEX
  8
0
 10
508
 20
70
 42
-1
  0
SEQEND
  0
POLYLINE
  8
0
 10
0
 20
0
 39
0
 70
1
 66
1
  0
VERTEX
  8
0
 10
1525
 20
1132
 42
-0
  0
VERTEX
  8
0
 10
1525
 20
1022
 42
-0
  0
VERTEX
  8
0
 10
1605
 20
1022
 42
-0
  0
VERTEX
  8
0
 10
1605
 20
1132
 42
-0
  0
SEQEND
  0
POLYLINE
  8
0
 10
0
 20
0
 39
0
 70
1
 66
1
  0
VERTEX
  8
0
 10
400
 20
340
 42
0
  0
VERTEX
  8
0
 10
540
 20
340
 42
-0
  0
VERTEX
  8
0
 10
620
 20
430
 42
0
  0
VERTEX
  8
0
 10
620
 20
570
 42
-0
  0
VERTEX
  8
0
 10
540
 20
660
 42
0
  0
VERTEX
  8
0
 10
400
 20
660
 42
-0
  0
VERTEX
  8
0
 10
320
 20
570
 42
0
  0
VERTEX
  8
0
 10
320
 20
430
 42
0
  0
SEQEND
  0
POLYLINE
  8
0
 10
0
 20
0
 39
0
 70
1
 66
1
  0
VERTEX
  8
0
 10
432
 20
400
 42
-1
  0
VERTEX
  8
0
 10
508
 20
400
 42
-1
  0
SEQEND
  0
ENDSEC
  0
EOF
