  0
SECTION
  2
ENTITIES
  0
POLYLINE
  8
0
 10
0
 20
0
 39
0
 70
1
 66
1
  0
VERTEX
  8
0
 10
0
 20
0
 42
0
  0
VERTEX
  8
0
 10
1800
 20
0
 42
0
  0
VERTEX
  8
0
 10
1800
 20
900
 42
0
  0
VERTEX
  8
0
 10
0
 20
900
 42
0
  0
SEQEND
  0
POLYLINE
  8
0
 10
0
 20
0
 39
0
 70
1
 66
1
  0
VERTEX
  8
0
 10
10.220000267028809
 20
340.22000122070312
 42
-0
  0
VERTEX
  8
0
 10
10.220000267028809
 20
10.220000267028809
 42
-0
  0
VERTEX
  8
0
 10
340.22000122070312
 20
10.220000267028809
 42
0.41421356797218323
  0
SEQEND
  0
POLYLINE
  8
0
 10
0
 20
0
 39
0
 70
1
 66
1
  0
VERTEX
  8
0
 10
340.22000122070312
 20
264.01998901367187
 42
-0
  0
VERTEX
  8
0
 10
340.22000122070312
 20
594.02001953125
 42
-0
  0
VERTEX
  8
0
 10
10.220000267028809
 20
594.02001953125
 42
0.41421356797218323
  0
SEQEND
  0
POLYLINE
  8
0
 10
0
 20
0
 39
0
 70
1
 66
1
  0
VERTEX
  8
0
 10
509.05999755859375
 20
559.760009765625
 42
-0
  0
VERTEX
  8
0
 10
509.05999755859375
 20
889.760009765625
 42
-0
  0
VERTEX
  8
0
 10
179.05999755859375
 20
889.760009765625
 42
0.41421356797218323
  0
SEQEND
  0
POLYLINE
  8
0
 10
0
 20
0
 39
0
 70
1
 66
1
  0
VERTEX
  8
0
 10
350.42001342773437
 20
337.36849975585937
 42
0
  0
VERTEX
  8
0
 10
350.42001342773437
 20
31.538524627685547
 42
-0
  0
VERTEX
  8
0
 10
519.41998291015625
 20
337.36849975585937
 42
0
  0
SEQEND
  0
POLYLINE
  8
0
 10
0
 20
0
 39
0
 70
1
 66
1
  0
VERTEX
  8
0
 10
519.41998291015625
 20
10.220000267028809
 42
0
  0
VERTEX
  8
0
 10
519.41998291015625
 20
316.04998779296875
 42
-0
  0
VERTEX
  8
0
 10
350.42001342773437
 20
10.220000267028809
 42
0
  0
SEQEND
  0
POLYLINE
  8
0
 10
0
 20
0
 39
0
 70
1
 66
1
  0
VERTEX
  8
0
 10
350.42001342773437
 20
347.54000854492187
 42
0
  0
VERTEX
  8
0
 10
656.25
 20
347.54000854492187
 42
-0
  0
VERTEX
  8
0
 10
350.42001342773437
 20
516.53997802734375
 42
0
  0
SEQEND
  0
POLYLINE
  8
0
 10
0
 20
0
 39
0
 70
1
 66
1
  0
VERTEX
  8
0
 10
677.5684814453125
 20
516.53997802734375
 42
0
  0
VERTEX
  8
0
 10
371.738525390625
 20
516.53997802734375
 42
-0
  0
VERTEX
  8
0
 10
677.5684814453125
 20
347.54000854492187
 42
0
  0
SEQEND
  0
POLYLINE
  8
0
 10
0
 20
0
 39
0
 70
1
 66
1
  0
VERTEX
  8
0
 10
519.260009765625
 20
853.78851318359375
 42
0
  0
VERTEX
  8
0
 10
519.260009765625
 20
547.95849609375
 42
-0
  0
VERTEX
  8
0
 10
688.260009765625
 20
853.78851318359375
 42
0
  0
SEQEND
  0
POLYLINE
  8
0
 10
0
 20
0
 39
0
 70
1
 66
1
  0
VERTEX
  8
0
 10
688.260009765625
 20
526.6400146484375
 42
0
  0
VERTEX
  8
0
 10
688.260009765625
 20
832.469970703125
 42
-0
  0
VERTEX
  8
0
 10
519.260009765625
 20
526.6400146484375
 42
0
  0
SEQEND
  0
POLYLINE
  8
0
 10
0
 20
0
 39
0
 70
1
 66
1
  0
VERTEX
  8
0
 10
529.70001220703125
 20
337.36849975585937
 42
0
  0
VERTEX
  8
0
 10
529.70001220703125
 20
31.538524627685547
 42
-0
  0
VERTEX
  8
0
 10
698.70001220703125
 20
337.36849975585937
 42
0
  0
SEQEND
  0
POLYLINE
  8
0
 10
0
 20
0
 39
0
 70
1
 66
1
  0
VERTEX
  8
0
 10
698.70001220703125
 20
10.220000267028809
 42
0
  0
VERTEX
  8
0
 10
698.70001220703125
 20
316.04998779296875
 42
-0
  0
VERTEX
  8
0
 10
529.70001220703125
 20
10.220000267028809
 42
0
  0
SEQEND
  0
POLYLINE
  8
0
 10
0
 20
0
 39
0
 70
1
 66
1
  0
VERTEX
  8
0
 10
698.53997802734375
 20
674.68853759765625
 42
0
  0
VERTEX
  8
0
 10
698.53997802734375
 20
368.8585205078125
 42
-0
  0
VERTEX
  8
0
 10
867.53997802734375
 20
674.68853759765625
 42
0
  0
SEQEND
  0
POLYLINE
  8
0
 10
0
 20
0
 39
0
 70
1
 66
1
  0
VERTEX
  8
0
 10
867.53997802734375
 20
347.54000854492187
 42
0
  0
VERTEX
  8
0
 10
867.53997802734375
 20
653.3699951171875
 42
-0
  0
VERTEX
  8
0
 10
698.53997802734375
 20
347.54000854492187
 42
0
  0
SEQEND
  0
POLYLINE
  8
0
 10
0
 20
0
 39
0
 70
1
 66
1
  0
VERTEX
  8
0
 10
708.97998046875
 20
337.36849975585937
 42
0
  0
VERTEX
  8
0
 10
708.97998046875
 20
31.538524627685547
 42
-0
  0
VERTEX
  8
0
 10
877.97998046875
 20
337.36849975585937
 42
0
  0
SEQEND
  0
POLYLINE
  8
0
 10
0
 20
0
 39
0
 70
1
 66
1
  0
VERTEX
  8
0
 10
877.97998046875
 20
10.220000267028809
 42
0
  0
VERTEX
  8
0
 10
877.97998046875
 20
316.04998779296875
 42
-0
  0
VERTEX
  8
0
 10
708.97998046875
 20
10.220000267028809
 42
0
  0
SEQEND
  0
POLYLINE
  8
0
 10
0
 20
0
 39
0
 70
1
 66
1
  0
VERTEX
  8
0
 10
698.53997802734375
 20
684.8599853515625
 42
0
  0
VERTEX
  8
0
 10
1004.3699951171875
 20
684.8599853515625
 42
-0
  0
VERTEX
  8
0
 10
698.53997802734375
 20
853.8599853515625
 42
0
  0
SEQEND
  0
POLYLINE
  8
0
 10
0
 20
0
 39
0
 70
1
 66
1
  0
VERTEX
  8
0
 10
1025.6884765625
 20
853.8599853515625
 42
0
  0
VERTEX
  8
0
 10
719.8585205078125
 20
853.8599853515625
 42
-0
  0
VERTEX
  8
0
 10
1025.6884765625
 20
684.8599853515625
 42
0
  0
SEQEND
  0
POLYLINE
  8
0
 10
0
 20
0
 39
0
 70
1
 66
1
  0
VERTEX
  8
0
 10
877.82000732421875
 20
674.68853759765625
 42
0
  0
VERTEX
  8
0
 10
877.82000732421875
 20
368.8585205078125
 42
-0
  0
VERTEX
  8
0
 10
1046.8199462890625
 20
674.68853759765625
 42
0
  0
SEQEND
  0
POLYLINE
  8
0
 10
0
 20
0
 39
0
 70
1
 66
1
  0
VERTEX
  8
0
 10
1046.8199462890625
 20
347.54000854492187
 42
0
  0
VERTEX
  8
0
 10
1046.8199462890625
 20
653.3699951171875
 42
-0
  0
VERTEX
  8
0
 10
877.82000732421875
 20
347.54000854492187
 42
0
  0
SEQEND
  0
POLYLINE
  8
0
 10
0
 20
0
 39
0
 70
1
 66
1
  0
VERTEX
  8
0
 10
888.260009765625
 20
337.36849975585937
 42
0
  0
VERTEX
  8
0
 10
888.260009765625
 20
31.538524627685547
 42
-0
  0
VERTEX
  8
0
 10
1057.260009765625
 20
337.36849975585937
 42
0
  0
SEQEND
  0
POLYLINE
  8
0
 10
0
 20
0
 39
0
 70
1
 66
1
  0
VERTEX
  8
0
 10
1057.260009765625
 20
10.220000267028809
 42
0
  0
VERTEX
  8
0
 10
1057.260009765625
 20
316.04998779296875
 42
-0
  0
VERTEX
  8
0
 10
888.260009765625
 20
10.220000267028809
 42
0
  0
SEQEND
  0
POLYLINE
  8
0
 10
0
 20
0
 39
0
 70
1
 66
1
  0
VERTEX
  8
0
 10
1057.0999755859375
 20
674.41912841796875
 42
0
  0
VERTEX
  8
0
 10
1141.5999755859375
 20
521.4991455078125
 42
0
  0
VERTEX
  8
0
 10
1141.5999755859375
 20
827.32916259765625
 42
0
  0
VERTEX
  8
0
 10
1057.0999755859375
 20
827.32916259765625
 42
0
  0
SEQEND
  0
POLYLINE
  8
0
 10
0
 20
0
 39
0
 70
1
 66
1
  0
VERTEX
  8
0
 10
1141.5999755859375
 20
500.44998168945312
 42
0
  0
VERTEX
  8
0
 10
1057.0999755859375
 20
653.3699951171875
 42
0
  0
VERTEX
  8
0
 10
1057.0999755859375
 20
347.54000854492187
 42
0
  0
VERTEX
  8
0
 10
1141.5999755859375
 20
347.54000854492187
 42
0
  0
SEQEND
  0
POLYLINE
  8
0
 10
0
 20
0
 39
0
 70
1
 66
1
  0
VERTEX
  8
0
 10
1151.9599609375
 20
337.09915161132812
 42
0
  0
VERTEX
  8
0
 10
1236.4599609375
 20
184.17915344238281
 42
0
  0
VERTEX
  8
0
 10
1236.4599609375
 20
490.0091552734375
 42
0
  0
VERTEX
  8
0
 10
1151.9599609375
 20
490.0091552734375
 42
0
  0
SEQEND
  0
POLYLINE
  8
0
 10
0
 20
0
 39
0
 70
1
 66
1
  0
VERTEX
  8
0
 10
1236.4599609375
 20
163.12998962402344
 42
0
  0
VERTEX
  8
0
 10
1151.9599609375
 20
316.04998779296875
 42
0
  0
VERTEX
  8
0
 10
1151.9599609375
 20
10.220000267028809
 42
0
  0
VERTEX
  8
0
 10
1236.4599609375
 20
10.220000267028809
 42
0
  0
SEQEND
  0
POLYLINE
  8
0
 10
0
 20
0
 39
0
 70
1
 66
1
  0
VERTEX
  8
0
 10
1246.8199462890625
 20
337.09915161132812
 42
0
  0
VERTEX
  8
0
 10
1331.3199462890625
 20
184.17915344238281
 42
0
  0
VERTEX
  8
0
 10
1331.3199462890625
 20
490.0091552734375
 42
0
  0
VERTEX
  8
0
 10
1246.8199462890625
 20
490.0091552734375
 42
0
  0
SEQEND
  0
POLYLINE
  8
0
 10
0
 20
0
 39
0
 70
1
 66
1
  0
VERTEX
  8
0
 10
1331.3199462890625
 20
163.12998962402344
 42
0
  0
VERTEX
  8
0
 10
1246.8199462890625
 20
316.04998779296875
 42
0
  0
VERTEX
  8
0
 10
1246.8199462890625
 20
10.220000267028809
 42
0
  0
VERTEX
  8
0
 10
1331.3199462890625
 20
10.220000267028809
 42
0
  0
SEQEND
  0
POLYLINE
  8
0
 10
0
 20
0
 39
0
 70
1
 66
1
  0
VERTEX
  8
0
 10
1341.6800537109375
 20
337.09915161132812
 42
0
  0
VERTEX
  8
0
 10
1426.1800537109375
 20
184.17915344238281
 42
0
  0
VERTEX
  8
0
 10
1426.1800537109375
 20
490.0091552734375
 42
0
  0
VERTEX
  8
0
 10
1341.6800537109375
 20
490.0091552734375
 42
0
  0
SEQEND
  0
POLYLINE
  8
0
 10
0
 20
0
 39
0
 70
1
 66
1
  0
VERTEX
  8
0
 10
1426.1800537109375
 20
163.12998962402344
 42
0
  0
VERTEX
  8
0
 10
1341.6800537109375
 20
316.04998779296875
 42
0
  0
VERTEX
  8
0
 10
1341.6800537109375
 20
10.220000267028809
 42
0
  0
VERTEX
  8
0
 10
1426.1800537109375
 20
10.220000267028809
 42
0
  0
SEQEND
  0
POLYLINE
  8
0
 10
0
 20
0
 39
0
 70
1
 66
1
  0
VERTEX
  8
0
 10
1436.5400390625
 20
337.09915161132812
 42
0
  0
VERTEX
  8
0
 10
1521.0400390625
 20
184.17915344238281
 42
0
  0
VERTEX
  8
0
 10
1521.0400390625
 20
490.0091552734375
 42
0
  0
VERTEX
  8
0
 10
1436.5400390625
 20
490.0091552734375
 42
0
  0
SEQEND
  0
POLYLINE
  8
0
 10
0
 20
0
 39
0
 70
1
 66
1
  0
VERTEX
  8
0
 10
1521.0400390625
 20
163.12998962402344
 42
0
  0
VERTEX
  8
0
 10
1436.5400390625
 20
316.04998779296875
 42
0
  0
VERTEX
  8
0
 10
1436.5400390625
 20
10.220000267028809
 42
0
  0
VERTEX
  8
0
 10
1521.0400390625
 20
10.220000267028809
 42
0
  0
SEQEND
  0
POLYLINE
  8
0
 10
0
 20
0
 39
0
 70
1
 66
1
  0
VERTEX
  8
0
 10
1531.4000244140625
 20
337.09915161132812
 42
0
  0
VERTEX
  8
0
 10
1615.9000244140625
 20
184.17915344238281
 42
0
  0
VERTEX
  8
0
 10
1615.9000244140625
 20
490.0091552734375
 42
0
  0
VERTEX
  8
0
 10
1531.4000244140625
 20
490.0091552734375
 42
0
  0
SEQEND
  0
POLYLINE
  8
0
 10
0
 20
0
 39
0
 70
1
 66
1
  0
VERTEX
  8
0
 10
1615.9000244140625
 20
163.12998962402344
 42
0
  0
VERTEX
  8
0
 10
1531.4000244140625
 20
316.04998779296875
 42
0
  0
VERTEX
  8
0
 10
1531.4000244140625
 20
10.220000267028809
 42
0
  0
VERTEX
  8
0
 10
1615.9000244140625
 20
10.220000267028809
 42
0
  0
SEQEND
  0
POLYLINE
  8
0
 10
0
 20
0
 39
0
 70
1
 66
1
  0
VERTEX
  8
0
 10
10.220000267028809
 20
624.03997802734375
 42
0
  0
VERTEX
  8
0
 10
30.219999313354492
 20
604.03997802734375
 42
0
  0
VERTEX
  8
0
 10
160.22000122070312
 20
604.03997802734375
 42
0
  0
VERTEX
  8
0
 10
160.22000122070312
 20
794.03997802734375
 42
0
  0
VERTEX
  8
0
 10
10.220000267028809
 20
794.03997802734375
 42
0
  0
SEQEND
  0
POLYLINE
  8
0
 10
0
 20
0
 39
0
 70
1
 66
1
  0
VERTEX
  8
0
 10
1151.9599609375
 20
520.17999267578125
 42
0
  0
VERTEX
  8
0
 10
1171.9599609375
 20
500.17999267578125
 42
0
  0
VERTEX
  8
0
 10
1301.9599609375
 20
500.17999267578125
 42
0
  0
VERTEX
  8
0
 10
1301.9599609375
 20
690.17999267578125
 42
0
  0
VERTEX
  8
0
 10
1151.9599609375
 20
690.17999267578125
 42
0
  0
SEQEND
  0
POLYLINE
  8
0
 10
0
 20
0
 39
0
 70
1
 66
1
  0
VERTEX
  8
0
 10
1321.9599609375
 20
700.34002685546875
 42
0
  0
VERTEX
  8
0
 10
1341.9599609375
 20
720.34002685546875
 42
0
  0
VERTEX
  8
0
 10
1341.9599609375
 20
850.34002685546875
 42
0
  0
VERTEX
  8
0
 10
1151.9599609375
 20
850.34002685546875
 42
0
  0
VERTEX
  8
0
 10
1151.9599609375
 20
700.34002685546875
 42
0
  0
SEQEND
  0
POLYLINE
  8
0
 10
0
 20
0
 39
0
 70
1
 66
1
  0
VERTEX
  8
0
 10
1312.1600341796875
 20
520.17999267578125
 42
0
  0
VERTEX
  8
0
 10
1332.1600341796875
 20
500.17999267578125
 42
0
  0
VERTEX
  8
0
 10
1462.1600341796875
 20
500.17999267578125
 42
0
  0
VERTEX
  8
0
 10
1462.1600341796875
 20
690.17999267578125
 42
0
  0
VERTEX
  8
0
 10
1312.1600341796875
 20
690.17999267578125
 42
0
  0
SEQEND
  0
POLYLINE
  8
0
 10
0
 20
0
 39
0
 70
1
 66
1
  0
VERTEX
  8
0
 10
1522.300048828125
 20
700.34002685546875
 42
0
  0
VERTEX
  8
0
 10
1542.300048828125
 20
720.34002685546875
 42
0
  0
VERTEX
  8
0
 10
1542.300048828125
 20
850.34002685546875
 42
0
  0
VERTEX
  8
0
 10
1352.300048828125
 20
850.34002685546875
 42
0
  0
VERTEX
  8
0
 10
1352.300048828125
 20
700.34002685546875
 42
0
  0
SEQEND
  0
POLYLINE
  8
0
 10
0
 20
0
 39
0
 70
1
 66
1
  0
VERTEX
  8
0
 10
10.220000267028809
 20
815.48602294921875
 42
-0
  0
VERTEX
  8
0
 10
110.22000122070312
 20
865.48602294921875
 42
-0
  0
VERTEX
  8
0
 10
10.220000267028809
 20
865.48602294921875
 42
-0
  0
SEQEND
  0
POLYLINE
  8
0
 10
0
 20
0
 39
0
 70
1
 66
1
  0
VERTEX
  8
0
 10
110.22000122070312
 20
854.20001220703125
 42
-0
  0
VERTEX
  8
0
 10
10.220000267028809
 20
804.20001220703125
 42
-0
  0
VERTEX
  8
0
 10
110.22000122070312
 20
804.20001220703125
 42
-0
  0
SEQEND
  0
POLYLINE
  8
0
 10
0
 20
0
 39
0
 70
1
 66
1
  0
VERTEX
  8
0
 10
1117.5400390625
 20
10.220000267028809
 42
-0
  0
VERTEX
  8
0
 10
1067.5400390625
 20
110.22000122070312
 42
-0
  0
VERTEX
  8
0
 10
1067.5400390625
 20
10.220000267028809
 42
-0
  0
SEQEND
  0
POLYLINE
  8
0
 10
0
 20
0
 39
0
 70
1
 66
1
  0
VERTEX
  8
0
 10
1078.8260498046875
 20
110.22000122070312
 42
-0
  0
VERTEX
  8
0
 10
1128.8260498046875
 20
10.220000267028809
 42
-0
  0
VERTEX
  8
0
 10
1128.8260498046875
 20
110.22000122070312
 42
-0
  0
SEQEND
  0
POLYLINE
  8
0
 10
0
 20
0
 39
0
 70
1
 66
1
  0
VERTEX
  8
0
 10
1117.5400390625
 20
120.37999725341797
 42
-0
  0
VERTEX
  8
0
 10
1067.5400390625
 20
220.3800048828125
 42
-0
  0
VERTEX
  8
0
 10
1067.5400390625
 20
120.37999725341797
 42
-0
  0
SEQEND
  0
POLYLINE
  8
0
 10
0
 20
0
 39
0
 70
1
 66
1
  0
VERTEX
  8
0
 10
1078.8260498046875
 20
220.3800048828125
 42
-0
  0
VERTEX
  8
0
 10
1128.8260498046875
 20
120.37999725341797
 42
-0
  0
VERTEX
  8
0
 10
1128.8260498046875
 20
220.3800048828125
 42
-0
  0
SEQEND
  0
POLYLINE
  8
0
 10
0
 20
0
 39
0
 70
1
 66
1
  0
VERTEX
  8
0
 10
1117.5400390625
 20
230.53999328613281
 42
-0
  0
VERTEX
  8
0
 10
1067.5400390625
 20
330.54000854492187
 42
-0
  0
VERTEX
  8
0
 10
1067.5400390625
 20
230.53999328613281
 42
-0
  0
SEQEND
  0
POLYLINE
  8
0
 10
0
 20
0
 39
0
 70
1
 66
1
  0
VERTEX
  8
0
 10
1078.8260498046875
 20
330.54000854492187
 42
-0
  0
VERTEX
  8
0
 10
1128.8260498046875
 20
230.53999328613281
 42
-0
  0
VERTEX
  8
0
 10
1128.8260498046875
 20
330.54000854492187
 42
-0
  0
SEQEND
  0
POLYLINE
  8
0
 10
0
 20
0
 39
0
 70
1
 66
1
  0
VERTEX
  8
0
 10
1522.3599853515625
 20
500.17999267578125
 42
-0
  0
VERTEX
  8
0
 10
1472.3599853515625
 20
600.17999267578125
 42
-0
  0
VERTEX
  8
0
 10
1472.3599853515625
 20
500.17999267578125
 42
-0
  0
SEQEND
  0
POLYLINE
  8
0
 10
0
 20
0
 39
0
 70
1
 66
1
  0
VERTEX
  8
0
 10
1483.64599609375
 20
600.17999267578125
 42
-0
  0
VERTEX
  8
0
 10
1533.64599609375
 20
500.17999267578125
 42
-0
  0
VERTEX
  8
0
 10
1533.64599609375
 20
600.17999267578125
 42
-0
  0
SEQEND
  0
POLYLINE
  8
0
 10
0
 20
0
 39
0
 70
1
 66
1
  0
VERTEX
  8
0
 10
1472.3599853515625
 20
621.6259765625
 42
-0
  0
VERTEX
  8
0
 10
1572.3599853515625
 20
671.6259765625
 42
-0
  0
VERTEX
  8
0
 10
1472.3599853515625
 20
671.6259765625
 42
-0
  0
SEQEND
  0
POLYLINE
  8
0
 10
0
 20
0
 39
0
 70
1
 66
1
  0
VERTEX
  8
0
 10
1572.3599853515625
 20
660.34002685546875
 42
-0
  0
VERTEX
  8
0
 10
1472.3599853515625
 20
610.34002685546875
 42
-0
  0
VERTEX
  8
0
 10
1572.3599853515625
 20
610.34002685546875
 42
-0
  0
SEQEND
  0
POLYLINE
  8
0
 10
0
 20
0
 39
0
 70
1
 66
1
  0
VERTEX
  8
0
 10
1594
 20
500.17999267578125
 42
-0
  0
VERTEX
  8
0
 10
1544
 20
600.17999267578125
 42
-0
  0
VERTEX
  8
0
 10
1544
 20
500.17999267578125
 42
-0
  0
SEQEND
  0
POLYLINE
  8
0
 10
0
 20
0
 39
0
 70
1
 66
1
  0
VERTEX
  8
0
 10
1555.2860107421875
 20
600.17999267578125
 42
-0
  0
VERTEX
  8
0
 10
1605.2860107421875
 20
500.17999267578125
 42
-0
  0
VERTEX
  8
0
 10
1605.2860107421875
 20
600.17999267578125
 42
-0
  0
SEQEND
  0
POLYLINE
  8
0
 10
0
 20
0
 39
0
 70
1
 66
1
  0
VERTEX
  8
0
 10
1602.6400146484375
 20
681.79998779296875
 42
-0
  0
VERTEX
  8
0
 10
1552.6400146484375
 20
781.79998779296875
 42
-0
  0
VERTEX
  8
0
 10
1552.6400146484375
 20
681.79998779296875
 42
-0
  0
SEQEND
  0
POLYLINE
  8
0
 10
0
 20
0
 39
0
 70
1
 66
1
  0
VERTEX
  8
0
 10
1563.926025390625
 20
781.79998779296875
 42
-0
  0
VERTEX
  8
0
 10
1613.926025390625
 20
681.79998779296875
 42
-0
  0
VERTEX
  8
0
 10
1613.926025390625
 20
781.79998779296875
 42
-0
  0
SEQEND
  0
POLYLINE
  8
0
 10
0
 20
0
 39
0
 70
1
 66
1
  0
VERTEX
  8
0
 10
1552.6400146484375
 20
803.2459716796875
 42
-0
  0
VERTEX
  8
0
 10
1652.6400146484375
 20
853.2459716796875
 42
-0
  0
VERTEX
  8
0
 10
1552.6400146484375
 20
853.2459716796875
 42
-0
  0
SEQEND
  0
POLYLINE
  8
0
 10
0
 20
0
 39
0
 70
1
 66
1
  0
VERTEX
  8
0
 10
1652.6400146484375
 20
841.96002197265625
 42
-0
  0
VERTEX
  8
0
 10
1552.6400146484375
 20
791.96002197265625
 42
-0
  0
VERTEX
  8
0
 10
1652.6400146484375
 20
791.96002197265625
 42
-0
  0
SEQEND
  0
POLYLINE
  8
0
 10
0
 20
0
 39
0
 70
1
 66
1
  0
VERTEX
  8
0
 10
1665.6400146484375
 20
500.17999267578125
 42
-0
  0
VERTEX
  8
0
 10
1615.6400146484375
 20
600.17999267578125
 42
-0
  0
VERTEX
  8
0
 10
1615.6400146484375
 20
500.17999267578125
 42
-0
  0
SEQEND
  0
POLYLINE
  8
0
 10
0
 20
0
 39
0
 70
1
 66
1
  0
VERTEX
  8
0
 10
1626.926025390625
 20
600.17999267578125
 42
-0
  0
VERTEX
  8
0
 10
1676.926025390625
 20
500.17999267578125
 42
-0
  0
VERTEX
  8
0
 10
1676.926025390625
 20
600.17999267578125
 42
-0
  0
SEQEND
  0
POLYLINE
  8
0
 10
0
 20
0
 39
0
 70
1
 66
1
  0
VERTEX
  8
0
 10
10.220000267028809
 20
430.239990234375
 42
-0
  0
VERTEX
  8
0
 10
10.220000267028809
 20
350.239990234375
 42
-0
  0
VERTEX
  8
0
 10
29.219999313354492
 20
350.239990234375
 42
-0
  0
VERTEX
  8
0
 10
56.013153076171875
 20
375.75723266601562
 42
0.42857092618942261
  0
VERTEX
  8
0
 10
56.013092041015625
 20
404.72274780273437
 42
0
  0
VERTEX
  8
0
 10
29.219999313354492
 20
430.239990234375
 42
0
  0
SEQEND
  0
POLYLINE
  8
0
 10
0
 20
0
 39
0
 70
1
 66
1
  0
VERTEX
  8
0
 10
222.42001342773437
 20
604.03997802734375
 42
-0
  0
VERTEX
  8
0
 10
222.42001342773437
 20
684.03997802734375
 42
-0
  0
VERTEX
  8
0
 10
203.42001342773437
 20
684.03997802734375
 42
-0
  0
VERTEX
  8
0
 10
176.62686157226562
 20
658.52276611328125
 42
0.42857092618942261
  0
VERTEX
  8
0
 10
176.62692260742187
 20
629.5572509765625
 42
0
  0
VERTEX
  8
0
 10
203.42001342773437
 20
604.03997802734375
 42
0
  0
SEQEND
  0
POLYLINE
  8
0
 10
0
 20
0
 39
0
 70
1
 66
1
  0
VERTEX
  8
0
 10
339.77999877929687
 20
173.83999633789063
 42
-0
  0
VERTEX
  8
0
 10
339.77999877929687
 20
253.83999633789063
 42
-0
  0
VERTEX
  8
0
 10
320.77999877929687
 20
253.83999633789063
 42
-0
  0
VERTEX
  8
0
 10
293.98684692382812
 20
228.32275390625
 42
0.42857092618942261
  0
VERTEX
  8
0
 10
293.98690795898437
 20
199.35723876953125
 42
0
  0
VERTEX
  8
0
 10
320.77999877929687
 20
173.83999633789063
 42
0
  0
SEQEND
  0
POLYLINE
  8
0
 10
0
 20
0
 39
0
 70
1
 66
1
  0
VERTEX
  8
0
 10
1104.1600341796875
 20
889.67999267578125
 42
-0
  0
VERTEX
  8
0
 10
1024.1600341796875
 20
889.67999267578125
 42
-0
  0
VERTEX
  8
0
 10
1024.1600341796875
 20
870.67999267578125
 42
-0
  0
VERTEX
  8
0
 10
1049.67724609375
 20
843.8868408203125
 42
0.42857092618942261
  0
VERTEX
  8
0
 10
1078.642822265625
 20
843.88690185546875
 42
0
  0
VERTEX
  8
0
 10
1104.1600341796875
 20
870.67999267578125
 42
0
  0
SEQEND
  0
POLYLINE
  8
0
 10
0
 20
0
 39
0
 70
1
 66
1
  0
VERTEX
  8
0
 10
1657.02001953125
 20
610.34002685546875
 42
-0
  0
VERTEX
  8
0
 10
1657.02001953125
 20
690.34002685546875
 42
-0
  0
VERTEX
  8
0
 10
1638.02001953125
 20
690.34002685546875
 42
-0
  0
VERTEX
  8
0
 10
1611.226806640625
 20
664.82275390625
 42
0.42857092618942261
  0
VERTEX
  8
0
 10
1611.2269287109375
 20
635.85723876953125
 42
0
  0
VERTEX
  8
0
 10
1638.02001953125
 20
610.34002685546875
 42
0
  0
SEQEND
  0
POLYLINE
  8
0
 10
0
 20
0
 39
0
 70
1
 66
1
  0
VERTEX
  8
0
 10
1676.280029296875
 20
700.52001953125
 42
-0
  0
VERTEX
  8
0
 10
1676.280029296875
 20
780.52001953125
 42
-0
  0
VERTEX
  8
0
 10
1657.280029296875
 20
780.52001953125
 42
-0
  0
VERTEX
  8
0
 10
1630.48681640625
 20
755.00274658203125
 42
0.42857092618942261
  0
VERTEX
  8
0
 10
1630.4869384765625
 20
726.0372314453125
 42
0
  0
VERTEX
  8
0
 10
1657.280029296875
 20
700.52001953125
 42
0
  0
SEQEND
  0
POLYLINE
  8
0
 10
0
 20
0
 39
0
 70
1
 66
1
  0
VERTEX
  8
0
 10
1676.6400146484375
 20
133.52000427246094
 42
-0
  0
VERTEX
  8
0
 10
1676.6400146484375
 20
213.52000427246094
 42
-0
  0
VERTEX
  8
0
 10
1657.6400146484375
 20
213.52000427246094
 42
-0
  0
VERTEX
  8
0
 10
1630.8468017578125
 20
188.00276184082031
 42
0.42857092618942261
  0
VERTEX
  8
0
 10
1630.846923828125
 20
159.0372314453125
 42
0
  0
VERTEX
  8
0
 10
1657.6400146484375
 20
133.52000427246094
 42
0
  0
SEQEND
  0
POLYLINE
  8
0
 10
0
 20
0
 39
0
 70
1
 66
1
  0
VERTEX
  8
0
 10
1678.260009765625
 20
10.220000267028809
 42
-0
  0
VERTEX
  8
0
 10
1678.260009765625
 20
90.220001220703125
 42
-0
  0
VERTEX
  8
0
 10
1659.260009765625
 20
90.220001220703125
 42
-0
  0
VERTEX
  8
0
 10
1632.4669189453125
 20
64.7027587890625
 42
0.42857092618942261
  0
VERTEX
  8
0
 10
1632.4669189453125
 20
35.737239837646484
 42
0
  0
VERTEX
  8
0
 10
1659.260009765625
 20
10.220000267028809
 42
0
  0
SEQEND
  0
POLYLINE
  8
0
 10
0
 20
0
 39
0
 70
1
 66
1
  0
VERTEX
  8
0
 10
1626.260009765625
 20
296.32000732421875
 42
-0
  0
VERTEX
  8
0
 10
1626.260009765625
 20
216.32000732421875
 42
-0
  0
VERTEX
  8
0
 10
1645.260009765625
 20
216.32000732421875
 42
-0
  0
VERTEX
  8
0
 10
1672.0531005859375
 20
241.83724975585937
 42
0.42857092618942261
  0
VERTEX
  8
0
 10
1672.0531005859375
 20
270.80276489257812
 42
0
  0
VERTEX
  8
0
 10
1645.260009765625
 20
296.32000732421875
 42
0
  0
SEQEND
  0
POLYLINE
  8
0
 10
0
 20
0
 39
0
 70
1
 66
1
  0
VERTEX
  8
0
 10
1678.260009765625
 20
297.5
 42
-0
  0
VERTEX
  8
0
 10
1678.260009765625
 20
377.5
 42
-0
  0
VERTEX
  8
0
 10
1659.260009765625
 20
377.5
 42
-0
  0
VERTEX
  8
0
 10
1632.4669189453125
 20
351.98275756835937
 42
0.42857092618942261
  0
VERTEX
  8
0
 10
1632.4669189453125
 20
323.01724243164063
 42
0
  0
VERTEX
  8
0
 10
1659.260009765625
 20
297.5
 42
0
  0
SEQEND
  0
POLYLINE
  8
0
 10
0
 20
0
 39
0
 70
1
 66
1
  0
VERTEX
  8
0
 10
1626.260009765625
 20
458.67999267578125
 42
-0
  0
VERTEX
  8
0
 10
1626.260009765625
 20
378.67999267578125
 42
-0
  0
VERTEX
  8
0
 10
1645.260009765625
 20
378.67999267578125
 42
-0
  0
VERTEX
  8
0
 10
1672.0531005859375
 20
404.19723510742187
 42
0.42857092618942261
  0
VERTEX
  8
0
 10
1672.0531005859375
 20
433.16275024414062
 42
0
  0
VERTEX
  8
0
 10
1645.260009765625
 20
458.67999267578125
 42
0
  0
SEQEND
  0
POLYLINE
  8
0
 10
0
 20
0
 39
0
 70
1
 66
1
  0
VERTEX
  8
0
 10
1714.800048828125
 20
806.53997802734375
 42
-0
  0
VERTEX
  8
0
 10
1714.800048828125
 20
886.53997802734375
 42
-0
  0
VERTEX
  8
0
 10
1695.800048828125
 20
886.53997802734375
 42
-0
  0
VERTEX
  8
0
 10
1669.0068359375
 20
861.02276611328125
 42
0.42857092618942261
  0
VERTEX
  8
0
 10
1669.0069580078125
 20
832.0572509765625
 42
0
  0
VERTEX
  8
0
 10
1695.800048828125
 20
806.53997802734375
 42
0
  0
SEQEND
  0
POLYLINE
  8
0
 10
0
 20
0
 39
0
 70
1
 66
1
  0
VERTEX
  8
0
 10
1715.52001953125
 20
424.39999389648438
 42
-0
  0
VERTEX
  8
0
 10
1715.52001953125
 20
504.39999389648437
 42
-0
  0
VERTEX
  8
0
 10
1696.52001953125
 20
504.39999389648437
 42
-0
  0
VERTEX
  8
0
 10
1669.726806640625
 20
478.88275146484375
 42
0.42857092618942261
  0
VERTEX
  8
0
 10
1669.7269287109375
 20
449.917236328125
 42
0
  0
VERTEX
  8
0
 10
1696.52001953125
 20
424.39999389648438
 42
0
  0
SEQEND
  0
POLYLINE
  8
0
 10
0
 20
0
 39
0
 70
1
 66
1
  0
VERTEX
  8
0
 10
1719.300048828125
 20
592.34002685546875
 42
-0
  0
VERTEX
  8
0
 10
1719.300048828125
 20
672.34002685546875
 42
-0
  0
VERTEX
  8
0
 10
1700.300048828125
 20
672.34002685546875
 42
-0
  0
VERTEX
  8
0
 10
1673.5068359375
 20
646.82275390625
 42
0.42857092618942261
  0
VERTEX
  8
0
 10
1673.5069580078125
 20
617.85723876953125
 42
0
  0
VERTEX
  8
0
 10
1700.300048828125
 20
592.34002685546875
 42
0
  0
SEQEND
  0
POLYLINE
  8
0
 10
0
 20
0
 39
0
 70
1
 66
1
  0
VERTEX
  8
0
 10
1731
 20
72.680000305175781
 42
-0
  0
VERTEX
  8
0
 10
1731
 20
152.67999267578125
 42
-0
  0
VERTEX
  8
0
 10
1712
 20
152.67999267578125
 42
-0
  0
VERTEX
  8
0
 10
1685.2069091796875
 20
127.16275787353516
 42
0.42857092618942261
  0
VERTEX
  8
0
 10
1685.2069091796875
 20
98.197235107421875
 42
0
  0
VERTEX
  8
0
 10
1712
 20
72.680000305175781
 42
0
  0
SEQEND
  0
POLYLINE
  8
0
 10
0
 20
0
 39
0
 70
1
 66
1
  0
VERTEX
  8
0
 10
1733.8800048828125
 20
190.58000183105469
 42
-0
  0
VERTEX
  8
0
 10
1733.8800048828125
 20
270.57998657226562
 42
-0
  0
VERTEX
  8
0
 10
1714.8800048828125
 20
270.57998657226562
 42
-0
  0
VERTEX
  8
0
 10
1688.0869140625
 20
245.06275939941406
 42
0.42857092618942261
  0
VERTEX
  8
0
 10
1688.0869140625
 20
216.09724426269531
 42
0
  0
VERTEX
  8
0
 10
1714.8800048828125
 20
190.58000183105469
 42
0
  0
SEQEND
  0
POLYLINE
  8
0
 10
0
 20
0
 39
0
 70
1
 66
1
  0
VERTEX
  8
0
 10
1738.56005859375
 20
682.52001953125
 42
-0
  0
VERTEX
  8
0
 10
1738.56005859375
 20
762.52001953125
 42
-0
  0
VERTEX
  8
0
 10
1719.56005859375
 20
762.52001953125
 42
-0
  0
VERTEX
  8
0
 10
1692.766845703125
 20
737.00274658203125
 42
0.42857092618942261
  0
VERTEX
  8
0
 10
1692.7669677734375
 20
708.0372314453125
 42
0
  0
VERTEX
  8
0
 10
1719.56005859375
 20
682.52001953125
 42
0
  0
SEQEND
  0
POLYLINE
  8
0
 10
0
 20
0
 39
0
 70
1
 66
1
  0
VERTEX
  8
0
 10
1688.5400390625
 20
358.05999755859375
 42
-0
  0
VERTEX
  8
0
 10
1688.5400390625
 20
278.05999755859375
 42
-0
  0
VERTEX
  8
0
 10
1707.5400390625
 20
278.05999755859375
 42
-0
  0
VERTEX
  8
0
 10
1734.3331298828125
 20
303.57723999023437
 42
0.42857092618942261
  0
VERTEX
  8
0
 10
1734.3331298828125
 20
332.54275512695312
 42
0
  0
VERTEX
  8
0
 10
1707.5400390625
 20
358.05999755859375
 42
0
  0
SEQEND
  0
POLYLINE
  8
0
 10
0
 20
0
 39
0
 70
1
 66
1
  0
VERTEX
  8
0
 10
1747.56005859375
 20
506.48001098632812
 42
-0
  0
VERTEX
  8
0
 10
1747.56005859375
 20
586.47998046875
 42
-0
  0
VERTEX
  8
0
 10
1728.56005859375
 20
586.47998046875
 42
-0
  0
VERTEX
  8
0
 10
1701.766845703125
 20
560.9627685546875
 42
0.42857092618942261
  0
VERTEX
  8
0
 10
1701.7669677734375
 20
531.99725341796875
 42
0
  0
VERTEX
  8
0
 10
1728.56005859375
 20
506.48001098632812
 42
0
  0
SEQEND
  0
POLYLINE
  8
0
 10
0
 20
0
 39
0
 70
1
 66
1
  0
VERTEX
  8
0
 10
1752.9599609375
 20
347.3599853515625
 42
-0
  0
VERTEX
  8
0
 10
1752.9599609375
 20
427.3599853515625
 42
-0
  0
VERTEX
  8
0
 10
1733.9599609375
 20
427.3599853515625
 42
-0
  0
VERTEX
  8
0
 10
1707.1668701171875
 20
401.84274291992187
 42
0.42857092618942261
  0
VERTEX
  8
0
 10
1707.1668701171875
 20
372.87722778320312
 42
0
  0
VERTEX
  8
0
 10
1733.9599609375
 20
347.3599853515625
 42
0
  0
SEQEND
  0
POLYLINE
  8
0
 10
0
 20
0
 39
0
 70
1
 66
1
  0
VERTEX
  8
0
 10
1688.5400390625
 20
10.220000267028809
 42
-0
  0
VERTEX
  8
0
 10
1768.5400390625
 20
10.220000267028809
 42
-0
  0
VERTEX
  8
0
 10
1768.5400390625
 20
29.219999313354492
 42
-0
  0
VERTEX
  8
0
 10
1743.022705078125
 20
56.013153076171875
 42
0.42857092618942261
  0
VERTEX
  8
0
 10
1714.0572509765625
 20
56.013092041015625
 42
0
  0
VERTEX
  8
0
 10
1688.5400390625
 20
29.219999313354492
 42
0
  0
SEQEND
  0
POLYLINE
  8
0
 10
0
 20
0
 39
0
 70
1
 66
1
  0
VERTEX
  8
0
 10
1776.5400390625
 20
759.02001953125
 42
-0
  0
VERTEX
  8
0
 10
1776.5400390625
 20
839.02001953125
 42
-0
  0
VERTEX
  8
0
 10
1757.5400390625
 20
839.02001953125
 42
-0
  0
VERTEX
  8
0
 10
1730.746826171875
 20
813.50274658203125
 42
0.42857092618942261
  0
VERTEX
  8
0
 10
1730.7469482421875
 20
784.5372314453125
 42
0
  0
VERTEX
  8
0
 10
1757.5400390625
 20
759.02001953125
 42
0
  0
SEQEND
  0
POLYLINE
  8
0
 10
0
 20
0
 39
0
 70
1
 66
1
  0
VERTEX
  8
0
 10
1781.5799560546875
 20
586.760009765625
 42
-0
  0
VERTEX
  8
0
 10
1781.5799560546875
 20
666.760009765625
 42
-0
  0
VERTEX
  8
0
 10
1762.5799560546875
 20
666.760009765625
 42
-0
  0
VERTEX
  8
0
 10
1735.786865234375
 20
641.24273681640625
 42
0.42857092618942261
  0
VERTEX
  8
0
 10
1735.786865234375
 20
612.2772216796875
 42
0
  0
VERTEX
  8
0
 10
1762.5799560546875
 20
586.760009765625
 42
0
  0
SEQEND
  0
POLYLINE
  8
0
 10
0
 20
0
 39
0
 70
1
 66
1
  0
VERTEX
  8
0
 10
1785
 20
429.44000244140625
 42
-0
  0
VERTEX
  8
0
 10
1785
 20
509.44000244140625
 42
-0
  0
VERTEX
  8
0
 10
1766
 20
509.44000244140625
 42
-0
  0
VERTEX
  8
0
 10
1739.2069091796875
 20
483.92276000976563
 42
0.42857092618942261
  0
VERTEX
  8
0
 10
1739.2069091796875
 20
454.95724487304687
 42
0
  0
VERTEX
  8
0
 10
1766
 20
429.44000244140625
 42
0
  0
SEQEND
  0
POLYLINE
  8
0
 10
0
 20
0
 39
0
 70
1
 66
1
  0
VERTEX
  8
0
 10
1788.239990234375
 20
129.74000549316406
 42
-0
  0
VERTEX
  8
0
 10
1788.239990234375
 20
209.74000549316406
 42
-0
  0
VERTEX
  8
0
 10
1769.239990234375
 20
209.74000549316406
 42
-0
  0
VERTEX
  8
0
 10
1742.4468994140625
 20
184.22276306152344
 42
0.42857092618942261
  0
VERTEX
  8
0
 10
1742.4468994140625
 20
155.25723266601562
 42
0
  0
VERTEX
  8
0
 10
1769.239990234375
 20
129.74000549316406
 42
0
  0
SEQEND
  0
POLYLINE
  8
0
 10
0
 20
0
 39
0
 70
1
 66
1
  0
VERTEX
  8
0
 10
120.55999755859375
 20
804.20001220703125
 42
-0
  0
VERTEX
  8
0
 10
145.55999755859375
 20
804.20001220703125
 42
-0
  0
VERTEX
  8
0
 10
145.55999755859375
 20
871.20001220703125
 42
0.41421356797218323
  0
VERTEX
  8
0
 10
142.55999755859375
 20
874.20001220703125
 42
-0
  0
VERTEX
  8
0
 10
123.55999755859375
 20
874.20001220703125
 42
0.41421356797218323
  0
VERTEX
  8
0
 10
120.55999755859375
 20
871.20001220703125
 42
-0
  0
SEQEND
  0
POLYLINE
  8
0
 10
0
 20
0
 39
0
 70
1
 66
1
  0
VERTEX
  8
0
 10
420.42001342773437
 20
526.6400146484375
 42
-0
  0
VERTEX
  8
0
 10
420.42001342773437
 20
551.6400146484375
 42
-0
  0
VERTEX
  8
0
 10
353.42001342773437
 20
551.6400146484375
 42
0.41421356797218323
  0
VERTEX
  8
0
 10
350.42001342773437
 20
548.6400146484375
 42
-0
  0
VERTEX
  8
0
 10
350.42001342773437
 20
529.6400146484375
 42
0.41421356797218323
  0
VERTEX
  8
0
 10
353.42001342773437
 20
526.6400146484375
 42
-0
  0
SEQEND
  0
POLYLINE
  8
0
 10
0
 20
0
 39
0
 70
1
 66
1
  0
VERTEX
  8
0
 10
589.260009765625
 20
863.96002197265625
 42
-0
  0
VERTEX
  8
0
 10
589.260009765625
 20
888.96002197265625
 42
-0
  0
VERTEX
  8
0
 10
522.260009765625
 20
888.96002197265625
 42
0.41421356797218323
  0
VERTEX
  8
0
 10
519.260009765625
 20
885.96002197265625
 42
-0
  0
VERTEX
  8
0
 10
519.260009765625
 20
866.96002197265625
 42
0.41421356797218323
  0
VERTEX
  8
0
 10
522.260009765625
 20
863.96002197265625
 42
-0
  0
SEQEND
  0
POLYLINE
  8
0
 10
0
 20
0
 39
0
 70
1
 66
1
  0
VERTEX
  8
0
 10
669.53997802734375
 20
863.96002197265625
 42
-0
  0
VERTEX
  8
0
 10
669.53997802734375
 20
888.96002197265625
 42
-0
  0
VERTEX
  8
0
 10
602.53997802734375
 20
888.96002197265625
 42
0.41421356797218323
  0
VERTEX
  8
0
 10
599.53997802734375
 20
885.96002197265625
 42
-0
  0
VERTEX
  8
0
 10
599.53997802734375
 20
866.96002197265625
 42
0.41421356797218323
  0
VERTEX
  8
0
 10
602.53997802734375
 20
863.96002197265625
 42
-0
  0
SEQEND
  0
POLYLINE
  8
0
 10
0
 20
0
 39
0
 70
1
 66
1
  0
VERTEX
  8
0
 10
749.82000732421875
 20
863.96002197265625
 42
-0
  0
VERTEX
  8
0
 10
749.82000732421875
 20
888.96002197265625
 42
-0
  0
VERTEX
  8
0
 10
682.82000732421875
 20
888.96002197265625
 42
0.41421356797218323
  0
VERTEX
  8
0
 10
679.82000732421875
 20
885.96002197265625
 42
-0
  0
VERTEX
  8
0
 10
679.82000732421875
 20
866.96002197265625
 42
0.41421356797218323
  0
VERTEX
  8
0
 10
682.82000732421875
 20
863.96002197265625
 42
-0
  0
SEQEND
  0
POLYLINE
  8
0
 10
0
 20
0
 39
0
 70
1
 66
1
  0
VERTEX
  8
0
 10
830.0999755859375
 20
863.96002197265625
 42
-0
  0
VERTEX
  8
0
 10
830.0999755859375
 20
888.96002197265625
 42
-0
  0
VERTEX
  8
0
 10
763.0999755859375
 20
888.96002197265625
 42
0.41421356797218323
  0
VERTEX
  8
0
 10
760.0999755859375
 20
885.96002197265625
 42
-0
  0
VERTEX
  8
0
 10
760.0999755859375
 20
866.96002197265625
 42
0.41421356797218323
  0
VERTEX
  8
0
 10
763.0999755859375
 20
863.96002197265625
 42
-0
  0
SEQEND
  0
POLYLINE
  8
0
 10
0
 20
0
 39
0
 70
1
 66
1
  0
VERTEX
  8
0
 10
910.55999755859375
 20
863.96002197265625
 42
-0
  0
VERTEX
  8
0
 10
910.55999755859375
 20
888.96002197265625
 42
-0
  0
VERTEX
  8
0
 10
843.55999755859375
 20
888.96002197265625
 42
0.41421356797218323
  0
VERTEX
  8
0
 10
840.55999755859375
 20
885.96002197265625
 42
-0
  0
VERTEX
  8
0
 10
840.55999755859375
 20
866.96002197265625
 42
0.41421356797218323
  0
VERTEX
  8
0
 10
843.55999755859375
 20
863.96002197265625
 42
-0
  0
SEQEND
  0
POLYLINE
  8
0
 10
0
 20
0
 39
0
 70
1
 66
1
  0
VERTEX
  8
0
 10
990.84002685546875
 20
863.96002197265625
 42
-0
  0
VERTEX
  8
0
 10
990.84002685546875
 20
888.96002197265625
 42
-0
  0
VERTEX
  8
0
 10
923.84002685546875
 20
888.96002197265625
 42
0.41421356797218323
  0
VERTEX
  8
0
 10
920.84002685546875
 20
885.96002197265625
 42
-0
  0
VERTEX
  8
0
 10
920.84002685546875
 20
866.96002197265625
 42
0.41421356797218323
  0
VERTEX
  8
0
 10
923.84002685546875
 20
863.96002197265625
 42
-0
  0
SEQEND
  0
POLYLINE
  8
0
 10
0
 20
0
 39
0
 70
1
 66
1
  0
VERTEX
  8
0
 10
1184.52001953125
 20
860.3599853515625
 42
-0
  0
VERTEX
  8
0
 10
1184.52001953125
 20
885.3599853515625
 42
-0
  0
VERTEX
  8
0
 10
1117.52001953125
 20
885.3599853515625
 42
0.41421356797218323
  0
VERTEX
  8
0
 10
1114.52001953125
 20
882.3599853515625
 42
-0
  0
VERTEX
  8
0
 10
1114.52001953125
 20
863.3599853515625
 42
0.41421356797218323
  0
VERTEX
  8
0
 10
1117.52001953125
 20
860.3599853515625
 42
-0
  0
SEQEND
  0
POLYLINE
  8
0
 10
0
 20
0
 39
0
 70
1
 66
1
  0
VERTEX
  8
0
 10
1264.800048828125
 20
860.3599853515625
 42
-0
  0
VERTEX
  8
0
 10
1264.800048828125
 20
885.3599853515625
 42
-0
  0
VERTEX
  8
0
 10
1197.800048828125
 20
885.3599853515625
 42
0.41421356797218323
  0
VERTEX
  8
0
 10
1194.800048828125
 20
882.3599853515625
 42
-0
  0
VERTEX
  8
0
 10
1194.800048828125
 20
863.3599853515625
 42
0.41421356797218323
  0
VERTEX
  8
0
 10
1197.800048828125
 20
860.3599853515625
 42
-0
  0
SEQEND
  0
POLYLINE
  8
0
 10
0
 20
0
 39
0
 70
1
 66
1
  0
VERTEX
  8
0
 10
1345.0799560546875
 20
860.3599853515625
 42
-0
  0
VERTEX
  8
0
 10
1345.0799560546875
 20
885.3599853515625
 42
-0
  0
VERTEX
  8
0
 10
1278.0799560546875
 20
885.3599853515625
 42
0.41421356797218323
  0
VERTEX
  8
0
 10
1275.0799560546875
 20
882.3599853515625
 42
-0
  0
VERTEX
  8
0
 10
1275.0799560546875
 20
863.3599853515625
 42
0.41421356797218323
  0
VERTEX
  8
0
 10
1278.0799560546875
 20
860.3599853515625
 42
-0
  0
SEQEND
  0
POLYLINE
  8
0
 10
0
 20
0
 39
0
 70
1
 66
1
  0
VERTEX
  8
0
 10
1425.3599853515625
 20
860.3599853515625
 42
-0
  0
VERTEX
  8
0
 10
1425.3599853515625
 20
885.3599853515625
 42
-0
  0
VERTEX
  8
0
 10
1358.3599853515625
 20
885.3599853515625
 42
0.41421356797218323
  0
VERTEX
  8
0
 10
1355.3599853515625
 20
882.3599853515625
 42
-0
  0
VERTEX
  8
0
 10
1355.3599853515625
 20
863.3599853515625
 42
0.41421356797218323
  0
VERTEX
  8
0
 10
1358.3599853515625
 20
860.3599853515625
 42
-0
  0
SEQEND
  0
POLYLINE
  8
0
 10
0
 20
0
 39
0
 70
1
 66
1
  0
VERTEX
  8
0
 10
1505.6400146484375
 20
860.3599853515625
 42
-0
  0
VERTEX
  8
0
 10
1505.6400146484375
 20
885.3599853515625
 42
-0
  0
VERTEX
  8
0
 10
1438.6400146484375
 20
885.3599853515625
 42
0.41421356797218323
  0
VERTEX
  8
0
 10
1435.6400146484375
 20
882.3599853515625
 42
-0
  0
VERTEX
  8
0
 10
1435.6400146484375
 20
863.3599853515625
 42
0.41421356797218323
  0
VERTEX
  8
0
 10
1438.6400146484375
 20
860.3599853515625
 42
-0
  0
SEQEND
  0
POLYLINE
  8
0
 10
0
 20
0
 39
0
 70
1
 66
1
  0
VERTEX
  8
0
 10
1585.9200439453125
 20
863.41998291015625
 42
-0
  0
VERTEX
  8
0
 10
1585.9200439453125
 20
888.41998291015625
 42
-0
  0
VERTEX
  8
0
 10
1518.9200439453125
 20
888.41998291015625
 42
0.41421356797218323
  0
VERTEX
  8
0
 10
1515.9200439453125
 20
885.41998291015625
 42
-0
  0
VERTEX
  8
0
 10
1515.9200439453125
 20
866.41998291015625
 42
0.41421356797218323
  0
VERTEX
  8
0
 10
1518.9200439453125
 20
863.41998291015625
 42
-0
  0
SEQEND
  0
POLYLINE
  8
0
 10
0
 20
0
 39
0
 70
1
 66
1
  0
VERTEX
  8
0
 10
1744.1600341796875
 20
219.91999816894531
 42
-0
  0
VERTEX
  8
0
 10
1769.1600341796875
 20
219.91999816894531
 42
-0
  0
VERTEX
  8
0
 10
1769.1600341796875
 20
286.92001342773437
 42
0.41421356797218323
  0
VERTEX
  8
0
 10
1766.1600341796875
 20
289.92001342773437
 42
-0
  0
VERTEX
  8
0
 10
1747.1600341796875
 20
289.92001342773437
 42
0.41421356797218323
  0
VERTEX
  8
0
 10
1744.1600341796875
 20
286.92001342773437
 42
-0
  0
SEQEND
  0
POLYLINE
  8
0
 10
0
 20
0
 39
0
 70
1
 66
1
  0
VERTEX
  8
0
 10
1748.8399658203125
 20
676.94000244140625
 42
-0
  0
VERTEX
  8
0
 10
1773.8399658203125
 20
676.94000244140625
 42
-0
  0
VERTEX
  8
0
 10
1773.8399658203125
 20
743.94000244140625
 42
0.41421356797218323
  0
VERTEX
  8
0
 10
1770.8399658203125
 20
746.94000244140625
 42
-0
  0
VERTEX
  8
0
 10
1751.8399658203125
 20
746.94000244140625
 42
0.41421356797218323
  0
VERTEX
  8
0
 10
1748.8399658203125
 20
743.94000244140625
 42
-0
  0
SEQEND
  0
POLYLINE
  8
0
 10
0
 20
0
 39
0
 70
1
 66
1
  0
VERTEX
  8
0
 10
1786.800048828125
 20
119.63999938964844
 42
-0
  0
VERTEX
  8
0
 10
1761.800048828125
 20
119.63999938964844
 42
-0
  0
VERTEX
  8
0
 10
1761.800048828125
 20
52.639999389648438
 42
0.41421356797218323
  0
VERTEX
  8
0
 10
1764.800048828125
 20
49.639999389648438
 42
-0
  0
VERTEX
  8
0
 10
1783.800048828125
 20
49.639999389648438
 42
0.41421356797218323
  0
VERTEX
  8
0
 10
1786.800048828125
 20
52.639999389648438
 42
-0
  0
SEQEND
  0
POLYLINE
  8
0
 10
0
 20
0
 39
0
 70
1
 66
1
  0
VERTEX
  8
0
 10
1763.239990234375
 20
300.01998901367187
 42
-0
  0
VERTEX
  8
0
 10
1788.239990234375
 20
300.01998901367187
 42
-0
  0
VERTEX
  8
0
 10
1788.239990234375
 20
367.01998901367187
 42
0.41421356797218323
  0
VERTEX
  8
0
 10
1785.239990234375
 20
370.01998901367187
 42
-0
  0
VERTEX
  8
0
 10
1766.239990234375
 20
370.01998901367187
 42
0.41421356797218323
  0
VERTEX
  8
0
 10
1763.239990234375
 20
367.01998901367187
 42
-0
  0
SEQEND
  0
ENDSEC
  0
EOF
