  0
SECTION
  2
ENTITIES
  0
POLYLINE
  8
0
 10
0
 20
0
 39
0
 70
1
 66
1
  0
VERTEX
  8
0
 10
0
 20
0
 42
0
  0
VERTEX
  8
0
 10
3600
 20
0
 42
0
  0
VERTEX
  8
0
 10
3600
 20
1500
 42
0
  0
VERTEX
  8
0
 10
0
 20
1500
 42
0
  0
SEQEND
  0
POLYLINE
  8
0
 10
0
 20
0
 39
0
 70
1
 66
1
  0
VERTEX
  8
0
 10
276.39999389648438
 20
10.399999618530273
 42
-0
  0
VERTEX
  8
0
 10
276.39999389648438
 20
430.39999389648437
 42
0
  0
VERTEX
  8
0
 10
10.399999618530273
 20
310.39999389648437
 42
0
  0
VERTEX
  8
0
 10
10.399999618530273
 20
10.399999618530273
 42
0
  0
SEQEND
  0
POLYLINE
  8
0
 10
0
 20
0
 39
0
 70
1
 66
1
  0
VERTEX
  8
0
 10
10.399999618530273
 20
741.93499755859375
 42
-0
  0
VERTEX
  8
0
 10
10.399999618530273
 20
321.93499755859375
 42
0
  0
VERTEX
  8
0
 10
276.39999389648438
 20
441.93499755859375
 42
0
  0
VERTEX
  8
0
 10
276.39999389648438
 20
741.93499755859375
 42
0
  0
SEQEND
  0
POLYLINE
  8
0
 10
0
 20
0
 39
0
 70
1
 66
1
  0
VERTEX
  8
0
 10
276.39999389648438
 20
752
 42
-0
  0
VERTEX
  8
0
 10
276.39999389648438
 20
1172
 42
0
  0
VERTEX
  8
0
 10
10.399999618530273
 20
1052
 42
0
  0
VERTEX
  8
0
 10
10.399999618530273
 20
752
 42
0
  0
SEQEND
  0
POLYLINE
  8
0
 10
0
 20
0
 39
0
 70
1
 66
1
  0
VERTEX
  8
0
 10
10.399999618530273
 20
1483.5350341796875
 42
-0
  0
VERTEX
  8
0
 10
10.399999618530273
 20
1063.5350341796875
 42
0
  0
VERTEX
  8
0
 10
276.39999389648438
 20
1183.5350341796875
 42
0
  0
VERTEX
  8
0
 10
276.39999389648438
 20
1483.5350341796875
 42
0
  0
SEQEND
  0
POLYLINE
  8
0
 10
0
 20
0
 39
0
 70
1
 66
1
  0
VERTEX
  8
0
 10
552.8800048828125
 20
10.399999618530273
 42
-0
  0
VERTEX
  8
0
 10
552.8800048828125
 20
430.39999389648437
 42
0
  0
VERTEX
  8
0
 10
286.8800048828125
 20
310.39999389648437
 42
0
  0
VERTEX
  8
0
 10
286.8800048828125
 20
10.399999618530273
 42
0
  0
SEQEND
  0
POLYLINE
  8
0
 10
0
 20
0
 39
0
 70
1
 66
1
  0
VERTEX
  8
0
 10
286.8800048828125
 20
741.93499755859375
 42
-0
  0
VERTEX
  8
0
 10
286.8800048828125
 20
321.93499755859375
 42
0
  0
VERTEX
  8
0
 10
552.8800048828125
 20
441.93499755859375
 42
0
  0
VERTEX
  8
0
 10
552.8800048828125
 20
741.93499755859375
 42
0
  0
SEQEND
  0
POLYLINE
  8
0
 10
0
 20
0
 39
0
 70
1
 66
1
  0
VERTEX
  8
0
 10
552.8800048828125
 20
752
 42
-0
  0
VERTEX
  8
0
 10
552.8800048828125
 20
1172
 42
0
  0
VERTEX
  8
0
 10
286.8800048828125
 20
1052
 42
0
  0
VERTEX
  8
0
 10
286.8800048828125
 20
752
 42
0
  0
SEQEND
  0
POLYLINE
  8
0
 10
0
 20
0
 39
0
 70
1
 66
1
  0
VERTEX
  8
0
 10
286.8800048828125
 20
1483.5350341796875
 42
-0
  0
VERTEX
  8
0
 10
286.8800048828125
 20
1063.5350341796875
 42
0
  0
VERTEX
  8
0
 10
552.8800048828125
 20
1183.5350341796875
 42
0
  0
VERTEX
  8
0
 10
552.8800048828125
 20
1483.5350341796875
 42
0
  0
SEQEND
  0
POLYLINE
  8
0
 10
0
 20
0
 39
0
 70
1
 66
1
  0
VERTEX
  8
0
 10
829.3599853515625
 20
10.399999618530273
 42
-0
  0
VERTEX
  8
0
 10
829.3599853515625
 20
430.39999389648437
 42
0
  0
VERTEX
  8
0
 10
563.3599853515625
 20
310.39999389648437
 42
0
  0
VERTEX
  8
0
 10
563.3599853515625
 20
10.399999618530273
 42
0
  0
SEQEND
  0
POLYLINE
  8
0
 10
0
 20
0
 39
0
 70
1
 66
1
  0
VERTEX
  8
0
 10
563.3599853515625
 20
741.93499755859375
 42
-0
  0
VERTEX
  8
0
 10
563.3599853515625
 20
321.93499755859375
 42
0
  0
VERTEX
  8
0
 10
829.3599853515625
 20
441.93499755859375
 42
0
  0
VERTEX
  8
0
 10
829.3599853515625
 20
741.93499755859375
 42
0
  0
SEQEND
  0
POLYLINE
  8
0
 10
0
 20
0
 39
0
 70
1
 66
1
  0
VERTEX
  8
0
 10
829.3599853515625
 20
752
 42
-0
  0
VERTEX
  8
0
 10
829.3599853515625
 20
1172
 42
0
  0
VERTEX
  8
0
 10
563.3599853515625
 20
1052
 42
0
  0
VERTEX
  8
0
 10
563.3599853515625
 20
752
 42
0
  0
SEQEND
  0
POLYLINE
  8
0
 10
0
 20
0
 39
0
 70
1
 66
1
  0
VERTEX
  8
0
 10
563.3599853515625
 20
1483.5350341796875
 42
-0
  0
VERTEX
  8
0
 10
563.3599853515625
 20
1063.5350341796875
 42
0
  0
VERTEX
  8
0
 10
829.3599853515625
 20
1183.5350341796875
 42
0
  0
VERTEX
  8
0
 10
829.3599853515625
 20
1483.5350341796875
 42
0
  0
SEQEND
  0
POLYLINE
  8
0
 10
0
 20
0
 39
0
 70
1
 66
1
  0
VERTEX
  8
0
 10
1047.8399658203125
 20
10.399999618530273
 42
-0
  0
VERTEX
  8
0
 10
1047.8399658203125
 20
439.39999389648437
 42
-0
  0
VERTEX
  8
0
 10
839.84002685546875
 20
310.39999389648437
 42
0
  0
VERTEX
  8
0
 10
839.84002685546875
 20
10.399999618530273
 42
0
  0
SEQEND
  0
POLYLINE
  8
0
 10
0
 20
0
 39
0
 70
1
 66
1
  0
VERTEX
  8
0
 10
839.84002685546875
 20
751.79241943359375
 42
-0
  0
VERTEX
  8
0
 10
839.84002685546875
 20
322.79238891601562
 42
-0
  0
VERTEX
  8
0
 10
1047.8399658203125
 20
451.79238891601562
 42
0
  0
VERTEX
  8
0
 10
1047.8399658203125
 20
751.79241943359375
 42
0
  0
SEQEND
  0
POLYLINE
  8
0
 10
0
 20
0
 39
0
 70
1
 66
1
  0
VERTEX
  8
0
 10
1266.3599853515625
 20
10.399999618530273
 42
-0
  0
VERTEX
  8
0
 10
1266.3599853515625
 20
439.39999389648437
 42
-0
  0
VERTEX
  8
0
 10
1058.3599853515625
 20
310.39999389648437
 42
0
  0
VERTEX
  8
0
 10
1058.3599853515625
 20
10.399999618530273
 42
0
  0
SEQEND
  0
POLYLINE
  8
0
 10
0
 20
0
 39
0
 70
1
 66
1
  0
VERTEX
  8
0
 10
1058.3599853515625
 20
751.79241943359375
 42
-0
  0
VERTEX
  8
0
 10
1058.3599853515625
 20
322.79238891601562
 42
-0
  0
VERTEX
  8
0
 10
1266.3599853515625
 20
451.79238891601562
 42
0
  0
VERTEX
  8
0
 10
1266.3599853515625
 20
751.79241943359375
 42
0
  0
SEQEND
  0
POLYLINE
  8
0
 10
0
 20
0
 39
0
 70
1
 66
1
  0
VERTEX
  8
0
 10
1484.8800048828125
 20
10.399999618530273
 42
-0
  0
VERTEX
  8
0
 10
1484.8800048828125
 20
439.39999389648437
 42
-0
  0
VERTEX
  8
0
 10
1276.8800048828125
 20
310.39999389648437
 42
0
  0
VERTEX
  8
0
 10
1276.8800048828125
 20
10.399999618530273
 42
0
  0
SEQEND
  0
POLYLINE
  8
0
 10
0
 20
0
 39
0
 70
1
 66
1
  0
VERTEX
  8
0
 10
1276.8800048828125
 20
751.79241943359375
 42
-0
  0
VERTEX
  8
0
 10
1276.8800048828125
 20
322.79238891601562
 42
-0
  0
VERTEX
  8
0
 10
1484.8800048828125
 20
451.79238891601562
 42
0
  0
VERTEX
  8
0
 10
1484.8800048828125
 20
751.79241943359375
 42
0
  0
SEQEND
  0
POLYLINE
  8
0
 10
0
 20
0
 39
0
 70
1
 66
1
  0
VERTEX
  8
0
 10
839.84002685546875
 20
762.08001708984375
 42
-0
  0
VERTEX
  8
0
 10
1268.8399658203125
 20
762.08001708984375
 42
-0
  0
VERTEX
  8
0
 10
1139.8399658203125
 20
970.08001708984375
 42
0
  0
VERTEX
  8
0
 10
839.84002685546875
 20
970.08001708984375
 42
0
  0
SEQEND
  0
POLYLINE
  8
0
 10
0
 20
0
 39
0
 70
1
 66
1
  0
VERTEX
  8
0
 10
1581.232421875
 20
970.08001708984375
 42
-0
  0
VERTEX
  8
0
 10
1152.232421875
 20
970.08001708984375
 42
-0
  0
VERTEX
  8
0
 10
1281.232421875
 20
762.08001708984375
 42
0
  0
VERTEX
  8
0
 10
1581.232421875
 20
762.08001708984375
 42
0
  0
SEQEND
  0
POLYLINE
  8
0
 10
0
 20
0
 39
0
 70
1
 66
1
  0
VERTEX
  8
0
 10
839.84002685546875
 20
980.239990234375
 42
-0
  0
VERTEX
  8
0
 10
1268.8399658203125
 20
980.239990234375
 42
-0
  0
VERTEX
  8
0
 10
1139.8399658203125
 20
1188.239990234375
 42
0
  0
VERTEX
  8
0
 10
839.84002685546875
 20
1188.239990234375
 42
0
  0
SEQEND
  0
POLYLINE
  8
0
 10
0
 20
0
 39
0
 70
1
 66
1
  0
VERTEX
  8
0
 10
1581.232421875
 20
1188.239990234375
 42
-0
  0
VERTEX
  8
0
 10
1152.232421875
 20
1188.239990234375
 42
-0
  0
VERTEX
  8
0
 10
1281.232421875
 20
980.239990234375
 42
0
  0
VERTEX
  8
0
 10
1581.232421875
 20
980.239990234375
 42
0
  0
SEQEND
  0
POLYLINE
  8
0
 10
0
 20
0
 39
0
 70
1
 66
1
  0
VERTEX
  8
0
 10
839.84002685546875
 20
1198.4000244140625
 42
-0
  0
VERTEX
  8
0
 10
1268.8399658203125
 20
1198.4000244140625
 42
-0
  0
VERTEX
  8
0
 10
1139.8399658203125
 20
1406.4000244140625
 42
0
  0
VERTEX
  8
0
 10
839.84002685546875
 20
1406.4000244140625
 42
0
  0
SEQEND
  0
POLYLINE
  8
0
 10
0
 20
0
 39
0
 70
1
 66
1
  0
VERTEX
  8
0
 10
1581.232421875
 20
1406.4000244140625
 42
-0
  0
VERTEX
  8
0
 10
1152.232421875
 20
1406.4000244140625
 42
-0
  0
VERTEX
  8
0
 10
1281.232421875
 20
1198.4000244140625
 42
0
  0
VERTEX
  8
0
 10
1581.232421875
 20
1198.4000244140625
 42
0
  0
SEQEND
  0
POLYLINE
  8
0
 10
0
 20
0
 39
0
 70
1
 66
1
  0
VERTEX
  8
0
 10
1495.4000244140625
 20
10.399999618530273
 42
-0
  0
VERTEX
  8
0
 10
1705.4000244140625
 20
10.399999618530273
 42
-0
  0
VERTEX
  8
0
 10
1705.4000244140625
 20
430.39999389648437
 42
0
  0
VERTEX
  8
0
 10
1495.4000244140625
 20
220.39999389648437
 42
0
  0
SEQEND
  0
POLYLINE
  8
0
 10
0
 20
0
 39
0
 70
1
 66
1
  0
VERTEX
  8
0
 10
1705.4000244140625
 20
654.989013671875
 42
-0
  0
VERTEX
  8
0
 10
1495.4000244140625
 20
654.989013671875
 42
-0
  0
VERTEX
  8
0
 10
1495.4000244140625
 20
234.98899841308594
 42
0
  0
VERTEX
  8
0
 10
1705.4000244140625
 20
444.989013671875
 42
0
  0
SEQEND
  0
POLYLINE
  8
0
 10
0
 20
0
 39
0
 70
1
 66
1
  0
VERTEX
  8
0
 10
1591.8800048828125
 20
665.239990234375
 42
-0
  0
VERTEX
  8
0
 10
1801.8800048828125
 20
665.239990234375
 42
-0
  0
VERTEX
  8
0
 10
1801.8800048828125
 20
1085.239990234375
 42
0
  0
VERTEX
  8
0
 10
1591.8800048828125
 20
875.239990234375
 42
0
  0
SEQEND
  0
POLYLINE
  8
0
 10
0
 20
0
 39
0
 70
1
 66
1
  0
VERTEX
  8
0
 10
1801.8800048828125
 20
1309.8289794921875
 42
-0
  0
VERTEX
  8
0
 10
1591.8800048828125
 20
1309.8289794921875
 42
-0
  0
VERTEX
  8
0
 10
1591.8800048828125
 20
889.8289794921875
 42
0
  0
VERTEX
  8
0
 10
1801.8800048828125
 20
1099.8289794921875
 42
0
  0
SEQEND
  0
POLYLINE
  8
0
 10
0
 20
0
 39
0
 70
1
 66
1
  0
VERTEX
  8
0
 10
1716.0799560546875
 20
10.399999618530273
 42
-0
  0
VERTEX
  8
0
 10
1926.0799560546875
 20
10.399999618530273
 42
-0
  0
VERTEX
  8
0
 10
1926.0799560546875
 20
430.39999389648437
 42
0
  0
VERTEX
  8
0
 10
1716.0799560546875
 20
220.39999389648437
 42
0
  0
SEQEND
  0
POLYLINE
  8
0
 10
0
 20
0
 39
0
 70
1
 66
1
  0
VERTEX
  8
0
 10
1926.0799560546875
 20
654.989013671875
 42
-0
  0
VERTEX
  8
0
 10
1716.0799560546875
 20
654.989013671875
 42
-0
  0
VERTEX
  8
0
 10
1716.0799560546875
 20
234.98899841308594
 42
0
  0
VERTEX
  8
0
 10
1926.0799560546875
 20
444.989013671875
 42
0
  0
SEQEND
  0
POLYLINE
  8
0
 10
0
 20
0
 39
0
 70
1
 66
1
  0
VERTEX
  8
0
 10
1812.56005859375
 20
665.239990234375
 42
-0
  0
VERTEX
  8
0
 10
2022.56005859375
 20
665.239990234375
 42
-0
  0
VERTEX
  8
0
 10
2022.56005859375
 20
1085.239990234375
 42
0
  0
VERTEX
  8
0
 10
1812.56005859375
 20
875.239990234375
 42
0
  0
SEQEND
  0
POLYLINE
  8
0
 10
0
 20
0
 39
0
 70
1
 66
1
  0
VERTEX
  8
0
 10
2022.56005859375
 20
1309.8289794921875
 42
-0
  0
VERTEX
  8
0
 10
1812.56005859375
 20
1309.8289794921875
 42
-0
  0
VERTEX
  8
0
 10
1812.56005859375
 20
889.8289794921875
 42
0
  0
VERTEX
  8
0
 10
2022.56005859375
 20
1099.8289794921875
 42
0
  0
SEQEND
  0
POLYLINE
  8
0
 10
0
 20
0
 39
0
 70
1
 66
1
  0
VERTEX
  8
0
 10
1936.760009765625
 20
10.399999618530273
 42
-0
  0
VERTEX
  8
0
 10
2146.760009765625
 20
10.399999618530273
 42
-0
  0
VERTEX
  8
0
 10
2146.760009765625
 20
430.39999389648437
 42
0
  0
VERTEX
  8
0
 10
1936.760009765625
 20
220.39999389648437
 42
0
  0
SEQEND
  0
POLYLINE
  8
0
 10
0
 20
0
 39
0
 70
1
 66
1
  0
VERTEX
  8
0
 10
2146.760009765625
 20
654.989013671875
 42
-0
  0
VERTEX
  8
0
 10
1936.760009765625
 20
654.989013671875
 42
-0
  0
VERTEX
  8
0
 10
1936.760009765625
 20
234.98899841308594
 42
0
  0
VERTEX
  8
0
 10
2146.760009765625
 20
444.989013671875
 42
0
  0
SEQEND
  0
POLYLINE
  8
0
 10
0
 20
0
 39
0
 70
1
 66
1
  0
VERTEX
  8
0
 10
2033.239990234375
 20
665.239990234375
 42
-0
  0
VERTEX
  8
0
 10
2243.239990234375
 20
665.239990234375
 42
-0
  0
VERTEX
  8
0
 10
2243.239990234375
 20
1085.239990234375
 42
0
  0
VERTEX
  8
0
 10
2033.239990234375
 20
875.239990234375
 42
0
  0
SEQEND
  0
POLYLINE
  8
0
 10
0
 20
0
 39
0
 70
1
 66
1
  0
VERTEX
  8
0
 10
2243.239990234375
 20
1309.8289794921875
 42
-0
  0
VERTEX
  8
0
 10
2033.239990234375
 20
1309.8289794921875
 42
-0
  0
VERTEX
  8
0
 10
2033.239990234375
 20
889.8289794921875
 42
0
  0
VERTEX
  8
0
 10
2243.239990234375
 20
1099.8289794921875
 42
0
  0
SEQEND
  0
POLYLINE
  8
0
 10
0
 20
0
 39
0
 70
1
 66
1
  0
VERTEX
  8
0
 10
2276.0048828125
 20
10.399999618530273
 42
-0
  0
VERTEX
  8
0
 10
2388.92822265625
 20
10.399999618530273
 42
0.22925832867622375
  0
VERTEX
  8
0
 10
2390.019287109375
 20
294.422607421875
 42
0
  0
VERTEX
  8
0
 10
2157.43994140625
 20
294.422607421875
 42
0
  0
VERTEX
  8
0
 10
2157.43994140625
 20
129.422607421875
 42
0
  0
SEQEND
  0
POLYLINE
  8
0
 10
0
 20
0
 39
0
 70
1
 66
1
  0
VERTEX
  8
0
 10
2276.0048828125
 20
304.51998901367187
 42
-0
  0
VERTEX
  8
0
 10
2388.92822265625
 20
304.51998901367187
 42
0.22925832867622375
  0
VERTEX
  8
0
 10
2390.019287109375
 20
588.5426025390625
 42
0
  0
VERTEX
  8
0
 10
2157.43994140625
 20
588.5426025390625
 42
0
  0
VERTEX
  8
0
 10
2157.43994140625
 20
423.5426025390625
 42
0
  0
SEQEND
  0
POLYLINE
  8
0
 10
0
 20
0
 39
0
 70
1
 66
1
  0
VERTEX
  8
0
 10
2362.764892578125
 20
1205.239990234375
 42
-0
  0
VERTEX
  8
0
 10
2475.688232421875
 20
1205.239990234375
 42
0.22925832867622375
  0
VERTEX
  8
0
 10
2476.779296875
 20
1489.2625732421875
 42
0
  0
VERTEX
  8
0
 10
2244.199951171875
 20
1489.2625732421875
 42
0
  0
VERTEX
  8
0
 10
2244.199951171875
 20
1324.2625732421875
 42
0
  0
SEQEND
  0
POLYLINE
  8
0
 10
0
 20
0
 39
0
 70
1
 66
1
  0
VERTEX
  8
0
 10
2372.48486328125
 20
598.6400146484375
 42
-0
  0
VERTEX
  8
0
 10
2485.408203125
 20
598.6400146484375
 42
0.22925832867622375
  0
VERTEX
  8
0
 10
2486.499267578125
 20
882.66259765625
 42
0
  0
VERTEX
  8
0
 10
2253.919921875
 20
882.66259765625
 42
0
  0
VERTEX
  8
0
 10
2253.919921875
 20
717.66259765625
 42
0
  0
SEQEND
  0
POLYLINE
  8
0
 10
0
 20
0
 39
0
 70
1
 66
1
  0
VERTEX
  8
0
 10
2372.48486328125
 20
892.760009765625
 42
-0
  0
VERTEX
  8
0
 10
2485.408203125
 20
892.760009765625
 42
0.22925832867622375
  0
VERTEX
  8
0
 10
2486.499267578125
 20
1176.7825927734375
 42
0
  0
VERTEX
  8
0
 10
2253.919921875
 20
1176.7825927734375
 42
0
  0
VERTEX
  8
0
 10
2253.919921875
 20
1011.7825927734375
 42
0
  0
SEQEND
  0
POLYLINE
  8
0
 10
0
 20
0
 39
0
 70
1
 66
1
  0
VERTEX
  8
0
 10
2181.8798828125
 20
1320.0799560546875
 42
-0
  0
VERTEX
  8
0
 10
2181.8798828125
 20
1440.0799560546875
 42
-0
  0
VERTEX
  8
0
 10
1591.8800048828125
 20
1440.0799560546875
 42
-0
  0
VERTEX
  8
0
 10
1591.8800048828125
 20
1320.0799560546875
 42
0
  0
SEQEND
  0
POLYLINE
  8
0
 10
0
 20
0
 39
0
 70
1
 66
1
  0
VERTEX
  8
0
 10
2498.360107421875
 20
10.399999618530273
 42
-0
  0
VERTEX
  8
0
 10
2618.360107421875
 20
10.399999618530273
 42
-0
  0
VERTEX
  8
0
 10
2618.360107421875
 20
600.4000244140625
 42
-0
  0
VERTEX
  8
0
 10
2498.360107421875
 20
600.4000244140625
 42
0
  0
SEQEND
  0
POLYLINE
  8
0
 10
0
 20
0
 39
0
 70
1
 66
1
  0
VERTEX
  8
0
 10
2528.9599609375
 20
610.52001953125
 42
-0
  0
VERTEX
  8
0
 10
2648.9599609375
 20
610.52001953125
 42
-0
  0
VERTEX
  8
0
 10
2648.9599609375
 20
1200.52001953125
 42
-0
  0
VERTEX
  8
0
 10
2528.9599609375
 20
1200.52001953125
 42
0
  0
SEQEND
  0
POLYLINE
  8
0
 10
0
 20
0
 39
0
 70
1
 66
1
  0
VERTEX
  8
0
 10
2629.0400390625
 20
10.399999618530273
 42
-0
  0
VERTEX
  8
0
 10
2749.0400390625
 20
10.399999618530273
 42
-0
  0
VERTEX
  8
0
 10
2749.0400390625
 20
600.4000244140625
 42
-0
  0
VERTEX
  8
0
 10
2629.0400390625
 20
600.4000244140625
 42
0
  0
SEQEND
  0
POLYLINE
  8
0
 10
0
 20
0
 39
0
 70
1
 66
1
  0
VERTEX
  8
0
 10
2659.639892578125
 20
610.52001953125
 42
-0
  0
VERTEX
  8
0
 10
2779.639892578125
 20
610.52001953125
 42
-0
  0
VERTEX
  8
0
 10
2779.639892578125
 20
1200.52001953125
 42
-0
  0
VERTEX
  8
0
 10
2659.639892578125
 20
1200.52001953125
 42
0
  0
SEQEND
  0
POLYLINE
  8
0
 10
0
 20
0
 39
0
 70
1
 66
1
  0
VERTEX
  8
0
 10
2759.719970703125
 20
10.399999618530273
 42
-0
  0
VERTEX
  8
0
 10
2879.719970703125
 20
10.399999618530273
 42
-0
  0
VERTEX
  8
0
 10
2879.719970703125
 20
600.4000244140625
 42
-0
  0
VERTEX
  8
0
 10
2759.719970703125
 20
600.4000244140625
 42
0
  0
SEQEND
  0
POLYLINE
  8
0
 10
0
 20
0
 39
0
 70
1
 66
1
  0
VERTEX
  8
0
 10
2790.320068359375
 20
610.52001953125
 42
-0
  0
VERTEX
  8
0
 10
2910.320068359375
 20
610.52001953125
 42
-0
  0
VERTEX
  8
0
 10
2910.320068359375
 20
1200.52001953125
 42
-0
  0
VERTEX
  8
0
 10
2790.320068359375
 20
1200.52001953125
 42
0
  0
SEQEND
  0
POLYLINE
  8
0
 10
0
 20
0
 39
0
 70
1
 66
1
  0
VERTEX
  8
0
 10
2890.39990234375
 20
10.399999618530273
 42
-0
  0
VERTEX
  8
0
 10
3010.39990234375
 20
10.399999618530273
 42
-0
  0
VERTEX
  8
0
 10
3010.39990234375
 20
600.4000244140625
 42
-0
  0
VERTEX
  8
0
 10
2890.39990234375
 20
600.4000244140625
 42
0
  0
SEQEND
  0
POLYLINE
  8
0
 10
0
 20
0
 39
0
 70
1
 66
1
  0
VERTEX
  8
0
 10
2921
 20
610.52001953125
 42
-0
  0
VERTEX
  8
0
 10
3041
 20
610.52001953125
 42
-0
  0
VERTEX
  8
0
 10
3041
 20
1200.52001953125
 42
-0
  0
VERTEX
  8
0
 10
2921
 20
1200.52001953125
 42
0
  0
SEQEND
  0
POLYLINE
  8
0
 10
0
 20
0
 39
0
 70
1
 66
1
  0
VERTEX
  8
0
 10
3108.8798828125
 20
1210.6400146484375
 42
-0
  0
VERTEX
  8
0
 10
3108.8798828125
 20
1330.6400146484375
 42
-0
  0
VERTEX
  8
0
 10
2518.8798828125
 20
1330.6400146484375
 42
-0
  0
VERTEX
  8
0
 10
2518.8798828125
 20
1210.6400146484375
 42
0
  0
SEQEND
  0
POLYLINE
  8
0
 10
0
 20
0
 39
0
 70
1
 66
1
  0
VERTEX
  8
0
 10
3108.8798828125
 20
1364.3599853515625
 42
-0
  0
VERTEX
  8
0
 10
3108.8798828125
 20
1484.3599853515625
 42
-0
  0
VERTEX
  8
0
 10
2518.8798828125
 20
1484.3599853515625
 42
-0
  0
VERTEX
  8
0
 10
2518.8798828125
 20
1364.3599853515625
 42
0
  0
SEQEND
  0
POLYLINE
  8
0
 10
0
 20
0
 39
0
 70
1
 66
1
  0
VERTEX
  8
0
 10
3021.080078125
 20
10.399999618530273
 42
-0
  0
VERTEX
  8
0
 10
3141.080078125
 20
10.399999618530273
 42
-0
  0
VERTEX
  8
0
 10
3141.080078125
 20
600.4000244140625
 42
-0
  0
VERTEX
  8
0
 10
3021.080078125
 20
600.4000244140625
 42
0
  0
SEQEND
  0
POLYLINE
  8
0
 10
0
 20
0
 39
0
 70
1
 66
1
  0
VERTEX
  8
0
 10
3261.679931640625
 20
862.60382080078125
 42
-0
  0
VERTEX
  8
0
 10
3051.679931640625
 20
862.60382080078125
 42
0
  0
VERTEX
  8
0
 10
3051.679931640625
 20
669.84698486328125
 42
-0
  0
VERTEX
  8
0
 10
3156.679931640625
 20
603.67999267578125
 42
0
  0
VERTEX
  8
0
 10
3261.679931640625
 20
669.84698486328125
 42
-0
  0
SEQEND
  0
POLYLINE
  8
0
 10
0
 20
0
 39
0
 70
1
 66
1
  0
VERTEX
  8
0
 10
3261.679931640625
 20
1131.8837890625
 42
-0
  0
VERTEX
  8
0
 10
3051.679931640625
 20
1131.8837890625
 42
0
  0
VERTEX
  8
0
 10
3051.679931640625
 20
939.12701416015625
 42
-0
  0
VERTEX
  8
0
 10
3156.679931640625
 20
872.96002197265625
 42
0
  0
VERTEX
  8
0
 10
3261.679931640625
 20
939.12701416015625
 42
-0
  0
SEQEND
  0
POLYLINE
  8
0
 10
0
 20
0
 39
0
 70
1
 66
1
  0
VERTEX
  8
0
 10
3329.360107421875
 20
1401.163818359375
 42
-0
  0
VERTEX
  8
0
 10
3119.360107421875
 20
1401.163818359375
 42
0
  0
VERTEX
  8
0
 10
3119.360107421875
 20
1208.406982421875
 42
-0
  0
VERTEX
  8
0
 10
3224.360107421875
 20
1142.239990234375
 42
0
  0
VERTEX
  8
0
 10
3329.360107421875
 20
1208.406982421875
 42
-0
  0
SEQEND
  0
POLYLINE
  8
0
 10
0
 20
0
 39
0
 70
1
 66
1
  0
VERTEX
  8
0
 10
3361.760009765625
 20
269.32382202148437
 42
-0
  0
VERTEX
  8
0
 10
3151.760009765625
 20
269.32382202148437
 42
0
  0
VERTEX
  8
0
 10
3151.760009765625
 20
76.566993713378906
 42
-0
  0
VERTEX
  8
0
 10
3256.760009765625
 20
10.399999618530273
 42
0
  0
VERTEX
  8
0
 10
3361.760009765625
 20
76.566993713378906
 42
-0
  0
SEQEND
  0
POLYLINE
  8
0
 10
0
 20
0
 39
0
 70
1
 66
1
  0
VERTEX
  8
0
 10
3361.760009765625
 20
538.60382080078125
 42
-0
  0
VERTEX
  8
0
 10
3151.760009765625
 20
538.60382080078125
 42
0
  0
VERTEX
  8
0
 10
3151.760009765625
 20
345.84698486328125
 42
-0
  0
VERTEX
  8
0
 10
3256.760009765625
 20
279.67999267578125
 42
0
  0
VERTEX
  8
0
 10
3361.760009765625
 20
345.84698486328125
 42
-0
  0
SEQEND
  0
POLYLINE
  8
0
 10
0
 20
0
 39
0
 70
1
 66
1
  0
VERTEX
  8
0
 10
3482.360107421875
 20
800.683837890625
 42
-0
  0
VERTEX
  8
0
 10
3272.360107421875
 20
800.683837890625
 42
0
  0
VERTEX
  8
0
 10
3272.360107421875
 20
607.927001953125
 42
-0
  0
VERTEX
  8
0
 10
3377.360107421875
 20
541.760009765625
 42
0
  0
VERTEX
  8
0
 10
3482.360107421875
 20
607.927001953125
 42
-0
  0
SEQEND
  0
POLYLINE
  8
0
 10
0
 20
0
 39
0
 70
1
 66
1
  0
VERTEX
  8
0
 10
3482.360107421875
 20
1069.9638671875
 42
-0
  0
VERTEX
  8
0
 10
3272.360107421875
 20
1069.9638671875
 42
0
  0
VERTEX
  8
0
 10
3272.360107421875
 20
877.20697021484375
 42
-0
  0
VERTEX
  8
0
 10
3377.360107421875
 20
811.03997802734375
 42
0
  0
VERTEX
  8
0
 10
3482.360107421875
 20
877.20697021484375
 42
-0
  0
SEQEND
  0
POLYLINE
  8
0
 10
0
 20
0
 39
0
 70
1
 66
1
  0
VERTEX
  8
0
 10
3550.0400390625
 20
1339.2437744140625
 42
-0
  0
VERTEX
  8
0
 10
3340.0400390625
 20
1339.2437744140625
 42
0
  0
VERTEX
  8
0
 10
3340.0400390625
 20
1146.4869384765625
 42
-0
  0
VERTEX
  8
0
 10
3445.0400390625
 20
1080.3199462890625
 42
0
  0
VERTEX
  8
0
 10
3550.0400390625
 20
1146.4869384765625
 42
-0
  0
SEQEND
  0
POLYLINE
  8
0
 10
0
 20
0
 39
0
 70
1
 66
1
  0
VERTEX
  8
0
 10
3582.43994140625
 20
269.32382202148437
 42
-0
  0
VERTEX
  8
0
 10
3372.43994140625
 20
269.32382202148437
 42
0
  0
VERTEX
  8
0
 10
3372.43994140625
 20
76.566993713378906
 42
-0
  0
VERTEX
  8
0
 10
3477.43994140625
 20
10.399999618530273
 42
0
  0
VERTEX
  8
0
 10
3582.43994140625
 20
76.566993713378906
 42
-0
  0
SEQEND
  0
POLYLINE
  8
0
 10
0
 20
0
 39
0
 70
1
 66
1
  0
VERTEX
  8
0
 10
3372.43994140625
 20
279.67999267578125
 42
-0
  0
VERTEX
  8
0
 10
3582.43994140625
 20
279.67999267578125
 42
0
  0
VERTEX
  8
0
 10
3582.43994140625
 20
472.43682861328125
 42
-0
  0
VERTEX
  8
0
 10
3477.43994140625
 20
538.60382080078125
 42
0
  0
VERTEX
  8
0
 10
3372.43994140625
 20
472.43682861328125
 42
-0
  0
SEQEND
  0
POLYLINE
  8
0
 10
0
 20
0
 39
0
 70
1
 66
1
  0
VERTEX
  8
0
 10
1014.8400268554687
 20
1416.56005859375
 42
-0
  0
VERTEX
  8
0
 10
1014.8400268554687
 20
1466.56005859375
 42
-0
  0
VERTEX
  8
0
 10
839.84002685546875
 20
1466.56005859375
 42
-0
  0
VERTEX
  8
0
 10
839.84002685546875
 20
1416.56005859375
 42
0
  0
SEQEND
  0
POLYLINE
  8
0
 10
0
 20
0
 39
0
 70
1
 66
1
  0
VERTEX
  8
0
 10
1200.239990234375
 20
1416.56005859375
 42
-0
  0
VERTEX
  8
0
 10
1200.239990234375
 20
1466.56005859375
 42
-0
  0
VERTEX
  8
0
 10
1025.239990234375
 20
1466.56005859375
 42
-0
  0
VERTEX
  8
0
 10
1025.239990234375
 20
1416.56005859375
 42
0
  0
SEQEND
  0
POLYLINE
  8
0
 10
0
 20
0
 39
0
 70
1
 66
1
  0
VERTEX
  8
0
 10
1385.6400146484375
 20
1416.56005859375
 42
-0
  0
VERTEX
  8
0
 10
1385.6400146484375
 20
1466.56005859375
 42
-0
  0
VERTEX
  8
0
 10
1210.6400146484375
 20
1466.56005859375
 42
-0
  0
VERTEX
  8
0
 10
1210.6400146484375
 20
1416.56005859375
 42
0
  0
SEQEND
  0
POLYLINE
  8
0
 10
0
 20
0
 39
0
 70
1
 66
1
  0
VERTEX
  8
0
 10
1571.0400390625
 20
1416.56005859375
 42
-0
  0
VERTEX
  8
0
 10
1571.0400390625
 20
1466.56005859375
 42
-0
  0
VERTEX
  8
0
 10
1396.0400390625
 20
1466.56005859375
 42
-0
  0
VERTEX
  8
0
 10
1396.0400390625
 20
1416.56005859375
 42
0
  0
SEQEND
  0
POLYLINE
  8
0
 10
0
 20
0
 39
0
 70
1
 66
1
  0
VERTEX
  8
0
 10
2427.43994140625
 20
213.08000183105469
 42
-0
  0
VERTEX
  8
0
 10
2477.43994140625
 20
213.08000183105469
 42
-0
  0
VERTEX
  8
0
 10
2477.43994140625
 20
388.07998657226562
 42
-0
  0
VERTEX
  8
0
 10
2427.43994140625
 20
388.07998657226562
 42
0
  0
SEQEND
  0
POLYLINE
  8
0
 10
0
 20
0
 39
0
 70
1
 66
1
  0
VERTEX
  8
0
 10
2432.47998046875
 20
10.399999618530273
 42
-0
  0
VERTEX
  8
0
 10
2482.47998046875
 20
10.399999618530273
 42
-0
  0
VERTEX
  8
0
 10
2482.47998046875
 20
185.39999389648437
 42
-0
  0
VERTEX
  8
0
 10
2432.47998046875
 20
185.39999389648437
 42
0
  0
SEQEND
  0
POLYLINE
  8
0
 10
0
 20
0
 39
0
 70
1
 66
1
  0
VERTEX
  8
0
 10
2432.47998046875
 20
398.1199951171875
 42
-0
  0
VERTEX
  8
0
 10
2482.47998046875
 20
398.1199951171875
 42
-0
  0
VERTEX
  8
0
 10
2482.47998046875
 20
573.1199951171875
 42
-0
  0
VERTEX
  8
0
 10
2432.47998046875
 20
573.1199951171875
 42
0
  0
SEQEND
  0
POLYLINE
  8
0
 10
0
 20
0
 39
0
 70
1
 66
1
  0
VERTEX
  8
0
 10
3294.360107421875
 20
1411.52001953125
 42
-0
  0
VERTEX
  8
0
 10
3294.360107421875
 20
1461.52001953125
 42
-0
  0
VERTEX
  8
0
 10
3119.360107421875
 20
1461.52001953125
 42
-0
  0
VERTEX
  8
0
 10
3119.360107421875
 20
1411.52001953125
 42
0
  0
SEQEND
  0
POLYLINE
  8
0
 10
0
 20
0
 39
0
 70
1
 66
1
  0
VERTEX
  8
0
 10
3479.760009765625
 20
1411.52001953125
 42
-0
  0
VERTEX
  8
0
 10
3479.760009765625
 20
1461.52001953125
 42
-0
  0
VERTEX
  8
0
 10
3304.760009765625
 20
1461.52001953125
 42
-0
  0
VERTEX
  8
0
 10
3304.760009765625
 20
1411.52001953125
 42
0
  0
SEQEND
  0
POLYLINE
  8
0
 10
0
 20
0
 39
0
 70
1
 66
1
  0
VERTEX
  8
0
 10
3515.0400390625
 20
1349.5999755859375
 42
-0
  0
VERTEX
  8
0
 10
3515.0400390625
 20
1399.5999755859375
 42
-0
  0
VERTEX
  8
0
 10
3340.0400390625
 20
1399.5999755859375
 42
-0
  0
VERTEX
  8
0
 10
3340.0400390625
 20
1349.5999755859375
 42
0
  0
SEQEND
  0
POLYLINE
  8
0
 10
0
 20
0
 39
0
 70
1
 66
1
  0
VERTEX
  8
0
 10
3493.0400390625
 20
541.760009765625
 42
-0
  0
VERTEX
  8
0
 10
3543.0400390625
 20
541.760009765625
 42
-0
  0
VERTEX
  8
0
 10
3543.0400390625
 20
716.760009765625
 42
-0
  0
VERTEX
  8
0
 10
3493.0400390625
 20
716.760009765625
 42
0
  0
SEQEND
  0
POLYLINE
  8
0
 10
0
 20
0
 39
0
 70
1
 66
1
  0
VERTEX
  8
0
 10
3493.0400390625
 20
726.79998779296875
 42
-0
  0
VERTEX
  8
0
 10
3543.0400390625
 20
726.79998779296875
 42
-0
  0
VERTEX
  8
0
 10
3543.0400390625
 20
901.79998779296875
 42
-0
  0
VERTEX
  8
0
 10
3493.0400390625
 20
901.79998779296875
 42
0
  0
SEQEND
  0
POLYLINE
  8
0
 10
0
 20
0
 39
0
 70
1
 66
1
  0
VERTEX
  8
0
 10
3493.0400390625
 20
911.84002685546875
 42
-0
  0
VERTEX
  8
0
 10
3543.0400390625
 20
911.84002685546875
 42
-0
  0
VERTEX
  8
0
 10
3543.0400390625
 20
1086.8399658203125
 42
-0
  0
VERTEX
  8
0
 10
3493.0400390625
 20
1086.8399658203125
 42
0
  0
SEQEND
  0
POLYLINE
  8
0
 10
0
 20
0
 39
0
 70
1
 66
1
  0
VERTEX
  8
0
 10
1581.43994140625
 20
1450.4000244140625
 42
-0
  0
VERTEX
  8
0
 10
1713.4117431640625
 20
1450.4000244140625
 42
-0
  0
VERTEX
  8
0
 10
1721.43994140625
 20
1457.9219970703125
 42
-0
  0
VERTEX
  8
0
 10
1721.43994140625
 20
1469.8780517578125
 42
0
  0
VERTEX
  8
0
 10
1713.4117431640625
 20
1477.4000244140625
 42
-0
  0
VERTEX
  8
0
 10
1581.43994140625
 20
1477.4000244140625
 42
0
  0
SEQEND
  0
POLYLINE
  8
0
 10
0
 20
0
 39
0
 70
1
 66
1
  0
VERTEX
  8
0
 10
1731.9200439453125
 20
1450.4000244140625
 42
-0
  0
VERTEX
  8
0
 10
1863.8917236328125
 20
1450.4000244140625
 42
-0
  0
VERTEX
  8
0
 10
1871.9200439453125
 20
1457.9219970703125
 42
-0
  0
VERTEX
  8
0
 10
1871.9200439453125
 20
1469.8780517578125
 42
0
  0
VERTEX
  8
0
 10
1863.8917236328125
 20
1477.4000244140625
 42
-0
  0
VERTEX
  8
0
 10
1731.9200439453125
 20
1477.4000244140625
 42
0
  0
SEQEND
  0
POLYLINE
  8
0
 10
0
 20
0
 39
0
 70
1
 66
1
  0
VERTEX
  8
0
 10
1882.4000244140625
 20
1450.4000244140625
 42
-0
  0
VERTEX
  8
0
 10
2014.371826171875
 20
1450.4000244140625
 42
-0
  0
VERTEX
  8
0
 10
2022.4000244140625
 20
1457.9219970703125
 42
-0
  0
VERTEX
  8
0
 10
2022.4000244140625
 20
1469.8780517578125
 42
0
  0
VERTEX
  8
0
 10
2014.371826171875
 20
1477.4000244140625
 42
-0
  0
VERTEX
  8
0
 10
1882.4000244140625
 20
1477.4000244140625
 42
0
  0
SEQEND
  0
POLYLINE
  8
0
 10
0
 20
0
 39
0
 70
1
 66
1
  0
VERTEX
  8
0
 10
2032.8800048828125
 20
1450.4000244140625
 42
-0
  0
VERTEX
  8
0
 10
2164.851806640625
 20
1450.4000244140625
 42
-0
  0
VERTEX
  8
0
 10
2172.8798828125
 20
1457.9219970703125
 42
-0
  0
VERTEX
  8
0
 10
2172.8798828125
 20
1469.8780517578125
 42
0
  0
VERTEX
  8
0
 10
2164.851806640625
 20
1477.4000244140625
 42
-0
  0
VERTEX
  8
0
 10
2032.8800048828125
 20
1477.4000244140625
 42
0
  0
SEQEND
  0
POLYLINE
  8
0
 10
0
 20
0
 39
0
 70
1
 66
1
  0
VERTEX
  8
0
 10
2219.360107421875
 20
1320.0799560546875
 42
-0
  0
VERTEX
  8
0
 10
2219.360107421875
 20
1452.0517578125
 42
-0
  0
VERTEX
  8
0
 10
2211.838134765625
 20
1460.0799560546875
 42
-0
  0
VERTEX
  8
0
 10
2199.8818359375
 20
1460.0799560546875
 42
0
  0
VERTEX
  8
0
 10
2192.360107421875
 20
1452.0517578125
 42
-0
  0
VERTEX
  8
0
 10
2192.360107421875
 20
1320.0799560546875
 42
0
  0
SEQEND
  0
POLYLINE
  8
0
 10
0
 20
0
 39
0
 70
1
 66
1
  0
VERTEX
  8
0
 10
2157.43994140625
 20
598.6400146484375
 42
-0
  0
VERTEX
  8
0
 10
2289.411865234375
 20
598.6400146484375
 42
-0
  0
VERTEX
  8
0
 10
2297.43994140625
 20
606.16192626953125
 42
-0
  0
VERTEX
  8
0
 10
2297.43994140625
 20
618.1180419921875
 42
0
  0
VERTEX
  8
0
 10
2289.411865234375
 20
625.6400146484375
 42
-0
  0
VERTEX
  8
0
 10
2157.43994140625
 20
625.6400146484375
 42
0
  0
SEQEND
  0
POLYLINE
  8
0
 10
0
 20
0
 39
0
 70
1
 66
1
  0
VERTEX
  8
0
 10
3151.760009765625
 20
548.96002197265625
 42
-0
  0
VERTEX
  8
0
 10
3283.731689453125
 20
548.96002197265625
 42
-0
  0
VERTEX
  8
0
 10
3291.760009765625
 20
556.48193359375
 42
-0
  0
VERTEX
  8
0
 10
3291.760009765625
 20
568.43804931640625
 42
0
  0
VERTEX
  8
0
 10
3283.731689453125
 20
575.96002197265625
 42
-0
  0
VERTEX
  8
0
 10
3151.760009765625
 20
575.96002197265625
 42
0
  0
SEQEND
  0
POLYLINE
  8
0
 10
0
 20
0
 39
0
 70
1
 66
1
  0
VERTEX
  8
0
 10
3547.39990234375
 20
1489.239990234375
 42
-0
  0
VERTEX
  8
0
 10
3547.39990234375
 20
1357.2681884765625
 42
-0
  0
VERTEX
  8
0
 10
3554.921875
 20
1349.239990234375
 42
-0
  0
VERTEX
  8
0
 10
3566.878173828125
 20
1349.239990234375
 42
0
  0
VERTEX
  8
0
 10
3574.39990234375
 20
1357.2681884765625
 42
-0
  0
VERTEX
  8
0
 10
3574.39990234375
 20
1489.239990234375
 42
0
  0
SEQEND
  0
POLYLINE
  8
0
 10
0
 20
0
 39
0
 70
1
 66
1
  0
VERTEX
  8
0
 10
3553.52001953125
 20
638.91998291015625
 42
-0
  0
VERTEX
  8
0
 10
3553.52001953125
 20
506.9482421875
 42
-0
  0
VERTEX
  8
0
 10
3561.0419921875
 20
498.92001342773437
 42
-0
  0
VERTEX
  8
0
 10
3572.998046875
 20
498.92001342773437
 42
0
  0
VERTEX
  8
0
 10
3580.52001953125
 20
506.9482421875
 42
-0
  0
VERTEX
  8
0
 10
3580.52001953125
 20
638.91998291015625
 42
0
  0
SEQEND
  0
POLYLINE
  8
0
 10
0
 20
0
 39
0
 70
1
 66
1
  0
VERTEX
  8
0
 10
3580.52001953125
 20
649.03997802734375
 42
-0
  0
VERTEX
  8
0
 10
3580.52001953125
 20
781.01177978515625
 42
-0
  0
VERTEX
  8
0
 10
3572.998046875
 20
789.03997802734375
 42
-0
  0
VERTEX
  8
0
 10
3561.0419921875
 20
789.03997802734375
 42
0
  0
VERTEX
  8
0
 10
3553.52001953125
 20
781.01177978515625
 42
-0
  0
VERTEX
  8
0
 10
3553.52001953125
 20
649.03997802734375
 42
0
  0
SEQEND
  0
POLYLINE
  8
0
 10
0
 20
0
 39
0
 70
1
 66
1
  0
VERTEX
  8
0
 10
3580.52001953125
 20
799.15997314453125
 42
-0
  0
VERTEX
  8
0
 10
3580.52001953125
 20
931.13177490234375
 42
-0
  0
VERTEX
  8
0
 10
3572.998046875
 20
939.15997314453125
 42
-0
  0
VERTEX
  8
0
 10
3561.0419921875
 20
939.15997314453125
 42
0
  0
VERTEX
  8
0
 10
3553.52001953125
 20
931.13177490234375
 42
-0
  0
VERTEX
  8
0
 10
3553.52001953125
 20
799.15997314453125
 42
0
  0
SEQEND
  0
POLYLINE
  8
0
 10
0
 20
0
 39
0
 70
1
 66
1
  0
VERTEX
  8
0
 10
3580.52001953125
 20
949.280029296875
 42
-0
  0
VERTEX
  8
0
 10
3580.52001953125
 20
1081.2518310546875
 42
-0
  0
VERTEX
  8
0
 10
3572.998046875
 20
1089.280029296875
 42
-0
  0
VERTEX
  8
0
 10
3561.0419921875
 20
1089.280029296875
 42
0
  0
VERTEX
  8
0
 10
3553.52001953125
 20
1081.2518310546875
 42
-0
  0
VERTEX
  8
0
 10
3553.52001953125
 20
949.280029296875
 42
0
  0
SEQEND
  0
POLYLINE
  8
0
 10
0
 20
0
 39
0
 70
1
 66
1
  0
VERTEX
  8
0
 10
3587.719970703125
 20
1099.4000244140625
 42
-0
  0
VERTEX
  8
0
 10
3587.719970703125
 20
1231.371826171875
 42
-0
  0
VERTEX
  8
0
 10
3580.197998046875
 20
1239.4000244140625
 42
-0
  0
VERTEX
  8
0
 10
3568.241943359375
 20
1239.4000244140625
 42
0
  0
VERTEX
  8
0
 10
3560.719970703125
 20
1231.371826171875
 42
-0
  0
VERTEX
  8
0
 10
3560.719970703125
 20
1099.4000244140625
 42
0
  0
SEQEND
  0
ENDSEC
  0
EOF
