  0
SECTION
  2
ENTITIES
  0
POLYLINE
  8
0
 10
0
 20
0
 39
0
 70
1
 66
1
  0
VERTEX
  8
0
 10
0
 20
0
 42
0
  0
VERTEX
  8
0
 10
2400
 20
0
 42
0
  0
VERTEX
  8
0
 10
2400
 20
800
 42
0
  0
VERTEX
  8
0
 10
0
 20
800
 42
0
  0
SEQEND
  0
POLYLINE
  8
0
 10
0
 20
0
 39
0
 70
1
 66
1
  0
VERTEX
  8
0
 10
10.279999732971191
 20
10.279999732971191
 42
0
  0
VERTEX
  8
0
 10
85.279998779296875
 20
10.279999732971191
 42
-0
  0
VERTEX
  8
0
 10
210.27999877929687
 20
435.27999877929687
 42
0
  0
VERTEX
  8
0
 10
210.27999877929687
 20
455.27999877929687
 42
0
  0
VERTEX
  8
0
 10
192.8935546875
 20
455.27999877929687
 42
-0.78679585456848145
  0
VERTEX
  8
0
 10
27.666437149047852
 20
455.280029296875
 42
0
  0
VERTEX
  8
0
 10
10.279999732971191
 20
455.27999877929687
 42
0
  0
SEQEND
  0
POLYLINE
  8
0
 10
0
 20
0
 39
0
 70
1
 66
1
  0
VERTEX
  8
0
 10
302.32000732421875
 20
455.280029296875
 42
0
  0
VERTEX
  8
0
 10
227.32000732421875
 20
455.280029296875
 42
-0
  0
VERTEX
  8
0
 10
102.32000732421875
 20
30.280031204223633
 42
0
  0
VERTEX
  8
0
 10
102.32000732421875
 20
10.280030250549316
 42
0
  0
VERTEX
  8
0
 10
119.70645141601562
 20
10.280030250549316
 42
-0.78679585456848145
  0
VERTEX
  8
0
 10
284.93356323242187
 20
10.279999732971191
 42
0
  0
VERTEX
  8
0
 10
302.32000732421875
 20
10.280030250549316
 42
0
  0
SEQEND
  0
POLYLINE
  8
0
 10
0
 20
0
 39
0
 70
1
 66
1
  0
VERTEX
  8
0
 10
455.280029296875
 20
465.32000732421875
 42
0
  0
VERTEX
  8
0
 10
455.280029296875
 20
540.32000732421875
 42
-0
  0
VERTEX
  8
0
 10
30.280031204223633
 20
665.32000732421875
 42
0
  0
VERTEX
  8
0
 10
10.280030250549316
 20
665.32000732421875
 42
0
  0
VERTEX
  8
0
 10
10.280030250549316
 20
647.93353271484375
 42
-0.78679585456848145
  0
VERTEX
  8
0
 10
10.279999732971191
 20
482.70645141601562
 42
0
  0
VERTEX
  8
0
 10
10.280030250549316
 20
465.32000732421875
 42
0
  0
SEQEND
  0
POLYLINE
  8
0
 10
0
 20
0
 39
0
 70
1
 66
1
  0
VERTEX
  8
0
 10
10.279999732971191
 20
757.3599853515625
 42
0
  0
VERTEX
  8
0
 10
10.279999732971191
 20
682.3599853515625
 42
-0
  0
VERTEX
  8
0
 10
435.27999877929687
 20
557.3599853515625
 42
0
  0
VERTEX
  8
0
 10
455.27999877929687
 20
557.3599853515625
 42
0
  0
VERTEX
  8
0
 10
455.27999877929687
 20
574.7464599609375
 42
-0.78679585456848145
  0
VERTEX
  8
0
 10
455.280029296875
 20
739.97357177734375
 42
0
  0
VERTEX
  8
0
 10
455.27999877929687
 20
757.3599853515625
 42
0
  0
SEQEND
  0
POLYLINE
  8
0
 10
0
 20
0
 39
0
 70
1
 66
1
  0
VERTEX
  8
0
 10
393.212890625
 20
253.06314086914062
 42
-0
  0
VERTEX
  8
0
 10
478.89389038085937
 20
137.27192687988281
 42
-0.42920839786529541
  0
VERTEX
  8
0
 10
475.88519287109375
 20
120.13694763183594
 42
0.69967228174209595
  0
VERTEX
  8
0
 10
502.28109741210937
 20
10.537125587463379
 42
0.39388105273246765
  0
VERTEX
  8
0
 10
546.138671875
 20
42.986576080322266
 42
0
  0
VERTEX
  8
0
 10
550.98876953125
 20
69.140388488769531
 42
0.046273551881313324
  0
VERTEX
  8
0
 10
559.36993408203125
 20
161.10867309570312
 42
-0
  0
VERTEX
  8
0
 10
558.95147705078125
 20
422.509765625
 42
0.38090464472770691
  0
VERTEX
  8
0
 10
514.6116943359375
 20
472.10830688476562
 42
0
  0
VERTEX
  8
0
 10
504.67599487304687
 20
473.2403564453125
 42
0.27423444390296936
  0
VERTEX
  8
0
 10
458.13754272460937
 20
452.353515625
 42
-0
  0
VERTEX
  8
0
 10
391.97909545898437
 20
358.42236328125
 42
0.32327139377593994
  0
SEQEND
  0
POLYLINE
  8
0
 10
0
 20
0
 39
0
 70
1
 66
1
  0
VERTEX
  8
0
 10
513.69287109375
 20
517.703125
 42
-0
  0
VERTEX
  8
0
 10
599.3739013671875
 20
401.91192626953125
 42
-0.42920839786529541
  0
VERTEX
  8
0
 10
596.365234375
 20
384.77694702148437
 42
0.69967228174209595
  0
VERTEX
  8
0
 10
622.7611083984375
 20
275.1771240234375
 42
0.39388105273246765
  0
VERTEX
  8
0
 10
666.61871337890625
 20
307.6265869140625
 42
0
  0
VERTEX
  8
0
 10
671.46875
 20
333.7803955078125
 42
0.046273551881313324
  0
VERTEX
  8
0
 10
679.8499755859375
 20
425.7486572265625
 42
-0
  0
VERTEX
  8
0
 10
679.43145751953125
 20
687.1497802734375
 42
0.38090464472770691
  0
VERTEX
  8
0
 10
635.09173583984375
 20
736.748291015625
 42
0
  0
VERTEX
  8
0
 10
625.156005859375
 20
737.88037109375
 42
0.27423444390296936
  0
VERTEX
  8
0
 10
578.6175537109375
 20
716.9935302734375
 42
-0
  0
VERTEX
  8
0
 10
512.4591064453125
 20
623.0623779296875
 42
0.32327139377593994
  0
SEQEND
  0
POLYLINE
  8
0
 10
0
 20
0
 39
0
 70
1
 66
1
  0
VERTEX
  8
0
 10
696.41290283203125
 20
253.06314086914062
 42
-0
  0
VERTEX
  8
0
 10
782.0938720703125
 20
137.27192687988281
 42
-0.42920839786529541
  0
VERTEX
  8
0
 10
779.085205078125
 20
120.13694763183594
 42
0.69967228174209595
  0
VERTEX
  8
0
 10
805.4810791015625
 20
10.537125587463379
 42
0.39388105273246765
  0
VERTEX
  8
0
 10
849.33868408203125
 20
42.986576080322266
 42
0
  0
VERTEX
  8
0
 10
854.18878173828125
 20
69.140388488769531
 42
0.046273551881313324
  0
VERTEX
  8
0
 10
862.5699462890625
 20
161.10867309570312
 42
-0
  0
VERTEX
  8
0
 10
862.1514892578125
 20
422.509765625
 42
0.38090464472770691
  0
VERTEX
  8
0
 10
817.81170654296875
 20
472.10830688476562
 42
0
  0
VERTEX
  8
0
 10
807.8759765625
 20
473.2403564453125
 42
0.27423444390296936
  0
VERTEX
  8
0
 10
761.3375244140625
 20
452.353515625
 42
-0
  0
VERTEX
  8
0
 10
695.1790771484375
 20
358.42236328125
 42
0.32327139377593994
  0
SEQEND
  0
POLYLINE
  8
0
 10
0
 20
0
 39
0
 70
1
 66
1
  0
VERTEX
  8
0
 10
816.89288330078125
 20
517.703125
 42
-0
  0
VERTEX
  8
0
 10
902.5738525390625
 20
401.91192626953125
 42
-0.42920839786529541
  0
VERTEX
  8
0
 10
899.565185546875
 20
384.77694702148437
 42
0.69967228174209595
  0
VERTEX
  8
0
 10
925.96112060546875
 20
275.1771240234375
 42
0.39388105273246765
  0
VERTEX
  8
0
 10
969.81866455078125
 20
307.6265869140625
 42
0
  0
VERTEX
  8
0
 10
974.66876220703125
 20
333.7803955078125
 42
0.046273551881313324
  0
VERTEX
  8
0
 10
983.04998779296875
 20
425.7486572265625
 42
-0
  0
VERTEX
  8
0
 10
982.6314697265625
 20
687.1497802734375
 42
0.38090464472770691
  0
VERTEX
  8
0
 10
938.29168701171875
 20
736.748291015625
 42
0
  0
VERTEX
  8
0
 10
928.35601806640625
 20
737.88037109375
 42
0.27423444390296936
  0
VERTEX
  8
0
 10
881.81756591796875
 20
716.9935302734375
 42
-0
  0
VERTEX
  8
0
 10
815.6590576171875
 20
623.0623779296875
 42
0.32327139377593994
  0
SEQEND
  0
POLYLINE
  8
0
 10
0
 20
0
 39
0
 70
1
 66
1
  0
VERTEX
  8
0
 10
999.6129150390625
 20
253.06314086914062
 42
-0
  0
VERTEX
  8
0
 10
1085.2938232421875
 20
137.27192687988281
 42
-0.42920839786529541
  0
VERTEX
  8
0
 10
1082.28515625
 20
120.13694763183594
 42
0.69967228174209595
  0
VERTEX
  8
0
 10
1108.68115234375
 20
10.537125587463379
 42
0.39388105273246765
  0
VERTEX
  8
0
 10
1152.5386962890625
 20
42.986576080322266
 42
0
  0
VERTEX
  8
0
 10
1157.3887939453125
 20
69.140388488769531
 42
0.046273551881313324
  0
VERTEX
  8
0
 10
1165.77001953125
 20
161.10867309570312
 42
-0
  0
VERTEX
  8
0
 10
1165.3514404296875
 20
422.509765625
 42
0.38090464472770691
  0
VERTEX
  8
0
 10
1121.01171875
 20
472.10830688476562
 42
0
  0
VERTEX
  8
0
 10
1111.075927734375
 20
473.2403564453125
 42
0.27423444390296936
  0
VERTEX
  8
0
 10
1064.53759765625
 20
452.353515625
 42
-0
  0
VERTEX
  8
0
 10
998.37908935546875
 20
358.42236328125
 42
0.32327139377593994
  0
SEQEND
  0
POLYLINE
  8
0
 10
0
 20
0
 39
0
 70
1
 66
1
  0
VERTEX
  8
0
 10
1120.0928955078125
 20
517.703125
 42
-0
  0
VERTEX
  8
0
 10
1205.77392578125
 20
401.91192626953125
 42
-0.42920839786529541
  0
VERTEX
  8
0
 10
1202.7652587890625
 20
384.77694702148437
 42
0.69967228174209595
  0
VERTEX
  8
0
 10
1229.1611328125
 20
275.1771240234375
 42
0.39388105273246765
  0
VERTEX
  8
0
 10
1273.0186767578125
 20
307.6265869140625
 42
0
  0
VERTEX
  8
0
 10
1277.8687744140625
 20
333.7803955078125
 42
0.046273551881313324
  0
VERTEX
  8
0
 10
1286.25
 20
425.7486572265625
 42
-0
  0
VERTEX
  8
0
 10
1285.8314208984375
 20
687.1497802734375
 42
0.38090464472770691
  0
VERTEX
  8
0
 10
1241.49169921875
 20
736.748291015625
 42
0
  0
VERTEX
  8
0
 10
1231.5560302734375
 20
737.88037109375
 42
0.27423444390296936
  0
VERTEX
  8
0
 10
1185.017578125
 20
716.9935302734375
 42
-0
  0
VERTEX
  8
0
 10
1118.859130859375
 20
623.0623779296875
 42
0.32327139377593994
  0
SEQEND
  0
POLYLINE
  8
0
 10
0
 20
0
 39
0
 70
1
 66
1
  0
VERTEX
  8
0
 10
1302.8128662109375
 20
253.06314086914062
 42
-0
  0
VERTEX
  8
0
 10
1388.493896484375
 20
137.27192687988281
 42
-0.42920839786529541
  0
VERTEX
  8
0
 10
1385.4852294921875
 20
120.13694763183594
 42
0.69967228174209595
  0
VERTEX
  8
0
 10
1411.881103515625
 20
10.537125587463379
 42
0.39388105273246765
  0
VERTEX
  8
0
 10
1455.7386474609375
 20
42.986576080322266
 42
0
  0
VERTEX
  8
0
 10
1460.5887451171875
 20
69.140388488769531
 42
0.046273551881313324
  0
VERTEX
  8
0
 10
1468.969970703125
 20
161.10867309570312
 42
-0
  0
VERTEX
  8
0
 10
1468.551513671875
 20
422.509765625
 42
0.38090464472770691
  0
VERTEX
  8
0
 10
1424.211669921875
 20
472.10830688476562
 42
0
  0
VERTEX
  8
0
 10
1414.2760009765625
 20
473.2403564453125
 42
0.27423444390296936
  0
VERTEX
  8
0
 10
1367.737548828125
 20
452.353515625
 42
-0
  0
VERTEX
  8
0
 10
1301.5791015625
 20
358.42236328125
 42
0.32327139377593994
  0
SEQEND
  0
POLYLINE
  8
0
 10
0
 20
0
 39
0
 70
1
 66
1
  0
VERTEX
  8
0
 10
1423.2928466796875
 20
517.703125
 42
-0
  0
VERTEX
  8
0
 10
1508.973876953125
 20
401.91192626953125
 42
-0.42920839786529541
  0
VERTEX
  8
0
 10
1505.9652099609375
 20
384.77694702148437
 42
0.69967228174209595
  0
VERTEX
  8
0
 10
1532.361083984375
 20
275.1771240234375
 42
0.39388105273246765
  0
VERTEX
  8
0
 10
1576.21875
 20
307.6265869140625
 42
0
  0
VERTEX
  8
0
 10
1581.0687255859375
 20
333.7803955078125
 42
0.046273551881313324
  0
VERTEX
  8
0
 10
1589.449951171875
 20
425.7486572265625
 42
-0
  0
VERTEX
  8
0
 10
1589.031494140625
 20
687.1497802734375
 42
0.38090464472770691
  0
VERTEX
  8
0
 10
1544.691650390625
 20
736.748291015625
 42
0
  0
VERTEX
  8
0
 10
1534.7559814453125
 20
737.88037109375
 42
0.27423444390296936
  0
VERTEX
  8
0
 10
1488.217529296875
 20
716.9935302734375
 42
-0
  0
VERTEX
  8
0
 10
1422.05908203125
 20
623.0623779296875
 42
0.32327139377593994
  0
SEQEND
  0
POLYLINE
  8
0
 10
0
 20
0
 39
0
 70
1
 66
1
  0
VERTEX
  8
0
 10
1682.8404541015625
 20
245.12016296386719
 42
0.28593423962593079
  0
VERTEX
  8
0
 10
1479.239990234375
 20
232.12861633300781
 42
-0
  0
VERTEX
  8
0
 10
1479.239990234375
 20
191.58091735839844
 42
-0
  0
VERTEX
  8
0
 10
1541.5718994140625
 20
80.15386962890625
 42
-0
  0
VERTEX
  8
0
 10
1541.5718994140625
 20
10.279999732971191
 42
-0
  0
VERTEX
  8
0
 10
1617.2244873046875
 20
10.279999732971191
 42
-0
  0
VERTEX
  8
0
 10
1682.8404541015625
 20
46.120162963867188
 42
-0.3395136296749115
  0
SEQEND
  0
POLYLINE
  8
0
 10
0
 20
0
 39
0
 70
1
 66
1
  0
VERTEX
  8
0
 10
1797.2403564453125
 20
766.5601806640625
 42
0.28593423962593079
  0
VERTEX
  8
0
 10
1593.6400146484375
 20
753.568603515625
 42
-0
  0
VERTEX
  8
0
 10
1593.6400146484375
 20
713.02093505859375
 42
-0
  0
VERTEX
  8
0
 10
1655.971923828125
 20
601.5938720703125
 42
-0
  0
VERTEX
  8
0
 10
1655.971923828125
 20
531.719970703125
 42
-0
  0
VERTEX
  8
0
 10
1731.62451171875
 20
531.719970703125
 42
-0
  0
VERTEX
  8
0
 10
1797.240478515625
 20
567.5601806640625
 42
-0.3395136296749115
  0
SEQEND
  0
POLYLINE
  8
0
 10
0
 20
0
 39
0
 70
1
 66
1
  0
VERTEX
  8
0
 10
1809.0804443359375
 20
498.5601806640625
 42
0.28593423962593079
  0
VERTEX
  8
0
 10
1605.47998046875
 20
485.568603515625
 42
-0
  0
VERTEX
  8
0
 10
1605.47998046875
 20
445.02093505859375
 42
-0
  0
VERTEX
  8
0
 10
1667.8118896484375
 20
333.5938720703125
 42
-0
  0
VERTEX
  8
0
 10
1667.8118896484375
 20
263.72000122070312
 42
-0
  0
VERTEX
  8
0
 10
1743.4644775390625
 20
263.72000122070312
 42
-0
  0
VERTEX
  8
0
 10
1809.0804443359375
 20
299.56015014648437
 42
-0.3395136296749115
  0
SEQEND
  0
POLYLINE
  8
0
 10
0
 20
0
 39
0
 70
1
 66
1
  0
VERTEX
  8
0
 10
1911.160400390625
 20
245.12016296386719
 42
0.28593423962593079
  0
VERTEX
  8
0
 10
1707.56005859375
 20
232.12861633300781
 42
-0
  0
VERTEX
  8
0
 10
1707.56005859375
 20
191.58091735839844
 42
-0
  0
VERTEX
  8
0
 10
1769.891845703125
 20
80.15386962890625
 42
-0
  0
VERTEX
  8
0
 10
1769.891845703125
 20
10.279999732971191
 42
-0
  0
VERTEX
  8
0
 10
1845.5445556640625
 20
10.279999732971191
 42
-0
  0
VERTEX
  8
0
 10
1911.160400390625
 20
46.120162963867188
 42
-0.3395136296749115
  0
SEQEND
  0
POLYLINE
  8
0
 10
0
 20
0
 39
0
 70
1
 66
1
  0
VERTEX
  8
0
 10
1978.8404541015625
 20
699.84014892578125
 42
0.28593423962593079
  0
VERTEX
  8
0
 10
1775.239990234375
 20
686.8486328125
 42
-0
  0
VERTEX
  8
0
 10
1775.239990234375
 20
646.3009033203125
 42
-0
  0
VERTEX
  8
0
 10
1837.5718994140625
 20
534.8739013671875
 42
-0
  0
VERTEX
  8
0
 10
1837.5718994140625
 20
465
 42
-0
  0
VERTEX
  8
0
 10
1913.2244873046875
 20
465
 42
-0
  0
VERTEX
  8
0
 10
1978.8404541015625
 20
500.84014892578125
 42
-0.3395136296749115
  0
SEQEND
  0
POLYLINE
  8
0
 10
0
 20
0
 39
0
 70
1
 66
1
  0
VERTEX
  8
0
 10
2029.1201171875
 20
283.24002075195312
 42
0.28593423962593079
  0
VERTEX
  8
0
 10
2016.128662109375
 20
486.84042358398437
 42
-0
  0
VERTEX
  8
0
 10
1975.5809326171875
 20
486.84039306640625
 42
-0
  0
VERTEX
  8
0
 10
1864.1539306640625
 20
424.508544921875
 42
-0
  0
VERTEX
  8
0
 10
1794.280029296875
 20
424.508544921875
 42
-0
  0
VERTEX
  8
0
 10
1794.280029296875
 20
348.85589599609375
 42
-0
  0
VERTEX
  8
0
 10
1830.1201171875
 20
283.239990234375
 42
-0.3395136296749115
  0
SEQEND
  0
POLYLINE
  8
0
 10
0
 20
0
 39
0
 70
1
 66
1
  0
VERTEX
  8
0
 10
2118.200439453125
 20
245.12016296386719
 42
0.28593423962593079
  0
VERTEX
  8
0
 10
1914.5999755859375
 20
232.12861633300781
 42
-0
  0
VERTEX
  8
0
 10
1914.5999755859375
 20
191.58091735839844
 42
-0
  0
VERTEX
  8
0
 10
1976.931884765625
 20
80.15386962890625
 42
-0
  0
VERTEX
  8
0
 10
1976.931884765625
 20
10.279999732971191
 42
-0
  0
VERTEX
  8
0
 10
2052.58447265625
 20
10.279999732971191
 42
-0
  0
VERTEX
  8
0
 10
2118.200439453125
 20
46.120162963867188
 42
-0.3395136296749115
  0
SEQEND
  0
POLYLINE
  8
0
 10
0
 20
0
 39
0
 70
1
 66
1
  0
VERTEX
  8
0
 10
1962.4400634765625
 20
554.7239990234375
 42
0.28593423962593079
  0
VERTEX
  8
0
 10
2166.04052734375
 20
567.715576171875
 42
-0
  0
VERTEX
  8
0
 10
2166.040283203125
 20
608.26324462890625
 42
-0
  0
VERTEX
  8
0
 10
2103.70849609375
 20
719.6903076171875
 42
-0
  0
VERTEX
  8
0
 10
2103.70849609375
 20
789.564208984375
 42
-0
  0
VERTEX
  8
0
 10
2028.055908203125
 20
789.564208984375
 42
-0
  0
VERTEX
  8
0
 10
1962.43994140625
 20
753.7239990234375
 42
-0.3395136296749115
  0
SEQEND
  0
POLYLINE
  8
0
 10
0
 20
0
 39
0
 70
1
 66
1
  0
VERTEX
  8
0
 10
2042.760009765625
 20
286.88400268554687
 42
0.28593423962593079
  0
VERTEX
  8
0
 10
2246.3603515625
 20
299.87557983398438
 42
-0
  0
VERTEX
  8
0
 10
2246.3603515625
 20
340.42327880859375
 42
-0
  0
VERTEX
  8
0
 10
2184.028564453125
 20
451.85031127929687
 42
-0
  0
VERTEX
  8
0
 10
2184.028564453125
 20
521.72418212890625
 42
-0
  0
VERTEX
  8
0
 10
2108.3759765625
 20
521.72418212890625
 42
-0
  0
VERTEX
  8
0
 10
2042.760009765625
 20
485.884033203125
 42
-0.3395136296749115
  0
SEQEND
  0
POLYLINE
  8
0
 10
0
 20
0
 39
0
 70
1
 66
1
  0
VERTEX
  8
0
 10
2328.280517578125
 20
766.5601806640625
 42
0.28593423962593079
  0
VERTEX
  8
0
 10
2124.679931640625
 20
753.568603515625
 42
-0
  0
VERTEX
  8
0
 10
2124.679931640625
 20
713.02093505859375
 42
-0
  0
VERTEX
  8
0
 10
2187.011962890625
 20
601.5938720703125
 42
-0
  0
VERTEX
  8
0
 10
2187.011962890625
 20
531.719970703125
 42
-0
  0
VERTEX
  8
0
 10
2262.66455078125
 20
531.719970703125
 42
-0
  0
VERTEX
  8
0
 10
2328.280517578125
 20
567.5601806640625
 42
-0.3395136296749115
  0
SEQEND
  0
POLYLINE
  8
0
 10
0
 20
0
 39
0
 70
1
 66
1
  0
VERTEX
  8
0
 10
349.3599853515625
 20
238.99691772460937
 42
-0
  0
VERTEX
  8
0
 10
312.3599853515625
 20
238.99691772460937
 42
-0.082413926720619202
  0
VERTEX
  8
0
 10
312.36001586914062
 20
10.280014991760254
 42
0
  0
VERTEX
  8
0
 10
349.3599853515625
 20
10.279999732971191
 42
-0.099960364401340485
  0
SEQEND
  0
POLYLINE
  8
0
 10
0
 20
0
 39
0
 70
1
 66
1
  0
VERTEX
  8
0
 10
606.47998046875
 20
238.99691772460937
 42
-0
  0
VERTEX
  8
0
 10
569.47998046875
 20
238.99691772460937
 42
-0.082413926720619202
  0
VERTEX
  8
0
 10
569.47998046875
 20
10.280014991760254
 42
0
  0
VERTEX
  8
0
 10
606.47998046875
 20
10.279999732971191
 42
-0.099960364401340485
  0
SEQEND
  0
POLYLINE
  8
0
 10
0
 20
0
 39
0
 70
1
 66
1
  0
VERTEX
  8
0
 10
612.52001953125
 20
35.720001220703125
 42
-0
  0
VERTEX
  8
0
 10
649.52001953125
 20
35.720001220703125
 42
-0.082413926720619202
  0
VERTEX
  8
0
 10
649.52001953125
 20
264.4368896484375
 42
0
  0
VERTEX
  8
0
 10
612.52001953125
 20
264.43692016601562
 42
-0.099960364401340485
  0
SEQEND
  0
POLYLINE
  8
0
 10
0
 20
0
 39
0
 70
1
 66
1
  0
VERTEX
  8
0
 10
693.3599853515625
 20
238.99691772460937
 42
-0
  0
VERTEX
  8
0
 10
656.3599853515625
 20
238.99691772460937
 42
-0.082413926720619202
  0
VERTEX
  8
0
 10
656.3599853515625
 20
10.280014991760254
 42
0
  0
VERTEX
  8
0
 10
693.3599853515625
 20
10.279999732971191
 42
-0.099960364401340485
  0
SEQEND
  0
POLYLINE
  8
0
 10
0
 20
0
 39
0
 70
1
 66
1
  0
VERTEX
  8
0
 10
694.1968994140625
 20
738.91998291015625
 42
-0
  0
VERTEX
  8
0
 10
694.1968994140625
 20
775.91998291015625
 42
-0.082413926720619202
  0
VERTEX
  8
0
 10
465.48001098632812
 20
775.91998291015625
 42
0
  0
VERTEX
  8
0
 10
465.48001098632812
 20
738.91998291015625
 42
-0.099960364401340485
  0
SEQEND
  0
POLYLINE
  8
0
 10
0
 20
0
 39
0
 70
1
 66
1
  0
VERTEX
  8
0
 10
726.96002197265625
 20
687.4769287109375
 42
-0
  0
VERTEX
  8
0
 10
689.96002197265625
 20
687.4769287109375
 42
-0.082413926720619202
  0
VERTEX
  8
0
 10
689.96002197265625
 20
458.760009765625
 42
0
  0
VERTEX
  8
0
 10
726.96002197265625
 20
458.760009765625
 42
-0.099960364401340485
  0
SEQEND
  0
POLYLINE
  8
0
 10
0
 20
0
 39
0
 70
1
 66
1
  0
VERTEX
  8
0
 10
726.1199951171875
 20
557.79998779296875
 42
-0
  0
VERTEX
  8
0
 10
763.1199951171875
 20
557.79998779296875
 42
-0.082413926720619202
  0
VERTEX
  8
0
 10
763.1199951171875
 20
786.51690673828125
 42
0
  0
VERTEX
  8
0
 10
726.1199951171875
 20
786.51690673828125
 42
-0.099960364401340485
  0
SEQEND
  0
POLYLINE
  8
0
 10
0
 20
0
 39
0
 70
1
 66
1
  0
VERTEX
  8
0
 10
909.67999267578125
 20
238.99691772460937
 42
-0
  0
VERTEX
  8
0
 10
872.67999267578125
 20
238.99691772460937
 42
-0.082413926720619202
  0
VERTEX
  8
0
 10
872.67999267578125
 20
10.280014991760254
 42
0
  0
VERTEX
  8
0
 10
909.67999267578125
 20
10.279999732971191
 42
-0.099960364401340485
  0
SEQEND
  0
POLYLINE
  8
0
 10
0
 20
0
 39
0
 70
1
 66
1
  0
VERTEX
  8
0
 10
915.719970703125
 20
35.720001220703125
 42
-0
  0
VERTEX
  8
0
 10
952.719970703125
 20
35.720001220703125
 42
-0.082413926720619202
  0
VERTEX
  8
0
 10
952.719970703125
 20
264.4368896484375
 42
0
  0
VERTEX
  8
0
 10
915.719970703125
 20
264.43692016601562
 42
-0.099960364401340485
  0
SEQEND
  0
POLYLINE
  8
0
 10
0
 20
0
 39
0
 70
1
 66
1
  0
VERTEX
  8
0
 10
996.55999755859375
 20
238.99691772460937
 42
-0
  0
VERTEX
  8
0
 10
959.55999755859375
 20
238.99691772460937
 42
-0.082413926720619202
  0
VERTEX
  8
0
 10
959.55999755859375
 20
10.280014991760254
 42
0
  0
VERTEX
  8
0
 10
996.55999755859375
 20
10.279999732971191
 42
-0.099960364401340485
  0
SEQEND
  0
POLYLINE
  8
0
 10
0
 20
0
 39
0
 70
1
 66
1
  0
VERTEX
  8
0
 10
1000.596923828125
 20
738.5999755859375
 42
-0
  0
VERTEX
  8
0
 10
1000.596923828125
 20
775.5999755859375
 42
-0.082413926720619202
  0
VERTEX
  8
0
 10
771.8800048828125
 20
775.5999755859375
 42
0
  0
VERTEX
  8
0
 10
771.8800048828125
 20
738.5999755859375
 42
-0.099960364401340485
  0
SEQEND
  0
POLYLINE
  8
0
 10
0
 20
0
 39
0
 70
1
 66
1
  0
VERTEX
  8
0
 10
1030.1600341796875
 20
687.4769287109375
 42
-0
  0
VERTEX
  8
0
 10
993.15997314453125
 20
687.4769287109375
 42
-0.082413926720619202
  0
VERTEX
  8
0
 10
993.1600341796875
 20
458.760009765625
 42
0
  0
VERTEX
  8
0
 10
1030.1600341796875
 20
458.760009765625
 42
-0.099960364401340485
  0
SEQEND
  0
POLYLINE
  8
0
 10
0
 20
0
 39
0
 70
1
 66
1
  0
VERTEX
  8
0
 10
1029.3199462890625
 20
557.79998779296875
 42
-0
  0
VERTEX
  8
0
 10
1066.3199462890625
 20
557.79998779296875
 42
-0.082413926720619202
  0
VERTEX
  8
0
 10
1066.3199462890625
 20
786.51690673828125
 42
0
  0
VERTEX
  8
0
 10
1029.3199462890625
 20
786.51690673828125
 42
-0.099960364401340485
  0
SEQEND
  0
POLYLINE
  8
0
 10
0
 20
0
 39
0
 70
1
 66
1
  0
VERTEX
  8
0
 10
1212.8800048828125
 20
238.99691772460937
 42
-0
  0
VERTEX
  8
0
 10
1175.8800048828125
 20
238.99691772460937
 42
-0.082413926720619202
  0
VERTEX
  8
0
 10
1175.8800048828125
 20
10.280014991760254
 42
0
  0
VERTEX
  8
0
 10
1212.8800048828125
 20
10.279999732971191
 42
-0.099960364401340485
  0
SEQEND
  0
POLYLINE
  8
0
 10
0
 20
0
 39
0
 70
1
 66
1
  0
VERTEX
  8
0
 10
1218.9200439453125
 20
35.720001220703125
 42
-0
  0
VERTEX
  8
0
 10
1255.9200439453125
 20
35.720001220703125
 42
-0.082413926720619202
  0
VERTEX
  8
0
 10
1255.9200439453125
 20
264.4368896484375
 42
0
  0
VERTEX
  8
0
 10
1218.9200439453125
 20
264.43692016601562
 42
-0.099960364401340485
  0
SEQEND
  0
POLYLINE
  8
0
 10
0
 20
0
 39
0
 70
1
 66
1
  0
VERTEX
  8
0
 10
1299.760009765625
 20
238.99691772460937
 42
-0
  0
VERTEX
  8
0
 10
1262.760009765625
 20
238.99691772460937
 42
-0.082413926720619202
  0
VERTEX
  8
0
 10
1262.760009765625
 20
10.280014991760254
 42
0
  0
VERTEX
  8
0
 10
1299.760009765625
 20
10.279999732971191
 42
-0.099960364401340485
  0
SEQEND
  0
POLYLINE
  8
0
 10
0
 20
0
 39
0
 70
1
 66
1
  0
VERTEX
  8
0
 10
1303.796875
 20
738.5999755859375
 42
-0
  0
VERTEX
  8
0
 10
1303.796875
 20
775.5999755859375
 42
-0.082413926720619202
  0
VERTEX
  8
0
 10
1075.0799560546875
 20
775.5999755859375
 42
0
  0
VERTEX
  8
0
 10
1075.0799560546875
 20
738.5999755859375
 42
-0.099960364401340485
  0
SEQEND
  0
POLYLINE
  8
0
 10
0
 20
0
 39
0
 70
1
 66
1
  0
VERTEX
  8
0
 10
1333.3599853515625
 20
687.4769287109375
 42
-0
  0
VERTEX
  8
0
 10
1296.3599853515625
 20
687.4769287109375
 42
-0.082413926720619202
  0
VERTEX
  8
0
 10
1296.3599853515625
 20
458.760009765625
 42
0
  0
VERTEX
  8
0
 10
1333.3599853515625
 20
458.760009765625
 42
-0.099960364401340485
  0
SEQEND
  0
POLYLINE
  8
0
 10
0
 20
0
 39
0
 70
1
 66
1
  0
VERTEX
  8
0
 10
1332.52001953125
 20
557.79998779296875
 42
-0
  0
VERTEX
  8
0
 10
1369.52001953125
 20
557.79998779296875
 42
-0.082413926720619202
  0
VERTEX
  8
0
 10
1369.52001953125
 20
786.51690673828125
 42
0
  0
VERTEX
  8
0
 10
1332.52001953125
 20
786.51690673828125
 42
-0.099960364401340485
  0
SEQEND
  0
POLYLINE
  8
0
 10
0
 20
0
 39
0
 70
1
 66
1
  0
VERTEX
  8
0
 10
2163.760009765625
 20
238.99691772460937
 42
-0
  0
VERTEX
  8
0
 10
2126.760009765625
 20
238.99691772460937
 42
-0.082413926720619202
  0
VERTEX
  8
0
 10
2126.760009765625
 20
10.280014991760254
 42
0
  0
VERTEX
  8
0
 10
2163.760009765625
 20
10.279999732971191
 42
-0.099960364401340485
  0
SEQEND
  0
POLYLINE
  8
0
 10
0
 20
0
 39
0
 70
1
 66
1
  0
VERTEX
  8
0
 10
2171.080078125
 20
28.040000915527344
 42
-0
  0
VERTEX
  8
0
 10
2208.080078125
 20
28.040000915527344
 42
-0.082413926720619202
  0
VERTEX
  8
0
 10
2208.080078125
 20
256.75689697265625
 42
0
  0
VERTEX
  8
0
 10
2171.080078125
 20
256.75692749023437
 42
-0.099960364401340485
  0
SEQEND
  0
POLYLINE
  8
0
 10
0
 20
0
 39
0
 70
1
 66
1
  0
VERTEX
  8
0
 10
2215.8798828125
 20
10.279999732971191
 42
-0
  0
VERTEX
  8
0
 10
2252.8798828125
 20
10.279999732971191
 42
-0.082413926720619202
  0
VERTEX
  8
0
 10
2252.8798828125
 20
238.99690246582031
 42
0
  0
VERTEX
  8
0
 10
2215.8798828125
 20
238.99691772460937
 42
-0.099960364401340485
  0
SEQEND
  0
POLYLINE
  8
0
 10
0
 20
0
 39
0
 70
1
 66
1
  0
VERTEX
  8
0
 10
2249
 20
249
 42
-0
  0
VERTEX
  8
0
 10
2286
 20
249
 42
-0.082413926720619202
  0
VERTEX
  8
0
 10
2286
 20
477.7169189453125
 42
0
  0
VERTEX
  8
0
 10
2249
 20
477.7169189453125
 42
-0.099960364401340485
  0
SEQEND
  0
POLYLINE
  8
0
 10
0
 20
0
 39
0
 70
1
 66
1
  0
VERTEX
  8
0
 10
321.3599853515625
 20
314
 42
-0
  0
VERTEX
  8
0
 10
312.3599853515625
 20
314
 42
0
  0
VERTEX
  8
0
 10
312.3599853515625
 20
249
 42
0
  0
VERTEX
  8
0
 10
360.8599853515625
 20
249
 42
0
  0
VERTEX
  8
0
 10
360.8599853515625
 20
360.39999389648437
 42
0
  0
VERTEX
  8
0
 10
351.06222534179687
 20
360.39999389648437
 42
0.34649235010147095
  0
VERTEX
  8
0
 10
328.45999145507812
 20
342.60000610351562
 42
0
  0
SEQEND
  0
POLYLINE
  8
0
 10
0
 20
0
 39
0
 70
1
 66
1
  0
VERTEX
  8
0
 10
358.16000366210937
 20
156.39999389648437
 42
-0
  0
VERTEX
  8
0
 10
349.16000366210937
 20
156.39999389648437
 42
0
  0
VERTEX
  8
0
 10
349.16000366210937
 20
91.400001525878906
 42
0
  0
VERTEX
  8
0
 10
397.66000366210937
 20
91.400001525878906
 42
0
  0
VERTEX
  8
0
 10
397.66000366210937
 20
202.80000305175781
 42
0
  0
VERTEX
  8
0
 10
387.86221313476562
 20
202.80000305175781
 42
0.34649235010147095
  0
VERTEX
  8
0
 10
365.260009765625
 20
185
 42
0
  0
SEQEND
  0
POLYLINE
  8
0
 10
0
 20
0
 39
0
 70
1
 66
1
  0
VERTEX
  8
0
 10
422.95999145507812
 20
679.91998291015625
 42
-0
  0
VERTEX
  8
0
 10
413.95999145507812
 20
679.91998291015625
 42
0
  0
VERTEX
  8
0
 10
413.95999145507812
 20
614.91998291015625
 42
0
  0
VERTEX
  8
0
 10
462.45999145507812
 20
614.91998291015625
 42
0
  0
VERTEX
  8
0
 10
462.45999145507812
 20
726.32000732421875
 42
0
  0
VERTEX
  8
0
 10
452.66220092773437
 20
726.32000732421875
 42
0.34649235010147095
  0
VERTEX
  8
0
 10
430.05999755859375
 20
708.52001953125
 42
0
  0
SEQEND
  0
POLYLINE
  8
0
 10
0
 20
0
 39
0
 70
1
 66
1
  0
VERTEX
  8
0
 10
512.17999267578125
 20
661.96002197265625
 42
-0
  0
VERTEX
  8
0
 10
521.17999267578125
 20
661.96002197265625
 42
0
  0
VERTEX
  8
0
 10
521.17999267578125
 20
726.96002197265625
 42
0
  0
VERTEX
  8
0
 10
472.67999267578125
 20
726.96002197265625
 42
0
  0
VERTEX
  8
0
 10
472.67999267578125
 20
615.55999755859375
 42
0
  0
VERTEX
  8
0
 10
482.477783203125
 20
615.55999755859375
 42
0.34649235010147095
  0
VERTEX
  8
0
 10
505.07998657226563
 20
633.3599853515625
 42
0
  0
SEQEND
  0
POLYLINE
  8
0
 10
0
 20
0
 39
0
 70
1
 66
1
  0
VERTEX
  8
0
 10
735.70001220703125
 20
104.36000061035156
 42
-0
  0
VERTEX
  8
0
 10
744.70001220703125
 20
104.36000061035156
 42
0
  0
VERTEX
  8
0
 10
744.70001220703125
 20
169.36000061035156
 42
0
  0
VERTEX
  8
0
 10
696.20001220703125
 20
169.36000061035156
 42
0
  0
VERTEX
  8
0
 10
696.20001220703125
 20
57.959999084472656
 42
0
  0
VERTEX
  8
0
 10
705.997802734375
 20
57.959999084472656
 42
0.34649235010147095
  0
VERTEX
  8
0
 10
728.5999755859375
 20
75.760002136230469
 42
0
  0
SEQEND
  0
POLYLINE
  8
0
 10
0
 20
0
 39
0
 70
1
 66
1
  0
VERTEX
  8
0
 10
805.780029296875
 20
662.44000244140625
 42
-0
  0
VERTEX
  8
0
 10
814.780029296875
 20
662.44000244140625
 42
0
  0
VERTEX
  8
0
 10
814.780029296875
 20
727.44000244140625
 42
0
  0
VERTEX
  8
0
 10
766.280029296875
 20
727.44000244140625
 42
0
  0
VERTEX
  8
0
 10
766.280029296875
 20
616.03997802734375
 42
0
  0
VERTEX
  8
0
 10
776.0777587890625
 20
616.03997802734375
 42
0.34649235010147095
  0
VERTEX
  8
0
 10
798.67999267578125
 20
633.84002685546875
 42
0
  0
SEQEND
  0
POLYLINE
  8
0
 10
0
 20
0
 39
0
 70
1
 66
1
  0
VERTEX
  8
0
 10
1038.9000244140625
 20
104.36000061035156
 42
-0
  0
VERTEX
  8
0
 10
1047.9000244140625
 20
104.36000061035156
 42
0
  0
VERTEX
  8
0
 10
1047.9000244140625
 20
169.36000061035156
 42
0
  0
VERTEX
  8
0
 10
999.4000244140625
 20
169.36000061035156
 42
0
  0
VERTEX
  8
0
 10
999.4000244140625
 20
57.959999084472656
 42
0
  0
VERTEX
  8
0
 10
1009.1978149414062
 20
57.959999084472656
 42
0.34649235010147095
  0
VERTEX
  8
0
 10
1031.800048828125
 20
75.760002136230469
 42
0
  0
SEQEND
  0
POLYLINE
  8
0
 10
0
 20
0
 39
0
 70
1
 66
1
  0
VERTEX
  8
0
 10
1108.97998046875
 20
662.44000244140625
 42
-0
  0
VERTEX
  8
0
 10
1117.97998046875
 20
662.44000244140625
 42
0
  0
VERTEX
  8
0
 10
1117.97998046875
 20
727.44000244140625
 42
0
  0
VERTEX
  8
0
 10
1069.47998046875
 20
727.44000244140625
 42
0
  0
VERTEX
  8
0
 10
1069.47998046875
 20
616.03997802734375
 42
0
  0
VERTEX
  8
0
 10
1079.27783203125
 20
616.03997802734375
 42
0.34649235010147095
  0
VERTEX
  8
0
 10
1101.8800048828125
 20
633.84002685546875
 42
0
  0
SEQEND
  0
POLYLINE
  8
0
 10
0
 20
0
 39
0
 70
1
 66
1
  0
VERTEX
  8
0
 10
1342.0999755859375
 20
104.36000061035156
 42
-0
  0
VERTEX
  8
0
 10
1351.0999755859375
 20
104.36000061035156
 42
0
  0
VERTEX
  8
0
 10
1351.0999755859375
 20
169.36000061035156
 42
0
  0
VERTEX
  8
0
 10
1302.5999755859375
 20
169.36000061035156
 42
0
  0
VERTEX
  8
0
 10
1302.5999755859375
 20
57.959999084472656
 42
0
  0
VERTEX
  8
0
 10
1312.3978271484375
 20
57.959999084472656
 42
0.34649235010147095
  0
VERTEX
  8
0
 10
1335
 20
75.760002136230469
 42
0
  0
SEQEND
  0
POLYLINE
  8
0
 10
0
 20
0
 39
0
 70
1
 66
1
  0
VERTEX
  8
0
 10
1380.239990234375
 20
702.96002197265625
 42
-0
  0
VERTEX
  8
0
 10
1371.239990234375
 20
702.96002197265625
 42
0
  0
VERTEX
  8
0
 10
1371.239990234375
 20
637.96002197265625
 42
0
  0
VERTEX
  8
0
 10
1419.739990234375
 20
637.96002197265625
 42
0
  0
VERTEX
  8
0
 10
1419.739990234375
 20
749.3599853515625
 42
0
  0
VERTEX
  8
0
 10
1409.9422607421875
 20
749.3599853515625
 42
0.34649235010147095
  0
VERTEX
  8
0
 10
1387.3399658203125
 20
731.55999755859375
 42
0
  0
SEQEND
  0
POLYLINE
  8
0
 10
0
 20
0
 39
0
 70
1
 66
1
  0
VERTEX
  8
0
 10
1851.4000244140625
 20
750.15997314453125
 42
-0
  0
VERTEX
  8
0
 10
1851.4000244140625
 20
741.15997314453125
 42
0
  0
VERTEX
  8
0
 10
1916.4000244140625
 20
741.15997314453125
 42
0
  0
VERTEX
  8
0
 10
1916.4000244140625
 20
789.65997314453125
 42
0
  0
VERTEX
  8
0
 10
1805
 20
789.65997314453125
 42
0
  0
VERTEX
  8
0
 10
1805
 20
779.86224365234375
 42
0.34649235010147095
  0
VERTEX
  8
0
 10
1822.800048828125
 20
757.260009765625
 42
0
  0
SEQEND
  0
POLYLINE
  8
0
 10
0
 20
0
 39
0
 70
1
 66
1
  0
VERTEX
  8
0
 10
2263.60009765625
 20
154.47999572753906
 42
-0
  0
VERTEX
  8
0
 10
2254.60009765625
 20
154.47999572753906
 42
0
  0
VERTEX
  8
0
 10
2254.60009765625
 20
89.480003356933594
 42
0
  0
VERTEX
  8
0
 10
2303.10009765625
 20
89.480003356933594
 42
0
  0
VERTEX
  8
0
 10
2303.10009765625
 20
200.8800048828125
 42
0
  0
VERTEX
  8
0
 10
2293.30224609375
 20
200.8800048828125
 42
0.34649235010147095
  0
VERTEX
  8
0
 10
2270.699951171875
 20
183.08000183105469
 42
0
  0
SEQEND
  0
POLYLINE
  8
0
 10
0
 20
0
 39
0
 70
1
 66
1
  0
VERTEX
  8
0
 10
57.628829956054687
 20
533.35833740234375
 42
0.4085351824760437
  0
VERTEX
  8
0
 10
10.279999732971191
 20
614.4857177734375
 42
0
  0
VERTEX
  8
0
 10
10.280000686645508
 20
556.273193359375
 42
0.44417262077331543
  0
SEQEND
  0
POLYLINE
  8
0
 10
0
 20
0
 39
0
 70
1
 66
1
  0
VERTEX
  8
0
 10
78.638351440429688
 20
407.842041015625
 42
0.4085351824760437
  0
VERTEX
  8
0
 10
159.76570129394531
 20
455.19088745117187
 42
0
  0
VERTEX
  8
0
 10
101.55319976806641
 20
455.19088745117187
 42
0.44417262077331543
  0
SEQEND
  0
POLYLINE
  8
0
 10
0
 20
0
 39
0
 70
1
 66
1
  0
VERTEX
  8
0
 10
211.72735595703125
 20
57.628829956054687
 42
0.4085351824760437
  0
VERTEX
  8
0
 10
130.60000610351562
 20
10.279999732971191
 42
0
  0
VERTEX
  8
0
 10
188.81251525878906
 20
10.280000686645508
 42
0.44417262077331543
  0
SEQEND
  0
POLYLINE
  8
0
 10
0
 20
0
 39
0
 70
1
 66
1
  0
VERTEX
  8
0
 10
359.70883178710937
 20
373.03836059570312
 42
0.4085351824760437
  0
VERTEX
  8
0
 10
312.3599853515625
 20
454.16571044921875
 42
0
  0
VERTEX
  8
0
 10
312.36001586914062
 20
395.95318603515625
 42
0.44417262077331543
  0
SEQEND
  0
POLYLINE
  8
0
 10
0
 20
0
 39
0
 70
1
 66
1
  0
VERTEX
  8
0
 10
356.71835327148437
 20
33.602054595947266
 42
0.4085351824760437
  0
VERTEX
  8
0
 10
437.845703125
 20
80.950881958007813
 42
0
  0
VERTEX
  8
0
 10
379.63320922851563
 20
80.950881958007813
 42
0.44417262077331543
  0
SEQEND
  0
POLYLINE
  8
0
 10
0
 20
0
 39
0
 70
1
 66
1
  0
VERTEX
  8
0
 10
1432.3983154296875
 20
742.2420654296875
 42
0.4085351824760437
  0
VERTEX
  8
0
 10
1513.5257568359375
 20
789.59088134765625
 42
0
  0
VERTEX
  8
0
 10
1455.313232421875
 20
789.59088134765625
 42
0.44417262077331543
  0
SEQEND
  0
POLYLINE
  8
0
 10
0
 20
0
 39
0
 70
1
 66
1
  0
VERTEX
  8
0
 10
1475.2020263671875
 20
91.407356262207031
 42
0.4085351824760437
  0
VERTEX
  8
0
 10
1522.5509033203125
 20
10.279999732971191
 42
0
  0
VERTEX
  8
0
 10
1522.5509033203125
 20
68.492507934570313
 42
0.44417262077331543
  0
SEQEND
  0
POLYLINE
  8
0
 10
0
 20
0
 39
0
 70
1
 66
1
  0
VERTEX
  8
0
 10
1595.2020263671875
 20
353.1673583984375
 42
0.4085351824760437
  0
VERTEX
  8
0
 10
1642.5509033203125
 20
272.04000854492187
 42
0
  0
VERTEX
  8
0
 10
1642.5509033203125
 20
330.25250244140625
 42
0.44417262077331543
  0
SEQEND
  0
POLYLINE
  8
0
 10
0
 20
0
 39
0
 70
1
 66
1
  0
VERTEX
  8
0
 10
1661.4420166015625
 20
161.1673583984375
 42
0.4085351824760437
  0
VERTEX
  8
0
 10
1708.7908935546875
 20
80.040000915527344
 42
0
  0
VERTEX
  8
0
 10
1708.7908935546875
 20
138.25251770019531
 42
0.44417262077331543
  0
SEQEND
  0
POLYLINE
  8
0
 10
0
 20
0
 39
0
 70
1
 66
1
  0
VERTEX
  8
0
 10
1755.247314453125
 20
57.628829956054687
 42
0.4085351824760437
  0
VERTEX
  8
0
 10
1674.1199951171875
 20
10.279999732971191
 42
0
  0
VERTEX
  8
0
 10
1732.33251953125
 20
10.280000686645508
 42
0.44417262077331543
  0
SEQEND
  0
POLYLINE
  8
0
 10
0
 20
0
 39
0
 70
1
 66
1
  0
VERTEX
  8
0
 10
1891.0421142578125
 20
148.20735168457031
 42
0.4085351824760437
  0
VERTEX
  8
0
 10
1938.390869140625
 20
67.080001831054688
 42
0
  0
VERTEX
  8
0
 10
1938.390869140625
 20
125.29251098632812
 42
0.44417262077331543
  0
SEQEND
  0
POLYLINE
  8
0
 10
0
 20
0
 39
0
 70
1
 66
1
  0
VERTEX
  8
0
 10
2327.887451171875
 20
535.06884765625
 42
0.4085351824760437
  0
VERTEX
  8
0
 10
2246.760009765625
 20
487.72000122070312
 42
0
  0
VERTEX
  8
0
 10
2304.972412109375
 20
487.72000122070312
 42
0.44417262077331543
  0
SEQEND
  0
POLYLINE
  8
0
 10
0
 20
0
 39
0
 70
1
 66
1
  0
VERTEX
  8
0
 10
2288.962158203125
 20
370.44735717773437
 42
0.4085351824760437
  0
VERTEX
  8
0
 10
2336.310791015625
 20
289.32000732421875
 42
0
  0
VERTEX
  8
0
 10
2336.310791015625
 20
347.53250122070312
 42
0.44417262077331543
  0
SEQEND
  0
POLYLINE
  8
0
 10
0
 20
0
 39
0
 70
1
 66
1
  0
VERTEX
  8
0
 10
2293.442138671875
 20
452.04736328125
 42
0.4085351824760437
  0
VERTEX
  8
0
 10
2340.790771484375
 20
370.92001342773437
 42
0
  0
VERTEX
  8
0
 10
2340.790771484375
 20
429.13250732421875
 42
0.44417262077331543
  0
SEQEND
  0
POLYLINE
  8
0
 10
0
 20
0
 39
0
 70
1
 66
1
  0
VERTEX
  8
0
 10
2261.518310546875
 20
30.882055282592773
 42
0.4085351824760437
  0
VERTEX
  8
0
 10
2342.645751953125
 20
78.230888366699219
 42
0
  0
VERTEX
  8
0
 10
2284.43310546875
 20
78.230888366699219
 42
0.44417262077331543
  0
SEQEND
  0
POLYLINE
  8
0
 10
0
 20
0
 39
0
 70
1
 66
1
  0
VERTEX
  8
0
 10
2296.802001953125
 20
282.287353515625
 42
0.4085351824760437
  0
VERTEX
  8
0
 10
2344.15087890625
 20
201.16000366210937
 42
0
  0
VERTEX
  8
0
 10
2344.15087890625
 20
259.37249755859375
 42
0.44417262077331543
  0
SEQEND
  0
POLYLINE
  8
0
 10
0
 20
0
 39
0
 70
1
 66
1
  0
VERTEX
  8
0
 10
2306.882080078125
 20
682.60736083984375
 42
0.4085351824760437
  0
VERTEX
  8
0
 10
2354.23095703125
 20
601.47998046875
 42
0
  0
VERTEX
  8
0
 10
2354.23095703125
 20
659.6925048828125
 42
0.44417262077331543
  0
SEQEND
  0
POLYLINE
  8
0
 10
0
 20
0
 39
0
 70
1
 66
1
  0
VERTEX
  8
0
 10
2315.362060546875
 20
162.44735717773437
 42
0.4085351824760437
  0
VERTEX
  8
0
 10
2362.7109375
 20
81.319999694824219
 42
0
  0
VERTEX
  8
0
 10
2362.7109375
 20
139.53251647949219
 42
0.44417262077331543
  0
SEQEND
  0
POLYLINE
  8
0
 10
0
 20
0
 39
0
 70
1
 66
1
  0
VERTEX
  8
0
 10
2329.922119140625
 20
750.767333984375
 42
0.4085351824760437
  0
VERTEX
  8
0
 10
2377.27099609375
 20
669.6400146484375
 42
0
  0
VERTEX
  8
0
 10
2377.27099609375
 20
727.8525390625
 42
0.44417262077331543
  0
SEQEND
  0
POLYLINE
  8
0
 10
0
 20
0
 39
0
 70
1
 66
1
  0
VERTEX
  8
0
 10
2335.0419921875
 20
499.24734497070312
 42
0.4085351824760437
  0
VERTEX
  8
0
 10
2382.390869140625
 20
418.1199951171875
 42
0
  0
VERTEX
  8
0
 10
2382.390869140625
 20
476.33251953125
 42
0.44417262077331543
  0
SEQEND
  0
POLYLINE
  8
0
 10
0
 20
0
 39
0
 70
1
 66
1
  0
VERTEX
  8
0
 10
2340.64208984375
 20
580.20733642578125
 42
0.4085351824760437
  0
VERTEX
  8
0
 10
2387.990966796875
 20
499.07998657226562
 42
0
  0
VERTEX
  8
0
 10
2387.990966796875
 20
557.29254150390625
 42
0.44417262077331543
  0
SEQEND
  0
POLYLINE
  8
0
 10
0
 20
0
 39
0
 70
1
 66
1
  0
VERTEX
  8
0
 10
377.45999145507812
 20
434.20916748046875
 42
-0.18664875626564026
  0
VERTEX
  8
0
 10
386.17800903320312
 20
411.39999389648437
 42
0
  0
VERTEX
  8
0
 10
401.17800903320312
 20
411.39999389648437
 42
0
  0
VERTEX
  8
0
 10
401.17800903320312
 20
434.20916748046875
 42
0
  0
VERTEX
  8
0
 10
383.46884155273437
 20
455.20916748046875
 42
0
  0
VERTEX
  8
0
 10
357.95999145507812
 20
455.20916748046875
 42
0
  0
VERTEX
  8
0
 10
357.95999145507812
 20
434.20916748046875
 42
0
  0
SEQEND
  0
POLYLINE
  8
0
 10
0
 20
0
 39
0
 70
1
 66
1
  0
VERTEX
  8
0
 10
427.3800048828125
 20
132.92916870117187
 42
-0.18664875626564026
  0
VERTEX
  8
0
 10
436.0980224609375
 20
110.12000274658203
 42
0
  0
VERTEX
  8
0
 10
451.0980224609375
 20
110.12000274658203
 42
0
  0
VERTEX
  8
0
 10
451.0980224609375
 20
132.92916870117187
 42
0
  0
VERTEX
  8
0
 10
433.38882446289062
 20
153.92916870117187
 42
0
  0
VERTEX
  8
0
 10
407.8800048828125
 20
153.92916870117187
 42
0
  0
VERTEX
  8
0
 10
407.8800048828125
 20
132.92916870117187
 42
0
  0
SEQEND
  0
POLYLINE
  8
0
 10
0
 20
0
 39
0
 70
1
 66
1
  0
VERTEX
  8
0
 10
484.98001098632812
 20
506.5291748046875
 42
-0.18664875626564026
  0
VERTEX
  8
0
 10
493.697998046875
 20
483.72000122070312
 42
0
  0
VERTEX
  8
0
 10
508.697998046875
 20
483.72000122070312
 42
0
  0
VERTEX
  8
0
 10
508.697998046875
 20
506.5291748046875
 42
0
  0
VERTEX
  8
0
 10
490.98883056640625
 20
527.5291748046875
 42
0
  0
VERTEX
  8
0
 10
465.48001098632812
 20
527.5291748046875
 42
0
  0
VERTEX
  8
0
 10
465.48001098632812
 20
506.5291748046875
 42
0
  0
SEQEND
  0
POLYLINE
  8
0
 10
0
 20
0
 39
0
 70
1
 66
1
  0
VERTEX
  8
0
 10
711.1199951171875
 20
422.89999389648437
 42
-0.18664875626564026
  0
VERTEX
  8
0
 10
733.92919921875
 20
431.61801147460937
 42
0
  0
VERTEX
  8
0
 10
733.92919921875
 20
446.61801147460937
 42
0
  0
VERTEX
  8
0
 10
711.1199951171875
 20
446.61801147460937
 42
0
  0
VERTEX
  8
0
 10
690.1199951171875
 20
428.90884399414062
 42
0
  0
VERTEX
  8
0
 10
690.1199951171875
 20
403.39999389648437
 42
0
  0
VERTEX
  8
0
 10
711.1199951171875
 20
403.39999389648437
 42
0
  0
SEQEND
  0
POLYLINE
  8
0
 10
0
 20
0
 39
0
 70
1
 66
1
  0
VERTEX
  8
0
 10
747.219970703125
 20
526.68914794921875
 42
-0.18664875626564026
  0
VERTEX
  8
0
 10
755.93798828125
 20
503.8800048828125
 42
0
  0
VERTEX
  8
0
 10
770.93798828125
 20
503.8800048828125
 42
0
  0
VERTEX
  8
0
 10
770.93798828125
 20
526.68914794921875
 42
0
  0
VERTEX
  8
0
 10
753.22882080078125
 20
547.68914794921875
 42
0
  0
VERTEX
  8
0
 10
727.719970703125
 20
547.68914794921875
 42
0
  0
VERTEX
  8
0
 10
727.719970703125
 20
526.68914794921875
 42
0
  0
SEQEND
  0
POLYLINE
  8
0
 10
0
 20
0
 39
0
 70
1
 66
1
  0
VERTEX
  8
0
 10
846
 20
708.02001953125
 42
-0.18664875626564026
  0
VERTEX
  8
0
 10
868.80914306640625
 20
716.738037109375
 42
0
  0
VERTEX
  8
0
 10
868.80914306640625
 20
731.738037109375
 42
0
  0
VERTEX
  8
0
 10
846
 20
731.738037109375
 42
0
  0
VERTEX
  8
0
 10
825
 20
714.02880859375
 42
0
  0
VERTEX
  8
0
 10
825
 20
688.52001953125
 42
0
  0
VERTEX
  8
0
 10
846
 20
688.52001953125
 42
0
  0
SEQEND
  0
POLYLINE
  8
0
 10
0
 20
0
 39
0
 70
1
 66
1
  0
VERTEX
  8
0
 10
1014.3200073242187
 20
422.89999389648437
 42
-0.18664875626564026
  0
VERTEX
  8
0
 10
1037.129150390625
 20
431.61801147460937
 42
0
  0
VERTEX
  8
0
 10
1037.129150390625
 20
446.61801147460937
 42
0
  0
VERTEX
  8
0
 10
1014.3200073242187
 20
446.61801147460937
 42
0
  0
VERTEX
  8
0
 10
993.32000732421875
 20
428.90884399414062
 42
0
  0
VERTEX
  8
0
 10
993.32000732421875
 20
403.39999389648437
 42
0
  0
VERTEX
  8
0
 10
1014.3200073242187
 20
403.39999389648437
 42
0
  0
SEQEND
  0
POLYLINE
  8
0
 10
0
 20
0
 39
0
 70
1
 66
1
  0
VERTEX
  8
0
 10
1050.4200439453125
 20
526.68914794921875
 42
-0.18664875626564026
  0
VERTEX
  8
0
 10
1059.1380615234375
 20
503.8800048828125
 42
0
  0
VERTEX
  8
0
 10
1074.1380615234375
 20
503.8800048828125
 42
0
  0
VERTEX
  8
0
 10
1074.1380615234375
 20
526.68914794921875
 42
0
  0
VERTEX
  8
0
 10
1056.4288330078125
 20
547.68914794921875
 42
0
  0
VERTEX
  8
0
 10
1030.9200439453125
 20
547.68914794921875
 42
0
  0
VERTEX
  8
0
 10
1030.9200439453125
 20
526.68914794921875
 42
0
  0
SEQEND
  0
POLYLINE
  8
0
 10
0
 20
0
 39
0
 70
1
 66
1
  0
VERTEX
  8
0
 10
1149.199951171875
 20
708.02001953125
 42
-0.18664875626564026
  0
VERTEX
  8
0
 10
1172.0091552734375
 20
716.738037109375
 42
0
  0
VERTEX
  8
0
 10
1172.0091552734375
 20
731.738037109375
 42
0
  0
VERTEX
  8
0
 10
1149.199951171875
 20
731.738037109375
 42
0
  0
VERTEX
  8
0
 10
1128.199951171875
 20
714.02880859375
 42
0
  0
VERTEX
  8
0
 10
1128.199951171875
 20
688.52001953125
 42
0
  0
VERTEX
  8
0
 10
1149.199951171875
 20
688.52001953125
 42
0
  0
SEQEND
  0
POLYLINE
  8
0
 10
0
 20
0
 39
0
 70
1
 66
1
  0
VERTEX
  8
0
 10
1317.52001953125
 20
422.89999389648437
 42
-0.18664875626564026
  0
VERTEX
  8
0
 10
1340.3292236328125
 20
431.61801147460937
 42
0
  0
VERTEX
  8
0
 10
1340.3292236328125
 20
446.61801147460937
 42
0
  0
VERTEX
  8
0
 10
1317.52001953125
 20
446.61801147460937
 42
0
  0
VERTEX
  8
0
 10
1296.52001953125
 20
428.90884399414062
 42
0
  0
VERTEX
  8
0
 10
1296.52001953125
 20
403.39999389648437
 42
0
  0
VERTEX
  8
0
 10
1317.52001953125
 20
403.39999389648437
 42
0
  0
SEQEND
  0
POLYLINE
  8
0
 10
0
 20
0
 39
0
 70
1
 66
1
  0
VERTEX
  8
0
 10
1353.6199951171875
 20
526.68914794921875
 42
-0.18664875626564026
  0
VERTEX
  8
0
 10
1362.3380126953125
 20
503.8800048828125
 42
0
  0
VERTEX
  8
0
 10
1377.3380126953125
 20
503.8800048828125
 42
0
  0
VERTEX
  8
0
 10
1377.3380126953125
 20
526.68914794921875
 42
0
  0
VERTEX
  8
0
 10
1359.6287841796875
 20
547.68914794921875
 42
0
  0
VERTEX
  8
0
 10
1334.1199951171875
 20
547.68914794921875
 42
0
  0
VERTEX
  8
0
 10
1334.1199951171875
 20
526.68914794921875
 42
0
  0
SEQEND
  0
POLYLINE
  8
0
 10
0
 20
0
 39
0
 70
1
 66
1
  0
VERTEX
  8
0
 10
1450.9599609375
 20
705.94000244140625
 42
-0.18664875626564026
  0
VERTEX
  8
0
 10
1473.7691650390625
 20
714.65802001953125
 42
0
  0
VERTEX
  8
0
 10
1473.7691650390625
 20
729.65802001953125
 42
0
  0
VERTEX
  8
0
 10
1450.9599609375
 20
729.65802001953125
 42
0
  0
VERTEX
  8
0
 10
1429.9599609375
 20
711.9488525390625
 42
0
  0
VERTEX
  8
0
 10
1429.9599609375
 20
686.44000244140625
 42
0
  0
VERTEX
  8
0
 10
1450.9599609375
 20
686.44000244140625
 42
0
  0
SEQEND
  0
POLYLINE
  8
0
 10
0
 20
0
 39
0
 70
1
 66
1
  0
VERTEX
  8
0
 10
1544.6600341796875
 20
768.60919189453125
 42
-0.18664875626564026
  0
VERTEX
  8
0
 10
1553.3780517578125
 20
745.79998779296875
 42
0
  0
VERTEX
  8
0
 10
1568.3780517578125
 20
745.79998779296875
 42
0
  0
VERTEX
  8
0
 10
1568.3780517578125
 20
768.60919189453125
 42
0
  0
VERTEX
  8
0
 10
1550.6688232421875
 20
789.60919189453125
 42
0
  0
VERTEX
  8
0
 10
1525.1600341796875
 20
789.60919189453125
 42
0
  0
VERTEX
  8
0
 10
1525.1600341796875
 20
768.60919189453125
 42
0
  0
SEQEND
  0
POLYLINE
  8
0
 10
0
 20
0
 39
0
 70
1
 66
1
  0
VERTEX
  8
0
 10
1618.9000244140625
 20
558.5291748046875
 42
-0.18664875626564026
  0
VERTEX
  8
0
 10
1627.6180419921875
 20
535.719970703125
 42
0
  0
VERTEX
  8
0
 10
1642.6180419921875
 20
535.719970703125
 42
0
  0
VERTEX
  8
0
 10
1642.6180419921875
 20
558.5291748046875
 42
0
  0
VERTEX
  8
0
 10
1624.9088134765625
 20
579.5291748046875
 42
0
  0
VERTEX
  8
0
 10
1599.4000244140625
 20
579.5291748046875
 42
0
  0
VERTEX
  8
0
 10
1599.4000244140625
 20
558.5291748046875
 42
0
  0
SEQEND
  0
POLYLINE
  8
0
 10
0
 20
0
 39
0
 70
1
 66
1
  0
VERTEX
  8
0
 10
1904.3399658203125
 20
278.84918212890625
 42
-0.18664875626564026
  0
VERTEX
  8
0
 10
1913.0579833984375
 20
256.04000854492187
 42
0
  0
VERTEX
  8
0
 10
1928.0579833984375
 20
256.04000854492187
 42
0
  0
VERTEX
  8
0
 10
1928.0579833984375
 20
278.84918212890625
 42
0
  0
VERTEX
  8
0
 10
1910.348876953125
 20
299.84918212890625
 42
0
  0
VERTEX
  8
0
 10
1884.8399658203125
 20
299.84918212890625
 42
0
  0
VERTEX
  8
0
 10
1884.8399658203125
 20
278.84918212890625
 42
0
  0
SEQEND
  0
POLYLINE
  8
0
 10
0
 20
0
 39
0
 70
1
 66
1
  0
VERTEX
  8
0
 10
1921.7291259765625
 20
33.998008728027344
 42
-0.18664875626564026
  0
VERTEX
  8
0
 10
1898.9200439453125
 20
25.280000686645508
 42
0
  0
VERTEX
  8
0
 10
1898.9200439453125
 20
10.279999732971191
 42
0
  0
VERTEX
  8
0
 10
1921.7291259765625
 20
10.279999732971191
 42
0
  0
VERTEX
  8
0
 10
1942.7291259765625
 20
27.989173889160156
 42
0
  0
VERTEX
  8
0
 10
1942.7291259765625
 20
53.498008728027344
 42
0
  0
VERTEX
  8
0
 10
1921.7291259765625
 20
53.498008728027344
 42
0
  0
SEQEND
  0
POLYLINE
  8
0
 10
0
 20
0
 39
0
 70
1
 66
1
  0
VERTEX
  8
0
 10
1947.5999755859375
 20
761.29998779296875
 42
-0.18664875626564026
  0
VERTEX
  8
0
 10
1970.4091796875
 20
770.01800537109375
 42
0
  0
VERTEX
  8
0
 10
1970.4091796875
 20
785.01800537109375
 42
0
  0
VERTEX
  8
0
 10
1947.5999755859375
 20
785.01800537109375
 42
0
  0
VERTEX
  8
0
 10
1926.5999755859375
 20
767.308837890625
 42
0
  0
VERTEX
  8
0
 10
1926.5999755859375
 20
741.79998779296875
 42
0
  0
VERTEX
  8
0
 10
1947.5999755859375
 20
741.79998779296875
 42
0
  0
SEQEND
  0
POLYLINE
  8
0
 10
0
 20
0
 39
0
 70
1
 66
1
  0
VERTEX
  8
0
 10
2213.780029296875
 20
454.84918212890625
 42
-0.18664875626564026
  0
VERTEX
  8
0
 10
2222.498046875
 20
432.04000854492187
 42
0
  0
VERTEX
  8
0
 10
2237.498046875
 20
432.04000854492187
 42
0
  0
VERTEX
  8
0
 10
2237.498046875
 20
454.84918212890625
 42
0
  0
VERTEX
  8
0
 10
2219.788818359375
 20
475.84918212890625
 42
0
  0
VERTEX
  8
0
 10
2194.280029296875
 20
475.84918212890625
 42
0
  0
VERTEX
  8
0
 10
2194.280029296875
 20
454.84918212890625
 42
0
  0
SEQEND
  0
POLYLINE
  8
0
 10
0
 20
0
 39
0
 70
1
 66
1
  0
VERTEX
  8
0
 10
2342.84912109375
 20
33.998008728027344
 42
-0.18664875626564026
  0
VERTEX
  8
0
 10
2320.0400390625
 20
25.280000686645508
 42
0
  0
VERTEX
  8
0
 10
2320.0400390625
 20
10.279999732971191
 42
0
  0
VERTEX
  8
0
 10
2342.84912109375
 20
10.279999732971191
 42
0
  0
VERTEX
  8
0
 10
2363.84912109375
 20
27.989173889160156
 42
0
  0
VERTEX
  8
0
 10
2363.84912109375
 20
53.498008728027344
 42
0
  0
VERTEX
  8
0
 10
2342.84912109375
 20
53.498008728027344
 42
0
  0
SEQEND
  0
POLYLINE
  8
0
 10
0
 20
0
 39
0
 70
1
 66
1
  0
VERTEX
  8
0
 10
2360.2890625
 20
198.31800842285156
 42
-0.18664875626564026
  0
VERTEX
  8
0
 10
2337.47998046875
 20
189.60000610351562
 42
0
  0
VERTEX
  8
0
 10
2337.47998046875
 20
174.60000610351562
 42
0
  0
VERTEX
  8
0
 10
2360.2890625
 20
174.60000610351562
 42
0
  0
VERTEX
  8
0
 10
2381.2890625
 20
192.30917358398437
 42
0
  0
VERTEX
  8
0
 10
2381.2890625
 20
217.81800842285156
 42
0
  0
VERTEX
  8
0
 10
2360.2890625
 20
217.81800842285156
 42
0
  0
SEQEND
  0
POLYLINE
  8
0
 10
0
 20
0
 39
0
 70
1
 66
1
  0
VERTEX
  8
0
 10
240.67961120605469
 20
17.149774551391602
 42
-0
  0
VERTEX
  8
0
 10
252.75816345214844
 20
10.31605339050293
 42
0.24197575449943542
  0
VERTEX
  8
0
 10
232.69927978515625
 20
46.308128356933594
 42
-0
  0
VERTEX
  8
0
 10
220.60926818847656
 20
24.939090728759766
 42
1
  0
SEQEND
  0
POLYLINE
  8
0
 10
0
 20
0
 39
0
 70
1
 66
1
  0
VERTEX
  8
0
 10
380.839599609375
 20
219.70977783203125
 42
-0
  0
VERTEX
  8
0
 10
392.91815185546875
 20
212.87605285644531
 42
0.24197575449943542
  0
VERTEX
  8
0
 10
372.85928344726562
 20
248.86813354492187
 42
-0
  0
VERTEX
  8
0
 10
360.76925659179687
 20
227.49908447265625
 42
1
  0
SEQEND
  0
POLYLINE
  8
0
 10
0
 20
0
 39
0
 70
1
 66
1
  0
VERTEX
  8
0
 10
434.95834350585937
 20
31.07960319519043
 42
-0
  0
VERTEX
  8
0
 10
441.79208374023437
 20
43.158164978027344
 42
0.24197575449943542
  0
VERTEX
  8
0
 10
405.79998779296875
 20
23.099277496337891
 42
-0
  0
VERTEX
  8
0
 10
427.16903686523437
 20
11.009262084960938
 42
1
  0
SEQEND
  0
POLYLINE
  8
0
 10
0
 20
0
 39
0
 70
1
 66
1
  0
VERTEX
  8
0
 10
542.5185546875
 20
730.318359375
 42
-0
  0
VERTEX
  8
0
 10
530.44000244140625
 20
737.152099609375
 42
0.24197575449943542
  0
VERTEX
  8
0
 10
550.4989013671875
 20
701.15997314453125
 42
-0
  0
VERTEX
  8
0
 10
562.58892822265625
 20
722.529052734375
 42
1
  0
SEQEND
  0
POLYLINE
  8
0
 10
0
 20
0
 39
0
 70
1
 66
1
  0
VERTEX
  8
0
 10
712.23834228515625
 20
722.91961669921875
 42
-0
  0
VERTEX
  8
0
 10
719.07208251953125
 20
734.9981689453125
 42
0.24197575449943542
  0
VERTEX
  8
0
 10
683.08001708984375
 20
714.93927001953125
 42
-0
  0
VERTEX
  8
0
 10
704.44903564453125
 20
702.8492431640625
 42
1
  0
SEQEND
  0
POLYLINE
  8
0
 10
0
 20
0
 39
0
 70
1
 66
1
  0
VERTEX
  8
0
 10
710.03857421875
 20
40.558353424072266
 42
-0
  0
VERTEX
  8
0
 10
697.96002197265625
 20
47.392074584960938
 42
0.24197575449943542
  0
VERTEX
  8
0
 10
718.01885986328125
 20
11.40000057220459
 42
-0
  0
VERTEX
  8
0
 10
730.10888671875
 20
32.769039154052734
 42
1
  0
SEQEND
  0
POLYLINE
  8
0
 10
0
 20
0
 39
0
 70
1
 66
1
  0
VERTEX
  8
0
 10
743.95855712890625
 20
486.95834350585937
 42
-0
  0
VERTEX
  8
0
 10
731.8800048828125
 20
493.79208374023437
 42
0.24197575449943542
  0
VERTEX
  8
0
 10
751.93890380859375
 20
457.79998779296875
 42
-0
  0
VERTEX
  8
0
 10
764.0289306640625
 20
479.16903686523437
 42
1
  0
SEQEND
  0
POLYLINE
  8
0
 10
0
 20
0
 39
0
 70
1
 66
1
  0
VERTEX
  8
0
 10
799.7196044921875
 20
490.10977172851562
 42
-0
  0
VERTEX
  8
0
 10
811.79815673828125
 20
483.27606201171875
 42
0.24197575449943542
  0
VERTEX
  8
0
 10
791.7392578125
 20
519.26812744140625
 42
-0
  0
VERTEX
  8
0
 10
779.6492919921875
 20
497.89907836914063
 42
1
  0
SEQEND
  0
POLYLINE
  8
0
 10
0
 20
0
 39
0
 70
1
 66
1
  0
VERTEX
  8
0
 10
1016.2383422851562
 20
721.319580078125
 42
-0
  0
VERTEX
  8
0
 10
1023.0720825195312
 20
733.398193359375
 42
0.24197575449943542
  0
VERTEX
  8
0
 10
987.08001708984375
 20
713.33929443359375
 42
-0
  0
VERTEX
  8
0
 10
1008.4490356445312
 20
701.249267578125
 42
1
  0
SEQEND
  0
POLYLINE
  8
0
 10
0
 20
0
 39
0
 70
1
 66
1
  0
VERTEX
  8
0
 10
1013.2385864257812
 20
40.558353424072266
 42
-0
  0
VERTEX
  8
0
 10
1001.1599731445312
 20
47.392074584960938
 42
0.24197575449943542
  0
VERTEX
  8
0
 10
1021.2188720703125
 20
11.40000057220459
 42
-0
  0
VERTEX
  8
0
 10
1033.3089599609375
 20
32.769039154052734
 42
1
  0
SEQEND
  0
POLYLINE
  8
0
 10
0
 20
0
 39
0
 70
1
 66
1
  0
VERTEX
  8
0
 10
1047.1585693359375
 20
486.95834350585937
 42
-0
  0
VERTEX
  8
0
 10
1035.0799560546875
 20
493.79208374023437
 42
0.24197575449943542
  0
VERTEX
  8
0
 10
1055.138916015625
 20
457.79998779296875
 42
-0
  0
VERTEX
  8
0
 10
1067.2288818359375
 20
479.16903686523437
 42
1
  0
SEQEND
  0
POLYLINE
  8
0
 10
0
 20
0
 39
0
 70
1
 66
1
  0
VERTEX
  8
0
 10
1102.9195556640625
 20
490.10977172851562
 42
-0
  0
VERTEX
  8
0
 10
1114.9981689453125
 20
483.27606201171875
 42
0.24197575449943542
  0
VERTEX
  8
0
 10
1094.9393310546875
 20
519.26812744140625
 42
-0
  0
VERTEX
  8
0
 10
1082.8492431640625
 20
497.89907836914063
 42
1
  0
SEQEND
  0
POLYLINE
  8
0
 10
0
 20
0
 39
0
 70
1
 66
1
  0
VERTEX
  8
0
 10
1319.4383544921875
 20
721.319580078125
 42
-0
  0
VERTEX
  8
0
 10
1326.2720947265625
 20
733.398193359375
 42
0.24197575449943542
  0
VERTEX
  8
0
 10
1290.280029296875
 20
713.33929443359375
 42
-0
  0
VERTEX
  8
0
 10
1311.6490478515625
 20
701.249267578125
 42
1
  0
SEQEND
  0
POLYLINE
  8
0
 10
0
 20
0
 39
0
 70
1
 66
1
  0
VERTEX
  8
0
 10
1316.4385986328125
 20
40.558353424072266
 42
-0
  0
VERTEX
  8
0
 10
1304.3599853515625
 20
47.392074584960938
 42
0.24197575449943542
  0
VERTEX
  8
0
 10
1324.4189453125
 20
11.40000057220459
 42
-0
  0
VERTEX
  8
0
 10
1336.5089111328125
 20
32.769039154052734
 42
1
  0
SEQEND
  0
POLYLINE
  8
0
 10
0
 20
0
 39
0
 70
1
 66
1
  0
VERTEX
  8
0
 10
1350.3585205078125
 20
486.95834350585937
 42
-0
  0
VERTEX
  8
0
 10
1338.280029296875
 20
493.79208374023437
 42
0.24197575449943542
  0
VERTEX
  8
0
 10
1358.3388671875
 20
457.79998779296875
 42
-0
  0
VERTEX
  8
0
 10
1370.428955078125
 20
479.16903686523437
 42
1
  0
SEQEND
  0
POLYLINE
  8
0
 10
0
 20
0
 39
0
 70
1
 66
1
  0
VERTEX
  8
0
 10
1384.1185302734375
 20
620.71832275390625
 42
-0
  0
VERTEX
  8
0
 10
1372.0400390625
 20
627.55206298828125
 42
0.24197575449943542
  0
VERTEX
  8
0
 10
1392.098876953125
 20
591.55999755859375
 42
-0
  0
VERTEX
  8
0
 10
1404.18896484375
 20
612.92901611328125
 42
1
  0
SEQEND
  0
POLYLINE
  8
0
 10
0
 20
0
 39
0
 70
1
 66
1
  0
VERTEX
  8
0
 10
1385.309814453125
 20
764.758544921875
 42
-0
  0
VERTEX
  8
0
 10
1378.47607421875
 20
752.67999267578125
 42
0.24197575449943542
  0
VERTEX
  8
0
 10
1414.4681396484375
 20
772.7388916015625
 42
-0
  0
VERTEX
  8
0
 10
1393.09912109375
 20
784.82891845703125
 42
1
  0
SEQEND
  0
POLYLINE
  8
0
 10
0
 20
0
 39
0
 70
1
 66
1
  0
VERTEX
  8
0
 10
1406.11962890625
 20
490.10977172851562
 42
-0
  0
VERTEX
  8
0
 10
1418.1981201171875
 20
483.27606201171875
 42
0.24197575449943542
  0
VERTEX
  8
0
 10
1398.1392822265625
 20
519.26812744140625
 42
-0
  0
VERTEX
  8
0
 10
1386.04931640625
 20
497.89907836914063
 42
1
  0
SEQEND
  0
POLYLINE
  8
0
 10
0
 20
0
 39
0
 70
1
 66
1
  0
VERTEX
  8
0
 10
1498.2796630859375
 20
110.90977478027344
 42
-0
  0
VERTEX
  8
0
 10
1510.358154296875
 20
104.0760498046875
 42
0.24197575449943542
  0
VERTEX
  8
0
 10
1490.29931640625
 20
140.06813049316406
 42
-0
  0
VERTEX
  8
0
 10
1478.209228515625
 20
118.69908905029297
 42
1
  0
SEQEND
  0
POLYLINE
  8
0
 10
0
 20
0
 39
0
 70
1
 66
1
  0
VERTEX
  8
0
 10
1618.4395751953125
 20
372.66976928710937
 42
-0
  0
VERTEX
  8
0
 10
1630.5181884765625
 20
365.8360595703125
 42
0.24197575449943542
  0
VERTEX
  8
0
 10
1610.459228515625
 20
401.828125
 42
-0
  0
VERTEX
  8
0
 10
1598.3692626953125
 20
380.45907592773437
 42
1
  0
SEQEND
  0
POLYLINE
  8
0
 10
0
 20
0
 39
0
 70
1
 66
1
  0
VERTEX
  8
0
 10
1611.478515625
 20
618.79833984375
 42
-0
  0
VERTEX
  8
0
 10
1599.4000244140625
 20
625.632080078125
 42
0.24197575449943542
  0
VERTEX
  8
0
 10
1619.4588623046875
 20
589.6400146484375
 42
-0
  0
VERTEX
  8
0
 10
1631.5489501953125
 20
611.009033203125
 42
1
  0
SEQEND
  0
POLYLINE
  8
0
 10
0
 20
0
 39
0
 70
1
 66
1
  0
VERTEX
  8
0
 10
1685.799560546875
 20
180.66976928710937
 42
-0
  0
VERTEX
  8
0
 10
1697.878173828125
 20
173.8360595703125
 42
0.24197575449943542
  0
VERTEX
  8
0
 10
1677.8193359375
 20
209.828125
 42
-0
  0
VERTEX
  8
0
 10
1665.729248046875
 20
188.45909118652344
 42
1
  0
SEQEND
  0
POLYLINE
  8
0
 10
0
 20
0
 39
0
 70
1
 66
1
  0
VERTEX
  8
0
 10
1739.879638671875
 20
76.509773254394531
 42
-0
  0
VERTEX
  8
0
 10
1751.9581298828125
 20
69.676055908203125
 42
0.24197575449943542
  0
VERTEX
  8
0
 10
1731.8992919921875
 20
105.66812896728516
 42
-0
  0
VERTEX
  8
0
 10
1719.8092041015625
 20
84.299087524414063
 42
1
  0
SEQEND
  0
POLYLINE
  8
0
 10
0
 20
0
 39
0
 70
1
 66
1
  0
VERTEX
  8
0
 10
1794.318359375
 20
540.1995849609375
 42
-0
  0
VERTEX
  8
0
 10
1801.152099609375
 20
552.27813720703125
 42
0.24197575449943542
  0
VERTEX
  8
0
 10
1765.1600341796875
 20
532.21929931640625
 42
-0
  0
VERTEX
  8
0
 10
1786.529052734375
 20
520.1292724609375
 42
1
  0
SEQEND
  0
POLYLINE
  8
0
 10
0
 20
0
 39
0
 70
1
 66
1
  0
VERTEX
  8
0
 10
1814.4395751953125
 20
441.6297607421875
 42
-0
  0
VERTEX
  8
0
 10
1826.5181884765625
 20
434.79605102539062
 42
0.24197575449943542
  0
VERTEX
  8
0
 10
1806.459228515625
 20
470.78811645507812
 42
-0
  0
VERTEX
  8
0
 10
1794.3692626953125
 20
449.41909790039062
 42
1
  0
SEQEND
  0
POLYLINE
  8
0
 10
0
 20
0
 39
0
 70
1
 66
1
  0
VERTEX
  8
0
 10
1798.4298095703125
 20
725.55853271484375
 42
-0
  0
VERTEX
  8
0
 10
1791.5960693359375
 20
713.47998046875
 42
0.24197575449943542
  0
VERTEX
  8
0
 10
1827.588134765625
 20
733.53887939453125
 42
-0
  0
VERTEX
  8
0
 10
1806.2191162109375
 20
745.62890625
 42
1
  0
SEQEND
  0
ENDSEC
  0
EOF
