  0
SECTION
  2
ENTITIES
  0
POLYLINE
  8
0
 10
0
 20
0
 39
0
 70
1
 66
1
  0
VERTEX
  8
0
 10
0
 20
0
 42
-0
  0
VERTEX
  8
0
 10
1900
 20
0
 42
-0
  0
VERTEX
  8
0
 10
1900
 20
800
 42
-0
  0
VERTEX
  8
0
 10
0
 20
800
 42
-0
  0
SEQEND
  0
POLYLINE
  8
0
 10
0
 20
0
 39
0
 70
1
 66
1
  0
VERTEX
  8
0
 10
1177
 20
440
 42
0
  0
VERTEX
  8
0
 10
1177
 20
100
 42
0
  0
VERTEX
  8
0
 10
1209.282958984375
 20
10
 42
0
  0
VERTEX
  8
0
 10
1233.717041015625
 20
10
 42
-0
  0
VERTEX
  8
0
 10
1266
 20
100
 42
-0
  0
VERTEX
  8
0
 10
1266
 20
440
 42
-0
  0
SEQEND
  0
POLYLINE
  8
0
 10
0
 20
0
 39
0
 70
1
 66
1
  0
VERTEX
  8
0
 10
1193.1414794921875
 20
187.37223815917969
 42
0
  0
VERTEX
  8
0
 10
1249.8585205078125
 20
187.37223815917969
 42
0
  0
VERTEX
  8
0
 10
1249.8585205078125
 20
153.37225341796875
 42
0
  0
VERTEX
  8
0
 10
1193.1414794921875
 20
153.37225341796875
 42
0
  0
SEQEND
  0
POLYLINE
  8
0
 10
0
 20
0
 39
0
 70
1
 66
1
  0
VERTEX
  8
0
 10
1221.5
 20
116
 42
-1
  0
VERTEX
  8
0
 10
1221.5
 20
84
 42
-1
  0
SEQEND
  0
POLYLINE
  8
0
 10
0
 20
0
 39
0
 70
1
 66
1
  0
VERTEX
  8
0
 10
1221.5
 20
305.68624877929687
 42
-1
  0
VERTEX
  8
0
 10
1221.5
 20
283.68624877929687
 42
-1
  0
SEQEND
  0
POLYLINE
  8
0
 10
0
 20
0
 39
0
 70
1
 66
1
  0
VERTEX
  8
0
 10
1221.5
 20
365.59774780273437
 42
-1
  0
VERTEX
  8
0
 10
1221.5
 20
343.59774780273437
 42
-1
  0
SEQEND
  0
POLYLINE
  8
0
 10
0
 20
0
 39
0
 70
1
 66
1
  0
VERTEX
  8
0
 10
1460
 20
544.2650146484375
 42
0
  0
VERTEX
  8
0
 10
1800
 20
544.2650146484375
 42
0
  0
VERTEX
  8
0
 10
1890
 20
576.5479736328125
 42
0
  0
VERTEX
  8
0
 10
1890
 20
600.98199462890625
 42
-0
  0
VERTEX
  8
0
 10
1800
 20
633.2650146484375
 42
-0
  0
VERTEX
  8
0
 10
1460
 20
633.2650146484375
 42
-0
  0
SEQEND
  0
POLYLINE
  8
0
 10
0
 20
0
 39
0
 70
1
 66
1
  0
VERTEX
  8
0
 10
1712.6278076171875
 20
560.406494140625
 42
0
  0
VERTEX
  8
0
 10
1712.6278076171875
 20
617.12353515625
 42
0
  0
VERTEX
  8
0
 10
1746.627685546875
 20
617.12353515625
 42
0
  0
VERTEX
  8
0
 10
1746.627685546875
 20
560.406494140625
 42
0
  0
SEQEND
  0
POLYLINE
  8
0
 10
0
 20
0
 39
0
 70
1
 66
1
  0
VERTEX
  8
0
 10
1784
 20
588.7650146484375
 42
-1
  0
VERTEX
  8
0
 10
1816
 20
588.7650146484375
 42
-1
  0
SEQEND
  0
POLYLINE
  8
0
 10
0
 20
0
 39
0
 70
1
 66
1
  0
VERTEX
  8
0
 10
1594.313720703125
 20
588.7650146484375
 42
-1
  0
VERTEX
  8
0
 10
1616.313720703125
 20
588.7650146484375
 42
-1
  0
SEQEND
  0
POLYLINE
  8
0
 10
0
 20
0
 39
0
 70
1
 66
1
  0
VERTEX
  8
0
 10
1534.4022216796875
 20
588.7650146484375
 42
-1
  0
VERTEX
  8
0
 10
1556.4022216796875
 20
588.7650146484375
 42
-1
  0
SEQEND
  0
POLYLINE
  8
0
 10
0
 20
0
 39
0
 70
1
 66
1
  0
VERTEX
  8
0
 10
880
 20
450
 42
0
  0
VERTEX
  8
0
 10
1220
 20
450
 42
0
  0
VERTEX
  8
0
 10
1310
 20
482.28298950195312
 42
0
  0
VERTEX
  8
0
 10
1310
 20
506.71701049804687
 42
-0
  0
VERTEX
  8
0
 10
1220
 20
539
 42
-0
  0
VERTEX
  8
0
 10
880
 20
539
 42
-0
  0
SEQEND
  0
POLYLINE
  8
0
 10
0
 20
0
 39
0
 70
1
 66
1
  0
VERTEX
  8
0
 10
1132.6278076171875
 20
466.14151000976562
 42
0
  0
VERTEX
  8
0
 10
1132.6278076171875
 20
522.8585205078125
 42
0
  0
VERTEX
  8
0
 10
1166.627685546875
 20
522.8585205078125
 42
0
  0
VERTEX
  8
0
 10
1166.627685546875
 20
466.14151000976562
 42
0
  0
SEQEND
  0
POLYLINE
  8
0
 10
0
 20
0
 39
0
 70
1
 66
1
  0
VERTEX
  8
0
 10
1204
 20
494.5
 42
-1
  0
VERTEX
  8
0
 10
1236
 20
494.5
 42
-1
  0
SEQEND
  0
POLYLINE
  8
0
 10
0
 20
0
 39
0
 70
1
 66
1
  0
VERTEX
  8
0
 10
1014.313720703125
 20
494.5
 42
-1
  0
VERTEX
  8
0
 10
1036.313720703125
 20
494.5
 42
-1
  0
SEQEND
  0
POLYLINE
  8
0
 10
0
 20
0
 39
0
 70
1
 66
1
  0
VERTEX
  8
0
 10
954.4022216796875
 20
494.5
 42
-1
  0
VERTEX
  8
0
 10
976.4022216796875
 20
494.5
 42
-1
  0
SEQEND
  0
POLYLINE
  8
0
 10
0
 20
0
 39
0
 70
1
 66
1
  0
VERTEX
  8
0
 10
880
 20
440
 42
0
  0
VERTEX
  8
0
 10
880
 20
100
 42
0
  0
VERTEX
  8
0
 10
912.28302001953125
 20
10
 42
0
  0
VERTEX
  8
0
 10
936.71697998046875
 20
10
 42
-0
  0
VERTEX
  8
0
 10
969
 20
100
 42
-0
  0
VERTEX
  8
0
 10
969
 20
440
 42
-0
  0
SEQEND
  0
POLYLINE
  8
0
 10
0
 20
0
 39
0
 70
1
 66
1
  0
VERTEX
  8
0
 10
896.1414794921875
 20
187.37223815917969
 42
0
  0
VERTEX
  8
0
 10
952.8585205078125
 20
187.37223815917969
 42
0
  0
VERTEX
  8
0
 10
952.8585205078125
 20
153.37225341796875
 42
0
  0
VERTEX
  8
0
 10
896.1414794921875
 20
153.37225341796875
 42
0
  0
SEQEND
  0
POLYLINE
  8
0
 10
0
 20
0
 39
0
 70
1
 66
1
  0
VERTEX
  8
0
 10
924.5
 20
116
 42
-1
  0
VERTEX
  8
0
 10
924.5
 20
84
 42
-1
  0
SEQEND
  0
POLYLINE
  8
0
 10
0
 20
0
 39
0
 70
1
 66
1
  0
VERTEX
  8
0
 10
924.5
 20
305.68624877929687
 42
-1
  0
VERTEX
  8
0
 10
924.5
 20
283.68624877929687
 42
-1
  0
SEQEND
  0
POLYLINE
  8
0
 10
0
 20
0
 39
0
 70
1
 66
1
  0
VERTEX
  8
0
 10
924.5
 20
365.59774780273437
 42
-1
  0
VERTEX
  8
0
 10
924.5
 20
343.59774780273437
 42
-1
  0
SEQEND
  0
POLYLINE
  8
0
 10
0
 20
0
 39
0
 70
1
 66
1
  0
VERTEX
  8
0
 10
870
 20
360.79998779296875
 42
-0
  0
VERTEX
  8
0
 10
10
 20
360.79998779296875
 42
-0
  0
VERTEX
  8
0
 10
10
 20
190.39999389648437
 42
-0
  0
VERTEX
  8
0
 10
870
 20
190.39999389648437
 42
-0
  0
SEQEND
  0
POLYLINE
  8
0
 10
0
 20
0
 39
0
 70
1
 66
1
  0
VERTEX
  8
0
 10
36
 20
243.59999084472656
 42
-0
  0
VERTEX
  8
0
 10
30
 20
243.59999084472656
 42
-1
  0
VERTEX
  8
0
 10
30
 20
257.60000610351562
 42
-0
  0
VERTEX
  8
0
 10
36
 20
257.60000610351562
 42
-1
  0
SEQEND
  0
POLYLINE
  8
0
 10
0
 20
0
 39
0
 70
1
 66
1
  0
VERTEX
  8
0
 10
30
 20
307.60000610351562
 42
-0
  0
VERTEX
  8
0
 10
36
 20
307.60000610351562
 42
-1
  0
VERTEX
  8
0
 10
36
 20
293.60000610351562
 42
-0
  0
VERTEX
  8
0
 10
30
 20
293.60000610351562
 42
-1
  0
SEQEND
  0
POLYLINE
  8
0
 10
0
 20
0
 39
0
 70
1
 66
1
  0
VERTEX
  8
0
 10
218
 20
280.60000610351562
 42
-0
  0
VERTEX
  8
0
 10
218
 20
270.60000610351562
 42
-1
  0
VERTEX
  8
0
 10
202
 20
270.60000610351562
 42
-0
  0
VERTEX
  8
0
 10
202
 20
280.60000610351562
 42
-1
  0
SEQEND
  0
POLYLINE
  8
0
 10
0
 20
0
 39
0
 70
1
 66
1
  0
VERTEX
  8
0
 10
573
 20
270.60000610351562
 42
-1
  0
VERTEX
  8
0
 10
557
 20
270.60000610351562
 42
-0
  0
VERTEX
  8
0
 10
557
 20
280.60000610351562
 42
-1
  0
VERTEX
  8
0
 10
573
 20
280.60000610351562
 42
-0
  0
SEQEND
  0
POLYLINE
  8
0
 10
0
 20
0
 39
0
 70
1
 66
1
  0
VERTEX
  8
0
 10
850
 20
243.59999084472656
 42
-0
  0
VERTEX
  8
0
 10
844
 20
243.59999084472656
 42
-1
  0
VERTEX
  8
0
 10
844
 20
257.60000610351562
 42
-0
  0
VERTEX
  8
0
 10
850
 20
257.60000610351562
 42
-1
  0
SEQEND
  0
POLYLINE
  8
0
 10
0
 20
0
 39
0
 70
1
 66
1
  0
VERTEX
  8
0
 10
850
 20
293.60000610351562
 42
-0
  0
VERTEX
  8
0
 10
844
 20
293.60000610351562
 42
-1
  0
VERTEX
  8
0
 10
844
 20
307.60000610351562
 42
-0
  0
VERTEX
  8
0
 10
850
 20
307.60000610351562
 42
-1
  0
SEQEND
  0
POLYLINE
  8
0
 10
0
 20
0
 39
0
 70
1
 66
1
  0
VERTEX
  8
0
 10
380
 20
551.20001220703125
 42
0
  0
VERTEX
  8
0
 10
720
 20
551.20001220703125
 42
0
  0
VERTEX
  8
0
 10
810
 20
583.48297119140625
 42
0
  0
VERTEX
  8
0
 10
810
 20
607.9169921875
 42
-0
  0
VERTEX
  8
0
 10
720
 20
640.20001220703125
 42
-0
  0
VERTEX
  8
0
 10
380
 20
640.20001220703125
 42
-0
  0
SEQEND
  0
POLYLINE
  8
0
 10
0
 20
0
 39
0
 70
1
 66
1
  0
VERTEX
  8
0
 10
632.62774658203125
 20
567.34149169921875
 42
0
  0
VERTEX
  8
0
 10
632.62774658203125
 20
624.0584716796875
 42
0
  0
VERTEX
  8
0
 10
666.62774658203125
 20
624.0584716796875
 42
0
  0
VERTEX
  8
0
 10
666.62774658203125
 20
567.34149169921875
 42
0
  0
SEQEND
  0
POLYLINE
  8
0
 10
0
 20
0
 39
0
 70
1
 66
1
  0
VERTEX
  8
0
 10
704
 20
595.70001220703125
 42
-1
  0
VERTEX
  8
0
 10
736
 20
595.70001220703125
 42
-1
  0
SEQEND
  0
POLYLINE
  8
0
 10
0
 20
0
 39
0
 70
1
 66
1
  0
VERTEX
  8
0
 10
514.313720703125
 20
595.70001220703125
 42
-1
  0
VERTEX
  8
0
 10
536.313720703125
 20
595.70001220703125
 42
-1
  0
SEQEND
  0
POLYLINE
  8
0
 10
0
 20
0
 39
0
 70
1
 66
1
  0
VERTEX
  8
0
 10
454.40225219726562
 20
595.70001220703125
 42
-1
  0
VERTEX
  8
0
 10
476.40225219726562
 20
595.70001220703125
 42
-1
  0
SEQEND
  0
POLYLINE
  8
0
 10
0
 20
0
 39
0
 70
1
 66
1
  0
VERTEX
  8
0
 10
10
 20
691.20001220703125
 42
0
  0
VERTEX
  8
0
 10
350
 20
691.20001220703125
 42
0
  0
VERTEX
  8
0
 10
440
 20
723.48297119140625
 42
0
  0
VERTEX
  8
0
 10
440
 20
747.9169921875
 42
-0
  0
VERTEX
  8
0
 10
350
 20
780.20001220703125
 42
-0
  0
VERTEX
  8
0
 10
10
 20
780.20001220703125
 42
-0
  0
SEQEND
  0
POLYLINE
  8
0
 10
0
 20
0
 39
0
 70
1
 66
1
  0
VERTEX
  8
0
 10
262.62774658203125
 20
707.34149169921875
 42
0
  0
VERTEX
  8
0
 10
262.62774658203125
 20
764.0584716796875
 42
0
  0
VERTEX
  8
0
 10
296.62774658203125
 20
764.0584716796875
 42
0
  0
VERTEX
  8
0
 10
296.62774658203125
 20
707.34149169921875
 42
0
  0
SEQEND
  0
POLYLINE
  8
0
 10
0
 20
0
 39
0
 70
1
 66
1
  0
VERTEX
  8
0
 10
334
 20
735.70001220703125
 42
-1
  0
VERTEX
  8
0
 10
366
 20
735.70001220703125
 42
-1
  0
SEQEND
  0
POLYLINE
  8
0
 10
0
 20
0
 39
0
 70
1
 66
1
  0
VERTEX
  8
0
 10
144.31375122070312
 20
735.70001220703125
 42
-1
  0
VERTEX
  8
0
 10
166.31375122070312
 20
735.70001220703125
 42
-1
  0
SEQEND
  0
POLYLINE
  8
0
 10
0
 20
0
 39
0
 70
1
 66
1
  0
VERTEX
  8
0
 10
84.402252197265625
 20
735.70001220703125
 42
-1
  0
VERTEX
  8
0
 10
106.40225219726562
 20
735.70001220703125
 42
-1
  0
SEQEND
  0
POLYLINE
  8
0
 10
0
 20
0
 39
0
 70
1
 66
1
  0
VERTEX
  8
0
 10
979
 20
440
 42
0
  0
VERTEX
  8
0
 10
979
 20
100
 42
0
  0
VERTEX
  8
0
 10
1011.2830200195312
 20
10
 42
0
  0
VERTEX
  8
0
 10
1035.717041015625
 20
10
 42
-0
  0
VERTEX
  8
0
 10
1068
 20
100
 42
-0
  0
VERTEX
  8
0
 10
1068
 20
440
 42
-0
  0
SEQEND
  0
POLYLINE
  8
0
 10
0
 20
0
 39
0
 70
1
 66
1
  0
VERTEX
  8
0
 10
995.1414794921875
 20
187.37223815917969
 42
0
  0
VERTEX
  8
0
 10
1051.8585205078125
 20
187.37223815917969
 42
0
  0
VERTEX
  8
0
 10
1051.8585205078125
 20
153.37225341796875
 42
0
  0
VERTEX
  8
0
 10
995.1414794921875
 20
153.37225341796875
 42
0
  0
SEQEND
  0
POLYLINE
  8
0
 10
0
 20
0
 39
0
 70
1
 66
1
  0
VERTEX
  8
0
 10
1023.5
 20
116
 42
-1
  0
VERTEX
  8
0
 10
1023.5
 20
84
 42
-1
  0
SEQEND
  0
POLYLINE
  8
0
 10
0
 20
0
 39
0
 70
1
 66
1
  0
VERTEX
  8
0
 10
1023.5
 20
305.68624877929687
 42
-1
  0
VERTEX
  8
0
 10
1023.5
 20
283.68624877929687
 42
-1
  0
SEQEND
  0
POLYLINE
  8
0
 10
0
 20
0
 39
0
 70
1
 66
1
  0
VERTEX
  8
0
 10
1023.5
 20
365.59774780273437
 42
-1
  0
VERTEX
  8
0
 10
1023.5
 20
343.59774780273437
 42
-1
  0
SEQEND
  0
POLYLINE
  8
0
 10
0
 20
0
 39
0
 70
1
 66
1
  0
VERTEX
  8
0
 10
1078
 20
440
 42
0
  0
VERTEX
  8
0
 10
1078
 20
100
 42
0
  0
VERTEX
  8
0
 10
1110.282958984375
 20
10
 42
0
  0
VERTEX
  8
0
 10
1134.717041015625
 20
10
 42
-0
  0
VERTEX
  8
0
 10
1167
 20
100
 42
-0
  0
VERTEX
  8
0
 10
1167
 20
440
 42
-0
  0
SEQEND
  0
POLYLINE
  8
0
 10
0
 20
0
 39
0
 70
1
 66
1
  0
VERTEX
  8
0
 10
1094.1414794921875
 20
187.37223815917969
 42
0
  0
VERTEX
  8
0
 10
1150.8585205078125
 20
187.37223815917969
 42
0
  0
VERTEX
  8
0
 10
1150.8585205078125
 20
153.37225341796875
 42
0
  0
VERTEX
  8
0
 10
1094.1414794921875
 20
153.37225341796875
 42
0
  0
SEQEND
  0
POLYLINE
  8
0
 10
0
 20
0
 39
0
 70
1
 66
1
  0
VERTEX
  8
0
 10
1122.5
 20
116
 42
-1
  0
VERTEX
  8
0
 10
1122.5
 20
84
 42
-1
  0
SEQEND
  0
POLYLINE
  8
0
 10
0
 20
0
 39
0
 70
1
 66
1
  0
VERTEX
  8
0
 10
1122.5
 20
305.68624877929687
 42
-1
  0
VERTEX
  8
0
 10
1122.5
 20
283.68624877929687
 42
-1
  0
SEQEND
  0
POLYLINE
  8
0
 10
0
 20
0
 39
0
 70
1
 66
1
  0
VERTEX
  8
0
 10
1122.5
 20
365.59774780273437
 42
-1
  0
VERTEX
  8
0
 10
1122.5
 20
343.59774780273437
 42
-1
  0
SEQEND
  0
POLYLINE
  8
0
 10
0
 20
0
 39
0
 70
1
 66
1
  0
VERTEX
  8
0
 10
870
 20
180.39999389648437
 42
-0
  0
VERTEX
  8
0
 10
10
 20
180.39999389648437
 42
-0
  0
VERTEX
  8
0
 10
10
 20
10
 42
-0
  0
VERTEX
  8
0
 10
870
 20
10
 42
-0
  0
SEQEND
  0
POLYLINE
  8
0
 10
0
 20
0
 39
0
 70
1
 66
1
  0
VERTEX
  8
0
 10
36
 20
63.200000762939453
 42
-0
  0
VERTEX
  8
0
 10
30
 20
63.200000762939453
 42
-1
  0
VERTEX
  8
0
 10
30
 20
77.199996948242188
 42
-0
  0
VERTEX
  8
0
 10
36
 20
77.199996948242188
 42
-1
  0
SEQEND
  0
POLYLINE
  8
0
 10
0
 20
0
 39
0
 70
1
 66
1
  0
VERTEX
  8
0
 10
30
 20
127.19999694824219
 42
-0
  0
VERTEX
  8
0
 10
36
 20
127.19999694824219
 42
-1
  0
VERTEX
  8
0
 10
36
 20
113.19999694824219
 42
-0
  0
VERTEX
  8
0
 10
30
 20
113.19999694824219
 42
-1
  0
SEQEND
  0
POLYLINE
  8
0
 10
0
 20
0
 39
0
 70
1
 66
1
  0
VERTEX
  8
0
 10
218
 20
100.19999694824219
 42
-0
  0
VERTEX
  8
0
 10
218
 20
90.199996948242188
 42
-1
  0
VERTEX
  8
0
 10
202
 20
90.199996948242188
 42
-0
  0
VERTEX
  8
0
 10
202
 20
100.19999694824219
 42
-1
  0
SEQEND
  0
POLYLINE
  8
0
 10
0
 20
0
 39
0
 70
1
 66
1
  0
VERTEX
  8
0
 10
573
 20
90.199996948242188
 42
-1
  0
VERTEX
  8
0
 10
557
 20
90.199996948242188
 42
-0
  0
VERTEX
  8
0
 10
557
 20
100.19999694824219
 42
-1
  0
VERTEX
  8
0
 10
573
 20
100.19999694824219
 42
-0
  0
SEQEND
  0
POLYLINE
  8
0
 10
0
 20
0
 39
0
 70
1
 66
1
  0
VERTEX
  8
0
 10
850
 20
63.200000762939453
 42
-0
  0
VERTEX
  8
0
 10
844
 20
63.200000762939453
 42
-1
  0
VERTEX
  8
0
 10
844
 20
77.199996948242188
 42
-0
  0
VERTEX
  8
0
 10
850
 20
77.199996948242188
 42
-1
  0
SEQEND
  0
POLYLINE
  8
0
 10
0
 20
0
 39
0
 70
1
 66
1
  0
VERTEX
  8
0
 10
850
 20
113.19999694824219
 42
-0
  0
VERTEX
  8
0
 10
844
 20
113.19999694824219
 42
-1
  0
VERTEX
  8
0
 10
844
 20
127.19999694824219
 42
-0
  0
VERTEX
  8
0
 10
850
 20
127.19999694824219
 42
-1
  0
SEQEND
  0
POLYLINE
  8
0
 10
0
 20
0
 39
0
 70
1
 66
1
  0
VERTEX
  8
0
 10
870
 20
541.20001220703125
 42
-0
  0
VERTEX
  8
0
 10
10
 20
541.20001220703125
 42
-0
  0
VERTEX
  8
0
 10
10
 20
370.79998779296875
 42
-0
  0
VERTEX
  8
0
 10
870
 20
370.79998779296875
 42
-0
  0
SEQEND
  0
POLYLINE
  8
0
 10
0
 20
0
 39
0
 70
1
 66
1
  0
VERTEX
  8
0
 10
36
 20
424
 42
-0
  0
VERTEX
  8
0
 10
30
 20
424
 42
-1
  0
VERTEX
  8
0
 10
30
 20
438
 42
-0
  0
VERTEX
  8
0
 10
36
 20
438
 42
-1
  0
SEQEND
  0
POLYLINE
  8
0
 10
0
 20
0
 39
0
 70
1
 66
1
  0
VERTEX
  8
0
 10
30
 20
488
 42
-0
  0
VERTEX
  8
0
 10
36
 20
488
 42
-1
  0
VERTEX
  8
0
 10
36
 20
474
 42
-0
  0
VERTEX
  8
0
 10
30
 20
474
 42
-1
  0
SEQEND
  0
POLYLINE
  8
0
 10
0
 20
0
 39
0
 70
1
 66
1
  0
VERTEX
  8
0
 10
218
 20
461
 42
-0
  0
VERTEX
  8
0
 10
218
 20
451
 42
-1
  0
VERTEX
  8
0
 10
202
 20
451
 42
-0
  0
VERTEX
  8
0
 10
202
 20
461
 42
-1
  0
SEQEND
  0
POLYLINE
  8
0
 10
0
 20
0
 39
0
 70
1
 66
1
  0
VERTEX
  8
0
 10
573
 20
451
 42
-1
  0
VERTEX
  8
0
 10
557
 20
451
 42
-0
  0
VERTEX
  8
0
 10
557
 20
461
 42
-1
  0
VERTEX
  8
0
 10
573
 20
461
 42
-0
  0
SEQEND
  0
POLYLINE
  8
0
 10
0
 20
0
 39
0
 70
1
 66
1
  0
VERTEX
  8
0
 10
850
 20
424
 42
-0
  0
VERTEX
  8
0
 10
844
 20
424
 42
-1
  0
VERTEX
  8
0
 10
844
 20
438
 42
-0
  0
VERTEX
  8
0
 10
850
 20
438
 42
-1
  0
SEQEND
  0
POLYLINE
  8
0
 10
0
 20
0
 39
0
 70
1
 66
1
  0
VERTEX
  8
0
 10
850
 20
474
 42
-0
  0
VERTEX
  8
0
 10
844
 20
474
 42
-1
  0
VERTEX
  8
0
 10
844
 20
488
 42
-0
  0
VERTEX
  8
0
 10
850
 20
488
 42
-1
  0
SEQEND
  0
POLYLINE
  8
0
 10
0
 20
0
 39
0
 70
1
 66
1
  0
VERTEX
  8
0
 10
820
 20
551.20001220703125
 42
0
  0
VERTEX
  8
0
 10
1160
 20
551.20001220703125
 42
0
  0
VERTEX
  8
0
 10
1250
 20
583.48297119140625
 42
0
  0
VERTEX
  8
0
 10
1250
 20
607.9169921875
 42
-0
  0
VERTEX
  8
0
 10
1160
 20
640.20001220703125
 42
-0
  0
VERTEX
  8
0
 10
820
 20
640.20001220703125
 42
-0
  0
SEQEND
  0
POLYLINE
  8
0
 10
0
 20
0
 39
0
 70
1
 66
1
  0
VERTEX
  8
0
 10
1072.6278076171875
 20
567.34149169921875
 42
0
  0
VERTEX
  8
0
 10
1072.6278076171875
 20
624.0584716796875
 42
0
  0
VERTEX
  8
0
 10
1106.627685546875
 20
624.0584716796875
 42
0
  0
VERTEX
  8
0
 10
1106.627685546875
 20
567.34149169921875
 42
0
  0
SEQEND
  0
POLYLINE
  8
0
 10
0
 20
0
 39
0
 70
1
 66
1
  0
VERTEX
  8
0
 10
1144
 20
595.70001220703125
 42
-1
  0
VERTEX
  8
0
 10
1176
 20
595.70001220703125
 42
-1
  0
SEQEND
  0
POLYLINE
  8
0
 10
0
 20
0
 39
0
 70
1
 66
1
  0
VERTEX
  8
0
 10
954.313720703125
 20
595.70001220703125
 42
-1
  0
VERTEX
  8
0
 10
976.313720703125
 20
595.70001220703125
 42
-1
  0
SEQEND
  0
POLYLINE
  8
0
 10
0
 20
0
 39
0
 70
1
 66
1
  0
VERTEX
  8
0
 10
894.4022216796875
 20
595.70001220703125
 42
-1
  0
VERTEX
  8
0
 10
916.4022216796875
 20
595.70001220703125
 42
-1
  0
SEQEND
  0
POLYLINE
  8
0
 10
0
 20
0
 39
0
 70
1
 66
1
  0
VERTEX
  8
0
 10
1276
 20
10
 42
0
  0
VERTEX
  8
0
 10
1376
 20
10
 42
0
  0
VERTEX
  8
0
 10
1376
 20
263
 42
-0
  0
VERTEX
  8
0
 10
1276
 20
263
 42
-0
  0
SEQEND
  0
POLYLINE
  8
0
 10
0
 20
0
 39
0
 70
1
 66
1
  0
VERTEX
  8
0
 10
1349
 20
136.5
 42
0
  0
VERTEX
  8
0
 10
1303
 20
136.5
 42
0
  0
VERTEX
  8
0
 10
1293.1424560546875
 20
236.01295471191406
 42
0
  0
VERTEX
  8
0
 10
1358.8575439453125
 20
236.01295471191406
 42
-0
  0
SEQEND
  0
POLYLINE
  8
0
 10
0
 20
0
 39
0
 70
1
 66
1
  0
VERTEX
  8
0
 10
515
 20
650.20001220703125
 42
0
  0
VERTEX
  8
0
 10
745
 20
650.20001220703125
 42
1
  0
VERTEX
  8
0
 10
745
 20
780.20001220703125
 42
0
  0
VERTEX
  8
0
 10
515
 20
780.20001220703125
 42
1
  0
SEQEND
  0
POLYLINE
  8
0
 10
0
 20
0
 39
0
 70
1
 66
1
  0
VERTEX
  8
0
 10
487.5
 20
715.20001220703125
 42
-1
  0
VERTEX
  8
0
 10
542.5
 20
715.20001220703125
 42
-1
  0
SEQEND
  0
POLYLINE
  8
0
 10
0
 20
0
 39
0
 70
1
 66
1
  0
VERTEX
  8
0
 10
717.5
 20
715.20001220703125
 42
-1
  0
VERTEX
  8
0
 10
772.5
 20
715.20001220703125
 42
-1
  0
SEQEND
  0
POLYLINE
  8
0
 10
0
 20
0
 39
0
 70
1
 66
1
  0
VERTEX
  8
0
 10
1320
 20
568
 42
0
  0
VERTEX
  8
0
 10
1320
 20
338
 42
1
  0
VERTEX
  8
0
 10
1450
 20
338
 42
0
  0
VERTEX
  8
0
 10
1450
 20
568
 42
1
  0
SEQEND
  0
POLYLINE
  8
0
 10
0
 20
0
 39
0
 70
1
 66
1
  0
VERTEX
  8
0
 10
1385
 20
595.5
 42
-1
  0
VERTEX
  8
0
 10
1385
 20
540.5
 42
-1
  0
SEQEND
  0
POLYLINE
  8
0
 10
0
 20
0
 39
0
 70
1
 66
1
  0
VERTEX
  8
0
 10
1385
 20
365.5
 42
-1
  0
VERTEX
  8
0
 10
1385
 20
310.5
 42
-1
  0
SEQEND
  0
POLYLINE
  8
0
 10
0
 20
0
 39
0
 70
1
 66
1
  0
VERTEX
  8
0
 10
75
 20
551.20001220703125
 42
0
  0
VERTEX
  8
0
 10
305
 20
551.20001220703125
 42
1
  0
VERTEX
  8
0
 10
305
 20
681.20001220703125
 42
0
  0
VERTEX
  8
0
 10
75
 20
681.20001220703125
 42
1
  0
SEQEND
  0
POLYLINE
  8
0
 10
0
 20
0
 39
0
 70
1
 66
1
  0
VERTEX
  8
0
 10
47.5
 20
616.20001220703125
 42
-1
  0
VERTEX
  8
0
 10
102.5
 20
616.20001220703125
 42
-1
  0
SEQEND
  0
POLYLINE
  8
0
 10
0
 20
0
 39
0
 70
1
 66
1
  0
VERTEX
  8
0
 10
277.5
 20
616.20001220703125
 42
-1
  0
VERTEX
  8
0
 10
332.5
 20
616.20001220703125
 42
-1
  0
SEQEND
  0
POLYLINE
  8
0
 10
0
 20
0
 39
0
 70
1
 66
1
  0
VERTEX
  8
0
 10
1255
 20
650.20001220703125
 42
0
  0
VERTEX
  8
0
 10
1485
 20
650.20001220703125
 42
1
  0
VERTEX
  8
0
 10
1485
 20
780.20001220703125
 42
0
  0
VERTEX
  8
0
 10
1255
 20
780.20001220703125
 42
1
  0
SEQEND
  0
POLYLINE
  8
0
 10
0
 20
0
 39
0
 70
1
 66
1
  0
VERTEX
  8
0
 10
1227.5
 20
715.20001220703125
 42
-1
  0
VERTEX
  8
0
 10
1282.5
 20
715.20001220703125
 42
-1
  0
SEQEND
  0
POLYLINE
  8
0
 10
0
 20
0
 39
0
 70
1
 66
1
  0
VERTEX
  8
0
 10
1457.5
 20
715.20001220703125
 42
-1
  0
VERTEX
  8
0
 10
1512.5
 20
715.20001220703125
 42
-1
  0
SEQEND
  0
POLYLINE
  8
0
 10
0
 20
0
 39
0
 70
1
 66
1
  0
VERTEX
  8
0
 10
885
 20
650.20001220703125
 42
0
  0
VERTEX
  8
0
 10
1115
 20
650.20001220703125
 42
1
  0
VERTEX
  8
0
 10
1115
 20
780.20001220703125
 42
0
  0
VERTEX
  8
0
 10
885
 20
780.20001220703125
 42
1
  0
SEQEND
  0
POLYLINE
  8
0
 10
0
 20
0
 39
0
 70
1
 66
1
  0
VERTEX
  8
0
 10
857.5
 20
715.20001220703125
 42
-1
  0
VERTEX
  8
0
 10
912.5
 20
715.20001220703125
 42
-1
  0
SEQEND
  0
POLYLINE
  8
0
 10
0
 20
0
 39
0
 70
1
 66
1
  0
VERTEX
  8
0
 10
1087.5
 20
715.20001220703125
 42
-1
  0
VERTEX
  8
0
 10
1142.5
 20
715.20001220703125
 42
-1
  0
SEQEND
  0
POLYLINE
  8
0
 10
0
 20
0
 39
0
 70
1
 66
1
  0
VERTEX
  8
0
 10
1740
 20
305
 42
0
  0
VERTEX
  8
0
 10
1740
 20
75
 42
1
  0
VERTEX
  8
0
 10
1870
 20
75
 42
0
  0
VERTEX
  8
0
 10
1870
 20
305
 42
1
  0
SEQEND
  0
POLYLINE
  8
0
 10
0
 20
0
 39
0
 70
1
 66
1
  0
VERTEX
  8
0
 10
1805
 20
332.5
 42
-1
  0
VERTEX
  8
0
 10
1805
 20
277.5
 42
-1
  0
SEQEND
  0
POLYLINE
  8
0
 10
0
 20
0
 39
0
 70
1
 66
1
  0
VERTEX
  8
0
 10
1805
 20
102.5
 42
-1
  0
VERTEX
  8
0
 10
1805
 20
47.5
 42
-1
  0
SEQEND
  0
POLYLINE
  8
0
 10
0
 20
0
 39
0
 70
1
 66
1
  0
VERTEX
  8
0
 10
1878.530029296875
 20
643.2650146484375
 42
0
  0
VERTEX
  8
0
 10
1878.530029296875
 20
783.2650146484375
 42
0
  0
VERTEX
  8
0
 10
1738.530029296875
 20
783.2650146484375
 42
0
  0
SEQEND
  0
POLYLINE
  8
0
 10
0
 20
0
 39
0
 70
1
 66
1
  0
VERTEX
  8
0
 10
1724.2650146484375
 20
783.2650146484375
 42
0
  0
VERTEX
  8
0
 10
1724.2650146484375
 20
643.2650146484375
 42
0
  0
VERTEX
  8
0
 10
1864.2650146484375
 20
643.2650146484375
 42
0
  0
SEQEND
  0
POLYLINE
  8
0
 10
0
 20
0
 39
0
 70
1
 66
1
  0
VERTEX
  8
0
 10
1460
 20
469.2650146484375
 42
0
  0
VERTEX
  8
0
 10
1460
 20
239.26499938964844
 42
1
  0
VERTEX
  8
0
 10
1590
 20
239.26499938964844
 42
0
  0
VERTEX
  8
0
 10
1590
 20
469.2650146484375
 42
1
  0
SEQEND
  0
POLYLINE
  8
0
 10
0
 20
0
 39
0
 70
1
 66
1
  0
VERTEX
  8
0
 10
1525
 20
496.7650146484375
 42
-1
  0
VERTEX
  8
0
 10
1525
 20
441.7650146484375
 42
-1
  0
SEQEND
  0
POLYLINE
  8
0
 10
0
 20
0
 39
0
 70
1
 66
1
  0
VERTEX
  8
0
 10
1525
 20
266.7650146484375
 42
-1
  0
VERTEX
  8
0
 10
1525
 20
211.76499938964844
 42
-1
  0
SEQEND
  0
POLYLINE
  8
0
 10
0
 20
0
 39
0
 70
1
 66
1
  0
VERTEX
  8
0
 10
1714.2650146484375
 20
643.2650146484375
 42
0
  0
VERTEX
  8
0
 10
1714.2650146484375
 20
783.2650146484375
 42
0
  0
VERTEX
  8
0
 10
1574.2650146484375
 20
783.2650146484375
 42
0
  0
SEQEND
  0
POLYLINE
  8
0
 10
0
 20
0
 39
0
 70
1
 66
1
  0
VERTEX
  8
0
 10
1560
 20
783.2650146484375
 42
0
  0
VERTEX
  8
0
 10
1560
 20
643.2650146484375
 42
0
  0
VERTEX
  8
0
 10
1700
 20
643.2650146484375
 42
0
  0
SEQEND
  0
POLYLINE
  8
0
 10
0
 20
0
 39
0
 70
1
 66
1
  0
VERTEX
  8
0
 10
1600
 20
455
 42
0
  0
VERTEX
  8
0
 10
1600
 20
225
 42
1
  0
VERTEX
  8
0
 10
1730
 20
225
 42
0
  0
VERTEX
  8
0
 10
1730
 20
455
 42
1
  0
SEQEND
  0
POLYLINE
  8
0
 10
0
 20
0
 39
0
 70
1
 66
1
  0
VERTEX
  8
0
 10
1665
 20
482.5
 42
-1
  0
VERTEX
  8
0
 10
1665
 20
427.5
 42
-1
  0
SEQEND
  0
POLYLINE
  8
0
 10
0
 20
0
 39
0
 70
1
 66
1
  0
VERTEX
  8
0
 10
1665
 20
252.5
 42
-1
  0
VERTEX
  8
0
 10
1665
 20
197.5
 42
-1
  0
SEQEND
  0
POLYLINE
  8
0
 10
0
 20
0
 39
0
 70
1
 66
1
  0
VERTEX
  8
0
 10
1690.2650146484375
 20
10
 42
0
  0
VERTEX
  8
0
 10
1690.2650146484375
 20
150
 42
0
  0
VERTEX
  8
0
 10
1550.2650146484375
 20
150
 42
0
  0
SEQEND
  0
POLYLINE
  8
0
 10
0
 20
0
 39
0
 70
1
 66
1
  0
VERTEX
  8
0
 10
1536
 20
150
 42
0
  0
VERTEX
  8
0
 10
1536
 20
10
 42
0
  0
VERTEX
  8
0
 10
1676
 20
10
 42
0
  0
SEQEND
  0
POLYLINE
  8
0
 10
0
 20
0
 39
0
 70
1
 66
1
  0
VERTEX
  8
0
 10
1526
 20
164.26499938964844
 42
0
  0
VERTEX
  8
0
 10
1386
 20
164.26499938964844
 42
0
  0
VERTEX
  8
0
 10
1386
 20
24.264999389648438
 42
0
  0
SEQEND
  0
POLYLINE
  8
0
 10
0
 20
0
 39
0
 70
1
 66
1
  0
VERTEX
  8
0
 10
1386
 20
10
 42
0
  0
VERTEX
  8
0
 10
1526
 20
10
 42
0
  0
VERTEX
  8
0
 10
1526
 20
150
 42
0
  0
SEQEND
  0
ENDSEC
  0
EOF
