  0
SECTION
  2
ENTITIES
  0
POLYLINE
  8
0
 10
0
 20
0
 39
0
 70
1
 66
1
  0
VERTEX
  8
0
 10
0
 20
0
 42
-0
  0
VERTEX
  8
0
 10
2000
 20
0
 42
-0
  0
VERTEX
  8
0
 10
2000
 20
1250
 42
-0
  0
VERTEX
  8
0
 10
0
 20
1250
 42
-0
  0
SEQEND
  0
POLYLINE
  8
0
 10
0
 20
0
 39
0
 70
1
 66
1
  0
VERTEX
  8
0
 10
10.399999618530273
 20
50.400001525878906
 42
0
  0
VERTEX
  8
0
 10
50.400001525878906
 20
10.399999618530273
 42
0
  0
VERTEX
  8
0
 10
190.39999389648437
 20
10.399999618530273
 42
0.41421398520469666
  0
VERTEX
  8
0
 10
210.39999389648437
 20
30.399999618530273
 42
0
  0
VERTEX
  8
0
 10
210.39999389648437
 20
485.39999389648437
 42
0
  0
VERTEX
  8
0
 10
70.400001525878906
 20
485.39999389648437
 42
0
  0
VERTEX
  8
0
 10
10.399999618530273
 20
425.39999389648437
 42
0
  0
SEQEND
  0
POLYLINE
  8
0
 10
0
 20
0
 39
0
 70
1
 66
1
  0
VERTEX
  8
0
 10
10.399999618530273
 20
535.5999755859375
 42
0
  0
VERTEX
  8
0
 10
50.400001525878906
 20
495.60000610351562
 42
0
  0
VERTEX
  8
0
 10
190.39999389648437
 20
495.60000610351562
 42
0.41421398520469666
  0
VERTEX
  8
0
 10
210.39999389648437
 20
515.5999755859375
 42
0
  0
VERTEX
  8
0
 10
210.39999389648437
 20
970.5999755859375
 42
0
  0
VERTEX
  8
0
 10
70.400001525878906
 20
970.5999755859375
 42
0
  0
VERTEX
  8
0
 10
10.399999618530273
 20
910.5999755859375
 42
0
  0
SEQEND
  0
POLYLINE
  8
0
 10
0
 20
0
 39
0
 70
1
 66
1
  0
VERTEX
  8
0
 10
220.80000305175781
 20
50.400001525878906
 42
0
  0
VERTEX
  8
0
 10
260.79998779296875
 20
10.399999618530273
 42
0
  0
VERTEX
  8
0
 10
400.79998779296875
 20
10.399999618530273
 42
0.41421398520469666
  0
VERTEX
  8
0
 10
420.79998779296875
 20
30.399999618530273
 42
0
  0
VERTEX
  8
0
 10
420.79998779296875
 20
485.39999389648437
 42
0
  0
VERTEX
  8
0
 10
280.79998779296875
 20
485.39999389648437
 42
0
  0
VERTEX
  8
0
 10
220.80000305175781
 20
425.39999389648437
 42
0
  0
SEQEND
  0
POLYLINE
  8
0
 10
0
 20
0
 39
0
 70
1
 66
1
  0
VERTEX
  8
0
 10
220.80000305175781
 20
535.5999755859375
 42
0
  0
VERTEX
  8
0
 10
260.79998779296875
 20
495.60000610351562
 42
0
  0
VERTEX
  8
0
 10
400.79998779296875
 20
495.60000610351562
 42
0.41421398520469666
  0
VERTEX
  8
0
 10
420.79998779296875
 20
515.5999755859375
 42
0
  0
VERTEX
  8
0
 10
420.79998779296875
 20
970.5999755859375
 42
0
  0
VERTEX
  8
0
 10
280.79998779296875
 20
970.5999755859375
 42
0
  0
VERTEX
  8
0
 10
220.80000305175781
 20
910.5999755859375
 42
0
  0
SEQEND
  0
POLYLINE
  8
0
 10
0
 20
0
 39
0
 70
1
 66
1
  0
VERTEX
  8
0
 10
445.39999389648437
 20
980.79998779296875
 42
0
  0
VERTEX
  8
0
 10
485.39999389648437
 20
1020.7999877929687
 42
0
  0
VERTEX
  8
0
 10
485.39999389648437
 20
1160.800048828125
 42
0.41421398520469666
  0
VERTEX
  8
0
 10
465.39999389648437
 20
1180.800048828125
 42
0
  0
VERTEX
  8
0
 10
10.399999618530273
 20
1180.800048828125
 42
0
  0
VERTEX
  8
0
 10
10.399999618530273
 20
1040.800048828125
 42
0
  0
VERTEX
  8
0
 10
70.400001525878906
 20
980.79998779296875
 42
0
  0
SEQEND
  0
POLYLINE
  8
0
 10
0
 20
0
 39
0
 70
1
 66
1
  0
VERTEX
  8
0
 10
431.20001220703125
 20
50.400001525878906
 42
0
  0
VERTEX
  8
0
 10
471.20001220703125
 20
10.399999618530273
 42
0
  0
VERTEX
  8
0
 10
611.20001220703125
 20
10.399999618530273
 42
0.41421398520469666
  0
VERTEX
  8
0
 10
631.20001220703125
 20
30.399999618530273
 42
0
  0
VERTEX
  8
0
 10
631.20001220703125
 20
485.39999389648437
 42
0
  0
VERTEX
  8
0
 10
491.20001220703125
 20
485.39999389648437
 42
0
  0
VERTEX
  8
0
 10
431.20001220703125
 20
425.39999389648437
 42
0
  0
SEQEND
  0
POLYLINE
  8
0
 10
0
 20
0
 39
0
 70
1
 66
1
  0
VERTEX
  8
0
 10
431.20001220703125
 20
535.5999755859375
 42
0
  0
VERTEX
  8
0
 10
471.20001220703125
 20
495.60000610351562
 42
0
  0
VERTEX
  8
0
 10
611.20001220703125
 20
495.60000610351562
 42
0.41421398520469666
  0
VERTEX
  8
0
 10
631.20001220703125
 20
515.5999755859375
 42
0
  0
VERTEX
  8
0
 10
631.20001220703125
 20
970.5999755859375
 42
0
  0
VERTEX
  8
0
 10
491.20001220703125
 20
970.5999755859375
 42
0
  0
VERTEX
  8
0
 10
431.20001220703125
 20
910.5999755859375
 42
0
  0
SEQEND
  0
POLYLINE
  8
0
 10
0
 20
0
 39
0
 70
1
 66
1
  0
VERTEX
  8
0
 10
641.5999755859375
 20
50.400001525878906
 42
0
  0
VERTEX
  8
0
 10
681.5999755859375
 20
10.399999618530273
 42
0
  0
VERTEX
  8
0
 10
821.5999755859375
 20
10.399999618530273
 42
0.41421398520469666
  0
VERTEX
  8
0
 10
841.5999755859375
 20
30.399999618530273
 42
0
  0
VERTEX
  8
0
 10
841.5999755859375
 20
485.39999389648437
 42
0
  0
VERTEX
  8
0
 10
701.5999755859375
 20
485.39999389648437
 42
0
  0
VERTEX
  8
0
 10
641.5999755859375
 20
425.39999389648437
 42
0
  0
SEQEND
  0
POLYLINE
  8
0
 10
0
 20
0
 39
0
 70
1
 66
1
  0
VERTEX
  8
0
 10
641.5999755859375
 20
535.5999755859375
 42
0
  0
VERTEX
  8
0
 10
681.5999755859375
 20
495.60000610351562
 42
0
  0
VERTEX
  8
0
 10
821.5999755859375
 20
495.60000610351562
 42
0.41421398520469666
  0
VERTEX
  8
0
 10
841.5999755859375
 20
515.5999755859375
 42
0
  0
VERTEX
  8
0
 10
841.5999755859375
 20
970.5999755859375
 42
0
  0
VERTEX
  8
0
 10
701.5999755859375
 20
970.5999755859375
 42
0
  0
VERTEX
  8
0
 10
641.5999755859375
 20
910.5999755859375
 42
0
  0
SEQEND
  0
POLYLINE
  8
0
 10
0
 20
0
 39
0
 70
1
 66
1
  0
VERTEX
  8
0
 10
930.5999755859375
 20
980.79998779296875
 42
0
  0
VERTEX
  8
0
 10
970.5999755859375
 20
1020.7999877929687
 42
0
  0
VERTEX
  8
0
 10
970.5999755859375
 20
1160.800048828125
 42
0.41421398520469666
  0
VERTEX
  8
0
 10
950.5999755859375
 20
1180.800048828125
 42
0
  0
VERTEX
  8
0
 10
495.60000610351562
 20
1180.800048828125
 42
0
  0
VERTEX
  8
0
 10
495.60000610351562
 20
1040.800048828125
 42
0
  0
VERTEX
  8
0
 10
555.5999755859375
 20
980.79998779296875
 42
0
  0
SEQEND
  0
POLYLINE
  8
0
 10
0
 20
0
 39
0
 70
1
 66
1
  0
VERTEX
  8
0
 10
1031.2435302734375
 20
163.31999206542969
 42
0
  0
VERTEX
  8
0
 10
1031.2435302734375
 20
10.399999618530273
 42
0
  0
VERTEX
  8
0
 10
1115.7435302734375
 20
10.399999618530273
 42
0
  0
VERTEX
  8
0
 10
1115.7435302734375
 20
316.22998046875
 42
0
  0
VERTEX
  8
0
 10
946.7490234375
 20
316.22998046875
 42
0
  0
SEQEND
  0
POLYLINE
  8
0
 10
0
 20
0
 39
0
 70
1
 66
1
  0
VERTEX
  8
0
 10
936.5
 20
163.30998229980469
 42
0
  0
VERTEX
  8
0
 10
936.5
 20
316.22998046875
 42
0
  0
VERTEX
  8
0
 10
852
 20
316.22998046875
 42
0
  0
VERTEX
  8
0
 10
852
 20
10.399999618530273
 42
0
  0
VERTEX
  8
0
 10
1020.9945068359375
 20
10.399999618530273
 42
0
  0
SEQEND
  0
POLYLINE
  8
0
 10
0
 20
0
 39
0
 70
1
 66
1
  0
VERTEX
  8
0
 10
1031.2435302734375
 20
479.32000732421875
 42
0
  0
VERTEX
  8
0
 10
1031.2435302734375
 20
326.39999389648437
 42
0
  0
VERTEX
  8
0
 10
1115.7435302734375
 20
326.39999389648437
 42
0
  0
VERTEX
  8
0
 10
1115.7435302734375
 20
632.22998046875
 42
0
  0
VERTEX
  8
0
 10
946.7490234375
 20
632.22998046875
 42
0
  0
SEQEND
  0
POLYLINE
  8
0
 10
0
 20
0
 39
0
 70
1
 66
1
  0
VERTEX
  8
0
 10
936.5
 20
479.30999755859375
 42
0
  0
VERTEX
  8
0
 10
936.5
 20
632.22998046875
 42
0
  0
VERTEX
  8
0
 10
852
 20
632.22998046875
 42
0
  0
VERTEX
  8
0
 10
852
 20
326.39999389648437
 42
0
  0
VERTEX
  8
0
 10
1020.9945068359375
 20
326.39999389648437
 42
0
  0
SEQEND
  0
POLYLINE
  8
0
 10
0
 20
0
 39
0
 70
1
 66
1
  0
VERTEX
  8
0
 10
1031.2435302734375
 20
795.32000732421875
 42
0
  0
VERTEX
  8
0
 10
1031.2435302734375
 20
642.4000244140625
 42
0
  0
VERTEX
  8
0
 10
1115.7435302734375
 20
642.4000244140625
 42
0
  0
VERTEX
  8
0
 10
1115.7435302734375
 20
948.22998046875
 42
0
  0
VERTEX
  8
0
 10
946.7490234375
 20
948.22998046875
 42
0
  0
SEQEND
  0
POLYLINE
  8
0
 10
0
 20
0
 39
0
 70
1
 66
1
  0
VERTEX
  8
0
 10
936.5
 20
795.30999755859375
 42
0
  0
VERTEX
  8
0
 10
936.5
 20
948.22998046875
 42
0
  0
VERTEX
  8
0
 10
852
 20
948.22998046875
 42
0
  0
VERTEX
  8
0
 10
852
 20
642.4000244140625
 42
0
  0
VERTEX
  8
0
 10
1020.9945068359375
 20
642.4000244140625
 42
0
  0
SEQEND
  0
POLYLINE
  8
0
 10
0
 20
0
 39
0
 70
1
 66
1
  0
VERTEX
  8
0
 10
1133.9100341796875
 20
1137.6434326171875
 42
0
  0
VERTEX
  8
0
 10
1286.8299560546875
 20
1137.6434326171875
 42
0
  0
VERTEX
  8
0
 10
1286.8299560546875
 20
1222.1434326171875
 42
0
  0
VERTEX
  8
0
 10
981
 20
1222.1434326171875
 42
0
  0
VERTEX
  8
0
 10
981
 20
1053.1490478515625
 42
0
  0
SEQEND
  0
POLYLINE
  8
0
 10
0
 20
0
 39
0
 70
1
 66
1
  0
VERTEX
  8
0
 10
1133.9200439453125
 20
1042.9000244140625
 42
0
  0
VERTEX
  8
0
 10
981
 20
1042.9000244140625
 42
0
  0
VERTEX
  8
0
 10
981
 20
958.4000244140625
 42
0
  0
VERTEX
  8
0
 10
1286.8299560546875
 20
958.4000244140625
 42
0
  0
VERTEX
  8
0
 10
1286.8299560546875
 20
1127.39453125
 42
0
  0
SEQEND
  0
POLYLINE
  8
0
 10
0
 20
0
 39
0
 70
1
 66
1
  0
VERTEX
  8
0
 10
1305.2435302734375
 20
163.31999206542969
 42
0
  0
VERTEX
  8
0
 10
1305.2435302734375
 20
10.399999618530273
 42
0
  0
VERTEX
  8
0
 10
1389.7435302734375
 20
10.399999618530273
 42
0
  0
VERTEX
  8
0
 10
1389.7435302734375
 20
316.22998046875
 42
0
  0
VERTEX
  8
0
 10
1220.7490234375
 20
316.22998046875
 42
0
  0
SEQEND
  0
POLYLINE
  8
0
 10
0
 20
0
 39
0
 70
1
 66
1
  0
VERTEX
  8
0
 10
1210.5
 20
163.30998229980469
 42
0
  0
VERTEX
  8
0
 10
1210.5
 20
316.22998046875
 42
0
  0
VERTEX
  8
0
 10
1126
 20
316.22998046875
 42
0
  0
VERTEX
  8
0
 10
1126
 20
10.399999618530273
 42
0
  0
VERTEX
  8
0
 10
1294.9945068359375
 20
10.399999618530273
 42
0
  0
SEQEND
  0
POLYLINE
  8
0
 10
0
 20
0
 39
0
 70
1
 66
1
  0
VERTEX
  8
0
 10
1305.2435302734375
 20
479.32000732421875
 42
0
  0
VERTEX
  8
0
 10
1305.2435302734375
 20
326.39999389648437
 42
0
  0
VERTEX
  8
0
 10
1389.7435302734375
 20
326.39999389648437
 42
0
  0
VERTEX
  8
0
 10
1389.7435302734375
 20
632.22998046875
 42
0
  0
VERTEX
  8
0
 10
1220.7490234375
 20
632.22998046875
 42
0
  0
SEQEND
  0
POLYLINE
  8
0
 10
0
 20
0
 39
0
 70
1
 66
1
  0
VERTEX
  8
0
 10
1210.5
 20
479.30999755859375
 42
0
  0
VERTEX
  8
0
 10
1210.5
 20
632.22998046875
 42
0
  0
VERTEX
  8
0
 10
1126
 20
632.22998046875
 42
0
  0
VERTEX
  8
0
 10
1126
 20
326.39999389648437
 42
0
  0
VERTEX
  8
0
 10
1294.9945068359375
 20
326.39999389648437
 42
0
  0
SEQEND
  0
POLYLINE
  8
0
 10
0
 20
0
 39
0
 70
1
 66
1
  0
VERTEX
  8
0
 10
1297.199951171875
 20
969.2791748046875
 42
0
  0
VERTEX
  8
0
 10
1381.699951171875
 20
816.359130859375
 42
0
  0
VERTEX
  8
0
 10
1381.699951171875
 20
1122.1890869140625
 42
0
  0
VERTEX
  8
0
 10
1297.199951171875
 20
1122.1890869140625
 42
0
  0
SEQEND
  0
POLYLINE
  8
0
 10
0
 20
0
 39
0
 70
1
 66
1
  0
VERTEX
  8
0
 10
1381.699951171875
 20
795.30999755859375
 42
0
  0
VERTEX
  8
0
 10
1297.199951171875
 20
948.22998046875
 42
0
  0
VERTEX
  8
0
 10
1297.199951171875
 20
642.4000244140625
 42
0
  0
VERTEX
  8
0
 10
1381.699951171875
 20
642.4000244140625
 42
0
  0
SEQEND
  0
POLYLINE
  8
0
 10
0
 20
0
 39
0
 70
1
 66
1
  0
VERTEX
  8
0
 10
1392
 20
969.2791748046875
 42
0
  0
VERTEX
  8
0
 10
1476.5
 20
816.359130859375
 42
0
  0
VERTEX
  8
0
 10
1476.5
 20
1122.1890869140625
 42
0
  0
VERTEX
  8
0
 10
1392
 20
1122.1890869140625
 42
0
  0
SEQEND
  0
POLYLINE
  8
0
 10
0
 20
0
 39
0
 70
1
 66
1
  0
VERTEX
  8
0
 10
1476.5
 20
795.30999755859375
 42
0
  0
VERTEX
  8
0
 10
1392
 20
948.22998046875
 42
0
  0
VERTEX
  8
0
 10
1392
 20
642.4000244140625
 42
0
  0
VERTEX
  8
0
 10
1476.5
 20
642.4000244140625
 42
0
  0
SEQEND
  0
POLYLINE
  8
0
 10
0
 20
0
 39
0
 70
1
 66
1
  0
VERTEX
  8
0
 10
1400
 20
337.27914428710937
 42
0
  0
VERTEX
  8
0
 10
1484.5
 20
184.35916137695312
 42
0
  0
VERTEX
  8
0
 10
1484.5
 20
490.18914794921875
 42
0
  0
VERTEX
  8
0
 10
1400
 20
490.18914794921875
 42
0
  0
SEQEND
  0
POLYLINE
  8
0
 10
0
 20
0
 39
0
 70
1
 66
1
  0
VERTEX
  8
0
 10
1484.5
 20
163.30998229980469
 42
0
  0
VERTEX
  8
0
 10
1400
 20
316.22998046875
 42
0
  0
VERTEX
  8
0
 10
1400
 20
10.399999618530273
 42
0
  0
VERTEX
  8
0
 10
1484.5
 20
10.399999618530273
 42
0
  0
SEQEND
  0
POLYLINE
  8
0
 10
0
 20
0
 39
0
 70
1
 66
1
  0
VERTEX
  8
0
 10
1486.800048828125
 20
827.07916259765625
 42
0
  0
VERTEX
  8
0
 10
1571.300048828125
 20
674.1591796875
 42
0
  0
VERTEX
  8
0
 10
1571.300048828125
 20
979.9891357421875
 42
0
  0
VERTEX
  8
0
 10
1486.800048828125
 20
979.9891357421875
 42
0
  0
SEQEND
  0
POLYLINE
  8
0
 10
0
 20
0
 39
0
 70
1
 66
1
  0
VERTEX
  8
0
 10
1571.300048828125
 20
653.1099853515625
 42
0
  0
VERTEX
  8
0
 10
1486.800048828125
 20
806.02996826171875
 42
0
  0
VERTEX
  8
0
 10
1486.800048828125
 20
500.20001220703125
 42
0
  0
VERTEX
  8
0
 10
1571.300048828125
 20
500.20001220703125
 42
0
  0
SEQEND
  0
POLYLINE
  8
0
 10
0
 20
0
 39
0
 70
1
 66
1
  0
VERTEX
  8
0
 10
1494.800048828125
 20
337.27914428710937
 42
0
  0
VERTEX
  8
0
 10
1579.300048828125
 20
184.35916137695312
 42
0
  0
VERTEX
  8
0
 10
1579.300048828125
 20
490.18914794921875
 42
0
  0
VERTEX
  8
0
 10
1494.800048828125
 20
490.18914794921875
 42
0
  0
SEQEND
  0
POLYLINE
  8
0
 10
0
 20
0
 39
0
 70
1
 66
1
  0
VERTEX
  8
0
 10
1579.300048828125
 20
163.30998229980469
 42
0
  0
VERTEX
  8
0
 10
1494.800048828125
 20
316.22998046875
 42
0
  0
VERTEX
  8
0
 10
1494.800048828125
 20
10.399999618530273
 42
0
  0
VERTEX
  8
0
 10
1579.300048828125
 20
10.399999618530273
 42
0
  0
SEQEND
  0
POLYLINE
  8
0
 10
0
 20
0
 39
0
 70
1
 66
1
  0
VERTEX
  8
0
 10
1581.5999755859375
 20
827.07916259765625
 42
0
  0
VERTEX
  8
0
 10
1666.0999755859375
 20
674.1591796875
 42
0
  0
VERTEX
  8
0
 10
1666.0999755859375
 20
979.9891357421875
 42
0
  0
VERTEX
  8
0
 10
1581.5999755859375
 20
979.9891357421875
 42
0
  0
SEQEND
  0
POLYLINE
  8
0
 10
0
 20
0
 39
0
 70
1
 66
1
  0
VERTEX
  8
0
 10
1666.0999755859375
 20
653.1099853515625
 42
0
  0
VERTEX
  8
0
 10
1581.5999755859375
 20
806.02996826171875
 42
0
  0
VERTEX
  8
0
 10
1581.5999755859375
 20
500.20001220703125
 42
0
  0
VERTEX
  8
0
 10
1666.0999755859375
 20
500.20001220703125
 42
0
  0
SEQEND
  0
POLYLINE
  8
0
 10
0
 20
0
 39
0
 70
1
 66
1
  0
VERTEX
  8
0
 10
1589.5999755859375
 20
337.27914428710937
 42
0
  0
VERTEX
  8
0
 10
1674.0999755859375
 20
184.35916137695312
 42
0
  0
VERTEX
  8
0
 10
1674.0999755859375
 20
490.18914794921875
 42
0
  0
VERTEX
  8
0
 10
1589.5999755859375
 20
490.18914794921875
 42
0
  0
SEQEND
  0
POLYLINE
  8
0
 10
0
 20
0
 39
0
 70
1
 66
1
  0
VERTEX
  8
0
 10
1674.0999755859375
 20
163.30998229980469
 42
0
  0
VERTEX
  8
0
 10
1589.5999755859375
 20
316.22998046875
 42
0
  0
VERTEX
  8
0
 10
1589.5999755859375
 20
10.399999618530273
 42
0
  0
VERTEX
  8
0
 10
1674.0999755859375
 20
10.399999618530273
 42
0
  0
SEQEND
  0
POLYLINE
  8
0
 10
0
 20
0
 39
0
 70
1
 66
1
  0
VERTEX
  8
0
 10
1126
 20
642.4000244140625
 42
-0
  0
VERTEX
  8
0
 10
1257
 20
642.4000244140625
 42
-0
  0
VERTEX
  8
0
 10
1257
 20
859.4000244140625
 42
-0
  0
VERTEX
  8
0
 10
1234
 20
859.4000244140625
 42
-0
  0
VERTEX
  8
0
 10
1234
 20
673.4000244140625
 42
-0
  0
VERTEX
  8
0
 10
1149
 20
673.4000244140625
 42
-0
  0
VERTEX
  8
0
 10
1149
 20
859.4000244140625
 42
-0
  0
VERTEX
  8
0
 10
1126
 20
859.4000244140625
 42
-0
  0
SEQEND
  0
POLYLINE
  8
0
 10
0
 20
0
 39
0
 70
1
 66
1
  0
VERTEX
  8
0
 10
1486.800048828125
 20
990
 42
-0
  0
VERTEX
  8
0
 10
1617.800048828125
 20
990
 42
-0
  0
VERTEX
  8
0
 10
1617.800048828125
 20
1207
 42
-0
  0
VERTEX
  8
0
 10
1594.800048828125
 20
1207
 42
-0
  0
VERTEX
  8
0
 10
1594.800048828125
 20
1021
 42
-0
  0
VERTEX
  8
0
 10
1509.800048828125
 20
1021
 42
-0
  0
VERTEX
  8
0
 10
1509.800048828125
 20
1207
 42
-0
  0
VERTEX
  8
0
 10
1486.800048828125
 20
1207
 42
-0
  0
SEQEND
  0
POLYLINE
  8
0
 10
0
 20
0
 39
0
 70
1
 66
1
  0
VERTEX
  8
0
 10
1628.199951171875
 20
990
 42
-0
  0
VERTEX
  8
0
 10
1759.199951171875
 20
990
 42
-0
  0
VERTEX
  8
0
 10
1759.199951171875
 20
1207
 42
-0
  0
VERTEX
  8
0
 10
1736.199951171875
 20
1207
 42
-0
  0
VERTEX
  8
0
 10
1736.199951171875
 20
1021
 42
-0
  0
VERTEX
  8
0
 10
1651.199951171875
 20
1021
 42
-0
  0
VERTEX
  8
0
 10
1651.199951171875
 20
1207
 42
-0
  0
VERTEX
  8
0
 10
1628.199951171875
 20
1207
 42
-0
  0
SEQEND
  0
POLYLINE
  8
0
 10
0
 20
0
 39
0
 70
1
 66
1
  0
VERTEX
  8
0
 10
1676.4000244140625
 20
500.20001220703125
 42
-0
  0
VERTEX
  8
0
 10
1807.4000244140625
 20
500.20001220703125
 42
-0
  0
VERTEX
  8
0
 10
1807.4000244140625
 20
717.20001220703125
 42
-0
  0
VERTEX
  8
0
 10
1784.4000244140625
 20
717.20001220703125
 42
-0
  0
VERTEX
  8
0
 10
1784.4000244140625
 20
531.20001220703125
 42
-0
  0
VERTEX
  8
0
 10
1699.4000244140625
 20
531.20001220703125
 42
-0
  0
VERTEX
  8
0
 10
1699.4000244140625
 20
717.20001220703125
 42
-0
  0
VERTEX
  8
0
 10
1676.4000244140625
 20
717.20001220703125
 42
-0
  0
SEQEND
  0
POLYLINE
  8
0
 10
0
 20
0
 39
0
 70
1
 66
1
  0
VERTEX
  8
0
 10
1676.4000244140625
 20
727.4000244140625
 42
-0
  0
VERTEX
  8
0
 10
1807.4000244140625
 20
727.4000244140625
 42
-0
  0
VERTEX
  8
0
 10
1807.4000244140625
 20
944.4000244140625
 42
-0
  0
VERTEX
  8
0
 10
1784.4000244140625
 20
944.4000244140625
 42
-0
  0
VERTEX
  8
0
 10
1784.4000244140625
 20
758.4000244140625
 42
-0
  0
VERTEX
  8
0
 10
1699.4000244140625
 20
758.4000244140625
 42
-0
  0
VERTEX
  8
0
 10
1699.4000244140625
 20
944.4000244140625
 42
-0
  0
VERTEX
  8
0
 10
1676.4000244140625
 20
944.4000244140625
 42
-0
  0
SEQEND
  0
POLYLINE
  8
0
 10
0
 20
0
 39
0
 70
1
 66
1
  0
VERTEX
  8
0
 10
1684.4000244140625
 20
10.399999618530273
 42
-0
  0
VERTEX
  8
0
 10
1815.4000244140625
 20
10.399999618530273
 42
-0
  0
VERTEX
  8
0
 10
1815.4000244140625
 20
227.40000915527344
 42
-0
  0
VERTEX
  8
0
 10
1792.4000244140625
 20
227.40000915527344
 42
-0
  0
VERTEX
  8
0
 10
1792.4000244140625
 20
41.400001525878906
 42
-0
  0
VERTEX
  8
0
 10
1707.4000244140625
 20
41.400001525878906
 42
-0
  0
VERTEX
  8
0
 10
1707.4000244140625
 20
227.40000915527344
 42
-0
  0
VERTEX
  8
0
 10
1684.4000244140625
 20
227.40000915527344
 42
-0
  0
SEQEND
  0
POLYLINE
  8
0
 10
0
 20
0
 39
0
 70
1
 66
1
  0
VERTEX
  8
0
 10
1684.4000244140625
 20
237.60000610351562
 42
-0
  0
VERTEX
  8
0
 10
1815.4000244140625
 20
237.60000610351562
 42
-0
  0
VERTEX
  8
0
 10
1815.4000244140625
 20
454.60000610351562
 42
-0
  0
VERTEX
  8
0
 10
1792.4000244140625
 20
454.60000610351562
 42
-0
  0
VERTEX
  8
0
 10
1792.4000244140625
 20
268.60000610351562
 42
-0
  0
VERTEX
  8
0
 10
1707.4000244140625
 20
268.60000610351562
 42
-0
  0
VERTEX
  8
0
 10
1707.4000244140625
 20
454.60000610351562
 42
-0
  0
VERTEX
  8
0
 10
1684.4000244140625
 20
454.60000610351562
 42
-0
  0
SEQEND
  0
POLYLINE
  8
0
 10
0
 20
0
 39
0
 70
1
 66
1
  0
VERTEX
  8
0
 10
1769.5999755859375
 20
954.5999755859375
 42
-0
  0
VERTEX
  8
0
 10
1900.5999755859375
 20
954.5999755859375
 42
-0
  0
VERTEX
  8
0
 10
1900.5999755859375
 20
1171.5999755859375
 42
-0
  0
VERTEX
  8
0
 10
1877.5999755859375
 20
1171.5999755859375
 42
-0
  0
VERTEX
  8
0
 10
1877.5999755859375
 20
985.5999755859375
 42
-0
  0
VERTEX
  8
0
 10
1792.5999755859375
 20
985.5999755859375
 42
-0
  0
VERTEX
  8
0
 10
1792.5999755859375
 20
1171.5999755859375
 42
-0
  0
VERTEX
  8
0
 10
1769.5999755859375
 20
1171.5999755859375
 42
-0
  0
SEQEND
  0
POLYLINE
  8
0
 10
0
 20
0
 39
0
 70
1
 66
1
  0
VERTEX
  8
0
 10
1934.199951171875
 20
1213
 42
-0
  0
VERTEX
  8
0
 10
1803.199951171875
 20
1213
 42
-0
  0
VERTEX
  8
0
 10
1803.199951171875
 20
996
 42
-0
  0
VERTEX
  8
0
 10
1826.199951171875
 20
996
 42
-0
  0
VERTEX
  8
0
 10
1826.199951171875
 20
1182
 42
-0
  0
VERTEX
  8
0
 10
1911.199951171875
 20
1182
 42
-0
  0
VERTEX
  8
0
 10
1911.199951171875
 20
996
 42
-0
  0
VERTEX
  8
0
 10
1934.199951171875
 20
996
 42
-0
  0
SEQEND
  0
POLYLINE
  8
0
 10
0
 20
0
 39
0
 70
1
 66
1
  0
VERTEX
  8
0
 10
1817.800048828125
 20
464.79998779296875
 42
-0
  0
VERTEX
  8
0
 10
1948.800048828125
 20
464.79998779296875
 42
-0
  0
VERTEX
  8
0
 10
1948.800048828125
 20
681.79998779296875
 42
-0
  0
VERTEX
  8
0
 10
1925.800048828125
 20
681.79998779296875
 42
-0
  0
VERTEX
  8
0
 10
1925.800048828125
 20
495.79998779296875
 42
-0
  0
VERTEX
  8
0
 10
1840.800048828125
 20
495.79998779296875
 42
-0
  0
VERTEX
  8
0
 10
1840.800048828125
 20
681.79998779296875
 42
-0
  0
VERTEX
  8
0
 10
1817.800048828125
 20
681.79998779296875
 42
-0
  0
SEQEND
  0
POLYLINE
  8
0
 10
0
 20
0
 39
0
 70
1
 66
1
  0
VERTEX
  8
0
 10
1817.800048828125
 20
692
 42
-0
  0
VERTEX
  8
0
 10
1948.800048828125
 20
692
 42
-0
  0
VERTEX
  8
0
 10
1948.800048828125
 20
909
 42
-0
  0
VERTEX
  8
0
 10
1925.800048828125
 20
909
 42
-0
  0
VERTEX
  8
0
 10
1925.800048828125
 20
723
 42
-0
  0
VERTEX
  8
0
 10
1840.800048828125
 20
723
 42
-0
  0
VERTEX
  8
0
 10
1840.800048828125
 20
909
 42
-0
  0
VERTEX
  8
0
 10
1817.800048828125
 20
909
 42
-0
  0
SEQEND
  0
POLYLINE
  8
0
 10
0
 20
0
 39
0
 70
1
 66
1
  0
VERTEX
  8
0
 10
1825.800048828125
 20
10.399999618530273
 42
-0
  0
VERTEX
  8
0
 10
1956.800048828125
 20
10.399999618530273
 42
-0
  0
VERTEX
  8
0
 10
1956.800048828125
 20
227.40000915527344
 42
-0
  0
VERTEX
  8
0
 10
1933.800048828125
 20
227.40000915527344
 42
-0
  0
VERTEX
  8
0
 10
1933.800048828125
 20
41.400001525878906
 42
-0
  0
VERTEX
  8
0
 10
1848.800048828125
 20
41.400001525878906
 42
-0
  0
VERTEX
  8
0
 10
1848.800048828125
 20
227.40000915527344
 42
-0
  0
VERTEX
  8
0
 10
1825.800048828125
 20
227.40000915527344
 42
-0
  0
SEQEND
  0
POLYLINE
  8
0
 10
0
 20
0
 39
0
 70
1
 66
1
  0
VERTEX
  8
0
 10
1825.800048828125
 20
237.60000610351562
 42
-0
  0
VERTEX
  8
0
 10
1956.800048828125
 20
237.60000610351562
 42
-0
  0
VERTEX
  8
0
 10
1956.800048828125
 20
454.60000610351562
 42
-0
  0
VERTEX
  8
0
 10
1933.800048828125
 20
454.60000610351562
 42
-0
  0
VERTEX
  8
0
 10
1933.800048828125
 20
268.60000610351562
 42
-0
  0
VERTEX
  8
0
 10
1848.800048828125
 20
268.60000610351562
 42
-0
  0
VERTEX
  8
0
 10
1848.800048828125
 20
454.60000610351562
 42
-0
  0
VERTEX
  8
0
 10
1825.800048828125
 20
454.60000610351562
 42
-0
  0
SEQEND
  0
POLYLINE
  8
0
 10
0
 20
0
 39
0
 70
1
 66
1
  0
VERTEX
  8
0
 10
1426.4375
 20
1146.5999755859375
 42
0
  0
VERTEX
  8
0
 10
1468.4375
 20
1146.5999755859375
 42
-0
  0
VERTEX
  8
0
 10
1416.4375
 20
1239.5999755859375
 42
-0
  0
VERTEX
  8
0
 10
1400.4375
 20
1224.5999755859375
 42
-0
  0
VERTEX
  8
0
 10
1369.4375
 20
1224.5999755859375
 42
-0
  0
VERTEX
  8
0
 10
1353.4375
 20
1239.5999755859375
 42
-0
  0
VERTEX
  8
0
 10
1353.4375
 20
1229.5999755859375
 42
0
  0
SEQEND
  0
POLYLINE
  8
0
 10
0
 20
0
 39
0
 70
1
 66
1
  0
VERTEX
  8
0
 10
1331.199951171875
 20
1239.5999755859375
 42
0
  0
VERTEX
  8
0
 10
1289.199951171875
 20
1239.5999755859375
 42
-0
  0
VERTEX
  8
0
 10
1341.199951171875
 20
1146.5999755859375
 42
-0
  0
VERTEX
  8
0
 10
1357.199951171875
 20
1161.5999755859375
 42
-0
  0
VERTEX
  8
0
 10
1388.199951171875
 20
1161.5999755859375
 42
-0
  0
VERTEX
  8
0
 10
1404.199951171875
 20
1146.5999755859375
 42
-0
  0
VERTEX
  8
0
 10
1404.199951171875
 20
1156.5999755859375
 42
0
  0
SEQEND
  0
POLYLINE
  8
0
 10
0
 20
0
 39
0
 70
1
 66
1
  0
VERTEX
  8
0
 10
1174.5999755859375
 20
869.79998779296875
 42
-0
  0
VERTEX
  8
0
 10
1213.5999755859375
 20
869.79998779296875
 42
0
  0
VERTEX
  8
0
 10
1213.5999755859375
 20
902.79998779296875
 42
0
  0
VERTEX
  8
0
 10
1133.5999755859375
 20
902.79998779296875
 42
0
  0
VERTEX
  8
0
 10
1133.5999755859375
 20
869.79998779296875
 42
-0
  0
VERTEX
  8
0
 10
1159.5999755859375
 20
869.79998779296875
 42
-0
  0
VERTEX
  8
0
 10
1159.5999755859375
 20
802.79998779296875
 42
0
  0
VERTEX
  8
0
 10
1174.5999755859375
 20
802.79998779296875
 42
0
  0
SEQEND
  0
POLYLINE
  8
0
 10
0
 20
0
 39
0
 70
1
 66
1
  0
VERTEX
  8
0
 10
1222.80078125
 20
801.85333251953125
 42
0
  0
VERTEX
  8
0
 10
1191.2235107421875
 20
829.5458984375
 42
-0
  0
VERTEX
  8
0
 10
1169
 20
725.33880615234375
 42
-0
  0
VERTEX
  8
0
 10
1190.919677734375
 20
726.06683349609375
 42
-0
  0
VERTEX
  8
0
 10
1214.2266845703125
 20
705.62713623046875
 42
-0
  0
VERTEX
  8
0
 10
1216.365966796875
 20
683.79998779296875
 42
-0
  0
VERTEX
  8
0
 10
1222.9593505859375
 20
691.31842041015625
 42
0
  0
SEQEND
  0
POLYLINE
  8
0
 10
0
 20
0
 39
0
 70
1
 66
1
  0
VERTEX
  8
0
 10
1520.358642578125
 20
1059.092529296875
 42
0
  0
VERTEX
  8
0
 10
1551.9359130859375
 20
1031.4000244140625
 42
-0
  0
VERTEX
  8
0
 10
1574.159423828125
 20
1135.6070556640625
 42
-0
  0
VERTEX
  8
0
 10
1552.23974609375
 20
1134.8790283203125
 42
-0
  0
VERTEX
  8
0
 10
1528.9327392578125
 20
1155.3187255859375
 42
-0
  0
VERTEX
  8
0
 10
1526.79345703125
 20
1177.1458740234375
 42
-0
  0
VERTEX
  8
0
 10
1520.199951171875
 20
1169.62744140625
 42
0
  0
SEQEND
  0
POLYLINE
  8
0
 10
0
 20
0
 39
0
 70
1
 66
1
  0
VERTEX
  8
0
 10
1661.758544921875
 20
1059.092529296875
 42
0
  0
VERTEX
  8
0
 10
1693.3359375
 20
1031.4000244140625
 42
-0
  0
VERTEX
  8
0
 10
1715.559326171875
 20
1135.6070556640625
 42
-0
  0
VERTEX
  8
0
 10
1693.6397705078125
 20
1134.8790283203125
 42
-0
  0
VERTEX
  8
0
 10
1670.332763671875
 20
1155.3187255859375
 42
-0
  0
VERTEX
  8
0
 10
1668.1934814453125
 20
1177.1458740234375
 42
-0
  0
VERTEX
  8
0
 10
1661.5999755859375
 20
1169.62744140625
 42
0
  0
SEQEND
  0
POLYLINE
  8
0
 10
0
 20
0
 39
0
 70
1
 66
1
  0
VERTEX
  8
0
 10
1709.9586181640625
 20
569.29254150390625
 42
0
  0
VERTEX
  8
0
 10
1741.535888671875
 20
541.5999755859375
 42
-0
  0
VERTEX
  8
0
 10
1763.7593994140625
 20
645.80706787109375
 42
-0
  0
VERTEX
  8
0
 10
1741.8397216796875
 20
645.07904052734375
 42
-0
  0
VERTEX
  8
0
 10
1718.53271484375
 20
665.51873779296875
 42
-0
  0
VERTEX
  8
0
 10
1716.3934326171875
 20
687.34588623046875
 42
-0
  0
VERTEX
  8
0
 10
1709.800048828125
 20
679.82745361328125
 42
0
  0
SEQEND
  0
POLYLINE
  8
0
 10
0
 20
0
 39
0
 70
1
 66
1
  0
VERTEX
  8
0
 10
1709.9586181640625
 20
796.4925537109375
 42
0
  0
VERTEX
  8
0
 10
1741.535888671875
 20
768.79998779296875
 42
-0
  0
VERTEX
  8
0
 10
1763.7593994140625
 20
873.007080078125
 42
-0
  0
VERTEX
  8
0
 10
1741.8397216796875
 20
872.27899169921875
 42
-0
  0
VERTEX
  8
0
 10
1718.53271484375
 20
892.71875
 42
-0
  0
VERTEX
  8
0
 10
1716.3934326171875
 20
914.5458984375
 42
-0
  0
VERTEX
  8
0
 10
1709.800048828125
 20
907.0274658203125
 42
0
  0
SEQEND
  0
POLYLINE
  8
0
 10
0
 20
0
 39
0
 70
1
 66
1
  0
VERTEX
  8
0
 10
1717.9586181640625
 20
79.492523193359375
 42
0
  0
VERTEX
  8
0
 10
1749.535888671875
 20
51.799999237060547
 42
-0
  0
VERTEX
  8
0
 10
1771.7593994140625
 20
156.007080078125
 42
-0
  0
VERTEX
  8
0
 10
1749.8397216796875
 20
155.27902221679687
 42
-0
  0
VERTEX
  8
0
 10
1726.53271484375
 20
175.71873474121094
 42
-0
  0
VERTEX
  8
0
 10
1724.3934326171875
 20
197.54586791992187
 42
-0
  0
VERTEX
  8
0
 10
1717.800048828125
 20
190.0274658203125
 42
0
  0
SEQEND
  0
POLYLINE
  8
0
 10
0
 20
0
 39
0
 70
1
 66
1
  0
VERTEX
  8
0
 10
1717.9586181640625
 20
306.69253540039062
 42
0
  0
VERTEX
  8
0
 10
1749.535888671875
 20
279
 42
-0
  0
VERTEX
  8
0
 10
1771.7593994140625
 20
383.20709228515625
 42
-0
  0
VERTEX
  8
0
 10
1749.8397216796875
 20
382.47903442382812
 42
-0
  0
VERTEX
  8
0
 10
1726.53271484375
 20
402.91873168945312
 42
-0
  0
VERTEX
  8
0
 10
1724.3934326171875
 20
424.74588012695312
 42
-0
  0
VERTEX
  8
0
 10
1717.800048828125
 20
417.22747802734375
 42
0
  0
SEQEND
  0
POLYLINE
  8
0
 10
0
 20
0
 39
0
 70
1
 66
1
  0
VERTEX
  8
0
 10
1851.358642578125
 20
533.89251708984375
 42
0
  0
VERTEX
  8
0
 10
1882.9359130859375
 20
506.20001220703125
 42
-0
  0
VERTEX
  8
0
 10
1905.159423828125
 20
610.4071044921875
 42
-0
  0
VERTEX
  8
0
 10
1883.23974609375
 20
609.67901611328125
 42
-0
  0
VERTEX
  8
0
 10
1859.9327392578125
 20
630.11871337890625
 42
-0
  0
VERTEX
  8
0
 10
1857.79345703125
 20
651.94586181640625
 42
-0
  0
VERTEX
  8
0
 10
1851.199951171875
 20
644.427490234375
 42
0
  0
SEQEND
  0
POLYLINE
  8
0
 10
0
 20
0
 39
0
 70
1
 66
1
  0
VERTEX
  8
0
 10
1851.358642578125
 20
761.092529296875
 42
0
  0
VERTEX
  8
0
 10
1882.9359130859375
 20
733.4000244140625
 42
-0
  0
VERTEX
  8
0
 10
1905.159423828125
 20
837.6070556640625
 42
-0
  0
VERTEX
  8
0
 10
1883.23974609375
 20
836.8790283203125
 42
-0
  0
VERTEX
  8
0
 10
1859.9327392578125
 20
857.3187255859375
 42
-0
  0
VERTEX
  8
0
 10
1857.79345703125
 20
879.1458740234375
 42
-0
  0
VERTEX
  8
0
 10
1851.199951171875
 20
871.62750244140625
 42
0
  0
SEQEND
  0
POLYLINE
  8
0
 10
0
 20
0
 39
0
 70
1
 66
1
  0
VERTEX
  8
0
 10
1859.358642578125
 20
79.492523193359375
 42
0
  0
VERTEX
  8
0
 10
1890.9359130859375
 20
51.799999237060547
 42
-0
  0
VERTEX
  8
0
 10
1913.159423828125
 20
156.007080078125
 42
-0
  0
VERTEX
  8
0
 10
1891.23974609375
 20
155.27902221679687
 42
-0
  0
VERTEX
  8
0
 10
1867.9327392578125
 20
175.71873474121094
 42
-0
  0
VERTEX
  8
0
 10
1865.79345703125
 20
197.54586791992187
 42
-0
  0
VERTEX
  8
0
 10
1859.199951171875
 20
190.0274658203125
 42
0
  0
SEQEND
  0
POLYLINE
  8
0
 10
0
 20
0
 39
0
 70
1
 66
1
  0
VERTEX
  8
0
 10
1859.358642578125
 20
306.69253540039062
 42
0
  0
VERTEX
  8
0
 10
1890.9359130859375
 20
279
 42
-0
  0
VERTEX
  8
0
 10
1913.159423828125
 20
383.20709228515625
 42
-0
  0
VERTEX
  8
0
 10
1891.23974609375
 20
382.47903442382812
 42
-0
  0
VERTEX
  8
0
 10
1867.9327392578125
 20
402.91873168945312
 42
-0
  0
VERTEX
  8
0
 10
1865.79345703125
 20
424.74588012695312
 42
-0
  0
VERTEX
  8
0
 10
1859.199951171875
 20
417.22747802734375
 42
0
  0
SEQEND
  0
POLYLINE
  8
0
 10
0
 20
0
 39
0
 70
1
 66
1
  0
VERTEX
  8
0
 10
1982.80078125
 20
996.85333251953125
 42
0
  0
VERTEX
  8
0
 10
1951.2235107421875
 20
1024.5458984375
 42
-0
  0
VERTEX
  8
0
 10
1929
 20
920.33880615234375
 42
-0
  0
VERTEX
  8
0
 10
1950.919677734375
 20
921.06683349609375
 42
-0
  0
VERTEX
  8
0
 10
1974.2266845703125
 20
900.62713623046875
 42
-0
  0
VERTEX
  8
0
 10
1976.365966796875
 20
878.79998779296875
 42
-0
  0
VERTEX
  8
0
 10
1982.9593505859375
 20
886.31842041015625
 42
0
  0
SEQEND
  0
POLYLINE
  8
0
 10
0
 20
0
 39
0
 70
1
 66
1
  0
VERTEX
  8
0
 10
80.400001525878906
 20
1191
 42
-0
  0
VERTEX
  8
0
 10
80.400001525878906
 20
1198
 42
0
  0
VERTEX
  8
0
 10
118.40000152587891
 20
1198
 42
-0
  0
VERTEX
  8
0
 10
118.40000152587891
 20
1191
 42
0
  0
VERTEX
  8
0
 10
130.39999389648437
 20
1191
 42
0
  0
VERTEX
  8
0
 10
130.39999389648437
 20
1214
 42
0
  0
VERTEX
  8
0
 10
118.40000152587891
 20
1214
 42
-0
  0
VERTEX
  8
0
 10
118.40000152587891
 20
1207
 42
-0
  0
VERTEX
  8
0
 10
80.400001525878906
 20
1207
 42
-0
  0
VERTEX
  8
0
 10
80.400001525878906
 20
1214
 42
0
  0
VERTEX
  8
0
 10
10.399999618530273
 20
1214
 42
0
  0
VERTEX
  8
0
 10
10.399999618530273
 20
1191
 42
0
  0
SEQEND
  0
POLYLINE
  8
0
 10
0
 20
0
 39
0
 70
1
 66
1
  0
VERTEX
  8
0
 10
210.60000610351562
 20
1216.199951171875
 42
-0
  0
VERTEX
  8
0
 10
210.60000610351562
 20
1223.199951171875
 42
0
  0
VERTEX
  8
0
 10
248.60000610351562
 20
1223.199951171875
 42
-0
  0
VERTEX
  8
0
 10
248.60000610351562
 20
1216.199951171875
 42
0
  0
VERTEX
  8
0
 10
260.60000610351562
 20
1216.199951171875
 42
0
  0
VERTEX
  8
0
 10
260.60000610351562
 20
1239.199951171875
 42
0
  0
VERTEX
  8
0
 10
248.60000610351562
 20
1239.199951171875
 42
-0
  0
VERTEX
  8
0
 10
248.60000610351562
 20
1232.199951171875
 42
-0
  0
VERTEX
  8
0
 10
210.60000610351562
 20
1232.199951171875
 42
-0
  0
VERTEX
  8
0
 10
210.60000610351562
 20
1239.199951171875
 42
0
  0
VERTEX
  8
0
 10
140.60000610351562
 20
1239.199951171875
 42
0
  0
VERTEX
  8
0
 10
140.60000610351562
 20
1216.199951171875
 42
0
  0
SEQEND
  0
POLYLINE
  8
0
 10
0
 20
0
 39
0
 70
1
 66
1
  0
VERTEX
  8
0
 10
340.79998779296875
 20
1191
 42
-0
  0
VERTEX
  8
0
 10
340.79998779296875
 20
1198
 42
0
  0
VERTEX
  8
0
 10
378.79998779296875
 20
1198
 42
-0
  0
VERTEX
  8
0
 10
378.79998779296875
 20
1191
 42
0
  0
VERTEX
  8
0
 10
390.79998779296875
 20
1191
 42
0
  0
VERTEX
  8
0
 10
390.79998779296875
 20
1214
 42
0
  0
VERTEX
  8
0
 10
378.79998779296875
 20
1214
 42
-0
  0
VERTEX
  8
0
 10
378.79998779296875
 20
1207
 42
-0
  0
VERTEX
  8
0
 10
340.79998779296875
 20
1207
 42
-0
  0
VERTEX
  8
0
 10
340.79998779296875
 20
1214
 42
0
  0
VERTEX
  8
0
 10
270.79998779296875
 20
1214
 42
0
  0
VERTEX
  8
0
 10
270.79998779296875
 20
1191
 42
0
  0
SEQEND
  0
POLYLINE
  8
0
 10
0
 20
0
 39
0
 70
1
 66
1
  0
VERTEX
  8
0
 10
471
 20
1216.199951171875
 42
-0
  0
VERTEX
  8
0
 10
471
 20
1223.199951171875
 42
0
  0
VERTEX
  8
0
 10
509
 20
1223.199951171875
 42
-0
  0
VERTEX
  8
0
 10
509
 20
1216.199951171875
 42
0
  0
VERTEX
  8
0
 10
521
 20
1216.199951171875
 42
0
  0
VERTEX
  8
0
 10
521
 20
1239.199951171875
 42
0
  0
VERTEX
  8
0
 10
509
 20
1239.199951171875
 42
-0
  0
VERTEX
  8
0
 10
509
 20
1232.199951171875
 42
-0
  0
VERTEX
  8
0
 10
471
 20
1232.199951171875
 42
-0
  0
VERTEX
  8
0
 10
471
 20
1239.199951171875
 42
0
  0
VERTEX
  8
0
 10
401
 20
1239.199951171875
 42
0
  0
VERTEX
  8
0
 10
401
 20
1216.199951171875
 42
0
  0
SEQEND
  0
POLYLINE
  8
0
 10
0
 20
0
 39
0
 70
1
 66
1
  0
VERTEX
  8
0
 10
601.20001220703125
 20
1191
 42
-0
  0
VERTEX
  8
0
 10
601.20001220703125
 20
1198
 42
0
  0
VERTEX
  8
0
 10
639.20001220703125
 20
1198
 42
-0
  0
VERTEX
  8
0
 10
639.20001220703125
 20
1191
 42
0
  0
VERTEX
  8
0
 10
651.20001220703125
 20
1191
 42
0
  0
VERTEX
  8
0
 10
651.20001220703125
 20
1214
 42
0
  0
VERTEX
  8
0
 10
639.20001220703125
 20
1214
 42
-0
  0
VERTEX
  8
0
 10
639.20001220703125
 20
1207
 42
-0
  0
VERTEX
  8
0
 10
601.20001220703125
 20
1207
 42
-0
  0
VERTEX
  8
0
 10
601.20001220703125
 20
1214
 42
0
  0
VERTEX
  8
0
 10
531.20001220703125
 20
1214
 42
0
  0
VERTEX
  8
0
 10
531.20001220703125
 20
1191
 42
0
  0
SEQEND
  0
POLYLINE
  8
0
 10
0
 20
0
 39
0
 70
1
 66
1
  0
VERTEX
  8
0
 10
731.4000244140625
 20
1216.199951171875
 42
-0
  0
VERTEX
  8
0
 10
731.4000244140625
 20
1223.199951171875
 42
0
  0
VERTEX
  8
0
 10
769.4000244140625
 20
1223.199951171875
 42
-0
  0
VERTEX
  8
0
 10
769.4000244140625
 20
1216.199951171875
 42
0
  0
VERTEX
  8
0
 10
781.4000244140625
 20
1216.199951171875
 42
0
  0
VERTEX
  8
0
 10
781.4000244140625
 20
1239.199951171875
 42
0
  0
VERTEX
  8
0
 10
769.4000244140625
 20
1239.199951171875
 42
-0
  0
VERTEX
  8
0
 10
769.4000244140625
 20
1232.199951171875
 42
-0
  0
VERTEX
  8
0
 10
731.4000244140625
 20
1232.199951171875
 42
-0
  0
VERTEX
  8
0
 10
731.4000244140625
 20
1239.199951171875
 42
0
  0
VERTEX
  8
0
 10
661.4000244140625
 20
1239.199951171875
 42
0
  0
VERTEX
  8
0
 10
661.4000244140625
 20
1216.199951171875
 42
0
  0
SEQEND
  0
POLYLINE
  8
0
 10
0
 20
0
 39
0
 70
1
 66
1
  0
VERTEX
  8
0
 10
861.5999755859375
 20
1191
 42
-0
  0
VERTEX
  8
0
 10
861.5999755859375
 20
1198
 42
0
  0
VERTEX
  8
0
 10
899.5999755859375
 20
1198
 42
-0
  0
VERTEX
  8
0
 10
899.5999755859375
 20
1191
 42
0
  0
VERTEX
  8
0
 10
911.5999755859375
 20
1191
 42
0
  0
VERTEX
  8
0
 10
911.5999755859375
 20
1214
 42
0
  0
VERTEX
  8
0
 10
899.5999755859375
 20
1214
 42
-0
  0
VERTEX
  8
0
 10
899.5999755859375
 20
1207
 42
-0
  0
VERTEX
  8
0
 10
861.5999755859375
 20
1207
 42
-0
  0
VERTEX
  8
0
 10
861.5999755859375
 20
1214
 42
0
  0
VERTEX
  8
0
 10
791.5999755859375
 20
1214
 42
0
  0
VERTEX
  8
0
 10
791.5999755859375
 20
1191
 42
0
  0
SEQEND
  0
POLYLINE
  8
0
 10
0
 20
0
 39
0
 70
1
 66
1
  0
VERTEX
  8
0
 10
1196
 20
913
 42
-0
  0
VERTEX
  8
0
 10
1196
 20
920
 42
0
  0
VERTEX
  8
0
 10
1234
 20
920
 42
-0
  0
VERTEX
  8
0
 10
1234
 20
913
 42
0
  0
VERTEX
  8
0
 10
1246
 20
913
 42
0
  0
VERTEX
  8
0
 10
1246
 20
936
 42
0
  0
VERTEX
  8
0
 10
1234
 20
936
 42
-0
  0
VERTEX
  8
0
 10
1234
 20
929
 42
-0
  0
VERTEX
  8
0
 10
1196
 20
929
 42
-0
  0
VERTEX
  8
0
 10
1196
 20
936
 42
0
  0
VERTEX
  8
0
 10
1126
 20
936
 42
0
  0
VERTEX
  8
0
 10
1126
 20
913
 42
0
  0
SEQEND
  0
POLYLINE
  8
0
 10
0
 20
0
 39
0
 70
1
 66
1
  0
VERTEX
  8
0
 10
1400
 20
550.20001220703125
 42
-0
  0
VERTEX
  8
0
 10
1407
 20
550.20001220703125
 42
0
  0
VERTEX
  8
0
 10
1407
 20
512.20001220703125
 42
-0
  0
VERTEX
  8
0
 10
1400
 20
512.20001220703125
 42
0
  0
VERTEX
  8
0
 10
1400
 20
500.20001220703125
 42
0
  0
VERTEX
  8
0
 10
1423
 20
500.20001220703125
 42
0
  0
VERTEX
  8
0
 10
1423
 20
512.20001220703125
 42
-0
  0
VERTEX
  8
0
 10
1416
 20
512.20001220703125
 42
-0
  0
VERTEX
  8
0
 10
1416
 20
550.20001220703125
 42
-0
  0
VERTEX
  8
0
 10
1423
 20
550.20001220703125
 42
0
  0
VERTEX
  8
0
 10
1423
 20
620.20001220703125
 42
0
  0
VERTEX
  8
0
 10
1400
 20
620.20001220703125
 42
0
  0
SEQEND
  0
POLYLINE
  8
0
 10
0
 20
0
 39
0
 70
1
 66
1
  0
VERTEX
  8
0
 10
1433.4000244140625
 20
550.20001220703125
 42
-0
  0
VERTEX
  8
0
 10
1440.4000244140625
 20
550.20001220703125
 42
0
  0
VERTEX
  8
0
 10
1440.4000244140625
 20
512.20001220703125
 42
-0
  0
VERTEX
  8
0
 10
1433.4000244140625
 20
512.20001220703125
 42
0
  0
VERTEX
  8
0
 10
1433.4000244140625
 20
500.20001220703125
 42
0
  0
VERTEX
  8
0
 10
1456.4000244140625
 20
500.20001220703125
 42
0
  0
VERTEX
  8
0
 10
1456.4000244140625
 20
512.20001220703125
 42
-0
  0
VERTEX
  8
0
 10
1449.4000244140625
 20
512.20001220703125
 42
-0
  0
VERTEX
  8
0
 10
1449.4000244140625
 20
550.20001220703125
 42
-0
  0
VERTEX
  8
0
 10
1456.4000244140625
 20
550.20001220703125
 42
0
  0
VERTEX
  8
0
 10
1456.4000244140625
 20
620.20001220703125
 42
0
  0
VERTEX
  8
0
 10
1433.4000244140625
 20
620.20001220703125
 42
0
  0
SEQEND
  0
POLYLINE
  8
0
 10
0
 20
0
 39
0
 70
1
 66
1
  0
VERTEX
  8
0
 10
1514.199951171875
 20
1239.5999755859375
 42
-0
  0
VERTEX
  8
0
 10
1514.199951171875
 20
1232.5999755859375
 42
0
  0
VERTEX
  8
0
 10
1476.199951171875
 20
1232.5999755859375
 42
-0
  0
VERTEX
  8
0
 10
1476.199951171875
 20
1239.5999755859375
 42
0
  0
VERTEX
  8
0
 10
1464.199951171875
 20
1239.5999755859375
 42
0
  0
VERTEX
  8
0
 10
1464.199951171875
 20
1216.5999755859375
 42
0
  0
VERTEX
  8
0
 10
1476.199951171875
 20
1216.5999755859375
 42
-0
  0
VERTEX
  8
0
 10
1476.199951171875
 20
1223.5999755859375
 42
-0
  0
VERTEX
  8
0
 10
1514.199951171875
 20
1223.5999755859375
 42
-0
  0
VERTEX
  8
0
 10
1514.199951171875
 20
1216.5999755859375
 42
0
  0
VERTEX
  8
0
 10
1584.199951171875
 20
1216.5999755859375
 42
0
  0
VERTEX
  8
0
 10
1584.199951171875
 20
1239.5999755859375
 42
0
  0
SEQEND
  0
POLYLINE
  8
0
 10
0
 20
0
 39
0
 70
1
 66
1
  0
VERTEX
  8
0
 10
1725.5999755859375
 20
1216.5999755859375
 42
-0
  0
VERTEX
  8
0
 10
1725.5999755859375
 20
1223.5999755859375
 42
0
  0
VERTEX
  8
0
 10
1763.5999755859375
 20
1223.5999755859375
 42
-0
  0
VERTEX
  8
0
 10
1763.5999755859375
 20
1216.5999755859375
 42
0
  0
VERTEX
  8
0
 10
1775.5999755859375
 20
1216.5999755859375
 42
0
  0
VERTEX
  8
0
 10
1775.5999755859375
 20
1239.5999755859375
 42
0
  0
VERTEX
  8
0
 10
1763.5999755859375
 20
1239.5999755859375
 42
-0
  0
VERTEX
  8
0
 10
1763.5999755859375
 20
1232.5999755859375
 42
-0
  0
VERTEX
  8
0
 10
1725.5999755859375
 20
1232.5999755859375
 42
-0
  0
VERTEX
  8
0
 10
1725.5999755859375
 20
1239.5999755859375
 42
0
  0
VERTEX
  8
0
 10
1655.5999755859375
 20
1239.5999755859375
 42
0
  0
VERTEX
  8
0
 10
1655.5999755859375
 20
1216.5999755859375
 42
0
  0
SEQEND
  0
POLYLINE
  8
0
 10
0
 20
0
 39
0
 70
1
 66
1
  0
VERTEX
  8
0
 10
1754.4000244140625
 20
464.79998779296875
 42
-0
  0
VERTEX
  8
0
 10
1754.4000244140625
 20
471.79998779296875
 42
0
  0
VERTEX
  8
0
 10
1792.4000244140625
 20
471.79998779296875
 42
-0
  0
VERTEX
  8
0
 10
1792.4000244140625
 20
464.79998779296875
 42
0
  0
VERTEX
  8
0
 10
1804.4000244140625
 20
464.79998779296875
 42
0
  0
VERTEX
  8
0
 10
1804.4000244140625
 20
487.79998779296875
 42
0
  0
VERTEX
  8
0
 10
1792.4000244140625
 20
487.79998779296875
 42
-0
  0
VERTEX
  8
0
 10
1792.4000244140625
 20
480.79998779296875
 42
-0
  0
VERTEX
  8
0
 10
1754.4000244140625
 20
480.79998779296875
 42
-0
  0
VERTEX
  8
0
 10
1754.4000244140625
 20
487.79998779296875
 42
0
  0
VERTEX
  8
0
 10
1684.4000244140625
 20
487.79998779296875
 42
0
  0
VERTEX
  8
0
 10
1684.4000244140625
 20
464.79998779296875
 42
0
  0
SEQEND
  0
POLYLINE
  8
0
 10
0
 20
0
 39
0
 70
1
 66
1
  0
VERTEX
  8
0
 10
1836.5999755859375
 20
1046
 42
-0
  0
VERTEX
  8
0
 10
1843.5999755859375
 20
1046
 42
0
  0
VERTEX
  8
0
 10
1843.5999755859375
 20
1008
 42
-0
  0
VERTEX
  8
0
 10
1836.5999755859375
 20
1008
 42
0
  0
VERTEX
  8
0
 10
1836.5999755859375
 20
996
 42
0
  0
VERTEX
  8
0
 10
1859.5999755859375
 20
996
 42
0
  0
VERTEX
  8
0
 10
1859.5999755859375
 20
1008
 42
-0
  0
VERTEX
  8
0
 10
1852.5999755859375
 20
1008
 42
-0
  0
VERTEX
  8
0
 10
1852.5999755859375
 20
1046
 42
-0
  0
VERTEX
  8
0
 10
1859.5999755859375
 20
1046
 42
0
  0
VERTEX
  8
0
 10
1859.5999755859375
 20
1116
 42
0
  0
VERTEX
  8
0
 10
1836.5999755859375
 20
1116
 42
0
  0
SEQEND
  0
POLYLINE
  8
0
 10
0
 20
0
 39
0
 70
1
 66
1
  0
VERTEX
  8
0
 10
1944.5999755859375
 20
1084.5999755859375
 42
-0
  0
VERTEX
  8
0
 10
1951.5999755859375
 20
1084.5999755859375
 42
0
  0
VERTEX
  8
0
 10
1951.5999755859375
 20
1046.5999755859375
 42
-0
  0
VERTEX
  8
0
 10
1944.5999755859375
 20
1046.5999755859375
 42
0
  0
VERTEX
  8
0
 10
1944.5999755859375
 20
1034.5999755859375
 42
0
  0
VERTEX
  8
0
 10
1967.5999755859375
 20
1034.5999755859375
 42
0
  0
VERTEX
  8
0
 10
1967.5999755859375
 20
1046.5999755859375
 42
-0
  0
VERTEX
  8
0
 10
1960.5999755859375
 20
1046.5999755859375
 42
-0
  0
VERTEX
  8
0
 10
1960.5999755859375
 20
1084.5999755859375
 42
-0
  0
VERTEX
  8
0
 10
1967.5999755859375
 20
1084.5999755859375
 42
0
  0
VERTEX
  8
0
 10
1967.5999755859375
 20
1154.5999755859375
 42
0
  0
VERTEX
  8
0
 10
1944.5999755859375
 20
1154.5999755859375
 42
0
  0
SEQEND
  0
POLYLINE
  8
0
 10
0
 20
0
 39
0
 70
1
 66
1
  0
VERTEX
  8
0
 10
1959.199951171875
 20
514.79998779296875
 42
-0
  0
VERTEX
  8
0
 10
1966.199951171875
 20
514.79998779296875
 42
0
  0
VERTEX
  8
0
 10
1966.199951171875
 20
476.79998779296875
 42
-0
  0
VERTEX
  8
0
 10
1959.199951171875
 20
476.79998779296875
 42
0
  0
VERTEX
  8
0
 10
1959.199951171875
 20
464.79998779296875
 42
0
  0
VERTEX
  8
0
 10
1982.199951171875
 20
464.79998779296875
 42
0
  0
VERTEX
  8
0
 10
1982.199951171875
 20
476.79998779296875
 42
-0
  0
VERTEX
  8
0
 10
1975.199951171875
 20
476.79998779296875
 42
-0
  0
VERTEX
  8
0
 10
1975.199951171875
 20
514.79998779296875
 42
-0
  0
VERTEX
  8
0
 10
1982.199951171875
 20
514.79998779296875
 42
0
  0
VERTEX
  8
0
 10
1982.199951171875
 20
584.79998779296875
 42
0
  0
VERTEX
  8
0
 10
1959.199951171875
 20
584.79998779296875
 42
0
  0
SEQEND
  0
POLYLINE
  8
0
 10
0
 20
0
 39
0
 70
1
 66
1
  0
VERTEX
  8
0
 10
1959.199951171875
 20
645
 42
-0
  0
VERTEX
  8
0
 10
1966.199951171875
 20
645
 42
0
  0
VERTEX
  8
0
 10
1966.199951171875
 20
607
 42
-0
  0
VERTEX
  8
0
 10
1959.199951171875
 20
607
 42
0
  0
VERTEX
  8
0
 10
1959.199951171875
 20
595
 42
0
  0
VERTEX
  8
0
 10
1982.199951171875
 20
595
 42
0
  0
VERTEX
  8
0
 10
1982.199951171875
 20
607
 42
-0
  0
VERTEX
  8
0
 10
1975.199951171875
 20
607
 42
-0
  0
VERTEX
  8
0
 10
1975.199951171875
 20
645
 42
-0
  0
VERTEX
  8
0
 10
1982.199951171875
 20
645
 42
0
  0
VERTEX
  8
0
 10
1982.199951171875
 20
715
 42
0
  0
VERTEX
  8
0
 10
1959.199951171875
 20
715
 42
0
  0
SEQEND
  0
POLYLINE
  8
0
 10
0
 20
0
 39
0
 70
1
 66
1
  0
VERTEX
  8
0
 10
1959.199951171875
 20
775.20001220703125
 42
-0
  0
VERTEX
  8
0
 10
1966.199951171875
 20
775.20001220703125
 42
0
  0
VERTEX
  8
0
 10
1966.199951171875
 20
737.20001220703125
 42
-0
  0
VERTEX
  8
0
 10
1959.199951171875
 20
737.20001220703125
 42
0
  0
VERTEX
  8
0
 10
1959.199951171875
 20
725.20001220703125
 42
0
  0
VERTEX
  8
0
 10
1982.199951171875
 20
725.20001220703125
 42
0
  0
VERTEX
  8
0
 10
1982.199951171875
 20
737.20001220703125
 42
-0
  0
VERTEX
  8
0
 10
1975.199951171875
 20
737.20001220703125
 42
-0
  0
VERTEX
  8
0
 10
1975.199951171875
 20
775.20001220703125
 42
-0
  0
VERTEX
  8
0
 10
1982.199951171875
 20
775.20001220703125
 42
0
  0
VERTEX
  8
0
 10
1982.199951171875
 20
845.20001220703125
 42
0
  0
VERTEX
  8
0
 10
1959.199951171875
 20
845.20001220703125
 42
0
  0
SEQEND
  0
POLYLINE
  8
0
 10
0
 20
0
 39
0
 70
1
 66
1
  0
VERTEX
  8
0
 10
30.399999618530273
 20
997.4000244140625
 42
-0
  0
VERTEX
  8
0
 10
20.399999618530273
 20
1009.4000244140625
 42
0
  0
VERTEX
  8
0
 10
10.399999618530273
 20
1009.4000244140625
 42
0
  0
VERTEX
  8
0
 10
10.399999618530273
 20
939.4000244140625
 42
0
  0
VERTEX
  8
0
 10
24.399999618530273
 20
939.4000244140625
 42
0
  0
VERTEX
  8
0
 10
30.399999618530273
 20
945.4000244140625
 42
0
  0
SEQEND
  0
POLYLINE
  8
0
 10
0
 20
0
 39
0
 70
1
 66
1
  0
VERTEX
  8
0
 10
946.79998779296875
 20
166.39999389648437
 42
-0
  0
VERTEX
  8
0
 10
956.79998779296875
 20
154.39999389648437
 42
0
  0
VERTEX
  8
0
 10
966.79998779296875
 20
154.39999389648437
 42
0
  0
VERTEX
  8
0
 10
966.79998779296875
 20
224.39999389648437
 42
0
  0
VERTEX
  8
0
 10
952.79998779296875
 20
224.39999389648437
 42
0
  0
VERTEX
  8
0
 10
946.79998779296875
 20
218.39999389648437
 42
0
  0
SEQEND
  0
POLYLINE
  8
0
 10
0
 20
0
 39
0
 70
1
 66
1
  0
VERTEX
  8
0
 10
946.79998779296875
 20
482.39999389648437
 42
-0
  0
VERTEX
  8
0
 10
956.79998779296875
 20
470.39999389648437
 42
0
  0
VERTEX
  8
0
 10
966.79998779296875
 20
470.39999389648437
 42
0
  0
VERTEX
  8
0
 10
966.79998779296875
 20
540.4000244140625
 42
0
  0
VERTEX
  8
0
 10
952.79998779296875
 20
540.4000244140625
 42
0
  0
VERTEX
  8
0
 10
946.79998779296875
 20
534.4000244140625
 42
0
  0
SEQEND
  0
POLYLINE
  8
0
 10
0
 20
0
 39
0
 70
1
 66
1
  0
VERTEX
  8
0
 10
946.79998779296875
 20
798.4000244140625
 42
-0
  0
VERTEX
  8
0
 10
956.79998779296875
 20
786.4000244140625
 42
0
  0
VERTEX
  8
0
 10
966.79998779296875
 20
786.4000244140625
 42
0
  0
VERTEX
  8
0
 10
966.79998779296875
 20
856.4000244140625
 42
0
  0
VERTEX
  8
0
 10
952.79998779296875
 20
856.4000244140625
 42
0
  0
VERTEX
  8
0
 10
946.79998779296875
 20
850.4000244140625
 42
0
  0
SEQEND
  0
POLYLINE
  8
0
 10
0
 20
0
 39
0
 70
1
 66
1
  0
VERTEX
  8
0
 10
977.20001220703125
 20
111.40000152587891
 42
-0
  0
VERTEX
  8
0
 10
987.20001220703125
 20
99.400001525878906
 42
0
  0
VERTEX
  8
0
 10
997.20001220703125
 20
99.400001525878906
 42
0
  0
VERTEX
  8
0
 10
997.20001220703125
 20
169.39999389648437
 42
0
  0
VERTEX
  8
0
 10
983.20001220703125
 20
169.39999389648437
 42
0
  0
VERTEX
  8
0
 10
977.20001220703125
 20
163.39999389648437
 42
0
  0
SEQEND
  0
POLYLINE
  8
0
 10
0
 20
0
 39
0
 70
1
 66
1
  0
VERTEX
  8
0
 10
977.20001220703125
 20
427.39999389648438
 42
-0
  0
VERTEX
  8
0
 10
987.20001220703125
 20
415.39999389648437
 42
0
  0
VERTEX
  8
0
 10
997.20001220703125
 20
415.39999389648437
 42
0
  0
VERTEX
  8
0
 10
997.20001220703125
 20
485.39999389648437
 42
0
  0
VERTEX
  8
0
 10
983.20001220703125
 20
485.39999389648437
 42
0
  0
VERTEX
  8
0
 10
977.20001220703125
 20
479.39999389648437
 42
0
  0
SEQEND
  0
POLYLINE
  8
0
 10
0
 20
0
 39
0
 70
1
 66
1
  0
VERTEX
  8
0
 10
977.20001220703125
 20
743.4000244140625
 42
-0
  0
VERTEX
  8
0
 10
987.20001220703125
 20
731.4000244140625
 42
0
  0
VERTEX
  8
0
 10
997.20001220703125
 20
731.4000244140625
 42
0
  0
VERTEX
  8
0
 10
997.20001220703125
 20
801.4000244140625
 42
0
  0
VERTEX
  8
0
 10
983.20001220703125
 20
801.4000244140625
 42
0
  0
VERTEX
  8
0
 10
977.20001220703125
 20
795.4000244140625
 42
0
  0
SEQEND
  0
POLYLINE
  8
0
 10
0
 20
0
 39
0
 70
1
 66
1
  0
VERTEX
  8
0
 10
1039
 20
1073.199951171875
 42
-0
  0
VERTEX
  8
0
 10
1027
 20
1063.199951171875
 42
0
  0
VERTEX
  8
0
 10
1027
 20
1053.199951171875
 42
0
  0
VERTEX
  8
0
 10
1097
 20
1053.199951171875
 42
0
  0
VERTEX
  8
0
 10
1097
 20
1067.199951171875
 42
0
  0
VERTEX
  8
0
 10
1091
 20
1073.199951171875
 42
0
  0
SEQEND
  0
POLYLINE
  8
0
 10
0
 20
0
 39
0
 70
1
 66
1
  0
VERTEX
  8
0
 10
1093.800048828125
 20
1103.4000244140625
 42
-0
  0
VERTEX
  8
0
 10
1081.800048828125
 20
1093.4000244140625
 42
0
  0
VERTEX
  8
0
 10
1081.800048828125
 20
1083.4000244140625
 42
0
  0
VERTEX
  8
0
 10
1151.800048828125
 20
1083.4000244140625
 42
0
  0
VERTEX
  8
0
 10
1151.800048828125
 20
1097.4000244140625
 42
0
  0
VERTEX
  8
0
 10
1145.800048828125
 20
1103.4000244140625
 42
0
  0
SEQEND
  0
POLYLINE
  8
0
 10
0
 20
0
 39
0
 70
1
 66
1
  0
VERTEX
  8
0
 10
1208.800048828125
 20
1107.199951171875
 42
-0
  0
VERTEX
  8
0
 10
1220.800048828125
 20
1117.199951171875
 42
0
  0
VERTEX
  8
0
 10
1220.800048828125
 20
1127.199951171875
 42
0
  0
VERTEX
  8
0
 10
1150.800048828125
 20
1127.199951171875
 42
0
  0
VERTEX
  8
0
 10
1150.800048828125
 20
1113.199951171875
 42
0
  0
VERTEX
  8
0
 10
1156.800048828125
 20
1107.199951171875
 42
0
  0
SEQEND
  0
POLYLINE
  8
0
 10
0
 20
0
 39
0
 70
1
 66
1
  0
VERTEX
  8
0
 10
1220.800048828125
 20
166.39999389648437
 42
-0
  0
VERTEX
  8
0
 10
1230.800048828125
 20
154.39999389648437
 42
0
  0
VERTEX
  8
0
 10
1240.800048828125
 20
154.39999389648437
 42
0
  0
VERTEX
  8
0
 10
1240.800048828125
 20
224.39999389648437
 42
0
  0
VERTEX
  8
0
 10
1226.800048828125
 20
224.39999389648437
 42
0
  0
VERTEX
  8
0
 10
1220.800048828125
 20
218.39999389648437
 42
0
  0
SEQEND
  0
POLYLINE
  8
0
 10
0
 20
0
 39
0
 70
1
 66
1
  0
VERTEX
  8
0
 10
1220.800048828125
 20
482.39999389648437
 42
-0
  0
VERTEX
  8
0
 10
1230.800048828125
 20
470.39999389648437
 42
0
  0
VERTEX
  8
0
 10
1240.800048828125
 20
470.39999389648437
 42
0
  0
VERTEX
  8
0
 10
1240.800048828125
 20
540.4000244140625
 42
0
  0
VERTEX
  8
0
 10
1226.800048828125
 20
540.4000244140625
 42
0
  0
VERTEX
  8
0
 10
1220.800048828125
 20
534.4000244140625
 42
0
  0
SEQEND
  0
POLYLINE
  8
0
 10
0
 20
0
 39
0
 70
1
 66
1
  0
VERTEX
  8
0
 10
1251.199951171875
 20
111.40000152587891
 42
-0
  0
VERTEX
  8
0
 10
1261.199951171875
 20
99.400001525878906
 42
0
  0
VERTEX
  8
0
 10
1271.199951171875
 20
99.400001525878906
 42
0
  0
VERTEX
  8
0
 10
1271.199951171875
 20
169.39999389648437
 42
0
  0
VERTEX
  8
0
 10
1257.199951171875
 20
169.39999389648437
 42
0
  0
VERTEX
  8
0
 10
1251.199951171875
 20
163.39999389648437
 42
0
  0
SEQEND
  0
POLYLINE
  8
0
 10
0
 20
0
 39
0
 70
1
 66
1
  0
VERTEX
  8
0
 10
1251.199951171875
 20
427.39999389648438
 42
-0
  0
VERTEX
  8
0
 10
1261.199951171875
 20
415.39999389648437
 42
0
  0
VERTEX
  8
0
 10
1271.199951171875
 20
415.39999389648437
 42
0
  0
VERTEX
  8
0
 10
1271.199951171875
 20
485.39999389648437
 42
0
  0
VERTEX
  8
0
 10
1257.199951171875
 20
485.39999389648437
 42
0
  0
VERTEX
  8
0
 10
1251.199951171875
 20
479.39999389648437
 42
0
  0
SEQEND
  0
POLYLINE
  8
0
 10
0
 20
0
 39
0
 70
1
 66
1
  0
VERTEX
  8
0
 10
1256.4000244140625
 20
876.5999755859375
 42
-0
  0
VERTEX
  8
0
 10
1266.4000244140625
 20
864.5999755859375
 42
0
  0
VERTEX
  8
0
 10
1276.4000244140625
 20
864.5999755859375
 42
0
  0
VERTEX
  8
0
 10
1276.4000244140625
 20
934.5999755859375
 42
0
  0
VERTEX
  8
0
 10
1262.4000244140625
 20
934.5999755859375
 42
0
  0
VERTEX
  8
0
 10
1256.4000244140625
 20
928.5999755859375
 42
0
  0
SEQEND
  0
POLYLINE
  8
0
 10
0
 20
0
 39
0
 70
1
 66
1
  0
VERTEX
  8
0
 10
1724.199951171875
 20
921.79998779296875
 42
-0
  0
VERTEX
  8
0
 10
1734.199951171875
 20
909.79998779296875
 42
0
  0
VERTEX
  8
0
 10
1744.199951171875
 20
909.79998779296875
 42
0
  0
VERTEX
  8
0
 10
1744.199951171875
 20
979.79998779296875
 42
0
  0
VERTEX
  8
0
 10
1730.199951171875
 20
979.79998779296875
 42
0
  0
VERTEX
  8
0
 10
1724.199951171875
 20
973.79998779296875
 42
0
  0
SEQEND
  0
POLYLINE
  8
0
 10
0
 20
0
 39
0
 70
1
 66
1
  0
VERTEX
  8
0
 10
1865.5999755859375
 20
886.4000244140625
 42
-0
  0
VERTEX
  8
0
 10
1875.5999755859375
 20
874.4000244140625
 42
0
  0
VERTEX
  8
0
 10
1885.5999755859375
 20
874.4000244140625
 42
0
  0
VERTEX
  8
0
 10
1885.5999755859375
 20
944.4000244140625
 42
0
  0
VERTEX
  8
0
 10
1871.5999755859375
 20
944.4000244140625
 42
0
  0
VERTEX
  8
0
 10
1865.5999755859375
 20
938.4000244140625
 42
0
  0
SEQEND
  0
POLYLINE
  8
0
 10
0
 20
0
 39
0
 70
1
 66
1
  0
VERTEX
  8
0
 10
1964.5999755859375
 20
1222.800048828125
 42
-0
  0
VERTEX
  8
0
 10
1954.5999755859375
 20
1234.800048828125
 42
0
  0
VERTEX
  8
0
 10
1944.5999755859375
 20
1234.800048828125
 42
0
  0
VERTEX
  8
0
 10
1944.5999755859375
 20
1164.800048828125
 42
0
  0
VERTEX
  8
0
 10
1958.5999755859375
 20
1164.800048828125
 42
0
  0
VERTEX
  8
0
 10
1964.5999755859375
 20
1170.800048828125
 42
0
  0
SEQEND
  0
POLYLINE
  8
0
 10
0
 20
0
 39
0
 70
1
 66
1
  0
VERTEX
  8
0
 10
1987.199951171875
 20
68.400001525878906
 42
-0
  0
VERTEX
  8
0
 10
1977.199951171875
 20
80.400001525878906
 42
0
  0
VERTEX
  8
0
 10
1967.199951171875
 20
80.400001525878906
 42
0
  0
VERTEX
  8
0
 10
1967.199951171875
 20
10.399999618530273
 42
0
  0
VERTEX
  8
0
 10
1981.199951171875
 20
10.399999618530273
 42
0
  0
VERTEX
  8
0
 10
1987.199951171875
 20
16.399999618530273
 42
0
  0
SEQEND
  0
POLYLINE
  8
0
 10
0
 20
0
 39
0
 70
1
 66
1
  0
VERTEX
  8
0
 10
1987.199951171875
 20
148.60000610351562
 42
-0
  0
VERTEX
  8
0
 10
1977.199951171875
 20
160.60000610351562
 42
0
  0
VERTEX
  8
0
 10
1967.199951171875
 20
160.60000610351562
 42
0
  0
VERTEX
  8
0
 10
1967.199951171875
 20
90.599998474121094
 42
0
  0
VERTEX
  8
0
 10
1981.199951171875
 20
90.599998474121094
 42
0
  0
VERTEX
  8
0
 10
1987.199951171875
 20
96.599998474121094
 42
0
  0
SEQEND
  0
POLYLINE
  8
0
 10
0
 20
0
 39
0
 70
1
 66
1
  0
VERTEX
  8
0
 10
1987.199951171875
 20
228.80000305175781
 42
-0
  0
VERTEX
  8
0
 10
1977.199951171875
 20
240.80000305175781
 42
0
  0
VERTEX
  8
0
 10
1967.199951171875
 20
240.80000305175781
 42
0
  0
VERTEX
  8
0
 10
1967.199951171875
 20
170.80000305175781
 42
0
  0
VERTEX
  8
0
 10
1981.199951171875
 20
170.80000305175781
 42
0
  0
VERTEX
  8
0
 10
1987.199951171875
 20
176.80000305175781
 42
0
  0
SEQEND
  0
POLYLINE
  8
0
 10
0
 20
0
 39
0
 70
1
 66
1
  0
VERTEX
  8
0
 10
1987.199951171875
 20
309
 42
-0
  0
VERTEX
  8
0
 10
1977.199951171875
 20
321
 42
0
  0
VERTEX
  8
0
 10
1967.199951171875
 20
321
 42
0
  0
VERTEX
  8
0
 10
1967.199951171875
 20
251
 42
0
  0
VERTEX
  8
0
 10
1981.199951171875
 20
251
 42
0
  0
VERTEX
  8
0
 10
1987.199951171875
 20
257
 42
0
  0
SEQEND
  0
POLYLINE
  8
0
 10
0
 20
0
 39
0
 70
1
 66
1
  0
VERTEX
  8
0
 10
1987.199951171875
 20
389.20001220703125
 42
-0
  0
VERTEX
  8
0
 10
1977.199951171875
 20
401.20001220703125
 42
0
  0
VERTEX
  8
0
 10
1967.199951171875
 20
401.20001220703125
 42
0
  0
VERTEX
  8
0
 10
1967.199951171875
 20
331.20001220703125
 42
0
  0
VERTEX
  8
0
 10
1981.199951171875
 20
331.20001220703125
 42
0
  0
VERTEX
  8
0
 10
1987.199951171875
 20
337.20001220703125
 42
0
  0
SEQEND
  0
ENDSEC
  0
EOF
